<?xml version="1.0" encoding="UTF-8" standalone="no"?>
<!DOCTYPE svg PUBLIC "-//W3C//DTD SVG 1.1//EN"
 "http://www.w3.org/Graphics/SVG/1.1/DTD/svg11.dtd">
<!-- Generated by graphviz version 13.1.2 (20250808.2320)
 -->
<!-- Title: kest_string_concat Pages: 1 -->
<svg width="563pt" height="215pt"
 viewBox="0.00 0.00 563.00 215.00" xmlns="http://www.w3.org/2000/svg" xmlns:xlink="http://www.w3.org/1999/xlink">
<g id="graph0" class="graph" transform="scale(1 1) rotate(0) translate(4 210.5)">
<title>kest_string_concat</title>
<!-- Node1 -->
<g id="Node000001" class="node">
<title>Node1</title>
<g id="a_Node000001"><a xlink:title=" ">
<polygon fill="#999999" stroke="#666666" points="554.5,-49.12 447.75,-49.12 447.75,-28.38 554.5,-28.38 554.5,-49.12"/>
<text xml:space="preserve" text-anchor="middle" x="501.12" y="-35.62" font-family="Helvetica,sans-Serif" font-size="10.00">kest_string_concat</text>
</a>
</g>
</g>
<!-- Node2 -->
<g id="Node000002" class="node">
<title>Node2</title>
<g id="a_Node000002"><a xlink:href="kest__dictionary_8c.html#a298bc3ea15bffee0e485de36aea099c2" target="_top" xlink:title=" ">
<polygon fill="white" stroke="#666666" points="411.75,-78.5 306.5,-78.5 306.5,-45 411.75,-45 411.75,-78.5"/>
<text xml:space="preserve" text-anchor="start" x="314.5" y="-65" font-family="Helvetica,sans-Serif" font-size="10.00">kest_dict_entry_to</text>
<text xml:space="preserve" text-anchor="middle" x="359.12" y="-52.25" font-family="Helvetica,sans-Serif" font-size="10.00">_string</text>
</a>
</g>
</g>
<!-- Node1&#45;&gt;Node2 -->
<g id="edge1_Node000001_Node000002" class="edge">
<title>Node1&#45;&gt;Node2</title>
<g id="a_edge1_Node000001_Node000002"><a xlink:title=" ">
<path fill="none" stroke="#63b8ff" d="M436.25,-49.24C428.13,-50.58 419.91,-51.93 412.02,-53.22"/>
<polygon fill="#63b8ff" stroke="#63b8ff" points="436.8,-52.7 446.1,-47.63 435.67,-45.79 436.8,-52.7"/>
</a>
</g>
</g>
<!-- Node18 -->
<g id="Node000018" class="node">
<title>Node18</title>
<g id="a_Node000018"><a xlink:href="kest__dictionary_8c.html#a2a60847422026db5eab8103cd8ea1dc5" target="_top" xlink:title=" ">
<polygon fill="white" stroke="#666666" points="245.38,-27.12 183.62,-27.12 183.62,-6.38 245.38,-6.38 245.38,-27.12"/>
<text xml:space="preserve" text-anchor="middle" x="214.5" y="-13.62" font-family="Helvetica,sans-Serif" font-size="10.00">print_dict</text>
</a>
</g>
</g>
<!-- Node1&#45;&gt;Node18 -->
<g id="edge12_Node000001_Node000018" class="edge">
<title>Node1&#45;&gt;Node18</title>
<g id="a_edge12_Node000001_Node000018"><a xlink:title=" ">
<path fill="none" stroke="#63b8ff" d="M436.12,-33.8C376.7,-29.21 290.84,-22.57 245.75,-19.09"/>
<polygon fill="#63b8ff" stroke="#63b8ff" points="435.51,-37.27 445.75,-34.55 436.05,-30.29 435.51,-37.27"/>
</a>
</g>
</g>
<!-- Node2&#45;&gt;Node2 -->
<g id="edge2_Node000002_Node000002" class="edge">
<title>Node2&#45;&gt;Node2</title>
<g id="a_edge2_Node000002_Node000002"><a xlink:title=" ">
<path fill="none" stroke="#63b8ff" d="M382.64,-90.22C378.64,-93.99 370.8,-96.5 359.12,-96.5 337.77,-96.5 329.26,-88.12 333.6,-78.91"/>
<polygon fill="#63b8ff" stroke="#63b8ff" points="386.07,-90.86 384.39,-80.4 379.18,-89.63 386.07,-90.86"/>
</a>
</g>
</g>
<!-- Node3 -->
<g id="Node000003" class="node">
<title>Node3</title>
<g id="a_Node000003"><a xlink:href="kest__dict__extract_8c.html#ac9cee86a595df863e15b7693b86635b7" target="_top" xlink:title=" ">
<polygon fill="white" stroke="#666666" points="266.75,-154.5 162.25,-154.5 162.25,-121 266.75,-121 266.75,-154.5"/>
<text xml:space="preserve" text-anchor="start" x="170.25" y="-141" font-family="Helvetica,sans-Serif" font-size="10.00">kest_extract_filter</text>
<text xml:space="preserve" text-anchor="middle" x="214.5" y="-128.25" font-family="Helvetica,sans-Serif" font-size="10.00">_coefs_from_dict</text>
</a>
</g>
</g>
<!-- Node2&#45;&gt;Node3 -->
<g id="edge3_Node000002_Node000003" class="edge">
<title>Node2&#45;&gt;Node3</title>
<g id="a_edge3_Node000002_Node000003"><a xlink:title=" ">
<path fill="none" stroke="#63b8ff" d="M319.66,-84.55C304.48,-93.32 286.81,-103.26 270.5,-111.75 264.88,-114.68 258.87,-117.66 252.97,-120.51"/>
<polygon fill="#63b8ff" stroke="#63b8ff" points="321.03,-87.8 327.92,-79.75 317.51,-81.75 321.03,-87.8"/>
</a>
</g>
</g>
<!-- Node14 -->
<g id="Node000014" class="node">
<title>Node14</title>
<g id="a_Node000014"><a xlink:href="kest__dictionary_8c.html#a8db4f9c511b00d7240052135e9c1ed67" target="_top" xlink:title=" ">
<polygon fill="white" stroke="#666666" points="270.5,-103.12 158.5,-103.12 158.5,-82.38 270.5,-82.38 270.5,-103.12"/>
<text xml:space="preserve" text-anchor="middle" x="214.5" y="-89.62" font-family="Helvetica,sans-Serif" font-size="10.00">kest_parse_dict_list</text>
</a>
</g>
</g>
<!-- Node2&#45;&gt;Node14 -->
<g id="edge6_Node000002_Node000014" class="edge">
<title>Node2&#45;&gt;Node14</title>
<g id="a_edge6_Node000002_Node000014"><a xlink:title=" ">
<path fill="none" stroke="#63b8ff" d="M295.08,-75.45C285.07,-77.63 274.85,-79.85 265.21,-81.94"/>
<polygon fill="#63b8ff" stroke="#63b8ff" points="295.72,-78.9 304.75,-73.35 294.24,-72.05 295.72,-78.9"/>
</a>
</g>
</g>
<!-- Node15 -->
<g id="Node000015" class="node">
<title>Node15</title>
<g id="a_Node000015"><a xlink:href="kest__dictionary_8c.html#af0aceaa93cba06fd44ad4bc50f2418e4" target="_top" xlink:title=" ">
<polygon fill="#fff0f0" stroke="red" points="117.25,-103.12 5.25,-103.12 5.25,-82.38 117.25,-82.38 117.25,-103.12"/>
<text xml:space="preserve" text-anchor="middle" x="61.25" y="-89.62" font-family="Helvetica,sans-Serif" font-size="10.00">kest_parse_dict_val</text>
</a>
</g>
</g>
<!-- Node2&#45;&gt;Node15 -->
<g id="edge9_Node000002_Node000015" class="edge">
<title>Node2&#45;&gt;Node15</title>
<g id="a_edge9_Node000002_Node000015"><a xlink:title=" ">
<path fill="none" stroke="#63b8ff" d="M294.96,-63.37C255.59,-64.92 203.95,-67.93 158.5,-73.75 142.79,-75.76 125.79,-78.82 110.51,-81.9"/>
<polygon fill="#63b8ff" stroke="#63b8ff" points="294.87,-66.88 304.73,-63.01 294.61,-59.88 294.87,-66.88"/>
</a>
</g>
</g>
<!-- Node2&#45;&gt;Node18 -->
<g id="edge10_Node000002_Node000018" class="edge">
<title>Node2&#45;&gt;Node18</title>
<g id="a_edge10_Node000002_Node000018"><a xlink:title=" ">
<path fill="none" stroke="#63b8ff" d="M295.55,-42.01C278.19,-36.53 260.14,-30.83 245.57,-26.24"/>
<polygon fill="#63b8ff" stroke="#63b8ff" points="294.2,-45.25 304.79,-44.92 296.3,-38.57 294.2,-45.25"/>
</a>
</g>
</g>
<!-- Node4 -->
<g id="Node000004" class="node">
<title>Node4</title>
<g id="a_Node000004"><a xlink:href="kest__dict__extract_8c.html#ab7acbd0287c39e5bbb08575fa2a61291" target="_top" xlink:title=" ">
<polygon fill="#fff0f0" stroke="red" points="118.38,-206.5 4.12,-206.5 4.12,-173 118.38,-173 118.38,-206.5"/>
<text xml:space="preserve" text-anchor="start" x="12.12" y="-193" font-family="Helvetica,sans-Serif" font-size="10.00">kest_extract_biquad</text>
<text xml:space="preserve" text-anchor="middle" x="61.25" y="-180.25" font-family="Helvetica,sans-Serif" font-size="10.00">_from_dict</text>
</a>
</g>
</g>
<!-- Node3&#45;&gt;Node4 -->
<g id="edge4_Node000003_Node000004" class="edge">
<title>Node3&#45;&gt;Node4</title>
<g id="a_edge4_Node000003_Node000004"><a xlink:title=" ">
<path fill="none" stroke="#63b8ff" d="M152.94,-158.57C139.49,-163.19 125.38,-168.05 112.4,-172.51"/>
<polygon fill="#63b8ff" stroke="#63b8ff" points="153.81,-161.97 162.12,-155.41 151.53,-155.35 153.81,-161.97"/>
</a>
</g>
</g>
<!-- Node13 -->
<g id="Node000013" class="node">
<title>Node13</title>
<g id="a_Node000013"><a xlink:href="kest__dict__extract_8c.html#a449de50461a34d20bba301a90a39ec05" target="_top" xlink:title=" ">
<polygon fill="#fff0f0" stroke="red" points="113.5,-154.5 9,-154.5 9,-121 113.5,-121 113.5,-154.5"/>
<text xml:space="preserve" text-anchor="start" x="17" y="-141" font-family="Helvetica,sans-Serif" font-size="10.00">kest_extract_filter</text>
<text xml:space="preserve" text-anchor="middle" x="61.25" y="-128.25" font-family="Helvetica,sans-Serif" font-size="10.00">_from_dict</text>
</a>
</g>
</g>
<!-- Node3&#45;&gt;Node13 -->
<g id="edge5_Node000003_Node000013" class="edge">
<title>Node3&#45;&gt;Node13</title>
<g id="a_edge5_Node000003_Node000013"><a xlink:title=" ">
<path fill="none" stroke="#63b8ff" d="M150.4,-137.75C138.24,-137.75 125.64,-137.75 113.9,-137.75"/>
<polygon fill="#63b8ff" stroke="#63b8ff" points="150.36,-141.25 160.36,-137.75 150.36,-134.25 150.36,-141.25"/>
</a>
</g>
</g>
<!-- Node14&#45;&gt;Node15 -->
<g id="edge7_Node000014_Node000015" class="edge">
<title>Node14&#45;&gt;Node15</title>
<g id="a_edge7_Node000014_Node000015"><a xlink:title=" ">
<path fill="none" stroke="#63b8ff" d="M146.77,-86.04C137.06,-85.95 127.16,-86.01 117.7,-86.22"/>
<polygon fill="#63b8ff" stroke="#63b8ff" points="146.47,-89.54 156.53,-86.19 146.58,-82.54 146.47,-89.54"/>
</a>
</g>
</g>
<!-- Node15&#45;&gt;Node14 -->
<g id="edge8_Node000015_Node000014" class="edge">
<title>Node15&#45;&gt;Node14</title>
<g id="a_edge8_Node000015_Node000014"><a xlink:title=" ">
<path fill="none" stroke="#63b8ff" d="M128.97,-99.46C138.68,-99.55 148.59,-99.49 158.04,-99.28"/>
<polygon fill="#63b8ff" stroke="#63b8ff" points="129.27,-95.96 119.22,-99.31 129.16,-102.96 129.27,-95.96"/>
</a>
</g>
</g>
<!-- Node17 -->
<g id="Node000017" class="node">
<title>Node17</title>
<g id="a_Node000017"><a xlink:href="kest__eff__section_8c.html#a4de28fb64398c9194136a2ced71e2795" target="_top" xlink:title=" ">
<polygon fill="#fff0f0" stroke="red" points="122.5,-33.5 0,-33.5 0,0 122.5,0 122.5,-33.5"/>
<text xml:space="preserve" text-anchor="start" x="8" y="-20" font-family="Helvetica,sans-Serif" font-size="10.00">kest_parse_dictionary</text>
<text xml:space="preserve" text-anchor="middle" x="61.25" y="-7.25" font-family="Helvetica,sans-Serif" font-size="10.00">_section</text>
</a>
</g>
</g>
<!-- Node18&#45;&gt;Node17 -->
<g id="edge11_Node000018_Node000017" class="edge">
<title>Node18&#45;&gt;Node17</title>
<g id="a_edge11_Node000018_Node000017"><a xlink:title=" ">
<path fill="none" stroke="#63b8ff" d="M172.13,-16.75C156.9,-16.75 139.33,-16.75 122.77,-16.75"/>
<polygon fill="#63b8ff" stroke="#63b8ff" points="171.74,-20.25 181.74,-16.75 171.74,-13.25 171.74,-20.25"/>
</a>
</g>
</g>
</g>
</svg>
