<?xml version="1.0" encoding="UTF-8" standalone="no"?>
<!DOCTYPE svg PUBLIC "-//W3C//DTD SVG 1.1//EN"
 "http://www.w3.org/Graphics/SVG/1.1/DTD/svg11.dtd">
<!-- Generated by graphviz version 13.1.2 (20250808.2320)
 -->
<!-- Title: kest_parameter_free Pages: 1 -->
<svg width="249pt" height="68pt"
 viewBox="0.00 0.00 249.00 68.00" xmlns="http://www.w3.org/2000/svg" xmlns:xlink="http://www.w3.org/1999/xlink">
<g id="graph0" class="graph" transform="scale(1 1) rotate(0) translate(4 63.75)">
<title>kest_parameter_free</title>
<!-- Node1 -->
<g id="Node000001" class="node">
<title>Node1</title>
<g id="a_Node000001"><a xlink:title=" ">
<polygon fill="#999999" stroke="#666666" points="117.25,-39.75 0,-39.75 0,-19 117.25,-19 117.25,-39.75"/>
<text xml:space="preserve" text-anchor="middle" x="58.62" y="-26.25" font-family="Helvetica,sans-Serif" font-size="10.00">kest_parameter_free</text>
</a>
</g>
</g>
<!-- Node2 -->
<g id="Node000002" class="node">
<title>Node2</title>
<g id="a_Node000002"><a xlink:href="kest__parameter_8c.html#aba1de2a97c113a2fc9e06799c71dd5b5" target="_top" xlink:title=" ">
<polygon fill="white" stroke="#666666" points="241.25,-59.75 153.25,-59.75 153.25,-39 241.25,-39 241.25,-59.75"/>
<text xml:space="preserve" text-anchor="middle" x="197.25" y="-46.25" font-family="Helvetica,sans-Serif" font-size="10.00">gut_parameter</text>
</a>
</g>
</g>
<!-- Node1&#45;&gt;Node2 -->
<g id="edge1_Node000001_Node000002" class="edge">
<title>Node1&#45;&gt;Node2</title>
<g id="a_edge1_Node000001_Node000002"><a xlink:title=" ">
<path fill="none" stroke="#63b8ff" d="M117.57,-37.86C125.67,-39.04 133.98,-40.26 142.01,-41.44"/>
<polygon fill="#63b8ff" stroke="#63b8ff" points="141.24,-44.86 151.65,-42.85 142.26,-37.93 141.24,-44.86"/>
</a>
</g>
</g>
<!-- Node3 -->
<g id="Node000003" class="node">
<title>Node3</title>
<g id="a_Node000003"><a xlink:href="kest__alloc_8c.html#a294af5728a94aa316fcf65304d388d48" target="_top" xlink:title=" ">
<polygon fill="white" stroke="#666666" points="227.75,-20.75 166.75,-20.75 166.75,0 227.75,0 227.75,-20.75"/>
<text xml:space="preserve" text-anchor="middle" x="197.25" y="-7.25" font-family="Helvetica,sans-Serif" font-size="10.00">kest_free</text>
</a>
</g>
</g>
<!-- Node1&#45;&gt;Node3 -->
<g id="edge2_Node000001_Node000003" class="edge">
<title>Node1&#45;&gt;Node3</title>
<g id="a_edge2_Node000001_Node000003"><a xlink:title=" ">
<path fill="none" stroke="#63b8ff" d="M117.57,-21.32C130.22,-19.56 143.36,-17.73 155.2,-16.08"/>
<polygon fill="#63b8ff" stroke="#63b8ff" points="155.61,-19.56 165.03,-14.72 154.64,-12.63 155.61,-19.56"/>
</a>
</g>
</g>
</g>
</svg>
