<?xml version="1.0" encoding="UTF-8" standalone="no"?>
<!DOCTYPE svg PUBLIC "-//W3C//DTD SVG 1.1//EN"
 "http://www.w3.org/Graphics/SVG/1.1/DTD/svg11.dtd">
<!-- Generated by graphviz version 13.1.2 (20250808.2320)
 -->
<!-- Title: setting_widget_create_ui Pages: 1 -->
<svg width="653pt" height="80pt"
 viewBox="0.00 0.00 653.00 80.00" xmlns="http://www.w3.org/2000/svg" xmlns:xlink="http://www.w3.org/1999/xlink">
<g id="graph0" class="graph" transform="scale(1 1) rotate(0) translate(4 76.12)">
<title>setting_widget_create_ui</title>
<!-- Node1 -->
<g id="Node000001" class="node">
<title>Node1</title>
<g id="a_Node000001"><a xlink:title=" ">
<polygon fill="#999999" stroke="#666666" points="645.25,-42.75 507,-42.75 507,-22 645.25,-22 645.25,-42.75"/>
<text xml:space="preserve" text-anchor="middle" x="576.12" y="-29.25" font-family="Helvetica,sans-Serif" font-size="10.00">setting_widget_create_ui</text>
</a>
</g>
</g>
<!-- Node2 -->
<g id="Node000002" class="node">
<title>Node2</title>
<g id="a_Node000002"><a xlink:href="kest__effect__view_8c.html#a7d15ffb969bcf677cf4a1622e2666f8e" target="_top" xlink:title=" ">
<polygon fill="white" stroke="#666666" points="471,-42.75 347.75,-42.75 347.75,-22 471,-22 471,-42.75"/>
<text xml:space="preserve" text-anchor="middle" x="409.38" y="-29.25" font-family="Helvetica,sans-Serif" font-size="10.00">create_effect_view_ui</text>
</a>
</g>
</g>
<!-- Node1&#45;&gt;Node2 -->
<g id="edge1_Node000001_Node000002" class="edge">
<title>Node1&#45;&gt;Node2</title>
<g id="a_edge1_Node000001_Node000002"><a xlink:title=" ">
<path fill="none" stroke="#63b8ff" d="M495.39,-32.38C487.36,-32.38 479.29,-32.38 471.5,-32.38"/>
<polygon fill="#63b8ff" stroke="#63b8ff" points="495.17,-35.88 505.17,-32.38 495.17,-28.88 495.17,-35.88"/>
</a>
</g>
</g>
<!-- Node3 -->
<g id="Node000003" class="node">
<title>Node3</title>
<g id="a_Node000003"><a xlink:href="kest__effect__select_8c.html#a0a0604d69c6fbeb09b31db2ebff0e901" target="_top" xlink:title=" ">
<polygon fill="white" stroke="#666666" points="311.75,-63.75 163.75,-63.75 163.75,-43 311.75,-43 311.75,-63.75"/>
<text xml:space="preserve" text-anchor="middle" x="237.75" y="-50.25" font-family="Helvetica,sans-Serif" font-size="10.00">add_effect_from_menu_eff</text>
</a>
</g>
</g>
<!-- Node2&#45;&gt;Node3 -->
<g id="edge2_Node000002_Node000003" class="edge">
<title>Node2&#45;&gt;Node3</title>
<g id="a_edge2_Node000002_Node000003"><a xlink:title=" ">
<path fill="none" stroke="#63b8ff" d="M336.4,-41.29C328.36,-42.28 320.17,-43.29 312.12,-44.29"/>
<polygon fill="#63b8ff" stroke="#63b8ff" points="336.62,-44.79 346.11,-40.08 335.76,-37.84 336.62,-44.79"/>
</a>
</g>
</g>
<!-- Node10 -->
<g id="Node000010" class="node">
<title>Node10</title>
<g id="a_Node000010"><a xlink:href="kest__effect__view_8c.html#a7b9803e86d71b10b167f0babf088fe08" target="_top" xlink:title=" ">
<polygon fill="white" stroke="#666666" points="284.75,-23.75 190.75,-23.75 190.75,-3 284.75,-3 284.75,-23.75"/>
<text xml:space="preserve" text-anchor="middle" x="237.75" y="-10.25" font-family="Helvetica,sans-Serif" font-size="10.00">init_effect_view</text>
</a>
</g>
</g>
<!-- Node2&#45;&gt;Node10 -->
<g id="edge4_Node000002_Node000010" class="edge">
<title>Node2&#45;&gt;Node10</title>
<g id="a_edge4_Node000002_Node000010"><a xlink:title=" ">
<path fill="none" stroke="#63b8ff" d="M336.38,-24.31C319.07,-22.37 301.04,-20.35 285.25,-18.58"/>
<polygon fill="#63b8ff" stroke="#63b8ff" points="335.78,-27.77 346.11,-25.4 336.56,-20.81 335.78,-27.77"/>
</a>
</g>
</g>
<!-- Node4 -->
<g id="Node000004" class="node">
<title>Node4</title>
<g id="a_Node000004"><a xlink:href="kest__effect__select_8c.html#a46b6d3a353595e72c7a17e6352e5a7a0" target="_top" xlink:title=" ">
<polygon fill="#fff0f0" stroke="red" points="126.25,-72.12 1.5,-72.12 1.5,-38.62 126.25,-38.62 126.25,-72.12"/>
<text xml:space="preserve" text-anchor="start" x="9.5" y="-58.62" font-family="Helvetica,sans-Serif" font-size="10.00">create_effect_selector</text>
<text xml:space="preserve" text-anchor="middle" x="63.88" y="-45.88" font-family="Helvetica,sans-Serif" font-size="10.00">_button_ui_eff</text>
</a>
</g>
</g>
<!-- Node3&#45;&gt;Node4 -->
<g id="edge3_Node000003_Node000004" class="edge">
<title>Node3&#45;&gt;Node4</title>
<g id="a_edge3_Node000003_Node000004"><a xlink:title=" ">
<path fill="none" stroke="#63b8ff" d="M152.12,-54.36C143.54,-54.46 134.94,-54.56 126.66,-54.66"/>
<polygon fill="#63b8ff" stroke="#63b8ff" points="151.89,-57.86 161.85,-54.25 151.81,-50.86 151.89,-57.86"/>
</a>
</g>
</g>
<!-- Node11 -->
<g id="Node000011" class="node">
<title>Node11</title>
<g id="a_Node000011"><a xlink:href="kest__effect__view_8c.html#abb65b28dc293fd68d3b384f48210130e" target="_top" xlink:title=" ">
<polygon fill="white" stroke="#666666" points="127.75,-20.75 0,-20.75 0,0 127.75,0 127.75,-20.75"/>
<text xml:space="preserve" text-anchor="middle" x="63.88" y="-7.25" font-family="Helvetica,sans-Serif" font-size="10.00">create_effect_view_for</text>
</a>
</g>
</g>
<!-- Node10&#45;&gt;Node11 -->
<g id="edge5_Node000010_Node000011" class="edge">
<title>Node10&#45;&gt;Node11</title>
<g id="a_edge5_Node000010_Node000011"><a xlink:title=" ">
<path fill="none" stroke="#63b8ff" d="M179.57,-12.38C163.09,-12.09 145.02,-11.77 128.19,-11.48"/>
<polygon fill="#63b8ff" stroke="#63b8ff" points="179.12,-15.87 189.18,-12.54 179.24,-8.87 179.12,-15.87"/>
</a>
</g>
</g>
</g>
</svg>
