<?xml version="1.0" encoding="UTF-8" standalone="no"?>
<!DOCTYPE svg PUBLIC "-//W3C//DTD SVG 1.1//EN"
 "http://www.w3.org/Graphics/SVG/1.1/DTD/svg11.dtd">
<!-- Generated by graphviz version 13.1.2 (20250808.2320)
 -->
<!-- Title: kest_active_button_free Pages: 1 -->
<svg width="300pt" height="86pt"
 viewBox="0.00 0.00 300.00 86.00" xmlns="http://www.w3.org/2000/svg" xmlns:xlink="http://www.w3.org/1999/xlink">

<svg id="main" version="1.1" xmlns="http://www.w3.org/2000/svg" xmlns:xlink="http://www.w3.org/1999/xlink" xml:space="preserve">

<style type="text/css"><![CDATA[
.node, .edge {opacity: 0.7;}
.node.selected, .edge.selected {opacity: 1;}
.edge:hover path { stroke: red; }
.edge:hover polygon { stroke: red; fill: red; }
]]></style>
<script type="application/ecmascript" xlink:href="svg.min.js"/>
<svg id="graph" class="graph">
<g id="graph0" class="graph" transform="scale(1 1) rotate(0) translate(4 81.75)">
<title>kest_active_button_free</title>
<!-- Node1 -->
<g id="Node000001" class="node">
<title>Node1</title>
<g id="a_Node000001"><a xlink:title=" ">
<polygon fill="#999999" stroke="#666666" points="133,-39.75 0,-39.75 0,-19 133,-19 133,-39.75"/>
<text xml:space="preserve" text-anchor="middle" x="66.5" y="-26.25" font-family="Helvetica,sans-Serif" font-size="10.00">kest_active_button_free</text>
</a>
</g>
</g>
<!-- Node2 -->
<g id="Node000002" class="node">
<title>Node2</title>
<g id="a_Node000002"><a xlink:href="kest__button_8c.html#a5d3971a16772f47d5d5178004c93ca9b" target="_top" xlink:title=" ">
<polygon fill="white" stroke="#666666" points="292.25,-59.75 169,-59.75 169,-39 292.25,-39 292.25,-59.75"/>
<text xml:space="preserve" text-anchor="middle" x="230.62" y="-46.25" font-family="Helvetica,sans-Serif" font-size="10.00">kest_button_delete_ui</text>
</a>
</g>
</g>
<!-- Node1&#45;&gt;Node2 -->
<g id="edge1_Node000001_Node000002" class="edge">
<title>Node1&#45;&gt;Node2</title>
<g id="a_edge1_Node000001_Node000002"><a xlink:title=" ">
<path fill="none" stroke="#63b8ff" d="M133.44,-37.51C141.37,-38.49 149.49,-39.49 157.5,-40.48"/>
<polygon fill="#63b8ff" stroke="#63b8ff" points="156.85,-43.92 167.21,-41.67 157.71,-36.98 156.85,-43.92"/>
</a>
</g>
</g>
<!-- Node3 -->
<g id="Node000003" class="node">
<title>Node3</title>
<g id="a_Node000003"><a xlink:href="kest__alloc_8c.html#a294af5728a94aa316fcf65304d388d48" target="_top" xlink:title=" ">
<polygon fill="white" stroke="#666666" points="261.12,-20.75 200.12,-20.75 200.12,0 261.12,0 261.12,-20.75"/>
<text xml:space="preserve" text-anchor="middle" x="230.62" y="-7.25" font-family="Helvetica,sans-Serif" font-size="10.00">kest_free</text>
</a>
</g>
</g>
<!-- Node1&#45;&gt;Node3 -->
<g id="edge3_Node000001_Node000003" class="edge">
<title>Node1&#45;&gt;Node3</title>
<g id="a_edge3_Node000001_Node000003"><a xlink:title=" ">
<path fill="none" stroke="#63b8ff" d="M133.44,-21.65C152.1,-19.46 171.87,-17.14 188.61,-15.18"/>
<polygon fill="#63b8ff" stroke="#63b8ff" points="188.62,-18.7 198.15,-14.06 187.81,-11.75 188.62,-18.7"/>
</a>
</g>
</g>
<!-- Node2&#45;&gt;Node2 -->
<g id="edge2_Node000002_Node000002" class="edge">
<title>Node2&#45;&gt;Node2</title>
<g id="a_edge2_Node000002_Node000002"><a xlink:title=" ">
<path fill="none" stroke="#63b8ff" d="M204.18,-60.15C193.6,-68.81 202.42,-77.75 230.62,-77.75 246.05,-77.75 255.68,-75.08 259.51,-71.24"/>
<polygon fill="#63b8ff" stroke="#63b8ff" points="262.96,-70.64 257.4,-61.63 256.12,-72.14 262.96,-70.64"/>
</a>
</g>
</g>
</g>
</svg>
</svg>

<style type='text/css'>
<![CDATA[
[data-mouse-over-selected='false'] { opacity: 0.7; }
[data-mouse-over-selected='true']  { opacity: 1.0; }
]]>
</style>
<script type="application/ecmascript"><![CDATA[
document.addEventListener('DOMContentLoaded', (event) => {
  highlightEdges();
  highlightAdjacentNodes();
});
]]></script>
</svg>
