<?xml version="1.0" encoding="UTF-8" standalone="no"?>
<!DOCTYPE svg PUBLIC "-//W3C//DTD SVG 1.1//EN"
 "http://www.w3.org/Graphics/SVG/1.1/DTD/svg11.dtd">
<!-- Generated by graphviz version 13.1.2 (20250808.2320)
 -->
<!-- Title: create_panel_with_left_and_right_buttons Pages: 1 -->
<svg width="470pt" height="138pt"
 viewBox="0.00 0.00 470.00 138.00" xmlns="http://www.w3.org/2000/svg" xmlns:xlink="http://www.w3.org/1999/xlink">

<svg id="main" version="1.1" xmlns="http://www.w3.org/2000/svg" xmlns:xlink="http://www.w3.org/1999/xlink" xml:space="preserve">

<style type="text/css"><![CDATA[
.node, .edge {opacity: 0.7;}
.node.selected, .edge.selected {opacity: 1;}
.edge:hover path { stroke: red; }
.edge:hover polygon { stroke: red; fill: red; }
]]></style>
<script type="application/ecmascript" xlink:href="svg.min.js"/>
<svg id="graph" class="graph">
<g id="graph0" class="graph" transform="scale(1 1) rotate(0) translate(4 134.12)">
<title>create_panel_with_left_and_right_buttons</title>
<!-- Node1 -->
<g id="Node000001" class="node">
<title>Node1</title>
<g id="a_Node000001"><a xlink:title=" ">
<polygon fill="#999999" stroke="#666666" points="127,-78.5 0,-78.5 0,-45 127,-45 127,-78.5"/>
<text xml:space="preserve" text-anchor="start" x="8" y="-65" font-family="Helvetica,sans-Serif" font-size="10.00">create_panel_with_left</text>
<text xml:space="preserve" text-anchor="middle" x="63.5" y="-52.25" font-family="Helvetica,sans-Serif" font-size="10.00">_and_right_buttons</text>
</a>
</g>
</g>
<!-- Node2 -->
<g id="Node000002" class="node">
<title>Node2</title>
<g id="a_Node000002"><a xlink:href="kest__ui_8c.html#af27244753a655f48efb1d98e7588fcff" target="_top" xlink:title=" ">
<polygon fill="white" stroke="#666666" points="271.25,-111.12 192.25,-111.12 192.25,-90.38 271.25,-90.38 271.25,-111.12"/>
<text xml:space="preserve" text-anchor="middle" x="231.75" y="-97.62" font-family="Helvetica,sans-Serif" font-size="10.00">create_panel</text>
</a>
</g>
</g>
<!-- Node1&#45;&gt;Node2 -->
<g id="edge1_Node000001_Node000002" class="edge">
<title>Node1&#45;&gt;Node2</title>
<g id="a_edge1_Node000001_Node000002"><a xlink:title=" ">
<path fill="none" stroke="#63b8ff" d="M127.35,-76.49C145.15,-80.67 164.28,-85.16 181.17,-89.12"/>
<polygon fill="#63b8ff" stroke="#63b8ff" points="179.91,-92.42 190.45,-91.3 181.51,-85.6 179.91,-92.42"/>
</a>
</g>
</g>
<!-- Node5 -->
<g id="Node000005" class="node">
<title>Node5</title>
<g id="a_Node000005"><a xlink:href="kest__ui_8c.html#a64c33366dff9758c7062f1e69daef220" target="_top" xlink:title=" ">
<polygon fill="white" stroke="#666666" points="300.5,-72.12 163,-72.12 163,-51.38 300.5,-51.38 300.5,-72.12"/>
<text xml:space="preserve" text-anchor="middle" x="231.75" y="-58.62" font-family="Helvetica,sans-Serif" font-size="10.00">create_panel_left_button</text>
</a>
</g>
</g>
<!-- Node1&#45;&gt;Node5 -->
<g id="edge4_Node000001_Node000005" class="edge">
<title>Node1&#45;&gt;Node5</title>
<g id="a_edge4_Node000001_Node000005"><a xlink:title=" ">
<path fill="none" stroke="#63b8ff" d="M127.35,-61.75C135.16,-61.75 143.23,-61.75 151.25,-61.75"/>
<polygon fill="#63b8ff" stroke="#63b8ff" points="151.02,-65.25 161.02,-61.75 151.02,-58.25 151.02,-65.25"/>
</a>
</g>
</g>
<!-- Node6 -->
<g id="Node000006" class="node">
<title>Node6</title>
<g id="a_Node000006"><a xlink:href="kest__ui_8c.html#ae6790450fef1809caaa97bb1cb0984a5" target="_top" xlink:title=" ">
<polygon fill="white" stroke="#666666" points="285.12,-33.5 178.38,-33.5 178.38,0 285.12,0 285.12,-33.5"/>
<text xml:space="preserve" text-anchor="start" x="186.38" y="-20" font-family="Helvetica,sans-Serif" font-size="10.00">create_panel_right</text>
<text xml:space="preserve" text-anchor="middle" x="231.75" y="-7.25" font-family="Helvetica,sans-Serif" font-size="10.00">_button</text>
</a>
</g>
</g>
<!-- Node1&#45;&gt;Node6 -->
<g id="edge5_Node000001_Node000006" class="edge">
<title>Node1&#45;&gt;Node6</title>
<g id="a_edge5_Node000001_Node000006"><a xlink:title=" ">
<path fill="none" stroke="#63b8ff" d="M127.35,-44.74C140.43,-41.2 154.21,-37.47 167.31,-33.92"/>
<polygon fill="#63b8ff" stroke="#63b8ff" points="167.92,-37.38 176.65,-31.39 166.09,-30.63 167.92,-37.38"/>
</a>
</g>
</g>
<!-- Node3 -->
<g id="Node000003" class="node">
<title>Node3</title>
<g id="a_Node000003"><a xlink:href="kest__ui_8c.html#a2265ed92eb0f4a478fc442ef0457f832" target="_top" xlink:title=" ">
<polygon fill="white" stroke="#666666" points="462,-130.12 336.5,-130.12 336.5,-109.38 462,-109.38 462,-130.12"/>
<text xml:space="preserve" text-anchor="middle" x="399.25" y="-116.62" font-family="Helvetica,sans-Serif" font-size="10.00">init_ui_page_panel_str</text>
</a>
</g>
</g>
<!-- Node2&#45;&gt;Node3 -->
<g id="edge2_Node000002_Node000003" class="edge">
<title>Node2&#45;&gt;Node3</title>
<g id="a_edge2_Node000002_Node000003"><a xlink:title=" ">
<path fill="none" stroke="#63b8ff" d="M271.55,-105.2C287.46,-107.03 306.41,-109.21 324.75,-111.31"/>
<polygon fill="#63b8ff" stroke="#63b8ff" points="324.22,-114.77 334.55,-112.44 325.02,-107.82 324.22,-114.77"/>
</a>
</g>
</g>
<!-- Node4 -->
<g id="Node000004" class="node">
<title>Node4</title>
<g id="a_Node000004"><a xlink:href="kest__alloc_8c.html#a849755c5dc5b35e712ffcdb602e50fb4" target="_top" xlink:title=" ">
<polygon fill="white" stroke="#666666" points="431.62,-91.12 366.88,-91.12 366.88,-70.38 431.62,-70.38 431.62,-91.12"/>
<text xml:space="preserve" text-anchor="middle" x="399.25" y="-77.62" font-family="Helvetica,sans-Serif" font-size="10.00">kest_alloc</text>
</a>
</g>
</g>
<!-- Node2&#45;&gt;Node4 -->
<g id="edge3_Node000002_Node000004" class="edge">
<title>Node2&#45;&gt;Node4</title>
<g id="a_edge3_Node000002_Node000004"><a xlink:title=" ">
<path fill="none" stroke="#63b8ff" d="M271.55,-96.06C296.66,-93.03 329.36,-89.07 355.26,-85.95"/>
<polygon fill="#63b8ff" stroke="#63b8ff" points="355.61,-89.43 365.12,-84.75 354.77,-82.48 355.61,-89.43"/>
</a>
</g>
</g>
</g>
</svg>
</svg>

<style type='text/css'>
<![CDATA[
[data-mouse-over-selected='false'] { opacity: 0.7; }
[data-mouse-over-selected='true']  { opacity: 1.0; }
]]>
</style>
<script type="application/ecmascript"><![CDATA[
document.addEventListener('DOMContentLoaded', (event) => {
  highlightEdges();
  highlightAdjacentNodes();
});
]]></script>
</svg>
