<?xml version="1.0" encoding="UTF-8" standalone="no"?>
<!DOCTYPE svg PUBLIC "-//W3C//DTD SVG 1.1//EN"
 "http://www.w3.org/Graphics/SVG/1.1/DTD/svg11.dtd">
<!-- Generated by graphviz version 13.1.2 (20250808.2320)
 -->
<!-- Title: kest_active_button_reset_del_button Pages: 1 -->
<svg width="899pt" height="54pt"
 viewBox="0.00 0.00 899.00 54.00" xmlns="http://www.w3.org/2000/svg" xmlns:xlink="http://www.w3.org/1999/xlink">
<g id="graph0" class="graph" transform="scale(1 1) rotate(0) translate(4 50.12)">
<title>kest_active_button_reset_del_button</title>
<!-- Node1 -->
<g id="Node000001" class="node">
<title>Node1</title>
<g id="a_Node000001"><a xlink:title=" ">
<polygon fill="#999999" stroke="#666666" points="891,-46.12 782.75,-46.12 782.75,-12.62 891,-12.62 891,-46.12"/>
<text xml:space="preserve" text-anchor="start" x="790.75" y="-32.62" font-family="Helvetica,sans-Serif" font-size="10.00">kest_active_button</text>
<text xml:space="preserve" text-anchor="middle" x="836.88" y="-19.88" font-family="Helvetica,sans-Serif" font-size="10.00">_reset_del_button</text>
</a>
</g>
</g>
<!-- Node2 -->
<g id="Node000002" class="node">
<title>Node2</title>
<g id="a_Node000002"><a xlink:href="kest__sequence__view_8c.html#aa97e3f2de03cf8443b11f65520f6b387" target="_top" xlink:title=" ">
<polygon fill="white" stroke="#666666" points="746.75,-46.12 619,-46.12 619,-12.62 746.75,-12.62 746.75,-46.12"/>
<text xml:space="preserve" text-anchor="start" x="627" y="-32.62" font-family="Helvetica,sans-Serif" font-size="10.00">sequence_view_profile</text>
<text xml:space="preserve" text-anchor="middle" x="682.88" y="-19.88" font-family="Helvetica,sans-Serif" font-size="10.00">_button_rep_update</text>
</a>
</g>
</g>
<!-- Node1&#45;&gt;Node2 -->
<g id="edge1_Node000001_Node000002" class="edge">
<title>Node1&#45;&gt;Node2</title>
<g id="a_edge1_Node000001_Node000002"><a xlink:title=" ">
<path fill="none" stroke="#63b8ff" d="M770.9,-29.38C763.02,-29.38 754.98,-29.38 747.13,-29.38"/>
<polygon fill="#63b8ff" stroke="#63b8ff" points="770.77,-32.88 780.77,-29.38 770.77,-25.88 770.77,-32.88"/>
</a>
</g>
</g>
<!-- Node3 -->
<g id="Node000003" class="node">
<title>Node3</title>
<g id="a_Node000003"><a xlink:href="kest__sequence__view_8c.html#ac871b24a7c875a7b6e707a3d2691a2a9" target="_top" xlink:title=" ">
<polygon fill="white" stroke="#666666" points="471.75,-39.75 329.75,-39.75 329.75,-19 471.75,-19 471.75,-39.75"/>
<text xml:space="preserve" text-anchor="middle" x="400.75" y="-26.25" font-family="Helvetica,sans-Serif" font-size="10.00">configure_sequence_view</text>
</a>
</g>
</g>
<!-- Node2&#45;&gt;Node3 -->
<g id="edge2_Node000002_Node000003" class="edge">
<title>Node2&#45;&gt;Node3</title>
<g id="a_edge2_Node000002_Node000003"><a xlink:title=" ">
<path fill="none" stroke="#63b8ff" d="M607.39,-29.38C565.45,-29.38 513.37,-29.38 472.12,-29.38"/>
<polygon fill="#63b8ff" stroke="#63b8ff" points="607.15,-32.88 617.15,-29.38 607.15,-25.88 607.15,-32.88"/>
</a>
</g>
</g>
<!-- Node19 -->
<g id="Node000019" class="node">
<title>Node19</title>
<g id="a_Node000019"><a xlink:href="kest__sequence__view_8c.html#a83d1a352af6a3932ce4d08e01f7d8d8a" target="_top" xlink:title=" ">
<polygon fill="white" stroke="#666666" points="583,-20.75 507.75,-20.75 507.75,0 583,0 583,-20.75"/>
<text xml:space="preserve" text-anchor="middle" x="545.38" y="-7.25" font-family="Helvetica,sans-Serif" font-size="10.00">seq_plus_cb</text>
</a>
</g>
</g>
<!-- Node2&#45;&gt;Node19 -->
<g id="edge6_Node000002_Node000019" class="edge">
<title>Node2&#45;&gt;Node19</title>
<g id="a_edge6_Node000002_Node000019"><a xlink:title=" ">
<path fill="none" stroke="#63b8ff" d="M607.75,-18.98C599.31,-17.8 591,-16.63 583.36,-15.56"/>
<polygon fill="#63b8ff" stroke="#63b8ff" points="607,-22.41 617.39,-20.33 607.97,-15.48 607,-22.41"/>
</a>
</g>
</g>
<!-- Node4 -->
<g id="Node000004" class="node">
<title>Node4</title>
<g id="a_Node000004"><a xlink:href="kest__sequence__view_8c.html#a6dd883651c2a7ff92c5ad28755953e91" target="_top" xlink:title=" ">
<polygon fill="#fff0f0" stroke="red" points="145.75,-39.75 0,-39.75 0,-19 145.75,-19 145.75,-39.75"/>
<text xml:space="preserve" text-anchor="middle" x="72.88" y="-26.25" font-family="Helvetica,sans-Serif" font-size="10.00">create_sequence_view_for</text>
</a>
</g>
</g>
<!-- Node3&#45;&gt;Node4 -->
<g id="edge3_Node000003_Node000004" class="edge">
<title>Node3&#45;&gt;Node4</title>
<g id="a_edge3_Node000003_Node000004"><a xlink:title=" ">
<path fill="none" stroke="#63b8ff" d="M318.06,-29.38C265.17,-29.38 196.92,-29.38 146.03,-29.38"/>
<polygon fill="#63b8ff" stroke="#63b8ff" points="317.93,-32.88 327.93,-29.38 317.93,-25.88 317.93,-32.88"/>
</a>
</g>
</g>
<!-- Node18 -->
<g id="Node000018" class="node">
<title>Node18</title>
<g id="a_Node000018"><a xlink:href="kest__sequence__view_8c.html#aca115eba822b7486dc289cc9150562a7" target="_top" xlink:title=" ">
<polygon fill="#fff0f0" stroke="red" points="293.75,-20.75 181.75,-20.75 181.75,0 293.75,0 293.75,-20.75"/>
<text xml:space="preserve" text-anchor="middle" x="237.75" y="-7.25" font-family="Helvetica,sans-Serif" font-size="10.00">init_sequence_view</text>
</a>
</g>
</g>
<!-- Node3&#45;&gt;Node18 -->
<g id="edge4_Node000003_Node000018" class="edge">
<title>Node3&#45;&gt;Node18</title>
<g id="a_edge4_Node000003_Node000018"><a xlink:title=" ">
<path fill="none" stroke="#63b8ff" d="M318.42,-19.78C310.21,-18.81 302,-17.84 294.15,-16.91"/>
<polygon fill="#63b8ff" stroke="#63b8ff" points="317.76,-23.22 328.1,-20.92 318.58,-16.27 317.76,-23.22"/>
</a>
</g>
</g>
<!-- Node18&#45;&gt;Node4 -->
<g id="edge5_Node000018_Node000004" class="edge">
<title>Node18&#45;&gt;Node4</title>
<g id="a_edge5_Node000018_Node000004"><a xlink:title=" ">
<path fill="none" stroke="#63b8ff" d="M170.41,-18.11C162.36,-19.05 154.12,-20.01 146,-20.96"/>
<polygon fill="#63b8ff" stroke="#63b8ff" points="170.58,-21.62 180.1,-16.98 169.77,-14.67 170.58,-21.62"/>
</a>
</g>
</g>
<!-- Node19&#45;&gt;Node3 -->
<g id="edge7_Node000019_Node000003" class="edge">
<title>Node19&#45;&gt;Node3</title>
<g id="a_edge7_Node000019_Node000003"><a xlink:title=" ">
<path fill="none" stroke="#63b8ff" d="M495.97,-16.82C488.28,-17.85 480.19,-18.93 472.12,-20"/>
<polygon fill="#63b8ff" stroke="#63b8ff" points="496.32,-20.31 505.77,-15.52 495.4,-13.37 496.32,-20.31"/>
</a>
</g>
</g>
</g>
</svg>
