<?xml version="1.0" encoding="UTF-8" standalone="no"?>
<!DOCTYPE svg PUBLIC "-//W3C//DTD SVG 1.1//EN"
 "http://www.w3.org/Graphics/SVG/1.1/DTD/svg11.dtd">
<!-- Generated by graphviz version 13.1.2 (20250808.2320)
 -->
<!-- Title: kest_sd_toggle_msc Pages: 1 -->
<svg width="376pt" height="81pt"
 viewBox="0.00 0.00 376.00 81.00" xmlns="http://www.w3.org/2000/svg" xmlns:xlink="http://www.w3.org/1999/xlink">

<svg id="main" version="1.1" xmlns="http://www.w3.org/2000/svg" xmlns:xlink="http://www.w3.org/1999/xlink" xml:space="preserve">

<style type="text/css"><![CDATA[
.node, .edge {opacity: 0.7;}
.node.selected, .edge.selected {opacity: 1;}
.edge:hover path { stroke: red; }
.edge:hover polygon { stroke: red; fill: red; }
]]></style>
<script type="application/ecmascript" xlink:href="svg.min.js"/>
<svg id="graph" class="graph">
<g id="graph0" class="graph" transform="scale(1 1) rotate(0) translate(4 77.07)">
<title>kest_sd_toggle_msc</title>
<!-- Node1 -->
<g id="Node000001" class="node">
<title>Node1</title>
<g id="a_Node000001"><a xlink:title=" ">
<polygon fill="#999999" stroke="#666666" points="114.25,-59.75 0,-59.75 0,-39 114.25,-39 114.25,-59.75"/>
<text xml:space="preserve" text-anchor="middle" x="57.12" y="-46.25" font-family="Helvetica,sans-Serif" font-size="10.00">kest_sd_toggle_msc</text>
</a>
</g>
</g>
<!-- Node2 -->
<g id="Node000002" class="node">
<title>Node2</title>
<g id="a_Node000002"><a xlink:href="kest__printf_8c.html#a302714171dfa950e18d9a951bdab4105" target="_top" xlink:title=" ">
<polygon fill="white" stroke="#666666" points="368.25,-59.75 300.5,-59.75 300.5,-39 368.25,-39 368.25,-59.75"/>
<text xml:space="preserve" text-anchor="middle" x="334.38" y="-46.25" font-family="Helvetica,sans-Serif" font-size="10.00">kest_printf</text>
</a>
</g>
</g>
<!-- Node1&#45;&gt;Node2 -->
<g id="edge1_Node000001_Node000002" class="edge">
<title>Node1&#45;&gt;Node2</title>
<g id="a_edge1_Node000001_Node000002"><a xlink:title=" ">
<path fill="none" stroke="#63b8ff" d="M101.43,-60.2C116.74,-63.52 134.17,-66.73 150.25,-68.38 200.77,-73.53 214.18,-75.19 264.5,-68.38 272.96,-67.23 281.85,-65.33 290.33,-63.16"/>
<polygon fill="#63b8ff" stroke="#63b8ff" points="290.98,-66.6 299.71,-60.59 289.14,-59.85 290.98,-66.6"/>
</a>
</g>
</g>
<!-- Node3 -->
<g id="Node000003" class="node">
<title>Node3</title>
<g id="a_Node000003"><a xlink:href="kest__sd_8c.html#a062111f9ec26e5dc2f6ef9625805120d" target="_top" xlink:title=" ">
<polygon fill="white" stroke="#666666" points="264.5,-59.75 150.25,-59.75 150.25,-39 264.5,-39 264.5,-59.75"/>
<text xml:space="preserve" text-anchor="middle" x="207.38" y="-46.25" font-family="Helvetica,sans-Serif" font-size="10.00">kest_sd_mode_local</text>
</a>
</g>
</g>
<!-- Node1&#45;&gt;Node3 -->
<g id="edge2_Node000001_Node000003" class="edge">
<title>Node1&#45;&gt;Node3</title>
<g id="a_edge2_Node000001_Node000003"><a xlink:title=" ">
<path fill="none" stroke="#63b8ff" d="M114.59,-49.38C122.49,-49.38 130.67,-49.38 138.75,-49.38"/>
<polygon fill="#63b8ff" stroke="#63b8ff" points="138.55,-52.88 148.55,-49.38 138.55,-45.88 138.55,-52.88"/>
</a>
</g>
</g>
<!-- Node4 -->
<g id="Node000004" class="node">
<title>Node4</title>
<g id="a_Node000004"><a xlink:href="kest__sd_8c.html#a5b352e1ac18808ffdaf59355b80859fc" target="_top" xlink:title=" ">
<polygon fill="white" stroke="#666666" points="263,-20.75 151.75,-20.75 151.75,0 263,0 263,-20.75"/>
<text xml:space="preserve" text-anchor="middle" x="207.38" y="-7.25" font-family="Helvetica,sans-Serif" font-size="10.00">kest_sd_mode_msc</text>
</a>
</g>
</g>
<!-- Node1&#45;&gt;Node4 -->
<g id="edge4_Node000001_Node000004" class="edge">
<title>Node1&#45;&gt;Node4</title>
<g id="a_edge4_Node000001_Node000004"><a xlink:title=" ">
<path fill="none" stroke="#63b8ff" d="M99.42,-38.51C116.38,-34.05 136.21,-28.83 154.15,-24.11"/>
<polygon fill="#63b8ff" stroke="#63b8ff" points="154.8,-27.56 163.58,-21.63 153.02,-20.79 154.8,-27.56"/>
</a>
</g>
</g>
<!-- Node3&#45;&gt;Node2 -->
<g id="edge3_Node000003_Node000002" class="edge">
<title>Node3&#45;&gt;Node2</title>
<g id="a_edge3_Node000003_Node000002"><a xlink:title=" ">
<path fill="none" stroke="#63b8ff" d="M264.66,-49.38C272.75,-49.38 280.98,-49.38 288.8,-49.38"/>
<polygon fill="#63b8ff" stroke="#63b8ff" points="288.77,-52.88 298.77,-49.38 288.77,-45.88 288.77,-52.88"/>
</a>
</g>
</g>
<!-- Node4&#45;&gt;Node2 -->
<g id="edge5_Node000004_Node000002" class="edge">
<title>Node4&#45;&gt;Node2</title>
<g id="a_edge5_Node000004_Node000002"><a xlink:title=" ">
<path fill="none" stroke="#63b8ff" d="M243.19,-21.24C257.49,-25.7 274.22,-30.92 289.35,-35.64"/>
<polygon fill="#63b8ff" stroke="#63b8ff" points="288,-38.88 298.59,-38.52 290.09,-32.2 288,-38.88"/>
</a>
</g>
</g>
</g>
</svg>
</svg>

<style type='text/css'>
<![CDATA[
[data-mouse-over-selected='false'] { opacity: 0.7; }
[data-mouse-over-selected='true']  { opacity: 1.0; }
]]>
</style>
<script type="application/ecmascript"><![CDATA[
document.addEventListener('DOMContentLoaded', (event) => {
  highlightEdges();
  highlightAdjacentNodes();
});
]]></script>
</svg>
