<?xml version="1.0" encoding="UTF-8" standalone="no"?>
<!DOCTYPE svg PUBLIC "-//W3C//DTD SVG 1.1//EN"
 "http://www.w3.org/Graphics/SVG/1.1/DTD/svg11.dtd">
<!-- Generated by graphviz version 13.1.2 (20250808.2320)
 -->
<!-- Title: kest_parse_dict_list Pages: 1 -->
<svg width="585pt" height="42pt"
 viewBox="0.00 0.00 585.00 42.00" xmlns="http://www.w3.org/2000/svg" xmlns:xlink="http://www.w3.org/1999/xlink">
<g id="graph0" class="graph" transform="scale(1 1) rotate(0) translate(4 37.5)">
<title>kest_parse_dict_list</title>
<!-- Node1 -->
<g id="Node000001" class="node">
<title>Node1</title>
<g id="a_Node000001"><a xlink:title=" ">
<polygon fill="#999999" stroke="#666666" points="577,-27.12 465,-27.12 465,-6.38 577,-6.38 577,-27.12"/>
<text xml:space="preserve" text-anchor="middle" x="521" y="-13.62" font-family="Helvetica,sans-Serif" font-size="10.00">kest_parse_dict_list</text>
</a>
</g>
</g>
<!-- Node2 -->
<g id="Node000002" class="node">
<title>Node2</title>
<g id="a_Node000002"><a xlink:href="kest__dictionary_8c.html#af0aceaa93cba06fd44ad4bc50f2418e4" target="_top" xlink:title=" ">
<polygon fill="white" stroke="#666666" points="429,-27.12 317,-27.12 317,-6.38 429,-6.38 429,-27.12"/>
<text xml:space="preserve" text-anchor="middle" x="373" y="-13.62" font-family="Helvetica,sans-Serif" font-size="10.00">kest_parse_dict_val</text>
</a>
</g>
</g>
<!-- Node1&#45;&gt;Node2 -->
<g id="edge1_Node000001_Node000002" class="edge">
<title>Node1&#45;&gt;Node2</title>
<g id="a_edge1_Node000001_Node000002"><a xlink:title=" ">
<path fill="none" stroke="#63b8ff" d="M453.47,-10.02C445.38,-9.96 437.18,-10.02 429.27,-10.18"/>
<polygon fill="#63b8ff" stroke="#63b8ff" points="453.24,-13.52 463.29,-10.16 453.34,-6.52 453.24,-13.52"/>
</a>
</g>
</g>
<!-- Node2&#45;&gt;Node1 -->
<g id="edge2_Node000002_Node000001" class="edge">
<title>Node2&#45;&gt;Node1</title>
<g id="a_edge2_Node000002_Node000001"><a xlink:title=" ">
<path fill="none" stroke="#63b8ff" d="M440.61,-23.48C448.7,-23.54 456.9,-23.48 464.8,-23.32"/>
<polygon fill="#63b8ff" stroke="#63b8ff" points="440.84,-19.98 430.79,-23.34 440.74,-26.98 440.84,-19.98"/>
</a>
</g>
</g>
<!-- Node3 -->
<g id="Node000003" class="node">
<title>Node3</title>
<g id="a_Node000003"><a xlink:href="kest__dictionary_8c.html#aae3fbdeba250be8f6dd3dfa686eb24a8" target="_top" xlink:title=" ">
<polygon fill="white" stroke="#666666" points="281,-27.12 158.5,-27.12 158.5,-6.38 281,-6.38 281,-27.12"/>
<text xml:space="preserve" text-anchor="middle" x="219.75" y="-13.62" font-family="Helvetica,sans-Serif" font-size="10.00">kest_parse_dictionary</text>
</a>
</g>
</g>
<!-- Node2&#45;&gt;Node3 -->
<g id="edge3_Node000002_Node000003" class="edge">
<title>Node2&#45;&gt;Node3</title>
<g id="a_edge3_Node000002_Node000003"><a xlink:title=" ">
<path fill="none" stroke="#63b8ff" d="M305.08,-10.04C297.16,-9.97 289.12,-9.99 281.3,-10.12"/>
<polygon fill="#63b8ff" stroke="#63b8ff" points="304.97,-13.54 315.03,-10.19 305.08,-6.54 304.97,-13.54"/>
</a>
</g>
</g>
<!-- Node3&#45;&gt;Node2 -->
<g id="edge4_Node000003_Node000002" class="edge">
<title>Node3&#45;&gt;Node2</title>
<g id="a_edge4_Node000003_Node000002"><a xlink:title=" ">
<path fill="none" stroke="#63b8ff" d="M292.6,-23.49C300.64,-23.52 308.75,-23.45 316.54,-23.28"/>
<polygon fill="#63b8ff" stroke="#63b8ff" points="292.85,-19.99 282.82,-23.39 292.78,-26.99 292.85,-19.99"/>
</a>
</g>
</g>
<!-- Node4 -->
<g id="Node000004" class="node">
<title>Node4</title>
<g id="a_Node000004"><a xlink:href="kest__eff__section_8c.html#a4de28fb64398c9194136a2ced71e2795" target="_top" xlink:title=" ">
<polygon fill="#fff0f0" stroke="red" points="122.5,-33.5 0,-33.5 0,0 122.5,0 122.5,-33.5"/>
<text xml:space="preserve" text-anchor="start" x="8" y="-20" font-family="Helvetica,sans-Serif" font-size="10.00">kest_parse_dictionary</text>
<text xml:space="preserve" text-anchor="middle" x="61.25" y="-7.25" font-family="Helvetica,sans-Serif" font-size="10.00">_section</text>
</a>
</g>
</g>
<!-- Node3&#45;&gt;Node4 -->
<g id="edge5_Node000003_Node000004" class="edge">
<title>Node3&#45;&gt;Node4</title>
<g id="a_edge5_Node000003_Node000004"><a xlink:title=" ">
<path fill="none" stroke="#63b8ff" d="M146.95,-16.75C138.9,-16.75 130.75,-16.75 122.85,-16.75"/>
<polygon fill="#63b8ff" stroke="#63b8ff" points="146.73,-20.25 156.73,-16.75 146.73,-13.25 146.73,-20.25"/>
</a>
</g>
</g>
</g>
</svg>
