<?xml version="1.0" encoding="UTF-8" standalone="no"?>
<!DOCTYPE svg PUBLIC "-//W3C//DTD SVG 1.1//EN"
 "http://www.w3.org/Graphics/SVG/1.1/DTD/svg11.dtd">
<!-- Generated by graphviz version 13.1.2 (20250808.2320)
 -->
<!-- Title: setting_widget_create_ui Pages: 1 -->
<!--zoomable 378 -->

<svg id="main" version="1.1" xmlns="http://www.w3.org/2000/svg" xmlns:xlink="http://www.w3.org/1999/xlink" xml:space="preserve" onload="init(evt)">

<style type="text/css"><![CDATA[
.node, .edge {opacity: 0.7;}
.node.selected, .edge.selected {opacity: 1;}
.edge:hover path { stroke: red; }
.edge:hover polygon { stroke: red; fill: red; }
]]></style>

<defs>
  <circle id="rim" cx="0" cy="0" r="7"/>
  <circle id="rim2" cx="0" cy="0" r="3.5"/>
  <g id="zoomPlus">
    <use xlink:href="#rim" fill="#404040"><set attributeName="fill" to="#808080" begin="zoomplus.mouseover" end="zoomplus.mouseout"/></use>
    <path d="M-4,0h8M0,-4v8" fill="none" stroke="white" stroke-width="1.5" pointer-events="none"/>
  </g>
  <g id="zoomMin">
    <use xlink:href="#rim" fill="#404040"><set attributeName="fill" to="#808080" begin="zoomminus.mouseover" end="zoomminus.mouseout"/></use>
    <path d="M-4,0h8" fill="none" stroke="white" stroke-width="1.5" pointer-events="none"/>
  </g>
  <g id="arrowUp" transform="translate(30 24)">
    <use xlink:href="#rim"/>
    <path pointer-events="none" fill="none" stroke="white" stroke-width="1.5" d="M0,-3.0v7 M-2.5,-0.5L0,-3.0L2.5,-0.5"/>
  </g>
  <g id="arrowRight" transform="rotate(90) translate(36 -43)">
    <use xlink:href="#rim"/>
    <path pointer-events="none" fill="none" stroke="white" stroke-width="1.5" d="M0,-3.0v7 M-2.5,-0.5L0,-3.0L2.5,-0.5"/>
  </g>
  <g id="arrowDown" transform="rotate(180) translate(-30 -48)">
    <use xlink:href="#rim"/>
    <path pointer-events="none" fill="none" stroke="white" stroke-width="1.5" d="M0,-3.0v7 M-2.5,-0.5L0,-3.0L2.5,-0.5"/>
  </g>
  <g id="arrowLeft" transform="rotate(270) translate(-36 17)">
    <use xlink:href="#rim"/>
    <path pointer-events="none" fill="none" stroke="white" stroke-width="1.5" d="M0,-3.0v7 M-2.5,-0.5L0,-3.0L2.5,-0.5"/>
  </g>
  <g id="resetDef">
    <use xlink:href="#rim2" fill="#404040"><set attributeName="fill" to="#808080" begin="reset.mouseover" end="reset.mouseout"/></use>
  </g>
</defs>
<script type="application/ecmascript">
var viewWidth = 772;
var viewHeight = 378;
var sectionId = 'dynsection-28';
</script>
<script type="application/ecmascript" xlink:href="svg.min.js"/>
<svg id="graph" class="graph">
<g id="viewport">
<title>setting_widget_create_ui</title>
<!-- Node1 -->
<g id="Node000001" class="node">
<title>Node1</title>
<g id="a_Node000001"><a xlink:title=" ">
<polygon fill="#999999" stroke="#666666" points="138.25,-79.12 0,-79.12 0,-58.38 138.25,-58.38 138.25,-79.12"/>
<text xml:space="preserve" text-anchor="middle" x="69.12" y="-65.62" font-family="Helvetica,sans-Serif" font-size="10.00">setting_widget_create_ui</text>
</a>
</g>
</g>
<!-- Node2 -->
<g id="Node000002" class="node">
<title>Node2</title>
<g id="a_Node000002"><a xlink:href="kest__parameter__widget_8c.html#a5a6ebded10138ba55624e195ae4f4309" target="_top" xlink:title=" ">
<polygon fill="white" stroke="#666666" points="295.25,-163.12 198.25,-163.12 198.25,-142.38 295.25,-142.38 295.25,-163.12"/>
<text xml:space="preserve" text-anchor="middle" x="246.75" y="-149.62" font-family="Helvetica,sans-Serif" font-size="10.00">edit_sw_field_cb</text>
</a>
</g>
</g>
<!-- Node1&#45;&gt;Node2 -->
<g id="edge1_Node000001_Node000002" class="edge">
<title>Node1&#45;&gt;Node2</title>
<g id="a_edge1_Node000001_Node000002"><a xlink:title=" ">
<path fill="none" stroke="#63b8ff" d="M92.73,-79.56C123.29,-94.18 177.99,-120.34 213.04,-137.1"/>
<polygon fill="#63b8ff" stroke="#63b8ff" points="211.34,-140.17 221.87,-141.33 214.36,-133.86 211.34,-140.17"/>
</a>
</g>
</g>
<!-- Node45 -->
<g id="Node000045" class="node">
<title>Node45</title>
<g id="a_Node000045"><a xlink:href="kest__parameter__widget_8c.html#afd6c5489cb7579ee98a57340a3abcb80" target="_top" xlink:title=" ">
<polygon fill="white" stroke="#666666" points="319.25,-79.12 174.25,-79.12 174.25,-58.38 319.25,-58.38 319.25,-79.12"/>
<text xml:space="preserve" text-anchor="middle" x="246.75" y="-65.62" font-family="Helvetica,sans-Serif" font-size="10.00">setting_widget_change_cb</text>
</a>
</g>
</g>
<!-- Node1&#45;&gt;Node45 -->
<g id="edge16_Node000001_Node000045" class="edge">
<title>Node1&#45;&gt;Node45</title>
<g id="a_edge16_Node000001_Node000045"><a xlink:title=" ">
<path fill="none" stroke="#63b8ff" d="M138.53,-68.75C146.38,-68.75 154.46,-68.75 162.48,-68.75"/>
<polygon fill="#63b8ff" stroke="#63b8ff" points="162.25,-72.25 172.25,-68.75 162.25,-65.25 162.25,-72.25"/>
</a>
</g>
</g>
<!-- Node48 -->
<g id="Node000048" class="node">
<title>Node48</title>
<g id="a_Node000048"><a xlink:href="kest__parameter__widget_8c.html#a15c4ba0b3ffa376f951b0fa56aa1c264" target="_top" xlink:title=" ">
<polygon fill="white" stroke="#666666" points="308.75,-37.5 184.75,-37.5 184.75,-4 308.75,-4 308.75,-37.5"/>
<text xml:space="preserve" text-anchor="start" x="192.75" y="-24" font-family="Helvetica,sans-Serif" font-size="10.00">setting_widget_create</text>
<text xml:space="preserve" text-anchor="middle" x="246.75" y="-11.25" font-family="Helvetica,sans-Serif" font-size="10.00">_ui_no_callback</text>
</a>
</g>
</g>
<!-- Node1&#45;&gt;Node48 -->
<g id="edge20_Node000001_Node000048" class="edge">
<title>Node1&#45;&gt;Node48</title>
<g id="a_edge20_Node000001_Node000048"><a xlink:title=" ">
<path fill="none" stroke="#63b8ff" d="M109.54,-57.98C128.4,-52.82 151.59,-46.48 173.46,-40.51"/>
<polygon fill="#63b8ff" stroke="#63b8ff" points="174.22,-43.93 182.94,-37.92 172.37,-37.18 174.22,-43.93"/>
</a>
</g>
</g>
<!-- Node3 -->
<g id="Node000003" class="node">
<title>Node3</title>
<g id="a_Node000003"><a xlink:href="kest__alloc_8c.html#aed9ede1276c1ab3b4042c264ce64a3d2" target="_top" xlink:title=" ">
<polygon fill="white" stroke="#666666" points="642.25,-163.12 564,-163.12 564,-142.38 642.25,-142.38 642.25,-163.12"/>
<text xml:space="preserve" text-anchor="middle" x="603.12" y="-149.62" font-family="Helvetica,sans-Serif" font-size="10.00">kest_strndup</text>
</a>
</g>
</g>
<!-- Node2&#45;&gt;Node3 -->
<g id="edge2_Node000002_Node000003" class="edge">
<title>Node2&#45;&gt;Node3</title>
<g id="a_edge2_Node000002_Node000003"><a xlink:title=" ">
<path fill="none" stroke="#63b8ff" d="M295.54,-152.75C362.69,-152.75 484.36,-152.75 552.49,-152.75"/>
<polygon fill="#63b8ff" stroke="#63b8ff" points="552.24,-156.25 562.24,-152.75 552.24,-149.25 552.24,-156.25"/>
</a>
</g>
</g>
<!-- Node5 -->
<g id="Node000005" class="node">
<title>Node5</title>
<g id="a_Node000005"><a xlink:href="kest__ui_8c.html#a5f3db3c652369719e7f6de8456f09512" target="_top" xlink:title=" ">
<polygon fill="white" stroke="#666666" points="507,-125.12 355.25,-125.12 355.25,-104.38 507,-104.38 507,-125.12"/>
<text xml:space="preserve" text-anchor="middle" x="431.12" y="-111.62" font-family="Helvetica,sans-Serif" font-size="10.00">spawn_numerical_keyboard</text>
</a>
</g>
</g>
<!-- Node2&#45;&gt;Node5 -->
<g id="edge4_Node000002_Node000005" class="edge">
<title>Node2&#45;&gt;Node5</title>
<g id="a_edge4_Node000002_Node000005"><a xlink:title=" ">
<path fill="none" stroke="#63b8ff" d="M295.67,-142.77C317.43,-138.23 343.48,-132.8 366.83,-127.94"/>
<polygon fill="#63b8ff" stroke="#63b8ff" points="367.49,-131.38 376.57,-125.91 366.06,-124.52 367.49,-131.38"/>
</a>
</g>
</g>
<!-- Node7 -->
<g id="Node000007" class="node">
<title>Node7</title>
<g id="a_Node000007"><a xlink:href="kest__parameter__widget_8c.html#a04db5fc0ed01be6d1f7b2233ea9094bb" target="_top" xlink:title=" ">
<polygon fill="white" stroke="#666666" points="486,-331.12 376.25,-331.12 376.25,-310.38 486,-310.38 486,-331.12"/>
<text xml:space="preserve" text-anchor="middle" x="431.12" y="-317.62" font-family="Helvetica,sans-Serif" font-size="10.00">sw_field_cancel_cb</text>
</a>
</g>
</g>
<!-- Node2&#45;&gt;Node7 -->
<g id="edge6_Node000002_Node000007" class="edge">
<title>Node2&#45;&gt;Node7</title>
<g id="a_edge6_Node000002_Node000007"><a xlink:title=" ">
<path fill="none" stroke="#63b8ff" d="M257.42,-163.4C275.77,-183.42 317.22,-227.72 355.25,-261.75 371.64,-276.41 391.19,-291.75 406.2,-303.11"/>
<polygon fill="#63b8ff" stroke="#63b8ff" points="404.02,-305.85 414.12,-309.05 408.22,-300.25 404.02,-305.85"/>
</a>
</g>
</g>
<!-- Node10 -->
<g id="Node000010" class="node">
<title>Node10</title>
<g id="a_Node000010"><a xlink:href="kest__parameter__widget_8c.html#a22b7fa4ae5f9628f2da2155f58c2635c" target="_top" xlink:title=" ">
<polygon fill="white" stroke="#666666" points="481.88,-253.12 380.38,-253.12 380.38,-232.38 481.88,-232.38 481.88,-253.12"/>
<text xml:space="preserve" text-anchor="middle" x="431.12" y="-239.62" font-family="Helvetica,sans-Serif" font-size="10.00">sw_field_save_cb</text>
</a>
</g>
</g>
<!-- Node2&#45;&gt;Node10 -->
<g id="edge9_Node000002_Node000010" class="edge">
<title>Node2&#45;&gt;Node10</title>
<g id="a_edge9_Node000002_Node000010"><a xlink:title=" ">
<path fill="none" stroke="#63b8ff" d="M269.75,-163.61C301.74,-179.39 361.29,-208.78 398.13,-226.96"/>
<polygon fill="#63b8ff" stroke="#63b8ff" points="396.46,-230.04 406.97,-231.33 399.56,-223.76 396.46,-230.04"/>
</a>
</g>
</g>
<!-- Node4 -->
<g id="Node000004" class="node">
<title>Node4</title>
<g id="a_Node000004"><a xlink:href="kest__alloc_8c.html#a849755c5dc5b35e712ffcdb602e50fb4" target="_top" xlink:title=" ">
<polygon fill="white" stroke="#666666" points="764,-163.12 699.25,-163.12 699.25,-142.38 764,-142.38 764,-163.12"/>
<text xml:space="preserve" text-anchor="middle" x="731.62" y="-149.62" font-family="Helvetica,sans-Serif" font-size="10.00">kest_alloc</text>
</a>
</g>
</g>
<!-- Node3&#45;&gt;Node4 -->
<g id="edge3_Node000003_Node000004" class="edge">
<title>Node3&#45;&gt;Node4</title>
<g id="a_edge3_Node000003_Node000004"><a xlink:title=" ">
<path fill="none" stroke="#63b8ff" d="M642.42,-152.75C656.65,-152.75 672.89,-152.75 687.52,-152.75"/>
<polygon fill="#63b8ff" stroke="#63b8ff" points="687.33,-156.25 697.33,-152.75 687.33,-149.25 687.33,-156.25"/>
</a>
</g>
</g>
<!-- Node6 -->
<g id="Node000006" class="node">
<title>Node6</title>
<g id="a_Node000006"><a xlink:href="kest__ui_8c.html#a81bbde51fcf8ad785cd8b89d91106a5b" target="_top" xlink:title=" ">
<polygon fill="white" stroke="#666666" points="652,-124.12 554.25,-124.12 554.25,-103.38 652,-103.38 652,-124.12"/>
<text xml:space="preserve" text-anchor="middle" x="603.12" y="-110.62" font-family="Helvetica,sans-Serif" font-size="10.00">spawn_keyboard</text>
</a>
</g>
</g>
<!-- Node5&#45;&gt;Node6 -->
<g id="edge5_Node000005_Node000006" class="edge">
<title>Node5&#45;&gt;Node6</title>
<g id="a_edge5_Node000005_Node000006"><a xlink:title=" ">
<path fill="none" stroke="#63b8ff" d="M507.18,-114.31C519.06,-114.24 531.2,-114.17 542.65,-114.1"/>
<polygon fill="#63b8ff" stroke="#63b8ff" points="542.35,-117.6 552.33,-114.04 542.31,-110.6 542.35,-117.6"/>
</a>
</g>
</g>
<!-- Node8 -->
<g id="Node000008" class="node">
<title>Node8</title>
<g id="a_Node000008"><a xlink:href="kest__ui_8c.html#a449db99602c8ef93fb805362fec7fb1d" target="_top" xlink:title=" ">
<polygon fill="white" stroke="#666666" points="646.75,-331.12 559.5,-331.12 559.5,-310.38 646.75,-310.38 646.75,-331.12"/>
<text xml:space="preserve" text-anchor="middle" x="603.12" y="-317.62" font-family="Helvetica,sans-Serif" font-size="10.00">hide_keyboard</text>
</a>
</g>
</g>
<!-- Node7&#45;&gt;Node8 -->
<g id="edge7_Node000007_Node000008" class="edge">
<title>Node7&#45;&gt;Node8</title>
<g id="a_edge7_Node000007_Node000008"><a xlink:title=" ">
<path fill="none" stroke="#63b8ff" d="M486.38,-320.75C506.04,-320.75 528.23,-320.75 547.89,-320.75"/>
<polygon fill="#63b8ff" stroke="#63b8ff" points="547.62,-324.25 557.62,-320.75 547.62,-317.25 547.62,-324.25"/>
</a>
</g>
</g>
<!-- Node9 -->
<g id="Node000009" class="node">
<title>Node9</title>
<g id="a_Node000009"><a xlink:href="kest__alloc_8c.html#a294af5728a94aa316fcf65304d388d48" target="_top" xlink:title=" ">
<polygon fill="white" stroke="#666666" points="633.62,-370.12 572.62,-370.12 572.62,-349.38 633.62,-349.38 633.62,-370.12"/>
<text xml:space="preserve" text-anchor="middle" x="603.12" y="-356.62" font-family="Helvetica,sans-Serif" font-size="10.00">kest_free</text>
</a>
</g>
</g>
<!-- Node7&#45;&gt;Node9 -->
<g id="edge8_Node000007_Node000009" class="edge">
<title>Node7&#45;&gt;Node9</title>
<g id="a_edge8_Node000007_Node000009"><a xlink:title=" ">
<path fill="none" stroke="#63b8ff" d="M479.48,-331.61C505.09,-337.49 536.42,-344.68 561,-350.32"/>
<polygon fill="#63b8ff" stroke="#63b8ff" points="560.12,-353.7 570.65,-352.53 561.69,-346.88 560.12,-353.7"/>
</a>
</g>
</g>
<!-- Node10&#45;&gt;Node3 -->
<g id="edge14_Node000010_Node000003" class="edge">
<title>Node10&#45;&gt;Node3</title>
<g id="a_edge14_Node000010_Node000003"><a xlink:title=" ">
<path fill="none" stroke="#63b8ff" d="M446.14,-232.08C466.53,-216.95 505.99,-189.19 543,-171.75 546.27,-170.21 549.69,-168.75 553.18,-167.37"/>
<polygon fill="#63b8ff" stroke="#63b8ff" points="554.12,-170.75 562.3,-164.02 551.7,-164.18 554.12,-170.75"/>
</a>
</g>
</g>
<!-- Node10&#45;&gt;Node8 -->
<g id="edge11_Node000010_Node000008" class="edge">
<title>Node10&#45;&gt;Node8</title>
<g id="a_edge11_Node000010_Node000008"><a xlink:title=" ">
<path fill="none" stroke="#63b8ff" d="M450.53,-253.51C472.18,-265.91 509.44,-286.4 543,-300.75 547.32,-302.6 551.86,-304.39 556.44,-306.09"/>
<polygon fill="#63b8ff" stroke="#63b8ff" points="555.06,-309.32 565.66,-309.39 557.42,-302.73 555.06,-309.32"/>
</a>
</g>
</g>
<!-- Node10&#45;&gt;Node9 -->
<g id="edge12_Node000010_Node000009" class="edge">
<title>Node10&#45;&gt;Node9</title>
<g id="a_edge12_Node000010_Node000009"><a xlink:title=" ">
<path fill="none" stroke="#63b8ff" d="M446.99,-253.46C462.47,-264.85 487.2,-283.67 507,-301.75 524.18,-317.44 523.4,-327.21 543,-339.75 548.67,-343.38 555.07,-346.43 561.52,-348.96"/>
<polygon fill="#63b8ff" stroke="#63b8ff" points="560.26,-352.22 570.85,-352.24 562.58,-345.62 560.26,-352.22"/>
</a>
</g>
</g>
<!-- Node11 -->
<g id="Node000011" class="node">
<title>Node11</title>
<g id="a_Node000011"><a xlink:href="kest__context_8c.html#a8a0da058a66a81e046c9dbe0394cb1b8" target="_top" xlink:title=" ">
<polygon fill="white" stroke="#666666" points="663.25,-253.12 543,-253.12 543,-232.38 663.25,-232.38 663.25,-253.12"/>
<text xml:space="preserve" text-anchor="middle" x="603.12" y="-239.62" font-family="Helvetica,sans-Serif" font-size="10.00">cxt_get_profile_by_id</text>
</a>
</g>
</g>
<!-- Node10&#45;&gt;Node11 -->
<g id="edge10_Node000010_Node000011" class="edge">
<title>Node10&#45;&gt;Node11</title>
<g id="a_edge10_Node000010_Node000011"><a xlink:title=" ">
<path fill="none" stroke="#63b8ff" d="M482.21,-242.75C497.65,-242.75 514.95,-242.75 531.5,-242.75"/>
<polygon fill="#63b8ff" stroke="#63b8ff" points="531.29,-246.25 541.29,-242.75 531.29,-239.25 531.29,-246.25"/>
</a>
</g>
</g>
<!-- Node12 -->
<g id="Node000012" class="node">
<title>Node12</title>
<g id="a_Node000012"><a xlink:href="kest__profile_8c.html#a1943b8bd24ec344d5f80fcb7fb4ca297" target="_top" xlink:title=" ">
<polygon fill="#fff0f0" stroke="red" points="663.25,-214.5 543,-214.5 543,-181 663.25,-181 663.25,-214.5"/>
<text xml:space="preserve" text-anchor="start" x="551" y="-201" font-family="Helvetica,sans-Serif" font-size="10.00">kest_profile_if_active</text>
<text xml:space="preserve" text-anchor="middle" x="603.12" y="-188.25" font-family="Helvetica,sans-Serif" font-size="10.00">_update_fpga</text>
</a>
</g>
</g>
<!-- Node10&#45;&gt;Node12 -->
<g id="edge13_Node000010_Node000012" class="edge">
<title>Node10&#45;&gt;Node12</title>
<g id="a_edge13_Node000010_Node000012"><a xlink:title=" ">
<path fill="none" stroke="#63b8ff" d="M472.84,-231.97C490.5,-227.3 511.69,-221.69 531.75,-216.38"/>
<polygon fill="#63b8ff" stroke="#63b8ff" points="532.52,-219.79 541.29,-213.85 530.73,-213.03 532.52,-219.79"/>
</a>
</g>
</g>
<!-- Node44 -->
<g id="Node000044" class="node">
<title>Node44</title>
<g id="a_Node000044"><a xlink:href="kest__parameter__widget_8c.html#a24b55362ed912007f19d66a3e9784e3a" target="_top" xlink:title=" ">
<polygon fill="white" stroke="#666666" points="647.88,-292.12 558.38,-292.12 558.38,-271.38 647.88,-271.38 647.88,-292.12"/>
<text xml:space="preserve" text-anchor="middle" x="603.12" y="-278.62" font-family="Helvetica,sans-Serif" font-size="10.00">sw_field_reject</text>
</a>
</g>
</g>
<!-- Node10&#45;&gt;Node44 -->
<g id="edge15_Node000010_Node000044" class="edge">
<title>Node10&#45;&gt;Node44</title>
<g id="a_edge15_Node000010_Node000044"><a xlink:title=" ">
<path fill="none" stroke="#63b8ff" d="M479.48,-253.61C500.39,-258.41 525.12,-264.08 546.87,-269.07"/>
<polygon fill="#63b8ff" stroke="#63b8ff" points="545.94,-272.45 556.47,-271.28 547.5,-265.63 545.94,-272.45"/>
</a>
</g>
</g>
<!-- Node46 -->
<g id="Node000046" class="node">
<title>Node46</title>
<g id="a_Node000046"><a xlink:href="kest__parameter__widget_8c.html#a9f3fb39848be08aec8f4f317aa8487b0" target="_top" xlink:title=" ">
<polygon fill="white" stroke="#666666" points="495.38,-85.5 366.88,-85.5 366.88,-52 495.38,-52 495.38,-85.5"/>
<text xml:space="preserve" text-anchor="start" x="374.88" y="-72" font-family="Helvetica,sans-Serif" font-size="10.00">setting_widget_change</text>
<text xml:space="preserve" text-anchor="middle" x="431.12" y="-59.25" font-family="Helvetica,sans-Serif" font-size="10.00">_cb_inner</text>
</a>
</g>
</g>
<!-- Node45&#45;&gt;Node46 -->
<g id="edge17_Node000045_Node000046" class="edge">
<title>Node45&#45;&gt;Node46</title>
<g id="a_edge17_Node000045_Node000046"><a xlink:title=" ">
<path fill="none" stroke="#63b8ff" d="M319.57,-68.75C331.35,-68.75 343.59,-68.75 355.44,-68.75"/>
<polygon fill="#63b8ff" stroke="#63b8ff" points="355.14,-72.25 365.14,-68.75 355.14,-65.25 355.14,-72.25"/>
</a>
</g>
</g>
<!-- Node14 -->
<g id="Node000014" class="node">
<title>Node14</title>
<g id="a_Node000014"><a xlink:href="kest__error__codes_8c.html#a0f4c77127bc0b77264a21104979c576a" target="_top" xlink:title=" ">
<polygon fill="white" stroke="#666666" points="657.25,-33.5 549,-33.5 549,0 657.25,0 657.25,-33.5"/>
<text xml:space="preserve" text-anchor="start" x="557" y="-20" font-family="Helvetica,sans-Serif" font-size="10.00">kest_error_code_to</text>
<text xml:space="preserve" text-anchor="middle" x="603.12" y="-7.25" font-family="Helvetica,sans-Serif" font-size="10.00">_string</text>
</a>
</g>
</g>
<!-- Node46&#45;&gt;Node14 -->
<g id="edge18_Node000046_Node000014" class="edge">
<title>Node46&#45;&gt;Node14</title>
<g id="a_edge18_Node000046_Node000014"><a xlink:title=" ">
<path fill="none" stroke="#63b8ff" d="M488.26,-51.58C504.21,-46.7 521.69,-41.35 538.07,-36.34"/>
<polygon fill="#63b8ff" stroke="#63b8ff" points="538.66,-39.82 547.2,-33.55 536.61,-33.13 538.66,-39.82"/>
</a>
</g>
</g>
<!-- Node47 -->
<g id="Node000047" class="node">
<title>Node47</title>
<g id="a_Node000047"><a xlink:href="kest__parameter__widget_8c.html#a212d266027eea487d5a8fa3a457aec5e" target="_top" xlink:title=" ">
<polygon fill="white" stroke="#666666" points="659.5,-85.5 546.75,-85.5 546.75,-52 659.5,-52 659.5,-85.5"/>
<text xml:space="preserve" text-anchor="start" x="554.75" y="-72" font-family="Helvetica,sans-Serif" font-size="10.00">setting_widget_calc</text>
<text xml:space="preserve" text-anchor="middle" x="603.12" y="-59.25" font-family="Helvetica,sans-Serif" font-size="10.00">_value</text>
</a>
</g>
</g>
<!-- Node46&#45;&gt;Node47 -->
<g id="edge19_Node000046_Node000047" class="edge">
<title>Node46&#45;&gt;Node47</title>
<g id="a_edge19_Node000046_Node000047"><a xlink:title=" ">
<path fill="none" stroke="#63b8ff" d="M495.43,-68.75C508.35,-68.75 521.99,-68.75 535.04,-68.75"/>
<polygon fill="#63b8ff" stroke="#63b8ff" points="534.81,-72.25 544.81,-68.75 534.81,-65.25 534.81,-72.25"/>
</a>
</g>
</g>
<!-- Node49 -->
<g id="Node000049" class="node">
<title>Node49</title>
<g id="a_Node000049"><a xlink:href="kest__parameter__widget_8c.html#a97d6d97190503c60d5a816f44054c173" target="_top" xlink:title=" ">
<polygon fill="white" stroke="#666666" points="494.62,-33.5 367.62,-33.5 367.62,0 494.62,0 494.62,-33.5"/>
<text xml:space="preserve" text-anchor="start" x="375.62" y="-20" font-family="Helvetica,sans-Serif" font-size="10.00">setting_widget_update</text>
<text xml:space="preserve" text-anchor="middle" x="431.12" y="-7.25" font-family="Helvetica,sans-Serif" font-size="10.00">_value</text>
</a>
</g>
</g>
<!-- Node48&#45;&gt;Node49 -->
<g id="edge21_Node000048_Node000049" class="edge">
<title>Node48&#45;&gt;Node49</title>
<g id="a_edge21_Node000048_Node000049"><a xlink:title=" ">
<path fill="none" stroke="#63b8ff" d="M309.24,-19.4C324.3,-19.07 340.58,-18.71 356.15,-18.37"/>
<polygon fill="#63b8ff" stroke="#63b8ff" points="355.91,-21.88 365.84,-18.16 355.76,-14.88 355.91,-21.88"/>
</a>
</g>
</g>
</g>
</svg>

<g id="navigator" transform="translate(0 0)" fill="#404254">
  <rect fill="#f2f5e9" fill-opacity="0.5" stroke="#606060" stroke-width=".5" x="0" y="0" width="60" height="60"/>
  <use id="zoomplus" xlink:href="#zoomPlus" x="17" y="9" onmousedown="handleZoom(evt,'in')"/>
  <use id="zoomminus" xlink:href="#zoomMin" x="42" y="9" onmousedown="handleZoom(evt,'out')"/>
  <use id="reset" xlink:href="#resetDef" x="30" y="36" onmousedown="handleReset()"/>
   <use id="arrowup" xlink:href="#arrowUp" x="0" y="0" onmousedown="handlePan(0,-1)"/>
  <use id="arrowright" xlink:href="#arrowRight" x="0" y="0" onmousedown="handlePan(1,0)"/>
  <use id="arrowdown" xlink:href="#arrowDown" x="0" y="0" onmousedown="handlePan(0,1)"/>
  <use id="arrowleft" xlink:href="#arrowLeft" x="0" y="0" onmousedown="handlePan(-1,0)"/>
</g>
<svg viewBox="0 0 15 15" width="100%" height="30px" preserveAspectRatio="xMaxYMin meet">
 <g id="arrow_out" transform="scale(0.3 0.3)">
  <a xlink:href="kest__parameter__widget_8h_a4e1186f755fc218893d27918562ae4a9_cgraph_org.svg" target="_base">
   <rect id="button" ry="5" rx="5" y="6" x="6" height="38" width="38"
        fill="#f2f5e9" fill-opacity="0.5" stroke="#606060" stroke-width="1.0"/>
   <path id="arrow"
     d="M 11.500037,31.436501 C 11.940474,20.09759 22.043105,11.32322 32.158766,21.979434 L 37.068811,17.246167 C 37.068811,17.246167 37.088388,32 37.088388,32 L 22.160133,31.978069 C 22.160133,31.978069 26.997745,27.140456 26.997745,27.140456 C 18.528582,18.264221 13.291696,25.230495 11.500037,31.436501 z"
     style="fill:#404040;"/>
  </a>
 </g>
</svg>

<style type='text/css'>
<![CDATA[
[data-mouse-over-selected='false'] { opacity: 0.7; }
[data-mouse-over-selected='true']  { opacity: 1.0; }
]]>
</style>
<script type="application/ecmascript"><![CDATA[
document.addEventListener('DOMContentLoaded', (event) => {
  highlightEdges();
  highlightAdjacentNodes();
});
]]></script>
</svg>
