<?xml version="1.0" encoding="UTF-8" standalone="no"?>
<!DOCTYPE svg PUBLIC "-//W3C//DTD SVG 1.1//EN"
 "http://www.w3.org/Graphics/SVG/1.1/DTD/svg11.dtd">
<!-- Generated by graphviz version 13.1.2 (20250808.2320)
 -->
<!-- Title: kest_page_id_find_page Pages: 1 -->
<!--zoomable 146 -->

<svg id="main" version="1.1" xmlns="http://www.w3.org/2000/svg" xmlns:xlink="http://www.w3.org/1999/xlink" xml:space="preserve" onload="init(evt)">

<style type="text/css"><![CDATA[
.node, .edge {opacity: 0.7;}
.node.selected, .edge.selected {opacity: 1;}
.edge:hover path { stroke: red; }
.edge:hover polygon { stroke: red; fill: red; }
]]></style>

<defs>
  <circle id="rim" cx="0" cy="0" r="7"/>
  <circle id="rim2" cx="0" cy="0" r="3.5"/>
  <g id="zoomPlus">
    <use xlink:href="#rim" fill="#404040"><set attributeName="fill" to="#808080" begin="zoomplus.mouseover" end="zoomplus.mouseout"/></use>
    <path d="M-4,0h8M0,-4v8" fill="none" stroke="white" stroke-width="1.5" pointer-events="none"/>
  </g>
  <g id="zoomMin">
    <use xlink:href="#rim" fill="#404040"><set attributeName="fill" to="#808080" begin="zoomminus.mouseover" end="zoomminus.mouseout"/></use>
    <path d="M-4,0h8" fill="none" stroke="white" stroke-width="1.5" pointer-events="none"/>
  </g>
  <g id="arrowUp" transform="translate(30 24)">
    <use xlink:href="#rim"/>
    <path pointer-events="none" fill="none" stroke="white" stroke-width="1.5" d="M0,-3.0v7 M-2.5,-0.5L0,-3.0L2.5,-0.5"/>
  </g>
  <g id="arrowRight" transform="rotate(90) translate(36 -43)">
    <use xlink:href="#rim"/>
    <path pointer-events="none" fill="none" stroke="white" stroke-width="1.5" d="M0,-3.0v7 M-2.5,-0.5L0,-3.0L2.5,-0.5"/>
  </g>
  <g id="arrowDown" transform="rotate(180) translate(-30 -48)">
    <use xlink:href="#rim"/>
    <path pointer-events="none" fill="none" stroke="white" stroke-width="1.5" d="M0,-3.0v7 M-2.5,-0.5L0,-3.0L2.5,-0.5"/>
  </g>
  <g id="arrowLeft" transform="rotate(270) translate(-36 17)">
    <use xlink:href="#rim"/>
    <path pointer-events="none" fill="none" stroke="white" stroke-width="1.5" d="M0,-3.0v7 M-2.5,-0.5L0,-3.0L2.5,-0.5"/>
  </g>
  <g id="resetDef">
    <use xlink:href="#rim2" fill="#404040"><set attributeName="fill" to="#808080" begin="reset.mouseover" end="reset.mouseout"/></use>
  </g>
</defs>
<script type="application/ecmascript">
var viewWidth = 594;
var viewHeight = 146;
var sectionId = 'dynsection-1';
</script>
<script type="application/ecmascript" xlink:href="svg.min.js"/>
<svg id="graph" class="graph">
<g id="viewport">
<title>kest_page_id_find_page</title>
<!-- Node1 -->
<g id="Node000001" class="node">
<title>Node1</title>
<g id="a_Node000001"><a xlink:title=" ">
<polygon fill="#999999" stroke="#666666" points="133,-79.12 0,-79.12 0,-58.38 133,-58.38 133,-79.12"/>
<text xml:space="preserve" text-anchor="middle" x="66.5" y="-65.62" font-family="Helvetica,sans-Serif" font-size="10.00">kest_page_id_find_page</text>
</a>
</g>
</g>
<!-- Node2 -->
<g id="Node000002" class="node">
<title>Node2</title>
<g id="a_Node000002"><a xlink:href="kest__context_8c.html#a9eec45af3bef4cc85ead192e80d4a524" target="_top" xlink:title=" ">
<polygon fill="white" stroke="#666666" points="285.88,-137.5 179.88,-137.5 179.88,-104 285.88,-104 285.88,-137.5"/>
<text xml:space="preserve" text-anchor="start" x="187.88" y="-124" font-family="Helvetica,sans-Serif" font-size="10.00">cxt_get_profile_by</text>
<text xml:space="preserve" text-anchor="middle" x="232.88" y="-111.25" font-family="Helvetica,sans-Serif" font-size="10.00">_fname</text>
</a>
</g>
</g>
<!-- Node1&#45;&gt;Node2 -->
<g id="edge1_Node000001_Node000002" class="edge">
<title>Node1&#45;&gt;Node2</title>
<g id="a_edge1_Node000001_Node000002"><a xlink:title=" ">
<path fill="none" stroke="#63b8ff" d="M101.56,-79.52C120.96,-85.66 145.89,-93.55 168.74,-100.78"/>
<polygon fill="#63b8ff" stroke="#63b8ff" points="167.37,-104.02 177.96,-103.69 169.48,-97.34 167.37,-104.02"/>
</a>
</g>
</g>
<!-- Node5 -->
<g id="Node000005" class="node">
<title>Node5</title>
<g id="a_Node000005"><a xlink:href="kest__context_8c.html#a4474b9a7ebb9f0c2bd9fd3773bc81d7f" target="_top" xlink:title=" ">
<polygon fill="white" stroke="#666666" points="293.38,-85.5 172.38,-85.5 172.38,-52 293.38,-52 293.38,-85.5"/>
<text xml:space="preserve" text-anchor="start" x="180.38" y="-72" font-family="Helvetica,sans-Serif" font-size="10.00">cxt_get_sequence_by</text>
<text xml:space="preserve" text-anchor="middle" x="232.88" y="-59.25" font-family="Helvetica,sans-Serif" font-size="10.00">_fname</text>
</a>
</g>
</g>
<!-- Node1&#45;&gt;Node5 -->
<g id="edge4_Node000001_Node000005" class="edge">
<title>Node1&#45;&gt;Node5</title>
<g id="a_edge4_Node000001_Node000005"><a xlink:title=" ">
<path fill="none" stroke="#63b8ff" d="M133.41,-68.75C142.39,-68.75 151.64,-68.75 160.71,-68.75"/>
<polygon fill="#63b8ff" stroke="#63b8ff" points="160.55,-72.25 170.55,-68.75 160.55,-65.25 160.55,-72.25"/>
</a>
</g>
</g>
<!-- Node6 -->
<g id="Node000006" class="node">
<title>Node6</title>
<g id="a_Node000006"><a xlink:href="kest__profile_8c.html#a29b790068e7677aa1e211a707409bcc4" target="_top" xlink:title=" ">
<polygon fill="white" stroke="#666666" points="296.75,-33.5 169,-33.5 169,0 296.75,0 296.75,-33.5"/>
<text xml:space="preserve" text-anchor="start" x="177" y="-20" font-family="Helvetica,sans-Serif" font-size="10.00">kest_profile_get_effect</text>
<text xml:space="preserve" text-anchor="middle" x="232.88" y="-7.25" font-family="Helvetica,sans-Serif" font-size="10.00">_by_id</text>
</a>
</g>
</g>
<!-- Node1&#45;&gt;Node6 -->
<g id="edge6_Node000001_Node000006" class="edge">
<title>Node1&#45;&gt;Node6</title>
<g id="a_edge6_Node000001_Node000006"><a xlink:title=" ">
<path fill="none" stroke="#63b8ff" d="M101.56,-57.98C120.39,-52.02 144.42,-44.42 166.71,-37.37"/>
<polygon fill="#63b8ff" stroke="#63b8ff" points="167.56,-40.77 176.03,-34.42 165.44,-34.09 167.56,-40.77"/>
</a>
</g>
</g>
<!-- Node3 -->
<g id="Node000003" class="node">
<title>Node3</title>
<g id="a_Node000003"><a xlink:href="kest__files_8c.html#a8bcff3a826c8132661386cd8098594a2" target="_top" xlink:title=" ">
<polygon fill="white" stroke="#666666" points="443.25,-105.12 357.5,-105.12 357.5,-84.38 443.25,-84.38 443.25,-105.12"/>
<text xml:space="preserve" text-anchor="middle" x="400.38" y="-91.62" font-family="Helvetica,sans-Serif" font-size="10.00">fnames_agree</text>
</a>
</g>
</g>
<!-- Node2&#45;&gt;Node3 -->
<g id="edge2_Node000002_Node000003" class="edge">
<title>Node2&#45;&gt;Node3</title>
<g id="a_edge2_Node000002_Node000003"><a xlink:title=" ">
<path fill="none" stroke="#63b8ff" d="M286.24,-112.52C305.23,-109.54 326.7,-106.17 345.79,-103.17"/>
<polygon fill="#63b8ff" stroke="#63b8ff" points="346.19,-106.65 355.53,-101.64 345.11,-99.73 346.19,-106.65"/>
</a>
</g>
</g>
<!-- Node4 -->
<g id="Node000004" class="node">
<title>Node4</title>
<g id="a_Node000004"><a xlink:href="kest__tokenizer_8c.html#ae3e094675b7f6c398787acd25603e724" target="_top" xlink:title=" ">
<polygon fill="white" stroke="#666666" points="586,-105.12 504,-105.12 504,-84.38 586,-84.38 586,-105.12"/>
<text xml:space="preserve" text-anchor="middle" x="545" y="-91.62" font-family="Helvetica,sans-Serif" font-size="10.00">char_is_letter</text>
</a>
</g>
</g>
<!-- Node3&#45;&gt;Node4 -->
<g id="edge3_Node000003_Node000004" class="edge">
<title>Node3&#45;&gt;Node4</title>
<g id="a_edge3_Node000003_Node000004"><a xlink:title=" ">
<path fill="none" stroke="#63b8ff" d="M443.4,-94.75C458.74,-94.75 476.26,-94.75 492.35,-94.75"/>
<polygon fill="#63b8ff" stroke="#63b8ff" points="492.24,-98.25 502.24,-94.75 492.24,-91.25 492.24,-98.25"/>
</a>
</g>
</g>
<!-- Node5&#45;&gt;Node3 -->
<g id="edge5_Node000005_Node000003" class="edge">
<title>Node5&#45;&gt;Node3</title>
<g id="a_edge5_Node000005_Node000003"><a xlink:title=" ">
<path fill="none" stroke="#63b8ff" d="M293.62,-78.14C310.7,-80.82 329.2,-83.73 345.87,-86.35"/>
<polygon fill="#63b8ff" stroke="#63b8ff" points="345.17,-89.78 355.6,-87.87 346.26,-82.86 345.17,-89.78"/>
</a>
</g>
</g>
<!-- Node7 -->
<g id="Node000007" class="node">
<title>Node7</title>
<g id="a_Node000007"><a xlink:href="kest__pipeline_8c.html#a19fe1c3c33a4a564d9c722b7cd94037d" target="_top" xlink:title=" ">
<polygon fill="white" stroke="#666666" points="468,-33.5 332.75,-33.5 332.75,0 468,0 468,-33.5"/>
<text xml:space="preserve" text-anchor="start" x="340.75" y="-20" font-family="Helvetica,sans-Serif" font-size="10.00">kest_pipeline_get_effect</text>
<text xml:space="preserve" text-anchor="middle" x="400.38" y="-7.25" font-family="Helvetica,sans-Serif" font-size="10.00">_by_id</text>
</a>
</g>
</g>
<!-- Node6&#45;&gt;Node7 -->
<g id="edge7_Node000006_Node000007" class="edge">
<title>Node6&#45;&gt;Node7</title>
<g id="a_edge7_Node000006_Node000007"><a xlink:title=" ">
<path fill="none" stroke="#63b8ff" d="M296.92,-16.75C304.8,-16.75 312.94,-16.75 321.02,-16.75"/>
<polygon fill="#63b8ff" stroke="#63b8ff" points="320.87,-20.25 330.87,-16.75 320.87,-13.25 320.87,-20.25"/>
</a>
</g>
</g>
</g>
</svg>

<g id="navigator" transform="translate(0 0)" fill="#404254">
  <rect fill="#f2f5e9" fill-opacity="0.5" stroke="#606060" stroke-width=".5" x="0" y="0" width="60" height="60"/>
  <use id="zoomplus" xlink:href="#zoomPlus" x="17" y="9" onmousedown="handleZoom(evt,'in')"/>
  <use id="zoomminus" xlink:href="#zoomMin" x="42" y="9" onmousedown="handleZoom(evt,'out')"/>
  <use id="reset" xlink:href="#resetDef" x="30" y="36" onmousedown="handleReset()"/>
   <use id="arrowup" xlink:href="#arrowUp" x="0" y="0" onmousedown="handlePan(0,-1)"/>
  <use id="arrowright" xlink:href="#arrowRight" x="0" y="0" onmousedown="handlePan(1,0)"/>
  <use id="arrowdown" xlink:href="#arrowDown" x="0" y="0" onmousedown="handlePan(0,1)"/>
  <use id="arrowleft" xlink:href="#arrowLeft" x="0" y="0" onmousedown="handlePan(-1,0)"/>
</g>
<svg viewBox="0 0 15 15" width="100%" height="30px" preserveAspectRatio="xMaxYMin meet">
 <g id="arrow_out" transform="scale(0.3 0.3)">
  <a xlink:href="kest__page__id_8h_ac484140b31bc7c9ac5bd3c01d520db0d_cgraph_org.svg" target="_base">
   <rect id="button" ry="5" rx="5" y="6" x="6" height="38" width="38"
        fill="#f2f5e9" fill-opacity="0.5" stroke="#606060" stroke-width="1.0"/>
   <path id="arrow"
     d="M 11.500037,31.436501 C 11.940474,20.09759 22.043105,11.32322 32.158766,21.979434 L 37.068811,17.246167 C 37.068811,17.246167 37.088388,32 37.088388,32 L 22.160133,31.978069 C 22.160133,31.978069 26.997745,27.140456 26.997745,27.140456 C 18.528582,18.264221 13.291696,25.230495 11.500037,31.436501 z"
     style="fill:#404040;"/>
  </a>
 </g>
</svg>

<style type='text/css'>
<![CDATA[
[data-mouse-over-selected='false'] { opacity: 0.7; }
[data-mouse-over-selected='true']  { opacity: 1.0; }
]]>
</style>
<script type="application/ecmascript"><![CDATA[
document.addEventListener('DOMContentLoaded', (event) => {
  highlightEdges();
  highlightAdjacentNodes();
});
]]></script>
</svg>
