<?xml version="1.0" encoding="UTF-8" standalone="no"?>
<!DOCTYPE svg PUBLIC "-//W3C//DTD SVG 1.1//EN"
 "http://www.w3.org/Graphics/SVG/1.1/DTD/svg11.dtd">
<!-- Generated by graphviz version 13.1.2 (20250808.2320)
 -->
<!-- Title: create_page_linindirect_k_menu_item Pages: 1 -->
<svg width="367pt" height="105pt"
 viewBox="0.00 0.00 367.00 105.00" xmlns="http://www.w3.org/2000/svg" xmlns:xlink="http://www.w3.org/1999/xlink">
<g id="graph0" class="graph" transform="scale(1 1) rotate(0) translate(4 100.75)">
<title>create_page_linindirect_k_menu_item</title>
<!-- Node1 -->
<g id="Node000001" class="node">
<title>Node1</title>
<g id="a_Node000001"><a xlink:title=" ">
<polygon fill="#999999" stroke="#666666" points="130,-65.12 0,-65.12 0,-31.62 130,-31.62 130,-65.12"/>
<text xml:space="preserve" text-anchor="start" x="8" y="-51.62" font-family="Helvetica,sans-Serif" font-size="10.00">create_page_linindirect</text>
<text xml:space="preserve" text-anchor="middle" x="65" y="-38.88" font-family="Helvetica,sans-Serif" font-size="10.00">_k_menu_item</text>
</a>
</g>
</g>
<!-- Node2 -->
<g id="Node000002" class="node">
<title>Node2</title>
<g id="a_Node000002"><a xlink:href="kest__menu_8c.html#a1449503a7d3ba86031fa4c9f7b70649e" target="_top" xlink:title=" ">
<polygon fill="white" stroke="#666666" points="258.5,-96.75 166,-96.75 166,-76 258.5,-76 258.5,-96.75"/>
<text xml:space="preserve" text-anchor="middle" x="212.25" y="-83.25" font-family="Helvetica,sans-Serif" font-size="10.00">init_menu_item</text>
</a>
</g>
</g>
<!-- Node1&#45;&gt;Node2 -->
<g id="edge1_Node000001_Node000002" class="edge">
<title>Node1&#45;&gt;Node2</title>
<g id="a_edge1_Node000001_Node000002"><a xlink:title=" ">
<path fill="none" stroke="#63b8ff" d="M130.13,-65.15C139.75,-67.67 149.57,-70.24 158.9,-72.68"/>
<polygon fill="#63b8ff" stroke="#63b8ff" points="157.97,-76.05 168.53,-75.2 159.74,-69.28 157.97,-76.05"/>
</a>
</g>
</g>
<!-- Node3 -->
<g id="Node000003" class="node">
<title>Node3</title>
<g id="a_Node000003"><a xlink:href="kest__alloc_8c.html#a849755c5dc5b35e712ffcdb602e50fb4" target="_top" xlink:title=" ">
<polygon fill="white" stroke="#666666" points="359.25,-39.75 294.5,-39.75 294.5,-19 359.25,-19 359.25,-39.75"/>
<text xml:space="preserve" text-anchor="middle" x="326.88" y="-26.25" font-family="Helvetica,sans-Serif" font-size="10.00">kest_alloc</text>
</a>
</g>
</g>
<!-- Node1&#45;&gt;Node3 -->
<g id="edge2_Node000001_Node000003" class="edge">
<title>Node1&#45;&gt;Node3</title>
<g id="a_edge2_Node000001_Node000003"><a xlink:title=" ">
<path fill="none" stroke="#63b8ff" d="M130.24,-43.68C177.81,-40.2 241.33,-35.56 282.9,-32.52"/>
<polygon fill="#63b8ff" stroke="#63b8ff" points="283.04,-36.02 292.76,-31.8 282.53,-29.03 283.04,-36.02"/>
</a>
</g>
</g>
<!-- Node4 -->
<g id="Node000004" class="node">
<title>Node4</title>
<g id="a_Node000004"><a xlink:href="kest__alloc_8c.html#aed9ede1276c1ab3b4042c264ce64a3d2" target="_top" xlink:title=" ">
<polygon fill="white" stroke="#666666" points="251.38,-20.75 173.12,-20.75 173.12,0 251.38,0 251.38,-20.75"/>
<text xml:space="preserve" text-anchor="middle" x="212.25" y="-7.25" font-family="Helvetica,sans-Serif" font-size="10.00">kest_strndup</text>
</a>
</g>
</g>
<!-- Node1&#45;&gt;Node4 -->
<g id="edge3_Node000001_Node000004" class="edge">
<title>Node1&#45;&gt;Node4</title>
<g id="a_edge3_Node000001_Node000004"><a xlink:title=" ">
<path fill="none" stroke="#63b8ff" d="M130.13,-31.6C140.85,-28.79 151.81,-25.92 162.08,-23.24"/>
<polygon fill="#63b8ff" stroke="#63b8ff" points="162.64,-26.71 171.43,-20.79 160.87,-19.94 162.64,-26.71"/>
</a>
</g>
</g>
<!-- Node4&#45;&gt;Node3 -->
<g id="edge4_Node000004_Node000003" class="edge">
<title>Node4&#45;&gt;Node3</title>
<g id="a_edge4_Node000004_Node000003"><a xlink:title=" ">
<path fill="none" stroke="#63b8ff" d="M251.69,-16.86C261.79,-18.56 272.74,-20.41 283.04,-22.15"/>
<polygon fill="#63b8ff" stroke="#63b8ff" points="282.39,-25.59 292.84,-23.8 283.56,-18.69 282.39,-25.59"/>
</a>
</g>
</g>
</g>
</svg>
