<?xml version="1.0" encoding="UTF-8" standalone="no"?>
<!DOCTYPE svg PUBLIC "-//W3C//DTD SVG 1.1//EN"
 "http://www.w3.org/Graphics/SVG/1.1/DTD/svg11.dtd">
<!-- Generated by graphviz version 13.1.2 (20250808.2320)
 -->
<!-- Title: init_low_end_compressor Pages: 1 -->
<svg width="612pt" height="113pt"
 viewBox="0.00 0.00 612.00 113.00" xmlns="http://www.w3.org/2000/svg" xmlns:xlink="http://www.w3.org/1999/xlink">
<g id="graph0" class="graph" transform="scale(1 1) rotate(0) translate(4 109.12)">
<title>init_low_end_compressor</title>
<!-- Node1 -->
<g id="Node000001" class="node">
<title>Node1</title>
<g id="a_Node000001"><a xlink:title=" ">
<polygon fill="#999999" stroke="#666666" points="139.75,-59.75 0,-59.75 0,-39 139.75,-39 139.75,-59.75"/>
<text xml:space="preserve" text-anchor="middle" x="69.88" y="-46.25" font-family="Helvetica,sans-Serif" font-size="10.00">init_low_end_compressor</text>
</a>
</g>
</g>
<!-- Node2 -->
<g id="Node000002" class="node">
<title>Node2</title>
<g id="a_Node000002"><a xlink:href="kest__effect_8c.html#a8dc8fceab7f835d960ea95e4f21fe327" target="_top" xlink:title=" ">
<polygon fill="white" stroke="#666666" points="299.75,-59.75 175.75,-59.75 175.75,-39 299.75,-39 299.75,-59.75"/>
<text xml:space="preserve" text-anchor="middle" x="237.75" y="-46.25" font-family="Helvetica,sans-Serif" font-size="10.00">effect_add_parameter</text>
</a>
</g>
</g>
<!-- Node1&#45;&gt;Node2 -->
<g id="edge1_Node000001_Node000002" class="edge">
<title>Node1&#45;&gt;Node2</title>
<g id="a_edge1_Node000001_Node000002"><a xlink:title=" ">
<path fill="none" stroke="#63b8ff" d="M139.78,-49.38C147.83,-49.38 156.05,-49.38 164.15,-49.38"/>
<polygon fill="#63b8ff" stroke="#63b8ff" points="163.96,-52.88 173.96,-49.38 163.96,-45.88 163.96,-52.88"/>
</a>
</g>
</g>
<!-- Node3 -->
<g id="Node000003" class="node">
<title>Node3</title>
<g id="a_Node000003"><a xlink:href="kest__parameter_8c.html#a41fafa04c21a8ab5916a8ceb5442d99a" target="_top" xlink:title=" ">
<polygon fill="white" stroke="#666666" points="441.75,-98.75 335.75,-98.75 335.75,-78 441.75,-78 441.75,-98.75"/>
<text xml:space="preserve" text-anchor="middle" x="388.75" y="-85.25" font-family="Helvetica,sans-Serif" font-size="10.00">init_parameter_str</text>
</a>
</g>
</g>
<!-- Node2&#45;&gt;Node3 -->
<g id="edge2_Node000002_Node000003" class="edge">
<title>Node2&#45;&gt;Node3</title>
<g id="a_edge2_Node000002_Node000003"><a xlink:title=" ">
<path fill="none" stroke="#63b8ff" d="M280.25,-60.24C297.3,-64.7 317.23,-69.92 335.27,-74.64"/>
<polygon fill="#63b8ff" stroke="#63b8ff" points="334.19,-77.97 344.75,-77.12 335.96,-71.2 334.19,-77.97"/>
</a>
</g>
</g>
<!-- Node7 -->
<g id="Node000007" class="node">
<title>Node7</title>
<g id="a_Node000007"><a xlink:href="kest__alloc_8c.html#a849755c5dc5b35e712ffcdb602e50fb4" target="_top" xlink:title=" ">
<polygon fill="white" stroke="#666666" points="421.12,-59.75 356.38,-59.75 356.38,-39 421.12,-39 421.12,-59.75"/>
<text xml:space="preserve" text-anchor="middle" x="388.75" y="-46.25" font-family="Helvetica,sans-Serif" font-size="10.00">kest_alloc</text>
</a>
</g>
</g>
<!-- Node2&#45;&gt;Node7 -->
<g id="edge4_Node000002_Node000007" class="edge">
<title>Node2&#45;&gt;Node7</title>
<g id="a_edge4_Node000002_Node000007"><a xlink:title=" ">
<path fill="none" stroke="#63b8ff" d="M300.21,-49.38C315.24,-49.38 331.01,-49.38 344.95,-49.38"/>
<polygon fill="#63b8ff" stroke="#63b8ff" points="344.66,-52.88 354.66,-49.38 344.66,-45.88 344.66,-52.88"/>
</a>
</g>
</g>
<!-- Node8 -->
<g id="Node000008" class="node">
<title>Node8</title>
<g id="a_Node000008"><a xlink:href="kest__alloc_8c.html#a294af5728a94aa316fcf65304d388d48" target="_top" xlink:title=" ">
<polygon fill="white" stroke="#666666" points="419.25,-20.75 358.25,-20.75 358.25,0 419.25,0 419.25,-20.75"/>
<text xml:space="preserve" text-anchor="middle" x="388.75" y="-7.25" font-family="Helvetica,sans-Serif" font-size="10.00">kest_free</text>
</a>
</g>
</g>
<!-- Node2&#45;&gt;Node8 -->
<g id="edge5_Node000002_Node000008" class="edge">
<title>Node2&#45;&gt;Node8</title>
<g id="a_edge5_Node000002_Node000008"><a xlink:title=" ">
<path fill="none" stroke="#63b8ff" d="M280.25,-38.51C301.03,-33.07 326.1,-26.51 346.81,-21.09"/>
<polygon fill="#63b8ff" stroke="#63b8ff" points="347.55,-24.52 356.34,-18.6 345.78,-17.74 347.55,-24.52"/>
</a>
</g>
</g>
<!-- Node4 -->
<g id="Node000004" class="node">
<title>Node4</title>
<g id="a_Node000004"><a xlink:href="kest__parameter_8c.html#abff5b0dd3ed907207191aa6079c514eb" target="_top" xlink:title=" ">
<polygon fill="#fff0f0" stroke="red" points="604,-105.12 477.75,-105.12 477.75,-71.62 604,-71.62 604,-105.12"/>
<text xml:space="preserve" text-anchor="start" x="485.75" y="-91.62" font-family="Helvetica,sans-Serif" font-size="10.00">kest_parameter_effect</text>
<text xml:space="preserve" text-anchor="middle" x="540.88" y="-78.88" font-family="Helvetica,sans-Serif" font-size="10.00">_rep_update</text>
</a>
</g>
</g>
<!-- Node3&#45;&gt;Node4 -->
<g id="edge3_Node000003_Node000004" class="edge">
<title>Node3&#45;&gt;Node4</title>
<g id="a_edge3_Node000003_Node000004"><a xlink:title=" ">
<path fill="none" stroke="#63b8ff" d="M441.84,-88.38C449.61,-88.38 457.74,-88.38 465.86,-88.38"/>
<polygon fill="#63b8ff" stroke="#63b8ff" points="465.77,-91.88 475.77,-88.38 465.77,-84.88 465.77,-91.88"/>
</a>
</g>
</g>
</g>
</svg>
