<?xml version="1.0" encoding="UTF-8" standalone="no"?>
<!DOCTYPE svg PUBLIC "-//W3C//DTD SVG 1.1//EN"
 "http://www.w3.org/Graphics/SVG/1.1/DTD/svg11.dtd">
<!-- Generated by graphviz version 13.1.2 (20250808.2320)
 -->
<!-- Title: kest_sequence_stop Pages: 1 -->
<!--zoomable 125 -->

<svg id="main" version="1.1" xmlns="http://www.w3.org/2000/svg" xmlns:xlink="http://www.w3.org/1999/xlink" xml:space="preserve" onload="init(evt)">

<style type="text/css"><![CDATA[
.node, .edge {opacity: 0.7;}
.node.selected, .edge.selected {opacity: 1;}
.edge:hover path { stroke: red; }
.edge:hover polygon { stroke: red; fill: red; }
]]></style>

<defs>
  <circle id="rim" cx="0" cy="0" r="7"/>
  <circle id="rim2" cx="0" cy="0" r="3.5"/>
  <g id="zoomPlus">
    <use xlink:href="#rim" fill="#404040"><set attributeName="fill" to="#808080" begin="zoomplus.mouseover" end="zoomplus.mouseout"/></use>
    <path d="M-4,0h8M0,-4v8" fill="none" stroke="white" stroke-width="1.5" pointer-events="none"/>
  </g>
  <g id="zoomMin">
    <use xlink:href="#rim" fill="#404040"><set attributeName="fill" to="#808080" begin="zoomminus.mouseover" end="zoomminus.mouseout"/></use>
    <path d="M-4,0h8" fill="none" stroke="white" stroke-width="1.5" pointer-events="none"/>
  </g>
  <g id="arrowUp" transform="translate(30 24)">
    <use xlink:href="#rim"/>
    <path pointer-events="none" fill="none" stroke="white" stroke-width="1.5" d="M0,-3.0v7 M-2.5,-0.5L0,-3.0L2.5,-0.5"/>
  </g>
  <g id="arrowRight" transform="rotate(90) translate(36 -43)">
    <use xlink:href="#rim"/>
    <path pointer-events="none" fill="none" stroke="white" stroke-width="1.5" d="M0,-3.0v7 M-2.5,-0.5L0,-3.0L2.5,-0.5"/>
  </g>
  <g id="arrowDown" transform="rotate(180) translate(-30 -48)">
    <use xlink:href="#rim"/>
    <path pointer-events="none" fill="none" stroke="white" stroke-width="1.5" d="M0,-3.0v7 M-2.5,-0.5L0,-3.0L2.5,-0.5"/>
  </g>
  <g id="arrowLeft" transform="rotate(270) translate(-36 17)">
    <use xlink:href="#rim"/>
    <path pointer-events="none" fill="none" stroke="white" stroke-width="1.5" d="M0,-3.0v7 M-2.5,-0.5L0,-3.0L2.5,-0.5"/>
  </g>
  <g id="resetDef">
    <use xlink:href="#rim2" fill="#404040"><set attributeName="fill" to="#808080" begin="reset.mouseover" end="reset.mouseout"/></use>
  </g>
</defs>
<script type="application/ecmascript">
var viewWidth = 800;
var viewHeight = 125;
var sectionId = 'dynsection-24';
</script>
<script type="application/ecmascript" xlink:href="svg.min.js"/>
<svg id="graph" class="graph">
<g id="viewport">
<title>kest_sequence_stop</title>
<!-- Node1 -->
<g id="Node000001" class="node">
<title>Node1</title>
<g id="a_Node000001"><a xlink:title=" ">
<polygon fill="#999999" stroke="#666666" points="114.25,-84.12 0,-84.12 0,-63.38 114.25,-63.38 114.25,-84.12"/>
<text xml:space="preserve" text-anchor="middle" x="57.12" y="-70.62" font-family="Helvetica,sans-Serif" font-size="10.00">kest_sequence_stop</text>
</a>
</g>
</g>
<!-- Node2 -->
<g id="Node000002" class="node">
<title>Node2</title>
<g id="a_Node000002"><a xlink:href="kest__sequence_8c.html#abb62e308c5b4830b09a802084718cb2d" target="_top" xlink:title=" ">
<polygon fill="white" stroke="#666666" points="277.25,-116.5 150.25,-116.5 150.25,-83 277.25,-83 277.25,-116.5"/>
<text xml:space="preserve" text-anchor="start" x="158.25" y="-103" font-family="Helvetica,sans-Serif" font-size="10.00">kest_sequence_update</text>
<text xml:space="preserve" text-anchor="middle" x="213.75" y="-90.25" font-family="Helvetica,sans-Serif" font-size="10.00">_representations</text>
</a>
</g>
</g>
<!-- Node1&#45;&gt;Node2 -->
<g id="edge1_Node000001_Node000002" class="edge">
<title>Node1&#45;&gt;Node2</title>
<g id="a_edge1_Node000001_Node000002"><a xlink:title=" ">
<path fill="none" stroke="#63b8ff" d="M114.39,-83.21C122.34,-84.55 130.62,-85.94 138.84,-87.32"/>
<polygon fill="#63b8ff" stroke="#63b8ff" points="138.06,-90.74 148.5,-88.95 139.22,-83.84 138.06,-90.74"/>
</a>
</g>
</g>
<!-- Node4 -->
<g id="Node000004" class="node">
<title>Node4</title>
<g id="a_Node000004"><a xlink:href="kest__context_8c.html#a46a337c8aa1724024c73026c74d90a39" target="_top" xlink:title=" ">
<polygon fill="white" stroke="#666666" points="265.25,-64.5 162.25,-64.5 162.25,-31 265.25,-31 265.25,-64.5"/>
<text xml:space="preserve" text-anchor="start" x="170.25" y="-51" font-family="Helvetica,sans-Serif" font-size="10.00">set_active_profile</text>
<text xml:space="preserve" text-anchor="middle" x="213.75" y="-38.25" font-family="Helvetica,sans-Serif" font-size="10.00">_from_sequence</text>
</a>
</g>
</g>
<!-- Node1&#45;&gt;Node4 -->
<g id="edge3_Node000001_Node000004" class="edge">
<title>Node1&#45;&gt;Node4</title>
<g id="a_edge3_Node000001_Node000004"><a xlink:title=" ">
<path fill="none" stroke="#63b8ff" d="M114.39,-64.29C126.16,-62.31 138.65,-60.21 150.63,-58.2"/>
<polygon fill="#63b8ff" stroke="#63b8ff" points="151.14,-61.66 160.42,-56.55 149.98,-54.76 151.14,-61.66"/>
</a>
</g>
</g>
<!-- Node3 -->
<g id="Node000003" class="node">
<title>Node3</title>
<g id="a_Node000003"><a xlink:href="kest__representation_8c.html#a7a4a0f32b72f47d90e3d0f5932fbe58f" target="_top" xlink:title=" ">
<polygon fill="white" stroke="#666666" points="791.75,-74.5 669.25,-74.5 669.25,-41 791.75,-41 791.75,-74.5"/>
<text xml:space="preserve" text-anchor="start" x="677.25" y="-61" font-family="Helvetica,sans-Serif" font-size="10.00">queue_representation</text>
<text xml:space="preserve" text-anchor="middle" x="730.5" y="-48.25" font-family="Helvetica,sans-Serif" font-size="10.00">_list_update</text>
</a>
</g>
</g>
<!-- Node2&#45;&gt;Node3 -->
<g id="edge2_Node000002_Node000003" class="edge">
<title>Node2&#45;&gt;Node3</title>
<g id="a_edge2_Node000002_Node000003"><a xlink:title=" ">
<path fill="none" stroke="#63b8ff" d="M277.49,-100.58C359.63,-100.84 507.94,-98.41 633.25,-80.75 641.26,-79.62 649.58,-78.13 657.83,-76.45"/>
<polygon fill="#63b8ff" stroke="#63b8ff" points="658.47,-79.89 667.51,-74.37 657,-73.04 658.47,-79.89"/>
</a>
</g>
</g>
<!-- Node5 -->
<g id="Node000005" class="node">
<title>Node5</title>
<g id="a_Node000005"><a xlink:href="kest__profile_8c.html#a9103db076a4ce8ae9b06c8e30480cbe3" target="_top" xlink:title=" ">
<polygon fill="white" stroke="#666666" points="446.25,-66.12 317.75,-66.12 317.75,-45.38 446.25,-45.38 446.25,-66.12"/>
<text xml:space="preserve" text-anchor="middle" x="382" y="-52.62" font-family="Helvetica,sans-Serif" font-size="10.00">kest_profile_set_active</text>
</a>
</g>
</g>
<!-- Node4&#45;&gt;Node5 -->
<g id="edge4_Node000004_Node000005" class="edge">
<title>Node4&#45;&gt;Node5</title>
<g id="a_edge4_Node000004_Node000005"><a xlink:title=" ">
<path fill="none" stroke="#63b8ff" d="M265.53,-50.19C278.29,-50.81 292.25,-51.48 305.92,-52.14"/>
<polygon fill="#63b8ff" stroke="#63b8ff" points="305.63,-55.63 315.79,-52.61 305.97,-48.64 305.63,-55.63"/>
</a>
</g>
</g>
<!-- Node40 -->
<g id="Node000040" class="node">
<title>Node40</title>
<g id="a_Node000040"><a xlink:href="kest__profile_8c.html#a9485112eae167967c5ffd2a1c5018df1" target="_top" xlink:title=" ">
<polygon fill="white" stroke="#666666" points="450.75,-27.12 313.25,-27.12 313.25,-6.38 450.75,-6.38 450.75,-27.12"/>
<text xml:space="preserve" text-anchor="middle" x="382" y="-13.62" font-family="Helvetica,sans-Serif" font-size="10.00">kest_profile_set_inactive</text>
</a>
</g>
</g>
<!-- Node4&#45;&gt;Node40 -->
<g id="edge8_Node000004_Node000040" class="edge">
<title>Node4&#45;&gt;Node40</title>
<g id="a_edge8_Node000004_Node000040"><a xlink:title=" ">
<path fill="none" stroke="#63b8ff" d="M265.53,-38.28C280.13,-35.56 296.31,-32.54 311.82,-29.65"/>
<polygon fill="#63b8ff" stroke="#63b8ff" points="312.29,-33.12 321.48,-27.85 311,-26.24 312.29,-33.12"/>
</a>
</g>
</g>
<!-- Node6 -->
<g id="Node000006" class="node">
<title>Node6</title>
<g id="a_Node000006"><a xlink:href="kest__profile_8c.html#a23cd63c025729fe28dbd76f64ce43f0d" target="_top" xlink:title=" ">
<polygon fill="#fff0f0" stroke="red" points="633.25,-72.12 486.75,-72.12 486.75,-51.38 633.25,-51.38 633.25,-72.12"/>
<text xml:space="preserve" text-anchor="middle" x="560" y="-58.62" font-family="Helvetica,sans-Serif" font-size="10.00">kest_profile_program_fpga</text>
</a>
</g>
</g>
<!-- Node5&#45;&gt;Node6 -->
<g id="edge5_Node000005_Node000006" class="edge">
<title>Node5&#45;&gt;Node6</title>
<g id="a_edge5_Node000005_Node000006"><a xlink:title=" ">
<path fill="none" stroke="#63b8ff" d="M446.54,-57.92C455.81,-58.23 465.48,-58.56 475.07,-58.89"/>
<polygon fill="#63b8ff" stroke="#63b8ff" points="474.66,-62.38 484.77,-59.22 474.9,-55.38 474.66,-62.38"/>
</a>
</g>
</g>
<!-- Node39 -->
<g id="Node000039" class="node">
<title>Node39</title>
<g id="a_Node000039"><a xlink:href="kest__profile_8c.html#a8b1594e9e88b6298e1ce4d93641b1e4d" target="_top" xlink:title=" ">
<polygon fill="white" stroke="#666666" points="616,-33.5 504,-33.5 504,0 616,0 616,-33.5"/>
<text xml:space="preserve" text-anchor="start" x="512" y="-20" font-family="Helvetica,sans-Serif" font-size="10.00">kest_profile_update</text>
<text xml:space="preserve" text-anchor="middle" x="560" y="-7.25" font-family="Helvetica,sans-Serif" font-size="10.00">_representations</text>
</a>
</g>
</g>
<!-- Node5&#45;&gt;Node39 -->
<g id="edge6_Node000005_Node000039" class="edge">
<title>Node5&#45;&gt;Node39</title>
<g id="a_edge6_Node000005_Node000039"><a xlink:title=" ">
<path fill="none" stroke="#63b8ff" d="M432.03,-44.89C450.82,-40.72 472.59,-35.9 492.73,-31.43"/>
<polygon fill="#63b8ff" stroke="#63b8ff" points="493.25,-34.91 502.25,-29.32 491.73,-28.07 493.25,-34.91"/>
</a>
</g>
</g>
<!-- Node39&#45;&gt;Node3 -->
<g id="edge7_Node000039_Node000003" class="edge">
<title>Node39&#45;&gt;Node3</title>
<g id="a_edge7_Node000039_Node000003"><a xlink:title=" ">
<path fill="none" stroke="#63b8ff" d="M616.17,-30.17C629.5,-33.42 643.94,-36.93 657.9,-40.33"/>
<polygon fill="#63b8ff" stroke="#63b8ff" points="656.95,-43.7 667.49,-42.66 658.61,-36.9 656.95,-43.7"/>
</a>
</g>
</g>
<!-- Node40&#45;&gt;Node39 -->
<g id="edge9_Node000040_Node000039" class="edge">
<title>Node40&#45;&gt;Node39</title>
<g id="a_edge9_Node000040_Node000039"><a xlink:title=" ">
<path fill="none" stroke="#63b8ff" d="M451.05,-16.75C464.65,-16.75 478.92,-16.75 492.47,-16.75"/>
<polygon fill="#63b8ff" stroke="#63b8ff" points="492.14,-20.25 502.14,-16.75 492.14,-13.25 492.14,-20.25"/>
</a>
</g>
</g>
</g>
</svg>

<g id="navigator" transform="translate(0 0)" fill="#404254">
  <rect fill="#f2f5e9" fill-opacity="0.5" stroke="#606060" stroke-width=".5" x="0" y="0" width="60" height="60"/>
  <use id="zoomplus" xlink:href="#zoomPlus" x="17" y="9" onmousedown="handleZoom(evt,'in')"/>
  <use id="zoomminus" xlink:href="#zoomMin" x="42" y="9" onmousedown="handleZoom(evt,'out')"/>
  <use id="reset" xlink:href="#resetDef" x="30" y="36" onmousedown="handleReset()"/>
   <use id="arrowup" xlink:href="#arrowUp" x="0" y="0" onmousedown="handlePan(0,-1)"/>
  <use id="arrowright" xlink:href="#arrowRight" x="0" y="0" onmousedown="handlePan(1,0)"/>
  <use id="arrowdown" xlink:href="#arrowDown" x="0" y="0" onmousedown="handlePan(0,1)"/>
  <use id="arrowleft" xlink:href="#arrowLeft" x="0" y="0" onmousedown="handlePan(-1,0)"/>
</g>
<svg viewBox="0 0 15 15" width="100%" height="30px" preserveAspectRatio="xMaxYMin meet">
 <g id="arrow_out" transform="scale(0.3 0.3)">
  <a xlink:href="kest__sequence_8h_a3b2993ed35376e7c9a4fb0f4496b2757_cgraph_org.svg" target="_base">
   <rect id="button" ry="5" rx="5" y="6" x="6" height="38" width="38"
        fill="#f2f5e9" fill-opacity="0.5" stroke="#606060" stroke-width="1.0"/>
   <path id="arrow"
     d="M 11.500037,31.436501 C 11.940474,20.09759 22.043105,11.32322 32.158766,21.979434 L 37.068811,17.246167 C 37.068811,17.246167 37.088388,32 37.088388,32 L 22.160133,31.978069 C 22.160133,31.978069 26.997745,27.140456 26.997745,27.140456 C 18.528582,18.264221 13.291696,25.230495 11.500037,31.436501 z"
     style="fill:#404040;"/>
  </a>
 </g>
</svg>

<style type='text/css'>
<![CDATA[
[data-mouse-over-selected='false'] { opacity: 0.7; }
[data-mouse-over-selected='true']  { opacity: 1.0; }
]]>
</style>
<script type="application/ecmascript"><![CDATA[
document.addEventListener('DOMContentLoaded', (event) => {
  highlightEdges();
  highlightAdjacentNodes();
});
]]></script>
</svg>
