<?xml version="1.0" encoding="UTF-8" standalone="no"?>
<!DOCTYPE svg PUBLIC "-//W3C//DTD SVG 1.1//EN"
 "http://www.w3.org/Graphics/SVG/1.1/DTD/svg11.dtd">
<!-- Generated by graphviz version 13.1.2 (20250808.2320)
 -->
<!-- Title: init_distortion Pages: 1 -->
<!--zoomable 152 -->

<svg id="main" version="1.1" xmlns="http://www.w3.org/2000/svg" xmlns:xlink="http://www.w3.org/1999/xlink" xml:space="preserve" onload="init(evt)">

<style type="text/css"><![CDATA[
.node, .edge {opacity: 0.7;}
.node.selected, .edge.selected {opacity: 1;}
.edge:hover path { stroke: red; }
.edge:hover polygon { stroke: red; fill: red; }
]]></style>

<defs>
  <circle id="rim" cx="0" cy="0" r="7"/>
  <circle id="rim2" cx="0" cy="0" r="3.5"/>
  <g id="zoomPlus">
    <use xlink:href="#rim" fill="#404040"><set attributeName="fill" to="#808080" begin="zoomplus.mouseover" end="zoomplus.mouseout"/></use>
    <path d="M-4,0h8M0,-4v8" fill="none" stroke="white" stroke-width="1.5" pointer-events="none"/>
  </g>
  <g id="zoomMin">
    <use xlink:href="#rim" fill="#404040"><set attributeName="fill" to="#808080" begin="zoomminus.mouseover" end="zoomminus.mouseout"/></use>
    <path d="M-4,0h8" fill="none" stroke="white" stroke-width="1.5" pointer-events="none"/>
  </g>
  <g id="arrowUp" transform="translate(30 24)">
    <use xlink:href="#rim"/>
    <path pointer-events="none" fill="none" stroke="white" stroke-width="1.5" d="M0,-3.0v7 M-2.5,-0.5L0,-3.0L2.5,-0.5"/>
  </g>
  <g id="arrowRight" transform="rotate(90) translate(36 -43)">
    <use xlink:href="#rim"/>
    <path pointer-events="none" fill="none" stroke="white" stroke-width="1.5" d="M0,-3.0v7 M-2.5,-0.5L0,-3.0L2.5,-0.5"/>
  </g>
  <g id="arrowDown" transform="rotate(180) translate(-30 -48)">
    <use xlink:href="#rim"/>
    <path pointer-events="none" fill="none" stroke="white" stroke-width="1.5" d="M0,-3.0v7 M-2.5,-0.5L0,-3.0L2.5,-0.5"/>
  </g>
  <g id="arrowLeft" transform="rotate(270) translate(-36 17)">
    <use xlink:href="#rim"/>
    <path pointer-events="none" fill="none" stroke="white" stroke-width="1.5" d="M0,-3.0v7 M-2.5,-0.5L0,-3.0L2.5,-0.5"/>
  </g>
  <g id="resetDef">
    <use xlink:href="#rim2" fill="#404040"><set attributeName="fill" to="#808080" begin="reset.mouseover" end="reset.mouseout"/></use>
  </g>
</defs>
<script type="application/ecmascript">
var viewWidth = 556;
var viewHeight = 152;
var sectionId = 'dynsection-12';
</script>
<script type="application/ecmascript" xlink:href="svg.min.js"/>
<svg id="graph" class="graph">
<g id="viewport">
<title>init_distortion</title>
<!-- Node1 -->
<g id="Node000001" class="node">
<title>Node1</title>
<g id="a_Node000001"><a xlink:title=" ">
<polygon fill="#999999" stroke="#666666" points="83.5,-59.75 0,-59.75 0,-39 83.5,-39 83.5,-59.75"/>
<text xml:space="preserve" text-anchor="middle" x="41.75" y="-46.25" font-family="Helvetica,sans-Serif" font-size="10.00">init_distortion</text>
</a>
</g>
</g>
<!-- Node2 -->
<g id="Node000002" class="node">
<title>Node2</title>
<g id="a_Node000002"><a xlink:href="kest__effect_8c.html#a8dc8fceab7f835d960ea95e4f21fe327" target="_top" xlink:title=" ">
<polygon fill="white" stroke="#666666" points="243.5,-98.75 119.5,-98.75 119.5,-78 243.5,-78 243.5,-98.75"/>
<text xml:space="preserve" text-anchor="middle" x="181.5" y="-85.25" font-family="Helvetica,sans-Serif" font-size="10.00">effect_add_parameter</text>
</a>
</g>
</g>
<!-- Node1&#45;&gt;Node2 -->
<g id="edge1_Node000001_Node000002" class="edge">
<title>Node1&#45;&gt;Node2</title>
<g id="a_edge1_Node000001_Node000002"><a xlink:title=" ">
<path fill="none" stroke="#63b8ff" d="M81.12,-60.24C96.79,-64.68 115.11,-69.86 131.71,-74.56"/>
<polygon fill="#63b8ff" stroke="#63b8ff" points="130.3,-77.8 140.88,-77.16 132.21,-71.07 130.3,-77.8"/>
</a>
</g>
</g>
<!-- Node7 -->
<g id="Node000007" class="node">
<title>Node7</title>
<g id="a_Node000007"><a xlink:href="kest__alloc_8c.html#a849755c5dc5b35e712ffcdb602e50fb4" target="_top" xlink:title=" ">
<polygon fill="white" stroke="#666666" points="364.88,-20.75 300.12,-20.75 300.12,0 364.88,0 364.88,-20.75"/>
<text xml:space="preserve" text-anchor="middle" x="332.5" y="-7.25" font-family="Helvetica,sans-Serif" font-size="10.00">kest_alloc</text>
</a>
</g>
</g>
<!-- Node1&#45;&gt;Node7 -->
<g id="edge11_Node000001_Node000007" class="edge">
<title>Node1&#45;&gt;Node7</title>
<g id="a_edge11_Node000001_Node000007"><a xlink:title=" ">
<path fill="none" stroke="#63b8ff" d="M81.56,-38.58C93.64,-35.54 107.05,-32.49 119.5,-30.38 177.47,-20.52 245.24,-15.19 288.25,-12.57"/>
<polygon fill="#63b8ff" stroke="#63b8ff" points="288.41,-16.07 298.19,-11.99 288,-9.08 288.41,-16.07"/>
</a>
</g>
</g>
<!-- Node9 -->
<g id="Node000009" class="node">
<title>Node9</title>
<g id="a_Node000009"><a xlink:href="kest__effect_8c.html#abf12c30daf8ca1ac113eca5f22723cf7" target="_top" xlink:title=" ">
<polygon fill="white" stroke="#666666" points="234.88,-59.75 128.12,-59.75 128.12,-39 234.88,-39 234.88,-59.75"/>
<text xml:space="preserve" text-anchor="middle" x="181.5" y="-46.25" font-family="Helvetica,sans-Serif" font-size="10.00">effect_add_setting</text>
</a>
</g>
</g>
<!-- Node1&#45;&gt;Node9 -->
<g id="edge6_Node000001_Node000009" class="edge">
<title>Node1&#45;&gt;Node9</title>
<g id="a_edge6_Node000001_Node000009"><a xlink:title=" ">
<path fill="none" stroke="#63b8ff" d="M83.71,-49.38C93.95,-49.38 105.18,-49.38 116.25,-49.38"/>
<polygon fill="#63b8ff" stroke="#63b8ff" points="116.17,-52.88 126.17,-49.38 116.17,-45.88 116.17,-52.88"/>
</a>
</g>
</g>
<!-- Node3 -->
<g id="Node000003" class="node">
<title>Node3</title>
<g id="a_Node000003"><a xlink:href="kest__parameter_8c.html#a41fafa04c21a8ab5916a8ceb5442d99a" target="_top" xlink:title=" ">
<polygon fill="white" stroke="#666666" points="385.5,-137.75 279.5,-137.75 279.5,-117 385.5,-117 385.5,-137.75"/>
<text xml:space="preserve" text-anchor="middle" x="332.5" y="-124.25" font-family="Helvetica,sans-Serif" font-size="10.00">init_parameter_str</text>
</a>
</g>
</g>
<!-- Node2&#45;&gt;Node3 -->
<g id="edge2_Node000002_Node000003" class="edge">
<title>Node2&#45;&gt;Node3</title>
<g id="a_edge2_Node000002_Node000003"><a xlink:title=" ">
<path fill="none" stroke="#63b8ff" d="M224,-99.24C241.05,-103.7 260.98,-108.92 279.02,-113.64"/>
<polygon fill="#63b8ff" stroke="#63b8ff" points="277.94,-116.97 288.5,-116.12 279.71,-110.2 277.94,-116.97"/>
</a>
</g>
</g>
<!-- Node2&#45;&gt;Node7 -->
<g id="edge4_Node000002_Node000007" class="edge">
<title>Node2&#45;&gt;Node7</title>
<g id="a_edge4_Node000002_Node000007"><a xlink:title=" ">
<path fill="none" stroke="#63b8ff" d="M224.76,-77.57C231.29,-75.05 237.76,-72.01 243.5,-68.38 263.15,-55.93 260.17,-43.31 279.5,-30.38 282.59,-28.3 285.93,-26.4 289.38,-24.67"/>
<polygon fill="#63b8ff" stroke="#63b8ff" points="290.79,-27.87 298.48,-20.58 287.92,-21.48 290.79,-27.87"/>
</a>
</g>
</g>
<!-- Node8 -->
<g id="Node000008" class="node">
<title>Node8</title>
<g id="a_Node000008"><a xlink:href="kest__alloc_8c.html#a294af5728a94aa316fcf65304d388d48" target="_top" xlink:title=" ">
<polygon fill="white" stroke="#666666" points="363,-98.75 302,-98.75 302,-78 363,-78 363,-98.75"/>
<text xml:space="preserve" text-anchor="middle" x="332.5" y="-85.25" font-family="Helvetica,sans-Serif" font-size="10.00">kest_free</text>
</a>
</g>
</g>
<!-- Node2&#45;&gt;Node8 -->
<g id="edge5_Node000002_Node000008" class="edge">
<title>Node2&#45;&gt;Node8</title>
<g id="a_edge5_Node000002_Node000008"><a xlink:title=" ">
<path fill="none" stroke="#63b8ff" d="M243.96,-88.38C259.5,-88.38 275.81,-88.38 290.09,-88.38"/>
<polygon fill="#63b8ff" stroke="#63b8ff" points="290.02,-91.88 300.02,-88.38 290.02,-84.88 290.02,-91.88"/>
</a>
</g>
</g>
<!-- Node4 -->
<g id="Node000004" class="node">
<title>Node4</title>
<g id="a_Node000004"><a xlink:href="kest__parameter_8c.html#abff5b0dd3ed907207191aa6079c514eb" target="_top" xlink:title=" ">
<polygon fill="#fff0f0" stroke="red" points="547.75,-144.12 421.5,-144.12 421.5,-110.62 547.75,-110.62 547.75,-144.12"/>
<text xml:space="preserve" text-anchor="start" x="429.5" y="-130.62" font-family="Helvetica,sans-Serif" font-size="10.00">kest_parameter_effect</text>
<text xml:space="preserve" text-anchor="middle" x="484.62" y="-117.88" font-family="Helvetica,sans-Serif" font-size="10.00">_rep_update</text>
</a>
</g>
</g>
<!-- Node3&#45;&gt;Node4 -->
<g id="edge3_Node000003_Node000004" class="edge">
<title>Node3&#45;&gt;Node4</title>
<g id="a_edge3_Node000003_Node000004"><a xlink:title=" ">
<path fill="none" stroke="#63b8ff" d="M385.59,-127.38C393.36,-127.38 401.49,-127.38 409.61,-127.38"/>
<polygon fill="#63b8ff" stroke="#63b8ff" points="409.52,-130.88 419.52,-127.38 409.52,-123.88 409.52,-130.88"/>
</a>
</g>
</g>
<!-- Node9&#45;&gt;Node7 -->
<g id="edge9_Node000009_Node000007" class="edge">
<title>Node9&#45;&gt;Node7</title>
<g id="a_edge9_Node000009_Node000007"><a xlink:title=" ">
<path fill="none" stroke="#63b8ff" d="M224,-38.51C244.2,-33.22 268.46,-26.88 288.81,-21.55"/>
<polygon fill="#63b8ff" stroke="#63b8ff" points="289.41,-25.01 298.2,-19.09 287.64,-18.24 289.41,-25.01"/>
</a>
</g>
</g>
<!-- Node9&#45;&gt;Node8 -->
<g id="edge10_Node000009_Node000008" class="edge">
<title>Node9&#45;&gt;Node8</title>
<g id="a_edge10_Node000009_Node000008"><a xlink:title=" ">
<path fill="none" stroke="#63b8ff" d="M224,-60.24C244.78,-65.68 269.85,-72.24 290.56,-77.66"/>
<polygon fill="#63b8ff" stroke="#63b8ff" points="289.53,-81.01 300.09,-80.15 291.3,-74.23 289.53,-81.01"/>
</a>
</g>
</g>
<!-- Node10 -->
<g id="Node000010" class="node">
<title>Node10</title>
<g id="a_Node000010"><a xlink:href="kest__parameter_8c.html#a7c270a293ab879d0d3e757625c7c7dda" target="_top" xlink:title=" ">
<polygon fill="white" stroke="#666666" points="376.88,-59.75 288.12,-59.75 288.12,-39 376.88,-39 376.88,-59.75"/>
<text xml:space="preserve" text-anchor="middle" x="332.5" y="-46.25" font-family="Helvetica,sans-Serif" font-size="10.00">init_setting_str</text>
</a>
</g>
</g>
<!-- Node9&#45;&gt;Node10 -->
<g id="edge7_Node000009_Node000010" class="edge">
<title>Node9&#45;&gt;Node10</title>
<g id="a_edge7_Node000009_Node000010"><a xlink:title=" ">
<path fill="none" stroke="#63b8ff" d="M235.03,-49.38C248.52,-49.38 263.05,-49.38 276.65,-49.38"/>
<polygon fill="#63b8ff" stroke="#63b8ff" points="276.3,-52.88 286.3,-49.38 276.3,-45.88 276.3,-52.88"/>
</a>
</g>
</g>
<!-- Node11 -->
<g id="Node000011" class="node">
<title>Node11</title>
<g id="a_Node000011"><a xlink:href="kest__parameter_8c.html#a3c9f839cffc5f0a9b0630682ce8e9b9c" target="_top" xlink:title=" ">
<polygon fill="#fff0f0" stroke="red" points="539.12,-66.12 430.12,-66.12 430.12,-32.62 539.12,-32.62 539.12,-66.12"/>
<text xml:space="preserve" text-anchor="start" x="438.12" y="-52.62" font-family="Helvetica,sans-Serif" font-size="10.00">kest_setting_effect</text>
<text xml:space="preserve" text-anchor="middle" x="484.62" y="-39.88" font-family="Helvetica,sans-Serif" font-size="10.00">_rep_update</text>
</a>
</g>
</g>
<!-- Node10&#45;&gt;Node11 -->
<g id="edge8_Node000010_Node000011" class="edge">
<title>Node10&#45;&gt;Node11</title>
<g id="a_edge8_Node000010_Node000011"><a xlink:title=" ">
<path fill="none" stroke="#63b8ff" d="M377.33,-49.38C390.17,-49.38 404.5,-49.38 418.38,-49.38"/>
<polygon fill="#63b8ff" stroke="#63b8ff" points="418.38,-52.88 428.37,-49.38 418.37,-45.88 418.38,-52.88"/>
</a>
</g>
</g>
</g>
</svg>

<g id="navigator" transform="translate(0 0)" fill="#404254">
  <rect fill="#f2f5e9" fill-opacity="0.5" stroke="#606060" stroke-width=".5" x="0" y="0" width="60" height="60"/>
  <use id="zoomplus" xlink:href="#zoomPlus" x="17" y="9" onmousedown="handleZoom(evt,'in')"/>
  <use id="zoomminus" xlink:href="#zoomMin" x="42" y="9" onmousedown="handleZoom(evt,'out')"/>
  <use id="reset" xlink:href="#resetDef" x="30" y="36" onmousedown="handleReset()"/>
   <use id="arrowup" xlink:href="#arrowUp" x="0" y="0" onmousedown="handlePan(0,-1)"/>
  <use id="arrowright" xlink:href="#arrowRight" x="0" y="0" onmousedown="handlePan(1,0)"/>
  <use id="arrowdown" xlink:href="#arrowDown" x="0" y="0" onmousedown="handlePan(0,1)"/>
  <use id="arrowleft" xlink:href="#arrowLeft" x="0" y="0" onmousedown="handlePan(-1,0)"/>
</g>
<svg viewBox="0 0 15 15" width="100%" height="30px" preserveAspectRatio="xMaxYMin meet">
 <g id="arrow_out" transform="scale(0.3 0.3)">
  <a xlink:href="kest__effect__init_8c_a0f451be3cf3928f3611cdcc17c4f2623_cgraph_org.svg" target="_base">
   <rect id="button" ry="5" rx="5" y="6" x="6" height="38" width="38"
        fill="#f2f5e9" fill-opacity="0.5" stroke="#606060" stroke-width="1.0"/>
   <path id="arrow"
     d="M 11.500037,31.436501 C 11.940474,20.09759 22.043105,11.32322 32.158766,21.979434 L 37.068811,17.246167 C 37.068811,17.246167 37.088388,32 37.088388,32 L 22.160133,31.978069 C 22.160133,31.978069 26.997745,27.140456 26.997745,27.140456 C 18.528582,18.264221 13.291696,25.230495 11.500037,31.436501 z"
     style="fill:#404040;"/>
  </a>
 </g>
</svg>

<style type='text/css'>
<![CDATA[
[data-mouse-over-selected='false'] { opacity: 0.7; }
[data-mouse-over-selected='true']  { opacity: 1.0; }
]]>
</style>
<script type="application/ecmascript"><![CDATA[
document.addEventListener('DOMContentLoaded', (event) => {
  highlightEdges();
  highlightAdjacentNodes();
});
]]></script>
</svg>
