<?xml version="1.0" encoding="UTF-8" standalone="no"?>
<!DOCTYPE svg PUBLIC "-//W3C//DTD SVG 1.1//EN"
 "http://www.w3.org/Graphics/SVG/1.1/DTD/svg11.dtd">
<!-- Generated by graphviz version 13.1.2 (20250808.2320)
 -->
<!-- Title: init_m_sequence Pages: 1 -->
<svg width="645pt" height="118pt"
 viewBox="0.00 0.00 645.00 118.00" xmlns="http://www.w3.org/2000/svg" xmlns:xlink="http://www.w3.org/1999/xlink">
<g id="graph0" class="graph" transform="scale(1 1) rotate(0) translate(4 114.12)">
<title>init_m_sequence</title>
<!-- Node1 -->
<g id="Node000001" class="node">
<title>Node1</title>
<g id="a_Node000001"><a xlink:title=" ">
<polygon fill="#999999" stroke="#666666" points="637,-72.12 538.5,-72.12 538.5,-51.38 637,-51.38 637,-72.12"/>
<text xml:space="preserve" text-anchor="middle" x="587.75" y="-58.62" font-family="Helvetica,sans-Serif" font-size="10.00">init_m_sequence</text>
</a>
</g>
</g>
<!-- Node2 -->
<g id="Node000002" class="node">
<title>Node2</title>
<g id="a_Node000002"><a xlink:href="kest__context_8c.html#ab67ff484aaa334c1425d4a580d645027" target="_top" xlink:title=" ">
<polygon fill="white" stroke="#666666" points="502.5,-110.12 334.25,-110.12 334.25,-89.38 502.5,-89.38 502.5,-110.12"/>
<text xml:space="preserve" text-anchor="middle" x="418.38" y="-96.62" font-family="Helvetica,sans-Serif" font-size="10.00">kest_context_add_sequence_rp</text>
</a>
</g>
</g>
<!-- Node1&#45;&gt;Node2 -->
<g id="edge1_Node000001_Node000002" class="edge">
<title>Node1&#45;&gt;Node2</title>
<g id="a_edge1_Node000001_Node000002"><a xlink:title=" ">
<path fill="none" stroke="#63b8ff" d="M528.07,-75.07C508.09,-79.61 486.02,-84.62 467.01,-88.94"/>
<polygon fill="#63b8ff" stroke="#63b8ff" points="528.78,-78.5 537.76,-72.87 527.23,-71.67 528.78,-78.5"/>
</a>
</g>
</g>
<!-- Node11 -->
<g id="Node000011" class="node">
<title>Node11</title>
<g id="a_Node000011"><a xlink:href="kest__context_8c.html#ac93ad47b7b693a17e3416824b4c416ad" target="_top" xlink:title=" ">
<polygon fill="white" stroke="#666666" points="483,-33.5 353.75,-33.5 353.75,0 483,0 483,-33.5"/>
<text xml:space="preserve" text-anchor="start" x="361.75" y="-20" font-family="Helvetica,sans-Serif" font-size="10.00">kest_context_init_main</text>
<text xml:space="preserve" text-anchor="middle" x="418.38" y="-7.25" font-family="Helvetica,sans-Serif" font-size="10.00">_sequence</text>
</a>
</g>
</g>
<!-- Node1&#45;&gt;Node11 -->
<g id="edge4_Node000001_Node000011" class="edge">
<title>Node1&#45;&gt;Node11</title>
<g id="a_edge4_Node000001_Node000011"><a xlink:title=" ">
<path fill="none" stroke="#63b8ff" d="M535.6,-48C519.11,-43.56 500.62,-38.59 483.32,-33.94"/>
<polygon fill="#63b8ff" stroke="#63b8ff" points="534.63,-51.36 545.2,-50.58 536.45,-44.6 534.63,-51.36"/>
</a>
</g>
</g>
<!-- Node13 -->
<g id="Node000013" class="node">
<title>Node13</title>
<g id="a_Node000013"><a xlink:href="kest__files_8c.html#a2b0f0df900e064b3a42198050e150084" target="_top" xlink:title=" ">
<polygon fill="white" stroke="#666666" points="298.25,-69.12 169.75,-69.12 169.75,-48.38 298.25,-48.38 298.25,-69.12"/>
<text xml:space="preserve" text-anchor="middle" x="234" y="-55.62" font-family="Helvetica,sans-Serif" font-size="10.00">load_saved_sequences</text>
</a>
</g>
</g>
<!-- Node1&#45;&gt;Node13 -->
<g id="edge8_Node000001_Node000013" class="edge">
<title>Node1&#45;&gt;Node13</title>
<g id="a_edge8_Node000001_Node000013"><a xlink:title=" ">
<path fill="none" stroke="#63b8ff" d="M526.79,-61.24C463.26,-60.7 363.34,-59.84 298.5,-59.29"/>
<polygon fill="#63b8ff" stroke="#63b8ff" points="526.67,-64.74 536.7,-61.32 526.73,-57.74 526.67,-64.74"/>
</a>
</g>
</g>
<!-- Node3 -->
<g id="Node000003" class="node">
<title>Node3</title>
<g id="a_Node000003"><a xlink:href="kest__sequence__list_8c.html#ac9d222d7405758d9f4edfeabe4c6200e" target="_top" xlink:title=" ">
<polygon fill="white" stroke="#666666" points="295.25,-110.12 172.75,-110.12 172.75,-89.38 295.25,-89.38 295.25,-110.12"/>
<text xml:space="preserve" text-anchor="middle" x="234" y="-96.62" font-family="Helvetica,sans-Serif" font-size="10.00">sequence_list_add_cb</text>
</a>
</g>
</g>
<!-- Node2&#45;&gt;Node3 -->
<g id="edge2_Node000002_Node000003" class="edge">
<title>Node2&#45;&gt;Node3</title>
<g id="a_edge2_Node000002_Node000003"><a xlink:title=" ">
<path fill="none" stroke="#63b8ff" d="M322.68,-99.75C313.45,-99.75 304.27,-99.75 295.52,-99.75"/>
<polygon fill="#63b8ff" stroke="#63b8ff" points="322.41,-103.25 332.41,-99.75 322.41,-96.25 322.41,-103.25"/>
</a>
</g>
</g>
<!-- Node4 -->
<g id="Node000004" class="node">
<title>Node4</title>
<g id="a_Node000004"><a xlink:href="kest__sequence__list_8c.html#ae60870bb862edfc5b0a45344c20b152f" target="_top" xlink:title=" ">
<polygon fill="#fff0f0" stroke="red" points="133.75,-110.12 0,-110.12 0,-89.38 133.75,-89.38 133.75,-110.12"/>
<text xml:space="preserve" text-anchor="middle" x="66.88" y="-96.62" font-family="Helvetica,sans-Serif" font-size="10.00">configure_sequence_list</text>
</a>
</g>
</g>
<!-- Node3&#45;&gt;Node4 -->
<g id="edge3_Node000003_Node000004" class="edge">
<title>Node3&#45;&gt;Node4</title>
<g id="a_edge3_Node000003_Node000004"><a xlink:title=" ">
<path fill="none" stroke="#63b8ff" d="M161.14,-99.75C152.12,-99.75 142.92,-99.75 133.98,-99.75"/>
<polygon fill="#63b8ff" stroke="#63b8ff" points="160.94,-103.25 170.94,-99.75 160.94,-96.25 160.94,-103.25"/>
</a>
</g>
</g>
<!-- Node12 -->
<g id="Node000012" class="node">
<title>Node12</title>
<g id="a_Node000012"><a xlink:href="kest__context_8c.html#a8d785a89178c048ac11ee14f2a659993" target="_top" xlink:title=" ">
<polygon fill="white" stroke="#666666" points="283.62,-30.12 184.38,-30.12 184.38,-9.38 283.62,-9.38 283.62,-30.12"/>
<text xml:space="preserve" text-anchor="middle" x="234" y="-16.62" font-family="Helvetica,sans-Serif" font-size="10.00">kest_init_context</text>
</a>
</g>
</g>
<!-- Node11&#45;&gt;Node12 -->
<g id="edge5_Node000011_Node000012" class="edge">
<title>Node11&#45;&gt;Node12</title>
<g id="a_edge5_Node000011_Node000012"><a xlink:title=" ">
<path fill="none" stroke="#63b8ff" d="M341.95,-17.99C322.36,-18.31 301.78,-18.65 283.95,-18.94"/>
<polygon fill="#63b8ff" stroke="#63b8ff" points="341.88,-21.49 351.82,-17.83 341.76,-14.49 341.88,-21.49"/>
</a>
</g>
</g>
<!-- Node7 -->
<g id="Node000007" class="node">
<title>Node7</title>
<g id="a_Node000007"><a xlink:href="kest__int_8c.html#abce06be17fc37d675118a678a8100a36" target="_top" xlink:title=" ">
<polygon fill="white" stroke="#666666" points="98.88,-30.12 34.88,-30.12 34.88,-9.38 98.88,-9.38 98.88,-30.12"/>
<text xml:space="preserve" text-anchor="middle" x="66.88" y="-16.62" font-family="Helvetica,sans-Serif" font-size="10.00">app_main</text>
</a>
</g>
</g>
<!-- Node12&#45;&gt;Node7 -->
<g id="edge6_Node000012_Node000007" class="edge">
<title>Node12&#45;&gt;Node7</title>
<g id="a_edge6_Node000012_Node000007"><a xlink:title=" ">
<path fill="none" stroke="#63b8ff" d="M172.72,-19.75C147.85,-19.75 120.06,-19.75 99.35,-19.75"/>
<polygon fill="#63b8ff" stroke="#63b8ff" points="172.39,-23.25 182.39,-19.75 172.39,-16.25 172.39,-23.25"/>
</a>
</g>
</g>
<!-- Node8 -->
<g id="Node000008" class="node">
<title>Node8</title>
<g id="a_Node000008"><a xlink:href="kest__desktop_8c.html#ab499a4f71ef4cfc807b60d8739750c3e" target="_top" xlink:title=" ">
<polygon fill="#fff0f0" stroke="red" points="100.38,-69.12 33.38,-69.12 33.38,-48.38 100.38,-48.38 100.38,-69.12"/>
<text xml:space="preserve" text-anchor="middle" x="66.88" y="-55.62" font-family="Helvetica,sans-Serif" font-size="10.00">main_task</text>
</a>
</g>
</g>
<!-- Node12&#45;&gt;Node8 -->
<g id="edge7_Node000012_Node000008" class="edge">
<title>Node12&#45;&gt;Node8</title>
<g id="a_edge7_Node000012_Node000008"><a xlink:title=" ">
<path fill="none" stroke="#63b8ff" d="M176.11,-33.19C150.98,-39.12 122.32,-45.89 100.81,-50.97"/>
<polygon fill="#63b8ff" stroke="#63b8ff" points="176.6,-36.67 185.53,-30.96 174.99,-29.85 176.6,-36.67"/>
</a>
</g>
</g>
<!-- Node13&#45;&gt;Node7 -->
<g id="edge9_Node000013_Node000007" class="edge">
<title>Node13&#45;&gt;Node7</title>
<g id="a_edge9_Node000013_Node000007"><a xlink:title=" ">
<path fill="none" stroke="#63b8ff" d="M175.88,-45.26C150.2,-39.19 120.87,-32.27 99.27,-27.16"/>
<polygon fill="#63b8ff" stroke="#63b8ff" points="174.99,-48.65 185.53,-47.54 176.6,-41.83 174.99,-48.65"/>
</a>
</g>
</g>
<!-- Node13&#45;&gt;Node8 -->
<g id="edge10_Node000013_Node000008" class="edge">
<title>Node13&#45;&gt;Node8</title>
<g id="a_edge10_Node000013_Node000008"><a xlink:title=" ">
<path fill="none" stroke="#63b8ff" d="M158.22,-58.75C138.1,-58.75 117.36,-58.75 100.83,-58.75"/>
<polygon fill="#63b8ff" stroke="#63b8ff" points="158.12,-62.25 168.12,-58.75 158.12,-55.25 158.12,-62.25"/>
</a>
</g>
</g>
</g>
</svg>
