<?xml version="1.0" encoding="UTF-8" standalone="no"?>
<!DOCTYPE svg PUBLIC "-//W3C//DTD SVG 1.1//EN"
 "http://www.w3.org/Graphics/SVG/1.1/DTD/svg11.dtd">
<!-- Generated by graphviz version 13.1.2 (20250808.2320)
 -->
<!-- Title: kest_parse_asm_line Pages: 1 -->
<svg width="572pt" height="29pt"
 viewBox="0.00 0.00 572.00 29.00" xmlns="http://www.w3.org/2000/svg" xmlns:xlink="http://www.w3.org/1999/xlink">
<g id="graph0" class="graph" transform="scale(1 1) rotate(0) translate(4 24.75)">
<title>kest_parse_asm_line</title>
<!-- Node1 -->
<g id="Node000001" class="node">
<title>Node1</title>
<g id="a_Node000001"><a xlink:title=" ">
<polygon fill="#999999" stroke="#666666" points="564.25,-20.75 446.25,-20.75 446.25,0 564.25,0 564.25,-20.75"/>
<text xml:space="preserve" text-anchor="middle" x="505.25" y="-7.25" font-family="Helvetica,sans-Serif" font-size="10.00">kest_parse_asm_line</text>
</a>
</g>
</g>
<!-- Node2 -->
<g id="Node000002" class="node">
<title>Node2</title>
<g id="a_Node000002"><a xlink:href="kest__asm__parser_8c.html#a1b7e03dd7589f652dec13b4b2c6d0a5c" target="_top" xlink:title=" ">
<polygon fill="white" stroke="#666666" points="410.25,-20.75 315.5,-20.75 315.5,0 410.25,0 410.25,-20.75"/>
<text xml:space="preserve" text-anchor="middle" x="362.88" y="-7.25" font-family="Helvetica,sans-Serif" font-size="10.00">kest_parse_asm</text>
</a>
</g>
</g>
<!-- Node1&#45;&gt;Node2 -->
<g id="edge1_Node000001_Node000002" class="edge">
<title>Node1&#45;&gt;Node2</title>
<g id="a_edge1_Node000001_Node000002"><a xlink:title=" ">
<path fill="none" stroke="#63b8ff" d="M434.55,-10.38C426.46,-10.38 418.36,-10.38 410.68,-10.38"/>
<polygon fill="#63b8ff" stroke="#63b8ff" points="434.42,-13.88 444.42,-10.38 434.42,-6.88 434.42,-13.88"/>
</a>
</g>
</g>
<!-- Node3 -->
<g id="Node000003" class="node">
<title>Node3</title>
<g id="a_Node000003"><a xlink:href="kest__eff__section_8c.html#a992e0c66572f5ffabca2203a018ea97c" target="_top" xlink:title=" ">
<polygon fill="white" stroke="#666666" points="279.5,-20.75 142,-20.75 142,0 279.5,0 279.5,-20.75"/>
<text xml:space="preserve" text-anchor="middle" x="210.75" y="-7.25" font-family="Helvetica,sans-Serif" font-size="10.00">kest_parse_code_section</text>
</a>
</g>
</g>
<!-- Node2&#45;&gt;Node3 -->
<g id="edge2_Node000002_Node000003" class="edge">
<title>Node2&#45;&gt;Node3</title>
<g id="a_edge2_Node000002_Node000003"><a xlink:title=" ">
<path fill="none" stroke="#63b8ff" d="M303.91,-10.38C296.04,-10.38 287.91,-10.38 279.89,-10.38"/>
<polygon fill="#63b8ff" stroke="#63b8ff" points="303.68,-13.88 313.68,-10.38 303.68,-6.88 303.68,-13.88"/>
</a>
</g>
</g>
<!-- Node4 -->
<g id="Node000004" class="node">
<title>Node4</title>
<g id="a_Node000004"><a xlink:href="kest__eff__parser_8c.html#a73ef6962d1925857ec3e4b12d1aad834" target="_top" xlink:title=" ">
<polygon fill="#fff0f0" stroke="red" points="106,-20.75 0,-20.75 0,0 106,0 106,-20.75"/>
<text xml:space="preserve" text-anchor="middle" x="53" y="-7.25" font-family="Helvetica,sans-Serif" font-size="10.00">kest_parse_tokens</text>
</a>
</g>
</g>
<!-- Node3&#45;&gt;Node4 -->
<g id="edge3_Node000003_Node000004" class="edge">
<title>Node3&#45;&gt;Node4</title>
<g id="a_edge3_Node000003_Node000004"><a xlink:title=" ">
<path fill="none" stroke="#63b8ff" d="M130.61,-10.38C122.32,-10.38 114.05,-10.38 106.18,-10.38"/>
<polygon fill="#63b8ff" stroke="#63b8ff" points="130.38,-13.88 140.38,-10.38 130.38,-6.88 130.38,-13.88"/>
</a>
</g>
</g>
</g>
</svg>
