<?xml version="1.0" encoding="UTF-8" standalone="no"?>
<!DOCTYPE svg PUBLIC "-//W3C//DTD SVG 1.1//EN"
 "http://www.w3.org/Graphics/SVG/1.1/DTD/svg11.dtd">
<!-- Generated by graphviz version 13.1.2 (20250808.2320)
 -->
<!-- Title: parameter_widget_create_ui_no_callback Pages: 1 -->
<!--zoomable 265 -->

<svg id="main" version="1.1" xmlns="http://www.w3.org/2000/svg" xmlns:xlink="http://www.w3.org/1999/xlink" xml:space="preserve" onload="init(evt)">

<style type="text/css"><![CDATA[
.node, .edge {opacity: 0.7;}
.node.selected, .edge.selected {opacity: 1;}
.edge:hover path { stroke: red; }
.edge:hover polygon { stroke: red; fill: red; }
]]></style>

<defs>
  <circle id="rim" cx="0" cy="0" r="7"/>
  <circle id="rim2" cx="0" cy="0" r="3.5"/>
  <g id="zoomPlus">
    <use xlink:href="#rim" fill="#404040"><set attributeName="fill" to="#808080" begin="zoomplus.mouseover" end="zoomplus.mouseout"/></use>
    <path d="M-4,0h8M0,-4v8" fill="none" stroke="white" stroke-width="1.5" pointer-events="none"/>
  </g>
  <g id="zoomMin">
    <use xlink:href="#rim" fill="#404040"><set attributeName="fill" to="#808080" begin="zoomminus.mouseover" end="zoomminus.mouseout"/></use>
    <path d="M-4,0h8" fill="none" stroke="white" stroke-width="1.5" pointer-events="none"/>
  </g>
  <g id="arrowUp" transform="translate(30 24)">
    <use xlink:href="#rim"/>
    <path pointer-events="none" fill="none" stroke="white" stroke-width="1.5" d="M0,-3.0v7 M-2.5,-0.5L0,-3.0L2.5,-0.5"/>
  </g>
  <g id="arrowRight" transform="rotate(90) translate(36 -43)">
    <use xlink:href="#rim"/>
    <path pointer-events="none" fill="none" stroke="white" stroke-width="1.5" d="M0,-3.0v7 M-2.5,-0.5L0,-3.0L2.5,-0.5"/>
  </g>
  <g id="arrowDown" transform="rotate(180) translate(-30 -48)">
    <use xlink:href="#rim"/>
    <path pointer-events="none" fill="none" stroke="white" stroke-width="1.5" d="M0,-3.0v7 M-2.5,-0.5L0,-3.0L2.5,-0.5"/>
  </g>
  <g id="arrowLeft" transform="rotate(270) translate(-36 17)">
    <use xlink:href="#rim"/>
    <path pointer-events="none" fill="none" stroke="white" stroke-width="1.5" d="M0,-3.0v7 M-2.5,-0.5L0,-3.0L2.5,-0.5"/>
  </g>
  <g id="resetDef">
    <use xlink:href="#rim2" fill="#404040"><set attributeName="fill" to="#808080" begin="reset.mouseover" end="reset.mouseout"/></use>
  </g>
</defs>
<script type="application/ecmascript">
var viewWidth = 683;
var viewHeight = 265;
var sectionId = 'dynsection-20';
</script>
<script type="application/ecmascript" xlink:href="svg.min.js"/>
<svg id="graph" class="graph">
<g id="viewport">
<title>parameter_widget_create_ui_no_callback</title>
<!-- Node1 -->
<g id="Node000001" class="node">
<title>Node1</title>
<g id="a_Node000001"><a xlink:title=" ">
<polygon fill="#999999" stroke="#666666" points="674.5,-164.5 533.25,-164.5 533.25,-131 674.5,-131 674.5,-164.5"/>
<text xml:space="preserve" text-anchor="start" x="541.25" y="-151" font-family="Helvetica,sans-Serif" font-size="10.00">parameter_widget_create</text>
<text xml:space="preserve" text-anchor="middle" x="603.88" y="-138.25" font-family="Helvetica,sans-Serif" font-size="10.00">_ui_no_callback</text>
</a>
</g>
</g>
<!-- Node2 -->
<g id="Node000002" class="node">
<title>Node2</title>
<g id="a_Node000002"><a xlink:href="kest__menu_8c.html#aa44b42640611d3ca75f6b55206ebd08e" target="_top" xlink:title=" ">
<polygon fill="white" stroke="#666666" points="480.38,-200.12 358.62,-200.12 358.62,-179.38 480.38,-179.38 480.38,-200.12"/>
<text xml:space="preserve" text-anchor="middle" x="419.5" y="-186.62" font-family="Helvetica,sans-Serif" font-size="10.00">create_menu_item_ui</text>
</a>
</g>
</g>
<!-- Node1&#45;&gt;Node2 -->
<g id="edge1_Node000001_Node000002" class="edge">
<title>Node1&#45;&gt;Node2</title>
<g id="a_edge1_Node000001_Node000002"><a xlink:title=" ">
<path fill="none" stroke="#63b8ff" d="M521.73,-166.44C503.16,-170.71 484.02,-175.12 467.45,-178.94"/>
<polygon fill="#63b8ff" stroke="#63b8ff" points="522.45,-169.86 531.41,-164.21 520.88,-163.04 522.45,-169.86"/>
</a>
</g>
</g>
<!-- Node13 -->
<g id="Node000013" class="node">
<title>Node13</title>
<g id="a_Node000013"><a xlink:href="kest__parameter__widget_8c.html#adbadb9573fa4f9b812f8d270c78053e4" target="_top" xlink:title=" ">
<polygon fill="white" stroke="#666666" points="497.25,-117.12 341.75,-117.12 341.75,-96.38 497.25,-96.38 497.25,-117.12"/>
<text xml:space="preserve" text-anchor="middle" x="419.5" y="-103.62" font-family="Helvetica,sans-Serif" font-size="10.00">parameter_widget_create_ui</text>
</a>
</g>
</g>
<!-- Node1&#45;&gt;Node13 -->
<g id="edge7_Node000001_Node000013" class="edge">
<title>Node1&#45;&gt;Node13</title>
<g id="a_edge7_Node000001_Node000013"><a xlink:title=" ">
<path fill="none" stroke="#63b8ff" d="M521.73,-129.51C503.67,-125.45 485.07,-121.27 468.83,-117.61"/>
<polygon fill="#63b8ff" stroke="#63b8ff" points="520.88,-132.9 531.41,-131.68 522.42,-126.08 520.88,-132.9"/>
</a>
</g>
</g>
<!-- Node3 -->
<g id="Node000003" class="node">
<title>Node3</title>
<g id="a_Node000003"><a xlink:href="kest__menu_8c.html#a6775c89241a45f6fa04a6d8111139cb5" target="_top" xlink:title=" ">
<polygon fill="white" stroke="#666666" points="303.5,-239.12 180.25,-239.12 180.25,-218.38 303.5,-218.38 303.5,-239.12"/>
<text xml:space="preserve" text-anchor="middle" x="241.88" y="-225.62" font-family="Helvetica,sans-Serif" font-size="10.00">create_menu_page_ui</text>
</a>
</g>
</g>
<!-- Node2&#45;&gt;Node3 -->
<g id="edge2_Node000002_Node000003" class="edge">
<title>Node2&#45;&gt;Node3</title>
<g id="a_edge2_Node000002_Node000003"><a xlink:title=" ">
<path fill="none" stroke="#63b8ff" d="M358.48,-203.08C336.76,-207.9 312.5,-213.29 291.84,-217.88"/>
<polygon fill="#63b8ff" stroke="#63b8ff" points="359.1,-206.53 368.1,-200.94 357.58,-199.69 359.1,-206.53"/>
</a>
</g>
</g>
<!-- Node10 -->
<g id="Node000010" class="node">
<title>Node10</title>
<g id="a_Node000010"><a xlink:href="kest__sequence__list_8c.html#ac9d222d7405758d9f4edfeabe4c6200e" target="_top" xlink:title=" ">
<polygon fill="white" stroke="#666666" points="303.12,-200.12 180.62,-200.12 180.62,-179.38 303.12,-179.38 303.12,-200.12"/>
<text xml:space="preserve" text-anchor="middle" x="241.88" y="-186.62" font-family="Helvetica,sans-Serif" font-size="10.00">sequence_list_add_cb</text>
</a>
</g>
</g>
<!-- Node2&#45;&gt;Node10 -->
<g id="edge5_Node000002_Node000010" class="edge">
<title>Node2&#45;&gt;Node10</title>
<g id="a_edge5_Node000002_Node000010"><a xlink:title=" ">
<path fill="none" stroke="#63b8ff" d="M347.1,-189.75C332.62,-189.75 317.51,-189.75 303.45,-189.75"/>
<polygon fill="#63b8ff" stroke="#63b8ff" points="347.04,-193.25 357.04,-189.75 347.04,-186.25 347.04,-193.25"/>
</a>
</g>
</g>
<!-- Node3&#45;&gt;Node3 -->
<g id="edge3_Node000003_Node000003" class="edge">
<title>Node3&#45;&gt;Node3</title>
<g id="a_edge3_Node000003_Node000003"><a xlink:title=" ">
<path fill="none" stroke="#63b8ff" d="M271.94,-250.61C267.96,-254.45 257.94,-257.12 241.88,-257.12 212.51,-257.12 203.33,-248.18 214.34,-239.52"/>
<polygon fill="#63b8ff" stroke="#63b8ff" points="275.39,-249.97 269.75,-241 268.56,-251.53 275.39,-249.97"/>
</a>
</g>
</g>
<!-- Node4 -->
<g id="Node000004" class="node">
<title>Node4</title>
<g id="a_Node000004"><a xlink:href="kest__menu_8c.html#a9a3dc2a29ebf6ace0a6b54a902530001" target="_top" xlink:title=" ">
<polygon fill="#fff0f0" stroke="red" points="118,-239.12 24,-239.12 24,-218.38 118,-218.38 118,-239.12"/>
<text xml:space="preserve" text-anchor="middle" x="71" y="-225.62" font-family="Helvetica,sans-Serif" font-size="10.00">init_menu_page</text>
</a>
</g>
</g>
<!-- Node3&#45;&gt;Node4 -->
<g id="edge4_Node000003_Node000004" class="edge">
<title>Node3&#45;&gt;Node4</title>
<g id="a_edge4_Node000003_Node000004"><a xlink:title=" ">
<path fill="none" stroke="#63b8ff" d="M168.8,-228.75C151.69,-228.75 133.9,-228.75 118.3,-228.75"/>
<polygon fill="#63b8ff" stroke="#63b8ff" points="168.39,-232.25 178.39,-228.75 168.39,-225.25 168.39,-232.25"/>
</a>
</g>
</g>
<!-- Node11 -->
<g id="Node000011" class="node">
<title>Node11</title>
<g id="a_Node000011"><a xlink:href="kest__sequence__list_8c.html#ae60870bb862edfc5b0a45344c20b152f" target="_top" xlink:title=" ">
<polygon fill="#fff0f0" stroke="red" points="137.88,-200.12 4.12,-200.12 4.12,-179.38 137.88,-179.38 137.88,-200.12"/>
<text xml:space="preserve" text-anchor="middle" x="71" y="-186.62" font-family="Helvetica,sans-Serif" font-size="10.00">configure_sequence_list</text>
</a>
</g>
</g>
<!-- Node10&#45;&gt;Node11 -->
<g id="edge6_Node000010_Node000011" class="edge">
<title>Node10&#45;&gt;Node11</title>
<g id="a_edge6_Node000010_Node000011"><a xlink:title=" ">
<path fill="none" stroke="#63b8ff" d="M169.03,-189.75C158.86,-189.75 148.43,-189.75 138.37,-189.75"/>
<polygon fill="#63b8ff" stroke="#63b8ff" points="168.87,-193.25 178.87,-189.75 168.87,-186.25 168.87,-193.25"/>
</a>
</g>
</g>
<!-- Node14 -->
<g id="Node000014" class="node">
<title>Node14</title>
<g id="a_Node000014"><a xlink:href="kest__effect__settings_8c.html#ad39e071d5cf7cd7e4fc67d41f14d48e8" target="_top" xlink:title=" ">
<polygon fill="white" stroke="#666666" points="304.25,-123.5 179.5,-123.5 179.5,-90 304.25,-90 304.25,-123.5"/>
<text xml:space="preserve" text-anchor="start" x="187.5" y="-110" font-family="Helvetica,sans-Serif" font-size="10.00">create_effect_settings</text>
<text xml:space="preserve" text-anchor="middle" x="241.88" y="-97.25" font-family="Helvetica,sans-Serif" font-size="10.00">_page_ui</text>
</a>
</g>
</g>
<!-- Node13&#45;&gt;Node14 -->
<g id="edge8_Node000013_Node000014" class="edge">
<title>Node13&#45;&gt;Node14</title>
<g id="a_edge8_Node000013_Node000014"><a xlink:title=" ">
<path fill="none" stroke="#63b8ff" d="M330.13,-106.75C321.48,-106.75 312.84,-106.75 304.55,-106.75"/>
<polygon fill="#63b8ff" stroke="#63b8ff" points="329.95,-110.25 339.95,-106.75 329.95,-103.25 329.95,-110.25"/>
</a>
</g>
</g>
<!-- Node15 -->
<g id="Node000015" class="node">
<title>Node15</title>
<g id="a_Node000015"><a xlink:href="kest__effect__view_8c.html#a7d15ffb969bcf677cf4a1622e2666f8e" target="_top" xlink:title=" ">
<polygon fill="#fff0f0" stroke="red" points="132.62,-159.12 9.38,-159.12 9.38,-138.38 132.62,-138.38 132.62,-159.12"/>
<text xml:space="preserve" text-anchor="middle" x="71" y="-145.62" font-family="Helvetica,sans-Serif" font-size="10.00">create_effect_view_ui</text>
</a>
</g>
</g>
<!-- Node13&#45;&gt;Node15 -->
<g id="edge11_Node000013_Node000015" class="edge">
<title>Node13&#45;&gt;Node15</title>
<g id="a_edge11_Node000013_Node000015"><a xlink:title=" ">
<path fill="none" stroke="#63b8ff" d="M367.65,-120.28C348.39,-124.92 326.18,-129.71 305.75,-132.75 247.41,-141.42 180.17,-145.4 132.82,-147.22"/>
<polygon fill="#63b8ff" stroke="#63b8ff" points="368.27,-123.73 377.14,-117.93 366.6,-116.93 368.27,-123.73"/>
</a>
</g>
</g>
<!-- Node23 -->
<g id="Node000023" class="node">
<title>Node23</title>
<g id="a_Node000023"><a xlink:href="kest__menu_8c.html#ad08fcb7356b59af639c394da31d8f446" target="_top" xlink:title=" ">
<polygon fill="white" stroke="#666666" points="303.88,-72.12 179.88,-72.12 179.88,-51.38 303.88,-51.38 303.88,-72.12"/>
<text xml:space="preserve" text-anchor="middle" x="241.88" y="-58.62" font-family="Helvetica,sans-Serif" font-size="10.00">create_main_menu_ui</text>
</a>
</g>
</g>
<!-- Node13&#45;&gt;Node23 -->
<g id="edge12_Node000013_Node000023" class="edge">
<title>Node13&#45;&gt;Node23</title>
<g id="a_edge12_Node000013_Node000023"><a xlink:title=" ">
<path fill="none" stroke="#63b8ff" d="M365.38,-93.14C339.7,-86.56 309.3,-78.77 285.21,-72.6"/>
<polygon fill="#63b8ff" stroke="#63b8ff" points="364.41,-96.5 374.97,-95.6 366.15,-89.72 364.41,-96.5"/>
</a>
</g>
</g>
<!-- Node25 -->
<g id="Node000025" class="node">
<title>Node25</title>
<g id="a_Node000025"><a xlink:href="kest__profile__settings_8c.html#ab05371cb50924acc78762340a22cc585" target="_top" xlink:title=" ">
<polygon fill="white" stroke="#666666" points="305.75,-33.5 178,-33.5 178,0 305.75,0 305.75,-33.5"/>
<text xml:space="preserve" text-anchor="start" x="186" y="-20" font-family="Helvetica,sans-Serif" font-size="10.00">create_profile_settings</text>
<text xml:space="preserve" text-anchor="middle" x="241.88" y="-7.25" font-family="Helvetica,sans-Serif" font-size="10.00">_page_ui</text>
</a>
</g>
</g>
<!-- Node13&#45;&gt;Node25 -->
<g id="edge14_Node000013_Node000025" class="edge">
<title>Node13&#45;&gt;Node25</title>
<g id="a_edge14_Node000013_Node000025"><a xlink:title=" ">
<path fill="none" stroke="#63b8ff" d="M391.74,-90.31C369.21,-76.77 335.92,-57.48 305.75,-42.75 299.59,-39.74 293,-36.77 286.48,-33.96"/>
<polygon fill="#63b8ff" stroke="#63b8ff" points="389.62,-93.12 399.99,-95.3 393.25,-87.13 389.62,-93.12"/>
</a>
</g>
</g>
<!-- Node14&#45;&gt;Node15 -->
<g id="edge9_Node000014_Node000015" class="edge">
<title>Node14&#45;&gt;Node15</title>
<g id="a_edge9_Node000014_Node000015"><a xlink:title=" ">
<path fill="none" stroke="#63b8ff" d="M168.38,-124.78C150.44,-129.24 131.76,-133.89 115.68,-137.89"/>
<polygon fill="#63b8ff" stroke="#63b8ff" points="169.1,-128.21 177.96,-122.4 167.41,-121.41 169.1,-128.21"/>
</a>
</g>
</g>
<!-- Node22 -->
<g id="Node000022" class="node">
<title>Node22</title>
<g id="a_Node000022"><a xlink:href="kest__effect__settings_8c.html#ab8bf2accabc08beecb97a54915abc488" target="_top" xlink:title=" ">
<polygon fill="#fff0f0" stroke="red" points="140.5,-117.12 1.5,-117.12 1.5,-96.38 140.5,-96.38 140.5,-117.12"/>
<text xml:space="preserve" text-anchor="middle" x="71" y="-103.62" font-family="Helvetica,sans-Serif" font-size="10.00">init_effect_settings_page</text>
</a>
</g>
</g>
<!-- Node14&#45;&gt;Node22 -->
<g id="edge10_Node000014_Node000022" class="edge">
<title>Node14&#45;&gt;Node22</title>
<g id="a_edge10_Node000014_Node000022"><a xlink:title=" ">
<path fill="none" stroke="#63b8ff" d="M168.1,-106.75C159.05,-106.75 149.82,-106.75 140.83,-106.75"/>
<polygon fill="#63b8ff" stroke="#63b8ff" points="167.92,-110.25 177.92,-106.75 167.92,-103.25 167.92,-110.25"/>
</a>
</g>
</g>
<!-- Node24 -->
<g id="Node000024" class="node">
<title>Node24</title>
<g id="a_Node000024"><a xlink:href="kest__menu_8c.html#a6aa16fb3d12f098f021ae677605e683e" target="_top" xlink:title=" ">
<polygon fill="#fff0f0" stroke="red" points="118.38,-72.12 23.62,-72.12 23.62,-51.38 118.38,-51.38 118.38,-72.12"/>
<text xml:space="preserve" text-anchor="middle" x="71" y="-58.62" font-family="Helvetica,sans-Serif" font-size="10.00">init_main_menu</text>
</a>
</g>
</g>
<!-- Node23&#45;&gt;Node24 -->
<g id="edge13_Node000023_Node000024" class="edge">
<title>Node23&#45;&gt;Node24</title>
<g id="a_edge13_Node000023_Node000024"><a xlink:title=" ">
<path fill="none" stroke="#63b8ff" d="M168.02,-61.75C151.35,-61.75 134.07,-61.75 118.83,-61.75"/>
<polygon fill="#63b8ff" stroke="#63b8ff" points="167.92,-65.25 177.92,-61.75 167.92,-58.25 167.92,-65.25"/>
</a>
</g>
</g>
<!-- Node26 -->
<g id="Node000026" class="node">
<title>Node26</title>
<g id="a_Node000026"><a xlink:href="kest__profile__settings_8c.html#a1c60543ff9aed0e212ab514d669256f2" target="_top" xlink:title=" ">
<polygon fill="#fff0f0" stroke="red" points="142,-27.12 0,-27.12 0,-6.38 142,-6.38 142,-27.12"/>
<text xml:space="preserve" text-anchor="middle" x="71" y="-13.62" font-family="Helvetica,sans-Serif" font-size="10.00">init_profile_settings_page</text>
</a>
</g>
</g>
<!-- Node25&#45;&gt;Node26 -->
<g id="edge15_Node000025_Node000026" class="edge">
<title>Node25&#45;&gt;Node26</title>
<g id="a_edge15_Node000025_Node000026"><a xlink:title=" ">
<path fill="none" stroke="#63b8ff" d="M166.03,-16.75C158.12,-16.75 150.09,-16.75 142.23,-16.75"/>
<polygon fill="#63b8ff" stroke="#63b8ff" points="166,-20.25 176,-16.75 166,-13.25 166,-20.25"/>
</a>
</g>
</g>
</g>
</svg>

<g id="navigator" transform="translate(0 0)" fill="#404254">
  <rect fill="#f2f5e9" fill-opacity="0.5" stroke="#606060" stroke-width=".5" x="0" y="0" width="60" height="60"/>
  <use id="zoomplus" xlink:href="#zoomPlus" x="17" y="9" onmousedown="handleZoom(evt,'in')"/>
  <use id="zoomminus" xlink:href="#zoomMin" x="42" y="9" onmousedown="handleZoom(evt,'out')"/>
  <use id="reset" xlink:href="#resetDef" x="30" y="36" onmousedown="handleReset()"/>
   <use id="arrowup" xlink:href="#arrowUp" x="0" y="0" onmousedown="handlePan(0,-1)"/>
  <use id="arrowright" xlink:href="#arrowRight" x="0" y="0" onmousedown="handlePan(1,0)"/>
  <use id="arrowdown" xlink:href="#arrowDown" x="0" y="0" onmousedown="handlePan(0,1)"/>
  <use id="arrowleft" xlink:href="#arrowLeft" x="0" y="0" onmousedown="handlePan(-1,0)"/>
</g>
<svg viewBox="0 0 15 15" width="100%" height="30px" preserveAspectRatio="xMaxYMin meet">
 <g id="arrow_out" transform="scale(0.3 0.3)">
  <a xlink:href="kest__parameter__widget_8h_a275a44ab81e73412a3c3da5597906fcc_icgraph_org.svg" target="_base">
   <rect id="button" ry="5" rx="5" y="6" x="6" height="38" width="38"
        fill="#f2f5e9" fill-opacity="0.5" stroke="#606060" stroke-width="1.0"/>
   <path id="arrow"
     d="M 11.500037,31.436501 C 11.940474,20.09759 22.043105,11.32322 32.158766,21.979434 L 37.068811,17.246167 C 37.068811,17.246167 37.088388,32 37.088388,32 L 22.160133,31.978069 C 22.160133,31.978069 26.997745,27.140456 26.997745,27.140456 C 18.528582,18.264221 13.291696,25.230495 11.500037,31.436501 z"
     style="fill:#404040;"/>
  </a>
 </g>
</svg>

<style type='text/css'>
<![CDATA[
[data-mouse-over-selected='false'] { opacity: 0.7; }
[data-mouse-over-selected='true']  { opacity: 1.0; }
]]>
</style>
<script type="application/ecmascript"><![CDATA[
document.addEventListener('DOMContentLoaded', (event) => {
  highlightEdges();
  highlightAdjacentNodes();
});
]]></script>
</svg>
