<?xml version="1.0" encoding="UTF-8" standalone="no"?>
<!DOCTYPE svg PUBLIC "-//W3C//DTD SVG 1.1//EN"
 "http://www.w3.org/Graphics/SVG/1.1/DTD/svg11.dtd">
<!-- Generated by graphviz version 13.1.2 (20250808.2320)
 -->
<!-- Title: gut_profile Pages: 1 -->
<svg width="544pt" height="181pt"
 viewBox="0.00 0.00 544.00 181.00" xmlns="http://www.w3.org/2000/svg" xmlns:xlink="http://www.w3.org/1999/xlink">
<g id="graph0" class="graph" transform="scale(1 1) rotate(0) translate(4 176.83)">
<title>gut_profile</title>
<!-- Node1 -->
<g id="Node000001" class="node">
<title>Node1</title>
<g id="a_Node000001"><a xlink:title=" ">
<polygon fill="#999999" stroke="#666666" points="68.5,-38.83 0,-38.83 0,-18.08 68.5,-18.08 68.5,-38.83"/>
<text xml:space="preserve" text-anchor="middle" x="34.25" y="-25.33" font-family="Helvetica,sans-Serif" font-size="10.00">gut_profile</text>
</a>
</g>
</g>
<!-- Node2 -->
<g id="Node000002" class="node">
<title>Node2</title>
<g id="a_Node000002"><a xlink:href="kest__pipeline_8c.html#a840a0f31f2703ff6040d47245cc56c7a" target="_top" xlink:title=" ">
<polygon fill="white" stroke="#666666" points="180.5,-76.83 104.5,-76.83 104.5,-56.08 180.5,-56.08 180.5,-76.83"/>
<text xml:space="preserve" text-anchor="middle" x="142.5" y="-63.33" font-family="Helvetica,sans-Serif" font-size="10.00">gut_pipeline</text>
</a>
</g>
</g>
<!-- Node1&#45;&gt;Node2 -->
<g id="edge1_Node000001_Node000002" class="edge">
<title>Node1&#45;&gt;Node2</title>
<g id="a_edge1_Node000001_Node000002"><a xlink:title=" ">
<path fill="none" stroke="#63b8ff" d="M65.41,-39.25C76.4,-43.18 89.02,-47.69 100.78,-51.89"/>
<polygon fill="#63b8ff" stroke="#63b8ff" points="99.24,-55.06 109.84,-55.14 101.6,-48.47 99.24,-55.06"/>
</a>
</g>
</g>
<!-- Node6 -->
<g id="Node000006" class="node">
<title>Node6</title>
<g id="a_Node000006"><a xlink:href="kest__alloc_8c.html#a294af5728a94aa316fcf65304d388d48" target="_top" xlink:title=" ">
<polygon fill="white" stroke="#666666" points="536,-96.83 475,-96.83 475,-76.08 536,-76.08 536,-96.83"/>
<text xml:space="preserve" text-anchor="middle" x="505.5" y="-83.33" font-family="Helvetica,sans-Serif" font-size="10.00">kest_free</text>
</a>
</g>
</g>
<!-- Node1&#45;&gt;Node6 -->
<g id="edge10_Node000001_Node000006" class="edge">
<title>Node1&#45;&gt;Node6</title>
<g id="a_edge10_Node000001_Node000006"><a xlink:title=" ">
<path fill="none" stroke="#63b8ff" d="M68.86,-20.72C139.96,-5.96 309.72,20.55 439,-28.46 459.31,-36.16 477.37,-53.35 489.35,-67.03"/>
<polygon fill="#63b8ff" stroke="#63b8ff" points="486.58,-69.17 495.66,-74.62 491.96,-64.69 486.58,-69.17"/>
</a>
</g>
</g>
<!-- Node3 -->
<g id="Node000003" class="node">
<title>Node3</title>
<g id="a_Node000003"><a xlink:href="kest__effect_8c.html#a09f04708e6ffd20ecaba2c10460cb1eb" target="_top" xlink:title=" ">
<polygon fill="white" stroke="#666666" points="285.75,-96.83 216.5,-96.83 216.5,-76.08 285.75,-76.08 285.75,-96.83"/>
<text xml:space="preserve" text-anchor="middle" x="251.12" y="-83.33" font-family="Helvetica,sans-Serif" font-size="10.00">free_effect</text>
</a>
</g>
</g>
<!-- Node2&#45;&gt;Node3 -->
<g id="edge2_Node000002_Node000003" class="edge">
<title>Node2&#45;&gt;Node3</title>
<g id="a_edge2_Node000002_Node000003"><a xlink:title=" ">
<path fill="none" stroke="#63b8ff" d="M180.79,-73.45C188.63,-74.92 196.98,-76.49 205.06,-78.01"/>
<polygon fill="#63b8ff" stroke="#63b8ff" points="204.28,-81.42 214.75,-79.82 205.57,-74.54 204.28,-81.42"/>
</a>
</g>
</g>
<!-- Node4 -->
<g id="Node000004" class="node">
<title>Node4</title>
<g id="a_Node000004"><a xlink:href="kest__effect__view_8c.html#ac64b0341f8283e6aabdd27c42e9a55b0" target="_top" xlink:title=" ">
<polygon fill="#fff0f0" stroke="red" points="429.25,-172.83 331.5,-172.83 331.5,-152.08 429.25,-152.08 429.25,-172.83"/>
<text xml:space="preserve" text-anchor="middle" x="380.38" y="-159.33" font-family="Helvetica,sans-Serif" font-size="10.00">free_effect_view</text>
</a>
</g>
</g>
<!-- Node3&#45;&gt;Node4 -->
<g id="edge3_Node000003_Node000004" class="edge">
<title>Node3&#45;&gt;Node4</title>
<g id="a_edge3_Node000003_Node000004"><a xlink:title=" ">
<path fill="none" stroke="#63b8ff" d="M264.31,-97.03C277.73,-108.31 300.25,-126.21 321.75,-138.46 327.16,-141.55 333.05,-144.46 338.93,-147.11"/>
<polygon fill="#63b8ff" stroke="#63b8ff" points="337.43,-150.28 348,-151.01 340.2,-143.85 337.43,-150.28"/>
</a>
</g>
</g>
<!-- Node3&#45;&gt;Node6 -->
<g id="edge5_Node000003_Node000006" class="edge">
<title>Node3&#45;&gt;Node6</title>
<g id="a_edge5_Node000003_Node000006"><a xlink:title=" ">
<path fill="none" stroke="#63b8ff" d="M284.69,-97.27C296.26,-100.6 309.46,-103.81 321.75,-105.46 373.4,-112.38 387.41,-112.79 439,-105.46 447.05,-104.32 455.49,-102.42 463.53,-100.26"/>
<polygon fill="#63b8ff" stroke="#63b8ff" points="464.47,-103.63 473.11,-97.49 462.53,-96.9 464.47,-103.63"/>
</a>
</g>
</g>
<!-- Node7 -->
<g id="Node000007" class="node">
<title>Node7</title>
<g id="a_Node000007"><a xlink:href="kest__parameter_8c.html#a8232528422c7dd2a19b2f3cc4c1a25c0" target="_top" xlink:title=" ">
<polygon fill="#fff0f0" stroke="red" points="439,-96.83 321.75,-96.83 321.75,-76.08 439,-76.08 439,-96.83"/>
<text xml:space="preserve" text-anchor="middle" x="380.38" y="-83.33" font-family="Helvetica,sans-Serif" font-size="10.00">kest_parameter_free</text>
</a>
</g>
</g>
<!-- Node3&#45;&gt;Node7 -->
<g id="edge6_Node000003_Node000007" class="edge">
<title>Node3&#45;&gt;Node7</title>
<g id="a_edge6_Node000003_Node000007"><a xlink:title=" ">
<path fill="none" stroke="#63b8ff" d="M286.23,-86.46C293.72,-86.46 301.91,-86.46 310.23,-86.46"/>
<polygon fill="#63b8ff" stroke="#63b8ff" points="310.08,-89.96 320.08,-86.46 310.08,-82.96 310.08,-89.96"/>
</a>
</g>
</g>
<!-- Node9 -->
<g id="Node000009" class="node">
<title>Node9</title>
<g id="a_Node000009"><a xlink:href="kest__parameter_8c.html#a6426ab9815dd11cad99a9dd9283423b0" target="_top" xlink:title=" ">
<polygon fill="#fff0f0" stroke="red" points="430.38,-57.83 330.38,-57.83 330.38,-37.08 430.38,-37.08 430.38,-57.83"/>
<text xml:space="preserve" text-anchor="middle" x="380.38" y="-44.33" font-family="Helvetica,sans-Serif" font-size="10.00">kest_setting_free</text>
</a>
</g>
</g>
<!-- Node3&#45;&gt;Node9 -->
<g id="edge8_Node000003_Node000009" class="edge">
<title>Node3&#45;&gt;Node9</title>
<g id="a_edge8_Node000003_Node000009"><a xlink:title=" ">
<path fill="none" stroke="#63b8ff" d="M286.23,-76.01C300.68,-71.58 317.75,-66.35 333.3,-61.58"/>
<polygon fill="#63b8ff" stroke="#63b8ff" points="334.31,-64.93 342.85,-58.65 332.26,-58.24 334.31,-64.93"/>
</a>
</g>
</g>
<!-- Node4&#45;&gt;Node6 -->
<g id="edge4_Node000004_Node000006" class="edge">
<title>Node4&#45;&gt;Node6</title>
<g id="a_edge4_Node000004_Node000006"><a xlink:title=" ">
<path fill="none" stroke="#63b8ff" d="M411.75,-151.64C420.77,-147.95 430.51,-143.47 439,-138.46 455.34,-128.82 472.07,-115.47 484.53,-104.71"/>
<polygon fill="#63b8ff" stroke="#63b8ff" points="486.84,-107.34 492.02,-98.1 482.2,-102.1 486.84,-107.34"/>
</a>
</g>
</g>
<!-- Node7&#45;&gt;Node6 -->
<g id="edge7_Node000007_Node000006" class="edge">
<title>Node7&#45;&gt;Node6</title>
<g id="a_edge7_Node000007_Node000006"><a xlink:title=" ">
<path fill="none" stroke="#63b8ff" d="M439.33,-86.46C447.45,-86.46 455.65,-86.46 463.37,-86.46"/>
<polygon fill="#63b8ff" stroke="#63b8ff" points="463.13,-89.96 473.13,-86.46 463.13,-82.96 463.13,-89.96"/>
</a>
</g>
</g>
<!-- Node9&#45;&gt;Node6 -->
<g id="edge9_Node000009_Node000006" class="edge">
<title>Node9&#45;&gt;Node6</title>
<g id="a_edge9_Node000009_Node000006"><a xlink:title=" ">
<path fill="none" stroke="#63b8ff" d="M415.67,-58.32C430.56,-63.04 448.11,-68.6 463.67,-73.53"/>
<polygon fill="#63b8ff" stroke="#63b8ff" points="462.54,-76.84 473.13,-76.52 464.65,-70.17 462.54,-76.84"/>
</a>
</g>
</g>
</g>
</svg>
