<?xml version="1.0" encoding="UTF-8" standalone="no"?>
<!DOCTYPE svg PUBLIC "-//W3C//DTD SVG 1.1//EN"
 "http://www.w3.org/Graphics/SVG/1.1/DTD/svg11.dtd">
<!-- Generated by graphviz version 13.1.2 (20250808.2320)
 -->
<!-- Title: init_effect_from_effect_desc Pages: 1 -->
<!--zoomable 423 -->

<svg id="main" version="1.1" xmlns="http://www.w3.org/2000/svg" xmlns:xlink="http://www.w3.org/1999/xlink" xml:space="preserve" onload="init(evt)">

<style type="text/css"><![CDATA[
.node, .edge {opacity: 0.7;}
.node.selected, .edge.selected {opacity: 1;}
.edge:hover path { stroke: red; }
.edge:hover polygon { stroke: red; fill: red; }
]]></style>

<defs>
  <circle id="rim" cx="0" cy="0" r="7"/>
  <circle id="rim2" cx="0" cy="0" r="3.5"/>
  <g id="zoomPlus">
    <use xlink:href="#rim" fill="#404040"><set attributeName="fill" to="#808080" begin="zoomplus.mouseover" end="zoomplus.mouseout"/></use>
    <path d="M-4,0h8M0,-4v8" fill="none" stroke="white" stroke-width="1.5" pointer-events="none"/>
  </g>
  <g id="zoomMin">
    <use xlink:href="#rim" fill="#404040"><set attributeName="fill" to="#808080" begin="zoomminus.mouseover" end="zoomminus.mouseout"/></use>
    <path d="M-4,0h8" fill="none" stroke="white" stroke-width="1.5" pointer-events="none"/>
  </g>
  <g id="arrowUp" transform="translate(30 24)">
    <use xlink:href="#rim"/>
    <path pointer-events="none" fill="none" stroke="white" stroke-width="1.5" d="M0,-3.0v7 M-2.5,-0.5L0,-3.0L2.5,-0.5"/>
  </g>
  <g id="arrowRight" transform="rotate(90) translate(36 -43)">
    <use xlink:href="#rim"/>
    <path pointer-events="none" fill="none" stroke="white" stroke-width="1.5" d="M0,-3.0v7 M-2.5,-0.5L0,-3.0L2.5,-0.5"/>
  </g>
  <g id="arrowDown" transform="rotate(180) translate(-30 -48)">
    <use xlink:href="#rim"/>
    <path pointer-events="none" fill="none" stroke="white" stroke-width="1.5" d="M0,-3.0v7 M-2.5,-0.5L0,-3.0L2.5,-0.5"/>
  </g>
  <g id="arrowLeft" transform="rotate(270) translate(-36 17)">
    <use xlink:href="#rim"/>
    <path pointer-events="none" fill="none" stroke="white" stroke-width="1.5" d="M0,-3.0v7 M-2.5,-0.5L0,-3.0L2.5,-0.5"/>
  </g>
  <g id="resetDef">
    <use xlink:href="#rim2" fill="#404040"><set attributeName="fill" to="#808080" begin="reset.mouseover" end="reset.mouseout"/></use>
  </g>
</defs>
<script type="application/ecmascript">
var viewWidth = 952;
var viewHeight = 423;
var sectionId = 'dynsection-15';
</script>
<script type="application/ecmascript" xlink:href="svg.min.js"/>
<svg id="graph" class="graph">
<g id="viewport">
<title>init_effect_from_effect_desc</title>
<!-- Node1 -->
<g id="Node000001" class="node">
<title>Node1</title>
<g id="a_Node000001"><a xlink:title=" ">
<polygon fill="#999999" stroke="#666666" points="155.5,-248.82 0,-248.82 0,-228.07 155.5,-228.07 155.5,-248.82"/>
<text xml:space="preserve" text-anchor="middle" x="77.75" y="-235.32" font-family="Helvetica,sans-Serif" font-size="10.00">init_effect_from_effect_desc</text>
</a>
</g>
</g>
<!-- Node2 -->
<g id="Node000002" class="node">
<title>Node2</title>
<g id="a_Node000002"><a xlink:href="kest__effect_8c.html#a6d9927f6d82c964bd07bef5c77879010" target="_top" xlink:title=" ">
<polygon fill="white" stroke="#666666" points="610.75,-330.82 545.25,-330.82 545.25,-310.07 610.75,-310.07 610.75,-330.82"/>
<text xml:space="preserve" text-anchor="middle" x="578" y="-317.32" font-family="Helvetica,sans-Serif" font-size="10.00">init_effect</text>
</a>
</g>
</g>
<!-- Node1&#45;&gt;Node2 -->
<g id="edge1_Node000001_Node000002" class="edge">
<title>Node1&#45;&gt;Node2</title>
<g id="a_edge1_Node000001_Node000002"><a xlink:title=" ">
<path fill="none" stroke="#63b8ff" d="M122.78,-249.31C143.56,-254.25 168.73,-259.98 191.5,-264.45 314.72,-288.6 461.98,-307.18 533.59,-315.56"/>
<polygon fill="#63b8ff" stroke="#63b8ff" points="532.99,-319.01 543.33,-316.69 533.8,-312.06 532.99,-319.01"/>
</a>
</g>
</g>
<!-- Node16 -->
<g id="Node000016" class="node">
<title>Node16</title>
<g id="a_Node000016"><a xlink:href="kest__effect_8c.html#ad36244b2279575200cc5265d2e25dfdd" target="_top" xlink:title=" ">
<polygon fill="white" stroke="#666666" points="297.5,-125.2 191.5,-125.2 191.5,-91.7 297.5,-91.7 297.5,-125.2"/>
<text xml:space="preserve" text-anchor="start" x="199.5" y="-111.7" font-family="Helvetica,sans-Serif" font-size="10.00">kest_effect_create</text>
<text xml:space="preserve" text-anchor="middle" x="244.5" y="-98.95" font-family="Helvetica,sans-Serif" font-size="10.00">_scope</text>
</a>
</g>
</g>
<!-- Node1&#45;&gt;Node16 -->
<g id="edge9_Node000001_Node000016" class="edge">
<title>Node1&#45;&gt;Node16</title>
<g id="a_edge9_Node000001_Node000016"><a xlink:title=" ">
<path fill="none" stroke="#63b8ff" d="M92.51,-227.59C118.89,-206.77 177.13,-160.81 213.08,-132.45"/>
<polygon fill="#63b8ff" stroke="#63b8ff" points="214.83,-135.52 220.52,-126.58 210.5,-130.03 214.83,-135.52"/>
</a>
</g>
</g>
<!-- Node24 -->
<g id="Node000024" class="node">
<title>Node24</title>
<g id="a_Node000024"><a xlink:href="kest__parameter_8c.html#ae948a40b754ee638db216e685c38cc61" target="_top" xlink:title=" ">
<polygon fill="white" stroke="#666666" points="469.5,-278.2 344.75,-278.2 344.75,-244.7 469.5,-244.7 469.5,-278.2"/>
<text xml:space="preserve" text-anchor="start" x="352.75" y="-264.7" font-family="Helvetica,sans-Serif" font-size="10.00">kest_parameter_make</text>
<text xml:space="preserve" text-anchor="middle" x="407.12" y="-251.95" font-family="Helvetica,sans-Serif" font-size="10.00">_clone_for_effect</text>
</a>
</g>
</g>
<!-- Node1&#45;&gt;Node24 -->
<g id="edge21_Node000001_Node000024" class="edge">
<title>Node1&#45;&gt;Node24</title>
<g id="a_edge21_Node000001_Node000024"><a xlink:title=" ">
<path fill="none" stroke="#63b8ff" d="M155.92,-243.87C209.55,-247.63 280.56,-252.62 333.23,-256.32"/>
<polygon fill="#63b8ff" stroke="#63b8ff" points="332.78,-259.8 343,-257.01 333.27,-252.82 332.78,-259.8"/>
</a>
</g>
</g>
<!-- Node27 -->
<g id="Node000027" class="node">
<title>Node27</title>
<g id="a_Node000027"><a xlink:href="kest__parameter_8c.html#a93c254fa0bc2933e67e92e4b2acb2aac" target="_top" xlink:title=" ">
<polygon fill="white" stroke="#666666" points="476.62,-226.2 337.62,-226.2 337.62,-192.7 476.62,-192.7 476.62,-226.2"/>
<text xml:space="preserve" text-anchor="start" x="345.62" y="-212.7" font-family="Helvetica,sans-Serif" font-size="10.00">kest_setting_make_clone</text>
<text xml:space="preserve" text-anchor="middle" x="407.12" y="-199.95" font-family="Helvetica,sans-Serif" font-size="10.00">_for_effect</text>
</a>
</g>
</g>
<!-- Node1&#45;&gt;Node27 -->
<g id="edge26_Node000001_Node000027" class="edge">
<title>Node1&#45;&gt;Node27</title>
<g id="a_edge26_Node000001_Node000027"><a xlink:title=" ">
<path fill="none" stroke="#63b8ff" d="M155.92,-231.61C207.17,-227.07 274.3,-221.12 326.12,-216.53"/>
<polygon fill="#63b8ff" stroke="#63b8ff" points="326.11,-220.05 335.76,-215.68 325.49,-213.08 326.11,-220.05"/>
</a>
</g>
</g>
<!-- Node3 -->
<g id="Node000003" class="node">
<title>Node3</title>
<g id="a_Node000003"><a xlink:href="kest__parameter_8c.html#a2b94ddb1588d1a5af4311970bb068122" target="_top" xlink:title=" ">
<polygon fill="white" stroke="#666666" points="772.62,-375.82 684.62,-375.82 684.62,-355.07 772.62,-355.07 772.62,-375.82"/>
<text xml:space="preserve" text-anchor="middle" x="728.62" y="-362.32" font-family="Helvetica,sans-Serif" font-size="10.00">init_parameter</text>
</a>
</g>
</g>
<!-- Node2&#45;&gt;Node3 -->
<g id="edge2_Node000002_Node000003" class="edge">
<title>Node2&#45;&gt;Node3</title>
<g id="a_edge2_Node000002_Node000003"><a xlink:title=" ">
<path fill="none" stroke="#63b8ff" d="M611.25,-330.21C631.65,-336.39 658.35,-344.47 681.03,-351.34"/>
<polygon fill="#63b8ff" stroke="#63b8ff" points="679.76,-354.61 690.34,-354.16 681.79,-347.91 679.76,-354.61"/>
</a>
</g>
</g>
<!-- Node7 -->
<g id="Node000007" class="node">
<title>Node7</title>
<g id="a_Node000007"><a xlink:href="kest__parameter_8c.html#a62dd23a17e3d4ca94ec6a8ff311e8b94" target="_top" xlink:title=" ">
<polygon fill="white" stroke="#666666" points="764,-285.82 693.25,-285.82 693.25,-265.07 764,-265.07 764,-285.82"/>
<text xml:space="preserve" text-anchor="middle" x="728.62" y="-272.32" font-family="Helvetica,sans-Serif" font-size="10.00">init_setting</text>
</a>
</g>
</g>
<!-- Node2&#45;&gt;Node7 -->
<g id="edge4_Node000002_Node000007" class="edge">
<title>Node2&#45;&gt;Node7</title>
<g id="a_edge4_Node000002_Node000007"><a xlink:title=" ">
<path fill="none" stroke="#63b8ff" d="M611.25,-310.68C631.94,-304.42 659.12,-296.19 682,-289.26"/>
<polygon fill="#63b8ff" stroke="#63b8ff" points="682.84,-292.66 691.4,-286.41 680.81,-285.96 682.84,-292.66"/>
</a>
</g>
</g>
<!-- Node9 -->
<g id="Node000009" class="node">
<title>Node9</title>
<g id="a_Node000009"><a xlink:href="kest__alloc_8c.html#a849755c5dc5b35e712ffcdb602e50fb4" target="_top" xlink:title=" ">
<polygon fill="white" stroke="#666666" points="761,-189.82 696.25,-189.82 696.25,-169.07 761,-169.07 761,-189.82"/>
<text xml:space="preserve" text-anchor="middle" x="728.62" y="-176.32" font-family="Helvetica,sans-Serif" font-size="10.00">kest_alloc</text>
</a>
</g>
</g>
<!-- Node2&#45;&gt;Node9 -->
<g id="edge6_Node000002_Node000009" class="edge">
<title>Node2&#45;&gt;Node9</title>
<g id="a_edge6_Node000002_Node000009"><a xlink:title=" ">
<path fill="none" stroke="#63b8ff" d="M611.04,-315.14C621.02,-312.19 631.44,-307.59 639.25,-300.45 668.92,-273.3 650.09,-248.81 675.25,-217.45 681.67,-209.45 690.17,-202.32 698.45,-196.46"/>
<polygon fill="#63b8ff" stroke="#63b8ff" points="700.26,-199.46 706.67,-191.03 696.4,-193.62 700.26,-199.46"/>
</a>
</g>
</g>
<!-- Node10 -->
<g id="Node000010" class="node">
<title>Node10</title>
<g id="a_Node000010"><a xlink:href="kest__effect_8c.html#abd8eb2f7c5fa3c26690cddd429257881" target="_top" xlink:title=" ">
<polygon fill="white" stroke="#666666" points="782,-337.2 675.25,-337.2 675.25,-303.7 782,-303.7 782,-337.2"/>
<text xml:space="preserve" text-anchor="start" x="683.25" y="-323.7" font-family="Helvetica,sans-Serif" font-size="10.00">kest_effect_profile</text>
<text xml:space="preserve" text-anchor="middle" x="728.62" y="-310.95" font-family="Helvetica,sans-Serif" font-size="10.00">_rep_update</text>
</a>
</g>
</g>
<!-- Node2&#45;&gt;Node10 -->
<g id="edge7_Node000002_Node000010" class="edge">
<title>Node2&#45;&gt;Node10</title>
<g id="a_edge7_Node000002_Node000010"><a xlink:title=" ">
<path fill="none" stroke="#63b8ff" d="M611.25,-320.45C626.59,-320.45 645.5,-320.45 663.57,-320.45"/>
<polygon fill="#63b8ff" stroke="#63b8ff" points="663.47,-323.95 673.47,-320.45 663.47,-316.95 663.47,-323.95"/>
</a>
</g>
</g>
<!-- Node4 -->
<g id="Node000004" class="node">
<title>Node4</title>
<g id="a_Node000004"><a xlink:href="kest__parameter_8c.html#abff5b0dd3ed907207191aa6079c514eb" target="_top" xlink:title=" ">
<polygon fill="#fff0f0" stroke="red" points="944.25,-401.2 818,-401.2 818,-367.7 944.25,-367.7 944.25,-401.2"/>
<text xml:space="preserve" text-anchor="start" x="826" y="-387.7" font-family="Helvetica,sans-Serif" font-size="10.00">kest_parameter_effect</text>
<text xml:space="preserve" text-anchor="middle" x="881.12" y="-374.95" font-family="Helvetica,sans-Serif" font-size="10.00">_rep_update</text>
</a>
</g>
</g>
<!-- Node3&#45;&gt;Node4 -->
<g id="edge3_Node000003_Node000004" class="edge">
<title>Node3&#45;&gt;Node4</title>
<g id="a_edge3_Node000003_Node000004"><a xlink:title=" ">
<path fill="none" stroke="#63b8ff" d="M772.75,-370.89C783.24,-372.21 794.75,-373.67 806.23,-375.12"/>
<polygon fill="#63b8ff" stroke="#63b8ff" points="805.78,-378.59 816.14,-376.37 806.66,-371.64 805.78,-378.59"/>
</a>
</g>
</g>
<!-- Node8 -->
<g id="Node000008" class="node">
<title>Node8</title>
<g id="a_Node000008"><a xlink:href="kest__parameter_8c.html#a3c9f839cffc5f0a9b0630682ce8e9b9c" target="_top" xlink:title=" ">
<polygon fill="#fff0f0" stroke="red" points="935.62,-273.2 826.62,-273.2 826.62,-239.7 935.62,-239.7 935.62,-273.2"/>
<text xml:space="preserve" text-anchor="start" x="834.62" y="-259.7" font-family="Helvetica,sans-Serif" font-size="10.00">kest_setting_effect</text>
<text xml:space="preserve" text-anchor="middle" x="881.12" y="-246.95" font-family="Helvetica,sans-Serif" font-size="10.00">_rep_update</text>
</a>
</g>
</g>
<!-- Node7&#45;&gt;Node8 -->
<g id="edge5_Node000007_Node000008" class="edge">
<title>Node7&#45;&gt;Node8</title>
<g id="a_edge5_Node000007_Node000008"><a xlink:title=" ">
<path fill="none" stroke="#63b8ff" d="M764.15,-271.09C779.24,-269.18 797.46,-266.88 814.95,-264.67"/>
<polygon fill="#63b8ff" stroke="#63b8ff" points="815.3,-268.16 824.78,-263.43 814.42,-261.21 815.3,-268.16"/>
</a>
</g>
</g>
<!-- Node11 -->
<g id="Node000011" class="node">
<title>Node11</title>
<g id="a_Node000011"><a xlink:href="kest__files_8c.html#ab39f3c0d9f0a16ccb7d076a22fc4ca22" target="_top" xlink:title=" ">
<polygon fill="#fff0f0" stroke="red" points="919.12,-330.82 843.12,-330.82 843.12,-310.07 919.12,-310.07 919.12,-330.82"/>
<text xml:space="preserve" text-anchor="middle" x="881.12" y="-317.32" font-family="Helvetica,sans-Serif" font-size="10.00">save_profile</text>
</a>
</g>
</g>
<!-- Node10&#45;&gt;Node11 -->
<g id="edge8_Node000010_Node000011" class="edge">
<title>Node10&#45;&gt;Node11</title>
<g id="a_edge8_Node000010_Node000011"><a xlink:title=" ">
<path fill="none" stroke="#63b8ff" d="M782.26,-320.45C798.36,-320.45 815.98,-320.45 831.78,-320.45"/>
<polygon fill="#63b8ff" stroke="#63b8ff" points="831.4,-323.95 841.4,-320.45 831.4,-316.95 831.4,-323.95"/>
</a>
</g>
</g>
<!-- Node17 -->
<g id="Node000017" class="node">
<title>Node17</title>
<g id="a_Node000017"><a xlink:href="kest__expr__scope_8c.html#ae63f9dde8aedf61f742ee600c18f4f6a" target="_top" xlink:title=" ">
<polygon fill="white" stroke="#666666" points="480.75,-166.82 333.5,-166.82 333.5,-146.07 480.75,-146.07 480.75,-166.82"/>
<text xml:space="preserve" text-anchor="middle" x="407.12" y="-153.32" font-family="Helvetica,sans-Serif" font-size="10.00">kest_expr_scope_add_expr</text>
</a>
</g>
</g>
<!-- Node16&#45;&gt;Node17 -->
<g id="edge10_Node000016_Node000017" class="edge">
<title>Node16&#45;&gt;Node17</title>
<g id="a_edge10_Node000016_Node000017"><a xlink:title=" ">
<path fill="none" stroke="#63b8ff" d="M297.65,-124.03C317.41,-129.93 339.77,-136.62 359.03,-142.37"/>
<polygon fill="#63b8ff" stroke="#63b8ff" points="357.94,-145.7 368.52,-145.21 359.94,-138.99 357.94,-145.7"/>
</a>
</g>
</g>
<!-- Node19 -->
<g id="Node000019" class="node">
<title>Node19</title>
<g id="a_Node000019"><a xlink:href="kest__expr__scope_8c.html#a4c5624229dada0831cefd45eebbbc2fd" target="_top" xlink:title=" ">
<polygon fill="white" stroke="#666666" points="467.25,-125.2 347,-125.2 347,-91.7 467.25,-91.7 467.25,-125.2"/>
<text xml:space="preserve" text-anchor="start" x="355" y="-111.7" font-family="Helvetica,sans-Serif" font-size="10.00">kest_expr_scope_add</text>
<text xml:space="preserve" text-anchor="middle" x="407.12" y="-98.95" font-family="Helvetica,sans-Serif" font-size="10.00">_param</text>
</a>
</g>
</g>
<!-- Node16&#45;&gt;Node19 -->
<g id="edge13_Node000016_Node000019" class="edge">
<title>Node16&#45;&gt;Node19</title>
<g id="a_edge13_Node000016_Node000019"><a xlink:title=" ">
<path fill="none" stroke="#63b8ff" d="M297.65,-108.45C309.64,-108.45 322.6,-108.45 335.23,-108.45"/>
<polygon fill="#63b8ff" stroke="#63b8ff" points="335.2,-111.95 345.2,-108.45 335.2,-104.95 335.2,-111.95"/>
</a>
</g>
</g>
<!-- Node21 -->
<g id="Node000021" class="node">
<title>Node21</title>
<g id="a_Node000021"><a xlink:href="kest__expr__scope_8c.html#ae2edb95f7337c9dd84a5053c2379e514" target="_top" xlink:title=" ">
<polygon fill="white" stroke="#666666" points="467.25,-73.2 347,-73.2 347,-39.7 467.25,-39.7 467.25,-73.2"/>
<text xml:space="preserve" text-anchor="start" x="355" y="-59.7" font-family="Helvetica,sans-Serif" font-size="10.00">kest_expr_scope_add</text>
<text xml:space="preserve" text-anchor="middle" x="407.12" y="-46.95" font-family="Helvetica,sans-Serif" font-size="10.00">_setting</text>
</a>
</g>
</g>
<!-- Node16&#45;&gt;Node21 -->
<g id="edge16_Node000016_Node000021" class="edge">
<title>Node16&#45;&gt;Node21</title>
<g id="a_edge16_Node000016_Node000021"><a xlink:title=" ">
<path fill="none" stroke="#63b8ff" d="M297.65,-91.56C311.88,-86.96 327.45,-81.91 342.25,-77.12"/>
<polygon fill="#63b8ff" stroke="#63b8ff" points="342.98,-80.57 351.42,-74.16 340.83,-73.91 342.98,-80.57"/>
</a>
</g>
</g>
<!-- Node23 -->
<g id="Node000023" class="node">
<title>Node23</title>
<g id="a_Node000023"><a xlink:href="kest__expr__scope_8c.html#a648ec3dcb81dc6fcc6e8cd53addcd2e5" target="_top" xlink:title=" ">
<polygon fill="white" stroke="#666666" points="468.38,-21.82 345.88,-21.82 345.88,-1.07 468.38,-1.07 468.38,-21.82"/>
<text xml:space="preserve" text-anchor="middle" x="407.12" y="-8.32" font-family="Helvetica,sans-Serif" font-size="10.00">kest_new_expr_scope</text>
</a>
</g>
</g>
<!-- Node16&#45;&gt;Node23 -->
<g id="edge19_Node000016_Node000023" class="edge">
<title>Node16&#45;&gt;Node23</title>
<g id="a_edge19_Node000016_Node000023"><a xlink:title=" ">
<path fill="none" stroke="#63b8ff" d="M260.28,-91.25C276.5,-73.46 304.15,-46.12 333.5,-30.45 336.36,-28.92 339.34,-27.51 342.4,-26.21"/>
<polygon fill="#63b8ff" stroke="#63b8ff" points="343.5,-29.54 351.63,-22.74 341.04,-22.99 343.5,-29.54"/>
</a>
</g>
</g>
<!-- Node18 -->
<g id="Node000018" class="node">
<title>Node18</title>
<g id="a_Node000018"><a xlink:href="kest__expr__scope_8c.html#a1e38199b09f72739edc8026dee1dc888" target="_top" xlink:title=" ">
<polygon fill="white" stroke="#666666" points="639.25,-177.2 516.75,-177.2 516.75,-143.7 639.25,-143.7 639.25,-177.2"/>
<text xml:space="preserve" text-anchor="start" x="524.75" y="-163.7" font-family="Helvetica,sans-Serif" font-size="10.00">kest_new_expr_scope</text>
<text xml:space="preserve" text-anchor="middle" x="578" y="-150.95" font-family="Helvetica,sans-Serif" font-size="10.00">_entry_expr</text>
</a>
</g>
</g>
<!-- Node17&#45;&gt;Node18 -->
<g id="edge11_Node000017_Node000018" class="edge">
<title>Node17&#45;&gt;Node18</title>
<g id="a_edge11_Node000017_Node000018"><a xlink:title=" ">
<path fill="none" stroke="#63b8ff" d="M481.21,-158.18C489.12,-158.36 497.16,-158.55 505.05,-158.74"/>
<polygon fill="#63b8ff" stroke="#63b8ff" points="504.88,-162.24 514.96,-158.98 505.05,-155.24 504.88,-162.24"/>
</a>
</g>
</g>
<!-- Node18&#45;&gt;Node9 -->
<g id="edge12_Node000018_Node000009" class="edge">
<title>Node18&#45;&gt;Node9</title>
<g id="a_edge12_Node000018_Node000009"><a xlink:title=" ">
<path fill="none" stroke="#63b8ff" d="M639.45,-168.17C654.65,-170.12 670.64,-172.16 684.78,-173.97"/>
<polygon fill="#63b8ff" stroke="#63b8ff" points="684.29,-177.43 694.65,-175.23 685.17,-170.49 684.29,-177.43"/>
</a>
</g>
</g>
<!-- Node20 -->
<g id="Node000020" class="node">
<title>Node20</title>
<g id="a_Node000020"><a xlink:href="kest__expr__scope_8c.html#a7ea1bb1a07c9a6a8b4595a522561ea67" target="_top" xlink:title=" ">
<polygon fill="white" stroke="#666666" points="639.25,-125.2 516.75,-125.2 516.75,-91.7 639.25,-91.7 639.25,-125.2"/>
<text xml:space="preserve" text-anchor="start" x="524.75" y="-111.7" font-family="Helvetica,sans-Serif" font-size="10.00">kest_new_expr_scope</text>
<text xml:space="preserve" text-anchor="middle" x="578" y="-98.95" font-family="Helvetica,sans-Serif" font-size="10.00">_entry_param</text>
</a>
</g>
</g>
<!-- Node19&#45;&gt;Node20 -->
<g id="edge14_Node000019_Node000020" class="edge">
<title>Node19&#45;&gt;Node20</title>
<g id="a_edge14_Node000019_Node000020"><a xlink:title=" ">
<path fill="none" stroke="#63b8ff" d="M467.66,-108.45C479.73,-108.45 492.55,-108.45 504.99,-108.45"/>
<polygon fill="#63b8ff" stroke="#63b8ff" points="504.77,-111.95 514.77,-108.45 504.77,-104.95 504.77,-111.95"/>
</a>
</g>
</g>
<!-- Node20&#45;&gt;Node9 -->
<g id="edge15_Node000020_Node000009" class="edge">
<title>Node20&#45;&gt;Node9</title>
<g id="a_edge15_Node000020_Node000009"><a xlink:title=" ">
<path fill="none" stroke="#63b8ff" d="M619.67,-125.58C626.25,-128.47 632.96,-131.49 639.25,-134.45 658.87,-143.66 680.56,-154.69 697.54,-163.53"/>
<polygon fill="#63b8ff" stroke="#63b8ff" points="695.62,-166.47 706.11,-168.01 698.87,-160.27 695.62,-166.47"/>
</a>
</g>
</g>
<!-- Node22 -->
<g id="Node000022" class="node">
<title>Node22</title>
<g id="a_Node000022"><a xlink:href="kest__expr__scope_8c.html#a69e4f1f3c645e4b8e721d2262c9c6ed9" target="_top" xlink:title=" ">
<polygon fill="white" stroke="#666666" points="639.25,-73.2 516.75,-73.2 516.75,-39.7 639.25,-39.7 639.25,-73.2"/>
<text xml:space="preserve" text-anchor="start" x="524.75" y="-59.7" font-family="Helvetica,sans-Serif" font-size="10.00">kest_new_expr_scope</text>
<text xml:space="preserve" text-anchor="middle" x="578" y="-46.95" font-family="Helvetica,sans-Serif" font-size="10.00">_entry_setting</text>
</a>
</g>
</g>
<!-- Node21&#45;&gt;Node22 -->
<g id="edge17_Node000021_Node000022" class="edge">
<title>Node21&#45;&gt;Node22</title>
<g id="a_edge17_Node000021_Node000022"><a xlink:title=" ">
<path fill="none" stroke="#63b8ff" d="M467.66,-56.45C479.73,-56.45 492.55,-56.45 504.99,-56.45"/>
<polygon fill="#63b8ff" stroke="#63b8ff" points="504.77,-59.95 514.77,-56.45 504.77,-52.95 504.77,-59.95"/>
</a>
</g>
</g>
<!-- Node22&#45;&gt;Node9 -->
<g id="edge18_Node000022_Node000009" class="edge">
<title>Node22&#45;&gt;Node9</title>
<g id="a_edge18_Node000022_Node000009"><a xlink:title=" ">
<path fill="none" stroke="#63b8ff" d="M624.56,-73.59C629.69,-76.25 634.71,-79.2 639.25,-82.45 669.83,-104.26 697.68,-138.21 713.63,-159.62"/>
<polygon fill="#63b8ff" stroke="#63b8ff" points="710.67,-161.5 719.39,-167.52 716.33,-157.38 710.67,-161.5"/>
</a>
</g>
</g>
<!-- Node23&#45;&gt;Node9 -->
<g id="edge20_Node000023_Node000009" class="edge">
<title>Node23&#45;&gt;Node9</title>
<g id="a_edge20_Node000023_Node000009"><a xlink:title=" ">
<path fill="none" stroke="#63b8ff" d="M468.84,-1.96C518.43,2.57 588.38,1.36 639.25,-30.45 686.27,-59.84 711.4,-124.17 721.78,-157.88"/>
<polygon fill="#63b8ff" stroke="#63b8ff" points="718.38,-158.71 724.53,-167.33 725.1,-156.75 718.38,-158.71"/>
</a>
</g>
</g>
<!-- Node24&#45;&gt;Node9 -->
<g id="edge25_Node000024_Node000009" class="edge">
<title>Node24&#45;&gt;Node9</title>
<g id="a_edge25_Node000024_Node000009"><a xlink:title=" ">
<path fill="none" stroke="#63b8ff" d="M469.77,-248.4C516.51,-238.18 582.23,-223.11 639.25,-207.45 654.34,-203.3 670.71,-198.26 685.22,-193.61"/>
<polygon fill="#63b8ff" stroke="#63b8ff" points="686.02,-197.03 694.46,-190.62 683.86,-190.37 686.02,-197.03"/>
</a>
</g>
</g>
<!-- Node25 -->
<g id="Node000025" class="node">
<title>Node25</title>
<g id="a_Node000025"><a xlink:href="kest__parameter_8c.html#a908ee2614e4c7ee766d3432ead2356ae" target="_top" xlink:title=" ">
<polygon fill="white" stroke="#666666" points="627.25,-392.82 528.75,-392.82 528.75,-372.07 627.25,-372.07 627.25,-392.82"/>
<text xml:space="preserve" text-anchor="middle" x="578" y="-379.32" font-family="Helvetica,sans-Serif" font-size="10.00">clone_parameter</text>
</a>
</g>
</g>
<!-- Node24&#45;&gt;Node25 -->
<g id="edge22_Node000024_Node000025" class="edge">
<title>Node24&#45;&gt;Node25</title>
<g id="a_edge22_Node000024_Node000025"><a xlink:title=" ">
<path fill="none" stroke="#63b8ff" d="M431.84,-278.51C453.84,-294.32 487.49,-318.5 516.75,-339.45 528.71,-348.01 542.02,-357.51 553.08,-365.4"/>
<polygon fill="#63b8ff" stroke="#63b8ff" points="550.73,-368.02 560.9,-370.98 554.79,-362.32 550.73,-368.02"/>
</a>
</g>
</g>
<!-- Node26 -->
<g id="Node000026" class="node">
<title>Node26</title>
<g id="a_Node000026"><a xlink:href="kest__parameter_8c.html#a41fafa04c21a8ab5916a8ceb5442d99a" target="_top" xlink:title=" ">
<polygon fill="white" stroke="#666666" points="781.62,-414.82 675.62,-414.82 675.62,-394.07 781.62,-394.07 781.62,-414.82"/>
<text xml:space="preserve" text-anchor="middle" x="728.62" y="-401.32" font-family="Helvetica,sans-Serif" font-size="10.00">init_parameter_str</text>
</a>
</g>
</g>
<!-- Node25&#45;&gt;Node26 -->
<g id="edge23_Node000025_Node000026" class="edge">
<title>Node25&#45;&gt;Node26</title>
<g id="a_edge23_Node000025_Node000026"><a xlink:title=" ">
<path fill="none" stroke="#63b8ff" d="M627.67,-389.65C639.33,-391.38 651.96,-393.25 664.19,-395.06"/>
<polygon fill="#63b8ff" stroke="#63b8ff" points="663.36,-398.47 673.77,-396.47 664.39,-391.55 663.36,-398.47"/>
</a>
</g>
</g>
<!-- Node26&#45;&gt;Node4 -->
<g id="edge24_Node000026_Node000004" class="edge">
<title>Node26&#45;&gt;Node4</title>
<g id="a_edge24_Node000026_Node000004"><a xlink:title=" ">
<path fill="none" stroke="#63b8ff" d="M781.84,-397.51C789.78,-396.45 798.09,-395.35 806.39,-394.24"/>
<polygon fill="#63b8ff" stroke="#63b8ff" points="806.69,-397.74 816.14,-392.95 805.77,-390.8 806.69,-397.74"/>
</a>
</g>
</g>
<!-- Node27&#45;&gt;Node9 -->
<g id="edge31_Node000027_Node000009" class="edge">
<title>Node27&#45;&gt;Node9</title>
<g id="a_edge31_Node000027_Node000009"><a xlink:title=" ">
<path fill="none" stroke="#63b8ff" d="M477.06,-202.97C540.16,-197.05 631.57,-188.46 684.77,-183.47"/>
<polygon fill="#63b8ff" stroke="#63b8ff" points="685.02,-186.96 694.65,-182.54 684.37,-179.99 685.02,-186.96"/>
</a>
</g>
</g>
<!-- Node28 -->
<g id="Node000028" class="node">
<title>Node28</title>
<g id="a_Node000028"><a xlink:href="kest__parameter_8c.html#a0557624c9a1b47f1ae42049322650a6e" target="_top" xlink:title=" ">
<polygon fill="white" stroke="#666666" points="618.62,-291.82 537.38,-291.82 537.38,-271.07 618.62,-271.07 618.62,-291.82"/>
<text xml:space="preserve" text-anchor="middle" x="578" y="-278.32" font-family="Helvetica,sans-Serif" font-size="10.00">clone_setting</text>
</a>
</g>
</g>
<!-- Node27&#45;&gt;Node28 -->
<g id="edge27_Node000027_Node000028" class="edge">
<title>Node27&#45;&gt;Node28</title>
<g id="a_edge27_Node000027_Node000028"><a xlink:title=" ">
<path fill="none" stroke="#63b8ff" d="M458.39,-226.69C465.93,-229.49 473.58,-232.46 480.75,-235.45 502.76,-244.62 526.97,-256.2 545.61,-265.44"/>
<polygon fill="#63b8ff" stroke="#63b8ff" points="544.01,-268.56 554.52,-269.9 547.15,-262.3 544.01,-268.56"/>
</a>
</g>
</g>
<!-- Node28&#45;&gt;Node9 -->
<g id="edge30_Node000028_Node000009" class="edge">
<title>Node28&#45;&gt;Node9</title>
<g id="a_edge30_Node000028_Node000009"><a xlink:title=" ">
<path fill="none" stroke="#63b8ff" d="M613.85,-270.7C622.55,-267.19 631.58,-262.79 639.25,-257.45 658.87,-243.77 657.47,-233.45 675.25,-217.45 683.38,-210.13 692.9,-202.88 701.58,-196.71"/>
<polygon fill="#63b8ff" stroke="#63b8ff" points="703.43,-199.68 709.66,-191.11 699.44,-193.93 703.43,-199.68"/>
</a>
</g>
</g>
<!-- Node29 -->
<g id="Node000029" class="node">
<title>Node29</title>
<g id="a_Node000029"><a xlink:href="kest__parameter_8c.html#a7c270a293ab879d0d3e757625c7c7dda" target="_top" xlink:title=" ">
<polygon fill="white" stroke="#666666" points="773,-246.82 684.25,-246.82 684.25,-226.07 773,-226.07 773,-246.82"/>
<text xml:space="preserve" text-anchor="middle" x="728.62" y="-233.32" font-family="Helvetica,sans-Serif" font-size="10.00">init_setting_str</text>
</a>
</g>
</g>
<!-- Node28&#45;&gt;Node29 -->
<g id="edge28_Node000028_Node000029" class="edge">
<title>Node28&#45;&gt;Node29</title>
<g id="a_edge28_Node000028_Node000029"><a xlink:title=" ">
<path fill="none" stroke="#63b8ff" d="M614.6,-270.67C634.49,-264.64 659.52,-257.07 680.96,-250.57"/>
<polygon fill="#63b8ff" stroke="#63b8ff" points="681.8,-253.98 690.35,-247.73 679.77,-247.28 681.8,-253.98"/>
</a>
</g>
</g>
<!-- Node29&#45;&gt;Node8 -->
<g id="edge29_Node000029_Node000008" class="edge">
<title>Node29&#45;&gt;Node8</title>
<g id="a_edge29_Node000029_Node000008"><a xlink:title=" ">
<path fill="none" stroke="#63b8ff" d="M773.16,-242.23C786.24,-243.97 800.89,-245.92 815.05,-247.8"/>
<polygon fill="#63b8ff" stroke="#63b8ff" points="814.39,-251.24 824.76,-249.09 815.31,-244.3 814.39,-251.24"/>
</a>
</g>
</g>
</g>
</svg>

<g id="navigator" transform="translate(0 0)" fill="#404254">
  <rect fill="#f2f5e9" fill-opacity="0.5" stroke="#606060" stroke-width=".5" x="0" y="0" width="60" height="60"/>
  <use id="zoomplus" xlink:href="#zoomPlus" x="17" y="9" onmousedown="handleZoom(evt,'in')"/>
  <use id="zoomminus" xlink:href="#zoomMin" x="42" y="9" onmousedown="handleZoom(evt,'out')"/>
  <use id="reset" xlink:href="#resetDef" x="30" y="36" onmousedown="handleReset()"/>
   <use id="arrowup" xlink:href="#arrowUp" x="0" y="0" onmousedown="handlePan(0,-1)"/>
  <use id="arrowright" xlink:href="#arrowRight" x="0" y="0" onmousedown="handlePan(1,0)"/>
  <use id="arrowdown" xlink:href="#arrowDown" x="0" y="0" onmousedown="handlePan(0,1)"/>
  <use id="arrowleft" xlink:href="#arrowLeft" x="0" y="0" onmousedown="handlePan(-1,0)"/>
</g>
<svg viewBox="0 0 15 15" width="100%" height="30px" preserveAspectRatio="xMaxYMin meet">
 <g id="arrow_out" transform="scale(0.3 0.3)">
  <a xlink:href="kest__effect_8c_a85b25e44e2629962673634f965ffe304_cgraph_org.svg" target="_base">
   <rect id="button" ry="5" rx="5" y="6" x="6" height="38" width="38"
        fill="#f2f5e9" fill-opacity="0.5" stroke="#606060" stroke-width="1.0"/>
   <path id="arrow"
     d="M 11.500037,31.436501 C 11.940474,20.09759 22.043105,11.32322 32.158766,21.979434 L 37.068811,17.246167 C 37.068811,17.246167 37.088388,32 37.088388,32 L 22.160133,31.978069 C 22.160133,31.978069 26.997745,27.140456 26.997745,27.140456 C 18.528582,18.264221 13.291696,25.230495 11.500037,31.436501 z"
     style="fill:#404040;"/>
  </a>
 </g>
</svg>

<style type='text/css'>
<![CDATA[
[data-mouse-over-selected='false'] { opacity: 0.7; }
[data-mouse-over-selected='true']  { opacity: 1.0; }
]]>
</style>
<script type="application/ecmascript"><![CDATA[
document.addEventListener('DOMContentLoaded', (event) => {
  highlightEdges();
  highlightAdjacentNodes();
});
]]></script>
</svg>
