<?xml version="1.0" encoding="UTF-8" standalone="no"?>
<!DOCTYPE svg PUBLIC "-//W3C//DTD SVG 1.1//EN"
 "http://www.w3.org/Graphics/SVG/1.1/DTD/svg11.dtd">
<!-- Generated by graphviz version 13.1.2 (20250808.2320)
 -->
<!-- Title: ui_page_add_bottom_button Pages: 1 -->
<svg width="390pt" height="87pt"
 viewBox="0.00 0.00 390.00 87.00" xmlns="http://www.w3.org/2000/svg" xmlns:xlink="http://www.w3.org/1999/xlink">
<g id="graph0" class="graph" transform="scale(1 1) rotate(0) translate(4 82.75)">
<title>ui_page_add_bottom_button</title>
<!-- Node1 -->
<g id="Node000001" class="node">
<title>Node1</title>
<g id="a_Node000001"><a xlink:title=" ">
<polygon fill="#999999" stroke="#666666" points="118,-65.12 0,-65.12 0,-31.62 118,-31.62 118,-65.12"/>
<text xml:space="preserve" text-anchor="start" x="8" y="-51.62" font-family="Helvetica,sans-Serif" font-size="10.00">ui_page_add_bottom</text>
<text xml:space="preserve" text-anchor="middle" x="59" y="-38.88" font-family="Helvetica,sans-Serif" font-size="10.00">_button</text>
</a>
</g>
</g>
<!-- Node2 -->
<g id="Node000002" class="node">
<title>Node2</title>
<g id="a_Node000002"><a xlink:href="kest__button_8c.html#aa59f296fa9f9744c9753f81484085a15" target="_top" xlink:title=" ">
<polygon fill="white" stroke="#666666" points="277.25,-78.75 154,-78.75 154,-58 277.25,-58 277.25,-78.75"/>
<text xml:space="preserve" text-anchor="middle" x="215.62" y="-65.25" font-family="Helvetica,sans-Serif" font-size="10.00">button_set_clicked_cb</text>
</a>
</g>
</g>
<!-- Node1&#45;&gt;Node2 -->
<g id="edge1_Node000001_Node000002" class="edge">
<title>Node1&#45;&gt;Node2</title>
<g id="a_edge1_Node000001_Node000002"><a xlink:title=" ">
<path fill="none" stroke="#63b8ff" d="M118.46,-55.94C126.25,-56.94 134.31,-57.99 142.3,-59.02"/>
<polygon fill="#63b8ff" stroke="#63b8ff" points="141.64,-62.46 152.01,-60.28 142.54,-55.52 141.64,-62.46"/>
</a>
</g>
</g>
<!-- Node3 -->
<g id="Node000003" class="node">
<title>Node3</title>
<g id="a_Node000003"><a xlink:href="kest__button_8c.html#afd8846ca469218a65279da29ad72e29b" target="_top" xlink:title=" ">
<polygon fill="white" stroke="#666666" points="252.12,-39.75 179.12,-39.75 179.12,-19 252.12,-19 252.12,-39.75"/>
<text xml:space="preserve" text-anchor="middle" x="215.62" y="-26.25" font-family="Helvetica,sans-Serif" font-size="10.00">new_button</text>
</a>
</g>
</g>
<!-- Node1&#45;&gt;Node3 -->
<g id="edge2_Node000001_Node000003" class="edge">
<title>Node1&#45;&gt;Node3</title>
<g id="a_edge2_Node000001_Node000003"><a xlink:title=" ">
<path fill="none" stroke="#63b8ff" d="M118.46,-41.19C134.68,-39.2 152.08,-37.06 167.55,-35.16"/>
<polygon fill="#63b8ff" stroke="#63b8ff" points="167.97,-38.63 177.46,-33.94 167.11,-31.69 167.97,-38.63"/>
</a>
</g>
</g>
<!-- Node4 -->
<g id="Node000004" class="node">
<title>Node4</title>
<g id="a_Node000004"><a xlink:href="kest__button_8c.html#a20604a0eb74819a9747753ccfdb24e6c" target="_top" xlink:title=" ">
<polygon fill="white" stroke="#666666" points="381.75,-59.75 313.25,-59.75 313.25,-39 381.75,-39 381.75,-59.75"/>
<text xml:space="preserve" text-anchor="middle" x="347.5" y="-46.25" font-family="Helvetica,sans-Serif" font-size="10.00">init_button</text>
</a>
</g>
</g>
<!-- Node3&#45;&gt;Node4 -->
<g id="edge3_Node000003_Node000004" class="edge">
<title>Node3&#45;&gt;Node4</title>
<g id="a_edge3_Node000003_Node000004"><a xlink:title=" ">
<path fill="none" stroke="#63b8ff" d="M252.46,-34.89C267.68,-37.24 285.6,-40 301.69,-42.47"/>
<polygon fill="#63b8ff" stroke="#63b8ff" points="301.1,-45.93 311.52,-43.99 302.17,-39.01 301.1,-45.93"/>
</a>
</g>
</g>
<!-- Node5 -->
<g id="Node000005" class="node">
<title>Node5</title>
<g id="a_Node000005"><a xlink:href="kest__alloc_8c.html#a849755c5dc5b35e712ffcdb602e50fb4" target="_top" xlink:title=" ">
<polygon fill="white" stroke="#666666" points="379.88,-20.75 315.12,-20.75 315.12,0 379.88,0 379.88,-20.75"/>
<text xml:space="preserve" text-anchor="middle" x="347.5" y="-7.25" font-family="Helvetica,sans-Serif" font-size="10.00">kest_alloc</text>
</a>
</g>
</g>
<!-- Node3&#45;&gt;Node5 -->
<g id="edge4_Node000003_Node000005" class="edge">
<title>Node3&#45;&gt;Node5</title>
<g id="a_edge4_Node000003_Node000005"><a xlink:title=" ">
<path fill="none" stroke="#63b8ff" d="M252.46,-24.13C268.32,-21.81 287.1,-19.06 303.69,-16.64"/>
<polygon fill="#63b8ff" stroke="#63b8ff" points="303.88,-20.15 313.27,-15.24 302.87,-13.22 303.88,-20.15"/>
</a>
</g>
</g>
</g>
</svg>
