<?xml version="1.0" encoding="UTF-8" standalone="no"?>
<!DOCTYPE svg PUBLIC "-//W3C//DTD SVG 1.1//EN"
 "http://www.w3.org/Graphics/SVG/1.1/DTD/svg11.dtd">
<!-- Generated by graphviz version 13.1.2 (20250808.2320)
 -->
<!-- Title: kest_expression_detect_constants Pages: 1 -->
<svg width="470pt" height="82pt"
 viewBox="0.00 0.00 470.00 82.00" xmlns="http://www.w3.org/2000/svg" xmlns:xlink="http://www.w3.org/1999/xlink">
<g id="graph0" class="graph" transform="scale(1 1) rotate(0) translate(4 77.5)">
<title>kest_expression_detect_constants</title>
<!-- Node1 -->
<g id="Node000001" class="node">
<title>Node1</title>
<g id="a_Node000001"><a xlink:title=" ">
<polygon fill="#999999" stroke="#666666" points="130.75,-55.5 0,-55.5 0,-22 130.75,-22 130.75,-55.5"/>
<text xml:space="preserve" text-anchor="start" x="8" y="-42" font-family="Helvetica,sans-Serif" font-size="10.00">kest_expression_detect</text>
<text xml:space="preserve" text-anchor="middle" x="65.38" y="-29.25" font-family="Helvetica,sans-Serif" font-size="10.00">_constants</text>
</a>
</g>
</g>
<!-- Node2 -->
<g id="Node000002" class="node">
<title>Node2</title>
<g id="a_Node000002"><a xlink:href="kest__expression_8c.html#a620430bdb724fe4055dd713964c5be27" target="_top" xlink:title=" ">
<polygon fill="white" stroke="#666666" points="297.5,-55.5 166.75,-55.5 166.75,-22 297.5,-22 297.5,-55.5"/>
<text xml:space="preserve" text-anchor="start" x="174.75" y="-42" font-family="Helvetica,sans-Serif" font-size="10.00">kest_expression_detect</text>
<text xml:space="preserve" text-anchor="middle" x="232.12" y="-29.25" font-family="Helvetica,sans-Serif" font-size="10.00">_constants_rec</text>
</a>
</g>
</g>
<!-- Node1&#45;&gt;Node2 -->
<g id="edge1_Node000001_Node000002" class="edge">
<title>Node1&#45;&gt;Node2</title>
<g id="a_edge1_Node000001_Node000002"><a xlink:title=" ">
<path fill="none" stroke="#63b8ff" d="M131.02,-38.75C138.92,-38.75 147.05,-38.75 155.1,-38.75"/>
<polygon fill="#63b8ff" stroke="#63b8ff" points="154.89,-42.25 164.89,-38.75 154.89,-35.25 154.89,-42.25"/>
</a>
</g>
</g>
<!-- Node2&#45;&gt;Node2 -->
<g id="edge3_Node000002_Node000002" class="edge">
<title>Node2&#45;&gt;Node2</title>
<g id="a_edge3_Node000002_Node000002"><a xlink:title=" ">
<path fill="none" stroke="#63b8ff" d="M202.35,-55.91C197.29,-65.12 207.22,-73.5 232.12,-73.5 246.14,-73.5 255.41,-70.85 259.93,-66.89"/>
<polygon fill="#63b8ff" stroke="#63b8ff" points="263.32,-67.86 261.63,-57.4 256.43,-66.63 263.32,-67.86"/>
</a>
</g>
</g>
<!-- Node3 -->
<g id="Node000003" class="node">
<title>Node3</title>
<g id="a_Node000003"><a xlink:href="kest__expression_8c.html#a835e180e79c6b6d2e4377a528949d7a0" target="_top" xlink:title=" ">
<polygon fill="white" stroke="#666666" points="459,-72.12 336.5,-72.12 336.5,-51.38 459,-51.38 459,-72.12"/>
<text xml:space="preserve" text-anchor="middle" x="397.75" y="-58.62" font-family="Helvetica,sans-Serif" font-size="10.00">kest_expression_arity</text>
</a>
</g>
</g>
<!-- Node2&#45;&gt;Node3 -->
<g id="edge2_Node000002_Node000003" class="edge">
<title>Node2&#45;&gt;Node3</title>
<g id="a_edge2_Node000002_Node000003"><a xlink:title=" ">
<path fill="none" stroke="#63b8ff" d="M297.79,-47.84C306.65,-49.09 315.79,-50.37 324.76,-51.63"/>
<polygon fill="#63b8ff" stroke="#63b8ff" points="324.13,-55.08 334.52,-53 325.1,-48.14 324.13,-55.08"/>
</a>
</g>
</g>
<!-- Node4 -->
<g id="Node000004" class="node">
<title>Node4</title>
<g id="a_Node000004"><a xlink:href="kest__expression_8c.html#af12e3464d3e6c4a6e573736af368fd91" target="_top" xlink:title=" ">
<polygon fill="white" stroke="#666666" points="462,-33.5 333.5,-33.5 333.5,0 462,0 462,-33.5"/>
<text xml:space="preserve" text-anchor="start" x="341.5" y="-20" font-family="Helvetica,sans-Serif" font-size="10.00">kest_expression_refers</text>
<text xml:space="preserve" text-anchor="middle" x="397.75" y="-7.25" font-family="Helvetica,sans-Serif" font-size="10.00">_constant</text>
</a>
</g>
</g>
<!-- Node2&#45;&gt;Node4 -->
<g id="edge4_Node000002_Node000004" class="edge">
<title>Node2&#45;&gt;Node4</title>
<g id="a_edge4_Node000002_Node000004"><a xlink:title=" ">
<path fill="none" stroke="#63b8ff" d="M297.79,-30.06C305.69,-28.99 313.8,-27.9 321.83,-26.82"/>
<polygon fill="#63b8ff" stroke="#63b8ff" points="322.14,-30.31 331.59,-25.51 321.21,-23.38 322.14,-30.31"/>
</a>
</g>
</g>
</g>
</svg>
