<?xml version="1.0" encoding="UTF-8" standalone="no"?>
<!DOCTYPE svg PUBLIC "-//W3C//DTD SVG 1.1//EN"
 "http://www.w3.org/Graphics/SVG/1.1/DTD/svg11.dtd">
<!-- Generated by graphviz version 13.1.2 (20250808.2320)
 -->
<!-- Title: kest_parse_dictionary Pages: 1 -->
<!--zoomable 1027 -->

<svg id="main" version="1.1" xmlns="http://www.w3.org/2000/svg" xmlns:xlink="http://www.w3.org/1999/xlink" xml:space="preserve" onload="init(evt)">

<style type="text/css"><![CDATA[
.node, .edge {opacity: 0.7;}
.node.selected, .edge.selected {opacity: 1;}
.edge:hover path { stroke: red; }
.edge:hover polygon { stroke: red; fill: red; }
]]></style>

<defs>
  <circle id="rim" cx="0" cy="0" r="7"/>
  <circle id="rim2" cx="0" cy="0" r="3.5"/>
  <g id="zoomPlus">
    <use xlink:href="#rim" fill="#404040"><set attributeName="fill" to="#808080" begin="zoomplus.mouseover" end="zoomplus.mouseout"/></use>
    <path d="M-4,0h8M0,-4v8" fill="none" stroke="white" stroke-width="1.5" pointer-events="none"/>
  </g>
  <g id="zoomMin">
    <use xlink:href="#rim" fill="#404040"><set attributeName="fill" to="#808080" begin="zoomminus.mouseover" end="zoomminus.mouseout"/></use>
    <path d="M-4,0h8" fill="none" stroke="white" stroke-width="1.5" pointer-events="none"/>
  </g>
  <g id="arrowUp" transform="translate(30 24)">
    <use xlink:href="#rim"/>
    <path pointer-events="none" fill="none" stroke="white" stroke-width="1.5" d="M0,-3.0v7 M-2.5,-0.5L0,-3.0L2.5,-0.5"/>
  </g>
  <g id="arrowRight" transform="rotate(90) translate(36 -43)">
    <use xlink:href="#rim"/>
    <path pointer-events="none" fill="none" stroke="white" stroke-width="1.5" d="M0,-3.0v7 M-2.5,-0.5L0,-3.0L2.5,-0.5"/>
  </g>
  <g id="arrowDown" transform="rotate(180) translate(-30 -48)">
    <use xlink:href="#rim"/>
    <path pointer-events="none" fill="none" stroke="white" stroke-width="1.5" d="M0,-3.0v7 M-2.5,-0.5L0,-3.0L2.5,-0.5"/>
  </g>
  <g id="arrowLeft" transform="rotate(270) translate(-36 17)">
    <use xlink:href="#rim"/>
    <path pointer-events="none" fill="none" stroke="white" stroke-width="1.5" d="M0,-3.0v7 M-2.5,-0.5L0,-3.0L2.5,-0.5"/>
  </g>
  <g id="resetDef">
    <use xlink:href="#rim2" fill="#404040"><set attributeName="fill" to="#808080" begin="reset.mouseover" end="reset.mouseout"/></use>
  </g>
</defs>
<script type="application/ecmascript">
var viewWidth = 1099;
var viewHeight = 1027;
var sectionId = 'dynsection-55';
</script>
<script type="application/ecmascript" xlink:href="svg.min.js"/>
<svg id="graph" class="graph">
<g id="viewport">
<title>kest_parse_dictionary</title>
<!-- Node1 -->
<g id="Node000001" class="node">
<title>Node1</title>
<g id="a_Node000001"><a xlink:title=" ">
<polygon fill="#999999" stroke="#666666" points="122.5,-392.75 0,-392.75 0,-372 122.5,-372 122.5,-392.75"/>
<text xml:space="preserve" text-anchor="middle" x="61.25" y="-379.25" font-family="Helvetica,sans-Serif" font-size="10.00">kest_parse_dictionary</text>
</a>
</g>
</g>
<!-- Node2 -->
<g id="Node000002" class="node">
<title>Node2</title>
<g id="a_Node000002"><a xlink:href="kest__dictionary_8c.html#acc0b5644c510feefba50797abb9f3d87" target="_top" xlink:title=" ">
<polygon fill="white" stroke="#666666" points="617.12,-939.12 503.62,-939.12 503.62,-905.62 617.12,-905.62 617.12,-939.12"/>
<text xml:space="preserve" text-anchor="start" x="511.62" y="-925.62" font-family="Helvetica,sans-Serif" font-size="10.00">kest_dictionary_add</text>
<text xml:space="preserve" text-anchor="middle" x="560.38" y="-912.88" font-family="Helvetica,sans-Serif" font-size="10.00">_entry</text>
</a>
</g>
</g>
<!-- Node1&#45;&gt;Node2 -->
<g id="edge1_Node000001_Node000002" class="edge">
<title>Node1&#45;&gt;Node2</title>
<g id="a_edge1_Node000001_Node000002"><a xlink:title=" ">
<path fill="none" stroke="#63b8ff" d="M69.59,-393.11C96.65,-431.83 195.26,-565.61 310.25,-632.38 369.45,-666.75 413.16,-621.53 459,-672.38 526.52,-747.26 432.14,-817.54 495,-896.38 495.34,-896.8 495.68,-897.22 496.04,-897.63"/>
<polygon fill="#63b8ff" stroke="#63b8ff" points="493.58,-900.13 503.34,-904.27 498.3,-894.95 493.58,-900.13"/>
</a>
</g>
</g>
<!-- Node8 -->
<g id="Node000008" class="node">
<title>Node8</title>
<g id="a_Node000008"><a xlink:href="kest__dictionary_8c.html#aa3d79179f434138316e0d3a4c7315ace" target="_top" xlink:title=" ">
<polygon fill="white" stroke="#666666" points="274.25,-865.75 158.5,-865.75 158.5,-845 274.25,-845 274.25,-865.75"/>
<text xml:space="preserve" text-anchor="middle" x="216.38" y="-852.25" font-family="Helvetica,sans-Serif" font-size="10.00">kest_new_dictionary</text>
</a>
</g>
</g>
<!-- Node1&#45;&gt;Node8 -->
<g id="edge7_Node000001_Node000008" class="edge">
<title>Node1&#45;&gt;Node8</title>
<g id="a_edge7_Node000001_Node000008"><a xlink:title=" ">
<path fill="none" stroke="#63b8ff" d="M65.13,-393.06C76.2,-433.9 117.46,-583.98 158.5,-705.38 174.18,-751.75 195.14,-805.16 206.74,-834.08"/>
<polygon fill="#63b8ff" stroke="#63b8ff" points="203.41,-835.19 210.4,-843.15 209.9,-832.57 203.41,-835.19"/>
</a>
</g>
</g>
<!-- Node10 -->
<g id="Node000010" class="node">
<title>Node10</title>
<g id="a_Node000010"><a xlink:href="kest__dictionary_8c.html#af0aceaa93cba06fd44ad4bc50f2418e4" target="_top" xlink:title=" ">
<polygon fill="white" stroke="#666666" points="272.38,-453.75 160.38,-453.75 160.38,-433 272.38,-433 272.38,-453.75"/>
<text xml:space="preserve" text-anchor="middle" x="216.38" y="-440.25" font-family="Helvetica,sans-Serif" font-size="10.00">kest_parse_dict_val</text>
</a>
</g>
</g>
<!-- Node1&#45;&gt;Node10 -->
<g id="edge10_Node000001_Node000010" class="edge">
<title>Node1&#45;&gt;Node10</title>
<g id="a_edge10_Node000001_Node000010"><a xlink:title=" ">
<path fill="none" stroke="#63b8ff" d="M104.9,-393.24C131.95,-402.95 166.06,-416.84 189.18,-427.71"/>
<polygon fill="#63b8ff" stroke="#63b8ff" points="187.37,-430.72 197.9,-431.95 190.44,-424.43 187.37,-430.72"/>
</a>
</g>
</g>
<!-- Node32 -->
<g id="Node000032" class="node">
<title>Node32</title>
<g id="a_Node000032"><a xlink:href="kest__tokenizer_8c.html#a80f42a6d7dc2f3a8c6d90aa277211d1d" target="_top" xlink:title=" ">
<polygon fill="white" stroke="#666666" points="623.5,-370.75 497.25,-370.75 497.25,-350 623.5,-350 623.5,-370.75"/>
<text xml:space="preserve" text-anchor="middle" x="560.38" y="-357.25" font-family="Helvetica,sans-Serif" font-size="10.00">kest_token_ll_advance</text>
</a>
</g>
</g>
<!-- Node1&#45;&gt;Node32 -->
<g id="edge57_Node000001_Node000032" class="edge">
<title>Node1&#45;&gt;Node32</title>
<g id="a_edge57_Node000001_Node000032"><a xlink:title=" ">
<path fill="none" stroke="#63b8ff" d="M122.71,-379.7C214.06,-375.66 387.03,-368 485.64,-363.64"/>
<polygon fill="#63b8ff" stroke="#63b8ff" points="485.65,-367.14 495.48,-363.2 485.34,-360.15 485.65,-367.14"/>
</a>
</g>
</g>
<!-- Node33 -->
<g id="Node000033" class="node">
<title>Node33</title>
<g id="a_Node000033"><a xlink:href="kest__tokenizer_8c.html#ac5a6cd7c57f40df38ad2abd938b8b200" target="_top" xlink:title=" ">
<polygon fill="white" stroke="#666666" points="622.38,-256.75 498.38,-256.75 498.38,-236 622.38,-236 622.38,-256.75"/>
<text xml:space="preserve" text-anchor="middle" x="560.38" y="-243.25" font-family="Helvetica,sans-Serif" font-size="10.00">kest_token_ll_skip_ws</text>
</a>
</g>
</g>
<!-- Node1&#45;&gt;Node33 -->
<g id="edge58_Node000001_Node000033" class="edge">
<title>Node1&#45;&gt;Node33</title>
<g id="a_edge58_Node000001_Node000033"><a xlink:title=" ">
<path fill="none" stroke="#63b8ff" d="M80.45,-371.61C120.44,-348.55 219.63,-294.49 310.25,-270.38 368.29,-254.93 436.29,-249.16 486.57,-247.13"/>
<polygon fill="#63b8ff" stroke="#63b8ff" points="486.6,-250.63 496.47,-246.78 486.35,-243.64 486.6,-250.63"/>
</a>
</g>
</g>
<!-- Node44 -->
<g id="Node000044" class="node">
<title>Node44</title>
<g id="a_Node000044"><a xlink:href="kest__eff__parser_8c.html#aee5c1435aac9ead9b0c5c692c7c621ec" target="_top" xlink:title=" ">
<polygon fill="#fff0f0" stroke="red" points="783.5,-141.75 667.75,-141.75 667.75,-121 783.5,-121 783.5,-141.75"/>
<text xml:space="preserve" text-anchor="middle" x="725.62" y="-128.25" font-family="Helvetica,sans-Serif" font-size="10.00">kest_parser_error_at</text>
</a>
</g>
</g>
<!-- Node1&#45;&gt;Node44 -->
<g id="edge55_Node000001_Node000044" class="edge">
<title>Node1&#45;&gt;Node44</title>
<g id="a_edge55_Node000001_Node000044"><a xlink:title=" ">
<path fill="none" stroke="#63b8ff" d="M70.48,-371.79C86.21,-351.98 122.19,-308.59 158.5,-278.38 287.76,-170.81 330.1,-138.36 495,-105.38 551.98,-93.98 568.12,-97.92 625.75,-105.38 644.23,-107.76 664.19,-112.57 681.3,-117.4"/>
<polygon fill="#63b8ff" stroke="#63b8ff" points="680.05,-120.69 690.63,-120.13 682.02,-113.97 680.05,-120.69"/>
</a>
</g>
</g>
<!-- Node52 -->
<g id="Node000052" class="node">
<title>Node52</title>
<g id="a_Node000052"><a xlink:href="kest__tokenizer_8c.html#a713c477a645ef8a6abfd4cb4e257b53c" target="_top" xlink:title=" ">
<polygon fill="#fff0f0" stroke="red" points="770.38,-80.75 680.88,-80.75 680.88,-60 770.38,-60 770.38,-80.75"/>
<text xml:space="preserve" text-anchor="middle" x="725.62" y="-67.25" font-family="Helvetica,sans-Serif" font-size="10.00">token_is_name</text>
</a>
</g>
</g>
<!-- Node1&#45;&gt;Node52 -->
<g id="edge59_Node000001_Node000052" class="edge">
<title>Node1&#45;&gt;Node52</title>
<g id="a_edge59_Node000001_Node000052"><a xlink:title=" ">
<path fill="none" stroke="#63b8ff" d="M64.74,-371.93C72.86,-339.92 101.39,-241.86 158.5,-184.38 297.35,-44.61 556.59,-52.24 669.6,-63.34"/>
<polygon fill="#63b8ff" stroke="#63b8ff" points="668.9,-66.78 679.21,-64.33 669.62,-59.82 668.9,-66.78"/>
</a>
</g>
</g>
<!-- Node59 -->
<g id="Node000059" class="node">
<title>Node59</title>
<g id="a_Node000059"><a xlink:href="kest__eff__parser_8c.html#a06afc65a973778a4d6bd160064e72253" target="_top" xlink:title=" ">
<polygon fill="white" stroke="#666666" points="441.75,-701.75 327.5,-701.75 327.5,-681 441.75,-681 441.75,-701.75"/>
<text xml:space="preserve" text-anchor="middle" x="384.62" y="-688.25" font-family="Helvetica,sans-Serif" font-size="10.00">kest_parser_strndup</text>
</a>
</g>
</g>
<!-- Node1&#45;&gt;Node59 -->
<g id="edge56_Node000001_Node000059" class="edge">
<title>Node1&#45;&gt;Node59</title>
<g id="a_edge56_Node000001_Node000059"><a xlink:title=" ">
<path fill="none" stroke="#63b8ff" d="M62.11,-393.14C62.17,-435.96 68.64,-595.36 158.5,-667.38 202.23,-702.42 267.07,-705.88 315.95,-702.06"/>
<polygon fill="#63b8ff" stroke="#63b8ff" points="316.24,-705.55 325.87,-701.15 315.6,-698.57 316.24,-705.55"/>
</a>
</g>
</g>
<!-- Node61 -->
<g id="Node000061" class="node">
<title>Node61</title>
<g id="a_Node000061"><a xlink:href="kest__eff__parser_8c.html#abf2c14dab3ed7e069ad5083b160b16da" target="_top" xlink:title=" ">
<polygon fill="white" stroke="#666666" points="266.75,-20.75 166,-20.75 166,0 266.75,0 266.75,-20.75"/>
<text xml:space="preserve" text-anchor="middle" x="216.38" y="-7.25" font-family="Helvetica,sans-Serif" font-size="10.00">kest_parser_error</text>
</a>
</g>
</g>
<!-- Node1&#45;&gt;Node61 -->
<g id="edge54_Node000001_Node000061" class="edge">
<title>Node1&#45;&gt;Node61</title>
<g id="a_edge54_Node000001_Node000061"><a xlink:title=" ">
<path fill="none" stroke="#63b8ff" d="M62.04,-371.75C61.68,-325.52 66.26,-139.41 158.5,-34.38 160.94,-31.6 163.76,-29.13 166.8,-26.95"/>
<polygon fill="#63b8ff" stroke="#63b8ff" points="168.37,-30.08 175.18,-21.96 164.79,-24.07 168.37,-30.08"/>
</a>
</g>
</g>
<!-- Node3 -->
<g id="Node000003" class="node">
<title>Node3</title>
<g id="a_Node000003"><a xlink:href="kest__dictionary_8c.html#a674edf8d06b6583a366c336ec755c20e" target="_top" xlink:title=" ">
<polygon fill="white" stroke="#666666" points="789.5,-903.12 661.75,-903.12 661.75,-869.62 789.5,-869.62 789.5,-903.12"/>
<text xml:space="preserve" text-anchor="start" x="669.75" y="-889.62" font-family="Helvetica,sans-Serif" font-size="10.00">kest_dictionary_bucket</text>
<text xml:space="preserve" text-anchor="middle" x="725.62" y="-876.88" font-family="Helvetica,sans-Serif" font-size="10.00">_add_entry</text>
</a>
</g>
</g>
<!-- Node2&#45;&gt;Node3 -->
<g id="edge2_Node000002_Node000003" class="edge">
<title>Node2&#45;&gt;Node3</title>
<g id="a_edge2_Node000002_Node000003"><a xlink:title=" ">
<path fill="none" stroke="#63b8ff" d="M617.56,-909.99C628.14,-907.65 639.36,-905.18 650.39,-902.74"/>
<polygon fill="#63b8ff" stroke="#63b8ff" points="650.85,-906.23 659.86,-900.66 649.34,-899.39 650.85,-906.23"/>
</a>
</g>
</g>
<!-- Node7 -->
<g id="Node000007" class="node">
<title>Node7</title>
<g id="a_Node000007"><a xlink:href="kest__dictionary_8c.html#ab04009ad2902fc35ca82579760556eb5" target="_top" xlink:title=" ">
<polygon fill="white" stroke="#666666" points="954,-953.12 825.5,-953.12 825.5,-919.62 954,-919.62 954,-953.12"/>
<text xml:space="preserve" text-anchor="start" x="833.5" y="-939.62" font-family="Helvetica,sans-Serif" font-size="10.00">kest_dictionary_ensure</text>
<text xml:space="preserve" text-anchor="middle" x="889.75" y="-926.88" font-family="Helvetica,sans-Serif" font-size="10.00">_capacity</text>
</a>
</g>
</g>
<!-- Node2&#45;&gt;Node7 -->
<g id="edge5_Node000002_Node000007" class="edge">
<title>Node2&#45;&gt;Node7</title>
<g id="a_edge5_Node000002_Node000007"><a xlink:title=" ">
<path fill="none" stroke="#63b8ff" d="M617.28,-924.77C671.5,-927.08 754.11,-930.62 813.96,-933.18"/>
<polygon fill="#63b8ff" stroke="#63b8ff" points="813.58,-936.66 823.72,-933.59 813.88,-929.67 813.58,-936.66"/>
</a>
</g>
</g>
<!-- Node4 -->
<g id="Node000004" class="node">
<title>Node4</title>
<g id="a_Node000004"><a xlink:href="kest__dictionary_8c.html#acd9014ad851b1e82c27acf4d4b4bd13e" target="_top" xlink:title=" ">
<polygon fill="white" stroke="#666666" points="953.62,-901.12 825.88,-901.12 825.88,-867.62 953.62,-867.62 953.62,-901.12"/>
<text xml:space="preserve" text-anchor="start" x="833.88" y="-887.62" font-family="Helvetica,sans-Serif" font-size="10.00">kest_dictionary_bucket</text>
<text xml:space="preserve" text-anchor="middle" x="889.75" y="-874.88" font-family="Helvetica,sans-Serif" font-size="10.00">_ensure_capacity</text>
</a>
</g>
</g>
<!-- Node3&#45;&gt;Node4 -->
<g id="edge3_Node000003_Node000004" class="edge">
<title>Node3&#45;&gt;Node4</title>
<g id="a_edge3_Node000003_Node000004"><a xlink:title=" ">
<path fill="none" stroke="#63b8ff" d="M789.77,-885.6C797.75,-885.5 805.97,-885.4 814.1,-885.3"/>
<polygon fill="#63b8ff" stroke="#63b8ff" points="814.04,-888.8 824,-885.17 813.95,-881.8 814.04,-888.8"/>
</a>
</g>
</g>
<!-- Node5 -->
<g id="Node000005" class="node">
<title>Node5</title>
<g id="a_Node000005"><a xlink:href="kest__eff__parser_8c.html#ae0a87c76dcbf2248bb57755c7e76c08d" target="_top" xlink:title=" ">
<polygon fill="#fff0f0" stroke="red" points="1090.75,-946.75 990,-946.75 990,-926 1090.75,-926 1090.75,-946.75"/>
<text xml:space="preserve" text-anchor="middle" x="1040.38" y="-933.25" font-family="Helvetica,sans-Serif" font-size="10.00">kest_parser_alloc</text>
</a>
</g>
</g>
<!-- Node4&#45;&gt;Node5 -->
<g id="edge4_Node000004_Node000005" class="edge">
<title>Node4&#45;&gt;Node5</title>
<g id="a_edge4_Node000004_Node000005"><a xlink:title=" ">
<path fill="none" stroke="#63b8ff" d="M939.83,-901.55C958.59,-908.11 979.79,-915.53 997.79,-921.83"/>
<polygon fill="#63b8ff" stroke="#63b8ff" points="996.51,-925.09 1007.11,-925.09 998.83,-918.48 996.51,-925.09"/>
</a>
</g>
</g>
<!-- Node7&#45;&gt;Node5 -->
<g id="edge6_Node000007_Node000005" class="edge">
<title>Node7&#45;&gt;Node5</title>
<g id="a_edge6_Node000007_Node000005"><a xlink:title=" ">
<path fill="none" stroke="#63b8ff" d="M954.21,-936.38C962.16,-936.38 970.28,-936.38 978.2,-936.38"/>
<polygon fill="#63b8ff" stroke="#63b8ff" points="978.09,-939.88 988.09,-936.38 978.09,-932.88 978.09,-939.88"/>
</a>
</g>
</g>
<!-- Node8&#45;&gt;Node5 -->
<g id="edge9_Node000008_Node000005" class="edge">
<title>Node8&#45;&gt;Node5</title>
<g id="a_edge9_Node000008_Node000005"><a xlink:title=" ">
<path fill="none" stroke="#63b8ff" d="M229.4,-866.14C271.45,-902.62 417.14,-1019.38 559.38,-1019.38 559.38,-1019.38 559.38,-1019.38 726.62,-1019.38 828.87,-1019.38 857.35,-1017.74 954,-984.38 975.7,-976.88 998.25,-963.95 1014.72,-953.39"/>
<polygon fill="#63b8ff" stroke="#63b8ff" points="1016.44,-956.45 1022.87,-948.03 1012.59,-950.6 1016.44,-956.45"/>
</a>
</g>
</g>
<!-- Node9 -->
<g id="Node000009" class="node">
<title>Node9</title>
<g id="a_Node000009"><a xlink:href="kest__dictionary_8c.html#ac839aed3efe7ed86374a081ccb6263ad" target="_top" xlink:title=" ">
<polygon fill="white" stroke="#666666" points="459,-865.75 310.25,-865.75 310.25,-845 459,-845 459,-865.75"/>
<text xml:space="preserve" text-anchor="middle" x="384.62" y="-852.25" font-family="Helvetica,sans-Serif" font-size="10.00">kest_dictionary_bucket_init</text>
</a>
</g>
</g>
<!-- Node8&#45;&gt;Node9 -->
<g id="edge8_Node000008_Node000009" class="edge">
<title>Node8&#45;&gt;Node9</title>
<g id="a_edge8_Node000008_Node000009"><a xlink:title=" ">
<path fill="none" stroke="#63b8ff" d="M274.59,-855.38C282.31,-855.38 290.37,-855.38 298.45,-855.38"/>
<polygon fill="#63b8ff" stroke="#63b8ff" points="298.35,-858.88 308.35,-855.38 298.35,-851.88 298.35,-858.88"/>
</a>
</g>
</g>
<!-- Node10&#45;&gt;Node1 -->
<g id="edge40_Node000010_Node000001" class="edge">
<title>Node10&#45;&gt;Node1</title>
<g id="a_edge40_Node000010_Node000001"><a xlink:title=" ">
<path fill="none" stroke="#63b8ff" d="M172.99,-432.6C145.91,-422.89 111.65,-408.95 88.46,-398.05"/>
<polygon fill="#63b8ff" stroke="#63b8ff" points="90.23,-395.02 79.71,-393.79 87.17,-401.31 90.23,-395.02"/>
</a>
</g>
</g>
<!-- Node11 -->
<g id="Node000011" class="node">
<title>Node11</title>
<g id="a_Node000011"><a xlink:href="kest__dictionary_8c.html#a298bc3ea15bffee0e485de36aea099c2" target="_top" xlink:title=" ">
<polygon fill="white" stroke="#666666" points="613,-499.12 507.75,-499.12 507.75,-465.62 613,-465.62 613,-499.12"/>
<text xml:space="preserve" text-anchor="start" x="515.75" y="-485.62" font-family="Helvetica,sans-Serif" font-size="10.00">kest_dict_entry_to</text>
<text xml:space="preserve" text-anchor="middle" x="560.38" y="-472.88" font-family="Helvetica,sans-Serif" font-size="10.00">_string</text>
</a>
</g>
</g>
<!-- Node10&#45;&gt;Node11 -->
<g id="edge11_Node000010_Node000011" class="edge">
<title>Node10&#45;&gt;Node11</title>
<g id="a_edge11_Node000010_Node000011"><a xlink:title=" ">
<path fill="none" stroke="#63b8ff" d="M229.17,-454.07C245.81,-468.34 277.78,-492.93 310.25,-502.38 371.84,-520.28 445.36,-510.84 496.51,-499.66"/>
<polygon fill="#63b8ff" stroke="#63b8ff" points="497.26,-503.08 506.24,-497.45 495.71,-496.26 497.26,-503.08"/>
</a>
</g>
</g>
<!-- Node23 -->
<g id="Node000023" class="node">
<title>Node23</title>
<g id="a_Node000023"><a xlink:href="kest__string_8c.html#ad346e7c1a0b506f7eca9423a05b47f11" target="_top" xlink:title=" ">
<polygon fill="white" stroke="#666666" points="781.25,-423.75 670,-423.75 670,-403 781.25,-403 781.25,-423.75"/>
<text xml:space="preserve" text-anchor="middle" x="725.62" y="-410.25" font-family="Helvetica,sans-Serif" font-size="10.00">kest_string_destroy</text>
</a>
</g>
</g>
<!-- Node10&#45;&gt;Node23 -->
<g id="edge50_Node000010_Node000023" class="edge">
<title>Node10&#45;&gt;Node23</title>
<g id="a_edge50_Node000010_Node000023"><a xlink:title=" ">
<path fill="none" stroke="#63b8ff" d="M229.3,-432.54C246.08,-417.9 278.22,-392.07 310.25,-378.38 387.25,-345.45 411.67,-349.64 495,-341.38 552.83,-335.64 570.49,-323.39 625.75,-341.38 657.85,-351.82 688.22,-377.06 706.62,-394.69"/>
<polygon fill="#63b8ff" stroke="#63b8ff" points="704,-397.03 713.57,-401.57 708.93,-392.05 704,-397.03"/>
</a>
</g>
</g>
<!-- Node25 -->
<g id="Node000025" class="node">
<title>Node25</title>
<g id="a_Node000025"><a xlink:href="kest__alloc_8c.html#a294af5728a94aa316fcf65304d388d48" target="_top" xlink:title=" ">
<polygon fill="white" stroke="#666666" points="590.88,-887.75 529.88,-887.75 529.88,-867 590.88,-867 590.88,-887.75"/>
<text xml:space="preserve" text-anchor="middle" x="560.38" y="-874.25" font-family="Helvetica,sans-Serif" font-size="10.00">kest_free</text>
</a>
</g>
</g>
<!-- Node10&#45;&gt;Node25 -->
<g id="edge21_Node000010_Node000025" class="edge">
<title>Node10&#45;&gt;Node25</title>
<g id="a_edge21_Node000010_Node000025"><a xlink:title=" ">
<path fill="none" stroke="#63b8ff" d="M220.8,-454.15C230.26,-482.11 259.42,-557.47 310.25,-596.38 364.9,-638.2 413.21,-588 459,-639.38 523.18,-711.37 433.59,-779.01 495,-853.38 501.1,-860.76 509.71,-865.88 518.66,-869.42"/>
<polygon fill="#63b8ff" stroke="#63b8ff" points="517.56,-872.74 528.15,-872.53 519.74,-866.09 517.56,-872.74"/>
</a>
</g>
</g>
<!-- Node26 -->
<g id="Node000026" class="node">
<title>Node26</title>
<g id="a_Node000026"><a xlink:href="kest__dictionary_8c.html#a8db4f9c511b00d7240052135e9c1ed67" target="_top" xlink:title=" ">
<polygon fill="white" stroke="#666666" points="440.62,-587.75 328.62,-587.75 328.62,-567 440.62,-567 440.62,-587.75"/>
<text xml:space="preserve" text-anchor="middle" x="384.62" y="-574.25" font-family="Helvetica,sans-Serif" font-size="10.00">kest_parse_dict_list</text>
</a>
</g>
</g>
<!-- Node10&#45;&gt;Node26 -->
<g id="edge22_Node000010_Node000026" class="edge">
<title>Node10&#45;&gt;Node26</title>
<g id="a_edge22_Node000010_Node000026"><a xlink:title=" ">
<path fill="none" stroke="#63b8ff" d="M230.69,-454.19C247.53,-472.35 278.2,-507.66 310.25,-531.38 326.21,-543.19 346.51,-553.1 361.71,-561.12"/>
<polygon fill="#63b8ff" stroke="#63b8ff" points="359.97,-564.16 370.42,-565.91 363.34,-558.02 359.97,-564.16"/>
</a>
</g>
</g>
<!-- Node30 -->
<g id="Node000030" class="node">
<title>Node30</title>
<g id="a_Node000030"><a xlink:href="kest__string_8c.html#a476a3ace857a6df4b94057b078a5bcb3" target="_top" xlink:title=" ">
<polygon fill="#fff0f0" stroke="red" points="620.5,-409.75 500.25,-409.75 500.25,-389 620.5,-389 620.5,-409.75"/>
<text xml:space="preserve" text-anchor="middle" x="560.38" y="-396.25" font-family="Helvetica,sans-Serif" font-size="10.00">kest_string_to_native</text>
</a>
</g>
</g>
<!-- Node10&#45;&gt;Node30 -->
<g id="edge51_Node000010_Node000030" class="edge">
<title>Node10&#45;&gt;Node30</title>
<g id="a_edge51_Node000010_Node000030"><a xlink:title=" ">
<path fill="none" stroke="#63b8ff" d="M241.83,-454.23C287.19,-472.66 386.37,-504.76 459,-469.38 482.34,-458 474.05,-438.71 495,-423.38 499.4,-420.15 504.28,-417.32 509.33,-414.83"/>
<polygon fill="#63b8ff" stroke="#63b8ff" points="510.71,-418.05 518.45,-410.82 507.89,-411.64 510.71,-418.05"/>
</a>
</g>
</g>
<!-- Node10&#45;&gt;Node32 -->
<g id="edge52_Node000010_Node000032" class="edge">
<title>Node10&#45;&gt;Node32</title>
<g id="a_edge52_Node000010_Node000032"><a xlink:title=" ">
<path fill="none" stroke="#63b8ff" d="M254.32,-432.59C271.31,-427.75 291.75,-422.08 310.25,-417.38 373.81,-401.22 447.03,-384.71 497.57,-373.65"/>
<polygon fill="#63b8ff" stroke="#63b8ff" points="498.12,-377.11 507.15,-371.56 496.63,-370.27 498.12,-377.11"/>
</a>
</g>
</g>
<!-- Node34 -->
<g id="Node000034" class="node">
<title>Node34</title>
<g id="a_Node000034"><a xlink:href="kest__expr__parser_8c.html#a7caaee6c8b0c14b3ff08fba98d837ead" target="_top" xlink:title=" ">
<polygon fill="white" stroke="#666666" points="448.12,-211.75 321.12,-211.75 321.12,-191 448.12,-191 448.12,-211.75"/>
<text xml:space="preserve" text-anchor="middle" x="384.62" y="-198.25" font-family="Helvetica,sans-Serif" font-size="10.00">kest_parse_expression</text>
</a>
</g>
</g>
<!-- Node10&#45;&gt;Node34 -->
<g id="edge41_Node000010_Node000034" class="edge">
<title>Node10&#45;&gt;Node34</title>
<g id="a_edge41_Node000010_Node000034"><a xlink:title=" ">
<path fill="none" stroke="#63b8ff" d="M221.73,-432.53C233.41,-404.16 267.51,-326.09 310.25,-270.38 325.11,-251.01 345.58,-232.24 361.13,-219.19"/>
<polygon fill="#63b8ff" stroke="#63b8ff" points="362.96,-222.21 368.46,-213.16 358.51,-216.8 362.96,-222.21"/>
</a>
</g>
</g>
<!-- Node10&#45;&gt;Node44 -->
<g id="edge47_Node000010_Node000044" class="edge">
<title>Node10&#45;&gt;Node44</title>
<g id="a_edge47_Node000010_Node000044"><a xlink:title=" ">
<path fill="none" stroke="#63b8ff" d="M223.8,-432.7C237.12,-411.55 269.86,-364.32 310.25,-340.38 434.22,-266.87 505.53,-344.87 625.75,-265.38 669.16,-236.67 700.41,-182.08 715.13,-152.2"/>
<polygon fill="#63b8ff" stroke="#63b8ff" points="718.17,-153.96 719.31,-143.43 711.85,-150.96 718.17,-153.96"/>
</a>
</g>
</g>
<!-- Node10&#45;&gt;Node59 -->
<g id="edge48_Node000010_Node000059" class="edge">
<title>Node10&#45;&gt;Node59</title>
<g id="a_edge48_Node000010_Node000059"><a xlink:title=" ">
<path fill="none" stroke="#63b8ff" d="M220.9,-453.88C231.23,-483.63 263.63,-570.07 310.25,-629.38 323.91,-646.75 343.08,-662.75 358.41,-674.14"/>
<polygon fill="#63b8ff" stroke="#63b8ff" points="355.98,-676.71 366.14,-679.72 360.08,-671.03 355.98,-676.71"/>
</a>
</g>
</g>
<!-- Node60 -->
<g id="Node000060" class="node">
<title>Node60</title>
<g id="a_Node000060"><a xlink:href="kest__tokenizer_8c.html#a771250b5b92e15569b913f03fecc1fb2" target="_top" xlink:title=" ">
<polygon fill="white" stroke="#666666" points="439.88,-460.12 329.38,-460.12 329.38,-426.62 439.88,-426.62 439.88,-460.12"/>
<text xml:space="preserve" text-anchor="start" x="337.38" y="-446.62" font-family="Helvetica,sans-Serif" font-size="10.00">token_is_dict_entry</text>
<text xml:space="preserve" text-anchor="middle" x="384.62" y="-433.88" font-family="Helvetica,sans-Serif" font-size="10.00">_seperator</text>
</a>
</g>
</g>
<!-- Node10&#45;&gt;Node60 -->
<g id="edge53_Node000010_Node000060" class="edge">
<title>Node10&#45;&gt;Node60</title>
<g id="a_edge53_Node000010_Node000060"><a xlink:title=" ">
<path fill="none" stroke="#63b8ff" d="M272.73,-443.38C287.19,-443.38 302.9,-443.38 317.84,-443.38"/>
<polygon fill="#63b8ff" stroke="#63b8ff" points="317.56,-446.88 327.56,-443.38 317.56,-439.88 317.56,-446.88"/>
</a>
</g>
</g>
<!-- Node11&#45;&gt;Node11 -->
<g id="edge13_Node000011_Node000011" class="edge">
<title>Node11&#45;&gt;Node11</title>
<g id="a_edge13_Node000011_Node000011"><a xlink:title=" ">
<path fill="none" stroke="#63b8ff" d="M530.67,-499.54C525.62,-508.74 535.52,-517.12 560.38,-517.12 574.35,-517.12 583.6,-514.47 588.12,-510.51"/>
<polygon fill="#63b8ff" stroke="#63b8ff" points="591.5,-511.49 589.81,-501.03 584.61,-510.26 591.5,-511.49"/>
</a>
</g>
</g>
<!-- Node12 -->
<g id="Node000012" class="node">
<title>Node12</title>
<g id="a_Node000012"><a xlink:href="kest__alloc_8c.html#a4bb52284828149d9a740bac0c9706ecd" target="_top" xlink:title=" ">
<polygon fill="#fff0f0" stroke="red" points="782,-671.75 669.25,-671.75 669.25,-651 782,-651 782,-671.75"/>
<text xml:space="preserve" text-anchor="middle" x="725.62" y="-658.25" font-family="Helvetica,sans-Serif" font-size="10.00">kest_allocator_alloc</text>
</a>
</g>
</g>
<!-- Node11&#45;&gt;Node12 -->
<g id="edge12_Node000011_Node000012" class="edge">
<title>Node11&#45;&gt;Node12</title>
<g id="a_edge12_Node000011_Node000012"><a xlink:title=" ">
<path fill="none" stroke="#63b8ff" d="M594.82,-499.48C605.93,-506.53 617.55,-515.6 625.75,-526.38 655.64,-565.63 628.93,-594.55 661.75,-631.38 666.78,-637.02 673.1,-641.69 679.78,-645.54"/>
<polygon fill="#63b8ff" stroke="#63b8ff" points="677.87,-648.49 688.37,-649.9 681.04,-642.25 677.87,-648.49"/>
</a>
</g>
</g>
<!-- Node14 -->
<g id="Node000014" class="node">
<title>Node14</title>
<g id="a_Node000014"><a xlink:href="kest__expression_8c.html#aadf2a6a074cb1ad7b45893704cbd71c3" target="_top" xlink:title=" ">
<polygon fill="#fff0f0" stroke="red" points="780.5,-553.12 670.75,-553.12 670.75,-519.62 780.5,-519.62 780.5,-553.12"/>
<text xml:space="preserve" text-anchor="start" x="678.75" y="-539.62" font-family="Helvetica,sans-Serif" font-size="10.00">kest_expression_to</text>
<text xml:space="preserve" text-anchor="middle" x="725.62" y="-526.88" font-family="Helvetica,sans-Serif" font-size="10.00">_string</text>
</a>
</g>
</g>
<!-- Node11&#45;&gt;Node14 -->
<g id="edge14_Node000011_Node000014" class="edge">
<title>Node11&#45;&gt;Node14</title>
<g id="a_edge14_Node000011_Node000014"><a xlink:title=" ">
<path fill="none" stroke="#63b8ff" d="M613.48,-499.61C628.87,-504.7 645.88,-510.33 661.86,-515.62"/>
<polygon fill="#63b8ff" stroke="#63b8ff" points="660.71,-518.92 671.3,-518.74 662.91,-512.27 660.71,-518.92"/>
</a>
</g>
</g>
<!-- Node19 -->
<g id="Node000019" class="node">
<title>Node19</title>
<g id="a_Node000019"><a xlink:href="kest__string_8c.html#a2f2e64515d872efab6ae1974554b5d5c" target="_top" xlink:title=" ">
<polygon fill="white" stroke="#666666" points="780.88,-622.75 670.38,-622.75 670.38,-602 780.88,-602 780.88,-622.75"/>
<text xml:space="preserve" text-anchor="middle" x="725.62" y="-609.25" font-family="Helvetica,sans-Serif" font-size="10.00">kest_string_append</text>
</a>
</g>
</g>
<!-- Node11&#45;&gt;Node19 -->
<g id="edge15_Node000011_Node000019" class="edge">
<title>Node11&#45;&gt;Node19</title>
<g id="a_edge15_Node000011_Node000019"><a xlink:title=" ">
<path fill="none" stroke="#63b8ff" d="M588.81,-499.5C600.55,-507.24 614.18,-516.78 625.75,-526.38 643.17,-540.82 644.87,-547.31 661.75,-562.38 674.31,-573.59 689.01,-585.34 701.03,-594.64"/>
<polygon fill="#63b8ff" stroke="#63b8ff" points="698.74,-597.29 708.81,-600.59 702.99,-591.73 698.74,-597.29"/>
</a>
</g>
</g>
<!-- Node20 -->
<g id="Node000020" class="node">
<title>Node20</title>
<g id="a_Node000020"><a xlink:href="kest__string_8c.html#a5e8184b1f070fc74a7d1d2f08c4d9658" target="_top" xlink:title=" ">
<polygon fill="white" stroke="#666666" points="782.75,-735.75 668.5,-735.75 668.5,-715 782.75,-715 782.75,-735.75"/>
<text xml:space="preserve" text-anchor="middle" x="725.62" y="-722.25" font-family="Helvetica,sans-Serif" font-size="10.00">kest_string_appendf</text>
</a>
</g>
</g>
<!-- Node11&#45;&gt;Node20 -->
<g id="edge16_Node000011_Node000020" class="edge">
<title>Node11&#45;&gt;Node20</title>
<g id="a_edge16_Node000011_Node000020"><a xlink:title=" ">
<path fill="none" stroke="#63b8ff" d="M596.11,-499.46C607.06,-506.42 618.25,-515.43 625.75,-526.38 665.46,-584.37 622.67,-621.95 661.75,-680.38 669.49,-691.94 681.26,-701.51 692.54,-708.82"/>
<polygon fill="#63b8ff" stroke="#63b8ff" points="690.54,-711.7 700.91,-713.86 694.16,-705.7 690.54,-711.7"/>
</a>
</g>
</g>
<!-- Node22 -->
<g id="Node000022" class="node">
<title>Node22</title>
<g id="a_Node000022"><a xlink:href="kest__string_8c.html#a0b1566bbaac339c306b950a97f9e81fc" target="_top" xlink:title=" ">
<polygon fill="white" stroke="#666666" points="779,-501.75 672.25,-501.75 672.25,-481 779,-481 779,-501.75"/>
<text xml:space="preserve" text-anchor="middle" x="725.62" y="-488.25" font-family="Helvetica,sans-Serif" font-size="10.00">kest_string_concat</text>
</a>
</g>
</g>
<!-- Node11&#45;&gt;Node22 -->
<g id="edge18_Node000011_Node000022" class="edge">
<title>Node11&#45;&gt;Node22</title>
<g id="a_edge18_Node000011_Node000022"><a xlink:title=" ">
<path fill="none" stroke="#63b8ff" d="M613.48,-485.25C628.49,-486.08 645.05,-486.99 660.7,-487.85"/>
<polygon fill="#63b8ff" stroke="#63b8ff" points="660.21,-491.33 670.39,-488.38 660.59,-484.34 660.21,-491.33"/>
</a>
</g>
</g>
<!-- Node11&#45;&gt;Node23 -->
<g id="edge19_Node000011_Node000023" class="edge">
<title>Node11&#45;&gt;Node23</title>
<g id="a_edge19_Node000011_Node000023"><a xlink:title=" ">
<path fill="none" stroke="#63b8ff" d="M597.17,-465.25C606.49,-460.76 616.51,-455.91 625.75,-451.38 641.81,-443.49 645.18,-440.11 661.75,-433.38 666.6,-431.4 671.73,-429.5 676.87,-427.7"/>
<polygon fill="#63b8ff" stroke="#63b8ff" points="677.58,-431.15 685.94,-424.65 675.35,-424.52 677.58,-431.15"/>
</a>
</g>
</g>
<!-- Node24 -->
<g id="Node000024" class="node">
<title>Node24</title>
<g id="a_Node000024"><a xlink:href="kest__string_8c.html#ab74edc9a2be32d899a92ef58edb16286" target="_top" xlink:title=" ">
<polygon fill="white" stroke="#666666" points="770.75,-462.75 680.5,-462.75 680.5,-442 770.75,-442 770.75,-462.75"/>
<text xml:space="preserve" text-anchor="middle" x="725.62" y="-449.25" font-family="Helvetica,sans-Serif" font-size="10.00">kest_string_init</text>
</a>
</g>
</g>
<!-- Node11&#45;&gt;Node24 -->
<g id="edge20_Node000011_Node000024" class="edge">
<title>Node11&#45;&gt;Node24</title>
<g id="a_edge20_Node000011_Node000024"><a xlink:title=" ">
<path fill="none" stroke="#63b8ff" d="M613.48,-472.8C631.17,-469.55 650.99,-465.91 668.95,-462.61"/>
<polygon fill="#63b8ff" stroke="#63b8ff" points="669.45,-466.07 678.66,-460.82 668.19,-459.19 669.45,-466.07"/>
</a>
</g>
</g>
<!-- Node21 -->
<g id="Node000021" class="node">
<title>Node21</title>
<g id="a_Node000021"><a xlink:href="kest__string_8c.html#ab38fd4531ec8be3f9c32f467f6808951" target="_top" xlink:title=" ">
<polygon fill="white" stroke="#666666" points="954,-754.75 825.5,-754.75 825.5,-734 954,-734 954,-754.75"/>
<text xml:space="preserve" text-anchor="middle" x="889.75" y="-741.25" font-family="Helvetica,sans-Serif" font-size="10.00">kest_string_append_str</text>
</a>
</g>
</g>
<!-- Node20&#45;&gt;Node21 -->
<g id="edge17_Node000020_Node000021" class="edge">
<title>Node20&#45;&gt;Node21</title>
<g id="a_edge17_Node000020_Node000021"><a xlink:title=" ">
<path fill="none" stroke="#63b8ff" d="M782.87,-731.97C792.88,-733.14 803.45,-734.38 813.87,-735.6"/>
<polygon fill="#63b8ff" stroke="#63b8ff" points="813.26,-739.05 823.6,-736.74 814.08,-732.1 813.26,-739.05"/>
</a>
</g>
</g>
<!-- Node26&#45;&gt;Node2 -->
<g id="edge24_Node000026_Node000002" class="edge">
<title>Node26&#45;&gt;Node2</title>
<g id="a_edge24_Node000026_Node000002"><a xlink:title=" ">
<path fill="none" stroke="#63b8ff" d="M405.04,-588.14C422.25,-598.79 446.51,-616.74 459,-639.38 514.72,-740.36 424.01,-805.48 495,-896.38 495.24,-896.69 495.49,-896.99 495.74,-897.3"/>
<polygon fill="#63b8ff" stroke="#63b8ff" points="493.3,-899.8 502.98,-904.1 498.09,-894.7 493.3,-899.8"/>
</a>
</g>
</g>
<!-- Node26&#45;&gt;Node5 -->
<g id="edge27_Node000026_Node000005" class="edge">
<title>Node26&#45;&gt;Node5</title>
<g id="a_edge27_Node000026_Node000005"><a xlink:title=" ">
<path fill="none" stroke="#63b8ff" d="M440.79,-580.9C447.63,-583.43 453.97,-587.11 459,-592.38 529.89,-666.53 419.83,-750.57 495,-820.38 570,-890.02 860.19,-817.44 954,-858.38 983.3,-871.16 1009.18,-898.22 1024.56,-916.85"/>
<polygon fill="#63b8ff" stroke="#63b8ff" points="1021.7,-918.87 1030.67,-924.52 1027.18,-914.51 1021.7,-918.87"/>
</a>
</g>
</g>
<!-- Node26&#45;&gt;Node10 -->
<g id="edge26_Node000026_Node000010" class="edge">
<title>Node26&#45;&gt;Node10</title>
<g id="a_edge26_Node000026_Node000010"><a xlink:title=" ">
<path fill="none" stroke="#63b8ff" d="M338.74,-566.55C328.97,-561.71 318.97,-555.82 310.25,-549.38 276.62,-524.49 244.5,-486.83 228.3,-463.43"/>
<polygon fill="#63b8ff" stroke="#63b8ff" points="231.42,-461.81 223.03,-455.34 225.55,-465.63 231.42,-461.81"/>
</a>
</g>
</g>
<!-- Node26&#45;&gt;Node11 -->
<g id="edge23_Node000026_Node000011" class="edge">
<title>Node26&#45;&gt;Node11</title>
<g id="a_edge23_Node000026_Node000011"><a xlink:title=" ">
<path fill="none" stroke="#63b8ff" d="M407.95,-566.53C422.58,-559.32 442.06,-549.53 459,-540.38 479.62,-529.23 502.24,-516.23 520.79,-505.36"/>
<polygon fill="#63b8ff" stroke="#63b8ff" points="522.48,-508.42 529.33,-500.33 518.93,-502.39 522.48,-508.42"/>
</a>
</g>
</g>
<!-- Node26&#45;&gt;Node19 -->
<g id="edge28_Node000026_Node000019" class="edge">
<title>Node26&#45;&gt;Node19</title>
<g id="a_edge28_Node000026_Node000019"><a xlink:title=" ">
<path fill="none" stroke="#63b8ff" d="M420.53,-588.17C432.77,-592.12 446.56,-596.76 459,-601.38 475.25,-607.41 478,-612.98 495,-616.38 549.42,-627.26 612.56,-625.12 658.83,-620.91"/>
<polygon fill="#63b8ff" stroke="#63b8ff" points="659.1,-624.4 668.71,-619.95 658.42,-617.43 659.1,-624.4"/>
</a>
</g>
</g>
<!-- Node26&#45;&gt;Node20 -->
<g id="edge30_Node000026_Node000020" class="edge">
<title>Node26&#45;&gt;Node20</title>
<g id="a_edge30_Node000026_Node000020"><a xlink:title=" ">
<path fill="none" stroke="#63b8ff" d="M438.73,-588.11C446.2,-591.41 453.27,-595.73 459,-601.38 494.13,-636.01 456.07,-676.07 495,-706.38 541.27,-742.4 609.83,-743.4 659.99,-737.67"/>
<polygon fill="#63b8ff" stroke="#63b8ff" points="660.38,-741.15 669.86,-736.41 659.5,-734.21 660.38,-741.15"/>
</a>
</g>
</g>
<!-- Node26&#45;&gt;Node21 -->
<g id="edge29_Node000026_Node000021" class="edge">
<title>Node26&#45;&gt;Node21</title>
<g id="a_edge29_Node000026_Node000021"><a xlink:title=" ">
<path fill="none" stroke="#63b8ff" d="M441.12,-581.58C447.74,-584.04 453.93,-587.51 459,-592.38 506.92,-638.34 443.57,-695.38 495,-737.38 542.04,-775.78 713.42,-764.26 813.9,-753.6"/>
<polygon fill="#63b8ff" stroke="#63b8ff" points="814.13,-757.1 823.69,-752.54 813.37,-750.14 814.13,-757.1"/>
</a>
</g>
</g>
<!-- Node26&#45;&gt;Node23 -->
<g id="edge31_Node000026_Node000023" class="edge">
<title>Node26&#45;&gt;Node23</title>
<g id="a_edge31_Node000026_Node000023"><a xlink:title=" ">
<path fill="none" stroke="#63b8ff" d="M394.71,-566.56C418.59,-538.23 482.21,-463.53 495,-456.38 522.41,-441.03 600.74,-428.51 658.32,-421.01"/>
<polygon fill="#63b8ff" stroke="#63b8ff" points="658.56,-424.51 668.04,-419.77 657.68,-417.57 658.56,-424.51"/>
</a>
</g>
</g>
<!-- Node26&#45;&gt;Node25 -->
<g id="edge25_Node000026_Node000025" class="edge">
<title>Node26&#45;&gt;Node25</title>
<g id="a_edge25_Node000026_Node000025"><a xlink:title=" ">
<path fill="none" stroke="#63b8ff" d="M440.8,-587.73C447.73,-591.09 454.09,-595.52 459,-601.38 531.74,-688.03 424.04,-765.25 495,-853.38 501.01,-860.84 509.59,-865.98 518.53,-869.52"/>
<polygon fill="#63b8ff" stroke="#63b8ff" points="517.44,-872.85 528.03,-872.63 519.61,-866.2 517.44,-872.85"/>
</a>
</g>
</g>
<!-- Node27 -->
<g id="Node000027" class="node">
<title>Node27</title>
<g id="a_Node000027"><a xlink:href="kest__string_8c.html#a4cfc4758ca7994c7a5ec40f101681c6b" target="_top" xlink:title=" ">
<polygon fill="white" stroke="#666666" points="618.62,-607.12 502.12,-607.12 502.12,-573.62 618.62,-573.62 618.62,-607.12"/>
<text xml:space="preserve" text-anchor="start" x="510.12" y="-593.62" font-family="Helvetica,sans-Serif" font-size="10.00">kest_string_init_with</text>
<text xml:space="preserve" text-anchor="middle" x="560.38" y="-580.88" font-family="Helvetica,sans-Serif" font-size="10.00">_allocator</text>
</a>
</g>
</g>
<!-- Node26&#45;&gt;Node27 -->
<g id="edge32_Node000026_Node000027" class="edge">
<title>Node26&#45;&gt;Node27</title>
<g id="a_edge32_Node000026_Node000027"><a xlink:title=" ">
<path fill="none" stroke="#63b8ff" d="M441.08,-581.52C456.81,-582.7 474.14,-584 490.56,-585.23"/>
<polygon fill="#63b8ff" stroke="#63b8ff" points="490.01,-588.7 500.25,-585.95 490.54,-581.71 490.01,-588.7"/>
</a>
</g>
</g>
<!-- Node28 -->
<g id="Node000028" class="node">
<title>Node28</title>
<g id="a_Node000028"><a xlink:href="kest__string_8c.html#aae2aec32d8a54aec5b2cce31fa7e45d1" target="_top" xlink:title=" ">
<polygon fill="white" stroke="#666666" points="605.12,-555.75 515.62,-555.75 515.62,-535 605.12,-535 605.12,-555.75"/>
<text xml:space="preserve" text-anchor="middle" x="560.38" y="-542.25" font-family="Helvetica,sans-Serif" font-size="10.00">kest_string_len</text>
</a>
</g>
</g>
<!-- Node26&#45;&gt;Node28 -->
<g id="edge33_Node000026_Node000028" class="edge">
<title>Node26&#45;&gt;Node28</title>
<g id="a_edge33_Node000026_Node000028"><a xlink:title=" ">
<path fill="none" stroke="#63b8ff" d="M441.08,-567.16C461.18,-563.46 483.88,-559.28 503.97,-555.58"/>
<polygon fill="#63b8ff" stroke="#63b8ff" points="504.46,-559.05 513.66,-553.79 503.19,-552.16 504.46,-559.05"/>
</a>
</g>
</g>
<!-- Node29 -->
<g id="Node000029" class="node">
<title>Node29</title>
<g id="a_Node000029"><a xlink:href="kest__string_8c.html#a1b14525a2f5fe1a6090a72ea2e9bb541" target="_top" xlink:title=" ">
<polygon fill="white" stroke="#666666" points="617.12,-811.75 503.62,-811.75 503.62,-791 617.12,-791 617.12,-811.75"/>
<text xml:space="preserve" text-anchor="middle" x="560.38" y="-798.25" font-family="Helvetica,sans-Serif" font-size="10.00">kest_string_pop_tail</text>
</a>
</g>
</g>
<!-- Node26&#45;&gt;Node29 -->
<g id="edge34_Node000026_Node000029" class="edge">
<title>Node26&#45;&gt;Node29</title>
<g id="a_edge34_Node000026_Node000029"><a xlink:title=" ">
<path fill="none" stroke="#63b8ff" d="M440.86,-588.17C447.68,-591.47 454,-595.77 459,-601.38 512.14,-660.97 443.09,-716.71 495,-777.38 497.4,-780.18 500.17,-782.67 503.17,-784.86"/>
<polygon fill="#63b8ff" stroke="#63b8ff" points="501.1,-787.7 511.48,-789.82 504.69,-781.69 501.1,-787.7"/>
</a>
</g>
</g>
<!-- Node26&#45;&gt;Node30 -->
<g id="edge35_Node000026_Node000030" class="edge">
<title>Node26&#45;&gt;Node30</title>
<g id="a_edge35_Node000026_Node000030"><a xlink:title=" ">
<path fill="none" stroke="#63b8ff" d="M398.7,-566.56C414.56,-552.9 441.39,-528.07 459,-502.38 480.82,-470.55 466.77,-449.68 495,-423.38 498.25,-420.35 501.91,-417.7 505.79,-415.38"/>
<polygon fill="#63b8ff" stroke="#63b8ff" points="507.16,-418.61 514.47,-410.94 503.97,-412.38 507.16,-418.61"/>
</a>
</g>
</g>
<!-- Node31 -->
<g id="Node000031" class="node">
<title>Node31</title>
<g id="a_Node000031"><a xlink:href="kest__string_8c.html#a7538f892d9e722fe9e9e1cfcb0ac1b40" target="_top" xlink:title=" ">
<polygon fill="white" stroke="#666666" points="620.5,-697.12 500.25,-697.12 500.25,-663.62 620.5,-663.62 620.5,-697.12"/>
<text xml:space="preserve" text-anchor="start" x="508.25" y="-683.62" font-family="Helvetica,sans-Serif" font-size="10.00">kest_string_to_native</text>
<text xml:space="preserve" text-anchor="middle" x="560.38" y="-670.88" font-family="Helvetica,sans-Serif" font-size="10.00">_with_allocator</text>
</a>
</g>
</g>
<!-- Node26&#45;&gt;Node31 -->
<g id="edge36_Node000026_Node000031" class="edge">
<title>Node26&#45;&gt;Node31</title>
<g id="a_edge36_Node000026_Node000031"><a xlink:title=" ">
<path fill="none" stroke="#63b8ff" d="M433.08,-588.18C442.18,-591.52 451.26,-595.83 459,-601.38 480.68,-616.91 474.4,-632.44 495,-649.38 498.61,-652.34 502.55,-655.11 506.65,-657.67"/>
<polygon fill="#63b8ff" stroke="#63b8ff" points="504.69,-660.58 515.11,-662.51 508.17,-654.5 504.69,-660.58"/>
</a>
</g>
</g>
<!-- Node26&#45;&gt;Node32 -->
<g id="edge38_Node000026_Node000032" class="edge">
<title>Node26&#45;&gt;Node32</title>
<g id="a_edge38_Node000026_Node000032"><a xlink:title=" ">
<path fill="none" stroke="#63b8ff" d="M394.16,-566.52C408.76,-547.59 438.92,-506.96 459,-469.38 479.1,-431.74 463.6,-409.27 495,-380.38 496.26,-379.21 497.6,-378.11 498.98,-377.08"/>
<polygon fill="#63b8ff" stroke="#63b8ff" points="500.76,-380.1 507.51,-371.94 497.14,-374.11 500.76,-380.1"/>
</a>
</g>
</g>
<!-- Node26&#45;&gt;Node33 -->
<g id="edge39_Node000026_Node000033" class="edge">
<title>Node26&#45;&gt;Node33</title>
<g id="a_edge39_Node000026_Node000033"><a xlink:title=" ">
<path fill="none" stroke="#63b8ff" d="M394.6,-566.74C409.88,-548.15 441.02,-508.01 459,-469.38 483.93,-415.79 470.1,-394.97 495,-341.38 508.02,-313.35 528.9,-284.4 543.33,-265.95"/>
<polygon fill="#63b8ff" stroke="#63b8ff" points="545.96,-268.26 549.46,-258.26 540.49,-263.9 545.96,-268.26"/>
</a>
</g>
</g>
<!-- Node31&#45;&gt;Node12 -->
<g id="edge37_Node000031_Node000012" class="edge">
<title>Node31&#45;&gt;Node12</title>
<g id="a_edge37_Node000031_Node000012"><a xlink:title=" ">
<path fill="none" stroke="#63b8ff" d="M620.77,-673.46C632.78,-672.06 645.48,-670.59 657.72,-669.16"/>
<polygon fill="#63b8ff" stroke="#63b8ff" points="657.77,-672.68 667.3,-668.05 656.96,-665.73 657.77,-672.68"/>
</a>
</g>
</g>
<!-- Node35 -->
<g id="Node000035" class="node">
<title>Node35</title>
<g id="a_Node000035"><a xlink:href="kest__expression_8c.html#a10e88ee8970dd7501341b9d5ea0c3cba" target="_top" xlink:title=" ">
<polygon fill="#fff0f0" stroke="red" points="625.75,-218.12 495,-218.12 495,-184.62 625.75,-184.62 625.75,-218.12"/>
<text xml:space="preserve" text-anchor="start" x="503" y="-204.62" font-family="Helvetica,sans-Serif" font-size="10.00">kest_expression_detect</text>
<text xml:space="preserve" text-anchor="middle" x="560.38" y="-191.88" font-family="Helvetica,sans-Serif" font-size="10.00">_constants</text>
</a>
</g>
</g>
<!-- Node34&#45;&gt;Node35 -->
<g id="edge42_Node000034_Node000035" class="edge">
<title>Node34&#45;&gt;Node35</title>
<g id="a_edge42_Node000034_Node000035"><a xlink:title=" ">
<path fill="none" stroke="#63b8ff" d="M448.35,-201.38C459.77,-201.38 471.79,-201.38 483.54,-201.38"/>
<polygon fill="#63b8ff" stroke="#63b8ff" points="483.18,-204.88 493.18,-201.38 483.18,-197.88 483.18,-204.88"/>
</a>
</g>
</g>
<!-- Node39 -->
<g id="Node000039" class="node">
<title>Node39</title>
<g id="a_Node000039"><a xlink:href="kest__expr__parser_8c.html#adf0188b23902aff2ddacb388e811412e" target="_top" xlink:title=" ">
<polygon fill="#fff0f0" stroke="red" points="623.88,-148.12 496.88,-148.12 496.88,-114.62 623.88,-114.62 623.88,-148.12"/>
<text xml:space="preserve" text-anchor="start" x="504.88" y="-134.62" font-family="Helvetica,sans-Serif" font-size="10.00">kest_parse_expression</text>
<text xml:space="preserve" text-anchor="middle" x="560.38" y="-121.88" font-family="Helvetica,sans-Serif" font-size="10.00">_rec_pratt</text>
</a>
</g>
</g>
<!-- Node34&#45;&gt;Node39 -->
<g id="edge43_Node000034_Node000039" class="edge">
<title>Node34&#45;&gt;Node39</title>
<g id="a_edge43_Node000034_Node000039"><a xlink:title=" ">
<path fill="none" stroke="#63b8ff" d="M412.39,-190.59C437.26,-180.57 475.01,-165.37 506.02,-152.87"/>
<polygon fill="#63b8ff" stroke="#63b8ff" points="507.31,-156.12 515.28,-149.14 504.69,-149.63 507.31,-156.12"/>
</a>
</g>
</g>
<!-- Node39&#45;&gt;Node39 -->
<g id="edge44_Node000039_Node000039" class="edge">
<title>Node39&#45;&gt;Node39</title>
<g id="a_edge44_Node000039_Node000039"><a xlink:title=" ">
<path fill="none" stroke="#63b8ff" d="M530.67,-148.54C525.62,-157.74 535.52,-166.12 560.38,-166.12 574.35,-166.12 583.6,-163.47 588.12,-159.51"/>
<polygon fill="#63b8ff" stroke="#63b8ff" points="591.5,-160.49 589.81,-150.03 584.61,-159.26 591.5,-160.49"/>
</a>
</g>
</g>
<!-- Node39&#45;&gt;Node44 -->
<g id="edge45_Node000039_Node000044" class="edge">
<title>Node39&#45;&gt;Node44</title>
<g id="a_edge45_Node000039_Node000044"><a xlink:title=" ">
<path fill="none" stroke="#63b8ff" d="M624.02,-131.38C634.52,-131.38 645.47,-131.38 656.1,-131.38"/>
<polygon fill="#63b8ff" stroke="#63b8ff" points="655.98,-134.88 665.98,-131.38 655.98,-127.88 655.98,-134.88"/>
</a>
</g>
</g>
<!-- Node39&#45;&gt;Node52 -->
<g id="edge46_Node000039_Node000052" class="edge">
<title>Node39&#45;&gt;Node52</title>
<g id="a_edge46_Node000039_Node000052"><a xlink:title=" ">
<path fill="none" stroke="#63b8ff" d="M607.28,-114.22C631.87,-105.03 661.84,-93.83 685.34,-85.05"/>
<polygon fill="#63b8ff" stroke="#63b8ff" points="686.41,-88.39 694.55,-81.61 683.96,-81.83 686.41,-88.39"/>
</a>
</g>
</g>
<!-- Node59&#45;&gt;Node5 -->
<g id="edge49_Node000059_Node000005" class="edge">
<title>Node59&#45;&gt;Node5</title>
<g id="a_edge49_Node000059_Node000005"><a xlink:title=" ">
<path fill="none" stroke="#63b8ff" d="M391.75,-702.02C405.16,-725.63 437.67,-784.44 459,-836.38 478.87,-884.74 453.41,-916.69 495,-948.38 576.17,-1010.22 853.07,-977.4 954,-962.38 969.63,-960.05 986.36,-955.45 1000.83,-950.75"/>
<polygon fill="#63b8ff" stroke="#63b8ff" points="1001.61,-954.19 1009.97,-947.67 999.37,-947.55 1001.61,-954.19"/>
</a>
</g>
</g>
</g>
</svg>

<g id="navigator" transform="translate(0 0)" fill="#404254">
  <rect fill="#f2f5e9" fill-opacity="0.5" stroke="#606060" stroke-width=".5" x="0" y="0" width="60" height="60"/>
  <use id="zoomplus" xlink:href="#zoomPlus" x="17" y="9" onmousedown="handleZoom(evt,'in')"/>
  <use id="zoomminus" xlink:href="#zoomMin" x="42" y="9" onmousedown="handleZoom(evt,'out')"/>
  <use id="reset" xlink:href="#resetDef" x="30" y="36" onmousedown="handleReset()"/>
   <use id="arrowup" xlink:href="#arrowUp" x="0" y="0" onmousedown="handlePan(0,-1)"/>
  <use id="arrowright" xlink:href="#arrowRight" x="0" y="0" onmousedown="handlePan(1,0)"/>
  <use id="arrowdown" xlink:href="#arrowDown" x="0" y="0" onmousedown="handlePan(0,1)"/>
  <use id="arrowleft" xlink:href="#arrowLeft" x="0" y="0" onmousedown="handlePan(-1,0)"/>
</g>
<svg viewBox="0 0 15 15" width="100%" height="30px" preserveAspectRatio="xMaxYMin meet">
 <g id="arrow_out" transform="scale(0.3 0.3)">
  <a xlink:href="kest__dictionary_8c_aae3fbdeba250be8f6dd3dfa686eb24a8_cgraph_org.svg" target="_base">
   <rect id="button" ry="5" rx="5" y="6" x="6" height="38" width="38"
        fill="#f2f5e9" fill-opacity="0.5" stroke="#606060" stroke-width="1.0"/>
   <path id="arrow"
     d="M 11.500037,31.436501 C 11.940474,20.09759 22.043105,11.32322 32.158766,21.979434 L 37.068811,17.246167 C 37.068811,17.246167 37.088388,32 37.088388,32 L 22.160133,31.978069 C 22.160133,31.978069 26.997745,27.140456 26.997745,27.140456 C 18.528582,18.264221 13.291696,25.230495 11.500037,31.436501 z"
     style="fill:#404040;"/>
  </a>
 </g>
</svg>

<style type='text/css'>
<![CDATA[
[data-mouse-over-selected='false'] { opacity: 0.7; }
[data-mouse-over-selected='true']  { opacity: 1.0; }
]]>
</style>
<script type="application/ecmascript"><![CDATA[
document.addEventListener('DOMContentLoaded', (event) => {
  highlightEdges();
  highlightAdjacentNodes();
});
]]></script>
</svg>
