<?xml version="1.0" encoding="UTF-8" standalone="no"?>
<!DOCTYPE svg PUBLIC "-//W3C//DTD SVG 1.1//EN"
 "http://www.w3.org/Graphics/SVG/1.1/DTD/svg11.dtd">
<!-- Generated by graphviz version 13.1.2 (20250808.2320)
 -->
<!-- Title: refresh_menu_item Pages: 1 -->
<svg width="538pt" height="29pt"
 viewBox="0.00 0.00 538.00 29.00" xmlns="http://www.w3.org/2000/svg" xmlns:xlink="http://www.w3.org/1999/xlink">
<g id="graph0" class="graph" transform="scale(1 1) rotate(0) translate(4 24.75)">
<title>refresh_menu_item</title>
<!-- Node1 -->
<g id="Node000001" class="node">
<title>Node1</title>
<g id="a_Node000001"><a xlink:title=" ">
<polygon fill="#999999" stroke="#666666" points="529.75,-20.75 418.5,-20.75 418.5,0 529.75,0 529.75,-20.75"/>
<text xml:space="preserve" text-anchor="middle" x="474.12" y="-7.25" font-family="Helvetica,sans-Serif" font-size="10.00">refresh_menu_item</text>
</a>
</g>
</g>
<!-- Node2 -->
<g id="Node000002" class="node">
<title>Node2</title>
<g id="a_Node000002"><a xlink:href="kest__menu_8c.html#a87951b94f1041ed0f61ae67d3f196694" target="_top" xlink:title=" ">
<polygon fill="white" stroke="#666666" points="382.5,-20.75 269.75,-20.75 269.75,0 382.5,0 382.5,-20.75"/>
<text xml:space="preserve" text-anchor="middle" x="326.12" y="-7.25" font-family="Helvetica,sans-Serif" font-size="10.00">refresh_menu_page</text>
</a>
</g>
</g>
<!-- Node1&#45;&gt;Node2 -->
<g id="edge1_Node000001_Node000002" class="edge">
<title>Node1&#45;&gt;Node2</title>
<g id="a_edge1_Node000001_Node000002"><a xlink:title=" ">
<path fill="none" stroke="#63b8ff" d="M406.99,-10.38C398.87,-10.38 390.64,-10.38 382.7,-10.38"/>
<polygon fill="#63b8ff" stroke="#63b8ff" points="406.83,-13.88 416.83,-10.38 406.83,-6.88 406.83,-13.88"/>
</a>
</g>
</g>
<!-- Node3 -->
<g id="Node000003" class="node">
<title>Node3</title>
<g id="a_Node000003"><a xlink:href="kest__menu_8c.html#af46174a3713bd90a7920a15efac58b46" target="_top" xlink:title=" ">
<polygon fill="white" stroke="#666666" points="233.75,-20.75 130,-20.75 130,0 233.75,0 233.75,-20.75"/>
<text xml:space="preserve" text-anchor="middle" x="181.88" y="-7.25" font-family="Helvetica,sans-Serif" font-size="10.00">enter_menu_page</text>
</a>
</g>
</g>
<!-- Node2&#45;&gt;Node3 -->
<g id="edge2_Node000002_Node000003" class="edge">
<title>Node2&#45;&gt;Node3</title>
<g id="a_edge2_Node000002_Node000003"><a xlink:title=" ">
<path fill="none" stroke="#63b8ff" d="M257.96,-10.38C249.87,-10.38 241.7,-10.38 233.89,-10.38"/>
<polygon fill="#63b8ff" stroke="#63b8ff" points="257.8,-13.88 267.8,-10.38 257.8,-6.88 257.8,-13.88"/>
</a>
</g>
</g>
<!-- Node4 -->
<g id="Node000004" class="node">
<title>Node4</title>
<g id="a_Node000004"><a xlink:href="kest__menu_8c.html#a9a3dc2a29ebf6ace0a6b54a902530001" target="_top" xlink:title=" ">
<polygon fill="#fff0f0" stroke="red" points="94,-20.75 0,-20.75 0,0 94,0 94,-20.75"/>
<text xml:space="preserve" text-anchor="middle" x="47" y="-7.25" font-family="Helvetica,sans-Serif" font-size="10.00">init_menu_page</text>
</a>
</g>
</g>
<!-- Node3&#45;&gt;Node4 -->
<g id="edge3_Node000003_Node000004" class="edge">
<title>Node3&#45;&gt;Node4</title>
<g id="a_edge3_Node000003_Node000004"><a xlink:title=" ">
<path fill="none" stroke="#63b8ff" d="M117.99,-10.38C110.06,-10.38 102.07,-10.38 94.46,-10.38"/>
<polygon fill="#63b8ff" stroke="#63b8ff" points="117.99,-13.88 127.99,-10.38 117.99,-6.88 117.99,-13.88"/>
</a>
</g>
</g>
</g>
</svg>
