<?xml version="1.0" encoding="UTF-8" standalone="no"?>
<!DOCTYPE svg PUBLIC "-//W3C//DTD SVG 1.1//EN"
 "http://www.w3.org/Graphics/SVG/1.1/DTD/svg11.dtd">
<!-- Generated by graphviz version 13.1.2 (20250808.2320)
 -->
<!-- Title: create_standard_button_list_tall Pages: 1 -->
<!--zoomable 421 -->

<svg id="main" version="1.1" xmlns="http://www.w3.org/2000/svg" xmlns:xlink="http://www.w3.org/1999/xlink" xml:space="preserve" onload="init(evt)">

<style type="text/css"><![CDATA[
.node, .edge {opacity: 0.7;}
.node.selected, .edge.selected {opacity: 1;}
.edge:hover path { stroke: red; }
.edge:hover polygon { stroke: red; fill: red; }
]]></style>

<defs>
  <circle id="rim" cx="0" cy="0" r="7"/>
  <circle id="rim2" cx="0" cy="0" r="3.5"/>
  <g id="zoomPlus">
    <use xlink:href="#rim" fill="#404040"><set attributeName="fill" to="#808080" begin="zoomplus.mouseover" end="zoomplus.mouseout"/></use>
    <path d="M-4,0h8M0,-4v8" fill="none" stroke="white" stroke-width="1.5" pointer-events="none"/>
  </g>
  <g id="zoomMin">
    <use xlink:href="#rim" fill="#404040"><set attributeName="fill" to="#808080" begin="zoomminus.mouseover" end="zoomminus.mouseout"/></use>
    <path d="M-4,0h8" fill="none" stroke="white" stroke-width="1.5" pointer-events="none"/>
  </g>
  <g id="arrowUp" transform="translate(30 24)">
    <use xlink:href="#rim"/>
    <path pointer-events="none" fill="none" stroke="white" stroke-width="1.5" d="M0,-3.0v7 M-2.5,-0.5L0,-3.0L2.5,-0.5"/>
  </g>
  <g id="arrowRight" transform="rotate(90) translate(36 -43)">
    <use xlink:href="#rim"/>
    <path pointer-events="none" fill="none" stroke="white" stroke-width="1.5" d="M0,-3.0v7 M-2.5,-0.5L0,-3.0L2.5,-0.5"/>
  </g>
  <g id="arrowDown" transform="rotate(180) translate(-30 -48)">
    <use xlink:href="#rim"/>
    <path pointer-events="none" fill="none" stroke="white" stroke-width="1.5" d="M0,-3.0v7 M-2.5,-0.5L0,-3.0L2.5,-0.5"/>
  </g>
  <g id="arrowLeft" transform="rotate(270) translate(-36 17)">
    <use xlink:href="#rim"/>
    <path pointer-events="none" fill="none" stroke="white" stroke-width="1.5" d="M0,-3.0v7 M-2.5,-0.5L0,-3.0L2.5,-0.5"/>
  </g>
  <g id="resetDef">
    <use xlink:href="#rim2" fill="#404040"><set attributeName="fill" to="#808080" begin="reset.mouseover" end="reset.mouseout"/></use>
  </g>
</defs>
<script type="application/ecmascript">
var viewWidth = 822;
var viewHeight = 421;
var sectionId = 'dynsection-21';
</script>
<script type="application/ecmascript" xlink:href="svg.min.js"/>
<svg id="graph" class="graph">
<g id="viewport">
<title>create_standard_button_list_tall</title>
<!-- Node1 -->
<g id="Node000001" class="node">
<title>Node1</title>
<g id="a_Node000001"><a xlink:title=" ">
<polygon fill="#999999" stroke="#666666" points="814.25,-252.12 682.75,-252.12 682.75,-218.62 814.25,-218.62 814.25,-252.12"/>
<text xml:space="preserve" text-anchor="start" x="690.75" y="-238.62" font-family="Helvetica,sans-Serif" font-size="10.00">create_standard_button</text>
<text xml:space="preserve" text-anchor="middle" x="748.5" y="-225.88" font-family="Helvetica,sans-Serif" font-size="10.00">_list_tall</text>
</a>
</g>
</g>
<!-- Node2 -->
<g id="Node000002" class="node">
<title>Node2</title>
<g id="a_Node000002"><a xlink:href="kest__effect__select_8c.html#af5e1f2ec64c8c42ed66a3bc39c7411eb" target="_top" xlink:title=" ">
<polygon fill="white" stroke="#666666" points="638.5,-345.12 513.75,-345.12 513.75,-311.62 638.5,-311.62 638.5,-345.12"/>
<text xml:space="preserve" text-anchor="start" x="521.75" y="-331.62" font-family="Helvetica,sans-Serif" font-size="10.00">create_effect_selector</text>
<text xml:space="preserve" text-anchor="middle" x="576.12" y="-318.88" font-family="Helvetica,sans-Serif" font-size="10.00">_ui_eff</text>
</a>
</g>
</g>
<!-- Node1&#45;&gt;Node2 -->
<g id="edge1_Node000001_Node000002" class="edge">
<title>Node1&#45;&gt;Node2</title>
<g id="a_edge1_Node000001_Node000002"><a xlink:title=" ">
<path fill="none" stroke="#63b8ff" d="M706.46,-257.78C676.33,-274.22 636.02,-296.22 608.46,-311.27"/>
<polygon fill="#63b8ff" stroke="#63b8ff" points="707.82,-261.02 714.92,-253.16 704.47,-254.88 707.82,-261.02"/>
</a>
</g>
</g>
<!-- Node7 -->
<g id="Node000007" class="node">
<title>Node7</title>
<g id="a_Node000007"><a xlink:href="kest__ui_8c.html#a1d4879268198647d06d247db21e13f1b" target="_top" xlink:title=" ">
<polygon fill="white" stroke="#666666" points="646.75,-223.75 505.5,-223.75 505.5,-203 646.75,-203 646.75,-223.75"/>
<text xml:space="preserve" text-anchor="middle" x="576.12" y="-210.25" font-family="Helvetica,sans-Serif" font-size="10.00">ui_page_create_container</text>
</a>
</g>
</g>
<!-- Node1&#45;&gt;Node7 -->
<g id="edge5_Node000001_Node000007" class="edge">
<title>Node1&#45;&gt;Node7</title>
<g id="a_edge5_Node000001_Node000007"><a xlink:title=" ">
<path fill="none" stroke="#63b8ff" d="M671.35,-225.54C663.33,-224.51 655.19,-223.46 647.23,-222.43"/>
<polygon fill="#63b8ff" stroke="#63b8ff" points="670.74,-228.99 681.1,-226.8 671.63,-222.05 670.74,-228.99"/>
</a>
</g>
</g>
<!-- Node3 -->
<g id="Node000003" class="node">
<title>Node3</title>
<g id="a_Node000003"><a xlink:href="kest__effect__select_8c.html#a4f784340d1e1e332c60be5a095244ba1" target="_top" xlink:title=" ">
<polygon fill="white" stroke="#666666" points="467.25,-373.75 338.75,-373.75 338.75,-353 467.25,-353 467.25,-373.75"/>
<text xml:space="preserve" text-anchor="middle" x="403" y="-360.25" font-family="Helvetica,sans-Serif" font-size="10.00">init_effect_selector_eff</text>
</a>
</g>
</g>
<!-- Node2&#45;&gt;Node3 -->
<g id="edge2_Node000002_Node000003" class="edge">
<title>Node2&#45;&gt;Node3</title>
<g id="a_edge2_Node000002_Node000003"><a xlink:title=" ">
<path fill="none" stroke="#63b8ff" d="M502.36,-343.26C487.11,-346.38 471.3,-349.61 456.93,-352.55"/>
<polygon fill="#63b8ff" stroke="#63b8ff" points="502.77,-346.75 511.86,-341.31 501.36,-339.89 502.77,-346.75"/>
</a>
</g>
</g>
<!-- Node4 -->
<g id="Node000004" class="node">
<title>Node4</title>
<g id="a_Node000004"><a xlink:href="kest__int_8c.html#abce06be17fc37d675118a678a8100a36" target="_top" xlink:title=" ">
<polygon fill="white" stroke="#666666" points="261.88,-412.75 197.88,-412.75 197.88,-392 261.88,-392 261.88,-412.75"/>
<text xml:space="preserve" text-anchor="middle" x="229.88" y="-399.25" font-family="Helvetica,sans-Serif" font-size="10.00">app_main</text>
</a>
</g>
</g>
<!-- Node3&#45;&gt;Node4 -->
<g id="edge3_Node000003_Node000004" class="edge">
<title>Node3&#45;&gt;Node4</title>
<g id="a_edge3_Node000003_Node000004"><a xlink:title=" ">
<path fill="none" stroke="#63b8ff" d="M343.37,-376.74C316.2,-382.93 285,-390.04 262.36,-395.2"/>
<polygon fill="#63b8ff" stroke="#63b8ff" points="343.88,-380.21 352.86,-374.58 342.33,-373.38 343.88,-380.21"/>
</a>
</g>
</g>
<!-- Node5 -->
<g id="Node000005" class="node">
<title>Node5</title>
<g id="a_Node000005"><a xlink:href="kest__desktop_8c.html#ab499a4f71ef4cfc807b60d8739750c3e" target="_top" xlink:title=" ">
<polygon fill="#fff0f0" stroke="red" points="263.38,-373.75 196.38,-373.75 196.38,-353 263.38,-353 263.38,-373.75"/>
<text xml:space="preserve" text-anchor="middle" x="229.88" y="-360.25" font-family="Helvetica,sans-Serif" font-size="10.00">main_task</text>
</a>
</g>
</g>
<!-- Node3&#45;&gt;Node5 -->
<g id="edge4_Node000003_Node000005" class="edge">
<title>Node3&#45;&gt;Node5</title>
<g id="a_edge4_Node000003_Node000005"><a xlink:title=" ">
<path fill="none" stroke="#63b8ff" d="M326.79,-363.38C304.59,-363.38 281.44,-363.38 263.45,-363.38"/>
<polygon fill="#63b8ff" stroke="#63b8ff" points="326.77,-366.88 336.77,-363.38 326.77,-359.88 326.77,-366.88"/>
</a>
</g>
</g>
<!-- Node8 -->
<g id="Node000008" class="node">
<title>Node8</title>
<g id="a_Node000008"><a xlink:href="kest__ui_8c.html#a58a68a436917a32cc3daab2e0d4b3245" target="_top" xlink:title=" ">
<polygon fill="white" stroke="#666666" points="469.5,-188.75 336.5,-188.75 336.5,-168 469.5,-168 469.5,-188.75"/>
<text xml:space="preserve" text-anchor="middle" x="403" y="-175.25" font-family="Helvetica,sans-Serif" font-size="10.00">ui_page_create_base_ui</text>
</a>
</g>
</g>
<!-- Node7&#45;&gt;Node8 -->
<g id="edge6_Node000007_Node000008" class="edge">
<title>Node7&#45;&gt;Node8</title>
<g id="a_edge6_Node000007_Node000008"><a xlink:title=" ">
<path fill="none" stroke="#63b8ff" d="M511.21,-200.3C493.41,-196.66 474.27,-192.75 457.15,-189.25"/>
<polygon fill="#63b8ff" stroke="#63b8ff" points="510.4,-203.71 520.9,-202.28 511.81,-196.85 510.4,-203.71"/>
</a>
</g>
</g>
<!-- Node9 -->
<g id="Node000009" class="node">
<title>Node9</title>
<g id="a_Node000009"><a xlink:href="kest__effect__settings_8c.html#ad39e071d5cf7cd7e4fc67d41f14d48e8" target="_top" xlink:title=" ">
<polygon fill="#fff0f0" stroke="red" points="292.25,-335.12 167.5,-335.12 167.5,-301.62 292.25,-301.62 292.25,-335.12"/>
<text xml:space="preserve" text-anchor="start" x="175.5" y="-321.62" font-family="Helvetica,sans-Serif" font-size="10.00">create_effect_settings</text>
<text xml:space="preserve" text-anchor="middle" x="229.88" y="-308.88" font-family="Helvetica,sans-Serif" font-size="10.00">_page_ui</text>
</a>
</g>
</g>
<!-- Node8&#45;&gt;Node9 -->
<g id="edge7_Node000008_Node000009" class="edge">
<title>Node8&#45;&gt;Node9</title>
<g id="a_edge7_Node000008_Node000009"><a xlink:title=" ">
<path fill="none" stroke="#63b8ff" d="M387.64,-198.11C369.54,-221.86 336.41,-261.74 300.5,-287.38 293.18,-292.6 284.83,-297.24 276.52,-301.23"/>
<polygon fill="#63b8ff" stroke="#63b8ff" points="390.36,-200.32 393.54,-190.21 384.75,-196.13 390.36,-200.32"/>
</a>
</g>
</g>
<!-- Node10 -->
<g id="Node000010" class="node">
<title>Node10</title>
<g id="a_Node000010"><a xlink:href="kest__effect__view_8c.html#a7d15ffb969bcf677cf4a1622e2666f8e" target="_top" xlink:title=" ">
<polygon fill="#fff0f0" stroke="red" points="123.25,-305.75 0,-305.75 0,-285 123.25,-285 123.25,-305.75"/>
<text xml:space="preserve" text-anchor="middle" x="61.62" y="-292.25" font-family="Helvetica,sans-Serif" font-size="10.00">create_effect_view_ui</text>
</a>
</g>
</g>
<!-- Node8&#45;&gt;Node10 -->
<g id="edge9_Node000008_Node000010" class="edge">
<title>Node8&#45;&gt;Node10</title>
<g id="a_edge9_Node000008_Node000010"><a xlink:title=" ">
<path fill="none" stroke="#63b8ff" d="M383.12,-196.93C363.95,-214.62 332.62,-240.54 300.5,-254.38 243.63,-278.87 173.17,-288.75 123.75,-292.72"/>
<polygon fill="#63b8ff" stroke="#63b8ff" points="385.3,-199.68 390.16,-190.27 380.49,-194.6 385.3,-199.68"/>
</a>
</g>
</g>
<!-- Node16 -->
<g id="Node000016" class="node">
<title>Node16</title>
<g id="a_Node000016"><a xlink:href="kest__menu_8c.html#ad08fcb7356b59af639c394da31d8f446" target="_top" xlink:title=" ">
<polygon fill="#fff0f0" stroke="red" points="291.88,-245.75 167.88,-245.75 167.88,-225 291.88,-225 291.88,-245.75"/>
<text xml:space="preserve" text-anchor="middle" x="229.88" y="-232.25" font-family="Helvetica,sans-Serif" font-size="10.00">create_main_menu_ui</text>
</a>
</g>
</g>
<!-- Node8&#45;&gt;Node16 -->
<g id="edge10_Node000008_Node000016" class="edge">
<title>Node8&#45;&gt;Node16</title>
<g id="a_edge10_Node000008_Node000016"><a xlink:title=" ">
<path fill="none" stroke="#63b8ff" d="M363.6,-193.09C344.7,-200.15 321.52,-208.53 300.5,-215.38 290.81,-218.53 280.29,-221.69 270.42,-224.53"/>
<polygon fill="#63b8ff" stroke="#63b8ff" points="364.63,-196.44 372.76,-189.64 362.17,-189.89 364.63,-196.44"/>
</a>
</g>
</g>
<!-- Node19 -->
<g id="Node000019" class="node">
<title>Node19</title>
<g id="a_Node000019"><a xlink:href="kest__menu_8c.html#a6775c89241a45f6fa04a6d8111139cb5" target="_top" xlink:title=" ">
<polygon fill="#fff0f0" stroke="red" points="291.5,-188.75 168.25,-188.75 168.25,-168 291.5,-168 291.5,-188.75"/>
<text xml:space="preserve" text-anchor="middle" x="229.88" y="-175.25" font-family="Helvetica,sans-Serif" font-size="10.00">create_menu_page_ui</text>
</a>
</g>
</g>
<!-- Node8&#45;&gt;Node19 -->
<g id="edge11_Node000008_Node000019" class="edge">
<title>Node8&#45;&gt;Node19</title>
<g id="a_edge11_Node000008_Node000019"><a xlink:title=" ">
<path fill="none" stroke="#63b8ff" d="M324.9,-178.38C313.83,-178.38 302.57,-178.38 291.88,-178.38"/>
<polygon fill="#63b8ff" stroke="#63b8ff" points="324.81,-181.88 334.81,-178.38 324.81,-174.88 324.81,-181.88"/>
</a>
</g>
</g>
<!-- Node22 -->
<g id="Node000022" class="node">
<title>Node22</title>
<g id="a_Node000022"><a xlink:href="kest__profile__settings_8c.html#ab05371cb50924acc78762340a22cc585" target="_top" xlink:title=" ">
<polygon fill="#fff0f0" stroke="red" points="293.75,-150.12 166,-150.12 166,-116.62 293.75,-116.62 293.75,-150.12"/>
<text xml:space="preserve" text-anchor="start" x="174" y="-136.62" font-family="Helvetica,sans-Serif" font-size="10.00">create_profile_settings</text>
<text xml:space="preserve" text-anchor="middle" x="229.88" y="-123.88" font-family="Helvetica,sans-Serif" font-size="10.00">_page_ui</text>
</a>
</g>
</g>
<!-- Node8&#45;&gt;Node22 -->
<g id="edge13_Node000008_Node000022" class="edge">
<title>Node8&#45;&gt;Node22</title>
<g id="a_edge13_Node000008_Node000022"><a xlink:title=" ">
<path fill="none" stroke="#63b8ff" d="M350.04,-164.71C332.35,-160.06 312.39,-154.81 293.93,-149.96"/>
<polygon fill="#63b8ff" stroke="#63b8ff" points="348.99,-168.05 359.55,-167.21 350.77,-161.28 348.99,-168.05"/>
</a>
</g>
</g>
<!-- Node38 -->
<g id="Node000038" class="node">
<title>Node38</title>
<g id="a_Node000038"><a xlink:href="kest__profile__view_8c.html#a384beb6a193abc4367c013b9e43f0da9" target="_top" xlink:title=" ">
<polygon fill="#fff0f0" stroke="red" points="293,-98.75 166.75,-98.75 166.75,-78 293,-78 293,-98.75"/>
<text xml:space="preserve" text-anchor="middle" x="229.88" y="-85.25" font-family="Helvetica,sans-Serif" font-size="10.00">create_profile_view_ui</text>
</a>
</g>
</g>
<!-- Node8&#45;&gt;Node38 -->
<g id="edge14_Node000008_Node000038" class="edge">
<title>Node8&#45;&gt;Node38</title>
<g id="a_edge14_Node000008_Node000038"><a xlink:title=" ">
<path fill="none" stroke="#63b8ff" d="M381.04,-160.45C361.4,-144.47 330.62,-121.5 300.5,-107.38 293.81,-104.24 286.5,-101.54 279.22,-99.24"/>
<polygon fill="#63b8ff" stroke="#63b8ff" points="378.64,-163.01 388.58,-166.7 383.11,-157.62 378.64,-163.01"/>
</a>
</g>
</g>
<!-- Node39 -->
<g id="Node000039" class="node">
<title>Node39</title>
<g id="a_Node000039"><a xlink:href="kest__sequence__view_8c.html#a96499d9c3b8dc1327fa9141c44bafe2d" target="_top" xlink:title=" ">
<polygon fill="#fff0f0" stroke="red" points="300.5,-59.75 159.25,-59.75 159.25,-39 300.5,-39 300.5,-59.75"/>
<text xml:space="preserve" text-anchor="middle" x="229.88" y="-46.25" font-family="Helvetica,sans-Serif" font-size="10.00">create_sequence_view_ui</text>
</a>
</g>
</g>
<!-- Node8&#45;&gt;Node39 -->
<g id="edge15_Node000008_Node000039" class="edge">
<title>Node8&#45;&gt;Node39</title>
<g id="a_edge15_Node000008_Node000039"><a xlink:title=" ">
<path fill="none" stroke="#63b8ff" d="M388.48,-158.17C371,-133.6 338.3,-92.57 300.5,-69.38 294.5,-65.69 287.79,-62.66 280.97,-60.18"/>
<polygon fill="#63b8ff" stroke="#63b8ff" points="385.57,-160.12 394.14,-166.34 391.32,-156.13 385.57,-160.12"/>
</a>
</g>
</g>
<!-- Node40 -->
<g id="Node000040" class="node">
<title>Node40</title>
<g id="a_Node000040"><a xlink:href="kest__ui_8c.html#a1cc4b2ebf73c32f9c6089e25a8e67c4a" target="_top" xlink:title=" ">
<polygon fill="#fff0f0" stroke="red" points="287,-20.75 172.75,-20.75 172.75,0 287,0 287,-20.75"/>
<text xml:space="preserve" text-anchor="middle" x="229.88" y="-7.25" font-family="Helvetica,sans-Serif" font-size="10.00">create_test_page_ui</text>
</a>
</g>
</g>
<!-- Node8&#45;&gt;Node40 -->
<g id="edge16_Node000008_Node000040" class="edge">
<title>Node8&#45;&gt;Node40</title>
<g id="a_edge16_Node000008_Node000040"><a xlink:title=" ">
<path fill="none" stroke="#63b8ff" d="M393.13,-157.05C378.6,-124.74 346.64,-63.64 300.5,-30.38 295.4,-26.7 289.64,-23.69 283.66,-21.24"/>
<polygon fill="#63b8ff" stroke="#63b8ff" points="389.89,-158.38 397.09,-166.15 396.31,-155.59 389.89,-158.38"/>
</a>
</g>
</g>
<!-- Node9&#45;&gt;Node10 -->
<g id="edge8_Node000009_Node000010" class="edge">
<title>Node9&#45;&gt;Node10</title>
<g id="a_edge8_Node000009_Node000010"><a xlink:title=" ">
<path fill="none" stroke="#63b8ff" d="M156.2,-308.32C145.3,-306.81 134.15,-305.27 123.53,-303.8"/>
<polygon fill="#63b8ff" stroke="#63b8ff" points="155.56,-311.77 165.94,-309.67 156.52,-304.83 155.56,-311.77"/>
</a>
</g>
</g>
<!-- Node19&#45;&gt;Node19 -->
<g id="edge12_Node000019_Node000019" class="edge">
<title>Node19&#45;&gt;Node19</title>
<g id="a_edge12_Node000019_Node000019"><a xlink:title=" ">
<path fill="none" stroke="#63b8ff" d="M259.48,-200.24C255.56,-204.08 245.69,-206.75 229.88,-206.75 200.96,-206.75 191.92,-197.81 202.76,-189.15"/>
<polygon fill="#63b8ff" stroke="#63b8ff" points="262.93,-199.61 257.32,-190.62 256.1,-201.15 262.93,-199.61"/>
</a>
</g>
</g>
</g>
</svg>

<g id="navigator" transform="translate(0 0)" fill="#404254">
  <rect fill="#f2f5e9" fill-opacity="0.5" stroke="#606060" stroke-width=".5" x="0" y="0" width="60" height="60"/>
  <use id="zoomplus" xlink:href="#zoomPlus" x="17" y="9" onmousedown="handleZoom(evt,'in')"/>
  <use id="zoomminus" xlink:href="#zoomMin" x="42" y="9" onmousedown="handleZoom(evt,'out')"/>
  <use id="reset" xlink:href="#resetDef" x="30" y="36" onmousedown="handleReset()"/>
   <use id="arrowup" xlink:href="#arrowUp" x="0" y="0" onmousedown="handlePan(0,-1)"/>
  <use id="arrowright" xlink:href="#arrowRight" x="0" y="0" onmousedown="handlePan(1,0)"/>
  <use id="arrowdown" xlink:href="#arrowDown" x="0" y="0" onmousedown="handlePan(0,1)"/>
  <use id="arrowleft" xlink:href="#arrowLeft" x="0" y="0" onmousedown="handlePan(-1,0)"/>
</g>
<svg viewBox="0 0 15 15" width="100%" height="30px" preserveAspectRatio="xMaxYMin meet">
 <g id="arrow_out" transform="scale(0.3 0.3)">
  <a xlink:href="kest__ui_8c_a62738946a4bf88f4f13024860a34c7f1_icgraph_org.svg" target="_base">
   <rect id="button" ry="5" rx="5" y="6" x="6" height="38" width="38"
        fill="#f2f5e9" fill-opacity="0.5" stroke="#606060" stroke-width="1.0"/>
   <path id="arrow"
     d="M 11.500037,31.436501 C 11.940474,20.09759 22.043105,11.32322 32.158766,21.979434 L 37.068811,17.246167 C 37.068811,17.246167 37.088388,32 37.088388,32 L 22.160133,31.978069 C 22.160133,31.978069 26.997745,27.140456 26.997745,27.140456 C 18.528582,18.264221 13.291696,25.230495 11.500037,31.436501 z"
     style="fill:#404040;"/>
  </a>
 </g>
</svg>

<style type='text/css'>
<![CDATA[
[data-mouse-over-selected='false'] { opacity: 0.7; }
[data-mouse-over-selected='true']  { opacity: 1.0; }
]]>
</style>
<script type="application/ecmascript"><![CDATA[
document.addEventListener('DOMContentLoaded', (event) => {
  highlightEdges();
  highlightAdjacentNodes();
});
]]></script>
</svg>
