<?xml version="1.0" encoding="UTF-8" standalone="no"?>
<!DOCTYPE svg PUBLIC "-//W3C//DTD SVG 1.1//EN"
 "http://www.w3.org/Graphics/SVG/1.1/DTD/svg11.dtd">
<!-- Generated by graphviz version 13.1.2 (20250808.2320)
 -->
<!-- Title: kest_effect_update_reps Pages: 1 -->
<svg width="616pt" height="404pt"
 viewBox="0.00 0.00 616.00 404.00" xmlns="http://www.w3.org/2000/svg" xmlns:xlink="http://www.w3.org/1999/xlink">
<g id="graph0" class="graph" transform="scale(1 1) rotate(0) translate(4 399.75)">
<title>kest_effect_update_reps</title>
<!-- Node1 -->
<g id="Node000001" class="node">
<title>Node1</title>
<g id="a_Node000001"><a xlink:title=" ">
<polygon fill="#999999" stroke="#666666" points="607.75,-240.75 472.5,-240.75 472.5,-220 607.75,-220 607.75,-240.75"/>
<text xml:space="preserve" text-anchor="middle" x="540.12" y="-227.25" font-family="Helvetica,sans-Serif" font-size="10.00">kest_effect_update_reps</text>
</a>
</g>
</g>
<!-- Node2 -->
<g id="Node000002" class="node">
<title>Node2</title>
<g id="a_Node000002"><a xlink:href="kest__parameter_8c.html#abff5b0dd3ed907207191aa6079c514eb" target="_top" xlink:title=" ">
<polygon fill="white" stroke="#666666" points="436.5,-208.12 310.25,-208.12 310.25,-174.62 436.5,-174.62 436.5,-208.12"/>
<text xml:space="preserve" text-anchor="start" x="318.25" y="-194.62" font-family="Helvetica,sans-Serif" font-size="10.00">kest_parameter_effect</text>
<text xml:space="preserve" text-anchor="middle" x="373.38" y="-181.88" font-family="Helvetica,sans-Serif" font-size="10.00">_rep_update</text>
</a>
</g>
</g>
<!-- Node1&#45;&gt;Node2 -->
<g id="edge1_Node000001_Node000002" class="edge">
<title>Node1&#45;&gt;Node2</title>
<g id="a_edge1_Node000001_Node000002"><a xlink:title=" ">
<path fill="none" stroke="#63b8ff" d="M482.31,-216.93C467.68,-213.46 451.86,-209.72 436.95,-206.19"/>
<polygon fill="#63b8ff" stroke="#63b8ff" points="481.22,-220.26 491.76,-219.16 482.84,-213.45 481.22,-220.26"/>
</a>
</g>
</g>
<!-- Node53 -->
<g id="Node000053" class="node">
<title>Node53</title>
<g id="a_Node000053"><a xlink:href="kest__parameter_8c.html#a3c9f839cffc5f0a9b0630682ce8e9b9c" target="_top" xlink:title=" ">
<polygon fill="white" stroke="#666666" points="427.88,-273.12 318.88,-273.12 318.88,-239.62 427.88,-239.62 427.88,-273.12"/>
<text xml:space="preserve" text-anchor="start" x="326.88" y="-259.62" font-family="Helvetica,sans-Serif" font-size="10.00">kest_setting_effect</text>
<text xml:space="preserve" text-anchor="middle" x="373.38" y="-246.88" font-family="Helvetica,sans-Serif" font-size="10.00">_rep_update</text>
</a>
</g>
</g>
<!-- Node1&#45;&gt;Node53 -->
<g id="edge11_Node000001_Node000053" class="edge">
<title>Node1&#45;&gt;Node53</title>
<g id="a_edge11_Node000001_Node000053"><a xlink:title=" ">
<path fill="none" stroke="#63b8ff" d="M461.06,-242.69C449.94,-244.45 438.72,-246.22 428.21,-247.88"/>
<polygon fill="#63b8ff" stroke="#63b8ff" points="461.29,-246.2 470.62,-241.19 460.2,-239.29 461.29,-246.2"/>
</a>
</g>
</g>
<!-- Node3 -->
<g id="Node000003" class="node">
<title>Node3</title>
<g id="a_Node000003"><a xlink:href="kest__parameter_8c.html#a2b94ddb1588d1a5af4311970bb068122" target="_top" xlink:title=" ">
<polygon fill="white" stroke="#666666" points="265.25,-201.75 177.25,-201.75 177.25,-181 265.25,-181 265.25,-201.75"/>
<text xml:space="preserve" text-anchor="middle" x="221.25" y="-188.25" font-family="Helvetica,sans-Serif" font-size="10.00">init_parameter</text>
</a>
</g>
</g>
<!-- Node2&#45;&gt;Node3 -->
<g id="edge2_Node000002_Node000003" class="edge">
<title>Node2&#45;&gt;Node3</title>
<g id="a_edge2_Node000002_Node000003"><a xlink:title=" ">
<path fill="none" stroke="#63b8ff" d="M298.68,-191.38C287.3,-191.38 275.88,-191.38 265.46,-191.38"/>
<polygon fill="#63b8ff" stroke="#63b8ff" points="298.5,-194.88 308.5,-191.38 298.5,-187.88 298.5,-194.88"/>
</a>
</g>
</g>
<!-- Node28 -->
<g id="Node000028" class="node">
<title>Node28</title>
<g id="a_Node000028"><a xlink:href="kest__parameter_8c.html#a41fafa04c21a8ab5916a8ceb5442d99a" target="_top" xlink:title=" ">
<polygon fill="white" stroke="#666666" points="274.25,-82.75 168.25,-82.75 168.25,-62 274.25,-62 274.25,-82.75"/>
<text xml:space="preserve" text-anchor="middle" x="221.25" y="-69.25" font-family="Helvetica,sans-Serif" font-size="10.00">init_parameter_str</text>
</a>
</g>
</g>
<!-- Node2&#45;&gt;Node28 -->
<g id="edge7_Node000002_Node000028" class="edge">
<title>Node2&#45;&gt;Node28</title>
<g id="a_edge7_Node000002_Node000028"><a xlink:title=" ">
<path fill="none" stroke="#63b8ff" d="M342.21,-167.47C309.73,-141.72 259.53,-101.92 235.69,-83.03"/>
<polygon fill="#63b8ff" stroke="#63b8ff" points="339.67,-169.92 349.68,-173.39 344.02,-164.43 339.67,-169.92"/>
</a>
</g>
</g>
<!-- Node4 -->
<g id="Node000004" class="node">
<title>Node4</title>
<g id="a_Node000004"><a xlink:href="kest__effect_8c.html#a6d9927f6d82c964bd07bef5c77879010" target="_top" xlink:title=" ">
<polygon fill="#fff0f0" stroke="red" points="98.88,-266.75 33.38,-266.75 33.38,-246 98.88,-246 98.88,-266.75"/>
<text xml:space="preserve" text-anchor="middle" x="66.12" y="-253.25" font-family="Helvetica,sans-Serif" font-size="10.00">init_effect</text>
</a>
</g>
</g>
<!-- Node3&#45;&gt;Node4 -->
<g id="edge3_Node000003_Node000004" class="edge">
<title>Node3&#45;&gt;Node4</title>
<g id="a_edge3_Node000003_Node000004"><a xlink:title=" ">
<path fill="none" stroke="#63b8ff" d="M191.66,-207.61C174.73,-216.81 152.66,-228.1 132.25,-236.38 121.73,-240.64 109.94,-244.52 99.31,-247.7"/>
<polygon fill="#63b8ff" stroke="#63b8ff" points="193.08,-210.82 200.15,-202.92 189.7,-204.69 193.08,-210.82"/>
</a>
</g>
</g>
<!-- Node21 -->
<g id="Node000021" class="node">
<title>Node21</title>
<g id="a_Node000021"><a xlink:href="kest__profile_8c.html#a417513ac62c9729d2ade560580ca6618" target="_top" xlink:title=" ">
<polygon fill="#fff0f0" stroke="red" points="107.88,-188.75 24.38,-188.75 24.38,-168 107.88,-168 107.88,-188.75"/>
<text xml:space="preserve" text-anchor="middle" x="66.12" y="-175.25" font-family="Helvetica,sans-Serif" font-size="10.00">init_m_profile</text>
</a>
</g>
</g>
<!-- Node3&#45;&gt;Node21 -->
<g id="edge4_Node000003_Node000021" class="edge">
<title>Node3&#45;&gt;Node21</title>
<g id="a_edge4_Node000003_Node000021"><a xlink:title=" ">
<path fill="none" stroke="#63b8ff" d="M165.37,-186.72C146.57,-185.12 125.86,-183.36 108.33,-181.87"/>
<polygon fill="#63b8ff" stroke="#63b8ff" points="165.01,-190.2 175.27,-187.56 165.6,-183.22 165.01,-190.2"/>
</a>
</g>
</g>
<!-- Node25 -->
<g id="Node000025" class="node">
<title>Node25</title>
<g id="a_Node000025"><a xlink:href="kest__parameter_8c.html#afcc9188cca32abf00e8c9d5028edbb68" target="_top" xlink:title=" ">
<polygon fill="#fff0f0" stroke="red" points="121.38,-149.75 10.88,-149.75 10.88,-129 121.38,-129 121.38,-149.75"/>
<text xml:space="preserve" text-anchor="middle" x="66.12" y="-136.25" font-family="Helvetica,sans-Serif" font-size="10.00">init_parameter_wni</text>
</a>
</g>
</g>
<!-- Node3&#45;&gt;Node25 -->
<g id="edge5_Node000003_Node000025" class="edge">
<title>Node3&#45;&gt;Node25</title>
<g id="a_edge5_Node000003_Node000025"><a xlink:title=" ">
<path fill="none" stroke="#63b8ff" d="M181.24,-176.71C166.02,-171.11 148.37,-164.78 132.25,-159.38 122.94,-156.26 112.82,-153.06 103.4,-150.16"/>
<polygon fill="#63b8ff" stroke="#63b8ff" points="179.83,-179.92 190.42,-180.11 182.26,-173.35 179.83,-179.92"/>
</a>
</g>
</g>
<!-- Node27 -->
<g id="Node000027" class="node">
<title>Node27</title>
<g id="a_Node000027"><a xlink:href="kest__context_8c.html#a8d785a89178c048ac11ee14f2a659993" target="_top" xlink:title=" ">
<polygon fill="#fff0f0" stroke="red" points="115.75,-227.75 16.5,-227.75 16.5,-207 115.75,-207 115.75,-227.75"/>
<text xml:space="preserve" text-anchor="middle" x="66.12" y="-214.25" font-family="Helvetica,sans-Serif" font-size="10.00">kest_init_context</text>
</a>
</g>
</g>
<!-- Node3&#45;&gt;Node27 -->
<g id="edge6_Node000003_Node000027" class="edge">
<title>Node3&#45;&gt;Node27</title>
<g id="a_edge6_Node000003_Node000027"><a xlink:title=" ">
<path fill="none" stroke="#63b8ff" d="M165.82,-200.62C149.61,-203.37 131.94,-206.37 116.09,-209.06"/>
<polygon fill="#63b8ff" stroke="#63b8ff" points="166.01,-204.13 175.29,-199.01 164.84,-197.23 166.01,-204.13"/>
</a>
</g>
</g>
<!-- Node29 -->
<g id="Node000029" class="node">
<title>Node29</title>
<g id="a_Node000029"><a xlink:href="kest__parameter_8c.html#a908ee2614e4c7ee766d3432ead2356ae" target="_top" xlink:title=" ">
<polygon fill="#fff0f0" stroke="red" points="115.38,-59.75 16.88,-59.75 16.88,-39 115.38,-39 115.38,-59.75"/>
<text xml:space="preserve" text-anchor="middle" x="66.12" y="-46.25" font-family="Helvetica,sans-Serif" font-size="10.00">clone_parameter</text>
</a>
</g>
</g>
<!-- Node28&#45;&gt;Node29 -->
<g id="edge8_Node000028_Node000029" class="edge">
<title>Node28&#45;&gt;Node29</title>
<g id="a_edge8_Node000028_Node000029"><a xlink:title=" ">
<path fill="none" stroke="#63b8ff" d="M156.68,-62.83C143.02,-60.78 128.79,-58.64 115.81,-56.69"/>
<polygon fill="#63b8ff" stroke="#63b8ff" points="156.08,-66.27 166.48,-64.3 157.12,-59.35 156.08,-66.27"/>
</a>
</g>
</g>
<!-- Node32 -->
<g id="Node000032" class="node">
<title>Node32</title>
<g id="a_Node000032"><a xlink:href="kest__effect_8c.html#a8dc8fceab7f835d960ea95e4f21fe327" target="_top" xlink:title=" ">
<polygon fill="#fff0f0" stroke="red" points="128.12,-20.75 4.12,-20.75 4.12,0 128.12,0 128.12,-20.75"/>
<text xml:space="preserve" text-anchor="middle" x="66.12" y="-7.25" font-family="Helvetica,sans-Serif" font-size="10.00">effect_add_parameter</text>
</a>
</g>
</g>
<!-- Node28&#45;&gt;Node32 -->
<g id="edge9_Node000028_Node000032" class="edge">
<title>Node28&#45;&gt;Node32</title>
<g id="a_edge9_Node000028_Node000032"><a xlink:title=" ">
<path fill="none" stroke="#63b8ff" d="M190.21,-56.68C173.43,-48.26 151.97,-38.06 132.25,-30.38 123.76,-27.07 114.49,-23.94 105.67,-21.18"/>
<polygon fill="#63b8ff" stroke="#63b8ff" points="188.15,-59.56 198.65,-60.97 191.32,-53.32 188.15,-59.56"/>
</a>
</g>
</g>
<!-- Node48 -->
<g id="Node000048" class="node">
<title>Node48</title>
<g id="a_Node000048"><a xlink:href="kest__dict__extract_8c.html#aaf0af9bba0940d4cfe5a8286222f14be" target="_top" xlink:title=" ">
<polygon fill="#fff0f0" stroke="red" points="132.25,-111.12 0,-111.12 0,-77.62 132.25,-77.62 132.25,-111.12"/>
<text xml:space="preserve" text-anchor="start" x="8" y="-97.62" font-family="Helvetica,sans-Serif" font-size="10.00">kest_extract_parameter</text>
<text xml:space="preserve" text-anchor="middle" x="66.12" y="-84.88" font-family="Helvetica,sans-Serif" font-size="10.00">_from_dict</text>
</a>
</g>
</g>
<!-- Node28&#45;&gt;Node48 -->
<g id="edge10_Node000028_Node000048" class="edge">
<title>Node28&#45;&gt;Node48</title>
<g id="a_edge10_Node000028_Node000048"><a xlink:title=" ">
<path fill="none" stroke="#63b8ff" d="M156.59,-81.52C148.7,-82.65 140.62,-83.82 132.7,-84.95"/>
<polygon fill="#63b8ff" stroke="#63b8ff" points="157.08,-84.99 166.48,-80.1 156.09,-78.06 157.08,-84.99"/>
</a>
</g>
</g>
<!-- Node54 -->
<g id="Node000054" class="node">
<title>Node54</title>
<g id="a_Node000054"><a xlink:href="kest__parameter_8c.html#a62dd23a17e3d4ca94ec6a8ff311e8b94" target="_top" xlink:title=" ">
<polygon fill="white" stroke="#666666" points="256.62,-266.75 185.88,-266.75 185.88,-246 256.62,-246 256.62,-266.75"/>
<text xml:space="preserve" text-anchor="middle" x="221.25" y="-253.25" font-family="Helvetica,sans-Serif" font-size="10.00">init_setting</text>
</a>
</g>
</g>
<!-- Node53&#45;&gt;Node54 -->
<g id="edge12_Node000053_Node000054" class="edge">
<title>Node53&#45;&gt;Node54</title>
<g id="a_edge12_Node000053_Node000054"><a xlink:title=" ">
<path fill="none" stroke="#63b8ff" d="M307.35,-256.38C290.01,-256.38 271.94,-256.38 256.94,-256.38"/>
<polygon fill="#63b8ff" stroke="#63b8ff" points="307.09,-259.88 317.09,-256.38 307.09,-252.88 307.09,-259.88"/>
</a>
</g>
</g>
<!-- Node55 -->
<g id="Node000055" class="node">
<title>Node55</title>
<g id="a_Node000055"><a xlink:href="kest__parameter_8c.html#a7c270a293ab879d0d3e757625c7c7dda" target="_top" xlink:title=" ">
<polygon fill="white" stroke="#666666" points="265.62,-327.75 176.88,-327.75 176.88,-307 265.62,-307 265.62,-327.75"/>
<text xml:space="preserve" text-anchor="middle" x="221.25" y="-314.25" font-family="Helvetica,sans-Serif" font-size="10.00">init_setting_str</text>
</a>
</g>
</g>
<!-- Node53&#45;&gt;Node55 -->
<g id="edge14_Node000053_Node000055" class="edge">
<title>Node53&#45;&gt;Node55</title>
<g id="a_edge14_Node000053_Node000055"><a xlink:title=" ">
<path fill="none" stroke="#63b8ff" d="M319.73,-277.76C295.67,-287.54 268.23,-298.69 248.6,-306.67"/>
<polygon fill="#63b8ff" stroke="#63b8ff" points="320.81,-281.11 328.76,-274.1 318.17,-274.62 320.81,-281.11"/>
</a>
</g>
</g>
<!-- Node54&#45;&gt;Node4 -->
<g id="edge13_Node000054_Node000004" class="edge">
<title>Node54&#45;&gt;Node4</title>
<g id="a_edge13_Node000054_Node000004"><a xlink:title=" ">
<path fill="none" stroke="#63b8ff" d="M174.06,-256.38C149.86,-256.38 120.83,-256.38 99.12,-256.38"/>
<polygon fill="#63b8ff" stroke="#63b8ff" points="173.99,-259.88 183.99,-256.38 173.99,-252.88 173.99,-259.88"/>
</a>
</g>
</g>
<!-- Node56 -->
<g id="Node000056" class="node">
<title>Node56</title>
<g id="a_Node000056"><a xlink:href="kest__parameter_8c.html#a0557624c9a1b47f1ae42049322650a6e" target="_top" xlink:title=" ">
<polygon fill="#fff0f0" stroke="red" points="106.75,-305.75 25.5,-305.75 25.5,-285 106.75,-285 106.75,-305.75"/>
<text xml:space="preserve" text-anchor="middle" x="66.12" y="-292.25" font-family="Helvetica,sans-Serif" font-size="10.00">clone_setting</text>
</a>
</g>
</g>
<!-- Node55&#45;&gt;Node56 -->
<g id="edge15_Node000055_Node000056" class="edge">
<title>Node55&#45;&gt;Node56</title>
<g id="a_edge15_Node000055_Node000056"><a xlink:title=" ">
<path fill="none" stroke="#63b8ff" d="M165.4,-309.49C146.12,-306.72 124.84,-303.67 107.03,-301.11"/>
<polygon fill="#63b8ff" stroke="#63b8ff" points="164.89,-312.96 175.28,-310.91 165.88,-306.03 164.89,-312.96"/>
</a>
</g>
</g>
<!-- Node59 -->
<g id="Node000059" class="node">
<title>Node59</title>
<g id="a_Node000059"><a xlink:href="kest__effect_8c.html#abf12c30daf8ca1ac113eca5f22723cf7" target="_top" xlink:title=" ">
<polygon fill="#fff0f0" stroke="red" points="119.5,-395.75 12.75,-395.75 12.75,-375 119.5,-375 119.5,-395.75"/>
<text xml:space="preserve" text-anchor="middle" x="66.12" y="-382.25" font-family="Helvetica,sans-Serif" font-size="10.00">effect_add_setting</text>
</a>
</g>
</g>
<!-- Node55&#45;&gt;Node59 -->
<g id="edge16_Node000055_Node000059" class="edge">
<title>Node55&#45;&gt;Node59</title>
<g id="a_edge16_Node000055_Node000059"><a xlink:title=" ">
<path fill="none" stroke="#63b8ff" d="M193.81,-334.15C176.73,-344.47 153.76,-357.38 132.25,-366.38 124.97,-369.42 117.04,-372.17 109.3,-374.57"/>
<polygon fill="#63b8ff" stroke="#63b8ff" points="195.64,-337.14 202.33,-328.92 191.98,-331.17 195.64,-337.14"/>
</a>
</g>
</g>
<!-- Node60 -->
<g id="Node000060" class="node">
<title>Node60</title>
<g id="a_Node000060"><a xlink:href="kest__dict__extract_8c.html#a0225c4392c944b41b1db66787be35243" target="_top" xlink:title=" ">
<polygon fill="#fff0f0" stroke="red" points="123.62,-357.12 8.62,-357.12 8.62,-323.62 123.62,-323.62 123.62,-357.12"/>
<text xml:space="preserve" text-anchor="start" x="16.62" y="-343.62" font-family="Helvetica,sans-Serif" font-size="10.00">kest_extract_setting</text>
<text xml:space="preserve" text-anchor="middle" x="66.12" y="-330.88" font-family="Helvetica,sans-Serif" font-size="10.00">_from_dict</text>
</a>
</g>
</g>
<!-- Node55&#45;&gt;Node60 -->
<g id="edge17_Node000055_Node000060" class="edge">
<title>Node55&#45;&gt;Node60</title>
<g id="a_edge17_Node000055_Node000060"><a xlink:title=" ">
<path fill="none" stroke="#63b8ff" d="M165.67,-325.57C152.11,-327.61 137.54,-329.8 123.88,-331.85"/>
<polygon fill="#63b8ff" stroke="#63b8ff" points="165.91,-329.08 175.28,-324.13 164.87,-322.15 165.91,-329.08"/>
</a>
</g>
</g>
</g>
</svg>
