<?xml version="1.0" encoding="UTF-8" standalone="no"?>
<!DOCTYPE svg PUBLIC "-//W3C//DTD SVG 1.1//EN"
 "http://www.w3.org/Graphics/SVG/1.1/DTD/svg11.dtd">
<!-- Generated by graphviz version 13.1.2 (20250808.2320)
 -->
<!-- Title: kest_defs_section_extract Pages: 1 -->
<!--zoomable 221 -->

<svg id="main" version="1.1" xmlns="http://www.w3.org/2000/svg" xmlns:xlink="http://www.w3.org/1999/xlink" xml:space="preserve" onload="init(evt)">

<style type="text/css"><![CDATA[
.node, .edge {opacity: 0.7;}
.node.selected, .edge.selected {opacity: 1;}
.edge:hover path { stroke: red; }
.edge:hover polygon { stroke: red; fill: red; }
]]></style>

<defs>
  <circle id="rim" cx="0" cy="0" r="7"/>
  <circle id="rim2" cx="0" cy="0" r="3.5"/>
  <g id="zoomPlus">
    <use xlink:href="#rim" fill="#404040"><set attributeName="fill" to="#808080" begin="zoomplus.mouseover" end="zoomplus.mouseout"/></use>
    <path d="M-4,0h8M0,-4v8" fill="none" stroke="white" stroke-width="1.5" pointer-events="none"/>
  </g>
  <g id="zoomMin">
    <use xlink:href="#rim" fill="#404040"><set attributeName="fill" to="#808080" begin="zoomminus.mouseover" end="zoomminus.mouseout"/></use>
    <path d="M-4,0h8" fill="none" stroke="white" stroke-width="1.5" pointer-events="none"/>
  </g>
  <g id="arrowUp" transform="translate(30 24)">
    <use xlink:href="#rim"/>
    <path pointer-events="none" fill="none" stroke="white" stroke-width="1.5" d="M0,-3.0v7 M-2.5,-0.5L0,-3.0L2.5,-0.5"/>
  </g>
  <g id="arrowRight" transform="rotate(90) translate(36 -43)">
    <use xlink:href="#rim"/>
    <path pointer-events="none" fill="none" stroke="white" stroke-width="1.5" d="M0,-3.0v7 M-2.5,-0.5L0,-3.0L2.5,-0.5"/>
  </g>
  <g id="arrowDown" transform="rotate(180) translate(-30 -48)">
    <use xlink:href="#rim"/>
    <path pointer-events="none" fill="none" stroke="white" stroke-width="1.5" d="M0,-3.0v7 M-2.5,-0.5L0,-3.0L2.5,-0.5"/>
  </g>
  <g id="arrowLeft" transform="rotate(270) translate(-36 17)">
    <use xlink:href="#rim"/>
    <path pointer-events="none" fill="none" stroke="white" stroke-width="1.5" d="M0,-3.0v7 M-2.5,-0.5L0,-3.0L2.5,-0.5"/>
  </g>
  <g id="resetDef">
    <use xlink:href="#rim2" fill="#404040"><set attributeName="fill" to="#808080" begin="reset.mouseover" end="reset.mouseout"/></use>
  </g>
</defs>
<script type="application/ecmascript">
var viewWidth = 593;
var viewHeight = 221;
var sectionId = 'dynsection-2';
</script>
<script type="application/ecmascript" xlink:href="svg.min.js"/>
<svg id="graph" class="graph">
<g id="viewport">
<title>kest_defs_section_extract</title>
<!-- Node1 -->
<g id="Node000001" class="node">
<title>Node1</title>
<g id="a_Node000001"><a xlink:title=" ">
<polygon fill="#999999" stroke="#666666" points="142.75,-106.98 0,-106.98 0,-86.23 142.75,-86.23 142.75,-106.98"/>
<text xml:space="preserve" text-anchor="middle" x="71.38" y="-93.48" font-family="Helvetica,sans-Serif" font-size="10.00">kest_defs_section_extract</text>
</a>
</g>
</g>
<!-- Node2 -->
<g id="Node000002" class="node">
<title>Node2</title>
<g id="a_Node000002"><a xlink:href="kest__alloc_8c.html#a849755c5dc5b35e712ffcdb602e50fb4" target="_top" xlink:title=" ">
<polygon fill="white" stroke="#666666" points="585.25,-84.98 520.5,-84.98 520.5,-64.23 585.25,-64.23 585.25,-84.98"/>
<text xml:space="preserve" text-anchor="middle" x="552.88" y="-71.48" font-family="Helvetica,sans-Serif" font-size="10.00">kest_alloc</text>
</a>
</g>
</g>
<!-- Node1&#45;&gt;Node2 -->
<g id="edge1_Node000001_Node000002" class="edge">
<title>Node1&#45;&gt;Node2</title>
<g id="a_edge1_Node000001_Node000002"><a xlink:title=" ">
<path fill="none" stroke="#63b8ff" d="M79.3,-107.26C94.28,-129.22 132.16,-179.01 178.75,-197.61 239.53,-221.86 262.58,-213.75 326,-197.61 406.81,-177.03 489.91,-121.02 528.97,-92.22"/>
<polygon fill="#63b8ff" stroke="#63b8ff" points="531.01,-95.06 536.92,-86.27 526.82,-89.46 531.01,-95.06"/>
</a>
</g>
</g>
<!-- Node3 -->
<g id="Node000003" class="node">
<title>Node3</title>
<g id="a_Node000003"><a xlink:href="kest__dictionary_8c.html#a93ca6804bc9251acc646566a9c5a942f" target="_top" xlink:title=" ">
<polygon fill="white" stroke="#666666" points="311,-188.36 193.75,-188.36 193.75,-154.86 311,-154.86 311,-188.36"/>
<text xml:space="preserve" text-anchor="start" x="201.75" y="-174.86" font-family="Helvetica,sans-Serif" font-size="10.00">kest_dict_entry_type</text>
<text xml:space="preserve" text-anchor="middle" x="252.38" y="-162.11" font-family="Helvetica,sans-Serif" font-size="10.00">_to_string</text>
</a>
</g>
</g>
<!-- Node1&#45;&gt;Node3 -->
<g id="edge2_Node000001_Node000003" class="edge">
<title>Node1&#45;&gt;Node3</title>
<g id="a_edge2_Node000001_Node000003"><a xlink:title=" ">
<path fill="none" stroke="#63b8ff" d="M94.13,-107.31C115.46,-117.64 149.01,-133.46 178.75,-145.61 182.75,-147.24 186.9,-148.87 191.09,-150.48"/>
<polygon fill="#63b8ff" stroke="#63b8ff" points="189.53,-153.64 200.12,-153.89 192,-147.09 189.53,-153.64"/>
</a>
</g>
</g>
<!-- Node4 -->
<g id="Node000004" class="node">
<title>Node4</title>
<g id="a_Node000004"><a xlink:href="kest__error__codes_8c.html#a0f4c77127bc0b77264a21104979c576a" target="_top" xlink:title=" ">
<polygon fill="white" stroke="#666666" points="306.5,-136.36 198.25,-136.36 198.25,-102.86 306.5,-102.86 306.5,-136.36"/>
<text xml:space="preserve" text-anchor="start" x="206.25" y="-122.86" font-family="Helvetica,sans-Serif" font-size="10.00">kest_error_code_to</text>
<text xml:space="preserve" text-anchor="middle" x="252.38" y="-110.11" font-family="Helvetica,sans-Serif" font-size="10.00">_string</text>
</a>
</g>
</g>
<!-- Node1&#45;&gt;Node4 -->
<g id="edge3_Node000001_Node000004" class="edge">
<title>Node1&#45;&gt;Node4</title>
<g id="a_edge3_Node000001_Node000004"><a xlink:title=" ">
<path fill="none" stroke="#63b8ff" d="M143.12,-105.7C157.54,-107.55 172.64,-109.49 186.83,-111.31"/>
<polygon fill="#63b8ff" stroke="#63b8ff" points="186.12,-114.75 196.48,-112.55 187.01,-107.81 186.12,-114.75"/>
</a>
</g>
</g>
<!-- Node5 -->
<g id="Node000005" class="node">
<title>Node5</title>
<g id="a_Node000005"><a xlink:href="kest__expr__scope_8c.html#ae63f9dde8aedf61f742ee600c18f4f6a" target="_top" xlink:title=" ">
<polygon fill="white" stroke="#666666" points="326,-84.98 178.75,-84.98 178.75,-64.23 326,-64.23 326,-84.98"/>
<text xml:space="preserve" text-anchor="middle" x="252.38" y="-71.48" font-family="Helvetica,sans-Serif" font-size="10.00">kest_expr_scope_add_expr</text>
</a>
</g>
</g>
<!-- Node1&#45;&gt;Node5 -->
<g id="edge4_Node000001_Node000005" class="edge">
<title>Node1&#45;&gt;Node5</title>
<g id="a_edge4_Node000001_Node000005"><a xlink:title=" ">
<path fill="none" stroke="#63b8ff" d="M143.12,-87.91C151.02,-86.94 159.13,-85.94 167.18,-84.95"/>
<polygon fill="#63b8ff" stroke="#63b8ff" points="167.5,-88.44 177,-83.75 166.65,-81.49 167.5,-88.44"/>
</a>
</g>
</g>
<!-- Node7 -->
<g id="Node000007" class="node">
<title>Node7</title>
<g id="a_Node000007"><a xlink:href="kest__eff__parser_8c.html#ae6d7da9a3cb36eed2884143a7b5ac7f2" target="_top" xlink:title=" ">
<polygon fill="white" stroke="#666666" points="321.88,-45.98 182.88,-45.98 182.88,-25.23 321.88,-25.23 321.88,-45.98"/>
<text xml:space="preserve" text-anchor="middle" x="252.38" y="-32.48" font-family="Helvetica,sans-Serif" font-size="10.00">kest_parser_error_at_line</text>
</a>
</g>
</g>
<!-- Node1&#45;&gt;Node7 -->
<g id="edge7_Node000001_Node000007" class="edge">
<title>Node1&#45;&gt;Node7</title>
<g id="a_edge7_Node000001_Node000007"><a xlink:title=" ">
<path fill="none" stroke="#63b8ff" d="M98.34,-85.77C119.72,-77.04 150.93,-64.77 178.75,-55.61 185.04,-53.53 191.68,-51.5 198.28,-49.57"/>
<polygon fill="#63b8ff" stroke="#63b8ff" points="199.19,-52.95 207.85,-46.85 197.27,-46.22 199.19,-52.95"/>
</a>
</g>
</g>
<!-- Node8 -->
<g id="Node000008" class="node">
<title>Node8</title>
<g id="a_Node000008"><a xlink:href="kest__alloc_8c.html#aed9ede1276c1ab3b4042c264ce64a3d2" target="_top" xlink:title=" ">
<polygon fill="white" stroke="#666666" points="462.38,-23.98 384.12,-23.98 384.12,-3.23 462.38,-3.23 462.38,-23.98"/>
<text xml:space="preserve" text-anchor="middle" x="423.25" y="-10.48" font-family="Helvetica,sans-Serif" font-size="10.00">kest_strndup</text>
</a>
</g>
</g>
<!-- Node1&#45;&gt;Node8 -->
<g id="edge8_Node000001_Node000008" class="edge">
<title>Node1&#45;&gt;Node8</title>
<g id="a_edge8_Node000001_Node000008"><a xlink:title=" ">
<path fill="none" stroke="#63b8ff" d="M81.93,-85.93C99.13,-67.59 137.41,-30.7 178.75,-16.61 242.97,5.29 322.38,0.91 372.68,-5.41"/>
<polygon fill="#63b8ff" stroke="#63b8ff" points="372.01,-8.85 382.39,-6.7 372.94,-1.91 372.01,-8.85"/>
</a>
</g>
</g>
<!-- Node6 -->
<g id="Node000006" class="node">
<title>Node6</title>
<g id="a_Node000006"><a xlink:href="kest__expr__scope_8c.html#a1e38199b09f72739edc8026dee1dc888" target="_top" xlink:title=" ">
<polygon fill="white" stroke="#666666" points="484.5,-91.36 362,-91.36 362,-57.86 484.5,-57.86 484.5,-91.36"/>
<text xml:space="preserve" text-anchor="start" x="370" y="-77.86" font-family="Helvetica,sans-Serif" font-size="10.00">kest_new_expr_scope</text>
<text xml:space="preserve" text-anchor="middle" x="423.25" y="-65.11" font-family="Helvetica,sans-Serif" font-size="10.00">_entry_expr</text>
</a>
</g>
</g>
<!-- Node5&#45;&gt;Node6 -->
<g id="edge5_Node000005_Node000006" class="edge">
<title>Node5&#45;&gt;Node6</title>
<g id="a_edge5_Node000005_Node000006"><a xlink:title=" ">
<path fill="none" stroke="#63b8ff" d="M326.46,-74.61C334.37,-74.61 342.41,-74.61 350.3,-74.61"/>
<polygon fill="#63b8ff" stroke="#63b8ff" points="350.21,-78.11 360.21,-74.61 350.21,-71.11 350.21,-78.11"/>
</a>
</g>
</g>
<!-- Node6&#45;&gt;Node2 -->
<g id="edge6_Node000006_Node000002" class="edge">
<title>Node6&#45;&gt;Node2</title>
<g id="a_edge6_Node000006_Node000002"><a xlink:title=" ">
<path fill="none" stroke="#63b8ff" d="M484.7,-74.61C492.83,-74.61 501.03,-74.61 508.78,-74.61"/>
<polygon fill="#63b8ff" stroke="#63b8ff" points="508.6,-78.11 518.6,-74.61 508.6,-71.11 508.6,-78.11"/>
</a>
</g>
</g>
<!-- Node8&#45;&gt;Node2 -->
<g id="edge9_Node000008_Node000002" class="edge">
<title>Node8&#45;&gt;Node2</title>
<g id="a_edge9_Node000008_Node000002"><a xlink:title=" ">
<path fill="none" stroke="#63b8ff" d="M446.77,-24.37C466.79,-33.94 496.3,-48.04 518.96,-58.87"/>
<polygon fill="#63b8ff" stroke="#63b8ff" points="517.25,-61.94 527.78,-63.09 520.27,-55.62 517.25,-61.94"/>
</a>
</g>
</g>
</g>
</svg>

<g id="navigator" transform="translate(0 0)" fill="#404254">
  <rect fill="#f2f5e9" fill-opacity="0.5" stroke="#606060" stroke-width=".5" x="0" y="0" width="60" height="60"/>
  <use id="zoomplus" xlink:href="#zoomPlus" x="17" y="9" onmousedown="handleZoom(evt,'in')"/>
  <use id="zoomminus" xlink:href="#zoomMin" x="42" y="9" onmousedown="handleZoom(evt,'out')"/>
  <use id="reset" xlink:href="#resetDef" x="30" y="36" onmousedown="handleReset()"/>
   <use id="arrowup" xlink:href="#arrowUp" x="0" y="0" onmousedown="handlePan(0,-1)"/>
  <use id="arrowright" xlink:href="#arrowRight" x="0" y="0" onmousedown="handlePan(1,0)"/>
  <use id="arrowdown" xlink:href="#arrowDown" x="0" y="0" onmousedown="handlePan(0,1)"/>
  <use id="arrowleft" xlink:href="#arrowLeft" x="0" y="0" onmousedown="handlePan(-1,0)"/>
</g>
<svg viewBox="0 0 15 15" width="100%" height="30px" preserveAspectRatio="xMaxYMin meet">
 <g id="arrow_out" transform="scale(0.3 0.3)">
  <a xlink:href="kest__eff__section_8c_ae8e0f8831e8737c2ec64cb62d900942f_cgraph_org.svg" target="_base">
   <rect id="button" ry="5" rx="5" y="6" x="6" height="38" width="38"
        fill="#f2f5e9" fill-opacity="0.5" stroke="#606060" stroke-width="1.0"/>
   <path id="arrow"
     d="M 11.500037,31.436501 C 11.940474,20.09759 22.043105,11.32322 32.158766,21.979434 L 37.068811,17.246167 C 37.068811,17.246167 37.088388,32 37.088388,32 L 22.160133,31.978069 C 22.160133,31.978069 26.997745,27.140456 26.997745,27.140456 C 18.528582,18.264221 13.291696,25.230495 11.500037,31.436501 z"
     style="fill:#404040;"/>
  </a>
 </g>
</svg>

<style type='text/css'>
<![CDATA[
[data-mouse-over-selected='false'] { opacity: 0.7; }
[data-mouse-over-selected='true']  { opacity: 1.0; }
]]>
</style>
<script type="application/ecmascript"><![CDATA[
document.addEventListener('DOMContentLoaded', (event) => {
  highlightEdges();
  highlightAdjacentNodes();
});
]]></script>
</svg>
