<?xml version="1.0" encoding="UTF-8" standalone="no"?>
<!DOCTYPE svg PUBLIC "-//W3C//DTD SVG 1.1//EN"
 "http://www.w3.org/Graphics/SVG/1.1/DTD/svg11.dtd">
<!-- Generated by graphviz version 13.1.2 (20250808.2320)
 -->
<!-- Title: init_m_profile Pages: 1 -->
<!--zoomable 203 -->

<svg id="main" version="1.1" xmlns="http://www.w3.org/2000/svg" xmlns:xlink="http://www.w3.org/1999/xlink" xml:space="preserve" onload="init(evt)">

<style type="text/css"><![CDATA[
.node, .edge {opacity: 0.7;}
.node.selected, .edge.selected {opacity: 1;}
.edge:hover path { stroke: red; }
.edge:hover polygon { stroke: red; fill: red; }
]]></style>

<defs>
  <circle id="rim" cx="0" cy="0" r="7"/>
  <circle id="rim2" cx="0" cy="0" r="3.5"/>
  <g id="zoomPlus">
    <use xlink:href="#rim" fill="#404040"><set attributeName="fill" to="#808080" begin="zoomplus.mouseover" end="zoomplus.mouseout"/></use>
    <path d="M-4,0h8M0,-4v8" fill="none" stroke="white" stroke-width="1.5" pointer-events="none"/>
  </g>
  <g id="zoomMin">
    <use xlink:href="#rim" fill="#404040"><set attributeName="fill" to="#808080" begin="zoomminus.mouseover" end="zoomminus.mouseout"/></use>
    <path d="M-4,0h8" fill="none" stroke="white" stroke-width="1.5" pointer-events="none"/>
  </g>
  <g id="arrowUp" transform="translate(30 24)">
    <use xlink:href="#rim"/>
    <path pointer-events="none" fill="none" stroke="white" stroke-width="1.5" d="M0,-3.0v7 M-2.5,-0.5L0,-3.0L2.5,-0.5"/>
  </g>
  <g id="arrowRight" transform="rotate(90) translate(36 -43)">
    <use xlink:href="#rim"/>
    <path pointer-events="none" fill="none" stroke="white" stroke-width="1.5" d="M0,-3.0v7 M-2.5,-0.5L0,-3.0L2.5,-0.5"/>
  </g>
  <g id="arrowDown" transform="rotate(180) translate(-30 -48)">
    <use xlink:href="#rim"/>
    <path pointer-events="none" fill="none" stroke="white" stroke-width="1.5" d="M0,-3.0v7 M-2.5,-0.5L0,-3.0L2.5,-0.5"/>
  </g>
  <g id="arrowLeft" transform="rotate(270) translate(-36 17)">
    <use xlink:href="#rim"/>
    <path pointer-events="none" fill="none" stroke="white" stroke-width="1.5" d="M0,-3.0v7 M-2.5,-0.5L0,-3.0L2.5,-0.5"/>
  </g>
  <g id="resetDef">
    <use xlink:href="#rim2" fill="#404040"><set attributeName="fill" to="#808080" begin="reset.mouseover" end="reset.mouseout"/></use>
  </g>
</defs>
<script type="application/ecmascript">
var viewWidth = 576;
var viewHeight = 203;
var sectionId = 'dynsection-7';
</script>
<script type="application/ecmascript" xlink:href="svg.min.js"/>
<svg id="graph" class="graph">
<g id="viewport">
<title>init_m_profile</title>
<!-- Node1 -->
<g id="Node000001" class="node">
<title>Node1</title>
<g id="a_Node000001"><a xlink:title=" ">
<polygon fill="#999999" stroke="#666666" points="83.5,-155.75 0,-155.75 0,-135 83.5,-135 83.5,-155.75"/>
<text xml:space="preserve" text-anchor="middle" x="41.75" y="-142.25" font-family="Helvetica,sans-Serif" font-size="10.00">init_m_profile</text>
</a>
</g>
</g>
<!-- Node2 -->
<g id="Node000002" class="node">
<title>Node2</title>
<g id="a_Node000002"><a xlink:href="kest__pipeline_8c.html#a5854d23849b879b4c5632bd23cac4ada" target="_top" xlink:title=" ">
<polygon fill="white" stroke="#666666" points="222.5,-194.75 131.5,-194.75 131.5,-174 222.5,-174 222.5,-194.75"/>
<text xml:space="preserve" text-anchor="middle" x="177" y="-181.25" font-family="Helvetica,sans-Serif" font-size="10.00">init_m_pipeline</text>
</a>
</g>
</g>
<!-- Node1&#45;&gt;Node2 -->
<g id="edge1_Node000001_Node000002" class="edge">
<title>Node1&#45;&gt;Node2</title>
<g id="a_edge1_Node000001_Node000002"><a xlink:title=" ">
<path fill="none" stroke="#63b8ff" d="M79.87,-156.24C94.88,-160.63 112.41,-165.76 128.35,-170.43"/>
<polygon fill="#63b8ff" stroke="#63b8ff" points="127.05,-173.69 137.63,-173.14 129.01,-166.98 127.05,-173.69"/>
</a>
</g>
</g>
<!-- Node3 -->
<g id="Node000003" class="node">
<title>Node3</title>
<g id="a_Node000003"><a xlink:href="kest__parameter_8c.html#a2b94ddb1588d1a5af4311970bb068122" target="_top" xlink:title=" ">
<polygon fill="white" stroke="#666666" points="221,-155.75 133,-155.75 133,-135 221,-135 221,-155.75"/>
<text xml:space="preserve" text-anchor="middle" x="177" y="-142.25" font-family="Helvetica,sans-Serif" font-size="10.00">init_parameter</text>
</a>
</g>
</g>
<!-- Node1&#45;&gt;Node3 -->
<g id="edge2_Node000001_Node000003" class="edge">
<title>Node1&#45;&gt;Node3</title>
<g id="a_edge2_Node000001_Node000003"><a xlink:title=" ">
<path fill="none" stroke="#63b8ff" d="M83.82,-145.38C95.64,-145.38 108.74,-145.38 121.25,-145.38"/>
<polygon fill="#63b8ff" stroke="#63b8ff" points="121.02,-148.88 131.02,-145.38 121.02,-141.88 121.02,-148.88"/>
</a>
</g>
</g>
<!-- Node7 -->
<g id="Node000007" class="node">
<title>Node7</title>
<g id="a_Node000007"><a xlink:href="kest__profile_8c.html#a291f067c2dd357a9bbe0a3bd156013a3" target="_top" xlink:title=" ">
<polygon fill="white" stroke="#666666" points="234.5,-117.12 119.5,-117.12 119.5,-83.62 234.5,-83.62 234.5,-117.12"/>
<text xml:space="preserve" text-anchor="start" x="127.5" y="-103.62" font-family="Helvetica,sans-Serif" font-size="10.00">kest_profile_file_rep</text>
<text xml:space="preserve" text-anchor="middle" x="177" y="-90.88" font-family="Helvetica,sans-Serif" font-size="10.00">_update</text>
</a>
</g>
</g>
<!-- Node1&#45;&gt;Node7 -->
<g id="edge5_Node000001_Node000007" class="edge">
<title>Node1&#45;&gt;Node7</title>
<g id="a_edge5_Node000001_Node000007"><a xlink:title=" ">
<path fill="none" stroke="#63b8ff" d="M74.67,-134.6C86.57,-130.58 100.53,-125.86 114.22,-121.24"/>
<polygon fill="#63b8ff" stroke="#63b8ff" points="115.3,-124.57 123.66,-118.05 113.06,-117.94 115.3,-124.57"/>
</a>
</g>
</g>
<!-- Node4 -->
<g id="Node000004" class="node">
<title>Node4</title>
<g id="a_Node000004"><a xlink:href="kest__parameter_8c.html#abff5b0dd3ed907207191aa6079c514eb" target="_top" xlink:title=" ">
<polygon fill="white" stroke="#666666" points="396.75,-178.12 270.5,-178.12 270.5,-144.62 396.75,-144.62 396.75,-178.12"/>
<text xml:space="preserve" text-anchor="start" x="278.5" y="-164.62" font-family="Helvetica,sans-Serif" font-size="10.00">kest_parameter_effect</text>
<text xml:space="preserve" text-anchor="middle" x="333.62" y="-151.88" font-family="Helvetica,sans-Serif" font-size="10.00">_rep_update</text>
</a>
</g>
</g>
<!-- Node3&#45;&gt;Node4 -->
<g id="edge3_Node000003_Node000004" class="edge">
<title>Node3&#45;&gt;Node4</title>
<g id="a_edge3_Node000003_Node000004"><a xlink:title=" ">
<path fill="none" stroke="#63b8ff" d="M221.48,-149.87C233.16,-151.08 246.12,-152.42 258.94,-153.75"/>
<polygon fill="#63b8ff" stroke="#63b8ff" points="258.33,-157.21 268.64,-154.75 259.05,-150.24 258.33,-157.21"/>
</a>
</g>
</g>
<!-- Node5 -->
<g id="Node000005" class="node">
<title>Node5</title>
<g id="a_Node000005"><a xlink:href="kest__effect_8c.html#afdbf79f9f27eac4959dfcf7bbcb324d4" target="_top" xlink:title=" ">
<polygon fill="#fff0f0" stroke="red" points="568,-188.75 432.75,-188.75 432.75,-168 568,-168 568,-188.75"/>
<text xml:space="preserve" text-anchor="middle" x="500.38" y="-175.25" font-family="Helvetica,sans-Serif" font-size="10.00">kest_effect_update_reps</text>
</a>
</g>
</g>
<!-- Node4&#45;&gt;Node5 -->
<g id="edge4_Node000004_Node000005" class="edge">
<title>Node4&#45;&gt;Node5</title>
<g id="a_edge4_Node000004_Node000005"><a xlink:title=" ">
<path fill="none" stroke="#63b8ff" d="M396.91,-167.8C404.78,-168.61 412.9,-169.45 420.98,-170.29"/>
<polygon fill="#63b8ff" stroke="#63b8ff" points="420.51,-173.76 430.82,-171.3 421.23,-166.79 420.51,-173.76"/>
</a>
</g>
</g>
<!-- Node8 -->
<g id="Node000008" class="node">
<title>Node8</title>
<g id="a_Node000008"><a xlink:href="kest__files_8c.html#ab39f3c0d9f0a16ccb7d076a22fc4ca22" target="_top" xlink:title=" ">
<polygon fill="white" stroke="#666666" points="371.62,-110.75 295.62,-110.75 295.62,-90 371.62,-90 371.62,-110.75"/>
<text xml:space="preserve" text-anchor="middle" x="333.62" y="-97.25" font-family="Helvetica,sans-Serif" font-size="10.00">save_profile</text>
</a>
</g>
</g>
<!-- Node7&#45;&gt;Node8 -->
<g id="edge6_Node000007_Node000008" class="edge">
<title>Node7&#45;&gt;Node8</title>
<g id="a_edge6_Node000007_Node000008"><a xlink:title=" ">
<path fill="none" stroke="#63b8ff" d="M234.7,-100.38C250.77,-100.38 268.12,-100.38 283.7,-100.38"/>
<polygon fill="#63b8ff" stroke="#63b8ff" points="283.69,-103.88 293.69,-100.38 283.69,-96.88 283.69,-103.88"/>
</a>
</g>
</g>
<!-- Node9 -->
<g id="Node000009" class="node">
<title>Node9</title>
<g id="a_Node000009"><a xlink:href="kest__files_8c.html#ab79d861306c25eab9284239e73d0cc07" target="_top" xlink:title=" ">
<polygon fill="white" stroke="#666666" points="556.38,-149.75 444.38,-149.75 444.38,-129 556.38,-129 556.38,-149.75"/>
<text xml:space="preserve" text-anchor="middle" x="500.38" y="-136.25" font-family="Helvetica,sans-Serif" font-size="10.00">dump_file_contents</text>
</a>
</g>
</g>
<!-- Node8&#45;&gt;Node9 -->
<g id="edge7_Node000008_Node000009" class="edge">
<title>Node8&#45;&gt;Node9</title>
<g id="a_edge7_Node000008_Node000009"><a xlink:title=" ">
<path fill="none" stroke="#63b8ff" d="M372.01,-109.22C392.81,-114.15 419.14,-120.38 442.45,-125.9"/>
<polygon fill="#63b8ff" stroke="#63b8ff" points="441.61,-129.3 452.15,-128.19 443.22,-122.49 441.61,-129.3"/>
</a>
</g>
</g>
<!-- Node10 -->
<g id="Node000010" class="node">
<title>Node10</title>
<g id="a_Node000010"><a xlink:href="kest__files_8c.html#aa81649890323b78baf99fbbad53ab5ff" target="_top" xlink:title=" ">
<polygon fill="white" stroke="#666666" points="554.5,-110.75 446.25,-110.75 446.25,-90 554.5,-90 554.5,-110.75"/>
<text xml:space="preserve" text-anchor="middle" x="500.38" y="-97.25" font-family="Helvetica,sans-Serif" font-size="10.00">generate_filename</text>
</a>
</g>
</g>
<!-- Node8&#45;&gt;Node10 -->
<g id="edge8_Node000008_Node000010" class="edge">
<title>Node8&#45;&gt;Node10</title>
<g id="a_edge8_Node000008_Node000010"><a xlink:title=" ">
<path fill="none" stroke="#63b8ff" d="M372.01,-100.38C390.52,-100.38 413.4,-100.38 434.64,-100.38"/>
<polygon fill="#63b8ff" stroke="#63b8ff" points="434.38,-103.88 444.38,-100.38 434.38,-96.88 434.38,-103.88"/>
</a>
</g>
</g>
<!-- Node11 -->
<g id="Node000011" class="node">
<title>Node11</title>
<g id="a_Node000011"><a xlink:href="kest__error__codes_8c.html#a0f4c77127bc0b77264a21104979c576a" target="_top" xlink:title=" ">
<polygon fill="white" stroke="#666666" points="554.5,-72.12 446.25,-72.12 446.25,-38.62 554.5,-38.62 554.5,-72.12"/>
<text xml:space="preserve" text-anchor="start" x="454.25" y="-58.62" font-family="Helvetica,sans-Serif" font-size="10.00">kest_error_code_to</text>
<text xml:space="preserve" text-anchor="middle" x="500.38" y="-45.88" font-family="Helvetica,sans-Serif" font-size="10.00">_string</text>
</a>
</g>
</g>
<!-- Node8&#45;&gt;Node11 -->
<g id="edge9_Node000008_Node000011" class="edge">
<title>Node8&#45;&gt;Node11</title>
<g id="a_edge9_Node000008_Node000011"><a xlink:title=" ">
<path fill="none" stroke="#63b8ff" d="M372.01,-90.16C390.6,-85.08 413.61,-78.8 434.93,-72.98"/>
<polygon fill="#63b8ff" stroke="#63b8ff" points="435.71,-76.39 444.44,-70.38 433.87,-69.64 435.71,-76.39"/>
</a>
</g>
</g>
<!-- Node12 -->
<g id="Node000012" class="node">
<title>Node12</title>
<g id="a_Node000012"><a xlink:href="kest__files_8c.html#acdd9a1fdb8fef8888d540a275ecfa86a" target="_top" xlink:title=" ">
<polygon fill="white" stroke="#666666" points="557.12,-20.75 443.62,-20.75 443.62,0 557.12,0 557.12,-20.75"/>
<text xml:space="preserve" text-anchor="middle" x="500.38" y="-7.25" font-family="Helvetica,sans-Serif" font-size="10.00">save_profile_as_file</text>
</a>
</g>
</g>
<!-- Node8&#45;&gt;Node12 -->
<g id="edge10_Node000008_Node000012" class="edge">
<title>Node8&#45;&gt;Node12</title>
<g id="a_edge10_Node000008_Node000012"><a xlink:title=" ">
<path fill="none" stroke="#63b8ff" d="M346.43,-89.69C364.02,-74.29 398.7,-45.91 432.75,-29.38 436,-27.8 439.4,-26.33 442.87,-24.97"/>
<polygon fill="#63b8ff" stroke="#63b8ff" points="443.77,-28.36 452,-21.7 441.41,-21.77 443.77,-28.36"/>
</a>
</g>
</g>
</g>
</svg>

<g id="navigator" transform="translate(0 0)" fill="#404254">
  <rect fill="#f2f5e9" fill-opacity="0.5" stroke="#606060" stroke-width=".5" x="0" y="0" width="60" height="60"/>
  <use id="zoomplus" xlink:href="#zoomPlus" x="17" y="9" onmousedown="handleZoom(evt,'in')"/>
  <use id="zoomminus" xlink:href="#zoomMin" x="42" y="9" onmousedown="handleZoom(evt,'out')"/>
  <use id="reset" xlink:href="#resetDef" x="30" y="36" onmousedown="handleReset()"/>
   <use id="arrowup" xlink:href="#arrowUp" x="0" y="0" onmousedown="handlePan(0,-1)"/>
  <use id="arrowright" xlink:href="#arrowRight" x="0" y="0" onmousedown="handlePan(1,0)"/>
  <use id="arrowdown" xlink:href="#arrowDown" x="0" y="0" onmousedown="handlePan(0,1)"/>
  <use id="arrowleft" xlink:href="#arrowLeft" x="0" y="0" onmousedown="handlePan(-1,0)"/>
</g>
<svg viewBox="0 0 15 15" width="100%" height="30px" preserveAspectRatio="xMaxYMin meet">
 <g id="arrow_out" transform="scale(0.3 0.3)">
  <a xlink:href="kest__profile_8h_a417513ac62c9729d2ade560580ca6618_cgraph_org.svg" target="_base">
   <rect id="button" ry="5" rx="5" y="6" x="6" height="38" width="38"
        fill="#f2f5e9" fill-opacity="0.5" stroke="#606060" stroke-width="1.0"/>
   <path id="arrow"
     d="M 11.500037,31.436501 C 11.940474,20.09759 22.043105,11.32322 32.158766,21.979434 L 37.068811,17.246167 C 37.068811,17.246167 37.088388,32 37.088388,32 L 22.160133,31.978069 C 22.160133,31.978069 26.997745,27.140456 26.997745,27.140456 C 18.528582,18.264221 13.291696,25.230495 11.500037,31.436501 z"
     style="fill:#404040;"/>
  </a>
 </g>
</svg>

<style type='text/css'>
<![CDATA[
[data-mouse-over-selected='false'] { opacity: 0.7; }
[data-mouse-over-selected='true']  { opacity: 1.0; }
]]>
</style>
<script type="application/ecmascript"><![CDATA[
document.addEventListener('DOMContentLoaded', (event) => {
  highlightEdges();
  highlightAdjacentNodes();
});
]]></script>
</svg>
