<?xml version="1.0" encoding="UTF-8" standalone="no"?>
<!DOCTYPE svg PUBLIC "-//W3C//DTD SVG 1.1//EN"
 "http://www.w3.org/Graphics/SVG/1.1/DTD/svg11.dtd">
<!-- Generated by graphviz version 13.1.2 (20250808.2320)
 -->
<!-- Title: create_panel Pages: 1 -->
<!--zoomable 236 -->

<svg id="main" version="1.1" xmlns="http://www.w3.org/2000/svg" xmlns:xlink="http://www.w3.org/1999/xlink" xml:space="preserve" onload="init(evt)">

<style type="text/css"><![CDATA[
.node, .edge {opacity: 0.7;}
.node.selected, .edge.selected {opacity: 1;}
.edge:hover path { stroke: red; }
.edge:hover polygon { stroke: red; fill: red; }
]]></style>

<defs>
  <circle id="rim" cx="0" cy="0" r="7"/>
  <circle id="rim2" cx="0" cy="0" r="3.5"/>
  <g id="zoomPlus">
    <use xlink:href="#rim" fill="#404040"><set attributeName="fill" to="#808080" begin="zoomplus.mouseover" end="zoomplus.mouseout"/></use>
    <path d="M-4,0h8M0,-4v8" fill="none" stroke="white" stroke-width="1.5" pointer-events="none"/>
  </g>
  <g id="zoomMin">
    <use xlink:href="#rim" fill="#404040"><set attributeName="fill" to="#808080" begin="zoomminus.mouseover" end="zoomminus.mouseout"/></use>
    <path d="M-4,0h8" fill="none" stroke="white" stroke-width="1.5" pointer-events="none"/>
  </g>
  <g id="arrowUp" transform="translate(30 24)">
    <use xlink:href="#rim"/>
    <path pointer-events="none" fill="none" stroke="white" stroke-width="1.5" d="M0,-3.0v7 M-2.5,-0.5L0,-3.0L2.5,-0.5"/>
  </g>
  <g id="arrowRight" transform="rotate(90) translate(36 -43)">
    <use xlink:href="#rim"/>
    <path pointer-events="none" fill="none" stroke="white" stroke-width="1.5" d="M0,-3.0v7 M-2.5,-0.5L0,-3.0L2.5,-0.5"/>
  </g>
  <g id="arrowDown" transform="rotate(180) translate(-30 -48)">
    <use xlink:href="#rim"/>
    <path pointer-events="none" fill="none" stroke="white" stroke-width="1.5" d="M0,-3.0v7 M-2.5,-0.5L0,-3.0L2.5,-0.5"/>
  </g>
  <g id="arrowLeft" transform="rotate(270) translate(-36 17)">
    <use xlink:href="#rim"/>
    <path pointer-events="none" fill="none" stroke="white" stroke-width="1.5" d="M0,-3.0v7 M-2.5,-0.5L0,-3.0L2.5,-0.5"/>
  </g>
  <g id="resetDef">
    <use xlink:href="#rim2" fill="#404040"><set attributeName="fill" to="#808080" begin="reset.mouseover" end="reset.mouseout"/></use>
  </g>
</defs>
<script type="application/ecmascript">
var viewWidth = 605;
var viewHeight = 236;
var sectionId = 'dynsection-2';
</script>
<script type="application/ecmascript" xlink:href="svg.min.js"/>
<svg id="graph" class="graph">
<g id="viewport">
<title>create_panel</title>
<!-- Node1 -->
<g id="Node000001" class="node">
<title>Node1</title>
<g id="a_Node000001"><a xlink:title=" ">
<polygon fill="#999999" stroke="#666666" points="596.5,-157.12 517.5,-157.12 517.5,-136.38 596.5,-136.38 596.5,-157.12"/>
<text xml:space="preserve" text-anchor="middle" x="557" y="-143.62" font-family="Helvetica,sans-Serif" font-size="10.00">create_panel</text>
</a>
</g>
</g>
<!-- Node2 -->
<g id="Node000002" class="node">
<title>Node2</title>
<g id="a_Node000002"><a xlink:href="kest__ui_8c.html#a6fde92fc4b8b459e12f1c93dcae372bc" target="_top" xlink:title=" ">
<polygon fill="white" stroke="#666666" points="478.5,-228.12 357.5,-228.12 357.5,-207.38 478.5,-207.38 478.5,-228.12"/>
<text xml:space="preserve" text-anchor="middle" x="418" y="-214.62" font-family="Helvetica,sans-Serif" font-size="10.00">create_panel_rw_title</text>
</a>
</g>
</g>
<!-- Node1&#45;&gt;Node2 -->
<g id="edge1_Node000001_Node000002" class="edge">
<title>Node1&#45;&gt;Node2</title>
<g id="a_edge1_Node000001_Node000002"><a xlink:title=" ">
<path fill="none" stroke="#63b8ff" d="M534.34,-164.61C520.05,-175.69 500.52,-189.51 481.5,-198.75 475.07,-201.87 468.02,-204.61 461.05,-206.96"/>
<polygon fill="#63b8ff" stroke="#63b8ff" points="536.49,-167.38 542.14,-158.42 532.13,-161.9 536.49,-167.38"/>
</a>
</g>
</g>
<!-- Node3 -->
<g id="Node000003" class="node">
<title>Node3</title>
<g id="a_Node000003"><a xlink:href="kest__ui_8c.html#a49ee629a510f7004b16ad9b0639c06e5" target="_top" xlink:title=" ">
<polygon fill="white" stroke="#666666" points="478.5,-189.5 357.5,-189.5 357.5,-156 478.5,-156 478.5,-189.5"/>
<text xml:space="preserve" text-anchor="start" x="365.5" y="-176" font-family="Helvetica,sans-Serif" font-size="10.00">create_panel_rw_title</text>
<text xml:space="preserve" text-anchor="middle" x="418" y="-163.25" font-family="Helvetica,sans-Serif" font-size="10.00">_and_left_button</text>
</a>
</g>
</g>
<!-- Node1&#45;&gt;Node3 -->
<g id="edge2_Node000001_Node000003" class="edge">
<title>Node1&#45;&gt;Node3</title>
<g id="a_edge2_Node000001_Node000003"><a xlink:title=" ">
<path fill="none" stroke="#63b8ff" d="M505.91,-156.26C497.15,-157.92 487.97,-159.66 478.98,-161.37"/>
<polygon fill="#63b8ff" stroke="#63b8ff" points="506.45,-159.72 515.62,-154.41 505.14,-152.84 506.45,-159.72"/>
</a>
</g>
</g>
<!-- Node4 -->
<g id="Node000004" class="node">
<title>Node4</title>
<g id="a_Node000004"><a xlink:href="kest__ui_8c.html#a3b68b54bf855e7f8abe75c6a0d9cde85" target="_top" xlink:title=" ">
<polygon fill="white" stroke="#666666" points="481.5,-137.5 354.5,-137.5 354.5,-104 481.5,-104 481.5,-137.5"/>
<text xml:space="preserve" text-anchor="start" x="362.5" y="-124" font-family="Helvetica,sans-Serif" font-size="10.00">create_panel_with_left</text>
<text xml:space="preserve" text-anchor="middle" x="418" y="-111.25" font-family="Helvetica,sans-Serif" font-size="10.00">_and_right_buttons</text>
</a>
</g>
</g>
<!-- Node1&#45;&gt;Node4 -->
<g id="edge3_Node000001_Node000004" class="edge">
<title>Node1&#45;&gt;Node4</title>
<g id="a_edge3_Node000001_Node000004"><a xlink:title=" ">
<path fill="none" stroke="#63b8ff" d="M505.93,-137.25C498.09,-135.76 489.91,-134.21 481.83,-132.67"/>
<polygon fill="#63b8ff" stroke="#63b8ff" points="505.14,-140.66 515.62,-139.09 506.45,-133.78 505.14,-140.66"/>
</a>
</g>
</g>
<!-- Node6 -->
<g id="Node000006" class="node">
<title>Node6</title>
<g id="a_Node000006"><a xlink:href="kest__ui_8c.html#ab7288cd77dcc987b33a1c1be3a0a4ce0" target="_top" xlink:title=" ">
<polygon fill="white" stroke="#666666" points="481.5,-85.5 354.5,-85.5 354.5,-52 481.5,-52 481.5,-85.5"/>
<text xml:space="preserve" text-anchor="start" x="362.5" y="-72" font-family="Helvetica,sans-Serif" font-size="10.00">create_panel_with_left</text>
<text xml:space="preserve" text-anchor="middle" x="418" y="-59.25" font-family="Helvetica,sans-Serif" font-size="10.00">_button</text>
</a>
</g>
</g>
<!-- Node1&#45;&gt;Node6 -->
<g id="edge5_Node000001_Node000006" class="edge">
<title>Node1&#45;&gt;Node6</title>
<g id="a_edge5_Node000001_Node000006"><a xlink:title=" ">
<path fill="none" stroke="#63b8ff" d="M533.49,-129.12C519.12,-118.37 499.81,-104.8 481.5,-94.75 475.83,-91.64 469.72,-88.67 463.6,-85.92"/>
<polygon fill="#63b8ff" stroke="#63b8ff" points="531.29,-131.85 541.37,-135.13 535.53,-126.28 531.29,-131.85"/>
</a>
</g>
</g>
<!-- Node5 -->
<g id="Node000005" class="node">
<title>Node5</title>
<g id="a_Node000005"><a xlink:href="kest__ui_8c.html#aea23235acc3b1a34113c2aff79e030e7" target="_top" xlink:title=" ">
<polygon fill="white" stroke="#666666" points="318.5,-137.5 178,-137.5 178,-104 318.5,-104 318.5,-137.5"/>
<text xml:space="preserve" text-anchor="start" x="186" y="-124" font-family="Helvetica,sans-Serif" font-size="10.00">create_panel_with_back</text>
<text xml:space="preserve" text-anchor="middle" x="248.25" y="-111.25" font-family="Helvetica,sans-Serif" font-size="10.00">_button_and_right_button</text>
</a>
</g>
</g>
<!-- Node4&#45;&gt;Node5 -->
<g id="edge4_Node000004_Node000005" class="edge">
<title>Node4&#45;&gt;Node5</title>
<g id="a_edge4_Node000004_Node000005"><a xlink:title=" ">
<path fill="none" stroke="#63b8ff" d="M342.56,-120.75C334.64,-120.75 326.6,-120.75 318.73,-120.75"/>
<polygon fill="#63b8ff" stroke="#63b8ff" points="342.55,-124.25 352.55,-120.75 342.55,-117.25 342.55,-124.25"/>
</a>
</g>
</g>
<!-- Node7 -->
<g id="Node000007" class="node">
<title>Node7</title>
<g id="a_Node000007"><a xlink:href="kest__ui_8c.html#a7aea2c8df77b1c144c35271c2ab8241f" target="_top" xlink:title=" ">
<polygon fill="white" stroke="#666666" points="315.12,-85.5 181.38,-85.5 181.38,-52 315.12,-52 315.12,-85.5"/>
<text xml:space="preserve" text-anchor="start" x="189.38" y="-72" font-family="Helvetica,sans-Serif" font-size="10.00">create_panel_with_back</text>
<text xml:space="preserve" text-anchor="middle" x="248.25" y="-59.25" font-family="Helvetica,sans-Serif" font-size="10.00">_button</text>
</a>
</g>
</g>
<!-- Node6&#45;&gt;Node7 -->
<g id="edge6_Node000006_Node000007" class="edge">
<title>Node6&#45;&gt;Node7</title>
<g id="a_edge6_Node000006_Node000007"><a xlink:title=" ">
<path fill="none" stroke="#63b8ff" d="M342.65,-68.75C333.56,-68.75 324.31,-68.75 315.35,-68.75"/>
<polygon fill="#63b8ff" stroke="#63b8ff" points="342.55,-72.25 352.55,-68.75 342.55,-65.25 342.55,-72.25"/>
</a>
</g>
</g>
<!-- Node8 -->
<g id="Node000008" class="node">
<title>Node8</title>
<g id="a_Node000008"><a xlink:href="kest__effect__select_8c.html#af5e1f2ec64c8c42ed66a3bc39c7411eb" target="_top" xlink:title=" ">
<polygon fill="#fff0f0" stroke="red" points="133.38,-137.5 8.63,-137.5 8.63,-104 133.38,-104 133.38,-137.5"/>
<text xml:space="preserve" text-anchor="start" x="16.62" y="-124" font-family="Helvetica,sans-Serif" font-size="10.00">create_effect_selector</text>
<text xml:space="preserve" text-anchor="middle" x="71" y="-111.25" font-family="Helvetica,sans-Serif" font-size="10.00">_ui_eff</text>
</a>
</g>
</g>
<!-- Node7&#45;&gt;Node8 -->
<g id="edge7_Node000007_Node000008" class="edge">
<title>Node7&#45;&gt;Node8</title>
<g id="a_edge7_Node000007_Node000008"><a xlink:title=" ">
<path fill="none" stroke="#63b8ff" d="M178.47,-89.16C162.47,-93.9 145.59,-98.91 130.11,-103.51"/>
<polygon fill="#63b8ff" stroke="#63b8ff" points="179.34,-92.55 187.93,-86.35 177.35,-85.84 179.34,-92.55"/>
</a>
</g>
</g>
<!-- Node13 -->
<g id="Node000013" class="node">
<title>Node13</title>
<g id="a_Node000013"><a xlink:href="kest__ui_8c.html#a91cbeba99527e75576d1690162018ef5" target="_top" xlink:title=" ">
<polygon fill="#fff0f0" stroke="red" points="142,-85.5 0,-85.5 0,-52 142,-52 142,-85.5"/>
<text xml:space="preserve" text-anchor="start" x="8" y="-72" font-family="Helvetica,sans-Serif" font-size="10.00">create_panel_with_back</text>
<text xml:space="preserve" text-anchor="middle" x="71" y="-59.25" font-family="Helvetica,sans-Serif" font-size="10.00">_button_and_page_button</text>
</a>
</g>
</g>
<!-- Node7&#45;&gt;Node13 -->
<g id="edge8_Node000007_Node000013" class="edge">
<title>Node7&#45;&gt;Node13</title>
<g id="a_edge8_Node000007_Node000013"><a xlink:title=" ">
<path fill="none" stroke="#63b8ff" d="M169.64,-68.75C160.58,-68.75 151.39,-68.75 142.44,-68.75"/>
<polygon fill="#63b8ff" stroke="#63b8ff" points="169.48,-72.25 179.48,-68.75 169.48,-65.25 169.48,-72.25"/>
</a>
</g>
</g>
<!-- Node15 -->
<g id="Node000015" class="node">
<title>Node15</title>
<g id="a_Node000015"><a xlink:href="kest__ui_8c.html#a62156348a1dfc799541fc93d3dd20b6e" target="_top" xlink:title=" ">
<polygon fill="white" stroke="#666666" points="137.5,-33.5 4.5,-33.5 4.5,0 137.5,0 137.5,-33.5"/>
<text xml:space="preserve" text-anchor="start" x="12.5" y="-20" font-family="Helvetica,sans-Serif" font-size="10.00">create_panel_with_right</text>
<text xml:space="preserve" text-anchor="middle" x="71" y="-7.25" font-family="Helvetica,sans-Serif" font-size="10.00">_button</text>
</a>
</g>
</g>
<!-- Node7&#45;&gt;Node15 -->
<g id="edge9_Node000007_Node000015" class="edge">
<title>Node7&#45;&gt;Node15</title>
<g id="a_edge9_Node000007_Node000015"><a xlink:title=" ">
<path fill="none" stroke="#63b8ff" d="M178.47,-48.34C162.47,-43.6 145.59,-38.59 130.11,-33.99"/>
<polygon fill="#63b8ff" stroke="#63b8ff" points="177.35,-51.66 187.93,-51.15 179.34,-44.95 177.35,-51.66"/>
</a>
</g>
</g>
</g>
</svg>

<g id="navigator" transform="translate(0 0)" fill="#404254">
  <rect fill="#f2f5e9" fill-opacity="0.5" stroke="#606060" stroke-width=".5" x="0" y="0" width="60" height="60"/>
  <use id="zoomplus" xlink:href="#zoomPlus" x="17" y="9" onmousedown="handleZoom(evt,'in')"/>
  <use id="zoomminus" xlink:href="#zoomMin" x="42" y="9" onmousedown="handleZoom(evt,'out')"/>
  <use id="reset" xlink:href="#resetDef" x="30" y="36" onmousedown="handleReset()"/>
   <use id="arrowup" xlink:href="#arrowUp" x="0" y="0" onmousedown="handlePan(0,-1)"/>
  <use id="arrowright" xlink:href="#arrowRight" x="0" y="0" onmousedown="handlePan(1,0)"/>
  <use id="arrowdown" xlink:href="#arrowDown" x="0" y="0" onmousedown="handlePan(0,1)"/>
  <use id="arrowleft" xlink:href="#arrowLeft" x="0" y="0" onmousedown="handlePan(-1,0)"/>
</g>
<svg viewBox="0 0 15 15" width="100%" height="30px" preserveAspectRatio="xMaxYMin meet">
 <g id="arrow_out" transform="scale(0.3 0.3)">
  <a xlink:href="kest__ui_8c_af27244753a655f48efb1d98e7588fcff_icgraph_org.svg" target="_base">
   <rect id="button" ry="5" rx="5" y="6" x="6" height="38" width="38"
        fill="#f2f5e9" fill-opacity="0.5" stroke="#606060" stroke-width="1.0"/>
   <path id="arrow"
     d="M 11.500037,31.436501 C 11.940474,20.09759 22.043105,11.32322 32.158766,21.979434 L 37.068811,17.246167 C 37.068811,17.246167 37.088388,32 37.088388,32 L 22.160133,31.978069 C 22.160133,31.978069 26.997745,27.140456 26.997745,27.140456 C 18.528582,18.264221 13.291696,25.230495 11.500037,31.436501 z"
     style="fill:#404040;"/>
  </a>
 </g>
</svg>

<style type='text/css'>
<![CDATA[
[data-mouse-over-selected='false'] { opacity: 0.7; }
[data-mouse-over-selected='true']  { opacity: 1.0; }
]]>
</style>
<script type="application/ecmascript"><![CDATA[
document.addEventListener('DOMContentLoaded', (event) => {
  highlightEdges();
  highlightAdjacentNodes();
});
]]></script>
</svg>
