<?xml version="1.0" encoding="UTF-8" standalone="no"?>
<!DOCTYPE svg PUBLIC "-//W3C//DTD SVG 1.1//EN"
 "http://www.w3.org/Graphics/SVG/1.1/DTD/svg11.dtd">
<!-- Generated by graphviz version 13.1.2 (20250808.2320)
 -->
<!-- Title: format_parameter_widget_value_label Pages: 1 -->
<svg width="721pt" height="119pt"
 viewBox="0.00 0.00 721.00 119.00" xmlns="http://www.w3.org/2000/svg" xmlns:xlink="http://www.w3.org/1999/xlink">
<g id="graph0" class="graph" transform="scale(1 1) rotate(0) translate(4 114.75)">
<title>format_parameter_widget_value_label</title>
<!-- Node1 -->
<g id="Node000001" class="node">
<title>Node1</title>
<g id="a_Node000001"><a xlink:title=" ">
<polygon fill="#999999" stroke="#666666" points="712.75,-72.12 569.25,-72.12 569.25,-38.62 712.75,-38.62 712.75,-72.12"/>
<text xml:space="preserve" text-anchor="start" x="577.25" y="-58.62" font-family="Helvetica,sans-Serif" font-size="10.00">format_parameter_widget</text>
<text xml:space="preserve" text-anchor="middle" x="641" y="-45.88" font-family="Helvetica,sans-Serif" font-size="10.00">_value_label</text>
</a>
</g>
</g>
<!-- Node2 -->
<g id="Node000002" class="node">
<title>Node2</title>
<g id="a_Node000002"><a xlink:href="kest__parameter__widget_8c.html#af345b51066bd1985326c50809d992fab" target="_top" xlink:title=" ">
<polygon fill="white" stroke="#666666" points="533.25,-72.12 389,-72.12 389,-38.62 533.25,-38.62 533.25,-72.12"/>
<text xml:space="preserve" text-anchor="start" x="397" y="-58.62" font-family="Helvetica,sans-Serif" font-size="10.00">parameter_widget_update</text>
<text xml:space="preserve" text-anchor="middle" x="461.12" y="-45.88" font-family="Helvetica,sans-Serif" font-size="10.00">_value_label</text>
</a>
</g>
</g>
<!-- Node1&#45;&gt;Node2 -->
<g id="edge1_Node000001_Node000002" class="edge">
<title>Node1&#45;&gt;Node2</title>
<g id="a_edge1_Node000001_Node000002"><a xlink:title=" ">
<path fill="none" stroke="#63b8ff" d="M557.67,-55.38C549.65,-55.38 541.56,-55.38 533.66,-55.38"/>
<polygon fill="#63b8ff" stroke="#63b8ff" points="557.42,-58.88 567.42,-55.38 557.42,-51.88 557.42,-58.88"/>
</a>
</g>
</g>
<!-- Node3 -->
<g id="Node000003" class="node">
<title>Node3</title>
<g id="a_Node000003"><a xlink:href="kest__parameter__widget_8c.html#a1590cd4e080ed869e0372fef1a233085" target="_top" xlink:title=" ">
<polygon fill="white" stroke="#666666" points="345.12,-110.75 199.38,-110.75 199.38,-90 345.12,-90 345.12,-110.75"/>
<text xml:space="preserve" text-anchor="middle" x="272.25" y="-97.25" font-family="Helvetica,sans-Serif" font-size="10.00">param_widget_rep_update</text>
</a>
</g>
</g>
<!-- Node2&#45;&gt;Node3 -->
<g id="edge2_Node000002_Node000003" class="edge">
<title>Node2&#45;&gt;Node3</title>
<g id="a_edge2_Node000002_Node000003"><a xlink:title=" ">
<path fill="none" stroke="#63b8ff" d="M378.14,-75.31C369.65,-77.36 361.15,-79.41 353,-81.38 341.93,-84.04 329.99,-86.89 318.81,-89.56"/>
<polygon fill="#63b8ff" stroke="#63b8ff" points="378.89,-78.73 387.79,-72.98 377.24,-71.93 378.89,-78.73"/>
</a>
</g>
</g>
<!-- Node16 -->
<g id="Node000016" class="node">
<title>Node16</title>
<g id="a_Node000016"><a xlink:href="kest__parameter__widget_8c.html#a275a44ab81e73412a3c3da5597906fcc" target="_top" xlink:title=" ">
<polygon fill="white" stroke="#666666" points="342.88,-72.12 201.62,-72.12 201.62,-38.62 342.88,-38.62 342.88,-72.12"/>
<text xml:space="preserve" text-anchor="start" x="209.62" y="-58.62" font-family="Helvetica,sans-Serif" font-size="10.00">parameter_widget_create</text>
<text xml:space="preserve" text-anchor="middle" x="272.25" y="-45.88" font-family="Helvetica,sans-Serif" font-size="10.00">_ui_no_callback</text>
</a>
</g>
</g>
<!-- Node2&#45;&gt;Node16 -->
<g id="edge4_Node000002_Node000016" class="edge">
<title>Node2&#45;&gt;Node16</title>
<g id="a_edge4_Node000002_Node000016"><a xlink:title=" ">
<path fill="none" stroke="#63b8ff" d="M377.35,-55.38C365.92,-55.38 354.28,-55.38 343.12,-55.38"/>
<polygon fill="#63b8ff" stroke="#63b8ff" points="377.16,-58.88 387.16,-55.38 377.16,-51.88 377.16,-58.88"/>
</a>
</g>
</g>
<!-- Node44 -->
<g id="Node000044" class="node">
<title>Node44</title>
<g id="a_Node000044"><a xlink:href="kest__parameter__widget_8c.html#ac55937f74509696b892e16cd9148a0c4" target="_top" xlink:title=" ">
<polygon fill="white" stroke="#666666" points="353,-20.75 191.5,-20.75 191.5,0 353,0 353,-20.75"/>
<text xml:space="preserve" text-anchor="middle" x="272.25" y="-7.25" font-family="Helvetica,sans-Serif" font-size="10.00">parameter_widget_refresh_cb</text>
</a>
</g>
</g>
<!-- Node2&#45;&gt;Node44 -->
<g id="edge7_Node000002_Node000044" class="edge">
<title>Node2&#45;&gt;Node44</title>
<g id="a_edge7_Node000002_Node000044"><a xlink:title=" ">
<path fill="none" stroke="#63b8ff" d="M378.14,-35.44C369.65,-33.39 361.15,-31.34 353,-29.38 341.93,-26.71 329.99,-23.86 318.81,-21.19"/>
<polygon fill="#63b8ff" stroke="#63b8ff" points="377.24,-38.82 387.79,-37.77 378.89,-32.02 377.24,-38.82"/>
</a>
</g>
</g>
<!-- Node4 -->
<g id="Node000004" class="node">
<title>Node4</title>
<g id="a_Node000004"><a xlink:href="kest__parameter__widget_8c.html#a89863fab24827de020d29878a86c1b60" target="_top" xlink:title=" ">
<polygon fill="#fff0f0" stroke="red" points="148.38,-110.75 7.12,-110.75 7.12,-90 148.38,-90 148.38,-110.75"/>
<text xml:space="preserve" text-anchor="middle" x="77.75" y="-97.25" font-family="Helvetica,sans-Serif" font-size="10.00">nullify_parameter_widget</text>
</a>
</g>
</g>
<!-- Node3&#45;&gt;Node4 -->
<g id="edge3_Node000003_Node000004" class="edge">
<title>Node3&#45;&gt;Node4</title>
<g id="a_edge3_Node000003_Node000004"><a xlink:title=" ">
<path fill="none" stroke="#63b8ff" d="M187.73,-100.38C174.75,-100.38 161.46,-100.38 148.83,-100.38"/>
<polygon fill="#63b8ff" stroke="#63b8ff" points="187.51,-103.88 197.51,-100.38 187.51,-96.88 187.51,-103.88"/>
</a>
</g>
</g>
<!-- Node17 -->
<g id="Node000017" class="node">
<title>Node17</title>
<g id="a_Node000017"><a xlink:href="kest__menu_8c.html#aa44b42640611d3ca75f6b55206ebd08e" target="_top" xlink:title=" ">
<polygon fill="#fff0f0" stroke="red" points="138.62,-68.75 16.88,-68.75 16.88,-48 138.62,-48 138.62,-68.75"/>
<text xml:space="preserve" text-anchor="middle" x="77.75" y="-55.25" font-family="Helvetica,sans-Serif" font-size="10.00">create_menu_item_ui</text>
</a>
</g>
</g>
<!-- Node16&#45;&gt;Node17 -->
<g id="edge5_Node000016_Node000017" class="edge">
<title>Node16&#45;&gt;Node17</title>
<g id="a_edge5_Node000016_Node000017"><a xlink:title=" ">
<path fill="none" stroke="#63b8ff" d="M190.06,-56.64C172.91,-56.91 155.1,-57.19 138.9,-57.44"/>
<polygon fill="#63b8ff" stroke="#63b8ff" points="189.75,-60.15 199.7,-56.49 189.64,-53.15 189.75,-60.15"/>
</a>
</g>
</g>
<!-- Node24 -->
<g id="Node000024" class="node">
<title>Node24</title>
<g id="a_Node000024"><a xlink:href="kest__parameter__widget_8c.html#adbadb9573fa4f9b812f8d270c78053e4" target="_top" xlink:title=" ">
<polygon fill="#fff0f0" stroke="red" points="155.5,-29.75 0,-29.75 0,-9 155.5,-9 155.5,-29.75"/>
<text xml:space="preserve" text-anchor="middle" x="77.75" y="-16.25" font-family="Helvetica,sans-Serif" font-size="10.00">parameter_widget_create_ui</text>
</a>
</g>
</g>
<!-- Node16&#45;&gt;Node24 -->
<g id="edge6_Node000016_Node000024" class="edge">
<title>Node16&#45;&gt;Node24</title>
<g id="a_edge6_Node000016_Node000024"><a xlink:title=" ">
<path fill="none" stroke="#63b8ff" d="M189.9,-40.16C172.03,-36.82 153.45,-33.35 136.72,-30.22"/>
<polygon fill="#63b8ff" stroke="#63b8ff" points="189.25,-43.6 199.72,-42 190.53,-36.72 189.25,-43.6"/>
</a>
</g>
</g>
</g>
</svg>
