<?xml version="1.0" encoding="UTF-8" standalone="no"?>
<!DOCTYPE svg PUBLIC "-//W3C//DTD SVG 1.1//EN"
 "http://www.w3.org/Graphics/SVG/1.1/DTD/svg11.dtd">
<!-- Generated by graphviz version 13.1.2 (20250808.2320)
 -->
<!-- Title: clone_setting Pages: 1 -->
<svg width="530pt" height="74pt"
 viewBox="0.00 0.00 530.00 74.00" xmlns="http://www.w3.org/2000/svg" xmlns:xlink="http://www.w3.org/1999/xlink">
<g id="graph0" class="graph" transform="scale(1 1) rotate(0) translate(4 70.12)">
<title>clone_setting</title>
<!-- Node1 -->
<g id="Node000001" class="node">
<title>Node1</title>
<g id="a_Node000001"><a xlink:title=" ">
<polygon fill="#999999" stroke="#666666" points="81.25,-39.75 0,-39.75 0,-19 81.25,-19 81.25,-39.75"/>
<text xml:space="preserve" text-anchor="middle" x="40.62" y="-26.25" font-family="Helvetica,sans-Serif" font-size="10.00">clone_setting</text>
</a>
</g>
</g>
<!-- Node2 -->
<g id="Node000002" class="node">
<title>Node2</title>
<g id="a_Node000002"><a xlink:href="kest__parameter_8c.html#a7c270a293ab879d0d3e757625c7c7dda" target="_top" xlink:title=" ">
<polygon fill="white" stroke="#666666" points="206,-59.75 117.25,-59.75 117.25,-39 206,-39 206,-59.75"/>
<text xml:space="preserve" text-anchor="middle" x="161.62" y="-46.25" font-family="Helvetica,sans-Serif" font-size="10.00">init_setting_str</text>
</a>
</g>
</g>
<!-- Node1&#45;&gt;Node2 -->
<g id="edge1_Node000001_Node000002" class="edge">
<title>Node1&#45;&gt;Node2</title>
<g id="a_edge1_Node000001_Node000002"><a xlink:title=" ">
<path fill="none" stroke="#63b8ff" d="M81.58,-36.09C89.29,-37.39 97.49,-38.76 105.59,-40.12"/>
<polygon fill="#63b8ff" stroke="#63b8ff" points="104.95,-43.57 115.4,-41.77 106.12,-36.66 104.95,-43.57"/>
</a>
</g>
</g>
<!-- Node6 -->
<g id="Node000006" class="node">
<title>Node6</title>
<g id="a_Node000006"><a xlink:href="kest__alloc_8c.html#a849755c5dc5b35e712ffcdb602e50fb4" target="_top" xlink:title=" ">
<polygon fill="white" stroke="#666666" points="194,-20.75 129.25,-20.75 129.25,0 194,0 194,-20.75"/>
<text xml:space="preserve" text-anchor="middle" x="161.62" y="-7.25" font-family="Helvetica,sans-Serif" font-size="10.00">kest_alloc</text>
</a>
</g>
</g>
<!-- Node1&#45;&gt;Node6 -->
<g id="edge4_Node000001_Node000006" class="edge">
<title>Node1&#45;&gt;Node6</title>
<g id="a_edge4_Node000001_Node000006"><a xlink:title=" ">
<path fill="none" stroke="#63b8ff" d="M81.58,-23C93.13,-21.15 105.78,-19.13 117.51,-17.26"/>
<polygon fill="#63b8ff" stroke="#63b8ff" points="118.04,-20.72 127.36,-15.69 116.93,-13.81 118.04,-20.72"/>
</a>
</g>
</g>
<!-- Node3 -->
<g id="Node000003" class="node">
<title>Node3</title>
<g id="a_Node000003"><a xlink:href="kest__parameter_8c.html#a3c9f839cffc5f0a9b0630682ce8e9b9c" target="_top" xlink:title=" ">
<polygon fill="white" stroke="#666666" points="351,-66.12 242,-66.12 242,-32.62 351,-32.62 351,-66.12"/>
<text xml:space="preserve" text-anchor="start" x="250" y="-52.62" font-family="Helvetica,sans-Serif" font-size="10.00">kest_setting_effect</text>
<text xml:space="preserve" text-anchor="middle" x="296.5" y="-39.88" font-family="Helvetica,sans-Serif" font-size="10.00">_rep_update</text>
</a>
</g>
</g>
<!-- Node2&#45;&gt;Node3 -->
<g id="edge2_Node000002_Node000003" class="edge">
<title>Node2&#45;&gt;Node3</title>
<g id="a_edge2_Node000002_Node000003"><a xlink:title=" ">
<path fill="none" stroke="#63b8ff" d="M206.13,-49.38C213.85,-49.38 222.04,-49.38 230.2,-49.38"/>
<polygon fill="#63b8ff" stroke="#63b8ff" points="230.16,-52.88 240.16,-49.38 230.16,-45.88 230.16,-52.88"/>
</a>
</g>
</g>
<!-- Node4 -->
<g id="Node000004" class="node">
<title>Node4</title>
<g id="a_Node000004"><a xlink:href="kest__effect_8c.html#afdbf79f9f27eac4959dfcf7bbcb324d4" target="_top" xlink:title=" ">
<polygon fill="#fff0f0" stroke="red" points="522.25,-59.75 387,-59.75 387,-39 522.25,-39 522.25,-59.75"/>
<text xml:space="preserve" text-anchor="middle" x="454.62" y="-46.25" font-family="Helvetica,sans-Serif" font-size="10.00">kest_effect_update_reps</text>
</a>
</g>
</g>
<!-- Node3&#45;&gt;Node4 -->
<g id="edge3_Node000003_Node000004" class="edge">
<title>Node3&#45;&gt;Node4</title>
<g id="a_edge3_Node000003_Node000004"><a xlink:title=" ">
<path fill="none" stroke="#63b8ff" d="M351.23,-49.38C358.96,-49.38 367.05,-49.38 375.15,-49.38"/>
<polygon fill="#63b8ff" stroke="#63b8ff" points="375.04,-52.88 385.04,-49.38 375.04,-45.88 375.04,-52.88"/>
</a>
</g>
</g>
</g>
</svg>
