<?xml version="1.0" encoding="UTF-8" standalone="no"?>
<!DOCTYPE svg PUBLIC "-//W3C//DTD SVG 1.1//EN"
 "http://www.w3.org/Graphics/SVG/1.1/DTD/svg11.dtd">
<!-- Generated by graphviz version 13.1.2 (20250808.2320)
 -->
<!-- Title: kest_button_reset_state Pages: 1 -->
<!--zoomable 106 -->

<svg id="main" version="1.1" xmlns="http://www.w3.org/2000/svg" xmlns:xlink="http://www.w3.org/1999/xlink" xml:space="preserve" onload="init(evt)">

<style type="text/css"><![CDATA[
.node, .edge {opacity: 0.7;}
.node.selected, .edge.selected {opacity: 1;}
.edge:hover path { stroke: red; }
.edge:hover polygon { stroke: red; fill: red; }
]]></style>

<defs>
  <circle id="rim" cx="0" cy="0" r="7"/>
  <circle id="rim2" cx="0" cy="0" r="3.5"/>
  <g id="zoomPlus">
    <use xlink:href="#rim" fill="#404040"><set attributeName="fill" to="#808080" begin="zoomplus.mouseover" end="zoomplus.mouseout"/></use>
    <path d="M-4,0h8M0,-4v8" fill="none" stroke="white" stroke-width="1.5" pointer-events="none"/>
  </g>
  <g id="zoomMin">
    <use xlink:href="#rim" fill="#404040"><set attributeName="fill" to="#808080" begin="zoomminus.mouseover" end="zoomminus.mouseout"/></use>
    <path d="M-4,0h8" fill="none" stroke="white" stroke-width="1.5" pointer-events="none"/>
  </g>
  <g id="arrowUp" transform="translate(30 24)">
    <use xlink:href="#rim"/>
    <path pointer-events="none" fill="none" stroke="white" stroke-width="1.5" d="M0,-3.0v7 M-2.5,-0.5L0,-3.0L2.5,-0.5"/>
  </g>
  <g id="arrowRight" transform="rotate(90) translate(36 -43)">
    <use xlink:href="#rim"/>
    <path pointer-events="none" fill="none" stroke="white" stroke-width="1.5" d="M0,-3.0v7 M-2.5,-0.5L0,-3.0L2.5,-0.5"/>
  </g>
  <g id="arrowDown" transform="rotate(180) translate(-30 -48)">
    <use xlink:href="#rim"/>
    <path pointer-events="none" fill="none" stroke="white" stroke-width="1.5" d="M0,-3.0v7 M-2.5,-0.5L0,-3.0L2.5,-0.5"/>
  </g>
  <g id="arrowLeft" transform="rotate(270) translate(-36 17)">
    <use xlink:href="#rim"/>
    <path pointer-events="none" fill="none" stroke="white" stroke-width="1.5" d="M0,-3.0v7 M-2.5,-0.5L0,-3.0L2.5,-0.5"/>
  </g>
  <g id="resetDef">
    <use xlink:href="#rim2" fill="#404040"><set attributeName="fill" to="#808080" begin="reset.mouseover" end="reset.mouseout"/></use>
  </g>
</defs>
<script type="application/ecmascript">
var viewWidth = 761;
var viewHeight = 106;
var sectionId = 'dynsection-84';
</script>
<script type="application/ecmascript" xlink:href="svg.min.js"/>
<svg id="graph" class="graph">
<g id="viewport">
<title>kest_button_reset_state</title>
<!-- Node1 -->
<g id="Node000001" class="node">
<title>Node1</title>
<g id="a_Node000001"><a xlink:title=" ">
<polygon fill="#999999" stroke="#666666" points="752.75,-62.5 619.75,-62.5 619.75,-41.75 752.75,-41.75 752.75,-62.5"/>
<text xml:space="preserve" text-anchor="middle" x="686.25" y="-49" font-family="Helvetica,sans-Serif" font-size="10.00">kest_button_reset_state</text>
</a>
</g>
</g>
<!-- Node2 -->
<g id="Node000002" class="node">
<title>Node2</title>
<g id="a_Node000002"><a xlink:href="kest__button_8c.html#ab3d484ae52f7d01018eba300e3fe4e1f" target="_top" xlink:title=" ">
<polygon fill="white" stroke="#666666" points="572.5,-97.88 464.25,-97.88 464.25,-64.38 572.5,-64.38 572.5,-97.88"/>
<text xml:space="preserve" text-anchor="start" x="472.25" y="-84.38" font-family="Helvetica,sans-Serif" font-size="10.00">kest_active_button</text>
<text xml:space="preserve" text-anchor="middle" x="518.38" y="-71.62" font-family="Helvetica,sans-Serif" font-size="10.00">_reset_del_button</text>
</a>
</g>
</g>
<!-- Node1&#45;&gt;Node2 -->
<g id="edge1_Node000001_Node000002" class="edge">
<title>Node1&#45;&gt;Node2</title>
<g id="a_edge1_Node000001_Node000002"><a xlink:title=" ">
<path fill="none" stroke="#63b8ff" d="M612.4,-64.86C599.07,-67.19 585.38,-69.59 572.75,-71.79"/>
<polygon fill="#63b8ff" stroke="#63b8ff" points="612.75,-68.35 621.99,-63.18 611.54,-61.46 612.75,-68.35"/>
</a>
</g>
</g>
<!-- Node21 -->
<g id="Node000021" class="node">
<title>Node21</title>
<g id="a_Node000021"><a xlink:href="kest__button_8c.html#ab59ebaba4ff87ed51677e73ba4aac2ef" target="_top" xlink:title=" ">
<polygon fill="white" stroke="#666666" points="583.75,-46.25 453,-46.25 453,0 583.75,0 583.75,-46.25"/>
<text xml:space="preserve" text-anchor="start" x="461" y="-32.75" font-family="Helvetica,sans-Serif" font-size="10.00">kest_active_button</text>
<text xml:space="preserve" text-anchor="start" x="461" y="-20" font-family="Helvetica,sans-Serif" font-size="10.00">_swap_del_button_for</text>
<text xml:space="preserve" text-anchor="middle" x="518.38" y="-7.25" font-family="Helvetica,sans-Serif" font-size="10.00">_persistent_unclickable</text>
</a>
</g>
</g>
<!-- Node1&#45;&gt;Node21 -->
<g id="edge6_Node000001_Node000021" class="edge">
<title>Node1&#45;&gt;Node21</title>
<g id="a_edge6_Node000001_Node000021"><a xlink:title=" ">
<path fill="none" stroke="#63b8ff" d="M612.23,-39.36C602.91,-37.73 593.42,-36.07 584.25,-34.47"/>
<polygon fill="#63b8ff" stroke="#63b8ff" points="611.54,-42.79 621.99,-41.07 612.75,-35.9 611.54,-42.79"/>
</a>
</g>
</g>
<!-- Node3 -->
<g id="Node000003" class="node">
<title>Node3</title>
<g id="a_Node000003"><a xlink:href="kest__sequence__view_8c.html#aa97e3f2de03cf8443b11f65520f6b387" target="_top" xlink:title=" ">
<polygon fill="white" stroke="#666666" points="417,-68.88 289.25,-68.88 289.25,-35.38 417,-35.38 417,-68.88"/>
<text xml:space="preserve" text-anchor="start" x="297.25" y="-55.38" font-family="Helvetica,sans-Serif" font-size="10.00">sequence_view_profile</text>
<text xml:space="preserve" text-anchor="middle" x="353.12" y="-42.62" font-family="Helvetica,sans-Serif" font-size="10.00">_button_rep_update</text>
</a>
</g>
</g>
<!-- Node2&#45;&gt;Node3 -->
<g id="edge2_Node000002_Node000003" class="edge">
<title>Node2&#45;&gt;Node3</title>
<g id="a_edge2_Node000002_Node000003"><a xlink:title=" ">
<path fill="none" stroke="#63b8ff" d="M452.89,-69.67C441.2,-67.59 429.02,-65.43 417.36,-63.36"/>
<polygon fill="#63b8ff" stroke="#63b8ff" points="451.97,-73.06 462.43,-71.36 453.2,-66.17 451.97,-73.06"/>
</a>
</g>
</g>
<!-- Node4 -->
<g id="Node000004" class="node">
<title>Node4</title>
<g id="a_Node000004"><a xlink:href="kest__sequence__view_8c.html#ac871b24a7c875a7b6e707a3d2691a2a9" target="_top" xlink:title=" ">
<polygon fill="#fff0f0" stroke="red" points="142,-62.5 0,-62.5 0,-41.75 142,-41.75 142,-62.5"/>
<text xml:space="preserve" text-anchor="middle" x="71" y="-49" font-family="Helvetica,sans-Serif" font-size="10.00">configure_sequence_view</text>
</a>
</g>
</g>
<!-- Node3&#45;&gt;Node4 -->
<g id="edge3_Node000003_Node000004" class="edge">
<title>Node3&#45;&gt;Node4</title>
<g id="a_edge3_Node000003_Node000004"><a xlink:title=" ">
<path fill="none" stroke="#63b8ff" d="M277.64,-52.12C235.7,-52.12 183.62,-52.12 142.37,-52.12"/>
<polygon fill="#63b8ff" stroke="#63b8ff" points="277.4,-55.63 287.4,-52.13 277.4,-48.63 277.4,-55.63"/>
</a>
</g>
</g>
<!-- Node20 -->
<g id="Node000020" class="node">
<title>Node20</title>
<g id="a_Node000020"><a xlink:href="kest__sequence__view_8c.html#a83d1a352af6a3932ce4d08e01f7d8d8a" target="_top" xlink:title=" ">
<polygon fill="white" stroke="#666666" points="253.25,-43.5 178,-43.5 178,-22.75 253.25,-22.75 253.25,-43.5"/>
<text xml:space="preserve" text-anchor="middle" x="215.62" y="-30" font-family="Helvetica,sans-Serif" font-size="10.00">seq_plus_cb</text>
</a>
</g>
</g>
<!-- Node3&#45;&gt;Node20 -->
<g id="edge4_Node000003_Node000020" class="edge">
<title>Node3&#45;&gt;Node20</title>
<g id="a_edge4_Node000003_Node000020"><a xlink:title=" ">
<path fill="none" stroke="#63b8ff" d="M278,-41.73C269.56,-40.55 261.25,-39.38 253.61,-38.31"/>
<polygon fill="#63b8ff" stroke="#63b8ff" points="277.25,-45.16 287.64,-43.08 278.22,-38.23 277.25,-45.16"/>
</a>
</g>
</g>
<!-- Node20&#45;&gt;Node4 -->
<g id="edge5_Node000020_Node000004" class="edge">
<title>Node20&#45;&gt;Node4</title>
<g id="a_edge5_Node000020_Node000004"><a xlink:title=" ">
<path fill="none" stroke="#63b8ff" d="M166.22,-39.57C158.53,-40.6 150.44,-41.68 142.37,-42.75"/>
<polygon fill="#63b8ff" stroke="#63b8ff" points="166.57,-43.06 176.02,-38.27 165.65,-36.12 166.57,-43.06"/>
</a>
</g>
</g>
<!-- Node21&#45;&gt;Node3 -->
<g id="edge7_Node000021_Node000003" class="edge">
<title>Node21&#45;&gt;Node3</title>
<g id="a_edge7_Node000021_Node000003"><a xlink:title=" ">
<path fill="none" stroke="#63b8ff" d="M441.8,-36.55C433.63,-38 425.38,-39.47 417.38,-40.89"/>
<polygon fill="#63b8ff" stroke="#63b8ff" points="442.13,-40.05 451.36,-34.85 440.91,-33.15 442.13,-40.05"/>
</a>
</g>
</g>
</g>
</svg>

<g id="navigator" transform="translate(0 0)" fill="#404254">
  <rect fill="#f2f5e9" fill-opacity="0.5" stroke="#606060" stroke-width=".5" x="0" y="0" width="60" height="60"/>
  <use id="zoomplus" xlink:href="#zoomPlus" x="17" y="9" onmousedown="handleZoom(evt,'in')"/>
  <use id="zoomminus" xlink:href="#zoomMin" x="42" y="9" onmousedown="handleZoom(evt,'out')"/>
  <use id="reset" xlink:href="#resetDef" x="30" y="36" onmousedown="handleReset()"/>
   <use id="arrowup" xlink:href="#arrowUp" x="0" y="0" onmousedown="handlePan(0,-1)"/>
  <use id="arrowright" xlink:href="#arrowRight" x="0" y="0" onmousedown="handlePan(1,0)"/>
  <use id="arrowdown" xlink:href="#arrowDown" x="0" y="0" onmousedown="handlePan(0,1)"/>
  <use id="arrowleft" xlink:href="#arrowLeft" x="0" y="0" onmousedown="handlePan(-1,0)"/>
</g>
<svg viewBox="0 0 15 15" width="100%" height="30px" preserveAspectRatio="xMaxYMin meet">
 <g id="arrow_out" transform="scale(0.3 0.3)">
  <a xlink:href="kest__button_8c_ad480fe803983ae07bbf32f7930d9f467_icgraph_org.svg" target="_base">
   <rect id="button" ry="5" rx="5" y="6" x="6" height="38" width="38"
        fill="#f2f5e9" fill-opacity="0.5" stroke="#606060" stroke-width="1.0"/>
   <path id="arrow"
     d="M 11.500037,31.436501 C 11.940474,20.09759 22.043105,11.32322 32.158766,21.979434 L 37.068811,17.246167 C 37.068811,17.246167 37.088388,32 37.088388,32 L 22.160133,31.978069 C 22.160133,31.978069 26.997745,27.140456 26.997745,27.140456 C 18.528582,18.264221 13.291696,25.230495 11.500037,31.436501 z"
     style="fill:#404040;"/>
  </a>
 </g>
</svg>

<style type='text/css'>
<![CDATA[
[data-mouse-over-selected='false'] { opacity: 0.7; }
[data-mouse-over-selected='true']  { opacity: 1.0; }
]]>
</style>
<script type="application/ecmascript"><![CDATA[
document.addEventListener('DOMContentLoaded', (event) => {
  highlightEdges();
  highlightAdjacentNodes();
});
]]></script>
</svg>
