<?xml version="1.0" encoding="UTF-8" standalone="no"?>
<!DOCTYPE svg PUBLIC "-//W3C//DTD SVG 1.1//EN"
 "http://www.w3.org/Graphics/SVG/1.1/DTD/svg11.dtd">
<!-- Generated by graphviz version 13.1.2 (20250808.2320)
 -->
<!-- Title: ui_page_set_title Pages: 1 -->
<svg width="609pt" height="107pt"
 viewBox="0.00 0.00 609.00 107.00" xmlns="http://www.w3.org/2000/svg" xmlns:xlink="http://www.w3.org/1999/xlink">
<g id="graph0" class="graph" transform="scale(1 1) rotate(0) translate(4 102.75)">
<title>ui_page_set_title</title>
<!-- Node1 -->
<g id="Node000001" class="node">
<title>Node1</title>
<g id="a_Node000001"><a xlink:title=" ">
<polygon fill="#999999" stroke="#666666" points="601,-59.75 501.75,-59.75 501.75,-39 601,-39 601,-59.75"/>
<text xml:space="preserve" text-anchor="middle" x="551.38" y="-46.25" font-family="Helvetica,sans-Serif" font-size="10.00">ui_page_set_title</text>
</a>
</g>
</g>
<!-- Node2 -->
<g id="Node000002" class="node">
<title>Node2</title>
<g id="a_Node000002"><a xlink:href="kest__profile__view_8c.html#a8d4a419595556bb686a9d03c66f1d578" target="_top" xlink:title=" ">
<polygon fill="white" stroke="#666666" points="458.25,-98.75 322.25,-98.75 322.25,-78 458.25,-78 458.25,-98.75"/>
<text xml:space="preserve" text-anchor="middle" x="390.25" y="-85.25" font-family="Helvetica,sans-Serif" font-size="10.00">profile_view_rep_update</text>
</a>
</g>
</g>
<!-- Node1&#45;&gt;Node2 -->
<g id="edge1_Node000001_Node000002" class="edge">
<title>Node1&#45;&gt;Node2</title>
<g id="a_edge1_Node000001_Node000002"><a xlink:title=" ">
<path fill="none" stroke="#63b8ff" d="M494.91,-62.97C475.51,-67.72 453.99,-73 435.61,-77.5"/>
<polygon fill="#63b8ff" stroke="#63b8ff" points="495.7,-66.38 504.58,-60.6 494.03,-59.58 495.7,-66.38"/>
</a>
</g>
</g>
<!-- Node24 -->
<g id="Node000024" class="node">
<title>Node24</title>
<g id="a_Node000024"><a xlink:href="kest__sequence__view_8c.html#a18341f03445e1f2f63bf07b4a97715aa" target="_top" xlink:title=" ">
<polygon fill="white" stroke="#666666" points="465.75,-59.75 314.75,-59.75 314.75,-39 465.75,-39 465.75,-59.75"/>
<text xml:space="preserve" text-anchor="middle" x="390.25" y="-46.25" font-family="Helvetica,sans-Serif" font-size="10.00">sequence_view_rep_update</text>
</a>
</g>
</g>
<!-- Node1&#45;&gt;Node24 -->
<g id="edge4_Node000001_Node000024" class="edge">
<title>Node1&#45;&gt;Node24</title>
<g id="a_edge4_Node000001_Node000024"><a xlink:title=" ">
<path fill="none" stroke="#63b8ff" d="M489.83,-49.38C482.09,-49.38 474.1,-49.38 466.17,-49.38"/>
<polygon fill="#63b8ff" stroke="#63b8ff" points="489.82,-52.88 499.82,-49.38 489.82,-45.88 489.82,-52.88"/>
</a>
</g>
</g>
<!-- Node25 -->
<g id="Node000025" class="node">
<title>Node25</title>
<g id="a_Node000025"><a xlink:href="kest__ui_8c.html#a4fc79b83ce4e88558973d9132c4e6384" target="_top" xlink:title=" ">
<polygon fill="white" stroke="#666666" points="449.25,-20.75 331.25,-20.75 331.25,0 449.25,0 449.25,-20.75"/>
<text xml:space="preserve" text-anchor="middle" x="390.25" y="-7.25" font-family="Helvetica,sans-Serif" font-size="10.00">ui_page_update_title</text>
</a>
</g>
</g>
<!-- Node1&#45;&gt;Node25 -->
<g id="edge6_Node000001_Node000025" class="edge">
<title>Node1&#45;&gt;Node25</title>
<g id="a_edge6_Node000001_Node000025"><a xlink:title=" ">
<path fill="none" stroke="#63b8ff" d="M494.91,-35.78C475.51,-31.03 453.99,-25.75 435.61,-21.25"/>
<polygon fill="#63b8ff" stroke="#63b8ff" points="494.03,-39.17 504.58,-38.15 495.7,-32.37 494.03,-39.17"/>
</a>
</g>
</g>
<!-- Node3 -->
<g id="Node000003" class="node">
<title>Node3</title>
<g id="a_Node000003"><a xlink:href="kest__profile__view_8c.html#abfe2cf72961d0ab0b70f858cf1281a38" target="_top" xlink:title=" ">
<polygon fill="white" stroke="#666666" points="271.25,-98.75 174.25,-98.75 174.25,-78 271.25,-78 271.25,-98.75"/>
<text xml:space="preserve" text-anchor="middle" x="222.75" y="-85.25" font-family="Helvetica,sans-Serif" font-size="10.00">init_profile_view</text>
</a>
</g>
</g>
<!-- Node2&#45;&gt;Node3 -->
<g id="edge2_Node000002_Node000003" class="edge">
<title>Node2&#45;&gt;Node3</title>
<g id="a_edge2_Node000002_Node000003"><a xlink:title=" ">
<path fill="none" stroke="#63b8ff" d="M310.8,-88.38C297.46,-88.38 283.98,-88.38 271.73,-88.38"/>
<polygon fill="#63b8ff" stroke="#63b8ff" points="310.42,-91.88 320.42,-88.38 310.42,-84.88 310.42,-91.88"/>
</a>
</g>
</g>
<!-- Node4 -->
<g id="Node000004" class="node">
<title>Node4</title>
<g id="a_Node000004"><a xlink:href="kest__profile__view_8c.html#a8a76cb40ff26bbde55ba56a4f25094d1" target="_top" xlink:title=" ">
<polygon fill="#fff0f0" stroke="red" points="130.75,-98.75 0,-98.75 0,-78 130.75,-78 130.75,-98.75"/>
<text xml:space="preserve" text-anchor="middle" x="65.38" y="-85.25" font-family="Helvetica,sans-Serif" font-size="10.00">create_profile_view_for</text>
</a>
</g>
</g>
<!-- Node3&#45;&gt;Node4 -->
<g id="edge3_Node000003_Node000004" class="edge">
<title>Node3&#45;&gt;Node4</title>
<g id="a_edge3_Node000003_Node000004"><a xlink:title=" ">
<path fill="none" stroke="#63b8ff" d="M162.47,-88.38C152.17,-88.38 141.4,-88.38 130.97,-88.38"/>
<polygon fill="#63b8ff" stroke="#63b8ff" points="162.35,-91.88 172.35,-88.38 162.35,-84.88 162.35,-91.88"/>
</a>
</g>
</g>
<!-- Node23 -->
<g id="Node000023" class="node">
<title>Node23</title>
<g id="a_Node000023"><a xlink:href="kest__sequence__view_8c.html#aca115eba822b7486dc289cc9150562a7" target="_top" xlink:title=" ">
<polygon fill="#fff0f0" stroke="red" points="278.75,-59.75 166.75,-59.75 166.75,-39 278.75,-39 278.75,-59.75"/>
<text xml:space="preserve" text-anchor="middle" x="222.75" y="-46.25" font-family="Helvetica,sans-Serif" font-size="10.00">init_sequence_view</text>
</a>
</g>
</g>
<!-- Node24&#45;&gt;Node23 -->
<g id="edge5_Node000024_Node000023" class="edge">
<title>Node24&#45;&gt;Node23</title>
<g id="a_edge5_Node000024_Node000023"><a xlink:title=" ">
<path fill="none" stroke="#63b8ff" d="M303.43,-49.38C295.14,-49.38 286.89,-49.38 279.02,-49.38"/>
<polygon fill="#63b8ff" stroke="#63b8ff" points="303.22,-52.88 313.22,-49.38 303.22,-45.88 303.22,-52.88"/>
</a>
</g>
</g>
</g>
</svg>
