<?xml version="1.0" encoding="UTF-8" standalone="no"?>
<!DOCTYPE svg PUBLIC "-//W3C//DTD SVG 1.1//EN"
 "http://www.w3.org/Graphics/SVG/1.1/DTD/svg11.dtd">
<!-- Generated by graphviz version 13.1.2 (20250808.2320)
 -->
<!-- Title: kest_active_button_init Pages: 1 -->
<svg width="847pt" height="450pt"
 viewBox="0.00 0.00 847.00 450.00" xmlns="http://www.w3.org/2000/svg" xmlns:xlink="http://www.w3.org/1999/xlink">
<g id="graph0" class="graph" transform="scale(1 1) rotate(0) translate(4 446.12)">
<title>kest_active_button_init</title>
<!-- Node1 -->
<g id="Node000001" class="node">
<title>Node1</title>
<g id="a_Node000001"><a xlink:title=" ">
<polygon fill="#999999" stroke="#666666" points="129.25,-286.12 0,-286.12 0,-265.38 129.25,-265.38 129.25,-286.12"/>
<text xml:space="preserve" text-anchor="middle" x="64.62" y="-272.62" font-family="Helvetica,sans-Serif" font-size="10.00">kest_active_button_init</text>
</a>
</g>
</g>
<!-- Node2 -->
<g id="Node000002" class="node">
<title>Node2</title>
<g id="a_Node000002"><a xlink:href="kest__button_8c.html#aa59f296fa9f9744c9753f81484085a15" target="_top" xlink:title=" ">
<polygon fill="white" stroke="#666666" points="303.88,-442.12 180.62,-442.12 180.62,-421.38 303.88,-421.38 303.88,-442.12"/>
<text xml:space="preserve" text-anchor="middle" x="242.25" y="-428.62" font-family="Helvetica,sans-Serif" font-size="10.00">button_set_clicked_cb</text>
</a>
</g>
</g>
<!-- Node1&#45;&gt;Node2 -->
<g id="edge1_Node000001_Node000002" class="edge">
<title>Node1&#45;&gt;Node2</title>
<g id="a_edge1_Node000001_Node000002"><a xlink:title=" ">
<path fill="none" stroke="#63b8ff" d="M70.35,-286.52C82.27,-312.38 116.14,-378.3 165.25,-411.75 167.62,-413.36 170.11,-414.85 172.69,-416.21"/>
<polygon fill="#63b8ff" stroke="#63b8ff" points="171.05,-419.31 181.61,-420.27 173.96,-412.94 171.05,-419.31"/>
</a>
</g>
</g>
<!-- Node3 -->
<g id="Node000003" class="node">
<title>Node3</title>
<g id="a_Node000003"><a xlink:href="kest__button_8c.html#a83cf55aa097bd9144aa25c7296221deb" target="_top" xlink:title=" ">
<polygon fill="white" stroke="#666666" points="319.25,-403.12 165.25,-403.12 165.25,-382.38 319.25,-382.38 319.25,-403.12"/>
<text xml:space="preserve" text-anchor="middle" x="242.25" y="-389.62" font-family="Helvetica,sans-Serif" font-size="10.00">button_set_long_pressed_cb</text>
</a>
</g>
</g>
<!-- Node1&#45;&gt;Node3 -->
<g id="edge2_Node000001_Node000003" class="edge">
<title>Node1&#45;&gt;Node3</title>
<g id="a_edge2_Node000001_Node000003"><a xlink:title=" ">
<path fill="none" stroke="#63b8ff" d="M73.39,-286.32C88.67,-306.33 124.7,-349.82 165.25,-372.75 168.62,-374.65 172.17,-376.38 175.83,-377.95"/>
<polygon fill="#63b8ff" stroke="#63b8ff" points="174.34,-381.13 184.93,-381.42 176.83,-374.59 174.34,-381.13"/>
</a>
</g>
</g>
<!-- Node4 -->
<g id="Node000004" class="node">
<title>Node4</title>
<g id="a_Node000004"><a xlink:href="kest__button_8c.html#af00d79cf42f9b296fbb6027daacc8fb9" target="_top" xlink:title=" ">
<polygon fill="white" stroke="#666666" points="307.62,-364.12 176.88,-364.12 176.88,-343.38 307.62,-343.38 307.62,-364.12"/>
<text xml:space="preserve" text-anchor="middle" x="242.25" y="-350.62" font-family="Helvetica,sans-Serif" font-size="10.00">button_set_pressing_cb</text>
</a>
</g>
</g>
<!-- Node1&#45;&gt;Node4 -->
<g id="edge3_Node000001_Node000004" class="edge">
<title>Node1&#45;&gt;Node4</title>
<g id="a_edge3_Node000001_Node000004"><a xlink:title=" ">
<path fill="none" stroke="#63b8ff" d="M81.16,-286.59C100.19,-299.43 133.81,-320.74 165.25,-333.75 170.47,-335.91 176,-337.9 181.59,-339.71"/>
<polygon fill="#63b8ff" stroke="#63b8ff" points="180.32,-342.98 190.91,-342.53 182.36,-336.28 180.32,-342.98"/>
</a>
</g>
</g>
<!-- Node5 -->
<g id="Node000005" class="node">
<title>Node5</title>
<g id="a_Node000005"><a xlink:href="kest__button_8c.html#a88c9b098c88d8bd3adc510cc34130a67" target="_top" xlink:title=" ">
<polygon fill="white" stroke="#666666" points="308,-325.12 176.5,-325.12 176.5,-304.38 308,-304.38 308,-325.12"/>
<text xml:space="preserve" text-anchor="middle" x="242.25" y="-311.62" font-family="Helvetica,sans-Serif" font-size="10.00">button_set_released_cb</text>
</a>
</g>
</g>
<!-- Node1&#45;&gt;Node5 -->
<g id="edge4_Node000001_Node000005" class="edge">
<title>Node1&#45;&gt;Node5</title>
<g id="a_edge4_Node000001_Node000005"><a xlink:title=" ">
<path fill="none" stroke="#63b8ff" d="M114.55,-286.61C135.2,-291.2 159.46,-296.59 181.19,-301.41"/>
<polygon fill="#63b8ff" stroke="#63b8ff" points="180.29,-304.8 190.81,-303.55 181.81,-297.96 180.29,-304.8"/>
</a>
</g>
</g>
<!-- Node6 -->
<g id="Node000006" class="node">
<title>Node6</title>
<g id="a_Node000006"><a xlink:href="kest__button_8c.html#a20604a0eb74819a9747753ccfdb24e6c" target="_top" xlink:title=" ">
<polygon fill="white" stroke="#666666" points="276.5,-286.12 208,-286.12 208,-265.38 276.5,-265.38 276.5,-286.12"/>
<text xml:space="preserve" text-anchor="middle" x="242.25" y="-272.62" font-family="Helvetica,sans-Serif" font-size="10.00">init_button</text>
</a>
</g>
</g>
<!-- Node1&#45;&gt;Node6 -->
<g id="edge5_Node000001_Node000006" class="edge">
<title>Node1&#45;&gt;Node6</title>
<g id="a_edge5_Node000001_Node000006"><a xlink:title=" ">
<path fill="none" stroke="#63b8ff" d="M129.53,-275.75C151.66,-275.75 175.99,-275.75 196.28,-275.75"/>
<polygon fill="#63b8ff" stroke="#63b8ff" points="196.2,-279.25 206.2,-275.75 196.2,-272.25 196.2,-279.25"/>
</a>
</g>
</g>
<!-- Node7 -->
<g id="Node000007" class="node">
<title>Node7</title>
<g id="a_Node000007"><a xlink:href="kest__button_8c.html#a29023886dc241d5e52af656d2e8f7077" target="_top" xlink:title=" ">
<polygon fill="white" stroke="#666666" points="296.38,-247.5 188.12,-247.5 188.12,-214 296.38,-214 296.38,-247.5"/>
<text xml:space="preserve" text-anchor="start" x="196.12" y="-234" font-family="Helvetica,sans-Serif" font-size="10.00">kest_active_button</text>
<text xml:space="preserve" text-anchor="middle" x="242.25" y="-221.25" font-family="Helvetica,sans-Serif" font-size="10.00">_clicked_cb</text>
</a>
</g>
</g>
<!-- Node1&#45;&gt;Node7 -->
<g id="edge6_Node000001_Node000007" class="edge">
<title>Node1&#45;&gt;Node7</title>
<g id="a_edge6_Node000001_Node000007"><a xlink:title=" ">
<path fill="none" stroke="#63b8ff" d="M107.69,-264.97C128.36,-259.68 153.72,-253.18 176.77,-247.27"/>
<polygon fill="#63b8ff" stroke="#63b8ff" points="177.58,-250.68 186.4,-244.8 175.84,-243.9 177.58,-250.68"/>
</a>
</g>
</g>
<!-- Node8 -->
<g id="Node000008" class="node">
<title>Node8</title>
<g id="a_Node000008"><a xlink:href="kest__button_8c.html#af4a8a2f9042aae51caf39056d3ae1972" target="_top" xlink:title=" ">
<polygon fill="white" stroke="#666666" points="296.38,-195.5 188.12,-195.5 188.12,-162 296.38,-162 296.38,-195.5"/>
<text xml:space="preserve" text-anchor="start" x="196.12" y="-182" font-family="Helvetica,sans-Serif" font-size="10.00">kest_active_button</text>
<text xml:space="preserve" text-anchor="middle" x="242.25" y="-169.25" font-family="Helvetica,sans-Serif" font-size="10.00">_long_pressed_cb</text>
</a>
</g>
</g>
<!-- Node1&#45;&gt;Node8 -->
<g id="edge7_Node000001_Node000008" class="edge">
<title>Node1&#45;&gt;Node8</title>
<g id="a_edge7_Node000001_Node000008"><a xlink:title=" ">
<path fill="none" stroke="#63b8ff" d="M78.06,-265.06C96.2,-249.91 131.43,-222.12 165.25,-204.75 169.12,-202.76 173.17,-200.88 177.3,-199.09"/>
<polygon fill="#63b8ff" stroke="#63b8ff" points="178.34,-202.45 186.29,-195.44 175.71,-195.96 178.34,-202.45"/>
</a>
</g>
</g>
<!-- Node15 -->
<g id="Node000015" class="node">
<title>Node15</title>
<g id="a_Node000015"><a xlink:href="kest__button_8c.html#a5e8684adc8c5fbe7944b7cc188cd7b2c" target="_top" xlink:title=" ">
<polygon fill="white" stroke="#666666" points="296.38,-62.5 188.12,-62.5 188.12,-29 296.38,-29 296.38,-62.5"/>
<text xml:space="preserve" text-anchor="start" x="196.12" y="-49" font-family="Helvetica,sans-Serif" font-size="10.00">kest_active_button</text>
<text xml:space="preserve" text-anchor="middle" x="242.25" y="-36.25" font-family="Helvetica,sans-Serif" font-size="10.00">_pressing_cb</text>
</a>
</g>
</g>
<!-- Node1&#45;&gt;Node15 -->
<g id="edge13_Node000001_Node000015" class="edge">
<title>Node1&#45;&gt;Node15</title>
<g id="a_edge13_Node000001_Node000015"><a xlink:title=" ">
<path fill="none" stroke="#63b8ff" d="M69.87,-264.89C81.62,-235.8 116.94,-154.63 165.25,-100.75 175.91,-88.86 189.54,-78.02 202.32,-69.16"/>
<polygon fill="#63b8ff" stroke="#63b8ff" points="204.23,-72.09 210.6,-63.62 200.34,-66.27 204.23,-72.09"/>
</a>
</g>
</g>
<!-- Node20 -->
<g id="Node000020" class="node">
<title>Node20</title>
<g id="a_Node000020"><a xlink:href="kest__button_8c.html#abd7f68ebcde411086bd7fa11eb96564b" target="_top" xlink:title=" ">
<polygon fill="white" stroke="#666666" points="296.38,-143.5 188.12,-143.5 188.12,-110 296.38,-110 296.38,-143.5"/>
<text xml:space="preserve" text-anchor="start" x="196.12" y="-130" font-family="Helvetica,sans-Serif" font-size="10.00">kest_active_button</text>
<text xml:space="preserve" text-anchor="middle" x="242.25" y="-117.25" font-family="Helvetica,sans-Serif" font-size="10.00">_release_cb</text>
</a>
</g>
</g>
<!-- Node1&#45;&gt;Node20 -->
<g id="edge17_Node000001_Node000020" class="edge">
<title>Node1&#45;&gt;Node20</title>
<g id="a_edge17_Node000001_Node000020"><a xlink:title=" ">
<path fill="none" stroke="#63b8ff" d="M71.37,-265.19C84.73,-241.59 120.2,-184.23 165.25,-152.75 169.11,-150.05 173.27,-147.62 177.59,-145.42"/>
<polygon fill="#63b8ff" stroke="#63b8ff" points="178.87,-148.68 186.5,-141.34 175.95,-142.32 178.87,-148.68"/>
</a>
</g>
</g>
<!-- Node9 -->
<g id="Node000009" class="node">
<title>Node9</title>
<g id="a_Node000009"><a xlink:href="kest__button_8c.html#a5ddd3bd6e6ebe499be3e6c225a363821" target="_top" xlink:title=" ">
<polygon fill="white" stroke="#666666" points="674.5,-265.88 564,-265.88 564,-219.62 674.5,-219.62 674.5,-265.88"/>
<text xml:space="preserve" text-anchor="start" x="572" y="-252.38" font-family="Helvetica,sans-Serif" font-size="10.00">kest_active_button</text>
<text xml:space="preserve" text-anchor="start" x="572" y="-239.62" font-family="Helvetica,sans-Serif" font-size="10.00">_trigger_del_button</text>
<text xml:space="preserve" text-anchor="middle" x="619.25" y="-226.88" font-family="Helvetica,sans-Serif" font-size="10.00">_fade_in</text>
</a>
</g>
</g>
<!-- Node8&#45;&gt;Node9 -->
<g id="edge8_Node000008_Node000009" class="edge">
<title>Node8&#45;&gt;Node9</title>
<g id="a_edge8_Node000008_Node000009"><a xlink:title=" ">
<path fill="none" stroke="#63b8ff" d="M296.61,-192.11C315.11,-196.48 336.02,-201.14 355.25,-204.75 421.99,-217.29 498.93,-227.98 552.28,-234.79"/>
<polygon fill="#63b8ff" stroke="#63b8ff" points="551.77,-238.25 562.13,-236.04 552.65,-231.31 551.77,-238.25"/>
</a>
</g>
</g>
<!-- Node13 -->
<g id="Node000013" class="node">
<title>Node13</title>
<g id="a_Node000013"><a xlink:href="kest__button_8c.html#a88a9ce412a597e9275337196a681e6c0" target="_top" xlink:title=" ">
<polygon fill="white" stroke="#666666" points="492.75,-195.5 378.5,-195.5 378.5,-162 492.75,-162 492.75,-195.5"/>
<text xml:space="preserve" text-anchor="start" x="386.5" y="-182" font-family="Helvetica,sans-Serif" font-size="10.00">kest_active_button</text>
<text xml:space="preserve" text-anchor="middle" x="435.62" y="-169.25" font-family="Helvetica,sans-Serif" font-size="10.00">_trigger_scale_anim</text>
</a>
</g>
</g>
<!-- Node8&#45;&gt;Node13 -->
<g id="edge11_Node000008_Node000013" class="edge">
<title>Node8&#45;&gt;Node13</title>
<g id="a_edge11_Node000008_Node000013"><a xlink:title=" ">
<path fill="none" stroke="#63b8ff" d="M296.81,-178.75C318.48,-178.75 343.74,-178.75 366.67,-178.75"/>
<polygon fill="#63b8ff" stroke="#63b8ff" points="366.55,-182.25 376.55,-178.75 366.55,-175.25 366.55,-182.25"/>
</a>
</g>
</g>
<!-- Node10 -->
<g id="Node000010" class="node">
<title>Node10</title>
<g id="a_Node000010"><a xlink:href="kest__button_8c.html#acef3a5e0199ca168471154fc981f4931" target="_top" xlink:title=" ">
<polygon fill="#fff0f0" stroke="red" points="839,-241.5 722.5,-241.5 722.5,-208 839,-208 839,-241.5"/>
<text xml:space="preserve" text-anchor="start" x="730.5" y="-228" font-family="Helvetica,sans-Serif" font-size="10.00">kest_active_button</text>
<text xml:space="preserve" text-anchor="middle" x="780.75" y="-215.25" font-family="Helvetica,sans-Serif" font-size="10.00">_del_button_fade_cb</text>
</a>
</g>
</g>
<!-- Node9&#45;&gt;Node10 -->
<g id="edge9_Node000009_Node000010" class="edge">
<title>Node9&#45;&gt;Node10</title>
<g id="a_edge9_Node000009_Node000010"><a xlink:title=" ">
<path fill="none" stroke="#63b8ff" d="M674.69,-236.61C686.25,-235.3 698.6,-233.91 710.62,-232.55"/>
<polygon fill="#63b8ff" stroke="#63b8ff" points="710.96,-236.04 720.51,-231.44 710.18,-229.08 710.96,-236.04"/>
</a>
</g>
</g>
<!-- Node12 -->
<g id="Node000012" class="node">
<title>Node12</title>
<g id="a_Node000012"><a xlink:href="kest__button_8c.html#ad55b50e8c238c6de40dd73aab058274a" target="_top" xlink:title=" ">
<polygon fill="white" stroke="#666666" points="836.38,-172.12 725.12,-172.12 725.12,-151.38 836.38,-151.38 836.38,-172.12"/>
<text xml:space="preserve" text-anchor="middle" x="780.75" y="-158.62" font-family="Helvetica,sans-Serif" font-size="10.00">kest_button_unhide</text>
</a>
</g>
</g>
<!-- Node9&#45;&gt;Node12 -->
<g id="edge10_Node000009_Node000012" class="edge">
<title>Node9&#45;&gt;Node12</title>
<g id="a_edge10_Node000009_Node000012"><a xlink:title=" ">
<path fill="none" stroke="#63b8ff" d="M669.54,-219.17C675.27,-216.36 681.03,-213.51 686.5,-210.75 707.8,-200.02 731.59,-187.5 749.82,-177.81"/>
<polygon fill="#63b8ff" stroke="#63b8ff" points="751.33,-180.97 758.51,-173.17 748.04,-174.79 751.33,-180.97"/>
</a>
</g>
</g>
<!-- Node14 -->
<g id="Node000014" class="node">
<title>Node14</title>
<g id="a_Node000014"><a xlink:href="kest__button_8c.html#a87712c4799688d3bf106efc96535ae48" target="_top" xlink:title=" ">
<polygon fill="white" stroke="#666666" points="673.38,-201.5 565.12,-201.5 565.12,-168 673.38,-168 673.38,-201.5"/>
<text xml:space="preserve" text-anchor="start" x="573.12" y="-188" font-family="Helvetica,sans-Serif" font-size="10.00">kest_active_button</text>
<text xml:space="preserve" text-anchor="middle" x="619.25" y="-175.25" font-family="Helvetica,sans-Serif" font-size="10.00">_scale_cb</text>
</a>
</g>
</g>
<!-- Node13&#45;&gt;Node14 -->
<g id="edge12_Node000013_Node000014" class="edge">
<title>Node13&#45;&gt;Node14</title>
<g id="a_edge12_Node000013_Node000014"><a xlink:title=" ">
<path fill="none" stroke="#63b8ff" d="M493.1,-180.62C512.25,-181.25 533.79,-181.96 553.53,-182.61"/>
<polygon fill="#63b8ff" stroke="#63b8ff" points="553.29,-186.11 563.4,-182.94 553.52,-179.11 553.29,-186.11"/>
</a>
</g>
</g>
<!-- Node16 -->
<g id="Node000016" class="node">
<title>Node16</title>
<g id="a_Node000016"><a xlink:href="kest__button_8c.html#a69c55e9f6142d27a7c4c7cd257041efa" target="_top" xlink:title=" ">
<polygon fill="white" stroke="#666666" points="489.75,-36.5 381.5,-36.5 381.5,-3 489.75,-3 489.75,-36.5"/>
<text xml:space="preserve" text-anchor="start" x="389.5" y="-23" font-family="Helvetica,sans-Serif" font-size="10.00">kest_active_button</text>
<text xml:space="preserve" text-anchor="middle" x="435.62" y="-10.25" font-family="Helvetica,sans-Serif" font-size="10.00">_set_index</text>
</a>
</g>
</g>
<!-- Node15&#45;&gt;Node16 -->
<g id="edge14_Node000015_Node000016" class="edge">
<title>Node15&#45;&gt;Node16</title>
<g id="a_edge14_Node000015_Node000016"><a xlink:title=" ">
<path fill="none" stroke="#63b8ff" d="M296.81,-38.47C319.43,-35.4 345.97,-31.79 369.69,-28.57"/>
<polygon fill="#63b8ff" stroke="#63b8ff" points="370.14,-32.04 379.58,-27.23 369.19,-25.11 370.14,-32.04"/>
</a>
</g>
</g>
<!-- Node17 -->
<g id="Node000017" class="node">
<title>Node17</title>
<g id="a_Node000017"><a xlink:href="kest__button_8c.html#ab7fe55b3f96297fce8392af5ccfe1ae4" target="_top" xlink:title=" ">
<polygon fill="white" stroke="#666666" points="686.5,-33.5 552,-33.5 552,0 686.5,0 686.5,-33.5"/>
<text xml:space="preserve" text-anchor="start" x="560" y="-20" font-family="Helvetica,sans-Serif" font-size="10.00">kest_active_button</text>
<text xml:space="preserve" text-anchor="middle" x="619.25" y="-7.25" font-family="Helvetica,sans-Serif" font-size="10.00">_array_index_y_position</text>
</a>
</g>
</g>
<!-- Node16&#45;&gt;Node17 -->
<g id="edge15_Node000016_Node000017" class="edge">
<title>Node16&#45;&gt;Node17</title>
<g id="a_edge15_Node000016_Node000017"><a xlink:title=" ">
<path fill="none" stroke="#63b8ff" d="M490.14,-18.87C505.93,-18.61 523.55,-18.31 540.54,-18.03"/>
<polygon fill="#63b8ff" stroke="#63b8ff" points="540.13,-21.54 550.07,-17.88 540.02,-14.54 540.13,-21.54"/>
</a>
</g>
</g>
<!-- Node18 -->
<g id="Node000018" class="node">
<title>Node18</title>
<g id="a_Node000018"><a xlink:href="kest__button_8c.html#a84592332a7993043a8ad256687eebf22" target="_top" xlink:title=" ">
<polygon fill="#fff0f0" stroke="red" points="675.62,-85.5 562.88,-85.5 562.88,-52 675.62,-52 675.62,-85.5"/>
<text xml:space="preserve" text-anchor="start" x="570.88" y="-72" font-family="Helvetica,sans-Serif" font-size="10.00">kest_active_button</text>
<text xml:space="preserve" text-anchor="middle" x="619.25" y="-59.25" font-family="Helvetica,sans-Serif" font-size="10.00">_trigger_glide_anim</text>
</a>
</g>
</g>
<!-- Node16&#45;&gt;Node18 -->
<g id="edge16_Node000016_Node000018" class="edge">
<title>Node16&#45;&gt;Node18</title>
<g id="a_edge16_Node000016_Node000018"><a xlink:title=" ">
<path fill="none" stroke="#63b8ff" d="M490.14,-34.19C509.38,-39.38 531.34,-45.3 551.57,-50.76"/>
<polygon fill="#63b8ff" stroke="#63b8ff" points="550.57,-54.12 561.14,-53.34 552.4,-47.36 550.57,-54.12"/>
</a>
</g>
</g>
<!-- Node20&#45;&gt;Node13 -->
<g id="edge25_Node000020_Node000013" class="edge">
<title>Node20&#45;&gt;Node13</title>
<g id="a_edge25_Node000020_Node000013"><a xlink:title=" ">
<path fill="none" stroke="#63b8ff" d="M296.81,-141.3C318.57,-147.22 343.97,-154.12 366.98,-160.37"/>
<polygon fill="#63b8ff" stroke="#63b8ff" points="366.04,-163.74 376.61,-162.99 367.87,-156.99 366.04,-163.74"/>
</a>
</g>
</g>
<!-- Node21 -->
<g id="Node000021" class="node">
<title>Node21</title>
<g id="a_Node000021"><a xlink:href="kest__button_8c.html#a3477b16331ef3ee2eb1369f85977a523" target="_top" xlink:title=" ">
<polygon fill="white" stroke="#666666" points="516,-143.5 355.25,-143.5 355.25,-110 516,-110 516,-143.5"/>
<text xml:space="preserve" text-anchor="start" x="363.25" y="-130" font-family="Helvetica,sans-Serif" font-size="10.00">kest_active_button</text>
<text xml:space="preserve" text-anchor="middle" x="435.62" y="-117.25" font-family="Helvetica,sans-Serif" font-size="10.00">_del_button_remain_timer_cb</text>
</a>
</g>
</g>
<!-- Node20&#45;&gt;Node21 -->
<g id="edge18_Node000020_Node000021" class="edge">
<title>Node20&#45;&gt;Node21</title>
<g id="a_edge18_Node000020_Node000021"><a xlink:title=" ">
<path fill="none" stroke="#63b8ff" d="M296.81,-126.75C311.46,-126.75 327.75,-126.75 343.85,-126.75"/>
<polygon fill="#63b8ff" stroke="#63b8ff" points="343.43,-130.25 353.43,-126.75 343.43,-123.25 343.43,-130.25"/>
</a>
</g>
</g>
<!-- Node25 -->
<g id="Node000025" class="node">
<title>Node25</title>
<g id="a_Node000025"><a xlink:href="kest__button_8c.html#a3fb7060eaac68b92b53a175e004f0281" target="_top" xlink:title=" ">
<polygon fill="white" stroke="#666666" points="489.75,-88.5 381.5,-88.5 381.5,-55 489.75,-55 489.75,-88.5"/>
<text xml:space="preserve" text-anchor="start" x="389.5" y="-75" font-family="Helvetica,sans-Serif" font-size="10.00">kest_active_button</text>
<text xml:space="preserve" text-anchor="middle" x="435.62" y="-62.25" font-family="Helvetica,sans-Serif" font-size="10.00">_force_index</text>
</a>
</g>
</g>
<!-- Node20&#45;&gt;Node25 -->
<g id="edge22_Node000020_Node000025" class="edge">
<title>Node20&#45;&gt;Node25</title>
<g id="a_edge22_Node000020_Node000025"><a xlink:title=" ">
<path fill="none" stroke="#63b8ff" d="M296.81,-111.36C319.53,-104.83 346.21,-97.16 370.01,-90.32"/>
<polygon fill="#63b8ff" stroke="#63b8ff" points="370.98,-93.68 379.62,-87.56 369.04,-86.96 370.98,-93.68"/>
</a>
</g>
</g>
<!-- Node22 -->
<g id="Node000022" class="node">
<title>Node22</title>
<g id="a_Node000022"><a xlink:href="kest__button_8c.html#ad35b12aa3e8c0b17baaa2cffa7083fcc" target="_top" xlink:title=" ">
<polygon fill="#fff0f0" stroke="red" points="674.5,-149.88 564,-149.88 564,-103.62 674.5,-103.62 674.5,-149.88"/>
<text xml:space="preserve" text-anchor="start" x="572" y="-136.38" font-family="Helvetica,sans-Serif" font-size="10.00">kest_active_button</text>
<text xml:space="preserve" text-anchor="start" x="572" y="-123.62" font-family="Helvetica,sans-Serif" font-size="10.00">_trigger_del_button</text>
<text xml:space="preserve" text-anchor="middle" x="619.25" y="-110.88" font-family="Helvetica,sans-Serif" font-size="10.00">_fade_out</text>
</a>
</g>
</g>
<!-- Node21&#45;&gt;Node22 -->
<g id="edge19_Node000021_Node000022" class="edge">
<title>Node21&#45;&gt;Node22</title>
<g id="a_edge19_Node000021_Node000022"><a xlink:title=" ">
<path fill="none" stroke="#63b8ff" d="M516.29,-126.75C528.3,-126.75 540.57,-126.75 552.25,-126.75"/>
<polygon fill="#63b8ff" stroke="#63b8ff" points="552.19,-130.25 562.19,-126.75 552.19,-123.25 552.19,-130.25"/>
</a>
</g>
</g>
<!-- Node22&#45;&gt;Node10 -->
<g id="edge20_Node000022_Node000010" class="edge">
<title>Node22&#45;&gt;Node10</title>
<g id="a_edge20_Node000022_Node000010"><a xlink:title=" ">
<path fill="none" stroke="#63b8ff" d="M671.34,-150.36C676.53,-153.08 681.66,-155.89 686.5,-158.75 708.18,-171.54 731.27,-187.86 749.06,-201.08"/>
<polygon fill="#63b8ff" stroke="#63b8ff" points="746.53,-203.55 756.63,-206.76 750.73,-197.96 746.53,-203.55"/>
</a>
</g>
</g>
<!-- Node22&#45;&gt;Node12 -->
<g id="edge21_Node000022_Node000012" class="edge">
<title>Node22&#45;&gt;Node12</title>
<g id="a_edge21_Node000022_Node000012"><a xlink:title=" ">
<path fill="none" stroke="#63b8ff" d="M674.69,-138.7C689.08,-141.85 704.69,-145.28 719.36,-148.5"/>
<polygon fill="#63b8ff" stroke="#63b8ff" points="718.37,-151.86 728.89,-150.59 719.87,-145.03 718.37,-151.86"/>
</a>
</g>
</g>
<!-- Node25&#45;&gt;Node17 -->
<g id="edge23_Node000025_Node000017" class="edge">
<title>Node25&#45;&gt;Node17</title>
<g id="a_edge23_Node000025_Node000017"><a xlink:title=" ">
<path fill="none" stroke="#63b8ff" d="M490.14,-55.55C509.03,-49.82 530.53,-43.31 550.45,-37.28"/>
<polygon fill="#63b8ff" stroke="#63b8ff" points="551.32,-40.67 559.88,-34.43 549.29,-33.97 551.32,-40.67"/>
</a>
</g>
</g>
<!-- Node25&#45;&gt;Node18 -->
<g id="edge24_Node000025_Node000018" class="edge">
<title>Node25&#45;&gt;Node18</title>
<g id="a_edge24_Node000025_Node000018"><a xlink:title=" ">
<path fill="none" stroke="#63b8ff" d="M490.14,-70.87C509.29,-70.55 531.13,-70.19 551.28,-69.86"/>
<polygon fill="#63b8ff" stroke="#63b8ff" points="551.15,-73.36 561.09,-69.69 551.03,-66.36 551.15,-73.36"/>
</a>
</g>
</g>
</g>
</svg>
