<?xml version="1.0" encoding="UTF-8" standalone="no"?>
<!DOCTYPE svg PUBLIC "-//W3C//DTD SVG 1.1//EN"
 "http://www.w3.org/Graphics/SVG/1.1/DTD/svg11.dtd">
<!-- Generated by graphviz version 13.1.2 (20250808.2320)
 -->
<!-- Title: footswitch_task Pages: 1 -->
<svg width="572pt" height="87pt"
 viewBox="0.00 0.00 572.00 87.00" xmlns="http://www.w3.org/2000/svg" xmlns:xlink="http://www.w3.org/1999/xlink">
<g id="graph0" class="graph" transform="scale(1 1) rotate(0) translate(4 82.75)">
<title>footswitch_task</title>
<!-- Node1 -->
<g id="Node000001" class="node">
<title>Node1</title>
<g id="a_Node000001"><a xlink:title=" ">
<polygon fill="#999999" stroke="#666666" points="93.25,-39.75 0,-39.75 0,-19 93.25,-19 93.25,-39.75"/>
<text xml:space="preserve" text-anchor="middle" x="46.62" y="-26.25" font-family="Helvetica,sans-Serif" font-size="10.00">footswitch_task</text>
</a>
</g>
</g>
<!-- Node2 -->
<g id="Node000002" class="node">
<title>Node2</title>
<g id="a_Node000002"><a xlink:href="kest__context_8c.html#a92d3aa6e51991a8969ec021b9d1e0f33" target="_top" xlink:title=" ">
<polygon fill="white" stroke="#666666" points="254.75,-59.75 129.25,-59.75 129.25,-39 254.75,-39 254.75,-59.75"/>
<text xml:space="preserve" text-anchor="middle" x="192" y="-46.25" font-family="Helvetica,sans-Serif" font-size="10.00">cxt_handle_hw_switch</text>
</a>
</g>
</g>
<!-- Node1&#45;&gt;Node2 -->
<g id="edge1_Node000001_Node000002" class="edge">
<title>Node1&#45;&gt;Node2</title>
<g id="a_edge1_Node000001_Node000002"><a xlink:title=" ">
<path fill="none" stroke="#63b8ff" d="M93.38,-35.76C101.16,-36.84 109.4,-37.99 117.68,-39.15"/>
<polygon fill="#63b8ff" stroke="#63b8ff" points="117.05,-42.59 127.44,-40.51 118.02,-35.66 117.05,-42.59"/>
</a>
</g>
</g>
<!-- Node43 -->
<g id="Node000043" class="node">
<title>Node43</title>
<g id="a_Node000043"><a xlink:href="kest__printf_8c.html#a302714171dfa950e18d9a951bdab4105" target="_top" xlink:title=" ">
<polygon fill="white" stroke="#666666" points="225.88,-20.75 158.12,-20.75 158.12,0 225.88,0 225.88,-20.75"/>
<text xml:space="preserve" text-anchor="middle" x="192" y="-7.25" font-family="Helvetica,sans-Serif" font-size="10.00">kest_printf</text>
</a>
</g>
</g>
<!-- Node1&#45;&gt;Node43 -->
<g id="edge6_Node000001_Node000043" class="edge">
<title>Node1&#45;&gt;Node43</title>
<g id="a_edge6_Node000001_Node000043"><a xlink:title=" ">
<path fill="none" stroke="#63b8ff" d="M93.38,-23.31C110.43,-21.05 129.74,-18.49 146.65,-16.25"/>
<polygon fill="#63b8ff" stroke="#63b8ff" points="146.97,-19.74 156.43,-14.96 146.05,-12.8 146.97,-19.74"/>
</a>
</g>
</g>
<!-- Node3 -->
<g id="Node000003" class="node">
<title>Node3</title>
<g id="a_Node000003"><a xlink:href="kest__sequence_8c.html#a85f3248c9d10338f835e998245e44b30" target="_top" xlink:title=" ">
<polygon fill="white" stroke="#666666" points="425.25,-78.75 290.75,-78.75 290.75,-58 425.25,-58 425.25,-78.75"/>
<text xml:space="preserve" text-anchor="middle" x="358" y="-65.25" font-family="Helvetica,sans-Serif" font-size="10.00">kest_sequence_advance</text>
</a>
</g>
</g>
<!-- Node2&#45;&gt;Node3 -->
<g id="edge2_Node000002_Node000003" class="edge">
<title>Node2&#45;&gt;Node3</title>
<g id="a_edge2_Node000002_Node000003"><a xlink:title=" ">
<path fill="none" stroke="#63b8ff" d="M255,-56.56C262.83,-57.47 270.92,-58.4 278.96,-59.33"/>
<polygon fill="#63b8ff" stroke="#63b8ff" points="278.42,-62.79 288.75,-60.47 279.22,-55.84 278.42,-62.79"/>
</a>
</g>
</g>
<!-- Node42 -->
<g id="Node000042" class="node">
<title>Node42</title>
<g id="a_Node000042"><a xlink:href="kest__sequence_8c.html#a0076ab743ce384590dc02431edb343c3" target="_top" xlink:title=" ">
<polygon fill="white" stroke="#666666" points="422.62,-39.75 293.38,-39.75 293.38,-19 422.62,-19 422.62,-39.75"/>
<text xml:space="preserve" text-anchor="middle" x="358" y="-26.25" font-family="Helvetica,sans-Serif" font-size="10.00">kest_sequence_regress</text>
</a>
</g>
</g>
<!-- Node2&#45;&gt;Node42 -->
<g id="edge4_Node000002_Node000042" class="edge">
<title>Node2&#45;&gt;Node42</title>
<g id="a_edge4_Node000002_Node000042"><a xlink:title=" ">
<path fill="none" stroke="#63b8ff" d="M255,-41.81C263.74,-40.75 272.8,-39.64 281.75,-38.55"/>
<polygon fill="#63b8ff" stroke="#63b8ff" points="282,-42.05 291.5,-37.36 281.15,-35.1 282,-42.05"/>
</a>
</g>
</g>
<!-- Node4 -->
<g id="Node000004" class="node">
<title>Node4</title>
<g id="a_Node000004"><a xlink:href="kest__context_8c.html#a46a337c8aa1724024c73026c74d90a39" target="_top" xlink:title=" ">
<polygon fill="#fff0f0" stroke="red" points="564.25,-65.12 461.25,-65.12 461.25,-31.62 564.25,-31.62 564.25,-65.12"/>
<text xml:space="preserve" text-anchor="start" x="469.25" y="-51.62" font-family="Helvetica,sans-Serif" font-size="10.00">set_active_profile</text>
<text xml:space="preserve" text-anchor="middle" x="512.75" y="-38.88" font-family="Helvetica,sans-Serif" font-size="10.00">_from_sequence</text>
</a>
</g>
</g>
<!-- Node3&#45;&gt;Node4 -->
<g id="edge3_Node000003_Node000004" class="edge">
<title>Node3&#45;&gt;Node4</title>
<g id="a_edge3_Node000003_Node000004"><a xlink:title=" ">
<path fill="none" stroke="#63b8ff" d="M425.55,-59.66C433.64,-58.6 441.88,-57.52 449.89,-56.47"/>
<polygon fill="#63b8ff" stroke="#63b8ff" points="450.08,-59.98 459.54,-55.21 449.17,-53.04 450.08,-59.98"/>
</a>
</g>
</g>
<!-- Node42&#45;&gt;Node4 -->
<g id="edge5_Node000042_Node000004" class="edge">
<title>Node42&#45;&gt;Node4</title>
<g id="a_edge5_Node000042_Node000004"><a xlink:title=" ">
<path fill="none" stroke="#63b8ff" d="M422.89,-37.32C431.76,-38.43 440.86,-39.56 449.69,-40.66"/>
<polygon fill="#63b8ff" stroke="#63b8ff" points="449.25,-44.13 459.61,-41.89 450.12,-37.18 449.25,-44.13"/>
</a>
</g>
</g>
</g>
</svg>
