<?xml version="1.0" encoding="UTF-8" standalone="no"?>
<!DOCTYPE svg PUBLIC "-//W3C//DTD SVG 1.1//EN"
 "http://www.w3.org/Graphics/SVG/1.1/DTD/svg11.dtd">
<!-- Generated by graphviz version 13.1.2 (20250808.2320)
 -->
<!-- Title: kest_expression_compute_format Pages: 1 -->
<svg width="687pt" height="494pt"
 viewBox="0.00 0.00 687.00 494.00" xmlns="http://www.w3.org/2000/svg" xmlns:xlink="http://www.w3.org/1999/xlink">
<g id="graph0" class="graph" transform="scale(1 1) rotate(0) translate(4 489.75)">
<title>kest_expression_compute_format</title>
<!-- Node1 -->
<g id="Node000001" class="node">
<title>Node1</title>
<g id="a_Node000001"><a xlink:title=" ">
<polygon fill="#999999" stroke="#666666" points="142.75,-144.12 0,-144.12 0,-110.62 142.75,-110.62 142.75,-144.12"/>
<text xml:space="preserve" text-anchor="start" x="8" y="-130.62" font-family="Helvetica,sans-Serif" font-size="10.00">kest_expression_compute</text>
<text xml:space="preserve" text-anchor="middle" x="71.38" y="-117.88" font-family="Helvetica,sans-Serif" font-size="10.00">_format</text>
</a>
</g>
</g>
<!-- Node2 -->
<g id="Node000002" class="node">
<title>Node2</title>
<g id="a_Node000002"><a xlink:href="kest__expression_8c.html#a5f48e88077ddcd3c3de79b597094a3ef" target="_top" xlink:title=" ">
<polygon fill="white" stroke="#666666" points="321.5,-305.12 178.75,-305.12 178.75,-271.62 321.5,-271.62 321.5,-305.12"/>
<text xml:space="preserve" text-anchor="start" x="186.75" y="-291.62" font-family="Helvetica,sans-Serif" font-size="10.00">kest_expression_compute</text>
<text xml:space="preserve" text-anchor="middle" x="250.12" y="-278.88" font-family="Helvetica,sans-Serif" font-size="10.00">_range</text>
</a>
</g>
</g>
<!-- Node1&#45;&gt;Node2 -->
<g id="edge1_Node000001_Node000002" class="edge">
<title>Node1&#45;&gt;Node2</title>
<g id="a_edge1_Node000001_Node000002"><a xlink:title=" ">
<path fill="none" stroke="#63b8ff" d="M91.29,-144.6C122.78,-173.29 186.07,-230.94 222.21,-263.86"/>
<polygon fill="#63b8ff" stroke="#63b8ff" points="219.48,-266.1 229.23,-270.25 224.19,-260.93 219.48,-266.1"/>
</a>
</g>
</g>
<!-- Node8 -->
<g id="Node000008" class="node">
<title>Node8</title>
<g id="a_Node000008"><a xlink:href="kest__expression_8c.html#aadf2a6a074cb1ad7b45893704cbd71c3" target="_top" xlink:title=" ">
<polygon fill="#fff0f0" stroke="red" points="662.5,-201.12 552.75,-201.12 552.75,-167.62 662.5,-167.62 662.5,-201.12"/>
<text xml:space="preserve" text-anchor="start" x="560.75" y="-187.62" font-family="Helvetica,sans-Serif" font-size="10.00">kest_expression_to</text>
<text xml:space="preserve" text-anchor="middle" x="607.62" y="-174.88" font-family="Helvetica,sans-Serif" font-size="10.00">_string</text>
</a>
</g>
</g>
<!-- Node1&#45;&gt;Node8 -->
<g id="edge12_Node000001_Node000008" class="edge">
<title>Node1&#45;&gt;Node8</title>
<g id="a_edge12_Node000001_Node000008"><a xlink:title=" ">
<path fill="none" stroke="#63b8ff" d="M95.44,-144.4C116.08,-158.51 147.77,-177.48 178.75,-185.38 303.83,-217.26 456.24,-205.4 541.25,-194.49"/>
<polygon fill="#63b8ff" stroke="#63b8ff" points="541.58,-197.98 551.04,-193.19 540.67,-191.04 541.58,-197.98"/>
</a>
</g>
</g>
<!-- Node16 -->
<g id="Node000016" class="node">
<title>Node16</title>
<g id="a_Node000016"><a xlink:href="kest__alloc_8c.html#a294af5728a94aa316fcf65304d388d48" target="_top" xlink:title=" ">
<polygon fill="white" stroke="#666666" points="280.62,-176.75 219.62,-176.75 219.62,-156 280.62,-156 280.62,-176.75"/>
<text xml:space="preserve" text-anchor="middle" x="250.12" y="-163.25" font-family="Helvetica,sans-Serif" font-size="10.00">kest_free</text>
</a>
</g>
</g>
<!-- Node1&#45;&gt;Node16 -->
<g id="edge13_Node000001_Node000016" class="edge">
<title>Node1&#45;&gt;Node16</title>
<g id="a_edge13_Node000001_Node000016"><a xlink:title=" ">
<path fill="none" stroke="#63b8ff" d="M143.25,-143.01C165.3,-147.88 188.87,-153.08 208.16,-157.34"/>
<polygon fill="#63b8ff" stroke="#63b8ff" points="207.28,-160.73 217.79,-159.46 208.78,-153.89 207.28,-160.73"/>
</a>
</g>
</g>
<!-- Node17 -->
<g id="Node000017" class="node">
<title>Node17</title>
<g id="a_Node000017"><a xlink:href="kest__string_8c.html#a5e8184b1f070fc74a7d1d2f08c4d9658" target="_top" xlink:title=" ">
<polygon fill="white" stroke="#666666" points="307.25,-137.75 193,-137.75 193,-117 307.25,-117 307.25,-137.75"/>
<text xml:space="preserve" text-anchor="middle" x="250.12" y="-124.25" font-family="Helvetica,sans-Serif" font-size="10.00">kest_string_appendf</text>
</a>
</g>
</g>
<!-- Node1&#45;&gt;Node17 -->
<g id="edge14_Node000001_Node000017" class="edge">
<title>Node1&#45;&gt;Node17</title>
<g id="a_edge14_Node000001_Node000017"><a xlink:title=" ">
<path fill="none" stroke="#63b8ff" d="M143.25,-127.38C155.82,-127.38 168.89,-127.38 181.37,-127.38"/>
<polygon fill="#63b8ff" stroke="#63b8ff" points="181.13,-130.88 191.13,-127.38 181.13,-123.88 181.13,-130.88"/>
</a>
</g>
</g>
<!-- Node19 -->
<g id="Node000019" class="node">
<title>Node19</title>
<g id="a_Node000019"><a xlink:href="kest__string_8c.html#ad346e7c1a0b506f7eca9423a05b47f11" target="_top" xlink:title=" ">
<polygon fill="white" stroke="#666666" points="305.75,-98.75 194.5,-98.75 194.5,-78 305.75,-78 305.75,-98.75"/>
<text xml:space="preserve" text-anchor="middle" x="250.12" y="-85.25" font-family="Helvetica,sans-Serif" font-size="10.00">kest_string_destroy</text>
</a>
</g>
</g>
<!-- Node1&#45;&gt;Node19 -->
<g id="edge16_Node000001_Node000019" class="edge">
<title>Node1&#45;&gt;Node19</title>
<g id="a_edge16_Node000001_Node000019"><a xlink:title=" ">
<path fill="none" stroke="#63b8ff" d="M143.25,-111.74C158.4,-108.39 174.27,-104.89 188.97,-101.65"/>
<polygon fill="#63b8ff" stroke="#63b8ff" points="189.47,-105.12 198.48,-99.55 187.96,-98.29 189.47,-105.12"/>
</a>
</g>
</g>
<!-- Node20 -->
<g id="Node000020" class="node">
<title>Node20</title>
<g id="a_Node000020"><a xlink:href="kest__string_8c.html#ab74edc9a2be32d899a92ef58edb16286" target="_top" xlink:title=" ">
<polygon fill="white" stroke="#666666" points="295.25,-59.75 205,-59.75 205,-39 295.25,-39 295.25,-59.75"/>
<text xml:space="preserve" text-anchor="middle" x="250.12" y="-46.25" font-family="Helvetica,sans-Serif" font-size="10.00">kest_string_init</text>
</a>
</g>
</g>
<!-- Node1&#45;&gt;Node20 -->
<g id="edge17_Node000001_Node000020" class="edge">
<title>Node1&#45;&gt;Node20</title>
<g id="a_edge17_Node000001_Node000020"><a xlink:title=" ">
<path fill="none" stroke="#63b8ff" d="M99.54,-110.37C120.56,-97.75 150.71,-80.84 178.75,-69.38 183.91,-67.27 189.37,-65.29 194.87,-63.47"/>
<polygon fill="#63b8ff" stroke="#63b8ff" points="195.5,-66.94 203.99,-60.61 193.41,-60.26 195.5,-66.94"/>
</a>
</g>
</g>
<!-- Node21 -->
<g id="Node000021" class="node">
<title>Node21</title>
<g id="a_Node000021"><a xlink:href="kest__string_8c.html#a476a3ace857a6df4b94057b078a5bcb3" target="_top" xlink:title=" ">
<polygon fill="white" stroke="#666666" points="310.25,-20.75 190,-20.75 190,0 310.25,0 310.25,-20.75"/>
<text xml:space="preserve" text-anchor="middle" x="250.12" y="-7.25" font-family="Helvetica,sans-Serif" font-size="10.00">kest_string_to_native</text>
</a>
</g>
</g>
<!-- Node1&#45;&gt;Node21 -->
<g id="edge18_Node000001_Node000021" class="edge">
<title>Node1&#45;&gt;Node21</title>
<g id="a_edge18_Node000001_Node000021"><a xlink:title=" ">
<path fill="none" stroke="#63b8ff" d="M86.43,-110.41C105.27,-88.74 140.76,-51.53 178.75,-30.38 182.13,-28.5 185.69,-26.78 189.36,-25.22"/>
<polygon fill="#63b8ff" stroke="#63b8ff" points="190.37,-28.58 198.46,-21.74 187.87,-22.04 190.37,-28.58"/>
</a>
</g>
</g>
<!-- Node3 -->
<g id="Node000003" class="node">
<title>Node3</title>
<g id="a_Node000003"><a xlink:href="kest__expression_8c.html#a12b486853cdfbc5ca334e74f9a90de2b" target="_top" xlink:title=" ">
<polygon fill="white" stroke="#666666" points="500.25,-324.12 357.5,-324.12 357.5,-290.62 500.25,-290.62 500.25,-324.12"/>
<text xml:space="preserve" text-anchor="start" x="365.5" y="-310.62" font-family="Helvetica,sans-Serif" font-size="10.00">kest_expression_compute</text>
<text xml:space="preserve" text-anchor="middle" x="428.88" y="-297.88" font-family="Helvetica,sans-Serif" font-size="10.00">_range_rec</text>
</a>
</g>
</g>
<!-- Node2&#45;&gt;Node3 -->
<g id="edge2_Node000002_Node000003" class="edge">
<title>Node2&#45;&gt;Node3</title>
<g id="a_edge2_Node000002_Node000003"><a xlink:title=" ">
<path fill="none" stroke="#63b8ff" d="M322,-295.99C329.9,-296.84 337.99,-297.71 346.01,-298.57"/>
<polygon fill="#63b8ff" stroke="#63b8ff" points="345.45,-302.03 355.77,-299.62 346.2,-295.08 345.45,-302.03"/>
</a>
</g>
</g>
<!-- Node3&#45;&gt;Node3 -->
<g id="edge5_Node000003_Node000003" class="edge">
<title>Node3&#45;&gt;Node3</title>
<g id="a_edge5_Node000003_Node000003"><a xlink:title=" ">
<path fill="none" stroke="#63b8ff" d="M396.74,-324.54C391.28,-333.74 401.99,-342.12 428.88,-342.12 444,-342.12 454,-339.47 458.89,-335.51"/>
<polygon fill="#63b8ff" stroke="#63b8ff" points="462.26,-336.51 460.72,-326.03 455.39,-335.18 462.26,-336.51"/>
</a>
</g>
</g>
<!-- Node4 -->
<g id="Node000004" class="node">
<title>Node4</title>
<g id="a_Node000004"><a xlink:href="kest__expr__scope_8c.html#a8077a19bd328bbd93fcbf80d8591cb5c" target="_top" xlink:title=" ">
<polygon fill="white" stroke="#666666" points="671.12,-485.75 544.12,-485.75 544.12,-465 671.12,-465 671.12,-485.75"/>
<text xml:space="preserve" text-anchor="middle" x="607.62" y="-472.25" font-family="Helvetica,sans-Serif" font-size="10.00">kest_expr_scope_fetch</text>
</a>
</g>
</g>
<!-- Node3&#45;&gt;Node4 -->
<g id="edge3_Node000003_Node000004" class="edge">
<title>Node3&#45;&gt;Node4</title>
<g id="a_edge3_Node000003_Node000004"><a xlink:title=" ">
<path fill="none" stroke="#63b8ff" d="M437.4,-324.44C451.92,-355.35 486.79,-420.64 536.25,-455.38 538.49,-456.95 540.84,-458.39 543.29,-459.73"/>
<polygon fill="#63b8ff" stroke="#63b8ff" points="541.8,-462.9 552.34,-463.96 544.77,-456.56 541.8,-462.9"/>
</a>
</g>
</g>
<!-- Node5 -->
<g id="Node000005" class="node">
<title>Node5</title>
<g id="a_Node000005"><a xlink:href="kest__expression_8c.html#a835e180e79c6b6d2e4377a528949d7a0" target="_top" xlink:title=" ">
<polygon fill="white" stroke="#666666" points="668.88,-446.75 546.38,-446.75 546.38,-426 668.88,-426 668.88,-446.75"/>
<text xml:space="preserve" text-anchor="middle" x="607.62" y="-433.25" font-family="Helvetica,sans-Serif" font-size="10.00">kest_expression_arity</text>
</a>
</g>
</g>
<!-- Node3&#45;&gt;Node5 -->
<g id="edge4_Node000003_Node000005" class="edge">
<title>Node3&#45;&gt;Node5</title>
<g id="a_edge4_Node000003_Node000005"><a xlink:title=" ">
<path fill="none" stroke="#63b8ff" d="M441.92,-324.45C459.78,-348.51 495.59,-392.15 536.25,-416.38 539.36,-418.23 542.65,-419.92 546.04,-421.45"/>
<polygon fill="#63b8ff" stroke="#63b8ff" points="544.45,-424.59 555.03,-425.06 547.06,-418.09 544.45,-424.59"/>
</a>
</g>
</g>
<!-- Node6 -->
<g id="Node000006" class="node">
<title>Node6</title>
<g id="a_Node000006"><a xlink:href="kest__expression_8c.html#acf37e49d77d8bcdaa88727bd67c146fa" target="_top" xlink:title=" ">
<polygon fill="white" stroke="#666666" points="679,-407.75 536.25,-407.75 536.25,-387 679,-387 679,-407.75"/>
<text xml:space="preserve" text-anchor="middle" x="607.62" y="-394.25" font-family="Helvetica,sans-Serif" font-size="10.00">kest_expression_evaluate</text>
</a>
</g>
</g>
<!-- Node3&#45;&gt;Node6 -->
<g id="edge6_Node000003_Node000006" class="edge">
<title>Node3&#45;&gt;Node6</title>
<g id="a_edge6_Node000003_Node000006"><a xlink:title=" ">
<path fill="none" stroke="#63b8ff" d="M451.05,-324.55C471.69,-340.53 504.51,-363.97 536.25,-378.38 539.82,-379.99 543.55,-381.5 547.35,-382.89"/>
<polygon fill="#63b8ff" stroke="#63b8ff" points="546.17,-386.19 556.76,-386.05 548.4,-379.55 546.17,-386.19"/>
</a>
</g>
</g>
<!-- Node7 -->
<g id="Node000007" class="node">
<title>Node7</title>
<g id="a_Node000007"><a xlink:href="kest__expression_8c.html#af12e3464d3e6c4a6e573736af368fd91" target="_top" xlink:title=" ">
<polygon fill="white" stroke="#666666" points="671.88,-369.12 543.38,-369.12 543.38,-335.62 671.88,-335.62 671.88,-369.12"/>
<text xml:space="preserve" text-anchor="start" x="551.38" y="-355.62" font-family="Helvetica,sans-Serif" font-size="10.00">kest_expression_refers</text>
<text xml:space="preserve" text-anchor="middle" x="607.62" y="-342.88" font-family="Helvetica,sans-Serif" font-size="10.00">_constant</text>
</a>
</g>
</g>
<!-- Node3&#45;&gt;Node7 -->
<g id="edge7_Node000003_Node000007" class="edge">
<title>Node3&#45;&gt;Node7</title>
<g id="a_edge7_Node000003_Node000007"><a xlink:title=" ">
<path fill="none" stroke="#63b8ff" d="M497.45,-324.58C508.83,-327.48 520.69,-330.5 532.22,-333.43"/>
<polygon fill="#63b8ff" stroke="#63b8ff" points="531.13,-336.77 541.69,-335.84 532.86,-329.98 531.13,-336.77"/>
</a>
</g>
</g>
<!-- Node3&#45;&gt;Node8 -->
<g id="edge8_Node000003_Node000008" class="edge">
<title>Node3&#45;&gt;Node8</title>
<g id="a_edge8_Node000003_Node000008"><a xlink:title=" ">
<path fill="none" stroke="#63b8ff" d="M444.52,-290.49C463.72,-269.25 499.31,-232.85 536.25,-210.38 538.42,-209.05 540.67,-207.78 542.97,-206.57"/>
<polygon fill="#63b8ff" stroke="#63b8ff" points="544.49,-209.72 551.96,-202.2 541.44,-203.42 544.49,-209.72"/>
</a>
</g>
</g>
<!-- Node13 -->
<g id="Node000013" class="node">
<title>Node13</title>
<g id="a_Node000013"><a xlink:href="kest__expression_8c.html#ae162d4eb0d35fa2b80788054a533387e" target="_top" xlink:title=" ">
<polygon fill="white" stroke="#666666" points="655.75,-317.75 559.5,-317.75 559.5,-297 655.75,-297 655.75,-317.75"/>
<text xml:space="preserve" text-anchor="middle" x="607.62" y="-304.25" font-family="Helvetica,sans-Serif" font-size="10.00">kest_interval_ab</text>
</a>
</g>
</g>
<!-- Node3&#45;&gt;Node13 -->
<g id="edge9_Node000003_Node000013" class="edge">
<title>Node3&#45;&gt;Node13</title>
<g id="a_edge9_Node000003_Node000013"><a xlink:title=" ">
<path fill="none" stroke="#63b8ff" d="M500.75,-307.38C516.36,-307.38 532.73,-307.38 547.81,-307.38"/>
<polygon fill="#63b8ff" stroke="#63b8ff" points="547.54,-310.88 557.54,-307.38 547.53,-303.88 547.54,-310.88"/>
</a>
</g>
</g>
<!-- Node14 -->
<g id="Node000014" class="node">
<title>Node14</title>
<g id="a_Node000014"><a xlink:href="kest__expression_8c.html#a8831b010403eeba4bddedca70a446ce1" target="_top" xlink:title=" ">
<polygon fill="white" stroke="#666666" points="670.75,-278.75 544.5,-278.75 544.5,-258 670.75,-258 670.75,-278.75"/>
<text xml:space="preserve" text-anchor="middle" x="607.62" y="-265.25" font-family="Helvetica,sans-Serif" font-size="10.00">kest_interval_real_line</text>
</a>
</g>
</g>
<!-- Node3&#45;&gt;Node14 -->
<g id="edge10_Node000003_Node000014" class="edge">
<title>Node3&#45;&gt;Node14</title>
<g id="a_edge10_Node000003_Node000014"><a xlink:title=" ">
<path fill="none" stroke="#63b8ff" d="M500.75,-291.74C515.9,-288.39 531.77,-284.89 546.47,-281.65"/>
<polygon fill="#63b8ff" stroke="#63b8ff" points="546.97,-285.12 555.98,-279.55 545.46,-278.29 546.97,-285.12"/>
</a>
</g>
</g>
<!-- Node15 -->
<g id="Node000015" class="node">
<title>Node15</title>
<g id="a_Node000015"><a xlink:href="kest__expression_8c.html#ade33a48e7785ee7d93728cdf56474be7" target="_top" xlink:title=" ">
<polygon fill="white" stroke="#666666" points="672.25,-239.75 543,-239.75 543,-219 672.25,-219 672.25,-239.75"/>
<text xml:space="preserve" text-anchor="middle" x="607.62" y="-226.25" font-family="Helvetica,sans-Serif" font-size="10.00">kest_interval_singleton</text>
</a>
</g>
</g>
<!-- Node3&#45;&gt;Node15 -->
<g id="edge11_Node000003_Node000015" class="edge">
<title>Node3&#45;&gt;Node15</title>
<g id="a_edge11_Node000003_Node000015"><a xlink:title=" ">
<path fill="none" stroke="#63b8ff" d="M457.04,-290.37C478.06,-277.75 508.21,-260.84 536.25,-249.38 541.41,-247.27 546.87,-245.29 552.37,-243.47"/>
<polygon fill="#63b8ff" stroke="#63b8ff" points="553,-246.94 561.49,-240.61 550.91,-240.26 553,-246.94"/>
</a>
</g>
</g>
<!-- Node18 -->
<g id="Node000018" class="node">
<title>Node18</title>
<g id="a_Node000018"><a xlink:href="kest__string_8c.html#ab38fd4531ec8be3f9c32f467f6808951" target="_top" xlink:title=" ">
<polygon fill="white" stroke="#666666" points="493.12,-137.75 364.62,-137.75 364.62,-117 493.12,-117 493.12,-137.75"/>
<text xml:space="preserve" text-anchor="middle" x="428.88" y="-124.25" font-family="Helvetica,sans-Serif" font-size="10.00">kest_string_append_str</text>
</a>
</g>
</g>
<!-- Node17&#45;&gt;Node18 -->
<g id="edge15_Node000017_Node000018" class="edge">
<title>Node17&#45;&gt;Node18</title>
<g id="a_edge15_Node000017_Node000018"><a xlink:title=" ">
<path fill="none" stroke="#63b8ff" d="M307.54,-127.38C321.95,-127.38 337.67,-127.38 352.85,-127.38"/>
<polygon fill="#63b8ff" stroke="#63b8ff" points="352.81,-130.88 362.81,-127.38 352.81,-123.88 352.81,-130.88"/>
</a>
</g>
</g>
<!-- Node22 -->
<g id="Node000022" class="node">
<title>Node22</title>
<g id="a_Node000022"><a xlink:href="kest__alloc_8c.html#a849755c5dc5b35e712ffcdb602e50fb4" target="_top" xlink:title=" ">
<polygon fill="white" stroke="#666666" points="461.25,-20.75 396.5,-20.75 396.5,0 461.25,0 461.25,-20.75"/>
<text xml:space="preserve" text-anchor="middle" x="428.88" y="-7.25" font-family="Helvetica,sans-Serif" font-size="10.00">kest_alloc</text>
</a>
</g>
</g>
<!-- Node21&#45;&gt;Node22 -->
<g id="edge19_Node000021_Node000022" class="edge">
<title>Node21&#45;&gt;Node22</title>
<g id="a_edge19_Node000021_Node000022"><a xlink:title=" ">
<path fill="none" stroke="#63b8ff" d="M310.47,-10.38C334.78,-10.38 362.4,-10.38 384.73,-10.38"/>
<polygon fill="#63b8ff" stroke="#63b8ff" points="384.7,-13.88 394.7,-10.38 384.7,-6.88 384.7,-13.88"/>
</a>
</g>
</g>
</g>
</svg>
