<?xml version="1.0" encoding="UTF-8" standalone="no"?>
<!DOCTYPE svg PUBLIC "-//W3C//DTD SVG 1.1//EN"
 "http://www.w3.org/Graphics/SVG/1.1/DTD/svg11.dtd">
<!-- Generated by graphviz version 13.1.2 (20250808.2320)
 -->
<!-- Title: ui_page_add_right_panel_button Pages: 1 -->
<!--zoomable 127 -->

<svg id="main" version="1.1" xmlns="http://www.w3.org/2000/svg" xmlns:xlink="http://www.w3.org/1999/xlink" xml:space="preserve" onload="init(evt)">

<style type="text/css"><![CDATA[
.node, .edge {opacity: 0.7;}
.node.selected, .edge.selected {opacity: 1;}
.edge:hover path { stroke: red; }
.edge:hover polygon { stroke: red; fill: red; }
]]></style>

<defs>
  <circle id="rim" cx="0" cy="0" r="7"/>
  <circle id="rim2" cx="0" cy="0" r="3.5"/>
  <g id="zoomPlus">
    <use xlink:href="#rim" fill="#404040"><set attributeName="fill" to="#808080" begin="zoomplus.mouseover" end="zoomplus.mouseout"/></use>
    <path d="M-4,0h8M0,-4v8" fill="none" stroke="white" stroke-width="1.5" pointer-events="none"/>
  </g>
  <g id="zoomMin">
    <use xlink:href="#rim" fill="#404040"><set attributeName="fill" to="#808080" begin="zoomminus.mouseover" end="zoomminus.mouseout"/></use>
    <path d="M-4,0h8" fill="none" stroke="white" stroke-width="1.5" pointer-events="none"/>
  </g>
  <g id="arrowUp" transform="translate(30 24)">
    <use xlink:href="#rim"/>
    <path pointer-events="none" fill="none" stroke="white" stroke-width="1.5" d="M0,-3.0v7 M-2.5,-0.5L0,-3.0L2.5,-0.5"/>
  </g>
  <g id="arrowRight" transform="rotate(90) translate(36 -43)">
    <use xlink:href="#rim"/>
    <path pointer-events="none" fill="none" stroke="white" stroke-width="1.5" d="M0,-3.0v7 M-2.5,-0.5L0,-3.0L2.5,-0.5"/>
  </g>
  <g id="arrowDown" transform="rotate(180) translate(-30 -48)">
    <use xlink:href="#rim"/>
    <path pointer-events="none" fill="none" stroke="white" stroke-width="1.5" d="M0,-3.0v7 M-2.5,-0.5L0,-3.0L2.5,-0.5"/>
  </g>
  <g id="arrowLeft" transform="rotate(270) translate(-36 17)">
    <use xlink:href="#rim"/>
    <path pointer-events="none" fill="none" stroke="white" stroke-width="1.5" d="M0,-3.0v7 M-2.5,-0.5L0,-3.0L2.5,-0.5"/>
  </g>
  <g id="resetDef">
    <use xlink:href="#rim2" fill="#404040"><set attributeName="fill" to="#808080" begin="reset.mouseover" end="reset.mouseout"/></use>
  </g>
</defs>
<script type="application/ecmascript">
var viewWidth = 762;
var viewHeight = 127;
var sectionId = 'dynsection-65';
</script>
<script type="application/ecmascript" xlink:href="svg.min.js"/>
<svg id="graph" class="graph">
<g id="viewport">
<title>ui_page_add_right_panel_button</title>
<!-- Node1 -->
<g id="Node000001" class="node">
<title>Node1</title>
<g id="a_Node000001"><a xlink:title=" ">
<polygon fill="#999999" stroke="#666666" points="753.5,-94.12 616,-94.12 616,-60.62 753.5,-60.62 753.5,-94.12"/>
<text xml:space="preserve" text-anchor="start" x="624" y="-80.62" font-family="Helvetica,sans-Serif" font-size="10.00">ui_page_add_right_panel</text>
<text xml:space="preserve" text-anchor="middle" x="684.75" y="-67.88" font-family="Helvetica,sans-Serif" font-size="10.00">_button</text>
</a>
</g>
</g>
<!-- Node2 -->
<g id="Node000002" class="node">
<title>Node2</title>
<g id="a_Node000002"><a xlink:href="kest__effect__view_8c.html#ae392eef44a5a025bad43a7a8969ab5b0" target="_top" xlink:title=" ">
<polygon fill="white" stroke="#666666" points="578.5,-107.75 454.5,-107.75 454.5,-87 578.5,-87 578.5,-107.75"/>
<text xml:space="preserve" text-anchor="middle" x="516.5" y="-94.25" font-family="Helvetica,sans-Serif" font-size="10.00">configure_effect_view</text>
</a>
</g>
</g>
<!-- Node1&#45;&gt;Node2 -->
<g id="edge1_Node000001_Node000002" class="edge">
<title>Node1&#45;&gt;Node2</title>
<g id="a_edge1_Node000001_Node000002"><a xlink:title=" ">
<path fill="none" stroke="#63b8ff" d="M604.41,-86.92C595.81,-87.95 587.16,-88.99 578.82,-90"/>
<polygon fill="#63b8ff" stroke="#63b8ff" points="604.64,-90.42 614.15,-85.75 603.8,-83.47 604.64,-90.42"/>
</a>
</g>
</g>
<!-- Node5 -->
<g id="Node000005" class="node">
<title>Node5</title>
<g id="a_Node000005"><a xlink:href="kest__profile__view_8c.html#a9f9505132871c2ea372958fd06ecf10f" target="_top" xlink:title=" ">
<polygon fill="white" stroke="#666666" points="580,-68.75 453,-68.75 453,-48 580,-48 580,-68.75"/>
<text xml:space="preserve" text-anchor="middle" x="516.5" y="-55.25" font-family="Helvetica,sans-Serif" font-size="10.00">configure_profile_view</text>
</a>
</g>
</g>
<!-- Node1&#45;&gt;Node5 -->
<g id="edge5_Node000001_Node000005" class="edge">
<title>Node1&#45;&gt;Node5</title>
<g id="a_edge5_Node000001_Node000005"><a xlink:title=" ">
<path fill="none" stroke="#63b8ff" d="M604.35,-68.3C596.32,-67.38 588.24,-66.46 580.41,-65.57"/>
<polygon fill="#63b8ff" stroke="#63b8ff" points="603.81,-71.76 614.15,-69.42 604.61,-64.81 603.81,-71.76"/>
</a>
</g>
</g>
<!-- Node3 -->
<g id="Node000003" class="node">
<title>Node3</title>
<g id="a_Node000003"><a xlink:href="kest__effect__view_8c.html#abb65b28dc293fd68d3b384f48210130e" target="_top" xlink:title=" ">
<polygon fill="white" stroke="#666666" points="282.5,-116.75 154.75,-116.75 154.75,-96 282.5,-96 282.5,-116.75"/>
<text xml:space="preserve" text-anchor="middle" x="218.62" y="-103.25" font-family="Helvetica,sans-Serif" font-size="10.00">create_effect_view_for</text>
</a>
</g>
</g>
<!-- Node2&#45;&gt;Node3 -->
<g id="edge2_Node000002_Node000003" class="edge">
<title>Node2&#45;&gt;Node3</title>
<g id="a_edge2_Node000002_Node000003"><a xlink:title=" ">
<path fill="none" stroke="#63b8ff" d="M458.13,-110.35C444.71,-112.85 430.41,-115.09 417,-116.38 372.26,-120.65 321.62,-117.93 282.84,-114.26"/>
<polygon fill="#63b8ff" stroke="#63b8ff" points="458.53,-113.84 467.68,-108.49 457.19,-106.96 458.53,-113.84"/>
</a>
</g>
</g>
<!-- Node4 -->
<g id="Node000004" class="node">
<title>Node4</title>
<g id="a_Node000004"><a xlink:href="kest__effect__view_8c.html#a7b9803e86d71b10b167f0babf088fe08" target="_top" xlink:title=" ">
<polygon fill="white" stroke="#666666" points="415.5,-107.75 321.5,-107.75 321.5,-87 415.5,-87 415.5,-107.75"/>
<text xml:space="preserve" text-anchor="middle" x="368.5" y="-94.25" font-family="Helvetica,sans-Serif" font-size="10.00">init_effect_view</text>
</a>
</g>
</g>
<!-- Node2&#45;&gt;Node4 -->
<g id="edge3_Node000002_Node000004" class="edge">
<title>Node2&#45;&gt;Node4</title>
<g id="a_edge3_Node000002_Node000004"><a xlink:title=" ">
<path fill="none" stroke="#63b8ff" d="M442.54,-97.38C433.45,-97.38 424.36,-97.38 415.84,-97.38"/>
<polygon fill="#63b8ff" stroke="#63b8ff" points="442.49,-100.88 452.49,-97.38 442.49,-93.88 442.49,-100.88"/>
</a>
</g>
</g>
<!-- Node4&#45;&gt;Node3 -->
<g id="edge4_Node000004_Node000003" class="edge">
<title>Node4&#45;&gt;Node3</title>
<g id="a_edge4_Node000004_Node000003"><a xlink:title=" ">
<path fill="none" stroke="#63b8ff" d="M309.77,-100.89C300.96,-101.42 291.83,-101.98 282.91,-102.52"/>
<polygon fill="#63b8ff" stroke="#63b8ff" points="309.84,-104.39 319.61,-100.29 309.41,-97.4 309.84,-104.39"/>
</a>
</g>
</g>
<!-- Node6 -->
<g id="Node000006" class="node">
<title>Node6</title>
<g id="a_Node000006"><a xlink:href="kest__profile__view_8c.html#a8a76cb40ff26bbde55ba56a4f25094d1" target="_top" xlink:title=" ">
<polygon fill="white" stroke="#666666" points="284,-59.75 153.25,-59.75 153.25,-39 284,-39 284,-59.75"/>
<text xml:space="preserve" text-anchor="middle" x="218.62" y="-46.25" font-family="Helvetica,sans-Serif" font-size="10.00">create_profile_view_for</text>
</a>
</g>
</g>
<!-- Node5&#45;&gt;Node6 -->
<g id="edge6_Node000005_Node000006" class="edge">
<title>Node5&#45;&gt;Node6</title>
<g id="a_edge6_Node000005_Node000006"><a xlink:title=" ">
<path fill="none" stroke="#63b8ff" d="M441.42,-56.12C393.1,-54.65 330.65,-52.75 284.33,-51.34"/>
<polygon fill="#63b8ff" stroke="#63b8ff" points="441.14,-59.61 451.24,-56.42 441.35,-52.62 441.14,-59.61"/>
</a>
</g>
</g>
<!-- Node26 -->
<g id="Node000026" class="node">
<title>Node26</title>
<g id="a_Node000026"><a xlink:href="kest__profile__view_8c.html#abfe2cf72961d0ab0b70f858cf1281a38" target="_top" xlink:title=" ">
<polygon fill="white" stroke="#666666" points="417,-31.75 320,-31.75 320,-11 417,-11 417,-31.75"/>
<text xml:space="preserve" text-anchor="middle" x="368.5" y="-18.25" font-family="Helvetica,sans-Serif" font-size="10.00">init_profile_view</text>
</a>
</g>
</g>
<!-- Node5&#45;&gt;Node26 -->
<g id="edge10_Node000005_Node000026" class="edge">
<title>Node5&#45;&gt;Node26</title>
<g id="a_edge10_Node000005_Node000026"><a xlink:title=" ">
<path fill="none" stroke="#63b8ff" d="M461.82,-44.77C445.46,-40.62 427.7,-36.13 412.17,-32.19"/>
<polygon fill="#63b8ff" stroke="#63b8ff" points="460.86,-48.14 471.41,-47.2 462.58,-41.35 460.86,-48.14"/>
</a>
</g>
</g>
<!-- Node7 -->
<g id="Node000007" class="node">
<title>Node7</title>
<g id="a_Node000007"><a xlink:href="kest__profile_8c.html#a9222b6f2a0efa93ce0168e1bb530d733" target="_top" xlink:title=" ">
<polygon fill="white" stroke="#666666" points="113.12,-111.12 4.12,-111.12 4.12,-77.62 113.12,-77.62 113.12,-111.12"/>
<text xml:space="preserve" text-anchor="start" x="12.12" y="-97.62" font-family="Helvetica,sans-Serif" font-size="10.00">create_new_profile</text>
<text xml:space="preserve" text-anchor="middle" x="58.62" y="-84.88" font-family="Helvetica,sans-Serif" font-size="10.00">_with_teensy</text>
</a>
</g>
</g>
<!-- Node6&#45;&gt;Node7 -->
<g id="edge7_Node000006_Node000007" class="edge">
<title>Node6&#45;&gt;Node7</title>
<g id="a_edge7_Node000006_Node000007"><a xlink:title=" ">
<path fill="none" stroke="#63b8ff" d="M169.18,-63.17C151.6,-68.18 131.63,-73.87 113.59,-79"/>
<polygon fill="#63b8ff" stroke="#63b8ff" points="169.67,-66.67 178.32,-60.57 167.75,-59.94 169.67,-66.67"/>
</a>
</g>
</g>
<!-- Node8 -->
<g id="Node000008" class="node">
<title>Node8</title>
<g id="a_Node000008"><a xlink:href="kest__files_8c.html#a9a8521ad7db2dd3514b6ece8c4d6d787" target="_top" xlink:title=" ">
<polygon fill="#fff0f0" stroke="red" points="115.38,-59.75 1.88,-59.75 1.88,-39 115.38,-39 115.38,-59.75"/>
<text xml:space="preserve" text-anchor="middle" x="58.62" y="-46.25" font-family="Helvetica,sans-Serif" font-size="10.00">load_saved_profiles</text>
</a>
</g>
</g>
<!-- Node6&#45;&gt;Node8 -->
<g id="edge8_Node000006_Node000008" class="edge">
<title>Node6&#45;&gt;Node8</title>
<g id="a_edge8_Node000006_Node000008"><a xlink:title=" ">
<path fill="none" stroke="#63b8ff" d="M141.43,-49.38C132.66,-49.38 123.83,-49.38 115.4,-49.38"/>
<polygon fill="#63b8ff" stroke="#63b8ff" points="141.39,-52.88 151.39,-49.38 141.39,-45.88 141.39,-52.88"/>
</a>
</g>
</g>
<!-- Node12 -->
<g id="Node000012" class="node">
<title>Node12</title>
<g id="a_Node000012"><a xlink:href="kest__sequence__view_8c.html#abc9a54120c4bc7c4fe6a4632764e5e91" target="_top" xlink:title=" ">
<polygon fill="#fff0f0" stroke="red" points="117.25,-20.75 0,-20.75 0,0 117.25,0 117.25,-20.75"/>
<text xml:space="preserve" text-anchor="middle" x="58.62" y="-7.25" font-family="Helvetica,sans-Serif" font-size="10.00">seq_view_clicked_cb</text>
</a>
</g>
</g>
<!-- Node6&#45;&gt;Node12 -->
<g id="edge9_Node000006_Node000012" class="edge">
<title>Node6&#45;&gt;Node12</title>
<g id="a_edge9_Node000006_Node000012"><a xlink:title=" ">
<path fill="none" stroke="#63b8ff" d="M162.55,-35.78C143.28,-31.03 121.92,-25.75 103.67,-21.25"/>
<polygon fill="#63b8ff" stroke="#63b8ff" points="161.6,-39.15 172.14,-38.15 163.27,-32.35 161.6,-39.15"/>
</a>
</g>
</g>
<!-- Node26&#45;&gt;Node6 -->
<g id="edge11_Node000026_Node000006" class="edge">
<title>Node26&#45;&gt;Node6</title>
<g id="a_edge11_Node000026_Node000006"><a xlink:title=" ">
<path fill="none" stroke="#63b8ff" d="M308.75,-32.5C298.28,-34.48 287.39,-36.54 276.96,-38.52"/>
<polygon fill="#63b8ff" stroke="#63b8ff" points="309.24,-35.97 318.41,-30.67 307.93,-29.09 309.24,-35.97"/>
</a>
</g>
</g>
</g>
</svg>

<g id="navigator" transform="translate(0 0)" fill="#404254">
  <rect fill="#f2f5e9" fill-opacity="0.5" stroke="#606060" stroke-width=".5" x="0" y="0" width="60" height="60"/>
  <use id="zoomplus" xlink:href="#zoomPlus" x="17" y="9" onmousedown="handleZoom(evt,'in')"/>
  <use id="zoomminus" xlink:href="#zoomMin" x="42" y="9" onmousedown="handleZoom(evt,'out')"/>
  <use id="reset" xlink:href="#resetDef" x="30" y="36" onmousedown="handleReset()"/>
   <use id="arrowup" xlink:href="#arrowUp" x="0" y="0" onmousedown="handlePan(0,-1)"/>
  <use id="arrowright" xlink:href="#arrowRight" x="0" y="0" onmousedown="handlePan(1,0)"/>
  <use id="arrowdown" xlink:href="#arrowDown" x="0" y="0" onmousedown="handlePan(0,1)"/>
  <use id="arrowleft" xlink:href="#arrowLeft" x="0" y="0" onmousedown="handlePan(-1,0)"/>
</g>
<svg viewBox="0 0 15 15" width="100%" height="30px" preserveAspectRatio="xMaxYMin meet">
 <g id="arrow_out" transform="scale(0.3 0.3)">
  <a xlink:href="kest__ui_8h_ac03024eff746f181b01136d6bfe4c7d5_icgraph_org.svg" target="_base">
   <rect id="button" ry="5" rx="5" y="6" x="6" height="38" width="38"
        fill="#f2f5e9" fill-opacity="0.5" stroke="#606060" stroke-width="1.0"/>
   <path id="arrow"
     d="M 11.500037,31.436501 C 11.940474,20.09759 22.043105,11.32322 32.158766,21.979434 L 37.068811,17.246167 C 37.068811,17.246167 37.088388,32 37.088388,32 L 22.160133,31.978069 C 22.160133,31.978069 26.997745,27.140456 26.997745,27.140456 C 18.528582,18.264221 13.291696,25.230495 11.500037,31.436501 z"
     style="fill:#404040;"/>
  </a>
 </g>
</svg>

<style type='text/css'>
<![CDATA[
[data-mouse-over-selected='false'] { opacity: 0.7; }
[data-mouse-over-selected='true']  { opacity: 1.0; }
]]>
</style>
<script type="application/ecmascript"><![CDATA[
document.addEventListener('DOMContentLoaded', (event) => {
  highlightEdges();
  highlightAdjacentNodes();
});
]]></script>
</svg>
