<?xml version="1.0" encoding="UTF-8" standalone="no"?>
<!DOCTYPE svg PUBLIC "-//W3C//DTD SVG 1.1//EN"
 "http://www.w3.org/Graphics/SVG/1.1/DTD/svg11.dtd">
<!-- Generated by graphviz version 13.1.2 (20250808.2320)
 -->
<!-- Title: seq_view_clicked_cb Pages: 1 -->
<svg width="798pt" height="119pt"
 viewBox="0.00 0.00 798.00 119.00" xmlns="http://www.w3.org/2000/svg" xmlns:xlink="http://www.w3.org/1999/xlink">
<g id="graph0" class="graph" transform="scale(1 1) rotate(0) translate(4 114.75)">
<title>seq_view_clicked_cb</title>
<!-- Node1 -->
<g id="Node000001" class="node">
<title>Node1</title>
<g id="a_Node000001"><a xlink:title=" ">
<polygon fill="#999999" stroke="#666666" points="789.5,-46.75 672.25,-46.75 672.25,-26 789.5,-26 789.5,-46.75"/>
<text xml:space="preserve" text-anchor="middle" x="730.88" y="-33.25" font-family="Helvetica,sans-Serif" font-size="10.00">seq_view_clicked_cb</text>
</a>
</g>
</g>
<!-- Node2 -->
<g id="Node000002" class="node">
<title>Node2</title>
<g id="a_Node000002"><a xlink:href="kest__sequence__view_8c.html#ac871b24a7c875a7b6e707a3d2691a2a9" target="_top" xlink:title=" ">
<polygon fill="white" stroke="#666666" points="636.25,-65.75 494.25,-65.75 494.25,-45 636.25,-45 636.25,-65.75"/>
<text xml:space="preserve" text-anchor="middle" x="565.25" y="-52.25" font-family="Helvetica,sans-Serif" font-size="10.00">configure_sequence_view</text>
</a>
</g>
</g>
<!-- Node1&#45;&gt;Node2 -->
<g id="edge1_Node000001_Node000002" class="edge">
<title>Node1&#45;&gt;Node2</title>
<g id="a_edge1_Node000001_Node000002"><a xlink:title=" ">
<path fill="none" stroke="#63b8ff" d="M660.95,-44.38C652.9,-45.31 644.68,-46.27 636.61,-47.2"/>
<polygon fill="#63b8ff" stroke="#63b8ff" points="661.15,-47.88 670.68,-43.25 660.35,-40.93 661.15,-47.88"/>
</a>
</g>
</g>
<!-- Node17 -->
<g id="Node000017" class="node">
<title>Node17</title>
<g id="a_Node000017"><a xlink:href="kest__sequence__view_8c.html#aca115eba822b7486dc289cc9150562a7" target="_top" xlink:title=" ">
<polygon fill="white" stroke="#666666" points="458.25,-27.75 346.25,-27.75 346.25,-7 458.25,-7 458.25,-27.75"/>
<text xml:space="preserve" text-anchor="middle" x="402.25" y="-14.25" font-family="Helvetica,sans-Serif" font-size="10.00">init_sequence_view</text>
</a>
</g>
</g>
<!-- Node1&#45;&gt;Node17 -->
<g id="edge9_Node000001_Node000017" class="edge">
<title>Node1&#45;&gt;Node17</title>
<g id="a_edge9_Node000001_Node000017"><a xlink:title=" ">
<path fill="none" stroke="#63b8ff" d="M660.55,-32.34C600.32,-28.84 514.24,-23.83 458.55,-20.59"/>
<polygon fill="#63b8ff" stroke="#63b8ff" points="660.16,-35.83 670.35,-32.91 660.57,-28.84 660.16,-35.83"/>
</a>
</g>
</g>
<!-- Node3 -->
<g id="Node000003" class="node">
<title>Node3</title>
<g id="a_Node000003"><a xlink:href="kest__sequence__view_8c.html#a6dd883651c2a7ff92c5ad28755953e91" target="_top" xlink:title=" ">
<polygon fill="white" stroke="#666666" points="310.25,-65.75 164.5,-65.75 164.5,-45 310.25,-45 310.25,-65.75"/>
<text xml:space="preserve" text-anchor="middle" x="237.38" y="-52.25" font-family="Helvetica,sans-Serif" font-size="10.00">create_sequence_view_for</text>
</a>
</g>
</g>
<!-- Node2&#45;&gt;Node3 -->
<g id="edge2_Node000002_Node000003" class="edge">
<title>Node2&#45;&gt;Node3</title>
<g id="a_edge2_Node000002_Node000003"><a xlink:title=" ">
<path fill="none" stroke="#63b8ff" d="M482.56,-55.38C429.67,-55.38 361.42,-55.38 310.53,-55.38"/>
<polygon fill="#63b8ff" stroke="#63b8ff" points="482.43,-58.88 492.43,-55.38 482.43,-51.88 482.43,-58.88"/>
</a>
</g>
</g>
<!-- Node2&#45;&gt;Node17 -->
<g id="edge6_Node000002_Node000017" class="edge">
<title>Node2&#45;&gt;Node17</title>
<g id="a_edge6_Node000002_Node000017"><a xlink:title=" ">
<path fill="none" stroke="#63b8ff" d="M507.54,-41.99C488.39,-37.47 467.27,-32.48 449.07,-28.19"/>
<polygon fill="#63b8ff" stroke="#63b8ff" points="506.53,-45.35 517.07,-44.24 508.14,-38.54 506.53,-45.35"/>
</a>
</g>
</g>
<!-- Node4 -->
<g id="Node000004" class="node">
<title>Node4</title>
<g id="a_Node000004"><a xlink:href="kest__files_8c.html#a2b0f0df900e064b3a42198050e150084" target="_top" xlink:title=" ">
<polygon fill="#fff0f0" stroke="red" points="128.5,-110.75 0,-110.75 0,-90 128.5,-90 128.5,-110.75"/>
<text xml:space="preserve" text-anchor="middle" x="64.25" y="-97.25" font-family="Helvetica,sans-Serif" font-size="10.00">load_saved_sequences</text>
</a>
</g>
</g>
<!-- Node3&#45;&gt;Node4 -->
<g id="edge3_Node000003_Node000004" class="edge">
<title>Node3&#45;&gt;Node4</title>
<g id="a_edge3_Node000003_Node000004"><a xlink:title=" ">
<path fill="none" stroke="#63b8ff" d="M184.28,-69.07C159.32,-75.64 129.87,-83.38 106.5,-89.53"/>
<polygon fill="#63b8ff" stroke="#63b8ff" points="185.14,-72.47 193.92,-66.54 183.36,-65.7 185.14,-72.47"/>
</a>
</g>
</g>
<!-- Node8 -->
<g id="Node000008" class="node">
<title>Node8</title>
<g id="a_Node000008"><a xlink:href="kest__sequence__list_8c.html#a0788bbcb1aa9c85a904e084c2abd48ad" target="_top" xlink:title=" ">
<polygon fill="#fff0f0" stroke="red" points="125.88,-72.12 2.62,-72.12 2.62,-38.62 125.88,-38.62 125.88,-72.12"/>
<text xml:space="preserve" text-anchor="start" x="10.62" y="-58.62" font-family="Helvetica,sans-Serif" font-size="10.00">menu_item_sequence</text>
<text xml:space="preserve" text-anchor="middle" x="64.25" y="-45.88" font-family="Helvetica,sans-Serif" font-size="10.00">_listing_released_cb</text>
</a>
</g>
</g>
<!-- Node3&#45;&gt;Node8 -->
<g id="edge4_Node000003_Node000008" class="edge">
<title>Node3&#45;&gt;Node8</title>
<g id="a_edge4_Node000003_Node000008"><a xlink:title=" ">
<path fill="none" stroke="#63b8ff" d="M152.91,-55.38C143.89,-55.38 134.83,-55.38 126.15,-55.38"/>
<polygon fill="#63b8ff" stroke="#63b8ff" points="152.79,-58.88 162.79,-55.38 152.78,-51.88 152.79,-58.88"/>
</a>
</g>
</g>
<!-- Node14 -->
<g id="Node000014" class="node">
<title>Node14</title>
<g id="a_Node000014"><a xlink:href="kest__sequence__list_8c.html#ac9d222d7405758d9f4edfeabe4c6200e" target="_top" xlink:title=" ">
<polygon fill="#fff0f0" stroke="red" points="125.5,-20.75 3,-20.75 3,0 125.5,0 125.5,-20.75"/>
<text xml:space="preserve" text-anchor="middle" x="64.25" y="-7.25" font-family="Helvetica,sans-Serif" font-size="10.00">sequence_list_add_cb</text>
</a>
</g>
</g>
<!-- Node3&#45;&gt;Node14 -->
<g id="edge5_Node000003_Node000014" class="edge">
<title>Node3&#45;&gt;Node14</title>
<g id="a_edge5_Node000003_Node000014"><a xlink:title=" ">
<path fill="none" stroke="#63b8ff" d="M184.28,-41.68C159.32,-35.11 129.87,-27.37 106.5,-21.22"/>
<polygon fill="#63b8ff" stroke="#63b8ff" points="183.36,-45.05 193.92,-44.21 185.14,-38.28 183.36,-45.05"/>
</a>
</g>
</g>
<!-- Node17&#45;&gt;Node3 -->
<g id="edge7_Node000017_Node000003" class="edge">
<title>Node17&#45;&gt;Node3</title>
<g id="a_edge7_Node000017_Node000003"><a xlink:title=" ">
<path fill="none" stroke="#63b8ff" d="M343.87,-30.76C324.5,-35.28 303.14,-40.27 284.73,-44.56"/>
<polygon fill="#63b8ff" stroke="#63b8ff" points="344.6,-34.19 353.54,-28.51 343,-27.37 344.6,-34.19"/>
</a>
</g>
</g>
<!-- Node13 -->
<g id="Node000013" class="node">
<title>Node13</title>
<g id="a_Node000013"><a xlink:href="kest__ui_8c.html#ab1be7d2981c922ebe8d714f9af0f600d" target="_top" xlink:title=" ">
<polygon fill="#fff0f0" stroke="red" points="300.88,-26.75 173.88,-26.75 173.88,-6 300.88,-6 300.88,-26.75"/>
<text xml:space="preserve" text-anchor="middle" x="237.38" y="-13.25" font-family="Helvetica,sans-Serif" font-size="10.00">kest_init_global_pages</text>
</a>
</g>
</g>
<!-- Node17&#45;&gt;Node13 -->
<g id="edge8_Node000017_Node000013" class="edge">
<title>Node17&#45;&gt;Node13</title>
<g id="a_edge8_Node000017_Node000013"><a xlink:title=" ">
<path fill="none" stroke="#63b8ff" d="M334.76,-16.97C323.71,-16.9 312.28,-16.83 301.32,-16.76"/>
<polygon fill="#63b8ff" stroke="#63b8ff" points="334.57,-20.47 344.59,-17.03 334.62,-13.47 334.57,-20.47"/>
</a>
</g>
</g>
</g>
</svg>
