<?xml version="1.0" encoding="UTF-8" standalone="no"?>
<!DOCTYPE svg PUBLIC "-//W3C//DTD SVG 1.1//EN"
 "http://www.w3.org/Graphics/SVG/1.1/DTD/svg11.dtd">
<!-- Generated by graphviz version 13.1.2 (20250808.2320)
 -->
<!-- Title: kest_active_button_trigger_del_button_fade_out Pages: 1 -->
<svg width="469pt" height="132pt"
 viewBox="0.00 0.00 469.00 132.00" xmlns="http://www.w3.org/2000/svg" xmlns:xlink="http://www.w3.org/1999/xlink">
<g id="graph0" class="graph" transform="scale(1 1) rotate(0) translate(4 128.12)">
<title>kest_active_button_trigger_del_button_fade_out</title>
<!-- Node1 -->
<g id="Node000001" class="node">
<title>Node1</title>
<g id="a_Node000001"><a xlink:title=" ">
<polygon fill="#999999" stroke="#666666" points="110.5,-78.5 0,-78.5 0,-32.25 110.5,-32.25 110.5,-78.5"/>
<text xml:space="preserve" text-anchor="start" x="8" y="-65" font-family="Helvetica,sans-Serif" font-size="10.00">kest_active_button</text>
<text xml:space="preserve" text-anchor="start" x="8" y="-52.25" font-family="Helvetica,sans-Serif" font-size="10.00">_trigger_del_button</text>
<text xml:space="preserve" text-anchor="middle" x="55.25" y="-39.5" font-family="Helvetica,sans-Serif" font-size="10.00">_fade_out</text>
</a>
</g>
</g>
<!-- Node2 -->
<g id="Node000002" class="node">
<title>Node2</title>
<g id="a_Node000002"><a xlink:href="kest__button_8c.html#acef3a5e0199ca168471154fc981f4931" target="_top" xlink:title=" ">
<polygon fill="white" stroke="#666666" points="276.5,-124.12 160,-124.12 160,-90.62 276.5,-90.62 276.5,-124.12"/>
<text xml:space="preserve" text-anchor="start" x="168" y="-110.62" font-family="Helvetica,sans-Serif" font-size="10.00">kest_active_button</text>
<text xml:space="preserve" text-anchor="middle" x="218.25" y="-97.88" font-family="Helvetica,sans-Serif" font-size="10.00">_del_button_fade_cb</text>
</a>
</g>
</g>
<!-- Node1&#45;&gt;Node2 -->
<g id="edge1_Node000001_Node000002" class="edge">
<title>Node1&#45;&gt;Node2</title>
<g id="a_edge1_Node000001_Node000002"><a xlink:title=" ">
<path fill="none" stroke="#63b8ff" d="M110.76,-72.98C124.42,-77.39 139.21,-82.17 153.29,-86.72"/>
<polygon fill="#63b8ff" stroke="#63b8ff" points="151.86,-89.93 162.45,-89.68 154.01,-83.27 151.86,-89.93"/>
</a>
</g>
</g>
<!-- Node4 -->
<g id="Node000004" class="node">
<title>Node4</title>
<g id="a_Node000004"><a xlink:href="kest__button_8c.html#aa7f216d53ef827ad4e53ac5253310976" target="_top" xlink:title=" ">
<polygon fill="white" stroke="#666666" points="290,-72.12 146.5,-72.12 146.5,-38.62 290,-38.62 290,-72.12"/>
<text xml:space="preserve" text-anchor="start" x="154.5" y="-58.62" font-family="Helvetica,sans-Serif" font-size="10.00">kest_active_button</text>
<text xml:space="preserve" text-anchor="middle" x="218.25" y="-45.88" font-family="Helvetica,sans-Serif" font-size="10.00">_del_button_faded_out_cb</text>
</a>
</g>
</g>
<!-- Node1&#45;&gt;Node4 -->
<g id="edge3_Node000001_Node000004" class="edge">
<title>Node1&#45;&gt;Node4</title>
<g id="a_edge3_Node000001_Node000004"><a xlink:title=" ">
<path fill="none" stroke="#63b8ff" d="M110.76,-55.38C118.51,-55.38 126.62,-55.38 134.76,-55.38"/>
<polygon fill="#63b8ff" stroke="#63b8ff" points="134.73,-58.88 144.73,-55.38 134.73,-51.88 134.73,-58.88"/>
</a>
</g>
</g>
<!-- Node6 -->
<g id="Node000006" class="node">
<title>Node6</title>
<g id="a_Node000006"><a xlink:href="kest__button_8c.html#ad55b50e8c238c6de40dd73aab058274a" target="_top" xlink:title=" ">
<polygon fill="white" stroke="#666666" points="273.88,-20.75 162.62,-20.75 162.62,0 273.88,0 273.88,-20.75"/>
<text xml:space="preserve" text-anchor="middle" x="218.25" y="-7.25" font-family="Helvetica,sans-Serif" font-size="10.00">kest_button_unhide</text>
</a>
</g>
</g>
<!-- Node1&#45;&gt;Node6 -->
<g id="edge5_Node000001_Node000006" class="edge">
<title>Node1&#45;&gt;Node6</title>
<g id="a_edge5_Node000001_Node000006"><a xlink:title=" ">
<path fill="none" stroke="#63b8ff" d="M110.61,-39.54C122.43,-36.15 134.88,-32.61 146.5,-29.38 152.7,-27.65 159.22,-25.86 165.68,-24.11"/>
<polygon fill="#63b8ff" stroke="#63b8ff" points="166.23,-27.58 174.97,-21.6 164.41,-20.83 166.23,-27.58"/>
</a>
</g>
</g>
<!-- Node3 -->
<g id="Node000003" class="node">
<title>Node3</title>
<g id="a_Node000003"><a xlink:href="kest__button_8c.html#a2835584385bb5d418a3ca596aa0ef5b1" target="_top" xlink:title=" ">
<polygon fill="white" stroke="#666666" points="460.5,-117.75 326,-117.75 326,-97 460.5,-97 460.5,-117.75"/>
<text xml:space="preserve" text-anchor="middle" x="393.25" y="-104.25" font-family="Helvetica,sans-Serif" font-size="10.00">kest_button_set_opacity</text>
</a>
</g>
</g>
<!-- Node2&#45;&gt;Node3 -->
<g id="edge2_Node000002_Node000003" class="edge">
<title>Node2&#45;&gt;Node3</title>
<g id="a_edge2_Node000002_Node000003"><a xlink:title=" ">
<path fill="none" stroke="#63b8ff" d="M276.86,-107.38C288.82,-107.38 301.62,-107.38 314.18,-107.38"/>
<polygon fill="#63b8ff" stroke="#63b8ff" points="314.1,-110.88 324.1,-107.38 314.1,-103.88 314.1,-110.88"/>
</a>
</g>
</g>
<!-- Node5 -->
<g id="Node000005" class="node">
<title>Node5</title>
<g id="a_Node000005"><a xlink:href="kest__button_8c.html#a247699a53218b0986f4149b42ecd3ae4" target="_top" xlink:title=" ">
<polygon fill="white" stroke="#666666" points="442.88,-65.75 343.62,-65.75 343.62,-45 442.88,-45 442.88,-65.75"/>
<text xml:space="preserve" text-anchor="middle" x="393.25" y="-52.25" font-family="Helvetica,sans-Serif" font-size="10.00">kest_button_hide</text>
</a>
</g>
</g>
<!-- Node4&#45;&gt;Node5 -->
<g id="edge4_Node000004_Node000005" class="edge">
<title>Node4&#45;&gt;Node5</title>
<g id="a_edge4_Node000004_Node000005"><a xlink:title=" ">
<path fill="none" stroke="#63b8ff" d="M290.11,-55.38C304.04,-55.38 318.52,-55.38 332.06,-55.38"/>
<polygon fill="#63b8ff" stroke="#63b8ff" points="331.65,-58.88 341.65,-55.38 331.65,-51.88 331.65,-58.88"/>
</a>
</g>
</g>
</g>
</svg>
