<?xml version="1.0" encoding="UTF-8" standalone="no"?>
<!DOCTYPE svg PUBLIC "-//W3C//DTD SVG 1.1//EN"
 "http://www.w3.org/Graphics/SVG/1.1/DTD/svg11.dtd">
<!-- Generated by graphviz version 13.1.2 (20250808.2320)
 -->
<!-- Title: kest_dictionary_add_entry_int Pages: 1 -->
<svg width="587pt" height="94pt"
 viewBox="0.00 0.00 587.00 94.00" xmlns="http://www.w3.org/2000/svg" xmlns:xlink="http://www.w3.org/1999/xlink">
<g id="graph0" class="graph" transform="scale(1 1) rotate(0) translate(4 89.5)">
<title>kest_dictionary_add_entry_int</title>
<!-- Node1 -->
<g id="Node000001" class="node">
<title>Node1</title>
<g id="a_Node000001"><a xlink:title=" ">
<polygon fill="#999999" stroke="#666666" points="113.5,-58.5 0,-58.5 0,-25 113.5,-25 113.5,-58.5"/>
<text xml:space="preserve" text-anchor="start" x="8" y="-45" font-family="Helvetica,sans-Serif" font-size="10.00">kest_dictionary_add</text>
<text xml:space="preserve" text-anchor="middle" x="56.75" y="-32.25" font-family="Helvetica,sans-Serif" font-size="10.00">_entry_int</text>
</a>
</g>
</g>
<!-- Node2 -->
<g id="Node000002" class="node">
<title>Node2</title>
<g id="a_Node000002"><a xlink:href="kest__dictionary_8c.html#a23ddb4ebb9a94e0cf954530b444a4963" target="_top" xlink:title=" ">
<polygon fill="white" stroke="#666666" points="277.25,-83.5 149.5,-83.5 149.5,-50 277.25,-50 277.25,-83.5"/>
<text xml:space="preserve" text-anchor="start" x="157.5" y="-70" font-family="Helvetica,sans-Serif" font-size="10.00">kest_dictionary_bucket</text>
<text xml:space="preserve" text-anchor="middle" x="213.38" y="-57.25" font-family="Helvetica,sans-Serif" font-size="10.00">_add_entry_int</text>
</a>
</g>
</g>
<!-- Node1&#45;&gt;Node2 -->
<g id="edge1_Node000001_Node000002" class="edge">
<title>Node1&#45;&gt;Node2</title>
<g id="a_edge1_Node000001_Node000002"><a xlink:title=" ">
<path fill="none" stroke="#63b8ff" d="M113.57,-50.78C121.48,-52.05 129.72,-53.39 137.91,-54.71"/>
<polygon fill="#63b8ff" stroke="#63b8ff" points="137.1,-58.12 147.53,-56.27 138.22,-51.21 137.1,-58.12"/>
</a>
</g>
</g>
<!-- Node6 -->
<g id="Node000006" class="node">
<title>Node6</title>
<g id="a_Node000006"><a xlink:href="kest__dictionary_8c.html#ab04009ad2902fc35ca82579760556eb5" target="_top" xlink:title=" ">
<polygon fill="white" stroke="#666666" points="441.75,-33.5 313.25,-33.5 313.25,0 441.75,0 441.75,-33.5"/>
<text xml:space="preserve" text-anchor="start" x="321.25" y="-20" font-family="Helvetica,sans-Serif" font-size="10.00">kest_dictionary_ensure</text>
<text xml:space="preserve" text-anchor="middle" x="377.5" y="-7.25" font-family="Helvetica,sans-Serif" font-size="10.00">_capacity</text>
</a>
</g>
</g>
<!-- Node1&#45;&gt;Node6 -->
<g id="edge4_Node000001_Node000006" class="edge">
<title>Node1&#45;&gt;Node6</title>
<g id="a_edge4_Node000001_Node000006"><a xlink:title=" ">
<path fill="none" stroke="#63b8ff" d="M113.64,-37.37C165.86,-33.27 244.21,-27.13 301.78,-22.61"/>
<polygon fill="#63b8ff" stroke="#63b8ff" points="301.8,-26.12 311.5,-21.85 301.26,-19.14 301.8,-26.12"/>
</a>
</g>
</g>
<!-- Node3 -->
<g id="Node000003" class="node">
<title>Node3</title>
<g id="a_Node000003"><a xlink:href="kest__dictionary_8c.html#acd9014ad851b1e82c27acf4d4b4bd13e" target="_top" xlink:title=" ">
<polygon fill="white" stroke="#666666" points="441.38,-85.5 313.62,-85.5 313.62,-52 441.38,-52 441.38,-85.5"/>
<text xml:space="preserve" text-anchor="start" x="321.62" y="-72" font-family="Helvetica,sans-Serif" font-size="10.00">kest_dictionary_bucket</text>
<text xml:space="preserve" text-anchor="middle" x="377.5" y="-59.25" font-family="Helvetica,sans-Serif" font-size="10.00">_ensure_capacity</text>
</a>
</g>
</g>
<!-- Node2&#45;&gt;Node3 -->
<g id="edge2_Node000002_Node000003" class="edge">
<title>Node2&#45;&gt;Node3</title>
<g id="a_edge2_Node000002_Node000003"><a xlink:title=" ">
<path fill="none" stroke="#63b8ff" d="M277.52,-67.53C285.5,-67.63 293.72,-67.73 301.85,-67.83"/>
<polygon fill="#63b8ff" stroke="#63b8ff" points="301.7,-71.33 311.75,-67.95 301.79,-64.33 301.7,-71.33"/>
</a>
</g>
</g>
<!-- Node4 -->
<g id="Node000004" class="node">
<title>Node4</title>
<g id="a_Node000004"><a xlink:href="kest__eff__parser_8c.html#ae0a87c76dcbf2248bb57755c7e76c08d" target="_top" xlink:title=" ">
<polygon fill="#fff0f0" stroke="red" points="578.5,-53.12 477.75,-53.12 477.75,-32.38 578.5,-32.38 578.5,-53.12"/>
<text xml:space="preserve" text-anchor="middle" x="528.12" y="-39.62" font-family="Helvetica,sans-Serif" font-size="10.00">kest_parser_alloc</text>
</a>
</g>
</g>
<!-- Node3&#45;&gt;Node4 -->
<g id="edge3_Node000003_Node000004" class="edge">
<title>Node3&#45;&gt;Node4</title>
<g id="a_edge3_Node000003_Node000004"><a xlink:title=" ">
<path fill="none" stroke="#63b8ff" d="M441.53,-57.72C449.7,-56.29 458.06,-54.83 466.2,-53.41"/>
<polygon fill="#63b8ff" stroke="#63b8ff" points="466.78,-56.86 476.03,-51.69 465.57,-49.96 466.78,-56.86"/>
</a>
</g>
</g>
<!-- Node6&#45;&gt;Node4 -->
<g id="edge5_Node000006_Node000004" class="edge">
<title>Node6&#45;&gt;Node4</title>
<g id="a_edge5_Node000006_Node000004"><a xlink:title=" ">
<path fill="none" stroke="#63b8ff" d="M441.96,-27.85C450.01,-29.26 458.22,-30.7 466.23,-32.1"/>
<polygon fill="#63b8ff" stroke="#63b8ff" points="465.41,-35.51 475.86,-33.78 466.62,-28.61 465.41,-35.51"/>
</a>
</g>
</g>
</g>
</svg>
