<?xml version="1.0" encoding="UTF-8" standalone="no"?>
<!DOCTYPE svg PUBLIC "-//W3C//DTD SVG 1.1//EN"
 "http://www.w3.org/Graphics/SVG/1.1/DTD/svg11.dtd">
<!-- Generated by graphviz version 13.1.2 (20250808.2320)
 -->
<!-- Title: kest_sequence_add_representation Pages: 1 -->
<!--zoomable 119 -->

<svg id="main" version="1.1" xmlns="http://www.w3.org/2000/svg" xmlns:xlink="http://www.w3.org/1999/xlink" xml:space="preserve" onload="init(evt)">

<style type="text/css"><![CDATA[
.node, .edge {opacity: 0.7;}
.node.selected, .edge.selected {opacity: 1;}
.edge:hover path { stroke: red; }
.edge:hover polygon { stroke: red; fill: red; }
]]></style>

<defs>
  <circle id="rim" cx="0" cy="0" r="7"/>
  <circle id="rim2" cx="0" cy="0" r="3.5"/>
  <g id="zoomPlus">
    <use xlink:href="#rim" fill="#404040"><set attributeName="fill" to="#808080" begin="zoomplus.mouseover" end="zoomplus.mouseout"/></use>
    <path d="M-4,0h8M0,-4v8" fill="none" stroke="white" stroke-width="1.5" pointer-events="none"/>
  </g>
  <g id="zoomMin">
    <use xlink:href="#rim" fill="#404040"><set attributeName="fill" to="#808080" begin="zoomminus.mouseover" end="zoomminus.mouseout"/></use>
    <path d="M-4,0h8" fill="none" stroke="white" stroke-width="1.5" pointer-events="none"/>
  </g>
  <g id="arrowUp" transform="translate(30 24)">
    <use xlink:href="#rim"/>
    <path pointer-events="none" fill="none" stroke="white" stroke-width="1.5" d="M0,-3.0v7 M-2.5,-0.5L0,-3.0L2.5,-0.5"/>
  </g>
  <g id="arrowRight" transform="rotate(90) translate(36 -43)">
    <use xlink:href="#rim"/>
    <path pointer-events="none" fill="none" stroke="white" stroke-width="1.5" d="M0,-3.0v7 M-2.5,-0.5L0,-3.0L2.5,-0.5"/>
  </g>
  <g id="arrowDown" transform="rotate(180) translate(-30 -48)">
    <use xlink:href="#rim"/>
    <path pointer-events="none" fill="none" stroke="white" stroke-width="1.5" d="M0,-3.0v7 M-2.5,-0.5L0,-3.0L2.5,-0.5"/>
  </g>
  <g id="arrowLeft" transform="rotate(270) translate(-36 17)">
    <use xlink:href="#rim"/>
    <path pointer-events="none" fill="none" stroke="white" stroke-width="1.5" d="M0,-3.0v7 M-2.5,-0.5L0,-3.0L2.5,-0.5"/>
  </g>
  <g id="resetDef">
    <use xlink:href="#rim2" fill="#404040"><set attributeName="fill" to="#808080" begin="reset.mouseover" end="reset.mouseout"/></use>
  </g>
</defs>
<script type="application/ecmascript">
var viewWidth = 868;
var viewHeight = 119;
var sectionId = 'dynsection-7';
</script>
<script type="application/ecmascript" xlink:href="svg.min.js"/>
<svg id="graph" class="graph">
<g id="viewport">
<title>kest_sequence_add_representation</title>
<!-- Node1 -->
<g id="Node000001" class="node">
<title>Node1</title>
<g id="a_Node000001"><a xlink:title=" ">
<polygon fill="#999999" stroke="#666666" points="860,-46.75 672.25,-46.75 672.25,-26 860,-26 860,-46.75"/>
<text xml:space="preserve" text-anchor="middle" x="766.12" y="-33.25" font-family="Helvetica,sans-Serif" font-size="10.00">kest_sequence_add_representation</text>
</a>
</g>
</g>
<!-- Node2 -->
<g id="Node000002" class="node">
<title>Node2</title>
<g id="a_Node000002"><a xlink:href="kest__sequence__view_8c.html#ac871b24a7c875a7b6e707a3d2691a2a9" target="_top" xlink:title=" ">
<polygon fill="white" stroke="#666666" points="636.25,-46.75 494.25,-46.75 494.25,-26 636.25,-26 636.25,-46.75"/>
<text xml:space="preserve" text-anchor="middle" x="565.25" y="-33.25" font-family="Helvetica,sans-Serif" font-size="10.00">configure_sequence_view</text>
</a>
</g>
</g>
<!-- Node1&#45;&gt;Node2 -->
<g id="edge1_Node000001_Node000002" class="edge">
<title>Node1&#45;&gt;Node2</title>
<g id="a_edge1_Node000001_Node000002"><a xlink:title=" ">
<path fill="none" stroke="#63b8ff" d="M660.44,-36.38C652.41,-36.38 644.43,-36.38 636.7,-36.38"/>
<polygon fill="#63b8ff" stroke="#63b8ff" points="660.29,-39.88 670.29,-36.38 660.29,-32.88 660.29,-39.88"/>
</a>
</g>
</g>
<!-- Node3 -->
<g id="Node000003" class="node">
<title>Node3</title>
<g id="a_Node000003"><a xlink:href="kest__sequence__view_8c.html#a6dd883651c2a7ff92c5ad28755953e91" target="_top" xlink:title=" ">
<polygon fill="white" stroke="#666666" points="310.25,-65.75 164.5,-65.75 164.5,-45 310.25,-45 310.25,-65.75"/>
<text xml:space="preserve" text-anchor="middle" x="237.38" y="-52.25" font-family="Helvetica,sans-Serif" font-size="10.00">create_sequence_view_for</text>
</a>
</g>
</g>
<!-- Node2&#45;&gt;Node3 -->
<g id="edge2_Node000002_Node000003" class="edge">
<title>Node2&#45;&gt;Node3</title>
<g id="a_edge2_Node000002_Node000003"><a xlink:title=" ">
<path fill="none" stroke="#63b8ff" d="M482.56,-41.14C429.67,-44.22 361.42,-48.2 310.53,-51.17"/>
<polygon fill="#63b8ff" stroke="#63b8ff" points="482.65,-44.64 492.43,-40.56 482.24,-37.65 482.65,-44.64"/>
</a>
</g>
</g>
<!-- Node17 -->
<g id="Node000017" class="node">
<title>Node17</title>
<g id="a_Node000017"><a xlink:href="kest__sequence__view_8c.html#aca115eba822b7486dc289cc9150562a7" target="_top" xlink:title=" ">
<polygon fill="white" stroke="#666666" points="458.25,-27.75 346.25,-27.75 346.25,-7 458.25,-7 458.25,-27.75"/>
<text xml:space="preserve" text-anchor="middle" x="402.25" y="-14.25" font-family="Helvetica,sans-Serif" font-size="10.00">init_sequence_view</text>
</a>
</g>
</g>
<!-- Node2&#45;&gt;Node17 -->
<g id="edge6_Node000002_Node000017" class="edge">
<title>Node2&#45;&gt;Node17</title>
<g id="a_edge6_Node000002_Node000017"><a xlink:title=" ">
<path fill="none" stroke="#63b8ff" d="M482.92,-26.78C474.71,-25.81 466.5,-24.84 458.65,-23.91"/>
<polygon fill="#63b8ff" stroke="#63b8ff" points="482.26,-30.22 492.6,-27.92 483.08,-23.27 482.26,-30.22"/>
</a>
</g>
</g>
<!-- Node4 -->
<g id="Node000004" class="node">
<title>Node4</title>
<g id="a_Node000004"><a xlink:href="kest__files_8c.html#a2b0f0df900e064b3a42198050e150084" target="_top" xlink:title=" ">
<polygon fill="#fff0f0" stroke="red" points="128.5,-110.75 0,-110.75 0,-90 128.5,-90 128.5,-110.75"/>
<text xml:space="preserve" text-anchor="middle" x="64.25" y="-97.25" font-family="Helvetica,sans-Serif" font-size="10.00">load_saved_sequences</text>
</a>
</g>
</g>
<!-- Node3&#45;&gt;Node4 -->
<g id="edge3_Node000003_Node000004" class="edge">
<title>Node3&#45;&gt;Node4</title>
<g id="a_edge3_Node000003_Node000004"><a xlink:title=" ">
<path fill="none" stroke="#63b8ff" d="M184.28,-69.07C159.32,-75.64 129.87,-83.38 106.5,-89.53"/>
<polygon fill="#63b8ff" stroke="#63b8ff" points="185.14,-72.47 193.92,-66.54 183.36,-65.7 185.14,-72.47"/>
</a>
</g>
</g>
<!-- Node8 -->
<g id="Node000008" class="node">
<title>Node8</title>
<g id="a_Node000008"><a xlink:href="kest__sequence__list_8c.html#a0788bbcb1aa9c85a904e084c2abd48ad" target="_top" xlink:title=" ">
<polygon fill="#fff0f0" stroke="red" points="125.88,-72.12 2.62,-72.12 2.62,-38.62 125.88,-38.62 125.88,-72.12"/>
<text xml:space="preserve" text-anchor="start" x="10.62" y="-58.62" font-family="Helvetica,sans-Serif" font-size="10.00">menu_item_sequence</text>
<text xml:space="preserve" text-anchor="middle" x="64.25" y="-45.88" font-family="Helvetica,sans-Serif" font-size="10.00">_listing_released_cb</text>
</a>
</g>
</g>
<!-- Node3&#45;&gt;Node8 -->
<g id="edge4_Node000003_Node000008" class="edge">
<title>Node3&#45;&gt;Node8</title>
<g id="a_edge4_Node000003_Node000008"><a xlink:title=" ">
<path fill="none" stroke="#63b8ff" d="M152.91,-55.38C143.89,-55.38 134.83,-55.38 126.15,-55.38"/>
<polygon fill="#63b8ff" stroke="#63b8ff" points="152.79,-58.88 162.79,-55.38 152.78,-51.88 152.79,-58.88"/>
</a>
</g>
</g>
<!-- Node14 -->
<g id="Node000014" class="node">
<title>Node14</title>
<g id="a_Node000014"><a xlink:href="kest__sequence__list_8c.html#ac9d222d7405758d9f4edfeabe4c6200e" target="_top" xlink:title=" ">
<polygon fill="#fff0f0" stroke="red" points="125.5,-20.75 3,-20.75 3,0 125.5,0 125.5,-20.75"/>
<text xml:space="preserve" text-anchor="middle" x="64.25" y="-7.25" font-family="Helvetica,sans-Serif" font-size="10.00">sequence_list_add_cb</text>
</a>
</g>
</g>
<!-- Node3&#45;&gt;Node14 -->
<g id="edge5_Node000003_Node000014" class="edge">
<title>Node3&#45;&gt;Node14</title>
<g id="a_edge5_Node000003_Node000014"><a xlink:title=" ">
<path fill="none" stroke="#63b8ff" d="M184.28,-41.68C159.32,-35.11 129.87,-27.37 106.5,-21.22"/>
<polygon fill="#63b8ff" stroke="#63b8ff" points="183.36,-45.05 193.92,-44.21 185.14,-38.28 183.36,-45.05"/>
</a>
</g>
</g>
<!-- Node17&#45;&gt;Node3 -->
<g id="edge7_Node000017_Node000003" class="edge">
<title>Node17&#45;&gt;Node3</title>
<g id="a_edge7_Node000017_Node000003"><a xlink:title=" ">
<path fill="none" stroke="#63b8ff" d="M343.87,-30.76C324.5,-35.28 303.14,-40.27 284.73,-44.56"/>
<polygon fill="#63b8ff" stroke="#63b8ff" points="344.6,-34.19 353.54,-28.51 343,-27.37 344.6,-34.19"/>
</a>
</g>
</g>
<!-- Node13 -->
<g id="Node000013" class="node">
<title>Node13</title>
<g id="a_Node000013"><a xlink:href="kest__ui_8c.html#ab1be7d2981c922ebe8d714f9af0f600d" target="_top" xlink:title=" ">
<polygon fill="#fff0f0" stroke="red" points="300.88,-26.75 173.88,-26.75 173.88,-6 300.88,-6 300.88,-26.75"/>
<text xml:space="preserve" text-anchor="middle" x="237.38" y="-13.25" font-family="Helvetica,sans-Serif" font-size="10.00">kest_init_global_pages</text>
</a>
</g>
</g>
<!-- Node17&#45;&gt;Node13 -->
<g id="edge8_Node000017_Node000013" class="edge">
<title>Node17&#45;&gt;Node13</title>
<g id="a_edge8_Node000017_Node000013"><a xlink:title=" ">
<path fill="none" stroke="#63b8ff" d="M334.76,-16.97C323.71,-16.9 312.28,-16.83 301.32,-16.76"/>
<polygon fill="#63b8ff" stroke="#63b8ff" points="334.57,-20.47 344.59,-17.03 334.62,-13.47 334.57,-20.47"/>
</a>
</g>
</g>
</g>
</svg>

<g id="navigator" transform="translate(0 0)" fill="#404254">
  <rect fill="#f2f5e9" fill-opacity="0.5" stroke="#606060" stroke-width=".5" x="0" y="0" width="60" height="60"/>
  <use id="zoomplus" xlink:href="#zoomPlus" x="17" y="9" onmousedown="handleZoom(evt,'in')"/>
  <use id="zoomminus" xlink:href="#zoomMin" x="42" y="9" onmousedown="handleZoom(evt,'out')"/>
  <use id="reset" xlink:href="#resetDef" x="30" y="36" onmousedown="handleReset()"/>
   <use id="arrowup" xlink:href="#arrowUp" x="0" y="0" onmousedown="handlePan(0,-1)"/>
  <use id="arrowright" xlink:href="#arrowRight" x="0" y="0" onmousedown="handlePan(1,0)"/>
  <use id="arrowdown" xlink:href="#arrowDown" x="0" y="0" onmousedown="handlePan(0,1)"/>
  <use id="arrowleft" xlink:href="#arrowLeft" x="0" y="0" onmousedown="handlePan(-1,0)"/>
</g>
<svg viewBox="0 0 15 15" width="100%" height="30px" preserveAspectRatio="xMaxYMin meet">
 <g id="arrow_out" transform="scale(0.3 0.3)">
  <a xlink:href="kest__sequence_8h_a60f24feb1fb98af80a63a812fcee06fe_icgraph_org.svg" target="_base">
   <rect id="button" ry="5" rx="5" y="6" x="6" height="38" width="38"
        fill="#f2f5e9" fill-opacity="0.5" stroke="#606060" stroke-width="1.0"/>
   <path id="arrow"
     d="M 11.500037,31.436501 C 11.940474,20.09759 22.043105,11.32322 32.158766,21.979434 L 37.068811,17.246167 C 37.068811,17.246167 37.088388,32 37.088388,32 L 22.160133,31.978069 C 22.160133,31.978069 26.997745,27.140456 26.997745,27.140456 C 18.528582,18.264221 13.291696,25.230495 11.500037,31.436501 z"
     style="fill:#404040;"/>
  </a>
 </g>
</svg>

<style type='text/css'>
<![CDATA[
[data-mouse-over-selected='false'] { opacity: 0.7; }
[data-mouse-over-selected='true']  { opacity: 1.0; }
]]>
</style>
<script type="application/ecmascript"><![CDATA[
document.addEventListener('DOMContentLoaded', (event) => {
  highlightEdges();
  highlightAdjacentNodes();
});
]]></script>
</svg>
