<?xml version="1.0" encoding="UTF-8" standalone="no"?>
<!DOCTYPE svg PUBLIC "-//W3C//DTD SVG 1.1//EN"
 "http://www.w3.org/Graphics/SVG/1.1/DTD/svg11.dtd">
<!-- Generated by graphviz version 13.1.2 (20250808.2320)
 -->
<!-- Title: char_is_in_string Pages: 1 -->
<svg width="567pt" height="105pt"
 viewBox="0.00 0.00 567.00 105.00" xmlns="http://www.w3.org/2000/svg" xmlns:xlink="http://www.w3.org/1999/xlink">
<g id="graph0" class="graph" transform="scale(1 1) rotate(0) translate(4 100.5)">
<title>char_is_in_string</title>
<!-- Node1 -->
<g id="Node000001" class="node">
<title>Node1</title>
<g id="a_Node000001"><a xlink:title=" ">
<polygon fill="#999999" stroke="#666666" points="559,-49.12 461.25,-49.12 461.25,-28.38 559,-28.38 559,-49.12"/>
<text xml:space="preserve" text-anchor="middle" x="510.12" y="-35.62" font-family="Helvetica,sans-Serif" font-size="10.00">char_is_in_string</text>
</a>
</g>
</g>
<!-- Node2 -->
<g id="Node000002" class="node">
<title>Node2</title>
<g id="a_Node000002"><a xlink:href="kest__tokenizer_8c.html#ae684335931207bb714fdc1b6588aad14" target="_top" xlink:title=" ">
<polygon fill="white" stroke="#666666" points="425.25,-70.12 326,-70.12 326,-49.38 425.25,-49.38 425.25,-70.12"/>
<text xml:space="preserve" text-anchor="middle" x="375.62" y="-56.62" font-family="Helvetica,sans-Serif" font-size="10.00">token_is_number</text>
</a>
</g>
</g>
<!-- Node1&#45;&gt;Node2 -->
<g id="edge1_Node000001_Node000002" class="edge">
<title>Node1&#45;&gt;Node2</title>
<g id="a_edge1_Node000001_Node000002"><a xlink:title=" ">
<path fill="none" stroke="#63b8ff" d="M449.63,-48.18C441.55,-49.46 433.33,-50.76 425.47,-52.01"/>
<polygon fill="#63b8ff" stroke="#63b8ff" points="450.09,-51.65 459.42,-46.63 449,-44.74 450.09,-51.65"/>
</a>
</g>
</g>
<!-- Node20 -->
<g id="Node000020" class="node">
<title>Node20</title>
<g id="a_Node000020"><a xlink:href="kest__tokenizer_8c.html#ac05ce1dc9f6b52a7427a40caaa5cd67d" target="_top" xlink:title=" ">
<polygon fill="white" stroke="#666666" points="423.38,-30.12 327.88,-30.12 327.88,-9.38 423.38,-9.38 423.38,-30.12"/>
<text xml:space="preserve" text-anchor="middle" x="375.62" y="-16.62" font-family="Helvetica,sans-Serif" font-size="10.00">tokenizer_policy</text>
</a>
</g>
</g>
<!-- Node1&#45;&gt;Node20 -->
<g id="edge5_Node000001_Node000020" class="edge">
<title>Node1&#45;&gt;Node20</title>
<g id="a_edge5_Node000001_Node000020"><a xlink:title=" ">
<path fill="none" stroke="#63b8ff" d="M449.63,-30.22C440.94,-28.97 432.09,-27.7 423.69,-26.5"/>
<polygon fill="#63b8ff" stroke="#63b8ff" points="449.02,-33.67 459.42,-31.62 450.01,-26.74 449.02,-33.67"/>
</a>
</g>
</g>
<!-- Node3 -->
<g id="Node000003" class="node">
<title>Node3</title>
<g id="a_Node000003"><a xlink:href="kest__expr__parser_8c.html#adf0188b23902aff2ddacb388e811412e" target="_top" xlink:title=" ">
<polygon fill="white" stroke="#666666" points="290,-78.5 163,-78.5 163,-45 290,-45 290,-78.5"/>
<text xml:space="preserve" text-anchor="start" x="171" y="-65" font-family="Helvetica,sans-Serif" font-size="10.00">kest_parse_expression</text>
<text xml:space="preserve" text-anchor="middle" x="226.5" y="-52.25" font-family="Helvetica,sans-Serif" font-size="10.00">_rec_pratt</text>
</a>
</g>
</g>
<!-- Node2&#45;&gt;Node3 -->
<g id="edge2_Node000002_Node000003" class="edge">
<title>Node2&#45;&gt;Node3</title>
<g id="a_edge2_Node000002_Node000003"><a xlink:title=" ">
<path fill="none" stroke="#63b8ff" d="M314.29,-60.57C306.41,-60.68 298.33,-60.79 290.41,-60.89"/>
<polygon fill="#63b8ff" stroke="#63b8ff" points="314.17,-64.07 324.12,-60.44 314.07,-57.07 314.17,-64.07"/>
</a>
</g>
</g>
<!-- Node3&#45;&gt;Node3 -->
<g id="edge4_Node000003_Node000003" class="edge">
<title>Node3&#45;&gt;Node3</title>
<g id="a_edge4_Node000003_Node000003"><a xlink:title=" ">
<path fill="none" stroke="#63b8ff" d="M251.19,-90.22C246.99,-93.99 238.76,-96.5 226.5,-96.5 204.07,-96.5 195.14,-88.12 199.69,-78.91"/>
<polygon fill="#63b8ff" stroke="#63b8ff" points="254.63,-90.88 253.03,-80.4 247.75,-89.59 254.63,-90.88"/>
</a>
</g>
</g>
<!-- Node4 -->
<g id="Node000004" class="node">
<title>Node4</title>
<g id="a_Node000004"><a xlink:href="kest__expr__parser_8c.html#a7caaee6c8b0c14b3ff08fba98d837ead" target="_top" xlink:title=" ">
<polygon fill="#fff0f0" stroke="red" points="127,-72.12 0,-72.12 0,-51.38 127,-51.38 127,-72.12"/>
<text xml:space="preserve" text-anchor="middle" x="63.5" y="-58.62" font-family="Helvetica,sans-Serif" font-size="10.00">kest_parse_expression</text>
</a>
</g>
</g>
<!-- Node3&#45;&gt;Node4 -->
<g id="edge3_Node000003_Node000004" class="edge">
<title>Node3&#45;&gt;Node4</title>
<g id="a_edge3_Node000003_Node000004"><a xlink:title=" ">
<path fill="none" stroke="#63b8ff" d="M151.47,-61.75C143.39,-61.75 135.22,-61.75 127.3,-61.75"/>
<polygon fill="#63b8ff" stroke="#63b8ff" points="151.28,-65.25 161.28,-61.75 151.28,-58.25 151.28,-65.25"/>
</a>
</g>
</g>
<!-- Node21 -->
<g id="Node000021" class="node">
<title>Node21</title>
<g id="a_Node000021"><a xlink:href="kest__tokenizer_8c.html#abfb9dd70524b2bf471b98caa15f1d764" target="_top" xlink:title=" ">
<polygon fill="white" stroke="#666666" points="288.88,-27.12 164.12,-27.12 164.12,-6.38 288.88,-6.38 288.88,-27.12"/>
<text xml:space="preserve" text-anchor="middle" x="226.5" y="-13.62" font-family="Helvetica,sans-Serif" font-size="10.00">kest_tokenize_content</text>
</a>
</g>
</g>
<!-- Node20&#45;&gt;Node21 -->
<g id="edge6_Node000020_Node000021" class="edge">
<title>Node20&#45;&gt;Node21</title>
<g id="a_edge6_Node000020_Node000021"><a xlink:title=" ">
<path fill="none" stroke="#63b8ff" d="M316.25,-18.56C307.4,-18.38 298.24,-18.19 289.32,-18.01"/>
<polygon fill="#63b8ff" stroke="#63b8ff" points="316.09,-22.06 326.16,-18.76 316.23,-15.06 316.09,-22.06"/>
</a>
</g>
</g>
<!-- Node10 -->
<g id="Node000010" class="node">
<title>Node10</title>
<g id="a_Node000010"><a xlink:href="kest__eff__parser_8c.html#ae4618958c44389928c260fdb0e170761" target="_top" xlink:title=" ">
<polygon fill="#fff0f0" stroke="red" points="118.38,-33.5 8.63,-33.5 8.63,0 118.38,0 118.38,-33.5"/>
<text xml:space="preserve" text-anchor="start" x="16.63" y="-20" font-family="Helvetica,sans-Serif" font-size="10.00">kest_read_eff_desc</text>
<text xml:space="preserve" text-anchor="middle" x="63.5" y="-7.25" font-family="Helvetica,sans-Serif" font-size="10.00">_from_file</text>
</a>
</g>
</g>
<!-- Node21&#45;&gt;Node10 -->
<g id="edge7_Node000021_Node000010" class="edge">
<title>Node21&#45;&gt;Node10</title>
<g id="a_edge7_Node000021_Node000010"><a xlink:title=" ">
<path fill="none" stroke="#63b8ff" d="M152.47,-16.75C141.13,-16.75 129.59,-16.75 118.76,-16.75"/>
<polygon fill="#63b8ff" stroke="#63b8ff" points="152.2,-20.25 162.2,-16.75 152.2,-13.25 152.2,-20.25"/>
</a>
</g>
</g>
</g>
</svg>
