<?xml version="1.0" encoding="UTF-8" standalone="no"?>
<!DOCTYPE svg PUBLIC "-//W3C//DTD SVG 1.1//EN"
 "http://www.w3.org/Graphics/SVG/1.1/DTD/svg11.dtd">
<!-- Generated by graphviz version 13.1.2 (20250808.2320)
 -->
<!-- Title: kest_expression_evaluate Pages: 1 -->
<!--zoomable 486 -->

<svg id="main" version="1.1" xmlns="http://www.w3.org/2000/svg" xmlns:xlink="http://www.w3.org/1999/xlink" xml:space="preserve" onload="init(evt)">

<style type="text/css"><![CDATA[
.node, .edge {opacity: 0.7;}
.node.selected, .edge.selected {opacity: 1;}
.edge:hover path { stroke: red; }
.edge:hover polygon { stroke: red; fill: red; }
]]></style>

<defs>
  <circle id="rim" cx="0" cy="0" r="7"/>
  <circle id="rim2" cx="0" cy="0" r="3.5"/>
  <g id="zoomPlus">
    <use xlink:href="#rim" fill="#404040"><set attributeName="fill" to="#808080" begin="zoomplus.mouseover" end="zoomplus.mouseout"/></use>
    <path d="M-4,0h8M0,-4v8" fill="none" stroke="white" stroke-width="1.5" pointer-events="none"/>
  </g>
  <g id="zoomMin">
    <use xlink:href="#rim" fill="#404040"><set attributeName="fill" to="#808080" begin="zoomminus.mouseover" end="zoomminus.mouseout"/></use>
    <path d="M-4,0h8" fill="none" stroke="white" stroke-width="1.5" pointer-events="none"/>
  </g>
  <g id="arrowUp" transform="translate(30 24)">
    <use xlink:href="#rim"/>
    <path pointer-events="none" fill="none" stroke="white" stroke-width="1.5" d="M0,-3.0v7 M-2.5,-0.5L0,-3.0L2.5,-0.5"/>
  </g>
  <g id="arrowRight" transform="rotate(90) translate(36 -43)">
    <use xlink:href="#rim"/>
    <path pointer-events="none" fill="none" stroke="white" stroke-width="1.5" d="M0,-3.0v7 M-2.5,-0.5L0,-3.0L2.5,-0.5"/>
  </g>
  <g id="arrowDown" transform="rotate(180) translate(-30 -48)">
    <use xlink:href="#rim"/>
    <path pointer-events="none" fill="none" stroke="white" stroke-width="1.5" d="M0,-3.0v7 M-2.5,-0.5L0,-3.0L2.5,-0.5"/>
  </g>
  <g id="arrowLeft" transform="rotate(270) translate(-36 17)">
    <use xlink:href="#rim"/>
    <path pointer-events="none" fill="none" stroke="white" stroke-width="1.5" d="M0,-3.0v7 M-2.5,-0.5L0,-3.0L2.5,-0.5"/>
  </g>
  <g id="resetDef">
    <use xlink:href="#rim2" fill="#404040"><set attributeName="fill" to="#808080" begin="reset.mouseover" end="reset.mouseout"/></use>
  </g>
</defs>
<script type="application/ecmascript">
var viewWidth = 1021;
var viewHeight = 486;
var sectionId = 'dynsection-6';
</script>
<script type="application/ecmascript" xlink:href="svg.min.js"/>
<svg id="graph" class="graph">
<g id="viewport">
<title>kest_expression_evaluate</title>
<!-- Node1 -->
<g id="Node000001" class="node">
<title>Node1</title>
<g id="a_Node000001"><a xlink:title=" ">
<polygon fill="#999999" stroke="#666666" points="1013.25,-243.75 870.5,-243.75 870.5,-223 1013.25,-223 1013.25,-243.75"/>
<text xml:space="preserve" text-anchor="middle" x="941.88" y="-230.25" font-family="Helvetica,sans-Serif" font-size="10.00">kest_expression_evaluate</text>
</a>
</g>
</g>
<!-- Node2 -->
<g id="Node000002" class="node">
<title>Node2</title>
<g id="a_Node000002"><a xlink:href="kest__expression_8c.html#a12b486853cdfbc5ca334e74f9a90de2b" target="_top" xlink:title=" ">
<polygon fill="white" stroke="#666666" points="826.62,-460.12 683.88,-460.12 683.88,-426.62 826.62,-426.62 826.62,-460.12"/>
<text xml:space="preserve" text-anchor="start" x="691.88" y="-446.62" font-family="Helvetica,sans-Serif" font-size="10.00">kest_expression_compute</text>
<text xml:space="preserve" text-anchor="middle" x="755.25" y="-433.88" font-family="Helvetica,sans-Serif" font-size="10.00">_range_rec</text>
</a>
</g>
</g>
<!-- Node1&#45;&gt;Node2 -->
<g id="edge1_Node000001_Node000002" class="edge">
<title>Node1&#45;&gt;Node2</title>
<g id="a_edge1_Node000001_Node000002"><a xlink:title=" ">
<path fill="none" stroke="#63b8ff" d="M934.23,-254.69C921.25,-292.85 888.96,-373 834.5,-417.38 830.39,-420.72 825.84,-423.64 821.05,-426.19"/>
<polygon fill="#63b8ff" stroke="#63b8ff" points="937.51,-255.9 937.29,-245.31 930.86,-253.73 937.51,-255.9"/>
</a>
</g>
</g>
<!-- Node13 -->
<g id="Node000013" class="node">
<title>Node13</title>
<g id="a_Node000013"><a xlink:href="kest__dict__extract_8c.html#a449de50461a34d20bba301a90a39ec05" target="_top" xlink:title=" ">
<polygon fill="white" stroke="#666666" points="807.5,-408.12 703,-408.12 703,-374.62 807.5,-374.62 807.5,-408.12"/>
<text xml:space="preserve" text-anchor="start" x="711" y="-394.62" font-family="Helvetica,sans-Serif" font-size="10.00">kest_extract_filter</text>
<text xml:space="preserve" text-anchor="middle" x="755.25" y="-381.88" font-family="Helvetica,sans-Serif" font-size="10.00">_from_dict</text>
</a>
</g>
</g>
<!-- Node1&#45;&gt;Node13 -->
<g id="edge5_Node000001_Node000013" class="edge">
<title>Node1&#45;&gt;Node13</title>
<g id="a_edge5_Node000001_Node000013"><a xlink:title=" ">
<path fill="none" stroke="#63b8ff" d="M929.57,-253.81C912.59,-282.7 877.81,-335.32 834.5,-365.38 826.5,-370.92 817.23,-375.36 807.93,-378.88"/>
<polygon fill="#63b8ff" stroke="#63b8ff" points="932.51,-255.72 934.44,-245.31 926.44,-252.25 932.51,-255.72"/>
</a>
</g>
</g>
<!-- Node17 -->
<g id="Node000017" class="node">
<title>Node17</title>
<g id="a_Node000017"><a xlink:href="kest__dict__extract_8c.html#aaef489a5ae1caa02a5e5a3ce26034d48" target="_top" xlink:title=" ">
<polygon fill="white" stroke="#666666" points="821.75,-318.12 688.75,-318.12 688.75,-284.62 821.75,-284.62 821.75,-318.12"/>
<text xml:space="preserve" text-anchor="start" x="696.75" y="-304.62" font-family="Helvetica,sans-Serif" font-size="10.00">kest_extract_int_setting</text>
<text xml:space="preserve" text-anchor="middle" x="755.25" y="-291.88" font-family="Helvetica,sans-Serif" font-size="10.00">_from_dict</text>
</a>
</g>
</g>
<!-- Node1&#45;&gt;Node17 -->
<g id="edge10_Node000001_Node000017" class="edge">
<title>Node1&#45;&gt;Node17</title>
<g id="a_edge10_Node000001_Node000017"><a xlink:title=" ">
<path fill="none" stroke="#63b8ff" d="M901.12,-248.02C872.32,-258.62 833.28,-273 802.99,-284.16"/>
<polygon fill="#63b8ff" stroke="#63b8ff" points="902.03,-251.41 910.2,-244.67 899.61,-244.84 902.03,-251.41"/>
</a>
</g>
</g>
<!-- Node18 -->
<g id="Node000018" class="node">
<title>Node18</title>
<g id="a_Node000018"><a xlink:href="kest__dict__extract_8c.html#a0225c4392c944b41b1db66787be35243" target="_top" xlink:title=" ">
<polygon fill="white" stroke="#666666" points="626.12,-286.12 511.12,-286.12 511.12,-252.62 626.12,-252.62 626.12,-286.12"/>
<text xml:space="preserve" text-anchor="start" x="519.12" y="-272.62" font-family="Helvetica,sans-Serif" font-size="10.00">kest_extract_setting</text>
<text xml:space="preserve" text-anchor="middle" x="568.62" y="-259.88" font-family="Helvetica,sans-Serif" font-size="10.00">_from_dict</text>
</a>
</g>
</g>
<!-- Node1&#45;&gt;Node18 -->
<g id="edge19_Node000001_Node000018" class="edge">
<title>Node1&#45;&gt;Node18</title>
<g id="a_edge19_Node000001_Node000018"><a xlink:title=" ">
<path fill="none" stroke="#63b8ff" d="M859.11,-241.3C788.56,-248.14 688.5,-257.85 626.4,-263.87"/>
<polygon fill="#63b8ff" stroke="#63b8ff" points="859.05,-244.83 868.67,-240.38 858.37,-237.86 859.05,-244.83"/>
</a>
</g>
</g>
<!-- Node20 -->
<g id="Node000020" class="node">
<title>Node20</title>
<g id="a_Node000020"><a xlink:href="kest__dict__extract_8c.html#ab9eb2913c5cfcd0dd01128a9b0d3be9a" target="_top" xlink:title=" ">
<polygon fill="white" stroke="#666666" points="834.5,-356.75 676,-356.75 676,-336 834.5,-336 834.5,-356.75"/>
<text xml:space="preserve" text-anchor="middle" x="755.25" y="-343.25" font-family="Helvetica,sans-Serif" font-size="10.00">kest_extract_mem_from_dict</text>
</a>
</g>
</g>
<!-- Node1&#45;&gt;Node20 -->
<g id="edge14_Node000001_Node000020" class="edge">
<title>Node1&#45;&gt;Node20</title>
<g id="a_edge14_Node000001_Node000020"><a xlink:title=" ">
<path fill="none" stroke="#63b8ff" d="M924.56,-252.56C905.24,-274.03 871.04,-308.31 834.5,-327.38 828.3,-330.61 821.54,-333.3 814.67,-335.55"/>
<polygon fill="#63b8ff" stroke="#63b8ff" points="927.15,-254.92 931.12,-245.09 921.89,-250.3 927.15,-254.92"/>
</a>
</g>
</g>
<!-- Node21 -->
<g id="Node000021" class="node">
<title>Node21</title>
<g id="a_Node000021"><a xlink:href="kest__dict__extract_8c.html#aaf0af9bba0940d4cfe5a8286222f14be" target="_top" xlink:title=" ">
<polygon fill="white" stroke="#666666" points="821.38,-228.12 689.12,-228.12 689.12,-194.62 821.38,-194.62 821.38,-228.12"/>
<text xml:space="preserve" text-anchor="start" x="697.12" y="-214.62" font-family="Helvetica,sans-Serif" font-size="10.00">kest_extract_parameter</text>
<text xml:space="preserve" text-anchor="middle" x="755.25" y="-201.88" font-family="Helvetica,sans-Serif" font-size="10.00">_from_dict</text>
</a>
</g>
</g>
<!-- Node1&#45;&gt;Node21 -->
<g id="edge16_Node000001_Node000021" class="edge">
<title>Node1&#45;&gt;Node21</title>
<g id="a_edge16_Node000001_Node000021"><a xlink:title=" ">
<path fill="none" stroke="#63b8ff" d="M858.75,-223.59C846.36,-222.11 833.74,-220.61 821.76,-219.18"/>
<polygon fill="#63b8ff" stroke="#63b8ff" points="858.18,-227.05 868.52,-224.75 859,-220.09 858.18,-227.05"/>
</a>
</g>
</g>
<!-- Node23 -->
<g id="Node000023" class="node">
<title>Node23</title>
<g id="a_Node000023"><a xlink:href="kest__fpga__encoding_8c.html#a1eb834a3d6799cabab146f2f942de3a5" target="_top" xlink:title=" ">
<polygon fill="white" stroke="#666666" points="823.62,-176.12 686.88,-176.12 686.88,-142.62 823.62,-142.62 823.62,-176.12"/>
<text xml:space="preserve" text-anchor="start" x="694.88" y="-162.62" font-family="Helvetica,sans-Serif" font-size="10.00">kest_fpga_batch_append</text>
<text xml:space="preserve" text-anchor="middle" x="755.25" y="-149.88" font-family="Helvetica,sans-Serif" font-size="10.00">_block_register_updates</text>
</a>
</g>
</g>
<!-- Node1&#45;&gt;Node23 -->
<g id="edge20_Node000001_Node000023" class="edge">
<title>Node1&#45;&gt;Node23</title>
<g id="a_edge20_Node000001_Node000023"><a xlink:title=" ">
<path fill="none" stroke="#63b8ff" d="M908.51,-217.72C887.62,-207.88 859.73,-195.23 834.5,-185.38 826.77,-182.35 818.52,-179.37 810.39,-176.56"/>
<polygon fill="#63b8ff" stroke="#63b8ff" points="906.85,-220.81 917.38,-221.93 909.85,-214.48 906.85,-220.81"/>
</a>
</g>
</g>
<!-- Node26 -->
<g id="Node000026" class="node">
<title>Node26</title>
<g id="a_Node000026"><a xlink:href="kest__fpga__encoding_8c.html#a0c272bb9440b58f3546ad0f628d0daec" target="_top" xlink:title=" ">
<polygon fill="white" stroke="#666666" points="823.62,-124.12 686.88,-124.12 686.88,-90.62 823.62,-90.62 823.62,-124.12"/>
<text xml:space="preserve" text-anchor="start" x="694.88" y="-110.62" font-family="Helvetica,sans-Serif" font-size="10.00">kest_fpga_batch_append</text>
<text xml:space="preserve" text-anchor="middle" x="755.25" y="-97.88" font-family="Helvetica,sans-Serif" font-size="10.00">_block_regs</text>
</a>
</g>
</g>
<!-- Node1&#45;&gt;Node26 -->
<g id="edge23_Node000001_Node000026" class="edge">
<title>Node1&#45;&gt;Node26</title>
<g id="a_edge23_Node000001_Node000026"><a xlink:title=" ">
<path fill="none" stroke="#63b8ff" d="M925.07,-214.13C905.82,-191.81 871.27,-155.3 834.5,-133.38 828.97,-130.08 822.96,-127.13 816.82,-124.52"/>
<polygon fill="#63b8ff" stroke="#63b8ff" points="922.25,-216.21 931.38,-221.58 927.59,-211.69 922.25,-216.21"/>
</a>
</g>
</g>
<!-- Node84 -->
<g id="Node000084" class="node">
<title>Node84</title>
<g id="a_Node000084"><a xlink:href="kest__fpga__encoding_8c.html#a3b6ea5da3d104a83a4e5fd1f668d9a91" target="_top" xlink:title=" ">
<polygon fill="white" stroke="#666666" points="823.62,-72.12 686.88,-72.12 686.88,-38.62 823.62,-38.62 823.62,-72.12"/>
<text xml:space="preserve" text-anchor="start" x="694.88" y="-58.62" font-family="Helvetica,sans-Serif" font-size="10.00">kest_fpga_batch_append</text>
<text xml:space="preserve" text-anchor="middle" x="755.25" y="-45.88" font-family="Helvetica,sans-Serif" font-size="10.00">_resource</text>
</a>
</g>
</g>
<!-- Node1&#45;&gt;Node84 -->
<g id="edge27_Node000001_Node000084" class="edge">
<title>Node1&#45;&gt;Node84</title>
<g id="a_edge27_Node000001_Node000084"><a xlink:title=" ">
<path fill="none" stroke="#63b8ff" d="M931.71,-212.62C916.28,-180.01 882.09,-116.84 834.5,-81.38 830.02,-78.04 825.09,-75.12 819.96,-72.56"/>
<polygon fill="#63b8ff" stroke="#63b8ff" points="928.39,-213.78 935.74,-221.41 934.75,-210.86 928.39,-213.78"/>
</a>
</g>
</g>
<!-- Node86 -->
<g id="Node000086" class="node">
<title>Node86</title>
<g id="a_Node000086"><a xlink:href="kest__asm__parser_8c.html#a2631a3bf92814826b04c07694026a878" target="_top" xlink:title=" ">
<polygon fill="white" stroke="#666666" points="819.5,-20.75 691,-20.75 691,0 819.5,0 819.5,-20.75"/>
<text xml:space="preserve" text-anchor="middle" x="755.25" y="-7.25" font-family="Helvetica,sans-Serif" font-size="10.00">kest_process_asm_line</text>
</a>
</g>
</g>
<!-- Node1&#45;&gt;Node86 -->
<g id="edge30_Node000001_Node000086" class="edge">
<title>Node1&#45;&gt;Node86</title>
<g id="a_edge30_Node000001_Node000086"><a xlink:title=" ">
<path fill="none" stroke="#63b8ff" d="M935.97,-211.91C925.25,-170 895.63,-77.23 834.5,-29.38 830.1,-25.93 825.16,-23.09 819.96,-20.77"/>
<polygon fill="#63b8ff" stroke="#63b8ff" points="932.54,-212.6 938.3,-221.49 939.34,-210.94 932.54,-212.6"/>
</a>
</g>
</g>
<!-- Node2&#45;&gt;Node2 -->
<g id="edge4_Node000002_Node000002" class="edge">
<title>Node2&#45;&gt;Node2</title>
<g id="a_edge4_Node000002_Node000002"><a xlink:title=" ">
<path fill="none" stroke="#63b8ff" d="M786.59,-471.51C781.48,-475.47 771.04,-478.12 755.25,-478.12 727.18,-478.12 716,-469.74 721.7,-460.54"/>
<polygon fill="#63b8ff" stroke="#63b8ff" points="789.95,-472.52 788.5,-462.02 783.09,-471.13 789.95,-472.52"/>
</a>
</g>
</g>
<!-- Node3 -->
<g id="Node000003" class="node">
<title>Node3</title>
<g id="a_Node000003"><a xlink:href="kest__expression_8c.html#a5f48e88077ddcd3c3de79b597094a3ef" target="_top" xlink:title=" ">
<polygon fill="white" stroke="#666666" points="640,-460.12 497.25,-460.12 497.25,-426.62 640,-426.62 640,-460.12"/>
<text xml:space="preserve" text-anchor="start" x="505.25" y="-446.62" font-family="Helvetica,sans-Serif" font-size="10.00">kest_expression_compute</text>
<text xml:space="preserve" text-anchor="middle" x="568.62" y="-433.88" font-family="Helvetica,sans-Serif" font-size="10.00">_range</text>
</a>
</g>
</g>
<!-- Node2&#45;&gt;Node3 -->
<g id="edge2_Node000002_Node000003" class="edge">
<title>Node2&#45;&gt;Node3</title>
<g id="a_edge2_Node000002_Node000003"><a xlink:title=" ">
<path fill="none" stroke="#63b8ff" d="M672.01,-443.38C661.43,-443.38 650.66,-443.38 640.29,-443.38"/>
<polygon fill="#63b8ff" stroke="#63b8ff" points="671.88,-446.88 681.88,-443.38 671.88,-439.88 671.88,-446.88"/>
</a>
</g>
</g>
<!-- Node4 -->
<g id="Node000004" class="node">
<title>Node4</title>
<g id="a_Node000004"><a xlink:href="kest__fixed__point_8c.html#ac5145d24cb0e25a237f9c8d30b8fc0d2" target="_top" xlink:title=" ">
<polygon fill="#fff0f0" stroke="red" points="461.25,-460.12 318.5,-460.12 318.5,-426.62 461.25,-426.62 461.25,-460.12"/>
<text xml:space="preserve" text-anchor="start" x="326.5" y="-446.62" font-family="Helvetica,sans-Serif" font-size="10.00">kest_expression_compute</text>
<text xml:space="preserve" text-anchor="middle" x="389.88" y="-433.88" font-family="Helvetica,sans-Serif" font-size="10.00">_format</text>
</a>
</g>
</g>
<!-- Node3&#45;&gt;Node4 -->
<g id="edge3_Node000003_Node000004" class="edge">
<title>Node3&#45;&gt;Node4</title>
<g id="a_edge3_Node000003_Node000004"><a xlink:title=" ">
<path fill="none" stroke="#63b8ff" d="M485.48,-443.38C477.46,-443.38 469.37,-443.38 461.48,-443.38"/>
<polygon fill="#63b8ff" stroke="#63b8ff" points="485.24,-446.88 495.24,-443.38 485.24,-439.88 485.24,-446.88"/>
</a>
</g>
</g>
<!-- Node14 -->
<g id="Node000014" class="node">
<title>Node14</title>
<g id="a_Node000014"><a xlink:href="kest__dict__extract_8c.html#ad78dabb9f962180138c9dfc2bf1731e3" target="_top" xlink:title=" ">
<polygon fill="white" stroke="#666666" points="630.25,-363.12 507,-363.12 507,-329.62 630.25,-329.62 630.25,-363.12"/>
<text xml:space="preserve" text-anchor="start" x="515" y="-349.62" font-family="Helvetica,sans-Serif" font-size="10.00">kest_extract_resource</text>
<text xml:space="preserve" text-anchor="middle" x="568.62" y="-336.88" font-family="Helvetica,sans-Serif" font-size="10.00">_from_dict</text>
</a>
</g>
</g>
<!-- Node13&#45;&gt;Node14 -->
<g id="edge6_Node000013_Node000014" class="edge">
<title>Node13&#45;&gt;Node14</title>
<g id="a_edge6_Node000013_Node000014"><a xlink:title=" ">
<path fill="none" stroke="#63b8ff" d="M691.78,-376.15C672.03,-371.33 650.24,-366.02 630.59,-361.24"/>
<polygon fill="#63b8ff" stroke="#63b8ff" points="690.81,-379.51 701.35,-378.48 692.46,-372.71 690.81,-379.51"/>
</a>
</g>
</g>
<!-- Node15 -->
<g id="Node000015" class="node">
<title>Node15</title>
<g id="a_Node000015"><a xlink:href="kest__eff__section_8c.html#a55e76cf45dd01c8cc35bf2323f67b931" target="_top" xlink:title=" ">
<polygon fill="white" stroke="#666666" points="454.5,-351.12 325.25,-351.12 325.25,-317.62 454.5,-317.62 454.5,-351.12"/>
<text xml:space="preserve" text-anchor="start" x="333.25" y="-337.62" font-family="Helvetica,sans-Serif" font-size="10.00">kest_resources_section</text>
<text xml:space="preserve" text-anchor="middle" x="389.88" y="-324.88" font-family="Helvetica,sans-Serif" font-size="10.00">_extract</text>
</a>
</g>
</g>
<!-- Node14&#45;&gt;Node15 -->
<g id="edge7_Node000014_Node000015" class="edge">
<title>Node14&#45;&gt;Node15</title>
<g id="a_edge7_Node000014_Node000015"><a xlink:title=" ">
<path fill="none" stroke="#63b8ff" d="M495.61,-341.49C482.1,-340.57 468.07,-339.62 454.83,-338.72"/>
<polygon fill="#63b8ff" stroke="#63b8ff" points="495.07,-344.96 505.29,-342.14 495.55,-337.97 495.07,-344.96"/>
</a>
</g>
</g>
<!-- Node16 -->
<g id="Node000016" class="node">
<title>Node16</title>
<g id="a_Node000016"><a xlink:href="kest__eff__parser_8c.html#a73ef6962d1925857ec3e4b12d1aad834" target="_top" xlink:title=" ">
<polygon fill="white" stroke="#666666" points="267.12,-253.75 161.12,-253.75 161.12,-233 267.12,-233 267.12,-253.75"/>
<text xml:space="preserve" text-anchor="middle" x="214.12" y="-240.25" font-family="Helvetica,sans-Serif" font-size="10.00">kest_parse_tokens</text>
</a>
</g>
</g>
<!-- Node15&#45;&gt;Node16 -->
<g id="edge8_Node000015_Node000016" class="edge">
<title>Node15&#45;&gt;Node16</title>
<g id="a_edge8_Node000015_Node000016"><a xlink:title=" ">
<path fill="none" stroke="#63b8ff" d="M346.2,-312.03C311.06,-293.62 262.77,-268.33 235.69,-254.14"/>
<polygon fill="#63b8ff" stroke="#63b8ff" points="344.37,-315.02 354.85,-316.56 347.62,-308.82 344.37,-315.02"/>
</a>
</g>
</g>
<!-- Node7 -->
<g id="Node000007" class="node">
<title>Node7</title>
<g id="a_Node000007"><a xlink:href="kest__eff__parser_8c.html#ae4618958c44389928c260fdb0e170761" target="_top" xlink:title=" ">
<polygon fill="#fff0f0" stroke="red" points="109.75,-148.12 0,-148.12 0,-114.62 109.75,-114.62 109.75,-148.12"/>
<text xml:space="preserve" text-anchor="start" x="8" y="-134.62" font-family="Helvetica,sans-Serif" font-size="10.00">kest_read_eff_desc</text>
<text xml:space="preserve" text-anchor="middle" x="54.88" y="-121.88" font-family="Helvetica,sans-Serif" font-size="10.00">_from_file</text>
</a>
</g>
</g>
<!-- Node16&#45;&gt;Node7 -->
<g id="edge9_Node000016_Node000007" class="edge">
<title>Node16&#45;&gt;Node7</title>
<g id="a_edge9_Node000016_Node000007"><a xlink:title=" ">
<path fill="none" stroke="#63b8ff" d="M188.85,-226.08C159.27,-205.02 109.62,-169.66 80.08,-148.62"/>
<polygon fill="#63b8ff" stroke="#63b8ff" points="186.64,-228.81 196.81,-231.76 190.7,-223.11 186.64,-228.81"/>
</a>
</g>
</g>
<!-- Node17&#45;&gt;Node18 -->
<g id="edge11_Node000017_Node000018" class="edge">
<title>Node17&#45;&gt;Node18</title>
<g id="a_edge11_Node000017_Node000018"><a xlink:title=" ">
<path fill="none" stroke="#63b8ff" d="M677.34,-288.04C660.34,-285.1 642.63,-282.03 626.6,-279.25"/>
<polygon fill="#63b8ff" stroke="#63b8ff" points="676.44,-291.44 686.89,-289.7 677.63,-284.54 676.44,-291.44"/>
</a>
</g>
</g>
<!-- Node19 -->
<g id="Node000019" class="node">
<title>Node19</title>
<g id="a_Node000019"><a xlink:href="kest__eff__section_8c.html#ac86840256c51c90c1c1066da9b88e7af" target="_top" xlink:title=" ">
<polygon fill="white" stroke="#666666" points="450.38,-286.12 329.38,-286.12 329.38,-252.62 450.38,-252.62 450.38,-286.12"/>
<text xml:space="preserve" text-anchor="start" x="337.38" y="-272.62" font-family="Helvetica,sans-Serif" font-size="10.00">kest_settings_section</text>
<text xml:space="preserve" text-anchor="middle" x="389.88" y="-259.88" font-family="Helvetica,sans-Serif" font-size="10.00">_extract</text>
</a>
</g>
</g>
<!-- Node18&#45;&gt;Node19 -->
<g id="edge12_Node000018_Node000019" class="edge">
<title>Node18&#45;&gt;Node19</title>
<g id="a_edge12_Node000018_Node000019"><a xlink:title=" ">
<path fill="none" stroke="#63b8ff" d="M499.26,-269.38C483.25,-269.38 466.32,-269.38 450.71,-269.38"/>
<polygon fill="#63b8ff" stroke="#63b8ff" points="499.21,-272.88 509.21,-269.38 499.21,-265.88 499.21,-272.88"/>
</a>
</g>
</g>
<!-- Node19&#45;&gt;Node16 -->
<g id="edge13_Node000019_Node000016" class="edge">
<title>Node19&#45;&gt;Node16</title>
<g id="a_edge13_Node000019_Node000016"><a xlink:title=" ">
<path fill="none" stroke="#63b8ff" d="M318.11,-258.79C301.18,-256.25 283.41,-253.59 267.48,-251.21"/>
<polygon fill="#63b8ff" stroke="#63b8ff" points="317.18,-262.18 327.58,-260.2 318.21,-255.26 317.18,-262.18"/>
</a>
</g>
</g>
<!-- Node20&#45;&gt;Node14 -->
<g id="edge15_Node000020_Node000014" class="edge">
<title>Node20&#45;&gt;Node14</title>
<g id="a_edge15_Node000020_Node000014"><a xlink:title=" ">
<path fill="none" stroke="#63b8ff" d="M664.28,-346.38C652.83,-346.38 641.34,-346.38 630.5,-346.38"/>
<polygon fill="#63b8ff" stroke="#63b8ff" points="664.17,-349.88 674.17,-346.38 664.17,-342.88 664.17,-349.88"/>
</a>
</g>
</g>
<!-- Node22 -->
<g id="Node000022" class="node">
<title>Node22</title>
<g id="a_Node000022"><a xlink:href="kest__eff__section_8c.html#a5fe6d5cd354aa8f4322524ecc9b6af63" target="_top" xlink:title=" ">
<polygon fill="white" stroke="#666666" points="459,-234.12 320.75,-234.12 320.75,-200.62 459,-200.62 459,-234.12"/>
<text xml:space="preserve" text-anchor="start" x="328.75" y="-220.62" font-family="Helvetica,sans-Serif" font-size="10.00">kest_parameters_section</text>
<text xml:space="preserve" text-anchor="middle" x="389.88" y="-207.88" font-family="Helvetica,sans-Serif" font-size="10.00">_extract</text>
</a>
</g>
</g>
<!-- Node21&#45;&gt;Node22 -->
<g id="edge17_Node000021_Node000022" class="edge">
<title>Node21&#45;&gt;Node22</title>
<g id="a_edge17_Node000021_Node000022"><a xlink:title=" ">
<path fill="none" stroke="#63b8ff" d="M677.54,-212.64C613.01,-213.71 521.57,-215.22 459.44,-216.24"/>
<polygon fill="#63b8ff" stroke="#63b8ff" points="677.41,-216.14 687.35,-212.48 677.3,-209.15 677.41,-216.14"/>
</a>
</g>
</g>
<!-- Node22&#45;&gt;Node16 -->
<g id="edge18_Node000022_Node000016" class="edge">
<title>Node22&#45;&gt;Node16</title>
<g id="a_edge18_Node000022_Node000016"><a xlink:title=" ">
<path fill="none" stroke="#63b8ff" d="M309.4,-229.27C295.19,-231.39 280.72,-233.56 267.52,-235.53"/>
<polygon fill="#63b8ff" stroke="#63b8ff" points="309.83,-232.74 319.21,-227.8 308.8,-225.82 309.83,-232.74"/>
</a>
</g>
</g>
<!-- Node24 -->
<g id="Node000024" class="node">
<title>Node24</title>
<g id="a_Node000024"><a xlink:href="kest__fpga__encoding_8c.html#a2f3bae873de3ea2dafd0d6d1424e929f" target="_top" xlink:title=" ">
<polygon fill="white" stroke="#666666" points="630.25,-188.5 507,-188.5 507,-142.25 630.25,-142.25 630.25,-188.5"/>
<text xml:space="preserve" text-anchor="start" x="515" y="-175" font-family="Helvetica,sans-Serif" font-size="10.00">kest_fpga_transfer</text>
<text xml:space="preserve" text-anchor="start" x="515" y="-162.25" font-family="Helvetica,sans-Serif" font-size="10.00">_batch_append_effect</text>
<text xml:space="preserve" text-anchor="middle" x="568.62" y="-149.5" font-family="Helvetica,sans-Serif" font-size="10.00">_register_updates</text>
</a>
</g>
</g>
<!-- Node23&#45;&gt;Node24 -->
<g id="edge21_Node000023_Node000024" class="edge">
<title>Node23&#45;&gt;Node24</title>
<g id="a_edge21_Node000023_Node000024"><a xlink:title=" ">
<path fill="none" stroke="#63b8ff" d="M675.24,-161.94C660.3,-162.43 644.88,-162.93 630.59,-163.39"/>
<polygon fill="#63b8ff" stroke="#63b8ff" points="675.16,-165.45 685.04,-161.62 674.93,-158.45 675.16,-165.45"/>
</a>
</g>
</g>
<!-- Node25 -->
<g id="Node000025" class="node">
<title>Node25</title>
<g id="a_Node000025"><a xlink:href="kest__effect_8c.html#abce80b3222c75d4f721e59f856083682" target="_top" xlink:title=" ">
<polygon fill="white" stroke="#666666" points="444.38,-182.12 335.38,-182.12 335.38,-148.62 444.38,-148.62 444.38,-182.12"/>
<text xml:space="preserve" text-anchor="start" x="343.38" y="-168.62" font-family="Helvetica,sans-Serif" font-size="10.00">kest_effect_update</text>
<text xml:space="preserve" text-anchor="middle" x="389.88" y="-155.88" font-family="Helvetica,sans-Serif" font-size="10.00">_fpga_registers</text>
</a>
</g>
</g>
<!-- Node24&#45;&gt;Node25 -->
<g id="edge22_Node000024_Node000025" class="edge">
<title>Node24&#45;&gt;Node25</title>
<g id="a_edge22_Node000024_Node000025"><a xlink:title=" ">
<path fill="none" stroke="#63b8ff" d="M495.75,-165.38C478.7,-165.38 460.8,-165.38 444.72,-165.38"/>
<polygon fill="#63b8ff" stroke="#63b8ff" points="495.28,-168.88 505.28,-165.38 495.28,-161.88 495.28,-168.88"/>
</a>
</g>
</g>
<!-- Node27 -->
<g id="Node000027" class="node">
<title>Node27</title>
<g id="a_Node000027"><a xlink:href="kest__fpga__encoding_8c.html#a793b1841a47fcdbddc9d0aa5b6eec343" target="_top" xlink:title=" ">
<polygon fill="white" stroke="#666666" points="637,-124.12 500.25,-124.12 500.25,-90.62 637,-90.62 637,-124.12"/>
<text xml:space="preserve" text-anchor="start" x="508.25" y="-110.62" font-family="Helvetica,sans-Serif" font-size="10.00">kest_fpga_batch_append</text>
<text xml:space="preserve" text-anchor="middle" x="568.62" y="-97.88" font-family="Helvetica,sans-Serif" font-size="10.00">_block</text>
</a>
</g>
</g>
<!-- Node26&#45;&gt;Node27 -->
<g id="edge24_Node000026_Node000027" class="edge">
<title>Node26&#45;&gt;Node27</title>
<g id="a_edge24_Node000026_Node000027"><a xlink:title=" ">
<path fill="none" stroke="#63b8ff" d="M675.11,-107.38C662.53,-107.38 649.61,-107.38 637.32,-107.38"/>
<polygon fill="#63b8ff" stroke="#63b8ff" points="675.04,-110.88 685.04,-107.38 675.04,-103.88 675.04,-110.88"/>
</a>
</g>
</g>
<!-- Node28 -->
<g id="Node000028" class="node">
<title>Node28</title>
<g id="a_Node000028"><a xlink:href="kest__fpga__encoding_8c.html#a1d6980972e5f88bc39838473e70f8281" target="_top" xlink:title=" ">
<polygon fill="white" stroke="#666666" points="458.25,-122.12 321.5,-122.12 321.5,-88.62 458.25,-88.62 458.25,-122.12"/>
<text xml:space="preserve" text-anchor="start" x="329.5" y="-108.62" font-family="Helvetica,sans-Serif" font-size="10.00">kest_fpga_batch_append</text>
<text xml:space="preserve" text-anchor="middle" x="389.88" y="-95.88" font-family="Helvetica,sans-Serif" font-size="10.00">_blocks</text>
</a>
</g>
</g>
<!-- Node27&#45;&gt;Node28 -->
<g id="edge25_Node000027_Node000028" class="edge">
<title>Node27&#45;&gt;Node28</title>
<g id="a_edge25_Node000027_Node000028"><a xlink:title=" ">
<path fill="none" stroke="#63b8ff" d="M488.57,-106.48C478.54,-106.37 468.35,-106.25 458.52,-106.14"/>
<polygon fill="#63b8ff" stroke="#63b8ff" points="488.24,-109.98 498.28,-106.59 488.32,-102.98 488.24,-109.98"/>
</a>
</g>
</g>
<!-- Node29 -->
<g id="Node000029" class="node">
<title>Node29</title>
<g id="a_Node000029"><a xlink:href="kest__fpga__encoding_8c.html#a142858ad82d4b4214aa9191a2146454e" target="_top" xlink:title=" ">
<polygon fill="#fff0f0" stroke="red" points="282.5,-96.12 145.75,-96.12 145.75,-62.62 282.5,-62.62 282.5,-96.12"/>
<text xml:space="preserve" text-anchor="start" x="153.75" y="-82.62" font-family="Helvetica,sans-Serif" font-size="10.00">kest_fpga_batch_append</text>
<text xml:space="preserve" text-anchor="middle" x="214.12" y="-69.88" font-family="Helvetica,sans-Serif" font-size="10.00">_eff_desc</text>
</a>
</g>
</g>
<!-- Node28&#45;&gt;Node29 -->
<g id="edge26_Node000028_Node000029" class="edge">
<title>Node28&#45;&gt;Node29</title>
<g id="a_edge26_Node000028_Node000029"><a xlink:title=" ">
<path fill="none" stroke="#63b8ff" d="M309.88,-93.55C300.87,-92.21 291.75,-90.84 282.9,-89.52"/>
<polygon fill="#63b8ff" stroke="#63b8ff" points="309.3,-97.01 319.7,-95.02 310.33,-90.08 309.3,-97.01"/>
</a>
</g>
</g>
<!-- Node85 -->
<g id="Node000085" class="node">
<title>Node85</title>
<g id="a_Node000085"><a xlink:href="kest__fpga__encoding_8c.html#adffee6f6156a2d821bd467b1c0c578c2" target="_top" xlink:title=" ">
<polygon fill="white" stroke="#666666" points="637,-72.12 500.25,-72.12 500.25,-38.62 637,-38.62 637,-72.12"/>
<text xml:space="preserve" text-anchor="start" x="508.25" y="-58.62" font-family="Helvetica,sans-Serif" font-size="10.00">kest_fpga_batch_append</text>
<text xml:space="preserve" text-anchor="middle" x="568.62" y="-45.88" font-family="Helvetica,sans-Serif" font-size="10.00">_resources</text>
</a>
</g>
</g>
<!-- Node84&#45;&gt;Node85 -->
<g id="edge28_Node000084_Node000085" class="edge">
<title>Node84&#45;&gt;Node85</title>
<g id="a_edge28_Node000084_Node000085"><a xlink:title=" ">
<path fill="none" stroke="#63b8ff" d="M675.11,-55.38C662.53,-55.38 649.61,-55.38 637.32,-55.38"/>
<polygon fill="#63b8ff" stroke="#63b8ff" points="675.04,-58.88 685.04,-55.38 675.04,-51.88 675.04,-58.88"/>
</a>
</g>
</g>
<!-- Node85&#45;&gt;Node29 -->
<g id="edge29_Node000085_Node000029" class="edge">
<title>Node85&#45;&gt;Node29</title>
<g id="a_edge29_Node000085_Node000029"><a xlink:title=" ">
<path fill="none" stroke="#63b8ff" d="M488.8,-60.74C426.88,-64.96 341.58,-70.77 282.74,-74.77"/>
<polygon fill="#63b8ff" stroke="#63b8ff" points="488.83,-64.25 498.57,-60.08 488.35,-57.26 488.83,-64.25"/>
</a>
</g>
</g>
<!-- Node87 -->
<g id="Node000087" class="node">
<title>Node87</title>
<g id="a_Node000087"><a xlink:href="kest__asm__parser_8c.html#ae59ff30494de598aa24df2c421eff7f7" target="_top" xlink:title=" ">
<polygon fill="white" stroke="#666666" points="281,-41.75 147.25,-41.75 147.25,-21 281,-21 281,-41.75"/>
<text xml:space="preserve" text-anchor="middle" x="214.12" y="-28.25" font-family="Helvetica,sans-Serif" font-size="10.00">kest_process_asm_lines</text>
</a>
</g>
</g>
<!-- Node86&#45;&gt;Node87 -->
<g id="edge31_Node000086_Node000087" class="edge">
<title>Node86&#45;&gt;Node87</title>
<g id="a_edge31_Node000086_Node000087"><a xlink:title=" ">
<path fill="none" stroke="#63b8ff" d="M679.34,-13.29C573.52,-17.41 381.96,-24.88 281.18,-28.8"/>
<polygon fill="#63b8ff" stroke="#63b8ff" points="679.19,-16.8 689.04,-12.91 678.91,-9.81 679.19,-16.8"/>
</a>
</g>
</g>
<!-- Node87&#45;&gt;Node7 -->
<g id="edge32_Node000087_Node000007" class="edge">
<title>Node87&#45;&gt;Node7</title>
<g id="a_edge32_Node000087_Node000007"><a xlink:title=" ">
<path fill="none" stroke="#63b8ff" d="M160.5,-46.26C155.39,-48.38 150.39,-50.75 145.75,-53.38 116.63,-69.87 88.37,-96.72 71.55,-114.22"/>
<polygon fill="#63b8ff" stroke="#63b8ff" points="161.53,-49.61 169.63,-42.78 159.04,-43.07 161.53,-49.61"/>
</a>
</g>
</g>
</g>
</svg>

<g id="navigator" transform="translate(0 0)" fill="#404254">
  <rect fill="#f2f5e9" fill-opacity="0.5" stroke="#606060" stroke-width=".5" x="0" y="0" width="60" height="60"/>
  <use id="zoomplus" xlink:href="#zoomPlus" x="17" y="9" onmousedown="handleZoom(evt,'in')"/>
  <use id="zoomminus" xlink:href="#zoomMin" x="42" y="9" onmousedown="handleZoom(evt,'out')"/>
  <use id="reset" xlink:href="#resetDef" x="30" y="36" onmousedown="handleReset()"/>
   <use id="arrowup" xlink:href="#arrowUp" x="0" y="0" onmousedown="handlePan(0,-1)"/>
  <use id="arrowright" xlink:href="#arrowRight" x="0" y="0" onmousedown="handlePan(1,0)"/>
  <use id="arrowdown" xlink:href="#arrowDown" x="0" y="0" onmousedown="handlePan(0,1)"/>
  <use id="arrowleft" xlink:href="#arrowLeft" x="0" y="0" onmousedown="handlePan(-1,0)"/>
</g>
<svg viewBox="0 0 15 15" width="100%" height="30px" preserveAspectRatio="xMaxYMin meet">
 <g id="arrow_out" transform="scale(0.3 0.3)">
  <a xlink:href="kest__expression_8h_acf37e49d77d8bcdaa88727bd67c146fa_icgraph_org.svg" target="_base">
   <rect id="button" ry="5" rx="5" y="6" x="6" height="38" width="38"
        fill="#f2f5e9" fill-opacity="0.5" stroke="#606060" stroke-width="1.0"/>
   <path id="arrow"
     d="M 11.500037,31.436501 C 11.940474,20.09759 22.043105,11.32322 32.158766,21.979434 L 37.068811,17.246167 C 37.068811,17.246167 37.088388,32 37.088388,32 L 22.160133,31.978069 C 22.160133,31.978069 26.997745,27.140456 26.997745,27.140456 C 18.528582,18.264221 13.291696,25.230495 11.500037,31.436501 z"
     style="fill:#404040;"/>
  </a>
 </g>
</svg>

<style type='text/css'>
<![CDATA[
[data-mouse-over-selected='false'] { opacity: 0.7; }
[data-mouse-over-selected='true']  { opacity: 1.0; }
]]>
</style>
<script type="application/ecmascript"><![CDATA[
document.addEventListener('DOMContentLoaded', (event) => {
  highlightEdges();
  highlightAdjacentNodes();
});
]]></script>
</svg>
