<?xml version="1.0" encoding="UTF-8" standalone="no"?>
<!DOCTYPE svg PUBLIC "-//W3C//DTD SVG 1.1//EN"
 "http://www.w3.org/Graphics/SVG/1.1/DTD/svg11.dtd">
<!-- Generated by graphviz version 13.1.2 (20250808.2320)
 -->
<!-- Title: gut_parameter Pages: 1 -->
<svg width="598pt" height="129pt"
 viewBox="0.00 0.00 598.00 129.00" xmlns="http://www.w3.org/2000/svg" xmlns:xlink="http://www.w3.org/1999/xlink">
<g id="graph0" class="graph" transform="scale(1 1) rotate(0) translate(4 124.5)">
<title>gut_parameter</title>
<!-- Node1 -->
<g id="Node000001" class="node">
<title>Node1</title>
<g id="a_Node000001"><a xlink:title=" ">
<polygon fill="#999999" stroke="#666666" points="589.75,-91.12 501.75,-91.12 501.75,-70.38 589.75,-70.38 589.75,-91.12"/>
<text xml:space="preserve" text-anchor="middle" x="545.75" y="-77.62" font-family="Helvetica,sans-Serif" font-size="10.00">gut_parameter</text>
</a>
</g>
</g>
<!-- Node2 -->
<g id="Node000002" class="node">
<title>Node2</title>
<g id="a_Node000002"><a xlink:href="kest__dict__extract_8c.html#aaf0af9bba0940d4cfe5a8286222f14be" target="_top" xlink:title=" ">
<polygon fill="white" stroke="#666666" points="465.75,-120.5 333.5,-120.5 333.5,-87 465.75,-87 465.75,-120.5"/>
<text xml:space="preserve" text-anchor="start" x="341.5" y="-107" font-family="Helvetica,sans-Serif" font-size="10.00">kest_extract_parameter</text>
<text xml:space="preserve" text-anchor="middle" x="399.62" y="-94.25" font-family="Helvetica,sans-Serif" font-size="10.00">_from_dict</text>
</a>
</g>
</g>
<!-- Node1&#45;&gt;Node2 -->
<g id="edge1_Node000001_Node000002" class="edge">
<title>Node1&#45;&gt;Node2</title>
<g id="a_edge1_Node000001_Node000002"><a xlink:title=" ">
<path fill="none" stroke="#63b8ff" d="M490.26,-89.45C482.41,-90.7 474.27,-92 466.23,-93.28"/>
<polygon fill="#63b8ff" stroke="#63b8ff" points="490.69,-92.92 500.01,-87.89 489.59,-86.01 490.69,-92.92"/>
</a>
</g>
</g>
<!-- Node10 -->
<g id="Node000010" class="node">
<title>Node10</title>
<g id="a_Node000010"><a xlink:href="kest__parameter_8c.html#a8232528422c7dd2a19b2f3cc4c1a25c0" target="_top" xlink:title=" ">
<polygon fill="white" stroke="#666666" points="458.25,-69.12 341,-69.12 341,-48.38 458.25,-48.38 458.25,-69.12"/>
<text xml:space="preserve" text-anchor="middle" x="399.62" y="-55.62" font-family="Helvetica,sans-Serif" font-size="10.00">kest_parameter_free</text>
</a>
</g>
</g>
<!-- Node1&#45;&gt;Node10 -->
<g id="edge4_Node000001_Node000010" class="edge">
<title>Node1&#45;&gt;Node10</title>
<g id="a_edge4_Node000001_Node000010"><a xlink:title=" ">
<path fill="none" stroke="#63b8ff" d="M490.44,-72.46C480.01,-70.87 469.05,-69.19 458.5,-67.59"/>
<polygon fill="#63b8ff" stroke="#63b8ff" points="489.6,-75.87 500.01,-73.92 490.65,-68.95 489.6,-75.87"/>
</a>
</g>
</g>
<!-- Node3 -->
<g id="Node000003" class="node">
<title>Node3</title>
<g id="a_Node000003"><a xlink:href="kest__eff__section_8c.html#a5fe6d5cd354aa8f4322524ecc9b6af63" target="_top" xlink:title=" ">
<polygon fill="white" stroke="#666666" points="297.5,-120.5 159.25,-120.5 159.25,-87 297.5,-87 297.5,-120.5"/>
<text xml:space="preserve" text-anchor="start" x="167.25" y="-107" font-family="Helvetica,sans-Serif" font-size="10.00">kest_parameters_section</text>
<text xml:space="preserve" text-anchor="middle" x="228.38" y="-94.25" font-family="Helvetica,sans-Serif" font-size="10.00">_extract</text>
</a>
</g>
</g>
<!-- Node2&#45;&gt;Node3 -->
<g id="edge2_Node000002_Node000003" class="edge">
<title>Node2&#45;&gt;Node3</title>
<g id="a_edge2_Node000002_Node000003"><a xlink:title=" ">
<path fill="none" stroke="#63b8ff" d="M321.7,-103.75C313.8,-103.75 305.8,-103.75 298,-103.75"/>
<polygon fill="#63b8ff" stroke="#63b8ff" points="321.68,-107.25 331.67,-103.75 321.67,-100.25 321.68,-107.25"/>
</a>
</g>
</g>
<!-- Node4 -->
<g id="Node000004" class="node">
<title>Node4</title>
<g id="a_Node000004"><a xlink:href="kest__eff__parser_8c.html#a73ef6962d1925857ec3e4b12d1aad834" target="_top" xlink:title=" ">
<polygon fill="#fff0f0" stroke="red" points="114.62,-114.12 8.62,-114.12 8.62,-93.38 114.62,-93.38 114.62,-114.12"/>
<text xml:space="preserve" text-anchor="middle" x="61.62" y="-100.62" font-family="Helvetica,sans-Serif" font-size="10.00">kest_parse_tokens</text>
</a>
</g>
</g>
<!-- Node3&#45;&gt;Node4 -->
<g id="edge3_Node000003_Node000004" class="edge">
<title>Node3&#45;&gt;Node4</title>
<g id="a_edge3_Node000003_Node000004"><a xlink:title=" ">
<path fill="none" stroke="#63b8ff" d="M147.5,-103.75C136.47,-103.75 125.38,-103.75 115.02,-103.75"/>
<polygon fill="#63b8ff" stroke="#63b8ff" points="147.42,-107.25 157.42,-103.75 147.42,-100.25 147.42,-107.25"/>
</a>
</g>
</g>
<!-- Node11 -->
<g id="Node000011" class="node">
<title>Node11</title>
<g id="a_Node000011"><a xlink:href="kest__effect_8c.html#a09f04708e6ffd20ecaba2c10460cb1eb" target="_top" xlink:title=" ">
<polygon fill="white" stroke="#666666" points="263,-69.12 193.75,-69.12 193.75,-48.38 263,-48.38 263,-69.12"/>
<text xml:space="preserve" text-anchor="middle" x="228.38" y="-55.62" font-family="Helvetica,sans-Serif" font-size="10.00">free_effect</text>
</a>
</g>
</g>
<!-- Node10&#45;&gt;Node11 -->
<g id="edge5_Node000010_Node000011" class="edge">
<title>Node10&#45;&gt;Node11</title>
<g id="a_edge5_Node000010_Node000011"><a xlink:title=" ">
<path fill="none" stroke="#63b8ff" d="M329.44,-58.75C306.6,-58.75 282.2,-58.75 263.22,-58.75"/>
<polygon fill="#63b8ff" stroke="#63b8ff" points="329.34,-62.25 339.34,-58.75 329.34,-55.25 329.34,-62.25"/>
</a>
</g>
</g>
<!-- Node12 -->
<g id="Node000012" class="node">
<title>Node12</title>
<g id="a_Node000012"><a xlink:href="kest__pipeline_8c.html#a840a0f31f2703ff6040d47245cc56c7a" target="_top" xlink:title=" ">
<polygon fill="#fff0f0" stroke="red" points="99.62,-72.12 23.62,-72.12 23.62,-51.38 99.62,-51.38 99.62,-72.12"/>
<text xml:space="preserve" text-anchor="middle" x="61.62" y="-58.62" font-family="Helvetica,sans-Serif" font-size="10.00">gut_pipeline</text>
</a>
</g>
</g>
<!-- Node11&#45;&gt;Node12 -->
<g id="edge6_Node000011_Node000012" class="edge">
<title>Node11&#45;&gt;Node12</title>
<g id="a_edge6_Node000011_Node000012"><a xlink:title=" ">
<path fill="none" stroke="#63b8ff" d="M182.26,-59.57C156.45,-60.04 124.46,-60.62 100.05,-61.07"/>
<polygon fill="#63b8ff" stroke="#63b8ff" points="182.19,-63.07 192.12,-59.39 182.06,-56.07 182.19,-63.07"/>
</a>
</g>
</g>
<!-- Node37 -->
<g id="Node000037" class="node">
<title>Node37</title>
<g id="a_Node000037"><a xlink:href="kest__pipeline_8c.html#a73cdb3a338dc34668b63859d87ba81b9" target="_top" xlink:title=" ">
<polygon fill="#fff0f0" stroke="red" points="123.25,-33.5 0,-33.5 0,0 123.25,0 123.25,-33.5"/>
<text xml:space="preserve" text-anchor="start" x="8" y="-20" font-family="Helvetica,sans-Serif" font-size="10.00">kest_pipeline_remove</text>
<text xml:space="preserve" text-anchor="middle" x="61.62" y="-7.25" font-family="Helvetica,sans-Serif" font-size="10.00">_effect</text>
</a>
</g>
</g>
<!-- Node11&#45;&gt;Node37 -->
<g id="edge7_Node000011_Node000037" class="edge">
<title>Node11&#45;&gt;Node37</title>
<g id="a_edge7_Node000011_Node000037"><a xlink:title=" ">
<path fill="none" stroke="#63b8ff" d="M182.5,-47.31C164.36,-42.69 143.14,-37.28 123.63,-32.3"/>
<polygon fill="#63b8ff" stroke="#63b8ff" points="181.62,-50.7 192.17,-49.78 183.35,-43.91 181.62,-50.7"/>
</a>
</g>
</g>
</g>
</svg>
