<?xml version="1.0" encoding="UTF-8" standalone="no"?>
<!DOCTYPE svg PUBLIC "-//W3C//DTD SVG 1.1//EN"
 "http://www.w3.org/Graphics/SVG/1.1/DTD/svg11.dtd">
<!-- Generated by graphviz version 13.1.2 (20250808.2320)
 -->
<!-- Title: sequence_listing_delete_button_cb Pages: 1 -->
<svg width="576pt" height="182pt"
 viewBox="0.00 0.00 576.00 182.00" xmlns="http://www.w3.org/2000/svg" xmlns:xlink="http://www.w3.org/1999/xlink">
<g id="graph0" class="graph" transform="scale(1 1) rotate(0) translate(4 177.75)">
<title>sequence_listing_delete_button_cb</title>
<!-- Node1 -->
<g id="Node000001" class="node">
<title>Node1</title>
<g id="a_Node000001"><a xlink:title=" ">
<polygon fill="#999999" stroke="#666666" points="133.75,-104.12 0,-104.12 0,-70.62 133.75,-70.62 133.75,-104.12"/>
<text xml:space="preserve" text-anchor="start" x="8" y="-90.62" font-family="Helvetica,sans-Serif" font-size="10.00">sequence_listing_delete</text>
<text xml:space="preserve" text-anchor="middle" x="66.88" y="-77.88" font-family="Helvetica,sans-Serif" font-size="10.00">_button_cb</text>
</a>
</g>
</g>
<!-- Node2 -->
<g id="Node000002" class="node">
<title>Node2</title>
<g id="a_Node000002"><a xlink:href="kest__context_8c.html#a89a9a7d285986c386193190edd9a5e00" target="_top" xlink:title=" ">
<polygon fill="white" stroke="#666666" points="304.25,-135.75 178.75,-135.75 178.75,-115 304.25,-115 304.25,-135.75"/>
<text xml:space="preserve" text-anchor="middle" x="241.5" y="-122.25" font-family="Helvetica,sans-Serif" font-size="10.00">cxt_remove_sequence</text>
</a>
</g>
</g>
<!-- Node1&#45;&gt;Node2 -->
<g id="edge1_Node000001_Node000002" class="edge">
<title>Node1&#45;&gt;Node2</title>
<g id="a_edge1_Node000001_Node000002"><a xlink:title=" ">
<path fill="none" stroke="#63b8ff" d="M134.12,-101.96C149.28,-105.29 165.3,-108.82 180.19,-112.1"/>
<polygon fill="#63b8ff" stroke="#63b8ff" points="179.32,-115.49 189.84,-114.22 180.83,-108.66 179.32,-115.49"/>
</a>
</g>
</g>
<!-- Node5 -->
<g id="Node000005" class="node">
<title>Node5</title>
<g id="a_Node000005"><a xlink:href="kest__menu_8c.html#a79f51bb10d3e6abf9e30a1577bf44bed" target="_top" xlink:title=" ">
<polygon fill="white" stroke="#666666" points="313.25,-78.75 169.75,-78.75 169.75,-58 313.25,-58 313.25,-78.75"/>
<text xml:space="preserve" text-anchor="middle" x="241.5" y="-65.25" font-family="Helvetica,sans-Serif" font-size="10.00">menu_page_remove_item</text>
</a>
</g>
</g>
<!-- Node1&#45;&gt;Node5 -->
<g id="edge4_Node000001_Node000005" class="edge">
<title>Node1&#45;&gt;Node5</title>
<g id="a_edge4_Node000001_Node000005"><a xlink:title=" ">
<path fill="none" stroke="#63b8ff" d="M134.12,-80.08C141.94,-79.22 149.99,-78.34 158,-77.46"/>
<polygon fill="#63b8ff" stroke="#63b8ff" points="158.21,-80.95 167.76,-76.38 157.44,-74 158.21,-80.95"/>
</a>
</g>
</g>
<!-- Node3 -->
<g id="Node000003" class="node">
<title>Node3</title>
<g id="a_Node000003"><a xlink:href="kest__sequence_8c.html#a6ff162921ceb28cfb5cb208e746ccea2" target="_top" xlink:title=" ">
<polygon fill="white" stroke="#666666" points="453.75,-173.75 366.5,-173.75 366.5,-153 453.75,-153 453.75,-173.75"/>
<text xml:space="preserve" text-anchor="middle" x="410.12" y="-160.25" font-family="Helvetica,sans-Serif" font-size="10.00">free_sequence</text>
</a>
</g>
</g>
<!-- Node2&#45;&gt;Node3 -->
<g id="edge2_Node000002_Node000003" class="edge">
<title>Node2&#45;&gt;Node3</title>
<g id="a_edge2_Node000002_Node000003"><a xlink:title=" ">
<path fill="none" stroke="#63b8ff" d="M289.8,-136.16C310.19,-140.81 334.14,-146.27 355.22,-151.08"/>
<polygon fill="#63b8ff" stroke="#63b8ff" points="354.26,-154.45 364.79,-153.26 355.82,-147.63 354.26,-154.45"/>
</a>
</g>
</g>
<!-- Node4 -->
<g id="Node000004" class="node">
<title>Node4</title>
<g id="a_Node000004"><a xlink:href="kest__alloc_8c.html#a294af5728a94aa316fcf65304d388d48" target="_top" xlink:title=" ">
<polygon fill="white" stroke="#666666" points="568,-97.75 507,-97.75 507,-77 568,-77 568,-97.75"/>
<text xml:space="preserve" text-anchor="middle" x="537.5" y="-84.25" font-family="Helvetica,sans-Serif" font-size="10.00">kest_free</text>
</a>
</g>
</g>
<!-- Node2&#45;&gt;Node4 -->
<g id="edge3_Node000002_Node000004" class="edge">
<title>Node2&#45;&gt;Node4</title>
<g id="a_edge3_Node000002_Node000004"><a xlink:title=" ">
<path fill="none" stroke="#63b8ff" d="M304.49,-117.36C362.04,-109.92 446.08,-99.06 495.64,-92.66"/>
<polygon fill="#63b8ff" stroke="#63b8ff" points="495.89,-96.15 505.36,-91.4 495,-89.21 495.89,-96.15"/>
</a>
</g>
</g>
<!-- Node5&#45;&gt;Node4 -->
<g id="edge8_Node000005_Node000004" class="edge">
<title>Node5&#45;&gt;Node4</title>
<g id="a_edge8_Node000005_Node000004"><a xlink:title=" ">
<path fill="none" stroke="#63b8ff" d="M313.67,-72.97C370.54,-76.65 448.26,-81.67 495.28,-84.71"/>
<polygon fill="#63b8ff" stroke="#63b8ff" points="494.83,-88.19 505.03,-85.34 495.28,-81.2 494.83,-88.19"/>
</a>
</g>
</g>
<!-- Node6 -->
<g id="Node000006" class="node">
<title>Node6</title>
<g id="a_Node000006"><a xlink:href="kest__menu_8c.html#a75dd55efbef5c8ee5374ce453388536b" target="_top" xlink:title=" ">
<polygon fill="white" stroke="#666666" points="471,-59.75 349.25,-59.75 349.25,-39 471,-39 471,-59.75"/>
<text xml:space="preserve" text-anchor="middle" x="410.12" y="-46.25" font-family="Helvetica,sans-Serif" font-size="10.00">delete_menu_item_ui</text>
</a>
</g>
</g>
<!-- Node5&#45;&gt;Node6 -->
<g id="edge5_Node000005_Node000006" class="edge">
<title>Node5&#45;&gt;Node6</title>
<g id="a_edge5_Node000005_Node000006"><a xlink:title=" ">
<path fill="none" stroke="#63b8ff" d="M313.65,-60.26C321.64,-59.35 329.79,-58.42 337.79,-57.51"/>
<polygon fill="#63b8ff" stroke="#63b8ff" points="337.92,-61.02 347.46,-56.41 337.13,-54.06 337.92,-61.02"/>
</a>
</g>
</g>
<!-- Node7 -->
<g id="Node000007" class="node">
<title>Node7</title>
<g id="a_Node000007"><a xlink:href="kest__menu_8c.html#aebe40b8ddcc4ba16b20772010ad1f97c" target="_top" xlink:title=" ">
<polygon fill="white" stroke="#666666" points="458.25,-20.75 362,-20.75 362,0 458.25,0 458.25,-20.75"/>
<text xml:space="preserve" text-anchor="middle" x="410.12" y="-7.25" font-family="Helvetica,sans-Serif" font-size="10.00">free_menu_item</text>
</a>
</g>
</g>
<!-- Node5&#45;&gt;Node7 -->
<g id="edge6_Node000005_Node000007" class="edge">
<title>Node5&#45;&gt;Node7</title>
<g id="a_edge6_Node000005_Node000007"><a xlink:title=" ">
<path fill="none" stroke="#63b8ff" d="M272.35,-57.57C293.73,-49.88 323.21,-39.36 349.25,-30.38 354.62,-28.52 360.26,-26.6 365.86,-24.72"/>
<polygon fill="#63b8ff" stroke="#63b8ff" points="366.66,-28.14 375.02,-21.64 364.43,-21.5 366.66,-28.14"/>
</a>
</g>
</g>
<!-- Node7&#45;&gt;Node4 -->
<g id="edge7_Node000007_Node000004" class="edge">
<title>Node7&#45;&gt;Node4</title>
<g id="a_edge7_Node000007_Node000004"><a xlink:title=" ">
<path fill="none" stroke="#63b8ff" d="M450.74,-21.14C457.7,-23.72 464.72,-26.79 471,-30.38 489.08,-40.71 506.72,-56.48 519.13,-68.82"/>
<polygon fill="#63b8ff" stroke="#63b8ff" points="516.28,-70.91 525.77,-75.62 521.28,-66.02 516.28,-70.91"/>
</a>
</g>
</g>
</g>
</svg>
