<?xml version="1.0" encoding="UTF-8" standalone="no"?>
<!DOCTYPE svg PUBLIC "-//W3C//DTD SVG 1.1//EN"
 "http://www.w3.org/Graphics/SVG/1.1/DTD/svg11.dtd">
<!-- Generated by graphviz version 13.1.2 (20250808.2320)
 -->
<!-- Title: kest_string_to_native Pages: 1 -->
<!--zoomable 275 -->

<svg id="main" version="1.1" xmlns="http://www.w3.org/2000/svg" xmlns:xlink="http://www.w3.org/1999/xlink" xml:space="preserve" onload="init(evt)">

<style type="text/css"><![CDATA[
.node, .edge {opacity: 0.7;}
.node.selected, .edge.selected {opacity: 1;}
.edge:hover path { stroke: red; }
.edge:hover polygon { stroke: red; fill: red; }
]]></style>

<defs>
  <circle id="rim" cx="0" cy="0" r="7"/>
  <circle id="rim2" cx="0" cy="0" r="3.5"/>
  <g id="zoomPlus">
    <use xlink:href="#rim" fill="#404040"><set attributeName="fill" to="#808080" begin="zoomplus.mouseover" end="zoomplus.mouseout"/></use>
    <path d="M-4,0h8M0,-4v8" fill="none" stroke="white" stroke-width="1.5" pointer-events="none"/>
  </g>
  <g id="zoomMin">
    <use xlink:href="#rim" fill="#404040"><set attributeName="fill" to="#808080" begin="zoomminus.mouseover" end="zoomminus.mouseout"/></use>
    <path d="M-4,0h8" fill="none" stroke="white" stroke-width="1.5" pointer-events="none"/>
  </g>
  <g id="arrowUp" transform="translate(30 24)">
    <use xlink:href="#rim"/>
    <path pointer-events="none" fill="none" stroke="white" stroke-width="1.5" d="M0,-3.0v7 M-2.5,-0.5L0,-3.0L2.5,-0.5"/>
  </g>
  <g id="arrowRight" transform="rotate(90) translate(36 -43)">
    <use xlink:href="#rim"/>
    <path pointer-events="none" fill="none" stroke="white" stroke-width="1.5" d="M0,-3.0v7 M-2.5,-0.5L0,-3.0L2.5,-0.5"/>
  </g>
  <g id="arrowDown" transform="rotate(180) translate(-30 -48)">
    <use xlink:href="#rim"/>
    <path pointer-events="none" fill="none" stroke="white" stroke-width="1.5" d="M0,-3.0v7 M-2.5,-0.5L0,-3.0L2.5,-0.5"/>
  </g>
  <g id="arrowLeft" transform="rotate(270) translate(-36 17)">
    <use xlink:href="#rim"/>
    <path pointer-events="none" fill="none" stroke="white" stroke-width="1.5" d="M0,-3.0v7 M-2.5,-0.5L0,-3.0L2.5,-0.5"/>
  </g>
  <g id="resetDef">
    <use xlink:href="#rim2" fill="#404040"><set attributeName="fill" to="#808080" begin="reset.mouseover" end="reset.mouseout"/></use>
  </g>
</defs>
<script type="application/ecmascript">
var viewWidth = 788;
var viewHeight = 275;
var sectionId = 'dynsection-17';
</script>
<script type="application/ecmascript" xlink:href="svg.min.js"/>
<svg id="graph" class="graph">
<g id="viewport">
<title>kest_string_to_native</title>
<!-- Node1 -->
<g id="Node000001" class="node">
<title>Node1</title>
<g id="a_Node000001"><a xlink:title=" ">
<polygon fill="#999999" stroke="#666666" points="779.75,-96.75 659.5,-96.75 659.5,-76 779.75,-76 779.75,-96.75"/>
<text xml:space="preserve" text-anchor="middle" x="719.62" y="-83.25" font-family="Helvetica,sans-Serif" font-size="10.00">kest_string_to_native</text>
</a>
</g>
</g>
<!-- Node2 -->
<g id="Node000002" class="node">
<title>Node2</title>
<g id="a_Node000002"><a xlink:href="kest__fixed__point_8c.html#ac5145d24cb0e25a237f9c8d30b8fc0d2" target="_top" xlink:title=" ">
<polygon fill="white" stroke="#666666" points="623.5,-215.12 480.75,-215.12 480.75,-181.62 623.5,-181.62 623.5,-215.12"/>
<text xml:space="preserve" text-anchor="start" x="488.75" y="-201.62" font-family="Helvetica,sans-Serif" font-size="10.00">kest_expression_compute</text>
<text xml:space="preserve" text-anchor="middle" x="552.12" y="-188.88" font-family="Helvetica,sans-Serif" font-size="10.00">_format</text>
</a>
</g>
</g>
<!-- Node1&#45;&gt;Node2 -->
<g id="edge1_Node000001_Node000002" class="edge">
<title>Node1&#45;&gt;Node2</title>
<g id="a_edge1_Node000001_Node000002"><a xlink:title=" ">
<path fill="none" stroke="#63b8ff" d="M696.09,-104.33C677.14,-119.16 649.11,-140.43 623.5,-157.38 611,-165.64 596.78,-174.09 584.42,-181.16"/>
<polygon fill="#63b8ff" stroke="#63b8ff" points="698.24,-107.1 703.93,-98.16 693.91,-101.6 698.24,-107.1"/>
</a>
</g>
</g>
<!-- Node11 -->
<g id="Node000011" class="node">
<title>Node11</title>
<g id="a_Node000011"><a xlink:href="kest__dict__extract_8c.html#ac9cee86a595df863e15b7693b86635b7" target="_top" xlink:title=" ">
<polygon fill="white" stroke="#666666" points="604.38,-148.12 499.88,-148.12 499.88,-114.62 604.38,-114.62 604.38,-148.12"/>
<text xml:space="preserve" text-anchor="start" x="507.88" y="-134.62" font-family="Helvetica,sans-Serif" font-size="10.00">kest_extract_filter</text>
<text xml:space="preserve" text-anchor="middle" x="552.12" y="-121.88" font-family="Helvetica,sans-Serif" font-size="10.00">_coefs_from_dict</text>
</a>
</g>
</g>
<!-- Node1&#45;&gt;Node11 -->
<g id="edge6_Node000001_Node000011" class="edge">
<title>Node1&#45;&gt;Node11</title>
<g id="a_edge6_Node000001_Node000011"><a xlink:title=" ">
<path fill="none" stroke="#63b8ff" d="M667.87,-100.17C647.82,-105.63 624.8,-111.89 604.66,-117.36"/>
<polygon fill="#63b8ff" stroke="#63b8ff" points="668.79,-103.55 677.52,-97.55 666.96,-96.8 668.79,-103.55"/>
</a>
</g>
</g>
<!-- Node17 -->
<g id="Node000017" class="node">
<title>Node17</title>
<g id="a_Node000017"><a xlink:href="kest__dictionary_8c.html#a8db4f9c511b00d7240052135e9c1ed67" target="_top" xlink:title=" ">
<polygon fill="white" stroke="#666666" points="608.12,-96.75 496.12,-96.75 496.12,-76 608.12,-76 608.12,-96.75"/>
<text xml:space="preserve" text-anchor="middle" x="552.12" y="-83.25" font-family="Helvetica,sans-Serif" font-size="10.00">kest_parse_dict_list</text>
</a>
</g>
</g>
<!-- Node1&#45;&gt;Node17 -->
<g id="edge11_Node000001_Node000017" class="edge">
<title>Node1&#45;&gt;Node17</title>
<g id="a_edge11_Node000001_Node000017"><a xlink:title=" ">
<path fill="none" stroke="#63b8ff" d="M647.88,-86.38C634.68,-86.38 621.06,-86.38 608.4,-86.38"/>
<polygon fill="#63b8ff" stroke="#63b8ff" points="647.83,-89.88 657.83,-86.38 647.83,-82.88 647.83,-89.88"/>
</a>
</g>
</g>
<!-- Node18 -->
<g id="Node000018" class="node">
<title>Node18</title>
<g id="a_Node000018"><a xlink:href="kest__dictionary_8c.html#af0aceaa93cba06fd44ad4bc50f2418e4" target="_top" xlink:title=" ">
<polygon fill="white" stroke="#666666" points="437.25,-59.75 325.25,-59.75 325.25,-39 437.25,-39 437.25,-59.75"/>
<text xml:space="preserve" text-anchor="middle" x="381.25" y="-46.25" font-family="Helvetica,sans-Serif" font-size="10.00">kest_parse_dict_val</text>
</a>
</g>
</g>
<!-- Node1&#45;&gt;Node18 -->
<g id="edge17_Node000001_Node000018" class="edge">
<title>Node1&#45;&gt;Node18</title>
<g id="a_edge17_Node000001_Node000018"><a xlink:title=" ">
<path fill="none" stroke="#63b8ff" d="M659.3,-73.36C647.49,-71.1 635.13,-68.96 623.5,-67.38 560.04,-58.7 486.58,-53.98 437.55,-51.57"/>
<polygon fill="#63b8ff" stroke="#63b8ff" points="658.45,-76.76 668.94,-75.26 659.81,-69.89 658.45,-76.76"/>
</a>
</g>
</g>
<!-- Node21 -->
<g id="Node000021" class="node">
<title>Node21</title>
<g id="a_Node000021"><a xlink:href="kest__dictionary_8c.html#a2a60847422026db5eab8103cd8ea1dc5" target="_top" xlink:title=" ">
<polygon fill="white" stroke="#666666" points="251,-20.75 189.25,-20.75 189.25,0 251,0 251,-20.75"/>
<text xml:space="preserve" text-anchor="middle" x="220.12" y="-7.25" font-family="Helvetica,sans-Serif" font-size="10.00">print_dict</text>
</a>
</g>
</g>
<!-- Node1&#45;&gt;Node21 -->
<g id="edge18_Node000001_Node000021" class="edge">
<title>Node1&#45;&gt;Node21</title>
<g id="a_edge18_Node000001_Node000021"><a xlink:title=" ">
<path fill="none" stroke="#63b8ff" d="M684.82,-71.21C666.93,-63.8 644.4,-55.41 623.5,-50.38 487.35,-17.55 319.04,-11.59 251.38,-10.56"/>
<polygon fill="#63b8ff" stroke="#63b8ff" points="683.33,-74.38 693.91,-75.07 686.07,-67.94 683.33,-74.38"/>
</a>
</g>
</g>
<!-- Node3 -->
<g id="Node000003" class="node">
<title>Node3</title>
<g id="a_Node000003"><a xlink:href="kest__reg__format_8c.html#a2a23995382c692cce714a167deb0b94c" target="_top" xlink:title=" ">
<polygon fill="white" stroke="#666666" points="444.75,-267.12 317.75,-267.12 317.75,-233.62 444.75,-233.62 444.75,-267.12"/>
<text xml:space="preserve" text-anchor="start" x="325.75" y="-253.62" font-family="Helvetica,sans-Serif" font-size="10.00">kest_compute_register</text>
<text xml:space="preserve" text-anchor="middle" x="381.25" y="-240.88" font-family="Helvetica,sans-Serif" font-size="10.00">_formats</text>
</a>
</g>
</g>
<!-- Node2&#45;&gt;Node3 -->
<g id="edge2_Node000002_Node000003" class="edge">
<title>Node2&#45;&gt;Node3</title>
<g id="a_edge2_Node000002_Node000003"><a xlink:title=" ">
<path fill="none" stroke="#63b8ff" d="M484.4,-218.92C469.12,-223.63 453.02,-228.58 438.24,-233.13"/>
<polygon fill="#63b8ff" stroke="#63b8ff" points="485.39,-222.28 493.91,-215.99 483.33,-215.59 485.39,-222.28"/>
</a>
</g>
</g>
<!-- Node10 -->
<g id="Node000010" class="node">
<title>Node10</title>
<g id="a_Node000010"><a xlink:href="kest__fixed__point_8c.html#af6f5122d04445665987167d50319ac6f" target="_top" xlink:title=" ">
<polygon fill="white" stroke="#666666" points="437.62,-215.12 324.88,-215.12 324.88,-181.62 437.62,-181.62 437.62,-215.12"/>
<text xml:space="preserve" text-anchor="start" x="332.88" y="-201.62" font-family="Helvetica,sans-Serif" font-size="10.00">kest_filter_compute</text>
<text xml:space="preserve" text-anchor="middle" x="381.25" y="-188.88" font-family="Helvetica,sans-Serif" font-size="10.00">_format</text>
</a>
</g>
</g>
<!-- Node2&#45;&gt;Node10 -->
<g id="edge4_Node000002_Node000010" class="edge">
<title>Node2&#45;&gt;Node10</title>
<g id="a_edge4_Node000002_Node000010"><a xlink:title=" ">
<path fill="none" stroke="#63b8ff" d="M469.1,-198.38C458.55,-198.38 447.96,-198.38 437.97,-198.38"/>
<polygon fill="#63b8ff" stroke="#63b8ff" points="468.97,-201.88 478.97,-198.38 468.97,-194.88 468.97,-201.88"/>
</a>
</g>
</g>
<!-- Node4 -->
<g id="Node000004" class="node">
<title>Node4</title>
<g id="a_Node000004"><a xlink:href="kest__eff__parser_8c.html#a745050bced3ccd568a1223c9f6a416e0" target="_top" xlink:title=" ">
<polygon fill="#fff0f0" stroke="red" points="280.25,-241.12 160,-241.12 160,-207.62 280.25,-207.62 280.25,-241.12"/>
<text xml:space="preserve" text-anchor="start" x="168" y="-227.62" font-family="Helvetica,sans-Serif" font-size="10.00">kest_parser_compute</text>
<text xml:space="preserve" text-anchor="middle" x="220.12" y="-214.88" font-family="Helvetica,sans-Serif" font-size="10.00">_formats</text>
</a>
</g>
</g>
<!-- Node3&#45;&gt;Node4 -->
<g id="edge3_Node000003_Node000004" class="edge">
<title>Node3&#45;&gt;Node4</title>
<g id="a_edge3_Node000003_Node000004"><a xlink:title=" ">
<path fill="none" stroke="#63b8ff" d="M306.21,-238.28C297.66,-236.88 289.03,-235.47 280.71,-234.11"/>
<polygon fill="#63b8ff" stroke="#63b8ff" points="305.43,-241.7 315.87,-239.86 306.56,-234.79 305.43,-241.7"/>
</a>
</g>
</g>
<!-- Node10&#45;&gt;Node4 -->
<g id="edge5_Node000010_Node000004" class="edge">
<title>Node10&#45;&gt;Node4</title>
<g id="a_edge5_Node000010_Node000004"><a xlink:title=" ">
<path fill="none" stroke="#63b8ff" d="M313.38,-209.3C302.48,-211.08 291.25,-212.92 280.54,-214.67"/>
<polygon fill="#63b8ff" stroke="#63b8ff" points="313.8,-212.78 323.1,-207.71 312.67,-205.87 313.8,-212.78"/>
</a>
</g>
</g>
<!-- Node12 -->
<g id="Node000012" class="node">
<title>Node12</title>
<g id="a_Node000012"><a xlink:href="kest__dict__extract_8c.html#ab7acbd0287c39e5bbb08575fa2a61291" target="_top" xlink:title=" ">
<polygon fill="white" stroke="#666666" points="438.38,-163.12 324.12,-163.12 324.12,-129.62 438.38,-129.62 438.38,-163.12"/>
<text xml:space="preserve" text-anchor="start" x="332.12" y="-149.62" font-family="Helvetica,sans-Serif" font-size="10.00">kest_extract_biquad</text>
<text xml:space="preserve" text-anchor="middle" x="381.25" y="-136.88" font-family="Helvetica,sans-Serif" font-size="10.00">_from_dict</text>
</a>
</g>
</g>
<!-- Node11&#45;&gt;Node12 -->
<g id="edge7_Node000011_Node000012" class="edge">
<title>Node11&#45;&gt;Node12</title>
<g id="a_edge7_Node000011_Node000012"><a xlink:title=" ">
<path fill="none" stroke="#63b8ff" d="M488.49,-136.94C472.2,-138.39 454.76,-139.93 438.81,-141.35"/>
<polygon fill="#63b8ff" stroke="#63b8ff" points="488.38,-140.46 498.03,-136.09 487.76,-133.49 488.38,-140.46"/>
</a>
</g>
</g>
<!-- Node16 -->
<g id="Node000016" class="node">
<title>Node16</title>
<g id="a_Node000016"><a xlink:href="kest__dict__extract_8c.html#a449de50461a34d20bba301a90a39ec05" target="_top" xlink:title=" ">
<polygon fill="white" stroke="#666666" points="433.5,-111.12 329,-111.12 329,-77.62 433.5,-77.62 433.5,-111.12"/>
<text xml:space="preserve" text-anchor="start" x="337" y="-97.62" font-family="Helvetica,sans-Serif" font-size="10.00">kest_extract_filter</text>
<text xml:space="preserve" text-anchor="middle" x="381.25" y="-84.88" font-family="Helvetica,sans-Serif" font-size="10.00">_from_dict</text>
</a>
</g>
</g>
<!-- Node11&#45;&gt;Node16 -->
<g id="edge9_Node000011_Node000016" class="edge">
<title>Node11&#45;&gt;Node16</title>
<g id="a_edge9_Node000011_Node000016"><a xlink:title=" ">
<path fill="none" stroke="#63b8ff" d="M488.54,-117.66C470.52,-113.71 451.08,-109.46 433.81,-105.67"/>
<polygon fill="#63b8ff" stroke="#63b8ff" points="487.54,-121.03 498.06,-119.75 489.04,-114.19 487.54,-121.03"/>
</a>
</g>
</g>
<!-- Node13 -->
<g id="Node000013" class="node">
<title>Node13</title>
<g id="a_Node000013"><a xlink:href="kest__dict__extract_8c.html#ad78dabb9f962180138c9dfc2bf1731e3" target="_top" xlink:title=" ">
<polygon fill="#fff0f0" stroke="red" points="281.75,-137.12 158.5,-137.12 158.5,-103.62 281.75,-103.62 281.75,-137.12"/>
<text xml:space="preserve" text-anchor="start" x="166.5" y="-123.62" font-family="Helvetica,sans-Serif" font-size="10.00">kest_extract_resource</text>
<text xml:space="preserve" text-anchor="middle" x="220.12" y="-110.88" font-family="Helvetica,sans-Serif" font-size="10.00">_from_dict</text>
</a>
</g>
</g>
<!-- Node12&#45;&gt;Node13 -->
<g id="edge8_Node000012_Node000013" class="edge">
<title>Node12&#45;&gt;Node13</title>
<g id="a_edge8_Node000012_Node000013"><a xlink:title=" ">
<path fill="none" stroke="#63b8ff" d="M312.45,-135.3C302.36,-133.65 292.02,-131.96 282.08,-130.33"/>
<polygon fill="#63b8ff" stroke="#63b8ff" points="311.77,-138.73 322.21,-136.89 312.9,-131.82 311.77,-138.73"/>
</a>
</g>
</g>
<!-- Node16&#45;&gt;Node13 -->
<g id="edge10_Node000016_Node000013" class="edge">
<title>Node16&#45;&gt;Node13</title>
<g id="a_edge10_Node000016_Node000013"><a xlink:title=" ">
<path fill="none" stroke="#63b8ff" d="M317.25,-104.67C305.72,-106.55 293.7,-108.52 282.23,-110.39"/>
<polygon fill="#63b8ff" stroke="#63b8ff" points="317.79,-108.13 327.09,-103.06 316.66,-101.22 317.79,-108.13"/>
</a>
</g>
</g>
<!-- Node17&#45;&gt;Node18 -->
<g id="edge12_Node000017_Node000018" class="edge">
<title>Node17&#45;&gt;Node18</title>
<g id="a_edge12_Node000017_Node000018"><a xlink:title=" ">
<path fill="none" stroke="#63b8ff" d="M513.67,-72.45C491.27,-66.44 462.4,-59.9 437.43,-55.09"/>
<polygon fill="#63b8ff" stroke="#63b8ff" points="512.71,-75.82 523.28,-75.13 514.59,-69.07 512.71,-75.82"/>
</a>
</g>
</g>
<!-- Node18&#45;&gt;Node17 -->
<g id="edge13_Node000018_Node000017" class="edge">
<title>Node18&#45;&gt;Node17</title>
<g id="a_edge13_Node000018_Node000017"><a xlink:title=" ">
<path fill="none" stroke="#63b8ff" d="M419.38,-63.21C441.79,-69.24 470.76,-75.81 495.83,-80.64"/>
<polygon fill="#63b8ff" stroke="#63b8ff" points="420.35,-59.85 409.78,-60.53 418.47,-66.59 420.35,-59.85"/>
</a>
</g>
</g>
<!-- Node19 -->
<g id="Node000019" class="node">
<title>Node19</title>
<g id="a_Node000019"><a xlink:href="kest__dictionary_8c.html#aae3fbdeba250be8f6dd3dfa686eb24a8" target="_top" xlink:title=" ">
<polygon fill="white" stroke="#666666" points="281.38,-59.75 158.88,-59.75 158.88,-39 281.38,-39 281.38,-59.75"/>
<text xml:space="preserve" text-anchor="middle" x="220.12" y="-46.25" font-family="Helvetica,sans-Serif" font-size="10.00">kest_parse_dictionary</text>
</a>
</g>
</g>
<!-- Node18&#45;&gt;Node19 -->
<g id="edge14_Node000018_Node000019" class="edge">
<title>Node18&#45;&gt;Node19</title>
<g id="a_edge14_Node000018_Node000019"><a xlink:title=" ">
<path fill="none" stroke="#63b8ff" d="M313.68,-42.71C303.07,-42.57 292.14,-42.6 281.67,-42.8"/>
<polygon fill="#63b8ff" stroke="#63b8ff" points="313.47,-46.2 323.53,-42.89 313.6,-39.2 313.47,-46.2"/>
</a>
</g>
</g>
<!-- Node19&#45;&gt;Node18 -->
<g id="edge15_Node000019_Node000018" class="edge">
<title>Node19&#45;&gt;Node18</title>
<g id="a_edge15_Node000019_Node000018"><a xlink:title=" ">
<path fill="none" stroke="#63b8ff" d="M293.17,-56.1C303.87,-56.17 314.76,-56.09 325.04,-55.84"/>
<polygon fill="#63b8ff" stroke="#63b8ff" points="293.23,-52.6 283.18,-55.97 293.14,-59.6 293.23,-52.6"/>
</a>
</g>
</g>
<!-- Node20 -->
<g id="Node000020" class="node">
<title>Node20</title>
<g id="a_Node000020"><a xlink:href="kest__eff__section_8c.html#a4de28fb64398c9194136a2ced71e2795" target="_top" xlink:title=" ">
<polygon fill="#fff0f0" stroke="red" points="122.5,-46.12 0,-46.12 0,-12.62 122.5,-12.62 122.5,-46.12"/>
<text xml:space="preserve" text-anchor="start" x="8" y="-32.62" font-family="Helvetica,sans-Serif" font-size="10.00">kest_parse_dictionary</text>
<text xml:space="preserve" text-anchor="middle" x="61.25" y="-19.88" font-family="Helvetica,sans-Serif" font-size="10.00">_section</text>
</a>
</g>
</g>
<!-- Node19&#45;&gt;Node20 -->
<g id="edge16_Node000019_Node000020" class="edge">
<title>Node19&#45;&gt;Node20</title>
<g id="a_edge16_Node000019_Node000020"><a xlink:title=" ">
<path fill="none" stroke="#63b8ff" d="M147.15,-40.2C139.08,-39.17 130.91,-38.13 123,-37.12"/>
<polygon fill="#63b8ff" stroke="#63b8ff" points="146.61,-43.66 156.97,-41.45 147.49,-36.71 146.61,-43.66"/>
</a>
</g>
</g>
<!-- Node21&#45;&gt;Node20 -->
<g id="edge19_Node000021_Node000020" class="edge">
<title>Node21&#45;&gt;Node20</title>
<g id="a_edge19_Node000021_Node000020"><a xlink:title=" ">
<path fill="none" stroke="#63b8ff" d="M177.78,-15.38C161.01,-17.41 141.28,-19.8 122.93,-22.03"/>
<polygon fill="#63b8ff" stroke="#63b8ff" points="177.87,-18.9 187.38,-14.22 177.03,-11.95 177.87,-18.9"/>
</a>
</g>
</g>
</g>
</svg>

<g id="navigator" transform="translate(0 0)" fill="#404254">
  <rect fill="#f2f5e9" fill-opacity="0.5" stroke="#606060" stroke-width=".5" x="0" y="0" width="60" height="60"/>
  <use id="zoomplus" xlink:href="#zoomPlus" x="17" y="9" onmousedown="handleZoom(evt,'in')"/>
  <use id="zoomminus" xlink:href="#zoomMin" x="42" y="9" onmousedown="handleZoom(evt,'out')"/>
  <use id="reset" xlink:href="#resetDef" x="30" y="36" onmousedown="handleReset()"/>
   <use id="arrowup" xlink:href="#arrowUp" x="0" y="0" onmousedown="handlePan(0,-1)"/>
  <use id="arrowright" xlink:href="#arrowRight" x="0" y="0" onmousedown="handlePan(1,0)"/>
  <use id="arrowdown" xlink:href="#arrowDown" x="0" y="0" onmousedown="handlePan(0,1)"/>
  <use id="arrowleft" xlink:href="#arrowLeft" x="0" y="0" onmousedown="handlePan(-1,0)"/>
</g>
<svg viewBox="0 0 15 15" width="100%" height="30px" preserveAspectRatio="xMaxYMin meet">
 <g id="arrow_out" transform="scale(0.3 0.3)">
  <a xlink:href="kest__string_8h_a476a3ace857a6df4b94057b078a5bcb3_icgraph_org.svg" target="_base">
   <rect id="button" ry="5" rx="5" y="6" x="6" height="38" width="38"
        fill="#f2f5e9" fill-opacity="0.5" stroke="#606060" stroke-width="1.0"/>
   <path id="arrow"
     d="M 11.500037,31.436501 C 11.940474,20.09759 22.043105,11.32322 32.158766,21.979434 L 37.068811,17.246167 C 37.068811,17.246167 37.088388,32 37.088388,32 L 22.160133,31.978069 C 22.160133,31.978069 26.997745,27.140456 26.997745,27.140456 C 18.528582,18.264221 13.291696,25.230495 11.500037,31.436501 z"
     style="fill:#404040;"/>
  </a>
 </g>
</svg>

<style type='text/css'>
<![CDATA[
[data-mouse-over-selected='false'] { opacity: 0.7; }
[data-mouse-over-selected='true']  { opacity: 1.0; }
]]>
</style>
<script type="application/ecmascript"><![CDATA[
document.addEventListener('DOMContentLoaded', (event) => {
  highlightEdges();
  highlightAdjacentNodes();
});
]]></script>
</svg>
