<?xml version="1.0" encoding="UTF-8" standalone="no"?>
<!DOCTYPE svg PUBLIC "-//W3C//DTD SVG 1.1//EN"
 "http://www.w3.org/Graphics/SVG/1.1/DTD/svg11.dtd">
<!-- Generated by graphviz version 13.1.2 (20250808.2320)
 -->
<!-- Title: kest_expression_to_string Pages: 1 -->
<svg width="973pt" height="430pt"
 viewBox="0.00 0.00 973.00 430.00" xmlns="http://www.w3.org/2000/svg" xmlns:xlink="http://www.w3.org/1999/xlink">
<g id="graph0" class="graph" transform="scale(1 1) rotate(0) translate(4 426.12)">
<title>kest_expression_to_string</title>
<!-- Node1 -->
<g id="Node000001" class="node">
<title>Node1</title>
<g id="a_Node000001"><a xlink:title=" ">
<polygon fill="#999999" stroke="#666666" points="965.25,-243.5 855.5,-243.5 855.5,-210 965.25,-210 965.25,-243.5"/>
<text xml:space="preserve" text-anchor="start" x="863.5" y="-230" font-family="Helvetica,sans-Serif" font-size="10.00">kest_expression_to</text>
<text xml:space="preserve" text-anchor="middle" x="910.38" y="-217.25" font-family="Helvetica,sans-Serif" font-size="10.00">_string</text>
</a>
</g>
</g>
<!-- Node2 -->
<g id="Node000002" class="node">
<title>Node2</title>
<g id="a_Node000002"><a xlink:href="kest__dictionary_8c.html#a298bc3ea15bffee0e485de36aea099c2" target="_top" xlink:title=" ">
<polygon fill="white" stroke="#666666" points="800.75,-243.5 695.5,-243.5 695.5,-210 800.75,-210 800.75,-243.5"/>
<text xml:space="preserve" text-anchor="start" x="703.5" y="-230" font-family="Helvetica,sans-Serif" font-size="10.00">kest_dict_entry_to</text>
<text xml:space="preserve" text-anchor="middle" x="748.12" y="-217.25" font-family="Helvetica,sans-Serif" font-size="10.00">_string</text>
</a>
</g>
</g>
<!-- Node1&#45;&gt;Node2 -->
<g id="edge1_Node000001_Node000002" class="edge">
<title>Node1&#45;&gt;Node2</title>
<g id="a_edge1_Node000001_Node000002"><a xlink:title=" ">
<path fill="none" stroke="#63b8ff" d="M843.88,-226.75C829.65,-226.75 814.78,-226.75 801.15,-226.75"/>
<polygon fill="#63b8ff" stroke="#63b8ff" points="843.61,-230.25 853.61,-226.75 843.61,-223.25 843.61,-230.25"/>
</a>
</g>
</g>
<!-- Node4 -->
<g id="Node000004" class="node">
<title>Node4</title>
<g id="a_Node000004"><a xlink:href="kest__dict__extract_8c.html#ab7acbd0287c39e5bbb08575fa2a61291" target="_top" xlink:title=" ">
<polygon fill="#fff0f0" stroke="red" points="447.75,-374.5 333.5,-374.5 333.5,-341 447.75,-341 447.75,-374.5"/>
<text xml:space="preserve" text-anchor="start" x="341.5" y="-361" font-family="Helvetica,sans-Serif" font-size="10.00">kest_extract_biquad</text>
<text xml:space="preserve" text-anchor="middle" x="390.62" y="-348.25" font-family="Helvetica,sans-Serif" font-size="10.00">_from_dict</text>
</a>
</g>
</g>
<!-- Node1&#45;&gt;Node4 -->
<g id="edge22_Node000001_Node000004" class="edge">
<title>Node1&#45;&gt;Node4</title>
<g id="a_edge22_Node000001_Node000004"><a xlink:title=" ">
<path fill="none" stroke="#63b8ff" d="M888.29,-252.14C871.6,-270.42 846.64,-294.02 819.5,-306.75 696.57,-364.41 532.88,-365.95 448.01,-361.96"/>
<polygon fill="#63b8ff" stroke="#63b8ff" points="890.78,-254.6 894.79,-244.8 885.54,-249.96 890.78,-254.6"/>
</a>
</g>
</g>
<!-- Node13 -->
<g id="Node000013" class="node">
<title>Node13</title>
<g id="a_Node000013"><a xlink:href="kest__dict__extract_8c.html#a449de50461a34d20bba301a90a39ec05" target="_top" xlink:title=" ">
<polygon fill="#fff0f0" stroke="red" points="442.88,-310.5 338.38,-310.5 338.38,-277 442.88,-277 442.88,-310.5"/>
<text xml:space="preserve" text-anchor="start" x="346.38" y="-297" font-family="Helvetica,sans-Serif" font-size="10.00">kest_extract_filter</text>
<text xml:space="preserve" text-anchor="middle" x="390.62" y="-284.25" font-family="Helvetica,sans-Serif" font-size="10.00">_from_dict</text>
</a>
</g>
</g>
<!-- Node1&#45;&gt;Node13 -->
<g id="edge23_Node000001_Node000013" class="edge">
<title>Node1&#45;&gt;Node13</title>
<g id="a_edge23_Node000001_Node000013"><a xlink:title=" ">
<path fill="none" stroke="#63b8ff" d="M868.42,-248.98C853.34,-256.58 835.92,-264.69 819.5,-270.75 684.08,-320.73 641.53,-332.09 498,-316.75 479.96,-314.82 460.5,-311.11 443.21,-307.21"/>
<polygon fill="#63b8ff" stroke="#63b8ff" points="869.81,-252.2 877.1,-244.52 866.61,-245.98 869.81,-252.2"/>
</a>
</g>
</g>
<!-- Node19 -->
<g id="Node000019" class="node">
<title>Node19</title>
<g id="a_Node000019"><a xlink:href="kest__fixed__point_8c.html#ac5145d24cb0e25a237f9c8d30b8fc0d2" target="_top" xlink:title=" ">
<polygon fill="white" stroke="#666666" points="462,-72.5 319.25,-72.5 319.25,-39 462,-39 462,-72.5"/>
<text xml:space="preserve" text-anchor="start" x="327.25" y="-59" font-family="Helvetica,sans-Serif" font-size="10.00">kest_expression_compute</text>
<text xml:space="preserve" text-anchor="middle" x="390.62" y="-46.25" font-family="Helvetica,sans-Serif" font-size="10.00">_format</text>
</a>
</g>
</g>
<!-- Node1&#45;&gt;Node19 -->
<g id="edge13_Node000001_Node000019" class="edge">
<title>Node1&#45;&gt;Node19</title>
<g id="a_edge13_Node000001_Node000019"><a xlink:title=" ">
<path fill="none" stroke="#63b8ff" d="M895.84,-199.69C880.98,-173.08 854.51,-133.65 819.5,-113.75 760.03,-79.95 567.9,-64.87 462.48,-58.99"/>
<polygon fill="#63b8ff" stroke="#63b8ff" points="892.59,-201.05 900.41,-208.2 898.76,-197.74 892.59,-201.05"/>
</a>
</g>
</g>
<!-- Node23 -->
<g id="Node000023" class="node">
<title>Node23</title>
<g id="a_Node000023"><a xlink:href="kest__expression_8c.html#a12b486853cdfbc5ca334e74f9a90de2b" target="_top" xlink:title=" ">
<polygon fill="white" stroke="#666666" points="819.5,-33.5 676.75,-33.5 676.75,0 819.5,0 819.5,-33.5"/>
<text xml:space="preserve" text-anchor="start" x="684.75" y="-20" font-family="Helvetica,sans-Serif" font-size="10.00">kest_expression_compute</text>
<text xml:space="preserve" text-anchor="middle" x="748.12" y="-7.25" font-family="Helvetica,sans-Serif" font-size="10.00">_range_rec</text>
</a>
</g>
</g>
<!-- Node1&#45;&gt;Node23 -->
<g id="edge18_Node000001_Node000023" class="edge">
<title>Node1&#45;&gt;Node23</title>
<g id="a_edge18_Node000001_Node000023"><a xlink:title=" ">
<path fill="none" stroke="#63b8ff" d="M898.53,-199.07C884.2,-164.94 856.37,-106.47 819.5,-65.75 808.21,-53.28 793.17,-42.27 779.9,-33.86"/>
<polygon fill="#63b8ff" stroke="#63b8ff" points="895.27,-200.32 902.3,-208.25 901.74,-197.67 895.27,-200.32"/>
</a>
</g>
</g>
<!-- Node25 -->
<g id="Node000025" class="node">
<title>Node25</title>
<g id="a_Node000025"><a xlink:href="kest__dict__extract_8c.html#aaf0af9bba0940d4cfe5a8286222f14be" target="_top" xlink:title=" ">
<polygon fill="white" stroke="#666666" points="814.25,-156.5 682,-156.5 682,-123 814.25,-123 814.25,-156.5"/>
<text xml:space="preserve" text-anchor="start" x="690" y="-143" font-family="Helvetica,sans-Serif" font-size="10.00">kest_extract_parameter</text>
<text xml:space="preserve" text-anchor="middle" x="748.12" y="-130.25" font-family="Helvetica,sans-Serif" font-size="10.00">_from_dict</text>
</a>
</g>
</g>
<!-- Node1&#45;&gt;Node25 -->
<g id="edge24_Node000001_Node000025" class="edge">
<title>Node1&#45;&gt;Node25</title>
<g id="a_edge24_Node000001_Node000025"><a xlink:title=" ">
<path fill="none" stroke="#63b8ff" d="M867.71,-204.13C840.53,-189.38 805.61,-170.42 780.72,-156.9"/>
<polygon fill="#63b8ff" stroke="#63b8ff" points="865.93,-207.14 876.38,-208.84 869.27,-200.99 865.93,-207.14"/>
</a>
</g>
</g>
<!-- Node27 -->
<g id="Node000027" class="node">
<title>Node27</title>
<g id="a_Node000027"><a xlink:href="kest__asm__parser_8c.html#a8a0d633256a85b35706b7a9ef1add7f0" target="_top" xlink:title=" ">
<polygon fill="white" stroke="#666666" points="807.12,-422.12 689.12,-422.12 689.12,-401.38 807.12,-401.38 807.12,-422.12"/>
<text xml:space="preserve" text-anchor="middle" x="748.12" y="-408.62" font-family="Helvetica,sans-Serif" font-size="10.00">kest_parse_asm_line</text>
</a>
</g>
</g>
<!-- Node1&#45;&gt;Node27 -->
<g id="edge27_Node000001_Node000027" class="edge">
<title>Node1&#45;&gt;Node27</title>
<g id="a_edge27_Node000001_Node000027"><a xlink:title=" ">
<path fill="none" stroke="#63b8ff" d="M900.91,-254.37C888.6,-290.09 862.42,-351.95 819.5,-387.75 812.86,-393.29 804.87,-397.57 796.7,-400.88"/>
<polygon fill="#63b8ff" stroke="#63b8ff" points="904.13,-255.79 903.95,-245.2 897.48,-253.59 904.13,-255.79"/>
</a>
</g>
</g>
<!-- Node2&#45;&gt;Node2 -->
<g id="edge2_Node000002_Node000002" class="edge">
<title>Node2&#45;&gt;Node2</title>
<g id="a_edge2_Node000002_Node000002"><a xlink:title=" ">
<path fill="none" stroke="#63b8ff" d="M775.37,-254.89C770.93,-258.85 761.85,-261.5 748.12,-261.5 723.72,-261.5 714,-253.12 718.96,-243.91"/>
<polygon fill="#63b8ff" stroke="#63b8ff" points="778.75,-255.86 777.03,-245.41 771.86,-254.65 778.75,-255.86"/>
</a>
</g>
</g>
<!-- Node3 -->
<g id="Node000003" class="node">
<title>Node3</title>
<g id="a_Node000003"><a xlink:href="kest__dict__extract_8c.html#ac9cee86a595df863e15b7693b86635b7" target="_top" xlink:title=" ">
<polygon fill="white" stroke="#666666" points="621.62,-307.5 517.12,-307.5 517.12,-274 621.62,-274 621.62,-307.5"/>
<text xml:space="preserve" text-anchor="start" x="525.12" y="-294" font-family="Helvetica,sans-Serif" font-size="10.00">kest_extract_filter</text>
<text xml:space="preserve" text-anchor="middle" x="569.38" y="-281.25" font-family="Helvetica,sans-Serif" font-size="10.00">_coefs_from_dict</text>
</a>
</g>
</g>
<!-- Node2&#45;&gt;Node3 -->
<g id="edge3_Node000002_Node000003" class="edge">
<title>Node2&#45;&gt;Node3</title>
<g id="a_edge3_Node000002_Node000003"><a xlink:title=" ">
<path fill="none" stroke="#63b8ff" d="M689.06,-247.77C665.99,-256.13 639.78,-265.62 617.87,-273.55"/>
<polygon fill="#63b8ff" stroke="#63b8ff" points="690.13,-251.11 698.34,-244.42 687.74,-244.53 690.13,-251.11"/>
</a>
</g>
</g>
<!-- Node14 -->
<g id="Node000014" class="node">
<title>Node14</title>
<g id="a_Node000014"><a xlink:href="kest__dictionary_8c.html#a8db4f9c511b00d7240052135e9c1ed67" target="_top" xlink:title=" ">
<polygon fill="white" stroke="#666666" points="625.38,-256.12 513.38,-256.12 513.38,-235.38 625.38,-235.38 625.38,-256.12"/>
<text xml:space="preserve" text-anchor="middle" x="569.38" y="-242.62" font-family="Helvetica,sans-Serif" font-size="10.00">kest_parse_dict_list</text>
</a>
</g>
</g>
<!-- Node2&#45;&gt;Node14 -->
<g id="edge6_Node000002_Node000014" class="edge">
<title>Node2&#45;&gt;Node14</title>
<g id="a_edge6_Node000002_Node000014"><a xlink:title=" ">
<path fill="none" stroke="#63b8ff" d="M683.8,-233.56C664.83,-235.6 644.19,-237.82 625.77,-239.8"/>
<polygon fill="#63b8ff" stroke="#63b8ff" points="683.98,-237.06 693.55,-232.51 683.23,-230.1 683.98,-237.06"/>
</a>
</g>
</g>
<!-- Node15 -->
<g id="Node000015" class="node">
<title>Node15</title>
<g id="a_Node000015"><a xlink:href="kest__dictionary_8c.html#af0aceaa93cba06fd44ad4bc50f2418e4" target="_top" xlink:title=" ">
<polygon fill="#fff0f0" stroke="red" points="446.62,-256.12 334.62,-256.12 334.62,-235.38 446.62,-235.38 446.62,-256.12"/>
<text xml:space="preserve" text-anchor="middle" x="390.62" y="-242.62" font-family="Helvetica,sans-Serif" font-size="10.00">kest_parse_dict_val</text>
</a>
</g>
</g>
<!-- Node2&#45;&gt;Node15 -->
<g id="edge9_Node000002_Node000015" class="edge">
<title>Node2&#45;&gt;Node15</title>
<g id="a_edge9_Node000002_Node000015"><a xlink:title=" ">
<path fill="none" stroke="#63b8ff" d="M684.11,-223.68C633.66,-221.97 561.15,-221.15 498,-226.75 479.59,-228.38 459.6,-231.57 441.97,-234.88"/>
<polygon fill="#63b8ff" stroke="#63b8ff" points="683.84,-227.18 693.97,-224.04 684.1,-220.18 683.84,-227.18"/>
</a>
</g>
</g>
<!-- Node18 -->
<g id="Node000018" class="node">
<title>Node18</title>
<g id="a_Node000018"><a xlink:href="kest__dictionary_8c.html#a2a60847422026db5eab8103cd8ea1dc5" target="_top" xlink:title=" ">
<polygon fill="white" stroke="#666666" points="600.25,-180.12 538.5,-180.12 538.5,-159.38 600.25,-159.38 600.25,-180.12"/>
<text xml:space="preserve" text-anchor="middle" x="569.38" y="-166.62" font-family="Helvetica,sans-Serif" font-size="10.00">print_dict</text>
</a>
</g>
</g>
<!-- Node2&#45;&gt;Node18 -->
<g id="edge10_Node000002_Node000018" class="edge">
<title>Node2&#45;&gt;Node18</title>
<g id="a_edge10_Node000002_Node000018"><a xlink:title=" ">
<path fill="none" stroke="#63b8ff" d="M684.35,-206.51C655.88,-197.32 623.52,-186.89 600.57,-179.49"/>
<polygon fill="#63b8ff" stroke="#63b8ff" points="683.02,-209.75 693.61,-209.49 685.17,-203.09 683.02,-209.75"/>
</a>
</g>
</g>
<!-- Node3&#45;&gt;Node4 -->
<g id="edge4_Node000003_Node000004" class="edge">
<title>Node3&#45;&gt;Node4</title>
<g id="a_edge4_Node000003_Node000004"><a xlink:title=" ">
<path fill="none" stroke="#63b8ff" d="M512.76,-311.83C488.33,-321.09 460.02,-331.82 436.91,-340.58"/>
<polygon fill="#63b8ff" stroke="#63b8ff" points="513.79,-315.18 521.9,-308.37 511.31,-308.64 513.79,-315.18"/>
</a>
</g>
</g>
<!-- Node3&#45;&gt;Node13 -->
<g id="edge5_Node000003_Node000013" class="edge">
<title>Node3&#45;&gt;Node13</title>
<g id="a_edge5_Node000003_Node000013"><a xlink:title=" ">
<path fill="none" stroke="#63b8ff" d="M505.38,-291.82C485.03,-292.16 462.72,-292.54 443.29,-292.87"/>
<polygon fill="#63b8ff" stroke="#63b8ff" points="505.32,-295.32 515.26,-291.65 505.21,-288.32 505.32,-295.32"/>
</a>
</g>
</g>
<!-- Node14&#45;&gt;Node15 -->
<g id="edge7_Node000014_Node000015" class="edge">
<title>Node14&#45;&gt;Node15</title>
<g id="a_edge7_Node000014_Node000015"><a xlink:title=" ">
<path fill="none" stroke="#63b8ff" d="M501.59,-239.18C483.54,-238.87 464.21,-238.96 446.87,-239.44"/>
<polygon fill="#63b8ff" stroke="#63b8ff" points="501.35,-242.68 511.42,-239.4 501.5,-235.68 501.35,-242.68"/>
</a>
</g>
</g>
<!-- Node15&#45;&gt;Node14 -->
<g id="edge8_Node000015_Node000014" class="edge">
<title>Node15&#45;&gt;Node14</title>
<g id="a_edge8_Node000015_Node000014"><a xlink:title=" ">
<path fill="none" stroke="#63b8ff" d="M458.2,-252.31C476.24,-252.63 495.58,-252.54 512.94,-252.06"/>
<polygon fill="#63b8ff" stroke="#63b8ff" points="458.46,-248.82 448.38,-252.09 458.3,-255.82 458.46,-248.82"/>
</a>
</g>
</g>
<!-- Node17 -->
<g id="Node000017" class="node">
<title>Node17</title>
<g id="a_Node000017"><a xlink:href="kest__eff__section_8c.html#a4de28fb64398c9194136a2ced71e2795" target="_top" xlink:title=" ">
<polygon fill="white" stroke="#666666" points="451.88,-186.5 329.38,-186.5 329.38,-153 451.88,-153 451.88,-186.5"/>
<text xml:space="preserve" text-anchor="start" x="337.38" y="-173" font-family="Helvetica,sans-Serif" font-size="10.00">kest_parse_dictionary</text>
<text xml:space="preserve" text-anchor="middle" x="390.62" y="-160.25" font-family="Helvetica,sans-Serif" font-size="10.00">_section</text>
</a>
</g>
</g>
<!-- Node18&#45;&gt;Node17 -->
<g id="edge11_Node000018_Node000017" class="edge">
<title>Node18&#45;&gt;Node17</title>
<g id="a_edge11_Node000018_Node000017"><a xlink:title=" ">
<path fill="none" stroke="#63b8ff" d="M526.99,-169.75C504.74,-169.75 476.88,-169.75 452.23,-169.75"/>
<polygon fill="#63b8ff" stroke="#63b8ff" points="526.88,-173.25 536.88,-169.75 526.88,-166.25 526.88,-173.25"/>
</a>
</g>
</g>
<!-- Node7 -->
<g id="Node000007" class="node">
<title>Node7</title>
<g id="a_Node000007"><a xlink:href="kest__eff__parser_8c.html#a73ef6962d1925857ec3e4b12d1aad834" target="_top" xlink:title=" ">
<polygon fill="#fff0f0" stroke="red" points="272.75,-180.12 166.75,-180.12 166.75,-159.38 272.75,-159.38 272.75,-180.12"/>
<text xml:space="preserve" text-anchor="middle" x="219.75" y="-166.62" font-family="Helvetica,sans-Serif" font-size="10.00">kest_parse_tokens</text>
</a>
</g>
</g>
<!-- Node17&#45;&gt;Node7 -->
<g id="edge12_Node000017_Node000007" class="edge">
<title>Node17&#45;&gt;Node7</title>
<g id="a_edge12_Node000017_Node000007"><a xlink:title=" ">
<path fill="none" stroke="#63b8ff" d="M317.77,-169.75C302.74,-169.75 287.16,-169.75 273,-169.75"/>
<polygon fill="#63b8ff" stroke="#63b8ff" points="317.62,-173.25 327.62,-169.75 317.62,-166.25 317.62,-173.25"/>
</a>
</g>
</g>
<!-- Node20 -->
<g id="Node000020" class="node">
<title>Node20</title>
<g id="a_Node000020"><a xlink:href="kest__reg__format_8c.html#a2a23995382c692cce714a167deb0b94c" target="_top" xlink:title=" ">
<polygon fill="white" stroke="#666666" points="283.25,-121.5 156.25,-121.5 156.25,-88 283.25,-88 283.25,-121.5"/>
<text xml:space="preserve" text-anchor="start" x="164.25" y="-108" font-family="Helvetica,sans-Serif" font-size="10.00">kest_compute_register</text>
<text xml:space="preserve" text-anchor="middle" x="219.75" y="-95.25" font-family="Helvetica,sans-Serif" font-size="10.00">_formats</text>
</a>
</g>
</g>
<!-- Node19&#45;&gt;Node20 -->
<g id="edge14_Node000019_Node000020" class="edge">
<title>Node19&#45;&gt;Node20</title>
<g id="a_edge14_Node000019_Node000020"><a xlink:title=" ">
<path fill="none" stroke="#63b8ff" d="M319.65,-76.05C306.5,-79.87 292.86,-83.83 280.07,-87.54"/>
<polygon fill="#63b8ff" stroke="#63b8ff" points="320.48,-79.46 329.11,-73.31 318.53,-72.73 320.48,-79.46"/>
</a>
</g>
</g>
<!-- Node22 -->
<g id="Node000022" class="node">
<title>Node22</title>
<g id="a_Node000022"><a xlink:href="kest__fixed__point_8c.html#af6f5122d04445665987167d50319ac6f" target="_top" xlink:title=" ">
<polygon fill="white" stroke="#666666" points="276.12,-69.5 163.38,-69.5 163.38,-36 276.12,-36 276.12,-69.5"/>
<text xml:space="preserve" text-anchor="start" x="171.38" y="-56" font-family="Helvetica,sans-Serif" font-size="10.00">kest_filter_compute</text>
<text xml:space="preserve" text-anchor="middle" x="219.75" y="-43.25" font-family="Helvetica,sans-Serif" font-size="10.00">_format</text>
</a>
</g>
</g>
<!-- Node19&#45;&gt;Node22 -->
<g id="edge16_Node000019_Node000022" class="edge">
<title>Node19&#45;&gt;Node22</title>
<g id="a_edge16_Node000019_Node000022"><a xlink:title=" ">
<path fill="none" stroke="#63b8ff" d="M307.6,-54.29C297.05,-54.11 286.46,-53.92 276.47,-53.74"/>
<polygon fill="#63b8ff" stroke="#63b8ff" points="307.41,-57.79 317.47,-54.47 307.54,-50.79 307.41,-57.79"/>
</a>
</g>
</g>
<!-- Node21 -->
<g id="Node000021" class="node">
<title>Node21</title>
<g id="a_Node000021"><a xlink:href="kest__eff__parser_8c.html#a745050bced3ccd568a1223c9f6a416e0" target="_top" xlink:title=" ">
<polygon fill="#fff0f0" stroke="red" points="120.25,-95.5 0,-95.5 0,-62 120.25,-62 120.25,-95.5"/>
<text xml:space="preserve" text-anchor="start" x="8" y="-82" font-family="Helvetica,sans-Serif" font-size="10.00">kest_parser_compute</text>
<text xml:space="preserve" text-anchor="middle" x="60.12" y="-69.25" font-family="Helvetica,sans-Serif" font-size="10.00">_formats</text>
</a>
</g>
</g>
<!-- Node20&#45;&gt;Node21 -->
<g id="edge15_Node000020_Node000021" class="edge">
<title>Node20&#45;&gt;Node21</title>
<g id="a_edge15_Node000020_Node000021"><a xlink:title=" ">
<path fill="none" stroke="#63b8ff" d="M144.66,-92.53C136.59,-91.2 128.45,-89.86 120.58,-88.56"/>
<polygon fill="#63b8ff" stroke="#63b8ff" points="144.07,-95.98 154.51,-94.15 145.21,-89.07 144.07,-95.98"/>
</a>
</g>
</g>
<!-- Node22&#45;&gt;Node21 -->
<g id="edge17_Node000022_Node000021" class="edge">
<title>Node22&#45;&gt;Node21</title>
<g id="a_edge17_Node000022_Node000021"><a xlink:title=" ">
<path fill="none" stroke="#63b8ff" d="M152.05,-63.75C141.65,-65.47 130.97,-67.23 120.74,-68.92"/>
<polygon fill="#63b8ff" stroke="#63b8ff" points="152.39,-67.24 161.68,-62.16 151.25,-60.34 152.39,-67.24"/>
</a>
</g>
</g>
<!-- Node23&#45;&gt;Node23 -->
<g id="edge21_Node000023_Node000023" class="edge">
<title>Node23&#45;&gt;Node23</title>
<g id="a_edge21_Node000023_Node000023"><a xlink:title=" ">
<path fill="none" stroke="#63b8ff" d="M775.37,-44.89C770.93,-48.85 761.85,-51.5 748.12,-51.5 723.72,-51.5 714,-43.12 718.96,-33.91"/>
<polygon fill="#63b8ff" stroke="#63b8ff" points="778.75,-45.86 777.03,-35.41 771.86,-44.65 778.75,-45.86"/>
</a>
</g>
</g>
<!-- Node24 -->
<g id="Node000024" class="node">
<title>Node24</title>
<g id="a_Node000024"><a xlink:href="kest__expression_8c.html#a5f48e88077ddcd3c3de79b597094a3ef" target="_top" xlink:title=" ">
<polygon fill="white" stroke="#666666" points="640.75,-42.5 498,-42.5 498,-9 640.75,-9 640.75,-42.5"/>
<text xml:space="preserve" text-anchor="start" x="506" y="-29" font-family="Helvetica,sans-Serif" font-size="10.00">kest_expression_compute</text>
<text xml:space="preserve" text-anchor="middle" x="569.38" y="-16.25" font-family="Helvetica,sans-Serif" font-size="10.00">_range</text>
</a>
</g>
</g>
<!-- Node23&#45;&gt;Node24 -->
<g id="edge19_Node000023_Node000024" class="edge">
<title>Node23&#45;&gt;Node24</title>
<g id="a_edge19_Node000023_Node000024"><a xlink:title=" ">
<path fill="none" stroke="#63b8ff" d="M664.98,-20.93C656.96,-21.34 648.87,-21.75 640.98,-22.16"/>
<polygon fill="#63b8ff" stroke="#63b8ff" points="664.93,-24.44 674.74,-20.44 664.58,-17.45 664.93,-24.44"/>
</a>
</g>
</g>
<!-- Node24&#45;&gt;Node19 -->
<g id="edge20_Node000024_Node000019" class="edge">
<title>Node24&#45;&gt;Node19</title>
<g id="a_edge20_Node000024_Node000019"><a xlink:title=" ">
<path fill="none" stroke="#63b8ff" d="M486.23,-39.69C478.21,-41.05 470.12,-42.43 462.23,-43.77"/>
<polygon fill="#63b8ff" stroke="#63b8ff" points="486.74,-43.16 496.01,-38.03 485.57,-36.26 486.74,-43.16"/>
</a>
</g>
</g>
<!-- Node26 -->
<g id="Node000026" class="node">
<title>Node26</title>
<g id="a_Node000026"><a xlink:href="kest__eff__section_8c.html#a5fe6d5cd354aa8f4322524ecc9b6af63" target="_top" xlink:title=" ">
<polygon fill="white" stroke="#666666" points="638.5,-141.5 500.25,-141.5 500.25,-108 638.5,-108 638.5,-141.5"/>
<text xml:space="preserve" text-anchor="start" x="508.25" y="-128" font-family="Helvetica,sans-Serif" font-size="10.00">kest_parameters_section</text>
<text xml:space="preserve" text-anchor="middle" x="569.38" y="-115.25" font-family="Helvetica,sans-Serif" font-size="10.00">_extract</text>
</a>
</g>
</g>
<!-- Node25&#45;&gt;Node26 -->
<g id="edge25_Node000025_Node000026" class="edge">
<title>Node25&#45;&gt;Node26</title>
<g id="a_edge25_Node000025_Node000026"><a xlink:title=" ">
<path fill="none" stroke="#63b8ff" d="M670.3,-133.23C659.82,-132.34 649.11,-131.43 638.79,-130.56"/>
<polygon fill="#63b8ff" stroke="#63b8ff" points="669.79,-136.7 680.05,-134.06 670.38,-129.72 669.79,-136.7"/>
</a>
</g>
</g>
<!-- Node26&#45;&gt;Node7 -->
<g id="edge26_Node000026_Node000007" class="edge">
<title>Node26&#45;&gt;Node7</title>
<g id="a_edge26_Node000026_Node000007"><a xlink:title=" ">
<path fill="none" stroke="#63b8ff" d="M488.58,-127.14C439.47,-129.53 375.4,-134.28 319.25,-143.75 297.8,-147.37 274.22,-153.51 255.51,-158.92"/>
<polygon fill="#63b8ff" stroke="#63b8ff" points="488.43,-130.65 498.26,-126.7 488.11,-123.66 488.43,-130.65"/>
</a>
</g>
</g>
<!-- Node28 -->
<g id="Node000028" class="node">
<title>Node28</title>
<g id="a_Node000028"><a xlink:href="kest__asm__parser_8c.html#a1b7e03dd7589f652dec13b4b2c6d0a5c" target="_top" xlink:title=" ">
<polygon fill="white" stroke="#666666" points="616.75,-422.12 522,-422.12 522,-401.38 616.75,-401.38 616.75,-422.12"/>
<text xml:space="preserve" text-anchor="middle" x="569.38" y="-408.62" font-family="Helvetica,sans-Serif" font-size="10.00">kest_parse_asm</text>
</a>
</g>
</g>
<!-- Node27&#45;&gt;Node28 -->
<g id="edge28_Node000027_Node000028" class="edge">
<title>Node27&#45;&gt;Node28</title>
<g id="a_edge28_Node000027_Node000028"><a xlink:title=" ">
<path fill="none" stroke="#63b8ff" d="M677.39,-411.75C657.2,-411.75 635.65,-411.75 617.22,-411.75"/>
<polygon fill="#63b8ff" stroke="#63b8ff" points="677.25,-415.25 687.25,-411.75 677.25,-408.25 677.25,-415.25"/>
</a>
</g>
</g>
<!-- Node29 -->
<g id="Node000029" class="node">
<title>Node29</title>
<g id="a_Node000029"><a xlink:href="kest__eff__section_8c.html#a992e0c66572f5ffabca2203a018ea97c" target="_top" xlink:title=" ">
<polygon fill="white" stroke="#666666" points="459.38,-419.12 321.88,-419.12 321.88,-398.38 459.38,-398.38 459.38,-419.12"/>
<text xml:space="preserve" text-anchor="middle" x="390.62" y="-405.62" font-family="Helvetica,sans-Serif" font-size="10.00">kest_parse_code_section</text>
</a>
</g>
</g>
<!-- Node28&#45;&gt;Node29 -->
<g id="edge29_Node000028_Node000029" class="edge">
<title>Node28&#45;&gt;Node29</title>
<g id="a_edge29_Node000028_Node000029"><a xlink:title=" ">
<path fill="none" stroke="#63b8ff" d="M510.44,-410.77C494.22,-410.49 476.45,-410.19 459.7,-409.91"/>
<polygon fill="#63b8ff" stroke="#63b8ff" points="510.36,-414.27 520.42,-410.94 510.48,-407.27 510.36,-414.27"/>
</a>
</g>
</g>
<!-- Node29&#45;&gt;Node7 -->
<g id="edge30_Node000029_Node000007" class="edge">
<title>Node29&#45;&gt;Node7</title>
<g id="a_edge30_Node000029_Node000007"><a xlink:title=" ">
<path fill="none" stroke="#63b8ff" d="M332.38,-393.05C327.64,-390.41 323.17,-387.33 319.25,-383.75 254.64,-324.71 229.22,-214.84 222.62,-180.37"/>
<polygon fill="#63b8ff" stroke="#63b8ff" points="330.51,-396.04 341.04,-397.22 333.55,-389.73 330.51,-396.04"/>
</a>
</g>
</g>
</g>
</svg>
