<?xml version="1.0" encoding="UTF-8" standalone="no"?>
<!DOCTYPE svg PUBLIC "-//W3C//DTD SVG 1.1//EN"
 "http://www.w3.org/Graphics/SVG/1.1/DTD/svg11.dtd">
<!-- Generated by graphviz version 13.1.2 (20250808.2320)
 -->
<!-- Title: init_danger_button Pages: 1 -->
<svg width="423pt" height="145pt"
 viewBox="0.00 0.00 423.00 145.00" xmlns="http://www.w3.org/2000/svg" xmlns:xlink="http://www.w3.org/1999/xlink">
<g id="graph0" class="graph" transform="scale(1 1) rotate(0) translate(4 141.12)">
<title>init_danger_button</title>
<!-- Node1 -->
<g id="Node000001" class="node">
<title>Node1</title>
<g id="a_Node000001"><a xlink:title=" ">
<polygon fill="#999999" stroke="#666666" points="107.5,-98.12 0,-98.12 0,-77.38 107.5,-77.38 107.5,-98.12"/>
<text xml:space="preserve" text-anchor="middle" x="53.75" y="-84.62" font-family="Helvetica,sans-Serif" font-size="10.00">init_danger_button</text>
</a>
</g>
</g>
<!-- Node2 -->
<g id="Node000002" class="node">
<title>Node2</title>
<g id="a_Node000002"><a xlink:href="kest__button_8c.html#aa59f296fa9f9744c9753f81484085a15" target="_top" xlink:title=" ">
<polygon fill="white" stroke="#666666" points="266.75,-137.12 143.5,-137.12 143.5,-116.38 266.75,-116.38 266.75,-137.12"/>
<text xml:space="preserve" text-anchor="middle" x="205.12" y="-123.62" font-family="Helvetica,sans-Serif" font-size="10.00">button_set_clicked_cb</text>
</a>
</g>
</g>
<!-- Node1&#45;&gt;Node2 -->
<g id="edge1_Node000001_Node000002" class="edge">
<title>Node1&#45;&gt;Node2</title>
<g id="a_edge1_Node000001_Node000002"><a xlink:title=" ">
<path fill="none" stroke="#63b8ff" d="M96.36,-98.61C113.45,-103.07 133.43,-108.29 151.51,-113.01"/>
<polygon fill="#63b8ff" stroke="#63b8ff" points="150.46,-116.35 161.02,-115.49 152.22,-109.58 150.46,-116.35"/>
</a>
</g>
</g>
<!-- Node3 -->
<g id="Node000003" class="node">
<title>Node3</title>
<g id="a_Node000003"><a xlink:href="kest__button_8c.html#a20604a0eb74819a9747753ccfdb24e6c" target="_top" xlink:title=" ">
<polygon fill="white" stroke="#666666" points="239.38,-98.12 170.88,-98.12 170.88,-77.38 239.38,-77.38 239.38,-98.12"/>
<text xml:space="preserve" text-anchor="middle" x="205.12" y="-84.62" font-family="Helvetica,sans-Serif" font-size="10.00">init_button</text>
</a>
</g>
</g>
<!-- Node1&#45;&gt;Node3 -->
<g id="edge2_Node000001_Node000003" class="edge">
<title>Node1&#45;&gt;Node3</title>
<g id="a_edge2_Node000001_Node000003"><a xlink:title=" ">
<path fill="none" stroke="#63b8ff" d="M107.83,-87.75C124.7,-87.75 143.18,-87.75 159.4,-87.75"/>
<polygon fill="#63b8ff" stroke="#63b8ff" points="159.24,-91.25 169.24,-87.75 159.24,-84.25 159.24,-91.25"/>
</a>
</g>
</g>
<!-- Node4 -->
<g id="Node000004" class="node">
<title>Node4</title>
<g id="a_Node000004"><a xlink:href="kest__button_8c.html#ac7690c73fda7b52f35a47cb3c8b8e9cb" target="_top" xlink:title=" ">
<polygon fill="white" stroke="#666666" points="261.5,-59.5 148.75,-59.5 148.75,-26 261.5,-26 261.5,-59.5"/>
<text xml:space="preserve" text-anchor="start" x="156.75" y="-46" font-family="Helvetica,sans-Serif" font-size="10.00">kest_danger_button</text>
<text xml:space="preserve" text-anchor="middle" x="205.12" y="-33.25" font-family="Helvetica,sans-Serif" font-size="10.00">_activate_popup_cb</text>
</a>
</g>
</g>
<!-- Node1&#45;&gt;Node4 -->
<g id="edge3_Node000001_Node000004" class="edge">
<title>Node1&#45;&gt;Node4</title>
<g id="a_edge3_Node000001_Node000004"><a xlink:title=" ">
<path fill="none" stroke="#63b8ff" d="M90.53,-76.97C104.76,-72.68 121.61,-67.61 137.91,-62.7"/>
<polygon fill="#63b8ff" stroke="#63b8ff" points="138.49,-66.18 147.06,-59.94 136.47,-59.48 138.49,-66.18"/>
</a>
</g>
</g>
<!-- Node5 -->
<g id="Node000005" class="node">
<title>Node5</title>
<g id="a_Node000005"><a xlink:href="kest__button_8c.html#a534796bd271226a0d3c7d166bb75b25a" target="_top" xlink:title=" ">
<polygon fill="white" stroke="#666666" points="414.75,-85.5 302.75,-85.5 302.75,-52 414.75,-52 414.75,-85.5"/>
<text xml:space="preserve" text-anchor="start" x="310.75" y="-72" font-family="Helvetica,sans-Serif" font-size="10.00">kest_danger_button</text>
<text xml:space="preserve" text-anchor="middle" x="358.75" y="-59.25" font-family="Helvetica,sans-Serif" font-size="10.00">_cancel_cb</text>
</a>
</g>
</g>
<!-- Node4&#45;&gt;Node5 -->
<g id="edge4_Node000004_Node000005" class="edge">
<title>Node4&#45;&gt;Node5</title>
<g id="a_edge4_Node000004_Node000005"><a xlink:title=" ">
<path fill="none" stroke="#63b8ff" d="M261.72,-52.28C271.36,-53.94 281.48,-55.67 291.37,-57.37"/>
<polygon fill="#63b8ff" stroke="#63b8ff" points="290.47,-60.76 300.92,-59 291.66,-53.87 290.47,-60.76"/>
</a>
</g>
</g>
<!-- Node6 -->
<g id="Node000006" class="node">
<title>Node6</title>
<g id="a_Node000006"><a xlink:href="kest__button_8c.html#a3c57a71cade66cdd7ffef14b864b0cba" target="_top" xlink:title=" ">
<polygon fill="white" stroke="#666666" points="414.75,-33.5 302.75,-33.5 302.75,0 414.75,0 414.75,-33.5"/>
<text xml:space="preserve" text-anchor="start" x="310.75" y="-20" font-family="Helvetica,sans-Serif" font-size="10.00">kest_danger_button</text>
<text xml:space="preserve" text-anchor="middle" x="358.75" y="-7.25" font-family="Helvetica,sans-Serif" font-size="10.00">_confirm_cb</text>
</a>
</g>
</g>
<!-- Node4&#45;&gt;Node6 -->
<g id="edge5_Node000004_Node000006" class="edge">
<title>Node4&#45;&gt;Node6</title>
<g id="a_edge5_Node000004_Node000006"><a xlink:title=" ">
<path fill="none" stroke="#63b8ff" d="M261.72,-33.22C271.36,-31.56 281.48,-29.83 291.37,-28.13"/>
<polygon fill="#63b8ff" stroke="#63b8ff" points="291.66,-31.63 300.92,-26.5 290.47,-24.74 291.66,-31.63"/>
</a>
</g>
</g>
</g>
</svg>
