<?xml version="1.0" encoding="UTF-8" standalone="no"?>
<!DOCTYPE svg PUBLIC "-//W3C//DTD SVG 1.1//EN"
 "http://www.w3.org/Graphics/SVG/1.1/DTD/svg11.dtd">
<!-- Generated by graphviz version 13.1.2 (20250808.2320)
 -->
<!-- Title: kest_cxt_get_effect_desc_from_cname Pages: 1 -->
<svg width="532pt" height="68pt"
 viewBox="0.00 0.00 532.00 68.00" xmlns="http://www.w3.org/2000/svg" xmlns:xlink="http://www.w3.org/1999/xlink">
<g id="graph0" class="graph" transform="scale(1 1) rotate(0) translate(4 63.75)">
<title>kest_cxt_get_effect_desc_from_cname</title>
<!-- Node1 -->
<g id="Node000001" class="node">
<title>Node1</title>
<g id="a_Node000001"><a xlink:title=" ">
<polygon fill="#999999" stroke="#666666" points="523.75,-46.12 412.5,-46.12 412.5,-12.62 523.75,-12.62 523.75,-46.12"/>
<text xml:space="preserve" text-anchor="start" x="420.5" y="-32.62" font-family="Helvetica,sans-Serif" font-size="10.00">kest_cxt_get_effect</text>
<text xml:space="preserve" text-anchor="middle" x="468.12" y="-19.88" font-family="Helvetica,sans-Serif" font-size="10.00">_desc_from_cname</text>
</a>
</g>
</g>
<!-- Node2 -->
<g id="Node000002" class="node">
<title>Node2</title>
<g id="a_Node000002"><a xlink:href="kest__files_8c.html#ae1110c7660e66d69a41e0709aeea6052" target="_top" xlink:title=" ">
<polygon fill="white" stroke="#666666" points="376.5,-39.75 252.5,-39.75 252.5,-19 376.5,-19 376.5,-39.75"/>
<text xml:space="preserve" text-anchor="middle" x="314.5" y="-26.25" font-family="Helvetica,sans-Serif" font-size="10.00">read_profile_from_file</text>
</a>
</g>
</g>
<!-- Node1&#45;&gt;Node2 -->
<g id="edge1_Node000001_Node000002" class="edge">
<title>Node1&#45;&gt;Node2</title>
<g id="a_edge1_Node000001_Node000002"><a xlink:title=" ">
<path fill="none" stroke="#63b8ff" d="M401.12,-29.38C393.05,-29.38 384.84,-29.38 376.84,-29.38"/>
<polygon fill="#63b8ff" stroke="#63b8ff" points="400.87,-32.88 410.87,-29.38 400.87,-25.88 400.87,-32.88"/>
</a>
</g>
</g>
<!-- Node3 -->
<g id="Node000003" class="node">
<title>Node3</title>
<g id="a_Node000003"><a xlink:href="kest__files_8c.html#a9a8521ad7db2dd3514b6ece8c4d6d787" target="_top" xlink:title=" ">
<polygon fill="white" stroke="#666666" points="216.5,-39.75 103,-39.75 103,-19 216.5,-19 216.5,-39.75"/>
<text xml:space="preserve" text-anchor="middle" x="159.75" y="-26.25" font-family="Helvetica,sans-Serif" font-size="10.00">load_saved_profiles</text>
</a>
</g>
</g>
<!-- Node2&#45;&gt;Node3 -->
<g id="edge2_Node000002_Node000003" class="edge">
<title>Node2&#45;&gt;Node3</title>
<g id="a_edge2_Node000002_Node000003"><a xlink:title=" ">
<path fill="none" stroke="#63b8ff" d="M240.81,-29.38C232.66,-29.38 224.46,-29.38 216.58,-29.38"/>
<polygon fill="#63b8ff" stroke="#63b8ff" points="240.74,-32.88 250.74,-29.38 240.74,-25.88 240.74,-32.88"/>
</a>
</g>
</g>
<!-- Node4 -->
<g id="Node000004" class="node">
<title>Node4</title>
<g id="a_Node000004"><a xlink:href="kest__int_8c.html#abce06be17fc37d675118a678a8100a36" target="_top" xlink:title=" ">
<polygon fill="white" stroke="#666666" points="65.5,-59.75 1.5,-59.75 1.5,-39 65.5,-39 65.5,-59.75"/>
<text xml:space="preserve" text-anchor="middle" x="33.5" y="-46.25" font-family="Helvetica,sans-Serif" font-size="10.00">app_main</text>
</a>
</g>
</g>
<!-- Node3&#45;&gt;Node4 -->
<g id="edge3_Node000003_Node000004" class="edge">
<title>Node3&#45;&gt;Node4</title>
<g id="a_edge3_Node000003_Node000004"><a xlink:title=" ">
<path fill="none" stroke="#63b8ff" d="M91.71,-40.17C82.63,-41.63 73.69,-43.07 65.67,-44.36"/>
<polygon fill="#63b8ff" stroke="#63b8ff" points="91.99,-43.67 101.31,-38.62 90.88,-36.75 91.99,-43.67"/>
</a>
</g>
</g>
<!-- Node5 -->
<g id="Node000005" class="node">
<title>Node5</title>
<g id="a_Node000005"><a xlink:href="kest__desktop_8c.html#ab499a4f71ef4cfc807b60d8739750c3e" target="_top" xlink:title=" ">
<polygon fill="#fff0f0" stroke="red" points="67,-20.75 0,-20.75 0,0 67,0 67,-20.75"/>
<text xml:space="preserve" text-anchor="middle" x="33.5" y="-7.25" font-family="Helvetica,sans-Serif" font-size="10.00">main_task</text>
</a>
</g>
</g>
<!-- Node3&#45;&gt;Node5 -->
<g id="edge4_Node000003_Node000005" class="edge">
<title>Node3&#45;&gt;Node5</title>
<g id="a_edge4_Node000003_Node000005"><a xlink:title=" ">
<path fill="none" stroke="#63b8ff" d="M91.7,-19.12C83.27,-17.83 74.95,-16.56 67.39,-15.4"/>
<polygon fill="#63b8ff" stroke="#63b8ff" points="90.89,-22.54 101.31,-20.59 91.95,-15.62 90.89,-22.54"/>
</a>
</g>
</g>
</g>
</svg>
