<?xml version="1.0" encoding="UTF-8" standalone="no"?>
<!DOCTYPE svg PUBLIC "-//W3C//DTD SVG 1.1//EN"
 "http://www.w3.org/Graphics/SVG/1.1/DTD/svg11.dtd">
<!-- Generated by graphviz version 13.1.2 (20250808.2320)
 -->
<!-- Title: kest_profile_create_fpga_transfer_batch Pages: 1 -->
<svg width="728pt" height="272pt"
 viewBox="0.00 0.00 728.00 272.00" xmlns="http://www.w3.org/2000/svg" xmlns:xlink="http://www.w3.org/1999/xlink">
<g id="graph0" class="graph" transform="scale(1 1) rotate(0) translate(4 267.5)">
<title>kest_profile_create_fpga_transfer_batch</title>
<!-- Node1 -->
<g id="Node000001" class="node">
<title>Node1</title>
<g id="a_Node000001"><a xlink:title=" ">
<polygon fill="#999999" stroke="#666666" points="118.75,-195.5 0,-195.5 0,-162 118.75,-162 118.75,-195.5"/>
<text xml:space="preserve" text-anchor="start" x="8" y="-182" font-family="Helvetica,sans-Serif" font-size="10.00">kest_profile_create</text>
<text xml:space="preserve" text-anchor="middle" x="59.38" y="-169.25" font-family="Helvetica,sans-Serif" font-size="10.00">_fpga_transfer_batch</text>
</a>
</g>
</g>
<!-- Node2 -->
<g id="Node000002" class="node">
<title>Node2</title>
<g id="a_Node000002"><a xlink:href="kest__error__codes_8c.html#a0f4c77127bc0b77264a21104979c576a" target="_top" xlink:title=" ">
<polygon fill="white" stroke="#666666" points="432,-263.5 323.75,-263.5 323.75,-230 432,-230 432,-263.5"/>
<text xml:space="preserve" text-anchor="start" x="331.75" y="-250" font-family="Helvetica,sans-Serif" font-size="10.00">kest_error_code_to</text>
<text xml:space="preserve" text-anchor="middle" x="377.88" y="-237.25" font-family="Helvetica,sans-Serif" font-size="10.00">_string</text>
</a>
</g>
</g>
<!-- Node1&#45;&gt;Node2 -->
<g id="edge1_Node000001_Node000002" class="edge">
<title>Node1&#45;&gt;Node2</title>
<g id="a_edge1_Node000001_Node000002"><a xlink:title=" ">
<path fill="none" stroke="#63b8ff" d="M119.16,-191.38C174.05,-203.17 255.78,-220.73 312.43,-232.9"/>
<polygon fill="#63b8ff" stroke="#63b8ff" points="311.41,-236.27 321.93,-234.94 312.89,-229.42 311.41,-236.27"/>
</a>
</g>
</g>
<!-- Node3 -->
<g id="Node000003" class="node">
<title>Node3</title>
<g id="a_Node000003"><a xlink:href="kest__pipeline_8c.html#a7bb8f92d379766cce5cdc4b68d11818f" target="_top" xlink:title=" ">
<polygon fill="white" stroke="#666666" points="273.5,-173.5 154.75,-173.5 154.75,-140 273.5,-140 273.5,-173.5"/>
<text xml:space="preserve" text-anchor="start" x="162.75" y="-160" font-family="Helvetica,sans-Serif" font-size="10.00">kest_pipeline_create</text>
<text xml:space="preserve" text-anchor="middle" x="214.12" y="-147.25" font-family="Helvetica,sans-Serif" font-size="10.00">_fpga_transfer_batch</text>
</a>
</g>
</g>
<!-- Node1&#45;&gt;Node3 -->
<g id="edge2_Node000001_Node000003" class="edge">
<title>Node1&#45;&gt;Node3</title>
<g id="a_edge2_Node000001_Node000003"><a xlink:title=" ">
<path fill="none" stroke="#63b8ff" d="M119,-170.31C126.89,-169.17 135.05,-168 143.11,-166.83"/>
<polygon fill="#63b8ff" stroke="#63b8ff" points="143.51,-170.31 152.91,-165.42 142.51,-163.38 143.51,-170.31"/>
</a>
</g>
</g>
<!-- Node3&#45;&gt;Node2 -->
<g id="edge4_Node000003_Node000002" class="edge">
<title>Node3&#45;&gt;Node2</title>
<g id="a_edge4_Node000003_Node000002"><a xlink:title=" ">
<path fill="none" stroke="#63b8ff" d="M240.63,-173.94C259.33,-186.22 285.52,-202.81 309.5,-215.75 315.16,-218.81 321.18,-221.85 327.2,-224.77"/>
<polygon fill="#63b8ff" stroke="#63b8ff" points="325.37,-227.78 335.9,-228.9 328.37,-221.45 325.37,-227.78"/>
</a>
</g>
</g>
<!-- Node4 -->
<g id="Node000004" class="node">
<title>Node4</title>
<g id="a_Node000004"><a xlink:href="kest__resource_8c.html#a0dbd38376633e45652b4da3a7249c4b7" target="_top" xlink:title=" ">
<polygon fill="white" stroke="#666666" points="442.12,-173.5 313.62,-173.5 313.62,-140 442.12,-140 442.12,-173.5"/>
<text xml:space="preserve" text-anchor="start" x="321.62" y="-160" font-family="Helvetica,sans-Serif" font-size="10.00">empty_m_eff_resource</text>
<text xml:space="preserve" text-anchor="middle" x="377.88" y="-147.25" font-family="Helvetica,sans-Serif" font-size="10.00">_report</text>
</a>
</g>
</g>
<!-- Node3&#45;&gt;Node4 -->
<g id="edge3_Node000003_Node000004" class="edge">
<title>Node3&#45;&gt;Node4</title>
<g id="a_edge3_Node000003_Node000004"><a xlink:title=" ">
<path fill="none" stroke="#63b8ff" d="M273.98,-156.75C283.03,-156.75 292.49,-156.75 301.84,-156.75"/>
<polygon fill="#63b8ff" stroke="#63b8ff" points="301.64,-160.25 311.64,-156.75 301.64,-153.25 301.64,-160.25"/>
</a>
</g>
</g>
<!-- Node5 -->
<g id="Node000005" class="node">
<title>Node5</title>
<g id="a_Node000005"><a xlink:href="kest__fpga__io_8c.html#a6900c9b759f1dccf1b3535cc76ad83e3" target="_top" xlink:title=" ">
<polygon fill="white" stroke="#666666" points="446.25,-122.12 309.5,-122.12 309.5,-101.38 446.25,-101.38 446.25,-122.12"/>
<text xml:space="preserve" text-anchor="middle" x="377.88" y="-108.62" font-family="Helvetica,sans-Serif" font-size="10.00">kest_fpga_batch_append</text>
</a>
</g>
</g>
<!-- Node3&#45;&gt;Node5 -->
<g id="edge5_Node000003_Node000005" class="edge">
<title>Node3&#45;&gt;Node5</title>
<g id="a_edge5_Node000003_Node000005"><a xlink:title=" ">
<path fill="none" stroke="#63b8ff" d="M273.98,-140.38C291.47,-135.51 310.44,-130.23 327.28,-125.55"/>
<polygon fill="#63b8ff" stroke="#63b8ff" points="327.84,-129.03 336.54,-122.97 325.96,-122.28 327.84,-129.03"/>
</a>
</g>
</g>
<!-- Node9 -->
<g id="Node000009" class="node">
<title>Node9</title>
<g id="a_Node000009"><a xlink:href="kest__fpga__encoding_8c.html#ad4ae765e4a682cbd9a71e3acceabf81d" target="_top" xlink:title=" ">
<polygon fill="white" stroke="#666666" points="446.25,-83.5 309.5,-83.5 309.5,-50 446.25,-50 446.25,-83.5"/>
<text xml:space="preserve" text-anchor="start" x="317.5" y="-70" font-family="Helvetica,sans-Serif" font-size="10.00">kest_fpga_batch_append</text>
<text xml:space="preserve" text-anchor="middle" x="377.88" y="-57.25" font-family="Helvetica,sans-Serif" font-size="10.00">_effects</text>
</a>
</g>
</g>
<!-- Node3&#45;&gt;Node9 -->
<g id="edge9_Node000003_Node000009" class="edge">
<title>Node3&#45;&gt;Node9</title>
<g id="a_edge9_Node000003_Node000009"><a xlink:title=" ">
<path fill="none" stroke="#63b8ff" d="M237.11,-139.72C255.68,-125.86 283.36,-106.43 309.5,-92.75 312.31,-91.28 315.23,-89.84 318.2,-88.45"/>
<polygon fill="#63b8ff" stroke="#63b8ff" points="319.33,-91.78 327.05,-84.52 316.49,-85.38 319.33,-91.78"/>
</a>
</g>
</g>
<!-- Node31 -->
<g id="Node000031" class="node">
<title>Node31</title>
<g id="a_Node000031"><a xlink:href="kest__fpga__io_8c.html#aa1e89a33f9427932bc0d8e62bbfed3cb" target="_top" xlink:title=" ">
<polygon fill="white" stroke="#666666" points="616.38,-33.5 484.88,-33.5 484.88,0 616.38,0 616.38,-33.5"/>
<text xml:space="preserve" text-anchor="start" x="492.88" y="-20" font-family="Helvetica,sans-Serif" font-size="10.00">kest_free_fpga_transfer</text>
<text xml:space="preserve" text-anchor="middle" x="550.62" y="-7.25" font-family="Helvetica,sans-Serif" font-size="10.00">_batch</text>
</a>
</g>
</g>
<!-- Node3&#45;&gt;Node31 -->
<g id="edge11_Node000003_Node000031" class="edge">
<title>Node3&#45;&gt;Node31</title>
<g id="a_edge11_Node000003_Node000031"><a xlink:title=" ">
<path fill="none" stroke="#63b8ff" d="M223.34,-139.76C237.08,-113.41 267.43,-63.39 309.5,-40.75 359.47,-13.86 423.78,-8.7 473.27,-9.81"/>
<polygon fill="#63b8ff" stroke="#63b8ff" points="472.93,-13.3 483.04,-10.13 473.16,-6.31 472.93,-13.3"/>
</a>
</g>
</g>
<!-- Node32 -->
<g id="Node000032" class="node">
<title>Node32</title>
<g id="a_Node000032"><a xlink:href="kest__fpga__io_8c.html#adb086d525d9f47a4c077d7377110500b" target="_top" xlink:title=" ">
<polygon fill="white" stroke="#666666" points="616.75,-196.5 484.5,-196.5 484.5,-163 616.75,-163 616.75,-196.5"/>
<text xml:space="preserve" text-anchor="start" x="492.5" y="-183" font-family="Helvetica,sans-Serif" font-size="10.00">kest_new_fpga_transfer</text>
<text xml:space="preserve" text-anchor="middle" x="550.62" y="-170.25" font-family="Helvetica,sans-Serif" font-size="10.00">_batch</text>
</a>
</g>
</g>
<!-- Node3&#45;&gt;Node32 -->
<g id="edge13_Node000003_Node000032" class="edge">
<title>Node3&#45;&gt;Node32</title>
<g id="a_edge13_Node000003_Node000032"><a xlink:title=" ">
<path fill="none" stroke="#63b8ff" d="M267.51,-173.87C281.04,-177.54 295.69,-180.88 309.5,-182.75 363.7,-190.08 425.41,-189.11 472.69,-186.42"/>
<polygon fill="#63b8ff" stroke="#63b8ff" points="472.81,-189.92 482.57,-185.82 472.38,-182.93 472.81,-189.92"/>
</a>
</g>
</g>
<!-- Node6 -->
<g id="Node000006" class="node">
<title>Node6</title>
<g id="a_Node000006"><a xlink:href="kest__alloc_8c.html#ac3afebacd5118241e9f677df59a469b0" target="_top" xlink:title=" ">
<polygon fill="white" stroke="#666666" points="587.88,-124.12 513.38,-124.12 513.38,-103.38 587.88,-103.38 587.88,-124.12"/>
<text xml:space="preserve" text-anchor="middle" x="550.62" y="-110.62" font-family="Helvetica,sans-Serif" font-size="10.00">kest_realloc</text>
</a>
</g>
</g>
<!-- Node5&#45;&gt;Node6 -->
<g id="edge6_Node000005_Node000006" class="edge">
<title>Node5&#45;&gt;Node6</title>
<g id="a_edge6_Node000005_Node000006"><a xlink:title=" ">
<path fill="none" stroke="#63b8ff" d="M446.36,-112.54C464.84,-112.76 484.49,-112.99 501.64,-113.19"/>
<polygon fill="#63b8ff" stroke="#63b8ff" points="501.51,-116.69 511.55,-113.3 501.59,-109.69 501.51,-116.69"/>
</a>
</g>
</g>
<!-- Node7 -->
<g id="Node000007" class="node">
<title>Node7</title>
<g id="a_Node000007"><a xlink:href="kest__alloc_8c.html#a849755c5dc5b35e712ffcdb602e50fb4" target="_top" xlink:title=" ">
<polygon fill="white" stroke="#666666" points="719.75,-157.12 655,-157.12 655,-136.38 719.75,-136.38 719.75,-157.12"/>
<text xml:space="preserve" text-anchor="middle" x="687.38" y="-143.62" font-family="Helvetica,sans-Serif" font-size="10.00">kest_alloc</text>
</a>
</g>
</g>
<!-- Node6&#45;&gt;Node7 -->
<g id="edge7_Node000006_Node000007" class="edge">
<title>Node6&#45;&gt;Node7</title>
<g id="a_edge7_Node000006_Node000007"><a xlink:title=" ">
<path fill="none" stroke="#63b8ff" d="M588.09,-122.68C605.31,-126.9 625.96,-131.95 643.88,-136.34"/>
<polygon fill="#63b8ff" stroke="#63b8ff" points="642.9,-139.71 653.45,-138.69 644.57,-132.91 642.9,-139.71"/>
</a>
</g>
</g>
<!-- Node8 -->
<g id="Node000008" class="node">
<title>Node8</title>
<g id="a_Node000008"><a xlink:href="kest__alloc_8c.html#a294af5728a94aa316fcf65304d388d48" target="_top" xlink:title=" ">
<polygon fill="white" stroke="#666666" points="717.88,-89.12 656.88,-89.12 656.88,-68.38 717.88,-68.38 717.88,-89.12"/>
<text xml:space="preserve" text-anchor="middle" x="687.38" y="-75.62" font-family="Helvetica,sans-Serif" font-size="10.00">kest_free</text>
</a>
</g>
</g>
<!-- Node6&#45;&gt;Node8 -->
<g id="edge8_Node000006_Node000008" class="edge">
<title>Node6&#45;&gt;Node8</title>
<g id="a_edge8_Node000006_Node000008"><a xlink:title=" ">
<path fill="none" stroke="#63b8ff" d="M588.09,-104.28C605.91,-99.65 627.4,-94.07 645.74,-89.3"/>
<polygon fill="#63b8ff" stroke="#63b8ff" points="646.43,-92.74 655.23,-86.84 644.67,-85.97 646.43,-92.74"/>
</a>
</g>
</g>
<!-- Node10 -->
<g id="Node000010" class="node">
<title>Node10</title>
<g id="a_Node000010"><a xlink:href="kest__fpga__encoding_8c.html#a1d36760e33c68c0a5b22c8920f3a5a2b" target="_top" xlink:title=" ">
<polygon fill="#fff0f0" stroke="red" points="619,-85.5 482.25,-85.5 482.25,-52 619,-52 619,-85.5"/>
<text xml:space="preserve" text-anchor="start" x="490.25" y="-72" font-family="Helvetica,sans-Serif" font-size="10.00">kest_fpga_batch_append</text>
<text xml:space="preserve" text-anchor="middle" x="550.62" y="-59.25" font-family="Helvetica,sans-Serif" font-size="10.00">_effect</text>
</a>
</g>
</g>
<!-- Node9&#45;&gt;Node10 -->
<g id="edge10_Node000009_Node000010" class="edge">
<title>Node9&#45;&gt;Node10</title>
<g id="a_edge10_Node000009_Node000010"><a xlink:title=" ">
<path fill="none" stroke="#63b8ff" d="M446.36,-67.54C454.28,-67.63 462.41,-67.73 470.48,-67.82"/>
<polygon fill="#63b8ff" stroke="#63b8ff" points="470.24,-71.32 480.28,-67.94 470.32,-64.32 470.24,-71.32"/>
</a>
</g>
</g>
<!-- Node31&#45;&gt;Node8 -->
<g id="edge12_Node000031_Node000008" class="edge">
<title>Node31&#45;&gt;Node8</title>
<g id="a_edge12_Node000031_Node000008"><a xlink:title=" ">
<path fill="none" stroke="#63b8ff" d="M598.33,-33.92C605.31,-36.73 612.39,-39.72 619,-42.75 632.06,-48.73 646.12,-56.09 658.01,-62.6"/>
<polygon fill="#63b8ff" stroke="#63b8ff" points="656.04,-65.51 666.49,-67.3 659.44,-59.39 656.04,-65.51"/>
</a>
</g>
</g>
<!-- Node32&#45;&gt;Node7 -->
<g id="edge14_Node000032_Node000007" class="edge">
<title>Node32&#45;&gt;Node7</title>
<g id="a_edge14_Node000032_Node000007"><a xlink:title=" ">
<path fill="none" stroke="#63b8ff" d="M617.03,-163.73C626.06,-161.52 635.15,-159.3 643.62,-157.22"/>
<polygon fill="#63b8ff" stroke="#63b8ff" points="644.4,-160.63 653.28,-154.85 642.74,-153.83 644.4,-160.63"/>
</a>
</g>
</g>
</g>
</svg>
