<?xml version="1.0" encoding="UTF-8" standalone="no"?>
<!DOCTYPE svg PUBLIC "-//W3C//DTD SVG 1.1//EN"
 "http://www.w3.org/Graphics/SVG/1.1/DTD/svg11.dtd">
<!-- Generated by graphviz version 13.1.2 (20250808.2320)
 -->
<!-- Title: kest_fpga_set_input_gain Pages: 1 -->
<svg width="427pt" height="68pt"
 viewBox="0.00 0.00 427.00 68.00" xmlns="http://www.w3.org/2000/svg" xmlns:xlink="http://www.w3.org/1999/xlink">
<g id="graph0" class="graph" transform="scale(1 1) rotate(0) translate(4 63.75)">
<title>kest_fpga_set_input_gain</title>
<!-- Node1 -->
<g id="Node000001" class="node">
<title>Node1</title>
<g id="a_Node000001"><a xlink:title=" ">
<polygon fill="#999999" stroke="#666666" points="139.75,-39.75 0,-39.75 0,-19 139.75,-19 139.75,-39.75"/>
<text xml:space="preserve" text-anchor="middle" x="69.88" y="-26.25" font-family="Helvetica,sans-Serif" font-size="10.00">kest_fpga_set_input_gain</text>
</a>
</g>
</g>
<!-- Node2 -->
<g id="Node000002" class="node">
<title>Node2</title>
<g id="a_Node000002"><a xlink:href="kest__fixed__point_8c.html#a1580bc2204b9b5083cfb04e1e883ea35" target="_top" xlink:title=" ">
<polygon fill="white" stroke="#666666" points="291.12,-59.75 179.12,-59.75 179.12,-39 291.12,-39 291.12,-59.75"/>
<text xml:space="preserve" text-anchor="middle" x="235.12" y="-46.25" font-family="Helvetica,sans-Serif" font-size="10.00">float_to_q_nminus1</text>
</a>
</g>
</g>
<!-- Node1&#45;&gt;Node2 -->
<g id="edge1_Node000001_Node000002" class="edge">
<title>Node1&#45;&gt;Node2</title>
<g id="a_edge1_Node000001_Node000002"><a xlink:title=" ">
<path fill="none" stroke="#63b8ff" d="M140.11,-37.86C149.15,-38.96 158.4,-40.1 167.4,-41.2"/>
<polygon fill="#63b8ff" stroke="#63b8ff" points="166.78,-44.65 177.13,-42.39 167.63,-37.7 166.78,-44.65"/>
</a>
</g>
</g>
<!-- Node3 -->
<g id="Node000003" class="node">
<title>Node3</title>
<g id="a_Node000003"><a xlink:href="kest__fpga__io_8c.html#a5151b31faf4c75059d9d8bd1d27fa5f9" target="_top" xlink:title=" ">
<polygon fill="white" stroke="#666666" points="294.5,-20.75 175.75,-20.75 175.75,0 294.5,0 294.5,-20.75"/>
<text xml:space="preserve" text-anchor="middle" x="235.12" y="-7.25" font-family="Helvetica,sans-Serif" font-size="10.00">kest_fpga_send_byte</text>
</a>
</g>
</g>
<!-- Node1&#45;&gt;Node3 -->
<g id="edge2_Node000001_Node000003" class="edge">
<title>Node1&#45;&gt;Node3</title>
<g id="a_edge2_Node000001_Node000003"><a xlink:title=" ">
<path fill="none" stroke="#63b8ff" d="M140.11,-21.32C147.99,-20.4 156.03,-19.46 163.92,-18.55"/>
<polygon fill="#63b8ff" stroke="#63b8ff" points="164.32,-22.02 173.85,-17.39 163.51,-15.07 164.32,-22.02"/>
</a>
</g>
</g>
<!-- Node4 -->
<g id="Node000004" class="node">
<title>Node4</title>
<g id="a_Node000004"><a xlink:href="kest__fpga__io_8c.html#a2fe46577ece371a5fc9834bc59390913" target="_top" xlink:title=" ">
<polygon fill="white" stroke="#666666" points="418.5,-20.75 330.5,-20.75 330.5,0 418.5,0 418.5,-20.75"/>
<text xml:space="preserve" text-anchor="middle" x="374.5" y="-7.25" font-family="Helvetica,sans-Serif" font-size="10.00">kest_fpga_txrx</text>
</a>
</g>
</g>
<!-- Node3&#45;&gt;Node4 -->
<g id="edge3_Node000003_Node000004" class="edge">
<title>Node3&#45;&gt;Node4</title>
<g id="a_edge3_Node000003_Node000004"><a xlink:title=" ">
<path fill="none" stroke="#63b8ff" d="M294.78,-10.38C302.82,-10.38 311.04,-10.38 319,-10.38"/>
<polygon fill="#63b8ff" stroke="#63b8ff" points="318.9,-13.88 328.9,-10.38 318.9,-6.88 318.9,-13.88"/>
</a>
</g>
</g>
</g>
</svg>
