<?xml version="1.0" encoding="UTF-8" standalone="no"?>
<!DOCTYPE svg PUBLIC "-//W3C//DTD SVG 1.1//EN"
 "http://www.w3.org/Graphics/SVG/1.1/DTD/svg11.dtd">
<!-- Generated by graphviz version 13.1.2 (20250808.2320)
 -->
<!-- Title: kest_token_ll_advance Pages: 1 -->
<svg width="589pt" height="67pt"
 viewBox="0.00 0.00 589.00 67.00" xmlns="http://www.w3.org/2000/svg" xmlns:xlink="http://www.w3.org/1999/xlink">
<g id="graph0" class="graph" transform="scale(1 1) rotate(0) translate(4 62.75)">
<title>kest_token_ll_advance</title>
<!-- Node1 -->
<g id="Node000001" class="node">
<title>Node1</title>
<g id="a_Node000001"><a xlink:title=" ">
<polygon fill="#999999" stroke="#666666" points="580.75,-20.75 454.5,-20.75 454.5,0 580.75,0 580.75,-20.75"/>
<text xml:space="preserve" text-anchor="middle" x="517.62" y="-7.25" font-family="Helvetica,sans-Serif" font-size="10.00">kest_token_ll_advance</text>
</a>
</g>
</g>
<!-- Node2 -->
<g id="Node000002" class="node">
<title>Node2</title>
<g id="a_Node000002"><a xlink:href="kest__dictionary_8c.html#a8db4f9c511b00d7240052135e9c1ed67" target="_top" xlink:title=" ">
<polygon fill="white" stroke="#666666" points="418.5,-58.75 306.5,-58.75 306.5,-38 418.5,-38 418.5,-58.75"/>
<text xml:space="preserve" text-anchor="middle" x="362.5" y="-45.25" font-family="Helvetica,sans-Serif" font-size="10.00">kest_parse_dict_list</text>
</a>
</g>
</g>
<!-- Node1&#45;&gt;Node2 -->
<g id="edge1_Node000001_Node000002" class="edge">
<title>Node1&#45;&gt;Node2</title>
<g id="a_edge1_Node000001_Node000002"><a xlink:title=" ">
<path fill="none" stroke="#63b8ff" d="M462.17,-23.89C444.1,-28.37 424.22,-33.31 407.08,-37.56"/>
<polygon fill="#63b8ff" stroke="#63b8ff" points="462.82,-27.33 471.69,-21.53 461.14,-20.54 462.82,-27.33"/>
</a>
</g>
</g>
<!-- Node3 -->
<g id="Node000003" class="node">
<title>Node3</title>
<g id="a_Node000003"><a xlink:href="kest__dictionary_8c.html#af0aceaa93cba06fd44ad4bc50f2418e4" target="_top" xlink:title=" ">
<polygon fill="white" stroke="#666666" points="270.5,-39.75 158.5,-39.75 158.5,-19 270.5,-19 270.5,-39.75"/>
<text xml:space="preserve" text-anchor="middle" x="214.5" y="-26.25" font-family="Helvetica,sans-Serif" font-size="10.00">kest_parse_dict_val</text>
</a>
</g>
</g>
<!-- Node1&#45;&gt;Node3 -->
<g id="edge6_Node000001_Node000003" class="edge">
<title>Node1&#45;&gt;Node3</title>
<g id="a_edge6_Node000001_Node000003"><a xlink:title=" ">
<path fill="none" stroke="#63b8ff" d="M442.83,-15.03C389.66,-18.39 319.06,-22.84 270.73,-25.89"/>
<polygon fill="#63b8ff" stroke="#63b8ff" points="442.96,-18.53 452.72,-14.41 442.52,-11.54 442.96,-18.53"/>
</a>
</g>
</g>
<!-- Node4 -->
<g id="Node000004" class="node">
<title>Node4</title>
<g id="a_Node000004"><a xlink:href="kest__dictionary_8c.html#aae3fbdeba250be8f6dd3dfa686eb24a8" target="_top" xlink:title=" ">
<polygon fill="#fff0f0" stroke="red" points="122.5,-39.75 0,-39.75 0,-19 122.5,-19 122.5,-39.75"/>
<text xml:space="preserve" text-anchor="middle" x="61.25" y="-26.25" font-family="Helvetica,sans-Serif" font-size="10.00">kest_parse_dictionary</text>
</a>
</g>
</g>
<!-- Node1&#45;&gt;Node4 -->
<g id="edge7_Node000001_Node000004" class="edge">
<title>Node1&#45;&gt;Node4</title>
<g id="a_edge7_Node000001_Node000004"><a xlink:title=" ">
<path fill="none" stroke="#63b8ff" d="M442.73,-6.19C370.18,-3.07 256.44,-0.8 158.5,-10.38 141.72,-12.02 123.52,-15.23 107.51,-18.55"/>
<polygon fill="#63b8ff" stroke="#63b8ff" points="442.36,-9.68 452.5,-6.63 442.67,-2.68 442.36,-9.68"/>
</a>
</g>
</g>
<!-- Node2&#45;&gt;Node3 -->
<g id="edge2_Node000002_Node000003" class="edge">
<title>Node2&#45;&gt;Node3</title>
<g id="a_edge2_Node000002_Node000003"><a xlink:title=" ">
<path fill="none" stroke="#63b8ff" d="M313.23,-35.7C299.66,-33.53 284.8,-31.53 270.85,-30.01"/>
<polygon fill="#63b8ff" stroke="#63b8ff" points="312.35,-39.1 322.79,-37.31 313.51,-32.2 312.35,-39.1"/>
</a>
</g>
</g>
<!-- Node3&#45;&gt;Node2 -->
<g id="edge3_Node000003_Node000002" class="edge">
<title>Node3&#45;&gt;Node2</title>
<g id="a_edge3_Node000003_Node000002"><a xlink:title=" ">
<path fill="none" stroke="#63b8ff" d="M263.73,-42.04C277.36,-44.23 292.3,-46.23 306.3,-47.76"/>
<polygon fill="#63b8ff" stroke="#63b8ff" points="264.58,-38.64 254.13,-40.43 263.41,-45.54 264.58,-38.64"/>
</a>
</g>
</g>
<!-- Node3&#45;&gt;Node4 -->
<g id="edge4_Node000003_Node000004" class="edge">
<title>Node3&#45;&gt;Node4</title>
<g id="a_edge4_Node000003_Node000004"><a xlink:title=" ">
<path fill="none" stroke="#63b8ff" d="M146.58,-22.66C138.66,-22.59 130.62,-22.62 122.8,-22.75"/>
<polygon fill="#63b8ff" stroke="#63b8ff" points="146.47,-26.16 156.53,-22.82 146.58,-19.16 146.47,-26.16"/>
</a>
</g>
</g>
<!-- Node4&#45;&gt;Node3 -->
<g id="edge5_Node000004_Node000003" class="edge">
<title>Node4&#45;&gt;Node3</title>
<g id="a_edge5_Node000004_Node000003"><a xlink:title=" ">
<path fill="none" stroke="#63b8ff" d="M134.1,-36.12C142.14,-36.15 150.25,-36.08 158.04,-35.91"/>
<polygon fill="#63b8ff" stroke="#63b8ff" points="134.35,-32.62 124.32,-36.02 134.28,-39.62 134.35,-32.62"/>
</a>
</g>
</g>
</g>
</svg>
