<?xml version="1.0" encoding="UTF-8" standalone="no"?>
<!DOCTYPE svg PUBLIC "-//W3C//DTD SVG 1.1//EN"
 "http://www.w3.org/Graphics/SVG/1.1/DTD/svg11.dtd">
<!-- Generated by graphviz version 13.1.2 (20250808.2320)
 -->
<!-- Title: cxt_get_setting_by_id Pages: 1 -->
<svg width="440pt" height="68pt"
 viewBox="0.00 0.00 440.00 68.00" xmlns="http://www.w3.org/2000/svg" xmlns:xlink="http://www.w3.org/1999/xlink">
<g id="graph0" class="graph" transform="scale(1 1) rotate(0) translate(4 63.75)">
<title>cxt_get_setting_by_id</title>
<!-- Node1 -->
<g id="Node000001" class="node">
<title>Node1</title>
<g id="a_Node000001"><a xlink:title=" ">
<polygon fill="#999999" stroke="#666666" points="122.5,-39.75 0,-39.75 0,-19 122.5,-19 122.5,-39.75"/>
<text xml:space="preserve" text-anchor="middle" x="61.25" y="-26.25" font-family="Helvetica,sans-Serif" font-size="10.00">cxt_get_setting_by_id</text>
</a>
</g>
</g>
<!-- Node2 -->
<g id="Node000002" class="node">
<title>Node2</title>
<g id="a_Node000002"><a xlink:href="kest__context_8c.html#a41b599ca3666ca30ec4c720ef2841d1d" target="_top" xlink:title=" ">
<polygon fill="white" stroke="#666666" points="275.75,-59.75 158.5,-59.75 158.5,-39 275.75,-39 275.75,-59.75"/>
<text xml:space="preserve" text-anchor="middle" x="217.12" y="-46.25" font-family="Helvetica,sans-Serif" font-size="10.00">cxt_get_effect_by_id</text>
</a>
</g>
</g>
<!-- Node1&#45;&gt;Node2 -->
<g id="edge1_Node000001_Node000002" class="edge">
<title>Node1&#45;&gt;Node2</title>
<g id="a_edge1_Node000001_Node000002"><a xlink:title=" ">
<path fill="none" stroke="#63b8ff" d="M122.62,-37.22C130.58,-38.26 138.78,-39.32 146.87,-40.37"/>
<polygon fill="#63b8ff" stroke="#63b8ff" points="146.32,-43.83 156.69,-41.65 147.22,-36.89 146.32,-43.83"/>
</a>
</g>
</g>
<!-- Node4 -->
<g id="Node000004" class="node">
<title>Node4</title>
<g id="a_Node000004"><a xlink:href="kest__effect_8c.html#aceece5194f228b68bb824012fcf7c1ff" target="_top" xlink:title=" ">
<polygon fill="white" stroke="#666666" points="269.38,-20.75 164.88,-20.75 164.88,0 269.38,0 269.38,-20.75"/>
<text xml:space="preserve" text-anchor="middle" x="217.12" y="-7.25" font-family="Helvetica,sans-Serif" font-size="10.00">effect_get_setting</text>
</a>
</g>
</g>
<!-- Node1&#45;&gt;Node4 -->
<g id="edge3_Node000001_Node000004" class="edge">
<title>Node1&#45;&gt;Node4</title>
<g id="a_edge3_Node000001_Node000004"><a xlink:title=" ">
<path fill="none" stroke="#63b8ff" d="M122.62,-21.92C132.66,-20.68 143.08,-19.39 153.18,-18.15"/>
<polygon fill="#63b8ff" stroke="#63b8ff" points="153.4,-21.65 162.89,-16.95 152.54,-14.7 153.4,-21.65"/>
</a>
</g>
</g>
<!-- Node3 -->
<g id="Node000003" class="node">
<title>Node3</title>
<g id="a_Node000003"><a xlink:href="kest__context_8c.html#a8a0da058a66a81e046c9dbe0394cb1b8" target="_top" xlink:title=" ">
<polygon fill="white" stroke="#666666" points="432,-59.75 311.75,-59.75 311.75,-39 432,-39 432,-59.75"/>
<text xml:space="preserve" text-anchor="middle" x="371.88" y="-46.25" font-family="Helvetica,sans-Serif" font-size="10.00">cxt_get_profile_by_id</text>
</a>
</g>
</g>
<!-- Node2&#45;&gt;Node3 -->
<g id="edge2_Node000002_Node000003" class="edge">
<title>Node2&#45;&gt;Node3</title>
<g id="a_edge2_Node000002_Node000003"><a xlink:title=" ">
<path fill="none" stroke="#63b8ff" d="M275.87,-49.38C283.74,-49.38 291.89,-49.38 299.95,-49.38"/>
<polygon fill="#63b8ff" stroke="#63b8ff" points="299.75,-52.88 309.75,-49.38 299.75,-45.88 299.75,-52.88"/>
</a>
</g>
</g>
</g>
</svg>
