<?xml version="1.0" encoding="UTF-8" standalone="no"?>
<!DOCTYPE svg PUBLIC "-//W3C//DTD SVG 1.1//EN"
 "http://www.w3.org/Graphics/SVG/1.1/DTD/svg11.dtd">
<!-- Generated by graphviz version 13.1.2 (20250808.2320)
 -->
<!-- Title: init_band_pass_filter Pages: 1 -->
<svg width="590pt" height="113pt"
 viewBox="0.00 0.00 590.00 113.00" xmlns="http://www.w3.org/2000/svg" xmlns:xlink="http://www.w3.org/1999/xlink">
<g id="graph0" class="graph" transform="scale(1 1) rotate(0) translate(4 109.12)">
<title>init_band_pass_filter</title>
<!-- Node1 -->
<g id="Node000001" class="node">
<title>Node1</title>
<g id="a_Node000001"><a xlink:title=" ">
<polygon fill="#999999" stroke="#666666" points="117.25,-59.75 0,-59.75 0,-39 117.25,-39 117.25,-59.75"/>
<text xml:space="preserve" text-anchor="middle" x="58.62" y="-46.25" font-family="Helvetica,sans-Serif" font-size="10.00">init_band_pass_filter</text>
</a>
</g>
</g>
<!-- Node2 -->
<g id="Node000002" class="node">
<title>Node2</title>
<g id="a_Node000002"><a xlink:href="kest__effect_8c.html#a8dc8fceab7f835d960ea95e4f21fe327" target="_top" xlink:title=" ">
<polygon fill="white" stroke="#666666" points="277.25,-59.75 153.25,-59.75 153.25,-39 277.25,-39 277.25,-59.75"/>
<text xml:space="preserve" text-anchor="middle" x="215.25" y="-46.25" font-family="Helvetica,sans-Serif" font-size="10.00">effect_add_parameter</text>
</a>
</g>
</g>
<!-- Node1&#45;&gt;Node2 -->
<g id="edge1_Node000001_Node000002" class="edge">
<title>Node1&#45;&gt;Node2</title>
<g id="a_edge1_Node000001_Node000002"><a xlink:title=" ">
<path fill="none" stroke="#63b8ff" d="M117.64,-49.38C125.45,-49.38 133.53,-49.38 141.55,-49.38"/>
<polygon fill="#63b8ff" stroke="#63b8ff" points="141.29,-52.88 151.29,-49.38 141.29,-45.88 141.29,-52.88"/>
</a>
</g>
</g>
<!-- Node3 -->
<g id="Node000003" class="node">
<title>Node3</title>
<g id="a_Node000003"><a xlink:href="kest__parameter_8c.html#a41fafa04c21a8ab5916a8ceb5442d99a" target="_top" xlink:title=" ">
<polygon fill="white" stroke="#666666" points="419.25,-98.75 313.25,-98.75 313.25,-78 419.25,-78 419.25,-98.75"/>
<text xml:space="preserve" text-anchor="middle" x="366.25" y="-85.25" font-family="Helvetica,sans-Serif" font-size="10.00">init_parameter_str</text>
</a>
</g>
</g>
<!-- Node2&#45;&gt;Node3 -->
<g id="edge2_Node000002_Node000003" class="edge">
<title>Node2&#45;&gt;Node3</title>
<g id="a_edge2_Node000002_Node000003"><a xlink:title=" ">
<path fill="none" stroke="#63b8ff" d="M257.75,-60.24C274.8,-64.7 294.73,-69.92 312.77,-74.64"/>
<polygon fill="#63b8ff" stroke="#63b8ff" points="311.69,-77.97 322.25,-77.12 313.46,-71.2 311.69,-77.97"/>
</a>
</g>
</g>
<!-- Node7 -->
<g id="Node000007" class="node">
<title>Node7</title>
<g id="a_Node000007"><a xlink:href="kest__alloc_8c.html#a849755c5dc5b35e712ffcdb602e50fb4" target="_top" xlink:title=" ">
<polygon fill="white" stroke="#666666" points="398.62,-59.75 333.88,-59.75 333.88,-39 398.62,-39 398.62,-59.75"/>
<text xml:space="preserve" text-anchor="middle" x="366.25" y="-46.25" font-family="Helvetica,sans-Serif" font-size="10.00">kest_alloc</text>
</a>
</g>
</g>
<!-- Node2&#45;&gt;Node7 -->
<g id="edge4_Node000002_Node000007" class="edge">
<title>Node2&#45;&gt;Node7</title>
<g id="a_edge4_Node000002_Node000007"><a xlink:title=" ">
<path fill="none" stroke="#63b8ff" d="M277.71,-49.38C292.74,-49.38 308.51,-49.38 322.45,-49.38"/>
<polygon fill="#63b8ff" stroke="#63b8ff" points="322.16,-52.88 332.16,-49.38 322.16,-45.88 322.16,-52.88"/>
</a>
</g>
</g>
<!-- Node8 -->
<g id="Node000008" class="node">
<title>Node8</title>
<g id="a_Node000008"><a xlink:href="kest__alloc_8c.html#a294af5728a94aa316fcf65304d388d48" target="_top" xlink:title=" ">
<polygon fill="white" stroke="#666666" points="396.75,-20.75 335.75,-20.75 335.75,0 396.75,0 396.75,-20.75"/>
<text xml:space="preserve" text-anchor="middle" x="366.25" y="-7.25" font-family="Helvetica,sans-Serif" font-size="10.00">kest_free</text>
</a>
</g>
</g>
<!-- Node2&#45;&gt;Node8 -->
<g id="edge5_Node000002_Node000008" class="edge">
<title>Node2&#45;&gt;Node8</title>
<g id="a_edge5_Node000002_Node000008"><a xlink:title=" ">
<path fill="none" stroke="#63b8ff" d="M257.75,-38.51C278.53,-33.07 303.6,-26.51 324.31,-21.09"/>
<polygon fill="#63b8ff" stroke="#63b8ff" points="325.05,-24.52 333.84,-18.6 323.28,-17.74 325.05,-24.52"/>
</a>
</g>
</g>
<!-- Node4 -->
<g id="Node000004" class="node">
<title>Node4</title>
<g id="a_Node000004"><a xlink:href="kest__parameter_8c.html#abff5b0dd3ed907207191aa6079c514eb" target="_top" xlink:title=" ">
<polygon fill="#fff0f0" stroke="red" points="581.5,-105.12 455.25,-105.12 455.25,-71.62 581.5,-71.62 581.5,-105.12"/>
<text xml:space="preserve" text-anchor="start" x="463.25" y="-91.62" font-family="Helvetica,sans-Serif" font-size="10.00">kest_parameter_effect</text>
<text xml:space="preserve" text-anchor="middle" x="518.38" y="-78.88" font-family="Helvetica,sans-Serif" font-size="10.00">_rep_update</text>
</a>
</g>
</g>
<!-- Node3&#45;&gt;Node4 -->
<g id="edge3_Node000003_Node000004" class="edge">
<title>Node3&#45;&gt;Node4</title>
<g id="a_edge3_Node000003_Node000004"><a xlink:title=" ">
<path fill="none" stroke="#63b8ff" d="M419.34,-88.38C427.11,-88.38 435.24,-88.38 443.36,-88.38"/>
<polygon fill="#63b8ff" stroke="#63b8ff" points="443.27,-91.88 453.27,-88.38 443.27,-84.88 443.27,-91.88"/>
</a>
</g>
</g>
</g>
</svg>
