<?xml version="1.0" encoding="UTF-8" standalone="no"?>
<!DOCTYPE svg PUBLIC "-//W3C//DTD SVG 1.1//EN"
 "http://www.w3.org/Graphics/SVG/1.1/DTD/svg11.dtd">
<!-- Generated by graphviz version 13.1.2 (20250808.2320)
 -->
<!-- Title: print_instruction Pages: 1 -->
<svg width="477pt" height="68pt"
 viewBox="0.00 0.00 477.00 68.00" xmlns="http://www.w3.org/2000/svg" xmlns:xlink="http://www.w3.org/1999/xlink">

<svg id="main" version="1.1" xmlns="http://www.w3.org/2000/svg" xmlns:xlink="http://www.w3.org/1999/xlink" xml:space="preserve">

<style type="text/css"><![CDATA[
.node, .edge {opacity: 0.7;}
.node.selected, .edge.selected {opacity: 1;}
.edge:hover path { stroke: red; }
.edge:hover polygon { stroke: red; fill: red; }
]]></style>
<script type="application/ecmascript" xlink:href="svg.min.js"/>
<svg id="graph" class="graph">
<g id="graph0" class="graph" transform="scale(1 1) rotate(0) translate(4 63.75)">
<title>print_instruction</title>
<!-- Node1 -->
<g id="Node000001" class="node">
<title>Node1</title>
<g id="a_Node000001"><a xlink:title=" ">
<polygon fill="#999999" stroke="#666666" points="95.5,-39.75 0,-39.75 0,-19 95.5,-19 95.5,-39.75"/>
<text xml:space="preserve" text-anchor="middle" x="47.75" y="-26.25" font-family="Helvetica,sans-Serif" font-size="10.00">print_instruction</text>
</a>
</g>
</g>
<!-- Node2 -->
<g id="Node000002" class="node">
<title>Node2</title>
<g id="a_Node000002"><a xlink:href="kest__fpga__encoding_8c.html#a7ca2a1fbddc5d291e6f3196e060cd163" target="_top" xlink:title=" ">
<polygon fill="white" stroke="#666666" points="276.5,-59.75 131.5,-59.75 131.5,-39 276.5,-39 276.5,-59.75"/>
<text xml:space="preserve" text-anchor="middle" x="204" y="-46.25" font-family="Helvetica,sans-Serif" font-size="10.00">print_instruction_format_a</text>
</a>
</g>
</g>
<!-- Node1&#45;&gt;Node2 -->
<g id="edge1_Node000001_Node000002" class="edge">
<title>Node1&#45;&gt;Node2</title>
<g id="a_edge1_Node000001_Node000002"><a xlink:title=" ">
<path fill="none" stroke="#63b8ff" d="M95.87,-35.48C103.54,-36.48 111.69,-37.54 119.92,-38.6"/>
<polygon fill="#63b8ff" stroke="#63b8ff" points="119.31,-42.05 129.67,-39.87 120.21,-35.11 119.31,-42.05"/>
</a>
</g>
</g>
<!-- Node4 -->
<g id="Node000004" class="node">
<title>Node4</title>
<g id="a_Node000004"><a xlink:href="kest__fpga__encoding_8c.html#a742d286efbcdfcfb04471fac4282b318" target="_top" xlink:title=" ">
<polygon fill="white" stroke="#666666" points="276.5,-20.75 131.5,-20.75 131.5,0 276.5,0 276.5,-20.75"/>
<text xml:space="preserve" text-anchor="middle" x="204" y="-7.25" font-family="Helvetica,sans-Serif" font-size="10.00">print_instruction_format_b</text>
</a>
</g>
</g>
<!-- Node1&#45;&gt;Node4 -->
<g id="edge3_Node000001_Node000004" class="edge">
<title>Node1&#45;&gt;Node4</title>
<g id="a_edge3_Node000001_Node000004"><a xlink:title=" ">
<path fill="none" stroke="#63b8ff" d="M95.87,-23.57C103.54,-22.63 111.69,-21.62 119.92,-20.61"/>
<polygon fill="#63b8ff" stroke="#63b8ff" points="120.17,-24.1 129.67,-19.41 119.32,-17.16 120.17,-24.1"/>
</a>
</g>
</g>
<!-- Node3 -->
<g id="Node000003" class="node">
<title>Node3</title>
<g id="a_Node000003"><a xlink:href="kest__fpga__encoding_8c.html#a039fa960f21627306a112807eb973b8f" target="_top" xlink:title=" ">
<polygon fill="white" stroke="#666666" points="468.75,-39.75 312.5,-39.75 312.5,-19 468.75,-19 468.75,-39.75"/>
<text xml:space="preserve" text-anchor="middle" x="390.62" y="-26.25" font-family="Helvetica,sans-Serif" font-size="10.00">kest_block_opcode_to_name</text>
</a>
</g>
</g>
<!-- Node2&#45;&gt;Node3 -->
<g id="edge2_Node000002_Node000003" class="edge">
<title>Node2&#45;&gt;Node3</title>
<g id="a_edge2_Node000002_Node000003"><a xlink:title=" ">
<path fill="none" stroke="#63b8ff" d="M276.91,-41.59C284.75,-40.74 292.81,-39.86 300.82,-38.99"/>
<polygon fill="#63b8ff" stroke="#63b8ff" points="301.04,-42.49 310.6,-37.94 300.29,-35.53 301.04,-42.49"/>
</a>
</g>
</g>
<!-- Node4&#45;&gt;Node3 -->
<g id="edge4_Node000004_Node000003" class="edge">
<title>Node4&#45;&gt;Node3</title>
<g id="a_edge4_Node000004_Node000003"><a xlink:title=" ">
<path fill="none" stroke="#63b8ff" d="M276.91,-17.78C284.75,-18.58 292.81,-19.41 300.82,-20.24"/>
<polygon fill="#63b8ff" stroke="#63b8ff" points="300.3,-23.7 310.6,-21.24 301.01,-16.74 300.3,-23.7"/>
</a>
</g>
</g>
</g>
</svg>
</svg>

<style type='text/css'>
<![CDATA[
[data-mouse-over-selected='false'] { opacity: 0.7; }
[data-mouse-over-selected='true']  { opacity: 1.0; }
]]>
</style>
<script type="application/ecmascript"><![CDATA[
document.addEventListener('DOMContentLoaded', (event) => {
  highlightEdges();
  highlightAdjacentNodes();
});
]]></script>
</svg>
