<?xml version="1.0" encoding="UTF-8" standalone="no"?>
<!DOCTYPE svg PUBLIC "-//W3C//DTD SVG 1.1//EN"
 "http://www.w3.org/Graphics/SVG/1.1/DTD/svg11.dtd">
<!-- Generated by graphviz version 13.1.2 (20250808.2320)
 -->
<!-- Title: configure_sequence_list Pages: 1 -->
<!--zoomable 1037 -->

<svg id="main" version="1.1" xmlns="http://www.w3.org/2000/svg" xmlns:xlink="http://www.w3.org/1999/xlink" xml:space="preserve" onload="init(evt)">

<style type="text/css"><![CDATA[
.node, .edge {opacity: 0.7;}
.node.selected, .edge.selected {opacity: 1;}
.edge:hover path { stroke: red; }
.edge:hover polygon { stroke: red; fill: red; }
]]></style>

<defs>
  <circle id="rim" cx="0" cy="0" r="7"/>
  <circle id="rim2" cx="0" cy="0" r="3.5"/>
  <g id="zoomPlus">
    <use xlink:href="#rim" fill="#404040"><set attributeName="fill" to="#808080" begin="zoomplus.mouseover" end="zoomplus.mouseout"/></use>
    <path d="M-4,0h8M0,-4v8" fill="none" stroke="white" stroke-width="1.5" pointer-events="none"/>
  </g>
  <g id="zoomMin">
    <use xlink:href="#rim" fill="#404040"><set attributeName="fill" to="#808080" begin="zoomminus.mouseover" end="zoomminus.mouseout"/></use>
    <path d="M-4,0h8" fill="none" stroke="white" stroke-width="1.5" pointer-events="none"/>
  </g>
  <g id="arrowUp" transform="translate(30 24)">
    <use xlink:href="#rim"/>
    <path pointer-events="none" fill="none" stroke="white" stroke-width="1.5" d="M0,-3.0v7 M-2.5,-0.5L0,-3.0L2.5,-0.5"/>
  </g>
  <g id="arrowRight" transform="rotate(90) translate(36 -43)">
    <use xlink:href="#rim"/>
    <path pointer-events="none" fill="none" stroke="white" stroke-width="1.5" d="M0,-3.0v7 M-2.5,-0.5L0,-3.0L2.5,-0.5"/>
  </g>
  <g id="arrowDown" transform="rotate(180) translate(-30 -48)">
    <use xlink:href="#rim"/>
    <path pointer-events="none" fill="none" stroke="white" stroke-width="1.5" d="M0,-3.0v7 M-2.5,-0.5L0,-3.0L2.5,-0.5"/>
  </g>
  <g id="arrowLeft" transform="rotate(270) translate(-36 17)">
    <use xlink:href="#rim"/>
    <path pointer-events="none" fill="none" stroke="white" stroke-width="1.5" d="M0,-3.0v7 M-2.5,-0.5L0,-3.0L2.5,-0.5"/>
  </g>
  <g id="resetDef">
    <use xlink:href="#rim2" fill="#404040"><set attributeName="fill" to="#808080" begin="reset.mouseover" end="reset.mouseout"/></use>
  </g>
</defs>
<script type="application/ecmascript">
var viewWidth = 995;
var viewHeight = 1037;
var sectionId = 'dynsection-1';
</script>
<script type="application/ecmascript" xlink:href="svg.min.js"/>
<svg id="graph" class="graph">
<g id="viewport">
<title>configure_sequence_list</title>
<!-- Node1 -->
<g id="Node000001" class="node">
<title>Node1</title>
<g id="a_Node000001"><a xlink:title=" ">
<polygon fill="#999999" stroke="#666666" points="133.75,-565.03 0,-565.03 0,-544.28 133.75,-544.28 133.75,-565.03"/>
<text xml:space="preserve" text-anchor="middle" x="66.88" y="-551.53" font-family="Helvetica,sans-Serif" font-size="10.00">configure_sequence_list</text>
</a>
</g>
</g>
<!-- Node2 -->
<g id="Node000002" class="node">
<title>Node2</title>
<g id="a_Node000002"><a xlink:href="kest__sequence__list_8c.html#a0350526aca07d7cc68e8325cf0b1f02c" target="_top" xlink:title=" ">
<polygon fill="white" stroke="#666666" points="499.5,-907.41 365.75,-907.41 365.75,-873.91 499.5,-873.91 499.5,-907.41"/>
<text xml:space="preserve" text-anchor="start" x="373.75" y="-893.91" font-family="Helvetica,sans-Serif" font-size="10.00">create_sequence_listing</text>
<text xml:space="preserve" text-anchor="middle" x="432.62" y="-881.16" font-family="Helvetica,sans-Serif" font-size="10.00">_menu_item</text>
</a>
</g>
</g>
<!-- Node1&#45;&gt;Node2 -->
<g id="edge1_Node000001_Node000002" class="edge">
<title>Node1&#45;&gt;Node2</title>
<g id="a_edge1_Node000001_Node000002"><a xlink:title=" ">
<path fill="none" stroke="#63b8ff" d="M74.41,-565.31C101.91,-609.22 213.05,-778 348.5,-864.66 350.62,-866.01 352.82,-867.3 355.07,-868.53"/>
<polygon fill="#63b8ff" stroke="#63b8ff" points="353.38,-871.6 363.9,-872.85 356.46,-865.31 353.38,-871.6"/>
</a>
</g>
</g>
<!-- Node7 -->
<g id="Node000007" class="node">
<title>Node7</title>
<g id="a_Node000007"><a xlink:href="kest__menu_8c.html#a32a51795f1b204927f10b268fc1e9ce2" target="_top" xlink:title=" ">
<polygon fill="white" stroke="#666666" points="494.62,-48.03 370.62,-48.03 370.62,-27.28 494.62,-27.28 494.62,-48.03"/>
<text xml:space="preserve" text-anchor="middle" x="432.62" y="-34.53" font-family="Helvetica,sans-Serif" font-size="10.00">menu_page_add_item</text>
</a>
</g>
</g>
<!-- Node1&#45;&gt;Node7 -->
<g id="edge7_Node000001_Node000007" class="edge">
<title>Node1&#45;&gt;Node7</title>
<g id="a_edge7_Node000001_Node000007"><a xlink:title=" ">
<path fill="none" stroke="#63b8ff" d="M134.22,-553.32C198.29,-550.52 288.98,-542.03 312.5,-516.66 382.05,-441.62 282.08,-135.48 348.5,-57.66 351.84,-53.74 355.81,-50.52 360.16,-47.87"/>
<polygon fill="#63b8ff" stroke="#63b8ff" points="361.41,-51.16 368.86,-43.63 358.34,-44.86 361.41,-51.16"/>
</a>
</g>
</g>
<!-- Node8 -->
<g id="Node000008" class="node">
<title>Node8</title>
<g id="a_Node000008"><a xlink:href="kest__ui_8c.html#a01360963fabe989a816b58c78cbc041b" target="_top" xlink:title=" ">
<polygon fill="white" stroke="#666666" points="275.38,-965.03 206.88,-965.03 206.88,-944.28 275.38,-944.28 275.38,-965.03"/>
<text xml:space="preserve" text-anchor="middle" x="241.12" y="-951.53" font-family="Helvetica,sans-Serif" font-size="10.00">new_panel</text>
</a>
</g>
</g>
<!-- Node1&#45;&gt;Node8 -->
<g id="edge8_Node000001_Node000008" class="edge">
<title>Node1&#45;&gt;Node8</title>
<g id="a_edge8_Node000001_Node000008"><a xlink:title=" ">
<path fill="none" stroke="#63b8ff" d="M72.48,-565.35C95.69,-619.25 199.91,-861.27 231.21,-933.95"/>
<polygon fill="#63b8ff" stroke="#63b8ff" points="227.82,-934.92 234.98,-942.72 234.24,-932.15 227.82,-934.92"/>
</a>
</g>
</g>
<!-- Node10 -->
<g id="Node000010" class="node">
<title>Node10</title>
<g id="a_Node000010"><a xlink:href="kest__sequence__list_8c.html#ac9d222d7405758d9f4edfeabe4c6200e" target="_top" xlink:title=" ">
<polygon fill="white" stroke="#666666" points="302.38,-584.03 179.88,-584.03 179.88,-563.28 302.38,-563.28 302.38,-584.03"/>
<text xml:space="preserve" text-anchor="middle" x="241.12" y="-570.53" font-family="Helvetica,sans-Serif" font-size="10.00">sequence_list_add_cb</text>
</a>
</g>
</g>
<!-- Node1&#45;&gt;Node10 -->
<g id="edge11_Node000001_Node000010" class="edge">
<title>Node1&#45;&gt;Node10</title>
<g id="a_edge11_Node000001_Node000010"><a xlink:title=" ">
<path fill="none" stroke="#63b8ff" d="M133.98,-561.95C145.22,-563.19 156.95,-564.48 168.33,-565.74"/>
<polygon fill="#63b8ff" stroke="#63b8ff" points="167.73,-569.19 178.06,-566.81 168.5,-562.23 167.73,-569.19"/>
</a>
</g>
</g>
<!-- Node133 -->
<g id="Node000133" class="node">
<title>Node133</title>
<g id="a_Node000133"><a xlink:href="kest__ui_8c.html#a349acdb394f97d782e6b5828af856b05" target="_top" xlink:title=" ">
<polygon fill="#fff0f0" stroke="red" points="312.5,-508.03 169.75,-508.03 169.75,-487.28 312.5,-487.28 312.5,-508.03"/>
<text xml:space="preserve" text-anchor="middle" x="241.12" y="-494.53" font-family="Helvetica,sans-Serif" font-size="10.00">ui_page_add_back_button</text>
</a>
</g>
</g>
<!-- Node1&#45;&gt;Node133 -->
<g id="edge40_Node000001_Node000133" class="edge">
<title>Node1&#45;&gt;Node133</title>
<g id="a_edge40_Node000001_Node000133"><a xlink:title=" ">
<path fill="none" stroke="#63b8ff" d="M100.68,-543.8C127.98,-534.77 167.06,-521.83 196.9,-511.96"/>
<polygon fill="#63b8ff" stroke="#63b8ff" points="197.61,-515.41 206.01,-508.95 195.41,-508.76 197.61,-515.41"/>
</a>
</g>
</g>
<!-- Node150 -->
<g id="Node000150" class="node">
<title>Node150</title>
<g id="a_Node000150"><a xlink:href="kest__ui_8c.html#a446fd8da13243be96d2ce6a5ff1f1f7b" target="_top" xlink:title=" ">
<polygon fill="#fff0f0" stroke="red" points="300.12,-469.41 182.12,-469.41 182.12,-435.91 300.12,-435.91 300.12,-469.41"/>
<text xml:space="preserve" text-anchor="start" x="190.12" y="-455.91" font-family="Helvetica,sans-Serif" font-size="10.00">ui_page_add_bottom</text>
<text xml:space="preserve" text-anchor="middle" x="241.12" y="-443.16" font-family="Helvetica,sans-Serif" font-size="10.00">_button</text>
</a>
</g>
</g>
<!-- Node1&#45;&gt;Node150 -->
<g id="edge41_Node000001_Node000150" class="edge">
<title>Node1&#45;&gt;Node150</title>
<g id="a_edge41_Node000001_Node000150"><a xlink:title=" ">
<path fill="none" stroke="#63b8ff" d="M79.95,-543.82C98.26,-527.81 134.65,-497.71 169.75,-478.66 172.4,-477.22 175.14,-475.83 177.93,-474.49"/>
<polygon fill="#63b8ff" stroke="#63b8ff" points="179.17,-477.77 186.87,-470.49 176.31,-471.39 179.17,-477.77"/>
</a>
</g>
</g>
<!-- Node3 -->
<g id="Node000003" class="node">
<title>Node3</title>
<g id="a_Node000003"><a xlink:href="kest__menu_8c.html#a1449503a7d3ba86031fa4c9f7b70649e" target="_top" xlink:title=" ">
<polygon fill="white" stroke="#666666" points="674.88,-977.03 582.38,-977.03 582.38,-956.28 674.88,-956.28 674.88,-977.03"/>
<text xml:space="preserve" text-anchor="middle" x="628.62" y="-963.53" font-family="Helvetica,sans-Serif" font-size="10.00">init_menu_item</text>
</a>
</g>
</g>
<!-- Node2&#45;&gt;Node3 -->
<g id="edge2_Node000002_Node000003" class="edge">
<title>Node2&#45;&gt;Node3</title>
<g id="a_edge2_Node000002_Node000003"><a xlink:title=" ">
<path fill="none" stroke="#63b8ff" d="M470.25,-907.79C493.61,-918.44 524.67,-932.06 552.75,-942.66 561.65,-946.02 571.26,-949.33 580.53,-952.36"/>
<polygon fill="#63b8ff" stroke="#63b8ff" points="579.16,-955.6 589.75,-955.33 581.3,-948.94 579.16,-955.6"/>
</a>
</g>
</g>
<!-- Node4 -->
<g id="Node000004" class="node">
<title>Node4</title>
<g id="a_Node000004"><a xlink:href="kest__alloc_8c.html#a849755c5dc5b35e712ffcdb602e50fb4" target="_top" xlink:title=" ">
<polygon fill="white" stroke="#666666" points="987,-528.03 922.25,-528.03 922.25,-507.28 987,-507.28 987,-528.03"/>
<text xml:space="preserve" text-anchor="middle" x="954.62" y="-514.53" font-family="Helvetica,sans-Serif" font-size="10.00">kest_alloc</text>
</a>
</g>
</g>
<!-- Node2&#45;&gt;Node4 -->
<g id="edge3_Node000002_Node000004" class="edge">
<title>Node2&#45;&gt;Node4</title>
<g id="a_edge3_Node000002_Node000004"><a xlink:title=" ">
<path fill="none" stroke="#63b8ff" d="M495.12,-873.45C572.23,-851.74 695.51,-816.5 704.5,-810.66 819.96,-735.56 911.11,-591.23 942.15,-538.01"/>
<polygon fill="#63b8ff" stroke="#63b8ff" points="945,-540.09 946.95,-529.68 938.93,-536.6 945,-540.09"/>
</a>
</g>
</g>
<!-- Node5 -->
<g id="Node000005" class="node">
<title>Node5</title>
<g id="a_Node000005"><a xlink:href="kest__sequence_8c.html#ad26e9912e9cca6e9a6e9c34f58eb5200" target="_top" xlink:title=" ">
<polygon fill="white" stroke="#666666" points="700.75,-900.41 556.5,-900.41 556.5,-866.91 700.75,-866.91 700.75,-900.41"/>
<text xml:space="preserve" text-anchor="start" x="564.5" y="-886.91" font-family="Helvetica,sans-Serif" font-size="10.00">kest_sequence_add_menu</text>
<text xml:space="preserve" text-anchor="middle" x="628.62" y="-874.16" font-family="Helvetica,sans-Serif" font-size="10.00">_listing</text>
</a>
</g>
</g>
<!-- Node2&#45;&gt;Node5 -->
<g id="edge4_Node000002_Node000005" class="edge">
<title>Node2&#45;&gt;Node5</title>
<g id="a_edge4_Node000002_Node000005"><a xlink:title=" ">
<path fill="none" stroke="#63b8ff" d="M499.85,-888.27C514.28,-887.75 529.73,-887.19 544.71,-886.65"/>
<polygon fill="#63b8ff" stroke="#63b8ff" points="544.68,-890.15 554.55,-886.29 544.43,-883.16 544.68,-890.15"/>
</a>
</g>
</g>
<!-- Node6 -->
<g id="Node000006" class="node">
<title>Node6</title>
<g id="a_Node000006"><a xlink:href="kest__alloc_8c.html#aed9ede1276c1ab3b4042c264ce64a3d2" target="_top" xlink:title=" ">
<polygon fill="white" stroke="#666666" points="852.5,-913.03 774.25,-913.03 774.25,-892.28 852.5,-892.28 852.5,-913.03"/>
<text xml:space="preserve" text-anchor="middle" x="813.38" y="-899.53" font-family="Helvetica,sans-Serif" font-size="10.00">kest_strndup</text>
</a>
</g>
</g>
<!-- Node2&#45;&gt;Node6 -->
<g id="edge5_Node000002_Node000006" class="edge">
<title>Node2&#45;&gt;Node6</title>
<g id="a_edge5_Node000002_Node000006"><a xlink:title=" ">
<path fill="none" stroke="#63b8ff" d="M499.87,-903.13C517.03,-905.83 535.53,-908.29 552.75,-909.66 619.98,-914.98 637.09,-911.84 704.5,-909.66 723.52,-909.04 744.39,-907.81 762.67,-906.56"/>
<polygon fill="#63b8ff" stroke="#63b8ff" points="762.72,-910.06 772.45,-905.86 762.23,-903.08 762.72,-910.06"/>
</a>
</g>
</g>
<!-- Node6&#45;&gt;Node4 -->
<g id="edge6_Node000006_Node000004" class="edge">
<title>Node6&#45;&gt;Node4</title>
<g id="a_edge6_Node000006_Node000004"><a xlink:title=" ">
<path fill="none" stroke="#63b8ff" d="M838.43,-891.94C854.46,-883.54 874.66,-870.32 886.25,-852.66 920.65,-800.23 944.18,-605.94 951.34,-539.84"/>
<polygon fill="#63b8ff" stroke="#63b8ff" points="954.81,-540.22 952.39,-529.91 947.85,-539.49 954.81,-540.22"/>
</a>
</g>
</g>
<!-- Node8&#45;&gt;Node4 -->
<g id="edge10_Node000008_Node000004" class="edge">
<title>Node8&#45;&gt;Node4</title>
<g id="a_edge10_Node000008_Node000004"><a xlink:title=" ">
<path fill="none" stroke="#63b8ff" d="M271.18,-965.42C374.99,-1001.81 729.77,-1107.91 886.25,-921.66 935.65,-862.86 949.65,-615.66 952.82,-539.85"/>
<polygon fill="#63b8ff" stroke="#63b8ff" points="956.31,-540.13 953.21,-530 949.32,-539.85 956.31,-540.13"/>
</a>
</g>
</g>
<!-- Node9 -->
<g id="Node000009" class="node">
<title>Node9</title>
<g id="a_Node000009"><a xlink:href="kest__ui_8c.html#a574d886c7fb2ce9bcf04b4a1e94576ac" target="_top" xlink:title=" ">
<polygon fill="white" stroke="#666666" points="464.62,-965.03 400.62,-965.03 400.62,-944.28 464.62,-944.28 464.62,-965.03"/>
<text xml:space="preserve" text-anchor="middle" x="432.62" y="-951.53" font-family="Helvetica,sans-Serif" font-size="10.00">init_panel</text>
</a>
</g>
</g>
<!-- Node8&#45;&gt;Node9 -->
<g id="edge9_Node000008_Node000009" class="edge">
<title>Node8&#45;&gt;Node9</title>
<g id="a_edge9_Node000008_Node000009"><a xlink:title=" ">
<path fill="none" stroke="#63b8ff" d="M275.57,-954.66C307.26,-954.66 354.99,-954.66 389.32,-954.66"/>
<polygon fill="#63b8ff" stroke="#63b8ff" points="388.89,-958.16 398.89,-954.66 388.89,-951.16 388.89,-958.16"/>
</a>
</g>
</g>
<!-- Node10&#45;&gt;Node2 -->
<g id="edge31_Node000010_Node000002" class="edge">
<title>Node10&#45;&gt;Node2</title>
<g id="a_edge31_Node000010_Node000002"><a xlink:title=" ">
<path fill="none" stroke="#63b8ff" d="M249.46,-584.44C263.69,-605.85 295.17,-655.61 312.5,-701.66 338.64,-771.09 298.34,-809.99 348.5,-864.66 350.75,-867.11 353.23,-869.33 355.89,-871.35"/>
<polygon fill="#63b8ff" stroke="#63b8ff" points="353.89,-874.23 364.21,-876.62 357.63,-868.31 353.89,-874.23"/>
</a>
</g>
</g>
<!-- Node10&#45;&gt;Node7 -->
<g id="edge38_Node000010_Node000007" class="edge">
<title>Node10&#45;&gt;Node7</title>
<g id="a_edge38_Node000010_Node000007"><a xlink:title=" ">
<path fill="none" stroke="#63b8ff" d="M296.13,-562.9C302.44,-559.59 308.16,-555.27 312.5,-549.66 379.5,-462.89 277.55,-141.23 348.5,-57.66 351.83,-53.73 355.79,-50.5 360.14,-47.85"/>
<polygon fill="#63b8ff" stroke="#63b8ff" points="361.39,-51.14 368.83,-43.6 358.31,-44.85 361.39,-51.14"/>
</a>
</g>
</g>
<!-- Node11 -->
<g id="Node000011" class="node">
<title>Node11</title>
<g id="a_Node000011"><a xlink:href="kest__menu_8c.html#aa44b42640611d3ca75f6b55206ebd08e" target="_top" xlink:title=" ">
<polygon fill="white" stroke="#666666" points="493.5,-480.03 371.75,-480.03 371.75,-459.28 493.5,-459.28 493.5,-480.03"/>
<text xml:space="preserve" text-anchor="middle" x="432.62" y="-466.53" font-family="Helvetica,sans-Serif" font-size="10.00">create_menu_item_ui</text>
</a>
</g>
</g>
<!-- Node10&#45;&gt;Node11 -->
<g id="edge12_Node000010_Node000011" class="edge">
<title>Node10&#45;&gt;Node11</title>
<g id="a_edge12_Node000010_Node000011"><a xlink:title=" ">
<path fill="none" stroke="#63b8ff" d="M279.75,-562.85C290.56,-559.21 302.21,-554.76 312.5,-549.66 348.24,-531.95 385.88,-505.09 409.06,-487.46"/>
<polygon fill="#63b8ff" stroke="#63b8ff" points="411.07,-490.32 416.86,-481.45 406.8,-484.78 411.07,-490.32"/>
</a>
</g>
</g>
<!-- Node18 -->
<g id="Node000018" class="node">
<title>Node18</title>
<g id="a_Node000018"><a xlink:href="kest__ui_8c.html#a2063cd4687cffa16c46c43deaa27642f" target="_top" xlink:title=" ">
<polygon fill="#fff0f0" stroke="red" points="879.88,-509.03 746.88,-509.03 746.88,-488.28 879.88,-488.28 879.88,-509.03"/>
<text xml:space="preserve" text-anchor="middle" x="813.38" y="-495.53" font-family="Helvetica,sans-Serif" font-size="10.00">enter_ui_page_forwards</text>
</a>
</g>
</g>
<!-- Node10&#45;&gt;Node18 -->
<g id="edge33_Node000010_Node000018" class="edge">
<title>Node10&#45;&gt;Node18</title>
<g id="a_edge33_Node000010_Node000018"><a xlink:title=" ">
<path fill="none" stroke="#63b8ff" d="M251.25,-584.29C300.54,-640.46 538.88,-895.77 704.5,-781.66 793.27,-720.49 809.05,-575.77 811.81,-520.57"/>
<polygon fill="#63b8ff" stroke="#63b8ff" points="815.29,-521.02 812.18,-510.89 808.3,-520.75 815.29,-521.02"/>
</a>
</g>
</g>
<!-- Node23 -->
<g id="Node000023" class="node">
<title>Node23</title>
<g id="a_Node000023"><a xlink:href="kest__sequence__view_8c.html#a6dd883651c2a7ff92c5ad28755953e91" target="_top" xlink:title=" ">
<polygon fill="#fff0f0" stroke="red" points="886.25,-208.03 740.5,-208.03 740.5,-187.28 886.25,-187.28 886.25,-208.03"/>
<text xml:space="preserve" text-anchor="middle" x="813.38" y="-194.53" font-family="Helvetica,sans-Serif" font-size="10.00">create_sequence_view_for</text>
</a>
</g>
</g>
<!-- Node10&#45;&gt;Node23 -->
<g id="edge32_Node000010_Node000023" class="edge">
<title>Node10&#45;&gt;Node23</title>
<g id="a_edge32_Node000010_Node000023"><a xlink:title=" ">
<path fill="none" stroke="#63b8ff" d="M289.01,-562.78C297.63,-559.1 305.96,-554.19 312.5,-547.66 345.04,-515.16 326.71,-491.15 348.5,-450.66 421.32,-315.33 415.7,-241.18 552.75,-171.66 625.77,-134.62 725.09,-162.84 777.18,-182.63"/>
<polygon fill="#63b8ff" stroke="#63b8ff" points="775.86,-185.87 786.45,-186.27 778.42,-179.36 775.86,-185.87"/>
</a>
</g>
</g>
<!-- Node233 -->
<g id="Node000233" class="node">
<title>Node233</title>
<g id="a_Node000233"><a xlink:href="kest__context_8c.html#ab67ff484aaa334c1425d4a580d645027" target="_top" xlink:title=" ">
<polygon fill="white" stroke="#666666" points="516.75,-87.03 348.5,-87.03 348.5,-66.28 516.75,-66.28 516.75,-87.03"/>
<text xml:space="preserve" text-anchor="middle" x="432.62" y="-73.53" font-family="Helvetica,sans-Serif" font-size="10.00">kest_context_add_sequence_rp</text>
</a>
</g>
</g>
<!-- Node10&#45;&gt;Node233 -->
<g id="edge34_Node000010_Node000233" class="edge">
<title>Node10&#45;&gt;Node233</title>
<g id="a_edge34_Node000010_Node000233"><a xlink:title=" ">
<path fill="none" stroke="#63b8ff" d="M296.09,-562.87C302.41,-559.56 308.14,-555.26 312.5,-549.66 373.96,-470.64 285.18,-178.18 348.5,-100.66 350.64,-98.04 353.04,-95.7 355.65,-93.6"/>
<polygon fill="#63b8ff" stroke="#63b8ff" points="357.46,-96.59 363.94,-88.21 353.64,-90.73 357.46,-96.59"/>
</a>
</g>
</g>
<!-- Node236 -->
<g id="Node000236" class="node">
<title>Node236</title>
<g id="a_Node000236"><a xlink:href="kest__sequence__list_8c.html#adf2cd426c7b7f2402c75e3a93cee4105" target="_top" xlink:title=" ">
<polygon fill="white" stroke="#666666" points="498,-855.41 367.25,-855.41 367.25,-821.91 498,-821.91 498,-855.41"/>
<text xml:space="preserve" text-anchor="start" x="375.25" y="-841.91" font-family="Helvetica,sans-Serif" font-size="10.00">sequence_listing_menu</text>
<text xml:space="preserve" text-anchor="middle" x="432.62" y="-829.16" font-family="Helvetica,sans-Serif" font-size="10.00">_item_refresh_active</text>
</a>
</g>
</g>
<!-- Node10&#45;&gt;Node236 -->
<g id="edge39_Node000010_Node000236" class="edge">
<title>Node10&#45;&gt;Node236</title>
<g id="a_edge39_Node000010_Node000236"><a xlink:title=" ">
<path fill="none" stroke="#63b8ff" d="M248.81,-584.29C262.16,-605.82 292.56,-656.4 312.5,-701.66 332.56,-747.19 313.84,-771.96 348.5,-807.66 351.27,-810.5 354.32,-813.09 357.57,-815.45"/>
<polygon fill="#63b8ff" stroke="#63b8ff" points="355.58,-818.33 365.91,-820.67 359.29,-812.4 355.58,-818.33"/>
</a>
</g>
</g>
<!-- Node11&#45;&gt;Node4 -->
<g id="edge16_Node000011_Node000004" class="edge">
<title>Node11&#45;&gt;Node4</title>
<g id="a_edge16_Node000011_Node000004"><a xlink:title=" ">
<path fill="none" stroke="#63b8ff" d="M433.95,-458.95C435.96,-414.18 450.33,-241.01 552.75,-171.66 573.06,-157.9 880.91,-174.1 886.25,-178.66 934.81,-220.1 949.19,-426.86 952.66,-495.48"/>
<polygon fill="#63b8ff" stroke="#63b8ff" points="949.17,-495.61 953.13,-505.43 956.16,-495.28 949.17,-495.61"/>
</a>
</g>
</g>
<!-- Node12 -->
<g id="Node000012" class="node">
<title>Node12</title>
<g id="a_Node000012"><a xlink:href="kest__ui_8c.html#aa1f5b3566872ce5240f8f4459efe1c23" target="_top" xlink:title=" ">
<polygon fill="white" stroke="#666666" points="694.38,-266.41 562.88,-266.41 562.88,-232.91 694.38,-232.91 694.38,-266.41"/>
<text xml:space="preserve" text-anchor="start" x="570.88" y="-252.91" font-family="Helvetica,sans-Serif" font-size="10.00">create_standard_button</text>
<text xml:space="preserve" text-anchor="middle" x="628.62" y="-240.16" font-family="Helvetica,sans-Serif" font-size="10.00">_click</text>
</a>
</g>
</g>
<!-- Node11&#45;&gt;Node12 -->
<g id="edge13_Node000011_Node000012" class="edge">
<title>Node11&#45;&gt;Node12</title>
<g id="a_edge13_Node000011_Node000012"><a xlink:title=" ">
<path fill="none" stroke="#63b8ff" d="M437.19,-459.09C448.61,-426.75 487.45,-328.16 552.75,-275.66 554.06,-274.6 555.41,-273.59 556.8,-272.62"/>
<polygon fill="#63b8ff" stroke="#63b8ff" points="558.41,-275.74 565.15,-267.56 554.79,-269.75 558.41,-275.74"/>
</a>
</g>
</g>
<!-- Node13 -->
<g id="Node000013" class="node">
<title>Node13</title>
<g id="a_Node000013"><a xlink:href="kest__ui_8c.html#ad374de505b9d51719f6aea221a650f0d" target="_top" xlink:title=" ">
<polygon fill="white" stroke="#666666" points="694.38,-772.41 562.88,-772.41 562.88,-738.91 694.38,-738.91 694.38,-772.41"/>
<text xml:space="preserve" text-anchor="start" x="570.88" y="-758.91" font-family="Helvetica,sans-Serif" font-size="10.00">create_standard_button</text>
<text xml:space="preserve" text-anchor="middle" x="628.62" y="-746.16" font-family="Helvetica,sans-Serif" font-size="10.00">_long_press_release</text>
</a>
</g>
</g>
<!-- Node11&#45;&gt;Node13 -->
<g id="edge14_Node000011_Node000013" class="edge">
<title>Node11&#45;&gt;Node13</title>
<g id="a_edge14_Node000011_Node000013"><a xlink:title=" ">
<path fill="none" stroke="#63b8ff" d="M435.43,-480.33C442.59,-519.5 472.65,-656.86 552.75,-729.66 553.67,-730.49 554.61,-731.29 555.58,-732.08"/>
<polygon fill="#63b8ff" stroke="#63b8ff" points="553.42,-734.84 563.65,-737.58 557.36,-729.05 553.42,-734.84"/>
</a>
</g>
</g>
<!-- Node14 -->
<g id="Node000014" class="node">
<title>Node14</title>
<g id="a_Node000014"><a xlink:href="kest__menu_8c.html#a15d832a992bd6837b88d98ee4ccce214" target="_top" xlink:title=" ">
<polygon fill="white" stroke="#666666" points="694.38,-720.41 562.88,-720.41 562.88,-686.91 694.38,-686.91 694.38,-720.41"/>
<text xml:space="preserve" text-anchor="start" x="570.88" y="-706.91" font-family="Helvetica,sans-Serif" font-size="10.00">danger_button_activate</text>
<text xml:space="preserve" text-anchor="middle" x="628.62" y="-694.16" font-family="Helvetica,sans-Serif" font-size="10.00">_popup_cb</text>
</a>
</g>
</g>
<!-- Node11&#45;&gt;Node14 -->
<g id="edge15_Node000011_Node000014" class="edge">
<title>Node11&#45;&gt;Node14</title>
<g id="a_edge15_Node000011_Node000014"><a xlink:title=" ">
<path fill="none" stroke="#63b8ff" d="M436.8,-480.5C447.36,-514.65 484.53,-621.07 552.75,-677.66 553.88,-678.59 555.05,-679.5 556.25,-680.37"/>
<polygon fill="#63b8ff" stroke="#63b8ff" points="554.35,-683.32 564.68,-685.66 558.07,-677.38 554.35,-683.32"/>
</a>
</g>
</g>
<!-- Node15 -->
<g id="Node000015" class="node">
<title>Node15</title>
<g id="a_Node000015"><a xlink:href="kest__menu_8c.html#aa7e4ab7da169861ef6dff91b9052a6f7" target="_top" xlink:title=" ">
<polygon fill="white" stroke="#666666" points="700.38,-668.41 556.88,-668.41 556.88,-634.91 700.38,-634.91 700.38,-668.41"/>
<text xml:space="preserve" text-anchor="start" x="564.88" y="-654.91" font-family="Helvetica,sans-Serif" font-size="10.00">menu_item_profile_listing</text>
<text xml:space="preserve" text-anchor="middle" x="628.62" y="-642.16" font-family="Helvetica,sans-Serif" font-size="10.00">_long_pressed_cb</text>
</a>
</g>
</g>
<!-- Node11&#45;&gt;Node15 -->
<g id="edge17_Node000011_Node000015" class="edge">
<title>Node11&#45;&gt;Node15</title>
<g id="a_edge17_Node000011_Node000015"><a xlink:title=" ">
<path fill="none" stroke="#63b8ff" d="M438.97,-480.47C453.4,-508.57 495.88,-584.5 552.75,-625.66 554.32,-626.79 555.95,-627.88 557.61,-628.93"/>
<polygon fill="#63b8ff" stroke="#63b8ff" points="555.8,-631.92 566.24,-633.71 559.19,-625.8 555.8,-631.92"/>
</a>
</g>
</g>
<!-- Node16 -->
<g id="Node000016" class="node">
<title>Node16</title>
<g id="a_Node000016"><a xlink:href="kest__menu_8c.html#a22605bcd410421039465332b6c5fd407" target="_top" xlink:title=" ">
<polygon fill="#fff0f0" stroke="red" points="700.38,-616.41 556.88,-616.41 556.88,-582.91 700.38,-582.91 700.38,-616.41"/>
<text xml:space="preserve" text-anchor="start" x="564.88" y="-602.91" font-family="Helvetica,sans-Serif" font-size="10.00">menu_item_profile_listing</text>
<text xml:space="preserve" text-anchor="middle" x="628.62" y="-590.16" font-family="Helvetica,sans-Serif" font-size="10.00">_released_cb</text>
</a>
</g>
</g>
<!-- Node11&#45;&gt;Node16 -->
<g id="edge18_Node000011_Node000016" class="edge">
<title>Node11&#45;&gt;Node16</title>
<g id="a_edge18_Node000011_Node000016"><a xlink:title=" ">
<path fill="none" stroke="#63b8ff" d="M443.1,-480.3C462.03,-500.98 506.69,-546.92 552.75,-573.66 555.2,-575.08 557.73,-576.44 560.33,-577.74"/>
<polygon fill="#63b8ff" stroke="#63b8ff" points="558.66,-580.82 569.2,-581.82 561.58,-574.46 558.66,-580.82"/>
</a>
</g>
</g>
<!-- Node21 -->
<g id="Node000021" class="node">
<title>Node21</title>
<g id="a_Node000021"><a xlink:href="kest__sequence__list_8c.html#a4f60ae08975fdffa716fbd1b4ea3452c" target="_top" xlink:title=" ">
<polygon fill="white" stroke="#666666" points="697.38,-564.41 559.88,-564.41 559.88,-530.91 697.38,-530.91 697.38,-564.41"/>
<text xml:space="preserve" text-anchor="start" x="567.88" y="-550.91" font-family="Helvetica,sans-Serif" font-size="10.00">menu_item_sequence</text>
<text xml:space="preserve" text-anchor="middle" x="628.62" y="-538.16" font-family="Helvetica,sans-Serif" font-size="10.00">_listing_long_pressed_cb</text>
</a>
</g>
</g>
<!-- Node11&#45;&gt;Node21 -->
<g id="edge20_Node000011_Node000021" class="edge">
<title>Node11&#45;&gt;Node21</title>
<g id="a_edge20_Node000011_Node000021"><a xlink:title=" ">
<path fill="none" stroke="#63b8ff" d="M456.69,-480.36C480.52,-491.26 518.92,-508.42 552.75,-521.66 556.88,-523.27 561.17,-524.9 565.49,-526.5"/>
<polygon fill="#63b8ff" stroke="#63b8ff" points="564.26,-529.77 574.86,-529.9 566.65,-523.19 564.26,-529.77"/>
</a>
</g>
</g>
<!-- Node22 -->
<g id="Node000022" class="node">
<title>Node22</title>
<g id="a_Node000022"><a xlink:href="kest__sequence__list_8c.html#a0788bbcb1aa9c85a904e084c2abd48ad" target="_top" xlink:title=" ">
<polygon fill="#fff0f0" stroke="red" points="690.25,-214.41 567,-214.41 567,-180.91 690.25,-180.91 690.25,-214.41"/>
<text xml:space="preserve" text-anchor="start" x="575" y="-200.91" font-family="Helvetica,sans-Serif" font-size="10.00">menu_item_sequence</text>
<text xml:space="preserve" text-anchor="middle" x="628.62" y="-188.16" font-family="Helvetica,sans-Serif" font-size="10.00">_listing_released_cb</text>
</a>
</g>
</g>
<!-- Node11&#45;&gt;Node22 -->
<g id="edge21_Node000011_Node000022" class="edge">
<title>Node11&#45;&gt;Node22</title>
<g id="a_edge21_Node000011_Node000022"><a xlink:title=" ">
<path fill="none" stroke="#63b8ff" d="M435.72,-459.03C443.71,-421.26 475.81,-292.1 552.75,-223.66 554.2,-222.37 555.72,-221.14 557.29,-219.97"/>
<polygon fill="#63b8ff" stroke="#63b8ff" points="558.97,-223.05 565.54,-214.74 555.22,-217.14 558.97,-223.05"/>
</a>
</g>
</g>
<!-- Node222 -->
<g id="Node000222" class="node">
<title>Node222</title>
<g id="a_Node000222"><a xlink:href="kest__menu_8c.html#a7b561ce007bc70c05d37e79e0354d4ab" target="_top" xlink:title=" ">
<polygon fill="#fff0f0" stroke="red" points="704.5,-409.03 552.75,-409.03 552.75,-388.28 704.5,-388.28 704.5,-409.03"/>
<text xml:space="preserve" text-anchor="middle" x="628.62" y="-395.53" font-family="Helvetica,sans-Serif" font-size="10.00">menu_page_link_clicked_cb</text>
</a>
</g>
</g>
<!-- Node11&#45;&gt;Node222 -->
<g id="edge25_Node000011_Node000222" class="edge">
<title>Node11&#45;&gt;Node222</title>
<g id="a_edge25_Node000011_Node000222"><a xlink:title=" ">
<path fill="none" stroke="#63b8ff" d="M455.16,-458.98C478.7,-447.62 517.74,-429.65 552.75,-417.66 558.08,-415.83 563.69,-414.09 569.32,-412.46"/>
<polygon fill="#63b8ff" stroke="#63b8ff" points="569.99,-415.9 578.69,-409.86 568.12,-409.16 569.99,-415.9"/>
</a>
</g>
</g>
<!-- Node224 -->
<g id="Node000224" class="node">
<title>Node224</title>
<g id="a_Node000224"><a xlink:href="kest__menu_8c.html#a8edfbaa412cfceaa47690ee035de622c" target="_top" xlink:title=" ">
<polygon fill="#fff0f0" stroke="red" points="701.5,-512.41 555.75,-512.41 555.75,-478.91 701.5,-478.91 701.5,-512.41"/>
<text xml:space="preserve" text-anchor="start" x="563.75" y="-498.91" font-family="Helvetica,sans-Serif" font-size="10.00">parameter_widget_change</text>
<text xml:space="preserve" text-anchor="middle" x="628.62" y="-486.16" font-family="Helvetica,sans-Serif" font-size="10.00">_cb_settings_wrapper</text>
</a>
</g>
</g>
<!-- Node11&#45;&gt;Node224 -->
<g id="edge27_Node000011_Node000224" class="edge">
<title>Node11&#45;&gt;Node224</title>
<g id="a_edge27_Node000011_Node000224"><a xlink:title=" ">
<path fill="none" stroke="#63b8ff" d="M493.94,-477.74C509.91,-479.88 527.43,-482.23 544.38,-484.5"/>
<polygon fill="#63b8ff" stroke="#63b8ff" points="543.54,-487.92 553.92,-485.78 544.47,-480.98 543.54,-487.92"/>
</a>
</g>
</g>
<!-- Node179 -->
<g id="Node000179" class="node">
<title>Node179</title>
<g id="a_Node000179"><a xlink:href="kest__parameter__widget_8c.html#a275a44ab81e73412a3c3da5597906fcc" target="_top" xlink:title=" ">
<polygon fill="#fff0f0" stroke="red" points="699.25,-460.41 558,-460.41 558,-426.91 699.25,-426.91 699.25,-460.41"/>
<text xml:space="preserve" text-anchor="start" x="566" y="-446.91" font-family="Helvetica,sans-Serif" font-size="10.00">parameter_widget_create</text>
<text xml:space="preserve" text-anchor="middle" x="628.62" y="-434.16" font-family="Helvetica,sans-Serif" font-size="10.00">_ui_no_callback</text>
</a>
</g>
</g>
<!-- Node11&#45;&gt;Node179 -->
<g id="edge28_Node000011_Node000179" class="edge">
<title>Node11&#45;&gt;Node179</title>
<g id="a_edge28_Node000011_Node000179"><a xlink:title=" ">
<path fill="none" stroke="#63b8ff" d="M493.94,-461.57C510.63,-459.34 529.01,-456.87 546.67,-454.51"/>
<polygon fill="#63b8ff" stroke="#63b8ff" points="546.89,-458.01 556.34,-453.21 545.96,-451.07 546.89,-458.01"/>
</a>
</g>
</g>
<!-- Node225 -->
<g id="Node000225" class="node">
<title>Node225</title>
<g id="a_Node000225"><a xlink:href="kest__menu_8c.html#a33b1b7cde7c97dfddede16dae1536481" target="_top" xlink:title=" ">
<polygon fill="#fff0f0" stroke="red" points="688,-370.41 569.25,-370.41 569.25,-336.91 688,-336.91 688,-370.41"/>
<text xml:space="preserve" text-anchor="start" x="577.25" y="-356.91" font-family="Helvetica,sans-Serif" font-size="10.00">profile_listing_delete</text>
<text xml:space="preserve" text-anchor="middle" x="628.62" y="-344.16" font-family="Helvetica,sans-Serif" font-size="10.00">_button_cb</text>
</a>
</g>
</g>
<!-- Node11&#45;&gt;Node225 -->
<g id="edge29_Node000011_Node000225" class="edge">
<title>Node11&#45;&gt;Node225</title>
<g id="a_edge29_Node000011_Node000225"><a xlink:title=" ">
<path fill="none" stroke="#63b8ff" d="M445.28,-458.84C465.67,-440.39 509.77,-402.62 552.75,-379.66 555.59,-378.14 558.55,-376.68 561.56,-375.28"/>
<polygon fill="#63b8ff" stroke="#63b8ff" points="562.81,-378.55 570.6,-371.37 560.03,-372.13 562.81,-378.55"/>
</a>
</g>
</g>
<!-- Node230 -->
<g id="Node000230" class="node">
<title>Node230</title>
<g id="a_Node000230"><a xlink:href="kest__sequence__list_8c.html#a1982fe2baa22bbb76b3da523cfdda6da" target="_top" xlink:title=" ">
<polygon fill="#fff0f0" stroke="red" points="695.5,-318.41 561.75,-318.41 561.75,-284.91 695.5,-284.91 695.5,-318.41"/>
<text xml:space="preserve" text-anchor="start" x="569.75" y="-304.91" font-family="Helvetica,sans-Serif" font-size="10.00">sequence_listing_delete</text>
<text xml:space="preserve" text-anchor="middle" x="628.62" y="-292.16" font-family="Helvetica,sans-Serif" font-size="10.00">_button_cb</text>
</a>
</g>
</g>
<!-- Node11&#45;&gt;Node230 -->
<g id="edge30_Node000011_Node000230" class="edge">
<title>Node11&#45;&gt;Node230</title>
<g id="a_edge30_Node000011_Node000230"><a xlink:title=" ">
<path fill="none" stroke="#63b8ff" d="M439.68,-459.07C455.15,-432.96 498.7,-364.91 552.75,-327.66 554.58,-326.4 556.47,-325.19 558.42,-324.04"/>
<polygon fill="#63b8ff" stroke="#63b8ff" points="559.94,-327.19 567.16,-319.43 556.68,-321 559.94,-327.19"/>
</a>
</g>
</g>
<!-- Node16&#45;&gt;Node18 -->
<g id="edge19_Node000016_Node000018" class="edge">
<title>Node16&#45;&gt;Node18</title>
<g id="a_edge19_Node000016_Node000018"><a xlink:title=" ">
<path fill="none" stroke="#63b8ff" d="M684.74,-582.46C691.51,-579.79 698.25,-576.84 704.5,-573.66 736.41,-557.41 769.74,-532.89 790.76,-516.35"/>
<polygon fill="#63b8ff" stroke="#63b8ff" points="792.68,-519.29 798.31,-510.32 788.32,-513.82 792.68,-519.29"/>
</a>
</g>
</g>
<!-- Node22&#45;&gt;Node18 -->
<g id="edge24_Node000022_Node000018" class="edge">
<title>Node22&#45;&gt;Node18</title>
<g id="a_edge24_Node000022_Node000018"><a xlink:title=" ">
<path fill="none" stroke="#63b8ff" d="M690.75,-213.6C695.75,-216.42 700.43,-219.75 704.5,-223.66 779.15,-295.4 803.15,-425.02 809.96,-476.61"/>
<polygon fill="#63b8ff" stroke="#63b8ff" points="806.48,-476.95 811.16,-486.46 813.42,-476.11 806.48,-476.95"/>
</a>
</g>
</g>
<!-- Node22&#45;&gt;Node23 -->
<g id="edge22_Node000022_Node000023" class="edge">
<title>Node22&#45;&gt;Node23</title>
<g id="a_edge22_Node000022_Node000023"><a xlink:title=" ">
<path fill="none" stroke="#63b8ff" d="M690.73,-197.66C703.01,-197.66 716.11,-197.66 729,-197.66"/>
<polygon fill="#63b8ff" stroke="#63b8ff" points="728.73,-201.16 738.73,-197.66 728.73,-194.16 728.73,-201.16"/>
</a>
</g>
</g>
<!-- Node23&#45;&gt;Node4 -->
<g id="edge23_Node000023_Node000004" class="edge">
<title>Node23&#45;&gt;Node4</title>
<g id="a_edge23_Node000023_Node000004"><a xlink:title=" ">
<path fill="none" stroke="#63b8ff" d="M819.01,-208.3C838.91,-254.05 917.39,-434.39 944.42,-496.5"/>
<polygon fill="#63b8ff" stroke="#63b8ff" points="941.17,-497.81 948.37,-505.58 947.59,-495.01 941.17,-497.81"/>
</a>
</g>
</g>
<!-- Node222&#45;&gt;Node18 -->
<g id="edge26_Node000222_Node000018" class="edge">
<title>Node222&#45;&gt;Node18</title>
<g id="a_edge26_Node000222_Node000018"><a xlink:title=" ">
<path fill="none" stroke="#63b8ff" d="M683.31,-409.51C690.6,-411.78 697.85,-414.47 704.5,-417.66 738.58,-433.96 772.54,-461.87 793,-480.3"/>
<polygon fill="#63b8ff" stroke="#63b8ff" points="790.56,-482.8 800.29,-486.99 795.29,-477.65 790.56,-482.8"/>
</a>
</g>
</g>
<!-- Node233&#45;&gt;Node4 -->
<g id="edge37_Node000233_Node000004" class="edge">
<title>Node233&#45;&gt;Node4</title>
<g id="a_edge37_Node000233_Node000004"><a xlink:title=" ">
<path fill="none" stroke="#63b8ff" d="M496,-65.86C503.24,-63.4 510.33,-60.37 516.75,-56.66 536.89,-45.01 531.38,-27.85 552.75,-18.66 614.71,7.99 640.88,3.73 704.5,-18.66 802.24,-53.05 832.86,-75.86 886.25,-164.66 920.45,-221.54 944.35,-427.74 951.44,-495.74"/>
<polygon fill="#63b8ff" stroke="#63b8ff" points="947.94,-495.99 952.44,-505.58 954.91,-495.28 947.94,-495.99"/>
</a>
</g>
</g>
<!-- Node232 -->
<g id="Node000232" class="node">
<title>Node232</title>
<g id="a_Node000232"><a xlink:href="kest__sequence_8c.html#a6ff162921ceb28cfb5cb208e746ccea2" target="_top" xlink:title=" ">
<polygon fill="white" stroke="#666666" points="672.25,-48.03 585,-48.03 585,-27.28 672.25,-27.28 672.25,-48.03"/>
<text xml:space="preserve" text-anchor="middle" x="628.62" y="-34.53" font-family="Helvetica,sans-Serif" font-size="10.00">free_sequence</text>
</a>
</g>
</g>
<!-- Node233&#45;&gt;Node232 -->
<g id="edge35_Node000233_Node000232" class="edge">
<title>Node233&#45;&gt;Node232</title>
<g id="a_edge35_Node000233_Node000232"><a xlink:title=" ">
<path fill="none" stroke="#63b8ff" d="M487.66,-65.79C514.45,-60.41 546.7,-53.92 573.5,-48.54"/>
<polygon fill="#63b8ff" stroke="#63b8ff" points="574.02,-52 583.13,-46.6 572.64,-45.14 574.02,-52"/>
</a>
</g>
</g>
<!-- Node234 -->
<g id="Node000234" class="node">
<title>Node234</title>
<g id="a_Node000234"><a xlink:href="kest__sequence_8c.html#a3d05c5041e825df7868554ff22e0dd80" target="_top" xlink:title=" ">
<polygon fill="#fff0f0" stroke="red" points="677.88,-87.03 579.38,-87.03 579.38,-66.28 677.88,-66.28 677.88,-87.03"/>
<text xml:space="preserve" text-anchor="middle" x="628.62" y="-73.53" font-family="Helvetica,sans-Serif" font-size="10.00">init_m_sequence</text>
</a>
</g>
</g>
<!-- Node233&#45;&gt;Node234 -->
<g id="edge36_Node000233_Node000234" class="edge">
<title>Node233&#45;&gt;Node234</title>
<g id="a_edge36_Node000233_Node000234"><a xlink:title=" ">
<path fill="none" stroke="#63b8ff" d="M517.02,-76.66C534.05,-76.66 551.64,-76.66 567.65,-76.66"/>
<polygon fill="#63b8ff" stroke="#63b8ff" points="567.49,-80.16 577.49,-76.66 567.49,-73.16 567.49,-80.16"/>
</a>
</g>
</g>
</g>
</svg>

<g id="navigator" transform="translate(0 0)" fill="#404254">
  <rect fill="#f2f5e9" fill-opacity="0.5" stroke="#606060" stroke-width=".5" x="0" y="0" width="60" height="60"/>
  <use id="zoomplus" xlink:href="#zoomPlus" x="17" y="9" onmousedown="handleZoom(evt,'in')"/>
  <use id="zoomminus" xlink:href="#zoomMin" x="42" y="9" onmousedown="handleZoom(evt,'out')"/>
  <use id="reset" xlink:href="#resetDef" x="30" y="36" onmousedown="handleReset()"/>
   <use id="arrowup" xlink:href="#arrowUp" x="0" y="0" onmousedown="handlePan(0,-1)"/>
  <use id="arrowright" xlink:href="#arrowRight" x="0" y="0" onmousedown="handlePan(1,0)"/>
  <use id="arrowdown" xlink:href="#arrowDown" x="0" y="0" onmousedown="handlePan(0,1)"/>
  <use id="arrowleft" xlink:href="#arrowLeft" x="0" y="0" onmousedown="handlePan(-1,0)"/>
</g>
<svg viewBox="0 0 15 15" width="100%" height="30px" preserveAspectRatio="xMaxYMin meet">
 <g id="arrow_out" transform="scale(0.3 0.3)">
  <a xlink:href="kest__sequence__list_8h_ae60870bb862edfc5b0a45344c20b152f_cgraph_org.svg" target="_base">
   <rect id="button" ry="5" rx="5" y="6" x="6" height="38" width="38"
        fill="#f2f5e9" fill-opacity="0.5" stroke="#606060" stroke-width="1.0"/>
   <path id="arrow"
     d="M 11.500037,31.436501 C 11.940474,20.09759 22.043105,11.32322 32.158766,21.979434 L 37.068811,17.246167 C 37.068811,17.246167 37.088388,32 37.088388,32 L 22.160133,31.978069 C 22.160133,31.978069 26.997745,27.140456 26.997745,27.140456 C 18.528582,18.264221 13.291696,25.230495 11.500037,31.436501 z"
     style="fill:#404040;"/>
  </a>
 </g>
</svg>

<style type='text/css'>
<![CDATA[
[data-mouse-over-selected='false'] { opacity: 0.7; }
[data-mouse-over-selected='true']  { opacity: 1.0; }
]]>
</style>
<script type="application/ecmascript"><![CDATA[
document.addEventListener('DOMContentLoaded', (event) => {
  highlightEdges();
  highlightAdjacentNodes();
});
]]></script>
</svg>
