<?xml version="1.0" encoding="UTF-8" standalone="no"?>
<!DOCTYPE svg PUBLIC "-//W3C//DTD SVG 1.1//EN"
 "http://www.w3.org/Graphics/SVG/1.1/DTD/svg11.dtd">
<!-- Generated by graphviz version 13.1.2 (20250808.2320)
 -->
<!-- Title: kest_expression_compute_format Pages: 1 -->
<svg width="616pt" height="94pt"
 viewBox="0.00 0.00 616.00 94.00" xmlns="http://www.w3.org/2000/svg" xmlns:xlink="http://www.w3.org/1999/xlink">
<g id="graph0" class="graph" transform="scale(1 1) rotate(0) translate(4 89.5)">
<title>kest_expression_compute_format</title>
<!-- Node1 -->
<g id="Node000001" class="node">
<title>Node1</title>
<g id="a_Node000001"><a xlink:title=" ">
<polygon fill="#999999" stroke="#666666" points="607.75,-59.5 465,-59.5 465,-26 607.75,-26 607.75,-59.5"/>
<text xml:space="preserve" text-anchor="start" x="473" y="-46" font-family="Helvetica,sans-Serif" font-size="10.00">kest_expression_compute</text>
<text xml:space="preserve" text-anchor="middle" x="536.38" y="-33.25" font-family="Helvetica,sans-Serif" font-size="10.00">_format</text>
</a>
</g>
</g>
<!-- Node2 -->
<g id="Node000002" class="node">
<title>Node2</title>
<g id="a_Node000002"><a xlink:href="kest__reg__format_8c.html#a2a23995382c692cce714a167deb0b94c" target="_top" xlink:title=" ">
<polygon fill="white" stroke="#666666" points="429,-85.5 302,-85.5 302,-52 429,-52 429,-85.5"/>
<text xml:space="preserve" text-anchor="start" x="310" y="-72" font-family="Helvetica,sans-Serif" font-size="10.00">kest_compute_register</text>
<text xml:space="preserve" text-anchor="middle" x="365.5" y="-59.25" font-family="Helvetica,sans-Serif" font-size="10.00">_formats</text>
</a>
</g>
</g>
<!-- Node1&#45;&gt;Node2 -->
<g id="edge1_Node000001_Node000002" class="edge">
<title>Node1&#45;&gt;Node2</title>
<g id="a_edge1_Node000001_Node000002"><a xlink:title=" ">
<path fill="none" stroke="#63b8ff" d="M453.36,-55.38C445.28,-56.62 437.17,-57.87 429.33,-59.08"/>
<polygon fill="#63b8ff" stroke="#63b8ff" points="453.89,-58.84 463.24,-53.86 452.82,-51.92 453.89,-58.84"/>
</a>
</g>
</g>
<!-- Node9 -->
<g id="Node000009" class="node">
<title>Node9</title>
<g id="a_Node000009"><a xlink:href="kest__fixed__point_8c.html#af6f5122d04445665987167d50319ac6f" target="_top" xlink:title=" ">
<polygon fill="white" stroke="#666666" points="421.88,-33.5 309.12,-33.5 309.12,0 421.88,0 421.88,-33.5"/>
<text xml:space="preserve" text-anchor="start" x="317.12" y="-20" font-family="Helvetica,sans-Serif" font-size="10.00">kest_filter_compute</text>
<text xml:space="preserve" text-anchor="middle" x="365.5" y="-7.25" font-family="Helvetica,sans-Serif" font-size="10.00">_format</text>
</a>
</g>
</g>
<!-- Node1&#45;&gt;Node9 -->
<g id="edge4_Node000001_Node000009" class="edge">
<title>Node1&#45;&gt;Node9</title>
<g id="a_edge4_Node000001_Node000009"><a xlink:title=" ">
<path fill="none" stroke="#63b8ff" d="M453.68,-30.17C443.03,-28.53 432.32,-26.88 422.22,-25.33"/>
<polygon fill="#63b8ff" stroke="#63b8ff" points="452.82,-33.58 463.24,-31.64 453.89,-26.66 452.82,-33.58"/>
</a>
</g>
</g>
<!-- Node3 -->
<g id="Node000003" class="node">
<title>Node3</title>
<g id="a_Node000003"><a xlink:href="kest__eff__parser_8c.html#a745050bced3ccd568a1223c9f6a416e0" target="_top" xlink:title=" ">
<polygon fill="white" stroke="#666666" points="266,-59.5 145.75,-59.5 145.75,-26 266,-26 266,-59.5"/>
<text xml:space="preserve" text-anchor="start" x="153.75" y="-46" font-family="Helvetica,sans-Serif" font-size="10.00">kest_parser_compute</text>
<text xml:space="preserve" text-anchor="middle" x="205.88" y="-33.25" font-family="Helvetica,sans-Serif" font-size="10.00">_formats</text>
</a>
</g>
</g>
<!-- Node2&#45;&gt;Node3 -->
<g id="edge2_Node000002_Node000003" class="edge">
<title>Node2&#45;&gt;Node3</title>
<g id="a_edge2_Node000002_Node000003"><a xlink:title=" ">
<path fill="none" stroke="#63b8ff" d="M290.41,-56.53C282.34,-55.2 274.2,-53.86 266.33,-52.56"/>
<polygon fill="#63b8ff" stroke="#63b8ff" points="289.82,-59.98 300.26,-58.15 290.96,-53.07 289.82,-59.98"/>
</a>
</g>
</g>
<!-- Node4 -->
<g id="Node000004" class="node">
<title>Node4</title>
<g id="a_Node000004"><a xlink:href="kest__eff__parser_8c.html#ae4618958c44389928c260fdb0e170761" target="_top" xlink:title=" ">
<polygon fill="#fff0f0" stroke="red" points="109.75,-59.5 0,-59.5 0,-26 109.75,-26 109.75,-59.5"/>
<text xml:space="preserve" text-anchor="start" x="8" y="-46" font-family="Helvetica,sans-Serif" font-size="10.00">kest_read_eff_desc</text>
<text xml:space="preserve" text-anchor="middle" x="54.88" y="-33.25" font-family="Helvetica,sans-Serif" font-size="10.00">_from_file</text>
</a>
</g>
</g>
<!-- Node3&#45;&gt;Node4 -->
<g id="edge3_Node000003_Node000004" class="edge">
<title>Node3&#45;&gt;Node4</title>
<g id="a_edge3_Node000003_Node000004"><a xlink:title=" ">
<path fill="none" stroke="#63b8ff" d="M134.21,-42.75C126.12,-42.75 117.98,-42.75 110.15,-42.75"/>
<polygon fill="#63b8ff" stroke="#63b8ff" points="134.04,-46.25 144.04,-42.75 134.04,-39.25 134.04,-46.25"/>
</a>
</g>
</g>
<!-- Node9&#45;&gt;Node3 -->
<g id="edge5_Node000009_Node000003" class="edge">
<title>Node9&#45;&gt;Node3</title>
<g id="a_edge5_Node000009_Node000003"><a xlink:title=" ">
<path fill="none" stroke="#63b8ff" d="M297.8,-27.75C287.4,-29.47 276.72,-31.23 266.49,-32.92"/>
<polygon fill="#63b8ff" stroke="#63b8ff" points="298.14,-31.24 307.43,-26.16 297,-24.34 298.14,-31.24"/>
</a>
</g>
</g>
</g>
</svg>
