<?xml version="1.0" encoding="UTF-8" standalone="no"?>
<!DOCTYPE svg PUBLIC "-//W3C//DTD SVG 1.1//EN"
 "http://www.w3.org/Graphics/SVG/1.1/DTD/svg11.dtd">
<!-- Generated by graphviz version 13.1.2 (20250808.2320)
 -->
<!-- Title: kest_profile_if_active_update_fpga Pages: 1 -->
<svg width="647pt" height="222pt"
 viewBox="0.00 0.00 647.00 222.00" xmlns="http://www.w3.org/2000/svg" xmlns:xlink="http://www.w3.org/1999/xlink">
<g id="graph0" class="graph" transform="scale(1 1) rotate(0) translate(4 218.12)">
<title>kest_profile_if_active_update_fpga</title>
<!-- Node1 -->
<g id="Node000001" class="node">
<title>Node1</title>
<g id="a_Node000001"><a xlink:title=" ">
<polygon fill="#999999" stroke="#666666" points="639.25,-117.12 519,-117.12 519,-83.62 639.25,-83.62 639.25,-117.12"/>
<text xml:space="preserve" text-anchor="start" x="527" y="-103.62" font-family="Helvetica,sans-Serif" font-size="10.00">kest_profile_if_active</text>
<text xml:space="preserve" text-anchor="middle" x="579.12" y="-90.88" font-family="Helvetica,sans-Serif" font-size="10.00">_update_fpga</text>
</a>
</g>
</g>
<!-- Node2 -->
<g id="Node000002" class="node">
<title>Node2</title>
<g id="a_Node000002"><a xlink:href="kest__effect__select_8c.html#a0a0604d69c6fbeb09b31db2ebff0e901" target="_top" xlink:title=" ">
<polygon fill="white" stroke="#666666" points="483,-200.75 335,-200.75 335,-180 483,-180 483,-200.75"/>
<text xml:space="preserve" text-anchor="middle" x="409" y="-187.25" font-family="Helvetica,sans-Serif" font-size="10.00">add_effect_from_menu_eff</text>
</a>
</g>
</g>
<!-- Node1&#45;&gt;Node2 -->
<g id="edge1_Node000001_Node000002" class="edge">
<title>Node1&#45;&gt;Node2</title>
<g id="a_edge1_Node000001_Node000002"><a xlink:title=" ">
<path fill="none" stroke="#63b8ff" d="M547.15,-124.11C529.11,-137.18 505.55,-153 483,-164.38 471.35,-170.25 458.05,-175.41 446.02,-179.55"/>
<polygon fill="#63b8ff" stroke="#63b8ff" points="548.84,-127.21 554.82,-118.47 544.69,-121.58 548.84,-127.21"/>
</a>
</g>
</g>
<!-- Node9 -->
<g id="Node000009" class="node">
<title>Node9</title>
<g id="a_Node000009"><a xlink:href="kest__profile_8c.html#af379350488211e7b72a4c955335bb4de" target="_top" xlink:title=" ">
<polygon fill="white" stroke="#666666" points="478.88,-155.75 339.12,-155.75 339.12,-135 478.88,-135 478.88,-155.75"/>
<text xml:space="preserve" text-anchor="middle" x="409" y="-142.25" font-family="Helvetica,sans-Serif" font-size="10.00">kest_profile_move_effect</text>
</a>
</g>
</g>
<!-- Node1&#45;&gt;Node9 -->
<g id="edge4_Node000001_Node000009" class="edge">
<title>Node1&#45;&gt;Node9</title>
<g id="a_edge4_Node000001_Node000009"><a xlink:title=" ">
<path fill="none" stroke="#63b8ff" d="M507.67,-119.73C499.36,-121.99 490.99,-124.24 483,-126.38 473,-129.04 462.23,-131.87 452.1,-134.51"/>
<polygon fill="#63b8ff" stroke="#63b8ff" points="508.34,-123.18 517.07,-117.18 506.5,-116.43 508.34,-123.18"/>
</a>
</g>
</g>
<!-- Node29 -->
<g id="Node000029" class="node">
<title>Node29</title>
<g id="a_Node000029"><a xlink:href="kest__profile_8c.html#a25cea119219eee39a50e7433a8b914d6" target="_top" xlink:title=" ">
<polygon fill="white" stroke="#666666" points="466.88,-117.12 351.12,-117.12 351.12,-83.62 466.88,-83.62 466.88,-117.12"/>
<text xml:space="preserve" text-anchor="start" x="359.12" y="-103.62" font-family="Helvetica,sans-Serif" font-size="10.00">kest_profile_remove</text>
<text xml:space="preserve" text-anchor="middle" x="409" y="-90.88" font-family="Helvetica,sans-Serif" font-size="10.00">_effect</text>
</a>
</g>
</g>
<!-- Node1&#45;&gt;Node29 -->
<g id="edge7_Node000001_Node000029" class="edge">
<title>Node1&#45;&gt;Node29</title>
<g id="a_edge7_Node000001_Node000029"><a xlink:title=" ">
<path fill="none" stroke="#63b8ff" d="M507.69,-100.38C494.24,-100.38 480.31,-100.38 467.33,-100.38"/>
<polygon fill="#63b8ff" stroke="#63b8ff" points="507.34,-103.88 517.34,-100.38 507.34,-96.88 507.34,-103.88"/>
</a>
</g>
</g>
<!-- Node31 -->
<g id="Node000031" class="node">
<title>Node31</title>
<g id="a_Node000031"><a xlink:href="kest__profile__view_8c.html#aee48696f91d0ebc9e3ea2cf62e47cffe" target="_top" xlink:title=" ">
<polygon fill="white" stroke="#666666" points="291.5,-72.12 181.75,-72.12 181.75,-38.62 291.5,-38.62 291.5,-72.12"/>
<text xml:space="preserve" text-anchor="start" x="189.75" y="-58.62" font-family="Helvetica,sans-Serif" font-size="10.00">profile_view_effect</text>
<text xml:space="preserve" text-anchor="middle" x="236.62" y="-45.88" font-family="Helvetica,sans-Serif" font-size="10.00">_delete_cb</text>
</a>
</g>
</g>
<!-- Node1&#45;&gt;Node31 -->
<g id="edge11_Node000001_Node000031" class="edge">
<title>Node1&#45;&gt;Node31</title>
<g id="a_edge11_Node000001_Node000031"><a xlink:title=" ">
<path fill="none" stroke="#63b8ff" d="M511.06,-80.35C501.7,-78.05 492.15,-75.97 483,-74.38 417.75,-63.04 341.56,-58.46 291.6,-56.62"/>
<polygon fill="#63b8ff" stroke="#63b8ff" points="509.91,-83.67 520.47,-82.75 511.65,-76.88 509.91,-83.67"/>
</a>
</g>
</g>
<!-- Node32 -->
<g id="Node000032" class="node">
<title>Node32</title>
<g id="a_Node000032"><a xlink:href="kest__parameter__widget_8c.html#a22b7fa4ae5f9628f2da2155f58c2635c" target="_top" xlink:title=" ">
<polygon fill="white" stroke="#666666" points="459.75,-24.75 358.25,-24.75 358.25,-4 459.75,-4 459.75,-24.75"/>
<text xml:space="preserve" text-anchor="middle" x="409" y="-11.25" font-family="Helvetica,sans-Serif" font-size="10.00">sw_field_save_cb</text>
</a>
</g>
</g>
<!-- Node1&#45;&gt;Node32 -->
<g id="edge12_Node000001_Node000032" class="edge">
<title>Node1&#45;&gt;Node32</title>
<g id="a_edge12_Node000001_Node000032"><a xlink:title=" ">
<path fill="none" stroke="#63b8ff" d="M544.14,-76.97C526.4,-65.37 504.07,-51.67 483,-41.38 470.5,-35.26 456.24,-29.7 443.66,-25.23"/>
<polygon fill="#63b8ff" stroke="#63b8ff" points="541.95,-79.72 552.22,-82.33 545.82,-73.89 541.95,-79.72"/>
</a>
</g>
</g>
<!-- Node3 -->
<g id="Node000003" class="node">
<title>Node3</title>
<g id="a_Node000003"><a xlink:href="kest__effect__select_8c.html#a46b6d3a353595e72c7a17e6352e5a7a0" target="_top" xlink:title=" ">
<polygon fill="white" stroke="#666666" points="299,-214.12 174.25,-214.12 174.25,-180.62 299,-180.62 299,-214.12"/>
<text xml:space="preserve" text-anchor="start" x="182.25" y="-200.62" font-family="Helvetica,sans-Serif" font-size="10.00">create_effect_selector</text>
<text xml:space="preserve" text-anchor="middle" x="236.62" y="-187.88" font-family="Helvetica,sans-Serif" font-size="10.00">_button_ui_eff</text>
</a>
</g>
</g>
<!-- Node2&#45;&gt;Node3 -->
<g id="edge2_Node000002_Node000003" class="edge">
<title>Node2&#45;&gt;Node3</title>
<g id="a_edge2_Node000002_Node000003"><a xlink:title=" ">
<path fill="none" stroke="#63b8ff" d="M323.34,-193.85C315.24,-194.19 307.13,-194.52 299.31,-194.84"/>
<polygon fill="#63b8ff" stroke="#63b8ff" points="323.4,-197.35 333.24,-193.45 323.11,-190.36 323.4,-197.35"/>
</a>
</g>
</g>
<!-- Node4 -->
<g id="Node000004" class="node">
<title>Node4</title>
<g id="a_Node000004"><a xlink:href="kest__effect__select_8c.html#af5e1f2ec64c8c42ed66a3bc39c7411eb" target="_top" xlink:title=" ">
<polygon fill="#fff0f0" stroke="red" points="131.5,-214.12 6.75,-214.12 6.75,-180.62 131.5,-180.62 131.5,-214.12"/>
<text xml:space="preserve" text-anchor="start" x="14.75" y="-200.62" font-family="Helvetica,sans-Serif" font-size="10.00">create_effect_selector</text>
<text xml:space="preserve" text-anchor="middle" x="69.12" y="-187.88" font-family="Helvetica,sans-Serif" font-size="10.00">_ui_eff</text>
</a>
</g>
</g>
<!-- Node3&#45;&gt;Node4 -->
<g id="edge3_Node000003_Node000004" class="edge">
<title>Node3&#45;&gt;Node4</title>
<g id="a_edge3_Node000003_Node000004"><a xlink:title=" ">
<path fill="none" stroke="#63b8ff" d="M162.54,-197.38C152.28,-197.38 141.82,-197.38 131.8,-197.38"/>
<polygon fill="#63b8ff" stroke="#63b8ff" points="162.49,-200.88 172.49,-197.38 162.49,-193.88 162.49,-200.88"/>
</a>
</g>
</g>
<!-- Node10 -->
<g id="Node000010" class="node">
<title>Node10</title>
<g id="a_Node000010"><a xlink:href="kest__profile__view_8c.html#a598c3ac11cd3e68c723ef303bdc26f5c" target="_top" xlink:title=" ">
<polygon fill="white" stroke="#666666" points="291.5,-162.12 181.75,-162.12 181.75,-128.62 291.5,-128.62 291.5,-162.12"/>
<text xml:space="preserve" text-anchor="start" x="189.75" y="-148.62" font-family="Helvetica,sans-Serif" font-size="10.00">profile_view_effect</text>
<text xml:space="preserve" text-anchor="middle" x="236.62" y="-135.88" font-family="Helvetica,sans-Serif" font-size="10.00">_moved_cb</text>
</a>
</g>
</g>
<!-- Node9&#45;&gt;Node10 -->
<g id="edge5_Node000009_Node000010" class="edge">
<title>Node9&#45;&gt;Node10</title>
<g id="a_edge5_Node000009_Node000010"><a xlink:title=" ">
<path fill="none" stroke="#63b8ff" d="M327.29,-145.38C315.32,-145.38 303.23,-145.38 291.97,-145.38"/>
<polygon fill="#63b8ff" stroke="#63b8ff" points="327.19,-148.88 337.19,-145.38 327.19,-141.88 327.19,-148.88"/>
</a>
</g>
</g>
<!-- Node11 -->
<g id="Node000011" class="node">
<title>Node11</title>
<g id="a_Node000011"><a xlink:href="kest__profile__view_8c.html#abfe2cf72961d0ab0b70f858cf1281a38" target="_top" xlink:title=" ">
<polygon fill="#fff0f0" stroke="red" points="117.62,-110.75 20.62,-110.75 20.62,-90 117.62,-90 117.62,-110.75"/>
<text xml:space="preserve" text-anchor="middle" x="69.12" y="-97.25" font-family="Helvetica,sans-Serif" font-size="10.00">init_profile_view</text>
</a>
</g>
</g>
<!-- Node10&#45;&gt;Node11 -->
<g id="edge6_Node000010_Node000011" class="edge">
<title>Node10&#45;&gt;Node11</title>
<g id="a_edge6_Node000010_Node000011"><a xlink:title=" ">
<path fill="none" stroke="#63b8ff" d="M170.58,-127.69C150.13,-122.13 128.16,-116.16 110,-111.22"/>
<polygon fill="#63b8ff" stroke="#63b8ff" points="169.41,-131 179.97,-130.24 171.24,-124.24 169.41,-131"/>
</a>
</g>
</g>
<!-- Node30 -->
<g id="Node000030" class="node">
<title>Node30</title>
<g id="a_Node000030"><a xlink:href="kest__context_8c.html#a3dabfbe87edbacbacf5badc8db3fd629" target="_top" xlink:title=" ">
<polygon fill="white" stroke="#666666" points="290.38,-110.75 182.88,-110.75 182.88,-90 290.38,-90 290.38,-110.75"/>
<text xml:space="preserve" text-anchor="middle" x="236.62" y="-97.25" font-family="Helvetica,sans-Serif" font-size="10.00">cxt_remove_effect</text>
</a>
</g>
</g>
<!-- Node29&#45;&gt;Node30 -->
<g id="edge8_Node000029_Node000030" class="edge">
<title>Node29&#45;&gt;Node30</title>
<g id="a_edge8_Node000029_Node000030"><a xlink:title=" ">
<path fill="none" stroke="#63b8ff" d="M339.66,-100.38C323.35,-100.38 306.17,-100.38 290.66,-100.38"/>
<polygon fill="#63b8ff" stroke="#63b8ff" points="339.28,-103.88 349.28,-100.38 339.28,-96.88 339.28,-103.88"/>
</a>
</g>
</g>
<!-- Node29&#45;&gt;Node31 -->
<g id="edge9_Node000029_Node000031" class="edge">
<title>Node29&#45;&gt;Node31</title>
<g id="a_edge9_Node000029_Node000031"><a xlink:title=" ">
<path fill="none" stroke="#63b8ff" d="M339.89,-82.39C323.9,-78.16 307.08,-73.72 291.8,-69.68"/>
<polygon fill="#63b8ff" stroke="#63b8ff" points="338.77,-85.71 349.33,-84.88 340.56,-78.94 338.77,-85.71"/>
</a>
</g>
</g>
<!-- Node31&#45;&gt;Node11 -->
<g id="edge10_Node000031_Node000011" class="edge">
<title>Node31&#45;&gt;Node11</title>
<g id="a_edge10_Node000031_Node000011"><a xlink:title=" ">
<path fill="none" stroke="#63b8ff" d="M170.58,-73.06C150.13,-78.62 128.16,-84.59 110,-89.53"/>
<polygon fill="#63b8ff" stroke="#63b8ff" points="171.24,-76.51 179.97,-70.51 169.41,-69.75 171.24,-76.51"/>
</a>
</g>
</g>
<!-- Node33 -->
<g id="Node000033" class="node">
<title>Node33</title>
<g id="a_Node000033"><a xlink:href="kest__parameter__widget_8c.html#a5a6ebded10138ba55624e195ae4f4309" target="_top" xlink:title=" ">
<polygon fill="white" stroke="#666666" points="285.12,-20.75 188.12,-20.75 188.12,0 285.12,0 285.12,-20.75"/>
<text xml:space="preserve" text-anchor="middle" x="236.62" y="-7.25" font-family="Helvetica,sans-Serif" font-size="10.00">edit_sw_field_cb</text>
</a>
</g>
</g>
<!-- Node32&#45;&gt;Node33 -->
<g id="edge13_Node000032_Node000033" class="edge">
<title>Node32&#45;&gt;Node33</title>
<g id="a_edge13_Node000032_Node000033"><a xlink:title=" ">
<path fill="none" stroke="#63b8ff" d="M346.54,-12.93C326.41,-12.46 304.37,-11.94 285.42,-11.5"/>
<polygon fill="#63b8ff" stroke="#63b8ff" points="346.21,-16.43 356.29,-13.16 346.38,-9.43 346.21,-16.43"/>
</a>
</g>
</g>
<!-- Node34 -->
<g id="Node000034" class="node">
<title>Node34</title>
<g id="a_Node000034"><a xlink:href="kest__parameter__widget_8c.html#a2074107eca4e8e2b3832c9f9f2e5f9f2" target="_top" xlink:title=" ">
<polygon fill="#fff0f0" stroke="red" points="138.25,-20.75 0,-20.75 0,0 138.25,0 138.25,-20.75"/>
<text xml:space="preserve" text-anchor="middle" x="69.12" y="-7.25" font-family="Helvetica,sans-Serif" font-size="10.00">setting_widget_create_ui</text>
</a>
</g>
</g>
<!-- Node33&#45;&gt;Node34 -->
<g id="edge14_Node000033_Node000034" class="edge">
<title>Node33&#45;&gt;Node34</title>
<g id="a_edge14_Node000033_Node000034"><a xlink:title=" ">
<path fill="none" stroke="#63b8ff" d="M176.28,-10.38C164.04,-10.38 151.04,-10.38 138.51,-10.38"/>
<polygon fill="#63b8ff" stroke="#63b8ff" points="176.24,-13.88 186.24,-10.38 176.24,-6.88 176.24,-13.88"/>
</a>
</g>
</g>
</g>
</svg>
