<?xml version="1.0" encoding="UTF-8" standalone="no"?>
<!DOCTYPE svg PUBLIC "-//W3C//DTD SVG 1.1//EN"
 "http://www.w3.org/Graphics/SVG/1.1/DTD/svg11.dtd">
<!-- Generated by graphviz version 13.1.2 (20250808.2320)
 -->
<!-- Title: ui_page_add_back_button Pages: 1 -->
<svg width="843pt" height="261pt"
 viewBox="0.00 0.00 843.00 261.00" xmlns="http://www.w3.org/2000/svg" xmlns:xlink="http://www.w3.org/1999/xlink">
<g id="graph0" class="graph" transform="scale(1 1) rotate(0) translate(4 256.75)">
<title>ui_page_add_back_button</title>
<!-- Node1 -->
<g id="Node000001" class="node">
<title>Node1</title>
<g id="a_Node000001"><a xlink:title=" ">
<polygon fill="#999999" stroke="#666666" points="835.25,-116.75 692.5,-116.75 692.5,-96 835.25,-96 835.25,-116.75"/>
<text xml:space="preserve" text-anchor="middle" x="763.88" y="-103.25" font-family="Helvetica,sans-Serif" font-size="10.00">ui_page_add_back_button</text>
</a>
</g>
</g>
<!-- Node2 -->
<g id="Node000002" class="node">
<title>Node2</title>
<g id="a_Node000002"><a xlink:href="kest__effect__settings_8c.html#ab738a7e4abecdaf8e9e7788ace97d8b5" target="_top" xlink:title=" ">
<polygon fill="white" stroke="#666666" points="655,-213.75 486,-213.75 486,-193 655,-193 655,-213.75"/>
<text xml:space="preserve" text-anchor="middle" x="570.5" y="-200.25" font-family="Helvetica,sans-Serif" font-size="10.00">configure_effect_settings_page</text>
</a>
</g>
</g>
<!-- Node1&#45;&gt;Node2 -->
<g id="edge1_Node000001_Node000002" class="edge">
<title>Node1&#45;&gt;Node2</title>
<g id="a_edge1_Node000001_Node000002"><a xlink:title=" ">
<path fill="none" stroke="#63b8ff" d="M734.27,-122.67C713.01,-134.61 683.2,-150.99 656.5,-164.38 636.47,-174.42 613.33,-184.96 596.26,-192.56"/>
<polygon fill="#63b8ff" stroke="#63b8ff" points="735.94,-125.74 742.93,-117.78 732.5,-119.65 735.94,-125.74"/>
</a>
</g>
</g>
<!-- Node7 -->
<g id="Node000007" class="node">
<title>Node7</title>
<g id="a_Node000007"><a xlink:href="kest__menu_8c.html#a264644eed0c454d882162f462ed24454" target="_top" xlink:title=" ">
<polygon fill="white" stroke="#666666" points="632.5,-59.75 508.5,-59.75 508.5,-39 632.5,-39 632.5,-59.75"/>
<text xml:space="preserve" text-anchor="middle" x="570.5" y="-46.25" font-family="Helvetica,sans-Serif" font-size="10.00">configure_menu_page</text>
</a>
</g>
</g>
<!-- Node1&#45;&gt;Node7 -->
<g id="edge8_Node000001_Node000007" class="edge">
<title>Node1&#45;&gt;Node7</title>
<g id="a_edge8_Node000001_Node000007"><a xlink:title=" ">
<path fill="none" stroke="#63b8ff" d="M715.58,-92.29C682.28,-82.37 638.37,-69.29 607.81,-60.19"/>
<polygon fill="#63b8ff" stroke="#63b8ff" points="714.39,-95.59 724.98,-95.09 716.39,-88.88 714.39,-95.59"/>
</a>
</g>
</g>
<!-- Node14 -->
<g id="Node000014" class="node">
<title>Node14</title>
<g id="a_Node000014"><a xlink:href="kest__profile__settings_8c.html#ac5120bad91f723143bd3cf720e860fa5" target="_top" xlink:title=" ">
<polygon fill="white" stroke="#666666" points="656.5,-155.75 484.5,-155.75 484.5,-135 656.5,-135 656.5,-155.75"/>
<text xml:space="preserve" text-anchor="middle" x="570.5" y="-142.25" font-family="Helvetica,sans-Serif" font-size="10.00">configure_profile_settings_page</text>
</a>
</g>
</g>
<!-- Node1&#45;&gt;Node14 -->
<g id="edge12_Node000001_Node000014" class="edge">
<title>Node1&#45;&gt;Node14</title>
<g id="a_edge12_Node000001_Node000014"><a xlink:title=" ">
<path fill="none" stroke="#63b8ff" d="M698.45,-119.5C674.53,-124.38 647.68,-129.85 624.85,-134.5"/>
<polygon fill="#63b8ff" stroke="#63b8ff" points="698.98,-122.97 708.08,-117.54 697.59,-116.11 698.98,-122.97"/>
</a>
</g>
</g>
<!-- Node27 -->
<g id="Node000027" class="node">
<title>Node27</title>
<g id="a_Node000027"><a xlink:href="kest__sequence__list_8c.html#ae60870bb862edfc5b0a45344c20b152f" target="_top" xlink:title=" ">
<polygon fill="#fff0f0" stroke="red" points="637.38,-116.75 503.62,-116.75 503.62,-96 637.38,-96 637.38,-116.75"/>
<text xml:space="preserve" text-anchor="middle" x="570.5" y="-103.25" font-family="Helvetica,sans-Serif" font-size="10.00">configure_sequence_list</text>
</a>
</g>
</g>
<!-- Node1&#45;&gt;Node27 -->
<g id="edge19_Node000001_Node000027" class="edge">
<title>Node1&#45;&gt;Node27</title>
<g id="a_edge19_Node000001_Node000027"><a xlink:title=" ">
<path fill="none" stroke="#63b8ff" d="M680.77,-106.38C666.42,-106.38 651.65,-106.38 637.8,-106.38"/>
<polygon fill="#63b8ff" stroke="#63b8ff" points="680.64,-109.88 690.64,-106.38 680.64,-102.88 680.64,-109.88"/>
</a>
</g>
</g>
<!-- Node20 -->
<g id="Node000020" class="node">
<title>Node20</title>
<g id="a_Node000020"><a xlink:href="kest__sequence__view_8c.html#ac871b24a7c875a7b6e707a3d2691a2a9" target="_top" xlink:title=" ">
<polygon fill="#fff0f0" stroke="red" points="641.5,-20.75 499.5,-20.75 499.5,0 641.5,0 641.5,-20.75"/>
<text xml:space="preserve" text-anchor="middle" x="570.5" y="-7.25" font-family="Helvetica,sans-Serif" font-size="10.00">configure_sequence_view</text>
</a>
</g>
</g>
<!-- Node1&#45;&gt;Node20 -->
<g id="edge21_Node000001_Node000020" class="edge">
<title>Node1&#45;&gt;Node20</title>
<g id="a_edge21_Node000001_Node000020"><a xlink:title=" ">
<path fill="none" stroke="#63b8ff" d="M742.39,-87.99C722.02,-70.66 689.16,-45.18 656.5,-30.38 648.49,-26.74 639.75,-23.73 631.02,-21.24"/>
<polygon fill="#63b8ff" stroke="#63b8ff" points="740.1,-90.64 749.94,-94.55 744.69,-85.35 740.1,-90.64"/>
</a>
</g>
</g>
<!-- Node3 -->
<g id="Node000003" class="node">
<title>Node3</title>
<g id="a_Node000003"><a xlink:href="kest__effect__view_8c.html#ae392eef44a5a025bad43a7a8969ab5b0" target="_top" xlink:title=" ">
<polygon fill="white" stroke="#666666" points="439.5,-213.75 315.5,-213.75 315.5,-193 439.5,-193 439.5,-213.75"/>
<text xml:space="preserve" text-anchor="middle" x="377.5" y="-200.25" font-family="Helvetica,sans-Serif" font-size="10.00">configure_effect_view</text>
</a>
</g>
</g>
<!-- Node2&#45;&gt;Node3 -->
<g id="edge2_Node000002_Node000003" class="edge">
<title>Node2&#45;&gt;Node3</title>
<g id="a_edge2_Node000002_Node000003"><a xlink:title=" ">
<path fill="none" stroke="#63b8ff" d="M474.46,-203.38C462.68,-203.38 450.9,-203.38 439.82,-203.38"/>
<polygon fill="#63b8ff" stroke="#63b8ff" points="474.21,-206.88 484.21,-203.38 474.21,-199.88 474.21,-206.88"/>
</a>
</g>
</g>
<!-- Node6 -->
<g id="Node000006" class="node">
<title>Node6</title>
<g id="a_Node000006"><a xlink:href="kest__effect__settings_8c.html#ab8bf2accabc08beecb97a54915abc488" target="_top" xlink:title=" ">
<polygon fill="white" stroke="#666666" points="447,-252.75 308,-252.75 308,-232 447,-232 447,-252.75"/>
<text xml:space="preserve" text-anchor="middle" x="377.5" y="-239.25" font-family="Helvetica,sans-Serif" font-size="10.00">init_effect_settings_page</text>
</a>
</g>
</g>
<!-- Node2&#45;&gt;Node6 -->
<g id="edge6_Node000002_Node000006" class="edge">
<title>Node2&#45;&gt;Node6</title>
<g id="a_edge6_Node000002_Node000006"><a xlink:title=" ">
<path fill="none" stroke="#63b8ff" d="M505.2,-216.5C481.33,-221.38 454.53,-226.85 431.75,-231.5"/>
<polygon fill="#63b8ff" stroke="#63b8ff" points="505.72,-219.97 514.81,-214.54 504.31,-213.11 505.72,-219.97"/>
</a>
</g>
</g>
<!-- Node4 -->
<g id="Node000004" class="node">
<title>Node4</title>
<g id="a_Node000004"><a xlink:href="kest__effect__view_8c.html#abb65b28dc293fd68d3b384f48210130e" target="_top" xlink:title=" ">
<polygon fill="white" stroke="#666666" points="129.25,-232.75 1.5,-232.75 1.5,-212 129.25,-212 129.25,-232.75"/>
<text xml:space="preserve" text-anchor="middle" x="65.38" y="-219.25" font-family="Helvetica,sans-Serif" font-size="10.00">create_effect_view_for</text>
</a>
</g>
</g>
<!-- Node3&#45;&gt;Node4 -->
<g id="edge3_Node000003_Node000004" class="edge">
<title>Node3&#45;&gt;Node4</title>
<g id="a_edge3_Node000003_Node000004"><a xlink:title=" ">
<path fill="none" stroke="#63b8ff" d="M303.9,-207.82C251.06,-211.06 180.19,-215.4 129.65,-218.5"/>
<polygon fill="#63b8ff" stroke="#63b8ff" points="303.95,-211.33 313.72,-207.22 303.52,-204.34 303.95,-211.33"/>
</a>
</g>
</g>
<!-- Node5 -->
<g id="Node000005" class="node">
<title>Node5</title>
<g id="a_Node000005"><a xlink:href="kest__effect__view_8c.html#a7b9803e86d71b10b167f0babf088fe08" target="_top" xlink:title=" ">
<polygon fill="white" stroke="#666666" points="265.62,-251.75 171.62,-251.75 171.62,-231 265.62,-231 265.62,-251.75"/>
<text xml:space="preserve" text-anchor="middle" x="218.62" y="-238.25" font-family="Helvetica,sans-Serif" font-size="10.00">init_effect_view</text>
</a>
</g>
</g>
<!-- Node3&#45;&gt;Node5 -->
<g id="edge4_Node000003_Node000005" class="edge">
<title>Node3&#45;&gt;Node5</title>
<g id="a_edge4_Node000003_Node000005"><a xlink:title=" ">
<path fill="none" stroke="#63b8ff" d="M320.98,-216.82C302.39,-221.33 281.92,-226.29 264.27,-230.56"/>
<polygon fill="#63b8ff" stroke="#63b8ff" points="321.6,-220.27 330.49,-214.52 319.95,-213.47 321.6,-220.27"/>
</a>
</g>
</g>
<!-- Node5&#45;&gt;Node4 -->
<g id="edge5_Node000005_Node000004" class="edge">
<title>Node5&#45;&gt;Node4</title>
<g id="a_edge5_Node000005_Node000004"><a xlink:title=" ">
<path fill="none" stroke="#63b8ff" d="M160.31,-234.18C150.27,-232.91 139.76,-231.59 129.56,-230.31"/>
<polygon fill="#63b8ff" stroke="#63b8ff" points="159.56,-237.61 169.92,-235.38 160.44,-230.66 159.56,-237.61"/>
</a>
</g>
</g>
<!-- Node6&#45;&gt;Node5 -->
<g id="edge7_Node000006_Node000005" class="edge">
<title>Node6&#45;&gt;Node5</title>
<g id="a_edge7_Node000006_Node000005"><a xlink:title=" ">
<path fill="none" stroke="#63b8ff" d="M296.35,-241.86C285.89,-241.8 275.46,-241.73 265.82,-241.67"/>
<polygon fill="#63b8ff" stroke="#63b8ff" points="296.16,-245.36 306.18,-241.93 296.2,-238.36 296.16,-245.36"/>
</a>
</g>
</g>
<!-- Node7&#45;&gt;Node7 -->
<g id="edge9_Node000007_Node000007" class="edge">
<title>Node7&#45;&gt;Node7</title>
<g id="a_edge9_Node000007_Node000007"><a xlink:title=" ">
<path fill="none" stroke="#63b8ff" d="M604.46,-71.24C599.96,-75.08 588.64,-77.75 570.5,-77.75 537.33,-77.75 526.96,-68.81 539.4,-60.15"/>
<polygon fill="#63b8ff" stroke="#63b8ff" points="607.87,-70.42 601.98,-61.61 601.09,-72.17 607.87,-70.42"/>
</a>
</g>
</g>
<!-- Node8 -->
<g id="Node000008" class="node">
<title>Node8</title>
<g id="a_Node000008"><a xlink:href="kest__menu_8c.html#a9a3dc2a29ebf6ace0a6b54a902530001" target="_top" xlink:title=" ">
<polygon fill="white" stroke="#666666" points="424.5,-59.75 330.5,-59.75 330.5,-39 424.5,-39 424.5,-59.75"/>
<text xml:space="preserve" text-anchor="middle" x="377.5" y="-46.25" font-family="Helvetica,sans-Serif" font-size="10.00">init_menu_page</text>
</a>
</g>
</g>
<!-- Node7&#45;&gt;Node8 -->
<g id="edge10_Node000007_Node000008" class="edge">
<title>Node7&#45;&gt;Node8</title>
<g id="a_edge10_Node000007_Node000008"><a xlink:title=" ">
<path fill="none" stroke="#63b8ff" d="M496.71,-49.38C472.55,-49.38 446.32,-49.38 424.72,-49.38"/>
<polygon fill="#63b8ff" stroke="#63b8ff" points="496.5,-52.88 506.5,-49.38 496.5,-45.88 496.5,-52.88"/>
</a>
</g>
</g>
<!-- Node9 -->
<g id="Node000009" class="node">
<title>Node9</title>
<g id="a_Node000009"><a xlink:href="kest__sequence__list_8c.html#a0e869118af43741e3d4db628d5c414fe" target="_top" xlink:title=" ">
<polygon fill="#fff0f0" stroke="red" points="270.5,-78.75 166.75,-78.75 166.75,-58 270.5,-58 270.5,-78.75"/>
<text xml:space="preserve" text-anchor="middle" x="218.62" y="-65.25" font-family="Helvetica,sans-Serif" font-size="10.00">init_sequence_list</text>
</a>
</g>
</g>
<!-- Node8&#45;&gt;Node9 -->
<g id="edge11_Node000008_Node000009" class="edge">
<title>Node8&#45;&gt;Node9</title>
<g id="a_edge11_Node000008_Node000009"><a xlink:title=" ">
<path fill="none" stroke="#63b8ff" d="M319.02,-56.34C303.2,-58.25 286.16,-60.32 270.73,-62.19"/>
<polygon fill="#63b8ff" stroke="#63b8ff" points="319.27,-59.83 328.78,-55.15 318.43,-52.88 319.27,-59.83"/>
</a>
</g>
</g>
<!-- Node15 -->
<g id="Node000015" class="node">
<title>Node15</title>
<g id="a_Node000015"><a xlink:href="kest__profile__view_8c.html#a9f9505132871c2ea372958fd06ecf10f" target="_top" xlink:title=" ">
<polygon fill="white" stroke="#666666" points="441,-135.75 314,-135.75 314,-115 441,-115 441,-135.75"/>
<text xml:space="preserve" text-anchor="middle" x="377.5" y="-122.25" font-family="Helvetica,sans-Serif" font-size="10.00">configure_profile_view</text>
</a>
</g>
</g>
<!-- Node14&#45;&gt;Node15 -->
<g id="edge13_Node000014_Node000015" class="edge">
<title>Node14&#45;&gt;Node15</title>
<g id="a_edge13_Node000014_Node000015"><a xlink:title=" ">
<path fill="none" stroke="#63b8ff" d="M472.88,-135.26C462.14,-134.13 451.41,-133.01 441.25,-131.95"/>
<polygon fill="#63b8ff" stroke="#63b8ff" points="472.24,-138.71 482.55,-136.27 472.97,-131.75 472.24,-138.71"/>
</a>
</g>
</g>
<!-- Node31 -->
<g id="Node000031" class="node">
<title>Node31</title>
<g id="a_Node000031"><a xlink:href="kest__profile__settings_8c.html#a1c60543ff9aed0e212ab514d669256f2" target="_top" xlink:title=" ">
<polygon fill="white" stroke="#666666" points="448.5,-174.75 306.5,-174.75 306.5,-154 448.5,-154 448.5,-174.75"/>
<text xml:space="preserve" text-anchor="middle" x="377.5" y="-161.25" font-family="Helvetica,sans-Serif" font-size="10.00">init_profile_settings_page</text>
</a>
</g>
</g>
<!-- Node14&#45;&gt;Node31 -->
<g id="edge17_Node000014_Node000031" class="edge">
<title>Node14&#45;&gt;Node31</title>
<g id="a_edge17_Node000014_Node000031"><a xlink:title=" ">
<path fill="none" stroke="#63b8ff" d="M472.75,-155C464.75,-155.8 456.76,-156.59 449,-157.36"/>
<polygon fill="#63b8ff" stroke="#63b8ff" points="472.95,-158.5 482.55,-154.02 472.25,-151.53 472.95,-158.5"/>
</a>
</g>
</g>
<!-- Node16 -->
<g id="Node000016" class="node">
<title>Node16</title>
<g id="a_Node000016"><a xlink:href="kest__profile__view_8c.html#a8a76cb40ff26bbde55ba56a4f25094d1" target="_top" xlink:title=" ">
<polygon fill="#fff0f0" stroke="red" points="130.75,-154.75 0,-154.75 0,-134 130.75,-134 130.75,-154.75"/>
<text xml:space="preserve" text-anchor="middle" x="65.38" y="-141.25" font-family="Helvetica,sans-Serif" font-size="10.00">create_profile_view_for</text>
</a>
</g>
</g>
<!-- Node15&#45;&gt;Node16 -->
<g id="edge14_Node000015_Node000016" class="edge">
<title>Node15&#45;&gt;Node16</title>
<g id="a_edge14_Node000015_Node000016"><a xlink:title=" ">
<path fill="none" stroke="#63b8ff" d="M302.55,-129.91C250.38,-133.1 181.18,-137.34 131.17,-140.4"/>
<polygon fill="#63b8ff" stroke="#63b8ff" points="302.46,-133.42 312.23,-129.31 302.04,-126.43 302.46,-133.42"/>
</a>
</g>
</g>
<!-- Node30 -->
<g id="Node000030" class="node">
<title>Node30</title>
<g id="a_Node000030"><a xlink:href="kest__profile__view_8c.html#abfe2cf72961d0ab0b70f858cf1281a38" target="_top" xlink:title=" ">
<polygon fill="white" stroke="#666666" points="267.12,-173.75 170.12,-173.75 170.12,-153 267.12,-153 267.12,-173.75"/>
<text xml:space="preserve" text-anchor="middle" x="218.62" y="-160.25" font-family="Helvetica,sans-Serif" font-size="10.00">init_profile_view</text>
</a>
</g>
</g>
<!-- Node15&#45;&gt;Node30 -->
<g id="edge15_Node000015_Node000030" class="edge">
<title>Node15&#45;&gt;Node30</title>
<g id="a_edge15_Node000015_Node000030"><a xlink:title=" ">
<path fill="none" stroke="#63b8ff" d="M320.98,-138.82C302.39,-143.33 281.92,-148.29 264.27,-152.56"/>
<polygon fill="#63b8ff" stroke="#63b8ff" points="321.6,-142.27 330.49,-136.52 319.95,-135.47 321.6,-142.27"/>
</a>
</g>
</g>
<!-- Node30&#45;&gt;Node16 -->
<g id="edge16_Node000030_Node000016" class="edge">
<title>Node30&#45;&gt;Node16</title>
<g id="a_edge16_Node000030_Node000016"><a xlink:title=" ">
<path fill="none" stroke="#63b8ff" d="M158.56,-155.96C149.55,-154.82 140.2,-153.65 131.07,-152.5"/>
<polygon fill="#63b8ff" stroke="#63b8ff" points="157.91,-159.4 168.27,-157.17 158.78,-152.46 157.91,-159.4"/>
</a>
</g>
</g>
<!-- Node31&#45;&gt;Node30 -->
<g id="edge18_Node000031_Node000030" class="edge">
<title>Node31&#45;&gt;Node30</title>
<g id="a_edge18_Node000031_Node000030"><a xlink:title=" ">
<path fill="none" stroke="#63b8ff" d="M294.82,-163.85C285.38,-163.79 276.01,-163.73 267.25,-163.68"/>
<polygon fill="#63b8ff" stroke="#63b8ff" points="294.79,-167.35 304.81,-163.92 294.83,-160.35 294.79,-167.35"/>
</a>
</g>
</g>
<!-- Node27&#45;&gt;Node9 -->
<g id="edge20_Node000027_Node000009" class="edge">
<title>Node27&#45;&gt;Node9</title>
<g id="a_edge20_Node000027_Node000009"><a xlink:title=" ">
<path fill="none" stroke="#63b8ff" d="M491.89,-97.95C424.54,-90.63 328.97,-80.25 270.8,-73.93"/>
<polygon fill="#63b8ff" stroke="#63b8ff" points="491.46,-101.42 501.78,-99.02 492.21,-94.46 491.46,-101.42"/>
</a>
</g>
</g>
</g>
</svg>
