<?xml version="1.0" encoding="UTF-8" standalone="no"?>
<!DOCTYPE svg PUBLIC "-//W3C//DTD SVG 1.1//EN"
 "http://www.w3.org/Graphics/SVG/1.1/DTD/svg11.dtd">
<!-- Generated by graphviz version 13.1.2 (20250808.2320)
 -->
<!-- Title: kest_profile_set_active Pages: 1 -->
<svg width="673pt" height="288pt"
 viewBox="0.00 0.00 673.00 288.00" xmlns="http://www.w3.org/2000/svg" xmlns:xlink="http://www.w3.org/1999/xlink">
<g id="graph0" class="graph" transform="scale(1 1) rotate(0) translate(4 283.5)">
<title>kest_profile_set_active</title>
<!-- Node1 -->
<g id="Node000001" class="node">
<title>Node1</title>
<g id="a_Node000001"><a xlink:title=" ">
<polygon fill="#999999" stroke="#666666" points="128.5,-176.12 0,-176.12 0,-155.38 128.5,-155.38 128.5,-176.12"/>
<text xml:space="preserve" text-anchor="middle" x="64.25" y="-162.62" font-family="Helvetica,sans-Serif" font-size="10.00">kest_profile_set_active</text>
</a>
</g>
</g>
<!-- Node2 -->
<g id="Node000002" class="node">
<title>Node2</title>
<g id="a_Node000002"><a xlink:href="kest__profile_8c.html#a23cd63c025729fe28dbd76f64ce43f0d" target="_top" xlink:title=" ">
<polygon fill="white" stroke="#666666" points="311,-202.12 164.5,-202.12 164.5,-181.38 311,-181.38 311,-202.12"/>
<text xml:space="preserve" text-anchor="middle" x="237.75" y="-188.62" font-family="Helvetica,sans-Serif" font-size="10.00">kest_profile_program_fpga</text>
</a>
</g>
</g>
<!-- Node1&#45;&gt;Node2 -->
<g id="edge1_Node000001_Node000002" class="edge">
<title>Node1&#45;&gt;Node2</title>
<g id="a_edge1_Node000001_Node000002"><a xlink:title=" ">
<path fill="none" stroke="#63b8ff" d="M128.62,-175.36C136.92,-176.61 145.51,-177.92 154.06,-179.21"/>
<polygon fill="#63b8ff" stroke="#63b8ff" points="153.35,-182.65 163.76,-180.68 154.39,-175.72 153.35,-182.65"/>
</a>
</g>
</g>
<!-- Node35 -->
<g id="Node000035" class="node">
<title>Node35</title>
<g id="a_Node000035"><a xlink:href="kest__profile_8c.html#a8b1594e9e88b6298e1ce4d93641b1e4d" target="_top" xlink:title=" ">
<polygon fill="white" stroke="#666666" points="293.75,-160.5 181.75,-160.5 181.75,-127 293.75,-127 293.75,-160.5"/>
<text xml:space="preserve" text-anchor="start" x="189.75" y="-147" font-family="Helvetica,sans-Serif" font-size="10.00">kest_profile_update</text>
<text xml:space="preserve" text-anchor="middle" x="237.75" y="-134.25" font-family="Helvetica,sans-Serif" font-size="10.00">_representations</text>
</a>
</g>
</g>
<!-- Node1&#45;&gt;Node35 -->
<g id="edge11_Node000001_Node000035" class="edge">
<title>Node1&#45;&gt;Node35</title>
<g id="a_edge11_Node000001_Node000035"><a xlink:title=" ">
<path fill="none" stroke="#63b8ff" d="M128.62,-157.62C142.12,-155.89 156.4,-154.06 170.02,-152.31"/>
<polygon fill="#63b8ff" stroke="#63b8ff" points="170.29,-155.8 179.76,-151.06 169.4,-148.86 170.29,-155.8"/>
</a>
</g>
</g>
<!-- Node3 -->
<g id="Node000003" class="node">
<title>Node3</title>
<g id="a_Node000003"><a xlink:href="kest__error__codes_8c.html#a0f4c77127bc0b77264a21104979c576a" target="_top" xlink:title=" ">
<polygon fill="white" stroke="#666666" points="650.5,-279.5 542.25,-279.5 542.25,-246 650.5,-246 650.5,-279.5"/>
<text xml:space="preserve" text-anchor="start" x="550.25" y="-266" font-family="Helvetica,sans-Serif" font-size="10.00">kest_error_code_to</text>
<text xml:space="preserve" text-anchor="middle" x="596.38" y="-253.25" font-family="Helvetica,sans-Serif" font-size="10.00">_string</text>
</a>
</g>
</g>
<!-- Node2&#45;&gt;Node3 -->
<g id="edge2_Node000002_Node000003" class="edge">
<title>Node2&#45;&gt;Node3</title>
<g id="a_edge2_Node000002_Node000003"><a xlink:title=" ">
<path fill="none" stroke="#63b8ff" d="M255.97,-202.52C276.69,-214.88 312.97,-234.62 347,-243.75 407.84,-260.07 479.85,-263.97 530.63,-264.3"/>
<polygon fill="#63b8ff" stroke="#63b8ff" points="530.57,-267.8 540.58,-264.31 530.58,-260.8 530.57,-267.8"/>
</a>
</g>
</g>
<!-- Node4 -->
<g id="Node000004" class="node">
<title>Node4</title>
<g id="a_Node000004"><a xlink:href="kest__fpga__comms_8c.html#aa3f94ee1fcafa0fcdc27ce70021c0f8b" target="_top" xlink:title=" ">
<polygon fill="white" stroke="#666666" points="492,-234.5 347,-234.5 347,-201 492,-201 492,-234.5"/>
<text xml:space="preserve" text-anchor="start" x="355" y="-221" font-family="Helvetica,sans-Serif" font-size="10.00">kest_fpga_queue_program</text>
<text xml:space="preserve" text-anchor="middle" x="419.5" y="-208.25" font-family="Helvetica,sans-Serif" font-size="10.00">_batch</text>
</a>
</g>
</g>
<!-- Node2&#45;&gt;Node4 -->
<g id="edge3_Node000002_Node000004" class="edge">
<title>Node2&#45;&gt;Node4</title>
<g id="a_edge3_Node000002_Node000004"><a xlink:title=" ">
<path fill="none" stroke="#63b8ff" d="M311.34,-202.25C319.22,-203.39 327.29,-204.56 335.28,-205.71"/>
<polygon fill="#63b8ff" stroke="#63b8ff" points="334.62,-209.15 345.01,-207.12 335.62,-202.23 334.62,-209.15"/>
</a>
</g>
</g>
<!-- Node5 -->
<g id="Node000005" class="node">
<title>Node5</title>
<g id="a_Node000005"><a xlink:href="kest__pipeline_8c.html#a7bb8f92d379766cce5cdc4b68d11818f" target="_top" xlink:title=" ">
<polygon fill="white" stroke="#666666" points="478.88,-182.5 360.12,-182.5 360.12,-149 478.88,-149 478.88,-182.5"/>
<text xml:space="preserve" text-anchor="start" x="368.12" y="-169" font-family="Helvetica,sans-Serif" font-size="10.00">kest_pipeline_create</text>
<text xml:space="preserve" text-anchor="middle" x="419.5" y="-156.25" font-family="Helvetica,sans-Serif" font-size="10.00">_fpga_transfer_batch</text>
</a>
</g>
</g>
<!-- Node2&#45;&gt;Node5 -->
<g id="edge4_Node000002_Node000005" class="edge">
<title>Node2&#45;&gt;Node5</title>
<g id="a_edge4_Node000002_Node000005"><a xlink:title=" ">
<path fill="none" stroke="#63b8ff" d="M311.34,-181.25C323.65,-179.47 336.41,-177.62 348.65,-175.85"/>
<polygon fill="#63b8ff" stroke="#63b8ff" points="348.82,-179.37 358.21,-174.47 347.81,-172.44 348.82,-179.37"/>
</a>
</g>
</g>
<!-- Node5&#45;&gt;Node3 -->
<g id="edge6_Node000005_Node000003" class="edge">
<title>Node5&#45;&gt;Node3</title>
<g id="a_edge6_Node000005_Node000003"><a xlink:title=" ">
<path fill="none" stroke="#63b8ff" d="M477.04,-182.92C482.3,-185.51 487.39,-188.44 492,-191.75 512.81,-206.68 507.34,-221.62 528,-236.75 529.56,-237.9 531.19,-239 532.85,-240.06"/>
<polygon fill="#63b8ff" stroke="#63b8ff" points="531.04,-243.06 541.47,-244.93 534.49,-236.96 531.04,-243.06"/>
</a>
</g>
</g>
<!-- Node6 -->
<g id="Node000006" class="node">
<title>Node6</title>
<g id="a_Node000006"><a xlink:href="kest__resource_8c.html#a0dbd38376633e45652b4da3a7249c4b7" target="_top" xlink:title=" ">
<polygon fill="white" stroke="#666666" points="660.62,-227.5 532.12,-227.5 532.12,-194 660.62,-194 660.62,-227.5"/>
<text xml:space="preserve" text-anchor="start" x="540.12" y="-214" font-family="Helvetica,sans-Serif" font-size="10.00">empty_m_eff_resource</text>
<text xml:space="preserve" text-anchor="middle" x="596.38" y="-201.25" font-family="Helvetica,sans-Serif" font-size="10.00">_report</text>
</a>
</g>
</g>
<!-- Node5&#45;&gt;Node6 -->
<g id="edge5_Node000005_Node000006" class="edge">
<title>Node5&#45;&gt;Node6</title>
<g id="a_edge5_Node000005_Node000006"><a xlink:title=" ">
<path fill="none" stroke="#63b8ff" d="M479.22,-180.86C492.53,-184.28 506.84,-187.97 520.71,-191.54"/>
<polygon fill="#63b8ff" stroke="#63b8ff" points="519.69,-194.89 530.24,-193.99 521.43,-188.11 519.69,-194.89"/>
</a>
</g>
</g>
<!-- Node7 -->
<g id="Node000007" class="node">
<title>Node7</title>
<g id="a_Node000007"><a xlink:href="kest__fpga__io_8c.html#a6900c9b759f1dccf1b3535cc76ad83e3" target="_top" xlink:title=" ">
<polygon fill="#fff0f0" stroke="red" points="664.75,-176.12 528,-176.12 528,-155.38 664.75,-155.38 664.75,-176.12"/>
<text xml:space="preserve" text-anchor="middle" x="596.38" y="-162.62" font-family="Helvetica,sans-Serif" font-size="10.00">kest_fpga_batch_append</text>
</a>
</g>
</g>
<!-- Node5&#45;&gt;Node7 -->
<g id="edge7_Node000005_Node000007" class="edge">
<title>Node5&#45;&gt;Node7</title>
<g id="a_edge7_Node000005_Node000007"><a xlink:title=" ">
<path fill="none" stroke="#63b8ff" d="M479.22,-165.75C491.14,-165.75 503.87,-165.75 516.37,-165.75"/>
<polygon fill="#63b8ff" stroke="#63b8ff" points="516.24,-169.25 526.24,-165.75 516.24,-162.25 516.24,-169.25"/>
</a>
</g>
</g>
<!-- Node11 -->
<g id="Node000011" class="node">
<title>Node11</title>
<g id="a_Node000011"><a xlink:href="kest__fpga__encoding_8c.html#ad4ae765e4a682cbd9a71e3acceabf81d" target="_top" xlink:title=" ">
<polygon fill="#fff0f0" stroke="red" points="664.75,-137.5 528,-137.5 528,-104 664.75,-104 664.75,-137.5"/>
<text xml:space="preserve" text-anchor="start" x="536" y="-124" font-family="Helvetica,sans-Serif" font-size="10.00">kest_fpga_batch_append</text>
<text xml:space="preserve" text-anchor="middle" x="596.38" y="-111.25" font-family="Helvetica,sans-Serif" font-size="10.00">_effects</text>
</a>
</g>
</g>
<!-- Node5&#45;&gt;Node11 -->
<g id="edge8_Node000005_Node000011" class="edge">
<title>Node5&#45;&gt;Node11</title>
<g id="a_edge8_Node000005_Node000011"><a xlink:title=" ">
<path fill="none" stroke="#63b8ff" d="M479.22,-150.64C491.42,-147.5 504.46,-144.14 517.24,-140.86"/>
<polygon fill="#63b8ff" stroke="#63b8ff" points="518.09,-144.25 526.9,-138.37 516.34,-137.47 518.09,-144.25"/>
</a>
</g>
</g>
<!-- Node33 -->
<g id="Node000033" class="node">
<title>Node33</title>
<g id="a_Node000033"><a xlink:href="kest__fpga__io_8c.html#aa1e89a33f9427932bc0d8e62bbfed3cb" target="_top" xlink:title=" ">
<polygon fill="#fff0f0" stroke="red" points="662.12,-85.5 530.62,-85.5 530.62,-52 662.12,-52 662.12,-85.5"/>
<text xml:space="preserve" text-anchor="start" x="538.62" y="-72" font-family="Helvetica,sans-Serif" font-size="10.00">kest_free_fpga_transfer</text>
<text xml:space="preserve" text-anchor="middle" x="596.38" y="-59.25" font-family="Helvetica,sans-Serif" font-size="10.00">_batch</text>
</a>
</g>
</g>
<!-- Node5&#45;&gt;Node33 -->
<g id="edge9_Node000005_Node000033" class="edge">
<title>Node5&#45;&gt;Node33</title>
<g id="a_edge9_Node000005_Node000033"><a xlink:title=" ">
<path fill="none" stroke="#63b8ff" d="M477.04,-148.58C482.3,-145.99 487.39,-143.06 492,-139.75 512.81,-124.82 507.34,-109.88 528,-94.75 529.56,-93.6 531.19,-92.5 532.85,-91.44"/>
<polygon fill="#63b8ff" stroke="#63b8ff" points="534.49,-94.54 541.47,-86.57 531.04,-88.44 534.49,-94.54"/>
</a>
</g>
</g>
<!-- Node34 -->
<g id="Node000034" class="node">
<title>Node34</title>
<g id="a_Node000034"><a xlink:href="kest__fpga__io_8c.html#adb086d525d9f47a4c077d7377110500b" target="_top" xlink:title=" ">
<polygon fill="#fff0f0" stroke="red" points="662.5,-33.5 530.25,-33.5 530.25,0 662.5,0 662.5,-33.5"/>
<text xml:space="preserve" text-anchor="start" x="538.25" y="-20" font-family="Helvetica,sans-Serif" font-size="10.00">kest_new_fpga_transfer</text>
<text xml:space="preserve" text-anchor="middle" x="596.38" y="-7.25" font-family="Helvetica,sans-Serif" font-size="10.00">_batch</text>
</a>
</g>
</g>
<!-- Node5&#45;&gt;Node34 -->
<g id="edge10_Node000005_Node000034" class="edge">
<title>Node5&#45;&gt;Node34</title>
<g id="a_edge10_Node000005_Node000034"><a xlink:title=" ">
<path fill="none" stroke="#63b8ff" d="M479.3,-149.41C483.93,-146.67 488.25,-143.47 492,-139.75 524.62,-107.34 495.69,-75.48 528,-42.75 528.73,-42.01 529.49,-41.29 530.26,-40.59"/>
<polygon fill="#63b8ff" stroke="#63b8ff" points="532.18,-43.53 538.08,-34.73 527.98,-37.92 532.18,-43.53"/>
</a>
</g>
</g>
<!-- Node36 -->
<g id="Node000036" class="node">
<title>Node36</title>
<g id="a_Node000036"><a xlink:href="kest__representation_8c.html#a7a4a0f32b72f47d90e3d0f5932fbe58f" target="_top" xlink:title=" ">
<polygon fill="white" stroke="#666666" points="480.75,-130.5 358.25,-130.5 358.25,-97 480.75,-97 480.75,-130.5"/>
<text xml:space="preserve" text-anchor="start" x="366.25" y="-117" font-family="Helvetica,sans-Serif" font-size="10.00">queue_representation</text>
<text xml:space="preserve" text-anchor="middle" x="419.5" y="-104.25" font-family="Helvetica,sans-Serif" font-size="10.00">_list_update</text>
</a>
</g>
</g>
<!-- Node35&#45;&gt;Node36 -->
<g id="edge12_Node000035_Node000036" class="edge">
<title>Node35&#45;&gt;Node36</title>
<g id="a_edge12_Node000035_Node000036"><a xlink:title=" ">
<path fill="none" stroke="#63b8ff" d="M294.15,-134.5C310.73,-131.74 329.16,-128.66 346.65,-125.74"/>
<polygon fill="#63b8ff" stroke="#63b8ff" points="347.19,-129.2 356.48,-124.1 346.04,-122.3 347.19,-129.2"/>
</a>
</g>
</g>
</g>
</svg>
