<?xml version="1.0" encoding="UTF-8" standalone="no"?>
<!DOCTYPE svg PUBLIC "-//W3C//DTD SVG 1.1//EN"
 "http://www.w3.org/Graphics/SVG/1.1/DTD/svg11.dtd">
<!-- Generated by graphviz version 13.1.2 (20250808.2320)
 -->
<!-- Title: configure_setting_widget Pages: 1 -->
<svg width="821pt" height="68pt"
 viewBox="0.00 0.00 821.00 68.00" xmlns="http://www.w3.org/2000/svg" xmlns:xlink="http://www.w3.org/1999/xlink">
<g id="graph0" class="graph" transform="scale(1 1) rotate(0) translate(4 63.75)">
<title>configure_setting_widget</title>
<!-- Node1 -->
<g id="Node000001" class="node">
<title>Node1</title>
<g id="a_Node000001"><a xlink:title=" ">
<polygon fill="#999999" stroke="#666666" points="812.75,-40.75 673.75,-40.75 673.75,-20 812.75,-20 812.75,-40.75"/>
<text xml:space="preserve" text-anchor="middle" x="743.25" y="-27.25" font-family="Helvetica,sans-Serif" font-size="10.00">configure_setting_widget</text>
</a>
</g>
</g>
<!-- Node2 -->
<g id="Node000002" class="node">
<title>Node2</title>
<g id="a_Node000002"><a xlink:href="kest__effect__settings_8c.html#ab738a7e4abecdaf8e9e7788ace97d8b5" target="_top" xlink:title=" ">
<polygon fill="white" stroke="#666666" points="637.75,-21.75 468.75,-21.75 468.75,-1 637.75,-1 637.75,-21.75"/>
<text xml:space="preserve" text-anchor="middle" x="553.25" y="-8.25" font-family="Helvetica,sans-Serif" font-size="10.00">configure_effect_settings_page</text>
</a>
</g>
</g>
<!-- Node1&#45;&gt;Node2 -->
<g id="edge1_Node000001_Node000002" class="edge">
<title>Node1&#45;&gt;Node2</title>
<g id="a_edge1_Node000001_Node000002"><a xlink:title=" ">
<path fill="none" stroke="#63b8ff" d="M661.92,-22.26C654.07,-21.46 646.08,-20.66 638.19,-19.86"/>
<polygon fill="#63b8ff" stroke="#63b8ff" points="661.51,-25.73 671.81,-23.26 662.21,-18.77 661.51,-25.73"/>
</a>
</g>
</g>
<!-- Node3 -->
<g id="Node000003" class="node">
<title>Node3</title>
<g id="a_Node000003"><a xlink:href="kest__effect__view_8c.html#ae392eef44a5a025bad43a7a8969ab5b0" target="_top" xlink:title=" ">
<polygon fill="white" stroke="#666666" points="425.25,-59.75 301.25,-59.75 301.25,-39 425.25,-39 425.25,-59.75"/>
<text xml:space="preserve" text-anchor="middle" x="363.25" y="-46.25" font-family="Helvetica,sans-Serif" font-size="10.00">configure_effect_view</text>
</a>
</g>
</g>
<!-- Node1&#45;&gt;Node3 -->
<g id="edge8_Node000001_Node000003" class="edge">
<title>Node1&#45;&gt;Node3</title>
<g id="a_edge8_Node000001_Node000003"><a xlink:title=" ">
<path fill="none" stroke="#63b8ff" d="M662.29,-34.39C591.57,-37.95 489.9,-43.06 425.48,-46.3"/>
<polygon fill="#63b8ff" stroke="#63b8ff" points="662.04,-37.91 671.85,-33.91 661.68,-30.92 662.04,-37.91"/>
</a>
</g>
</g>
<!-- Node2&#45;&gt;Node3 -->
<g id="edge2_Node000002_Node000003" class="edge">
<title>Node2&#45;&gt;Node3</title>
<g id="a_edge2_Node000002_Node000003"><a xlink:title=" ">
<path fill="none" stroke="#63b8ff" d="M487.39,-24.48C464.74,-29.06 439.58,-34.15 417.94,-38.52"/>
<polygon fill="#63b8ff" stroke="#63b8ff" points="488.04,-27.93 497.14,-22.51 486.65,-21.06 488.04,-27.93"/>
</a>
</g>
</g>
<!-- Node6 -->
<g id="Node000006" class="node">
<title>Node6</title>
<g id="a_Node000006"><a xlink:href="kest__effect__settings_8c.html#ab8bf2accabc08beecb97a54915abc488" target="_top" xlink:title=" ">
<polygon fill="white" stroke="#666666" points="432.75,-20.75 293.75,-20.75 293.75,0 432.75,0 432.75,-20.75"/>
<text xml:space="preserve" text-anchor="middle" x="363.25" y="-7.25" font-family="Helvetica,sans-Serif" font-size="10.00">init_effect_settings_page</text>
</a>
</g>
</g>
<!-- Node2&#45;&gt;Node6 -->
<g id="edge6_Node000002_Node000006" class="edge">
<title>Node2&#45;&gt;Node6</title>
<g id="a_edge6_Node000002_Node000006"><a xlink:title=" ">
<path fill="none" stroke="#63b8ff" d="M456.99,-10.87C448.9,-10.83 440.82,-10.78 432.99,-10.74"/>
<polygon fill="#63b8ff" stroke="#63b8ff" points="456.89,-14.37 466.91,-10.92 456.93,-7.37 456.89,-14.37"/>
</a>
</g>
</g>
<!-- Node4 -->
<g id="Node000004" class="node">
<title>Node4</title>
<g id="a_Node000004"><a xlink:href="kest__effect__view_8c.html#abb65b28dc293fd68d3b384f48210130e" target="_top" xlink:title=" ">
<polygon fill="white" stroke="#666666" points="127.75,-40.75 0,-40.75 0,-20 127.75,-20 127.75,-40.75"/>
<text xml:space="preserve" text-anchor="middle" x="63.88" y="-27.25" font-family="Helvetica,sans-Serif" font-size="10.00">create_effect_view_for</text>
</a>
</g>
</g>
<!-- Node3&#45;&gt;Node4 -->
<g id="edge3_Node000003_Node000004" class="edge">
<title>Node3&#45;&gt;Node4</title>
<g id="a_edge3_Node000003_Node000004"><a xlink:title=" ">
<path fill="none" stroke="#63b8ff" d="M289.74,-44.74C240.29,-41.58 175.44,-37.44 128.1,-34.41"/>
<polygon fill="#63b8ff" stroke="#63b8ff" points="289.28,-48.22 299.48,-45.36 289.73,-41.23 289.28,-48.22"/>
</a>
</g>
</g>
<!-- Node5 -->
<g id="Node000005" class="node">
<title>Node5</title>
<g id="a_Node000005"><a xlink:href="kest__effect__view_8c.html#a7b9803e86d71b10b167f0babf088fe08" target="_top" xlink:title=" ">
<polygon fill="white" stroke="#666666" points="257.75,-21.75 163.75,-21.75 163.75,-1 257.75,-1 257.75,-21.75"/>
<text xml:space="preserve" text-anchor="middle" x="210.75" y="-8.25" font-family="Helvetica,sans-Serif" font-size="10.00">init_effect_view</text>
</a>
</g>
</g>
<!-- Node3&#45;&gt;Node5 -->
<g id="edge4_Node000003_Node000005" class="edge">
<title>Node3&#45;&gt;Node5</title>
<g id="a_edge4_Node000003_Node000005"><a xlink:title=" ">
<path fill="none" stroke="#63b8ff" d="M308.48,-35.8C290.78,-31.33 271.35,-26.42 254.58,-22.19"/>
<polygon fill="#63b8ff" stroke="#63b8ff" points="307.51,-39.16 318.06,-38.22 309.22,-32.38 307.51,-39.16"/>
</a>
</g>
</g>
<!-- Node5&#45;&gt;Node4 -->
<g id="edge5_Node000005_Node000004" class="edge">
<title>Node5&#45;&gt;Node4</title>
<g id="a_edge5_Node000005_Node000004"><a xlink:title=" ">
<path fill="none" stroke="#63b8ff" d="M152.16,-18.93C144.25,-19.96 136.11,-21.03 128.11,-22.08"/>
<polygon fill="#63b8ff" stroke="#63b8ff" points="152.55,-22.41 162.01,-17.64 151.64,-15.47 152.55,-22.41"/>
</a>
</g>
</g>
<!-- Node6&#45;&gt;Node5 -->
<g id="edge7_Node000006_Node000005" class="edge">
<title>Node6&#45;&gt;Node5</title>
<g id="a_edge7_Node000006_Node000005"><a xlink:title=" ">
<path fill="none" stroke="#63b8ff" d="M282.24,-10.91C273.91,-10.96 265.66,-11.02 257.9,-11.07"/>
<polygon fill="#63b8ff" stroke="#63b8ff" points="282.12,-14.41 292.09,-10.84 282.07,-7.41 282.12,-14.41"/>
</a>
</g>
</g>
</g>
</svg>
