<?xml version="1.0" encoding="UTF-8" standalone="no"?>
<!DOCTYPE svg PUBLIC "-//W3C//DTD SVG 1.1//EN"
 "http://www.w3.org/Graphics/SVG/1.1/DTD/svg11.dtd">
<!-- Generated by graphviz version 13.1.2 (20250808.2320)
 -->
<!-- Title: print_memory_report Pages: 1 -->
<svg width="524pt" height="48pt"
 viewBox="0.00 0.00 524.00 48.00" xmlns="http://www.w3.org/2000/svg" xmlns:xlink="http://www.w3.org/1999/xlink">
<g id="graph0" class="graph" transform="scale(1 1) rotate(0) translate(4 43.75)">
<title>print_memory_report</title>
<!-- Node1 -->
<g id="Node000001" class="node">
<title>Node1</title>
<g id="a_Node000001"><a xlink:title=" ">
<polygon fill="#999999" stroke="#666666" points="516.25,-39.75 396.75,-39.75 396.75,-19 516.25,-19 516.25,-39.75"/>
<text xml:space="preserve" text-anchor="middle" x="456.5" y="-26.25" font-family="Helvetica,sans-Serif" font-size="10.00">print_memory_report</text>
</a>
</g>
</g>
<!-- Node2 -->
<g id="Node000002" class="node">
<title>Node2</title>
<g id="a_Node000002"><a xlink:href="kest__int_8c.html#abce06be17fc37d675118a678a8100a36" target="_top" xlink:title=" ">
<polygon fill="white" stroke="#666666" points="64,-39.75 0,-39.75 0,-19 64,-19 64,-39.75"/>
<text xml:space="preserve" text-anchor="middle" x="32" y="-26.25" font-family="Helvetica,sans-Serif" font-size="10.00">app_main</text>
</a>
</g>
</g>
<!-- Node1&#45;&gt;Node2 -->
<g id="edge1_Node000001_Node000002" class="edge">
<title>Node1&#45;&gt;Node2</title>
<g id="a_edge1_Node000001_Node000002"><a xlink:title=" ">
<path fill="none" stroke="#63b8ff" d="M385.01,-29.38C291.82,-29.38 131.58,-29.38 64.24,-29.38"/>
<polygon fill="#63b8ff" stroke="#63b8ff" points="384.79,-32.88 394.79,-29.38 384.79,-25.88 384.79,-32.88"/>
</a>
</g>
</g>
<!-- Node3 -->
<g id="Node000003" class="node">
<title>Node3</title>
<g id="a_Node000003"><a xlink:href="kest__alloc_8c.html#aeedc5ac6c48c67b0f16cef7560ec5813" target="_top" xlink:title=" ">
<polygon fill="white" stroke="#666666" points="360.75,-20.75 224,-20.75 224,0 360.75,0 360.75,-20.75"/>
<text xml:space="preserve" text-anchor="middle" x="292.38" y="-7.25" font-family="Helvetica,sans-Serif" font-size="10.00">kest_mem_monitor_task</text>
</a>
</g>
</g>
<!-- Node1&#45;&gt;Node3 -->
<g id="edge2_Node000001_Node000003" class="edge">
<title>Node1&#45;&gt;Node3</title>
<g id="a_edge2_Node000001_Node000003"><a xlink:title=" ">
<path fill="none" stroke="#63b8ff" d="M385.3,-21.15C377.27,-20.21 369.11,-19.25 361.12,-18.31"/>
<polygon fill="#63b8ff" stroke="#63b8ff" points="384.67,-24.6 395.01,-22.29 385.48,-17.65 384.67,-24.6"/>
</a>
</g>
</g>
<!-- Node4 -->
<g id="Node000004" class="node">
<title>Node4</title>
<g id="a_Node000004"><a xlink:href="kest__alloc_8c.html#aa0e80da4e1c1ccbe3a4c3f2eb56c4d3c" target="_top" xlink:title=" ">
<polygon fill="white" stroke="#666666" points="188,-20.75 100,-20.75 100,0 188,0 188,-20.75"/>
<text xml:space="preserve" text-anchor="middle" x="144" y="-7.25" font-family="Helvetica,sans-Serif" font-size="10.00">kest_mem_init</text>
</a>
</g>
</g>
<!-- Node3&#45;&gt;Node4 -->
<g id="edge3_Node000003_Node000004" class="edge">
<title>Node3&#45;&gt;Node4</title>
<g id="a_edge3_Node000003_Node000004"><a xlink:title=" ">
<path fill="none" stroke="#63b8ff" d="M212.5,-10.38C204.26,-10.38 196.12,-10.38 188.5,-10.38"/>
<polygon fill="#63b8ff" stroke="#63b8ff" points="212.24,-13.88 222.24,-10.38 212.24,-6.88 212.24,-13.88"/>
</a>
</g>
</g>
<!-- Node4&#45;&gt;Node2 -->
<g id="edge4_Node000004_Node000002" class="edge">
<title>Node4&#45;&gt;Node2</title>
<g id="a_edge4_Node000004_Node000002"><a xlink:title=" ">
<path fill="none" stroke="#63b8ff" d="M88.34,-19.82C80.09,-21.24 71.82,-22.67 64.29,-23.97"/>
<polygon fill="#63b8ff" stroke="#63b8ff" points="88.78,-23.29 98.03,-18.14 87.58,-16.4 88.78,-23.29"/>
</a>
</g>
</g>
</g>
</svg>
