<?xml version="1.0" encoding="UTF-8" standalone="no"?>
<!DOCTYPE svg PUBLIC "-//W3C//DTD SVG 1.1//EN"
 "http://www.w3.org/Graphics/SVG/1.1/DTD/svg11.dtd">
<!-- Generated by graphviz version 13.1.2 (20250808.2320)
 -->
<!-- Title: kest_active_button_array_append_new Pages: 1 -->
<!--zoomable 820 -->

<svg id="main" version="1.1" xmlns="http://www.w3.org/2000/svg" xmlns:xlink="http://www.w3.org/1999/xlink" xml:space="preserve" onload="init(evt)">

<style type="text/css"><![CDATA[
.node, .edge {opacity: 0.7;}
.node.selected, .edge.selected {opacity: 1;}
.edge:hover path { stroke: red; }
.edge:hover polygon { stroke: red; fill: red; }
]]></style>

<defs>
  <circle id="rim" cx="0" cy="0" r="7"/>
  <circle id="rim2" cx="0" cy="0" r="3.5"/>
  <g id="zoomPlus">
    <use xlink:href="#rim" fill="#404040"><set attributeName="fill" to="#808080" begin="zoomplus.mouseover" end="zoomplus.mouseout"/></use>
    <path d="M-4,0h8M0,-4v8" fill="none" stroke="white" stroke-width="1.5" pointer-events="none"/>
  </g>
  <g id="zoomMin">
    <use xlink:href="#rim" fill="#404040"><set attributeName="fill" to="#808080" begin="zoomminus.mouseover" end="zoomminus.mouseout"/></use>
    <path d="M-4,0h8" fill="none" stroke="white" stroke-width="1.5" pointer-events="none"/>
  </g>
  <g id="arrowUp" transform="translate(30 24)">
    <use xlink:href="#rim"/>
    <path pointer-events="none" fill="none" stroke="white" stroke-width="1.5" d="M0,-3.0v7 M-2.5,-0.5L0,-3.0L2.5,-0.5"/>
  </g>
  <g id="arrowRight" transform="rotate(90) translate(36 -43)">
    <use xlink:href="#rim"/>
    <path pointer-events="none" fill="none" stroke="white" stroke-width="1.5" d="M0,-3.0v7 M-2.5,-0.5L0,-3.0L2.5,-0.5"/>
  </g>
  <g id="arrowDown" transform="rotate(180) translate(-30 -48)">
    <use xlink:href="#rim"/>
    <path pointer-events="none" fill="none" stroke="white" stroke-width="1.5" d="M0,-3.0v7 M-2.5,-0.5L0,-3.0L2.5,-0.5"/>
  </g>
  <g id="arrowLeft" transform="rotate(270) translate(-36 17)">
    <use xlink:href="#rim"/>
    <path pointer-events="none" fill="none" stroke="white" stroke-width="1.5" d="M0,-3.0v7 M-2.5,-0.5L0,-3.0L2.5,-0.5"/>
  </g>
  <g id="resetDef">
    <use xlink:href="#rim2" fill="#404040"><set attributeName="fill" to="#808080" begin="reset.mouseover" end="reset.mouseout"/></use>
  </g>
</defs>
<script type="application/ecmascript">
var viewWidth = 844;
var viewHeight = 820;
var sectionId = 'dynsection-14';
</script>
<script type="application/ecmascript" xlink:href="svg.min.js"/>
<svg id="graph" class="graph">
<g id="viewport">
<title>kest_active_button_array_append_new</title>
<!-- Node1 -->
<g id="Node000001" class="node">
<title>Node1</title>
<g id="a_Node000001"><a xlink:title=" ">
<polygon fill="#999999" stroke="#666666" points="113.5,-231.32 0,-231.32 0,-197.82 113.5,-197.82 113.5,-231.32"/>
<text xml:space="preserve" text-anchor="start" x="8" y="-217.82" font-family="Helvetica,sans-Serif" font-size="10.00">kest_active_button</text>
<text xml:space="preserve" text-anchor="middle" x="56.75" y="-205.07" font-family="Helvetica,sans-Serif" font-size="10.00">_array_append_new</text>
</a>
</g>
</g>
<!-- Node2 -->
<g id="Node000002" class="node">
<title>Node2</title>
<g id="a_Node000002"><a xlink:href="kest__button_8c.html#a209511305dd2db40751857097e1e82c1" target="_top" xlink:title=" ">
<polygon fill="white" stroke="#666666" points="268.25,-231.32 160,-231.32 160,-197.82 268.25,-197.82 268.25,-231.32"/>
<text xml:space="preserve" text-anchor="start" x="168" y="-217.82" font-family="Helvetica,sans-Serif" font-size="10.00">kest_active_button</text>
<text xml:space="preserve" text-anchor="middle" x="214.12" y="-205.07" font-family="Helvetica,sans-Serif" font-size="10.00">_add_del_button</text>
</a>
</g>
</g>
<!-- Node1&#45;&gt;Node2 -->
<g id="edge1_Node000001_Node000002" class="edge">
<title>Node1&#45;&gt;Node2</title>
<g id="a_edge1_Node000001_Node000002"><a xlink:title=" ">
<path fill="none" stroke="#63b8ff" d="M113.84,-214.57C125.06,-214.57 136.92,-214.57 148.4,-214.57"/>
<polygon fill="#63b8ff" stroke="#63b8ff" points="148.19,-218.07 158.19,-214.57 148.19,-211.07 148.19,-218.07"/>
</a>
</g>
</g>
<!-- Node25 -->
<g id="Node000025" class="node">
<title>Node25</title>
<g id="a_Node000025"><a xlink:href="kest__alloc_8c.html#a849755c5dc5b35e712ffcdb602e50fb4" target="_top" xlink:title=" ">
<polygon fill="white" stroke="#666666" points="617.5,-397.95 552.75,-397.95 552.75,-377.2 617.5,-377.2 617.5,-397.95"/>
<text xml:space="preserve" text-anchor="middle" x="585.12" y="-384.45" font-family="Helvetica,sans-Serif" font-size="10.00">kest_alloc</text>
</a>
</g>
</g>
<!-- Node1&#45;&gt;Node25 -->
<g id="edge37_Node000001_Node000025" class="edge">
<title>Node1&#45;&gt;Node25</title>
<g id="a_edge37_Node000001_Node000025"><a xlink:title=" ">
<path fill="none" stroke="#63b8ff" d="M78.41,-231.7C120.03,-265.08 218.25,-338.18 314.75,-368.57 391.82,-392.85 487.22,-393.05 541.33,-390.59"/>
<polygon fill="#63b8ff" stroke="#63b8ff" points="541.23,-394.1 551.04,-390.09 540.87,-387.11 541.23,-394.1"/>
</a>
</g>
</g>
<!-- Node26 -->
<g id="Node000026" class="node">
<title>Node26</title>
<g id="a_Node000026"><a xlink:href="kest__button_8c.html#a591c84573c4b4dfefa4c6b1445fc290e" target="_top" xlink:title=" ">
<polygon fill="white" stroke="#666666" points="268.25,-108.32 160,-108.32 160,-74.82 268.25,-74.82 268.25,-108.32"/>
<text xml:space="preserve" text-anchor="start" x="168" y="-94.82" font-family="Helvetica,sans-Serif" font-size="10.00">kest_active_button</text>
<text xml:space="preserve" text-anchor="middle" x="214.12" y="-82.07" font-family="Helvetica,sans-Serif" font-size="10.00">_array_append</text>
</a>
</g>
</g>
<!-- Node1&#45;&gt;Node26 -->
<g id="edge15_Node000001_Node000026" class="edge">
<title>Node1&#45;&gt;Node26</title>
<g id="a_edge15_Node000001_Node000026"><a xlink:title=" ">
<path fill="none" stroke="#63b8ff" d="M79.35,-197.47C106.18,-176.23 152.11,-139.87 182.55,-115.78"/>
<polygon fill="#63b8ff" stroke="#63b8ff" points="184.6,-118.62 190.27,-109.67 180.25,-113.13 184.6,-118.62"/>
</a>
</g>
</g>
<!-- Node27 -->
<g id="Node000027" class="node">
<title>Node27</title>
<g id="a_Node000027"><a xlink:href="kest__button_8c.html#a9cc8b0c8114bbffc12e858af8589ff86" target="_top" xlink:title=" ">
<polygon fill="white" stroke="#666666" points="278.75,-585.95 149.5,-585.95 149.5,-565.2 278.75,-565.2 278.75,-585.95"/>
<text xml:space="preserve" text-anchor="middle" x="214.12" y="-572.45" font-family="Helvetica,sans-Serif" font-size="10.00">kest_active_button_init</text>
</a>
</g>
</g>
<!-- Node1&#45;&gt;Node27 -->
<g id="edge19_Node000001_Node000027" class="edge">
<title>Node1&#45;&gt;Node27</title>
<g id="a_edge19_Node000001_Node000027"><a xlink:title=" ">
<path fill="none" stroke="#63b8ff" d="M65.04,-231.5C90.56,-290.81 175.92,-489.14 204.05,-554.49"/>
<polygon fill="#63b8ff" stroke="#63b8ff" points="200.71,-555.57 207.87,-563.37 207.14,-552.8 200.71,-555.57"/>
</a>
</g>
</g>
<!-- Node17 -->
<g id="Node000017" class="node">
<title>Node17</title>
<g id="a_Node000017"><a xlink:href="kest__alloc_8c.html#a294af5728a94aa316fcf65304d388d48" target="_top" xlink:title=" ">
<polygon fill="white" stroke="#666666" points="244.62,-56.95 183.62,-56.95 183.62,-36.2 244.62,-36.2 244.62,-56.95"/>
<text xml:space="preserve" text-anchor="middle" x="214.12" y="-43.45" font-family="Helvetica,sans-Serif" font-size="10.00">kest_free</text>
</a>
</g>
</g>
<!-- Node1&#45;&gt;Node17 -->
<g id="edge38_Node000001_Node000017" class="edge">
<title>Node1&#45;&gt;Node17</title>
<g id="a_edge38_Node000001_Node000017"><a xlink:title=" ">
<path fill="none" stroke="#63b8ff" d="M63.59,-197.47C75.05,-166.45 103.47,-100.9 149.5,-65.57 156.16,-60.46 164.19,-56.72 172.26,-53.98"/>
<polygon fill="#63b8ff" stroke="#63b8ff" points="173.08,-57.39 181.72,-51.26 171.14,-50.66 173.08,-57.39"/>
</a>
</g>
</g>
<!-- Node3 -->
<g id="Node000003" class="node">
<title>Node3</title>
<g id="a_Node000003"><a xlink:href="kest__button_8c.html#aa59f296fa9f9744c9753f81484085a15" target="_top" xlink:title=" ">
<polygon fill="white" stroke="#666666" points="453.38,-435.95 330.12,-435.95 330.12,-415.2 453.38,-415.2 453.38,-435.95"/>
<text xml:space="preserve" text-anchor="middle" x="391.75" y="-422.45" font-family="Helvetica,sans-Serif" font-size="10.00">button_set_clicked_cb</text>
</a>
</g>
</g>
<!-- Node2&#45;&gt;Node3 -->
<g id="edge2_Node000002_Node000003" class="edge">
<title>Node2&#45;&gt;Node3</title>
<g id="a_edge2_Node000002_Node000003"><a xlink:title=" ">
<path fill="none" stroke="#63b8ff" d="M223.59,-231.66C238.96,-261.6 273.69,-324.57 314.75,-368.57 329.15,-384.01 348.14,-398.25 363.54,-408.64"/>
<polygon fill="#63b8ff" stroke="#63b8ff" points="361.51,-411.5 371.79,-414.06 365.35,-405.64 361.51,-411.5"/>
</a>
</g>
</g>
<!-- Node4 -->
<g id="Node000004" class="node">
<title>Node4</title>
<g id="a_Node000004"><a xlink:href="kest__button_8c.html#a20604a0eb74819a9747753ccfdb24e6c" target="_top" xlink:title=" ">
<polygon fill="white" stroke="#666666" points="619.38,-358.95 550.88,-358.95 550.88,-338.2 619.38,-338.2 619.38,-358.95"/>
<text xml:space="preserve" text-anchor="middle" x="585.12" y="-345.45" font-family="Helvetica,sans-Serif" font-size="10.00">init_button</text>
</a>
</g>
</g>
<!-- Node2&#45;&gt;Node4 -->
<g id="edge3_Node000002_Node000004" class="edge">
<title>Node2&#45;&gt;Node4</title>
<g id="a_edge3_Node000002_Node000004"><a xlink:title=" ">
<path fill="none" stroke="#63b8ff" d="M231.82,-231.68C250.38,-249.66 282.07,-277.41 314.75,-292.57 354.19,-310.88 473.78,-331.47 539.57,-341.84"/>
<polygon fill="#63b8ff" stroke="#63b8ff" points="538.89,-345.28 549.31,-343.36 539.97,-338.36 538.89,-345.28"/>
</a>
</g>
</g>
<!-- Node5 -->
<g id="Node000005" class="node">
<title>Node5</title>
<g id="a_Node000005"><a xlink:href="kest__button_8c.html#a79dee973d84b2c6abad7440f41145062" target="_top" xlink:title=" ">
<polygon fill="white" stroke="#666666" points="445.88,-283.32 337.62,-283.32 337.62,-249.82 445.88,-249.82 445.88,-283.32"/>
<text xml:space="preserve" text-anchor="start" x="345.62" y="-269.82" font-family="Helvetica,sans-Serif" font-size="10.00">kest_active_button</text>
<text xml:space="preserve" text-anchor="middle" x="391.75" y="-257.07" font-family="Helvetica,sans-Serif" font-size="10.00">_del_cb</text>
</a>
</g>
</g>
<!-- Node2&#45;&gt;Node5 -->
<g id="edge4_Node000002_Node000005" class="edge">
<title>Node2&#45;&gt;Node5</title>
<g id="a_edge4_Node000002_Node000005"><a xlink:title=" ">
<path fill="none" stroke="#63b8ff" d="M268.29,-230.32C286.52,-235.71 307.13,-241.81 326.16,-247.45"/>
<polygon fill="#63b8ff" stroke="#63b8ff" points="325.12,-250.79 335.7,-250.28 327.11,-244.08 325.12,-250.79"/>
</a>
</g>
</g>
<!-- Node18 -->
<g id="Node000018" class="node">
<title>Node18</title>
<g id="a_Node000018"><a xlink:href="kest__button_8c.html#abe862422fc2d6cb221112645f26e29bd" target="_top" xlink:title=" ">
<polygon fill="white" stroke="#666666" points="451.12,-231.32 332.38,-231.32 332.38,-197.82 451.12,-197.82 451.12,-231.32"/>
<text xml:space="preserve" text-anchor="start" x="340.38" y="-217.82" font-family="Helvetica,sans-Serif" font-size="10.00">kest_button_add_sub</text>
<text xml:space="preserve" text-anchor="middle" x="391.75" y="-205.07" font-family="Helvetica,sans-Serif" font-size="10.00">_button</text>
</a>
</g>
</g>
<!-- Node2&#45;&gt;Node18 -->
<g id="edge6_Node000002_Node000018" class="edge">
<title>Node2&#45;&gt;Node18</title>
<g id="a_edge6_Node000002_Node000018"><a xlink:title=" ">
<path fill="none" stroke="#63b8ff" d="M268.29,-214.57C284.78,-214.57 303.2,-214.57 320.64,-214.57"/>
<polygon fill="#63b8ff" stroke="#63b8ff" points="320.42,-218.07 330.42,-214.57 320.42,-211.07 320.42,-218.07"/>
</a>
</g>
</g>
<!-- Node19 -->
<g id="Node000019" class="node">
<title>Node19</title>
<g id="a_Node000019"><a xlink:href="kest__button_8c.html#a247699a53218b0986f4149b42ecd3ae4" target="_top" xlink:title=" ">
<polygon fill="white" stroke="#666666" points="441.38,-179.95 342.12,-179.95 342.12,-159.2 441.38,-159.2 441.38,-179.95"/>
<text xml:space="preserve" text-anchor="middle" x="391.75" y="-166.45" font-family="Helvetica,sans-Serif" font-size="10.00">kest_button_hide</text>
</a>
</g>
</g>
<!-- Node2&#45;&gt;Node19 -->
<g id="edge7_Node000002_Node000019" class="edge">
<title>Node2&#45;&gt;Node19</title>
<g id="a_edge7_Node000002_Node000019"><a xlink:title=" ">
<path fill="none" stroke="#63b8ff" d="M268.61,-200.51C283.54,-196.61 299.77,-192.4 314.75,-188.57 321.58,-186.83 328.76,-185.01 335.87,-183.22"/>
<polygon fill="#63b8ff" stroke="#63b8ff" points="336.61,-186.65 345.46,-180.82 334.91,-179.86 336.61,-186.65"/>
</a>
</g>
</g>
<!-- Node20 -->
<g id="Node000020" class="node">
<title>Node20</title>
<g id="a_Node000020"><a xlink:href="kest__button_8c.html#a8fdf6d6ae9b23100afda9fc1b7c9c985" target="_top" xlink:title=" ">
<polygon fill="white" stroke="#666666" points="465.75,-62.95 317.75,-62.95 317.75,-42.2 465.75,-42.2 465.75,-62.95"/>
<text xml:space="preserve" text-anchor="middle" x="391.75" y="-49.45" font-family="Helvetica,sans-Serif" font-size="10.00">kest_button_set_alignment</text>
</a>
</g>
</g>
<!-- Node2&#45;&gt;Node20 -->
<g id="edge8_Node000002_Node000020" class="edge">
<title>Node2&#45;&gt;Node20</title>
<g id="a_edge8_Node000002_Node000020"><a xlink:title=" ">
<path fill="none" stroke="#63b8ff" d="M226.09,-197.59C249.34,-161.78 302.49,-81.11 314.75,-72.57 317.1,-70.94 319.58,-69.43 322.14,-68.05"/>
<polygon fill="#63b8ff" stroke="#63b8ff" points="323.42,-71.32 331.03,-63.95 320.49,-64.96 323.42,-71.32"/>
</a>
</g>
</g>
<!-- Node21 -->
<g id="Node000021" class="node">
<title>Node21</title>
<g id="a_Node000021"><a xlink:href="kest__button_8c.html#ac24f7930db96a5006a81ec8255ad0e6c" target="_top" xlink:title=" ">
<polygon fill="white" stroke="#666666" points="453,-140.95 330.5,-140.95 330.5,-120.2 453,-120.2 453,-140.95"/>
<text xml:space="preserve" text-anchor="middle" x="391.75" y="-127.45" font-family="Helvetica,sans-Serif" font-size="10.00">kest_button_set_label</text>
</a>
</g>
</g>
<!-- Node2&#45;&gt;Node21 -->
<g id="edge9_Node000002_Node000021" class="edge">
<title>Node2&#45;&gt;Node21</title>
<g id="a_edge9_Node000002_Node000021"><a xlink:title=" ">
<path fill="none" stroke="#63b8ff" d="M237.31,-197.41C256.78,-183.09 286.33,-163.07 314.75,-150.57 319.57,-148.45 324.66,-146.52 329.84,-144.76"/>
<polygon fill="#63b8ff" stroke="#63b8ff" points="330.59,-148.2 339.07,-141.85 328.49,-141.52 330.59,-148.2"/>
</a>
</g>
</g>
<!-- Node23 -->
<g id="Node000023" class="node">
<title>Node23</title>
<g id="a_Node000023"><a xlink:href="kest__button_8c.html#acb9de2f6034f6759c09358b5444db480" target="_top" xlink:title=" ">
<polygon fill="white" stroke="#666666" points="450.75,-101.95 332.75,-101.95 332.75,-81.2 450.75,-81.2 450.75,-101.95"/>
<text xml:space="preserve" text-anchor="middle" x="391.75" y="-88.45" font-family="Helvetica,sans-Serif" font-size="10.00">kest_button_set_size</text>
</a>
</g>
</g>
<!-- Node2&#45;&gt;Node23 -->
<g id="edge11_Node000002_Node000023" class="edge">
<title>Node2&#45;&gt;Node23</title>
<g id="a_edge11_Node000002_Node000023"><a xlink:title=" ">
<path fill="none" stroke="#63b8ff" d="M226.88,-197.56C243.67,-174.54 276.75,-133.82 314.75,-111.57 317.93,-109.71 321.28,-108.02 324.74,-106.49"/>
<polygon fill="#63b8ff" stroke="#63b8ff" points="325.9,-109.79 333.93,-102.88 323.35,-103.27 325.9,-109.79"/>
</a>
</g>
</g>
<!-- Node24 -->
<g id="Node000024" class="node">
<title>Node24</title>
<g id="a_Node000024"><a xlink:href="kest__button_8c.html#afd8846ca469218a65279da29ad72e29b" target="_top" xlink:title=" ">
<polygon fill="white" stroke="#666666" points="428.25,-359.95 355.25,-359.95 355.25,-339.2 428.25,-339.2 428.25,-359.95"/>
<text xml:space="preserve" text-anchor="middle" x="391.75" y="-346.45" font-family="Helvetica,sans-Serif" font-size="10.00">new_button</text>
</a>
</g>
</g>
<!-- Node2&#45;&gt;Node24 -->
<g id="edge12_Node000002_Node000024" class="edge">
<title>Node2&#45;&gt;Node24</title>
<g id="a_edge12_Node000002_Node000024"><a xlink:title=" ">
<path fill="none" stroke="#63b8ff" d="M225.89,-231.44C242.24,-255.7 275.58,-300.32 314.75,-325.57 323.63,-331.3 333.98,-335.75 344.13,-339.16"/>
<polygon fill="#63b8ff" stroke="#63b8ff" points="342.95,-342.46 353.53,-342.04 344.99,-335.77 342.95,-342.46"/>
</a>
</g>
</g>
<!-- Node6 -->
<g id="Node000006" class="node">
<title>Node6</title>
<g id="a_Node000006"><a xlink:href="kest__button_8c.html#a8f08189afc112ca297cd7718f2978258" target="_top" xlink:title=" ">
<polygon fill="#fff0f0" stroke="red" points="644.88,-283.32 525.38,-283.32 525.38,-249.82 644.88,-249.82 644.88,-283.32"/>
<text xml:space="preserve" text-anchor="start" x="533.38" y="-269.82" font-family="Helvetica,sans-Serif" font-size="10.00">kest_active_button</text>
<text xml:space="preserve" text-anchor="middle" x="585.12" y="-257.07" font-family="Helvetica,sans-Serif" font-size="10.00">_trigger_delete_anim</text>
</a>
</g>
</g>
<!-- Node5&#45;&gt;Node6 -->
<g id="edge5_Node000005_Node000006" class="edge">
<title>Node5&#45;&gt;Node6</title>
<g id="a_edge5_Node000005_Node000006"><a xlink:title=" ">
<path fill="none" stroke="#63b8ff" d="M446.31,-266.57C467.22,-266.57 491.47,-266.57 513.75,-266.57"/>
<polygon fill="#63b8ff" stroke="#63b8ff" points="513.69,-270.07 523.69,-266.57 513.69,-263.07 513.69,-270.07"/>
</a>
</g>
</g>
<!-- Node22 -->
<g id="Node000022" class="node">
<title>Node22</title>
<g id="a_Node000022"><a xlink:href="kest__button_8c.html#a56b5c7012f627d4d3f454029e26f1bef" target="_top" xlink:title=" ">
<polygon fill="white" stroke="#666666" points="639.62,-147.32 530.62,-147.32 530.62,-113.82 639.62,-113.82 639.62,-147.32"/>
<text xml:space="preserve" text-anchor="start" x="538.62" y="-133.82" font-family="Helvetica,sans-Serif" font-size="10.00">kest_button_create</text>
<text xml:space="preserve" text-anchor="middle" x="585.12" y="-121.07" font-family="Helvetica,sans-Serif" font-size="10.00">_label_ui</text>
</a>
</g>
</g>
<!-- Node21&#45;&gt;Node22 -->
<g id="edge10_Node000021_Node000022" class="edge">
<title>Node21&#45;&gt;Node22</title>
<g id="a_edge10_Node000021_Node000022"><a xlink:title=" ">
<path fill="none" stroke="#63b8ff" d="M453.3,-130.57C474.28,-130.57 497.87,-130.57 519.19,-130.57"/>
<polygon fill="#63b8ff" stroke="#63b8ff" points="518.92,-134.07 528.92,-130.57 518.92,-127.07 518.92,-134.07"/>
</a>
</g>
</g>
<!-- Node24&#45;&gt;Node4 -->
<g id="edge13_Node000024_Node000004" class="edge">
<title>Node24&#45;&gt;Node4</title>
<g id="a_edge13_Node000024_Node000004"><a xlink:title=" ">
<path fill="none" stroke="#63b8ff" d="M428.75,-349.39C460.03,-349.22 505.49,-348.98 539.16,-348.81"/>
<polygon fill="#63b8ff" stroke="#63b8ff" points="539.04,-352.31 549.02,-348.76 539,-345.31 539.04,-352.31"/>
</a>
</g>
</g>
<!-- Node24&#45;&gt;Node25 -->
<g id="edge14_Node000024_Node000025" class="edge">
<title>Node24&#45;&gt;Node25</title>
<g id="a_edge14_Node000024_Node000025"><a xlink:title=" ">
<path fill="none" stroke="#63b8ff" d="M428.75,-356.72C460.75,-363.08 507.59,-372.38 541.47,-379.1"/>
<polygon fill="#63b8ff" stroke="#63b8ff" points="540.44,-382.47 550.93,-380.98 541.81,-375.6 540.44,-382.47"/>
</a>
</g>
</g>
<!-- Node26&#45;&gt;Node20 -->
<g id="edge17_Node000026_Node000020" class="edge">
<title>Node26&#45;&gt;Node20</title>
<g id="a_edge17_Node000026_Node000020"><a xlink:title=" ">
<path fill="none" stroke="#63b8ff" d="M268.29,-79.77C288.06,-75.38 310.61,-70.37 330.93,-65.86"/>
<polygon fill="#63b8ff" stroke="#63b8ff" points="331.47,-69.32 340.48,-63.74 329.95,-62.49 331.47,-69.32"/>
</a>
</g>
</g>
<!-- Node26&#45;&gt;Node23 -->
<g id="edge18_Node000026_Node000023" class="edge">
<title>Node26&#45;&gt;Node23</title>
<g id="a_edge18_Node000026_Node000023"><a xlink:title=" ">
<path fill="none" stroke="#63b8ff" d="M268.29,-91.57C284.94,-91.57 303.57,-91.57 321.17,-91.57"/>
<polygon fill="#63b8ff" stroke="#63b8ff" points="321.04,-95.07 331.04,-91.57 321.04,-88.07 321.04,-95.07"/>
</a>
</g>
</g>
<!-- Node12 -->
<g id="Node000012" class="node">
<title>Node12</title>
<g id="a_Node000012"><a xlink:href="kest__button_8c.html#ab7fe55b3f96297fce8392af5ccfe1ae4" target="_top" xlink:title=" ">
<polygon fill="white" stroke="#666666" points="836,-525.32 701.5,-525.32 701.5,-491.82 836,-491.82 836,-525.32"/>
<text xml:space="preserve" text-anchor="start" x="709.5" y="-511.82" font-family="Helvetica,sans-Serif" font-size="10.00">kest_active_button</text>
<text xml:space="preserve" text-anchor="middle" x="768.75" y="-499.07" font-family="Helvetica,sans-Serif" font-size="10.00">_array_index_y_position</text>
</a>
</g>
</g>
<!-- Node26&#45;&gt;Node12 -->
<g id="edge16_Node000026_Node000012" class="edge">
<title>Node26&#45;&gt;Node12</title>
<g id="a_edge16_Node000026_Node000012"><a xlink:title=" ">
<path fill="none" stroke="#63b8ff" d="M262.24,-74.45C267.95,-71.76 273.59,-68.79 278.75,-65.57 296.92,-54.25 294.74,-41.18 314.75,-33.57 463.42,22.95 558.7,13.29 665.5,-104.57 716.68,-161.05 752.87,-398.2 764.08,-480.39"/>
<polygon fill="#63b8ff" stroke="#63b8ff" points="760.61,-480.83 765.41,-490.27 767.55,-479.9 760.61,-480.83"/>
</a>
</g>
</g>
<!-- Node27&#45;&gt;Node3 -->
<g id="edge20_Node000027_Node000003" class="edge">
<title>Node27&#45;&gt;Node3</title>
<g id="a_edge20_Node000027_Node000003"><a xlink:title=" ">
<path fill="none" stroke="#63b8ff" d="M220.56,-565.03C233.51,-540.92 268.61,-481.4 314.75,-449.57 319.8,-446.09 325.39,-443.09 331.17,-440.51"/>
<polygon fill="#63b8ff" stroke="#63b8ff" points="332.31,-443.83 340.31,-436.88 329.72,-437.32 332.31,-443.83"/>
</a>
</g>
</g>
<!-- Node27&#45;&gt;Node4 -->
<g id="edge24_Node000027_Node000004" class="edge">
<title>Node27&#45;&gt;Node4</title>
<g id="a_edge24_Node000027_Node000004"><a xlink:title=" ">
<path fill="none" stroke="#63b8ff" d="M223.45,-564.79C239.11,-545.27 275.01,-504.1 314.75,-482.57 376.74,-448.99 414.16,-489.18 468.75,-444.57 497.69,-420.92 475.87,-392.3 504.75,-368.57 514.59,-360.49 527.26,-355.62 539.58,-352.7"/>
<polygon fill="#63b8ff" stroke="#63b8ff" points="540.07,-356.17 549.21,-350.82 538.73,-349.3 540.07,-356.17"/>
</a>
</g>
</g>
<!-- Node28 -->
<g id="Node000028" class="node">
<title>Node28</title>
<g id="a_Node000028"><a xlink:href="kest__button_8c.html#a83cf55aa097bd9144aa25c7296221deb" target="_top" xlink:title=" ">
<polygon fill="white" stroke="#666666" points="468.75,-563.95 314.75,-563.95 314.75,-543.2 468.75,-543.2 468.75,-563.95"/>
<text xml:space="preserve" text-anchor="middle" x="391.75" y="-550.45" font-family="Helvetica,sans-Serif" font-size="10.00">button_set_long_pressed_cb</text>
</a>
</g>
</g>
<!-- Node27&#45;&gt;Node28 -->
<g id="edge21_Node000027_Node000028" class="edge">
<title>Node27&#45;&gt;Node28</title>
<g id="a_edge21_Node000027_Node000028"><a xlink:title=" ">
<path fill="none" stroke="#63b8ff" d="M279.03,-567.57C286.83,-566.59 294.9,-565.58 302.97,-564.57"/>
<polygon fill="#63b8ff" stroke="#63b8ff" points="303.36,-568.05 312.85,-563.33 302.49,-561.1 303.36,-568.05"/>
</a>
</g>
</g>
<!-- Node29 -->
<g id="Node000029" class="node">
<title>Node29</title>
<g id="a_Node000029"><a xlink:href="kest__button_8c.html#af00d79cf42f9b296fbb6027daacc8fb9" target="_top" xlink:title=" ">
<polygon fill="white" stroke="#666666" points="457.12,-743.95 326.38,-743.95 326.38,-723.2 457.12,-723.2 457.12,-743.95"/>
<text xml:space="preserve" text-anchor="middle" x="391.75" y="-730.45" font-family="Helvetica,sans-Serif" font-size="10.00">button_set_pressing_cb</text>
</a>
</g>
</g>
<!-- Node27&#45;&gt;Node29 -->
<g id="edge22_Node000027_Node000029" class="edge">
<title>Node27&#45;&gt;Node29</title>
<g id="a_edge22_Node000027_Node000029"><a xlink:title=" ">
<path fill="none" stroke="#63b8ff" d="M219.59,-586.23C231.14,-612.48 264.66,-680.53 314.75,-714.57 316.56,-715.81 318.45,-716.96 320.39,-718.04"/>
<polygon fill="#63b8ff" stroke="#63b8ff" points="318.6,-721.06 329.14,-722.18 321.6,-714.74 318.6,-721.06"/>
</a>
</g>
</g>
<!-- Node30 -->
<g id="Node000030" class="node">
<title>Node30</title>
<g id="a_Node000030"><a xlink:href="kest__button_8c.html#a88c9b098c88d8bd3adc510cc34130a67" target="_top" xlink:title=" ">
<polygon fill="white" stroke="#666666" points="457.5,-653.95 326,-653.95 326,-633.2 457.5,-633.2 457.5,-653.95"/>
<text xml:space="preserve" text-anchor="middle" x="391.75" y="-640.45" font-family="Helvetica,sans-Serif" font-size="10.00">button_set_released_cb</text>
</a>
</g>
</g>
<!-- Node27&#45;&gt;Node30 -->
<g id="edge23_Node000027_Node000030" class="edge">
<title>Node27&#45;&gt;Node30</title>
<g id="a_edge23_Node000027_Node000030"><a xlink:title=" ">
<path fill="none" stroke="#63b8ff" d="M234.06,-586.4C253.72,-597.27 285.61,-613.9 314.75,-624.57 319.68,-626.38 324.85,-628.07 330.08,-629.64"/>
<polygon fill="#63b8ff" stroke="#63b8ff" points="328.79,-632.92 339.37,-632.29 330.71,-626.19 328.79,-632.92"/>
</a>
</g>
</g>
<!-- Node31 -->
<g id="Node000031" class="node">
<title>Node31</title>
<g id="a_Node000031"><a xlink:href="kest__button_8c.html#a29023886dc241d5e52af656d2e8f7077" target="_top" xlink:title=" ">
<polygon fill="white" stroke="#666666" points="445.88,-615.32 337.62,-615.32 337.62,-581.82 445.88,-581.82 445.88,-615.32"/>
<text xml:space="preserve" text-anchor="start" x="345.62" y="-601.82" font-family="Helvetica,sans-Serif" font-size="10.00">kest_active_button</text>
<text xml:space="preserve" text-anchor="middle" x="391.75" y="-589.07" font-family="Helvetica,sans-Serif" font-size="10.00">_clicked_cb</text>
</a>
</g>
</g>
<!-- Node27&#45;&gt;Node31 -->
<g id="edge25_Node000027_Node000031" class="edge">
<title>Node27&#45;&gt;Node31</title>
<g id="a_edge25_Node000027_Node000031"><a xlink:title=" ">
<path fill="none" stroke="#63b8ff" d="M279.03,-583.94C294.42,-585.96 310.87,-588.11 326.28,-590.13"/>
<polygon fill="#63b8ff" stroke="#63b8ff" points="325.42,-593.55 335.79,-591.38 326.33,-586.61 325.42,-593.55"/>
</a>
</g>
</g>
<!-- Node32 -->
<g id="Node000032" class="node">
<title>Node32</title>
<g id="a_Node000032"><a xlink:href="kest__button_8c.html#af4a8a2f9042aae51caf39056d3ae1972" target="_top" xlink:title=" ">
<polygon fill="white" stroke="#666666" points="445.88,-795.32 337.62,-795.32 337.62,-761.82 445.88,-761.82 445.88,-795.32"/>
<text xml:space="preserve" text-anchor="start" x="345.62" y="-781.82" font-family="Helvetica,sans-Serif" font-size="10.00">kest_active_button</text>
<text xml:space="preserve" text-anchor="middle" x="391.75" y="-769.07" font-family="Helvetica,sans-Serif" font-size="10.00">_long_pressed_cb</text>
</a>
</g>
</g>
<!-- Node27&#45;&gt;Node32 -->
<g id="edge26_Node000027_Node000032" class="edge">
<title>Node27&#45;&gt;Node32</title>
<g id="a_edge26_Node000027_Node000032"><a xlink:title=" ">
<path fill="none" stroke="#63b8ff" d="M218.1,-586.08C227.25,-616.45 257.82,-705.22 314.75,-752.57 318.59,-755.77 322.85,-758.58 327.33,-761.05"/>
<polygon fill="#63b8ff" stroke="#63b8ff" points="325.53,-764.07 336.05,-765.28 328.58,-757.77 325.53,-764.07"/>
</a>
</g>
</g>
<!-- Node38 -->
<g id="Node000038" class="node">
<title>Node38</title>
<g id="a_Node000038"><a xlink:href="kest__button_8c.html#a5e8684adc8c5fbe7944b7cc188cd7b2c" target="_top" xlink:title=" ">
<polygon fill="white" stroke="#666666" points="445.88,-525.32 337.62,-525.32 337.62,-491.82 445.88,-491.82 445.88,-525.32"/>
<text xml:space="preserve" text-anchor="start" x="345.62" y="-511.82" font-family="Helvetica,sans-Serif" font-size="10.00">kest_active_button</text>
<text xml:space="preserve" text-anchor="middle" x="391.75" y="-499.07" font-family="Helvetica,sans-Serif" font-size="10.00">_pressing_cb</text>
</a>
</g>
</g>
<!-- Node27&#45;&gt;Node38 -->
<g id="edge29_Node000027_Node000038" class="edge">
<title>Node27&#45;&gt;Node38</title>
<g id="a_edge29_Node000027_Node000038"><a xlink:title=" ">
<path fill="none" stroke="#63b8ff" d="M239.93,-564.87C259.99,-556.34 289.02,-544.26 314.75,-534.57 319.15,-532.92 323.72,-531.24 328.32,-529.59"/>
<polygon fill="#63b8ff" stroke="#63b8ff" points="329.4,-532.92 337.66,-526.28 327.07,-526.32 329.4,-532.92"/>
</a>
</g>
</g>
<!-- Node39 -->
<g id="Node000039" class="node">
<title>Node39</title>
<g id="a_Node000039"><a xlink:href="kest__button_8c.html#abd7f68ebcde411086bd7fa11eb96564b" target="_top" xlink:title=" ">
<polygon fill="white" stroke="#666666" points="445.88,-705.32 337.62,-705.32 337.62,-671.82 445.88,-671.82 445.88,-705.32"/>
<text xml:space="preserve" text-anchor="start" x="345.62" y="-691.82" font-family="Helvetica,sans-Serif" font-size="10.00">kest_active_button</text>
<text xml:space="preserve" text-anchor="middle" x="391.75" y="-679.07" font-family="Helvetica,sans-Serif" font-size="10.00">_release_cb</text>
</a>
</g>
</g>
<!-- Node27&#45;&gt;Node39 -->
<g id="edge32_Node000027_Node000039" class="edge">
<title>Node27&#45;&gt;Node39</title>
<g id="a_edge32_Node000027_Node000039"><a xlink:title=" ">
<path fill="none" stroke="#63b8ff" d="M224.83,-586.45C241.55,-604.58 277.57,-641.1 314.75,-662.57 318.58,-664.79 322.63,-666.85 326.78,-668.77"/>
<polygon fill="#63b8ff" stroke="#63b8ff" points="325.29,-671.94 335.86,-672.64 328.04,-665.5 325.29,-671.94"/>
</a>
</g>
</g>
<!-- Node33 -->
<g id="Node000033" class="node">
<title>Node33</title>
<g id="a_Node000033"><a xlink:href="kest__button_8c.html#a5ddd3bd6e6ebe499be3e6c225a363821" target="_top" xlink:title=" ">
<polygon fill="#fff0f0" stroke="red" points="640.38,-811.7 529.88,-811.7 529.88,-765.45 640.38,-765.45 640.38,-811.7"/>
<text xml:space="preserve" text-anchor="start" x="537.88" y="-798.2" font-family="Helvetica,sans-Serif" font-size="10.00">kest_active_button</text>
<text xml:space="preserve" text-anchor="start" x="537.88" y="-785.45" font-family="Helvetica,sans-Serif" font-size="10.00">_trigger_del_button</text>
<text xml:space="preserve" text-anchor="middle" x="585.12" y="-772.7" font-family="Helvetica,sans-Serif" font-size="10.00">_fade_in</text>
</a>
</g>
</g>
<!-- Node32&#45;&gt;Node33 -->
<g id="edge27_Node000032_Node000033" class="edge">
<title>Node32&#45;&gt;Node33</title>
<g id="a_edge27_Node000032_Node000033"><a xlink:title=" ">
<path fill="none" stroke="#63b8ff" d="M446.31,-781.37C468.64,-782.54 494.8,-783.91 518.29,-785.13"/>
<polygon fill="#63b8ff" stroke="#63b8ff" points="517.9,-788.62 528.07,-785.64 518.26,-781.63 517.9,-788.62"/>
</a>
</g>
</g>
<!-- Node36 -->
<g id="Node000036" class="node">
<title>Node36</title>
<g id="a_Node000036"><a xlink:href="kest__button_8c.html#a88a9ce412a597e9275337196a681e6c0" target="_top" xlink:title=" ">
<polygon fill="#fff0f0" stroke="red" points="642.25,-747.32 528,-747.32 528,-713.82 642.25,-713.82 642.25,-747.32"/>
<text xml:space="preserve" text-anchor="start" x="536" y="-733.82" font-family="Helvetica,sans-Serif" font-size="10.00">kest_active_button</text>
<text xml:space="preserve" text-anchor="middle" x="585.12" y="-721.07" font-family="Helvetica,sans-Serif" font-size="10.00">_trigger_scale_anim</text>
</a>
</g>
</g>
<!-- Node32&#45;&gt;Node36 -->
<g id="edge28_Node000032_Node000036" class="edge">
<title>Node32&#45;&gt;Node36</title>
<g id="a_edge28_Node000032_Node000036"><a xlink:title=" ">
<path fill="none" stroke="#63b8ff" d="M446.31,-765.14C468.07,-759.68 493.47,-753.31 516.48,-747.54"/>
<polygon fill="#63b8ff" stroke="#63b8ff" points="517.25,-750.96 526.1,-745.13 515.55,-744.17 517.25,-750.96"/>
</a>
</g>
</g>
<!-- Node11 -->
<g id="Node000011" class="node">
<title>Node11</title>
<g id="a_Node000011"><a xlink:href="kest__button_8c.html#a69c55e9f6142d27a7c4c7cd257041efa" target="_top" xlink:title=" ">
<polygon fill="#fff0f0" stroke="red" points="639.25,-525.32 531,-525.32 531,-491.82 639.25,-491.82 639.25,-525.32"/>
<text xml:space="preserve" text-anchor="start" x="539" y="-511.82" font-family="Helvetica,sans-Serif" font-size="10.00">kest_active_button</text>
<text xml:space="preserve" text-anchor="middle" x="585.12" y="-499.07" font-family="Helvetica,sans-Serif" font-size="10.00">_set_index</text>
</a>
</g>
</g>
<!-- Node38&#45;&gt;Node11 -->
<g id="edge30_Node000038_Node000011" class="edge">
<title>Node38&#45;&gt;Node11</title>
<g id="a_edge30_Node000038_Node000011"><a xlink:title=" ">
<path fill="none" stroke="#63b8ff" d="M446.31,-508.57C468.93,-508.57 495.47,-508.57 519.19,-508.57"/>
<polygon fill="#63b8ff" stroke="#63b8ff" points="519.06,-512.07 529.06,-508.57 519.06,-505.07 519.06,-512.07"/>
</a>
</g>
</g>
<!-- Node11&#45;&gt;Node12 -->
<g id="edge31_Node000011_Node000012" class="edge">
<title>Node11&#45;&gt;Node12</title>
<g id="a_edge31_Node000011_Node000012"><a xlink:title=" ">
<path fill="none" stroke="#63b8ff" d="M639.64,-508.57C655.43,-508.57 673.05,-508.57 690.04,-508.57"/>
<polygon fill="#63b8ff" stroke="#63b8ff" points="689.57,-512.07 699.57,-508.57 689.57,-505.07 689.57,-512.07"/>
</a>
</g>
</g>
<!-- Node39&#45;&gt;Node36 -->
<g id="edge36_Node000039_Node000036" class="edge">
<title>Node39&#45;&gt;Node36</title>
<g id="a_edge36_Node000039_Node000036"><a xlink:title=" ">
<path fill="none" stroke="#63b8ff" d="M446.31,-700.33C468.07,-705.1 493.47,-710.68 516.48,-715.73"/>
<polygon fill="#63b8ff" stroke="#63b8ff" points="515.57,-719.11 526.09,-717.84 517.07,-712.27 515.57,-719.11"/>
</a>
</g>
</g>
<!-- Node40 -->
<g id="Node000040" class="node">
<title>Node40</title>
<g id="a_Node000040"><a xlink:href="kest__button_8c.html#a3477b16331ef3ee2eb1369f85977a523" target="_top" xlink:title=" ">
<polygon fill="#fff0f0" stroke="red" points="665.5,-695.32 504.75,-695.32 504.75,-661.82 665.5,-661.82 665.5,-695.32"/>
<text xml:space="preserve" text-anchor="start" x="512.75" y="-681.82" font-family="Helvetica,sans-Serif" font-size="10.00">kest_active_button</text>
<text xml:space="preserve" text-anchor="middle" x="585.12" y="-669.07" font-family="Helvetica,sans-Serif" font-size="10.00">_del_button_remain_timer_cb</text>
</a>
</g>
</g>
<!-- Node39&#45;&gt;Node40 -->
<g id="edge33_Node000039_Node000040" class="edge">
<title>Node39&#45;&gt;Node40</title>
<g id="a_edge33_Node000039_Node000040"><a xlink:title=" ">
<path fill="none" stroke="#63b8ff" d="M446.31,-685.77C460.96,-685.01 477.25,-684.16 493.35,-683.32"/>
<polygon fill="#63b8ff" stroke="#63b8ff" points="493.13,-686.83 502.93,-682.82 492.77,-679.84 493.13,-686.83"/>
</a>
</g>
</g>
<!-- Node43 -->
<g id="Node000043" class="node">
<title>Node43</title>
<g id="a_Node000043"><a xlink:href="kest__button_8c.html#a3fb7060eaac68b92b53a175e004f0281" target="_top" xlink:title=" ">
<polygon fill="#fff0f0" stroke="red" points="639.25,-615.32 531,-615.32 531,-581.82 639.25,-581.82 639.25,-615.32"/>
<text xml:space="preserve" text-anchor="start" x="539" y="-601.82" font-family="Helvetica,sans-Serif" font-size="10.00">kest_active_button</text>
<text xml:space="preserve" text-anchor="middle" x="585.12" y="-589.07" font-family="Helvetica,sans-Serif" font-size="10.00">_force_index</text>
</a>
</g>
</g>
<!-- Node39&#45;&gt;Node43 -->
<g id="edge34_Node000039_Node000043" class="edge">
<title>Node39&#45;&gt;Node43</title>
<g id="a_edge34_Node000039_Node000043"><a xlink:title=" ">
<path fill="none" stroke="#63b8ff" d="M446.36,-671.57C453.96,-668.77 461.61,-665.74 468.75,-662.57 495.62,-650.64 524.54,-634.58 546.71,-621.54"/>
<polygon fill="#63b8ff" stroke="#63b8ff" points="548.28,-624.68 555.09,-616.56 544.71,-618.66 548.28,-624.68"/>
</a>
</g>
</g>
<!-- Node43&#45;&gt;Node12 -->
<g id="edge35_Node000043_Node000012" class="edge">
<title>Node43&#45;&gt;Node12</title>
<g id="a_edge35_Node000043_Node000012"><a xlink:title=" ">
<path fill="none" stroke="#63b8ff" d="M620.71,-581.43C649.66,-567.09 691.16,-546.52 722.7,-530.9"/>
<polygon fill="#63b8ff" stroke="#63b8ff" points="724.22,-534.05 731.62,-526.48 721.11,-527.78 724.22,-534.05"/>
</a>
</g>
</g>
</g>
</svg>

<g id="navigator" transform="translate(0 0)" fill="#404254">
  <rect fill="#f2f5e9" fill-opacity="0.5" stroke="#606060" stroke-width=".5" x="0" y="0" width="60" height="60"/>
  <use id="zoomplus" xlink:href="#zoomPlus" x="17" y="9" onmousedown="handleZoom(evt,'in')"/>
  <use id="zoomminus" xlink:href="#zoomMin" x="42" y="9" onmousedown="handleZoom(evt,'out')"/>
  <use id="reset" xlink:href="#resetDef" x="30" y="36" onmousedown="handleReset()"/>
   <use id="arrowup" xlink:href="#arrowUp" x="0" y="0" onmousedown="handlePan(0,-1)"/>
  <use id="arrowright" xlink:href="#arrowRight" x="0" y="0" onmousedown="handlePan(1,0)"/>
  <use id="arrowdown" xlink:href="#arrowDown" x="0" y="0" onmousedown="handlePan(0,1)"/>
  <use id="arrowleft" xlink:href="#arrowLeft" x="0" y="0" onmousedown="handlePan(-1,0)"/>
</g>
<svg viewBox="0 0 15 15" width="100%" height="30px" preserveAspectRatio="xMaxYMin meet">
 <g id="arrow_out" transform="scale(0.3 0.3)">
  <a xlink:href="kest__button_8h_a760fe364ce4f5be2c972ff685e2f9825_cgraph_org.svg" target="_base">
   <rect id="button" ry="5" rx="5" y="6" x="6" height="38" width="38"
        fill="#f2f5e9" fill-opacity="0.5" stroke="#606060" stroke-width="1.0"/>
   <path id="arrow"
     d="M 11.500037,31.436501 C 11.940474,20.09759 22.043105,11.32322 32.158766,21.979434 L 37.068811,17.246167 C 37.068811,17.246167 37.088388,32 37.088388,32 L 22.160133,31.978069 C 22.160133,31.978069 26.997745,27.140456 26.997745,27.140456 C 18.528582,18.264221 13.291696,25.230495 11.500037,31.436501 z"
     style="fill:#404040;"/>
  </a>
 </g>
</svg>

<style type='text/css'>
<![CDATA[
[data-mouse-over-selected='false'] { opacity: 0.7; }
[data-mouse-over-selected='true']  { opacity: 1.0; }
]]>
</style>
<script type="application/ecmascript"><![CDATA[
document.addEventListener('DOMContentLoaded', (event) => {
  highlightEdges();
  highlightAdjacentNodes();
});
]]></script>
</svg>
