<?xml version="1.0" encoding="UTF-8" standalone="no"?>
<!DOCTYPE svg PUBLIC "-//W3C//DTD SVG 1.1//EN"
 "http://www.w3.org/Graphics/SVG/1.1/DTD/svg11.dtd">
<!-- Generated by graphviz version 13.1.2 (20250808.2320)
 -->
<!-- Title: kest_fpga_batch_append_eff_desc Pages: 1 -->
<!--zoomable 266 -->

<svg id="main" version="1.1" xmlns="http://www.w3.org/2000/svg" xmlns:xlink="http://www.w3.org/1999/xlink" xml:space="preserve" onload="init(evt)">

<style type="text/css"><![CDATA[
.node, .edge {opacity: 0.7;}
.node.selected, .edge.selected {opacity: 1;}
.edge:hover path { stroke: red; }
.edge:hover polygon { stroke: red; fill: red; }
]]></style>

<defs>
  <circle id="rim" cx="0" cy="0" r="7"/>
  <circle id="rim2" cx="0" cy="0" r="3.5"/>
  <g id="zoomPlus">
    <use xlink:href="#rim" fill="#404040"><set attributeName="fill" to="#808080" begin="zoomplus.mouseover" end="zoomplus.mouseout"/></use>
    <path d="M-4,0h8M0,-4v8" fill="none" stroke="white" stroke-width="1.5" pointer-events="none"/>
  </g>
  <g id="zoomMin">
    <use xlink:href="#rim" fill="#404040"><set attributeName="fill" to="#808080" begin="zoomminus.mouseover" end="zoomminus.mouseout"/></use>
    <path d="M-4,0h8" fill="none" stroke="white" stroke-width="1.5" pointer-events="none"/>
  </g>
  <g id="arrowUp" transform="translate(30 24)">
    <use xlink:href="#rim"/>
    <path pointer-events="none" fill="none" stroke="white" stroke-width="1.5" d="M0,-3.0v7 M-2.5,-0.5L0,-3.0L2.5,-0.5"/>
  </g>
  <g id="arrowRight" transform="rotate(90) translate(36 -43)">
    <use xlink:href="#rim"/>
    <path pointer-events="none" fill="none" stroke="white" stroke-width="1.5" d="M0,-3.0v7 M-2.5,-0.5L0,-3.0L2.5,-0.5"/>
  </g>
  <g id="arrowDown" transform="rotate(180) translate(-30 -48)">
    <use xlink:href="#rim"/>
    <path pointer-events="none" fill="none" stroke="white" stroke-width="1.5" d="M0,-3.0v7 M-2.5,-0.5L0,-3.0L2.5,-0.5"/>
  </g>
  <g id="arrowLeft" transform="rotate(270) translate(-36 17)">
    <use xlink:href="#rim"/>
    <path pointer-events="none" fill="none" stroke="white" stroke-width="1.5" d="M0,-3.0v7 M-2.5,-0.5L0,-3.0L2.5,-0.5"/>
  </g>
  <g id="resetDef">
    <use xlink:href="#rim2" fill="#404040"><set attributeName="fill" to="#808080" begin="reset.mouseover" end="reset.mouseout"/></use>
  </g>
</defs>
<script type="application/ecmascript">
var viewWidth = 1026;
var viewHeight = 266;
var sectionId = 'dynsection-19';
</script>
<script type="application/ecmascript" xlink:href="svg.min.js"/>
<svg id="graph" class="graph">
<g id="viewport">
<title>kest_fpga_batch_append_eff_desc</title>
<!-- Node1 -->
<g id="Node000001" class="node">
<title>Node1</title>
<g id="a_Node000001"><a xlink:title=" ">
<polygon fill="#999999" stroke="#666666" points="136.75,-123.5 0,-123.5 0,-90 136.75,-90 136.75,-123.5"/>
<text xml:space="preserve" text-anchor="start" x="8" y="-110" font-family="Helvetica,sans-Serif" font-size="10.00">kest_fpga_batch_append</text>
<text xml:space="preserve" text-anchor="middle" x="68.38" y="-97.25" font-family="Helvetica,sans-Serif" font-size="10.00">_eff_desc</text>
</a>
</g>
</g>
<!-- Node2 -->
<g id="Node000002" class="node">
<title>Node2</title>
<g id="a_Node000002"><a xlink:href="kest__fpga__encoding_8c.html#a1d6980972e5f88bc39838473e70f8281" target="_top" xlink:title=" ">
<polygon fill="white" stroke="#666666" points="309.5,-97.5 172.75,-97.5 172.75,-64 309.5,-64 309.5,-97.5"/>
<text xml:space="preserve" text-anchor="start" x="180.75" y="-84" font-family="Helvetica,sans-Serif" font-size="10.00">kest_fpga_batch_append</text>
<text xml:space="preserve" text-anchor="middle" x="241.12" y="-71.25" font-family="Helvetica,sans-Serif" font-size="10.00">_blocks</text>
</a>
</g>
</g>
<!-- Node1&#45;&gt;Node2 -->
<g id="edge1_Node000001_Node000002" class="edge">
<title>Node1&#45;&gt;Node2</title>
<g id="a_edge1_Node000001_Node000002"><a xlink:title=" ">
<path fill="none" stroke="#63b8ff" d="M136.86,-96.47C144.78,-95.27 152.91,-94.03 160.98,-92.8"/>
<polygon fill="#63b8ff" stroke="#63b8ff" points="161.44,-96.27 170.8,-91.31 160.38,-89.35 161.44,-96.27"/>
</a>
</g>
</g>
<!-- Node20 -->
<g id="Node000020" class="node">
<title>Node20</title>
<g id="a_Node000020"><a xlink:href="kest__fpga__encoding_8c.html#adffee6f6156a2d821bd467b1c0c578c2" target="_top" xlink:title=" ">
<polygon fill="white" stroke="#666666" points="309.5,-149.5 172.75,-149.5 172.75,-116 309.5,-116 309.5,-149.5"/>
<text xml:space="preserve" text-anchor="start" x="180.75" y="-136" font-family="Helvetica,sans-Serif" font-size="10.00">kest_fpga_batch_append</text>
<text xml:space="preserve" text-anchor="middle" x="241.12" y="-123.25" font-family="Helvetica,sans-Serif" font-size="10.00">_resources</text>
</a>
</g>
</g>
<!-- Node1&#45;&gt;Node20 -->
<g id="edge10_Node000001_Node000020" class="edge">
<title>Node1&#45;&gt;Node20</title>
<g id="a_edge10_Node000001_Node000020"><a xlink:title=" ">
<path fill="none" stroke="#63b8ff" d="M136.86,-117.03C144.78,-118.23 152.91,-119.47 160.98,-120.7"/>
<polygon fill="#63b8ff" stroke="#63b8ff" points="160.38,-124.15 170.8,-122.19 161.44,-117.23 160.38,-124.15"/>
</a>
</g>
</g>
<!-- Node3 -->
<g id="Node000003" class="node">
<title>Node3</title>
<g id="a_Node000003"><a xlink:href="kest__fpga__encoding_8c.html#a793b1841a47fcdbddc9d0aa5b6eec343" target="_top" xlink:title=" ">
<polygon fill="white" stroke="#666666" points="482.25,-97.5 345.5,-97.5 345.5,-64 482.25,-64 482.25,-97.5"/>
<text xml:space="preserve" text-anchor="start" x="353.5" y="-84" font-family="Helvetica,sans-Serif" font-size="10.00">kest_fpga_batch_append</text>
<text xml:space="preserve" text-anchor="middle" x="413.88" y="-71.25" font-family="Helvetica,sans-Serif" font-size="10.00">_block</text>
</a>
</g>
</g>
<!-- Node2&#45;&gt;Node3 -->
<g id="edge2_Node000002_Node000003" class="edge">
<title>Node2&#45;&gt;Node3</title>
<g id="a_edge2_Node000002_Node000003"><a xlink:title=" ">
<path fill="none" stroke="#63b8ff" d="M309.61,-80.75C317.53,-80.75 325.66,-80.75 333.73,-80.75"/>
<polygon fill="#63b8ff" stroke="#63b8ff" points="333.53,-84.25 343.53,-80.75 333.53,-77.25 333.53,-84.25"/>
</a>
</g>
</g>
<!-- Node4 -->
<g id="Node000004" class="node">
<title>Node4</title>
<g id="a_Node000004"><a xlink:href="kest__fpga__encoding_8c.html#a1e92fe0ff4b72e00fa5d840ec96508c7" target="_top" xlink:title=" ">
<polygon fill="#fff0f0" stroke="red" points="655,-33.5 518.25,-33.5 518.25,0 655,0 655,-33.5"/>
<text xml:space="preserve" text-anchor="start" x="526.25" y="-20" font-family="Helvetica,sans-Serif" font-size="10.00">kest_fpga_batch_append</text>
<text xml:space="preserve" text-anchor="middle" x="586.62" y="-7.25" font-family="Helvetica,sans-Serif" font-size="10.00">_block_instr</text>
</a>
</g>
</g>
<!-- Node3&#45;&gt;Node4 -->
<g id="edge3_Node000003_Node000004" class="edge">
<title>Node3&#45;&gt;Node4</title>
<g id="a_edge3_Node000003_Node000004"><a xlink:title=" ">
<path fill="none" stroke="#63b8ff" d="M460.63,-63.6C481.69,-55.71 506.87,-46.27 529.1,-37.94"/>
<polygon fill="#63b8ff" stroke="#63b8ff" points="530.19,-41.27 538.32,-34.48 527.73,-34.71 530.19,-41.27"/>
</a>
</g>
</g>
<!-- Node17 -->
<g id="Node000017" class="node">
<title>Node17</title>
<g id="a_Node000017"><a xlink:href="kest__fpga__encoding_8c.html#a0c272bb9440b58f3546ad0f628d0daec" target="_top" xlink:title=" ">
<polygon fill="#fff0f0" stroke="red" points="655,-97.5 518.25,-97.5 518.25,-64 655,-64 655,-97.5"/>
<text xml:space="preserve" text-anchor="start" x="526.25" y="-84" font-family="Helvetica,sans-Serif" font-size="10.00">kest_fpga_batch_append</text>
<text xml:space="preserve" text-anchor="middle" x="586.62" y="-71.25" font-family="Helvetica,sans-Serif" font-size="10.00">_block_regs</text>
</a>
</g>
</g>
<!-- Node3&#45;&gt;Node17 -->
<g id="edge5_Node000003_Node000017" class="edge">
<title>Node3&#45;&gt;Node17</title>
<g id="a_edge5_Node000003_Node000017"><a xlink:title=" ">
<path fill="none" stroke="#63b8ff" d="M482.36,-80.75C490.28,-80.75 498.41,-80.75 506.48,-80.75"/>
<polygon fill="#63b8ff" stroke="#63b8ff" points="506.28,-84.25 516.28,-80.75 506.28,-77.25 506.28,-84.25"/>
</a>
</g>
</g>
<!-- Node10 -->
<g id="Node000010" class="node">
<title>Node10</title>
<g id="a_Node000010"><a xlink:href="kest__fpga__io_8c.html#a6900c9b759f1dccf1b3535cc76ad83e3" target="_top" xlink:title=" ">
<polygon fill="#fff0f0" stroke="red" points="1017.75,-130.12 881,-130.12 881,-109.38 1017.75,-109.38 1017.75,-130.12"/>
<text xml:space="preserve" text-anchor="middle" x="949.38" y="-116.62" font-family="Helvetica,sans-Serif" font-size="10.00">kest_fpga_batch_append</text>
</a>
</g>
</g>
<!-- Node4&#45;&gt;Node10 -->
<g id="edge4_Node000004_Node000010" class="edge">
<title>Node4&#45;&gt;Node10</title>
<g id="a_edge4_Node000004_Node000010"><a xlink:title=" ">
<path fill="none" stroke="#63b8ff" d="M655.3,-16.48C708.47,-18.29 783.54,-25.42 845,-48.75 876.84,-60.83 908.36,-84.65 928.07,-101.36"/>
<polygon fill="#63b8ff" stroke="#63b8ff" points="925.76,-103.99 935.6,-107.91 930.35,-98.71 925.76,-103.99"/>
</a>
</g>
</g>
<!-- Node17&#45;&gt;Node10 -->
<g id="edge7_Node000017_Node000010" class="edge">
<title>Node17&#45;&gt;Node10</title>
<g id="a_edge7_Node000017_Node000010"><a xlink:title=" ">
<path fill="none" stroke="#63b8ff" d="M655.38,-63.87C707.92,-53.6 782.14,-45.32 845,-61.75 874.98,-69.59 905.45,-88.27 925.47,-102.33"/>
<polygon fill="#63b8ff" stroke="#63b8ff" points="923.29,-105.07 933.44,-108.09 927.39,-99.4 923.29,-105.07"/>
</a>
</g>
</g>
<!-- Node19 -->
<g id="Node000019" class="node">
<title>Node19</title>
<g id="a_Node000019"><a xlink:href="kest__expression_8c.html#acf37e49d77d8bcdaa88727bd67c146fa" target="_top" xlink:title=" ">
<polygon fill="white" stroke="#666666" points="839.38,-91.12 696.62,-91.12 696.62,-70.38 839.38,-70.38 839.38,-91.12"/>
<text xml:space="preserve" text-anchor="middle" x="768" y="-77.62" font-family="Helvetica,sans-Serif" font-size="10.00">kest_expression_evaluate</text>
</a>
</g>
</g>
<!-- Node17&#45;&gt;Node19 -->
<g id="edge6_Node000017_Node000019" class="edge">
<title>Node17&#45;&gt;Node19</title>
<g id="a_edge6_Node000017_Node000019"><a xlink:title=" ">
<path fill="none" stroke="#63b8ff" d="M655.44,-80.75C665.07,-80.75 675.05,-80.75 684.91,-80.75"/>
<polygon fill="#63b8ff" stroke="#63b8ff" points="684.89,-84.25 694.89,-80.75 684.89,-77.25 684.89,-84.25"/>
</a>
</g>
</g>
<!-- Node16 -->
<g id="Node000016" class="node">
<title>Node16</title>
<g id="a_Node000016"><a xlink:href="kest__fpga__io_8c.html#a1d6d30e20ceac79973b36fd12e790aa5" target="_top" xlink:title=" ">
<polygon fill="white" stroke="#666666" points="845,-130.12 691,-130.12 691,-109.38 845,-109.38 845,-130.12"/>
<text xml:space="preserve" text-anchor="middle" x="768" y="-116.62" font-family="Helvetica,sans-Serif" font-size="10.00">kest_fpga_batch_append_16</text>
</a>
</g>
</g>
<!-- Node17&#45;&gt;Node16 -->
<g id="edge8_Node000017_Node000016" class="edge">
<title>Node17&#45;&gt;Node16</title>
<g id="a_edge8_Node000017_Node000016"><a xlink:title=" ">
<path fill="none" stroke="#63b8ff" d="M655.44,-95.49C672.04,-99.1 689.72,-102.95 705.98,-106.48"/>
<polygon fill="#63b8ff" stroke="#63b8ff" points="704.99,-109.85 715.51,-108.55 706.48,-103.01 704.99,-109.85"/>
</a>
</g>
</g>
<!-- Node16&#45;&gt;Node10 -->
<g id="edge9_Node000016_Node000010" class="edge">
<title>Node16&#45;&gt;Node10</title>
<g id="a_edge9_Node000016_Node000010"><a xlink:title=" ">
<path fill="none" stroke="#63b8ff" d="M845.33,-119.75C853.21,-119.75 861.23,-119.75 869.14,-119.75"/>
<polygon fill="#63b8ff" stroke="#63b8ff" points="869.11,-123.25 879.11,-119.75 869.11,-116.25 869.11,-123.25"/>
</a>
</g>
</g>
<!-- Node21 -->
<g id="Node000021" class="node">
<title>Node21</title>
<g id="a_Node000021"><a xlink:href="kest__fpga__encoding_8c.html#a3b6ea5da3d104a83a4e5fd1f668d9a91" target="_top" xlink:title=" ">
<polygon fill="white" stroke="#666666" points="655,-161.5 518.25,-161.5 518.25,-128 655,-128 655,-161.5"/>
<text xml:space="preserve" text-anchor="start" x="526.25" y="-148" font-family="Helvetica,sans-Serif" font-size="10.00">kest_fpga_batch_append</text>
<text xml:space="preserve" text-anchor="middle" x="586.62" y="-135.25" font-family="Helvetica,sans-Serif" font-size="10.00">_resource</text>
</a>
</g>
</g>
<!-- Node20&#45;&gt;Node21 -->
<g id="edge11_Node000020_Node000021" class="edge">
<title>Node20&#45;&gt;Node21</title>
<g id="a_edge11_Node000020_Node000021"><a xlink:title=" ">
<path fill="none" stroke="#63b8ff" d="M309.99,-135.12C366.56,-137.1 447.23,-139.92 506.68,-141.99"/>
<polygon fill="#63b8ff" stroke="#63b8ff" points="506.27,-145.48 516.39,-142.33 506.52,-138.48 506.27,-145.48"/>
</a>
</g>
</g>
<!-- Node21&#45;&gt;Node10 -->
<g id="edge14_Node000021_Node000010" class="edge">
<title>Node21&#45;&gt;Node10</title>
<g id="a_edge14_Node000021_Node000010"><a xlink:title=" ">
<path fill="none" stroke="#63b8ff" d="M655.28,-146.09C707.29,-146.42 780.87,-145.35 845,-138.75 858.82,-137.33 873.57,-135.07 887.46,-132.6"/>
<polygon fill="#63b8ff" stroke="#63b8ff" points="887.7,-136.12 896.9,-130.86 886.43,-129.23 887.7,-136.12"/>
</a>
</g>
</g>
<!-- Node21&#45;&gt;Node19 -->
<g id="edge13_Node000021_Node000019" class="edge">
<title>Node21&#45;&gt;Node19</title>
<g id="a_edge13_Node000021_Node000019"><a xlink:title=" ">
<path fill="none" stroke="#63b8ff" d="M624.44,-127.54C643.95,-118.81 668.49,-108.46 691,-100.75 697.44,-98.55 704.25,-96.44 711.05,-94.48"/>
<polygon fill="#63b8ff" stroke="#63b8ff" points="711.51,-97.99 720.21,-91.93 709.64,-91.24 711.51,-97.99"/>
</a>
</g>
</g>
<!-- Node21&#45;&gt;Node16 -->
<g id="edge15_Node000021_Node000016" class="edge">
<title>Node21&#45;&gt;Node16</title>
<g id="a_edge15_Node000021_Node000016"><a xlink:title=" ">
<path fill="none" stroke="#63b8ff" d="M655.44,-135.3C663.26,-134.21 671.32,-133.09 679.36,-131.97"/>
<polygon fill="#63b8ff" stroke="#63b8ff" points="679.76,-135.44 689.18,-130.6 678.79,-128.51 679.76,-135.44"/>
</a>
</g>
</g>
<!-- Node22 -->
<g id="Node000022" class="node">
<title>Node22</title>
<g id="a_Node000022"><a xlink:href="kest__fixed__point_8c.html#aba6f5ab612c05ab177a5a18954c9722c" target="_top" xlink:title=" ">
<polygon fill="white" stroke="#666666" points="824,-257.5 712,-257.5 712,-224 824,-224 824,-257.5"/>
<text xml:space="preserve" text-anchor="start" x="720" y="-244" font-family="Helvetica,sans-Serif" font-size="10.00">float_to_q_nminus1</text>
<text xml:space="preserve" text-anchor="middle" x="768" y="-231.25" font-family="Helvetica,sans-Serif" font-size="10.00">_18bit</text>
</a>
</g>
</g>
<!-- Node21&#45;&gt;Node22 -->
<g id="edge12_Node000021_Node000022" class="edge">
<title>Node21&#45;&gt;Node22</title>
<g id="a_edge12_Node000021_Node000022"><a xlink:title=" ">
<path fill="none" stroke="#63b8ff" d="M609.16,-161.84C629.38,-177.26 660.93,-199.76 691,-214.75 694.31,-216.4 697.74,-217.98 701.25,-219.5"/>
<polygon fill="#63b8ff" stroke="#63b8ff" points="699.92,-222.74 710.5,-223.28 702.56,-216.26 699.92,-222.74"/>
</a>
</g>
</g>
<!-- Node23 -->
<g id="Node000023" class="node">
<title>Node23</title>
<g id="a_Node000023"><a xlink:href="kest__fpga__io_8c.html#aa00adf9f96658a5c00b3d93dfa8c00de" target="_top" xlink:title=" ">
<polygon fill="white" stroke="#666666" points="845,-206.12 691,-206.12 691,-185.38 845,-185.38 845,-206.12"/>
<text xml:space="preserve" text-anchor="middle" x="768" y="-192.62" font-family="Helvetica,sans-Serif" font-size="10.00">kest_fpga_batch_append_24</text>
</a>
</g>
</g>
<!-- Node21&#45;&gt;Node23 -->
<g id="edge16_Node000021_Node000023" class="edge">
<title>Node21&#45;&gt;Node23</title>
<g id="a_edge16_Node000021_Node000023"><a xlink:title=" ">
<path fill="none" stroke="#63b8ff" d="M647.85,-161.87C670.65,-168.36 696.3,-175.65 717.94,-181.8"/>
<polygon fill="#63b8ff" stroke="#63b8ff" points="716.83,-185.12 727.41,-184.49 718.74,-178.39 716.83,-185.12"/>
</a>
</g>
</g>
<!-- Node23&#45;&gt;Node10 -->
<g id="edge17_Node000023_Node000010" class="edge">
<title>Node23&#45;&gt;Node10</title>
<g id="a_edge17_Node000023_Node000010"><a xlink:title=" ">
<path fill="none" stroke="#63b8ff" d="M807.31,-184.96C819.5,-181.18 832.95,-176.65 845,-171.75 870.83,-161.25 899.04,-146.85 919.46,-135.87"/>
<polygon fill="#63b8ff" stroke="#63b8ff" points="920.93,-139.05 928.04,-131.19 917.58,-132.9 920.93,-139.05"/>
</a>
</g>
</g>
</g>
</svg>

<g id="navigator" transform="translate(0 0)" fill="#404254">
  <rect fill="#f2f5e9" fill-opacity="0.5" stroke="#606060" stroke-width=".5" x="0" y="0" width="60" height="60"/>
  <use id="zoomplus" xlink:href="#zoomPlus" x="17" y="9" onmousedown="handleZoom(evt,'in')"/>
  <use id="zoomminus" xlink:href="#zoomMin" x="42" y="9" onmousedown="handleZoom(evt,'out')"/>
  <use id="reset" xlink:href="#resetDef" x="30" y="36" onmousedown="handleReset()"/>
   <use id="arrowup" xlink:href="#arrowUp" x="0" y="0" onmousedown="handlePan(0,-1)"/>
  <use id="arrowright" xlink:href="#arrowRight" x="0" y="0" onmousedown="handlePan(1,0)"/>
  <use id="arrowdown" xlink:href="#arrowDown" x="0" y="0" onmousedown="handlePan(0,1)"/>
  <use id="arrowleft" xlink:href="#arrowLeft" x="0" y="0" onmousedown="handlePan(-1,0)"/>
</g>
<svg viewBox="0 0 15 15" width="100%" height="30px" preserveAspectRatio="xMaxYMin meet">
 <g id="arrow_out" transform="scale(0.3 0.3)">
  <a xlink:href="kest__fpga__encoding_8c_a142858ad82d4b4214aa9191a2146454e_cgraph_org.svg" target="_base">
   <rect id="button" ry="5" rx="5" y="6" x="6" height="38" width="38"
        fill="#f2f5e9" fill-opacity="0.5" stroke="#606060" stroke-width="1.0"/>
   <path id="arrow"
     d="M 11.500037,31.436501 C 11.940474,20.09759 22.043105,11.32322 32.158766,21.979434 L 37.068811,17.246167 C 37.068811,17.246167 37.088388,32 37.088388,32 L 22.160133,31.978069 C 22.160133,31.978069 26.997745,27.140456 26.997745,27.140456 C 18.528582,18.264221 13.291696,25.230495 11.500037,31.436501 z"
     style="fill:#404040;"/>
  </a>
 </g>
</svg>

<style type='text/css'>
<![CDATA[
[data-mouse-over-selected='false'] { opacity: 0.7; }
[data-mouse-over-selected='true']  { opacity: 1.0; }
]]>
</style>
<script type="application/ecmascript"><![CDATA[
document.addEventListener('DOMContentLoaded', (event) => {
  highlightEdges();
  highlightAdjacentNodes();
});
]]></script>
</svg>
