<?xml version="1.0" encoding="UTF-8" standalone="no"?>
<!DOCTYPE svg PUBLIC "-//W3C//DTD SVG 1.1//EN"
 "http://www.w3.org/Graphics/SVG/1.1/DTD/svg11.dtd">
<!-- Generated by graphviz version 13.1.2 (20250808.2320)
 -->
<!-- Title: gut_profile Pages: 1 -->
<!--zoomable 236 -->

<svg id="main" version="1.1" xmlns="http://www.w3.org/2000/svg" xmlns:xlink="http://www.w3.org/1999/xlink" xml:space="preserve" onload="init(evt)">

<style type="text/css"><![CDATA[
.node, .edge {opacity: 0.7;}
.node.selected, .edge.selected {opacity: 1;}
.edge:hover path { stroke: red; }
.edge:hover polygon { stroke: red; fill: red; }
]]></style>

<defs>
  <circle id="rim" cx="0" cy="0" r="7"/>
  <circle id="rim2" cx="0" cy="0" r="3.5"/>
  <g id="zoomPlus">
    <use xlink:href="#rim" fill="#404040"><set attributeName="fill" to="#808080" begin="zoomplus.mouseover" end="zoomplus.mouseout"/></use>
    <path d="M-4,0h8M0,-4v8" fill="none" stroke="white" stroke-width="1.5" pointer-events="none"/>
  </g>
  <g id="zoomMin">
    <use xlink:href="#rim" fill="#404040"><set attributeName="fill" to="#808080" begin="zoomminus.mouseover" end="zoomminus.mouseout"/></use>
    <path d="M-4,0h8" fill="none" stroke="white" stroke-width="1.5" pointer-events="none"/>
  </g>
  <g id="arrowUp" transform="translate(30 24)">
    <use xlink:href="#rim"/>
    <path pointer-events="none" fill="none" stroke="white" stroke-width="1.5" d="M0,-3.0v7 M-2.5,-0.5L0,-3.0L2.5,-0.5"/>
  </g>
  <g id="arrowRight" transform="rotate(90) translate(36 -43)">
    <use xlink:href="#rim"/>
    <path pointer-events="none" fill="none" stroke="white" stroke-width="1.5" d="M0,-3.0v7 M-2.5,-0.5L0,-3.0L2.5,-0.5"/>
  </g>
  <g id="arrowDown" transform="rotate(180) translate(-30 -48)">
    <use xlink:href="#rim"/>
    <path pointer-events="none" fill="none" stroke="white" stroke-width="1.5" d="M0,-3.0v7 M-2.5,-0.5L0,-3.0L2.5,-0.5"/>
  </g>
  <g id="arrowLeft" transform="rotate(270) translate(-36 17)">
    <use xlink:href="#rim"/>
    <path pointer-events="none" fill="none" stroke="white" stroke-width="1.5" d="M0,-3.0v7 M-2.5,-0.5L0,-3.0L2.5,-0.5"/>
  </g>
  <g id="resetDef">
    <use xlink:href="#rim2" fill="#404040"><set attributeName="fill" to="#808080" begin="reset.mouseover" end="reset.mouseout"/></use>
  </g>
</defs>
<script type="application/ecmascript">
var viewWidth = 534;
var viewHeight = 236;
var sectionId = 'dynsection-5';
</script>
<script type="application/ecmascript" xlink:href="svg.min.js"/>
<svg id="graph" class="graph">
<g id="viewport">
<title>gut_profile</title>
<!-- Node1 -->
<g id="Node000001" class="node">
<title>Node1</title>
<g id="a_Node000001"><a xlink:title=" ">
<polygon fill="#999999" stroke="#666666" points="526,-143.75 457.5,-143.75 457.5,-123 526,-123 526,-143.75"/>
<text xml:space="preserve" text-anchor="middle" x="491.75" y="-130.25" font-family="Helvetica,sans-Serif" font-size="10.00">gut_profile</text>
</a>
</g>
</g>
<!-- Node2 -->
<g id="Node000002" class="node">
<title>Node2</title>
<g id="a_Node000002"><a xlink:href="kest__profile_8c.html#a7b50c42b3345fa0351fae2af60150ab1" target="_top" xlink:title=" ">
<polygon fill="white" stroke="#666666" points="421.5,-143.75 349.25,-143.75 349.25,-123 421.5,-123 421.5,-143.75"/>
<text xml:space="preserve" text-anchor="middle" x="385.38" y="-130.25" font-family="Helvetica,sans-Serif" font-size="10.00">free_profile</text>
</a>
</g>
</g>
<!-- Node1&#45;&gt;Node2 -->
<g id="edge1_Node000001_Node000002" class="edge">
<title>Node1&#45;&gt;Node2</title>
<g id="a_edge1_Node000001_Node000002"><a xlink:title=" ">
<path fill="none" stroke="#63b8ff" d="M445.66,-133.38C437.65,-133.38 429.4,-133.38 421.71,-133.38"/>
<polygon fill="#63b8ff" stroke="#63b8ff" points="445.64,-136.88 455.64,-133.38 445.64,-129.88 445.64,-136.88"/>
</a>
</g>
</g>
<!-- Node3 -->
<g id="Node000003" class="node">
<title>Node3</title>
<g id="a_Node000003"><a xlink:href="kest__context_8c.html#ab19b648605d92ec27c6810d982218956" target="_top" xlink:title=" ">
<polygon fill="white" stroke="#666666" points="291.88,-221.75 181.38,-221.75 181.38,-201 291.88,-201 291.88,-221.75"/>
<text xml:space="preserve" text-anchor="middle" x="236.62" y="-208.25" font-family="Helvetica,sans-Serif" font-size="10.00">cxt_remove_profile</text>
</a>
</g>
</g>
<!-- Node2&#45;&gt;Node3 -->
<g id="edge2_Node000002_Node000003" class="edge">
<title>Node2&#45;&gt;Node3</title>
<g id="a_edge2_Node000002_Node000003"><a xlink:title=" ">
<path fill="none" stroke="#63b8ff" d="M366.36,-151.77C352.84,-164.59 333.28,-181.17 313.25,-191.38 306.11,-195.01 298.25,-198.04 290.37,-200.54"/>
<polygon fill="#63b8ff" stroke="#63b8ff" points="368.53,-154.54 373.23,-145.05 363.63,-149.54 368.53,-154.54"/>
</a>
</g>
</g>
<!-- Node16 -->
<g id="Node000016" class="node">
<title>Node16</title>
<g id="a_Node000016"><a xlink:href="kest__context_8c.html#a197c4a2d342fa09268805b00cdcfaff0" target="_top" xlink:title=" ">
<polygon fill="white" stroke="#666666" points="305.75,-182.75 167.5,-182.75 167.5,-162 305.75,-162 305.75,-182.75"/>
<text xml:space="preserve" text-anchor="middle" x="236.62" y="-169.25" font-family="Helvetica,sans-Serif" font-size="10.00">kest_context_add_profile</text>
</a>
</g>
</g>
<!-- Node2&#45;&gt;Node16 -->
<g id="edge4_Node000002_Node000016" class="edge">
<title>Node2&#45;&gt;Node16</title>
<g id="a_edge4_Node000002_Node000016"><a xlink:title=" ">
<path fill="none" stroke="#63b8ff" d="M337.94,-145.8C329.72,-147.99 321.23,-150.25 313.25,-152.38 301.96,-155.38 289.72,-158.62 278.45,-161.6"/>
<polygon fill="#63b8ff" stroke="#63b8ff" points="338.7,-149.22 347.46,-143.25 336.9,-142.45 338.7,-149.22"/>
</a>
</g>
</g>
<!-- Node17 -->
<g id="Node000017" class="node">
<title>Node17</title>
<g id="a_Node000017"><a xlink:href="kest__context_8c.html#a6940c938261204306d9a9b789bee846f" target="_top" xlink:title=" ">
<polygon fill="white" stroke="#666666" points="313.25,-143.75 160,-143.75 160,-123 313.25,-123 313.25,-143.75"/>
<text xml:space="preserve" text-anchor="middle" x="236.62" y="-130.25" font-family="Helvetica,sans-Serif" font-size="10.00">kest_context_add_profile_rp</text>
</a>
</g>
</g>
<!-- Node2&#45;&gt;Node17 -->
<g id="edge5_Node000002_Node000017" class="edge">
<title>Node2&#45;&gt;Node17</title>
<g id="a_edge5_Node000002_Node000017"><a xlink:title=" ">
<path fill="none" stroke="#63b8ff" d="M337.36,-133.38C329.79,-133.38 321.78,-133.38 313.73,-133.38"/>
<polygon fill="#63b8ff" stroke="#63b8ff" points="337.34,-136.88 347.34,-133.38 337.34,-129.88 337.34,-136.88"/>
</a>
</g>
</g>
<!-- Node19 -->
<g id="Node000019" class="node">
<title>Node19</title>
<g id="a_Node000019"><a xlink:href="kest__profile_8c.html#ab38a025bc4dfed358b6a783cffbda73d" target="_top" xlink:title=" ">
<polygon fill="white" stroke="#666666" points="285.5,-104.75 187.75,-104.75 187.75,-84 285.5,-84 285.5,-104.75"/>
<text xml:space="preserve" text-anchor="middle" x="236.62" y="-91.25" font-family="Helvetica,sans-Serif" font-size="10.00">kest_free_profile</text>
</a>
</g>
</g>
<!-- Node2&#45;&gt;Node19 -->
<g id="edge7_Node000002_Node000019" class="edge">
<title>Node2&#45;&gt;Node19</title>
<g id="a_edge7_Node000002_Node000019"><a xlink:title=" ">
<path fill="none" stroke="#63b8ff" d="M337.94,-120.95C329.72,-118.76 321.23,-116.5 313.25,-114.38 301.96,-111.37 289.72,-108.13 278.45,-105.15"/>
<polygon fill="#63b8ff" stroke="#63b8ff" points="336.9,-124.3 347.46,-123.5 338.7,-117.53 336.9,-124.3"/>
</a>
</g>
</g>
<!-- Node27 -->
<g id="Node000027" class="node">
<title>Node27</title>
<g id="a_Node000027"><a xlink:href="kest__files_8c.html#a9a8521ad7db2dd3514b6ece8c4d6d787" target="_top" xlink:title=" ">
<polygon fill="white" stroke="#666666" points="293.38,-59.75 179.88,-59.75 179.88,-39 293.38,-39 293.38,-59.75"/>
<text xml:space="preserve" text-anchor="middle" x="236.62" y="-46.25" font-family="Helvetica,sans-Serif" font-size="10.00">load_saved_profiles</text>
</a>
</g>
</g>
<!-- Node2&#45;&gt;Node27 -->
<g id="edge9_Node000002_Node000027" class="edge">
<title>Node2&#45;&gt;Node27</title>
<g id="a_edge9_Node000002_Node000027"><a xlink:title=" ">
<path fill="none" stroke="#63b8ff" d="M365.65,-114.97C352.04,-102.42 332.67,-86.18 313.25,-75.38 302.21,-69.23 289.46,-64.17 277.62,-60.2"/>
<polygon fill="#63b8ff" stroke="#63b8ff" points="362.93,-117.22 372.6,-121.55 367.74,-112.14 362.93,-117.22"/>
</a>
</g>
</g>
<!-- Node4 -->
<g id="Node000004" class="node">
<title>Node4</title>
<g id="a_Node000004"><a xlink:href="kest__menu_8c.html#a33b1b7cde7c97dfddede16dae1536481" target="_top" xlink:title=" ">
<polygon fill="#fff0f0" stroke="red" points="121.38,-228.12 2.62,-228.12 2.62,-194.62 121.38,-194.62 121.38,-228.12"/>
<text xml:space="preserve" text-anchor="start" x="10.62" y="-214.62" font-family="Helvetica,sans-Serif" font-size="10.00">profile_listing_delete</text>
<text xml:space="preserve" text-anchor="middle" x="62" y="-201.88" font-family="Helvetica,sans-Serif" font-size="10.00">_button_cb</text>
</a>
</g>
</g>
<!-- Node3&#45;&gt;Node4 -->
<g id="edge3_Node000003_Node000004" class="edge">
<title>Node3&#45;&gt;Node4</title>
<g id="a_edge3_Node000003_Node000004"><a xlink:title=" ">
<path fill="none" stroke="#63b8ff" d="M169.71,-211.38C153.93,-211.38 137.18,-211.38 121.74,-211.38"/>
<polygon fill="#63b8ff" stroke="#63b8ff" points="169.49,-214.88 179.49,-211.38 169.49,-207.88 169.49,-214.88"/>
</a>
</g>
</g>
<!-- Node18 -->
<g id="Node000018" class="node">
<title>Node18</title>
<g id="a_Node000018"><a xlink:href="kest__profile_8c.html#a9222b6f2a0efa93ce0168e1bb530d733" target="_top" xlink:title=" ">
<polygon fill="white" stroke="#666666" points="116.5,-163.12 7.5,-163.12 7.5,-129.62 116.5,-129.62 116.5,-163.12"/>
<text xml:space="preserve" text-anchor="start" x="15.5" y="-149.62" font-family="Helvetica,sans-Serif" font-size="10.00">create_new_profile</text>
<text xml:space="preserve" text-anchor="middle" x="62" y="-136.88" font-family="Helvetica,sans-Serif" font-size="10.00">_with_teensy</text>
</a>
</g>
</g>
<!-- Node17&#45;&gt;Node18 -->
<g id="edge6_Node000017_Node000018" class="edge">
<title>Node17&#45;&gt;Node18</title>
<g id="a_edge6_Node000017_Node000018"><a xlink:title=" ">
<path fill="none" stroke="#63b8ff" d="M148.48,-139.94C137.74,-140.75 127.02,-141.55 116.97,-142.31"/>
<polygon fill="#63b8ff" stroke="#63b8ff" points="148.44,-143.45 158.15,-139.21 147.91,-136.47 148.44,-143.45"/>
</a>
</g>
</g>
<!-- Node20 -->
<g id="Node000020" class="node">
<title>Node20</title>
<g id="a_Node000020"><a xlink:href="kest__sequence_8c.html#a8e1bb657ea395200ce33bd762732bbdb" target="_top" xlink:title=" ">
<polygon fill="#fff0f0" stroke="red" points="124,-111.12 0,-111.12 0,-77.62 124,-77.62 124,-111.12"/>
<text xml:space="preserve" text-anchor="start" x="8" y="-97.62" font-family="Helvetica,sans-Serif" font-size="10.00">kest_sequence_delete</text>
<text xml:space="preserve" text-anchor="middle" x="62" y="-84.88" font-family="Helvetica,sans-Serif" font-size="10.00">_profile</text>
</a>
</g>
</g>
<!-- Node19&#45;&gt;Node20 -->
<g id="edge8_Node000019_Node000020" class="edge">
<title>Node19&#45;&gt;Node20</title>
<g id="a_edge8_Node000019_Node000020"><a xlink:title=" ">
<path fill="none" stroke="#63b8ff" d="M176.23,-94.38C159.5,-94.38 141.26,-94.38 124.42,-94.38"/>
<polygon fill="#63b8ff" stroke="#63b8ff" points="176.03,-97.88 186.03,-94.38 176.03,-90.88 176.03,-97.88"/>
</a>
</g>
</g>
<!-- Node10 -->
<g id="Node000010" class="node">
<title>Node10</title>
<g id="a_Node000010"><a xlink:href="kest__int_8c.html#abce06be17fc37d675118a678a8100a36" target="_top" xlink:title=" ">
<polygon fill="white" stroke="#666666" points="94,-59.75 30,-59.75 30,-39 94,-39 94,-59.75"/>
<text xml:space="preserve" text-anchor="middle" x="62" y="-46.25" font-family="Helvetica,sans-Serif" font-size="10.00">app_main</text>
</a>
</g>
</g>
<!-- Node27&#45;&gt;Node10 -->
<g id="edge10_Node000027_Node000010" class="edge">
<title>Node27&#45;&gt;Node10</title>
<g id="a_edge10_Node000027_Node000010"><a xlink:title=" ">
<path fill="none" stroke="#63b8ff" d="M168.4,-49.38C142.79,-49.38 114.82,-49.38 94.14,-49.38"/>
<polygon fill="#63b8ff" stroke="#63b8ff" points="168.07,-52.88 178.07,-49.38 168.07,-45.88 168.07,-52.88"/>
</a>
</g>
</g>
<!-- Node11 -->
<g id="Node000011" class="node">
<title>Node11</title>
<g id="a_Node000011"><a xlink:href="kest__desktop_8c.html#ab499a4f71ef4cfc807b60d8739750c3e" target="_top" xlink:title=" ">
<polygon fill="#fff0f0" stroke="red" points="95.5,-20.75 28.5,-20.75 28.5,0 95.5,0 95.5,-20.75"/>
<text xml:space="preserve" text-anchor="middle" x="62" y="-7.25" font-family="Helvetica,sans-Serif" font-size="10.00">main_task</text>
</a>
</g>
</g>
<!-- Node27&#45;&gt;Node11 -->
<g id="edge11_Node000027_Node000011" class="edge">
<title>Node27&#45;&gt;Node11</title>
<g id="a_edge11_Node000027_Node000011"><a xlink:title=" ">
<path fill="none" stroke="#63b8ff" d="M176.63,-36.05C149.61,-29.94 118.61,-22.94 95.82,-17.79"/>
<polygon fill="#63b8ff" stroke="#63b8ff" points="175.54,-39.39 186.06,-38.18 177.08,-32.56 175.54,-39.39"/>
</a>
</g>
</g>
</g>
</svg>

<g id="navigator" transform="translate(0 0)" fill="#404254">
  <rect fill="#f2f5e9" fill-opacity="0.5" stroke="#606060" stroke-width=".5" x="0" y="0" width="60" height="60"/>
  <use id="zoomplus" xlink:href="#zoomPlus" x="17" y="9" onmousedown="handleZoom(evt,'in')"/>
  <use id="zoomminus" xlink:href="#zoomMin" x="42" y="9" onmousedown="handleZoom(evt,'out')"/>
  <use id="reset" xlink:href="#resetDef" x="30" y="36" onmousedown="handleReset()"/>
   <use id="arrowup" xlink:href="#arrowUp" x="0" y="0" onmousedown="handlePan(0,-1)"/>
  <use id="arrowright" xlink:href="#arrowRight" x="0" y="0" onmousedown="handlePan(1,0)"/>
  <use id="arrowdown" xlink:href="#arrowDown" x="0" y="0" onmousedown="handlePan(0,1)"/>
  <use id="arrowleft" xlink:href="#arrowLeft" x="0" y="0" onmousedown="handlePan(-1,0)"/>
</g>
<svg viewBox="0 0 15 15" width="100%" height="30px" preserveAspectRatio="xMaxYMin meet">
 <g id="arrow_out" transform="scale(0.3 0.3)">
  <a xlink:href="kest__profile_8h_a98628f676eab8e760f52eec1b9dd7281_icgraph_org.svg" target="_base">
   <rect id="button" ry="5" rx="5" y="6" x="6" height="38" width="38"
        fill="#f2f5e9" fill-opacity="0.5" stroke="#606060" stroke-width="1.0"/>
   <path id="arrow"
     d="M 11.500037,31.436501 C 11.940474,20.09759 22.043105,11.32322 32.158766,21.979434 L 37.068811,17.246167 C 37.068811,17.246167 37.088388,32 37.088388,32 L 22.160133,31.978069 C 22.160133,31.978069 26.997745,27.140456 26.997745,27.140456 C 18.528582,18.264221 13.291696,25.230495 11.500037,31.436501 z"
     style="fill:#404040;"/>
  </a>
 </g>
</svg>

<style type='text/css'>
<![CDATA[
[data-mouse-over-selected='false'] { opacity: 0.7; }
[data-mouse-over-selected='true']  { opacity: 1.0; }
]]>
</style>
<script type="application/ecmascript"><![CDATA[
document.addEventListener('DOMContentLoaded', (event) => {
  highlightEdges();
  highlightAdjacentNodes();
});
]]></script>
</svg>
