<?xml version="1.0" encoding="UTF-8" standalone="no"?>
<!DOCTYPE svg PUBLIC "-//W3C//DTD SVG 1.1//EN"
 "http://www.w3.org/Graphics/SVG/1.1/DTD/svg11.dtd">
<!-- Generated by graphviz version 13.1.2 (20250808.2320)
 -->
<!-- Title: parameter_widget_refresh_cb Pages: 1 -->
<svg width="642pt" height="94pt"
 viewBox="0.00 0.00 642.00 94.00" xmlns="http://www.w3.org/2000/svg" xmlns:xlink="http://www.w3.org/1999/xlink">
<g id="graph0" class="graph" transform="scale(1 1) rotate(0) translate(4 89.5)">
<title>parameter_widget_refresh_cb</title>
<!-- Node1 -->
<g id="Node000001" class="node">
<title>Node1</title>
<g id="a_Node000001"><a xlink:title=" ">
<polygon fill="#999999" stroke="#666666" points="161.5,-53.12 0,-53.12 0,-32.38 161.5,-32.38 161.5,-53.12"/>
<text xml:space="preserve" text-anchor="middle" x="80.75" y="-39.62" font-family="Helvetica,sans-Serif" font-size="10.00">parameter_widget_refresh_cb</text>
</a>
</g>
</g>
<!-- Node2 -->
<g id="Node000002" class="node">
<title>Node2</title>
<g id="a_Node000002"><a xlink:href="kest__parameter__widget_8c.html#abad910124e9bf706a008ab86f8bf70e6" target="_top" xlink:title=" ">
<polygon fill="white" stroke="#666666" points="341.75,-85.5 197.5,-85.5 197.5,-52 341.75,-52 341.75,-85.5"/>
<text xml:space="preserve" text-anchor="start" x="205.5" y="-72" font-family="Helvetica,sans-Serif" font-size="10.00">parameter_widget_update</text>
<text xml:space="preserve" text-anchor="middle" x="269.62" y="-59.25" font-family="Helvetica,sans-Serif" font-size="10.00">_value</text>
</a>
</g>
</g>
<!-- Node1&#45;&gt;Node2 -->
<g id="edge1_Node000001_Node000002" class="edge">
<title>Node1&#45;&gt;Node2</title>
<g id="a_edge1_Node000001_Node000002"><a xlink:title=" ">
<path fill="none" stroke="#63b8ff" d="M159.65,-53.59C168.28,-54.79 177.1,-56.02 185.79,-57.23"/>
<polygon fill="#63b8ff" stroke="#63b8ff" points="185.24,-60.68 195.62,-58.59 186.2,-53.75 185.24,-60.68"/>
</a>
</g>
</g>
<!-- Node3 -->
<g id="Node000003" class="node">
<title>Node3</title>
<g id="a_Node000003"><a xlink:href="kest__parameter__widget_8c.html#af345b51066bd1985326c50809d992fab" target="_top" xlink:title=" ">
<polygon fill="white" stroke="#666666" points="341.75,-33.5 197.5,-33.5 197.5,0 341.75,0 341.75,-33.5"/>
<text xml:space="preserve" text-anchor="start" x="205.5" y="-20" font-family="Helvetica,sans-Serif" font-size="10.00">parameter_widget_update</text>
<text xml:space="preserve" text-anchor="middle" x="269.62" y="-7.25" font-family="Helvetica,sans-Serif" font-size="10.00">_value_label</text>
</a>
</g>
</g>
<!-- Node1&#45;&gt;Node3 -->
<g id="edge2_Node000001_Node000003" class="edge">
<title>Node1&#45;&gt;Node3</title>
<g id="a_edge2_Node000001_Node000003"><a xlink:title=" ">
<path fill="none" stroke="#63b8ff" d="M159.65,-31.91C168.28,-30.71 177.1,-29.48 185.79,-28.27"/>
<polygon fill="#63b8ff" stroke="#63b8ff" points="186.2,-31.75 195.62,-26.91 185.24,-24.82 186.2,-31.75"/>
</a>
</g>
</g>
<!-- Node4 -->
<g id="Node000004" class="node">
<title>Node4</title>
<g id="a_Node000004"><a xlink:href="kest__parameter__widget_8c.html#a9a7e5431ab9599259aa5e2cfa47e6308" target="_top" xlink:title=" ">
<polygon fill="white" stroke="#666666" points="521.25,-33.5 377.75,-33.5 377.75,0 521.25,0 521.25,-33.5"/>
<text xml:space="preserve" text-anchor="start" x="385.75" y="-20" font-family="Helvetica,sans-Serif" font-size="10.00">format_parameter_widget</text>
<text xml:space="preserve" text-anchor="middle" x="449.5" y="-7.25" font-family="Helvetica,sans-Serif" font-size="10.00">_value_label</text>
</a>
</g>
</g>
<!-- Node3&#45;&gt;Node4 -->
<g id="edge3_Node000003_Node000004" class="edge">
<title>Node3&#45;&gt;Node4</title>
<g id="a_edge3_Node000003_Node000004"><a xlink:title=" ">
<path fill="none" stroke="#63b8ff" d="M342.2,-16.75C349.99,-16.75 357.96,-16.75 365.86,-16.75"/>
<polygon fill="#63b8ff" stroke="#63b8ff" points="365.84,-20.25 375.84,-16.75 365.84,-13.25 365.84,-20.25"/>
</a>
</g>
</g>
<!-- Node5 -->
<g id="Node000005" class="node">
<title>Node5</title>
<g id="a_Node000005"><a xlink:href="kest__hfunc_8c.html#a840904866becc1161859f30852e94595" target="_top" xlink:title=" ">
<polygon fill="white" stroke="#666666" points="634,-27.12 557.25,-27.12 557.25,-6.38 634,-6.38 634,-27.12"/>
<text xml:space="preserve" text-anchor="middle" x="595.62" y="-13.62" font-family="Helvetica,sans-Serif" font-size="10.00">format_float</text>
</a>
</g>
</g>
<!-- Node4&#45;&gt;Node5 -->
<g id="edge4_Node000004_Node000005" class="edge">
<title>Node4&#45;&gt;Node5</title>
<g id="a_edge4_Node000004_Node000005"><a xlink:title=" ">
<path fill="none" stroke="#63b8ff" d="M521.72,-16.75C529.82,-16.75 537.93,-16.75 545.65,-16.75"/>
<polygon fill="#63b8ff" stroke="#63b8ff" points="545.5,-20.25 555.5,-16.75 545.5,-13.25 545.5,-20.25"/>
</a>
</g>
</g>
</g>
</svg>
