<?xml version="1.0" encoding="UTF-8" standalone="no"?>
<!DOCTYPE svg PUBLIC "-//W3C//DTD SVG 1.1//EN"
 "http://www.w3.org/Graphics/SVG/1.1/DTD/svg11.dtd">
<!-- Generated by graphviz version 13.1.2 (20250808.2320)
 -->
<!-- Title: kest_extract_filter_coefs_from_dict Pages: 1 -->
<svg width="587pt" height="94pt"
 viewBox="0.00 0.00 587.00 94.00" xmlns="http://www.w3.org/2000/svg" xmlns:xlink="http://www.w3.org/1999/xlink">
<g id="graph0" class="graph" transform="scale(1 1) rotate(0) translate(4 89.5)">
<title>kest_extract_filter_coefs_from_dict</title>
<!-- Node1 -->
<g id="Node000001" class="node">
<title>Node1</title>
<g id="a_Node000001"><a xlink:title=" ">
<polygon fill="#999999" stroke="#666666" points="579.25,-59.5 474.75,-59.5 474.75,-26 579.25,-26 579.25,-59.5"/>
<text xml:space="preserve" text-anchor="start" x="482.75" y="-46" font-family="Helvetica,sans-Serif" font-size="10.00">kest_extract_filter</text>
<text xml:space="preserve" text-anchor="middle" x="527" y="-33.25" font-family="Helvetica,sans-Serif" font-size="10.00">_coefs_from_dict</text>
</a>
</g>
</g>
<!-- Node2 -->
<g id="Node000002" class="node">
<title>Node2</title>
<g id="a_Node000002"><a xlink:href="kest__dict__extract_8c.html#ab7acbd0287c39e5bbb08575fa2a61291" target="_top" xlink:title=" ">
<polygon fill="white" stroke="#666666" points="438.75,-85.5 324.5,-85.5 324.5,-52 438.75,-52 438.75,-85.5"/>
<text xml:space="preserve" text-anchor="start" x="332.5" y="-72" font-family="Helvetica,sans-Serif" font-size="10.00">kest_extract_biquad</text>
<text xml:space="preserve" text-anchor="middle" x="381.62" y="-59.25" font-family="Helvetica,sans-Serif" font-size="10.00">_from_dict</text>
</a>
</g>
</g>
<!-- Node1&#45;&gt;Node2 -->
<g id="edge1_Node000001_Node000002" class="edge">
<title>Node1&#45;&gt;Node2</title>
<g id="a_edge1_Node000001_Node000002"><a xlink:title=" ">
<path fill="none" stroke="#63b8ff" d="M463.33,-54.11C455.23,-55.58 446.96,-57.08 438.97,-58.53"/>
<polygon fill="#63b8ff" stroke="#63b8ff" points="463.94,-57.56 473.15,-52.33 462.69,-50.67 463.94,-57.56"/>
</a>
</g>
</g>
<!-- Node11 -->
<g id="Node000011" class="node">
<title>Node11</title>
<g id="a_Node000011"><a xlink:href="kest__dict__extract_8c.html#a449de50461a34d20bba301a90a39ec05" target="_top" xlink:title=" ">
<polygon fill="white" stroke="#666666" points="433.88,-33.5 329.38,-33.5 329.38,0 433.88,0 433.88,-33.5"/>
<text xml:space="preserve" text-anchor="start" x="337.38" y="-20" font-family="Helvetica,sans-Serif" font-size="10.00">kest_extract_filter</text>
<text xml:space="preserve" text-anchor="middle" x="381.62" y="-7.25" font-family="Helvetica,sans-Serif" font-size="10.00">_from_dict</text>
</a>
</g>
</g>
<!-- Node1&#45;&gt;Node11 -->
<g id="edge4_Node000001_Node000011" class="edge">
<title>Node1&#45;&gt;Node11</title>
<g id="a_edge4_Node000001_Node000011"><a xlink:title=" ">
<path fill="none" stroke="#63b8ff" d="M463.33,-31.39C453.57,-29.62 443.58,-27.8 434.11,-26.09"/>
<polygon fill="#63b8ff" stroke="#63b8ff" points="462.69,-34.83 473.15,-33.17 463.94,-27.94 462.69,-34.83"/>
</a>
</g>
</g>
<!-- Node3 -->
<g id="Node000003" class="node">
<title>Node3</title>
<g id="a_Node000003"><a xlink:href="kest__dict__extract_8c.html#ad78dabb9f962180138c9dfc2bf1731e3" target="_top" xlink:title=" ">
<polygon fill="white" stroke="#666666" points="288.5,-59.5 165.25,-59.5 165.25,-26 288.5,-26 288.5,-59.5"/>
<text xml:space="preserve" text-anchor="start" x="173.25" y="-46" font-family="Helvetica,sans-Serif" font-size="10.00">kest_extract_resource</text>
<text xml:space="preserve" text-anchor="middle" x="226.88" y="-33.25" font-family="Helvetica,sans-Serif" font-size="10.00">_from_dict</text>
</a>
</g>
</g>
<!-- Node2&#45;&gt;Node3 -->
<g id="edge2_Node000002_Node000003" class="edge">
<title>Node2&#45;&gt;Node3</title>
<g id="a_edge2_Node000002_Node000003"><a xlink:title=" ">
<path fill="none" stroke="#63b8ff" d="M312.99,-57.24C304.99,-55.88 296.87,-54.49 288.96,-53.15"/>
<polygon fill="#63b8ff" stroke="#63b8ff" points="312.24,-60.66 322.69,-58.89 313.42,-53.76 312.24,-60.66"/>
</a>
</g>
</g>
<!-- Node4 -->
<g id="Node000004" class="node">
<title>Node4</title>
<g id="a_Node000004"><a xlink:href="kest__eff__section_8c.html#a55e76cf45dd01c8cc35bf2323f67b931" target="_top" xlink:title=" ">
<polygon fill="#fff0f0" stroke="red" points="129.25,-59.5 0,-59.5 0,-26 129.25,-26 129.25,-59.5"/>
<text xml:space="preserve" text-anchor="start" x="8" y="-46" font-family="Helvetica,sans-Serif" font-size="10.00">kest_resources_section</text>
<text xml:space="preserve" text-anchor="middle" x="64.62" y="-33.25" font-family="Helvetica,sans-Serif" font-size="10.00">_extract</text>
</a>
</g>
</g>
<!-- Node3&#45;&gt;Node4 -->
<g id="edge3_Node000003_Node000004" class="edge">
<title>Node3&#45;&gt;Node4</title>
<g id="a_edge3_Node000003_Node000004"><a xlink:title=" ">
<path fill="none" stroke="#63b8ff" d="M153.37,-42.75C145.47,-42.75 137.48,-42.75 129.69,-42.75"/>
<polygon fill="#63b8ff" stroke="#63b8ff" points="153.32,-46.25 163.32,-42.75 153.32,-39.25 153.32,-46.25"/>
</a>
</g>
</g>
<!-- Node11&#45;&gt;Node3 -->
<g id="edge5_Node000011_Node000003" class="edge">
<title>Node11&#45;&gt;Node3</title>
<g id="a_edge5_Node000011_Node000003"><a xlink:title=" ">
<path fill="none" stroke="#63b8ff" d="M317.82,-27.44C308.22,-29.07 298.33,-30.76 288.77,-32.38"/>
<polygon fill="#63b8ff" stroke="#63b8ff" points="318.15,-30.93 327.42,-25.81 316.97,-24.03 318.15,-30.93"/>
</a>
</g>
</g>
</g>
</svg>
