<?xml version="1.0" encoding="UTF-8" standalone="no"?>
<!DOCTYPE svg PUBLIC "-//W3C//DTD SVG 1.1//EN"
 "http://www.w3.org/Graphics/SVG/1.1/DTD/svg11.dtd">
<!-- Generated by graphviz version 13.1.2 (20250808.2320)
 -->
<!-- Title: cxt_remove_sequence Pages: 1 -->
<svg width="257pt" height="68pt"
 viewBox="0.00 0.00 257.00 68.00" xmlns="http://www.w3.org/2000/svg" xmlns:xlink="http://www.w3.org/1999/xlink">
<g id="graph0" class="graph" transform="scale(1 1) rotate(0) translate(4 63.75)">
<title>cxt_remove_sequence</title>
<!-- Node1 -->
<g id="Node000001" class="node">
<title>Node1</title>
<g id="a_Node000001"><a xlink:title=" ">
<polygon fill="#999999" stroke="#666666" points="125.5,-39.75 0,-39.75 0,-19 125.5,-19 125.5,-39.75"/>
<text xml:space="preserve" text-anchor="middle" x="62.75" y="-26.25" font-family="Helvetica,sans-Serif" font-size="10.00">cxt_remove_sequence</text>
</a>
</g>
</g>
<!-- Node2 -->
<g id="Node000002" class="node">
<title>Node2</title>
<g id="a_Node000002"><a xlink:href="kest__sequence_8c.html#a6ff162921ceb28cfb5cb208e746ccea2" target="_top" xlink:title=" ">
<polygon fill="white" stroke="#666666" points="248.75,-59.75 161.5,-59.75 161.5,-39 248.75,-39 248.75,-59.75"/>
<text xml:space="preserve" text-anchor="middle" x="205.12" y="-46.25" font-family="Helvetica,sans-Serif" font-size="10.00">free_sequence</text>
</a>
</g>
</g>
<!-- Node1&#45;&gt;Node2 -->
<g id="edge1_Node000001_Node000002" class="edge">
<title>Node1&#45;&gt;Node2</title>
<g id="a_edge1_Node000001_Node000002"><a xlink:title=" ">
<path fill="none" stroke="#63b8ff" d="M125.73,-38.21C133.82,-39.36 142.06,-40.53 150.01,-41.67"/>
<polygon fill="#63b8ff" stroke="#63b8ff" points="149.51,-45.13 159.9,-43.07 150.5,-38.2 149.51,-45.13"/>
</a>
</g>
</g>
<!-- Node3 -->
<g id="Node000003" class="node">
<title>Node3</title>
<g id="a_Node000003"><a xlink:href="kest__alloc_8c.html#a294af5728a94aa316fcf65304d388d48" target="_top" xlink:title=" ">
<polygon fill="white" stroke="#666666" points="235.62,-20.75 174.62,-20.75 174.62,0 235.62,0 235.62,-20.75"/>
<text xml:space="preserve" text-anchor="middle" x="205.12" y="-7.25" font-family="Helvetica,sans-Serif" font-size="10.00">kest_free</text>
</a>
</g>
</g>
<!-- Node1&#45;&gt;Node3 -->
<g id="edge2_Node000001_Node000003" class="edge">
<title>Node1&#45;&gt;Node3</title>
<g id="a_edge2_Node000001_Node000003"><a xlink:title=" ">
<path fill="none" stroke="#63b8ff" d="M125.73,-20.99C138.4,-19.27 151.43,-17.51 163.14,-15.92"/>
<polygon fill="#63b8ff" stroke="#63b8ff" points="163.41,-19.42 172.85,-14.61 162.47,-12.48 163.41,-19.42"/>
</a>
</g>
</g>
</g>
</svg>
