<?xml version="1.0" encoding="UTF-8" standalone="no"?>
<!DOCTYPE svg PUBLIC "-//W3C//DTD SVG 1.1//EN"
 "http://www.w3.org/Graphics/SVG/1.1/DTD/svg11.dtd">
<!-- Generated by graphviz version 13.1.2 (20250808.2320)
 -->
<!-- Title: kest_dictionary_bucket_lookup Pages: 1 -->
<!--zoomable 516 -->

<svg id="main" version="1.1" xmlns="http://www.w3.org/2000/svg" xmlns:xlink="http://www.w3.org/1999/xlink" xml:space="preserve" onload="init(evt)">

<style type="text/css"><![CDATA[
.node, .edge {opacity: 0.7;}
.node.selected, .edge.selected {opacity: 1;}
.edge:hover path { stroke: red; }
.edge:hover polygon { stroke: red; fill: red; }
]]></style>

<defs>
  <circle id="rim" cx="0" cy="0" r="7"/>
  <circle id="rim2" cx="0" cy="0" r="3.5"/>
  <g id="zoomPlus">
    <use xlink:href="#rim" fill="#404040"><set attributeName="fill" to="#808080" begin="zoomplus.mouseover" end="zoomplus.mouseout"/></use>
    <path d="M-4,0h8M0,-4v8" fill="none" stroke="white" stroke-width="1.5" pointer-events="none"/>
  </g>
  <g id="zoomMin">
    <use xlink:href="#rim" fill="#404040"><set attributeName="fill" to="#808080" begin="zoomminus.mouseover" end="zoomminus.mouseout"/></use>
    <path d="M-4,0h8" fill="none" stroke="white" stroke-width="1.5" pointer-events="none"/>
  </g>
  <g id="arrowUp" transform="translate(30 24)">
    <use xlink:href="#rim"/>
    <path pointer-events="none" fill="none" stroke="white" stroke-width="1.5" d="M0,-3.0v7 M-2.5,-0.5L0,-3.0L2.5,-0.5"/>
  </g>
  <g id="arrowRight" transform="rotate(90) translate(36 -43)">
    <use xlink:href="#rim"/>
    <path pointer-events="none" fill="none" stroke="white" stroke-width="1.5" d="M0,-3.0v7 M-2.5,-0.5L0,-3.0L2.5,-0.5"/>
  </g>
  <g id="arrowDown" transform="rotate(180) translate(-30 -48)">
    <use xlink:href="#rim"/>
    <path pointer-events="none" fill="none" stroke="white" stroke-width="1.5" d="M0,-3.0v7 M-2.5,-0.5L0,-3.0L2.5,-0.5"/>
  </g>
  <g id="arrowLeft" transform="rotate(270) translate(-36 17)">
    <use xlink:href="#rim"/>
    <path pointer-events="none" fill="none" stroke="white" stroke-width="1.5" d="M0,-3.0v7 M-2.5,-0.5L0,-3.0L2.5,-0.5"/>
  </g>
  <g id="resetDef">
    <use xlink:href="#rim2" fill="#404040"><set attributeName="fill" to="#808080" begin="reset.mouseover" end="reset.mouseout"/></use>
  </g>
</defs>
<script type="application/ecmascript">
var viewWidth = 1033;
var viewHeight = 516;
var sectionId = 'dynsection-26';
</script>
<script type="application/ecmascript" xlink:href="svg.min.js"/>
<svg id="graph" class="graph">
<g id="viewport">
<title>kest_dictionary_bucket_lookup</title>
<!-- Node1 -->
<g id="Node000001" class="node">
<title>Node1</title>
<g id="a_Node000001"><a xlink:title=" ">
<polygon fill="#999999" stroke="#666666" points="1025.25,-351.5 897.5,-351.5 897.5,-318 1025.25,-318 1025.25,-351.5"/>
<text xml:space="preserve" text-anchor="start" x="905.5" y="-338" font-family="Helvetica,sans-Serif" font-size="10.00">kest_dictionary_bucket</text>
<text xml:space="preserve" text-anchor="middle" x="961.38" y="-325.25" font-family="Helvetica,sans-Serif" font-size="10.00">_lookup</text>
</a>
</g>
</g>
<!-- Node2 -->
<g id="Node000002" class="node">
<title>Node2</title>
<g id="a_Node000002"><a xlink:href="kest__dictionary_8c.html#aa68c42ecd33c1c27c5627ac5dceeb253" target="_top" xlink:title=" ">
<polygon fill="white" stroke="#666666" points="861.12,-507.5 733.38,-507.5 733.38,-474 861.12,-474 861.12,-507.5"/>
<text xml:space="preserve" text-anchor="start" x="741.38" y="-494" font-family="Helvetica,sans-Serif" font-size="10.00">kest_dictionary_bucket</text>
<text xml:space="preserve" text-anchor="middle" x="797.25" y="-481.25" font-family="Helvetica,sans-Serif" font-size="10.00">_lookup_dict</text>
</a>
</g>
</g>
<!-- Node1&#45;&gt;Node2 -->
<g id="edge1_Node000001_Node000002" class="edge">
<title>Node1&#45;&gt;Node2</title>
<g id="a_edge1_Node000001_Node000002"><a xlink:title=" ">
<path fill="none" stroke="#63b8ff" d="M945.77,-361.67C928.86,-390.61 898.54,-436.28 861.5,-464.75 857.26,-468.01 852.56,-470.92 847.69,-473.51"/>
<polygon fill="#63b8ff" stroke="#63b8ff" points="948.72,-363.56 950.63,-353.14 942.63,-360.1 948.72,-363.56"/>
</a>
</g>
</g>
<!-- Node3 -->
<g id="Node000003" class="node">
<title>Node3</title>
<g id="a_Node000003"><a xlink:href="kest__dictionary_8c.html#a0725b527f5763977013057a1ce1aabfe" target="_top" xlink:title=" ">
<polygon fill="white" stroke="#666666" points="861.12,-455.5 733.38,-455.5 733.38,-422 861.12,-422 861.12,-455.5"/>
<text xml:space="preserve" text-anchor="start" x="741.38" y="-442" font-family="Helvetica,sans-Serif" font-size="10.00">kest_dictionary_bucket</text>
<text xml:space="preserve" text-anchor="middle" x="797.25" y="-429.25" font-family="Helvetica,sans-Serif" font-size="10.00">_lookup_expr</text>
</a>
</g>
</g>
<!-- Node1&#45;&gt;Node3 -->
<g id="edge2_Node000001_Node000003" class="edge">
<title>Node1&#45;&gt;Node3</title>
<g id="a_edge2_Node000001_Node000003"><a xlink:title=" ">
<path fill="none" stroke="#63b8ff" d="M933.37,-359.44C914.29,-376.01 887.57,-397.51 861.5,-412.75 856.07,-415.93 850.17,-418.9 844.24,-421.62"/>
<polygon fill="#63b8ff" stroke="#63b8ff" points="935.51,-362.22 940.7,-352.98 930.88,-356.97 935.51,-362.22"/>
</a>
</g>
</g>
<!-- Node4 -->
<g id="Node000004" class="node">
<title>Node4</title>
<g id="a_Node000004"><a xlink:href="kest__dictionary_8c.html#a7fc5025600b48143ec07342892cad06a" target="_top" xlink:title=" ">
<polygon fill="white" stroke="#666666" points="861.12,-403.5 733.38,-403.5 733.38,-370 861.12,-370 861.12,-403.5"/>
<text xml:space="preserve" text-anchor="start" x="741.38" y="-390" font-family="Helvetica,sans-Serif" font-size="10.00">kest_dictionary_bucket</text>
<text xml:space="preserve" text-anchor="middle" x="797.25" y="-377.25" font-family="Helvetica,sans-Serif" font-size="10.00">_lookup_float</text>
</a>
</g>
</g>
<!-- Node1&#45;&gt;Node4 -->
<g id="edge3_Node000001_Node000004" class="edge">
<title>Node1&#45;&gt;Node4</title>
<g id="a_edge3_Node000001_Node000004"><a xlink:title=" ">
<path fill="none" stroke="#63b8ff" d="M895.89,-355.43C881.35,-360.1 866.06,-365 852.01,-369.51"/>
<polygon fill="#63b8ff" stroke="#63b8ff" points="896.95,-358.77 905.4,-352.38 894.81,-352.1 896.95,-358.77"/>
</a>
</g>
</g>
<!-- Node5 -->
<g id="Node000005" class="node">
<title>Node5</title>
<g id="a_Node000005"><a xlink:href="kest__dictionary_8c.html#a2193204a4003008af5142cd66559950e" target="_top" xlink:title=" ">
<polygon fill="white" stroke="#666666" points="861.12,-351.5 733.38,-351.5 733.38,-318 861.12,-318 861.12,-351.5"/>
<text xml:space="preserve" text-anchor="start" x="741.38" y="-338" font-family="Helvetica,sans-Serif" font-size="10.00">kest_dictionary_bucket</text>
<text xml:space="preserve" text-anchor="middle" x="797.25" y="-325.25" font-family="Helvetica,sans-Serif" font-size="10.00">_lookup_int</text>
</a>
</g>
</g>
<!-- Node1&#45;&gt;Node5 -->
<g id="edge4_Node000001_Node000005" class="edge">
<title>Node1&#45;&gt;Node5</title>
<g id="a_edge4_Node000001_Node000005"><a xlink:title=" ">
<path fill="none" stroke="#63b8ff" d="M885.82,-334.75C877.69,-334.75 869.47,-334.75 861.49,-334.75"/>
<polygon fill="#63b8ff" stroke="#63b8ff" points="885.72,-338.25 895.72,-334.75 885.72,-331.25 885.72,-338.25"/>
</a>
</g>
</g>
<!-- Node6 -->
<g id="Node000006" class="node">
<title>Node6</title>
<g id="a_Node000006"><a xlink:href="kest__dictionary_8c.html#a6edb76d95c9ba73f9b9b46da4e96cfcb" target="_top" xlink:title=" ">
<polygon fill="white" stroke="#666666" points="861.12,-299.5 733.38,-299.5 733.38,-266 861.12,-266 861.12,-299.5"/>
<text xml:space="preserve" text-anchor="start" x="741.38" y="-286" font-family="Helvetica,sans-Serif" font-size="10.00">kest_dictionary_bucket</text>
<text xml:space="preserve" text-anchor="middle" x="797.25" y="-273.25" font-family="Helvetica,sans-Serif" font-size="10.00">_lookup_list</text>
</a>
</g>
</g>
<!-- Node1&#45;&gt;Node6 -->
<g id="edge5_Node000001_Node000006" class="edge">
<title>Node1&#45;&gt;Node6</title>
<g id="a_edge5_Node000001_Node000006"><a xlink:title=" ">
<path fill="none" stroke="#63b8ff" d="M895.89,-314.07C881.35,-309.4 866.06,-304.5 852.01,-299.99"/>
<polygon fill="#63b8ff" stroke="#63b8ff" points="894.81,-317.4 905.4,-317.12 896.95,-310.73 894.81,-317.4"/>
</a>
</g>
</g>
<!-- Node7 -->
<g id="Node000007" class="node">
<title>Node7</title>
<g id="a_Node000007"><a xlink:href="kest__dictionary_8c.html#a970e7b22ab1edf477edb9330d467a30c" target="_top" xlink:title=" ">
<polygon fill="white" stroke="#666666" points="861.12,-247.5 733.38,-247.5 733.38,-214 861.12,-214 861.12,-247.5"/>
<text xml:space="preserve" text-anchor="start" x="741.38" y="-234" font-family="Helvetica,sans-Serif" font-size="10.00">kest_dictionary_bucket</text>
<text xml:space="preserve" text-anchor="middle" x="797.25" y="-221.25" font-family="Helvetica,sans-Serif" font-size="10.00">_lookup_str</text>
</a>
</g>
</g>
<!-- Node1&#45;&gt;Node7 -->
<g id="edge6_Node000001_Node000007" class="edge">
<title>Node1&#45;&gt;Node7</title>
<g id="a_edge6_Node000001_Node000007"><a xlink:title=" ">
<path fill="none" stroke="#63b8ff" d="M933.37,-310.06C914.29,-293.49 887.57,-271.99 861.5,-256.75 856.07,-253.57 850.17,-250.6 844.24,-247.88"/>
<polygon fill="#63b8ff" stroke="#63b8ff" points="930.88,-312.53 940.7,-316.52 935.51,-307.28 930.88,-312.53"/>
</a>
</g>
</g>
<!-- Node8 -->
<g id="Node000008" class="node">
<title>Node8</title>
<g id="a_Node000008"><a xlink:href="kest__dictionary_8c.html#ac32514fb9876c48a7b489fa4686fbdbd" target="_top" xlink:title=" ">
<polygon fill="white" stroke="#666666" points="861.5,-196.12 733,-196.12 733,-175.38 861.5,-175.38 861.5,-196.12"/>
<text xml:space="preserve" text-anchor="middle" x="797.25" y="-182.62" font-family="Helvetica,sans-Serif" font-size="10.00">kest_dictionary_lookup</text>
</a>
</g>
</g>
<!-- Node1&#45;&gt;Node8 -->
<g id="edge7_Node000001_Node000008" class="edge">
<title>Node1&#45;&gt;Node8</title>
<g id="a_edge7_Node000001_Node000008"><a xlink:title=" ">
<path fill="none" stroke="#63b8ff" d="M946.55,-307.61C930.15,-278.07 900.1,-231.51 861.5,-204.75 856.79,-201.48 851.5,-198.77 846.05,-196.51"/>
<polygon fill="#63b8ff" stroke="#63b8ff" points="943.42,-309.17 951.24,-316.31 949.58,-305.85 943.42,-309.17"/>
</a>
</g>
</g>
<!-- Node9 -->
<g id="Node000009" class="node">
<title>Node9</title>
<g id="a_Node000009"><a xlink:href="kest__dictionary_8c.html#a16d4c6761feb472f57a86030145ea45f" target="_top" xlink:title=" ">
<polygon fill="white" stroke="#666666" points="697,-388.12 545.25,-388.12 545.25,-367.38 697,-367.38 697,-388.12"/>
<text xml:space="preserve" text-anchor="middle" x="621.12" y="-374.62" font-family="Helvetica,sans-Serif" font-size="10.00">kest_dictionary_lookup_dict</text>
</a>
</g>
</g>
<!-- Node8&#45;&gt;Node9 -->
<g id="edge8_Node000008_Node000009" class="edge">
<title>Node8&#45;&gt;Node9</title>
<g id="a_edge8_Node000008_Node000009"><a xlink:title=" ">
<path fill="none" stroke="#63b8ff" d="M734.85,-202.96C734.22,-203.54 733.6,-204.13 733,-204.75 690.3,-248.64 735.14,-289.84 697,-337.75 686.35,-351.13 669.98,-360.59 655.26,-366.95"/>
<polygon fill="#63b8ff" stroke="#63b8ff" points="736.62,-206 742.75,-197.36 732.57,-200.29 736.62,-206"/>
</a>
</g>
</g>
<!-- Node11 -->
<g id="Node000011" class="node">
<title>Node11</title>
<g id="a_Node000011"><a xlink:href="kest__dictionary_8c.html#aa5e01745c3975da2999b57cc7f51fba7" target="_top" xlink:title=" ">
<polygon fill="white" stroke="#666666" points="509.25,-297.12 353.75,-297.12 353.75,-276.38 509.25,-276.38 509.25,-297.12"/>
<text xml:space="preserve" text-anchor="middle" x="431.5" y="-283.62" font-family="Helvetica,sans-Serif" font-size="10.00">kest_dictionary_lookup_expr</text>
</a>
</g>
</g>
<!-- Node8&#45;&gt;Node11 -->
<g id="edge10_Node000008_Node000011" class="edge">
<title>Node8&#45;&gt;Node11</title>
<g id="a_edge10_Node000008_Node000011"><a xlink:title=" ">
<path fill="none" stroke="#63b8ff" d="M746.55,-199.55C673.32,-219.88 537.92,-257.48 471.42,-275.94"/>
<polygon fill="#63b8ff" stroke="#63b8ff" points="747.16,-203.01 755.86,-196.96 745.29,-196.27 747.16,-203.01"/>
</a>
</g>
</g>
<!-- Node29 -->
<g id="Node000029" class="node">
<title>Node29</title>
<g id="a_Node000029"><a xlink:href="kest__dictionary_8c.html#ac0d717121bfefc909ebb35791957e2e7" target="_top" xlink:title=" ">
<polygon fill="white" stroke="#666666" points="685.38,-133.5 556.88,-133.5 556.88,-100 685.38,-100 685.38,-133.5"/>
<text xml:space="preserve" text-anchor="start" x="564.88" y="-120" font-family="Helvetica,sans-Serif" font-size="10.00">kest_dictionary_lookup</text>
<text xml:space="preserve" text-anchor="middle" x="621.12" y="-107.25" font-family="Helvetica,sans-Serif" font-size="10.00">_float</text>
</a>
</g>
</g>
<!-- Node8&#45;&gt;Node29 -->
<g id="edge22_Node000008_Node000029" class="edge">
<title>Node8&#45;&gt;Node29</title>
<g id="a_edge22_Node000008_Node000029"><a xlink:title=" ">
<path fill="none" stroke="#63b8ff" d="M758.69,-170.86C731.27,-160 694.05,-145.25 665.39,-133.89"/>
<polygon fill="#63b8ff" stroke="#63b8ff" points="757.05,-173.98 767.64,-174.41 759.63,-167.47 757.05,-173.98"/>
</a>
</g>
</g>
<!-- Node31 -->
<g id="Node000031" class="node">
<title>Node31</title>
<g id="a_Node000031"><a xlink:href="kest__dictionary_8c.html#a1ded333d233d7d29ca2bdfccdb651b68" target="_top" xlink:title=" ">
<polygon fill="white" stroke="#666666" points="694.38,-79.12 547.88,-79.12 547.88,-58.38 694.38,-58.38 694.38,-79.12"/>
<text xml:space="preserve" text-anchor="middle" x="621.12" y="-65.62" font-family="Helvetica,sans-Serif" font-size="10.00">kest_dictionary_lookup_int</text>
</a>
</g>
</g>
<!-- Node8&#45;&gt;Node31 -->
<g id="edge24_Node000008_Node000031" class="edge">
<title>Node8&#45;&gt;Node31</title>
<g id="a_edge24_Node000008_Node000031"><a xlink:title=" ">
<path fill="none" stroke="#63b8ff" d="M780.66,-165.99C762.69,-144.49 731.19,-110.54 697,-90.75 689.14,-86.2 680.27,-82.53 671.45,-79.58"/>
<polygon fill="#63b8ff" stroke="#63b8ff" points="777.94,-168.19 786.97,-173.73 783.36,-163.77 777.94,-168.19"/>
</a>
</g>
</g>
<!-- Node33 -->
<g id="Node000033" class="node">
<title>Node33</title>
<g id="a_Node000033"><a xlink:href="kest__dictionary_8c.html#a21526e898fbbfcc30e54dc674406d435" target="_top" xlink:title=" ">
<polygon fill="white" stroke="#666666" points="695.5,-329.12 546.75,-329.12 546.75,-308.38 695.5,-308.38 695.5,-329.12"/>
<text xml:space="preserve" text-anchor="middle" x="621.12" y="-315.62" font-family="Helvetica,sans-Serif" font-size="10.00">kest_dictionary_lookup_list</text>
</a>
</g>
</g>
<!-- Node8&#45;&gt;Node33 -->
<g id="edge26_Node000008_Node000033" class="edge">
<title>Node8&#45;&gt;Node33</title>
<g id="a_edge26_Node000008_Node000033"><a xlink:title=" ">
<path fill="none" stroke="#63b8ff" d="M737.03,-201.85C735.64,-202.76 734.29,-203.73 733,-204.75 707.99,-224.49 718.6,-243.33 697,-266.75 681.12,-283.97 658.58,-298.66 642.38,-307.99"/>
<polygon fill="#63b8ff" stroke="#63b8ff" points="738.33,-205.13 745.42,-197.26 734.97,-198.99 738.33,-205.13"/>
</a>
</g>
</g>
<!-- Node36 -->
<g id="Node000036" class="node">
<title>Node36</title>
<g id="a_Node000036"><a xlink:href="kest__dictionary_8c.html#a76d1d160cee6b666deb63f52a8f04d94" target="_top" xlink:title=" ">
<polygon fill="white" stroke="#666666" points="504.75,-172.12 358.25,-172.12 358.25,-151.38 504.75,-151.38 504.75,-172.12"/>
<text xml:space="preserve" text-anchor="middle" x="431.5" y="-158.62" font-family="Helvetica,sans-Serif" font-size="10.00">kest_dictionary_lookup_str</text>
</a>
</g>
</g>
<!-- Node8&#45;&gt;Node36 -->
<g id="edge29_Node000008_Node000036" class="edge">
<title>Node8&#45;&gt;Node36</title>
<g id="a_edge29_Node000008_Node000036"><a xlink:title=" ">
<path fill="none" stroke="#63b8ff" d="M721.78,-180.84C658.42,-176.66 567.96,-170.69 505.13,-166.54"/>
<polygon fill="#63b8ff" stroke="#63b8ff" points="721.17,-184.3 731.38,-181.47 721.63,-177.32 721.17,-184.3"/>
</a>
</g>
</g>
<!-- Node10 -->
<g id="Node000010" class="node">
<title>Node10</title>
<g id="a_Node000010"><a xlink:href="kest__eff__section_8c.html#ae929a5203cedc7919206b28aec8e79b1" target="_top" xlink:title=" ">
<polygon fill="white" stroke="#666666" points="496.88,-400.5 366.12,-400.5 366.12,-367 496.88,-367 496.88,-400.5"/>
<text xml:space="preserve" text-anchor="start" x="374.12" y="-387" font-family="Helvetica,sans-Serif" font-size="10.00">kest_dictionary_section</text>
<text xml:space="preserve" text-anchor="middle" x="431.5" y="-374.25" font-family="Helvetica,sans-Serif" font-size="10.00">_lookup_dict</text>
</a>
</g>
</g>
<!-- Node9&#45;&gt;Node10 -->
<g id="edge9_Node000009_Node000010" class="edge">
<title>Node9&#45;&gt;Node10</title>
<g id="a_edge9_Node000009_Node000010"><a xlink:title=" ">
<path fill="none" stroke="#63b8ff" d="M533.68,-380.51C521.4,-380.91 508.95,-381.31 497.18,-381.68"/>
<polygon fill="#63b8ff" stroke="#63b8ff" points="533.5,-384.02 543.38,-380.2 533.27,-377.03 533.5,-384.02"/>
</a>
</g>
</g>
<!-- Node12 -->
<g id="Node000012" class="node">
<title>Node12</title>
<g id="a_Node000012"><a xlink:href="kest__eff__section_8c.html#ae26b07a97afe15681a9357b7e017b0b9" target="_top" xlink:title=" ">
<polygon fill="white" stroke="#666666" points="303.88,-355.5 173.12,-355.5 173.12,-322 303.88,-322 303.88,-355.5"/>
<text xml:space="preserve" text-anchor="start" x="181.12" y="-342" font-family="Helvetica,sans-Serif" font-size="10.00">kest_dictionary_section</text>
<text xml:space="preserve" text-anchor="middle" x="238.5" y="-329.25" font-family="Helvetica,sans-Serif" font-size="10.00">_lookup_expr</text>
</a>
</g>
</g>
<!-- Node11&#45;&gt;Node12 -->
<g id="edge11_Node000011_Node000012" class="edge">
<title>Node11&#45;&gt;Node12</title>
<g id="a_edge11_Node000011_Node000012"><a xlink:title=" ">
<path fill="none" stroke="#63b8ff" d="M374.49,-300.35C367.49,-302.13 360.45,-303.95 353.75,-305.75 335.4,-310.67 315.49,-316.31 297.5,-321.53"/>
<polygon fill="#63b8ff" stroke="#63b8ff" points="375.06,-303.81 383.91,-297.98 373.36,-297.03 375.06,-303.81"/>
</a>
</g>
</g>
<!-- Node13 -->
<g id="Node000013" class="node">
<title>Node13</title>
<g id="a_Node000013"><a xlink:href="kest__dict__extract_8c.html#a192768d0d5febcb6cda91f7135f2cebb" target="_top" xlink:title=" ">
<polygon fill="white" stroke="#666666" points="292.62,-445.5 184.38,-445.5 184.38,-412 292.62,-412 292.62,-445.5"/>
<text xml:space="preserve" text-anchor="start" x="192.38" y="-432" font-family="Helvetica,sans-Serif" font-size="10.00">kest_extract_delay</text>
<text xml:space="preserve" text-anchor="middle" x="238.5" y="-419.25" font-family="Helvetica,sans-Serif" font-size="10.00">_buffer_from_dict</text>
</a>
</g>
</g>
<!-- Node11&#45;&gt;Node13 -->
<g id="edge12_Node000011_Node000013" class="edge">
<title>Node11&#45;&gt;Node13</title>
<g id="a_edge12_Node000011_Node000013"><a xlink:title=" ">
<path fill="none" stroke="#63b8ff" d="M356.6,-303.38C355.62,-304.14 354.67,-304.93 353.75,-305.75 319.45,-336.38 350.82,-370.8 317.75,-402.75 310.75,-409.51 301.95,-414.52 292.79,-418.22"/>
<polygon fill="#63b8ff" stroke="#63b8ff" points="358.17,-306.53 364.76,-298.24 354.43,-300.61 358.17,-306.53"/>
</a>
</g>
</g>
<!-- Node22 -->
<g id="Node000022" class="node">
<title>Node22</title>
<g id="a_Node000022"><a xlink:href="kest__dict__extract_8c.html#a449de50461a34d20bba301a90a39ec05" target="_top" xlink:title=" ">
<polygon fill="white" stroke="#666666" points="290.75,-497.5 186.25,-497.5 186.25,-464 290.75,-464 290.75,-497.5"/>
<text xml:space="preserve" text-anchor="start" x="194.25" y="-484" font-family="Helvetica,sans-Serif" font-size="10.00">kest_extract_filter</text>
<text xml:space="preserve" text-anchor="middle" x="238.5" y="-471.25" font-family="Helvetica,sans-Serif" font-size="10.00">_from_dict</text>
</a>
</g>
</g>
<!-- Node11&#45;&gt;Node22 -->
<g id="edge14_Node000011_Node000022" class="edge">
<title>Node11&#45;&gt;Node22</title>
<g id="a_edge14_Node000011_Node000022"><a xlink:title=" ">
<path fill="none" stroke="#63b8ff" d="M355.28,-304.28C354.76,-304.76 354.25,-305.25 353.75,-305.75 305.71,-354.06 363.87,-404.6 317.75,-454.75 310.58,-462.55 301.02,-468.01 291.04,-471.83"/>
<polygon fill="#63b8ff" stroke="#63b8ff" points="357.26,-307.17 363.29,-298.46 353.15,-301.51 357.26,-307.17"/>
</a>
</g>
</g>
<!-- Node23 -->
<g id="Node000023" class="node">
<title>Node23</title>
<g id="a_Node000023"><a xlink:href="kest__dict__extract_8c.html#aaef489a5ae1caa02a5e5a3ce26034d48" target="_top" xlink:title=" ">
<polygon fill="white" stroke="#666666" points="305,-303.5 172,-303.5 172,-270 305,-270 305,-303.5"/>
<text xml:space="preserve" text-anchor="start" x="180" y="-290" font-family="Helvetica,sans-Serif" font-size="10.00">kest_extract_int_setting</text>
<text xml:space="preserve" text-anchor="middle" x="238.5" y="-277.25" font-family="Helvetica,sans-Serif" font-size="10.00">_from_dict</text>
</a>
</g>
</g>
<!-- Node11&#45;&gt;Node23 -->
<g id="edge16_Node000011_Node000023" class="edge">
<title>Node11&#45;&gt;Node23</title>
<g id="a_edge16_Node000011_Node000023"><a xlink:title=" ">
<path fill="none" stroke="#63b8ff" d="M342.06,-286.75C329.68,-286.75 317.13,-286.75 305.27,-286.75"/>
<polygon fill="#63b8ff" stroke="#63b8ff" points="341.85,-290.25 351.85,-286.75 341.85,-283.25 341.85,-290.25"/>
</a>
</g>
</g>
<!-- Node24 -->
<g id="Node000024" class="node">
<title>Node24</title>
<g id="a_Node000024"><a xlink:href="kest__dict__extract_8c.html#a0225c4392c944b41b1db66787be35243" target="_top" xlink:title=" ">
<polygon fill="#fff0f0" stroke="red" points="119.12,-194.5 4.12,-194.5 4.12,-161 119.12,-161 119.12,-194.5"/>
<text xml:space="preserve" text-anchor="start" x="12.12" y="-181" font-family="Helvetica,sans-Serif" font-size="10.00">kest_extract_setting</text>
<text xml:space="preserve" text-anchor="middle" x="61.62" y="-168.25" font-family="Helvetica,sans-Serif" font-size="10.00">_from_dict</text>
</a>
</g>
</g>
<!-- Node11&#45;&gt;Node24 -->
<g id="edge21_Node000011_Node000024" class="edge">
<title>Node11&#45;&gt;Node24</title>
<g id="a_edge21_Node000011_Node000024"><a xlink:title=" ">
<path fill="none" stroke="#63b8ff" d="M372.51,-273.39C295.9,-255.68 169.39,-226.27 159.25,-222.75 137.22,-215.11 113.47,-204.09 95.03,-194.87"/>
<polygon fill="#63b8ff" stroke="#63b8ff" points="371.43,-276.73 381.96,-275.57 373,-269.91 371.43,-276.73"/>
</a>
</g>
</g>
<!-- Node26 -->
<g id="Node000026" class="node">
<title>Node26</title>
<g id="a_Node000026"><a xlink:href="kest__dict__extract_8c.html#ab9eb2913c5cfcd0dd01128a9b0d3be9a" target="_top" xlink:title=" ">
<polygon fill="white" stroke="#666666" points="317.75,-394.12 159.25,-394.12 159.25,-373.38 317.75,-373.38 317.75,-394.12"/>
<text xml:space="preserve" text-anchor="middle" x="238.5" y="-380.62" font-family="Helvetica,sans-Serif" font-size="10.00">kest_extract_mem_from_dict</text>
</a>
</g>
</g>
<!-- Node11&#45;&gt;Node26 -->
<g id="edge18_Node000011_Node000026" class="edge">
<title>Node11&#45;&gt;Node26</title>
<g id="a_edge18_Node000011_Node000026"><a xlink:title=" ">
<path fill="none" stroke="#63b8ff" d="M358.04,-302.86C356.57,-303.77 355.13,-304.74 353.75,-305.75 328.98,-323.92 342.56,-346.64 317.75,-364.75 313.23,-368.05 308.22,-370.78 302.97,-373.04"/>
<polygon fill="#63b8ff" stroke="#63b8ff" points="359.63,-305.98 366.9,-298.27 356.41,-299.76 359.63,-305.98"/>
</a>
</g>
</g>
<!-- Node27 -->
<g id="Node000027" class="node">
<title>Node27</title>
<g id="a_Node000027"><a xlink:href="kest__dict__extract_8c.html#aaf0af9bba0940d4cfe5a8286222f14be" target="_top" xlink:title=" ">
<polygon fill="#fff0f0" stroke="red" points="304.62,-213.5 172.38,-213.5 172.38,-180 304.62,-180 304.62,-213.5"/>
<text xml:space="preserve" text-anchor="start" x="180.38" y="-200" font-family="Helvetica,sans-Serif" font-size="10.00">kest_extract_parameter</text>
<text xml:space="preserve" text-anchor="middle" x="238.5" y="-187.25" font-family="Helvetica,sans-Serif" font-size="10.00">_from_dict</text>
</a>
</g>
</g>
<!-- Node11&#45;&gt;Node27 -->
<g id="edge20_Node000011_Node000027" class="edge">
<title>Node11&#45;&gt;Node27</title>
<g id="a_edge20_Node000011_Node000027"><a xlink:title=" ">
<path fill="none" stroke="#63b8ff" d="M401.33,-270.41C378.81,-258.05 346.71,-241.02 317.75,-227.75 307.39,-223 296.08,-218.27 285.36,-213.98"/>
<polygon fill="#63b8ff" stroke="#63b8ff" points="399.48,-273.39 409.93,-275.16 402.87,-267.26 399.48,-273.39"/>
</a>
</g>
</g>
<!-- Node14 -->
<g id="Node000014" class="node">
<title>Node14</title>
<g id="a_Node000014"><a xlink:href="kest__dict__extract_8c.html#ad78dabb9f962180138c9dfc2bf1731e3" target="_top" xlink:title=" ">
<polygon fill="#fff0f0" stroke="red" points="123.25,-422.5 0,-422.5 0,-389 123.25,-389 123.25,-422.5"/>
<text xml:space="preserve" text-anchor="start" x="8" y="-409" font-family="Helvetica,sans-Serif" font-size="10.00">kest_extract_resource</text>
<text xml:space="preserve" text-anchor="middle" x="61.62" y="-396.25" font-family="Helvetica,sans-Serif" font-size="10.00">_from_dict</text>
</a>
</g>
</g>
<!-- Node13&#45;&gt;Node14 -->
<g id="edge13_Node000013_Node000014" class="edge">
<title>Node13&#45;&gt;Node14</title>
<g id="a_edge13_Node000013_Node000014"><a xlink:title=" ">
<path fill="none" stroke="#63b8ff" d="M173.11,-420.28C156.95,-418.16 139.66,-415.88 123.67,-413.78"/>
<polygon fill="#63b8ff" stroke="#63b8ff" points="172.21,-423.69 182.58,-421.53 173.12,-416.75 172.21,-423.69"/>
</a>
</g>
</g>
<!-- Node22&#45;&gt;Node14 -->
<g id="edge15_Node000022_Node000014" class="edge">
<title>Node22&#45;&gt;Node14</title>
<g id="a_edge15_Node000022_Node000014"><a xlink:title=" ">
<path fill="none" stroke="#63b8ff" d="M175.51,-461.1C169.97,-459.06 164.48,-456.93 159.25,-454.75 136.68,-445.34 112.12,-432.85 93.4,-422.84"/>
<polygon fill="#63b8ff" stroke="#63b8ff" points="174.14,-464.33 184.74,-464.4 176.5,-457.74 174.14,-464.33"/>
</a>
</g>
</g>
<!-- Node23&#45;&gt;Node24 -->
<g id="edge17_Node000023_Node000024" class="edge">
<title>Node23&#45;&gt;Node24</title>
<g id="a_edge17_Node000023_Node000024"><a xlink:title=" ">
<path fill="none" stroke="#63b8ff" d="M177.16,-265.01C170.99,-262.15 164.91,-259.05 159.25,-255.75 129.27,-238.26 98.78,-211.92 80.28,-194.78"/>
<polygon fill="#63b8ff" stroke="#63b8ff" points="175.65,-268.17 186.21,-268.99 178.46,-261.76 175.65,-268.17"/>
</a>
</g>
</g>
<!-- Node26&#45;&gt;Node14 -->
<g id="edge19_Node000026_Node000014" class="edge">
<title>Node26&#45;&gt;Node14</title>
<g id="a_edge19_Node000026_Node000014"><a xlink:title=" ">
<path fill="none" stroke="#63b8ff" d="M147.4,-395.09C139.35,-396.1 131.34,-397.11 123.63,-398.08"/>
<polygon fill="#63b8ff" stroke="#63b8ff" points="147.77,-398.57 157.26,-393.84 146.9,-391.62 147.77,-398.57"/>
</a>
</g>
</g>
<!-- Node30 -->
<g id="Node000030" class="node">
<title>Node30</title>
<g id="a_Node000030"><a xlink:href="kest__eff__section_8c.html#ae3909b1310f9bfcff622ae5da27d0f9f" target="_top" xlink:title=" ">
<polygon fill="white" stroke="#666666" points="496.88,-133.5 366.12,-133.5 366.12,-100 496.88,-100 496.88,-133.5"/>
<text xml:space="preserve" text-anchor="start" x="374.12" y="-120" font-family="Helvetica,sans-Serif" font-size="10.00">kest_dictionary_section</text>
<text xml:space="preserve" text-anchor="middle" x="431.5" y="-107.25" font-family="Helvetica,sans-Serif" font-size="10.00">_lookup_float</text>
</a>
</g>
</g>
<!-- Node29&#45;&gt;Node30 -->
<g id="edge23_Node000029_Node000030" class="edge">
<title>Node29&#45;&gt;Node30</title>
<g id="a_edge23_Node000029_Node000030"><a xlink:title=" ">
<path fill="none" stroke="#63b8ff" d="M545.2,-116.75C529.33,-116.75 512.7,-116.75 497.23,-116.75"/>
<polygon fill="#63b8ff" stroke="#63b8ff" points="545.09,-120.25 555.09,-116.75 545.09,-113.25 545.09,-120.25"/>
</a>
</g>
</g>
<!-- Node32 -->
<g id="Node000032" class="node">
<title>Node32</title>
<g id="a_Node000032"><a xlink:href="kest__eff__section_8c.html#a34724b43fdd4831f76af73676269a4f6" target="_top" xlink:title=" ">
<polygon fill="white" stroke="#666666" points="496.88,-81.5 366.12,-81.5 366.12,-48 496.88,-48 496.88,-81.5"/>
<text xml:space="preserve" text-anchor="start" x="374.12" y="-68" font-family="Helvetica,sans-Serif" font-size="10.00">kest_dictionary_section</text>
<text xml:space="preserve" text-anchor="middle" x="431.5" y="-55.25" font-family="Helvetica,sans-Serif" font-size="10.00">_lookup_int</text>
</a>
</g>
</g>
<!-- Node31&#45;&gt;Node32 -->
<g id="edge25_Node000031_Node000032" class="edge">
<title>Node31&#45;&gt;Node32</title>
<g id="a_edge25_Node000031_Node000032"><a xlink:title=" ">
<path fill="none" stroke="#63b8ff" d="M536.18,-66.96C523.1,-66.68 509.76,-66.4 497.19,-66.13"/>
<polygon fill="#63b8ff" stroke="#63b8ff" points="536,-70.46 546.07,-67.17 536.15,-63.46 536,-70.46"/>
</a>
</g>
</g>
<!-- Node34 -->
<g id="Node000034" class="node">
<title>Node34</title>
<g id="a_Node000034"><a xlink:href="kest__dict__extract_8c.html#ac9cee86a595df863e15b7693b86635b7" target="_top" xlink:title=" ">
<polygon fill="#fff0f0" stroke="red" points="483.75,-348.5 379.25,-348.5 379.25,-315 483.75,-315 483.75,-348.5"/>
<text xml:space="preserve" text-anchor="start" x="387.25" y="-335" font-family="Helvetica,sans-Serif" font-size="10.00">kest_extract_filter</text>
<text xml:space="preserve" text-anchor="middle" x="431.5" y="-322.25" font-family="Helvetica,sans-Serif" font-size="10.00">_coefs_from_dict</text>
</a>
</g>
</g>
<!-- Node33&#45;&gt;Node34 -->
<g id="edge27_Node000033_Node000034" class="edge">
<title>Node33&#45;&gt;Node34</title>
<g id="a_edge27_Node000033_Node000034"><a xlink:title=" ">
<path fill="none" stroke="#63b8ff" d="M535.16,-324.64C517.77,-325.84 499.97,-327.08 484.18,-328.17"/>
<polygon fill="#63b8ff" stroke="#63b8ff" points="535.27,-328.14 545,-323.96 534.78,-321.15 535.27,-328.14"/>
</a>
</g>
</g>
<!-- Node34&#45;&gt;Node22 -->
<g id="edge28_Node000034_Node000022" class="edge">
<title>Node34&#45;&gt;Node22</title>
<g id="a_edge28_Node000034_Node000022"><a xlink:title=" ">
<path fill="none" stroke="#63b8ff" d="M368.81,-346.89C363.31,-349.88 358.16,-353.46 353.75,-357.75 320.77,-389.8 350.82,-422.8 317.75,-454.75 310.34,-461.91 300.9,-467.1 291.17,-470.86"/>
<polygon fill="#63b8ff" stroke="#63b8ff" points="370.07,-350.16 377.64,-342.75 367.1,-343.82 370.07,-350.16"/>
</a>
</g>
</g>
<!-- Node36&#45;&gt;Node14 -->
<g id="edge34_Node000036_Node000014" class="edge">
<title>Node36&#45;&gt;Node14</title>
<g id="a_edge34_Node000036_Node000014"><a xlink:title=" ">
<path fill="none" stroke="#63b8ff" d="M346.87,-154.87C278.54,-150.98 188.63,-150.35 159.25,-170.75 84.43,-222.7 67.44,-343.75 63.67,-388.62"/>
<polygon fill="#63b8ff" stroke="#63b8ff" points="346.36,-158.35 356.55,-155.46 346.78,-151.36 346.36,-158.35"/>
</a>
</g>
</g>
<!-- Node36&#45;&gt;Node24 -->
<g id="edge35_Node000036_Node000024" class="edge">
<title>Node36&#45;&gt;Node24</title>
<g id="a_edge35_Node000036_Node000024"><a xlink:title=" ">
<path fill="none" stroke="#63b8ff" d="M378,-148.37C323.01,-136.39 234.36,-122.82 159.25,-137.75 136.99,-142.18 113.43,-151.82 95.15,-160.52"/>
<polygon fill="#63b8ff" stroke="#63b8ff" points="377.21,-151.78 387.73,-150.56 378.75,-144.95 377.21,-151.78"/>
</a>
</g>
</g>
<!-- Node36&#45;&gt;Node27 -->
<g id="edge33_Node000036_Node000027" class="edge">
<title>Node36&#45;&gt;Node27</title>
<g id="a_edge33_Node000036_Node000027"><a xlink:title=" ">
<path fill="none" stroke="#63b8ff" d="M360.05,-174.66C342.04,-177.96 322.75,-181.49 305,-184.75"/>
<polygon fill="#63b8ff" stroke="#63b8ff" points="360.68,-178.1 369.89,-172.86 359.42,-171.22 360.68,-178.1"/>
</a>
</g>
</g>
<!-- Node37 -->
<g id="Node000037" class="node">
<title>Node37</title>
<g id="a_Node000037"><a xlink:href="kest__eff__section_8c.html#a60a11d2e81c2d76688273fea94f38361" target="_top" xlink:title=" ">
<polygon fill="#fff0f0" stroke="red" points="303.88,-33.5 173.12,-33.5 173.12,0 303.88,0 303.88,-33.5"/>
<text xml:space="preserve" text-anchor="start" x="181.12" y="-20" font-family="Helvetica,sans-Serif" font-size="10.00">kest_dictionary_section</text>
<text xml:space="preserve" text-anchor="middle" x="238.5" y="-7.25" font-family="Helvetica,sans-Serif" font-size="10.00">_lookup_str</text>
</a>
</g>
</g>
<!-- Node36&#45;&gt;Node37 -->
<g id="edge30_Node000036_Node000037" class="edge">
<title>Node36&#45;&gt;Node37</title>
<g id="a_edge30_Node000036_Node000037"><a xlink:title=" ">
<path fill="none" stroke="#63b8ff" d="M356.16,-144.79C355.33,-144.13 354.53,-143.45 353.75,-142.75 318.68,-111.11 351.56,-75.74 317.75,-42.75 313.75,-38.85 309.16,-35.54 304.24,-32.72"/>
<polygon fill="#63b8ff" stroke="#63b8ff" points="354.07,-147.61 364.37,-150.09 357.87,-141.73 354.07,-147.61"/>
</a>
</g>
</g>
<!-- Node38 -->
<g id="Node000038" class="node">
<title>Node38</title>
<g id="a_Node000038"><a xlink:href="kest__dict__extract_8c.html#ae4dad8e5e3965fca45e94b9d877ccb97" target="_top" xlink:title=" ">
<polygon fill="white" stroke="#666666" points="309.12,-85.5 167.88,-85.5 167.88,-52 309.12,-52 309.12,-85.5"/>
<text xml:space="preserve" text-anchor="start" x="175.88" y="-72" font-family="Helvetica,sans-Serif" font-size="10.00">kest_extract_bool_setting</text>
<text xml:space="preserve" text-anchor="middle" x="238.5" y="-59.25" font-family="Helvetica,sans-Serif" font-size="10.00">_from_dict</text>
</a>
</g>
</g>
<!-- Node36&#45;&gt;Node38 -->
<g id="edge31_Node000036_Node000038" class="edge">
<title>Node36&#45;&gt;Node38</title>
<g id="a_edge31_Node000036_Node000038"><a xlink:title=" ">
<path fill="none" stroke="#63b8ff" d="M360.37,-146.47C358.09,-145.32 355.88,-144.08 353.75,-142.75 332.61,-129.55 337.96,-114.34 317.75,-99.75 310.29,-94.36 301.76,-89.75 293.14,-85.85"/>
<polygon fill="#63b8ff" stroke="#63b8ff" points="358.76,-149.58 369.32,-150.37 361.55,-143.16 358.76,-149.58"/>
</a>
</g>
</g>
<!-- Node38&#45;&gt;Node24 -->
<g id="edge32_Node000038_Node000024" class="edge">
<title>Node38&#45;&gt;Node24</title>
<g id="a_edge32_Node000038_Node000024"><a xlink:title=" ">
<path fill="none" stroke="#63b8ff" d="M177.16,-90.49C170.99,-93.35 164.91,-96.45 159.25,-99.75 129.27,-117.24 98.78,-143.58 80.28,-160.72"/>
<polygon fill="#63b8ff" stroke="#63b8ff" points="178.46,-93.74 186.21,-86.51 175.65,-87.33 178.46,-93.74"/>
</a>
</g>
</g>
</g>
</svg>

<g id="navigator" transform="translate(0 0)" fill="#404254">
  <rect fill="#f2f5e9" fill-opacity="0.5" stroke="#606060" stroke-width=".5" x="0" y="0" width="60" height="60"/>
  <use id="zoomplus" xlink:href="#zoomPlus" x="17" y="9" onmousedown="handleZoom(evt,'in')"/>
  <use id="zoomminus" xlink:href="#zoomMin" x="42" y="9" onmousedown="handleZoom(evt,'out')"/>
  <use id="reset" xlink:href="#resetDef" x="30" y="36" onmousedown="handleReset()"/>
   <use id="arrowup" xlink:href="#arrowUp" x="0" y="0" onmousedown="handlePan(0,-1)"/>
  <use id="arrowright" xlink:href="#arrowRight" x="0" y="0" onmousedown="handlePan(1,0)"/>
  <use id="arrowdown" xlink:href="#arrowDown" x="0" y="0" onmousedown="handlePan(0,1)"/>
  <use id="arrowleft" xlink:href="#arrowLeft" x="0" y="0" onmousedown="handlePan(-1,0)"/>
</g>
<svg viewBox="0 0 15 15" width="100%" height="30px" preserveAspectRatio="xMaxYMin meet">
 <g id="arrow_out" transform="scale(0.3 0.3)">
  <a xlink:href="kest__dictionary_8c_aed95d5d56052a9f450a8fca4a415cb1e_icgraph_org.svg" target="_base">
   <rect id="button" ry="5" rx="5" y="6" x="6" height="38" width="38"
        fill="#f2f5e9" fill-opacity="0.5" stroke="#606060" stroke-width="1.0"/>
   <path id="arrow"
     d="M 11.500037,31.436501 C 11.940474,20.09759 22.043105,11.32322 32.158766,21.979434 L 37.068811,17.246167 C 37.068811,17.246167 37.088388,32 37.088388,32 L 22.160133,31.978069 C 22.160133,31.978069 26.997745,27.140456 26.997745,27.140456 C 18.528582,18.264221 13.291696,25.230495 11.500037,31.436501 z"
     style="fill:#404040;"/>
  </a>
 </g>
</svg>

<style type='text/css'>
<![CDATA[
[data-mouse-over-selected='false'] { opacity: 0.7; }
[data-mouse-over-selected='true']  { opacity: 1.0; }
]]>
</style>
<script type="application/ecmascript"><![CDATA[
document.addEventListener('DOMContentLoaded', (event) => {
  highlightEdges();
  highlightAdjacentNodes();
});
]]></script>
</svg>
