<?xml version="1.0" encoding="UTF-8" standalone="no"?>
<!DOCTYPE svg PUBLIC "-//W3C//DTD SVG 1.1//EN"
 "http://www.w3.org/Graphics/SVG/1.1/DTD/svg11.dtd">
<!-- Generated by graphviz version 13.1.2 (20250808.2320)
 -->
<!-- Title: create_new_profile_with_teensy Pages: 1 -->
<svg width="961pt" height="1246pt"
 viewBox="0.00 0.00 961.00 1246.00" xmlns="http://www.w3.org/2000/svg" xmlns:xlink="http://www.w3.org/1999/xlink">
<g id="graph0" class="graph" transform="scale(1 1) rotate(0) translate(4 1241.71)">
<title>create_new_profile_with_teensy</title>
<!-- Node1 -->
<g id="Node000001" class="node">
<title>Node1</title>
<g id="a_Node000001"><a xlink:title=" ">
<polygon fill="#999999" stroke="#666666" points="109,-418.71 0,-418.71 0,-385.21 109,-385.21 109,-418.71"/>
<text xml:space="preserve" text-anchor="start" x="8" y="-405.21" font-family="Helvetica,sans-Serif" font-size="10.00">create_new_profile</text>
<text xml:space="preserve" text-anchor="middle" x="54.5" y="-392.46" font-family="Helvetica,sans-Serif" font-size="10.00">_with_teensy</text>
</a>
</g>
</g>
<!-- Node2 -->
<g id="Node000002" class="node">
<title>Node2</title>
<g id="a_Node000002"><a xlink:href="kest__profile__view_8c.html#a8a76cb40ff26bbde55ba56a4f25094d1" target="_top" xlink:title=" ">
<polygon fill="white" stroke="#666666" points="275.75,-495.34 145,-495.34 145,-474.59 275.75,-474.59 275.75,-495.34"/>
<text xml:space="preserve" text-anchor="middle" x="210.38" y="-481.84" font-family="Helvetica,sans-Serif" font-size="10.00">create_profile_view_for</text>
</a>
</g>
</g>
<!-- Node1&#45;&gt;Node2 -->
<g id="edge1_Node000001_Node000002" class="edge">
<title>Node1&#45;&gt;Node2</title>
<g id="a_edge1_Node000001_Node000002"><a xlink:title=" ">
<path fill="none" stroke="#63b8ff" d="M87.38,-419.16C114.43,-433.75 152.94,-454.52 179.42,-468.81"/>
<polygon fill="#63b8ff" stroke="#63b8ff" points="177.48,-471.74 187.94,-473.4 180.8,-465.58 177.48,-471.74"/>
</a>
</g>
</g>
<!-- Node168 -->
<g id="Node000168" class="node">
<title>Node168</title>
<g id="a_Node000168"><a xlink:href="kest__context_8c.html#a6940c938261204306d9a9b789bee846f" target="_top" xlink:title=" ">
<polygon fill="white" stroke="#666666" points="465,-182.34 311.75,-182.34 311.75,-161.59 465,-161.59 465,-182.34"/>
<text xml:space="preserve" text-anchor="middle" x="388.38" y="-168.84" font-family="Helvetica,sans-Serif" font-size="10.00">kest_context_add_profile_rp</text>
</a>
</g>
</g>
<!-- Node1&#45;&gt;Node168 -->
<g id="edge47_Node000001_Node000168" class="edge">
<title>Node1&#45;&gt;Node168</title>
<g id="a_edge47_Node000001_Node000168"><a xlink:title=" ">
<path fill="none" stroke="#63b8ff" d="M80.17,-384.87C141.65,-342.26 301.1,-231.76 362.64,-189.11"/>
<polygon fill="#63b8ff" stroke="#63b8ff" points="364.5,-192.07 370.73,-183.5 360.51,-186.32 364.5,-192.07"/>
</a>
</g>
</g>
<!-- Node3 -->
<g id="Node000003" class="node">
<title>Node3</title>
<g id="a_Node000003"><a xlink:href="kest__profile__view_8c.html#a9f9505132871c2ea372958fd06ecf10f" target="_top" xlink:title=" ">
<polygon fill="white" stroke="#666666" points="635.5,-898.34 508.5,-898.34 508.5,-877.59 635.5,-877.59 635.5,-898.34"/>
<text xml:space="preserve" text-anchor="middle" x="572" y="-884.84" font-family="Helvetica,sans-Serif" font-size="10.00">configure_profile_view</text>
</a>
</g>
</g>
<!-- Node2&#45;&gt;Node3 -->
<g id="edge2_Node000002_Node000003" class="edge">
<title>Node2&#45;&gt;Node3</title>
<g id="a_edge2_Node000002_Node000003"><a xlink:title=" ">
<path fill="none" stroke="#63b8ff" d="M216.35,-495.63C240.16,-545.52 347.77,-757.96 501,-863.96 505.95,-867.39 511.44,-870.37 517.1,-872.94"/>
<polygon fill="#63b8ff" stroke="#63b8ff" points="515.41,-876.03 525.99,-876.59 518.06,-869.56 515.41,-876.03"/>
</a>
</g>
</g>
<!-- Node6 -->
<g id="Node000006" class="node">
<title>Node6</title>
<g id="a_Node000006"><a xlink:href="kest__alloc_8c.html#a849755c5dc5b35e712ffcdb602e50fb4" target="_top" xlink:title=" ">
<polygon fill="white" stroke="#666666" points="952.5,-514.34 887.75,-514.34 887.75,-493.59 952.5,-493.59 952.5,-514.34"/>
<text xml:space="preserve" text-anchor="middle" x="920.12" y="-500.84" font-family="Helvetica,sans-Serif" font-size="10.00">kest_alloc</text>
</a>
</g>
</g>
<!-- Node2&#45;&gt;Node6 -->
<g id="edge46_Node000002_Node000006" class="edge">
<title>Node2&#45;&gt;Node6</title>
<g id="a_edge46_Node000002_Node000006"><a xlink:title=" ">
<path fill="none" stroke="#63b8ff" d="M219.71,-474.28C235.69,-454.39 272.55,-411.31 311.75,-384.96 437.45,-300.48 492.93,-284.5 643,-304.96 738.41,-317.97 777.98,-301.08 851.75,-362.96 889.18,-394.37 907.29,-451.37 914.74,-482.41"/>
<polygon fill="#63b8ff" stroke="#63b8ff" points="911.24,-482.8 916.83,-491.8 918.07,-481.28 911.24,-482.8"/>
</a>
</g>
</g>
<!-- Node111 -->
<g id="Node000111" class="node">
<title>Node111</title>
<g id="a_Node000111"><a xlink:href="kest__profile__view_8c.html#a6dce0ee803014127f1b83f16eceb96dd" target="_top" xlink:title=" ">
<polygon fill="white" stroke="#666666" points="622.38,-937.34 521.62,-937.34 521.62,-916.59 622.38,-916.59 622.38,-937.34"/>
<text xml:space="preserve" text-anchor="middle" x="572" y="-923.84" font-family="Helvetica,sans-Serif" font-size="10.00">free_profile_view</text>
</a>
</g>
</g>
<!-- Node2&#45;&gt;Node111 -->
<g id="edge20_Node000002_Node000111" class="edge">
<title>Node2&#45;&gt;Node111</title>
<g id="a_edge20_Node000002_Node000111"><a xlink:title=" ">
<path fill="none" stroke="#63b8ff" d="M212.94,-495.65C219.12,-535.03 244.91,-674.38 311.75,-764.96 374.18,-849.58 406.82,-860.19 501,-906.96 504.96,-908.93 509.15,-910.74 513.43,-912.38"/>
<polygon fill="#63b8ff" stroke="#63b8ff" points="512.14,-915.64 522.73,-915.66 514.46,-909.04 512.14,-915.64"/>
</a>
</g>
</g>
<!-- Node112 -->
<g id="Node000112" class="node">
<title>Node112</title>
<g id="a_Node000112"><a xlink:href="kest__profile__view_8c.html#abfe2cf72961d0ab0b70f858cf1281a38" target="_top" xlink:title=" ">
<polygon fill="white" stroke="#666666" points="436.88,-626.34 339.88,-626.34 339.88,-605.59 436.88,-605.59 436.88,-626.34"/>
<text xml:space="preserve" text-anchor="middle" x="388.38" y="-612.84" font-family="Helvetica,sans-Serif" font-size="10.00">init_profile_view</text>
</a>
</g>
</g>
<!-- Node2&#45;&gt;Node112 -->
<g id="edge21_Node000002_Node000112" class="edge">
<title>Node2&#45;&gt;Node112</title>
<g id="a_edge21_Node000002_Node000112"><a xlink:title=" ">
<path fill="none" stroke="#63b8ff" d="M225.78,-495.68C256.07,-518.23 326.64,-570.76 363.7,-598.34"/>
<polygon fill="#63b8ff" stroke="#63b8ff" points="361.45,-601.03 371.56,-604.19 365.63,-595.41 361.45,-601.03"/>
</a>
</g>
</g>
<!-- Node143 -->
<g id="Node000143" class="node">
<title>Node143</title>
<g id="a_Node000143"><a xlink:href="kest__ui_8c.html#aa35b25eb0a8f315343a7ea5190b0163b" target="_top" xlink:title=" ">
<polygon fill="white" stroke="#666666" points="803,-475.34 727.75,-475.34 727.75,-454.59 803,-454.59 803,-475.34"/>
<text xml:space="preserve" text-anchor="middle" x="765.38" y="-461.84" font-family="Helvetica,sans-Serif" font-size="10.00">init_ui_page</text>
</a>
</g>
</g>
<!-- Node2&#45;&gt;Node143 -->
<g id="edge45_Node000002_Node000143" class="edge">
<title>Node2&#45;&gt;Node143</title>
<g id="a_edge45_Node000002_Node000143"><a xlink:title=" ">
<path fill="none" stroke="#63b8ff" d="M230.26,-474.19C291.16,-440.87 487.5,-344.68 643,-394.96 661.78,-401.04 662.18,-410.64 679,-420.96 695.67,-431.2 714.99,-441.29 731.03,-449.23"/>
<polygon fill="#63b8ff" stroke="#63b8ff" points="729.15,-452.21 739.67,-453.44 732.22,-445.91 729.15,-452.21"/>
</a>
</g>
</g>
<!-- Node4 -->
<g id="Node000004" class="node">
<title>Node4</title>
<g id="a_Node000004"><a xlink:href="kest__profile__settings_8c.html#ac5120bad91f723143bd3cf720e860fa5" target="_top" xlink:title=" ">
<polygon fill="#fff0f0" stroke="red" points="851.38,-553.34 679.38,-553.34 679.38,-532.59 851.38,-532.59 851.38,-553.34"/>
<text xml:space="preserve" text-anchor="middle" x="765.38" y="-539.84" font-family="Helvetica,sans-Serif" font-size="10.00">configure_profile_settings_page</text>
</a>
</g>
</g>
<!-- Node3&#45;&gt;Node4 -->
<g id="edge3_Node000003_Node000004" class="edge">
<title>Node3&#45;&gt;Node4</title>
<g id="a_edge3_Node000003_Node000004"><a xlink:title=" ">
<path fill="none" stroke="#63b8ff" d="M593.48,-877.09C609.75,-867.31 631.59,-851.34 643,-830.96 701.72,-726.1 598.22,-651.95 679,-562.96 679.72,-562.18 680.46,-561.41 681.22,-560.68"/>
<polygon fill="#63b8ff" stroke="#63b8ff" points="683.17,-563.6 688.99,-554.74 678.92,-558.04 683.17,-563.6"/>
</a>
</g>
</g>
<!-- Node17 -->
<g id="Node000017" class="node">
<title>Node17</title>
<g id="a_Node000017"><a xlink:href="kest__effect__select_8c.html#acd3eb99039d7b3531035a87718ae6948" target="_top" xlink:title=" ">
<polygon fill="#fff0f0" stroke="red" points="833.38,-1147.34 697.38,-1147.34 697.38,-1126.59 833.38,-1126.59 833.38,-1147.34"/>
<text xml:space="preserve" text-anchor="middle" x="765.38" y="-1133.84" font-family="Helvetica,sans-Serif" font-size="10.00">enter_effect_selector_cb</text>
</a>
</g>
</g>
<!-- Node3&#45;&gt;Node17 -->
<g id="edge4_Node000003_Node000017" class="edge">
<title>Node3&#45;&gt;Node17</title>
<g id="a_edge4_Node000003_Node000017"><a xlink:title=" ">
<path fill="none" stroke="#63b8ff" d="M631.52,-898.81C635.79,-901.28 639.71,-904.3 643,-907.96 705.96,-978.11 614.36,-1048.36 679,-1116.96 681.48,-1119.59 684.23,-1121.91 687.18,-1123.94"/>
<polygon fill="#63b8ff" stroke="#63b8ff" points="685.46,-1126.99 695.9,-1128.8 688.86,-1120.87 685.46,-1126.99"/>
</a>
</g>
</g>
<!-- Node19 -->
<g id="Node000019" class="node">
<title>Node19</title>
<g id="a_Node000019"><a xlink:href="kest__button_8c.html#a760fe364ce4f5be2c972ff685e2f9825" target="_top" xlink:title=" ">
<polygon fill="#fff0f0" stroke="red" points="822.12,-719.71 708.62,-719.71 708.62,-686.21 822.12,-686.21 822.12,-719.71"/>
<text xml:space="preserve" text-anchor="start" x="716.62" y="-706.21" font-family="Helvetica,sans-Serif" font-size="10.00">kest_active_button</text>
<text xml:space="preserve" text-anchor="middle" x="765.38" y="-693.46" font-family="Helvetica,sans-Serif" font-size="10.00">_array_append_new</text>
</a>
</g>
</g>
<!-- Node3&#45;&gt;Node19 -->
<g id="edge5_Node000003_Node000019" class="edge">
<title>Node3&#45;&gt;Node19</title>
<g id="a_edge5_Node000003_Node000019"><a xlink:title=" ">
<path fill="none" stroke="#63b8ff" d="M624.02,-877.22C631.1,-873.91 637.74,-869.6 643,-863.96 685.35,-818.55 635.87,-773.64 679,-728.96 684.35,-723.42 690.84,-719.05 697.83,-715.61"/>
<polygon fill="#63b8ff" stroke="#63b8ff" points="699.09,-718.88 706.96,-711.78 696.38,-712.42 699.09,-718.88"/>
</a>
</g>
</g>
<!-- Node57 -->
<g id="Node000057" class="node">
<title>Node57</title>
<g id="a_Node000057"><a xlink:href="kest__button_8c.html#a21a7b8dcd7ffa25a3e7d230fa6a7d985" target="_top" xlink:title=" ">
<polygon fill="white" stroke="#666666" points="822.12,-592.34 708.62,-592.34 708.62,-571.59 822.12,-571.59 822.12,-592.34"/>
<text xml:space="preserve" text-anchor="middle" x="765.38" y="-578.84" font-family="Helvetica,sans-Serif" font-size="10.00">kest_button_disable</text>
</a>
</g>
</g>
<!-- Node3&#45;&gt;Node57 -->
<g id="edge8_Node000003_Node000057" class="edge">
<title>Node3&#45;&gt;Node57</title>
<g id="a_edge8_Node000003_Node000057"><a xlink:title=" ">
<path fill="none" stroke="#63b8ff" d="M592.34,-877.19C608.36,-867.26 630.46,-851.03 643,-830.96 680.25,-771.36 646.49,-739.28 679,-676.96 694.94,-646.41 722.98,-617.95 742.57,-600.3"/>
<polygon fill="#63b8ff" stroke="#63b8ff" points="744.81,-602.98 750.01,-593.75 740.19,-597.72 744.81,-602.98"/>
</a>
</g>
</g>
<!-- Node58 -->
<g id="Node000058" class="node">
<title>Node58</title>
<g id="a_Node000058"><a xlink:href="kest__effect_8h.html#a262d6915b50a9a4daf4cd64e3b74b13f" target="_top" xlink:title=" ">
<polygon fill="white" stroke="#666666" points="839.75,-1108.34 691,-1108.34 691,-1087.59 839.75,-1087.59 839.75,-1108.34"/>
<text xml:space="preserve" text-anchor="middle" x="765.38" y="-1094.84" font-family="Helvetica,sans-Serif" font-size="10.00">kest_effect_init_view_page</text>
</a>
</g>
</g>
<!-- Node3&#45;&gt;Node58 -->
<g id="edge9_Node000003_Node000058" class="edge">
<title>Node3&#45;&gt;Node58</title>
<g id="a_edge9_Node000003_Node000058"><a xlink:title=" ">
<path fill="none" stroke="#63b8ff" d="M631.04,-898.76C635.47,-901.24 639.55,-904.27 643,-907.96 695.68,-964.44 624.98,-1022.77 679,-1077.96 680.02,-1079 681.08,-1080 682.18,-1080.94"/>
<polygon fill="#63b8ff" stroke="#63b8ff" points="679.84,-1083.57 690.04,-1086.41 683.83,-1077.83 679.84,-1083.57"/>
</a>
</g>
</g>
<!-- Node59 -->
<g id="Node000059" class="node">
<title>Node59</title>
<g id="a_Node000059"><a xlink:href="kest__effect_8c.html#a8f53e22436efdc0e494b297ea09db5eb" target="_top" xlink:title=" ">
<polygon fill="white" stroke="#666666" points="816.88,-1069.34 713.88,-1069.34 713.88,-1048.59 816.88,-1048.59 816.88,-1069.34"/>
<text xml:space="preserve" text-anchor="middle" x="765.38" y="-1055.84" font-family="Helvetica,sans-Serif" font-size="10.00">kest_effect_name</text>
</a>
</g>
</g>
<!-- Node3&#45;&gt;Node59 -->
<g id="edge10_Node000003_Node000059" class="edge">
<title>Node3&#45;&gt;Node59</title>
<g id="a_edge10_Node000003_Node000059"><a xlink:title=" ">
<path fill="none" stroke="#63b8ff" d="M630.47,-898.8C635.08,-901.27 639.35,-904.28 643,-907.96 685.48,-950.88 635.5,-997.09 679,-1038.96 685.63,-1045.34 693.88,-1049.83 702.63,-1052.95"/>
<polygon fill="#63b8ff" stroke="#63b8ff" points="701.43,-1056.25 712.01,-1055.7 703.4,-1049.53 701.43,-1056.25"/>
</a>
</g>
</g>
<!-- Node60 -->
<g id="Node000060" class="node">
<title>Node60</title>
<g id="a_Node000060"><a xlink:href="kest__profile_8c.html#a38013ae781ddb3a62cf9b490291662cb" target="_top" xlink:title=" ">
<polygon fill="white" stroke="#666666" points="851.75,-1030.34 679,-1030.34 679,-1009.59 851.75,-1009.59 851.75,-1030.34"/>
<text xml:space="preserve" text-anchor="middle" x="765.38" y="-1016.84" font-family="Helvetica,sans-Serif" font-size="10.00">kest_profile_add_representation</text>
</a>
</g>
</g>
<!-- Node3&#45;&gt;Node60 -->
<g id="edge11_Node000003_Node000060" class="edge">
<title>Node3&#45;&gt;Node60</title>
<g id="a_edge11_Node000003_Node000060"><a xlink:title=" ">
<path fill="none" stroke="#63b8ff" d="M629.06,-898.68C634.13,-901.16 638.89,-904.22 643,-907.96 675.73,-937.85 645.39,-972.07 679,-1000.96 679.95,-1001.78 680.93,-1002.57 681.93,-1003.32"/>
<polygon fill="#63b8ff" stroke="#63b8ff" points="679.91,-1006.18 690.25,-1008.47 683.59,-1000.23 679.91,-1006.18"/>
</a>
</g>
</g>
<!-- Node61 -->
<g id="Node000061" class="node">
<title>Node61</title>
<g id="a_Node000061"><a xlink:href="kest__profile__view_8c.html#a7fc7c03f230ebab9875f55534b681355" target="_top" xlink:title=" ">
<polygon fill="#fff0f0" stroke="red" points="818.75,-991.71 712,-991.71 712,-958.21 818.75,-958.21 818.75,-991.71"/>
<text xml:space="preserve" text-anchor="start" x="720" y="-978.21" font-family="Helvetica,sans-Serif" font-size="10.00">profile_view_enter</text>
<text xml:space="preserve" text-anchor="middle" x="765.38" y="-965.46" font-family="Helvetica,sans-Serif" font-size="10.00">_settings_page_cb</text>
</a>
</g>
</g>
<!-- Node3&#45;&gt;Node61 -->
<g id="edge12_Node000003_Node000061" class="edge">
<title>Node3&#45;&gt;Node61</title>
<g id="a_edge12_Node000003_Node000061"><a xlink:title=" ">
<path fill="none" stroke="#63b8ff" d="M623.83,-898.72C630.55,-901.2 637.13,-904.25 643,-907.96 663.49,-920.93 658.62,-935.82 679,-948.96 685.8,-953.35 693.39,-957.03 701.15,-960.11"/>
<polygon fill="#63b8ff" stroke="#63b8ff" points="699.76,-963.33 710.36,-963.43 702.14,-956.75 699.76,-963.33"/>
</a>
</g>
</g>
<!-- Node62 -->
<g id="Node000062" class="node">
<title>Node62</title>
<g id="a_Node000062"><a xlink:href="kest__profile__view_8c.html#a7a586e516fd3de15ad3ee1ff2d45ee94" target="_top" xlink:title=" ">
<polygon fill="#fff0f0" stroke="red" points="843.12,-940.34 687.62,-940.34 687.62,-919.59 843.12,-919.59 843.12,-940.34"/>
<text xml:space="preserve" text-anchor="middle" x="765.38" y="-926.84" font-family="Helvetica,sans-Serif" font-size="10.00">profile_view_play_button_cb</text>
</a>
</g>
</g>
<!-- Node3&#45;&gt;Node62 -->
<g id="edge13_Node000003_Node000062" class="edge">
<title>Node3&#45;&gt;Node62</title>
<g id="a_edge13_Node000003_Node000062"><a xlink:title=" ">
<path fill="none" stroke="#63b8ff" d="M622.28,-898.78C647.19,-904.25 677.63,-910.93 703.93,-916.7"/>
<polygon fill="#63b8ff" stroke="#63b8ff" points="702.93,-920.06 713.45,-918.79 704.43,-913.23 702.93,-920.06"/>
</a>
</g>
</g>
<!-- Node102 -->
<g id="Node000102" class="node">
<title>Node102</title>
<g id="a_Node000102"><a xlink:href="kest__profile__view_8c.html#a43e0b701625c0a8717c09f33aaaa8aa2" target="_top" xlink:title=" ">
<polygon fill="#fff0f0" stroke="red" points="837.12,-901.34 693.62,-901.34 693.62,-880.59 837.12,-880.59 837.12,-901.34"/>
<text xml:space="preserve" text-anchor="middle" x="765.38" y="-887.84" font-family="Helvetica,sans-Serif" font-size="10.00">profile_view_revert_name</text>
</a>
</g>
</g>
<!-- Node3&#45;&gt;Node102 -->
<g id="edge14_Node000003_Node000102" class="edge">
<title>Node3&#45;&gt;Node102</title>
<g id="a_edge14_Node000003_Node000102"><a xlink:title=" ">
<path fill="none" stroke="#63b8ff" d="M635.93,-888.95C650.66,-889.18 666.56,-889.43 682,-889.67"/>
<polygon fill="#63b8ff" stroke="#63b8ff" points="681.56,-893.17 691.61,-889.82 681.67,-886.17 681.56,-893.17"/>
</a>
</g>
</g>
<!-- Node104 -->
<g id="Node000104" class="node">
<title>Node104</title>
<g id="a_Node000104"><a xlink:href="kest__profile__view_8c.html#a08c96dd43f7672a21827f83800181c89" target="_top" xlink:title=" ">
<polygon fill="#fff0f0" stroke="red" points="842.38,-862.34 688.38,-862.34 688.38,-841.59 842.38,-841.59 842.38,-862.34"/>
<text xml:space="preserve" text-anchor="middle" x="765.38" y="-848.84" font-family="Helvetica,sans-Serif" font-size="10.00">profile_view_save_name_cb</text>
</a>
</g>
</g>
<!-- Node3&#45;&gt;Node104 -->
<g id="edge15_Node000003_Node000104" class="edge">
<title>Node3&#45;&gt;Node104</title>
<g id="a_edge15_Node000003_Node000104"><a xlink:title=" ">
<path fill="none" stroke="#63b8ff" d="M630.68,-877.11C651.11,-873.27 674.3,-868.91 695.56,-864.91"/>
<polygon fill="#63b8ff" stroke="#63b8ff" points="696.15,-868.36 705.33,-863.07 694.85,-861.48 696.15,-868.36"/>
</a>
</g>
</g>
<!-- Node107 -->
<g id="Node000107" class="node">
<title>Node107</title>
<g id="a_Node000107"><a xlink:href="kest__ui_8c.html#a446fd8da13243be96d2ce6a5ff1f1f7b" target="_top" xlink:title=" ">
<polygon fill="#fff0f0" stroke="red" points="824.38,-823.71 706.38,-823.71 706.38,-790.21 824.38,-790.21 824.38,-823.71"/>
<text xml:space="preserve" text-anchor="start" x="714.38" y="-810.21" font-family="Helvetica,sans-Serif" font-size="10.00">ui_page_add_bottom</text>
<text xml:space="preserve" text-anchor="middle" x="765.38" y="-797.46" font-family="Helvetica,sans-Serif" font-size="10.00">_button</text>
</a>
</g>
</g>
<!-- Node3&#45;&gt;Node107 -->
<g id="edge16_Node000003_Node000107" class="edge">
<title>Node3&#45;&gt;Node107</title>
<g id="a_edge16_Node000003_Node000107"><a xlink:title=" ">
<path fill="none" stroke="#63b8ff" d="M613.02,-877.16C623.14,-873.66 633.75,-869.27 643,-863.96 661.32,-853.46 660.5,-843.15 679,-832.96 684.26,-830.07 689.88,-827.45 695.64,-825.1"/>
<polygon fill="#63b8ff" stroke="#63b8ff" points="696.57,-828.49 704.68,-821.68 694.09,-821.95 696.57,-828.49"/>
</a>
</g>
</g>
<!-- Node108 -->
<g id="Node000108" class="node">
<title>Node108</title>
<g id="a_Node000108"><a xlink:href="kest__ui_8c.html#a204baa82ce6693ec98b575b1f837158b" target="_top" xlink:title=" ">
<polygon fill="#fff0f0" stroke="red" points="831.12,-771.71 699.62,-771.71 699.62,-738.21 831.12,-738.21 831.12,-771.71"/>
<text xml:space="preserve" text-anchor="start" x="707.62" y="-758.21" font-family="Helvetica,sans-Serif" font-size="10.00">ui_page_add_left_panel</text>
<text xml:space="preserve" text-anchor="middle" x="765.38" y="-745.46" font-family="Helvetica,sans-Serif" font-size="10.00">_button</text>
</a>
</g>
</g>
<!-- Node3&#45;&gt;Node108 -->
<g id="edge17_Node000003_Node000108" class="edge">
<title>Node3&#45;&gt;Node108</title>
<g id="a_edge17_Node000003_Node000108"><a xlink:title=" ">
<path fill="none" stroke="#63b8ff" d="M621.87,-877.13C629.57,-873.83 636.96,-869.54 643,-863.96 672.53,-836.68 649,-807.74 679,-780.96 682.13,-778.17 685.56,-775.67 689.18,-773.45"/>
<polygon fill="#63b8ff" stroke="#63b8ff" points="690.62,-776.64 697.82,-768.87 687.35,-770.46 690.62,-776.64"/>
</a>
</g>
</g>
<!-- Node109 -->
<g id="Node000109" class="node">
<title>Node109</title>
<g id="a_Node000109"><a xlink:href="kest__ui_8c.html#ac03024eff746f181b01136d6bfe4c7d5" target="_top" xlink:title=" ">
<polygon fill="#fff0f0" stroke="red" points="834.12,-1237.71 696.62,-1237.71 696.62,-1204.21 834.12,-1204.21 834.12,-1237.71"/>
<text xml:space="preserve" text-anchor="start" x="704.62" y="-1224.21" font-family="Helvetica,sans-Serif" font-size="10.00">ui_page_add_right_panel</text>
<text xml:space="preserve" text-anchor="middle" x="765.38" y="-1211.46" font-family="Helvetica,sans-Serif" font-size="10.00">_button</text>
</a>
</g>
</g>
<!-- Node3&#45;&gt;Node109 -->
<g id="edge18_Node000003_Node000109" class="edge">
<title>Node3&#45;&gt;Node109</title>
<g id="a_edge18_Node000003_Node000109"><a xlink:title=" ">
<path fill="none" stroke="#63b8ff" d="M631.71,-898.65C635.94,-901.16 639.79,-904.22 643,-907.96 726.66,-1005.57 596.18,-1096.64 679,-1194.96 681.32,-1197.72 683.92,-1200.19 686.74,-1202.4"/>
<polygon fill="#63b8ff" stroke="#63b8ff" points="684.8,-1205.31 695.1,-1207.81 688.6,-1199.44 684.8,-1205.31"/>
</a>
</g>
</g>
<!-- Node110 -->
<g id="Node000110" class="node">
<title>Node110</title>
<g id="a_Node000110"><a xlink:href="kest__ui_8c.html#a142d4ec0779ace260353dfeb5a572a93" target="_top" xlink:title=" ">
<polygon fill="white" stroke="#666666" points="823.62,-1186.34 707.12,-1186.34 707.12,-1165.59 823.62,-1165.59 823.62,-1186.34"/>
<text xml:space="preserve" text-anchor="middle" x="765.38" y="-1172.84" font-family="Helvetica,sans-Serif" font-size="10.00">ui_page_set_title_rw</text>
</a>
</g>
</g>
<!-- Node3&#45;&gt;Node110 -->
<g id="edge19_Node000003_Node000110" class="edge">
<title>Node3&#45;&gt;Node110</title>
<g id="a_edge19_Node000003_Node000110"><a xlink:title=" ">
<path fill="none" stroke="#63b8ff" d="M631.63,-898.71C635.88,-901.21 639.76,-904.25 643,-907.96 716.3,-991.82 603.7,-1073.9 679,-1155.96 683.86,-1161.26 689.84,-1165.29 696.35,-1168.33"/>
<polygon fill="#63b8ff" stroke="#63b8ff" points="694.94,-1171.54 705.53,-1171.8 697.42,-1164.99 694.94,-1171.54"/>
</a>
</g>
</g>
<!-- Node19&#45;&gt;Node6 -->
<g id="edge6_Node000019_Node000006" class="edge">
<title>Node19&#45;&gt;Node6</title>
<g id="a_edge6_Node000019_Node000006"><a xlink:title=" ">
<path fill="none" stroke="#63b8ff" d="M822.2,-690.36C832.98,-685.93 843.48,-679.97 851.75,-671.96 893.77,-631.31 910.3,-561.01 916.2,-525.63"/>
<polygon fill="#63b8ff" stroke="#63b8ff" points="919.59,-526.58 917.63,-516.17 912.67,-525.53 919.59,-526.58"/>
</a>
</g>
</g>
<!-- Node7 -->
<g id="Node000007" class="node">
<title>Node7</title>
<g id="a_Node000007"><a xlink:href="kest__alloc_8c.html#a294af5728a94aa316fcf65304d388d48" target="_top" xlink:title=" ">
<polygon fill="white" stroke="#666666" points="950.62,-156.34 889.62,-156.34 889.62,-135.59 950.62,-135.59 950.62,-156.34"/>
<text xml:space="preserve" text-anchor="middle" x="920.12" y="-142.84" font-family="Helvetica,sans-Serif" font-size="10.00">kest_free</text>
</a>
</g>
</g>
<!-- Node19&#45;&gt;Node7 -->
<g id="edge7_Node000019_Node000007" class="edge">
<title>Node19&#45;&gt;Node7</title>
<g id="a_edge7_Node000019_Node000007"><a xlink:title=" ">
<path fill="none" stroke="#63b8ff" d="M785.89,-685.96C805.94,-667.27 836.33,-635.3 851.75,-600.96 887.38,-521.6 911.16,-247.77 917.46,-167.96"/>
<polygon fill="#63b8ff" stroke="#63b8ff" points="920.95,-168.25 918.23,-158.01 913.97,-167.71 920.95,-168.25"/>
</a>
</g>
</g>
<!-- Node112&#45;&gt;Node3 -->
<g id="edge22_Node000112_Node000003" class="edge">
<title>Node112&#45;&gt;Node3</title>
<g id="a_edge22_Node000112_Node000003"><a xlink:title=" ">
<path fill="none" stroke="#63b8ff" d="M395.08,-626.47C408.23,-650.92 441.37,-713.64 465,-767.96 483.17,-809.75 468.32,-832.21 501,-863.96 504.17,-867.05 507.76,-869.74 511.59,-872.08"/>
<polygon fill="#63b8ff" stroke="#63b8ff" points="509.69,-875.04 520.18,-876.53 512.91,-868.83 509.69,-875.04"/>
</a>
</g>
</g>
<!-- Node112&#45;&gt;Node6 -->
<g id="edge37_Node000112_Node000006" class="edge">
<title>Node112&#45;&gt;Node6</title>
<g id="a_edge37_Node000112_Node000006"><a xlink:title=" ">
<path fill="none" stroke="#63b8ff" d="M416.78,-626.81C433.22,-634.7 453.17,-647 465,-663.96 508.42,-726.25 441.92,-783.27 501,-830.96 550.1,-870.61 593.55,-870.18 643,-830.96 698.07,-787.28 629.25,-726.61 679,-676.96 734.79,-621.3 789.72,-685.58 851.75,-636.96 888.1,-608.48 906.51,-555.1 914.33,-525.36"/>
<polygon fill="#63b8ff" stroke="#63b8ff" points="917.64,-526.55 916.62,-516.01 910.84,-524.89 917.64,-526.55"/>
</a>
</g>
</g>
<!-- Node112&#45;&gt;Node7 -->
<g id="edge38_Node000112_Node000007" class="edge">
<title>Node112&#45;&gt;Node7</title>
<g id="a_edge38_Node000112_Node000007"><a xlink:title=" ">
<path fill="none" stroke="#63b8ff" d="M389.94,-605.36C392.85,-561.64 409.8,-393.44 501,-304.96 618.65,-190.83 704.26,-262.49 851.75,-190.96 867.33,-183.41 883.5,-172.72 896.1,-163.65"/>
<polygon fill="#63b8ff" stroke="#63b8ff" points="898.17,-166.47 904.14,-157.72 894.01,-160.84 898.17,-166.47"/>
</a>
</g>
</g>
<!-- Node112&#45;&gt;Node111 -->
<g id="edge26_Node000112_Node000111" class="edge">
<title>Node112&#45;&gt;Node111</title>
<g id="a_edge26_Node000112_Node000111"><a xlink:title=" ">
<path fill="none" stroke="#63b8ff" d="M390.14,-626.55C393.78,-668.73 413,-826.39 501,-906.96 504.07,-909.78 507.51,-912.2 511.17,-914.28"/>
<polygon fill="#63b8ff" stroke="#63b8ff" points="509.38,-917.3 519.92,-918.39 512.36,-910.97 509.38,-917.3"/>
</a>
</g>
</g>
<!-- Node113 -->
<g id="Node000113" class="node">
<title>Node113</title>
<g id="a_Node000113"><a xlink:href="kest__profile__view_8c.html#a384beb6a193abc4367c013b9e43f0da9" target="_top" xlink:title=" ">
<polygon fill="#fff0f0" stroke="red" points="635.12,-770.34 508.88,-770.34 508.88,-749.59 635.12,-749.59 635.12,-770.34"/>
<text xml:space="preserve" text-anchor="middle" x="572" y="-756.84" font-family="Helvetica,sans-Serif" font-size="10.00">create_profile_view_ui</text>
</a>
</g>
</g>
<!-- Node112&#45;&gt;Node113 -->
<g id="edge23_Node000112_Node000113" class="edge">
<title>Node112&#45;&gt;Node113</title>
<g id="a_edge23_Node000112_Node000113"><a xlink:title=" ">
<path fill="none" stroke="#63b8ff" d="M396.45,-626.58C412.4,-649.72 453.51,-705.13 501,-735.96 506.38,-739.46 512.33,-742.51 518.42,-745.14"/>
<polygon fill="#63b8ff" stroke="#63b8ff" points="516.73,-748.24 527.32,-748.65 519.3,-741.73 516.73,-748.24"/>
</a>
</g>
</g>
<!-- Node128 -->
<g id="Node000128" class="node">
<title>Node128</title>
<g id="a_Node000128"><a xlink:href="kest__profile__view_8c.html#a87a9bfc5ba520537569aaf0b190bbf59" target="_top" xlink:title=" ">
<polygon fill="white" stroke="#666666" points="625.38,-694.34 518.62,-694.34 518.62,-673.59 625.38,-673.59 625.38,-694.34"/>
<text xml:space="preserve" text-anchor="middle" x="572" y="-680.84" font-family="Helvetica,sans-Serif" font-size="10.00">enter_profile_view</text>
</a>
</g>
</g>
<!-- Node112&#45;&gt;Node128 -->
<g id="edge25_Node000112_Node000128" class="edge">
<title>Node112&#45;&gt;Node128</title>
<g id="a_edge25_Node000112_Node000128"><a xlink:title=" ">
<path fill="none" stroke="#63b8ff" d="M411.22,-626.71C433.45,-637.37 469.07,-653.69 501,-664.96 505.94,-666.71 511.11,-668.38 516.32,-669.97"/>
<polygon fill="#63b8ff" stroke="#63b8ff" points="514.97,-673.22 525.55,-672.67 516.94,-666.5 514.97,-673.22"/>
</a>
</g>
</g>
<!-- Node129 -->
<g id="Node000129" class="node">
<title>Node129</title>
<g id="a_Node000129"><a xlink:href="kest__profile__settings_8c.html#a1c60543ff9aed0e212ab514d669256f2" target="_top" xlink:title=" ">
<polygon fill="#fff0f0" stroke="red" points="643,-514.34 501,-514.34 501,-493.59 643,-493.59 643,-514.34"/>
<text xml:space="preserve" text-anchor="middle" x="572" y="-500.84" font-family="Helvetica,sans-Serif" font-size="10.00">init_profile_settings_page</text>
</a>
</g>
</g>
<!-- Node112&#45;&gt;Node129 -->
<g id="edge27_Node000112_Node000129" class="edge">
<title>Node112&#45;&gt;Node129</title>
<g id="a_edge27_Node000112_Node000129"><a xlink:title=" ">
<path fill="none" stroke="#63b8ff" d="M399.04,-605.32C417.16,-586.03 458.26,-545.21 501,-522.96 503.88,-521.47 506.89,-520.08 509.97,-518.79"/>
<polygon fill="#63b8ff" stroke="#63b8ff" points="511.1,-522.1 519.25,-515.33 508.66,-515.55 511.1,-522.1"/>
</a>
</g>
</g>
<!-- Node112&#45;&gt;Node143 -->
<g id="edge32_Node000112_Node000143" class="edge">
<title>Node112&#45;&gt;Node143</title>
<g id="a_edge32_Node000112_Node000143"><a xlink:title=" ">
<path fill="none" stroke="#63b8ff" d="M394.6,-605.37C408.04,-579.38 446.67,-512.59 501,-484.96 569.5,-450.13 661.18,-452.33 716.34,-458.01"/>
<polygon fill="#63b8ff" stroke="#63b8ff" points="715.7,-461.46 726.03,-459.09 716.48,-454.5 715.7,-461.46"/>
</a>
</g>
</g>
<!-- Node144 -->
<g id="Node000144" class="node">
<title>Node144</title>
<g id="a_Node000144"><a xlink:href="kest__ui_8c.html#a01360963fabe989a816b58c78cbc041b" target="_top" xlink:title=" ">
<polygon fill="#fff0f0" stroke="red" points="799.62,-514.34 731.12,-514.34 731.12,-493.59 799.62,-493.59 799.62,-514.34"/>
<text xml:space="preserve" text-anchor="middle" x="765.38" y="-500.84" font-family="Helvetica,sans-Serif" font-size="10.00">new_panel</text>
</a>
</g>
</g>
<!-- Node112&#45;&gt;Node144 -->
<g id="edge39_Node000112_Node000144" class="edge">
<title>Node112&#45;&gt;Node144</title>
<g id="a_edge39_Node000112_Node000144"><a xlink:title=" ">
<path fill="none" stroke="#63b8ff" d="M398.45,-626.68C415.9,-646.36 456.39,-687.63 501,-702.96 560.68,-723.48 594.17,-742.95 643,-702.96 705.78,-651.55 622.53,-582.25 679,-523.96 689.64,-512.99 705.06,-507.54 719.88,-504.98"/>
<polygon fill="#63b8ff" stroke="#63b8ff" points="720.04,-508.49 729.51,-503.74 719.14,-501.55 720.04,-508.49"/>
</a>
</g>
</g>
<!-- Node148 -->
<g id="Node000148" class="node">
<title>Node148</title>
<g id="a_Node000148"><a xlink:href="kest__button_8c.html#aa8b7e33df0eaac17a63df490fcdadc60" target="_top" xlink:title=" ">
<polygon fill="#fff0f0" stroke="red" points="626.12,-821.71 517.88,-821.71 517.88,-788.21 626.12,-788.21 626.12,-821.71"/>
<text xml:space="preserve" text-anchor="start" x="525.88" y="-808.21" font-family="Helvetica,sans-Serif" font-size="10.00">kest_active_button</text>
<text xml:space="preserve" text-anchor="middle" x="572" y="-795.46" font-family="Helvetica,sans-Serif" font-size="10.00">_array_new</text>
</a>
</g>
</g>
<!-- Node112&#45;&gt;Node148 -->
<g id="edge33_Node000112_Node000148" class="edge">
<title>Node112&#45;&gt;Node148</title>
<g id="a_edge33_Node000112_Node000148"><a xlink:title=" ">
<path fill="none" stroke="#63b8ff" d="M393.93,-626.79C406.6,-655.66 445.04,-735.27 501,-778.96 503.11,-780.61 505.34,-782.17 507.65,-783.63"/>
<polygon fill="#63b8ff" stroke="#63b8ff" points="505.77,-786.59 516.21,-788.39 509.17,-780.47 505.77,-786.59"/>
</a>
</g>
</g>
<!-- Node150 -->
<g id="Node000150" class="node">
<title>Node150</title>
<g id="a_Node000150"><a xlink:href="kest__button_8c.html#a95418b04a55bd08c5da1f31e035bec0b" target="_top" xlink:title=" ">
<polygon fill="white" stroke="#666666" points="626.12,-347.71 517.88,-347.71 517.88,-314.21 626.12,-314.21 626.12,-347.71"/>
<text xml:space="preserve" text-anchor="start" x="525.88" y="-334.21" font-family="Helvetica,sans-Serif" font-size="10.00">kest_active_button</text>
<text xml:space="preserve" text-anchor="middle" x="572" y="-321.46" font-family="Helvetica,sans-Serif" font-size="10.00">_array_set_length</text>
</a>
</g>
</g>
<!-- Node112&#45;&gt;Node150 -->
<g id="edge35_Node000112_Node000150" class="edge">
<title>Node112&#45;&gt;Node150</title>
<g id="a_edge35_Node000112_Node000150"><a xlink:title=" ">
<path fill="none" stroke="#63b8ff" d="M393.08,-605.53C405.14,-572.46 445.67,-467.91 501,-394.96 512,-380.47 526.54,-366.56 539.52,-355.44"/>
<polygon fill="#63b8ff" stroke="#63b8ff" points="541.59,-358.27 547.04,-349.18 537.11,-352.89 541.59,-358.27"/>
</a>
</g>
</g>
<!-- Node151 -->
<g id="Node000151" class="node">
<title>Node151</title>
<g id="a_Node000151"><a xlink:href="kest__profile__view_8c.html#afdf7a635701897423b668de3c09d9383" target="_top" xlink:title=" ">
<polygon fill="#fff0f0" stroke="red" points="626.88,-655.71 517.12,-655.71 517.12,-622.21 626.88,-622.21 626.88,-655.71"/>
<text xml:space="preserve" text-anchor="start" x="525.12" y="-642.21" font-family="Helvetica,sans-Serif" font-size="10.00">profile_view_effect</text>
<text xml:space="preserve" text-anchor="middle" x="572" y="-629.46" font-family="Helvetica,sans-Serif" font-size="10.00">_click_cb</text>
</a>
</g>
</g>
<!-- Node112&#45;&gt;Node151 -->
<g id="edge40_Node000112_Node000151" class="edge">
<title>Node112&#45;&gt;Node151</title>
<g id="a_edge40_Node000112_Node000151"><a xlink:title=" ">
<path fill="none" stroke="#63b8ff" d="M437.09,-622.01C458.04,-624.66 482.98,-627.82 505.62,-630.68"/>
<polygon fill="#63b8ff" stroke="#63b8ff" points="505,-634.13 515.36,-631.92 505.88,-627.19 505,-634.13"/>
</a>
</g>
</g>
<!-- Node152 -->
<g id="Node000152" class="node">
<title>Node152</title>
<g id="a_Node000152"><a xlink:href="kest__profile__view_8c.html#aee48696f91d0ebc9e3ea2cf62e47cffe" target="_top" xlink:title=" ">
<polygon fill="#fff0f0" stroke="red" points="626.88,-565.71 517.12,-565.71 517.12,-532.21 626.88,-532.21 626.88,-565.71"/>
<text xml:space="preserve" text-anchor="start" x="525.12" y="-552.21" font-family="Helvetica,sans-Serif" font-size="10.00">profile_view_effect</text>
<text xml:space="preserve" text-anchor="middle" x="572" y="-539.46" font-family="Helvetica,sans-Serif" font-size="10.00">_delete_cb</text>
</a>
</g>
</g>
<!-- Node112&#45;&gt;Node152 -->
<g id="edge41_Node000112_Node000152" class="edge">
<title>Node112&#45;&gt;Node152</title>
<g id="a_edge41_Node000112_Node000152"><a xlink:title=" ">
<path fill="none" stroke="#63b8ff" d="M418.56,-605.2C444.23,-595.73 482.35,-581.67 514.05,-569.97"/>
<polygon fill="#63b8ff" stroke="#63b8ff" points="514.94,-573.38 523.11,-566.63 512.51,-566.81 514.94,-573.38"/>
</a>
</g>
</g>
<!-- Node163 -->
<g id="Node000163" class="node">
<title>Node163</title>
<g id="a_Node000163"><a xlink:href="kest__profile__view_8c.html#a598c3ac11cd3e68c723ef303bdc26f5c" target="_top" xlink:title=" ">
<polygon fill="#fff0f0" stroke="red" points="626.88,-437.71 517.12,-437.71 517.12,-404.21 626.88,-404.21 626.88,-437.71"/>
<text xml:space="preserve" text-anchor="start" x="525.12" y="-424.21" font-family="Helvetica,sans-Serif" font-size="10.00">profile_view_effect</text>
<text xml:space="preserve" text-anchor="middle" x="572" y="-411.46" font-family="Helvetica,sans-Serif" font-size="10.00">_moved_cb</text>
</a>
</g>
</g>
<!-- Node112&#45;&gt;Node163 -->
<g id="edge42_Node000112_Node000163" class="edge">
<title>Node112&#45;&gt;Node163</title>
<g id="a_edge42_Node000112_Node000163"><a xlink:title=" ">
<path fill="none" stroke="#63b8ff" d="M394.06,-605.26C407.06,-576.67 446.24,-497.62 501,-451.96 504.62,-448.95 508.57,-446.17 512.71,-443.63"/>
<polygon fill="#63b8ff" stroke="#63b8ff" points="514.25,-446.78 521.28,-438.85 510.84,-440.67 514.25,-446.78"/>
</a>
</g>
</g>
<!-- Node166 -->
<g id="Node000166" class="node">
<title>Node166</title>
<g id="a_Node000166"><a xlink:href="kest__profile__view_8c.html#a8d4a419595556bb686a9d03c66f1d578" target="_top" xlink:title=" ">
<polygon fill="#fff0f0" stroke="red" points="640,-604.34 504,-604.34 504,-583.59 640,-583.59 640,-604.34"/>
<text xml:space="preserve" text-anchor="middle" x="572" y="-590.84" font-family="Helvetica,sans-Serif" font-size="10.00">profile_view_rep_update</text>
</a>
</g>
</g>
<!-- Node112&#45;&gt;Node166 -->
<g id="edge43_Node000112_Node000166" class="edge">
<title>Node112&#45;&gt;Node166</title>
<g id="a_edge43_Node000112_Node000166"><a xlink:title=" ">
<path fill="none" stroke="#63b8ff" d="M437.09,-610.18C454.06,-608.13 473.64,-605.76 492.49,-603.47"/>
<polygon fill="#63b8ff" stroke="#63b8ff" points="492.79,-606.96 502.29,-602.29 491.95,-600.01 492.79,-606.96"/>
</a>
</g>
</g>
<!-- Node113&#45;&gt;Node57 -->
<g id="edge24_Node000113_Node000057" class="edge">
<title>Node113&#45;&gt;Node57</title>
<g id="a_edge24_Node000113_Node000057"><a xlink:title=" ">
<path fill="none" stroke="#63b8ff" d="M623.97,-749.17C631.06,-745.88 637.72,-741.58 643,-735.96 684.1,-692.32 636.69,-648.44 679,-605.96 684.4,-600.54 690.93,-596.32 697.93,-593.04"/>
<polygon fill="#63b8ff" stroke="#63b8ff" points="699.05,-596.36 707.06,-589.43 696.48,-589.85 699.05,-596.36"/>
</a>
</g>
</g>
<!-- Node129&#45;&gt;Node4 -->
<g id="edge28_Node000129_Node000004" class="edge">
<title>Node129&#45;&gt;Node4</title>
<g id="a_edge28_Node000129_Node000004"><a xlink:title=" ">
<path fill="none" stroke="#63b8ff" d="M626.31,-514.83C649.13,-519.48 675.98,-524.95 699.9,-529.83"/>
<polygon fill="#63b8ff" stroke="#63b8ff" points="699.04,-533.22 709.54,-531.79 700.44,-526.36 699.04,-533.22"/>
</a>
</g>
</g>
<!-- Node129&#45;&gt;Node143 -->
<g id="edge29_Node000129_Node000143" class="edge">
<title>Node129&#45;&gt;Node143</title>
<g id="a_edge29_Node000129_Node000143"><a xlink:title=" ">
<path fill="none" stroke="#63b8ff" d="M626.31,-493.1C654.47,-487.36 688.77,-480.37 716.13,-474.8"/>
<polygon fill="#63b8ff" stroke="#63b8ff" points="716.82,-478.23 725.92,-472.8 715.42,-471.37 716.82,-478.23"/>
</a>
</g>
</g>
<!-- Node129&#45;&gt;Node144 -->
<g id="edge30_Node000129_Node000144" class="edge">
<title>Node129&#45;&gt;Node144</title>
<g id="a_edge30_Node000129_Node000144"><a xlink:title=" ">
<path fill="none" stroke="#63b8ff" d="M643.45,-503.96C668.86,-503.96 696.83,-503.96 719.46,-503.96"/>
<polygon fill="#63b8ff" stroke="#63b8ff" points="719.26,-507.46 729.26,-503.96 719.26,-500.46 719.26,-507.46"/>
</a>
</g>
</g>
<!-- Node144&#45;&gt;Node6 -->
<g id="edge31_Node000144_Node000006" class="edge">
<title>Node144&#45;&gt;Node6</title>
<g id="a_edge31_Node000144_Node000006"><a xlink:title=" ">
<path fill="none" stroke="#63b8ff" d="M799.9,-503.96C822.31,-503.96 852.01,-503.96 876.16,-503.96"/>
<polygon fill="#63b8ff" stroke="#63b8ff" points="875.99,-507.46 885.99,-503.96 875.99,-500.46 875.99,-507.46"/>
</a>
</g>
</g>
<!-- Node148&#45;&gt;Node6 -->
<g id="edge34_Node000148_Node000006" class="edge">
<title>Node148&#45;&gt;Node6</title>
<g id="a_edge34_Node000148_Node000006"><a xlink:title=" ">
<path fill="none" stroke="#63b8ff" d="M626.52,-791.44C632.67,-788.14 638.38,-784.05 643,-778.96 684.77,-733.02 634.73,-687.51 679,-643.96 735.41,-588.49 786.62,-645.89 851.75,-600.96 879.49,-581.83 899.38,-547.28 910.07,-525"/>
<polygon fill="#63b8ff" stroke="#63b8ff" points="913.21,-526.54 914.18,-515.99 906.85,-523.63 913.21,-526.54"/>
</a>
</g>
</g>
<!-- Node150&#45;&gt;Node6 -->
<g id="edge36_Node000150_Node000006" class="edge">
<title>Node150&#45;&gt;Node6</title>
<g id="a_edge36_Node000150_Node000006"><a xlink:title=" ">
<path fill="none" stroke="#63b8ff" d="M626.52,-347.34C684.49,-366.36 778.49,-400.95 851.75,-445.96 869.91,-457.13 888.09,-473.13 900.98,-485.5"/>
<polygon fill="#63b8ff" stroke="#63b8ff" points="898.33,-487.8 907.91,-492.32 903.24,-482.81 898.33,-487.8"/>
</a>
</g>
</g>
<!-- Node166&#45;&gt;Node57 -->
<g id="edge44_Node000166_Node000057" class="edge">
<title>Node166&#45;&gt;Node57</title>
<g id="a_edge44_Node000166_Node000057"><a xlink:title=" ">
<path fill="none" stroke="#63b8ff" d="M640.47,-589.73C658.74,-588.59 678.52,-587.35 696.8,-586.2"/>
<polygon fill="#63b8ff" stroke="#63b8ff" points="696.99,-589.7 706.75,-585.58 696.55,-582.71 696.99,-589.7"/>
</a>
</g>
</g>
<!-- Node168&#45;&gt;Node6 -->
<g id="edge56_Node000168_Node000006" class="edge">
<title>Node168&#45;&gt;Node6</title>
<g id="a_edge56_Node000168_Node000006"><a xlink:title=" ">
<path fill="none" stroke="#63b8ff" d="M465.41,-179.02C581.8,-191.32 796.49,-220.43 851.75,-271.96 912.31,-328.45 919.53,-435.8 919.67,-481.96"/>
<polygon fill="#63b8ff" stroke="#63b8ff" points="916.17,-481.72 919.57,-491.75 923.17,-481.79 916.17,-481.72"/>
</a>
</g>
</g>
<!-- Node169 -->
<g id="Node000169" class="node">
<title>Node169</title>
<g id="a_Node000169"><a xlink:href="kest__profile_8c.html#a7b50c42b3345fa0351fae2af60150ab1" target="_top" xlink:title=" ">
<polygon fill="white" stroke="#666666" points="608.12,-53.34 535.88,-53.34 535.88,-32.59 608.12,-32.59 608.12,-53.34"/>
<text xml:space="preserve" text-anchor="middle" x="572" y="-39.84" font-family="Helvetica,sans-Serif" font-size="10.00">free_profile</text>
</a>
</g>
</g>
<!-- Node168&#45;&gt;Node169 -->
<g id="edge48_Node000168_Node000169" class="edge">
<title>Node168&#45;&gt;Node169</title>
<g id="a_edge48_Node000168_Node000169"><a xlink:title=" ">
<path fill="none" stroke="#63b8ff" d="M404.55,-161.19C435.93,-138.9 508.23,-87.55 546.38,-60.45"/>
<polygon fill="#63b8ff" stroke="#63b8ff" points="548.38,-63.32 554.51,-54.68 544.33,-57.61 548.38,-63.32"/>
</a>
</g>
</g>
<!-- Node172 -->
<g id="Node000172" class="node">
<title>Node172</title>
<g id="a_Node000172"><a xlink:href="kest__profile_8c.html#a417513ac62c9729d2ade560580ca6618" target="_top" xlink:title=" ">
<polygon fill="white" stroke="#666666" points="613.75,-162.34 530.25,-162.34 530.25,-141.59 613.75,-141.59 613.75,-162.34"/>
<text xml:space="preserve" text-anchor="middle" x="572" y="-148.84" font-family="Helvetica,sans-Serif" font-size="10.00">init_m_profile</text>
</a>
</g>
</g>
<!-- Node168&#45;&gt;Node172 -->
<g id="edge52_Node000168_Node000172" class="edge">
<title>Node168&#45;&gt;Node172</title>
<g id="a_edge52_Node000168_Node000172"><a xlink:title=" ">
<path fill="none" stroke="#63b8ff" d="M465.35,-163.6C483.36,-161.62 502.16,-159.54 518.83,-157.71"/>
<polygon fill="#63b8ff" stroke="#63b8ff" points="518.94,-161.22 528.49,-156.65 518.17,-154.26 518.94,-161.22"/>
</a>
</g>
</g>
<!-- Node169&#45;&gt;Node7 -->
<g id="edge51_Node000169_Node000007" class="edge">
<title>Node169&#45;&gt;Node7</title>
<g id="a_edge51_Node000169_Node000007"><a xlink:title=" ">
<path fill="none" stroke="#63b8ff" d="M598.66,-32.21C650.58,-12.27 770.08,24.23 851.75,-23.96 888.58,-45.7 906.67,-95.58 914.34,-124.38"/>
<polygon fill="#63b8ff" stroke="#63b8ff" points="910.87,-124.94 916.65,-133.82 917.67,-123.27 910.87,-124.94"/>
</a>
</g>
</g>
<!-- Node170 -->
<g id="Node000170" class="node">
<title>Node170</title>
<g id="a_Node000170"><a xlink:href="kest__profile_8c.html#a98628f676eab8e760f52eec1b9dd7281" target="_top" xlink:title=" ">
<polygon fill="#fff0f0" stroke="red" points="799.62,-53.34 731.12,-53.34 731.12,-32.59 799.62,-32.59 799.62,-53.34"/>
<text xml:space="preserve" text-anchor="middle" x="765.38" y="-39.84" font-family="Helvetica,sans-Serif" font-size="10.00">gut_profile</text>
</a>
</g>
</g>
<!-- Node169&#45;&gt;Node170 -->
<g id="edge49_Node000169_Node000170" class="edge">
<title>Node169&#45;&gt;Node170</title>
<g id="a_edge49_Node000169_Node000170"><a xlink:title=" ">
<path fill="none" stroke="#63b8ff" d="M608.55,-42.96C639.88,-42.96 685.67,-42.96 719.51,-42.96"/>
<polygon fill="#63b8ff" stroke="#63b8ff" points="719.43,-46.46 729.43,-42.96 719.43,-39.46 719.43,-46.46"/>
</a>
</g>
</g>
<!-- Node170&#45;&gt;Node7 -->
<g id="edge50_Node000170_Node000007" class="edge">
<title>Node170&#45;&gt;Node7</title>
<g id="a_edge50_Node000170_Node000007"><a xlink:title=" ">
<path fill="none" stroke="#63b8ff" d="M799.96,-45.2C816.56,-47.56 836.28,-52.33 851.75,-61.96 876.81,-77.57 896.59,-105.88 908.06,-125.28"/>
<polygon fill="#63b8ff" stroke="#63b8ff" points="904.99,-126.96 912.96,-133.95 911.09,-123.52 904.99,-126.96"/>
</a>
</g>
</g>
<!-- Node173 -->
<g id="Node000173" class="node">
<title>Node173</title>
<g id="a_Node000173"><a xlink:href="kest__pipeline_8c.html#a5854d23849b879b4c5632bd23cac4ada" target="_top" xlink:title=" ">
<polygon fill="white" stroke="#666666" points="810.88,-182.34 719.88,-182.34 719.88,-161.59 810.88,-161.59 810.88,-182.34"/>
<text xml:space="preserve" text-anchor="middle" x="765.38" y="-168.84" font-family="Helvetica,sans-Serif" font-size="10.00">init_m_pipeline</text>
</a>
</g>
</g>
<!-- Node172&#45;&gt;Node173 -->
<g id="edge53_Node000172_Node000173" class="edge">
<title>Node172&#45;&gt;Node173</title>
<g id="a_edge53_Node000172_Node000173"><a xlink:title=" ">
<path fill="none" stroke="#63b8ff" d="M614.05,-156.26C641.52,-159.13 678.01,-162.94 708.16,-166.09"/>
<polygon fill="#63b8ff" stroke="#63b8ff" points="707.56,-169.55 717.87,-167.1 708.29,-162.58 707.56,-169.55"/>
</a>
</g>
</g>
<!-- Node174 -->
<g id="Node000174" class="node">
<title>Node174</title>
<g id="a_Node000174"><a xlink:href="kest__parameter_8c.html#a2b94ddb1588d1a5af4311970bb068122" target="_top" xlink:title=" ">
<polygon fill="#fff0f0" stroke="red" points="809.38,-143.34 721.38,-143.34 721.38,-122.59 809.38,-122.59 809.38,-143.34"/>
<text xml:space="preserve" text-anchor="middle" x="765.38" y="-129.84" font-family="Helvetica,sans-Serif" font-size="10.00">init_parameter</text>
</a>
</g>
</g>
<!-- Node172&#45;&gt;Node174 -->
<g id="edge54_Node000172_Node000174" class="edge">
<title>Node172&#45;&gt;Node174</title>
<g id="a_edge54_Node000172_Node000174"><a xlink:title=" ">
<path fill="none" stroke="#63b8ff" d="M614.05,-147.89C642,-145.11 679.31,-141.41 709.76,-138.39"/>
<polygon fill="#63b8ff" stroke="#63b8ff" points="709.95,-141.89 719.56,-137.41 709.26,-134.92 709.95,-141.89"/>
</a>
</g>
</g>
<!-- Node177 -->
<g id="Node000177" class="node">
<title>Node177</title>
<g id="a_Node000177"><a xlink:href="kest__profile_8c.html#a291f067c2dd357a9bbe0a3bd156013a3" target="_top" xlink:title=" ">
<polygon fill="#fff0f0" stroke="red" points="822.88,-104.71 707.88,-104.71 707.88,-71.21 822.88,-71.21 822.88,-104.71"/>
<text xml:space="preserve" text-anchor="start" x="715.88" y="-91.21" font-family="Helvetica,sans-Serif" font-size="10.00">kest_profile_file_rep</text>
<text xml:space="preserve" text-anchor="middle" x="765.38" y="-78.46" font-family="Helvetica,sans-Serif" font-size="10.00">_update</text>
</a>
</g>
</g>
<!-- Node172&#45;&gt;Node177 -->
<g id="edge55_Node000172_Node000177" class="edge">
<title>Node172&#45;&gt;Node177</title>
<g id="a_edge55_Node000172_Node000177"><a xlink:title=" ">
<path fill="none" stroke="#63b8ff" d="M602.11,-141.1C623.34,-133.28 652.83,-122.63 679,-113.96 684.79,-112.05 690.82,-110.1 696.88,-108.19"/>
<polygon fill="#63b8ff" stroke="#63b8ff" points="697.82,-111.56 706.32,-105.23 695.73,-104.88 697.82,-111.56"/>
</a>
</g>
</g>
</g>
</svg>
