<?xml version="1.0" encoding="UTF-8" standalone="no"?>
<!DOCTYPE svg PUBLIC "-//W3C//DTD SVG 1.1//EN"
 "http://www.w3.org/Graphics/SVG/1.1/DTD/svg11.dtd">
<!-- Generated by graphviz version 13.1.2 (20250808.2320)
 -->
<!-- Title: enter_parent_page_cb Pages: 1 -->
<svg width="626pt" height="42pt"
 viewBox="0.00 0.00 626.00 42.00" xmlns="http://www.w3.org/2000/svg" xmlns:xlink="http://www.w3.org/1999/xlink">
<g id="graph0" class="graph" transform="scale(1 1) rotate(0) translate(4 37.5)">
<title>enter_parent_page_cb</title>
<!-- Node1 -->
<g id="Node000001" class="node">
<title>Node1</title>
<g id="a_Node000001"><a xlink:title=" ">
<polygon fill="#999999" stroke="#666666" points="124,-27.12 0,-27.12 0,-6.38 124,-6.38 124,-27.12"/>
<text xml:space="preserve" text-anchor="middle" x="62" y="-13.62" font-family="Helvetica,sans-Serif" font-size="10.00">enter_parent_page_cb</text>
</a>
</g>
</g>
<!-- Node2 -->
<g id="Node000002" class="node">
<title>Node2</title>
<g id="a_Node000002"><a xlink:href="kest__ui_8c.html#a8e18610dded037df6bd96330d349f186" target="_top" xlink:title=" ">
<polygon fill="white" stroke="#666666" points="302.75,-27.12 160,-27.12 160,-6.38 302.75,-6.38 302.75,-27.12"/>
<text xml:space="preserve" text-anchor="middle" x="231.38" y="-13.62" font-family="Helvetica,sans-Serif" font-size="10.00">enter_ui_page_backwards</text>
</a>
</g>
</g>
<!-- Node1&#45;&gt;Node2 -->
<g id="edge1_Node000001_Node000002" class="edge">
<title>Node1&#45;&gt;Node2</title>
<g id="a_edge1_Node000001_Node000002"><a xlink:title=" ">
<path fill="none" stroke="#63b8ff" d="M124.37,-16.75C132.17,-16.75 140.25,-16.75 148.31,-16.75"/>
<polygon fill="#63b8ff" stroke="#63b8ff" points="148.15,-20.25 158.15,-16.75 148.15,-13.25 148.15,-20.25"/>
</a>
</g>
</g>
<!-- Node3 -->
<g id="Node000003" class="node">
<title>Node3</title>
<g id="a_Node000003"><a xlink:href="kest__context_8c.html#a6292c7a2d7f0502ea5a59bbe9b552791" target="_top" xlink:title=" ">
<polygon fill="white" stroke="#666666" points="459,-33.5 338.75,-33.5 338.75,0 459,0 459,-33.5"/>
<text xml:space="preserve" text-anchor="start" x="346.75" y="-20" font-family="Helvetica,sans-Serif" font-size="10.00">kest_cxt_queue_save</text>
<text xml:space="preserve" text-anchor="middle" x="398.88" y="-7.25" font-family="Helvetica,sans-Serif" font-size="10.00">_state</text>
</a>
</g>
</g>
<!-- Node2&#45;&gt;Node3 -->
<g id="edge2_Node000002_Node000003" class="edge">
<title>Node2&#45;&gt;Node3</title>
<g id="a_edge2_Node000002_Node000003"><a xlink:title=" ">
<path fill="none" stroke="#63b8ff" d="M303.04,-16.75C310.95,-16.75 319.01,-16.75 326.93,-16.75"/>
<polygon fill="#63b8ff" stroke="#63b8ff" points="326.87,-20.25 336.87,-16.75 326.87,-13.25 326.87,-20.25"/>
</a>
</g>
</g>
<!-- Node4 -->
<g id="Node000004" class="node">
<title>Node4</title>
<g id="a_Node000004"><a xlink:href="kest__representation_8c.html#a7a4a0f32b72f47d90e3d0f5932fbe58f" target="_top" xlink:title=" ">
<polygon fill="white" stroke="#666666" points="617.5,-33.5 495,-33.5 495,0 617.5,0 617.5,-33.5"/>
<text xml:space="preserve" text-anchor="start" x="503" y="-20" font-family="Helvetica,sans-Serif" font-size="10.00">queue_representation</text>
<text xml:space="preserve" text-anchor="middle" x="556.25" y="-7.25" font-family="Helvetica,sans-Serif" font-size="10.00">_list_update</text>
</a>
</g>
</g>
<!-- Node3&#45;&gt;Node4 -->
<g id="edge3_Node000003_Node000004" class="edge">
<title>Node3&#45;&gt;Node4</title>
<g id="a_edge3_Node000003_Node000004"><a xlink:title=" ">
<path fill="none" stroke="#63b8ff" d="M459.06,-16.75C466.99,-16.75 475.19,-16.75 483.3,-16.75"/>
<polygon fill="#63b8ff" stroke="#63b8ff" points="483.17,-20.25 493.17,-16.75 483.17,-13.25 483.17,-20.25"/>
</a>
</g>
</g>
</g>
</svg>
