<?xml version="1.0" encoding="UTF-8" standalone="no"?>
<!DOCTYPE svg PUBLIC "-//W3C//DTD SVG 1.1//EN"
 "http://www.w3.org/Graphics/SVG/1.1/DTD/svg11.dtd">
<!-- Generated by graphviz version 13.1.2 (20250808.2320)
 -->
<!-- Title: kest_string_init Pages: 1 -->
<svg width="744pt" height="339pt"
 viewBox="0.00 0.00 744.00 339.00" xmlns="http://www.w3.org/2000/svg" xmlns:xlink="http://www.w3.org/1999/xlink">
<g id="graph0" class="graph" transform="scale(1 1) rotate(0) translate(4 335.12)">
<title>kest_string_init</title>
<!-- Node1 -->
<g id="Node000001" class="node">
<title>Node1</title>
<g id="a_Node000001"><a xlink:title=" ">
<polygon fill="#999999" stroke="#666666" points="736.25,-110.75 646,-110.75 646,-90 736.25,-90 736.25,-110.75"/>
<text xml:space="preserve" text-anchor="middle" x="691.12" y="-97.25" font-family="Helvetica,sans-Serif" font-size="10.00">kest_string_init</text>
</a>
</g>
</g>
<!-- Node2 -->
<g id="Node000002" class="node">
<title>Node2</title>
<g id="a_Node000002"><a xlink:href="kest__reg__format_8c.html#a2a23995382c692cce714a167deb0b94c" target="_top" xlink:title=" ">
<polygon fill="white" stroke="#666666" points="431.25,-113.12 304.25,-113.12 304.25,-79.62 431.25,-79.62 431.25,-113.12"/>
<text xml:space="preserve" text-anchor="start" x="312.25" y="-99.62" font-family="Helvetica,sans-Serif" font-size="10.00">kest_compute_register</text>
<text xml:space="preserve" text-anchor="middle" x="367.75" y="-86.88" font-family="Helvetica,sans-Serif" font-size="10.00">_formats</text>
</a>
</g>
</g>
<!-- Node1&#45;&gt;Node2 -->
<g id="edge1_Node000001_Node000002" class="edge">
<title>Node1&#45;&gt;Node2</title>
<g id="a_edge1_Node000001_Node000002"><a xlink:title=" ">
<path fill="none" stroke="#63b8ff" d="M634.56,-99.68C578.07,-98.98 490.69,-97.89 431.68,-97.16"/>
<polygon fill="#63b8ff" stroke="#63b8ff" points="634.22,-103.18 644.26,-99.8 634.31,-96.18 634.22,-103.18"/>
</a>
</g>
</g>
<!-- Node9 -->
<g id="Node000009" class="node">
<title>Node9</title>
<g id="a_Node000009"><a xlink:href="kest__dictionary_8c.html#a298bc3ea15bffee0e485de36aea099c2" target="_top" xlink:title=" ">
<polygon fill="white" stroke="#666666" points="591.25,-200.12 486,-200.12 486,-166.62 591.25,-166.62 591.25,-200.12"/>
<text xml:space="preserve" text-anchor="start" x="494" y="-186.62" font-family="Helvetica,sans-Serif" font-size="10.00">kest_dict_entry_to</text>
<text xml:space="preserve" text-anchor="middle" x="538.62" y="-173.88" font-family="Helvetica,sans-Serif" font-size="10.00">_string</text>
</a>
</g>
</g>
<!-- Node1&#45;&gt;Node9 -->
<g id="edge4_Node000001_Node000009" class="edge">
<title>Node1&#45;&gt;Node9</title>
<g id="a_edge4_Node000001_Node000009"><a xlink:title=" ">
<path fill="none" stroke="#63b8ff" d="M665.81,-117.62C650.24,-128.29 629.39,-141.9 610,-152.38 600.96,-157.26 590.98,-162.01 581.46,-166.27"/>
<polygon fill="#63b8ff" stroke="#63b8ff" points="667.75,-120.53 673.97,-111.96 663.76,-114.78 667.75,-120.53"/>
</a>
</g>
</g>
<!-- Node20 -->
<g id="Node000020" class="node">
<title>Node20</title>
<g id="a_Node000020"><a xlink:href="kest__dictionary_8c.html#a2a60847422026db5eab8103cd8ea1dc5" target="_top" xlink:title=" ">
<polygon fill="white" stroke="#666666" points="398.62,-151.75 336.88,-151.75 336.88,-131 398.62,-131 398.62,-151.75"/>
<text xml:space="preserve" text-anchor="middle" x="367.75" y="-138.25" font-family="Helvetica,sans-Serif" font-size="10.00">print_dict</text>
</a>
</g>
</g>
<!-- Node1&#45;&gt;Node20 -->
<g id="edge20_Node000001_Node000020" class="edge">
<title>Node1&#45;&gt;Node20</title>
<g id="a_edge20_Node000001_Node000020"><a xlink:title=" ">
<path fill="none" stroke="#63b8ff" d="M634.3,-108.95C626.15,-110.14 617.86,-111.31 610,-112.38 534.12,-122.62 444.57,-132.91 398.87,-138.04"/>
<polygon fill="#63b8ff" stroke="#63b8ff" points="634.78,-112.42 644.16,-107.49 633.76,-105.49 634.78,-112.42"/>
</a>
</g>
</g>
<!-- Node21 -->
<g id="Node000021" class="node">
<title>Node21</title>
<g id="a_Node000021"><a xlink:href="kest__fixed__point_8c.html#ac5145d24cb0e25a237f9c8d30b8fc0d2" target="_top" xlink:title=" ">
<polygon fill="white" stroke="#666666" points="610,-72.12 467.25,-72.12 467.25,-38.62 610,-38.62 610,-72.12"/>
<text xml:space="preserve" text-anchor="start" x="475.25" y="-58.62" font-family="Helvetica,sans-Serif" font-size="10.00">kest_expression_compute</text>
<text xml:space="preserve" text-anchor="middle" x="538.62" y="-45.88" font-family="Helvetica,sans-Serif" font-size="10.00">_format</text>
</a>
</g>
</g>
<!-- Node1&#45;&gt;Node21 -->
<g id="edge15_Node000001_Node000021" class="edge">
<title>Node1&#45;&gt;Node21</title>
<g id="a_edge15_Node000001_Node000021"><a xlink:title=" ">
<path fill="none" stroke="#63b8ff" d="M643.27,-86.37C628.66,-82 612.38,-77.13 597.12,-72.57"/>
<polygon fill="#63b8ff" stroke="#63b8ff" points="642.04,-89.65 652.63,-89.16 644.05,-82.94 642.04,-89.65"/>
</a>
</g>
</g>
<!-- Node23 -->
<g id="Node000023" class="node">
<title>Node23</title>
<g id="a_Node000023"><a xlink:href="kest__string_8c.html#a1e3414d3bea5e036ae3764f8a90748ea" target="_top" xlink:title=" ">
<polygon fill="white" stroke="#666666" points="607,-20.75 470.25,-20.75 470.25,0 607,0 607,-20.75"/>
<text xml:space="preserve" text-anchor="middle" x="538.62" y="-7.25" font-family="Helvetica,sans-Serif" font-size="10.00">kest_string_init_from_str</text>
</a>
</g>
</g>
<!-- Node1&#45;&gt;Node23 -->
<g id="edge19_Node000001_Node000023" class="edge">
<title>Node1&#45;&gt;Node23</title>
<g id="a_edge19_Node000001_Node000023"><a xlink:title=" ">
<path fill="none" stroke="#63b8ff" d="M673.47,-81.34C658.41,-65.26 634.85,-42.77 610,-29.38 603.98,-26.13 597.38,-23.41 590.69,-21.14"/>
<polygon fill="#63b8ff" stroke="#63b8ff" points="670.58,-83.36 679.9,-88.4 675.75,-78.65 670.58,-83.36"/>
</a>
</g>
</g>
<!-- Node3 -->
<g id="Node000003" class="node">
<title>Node3</title>
<g id="a_Node000003"><a xlink:href="kest__eff__parser_8c.html#a745050bced3ccd568a1223c9f6a416e0" target="_top" xlink:title=" ">
<polygon fill="white" stroke="#666666" points="267.12,-84.12 146.88,-84.12 146.88,-50.62 267.12,-50.62 267.12,-84.12"/>
<text xml:space="preserve" text-anchor="start" x="154.88" y="-70.62" font-family="Helvetica,sans-Serif" font-size="10.00">kest_parser_compute</text>
<text xml:space="preserve" text-anchor="middle" x="207" y="-57.88" font-family="Helvetica,sans-Serif" font-size="10.00">_formats</text>
</a>
</g>
</g>
<!-- Node2&#45;&gt;Node3 -->
<g id="edge2_Node000002_Node000003" class="edge">
<title>Node2&#45;&gt;Node3</title>
<g id="a_edge2_Node000002_Node000003"><a xlink:title=" ">
<path fill="none" stroke="#63b8ff" d="M292.88,-82.88C284.35,-81.32 275.74,-79.75 267.44,-78.23"/>
<polygon fill="#63b8ff" stroke="#63b8ff" points="292.05,-86.29 302.52,-84.64 293.31,-79.4 292.05,-86.29"/>
</a>
</g>
</g>
<!-- Node4 -->
<g id="Node000004" class="node">
<title>Node4</title>
<g id="a_Node000004"><a xlink:href="kest__eff__parser_8c.html#ae4618958c44389928c260fdb0e170761" target="_top" xlink:title=" ">
<polygon fill="#fff0f0" stroke="red" points="109.75,-84.12 0,-84.12 0,-50.62 109.75,-50.62 109.75,-84.12"/>
<text xml:space="preserve" text-anchor="start" x="8" y="-70.62" font-family="Helvetica,sans-Serif" font-size="10.00">kest_read_eff_desc</text>
<text xml:space="preserve" text-anchor="middle" x="54.88" y="-57.88" font-family="Helvetica,sans-Serif" font-size="10.00">_from_file</text>
</a>
</g>
</g>
<!-- Node3&#45;&gt;Node4 -->
<g id="edge3_Node000003_Node000004" class="edge">
<title>Node3&#45;&gt;Node4</title>
<g id="a_edge3_Node000003_Node000004"><a xlink:title=" ">
<path fill="none" stroke="#63b8ff" d="M135.17,-67.38C126.67,-67.38 118.1,-67.38 109.9,-67.38"/>
<polygon fill="#63b8ff" stroke="#63b8ff" points="135.15,-70.88 145.15,-67.38 135.15,-63.88 135.15,-70.88"/>
</a>
</g>
</g>
<!-- Node9&#45;&gt;Node9 -->
<g id="edge5_Node000009_Node000009" class="edge">
<title>Node9&#45;&gt;Node9</title>
<g id="a_edge5_Node000009_Node000009"><a xlink:title=" ">
<path fill="none" stroke="#63b8ff" d="M563.87,-211.84C559.58,-215.62 551.17,-218.12 538.62,-218.12 515.69,-218.12 506.55,-209.74 511.21,-200.54"/>
<polygon fill="#63b8ff" stroke="#63b8ff" points="567.31,-212.51 565.75,-202.03 560.43,-211.19 567.31,-212.51"/>
</a>
</g>
</g>
<!-- Node10 -->
<g id="Node000010" class="node">
<title>Node10</title>
<g id="a_Node000010"><a xlink:href="kest__dict__extract_8c.html#ac9cee86a595df863e15b7693b86635b7" target="_top" xlink:title=" ">
<polygon fill="white" stroke="#666666" points="420,-279.12 315.5,-279.12 315.5,-245.62 420,-245.62 420,-279.12"/>
<text xml:space="preserve" text-anchor="start" x="323.5" y="-265.62" font-family="Helvetica,sans-Serif" font-size="10.00">kest_extract_filter</text>
<text xml:space="preserve" text-anchor="middle" x="367.75" y="-252.88" font-family="Helvetica,sans-Serif" font-size="10.00">_coefs_from_dict</text>
</a>
</g>
</g>
<!-- Node9&#45;&gt;Node10 -->
<g id="edge6_Node000009_Node000010" class="edge">
<title>Node9&#45;&gt;Node10</title>
<g id="a_edge6_Node000009_Node000010"><a xlink:title=" ">
<path fill="none" stroke="#63b8ff" d="M494.58,-205.65C475.35,-215.39 452.31,-226.76 431.25,-236.38 424.84,-239.3 417.99,-242.29 411.28,-245.14"/>
<polygon fill="#63b8ff" stroke="#63b8ff" points="496.17,-208.77 503.49,-201.12 492.99,-202.53 496.17,-208.77"/>
</a>
</g>
</g>
<!-- Node16 -->
<g id="Node000016" class="node">
<title>Node16</title>
<g id="a_Node000016"><a xlink:href="kest__dictionary_8c.html#a8db4f9c511b00d7240052135e9c1ed67" target="_top" xlink:title=" ">
<polygon fill="white" stroke="#666666" points="423.75,-227.75 311.75,-227.75 311.75,-207 423.75,-207 423.75,-227.75"/>
<text xml:space="preserve" text-anchor="middle" x="367.75" y="-214.25" font-family="Helvetica,sans-Serif" font-size="10.00">kest_parse_dict_list</text>
</a>
</g>
</g>
<!-- Node9&#45;&gt;Node16 -->
<g id="edge9_Node000009_Node000016" class="edge">
<title>Node9&#45;&gt;Node16</title>
<g id="a_edge9_Node000009_Node000016"><a xlink:title=" ">
<path fill="none" stroke="#63b8ff" d="M474.57,-196.07C457.5,-199.51 439.19,-203.19 422.67,-206.52"/>
<polygon fill="#63b8ff" stroke="#63b8ff" points="474.98,-199.56 484.1,-194.15 473.6,-192.69 474.98,-199.56"/>
</a>
</g>
</g>
<!-- Node17 -->
<g id="Node000017" class="node">
<title>Node17</title>
<g id="a_Node000017"><a xlink:href="kest__dictionary_8c.html#af0aceaa93cba06fd44ad4bc50f2418e4" target="_top" xlink:title=" ">
<polygon fill="#fff0f0" stroke="red" points="263,-227.75 151,-227.75 151,-207 263,-207 263,-227.75"/>
<text xml:space="preserve" text-anchor="middle" x="207" y="-214.25" font-family="Helvetica,sans-Serif" font-size="10.00">kest_parse_dict_val</text>
</a>
</g>
</g>
<!-- Node9&#45;&gt;Node17 -->
<g id="edge12_Node000009_Node000017" class="edge">
<title>Node9&#45;&gt;Node17</title>
<g id="a_edge12_Node000009_Node000017"><a xlink:title=" ">
<path fill="none" stroke="#63b8ff" d="M474.28,-185.21C427.22,-187.11 361.53,-190.91 304.25,-198.38 288.54,-200.42 271.55,-203.49 256.27,-206.56"/>
<polygon fill="#63b8ff" stroke="#63b8ff" points="474.16,-188.72 484.02,-184.83 473.89,-181.72 474.16,-188.72"/>
</a>
</g>
</g>
<!-- Node9&#45;&gt;Node20 -->
<g id="edge13_Node000009_Node000020" class="edge">
<title>Node9&#45;&gt;Node20</title>
<g id="a_edge13_Node000009_Node000020"><a xlink:title=" ">
<path fill="none" stroke="#63b8ff" d="M474.65,-167.71C448.67,-161.25 419.79,-154.07 398.76,-148.84"/>
<polygon fill="#63b8ff" stroke="#63b8ff" points="473.56,-171.05 484.11,-170.07 475.25,-164.26 473.56,-171.05"/>
</a>
</g>
</g>
<!-- Node11 -->
<g id="Node000011" class="node">
<title>Node11</title>
<g id="a_Node000011"><a xlink:href="kest__dict__extract_8c.html#ab7acbd0287c39e5bbb08575fa2a61291" target="_top" xlink:title=" ">
<polygon fill="#fff0f0" stroke="red" points="264.12,-279.12 149.88,-279.12 149.88,-245.62 264.12,-245.62 264.12,-279.12"/>
<text xml:space="preserve" text-anchor="start" x="157.88" y="-265.62" font-family="Helvetica,sans-Serif" font-size="10.00">kest_extract_biquad</text>
<text xml:space="preserve" text-anchor="middle" x="207" y="-252.88" font-family="Helvetica,sans-Serif" font-size="10.00">_from_dict</text>
</a>
</g>
</g>
<!-- Node10&#45;&gt;Node11 -->
<g id="edge7_Node000010_Node000011" class="edge">
<title>Node10&#45;&gt;Node11</title>
<g id="a_edge7_Node000010_Node000011"><a xlink:title=" ">
<path fill="none" stroke="#63b8ff" d="M303.96,-262.38C290.93,-262.38 277.28,-262.38 264.49,-262.38"/>
<polygon fill="#63b8ff" stroke="#63b8ff" points="303.69,-265.88 313.69,-262.38 303.69,-258.88 303.69,-265.88"/>
</a>
</g>
</g>
<!-- Node15 -->
<g id="Node000015" class="node">
<title>Node15</title>
<g id="a_Node000015"><a xlink:href="kest__dict__extract_8c.html#a449de50461a34d20bba301a90a39ec05" target="_top" xlink:title=" ">
<polygon fill="#fff0f0" stroke="red" points="259.25,-331.12 154.75,-331.12 154.75,-297.62 259.25,-297.62 259.25,-331.12"/>
<text xml:space="preserve" text-anchor="start" x="162.75" y="-317.62" font-family="Helvetica,sans-Serif" font-size="10.00">kest_extract_filter</text>
<text xml:space="preserve" text-anchor="middle" x="207" y="-304.88" font-family="Helvetica,sans-Serif" font-size="10.00">_from_dict</text>
</a>
</g>
</g>
<!-- Node10&#45;&gt;Node15 -->
<g id="edge8_Node000010_Node000015" class="edge">
<title>Node10&#45;&gt;Node15</title>
<g id="a_edge8_Node000010_Node000015"><a xlink:title=" ">
<path fill="none" stroke="#63b8ff" d="M304.54,-282.75C289.65,-287.63 273.91,-292.79 259.55,-297.49"/>
<polygon fill="#63b8ff" stroke="#63b8ff" points="305.36,-286.17 313.77,-279.73 303.18,-279.52 305.36,-286.17"/>
</a>
</g>
</g>
<!-- Node16&#45;&gt;Node17 -->
<g id="edge10_Node000016_Node000017" class="edge">
<title>Node16&#45;&gt;Node17</title>
<g id="a_edge10_Node000016_Node000017"><a xlink:title=" ">
<path fill="none" stroke="#63b8ff" d="M300.46,-210.71C288.08,-210.55 275.26,-210.62 263.25,-210.91"/>
<polygon fill="#63b8ff" stroke="#63b8ff" points="300.1,-214.2 310.16,-210.89 300.23,-207.2 300.1,-214.2"/>
</a>
</g>
</g>
<!-- Node17&#45;&gt;Node16 -->
<g id="edge11_Node000017_Node000016" class="edge">
<title>Node17&#45;&gt;Node16</title>
<g id="a_edge11_Node000017_Node000016"><a xlink:title=" ">
<path fill="none" stroke="#63b8ff" d="M274.47,-224.05C286.86,-224.2 299.67,-224.13 311.67,-223.84"/>
<polygon fill="#63b8ff" stroke="#63b8ff" points="274.82,-220.55 264.76,-223.87 274.7,-227.55 274.82,-220.55"/>
</a>
</g>
</g>
<!-- Node19 -->
<g id="Node000019" class="node">
<title>Node19</title>
<g id="a_Node000019"><a xlink:href="kest__eff__section_8c.html#a4de28fb64398c9194136a2ced71e2795" target="_top" xlink:title=" ">
<polygon fill="#fff0f0" stroke="red" points="268.25,-158.12 145.75,-158.12 145.75,-124.62 268.25,-124.62 268.25,-158.12"/>
<text xml:space="preserve" text-anchor="start" x="153.75" y="-144.62" font-family="Helvetica,sans-Serif" font-size="10.00">kest_parse_dictionary</text>
<text xml:space="preserve" text-anchor="middle" x="207" y="-131.88" font-family="Helvetica,sans-Serif" font-size="10.00">_section</text>
</a>
</g>
</g>
<!-- Node20&#45;&gt;Node19 -->
<g id="edge14_Node000020_Node000019" class="edge">
<title>Node20&#45;&gt;Node19</title>
<g id="a_edge14_Node000020_Node000019"><a xlink:title=" ">
<path fill="none" stroke="#63b8ff" d="M325.13,-141.38C307.89,-141.38 287.54,-141.38 268.69,-141.38"/>
<polygon fill="#63b8ff" stroke="#63b8ff" points="325,-144.88 335,-141.38 325,-137.88 325,-144.88"/>
</a>
</g>
</g>
<!-- Node21&#45;&gt;Node2 -->
<g id="edge16_Node000021_Node000002" class="edge">
<title>Node21&#45;&gt;Node2</title>
<g id="a_edge16_Node000021_Node000002"><a xlink:title=" ">
<path fill="none" stroke="#63b8ff" d="M455.89,-75.22C447.72,-77.2 439.51,-79.19 431.58,-81.12"/>
<polygon fill="#63b8ff" stroke="#63b8ff" points="456.62,-78.64 465.51,-72.88 454.97,-71.84 456.62,-78.64"/>
</a>
</g>
</g>
<!-- Node22 -->
<g id="Node000022" class="node">
<title>Node22</title>
<g id="a_Node000022"><a xlink:href="kest__fixed__point_8c.html#af6f5122d04445665987167d50319ac6f" target="_top" xlink:title=" ">
<polygon fill="white" stroke="#666666" points="424.12,-61.12 311.38,-61.12 311.38,-27.62 424.12,-27.62 424.12,-61.12"/>
<text xml:space="preserve" text-anchor="start" x="319.38" y="-47.62" font-family="Helvetica,sans-Serif" font-size="10.00">kest_filter_compute</text>
<text xml:space="preserve" text-anchor="middle" x="367.75" y="-34.88" font-family="Helvetica,sans-Serif" font-size="10.00">_format</text>
</a>
</g>
</g>
<!-- Node21&#45;&gt;Node22 -->
<g id="edge17_Node000021_Node000022" class="edge">
<title>Node21&#45;&gt;Node22</title>
<g id="a_edge17_Node000021_Node000022"><a xlink:title=" ">
<path fill="none" stroke="#63b8ff" d="M455.6,-50.03C445.05,-49.35 434.46,-48.66 424.47,-48"/>
<polygon fill="#63b8ff" stroke="#63b8ff" points="455.27,-53.52 465.47,-50.68 455.72,-46.53 455.27,-53.52"/>
</a>
</g>
</g>
<!-- Node22&#45;&gt;Node3 -->
<g id="edge18_Node000022_Node000003" class="edge">
<title>Node22&#45;&gt;Node3</title>
<g id="a_edge18_Node000022_Node000003"><a xlink:title=" ">
<path fill="none" stroke="#63b8ff" d="M300.11,-54.03C289.3,-55.6 278.17,-57.21 267.54,-58.75"/>
<polygon fill="#63b8ff" stroke="#63b8ff" points="300.33,-57.53 309.73,-52.64 299.33,-50.61 300.33,-57.53"/>
</a>
</g>
</g>
</g>
</svg>
