<?xml version="1.0" encoding="UTF-8" standalone="no"?>
<!DOCTYPE svg PUBLIC "-//W3C//DTD SVG 1.1//EN"
 "http://www.w3.org/Graphics/SVG/1.1/DTD/svg11.dtd">
<!-- Generated by graphviz version 13.1.2 (20250808.2320)
 -->
<!-- Title: kest_effect_profile_rep_update Pages: 1 -->
<svg width="566pt" height="111pt"
 viewBox="0.00 0.00 566.00 111.00" xmlns="http://www.w3.org/2000/svg" xmlns:xlink="http://www.w3.org/1999/xlink">
<g id="graph0" class="graph" transform="scale(1 1) rotate(0) translate(4 106.75)">
<title>kest_effect_profile_rep_update</title>
<!-- Node1 -->
<g id="Node000001" class="node">
<title>Node1</title>
<g id="a_Node000001"><a xlink:title=" ">
<polygon fill="#999999" stroke="#666666" points="557.5,-66.12 450.75,-66.12 450.75,-32.62 557.5,-32.62 557.5,-66.12"/>
<text xml:space="preserve" text-anchor="start" x="458.75" y="-52.62" font-family="Helvetica,sans-Serif" font-size="10.00">kest_effect_profile</text>
<text xml:space="preserve" text-anchor="middle" x="504.12" y="-39.88" font-family="Helvetica,sans-Serif" font-size="10.00">_rep_update</text>
</a>
</g>
</g>
<!-- Node2 -->
<g id="Node000002" class="node">
<title>Node2</title>
<g id="a_Node000002"><a xlink:href="kest__effect_8c.html#a6d9927f6d82c964bd07bef5c77879010" target="_top" xlink:title=" ">
<polygon fill="white" stroke="#666666" points="414.75,-59.75 349.25,-59.75 349.25,-39 414.75,-39 414.75,-59.75"/>
<text xml:space="preserve" text-anchor="middle" x="382" y="-46.25" font-family="Helvetica,sans-Serif" font-size="10.00">init_effect</text>
</a>
</g>
</g>
<!-- Node1&#45;&gt;Node2 -->
<g id="edge1_Node000001_Node000002" class="edge">
<title>Node1&#45;&gt;Node2</title>
<g id="a_edge1_Node000001_Node000002"><a xlink:title=" ">
<path fill="none" stroke="#63b8ff" d="M439.03,-49.38C430.67,-49.38 422.41,-49.38 414.92,-49.38"/>
<polygon fill="#63b8ff" stroke="#63b8ff" points="438.92,-52.88 448.92,-49.38 438.92,-45.88 438.92,-52.88"/>
</a>
</g>
</g>
<!-- Node3 -->
<g id="Node000003" class="node">
<title>Node3</title>
<g id="a_Node000003"><a xlink:href="kest__effect_8c.html#a935977843051ad81db1a153f2956658e" target="_top" xlink:title=" ">
<polygon fill="white" stroke="#666666" points="273.5,-101.75 197.5,-101.75 197.5,-81 273.5,-81 273.5,-101.75"/>
<text xml:space="preserve" text-anchor="middle" x="235.5" y="-88.25" font-family="Helvetica,sans-Serif" font-size="10.00">clone_effect</text>
</a>
</g>
</g>
<!-- Node2&#45;&gt;Node3 -->
<g id="edge2_Node000002_Node000003" class="edge">
<title>Node2&#45;&gt;Node3</title>
<g id="a_edge2_Node000002_Node000003"><a xlink:title=" ">
<path fill="none" stroke="#63b8ff" d="M338.03,-61.86C317.63,-67.79 293.47,-74.81 273.84,-80.52"/>
<polygon fill="#63b8ff" stroke="#63b8ff" points="338.85,-65.27 347.48,-59.12 336.9,-58.55 338.85,-65.27"/>
</a>
</g>
</g>
<!-- Node6 -->
<g id="Node000006" class="node">
<title>Node6</title>
<g id="a_Node000006"><a xlink:href="kest__effect_8c.html#a85b25e44e2629962673634f965ffe304" target="_top" xlink:title=" ">
<polygon fill="white" stroke="#666666" points="313.25,-59.75 157.75,-59.75 157.75,-39 313.25,-39 313.25,-59.75"/>
<text xml:space="preserve" text-anchor="middle" x="235.5" y="-46.25" font-family="Helvetica,sans-Serif" font-size="10.00">init_effect_from_effect_desc</text>
</a>
</g>
</g>
<!-- Node2&#45;&gt;Node6 -->
<g id="edge4_Node000002_Node000006" class="edge">
<title>Node2&#45;&gt;Node6</title>
<g id="a_edge4_Node000002_Node000006"><a xlink:title=" ">
<path fill="none" stroke="#63b8ff" d="M337.51,-49.38C329.93,-49.38 321.86,-49.38 313.7,-49.38"/>
<polygon fill="#63b8ff" stroke="#63b8ff" points="337.42,-52.88 347.42,-49.38 337.42,-45.88 337.42,-52.88"/>
</a>
</g>
</g>
<!-- Node18 -->
<g id="Node000018" class="node">
<title>Node18</title>
<g id="a_Node000018"><a xlink:href="kest__effect__init_8c.html#a2e48b19e5588065e64b5003fe8f25f04" target="_top" xlink:title=" ">
<polygon fill="white" stroke="#666666" points="289.25,-20.75 181.75,-20.75 181.75,0 289.25,0 289.25,-20.75"/>
<text xml:space="preserve" text-anchor="middle" x="235.5" y="-7.25" font-family="Helvetica,sans-Serif" font-size="10.00">init_effect_of_type</text>
</a>
</g>
</g>
<!-- Node2&#45;&gt;Node18 -->
<g id="edge6_Node000002_Node000018" class="edge">
<title>Node2&#45;&gt;Node18</title>
<g id="a_edge6_Node000002_Node000018"><a xlink:title=" ">
<path fill="none" stroke="#63b8ff" d="M338.05,-37.2C329.82,-34.91 321.28,-32.55 313.25,-30.38 302.08,-27.35 289.98,-24.16 278.76,-21.24"/>
<polygon fill="#63b8ff" stroke="#63b8ff" points="336.95,-40.53 347.52,-39.86 338.84,-33.79 336.95,-40.53"/>
</a>
</g>
</g>
<!-- Node4 -->
<g id="Node000004" class="node">
<title>Node4</title>
<g id="a_Node000004"><a xlink:href="kest__pipeline_8c.html#af22e3efe71ee44cc8dcf5a46af1c05ec" target="_top" xlink:title=" ">
<polygon fill="#fff0f0" stroke="red" points="104.12,-102.75 17.62,-102.75 17.62,-82 104.12,-82 104.12,-102.75"/>
<text xml:space="preserve" text-anchor="middle" x="60.88" y="-89.25" font-family="Helvetica,sans-Serif" font-size="10.00">clone_pipeline</text>
</a>
</g>
</g>
<!-- Node3&#45;&gt;Node4 -->
<g id="edge3_Node000003_Node000004" class="edge">
<title>Node3&#45;&gt;Node4</title>
<g id="a_edge3_Node000003_Node000004"><a xlink:title=" ">
<path fill="none" stroke="#63b8ff" d="M185.71,-91.66C160.1,-91.81 129.03,-91.99 104.42,-92.13"/>
<polygon fill="#63b8ff" stroke="#63b8ff" points="185.55,-95.16 195.53,-91.6 185.51,-88.16 185.55,-95.16"/>
</a>
</g>
</g>
<!-- Node7 -->
<g id="Node000007" class="node">
<title>Node7</title>
<g id="a_Node000007"><a xlink:href="kest__pipeline_8c.html#a0eff55a4103a090993bbac228a981af6" target="_top" xlink:title=" ">
<polygon fill="#fff0f0" stroke="red" points="121.75,-64.12 0,-64.12 0,-30.62 121.75,-30.62 121.75,-64.12"/>
<text xml:space="preserve" text-anchor="start" x="8" y="-50.62" font-family="Helvetica,sans-Serif" font-size="10.00">kest_pipeline_append</text>
<text xml:space="preserve" text-anchor="middle" x="60.88" y="-37.88" font-family="Helvetica,sans-Serif" font-size="10.00">_effect_eff</text>
</a>
</g>
</g>
<!-- Node6&#45;&gt;Node7 -->
<g id="edge5_Node000006_Node000007" class="edge">
<title>Node6&#45;&gt;Node7</title>
<g id="a_edge5_Node000006_Node000007"><a xlink:title=" ">
<path fill="none" stroke="#63b8ff" d="M145.93,-48.35C137.9,-48.26 129.9,-48.16 122.2,-48.07"/>
<polygon fill="#63b8ff" stroke="#63b8ff" points="145.72,-51.85 155.76,-48.46 145.8,-44.85 145.72,-51.85"/>
</a>
</g>
</g>
</g>
</svg>
