<?xml version="1.0" encoding="UTF-8" standalone="no"?>
<!DOCTYPE svg PUBLIC "-//W3C//DTD SVG 1.1//EN"
 "http://www.w3.org/Graphics/SVG/1.1/DTD/svg11.dtd">
<!-- Generated by graphviz version 13.1.2 (20250808.2320)
 -->
<!-- Title: kest_string_len Pages: 1 -->
<svg width="552pt" height="29pt"
 viewBox="0.00 0.00 552.00 29.00" xmlns="http://www.w3.org/2000/svg" xmlns:xlink="http://www.w3.org/1999/xlink">
<g id="graph0" class="graph" transform="scale(1 1) rotate(0) translate(4 24.75)">
<title>kest_string_len</title>
<!-- Node1 -->
<g id="Node000001" class="node">
<title>Node1</title>
<g id="a_Node000001"><a xlink:title=" ">
<polygon fill="#999999" stroke="#666666" points="544,-20.75 454.5,-20.75 454.5,0 544,0 544,-20.75"/>
<text xml:space="preserve" text-anchor="middle" x="499.25" y="-7.25" font-family="Helvetica,sans-Serif" font-size="10.00">kest_string_len</text>
</a>
</g>
</g>
<!-- Node2 -->
<g id="Node000002" class="node">
<title>Node2</title>
<g id="a_Node000002"><a xlink:href="kest__dictionary_8c.html#a8db4f9c511b00d7240052135e9c1ed67" target="_top" xlink:title=" ">
<polygon fill="white" stroke="#666666" points="418.5,-20.75 306.5,-20.75 306.5,0 418.5,0 418.5,-20.75"/>
<text xml:space="preserve" text-anchor="middle" x="362.5" y="-7.25" font-family="Helvetica,sans-Serif" font-size="10.00">kest_parse_dict_list</text>
</a>
</g>
</g>
<!-- Node1&#45;&gt;Node2 -->
<g id="edge1_Node000001_Node000002" class="edge">
<title>Node1&#45;&gt;Node2</title>
<g id="a_edge1_Node000001_Node000002"><a xlink:title=" ">
<path fill="none" stroke="#63b8ff" d="M442.67,-10.38C434.71,-10.38 426.52,-10.38 418.56,-10.38"/>
<polygon fill="#63b8ff" stroke="#63b8ff" points="442.61,-13.88 452.61,-10.38 442.61,-6.88 442.61,-13.88"/>
</a>
</g>
</g>
<!-- Node3 -->
<g id="Node000003" class="node">
<title>Node3</title>
<g id="a_Node000003"><a xlink:href="kest__dictionary_8c.html#af0aceaa93cba06fd44ad4bc50f2418e4" target="_top" xlink:title=" ">
<polygon fill="white" stroke="#666666" points="270.5,-20.75 158.5,-20.75 158.5,0 270.5,0 270.5,-20.75"/>
<text xml:space="preserve" text-anchor="middle" x="214.5" y="-7.25" font-family="Helvetica,sans-Serif" font-size="10.00">kest_parse_dict_val</text>
</a>
</g>
</g>
<!-- Node2&#45;&gt;Node3 -->
<g id="edge2_Node000002_Node000003" class="edge">
<title>Node2&#45;&gt;Node3</title>
<g id="a_edge2_Node000002_Node000003"><a xlink:title=" ">
<path fill="none" stroke="#63b8ff" d="M294.97,-3.65C286.88,-3.59 278.68,-3.64 270.77,-3.81"/>
<polygon fill="#63b8ff" stroke="#63b8ff" points="294.74,-7.15 304.79,-3.79 294.84,-0.15 294.74,-7.15"/>
</a>
</g>
</g>
<!-- Node3&#45;&gt;Node2 -->
<g id="edge3_Node000003_Node000002" class="edge">
<title>Node3&#45;&gt;Node2</title>
<g id="a_edge3_Node000003_Node000002"><a xlink:title=" ">
<path fill="none" stroke="#63b8ff" d="M282.11,-17.1C290.2,-17.16 298.4,-17.11 306.3,-16.94"/>
<polygon fill="#63b8ff" stroke="#63b8ff" points="282.34,-13.6 272.29,-16.97 282.24,-20.6 282.34,-13.6"/>
</a>
</g>
</g>
<!-- Node4 -->
<g id="Node000004" class="node">
<title>Node4</title>
<g id="a_Node000004"><a xlink:href="kest__dictionary_8c.html#aae3fbdeba250be8f6dd3dfa686eb24a8" target="_top" xlink:title=" ">
<polygon fill="#fff0f0" stroke="red" points="122.5,-20.75 0,-20.75 0,0 122.5,0 122.5,-20.75"/>
<text xml:space="preserve" text-anchor="middle" x="61.25" y="-7.25" font-family="Helvetica,sans-Serif" font-size="10.00">kest_parse_dictionary</text>
</a>
</g>
</g>
<!-- Node3&#45;&gt;Node4 -->
<g id="edge4_Node000003_Node000004" class="edge">
<title>Node3&#45;&gt;Node4</title>
<g id="a_edge4_Node000003_Node000004"><a xlink:title=" ">
<path fill="none" stroke="#63b8ff" d="M146.58,-3.66C138.66,-3.59 130.62,-3.62 122.8,-3.75"/>
<polygon fill="#63b8ff" stroke="#63b8ff" points="146.47,-7.16 156.53,-3.82 146.58,-0.16 146.47,-7.16"/>
</a>
</g>
</g>
<!-- Node4&#45;&gt;Node3 -->
<g id="edge5_Node000004_Node000003" class="edge">
<title>Node4&#45;&gt;Node3</title>
<g id="a_edge5_Node000004_Node000003"><a xlink:title=" ">
<path fill="none" stroke="#63b8ff" d="M134.1,-17.12C142.14,-17.15 150.25,-17.08 158.04,-16.91"/>
<polygon fill="#63b8ff" stroke="#63b8ff" points="134.35,-13.62 124.32,-17.02 134.28,-20.62 134.35,-13.62"/>
</a>
</g>
</g>
</g>
</svg>
