<?xml version="1.0" encoding="UTF-8" standalone="no"?>
<!DOCTYPE svg PUBLIC "-//W3C//DTD SVG 1.1//EN"
 "http://www.w3.org/Graphics/SVG/1.1/DTD/svg11.dtd">
<!-- Generated by graphviz version 13.1.2 (20250808.2320)
 -->
<!-- Title: char_is_bracket Pages: 1 -->
<svg width="538pt" height="42pt"
 viewBox="0.00 0.00 538.00 42.00" xmlns="http://www.w3.org/2000/svg" xmlns:xlink="http://www.w3.org/1999/xlink">
<g id="graph0" class="graph" transform="scale(1 1) rotate(0) translate(4 37.5)">
<title>char_is_bracket</title>
<!-- Node1 -->
<g id="Node000001" class="node">
<title>Node1</title>
<g id="a_Node000001"><a xlink:title=" ">
<polygon fill="#999999" stroke="#666666" points="529.75,-27.12 438,-27.12 438,-6.38 529.75,-6.38 529.75,-27.12"/>
<text xml:space="preserve" text-anchor="middle" x="483.88" y="-13.62" font-family="Helvetica,sans-Serif" font-size="10.00">char_is_bracket</text>
</a>
</g>
</g>
<!-- Node2 -->
<g id="Node000002" class="node">
<title>Node2</title>
<g id="a_Node000002"><a xlink:href="kest__tokenizer_8c.html#ac05ce1dc9f6b52a7427a40caaa5cd67d" target="_top" xlink:title=" ">
<polygon fill="white" stroke="#666666" points="402,-27.12 306.5,-27.12 306.5,-6.38 402,-6.38 402,-27.12"/>
<text xml:space="preserve" text-anchor="middle" x="354.25" y="-13.62" font-family="Helvetica,sans-Serif" font-size="10.00">tokenizer_policy</text>
</a>
</g>
</g>
<!-- Node1&#45;&gt;Node2 -->
<g id="edge1_Node000001_Node000002" class="edge">
<title>Node1&#45;&gt;Node2</title>
<g id="a_edge1_Node000001_Node000002"><a xlink:title=" ">
<path fill="none" stroke="#63b8ff" d="M426.01,-16.75C418.05,-16.75 409.94,-16.75 402.18,-16.75"/>
<polygon fill="#63b8ff" stroke="#63b8ff" points="426.01,-20.25 436.01,-16.75 426.01,-13.25 426.01,-20.25"/>
</a>
</g>
</g>
<!-- Node3 -->
<g id="Node000003" class="node">
<title>Node3</title>
<g id="a_Node000003"><a xlink:href="kest__tokenizer_8c.html#abfb9dd70524b2bf471b98caa15f1d764" target="_top" xlink:title=" ">
<polygon fill="white" stroke="#666666" points="270.5,-27.12 145.75,-27.12 145.75,-6.38 270.5,-6.38 270.5,-27.12"/>
<text xml:space="preserve" text-anchor="middle" x="208.12" y="-13.62" font-family="Helvetica,sans-Serif" font-size="10.00">kest_tokenize_content</text>
</a>
</g>
</g>
<!-- Node2&#45;&gt;Node3 -->
<g id="edge2_Node000002_Node000003" class="edge">
<title>Node2&#45;&gt;Node3</title>
<g id="a_edge2_Node000002_Node000003"><a xlink:title=" ">
<path fill="none" stroke="#63b8ff" d="M294.74,-16.75C286.87,-16.75 278.77,-16.75 270.85,-16.75"/>
<polygon fill="#63b8ff" stroke="#63b8ff" points="294.54,-20.25 304.54,-16.75 294.54,-13.25 294.54,-20.25"/>
</a>
</g>
</g>
<!-- Node4 -->
<g id="Node000004" class="node">
<title>Node4</title>
<g id="a_Node000004"><a xlink:href="kest__eff__parser_8c.html#ae4618958c44389928c260fdb0e170761" target="_top" xlink:title=" ">
<polygon fill="#fff0f0" stroke="red" points="109.75,-33.5 0,-33.5 0,0 109.75,0 109.75,-33.5"/>
<text xml:space="preserve" text-anchor="start" x="8" y="-20" font-family="Helvetica,sans-Serif" font-size="10.00">kest_read_eff_desc</text>
<text xml:space="preserve" text-anchor="middle" x="54.88" y="-7.25" font-family="Helvetica,sans-Serif" font-size="10.00">_from_file</text>
</a>
</g>
</g>
<!-- Node3&#45;&gt;Node4 -->
<g id="edge3_Node000003_Node000004" class="edge">
<title>Node3&#45;&gt;Node4</title>
<g id="a_edge3_Node000003_Node000004"><a xlink:title=" ">
<path fill="none" stroke="#63b8ff" d="M134.18,-16.75C126.06,-16.75 117.89,-16.75 110.05,-16.75"/>
<polygon fill="#63b8ff" stroke="#63b8ff" points="134.09,-20.25 144.09,-16.75 134.09,-13.25 134.09,-20.25"/>
</a>
</g>
</g>
</g>
</svg>
