<?xml version="1.0" encoding="UTF-8" standalone="no"?>
<!DOCTYPE svg PUBLIC "-//W3C//DTD SVG 1.1//EN"
 "http://www.w3.org/Graphics/SVG/1.1/DTD/svg11.dtd">
<!-- Generated by graphviz version 13.1.2 (20250808.2320)
 -->
<!-- Title: kest_profile_append_effect_eff Pages: 1 -->
<svg width="763pt" height="215pt"
 viewBox="0.00 0.00 763.00 215.00" xmlns="http://www.w3.org/2000/svg" xmlns:xlink="http://www.w3.org/1999/xlink">
<g id="graph0" class="graph" transform="scale(1 1) rotate(0) translate(4 211.33)">
<title>kest_profile_append_effect_eff</title>
<!-- Node1 -->
<g id="Node000001" class="node">
<title>Node1</title>
<g id="a_Node000001"><a xlink:title=" ">
<polygon fill="#999999" stroke="#666666" points="114.25,-89.71 0,-89.71 0,-56.21 114.25,-56.21 114.25,-89.71"/>
<text xml:space="preserve" text-anchor="start" x="8" y="-76.21" font-family="Helvetica,sans-Serif" font-size="10.00">kest_profile_append</text>
<text xml:space="preserve" text-anchor="middle" x="57.12" y="-63.46" font-family="Helvetica,sans-Serif" font-size="10.00">_effect_eff</text>
</a>
</g>
</g>
<!-- Node2 -->
<g id="Node000002" class="node">
<title>Node2</title>
<g id="a_Node000002"><a xlink:href="kest__effect_8c.html#a45969080cfeedba828e766c3fe6670ab" target="_top" xlink:title=" ">
<polygon fill="white" stroke="#666666" points="287.75,-106.33 150.25,-106.33 150.25,-85.58 287.75,-85.58 287.75,-106.33"/>
<text xml:space="preserve" text-anchor="middle" x="219" y="-92.83" font-family="Helvetica,sans-Serif" font-size="10.00">effect_rectify_param_ids</text>
</a>
</g>
</g>
<!-- Node1&#45;&gt;Node2 -->
<g id="edge1_Node000001_Node000002" class="edge">
<title>Node1&#45;&gt;Node2</title>
<g id="a_edge1_Node000001_Node000002"><a xlink:title=" ">
<path fill="none" stroke="#63b8ff" d="M114.49,-81.07C122.25,-82.18 130.34,-83.35 138.42,-84.51"/>
<polygon fill="#63b8ff" stroke="#63b8ff" points="137.91,-87.97 148.31,-85.93 138.91,-81.04 137.91,-87.97"/>
</a>
</g>
</g>
<!-- Node3 -->
<g id="Node000003" class="node">
<title>Node3</title>
<g id="a_Node000003"><a xlink:href="kest__pipeline_8c.html#a0eff55a4103a090993bbac228a981af6" target="_top" xlink:title=" ">
<polygon fill="white" stroke="#666666" points="279.88,-67.71 158.12,-67.71 158.12,-34.21 279.88,-34.21 279.88,-67.71"/>
<text xml:space="preserve" text-anchor="start" x="166.12" y="-54.21" font-family="Helvetica,sans-Serif" font-size="10.00">kest_pipeline_append</text>
<text xml:space="preserve" text-anchor="middle" x="219" y="-41.46" font-family="Helvetica,sans-Serif" font-size="10.00">_effect_eff</text>
</a>
</g>
</g>
<!-- Node1&#45;&gt;Node3 -->
<g id="edge2_Node000001_Node000003" class="edge">
<title>Node1&#45;&gt;Node3</title>
<g id="a_edge2_Node000001_Node000003"><a xlink:title=" ">
<path fill="none" stroke="#63b8ff" d="M114.49,-65.2C124.9,-63.77 135.89,-62.26 146.68,-60.77"/>
<polygon fill="#63b8ff" stroke="#63b8ff" points="146.87,-64.28 156.3,-59.45 145.92,-57.35 146.87,-64.28"/>
</a>
</g>
</g>
<!-- Node4 -->
<g id="Node000004" class="node">
<title>Node4</title>
<g id="a_Node000004"><a xlink:href="kest__effect_8c.html#a85b25e44e2629962673634f965ffe304" target="_top" xlink:title=" ">
<polygon fill="white" stroke="#666666" points="479.25,-110.33 323.75,-110.33 323.75,-89.58 479.25,-89.58 479.25,-110.33"/>
<text xml:space="preserve" text-anchor="middle" x="401.5" y="-96.83" font-family="Helvetica,sans-Serif" font-size="10.00">init_effect_from_effect_desc</text>
</a>
</g>
</g>
<!-- Node3&#45;&gt;Node4 -->
<g id="edge3_Node000003_Node000004" class="edge">
<title>Node3&#45;&gt;Node4</title>
<g id="a_edge3_Node000003_Node000004"><a xlink:title=" ">
<path fill="none" stroke="#63b8ff" d="M280.35,-67.34C302.87,-73.46 328.19,-80.33 349.75,-86.18"/>
<polygon fill="#63b8ff" stroke="#63b8ff" points="348.63,-89.5 359.19,-88.75 350.46,-82.75 348.63,-89.5"/>
</a>
</g>
</g>
<!-- Node12 -->
<g id="Node000012" class="node">
<title>Node12</title>
<g id="a_Node000012"><a xlink:href="kest__alloc_8c.html#a849755c5dc5b35e712ffcdb602e50fb4" target="_top" xlink:title=" ">
<polygon fill="white" stroke="#666666" points="755,-84.33 690.25,-84.33 690.25,-63.58 755,-63.58 755,-84.33"/>
<text xml:space="preserve" text-anchor="middle" x="722.62" y="-70.83" font-family="Helvetica,sans-Serif" font-size="10.00">kest_alloc</text>
</a>
</g>
</g>
<!-- Node3&#45;&gt;Node12 -->
<g id="edge11_Node000003_Node000012" class="edge">
<title>Node3&#45;&gt;Node12</title>
<g id="a_edge11_Node000003_Node000012"><a xlink:title=" ">
<path fill="none" stroke="#63b8ff" d="M275.95,-33.77C360.42,-10.77 524.45,22.3 654.25,-21.96 673.79,-28.62 692.08,-43.51 704.65,-55.65"/>
<polygon fill="#63b8ff" stroke="#63b8ff" points="701.81,-57.76 711.33,-62.41 706.79,-52.84 701.81,-57.76"/>
</a>
</g>
</g>
<!-- Node5 -->
<g id="Node000005" class="node">
<title>Node5</title>
<g id="a_Node000005"><a xlink:href="kest__effect_8c.html#a6d9927f6d82c964bd07bef5c77879010" target="_top" xlink:title=" ">
<polygon fill="#fff0f0" stroke="red" points="617.5,-207.33 552,-207.33 552,-186.58 617.5,-186.58 617.5,-207.33"/>
<text xml:space="preserve" text-anchor="middle" x="584.75" y="-193.83" font-family="Helvetica,sans-Serif" font-size="10.00">init_effect</text>
</a>
</g>
</g>
<!-- Node4&#45;&gt;Node5 -->
<g id="edge4_Node000004_Node000005" class="edge">
<title>Node4&#45;&gt;Node5</title>
<g id="a_edge4_Node000004_Node000005"><a xlink:title=" ">
<path fill="none" stroke="#63b8ff" d="M414.83,-110.59C434.69,-127.22 475.59,-159.39 515.25,-177.96 523.18,-181.67 531.97,-184.78 540.54,-187.35"/>
<polygon fill="#63b8ff" stroke="#63b8ff" points="539.55,-190.71 550.13,-190 541.42,-183.96 539.55,-190.71"/>
</a>
</g>
</g>
<!-- Node19 -->
<g id="Node000019" class="node">
<title>Node19</title>
<g id="a_Node000019"><a xlink:href="kest__effect_8c.html#ad36244b2279575200cc5265d2e25dfdd" target="_top" xlink:title=" ">
<polygon fill="#fff0f0" stroke="red" points="637.75,-168.71 531.75,-168.71 531.75,-135.21 637.75,-135.21 637.75,-168.71"/>
<text xml:space="preserve" text-anchor="start" x="539.75" y="-155.21" font-family="Helvetica,sans-Serif" font-size="10.00">kest_effect_create</text>
<text xml:space="preserve" text-anchor="middle" x="584.75" y="-142.46" font-family="Helvetica,sans-Serif" font-size="10.00">_scope</text>
</a>
</g>
</g>
<!-- Node4&#45;&gt;Node19 -->
<g id="edge6_Node000004_Node000019" class="edge">
<title>Node4&#45;&gt;Node19</title>
<g id="a_edge6_Node000004_Node000019"><a xlink:title=" ">
<path fill="none" stroke="#63b8ff" d="M440.06,-110.73C463.29,-117.4 493.72,-126.13 520.59,-133.84"/>
<polygon fill="#63b8ff" stroke="#63b8ff" points="519.44,-137.15 530.01,-136.54 521.37,-130.42 519.44,-137.15"/>
</a>
</g>
</g>
<!-- Node27 -->
<g id="Node000027" class="node">
<title>Node27</title>
<g id="a_Node000027"><a xlink:href="kest__parameter_8c.html#ae948a40b754ee638db216e685c38cc61" target="_top" xlink:title=" ">
<polygon fill="#fff0f0" stroke="red" points="647.12,-116.71 522.38,-116.71 522.38,-83.21 647.12,-83.21 647.12,-116.71"/>
<text xml:space="preserve" text-anchor="start" x="530.38" y="-103.21" font-family="Helvetica,sans-Serif" font-size="10.00">kest_parameter_make</text>
<text xml:space="preserve" text-anchor="middle" x="584.75" y="-90.46" font-family="Helvetica,sans-Serif" font-size="10.00">_clone_for_effect</text>
</a>
</g>
</g>
<!-- Node4&#45;&gt;Node27 -->
<g id="edge7_Node000004_Node000027" class="edge">
<title>Node4&#45;&gt;Node27</title>
<g id="a_edge7_Node000004_Node000027"><a xlink:title=" ">
<path fill="none" stroke="#63b8ff" d="M479.63,-99.96C489.92,-99.96 500.45,-99.96 510.67,-99.96"/>
<polygon fill="#63b8ff" stroke="#63b8ff" points="510.53,-103.46 520.53,-99.96 510.53,-96.46 510.53,-103.46"/>
</a>
</g>
</g>
<!-- Node30 -->
<g id="Node000030" class="node">
<title>Node30</title>
<g id="a_Node000030"><a xlink:href="kest__parameter_8c.html#a93c254fa0bc2933e67e92e4b2acb2aac" target="_top" xlink:title=" ">
<polygon fill="#fff0f0" stroke="red" points="654.25,-64.71 515.25,-64.71 515.25,-31.21 654.25,-31.21 654.25,-64.71"/>
<text xml:space="preserve" text-anchor="start" x="523.25" y="-51.21" font-family="Helvetica,sans-Serif" font-size="10.00">kest_setting_make_clone</text>
<text xml:space="preserve" text-anchor="middle" x="584.75" y="-38.46" font-family="Helvetica,sans-Serif" font-size="10.00">_for_effect</text>
</a>
</g>
</g>
<!-- Node4&#45;&gt;Node30 -->
<g id="edge9_Node000004_Node000030" class="edge">
<title>Node4&#45;&gt;Node30</title>
<g id="a_edge9_Node000004_Node000030"><a xlink:title=" ">
<path fill="none" stroke="#63b8ff" d="M440.06,-89.19C461.1,-83.15 488.04,-75.42 512.9,-68.29"/>
<polygon fill="#63b8ff" stroke="#63b8ff" points="513.67,-71.71 522.31,-65.59 511.74,-64.98 513.67,-71.71"/>
</a>
</g>
</g>
<!-- Node5&#45;&gt;Node12 -->
<g id="edge5_Node000005_Node000012" class="edge">
<title>Node5&#45;&gt;Node12</title>
<g id="a_edge5_Node000005_Node000012"><a xlink:title=" ">
<path fill="none" stroke="#63b8ff" d="M617.88,-193.01C630.15,-190.29 643.7,-185.7 654.25,-177.96 683.31,-156.63 703.2,-118.66 713.47,-94.97"/>
<polygon fill="#63b8ff" stroke="#63b8ff" points="716.58,-96.61 717.15,-86.03 710.11,-93.94 716.58,-96.61"/>
</a>
</g>
</g>
<!-- Node27&#45;&gt;Node12 -->
<g id="edge8_Node000027_Node000012" class="edge">
<title>Node27&#45;&gt;Node12</title>
<g id="a_edge8_Node000027_Node000012"><a xlink:title=" ">
<path fill="none" stroke="#63b8ff" d="M647.33,-88.18C657.92,-86.15 668.73,-84.08 678.7,-82.17"/>
<polygon fill="#63b8ff" stroke="#63b8ff" points="679.31,-85.62 688.47,-80.3 678,-78.74 679.31,-85.62"/>
</a>
</g>
</g>
<!-- Node30&#45;&gt;Node12 -->
<g id="edge10_Node000030_Node000012" class="edge">
<title>Node30&#45;&gt;Node12</title>
<g id="a_edge10_Node000030_Node000012"><a xlink:title=" ">
<path fill="none" stroke="#63b8ff" d="M654.48,-61.11C662.7,-62.68 670.9,-64.25 678.61,-65.73"/>
<polygon fill="#63b8ff" stroke="#63b8ff" points="677.89,-69.15 688.37,-67.6 679.21,-62.28 677.89,-69.15"/>
</a>
</g>
</g>
</g>
</svg>
