<?xml version="1.0" encoding="UTF-8" standalone="no"?>
<!DOCTYPE svg PUBLIC "-//W3C//DTD SVG 1.1//EN"
 "http://www.w3.org/Graphics/SVG/1.1/DTD/svg11.dtd">
<!-- Generated by graphviz version 13.1.2 (20250808.2320)
 -->
<!-- Title: free_menu_item Pages: 1 -->
<svg width="611pt" height="113pt"
 viewBox="0.00 0.00 611.00 113.00" xmlns="http://www.w3.org/2000/svg" xmlns:xlink="http://www.w3.org/1999/xlink">
<g id="graph0" class="graph" transform="scale(1 1) rotate(0) translate(4 108.5)">
<title>free_menu_item</title>
<!-- Node1 -->
<g id="Node000001" class="node">
<title>Node1</title>
<g id="a_Node000001"><a xlink:title=" ">
<polygon fill="#999999" stroke="#666666" points="603.25,-75.12 507,-75.12 507,-54.38 603.25,-54.38 603.25,-75.12"/>
<text xml:space="preserve" text-anchor="middle" x="555.12" y="-61.62" font-family="Helvetica,sans-Serif" font-size="10.00">free_menu_item</text>
</a>
</g>
</g>
<!-- Node2 -->
<g id="Node000002" class="node">
<title>Node2</title>
<g id="a_Node000002"><a xlink:href="kest__menu_8c.html#a022467860beb31712a6580996ac1527e" target="_top" xlink:title=" ">
<polygon fill="white" stroke="#666666" points="469.88,-104.5 328.62,-104.5 328.62,-71 469.88,-71 469.88,-104.5"/>
<text xml:space="preserve" text-anchor="start" x="336.62" y="-91" font-family="Helvetica,sans-Serif" font-size="10.00">create_parameter_widget</text>
<text xml:space="preserve" text-anchor="middle" x="399.25" y="-78.25" font-family="Helvetica,sans-Serif" font-size="10.00">_menu_item</text>
</a>
</g>
</g>
<!-- Node1&#45;&gt;Node2 -->
<g id="edge1_Node000001_Node000002" class="edge">
<title>Node1&#45;&gt;Node2</title>
<g id="a_edge1_Node000001_Node000002"><a xlink:title=" ">
<path fill="none" stroke="#63b8ff" d="M495.59,-73.5C487.27,-74.74 478.65,-76.03 470.14,-77.3"/>
<polygon fill="#63b8ff" stroke="#63b8ff" points="495.83,-77 505.2,-72.06 494.8,-70.08 495.83,-77"/>
</a>
</g>
</g>
<!-- Node3 -->
<g id="Node000003" class="node">
<title>Node3</title>
<g id="a_Node000003"><a xlink:href="kest__menu_8c.html#a79f51bb10d3e6abf9e30a1577bf44bed" target="_top" xlink:title=" ">
<polygon fill="white" stroke="#666666" points="471,-53.12 327.5,-53.12 327.5,-32.38 471,-32.38 471,-53.12"/>
<text xml:space="preserve" text-anchor="middle" x="399.25" y="-39.62" font-family="Helvetica,sans-Serif" font-size="10.00">menu_page_remove_item</text>
</a>
</g>
</g>
<!-- Node1&#45;&gt;Node3 -->
<g id="edge2_Node000001_Node000003" class="edge">
<title>Node1&#45;&gt;Node3</title>
<g id="a_edge2_Node000001_Node000003"><a xlink:title=" ">
<path fill="none" stroke="#63b8ff" d="M495.39,-56.35C487.5,-55.22 479.35,-54.06 471.28,-52.91"/>
<polygon fill="#63b8ff" stroke="#63b8ff" points="494.81,-59.8 505.2,-57.76 495.8,-52.88 494.81,-59.8"/>
</a>
</g>
</g>
<!-- Node4 -->
<g id="Node000004" class="node">
<title>Node4</title>
<g id="a_Node000004"><a xlink:href="kest__menu_8c.html#a33b1b7cde7c97dfddede16dae1536481" target="_top" xlink:title=" ">
<polygon fill="white" stroke="#666666" points="284,-85.5 165.25,-85.5 165.25,-52 284,-52 284,-85.5"/>
<text xml:space="preserve" text-anchor="start" x="173.25" y="-72" font-family="Helvetica,sans-Serif" font-size="10.00">profile_listing_delete</text>
<text xml:space="preserve" text-anchor="middle" x="224.62" y="-59.25" font-family="Helvetica,sans-Serif" font-size="10.00">_button_cb</text>
</a>
</g>
</g>
<!-- Node3&#45;&gt;Node4 -->
<g id="edge3_Node000003_Node000004" class="edge">
<title>Node3&#45;&gt;Node4</title>
<g id="a_edge3_Node000003_Node000004"><a xlink:title=" ">
<path fill="none" stroke="#63b8ff" d="M315.96,-55.14C305.28,-56.75 294.52,-58.37 284.33,-59.91"/>
<polygon fill="#63b8ff" stroke="#63b8ff" points="316.18,-58.65 325.54,-53.7 315.13,-51.73 316.18,-58.65"/>
</a>
</g>
</g>
<!-- Node16 -->
<g id="Node000016" class="node">
<title>Node16</title>
<g id="a_Node000016"><a xlink:href="kest__sequence__list_8c.html#a1982fe2baa22bbb76b3da523cfdda6da" target="_top" xlink:title=" ">
<polygon fill="white" stroke="#666666" points="291.5,-33.5 157.75,-33.5 157.75,0 291.5,0 291.5,-33.5"/>
<text xml:space="preserve" text-anchor="start" x="165.75" y="-20" font-family="Helvetica,sans-Serif" font-size="10.00">sequence_listing_delete</text>
<text xml:space="preserve" text-anchor="middle" x="224.62" y="-7.25" font-family="Helvetica,sans-Serif" font-size="10.00">_button_cb</text>
</a>
</g>
</g>
<!-- Node3&#45;&gt;Node16 -->
<g id="edge5_Node000003_Node000016" class="edge">
<title>Node3&#45;&gt;Node16</title>
<g id="a_edge5_Node000003_Node000016"><a xlink:title=" ">
<path fill="none" stroke="#63b8ff" d="M315.8,-30.33C307.8,-29.13 299.77,-27.92 291.96,-26.74"/>
<polygon fill="#63b8ff" stroke="#63b8ff" points="315.13,-33.77 325.54,-31.8 316.18,-26.85 315.13,-33.77"/>
</a>
</g>
</g>
<!-- Node5 -->
<g id="Node000005" class="node">
<title>Node5</title>
<g id="a_Node000005"><a xlink:href="kest__menu_8c.html#aa44b42640611d3ca75f6b55206ebd08e" target="_top" xlink:title=" ">
<polygon fill="#fff0f0" stroke="red" points="121.75,-53.12 0,-53.12 0,-32.38 121.75,-32.38 121.75,-53.12"/>
<text xml:space="preserve" text-anchor="middle" x="60.88" y="-39.62" font-family="Helvetica,sans-Serif" font-size="10.00">create_menu_item_ui</text>
</a>
</g>
</g>
<!-- Node4&#45;&gt;Node5 -->
<g id="edge4_Node000004_Node000005" class="edge">
<title>Node4&#45;&gt;Node5</title>
<g id="a_edge4_Node000004_Node000005"><a xlink:title=" ">
<path fill="none" stroke="#63b8ff" d="M153.52,-57.48C143.03,-55.8 132.3,-54.07 122.04,-52.42"/>
<polygon fill="#63b8ff" stroke="#63b8ff" points="152.85,-60.92 163.28,-59.05 153.96,-54.01 152.85,-60.92"/>
</a>
</g>
</g>
<!-- Node16&#45;&gt;Node5 -->
<g id="edge6_Node000016_Node000005" class="edge">
<title>Node16&#45;&gt;Node5</title>
<g id="a_edge6_Node000016_Node000005"><a xlink:title=" ">
<path fill="none" stroke="#63b8ff" d="M146.04,-29.22C137.98,-30.52 129.88,-31.82 122.05,-33.08"/>
<polygon fill="#63b8ff" stroke="#63b8ff" points="146.56,-32.68 155.87,-27.64 145.45,-25.77 146.56,-32.68"/>
</a>
</g>
</g>
</g>
</svg>
