<?xml version="1.0" encoding="UTF-8" standalone="no"?>
<!DOCTYPE svg PUBLIC "-//W3C//DTD SVG 1.1//EN"
 "http://www.w3.org/Graphics/SVG/1.1/DTD/svg11.dtd">
<!-- Generated by graphviz version 13.1.2 (20250808.2320)
 -->
<!-- Title: effect_add_parameter Pages: 1 -->
<svg width="608pt" height="113pt"
 viewBox="0.00 0.00 608.00 113.00" xmlns="http://www.w3.org/2000/svg" xmlns:xlink="http://www.w3.org/1999/xlink">
<g id="graph0" class="graph" transform="scale(1 1) rotate(0) translate(4 109.12)">
<title>effect_add_parameter</title>
<!-- Node1 -->
<g id="Node000001" class="node">
<title>Node1</title>
<g id="a_Node000001"><a xlink:title=" ">
<polygon fill="#999999" stroke="#666666" points="124,-59.75 0,-59.75 0,-39 124,-39 124,-59.75"/>
<text xml:space="preserve" text-anchor="middle" x="62" y="-46.25" font-family="Helvetica,sans-Serif" font-size="10.00">effect_add_parameter</text>
</a>
</g>
</g>
<!-- Node2 -->
<g id="Node000002" class="node">
<title>Node2</title>
<g id="a_Node000002"><a xlink:href="kest__parameter_8c.html#a41fafa04c21a8ab5916a8ceb5442d99a" target="_top" xlink:title=" ">
<polygon fill="white" stroke="#666666" points="266,-98.75 160,-98.75 160,-78 266,-78 266,-98.75"/>
<text xml:space="preserve" text-anchor="middle" x="213" y="-85.25" font-family="Helvetica,sans-Serif" font-size="10.00">init_parameter_str</text>
</a>
</g>
</g>
<!-- Node1&#45;&gt;Node2 -->
<g id="edge1_Node000001_Node000002" class="edge">
<title>Node1&#45;&gt;Node2</title>
<g id="a_edge1_Node000001_Node000002"><a xlink:title=" ">
<path fill="none" stroke="#63b8ff" d="M104.5,-60.24C121.55,-64.7 141.48,-69.92 159.52,-74.64"/>
<polygon fill="#63b8ff" stroke="#63b8ff" points="158.44,-77.97 169,-77.12 160.21,-71.2 158.44,-77.97"/>
</a>
</g>
</g>
<!-- Node6 -->
<g id="Node000006" class="node">
<title>Node6</title>
<g id="a_Node000006"><a xlink:href="kest__alloc_8c.html#a849755c5dc5b35e712ffcdb602e50fb4" target="_top" xlink:title=" ">
<polygon fill="white" stroke="#666666" points="245.38,-59.75 180.62,-59.75 180.62,-39 245.38,-39 245.38,-59.75"/>
<text xml:space="preserve" text-anchor="middle" x="213" y="-46.25" font-family="Helvetica,sans-Serif" font-size="10.00">kest_alloc</text>
</a>
</g>
</g>
<!-- Node1&#45;&gt;Node6 -->
<g id="edge4_Node000001_Node000006" class="edge">
<title>Node1&#45;&gt;Node6</title>
<g id="a_edge4_Node000001_Node000006"><a xlink:title=" ">
<path fill="none" stroke="#63b8ff" d="M124.46,-49.38C139.49,-49.38 155.26,-49.38 169.2,-49.38"/>
<polygon fill="#63b8ff" stroke="#63b8ff" points="168.91,-52.88 178.91,-49.38 168.91,-45.88 168.91,-52.88"/>
</a>
</g>
</g>
<!-- Node7 -->
<g id="Node000007" class="node">
<title>Node7</title>
<g id="a_Node000007"><a xlink:href="kest__alloc_8c.html#a294af5728a94aa316fcf65304d388d48" target="_top" xlink:title=" ">
<polygon fill="white" stroke="#666666" points="243.5,-20.75 182.5,-20.75 182.5,0 243.5,0 243.5,-20.75"/>
<text xml:space="preserve" text-anchor="middle" x="213" y="-7.25" font-family="Helvetica,sans-Serif" font-size="10.00">kest_free</text>
</a>
</g>
</g>
<!-- Node1&#45;&gt;Node7 -->
<g id="edge5_Node000001_Node000007" class="edge">
<title>Node1&#45;&gt;Node7</title>
<g id="a_edge5_Node000001_Node000007"><a xlink:title=" ">
<path fill="none" stroke="#63b8ff" d="M104.5,-38.51C125.28,-33.07 150.35,-26.51 171.06,-21.09"/>
<polygon fill="#63b8ff" stroke="#63b8ff" points="171.8,-24.52 180.59,-18.6 170.03,-17.74 171.8,-24.52"/>
</a>
</g>
</g>
<!-- Node3 -->
<g id="Node000003" class="node">
<title>Node3</title>
<g id="a_Node000003"><a xlink:href="kest__parameter_8c.html#abff5b0dd3ed907207191aa6079c514eb" target="_top" xlink:title=" ">
<polygon fill="white" stroke="#666666" points="428.25,-105.12 302,-105.12 302,-71.62 428.25,-71.62 428.25,-105.12"/>
<text xml:space="preserve" text-anchor="start" x="310" y="-91.62" font-family="Helvetica,sans-Serif" font-size="10.00">kest_parameter_effect</text>
<text xml:space="preserve" text-anchor="middle" x="365.12" y="-78.88" font-family="Helvetica,sans-Serif" font-size="10.00">_rep_update</text>
</a>
</g>
</g>
<!-- Node2&#45;&gt;Node3 -->
<g id="edge2_Node000002_Node000003" class="edge">
<title>Node2&#45;&gt;Node3</title>
<g id="a_edge2_Node000002_Node000003"><a xlink:title=" ">
<path fill="none" stroke="#63b8ff" d="M266.09,-88.38C273.86,-88.38 281.99,-88.38 290.11,-88.38"/>
<polygon fill="#63b8ff" stroke="#63b8ff" points="290.02,-91.88 300.02,-88.38 290.02,-84.88 290.02,-91.88"/>
</a>
</g>
</g>
<!-- Node4 -->
<g id="Node000004" class="node">
<title>Node4</title>
<g id="a_Node000004"><a xlink:href="kest__effect_8c.html#afdbf79f9f27eac4959dfcf7bbcb324d4" target="_top" xlink:title=" ">
<polygon fill="#fff0f0" stroke="red" points="599.5,-98.75 464.25,-98.75 464.25,-78 599.5,-78 599.5,-98.75"/>
<text xml:space="preserve" text-anchor="middle" x="531.88" y="-85.25" font-family="Helvetica,sans-Serif" font-size="10.00">kest_effect_update_reps</text>
</a>
</g>
</g>
<!-- Node3&#45;&gt;Node4 -->
<g id="edge3_Node000003_Node000004" class="edge">
<title>Node3&#45;&gt;Node4</title>
<g id="a_edge3_Node000003_Node000004"><a xlink:title=" ">
<path fill="none" stroke="#63b8ff" d="M428.41,-88.38C436.28,-88.38 444.4,-88.38 452.48,-88.38"/>
<polygon fill="#63b8ff" stroke="#63b8ff" points="452.31,-91.88 462.31,-88.38 452.31,-84.88 452.31,-91.88"/>
</a>
</g>
</g>
</g>
</svg>
