<?xml version="1.0" encoding="UTF-8" standalone="no"?>
<!DOCTYPE svg PUBLIC "-//W3C//DTD SVG 1.1//EN"
 "http://www.w3.org/Graphics/SVG/1.1/DTD/svg11.dtd">
<!-- Generated by graphviz version 13.1.2 (20250808.2320)
 -->
<!-- Title: sequence_view_profile_button_rep_update Pages: 1 -->
<svg width="663pt" height="387pt"
 viewBox="0.00 0.00 663.00 387.00" xmlns="http://www.w3.org/2000/svg" xmlns:xlink="http://www.w3.org/1999/xlink">
<g id="graph0" class="graph" transform="scale(1 1) rotate(0) translate(4 382.75)">
<title>sequence_view_profile_button_rep_update</title>
<!-- Node1 -->
<g id="Node000001" class="node">
<title>Node1</title>
<g id="a_Node000001"><a xlink:title=" ">
<polygon fill="#999999" stroke="#666666" points="127.75,-232.12 0,-232.12 0,-198.62 127.75,-198.62 127.75,-232.12"/>
<text xml:space="preserve" text-anchor="start" x="8" y="-218.62" font-family="Helvetica,sans-Serif" font-size="10.00">sequence_view_profile</text>
<text xml:space="preserve" text-anchor="middle" x="63.88" y="-205.88" font-family="Helvetica,sans-Serif" font-size="10.00">_button_rep_update</text>
</a>
</g>
</g>
<!-- Node2 -->
<g id="Node000002" class="node">
<title>Node2</title>
<g id="a_Node000002"><a xlink:href="kest__button_8c.html#a9899cf8789d635db3bb8b1d4c514e140" target="_top" xlink:title=" ">
<polygon fill="white" stroke="#666666" points="283.25,-232.12 175,-232.12 175,-198.62 283.25,-198.62 283.25,-232.12"/>
<text xml:space="preserve" text-anchor="start" x="183" y="-218.62" font-family="Helvetica,sans-Serif" font-size="10.00">kest_active_button</text>
<text xml:space="preserve" text-anchor="middle" x="229.12" y="-205.88" font-family="Helvetica,sans-Serif" font-size="10.00">_change_label</text>
</a>
</g>
</g>
<!-- Node1&#45;&gt;Node2 -->
<g id="edge1_Node000001_Node000002" class="edge">
<title>Node1&#45;&gt;Node2</title>
<g id="a_edge1_Node000001_Node000002"><a xlink:title=" ">
<path fill="none" stroke="#63b8ff" d="M127.99,-215.38C139.57,-215.38 151.66,-215.38 163.29,-215.38"/>
<polygon fill="#63b8ff" stroke="#63b8ff" points="163.2,-218.88 173.2,-215.38 163.2,-211.88 163.2,-218.88"/>
</a>
</g>
</g>
<!-- Node5 -->
<g id="Node000005" class="node">
<title>Node5</title>
<g id="a_Node000005"><a xlink:href="kest__button_8c.html#ab3d484ae52f7d01018eba300e3fe4e1f" target="_top" xlink:title=" ">
<polygon fill="white" stroke="#666666" points="283.25,-284.12 175,-284.12 175,-250.62 283.25,-250.62 283.25,-284.12"/>
<text xml:space="preserve" text-anchor="start" x="183" y="-270.62" font-family="Helvetica,sans-Serif" font-size="10.00">kest_active_button</text>
<text xml:space="preserve" text-anchor="middle" x="229.12" y="-257.88" font-family="Helvetica,sans-Serif" font-size="10.00">_reset_del_button</text>
</a>
</g>
</g>
<!-- Node1&#45;&gt;Node5 -->
<g id="edge4_Node000001_Node000005" class="edge">
<title>Node1&#45;&gt;Node5</title>
<g id="a_edge4_Node000001_Node000005"><a xlink:title=" ">
<path fill="none" stroke="#63b8ff" d="M118.78,-232.55C133.21,-237.14 148.94,-242.15 163.86,-246.91"/>
<polygon fill="#63b8ff" stroke="#63b8ff" points="162.52,-250.15 173.11,-249.85 164.65,-243.48 162.52,-250.15"/>
</a>
</g>
</g>
<!-- Node11 -->
<g id="Node000011" class="node">
<title>Node11</title>
<g id="a_Node000011"><a xlink:href="kest__button_8c.html#ab59ebaba4ff87ed51677e73ba4aac2ef" target="_top" xlink:title=" ">
<polygon fill="white" stroke="#666666" points="294.5,-171.5 163.75,-171.5 163.75,-125.25 294.5,-125.25 294.5,-171.5"/>
<text xml:space="preserve" text-anchor="start" x="171.75" y="-158" font-family="Helvetica,sans-Serif" font-size="10.00">kest_active_button</text>
<text xml:space="preserve" text-anchor="start" x="171.75" y="-145.25" font-family="Helvetica,sans-Serif" font-size="10.00">_swap_del_button_for</text>
<text xml:space="preserve" text-anchor="middle" x="229.12" y="-132.5" font-family="Helvetica,sans-Serif" font-size="10.00">_persistent_unclickable</text>
</a>
</g>
</g>
<!-- Node1&#45;&gt;Node11 -->
<g id="edge12_Node000001_Node000011" class="edge">
<title>Node1&#45;&gt;Node11</title>
<g id="a_edge12_Node000001_Node000011"><a xlink:title=" ">
<path fill="none" stroke="#63b8ff" d="M106.49,-198.29C122.76,-191.62 141.84,-183.79 160.01,-176.33"/>
<polygon fill="#63b8ff" stroke="#63b8ff" points="161.25,-179.61 169.17,-172.57 158.59,-173.13 161.25,-179.61"/>
</a>
</g>
</g>
<!-- Node3 -->
<g id="Node000003" class="node">
<title>Node3</title>
<g id="a_Node000003"><a xlink:href="kest__button_8c.html#ac24f7930db96a5006a81ec8255ad0e6c" target="_top" xlink:title=" ">
<polygon fill="white" stroke="#666666" points="468.75,-263.75 346.25,-263.75 346.25,-243 468.75,-243 468.75,-263.75"/>
<text xml:space="preserve" text-anchor="middle" x="407.5" y="-250.25" font-family="Helvetica,sans-Serif" font-size="10.00">kest_button_set_label</text>
</a>
</g>
</g>
<!-- Node2&#45;&gt;Node3 -->
<g id="edge2_Node000002_Node000003" class="edge">
<title>Node2&#45;&gt;Node3</title>
<g id="a_edge2_Node000002_Node000003"><a xlink:title=" ">
<path fill="none" stroke="#63b8ff" d="M283.52,-226.88C302.94,-231.06 325.03,-235.82 345.08,-240.14"/>
<polygon fill="#63b8ff" stroke="#63b8ff" points="344.31,-243.56 354.82,-242.24 345.78,-236.71 344.31,-243.56"/>
</a>
</g>
</g>
<!-- Node4 -->
<g id="Node000004" class="node">
<title>Node4</title>
<g id="a_Node000004"><a xlink:href="kest__button_8c.html#a56b5c7012f627d4d3f454029e26f1bef" target="_top" xlink:title=" ">
<polygon fill="white" stroke="#666666" points="642.25,-270.12 533.25,-270.12 533.25,-236.62 642.25,-236.62 642.25,-270.12"/>
<text xml:space="preserve" text-anchor="start" x="541.25" y="-256.62" font-family="Helvetica,sans-Serif" font-size="10.00">kest_button_create</text>
<text xml:space="preserve" text-anchor="middle" x="587.75" y="-243.88" font-family="Helvetica,sans-Serif" font-size="10.00">_label_ui</text>
</a>
</g>
</g>
<!-- Node3&#45;&gt;Node4 -->
<g id="edge3_Node000003_Node000004" class="edge">
<title>Node3&#45;&gt;Node4</title>
<g id="a_edge3_Node000003_Node000004"><a xlink:title=" ">
<path fill="none" stroke="#63b8ff" d="M468.85,-253.38C485.91,-253.38 504.56,-253.38 521.88,-253.38"/>
<polygon fill="#63b8ff" stroke="#63b8ff" points="521.53,-256.88 531.53,-253.38 521.53,-249.88 521.53,-256.88"/>
</a>
</g>
</g>
<!-- Node5&#45;&gt;Node3 -->
<g id="edge11_Node000005_Node000003" class="edge">
<title>Node5&#45;&gt;Node3</title>
<g id="a_edge11_Node000005_Node000003"><a xlink:title=" ">
<path fill="none" stroke="#63b8ff" d="M283.52,-263.14C299.66,-261.86 317.64,-260.43 334.77,-259.07"/>
<polygon fill="#63b8ff" stroke="#63b8ff" points="334.67,-262.59 344.36,-258.31 334.12,-255.61 334.67,-262.59"/>
</a>
</g>
</g>
<!-- Node5&#45;&gt;Node4 -->
<g id="edge7_Node000005_Node000004" class="edge">
<title>Node5&#45;&gt;Node4</title>
<g id="a_edge7_Node000005_Node000004"><a xlink:title=" ">
<path fill="none" stroke="#63b8ff" d="M283.35,-271.86C334.91,-275.39 415.22,-278.76 484.5,-272.38 496.61,-271.26 509.43,-269.41 521.75,-267.3"/>
<polygon fill="#63b8ff" stroke="#63b8ff" points="522.17,-270.78 531.39,-265.57 520.93,-263.89 522.17,-270.78"/>
</a>
</g>
</g>
<!-- Node6 -->
<g id="Node000006" class="node">
<title>Node6</title>
<g id="a_Node000006"><a xlink:href="kest__button_8c.html#acef3a5e0199ca168471154fc981f4931" target="_top" xlink:title=" ">
<polygon fill="white" stroke="#666666" points="465.75,-225.12 349.25,-225.12 349.25,-191.62 465.75,-191.62 465.75,-225.12"/>
<text xml:space="preserve" text-anchor="start" x="357.25" y="-211.62" font-family="Helvetica,sans-Serif" font-size="10.00">kest_active_button</text>
<text xml:space="preserve" text-anchor="middle" x="407.5" y="-198.88" font-family="Helvetica,sans-Serif" font-size="10.00">_del_button_fade_cb</text>
</a>
</g>
</g>
<!-- Node5&#45;&gt;Node6 -->
<g id="edge5_Node000005_Node000006" class="edge">
<title>Node5&#45;&gt;Node6</title>
<g id="a_edge5_Node000005_Node000006"><a xlink:title=" ">
<path fill="none" stroke="#63b8ff" d="M281.61,-250.15C301.18,-243.61 323.68,-236.08 344.14,-229.24"/>
<polygon fill="#63b8ff" stroke="#63b8ff" points="345.14,-232.59 353.51,-226.1 342.92,-225.95 345.14,-232.59"/>
</a>
</g>
</g>
<!-- Node8 -->
<g id="Node000008" class="node">
<title>Node8</title>
<g id="a_Node000008"><a xlink:href="kest__button_8c.html#a247699a53218b0986f4149b42ecd3ae4" target="_top" xlink:title=" ">
<polygon fill="white" stroke="#666666" points="457.12,-378.75 357.88,-378.75 357.88,-358 457.12,-358 457.12,-378.75"/>
<text xml:space="preserve" text-anchor="middle" x="407.5" y="-365.25" font-family="Helvetica,sans-Serif" font-size="10.00">kest_button_hide</text>
</a>
</g>
</g>
<!-- Node5&#45;&gt;Node8 -->
<g id="edge8_Node000005_Node000008" class="edge">
<title>Node5&#45;&gt;Node8</title>
<g id="a_edge8_Node000005_Node000008"><a xlink:title=" ">
<path fill="none" stroke="#63b8ff" d="M246.66,-284.48C265.36,-302.87 297.53,-331.7 330.5,-348.38 335.62,-350.96 341.11,-353.24 346.7,-355.24"/>
<polygon fill="#63b8ff" stroke="#63b8ff" points="345.5,-358.53 356.1,-358.28 347.66,-351.87 345.5,-358.53"/>
</a>
</g>
</g>
<!-- Node9 -->
<g id="Node000009" class="node">
<title>Node9</title>
<g id="a_Node000009"><a xlink:href="kest__button_8c.html#ad480fe803983ae07bbf32f7930d9f467" target="_top" xlink:title=" ">
<polygon fill="white" stroke="#666666" points="474,-173.75 341,-173.75 341,-153 474,-153 474,-173.75"/>
<text xml:space="preserve" text-anchor="middle" x="407.5" y="-160.25" font-family="Helvetica,sans-Serif" font-size="10.00">kest_button_reset_state</text>
</a>
</g>
</g>
<!-- Node5&#45;&gt;Node9 -->
<g id="edge9_Node000005_Node000009" class="edge">
<title>Node5&#45;&gt;Node9</title>
<g id="a_edge9_Node000005_Node000009"><a xlink:title=" ">
<path fill="none" stroke="#63b8ff" d="M281.45,-250.29C286.11,-247.69 290.55,-244.73 294.5,-241.38 317.93,-221.51 305.75,-200.57 330.5,-182.38 331.87,-181.37 333.29,-180.41 334.74,-179.51"/>
<polygon fill="#63b8ff" stroke="#63b8ff" points="336.25,-182.67 343.51,-174.95 333.02,-176.46 336.25,-182.67"/>
</a>
</g>
</g>
<!-- Node10 -->
<g id="Node000010" class="node">
<title>Node10</title>
<g id="a_Node000010"><a xlink:href="kest__button_8c.html#a88fd3b166bca9400285d9f8cbd52d081" target="_top" xlink:title=" ">
<polygon fill="white" stroke="#666666" points="478.5,-339.75 336.5,-339.75 336.5,-319 478.5,-319 478.5,-339.75"/>
<text xml:space="preserve" text-anchor="middle" x="407.5" y="-326.25" font-family="Helvetica,sans-Serif" font-size="10.00">kest_button_set_clickable</text>
</a>
</g>
</g>
<!-- Node5&#45;&gt;Node10 -->
<g id="edge10_Node000005_Node000010" class="edge">
<title>Node5&#45;&gt;Node10</title>
<g id="a_edge10_Node000005_Node000010"><a xlink:title=" ">
<path fill="none" stroke="#63b8ff" d="M273.9,-284.56C291.42,-291.27 311.84,-298.9 330.5,-305.38 340,-308.67 350.23,-312.03 360.01,-315.15"/>
<polygon fill="#63b8ff" stroke="#63b8ff" points="358.76,-318.42 369.35,-318.1 360.87,-311.75 358.76,-318.42"/>
</a>
</g>
</g>
<!-- Node7 -->
<g id="Node000007" class="node">
<title>Node7</title>
<g id="a_Node000007"><a xlink:href="kest__button_8c.html#a2835584385bb5d418a3ca596aa0ef5b1" target="_top" xlink:title=" ">
<polygon fill="white" stroke="#666666" points="655,-158.75 520.5,-158.75 520.5,-138 655,-138 655,-158.75"/>
<text xml:space="preserve" text-anchor="middle" x="587.75" y="-145.25" font-family="Helvetica,sans-Serif" font-size="10.00">kest_button_set_opacity</text>
</a>
</g>
</g>
<!-- Node6&#45;&gt;Node7 -->
<g id="edge6_Node000006_Node000007" class="edge">
<title>Node6&#45;&gt;Node7</title>
<g id="a_edge6_Node000006_Node000007"><a xlink:title=" ">
<path fill="none" stroke="#63b8ff" d="M459.58,-191.18C486.19,-182.22 518.38,-171.39 543.72,-162.86"/>
<polygon fill="#63b8ff" stroke="#63b8ff" points="544.68,-166.23 553.04,-159.72 542.44,-159.6 544.68,-166.23"/>
</a>
</g>
</g>
<!-- Node11&#45;&gt;Node3 -->
<g id="edge16_Node000011_Node000003" class="edge">
<title>Node11&#45;&gt;Node3</title>
<g id="a_edge16_Node000011_Node000003"><a xlink:title=" ">
<path fill="none" stroke="#63b8ff" d="M271.42,-171.82C279.43,-177.14 287.5,-183.09 294.5,-189.38 313.56,-206.49 308.94,-220.54 330.5,-234.38 332.39,-235.59 334.35,-236.72 336.37,-237.78"/>
<polygon fill="#63b8ff" stroke="#63b8ff" points="334.89,-240.96 345.45,-241.89 337.78,-234.58 334.89,-240.96"/>
</a>
</g>
</g>
<!-- Node11&#45;&gt;Node4 -->
<g id="edge14_Node000011_Node000004" class="edge">
<title>Node11&#45;&gt;Node4</title>
<g id="a_edge14_Node000011_Node000004"><a xlink:title=" ">
<path fill="none" stroke="#63b8ff" d="M294.91,-133.11C348.1,-123.85 424.21,-118.27 484.5,-144.38 523.14,-161.11 553.87,-200.42 571.2,-226.97"/>
<polygon fill="#63b8ff" stroke="#63b8ff" points="568.08,-228.57 576.37,-235.16 574,-224.84 568.08,-228.57"/>
</a>
</g>
</g>
<!-- Node11&#45;&gt;Node6 -->
<g id="edge13_Node000011_Node000006" class="edge">
<title>Node11&#45;&gt;Node6</title>
<g id="a_edge13_Node000011_Node000006"><a xlink:title=" ">
<path fill="none" stroke="#63b8ff" d="M294.8,-170.38C311.33,-176 329.05,-182.03 345.4,-187.59"/>
<polygon fill="#63b8ff" stroke="#63b8ff" points="343.89,-190.77 354.49,-190.68 346.15,-184.15 343.89,-190.77"/>
</a>
</g>
</g>
<!-- Node11&#45;&gt;Node7 -->
<g id="edge17_Node000011_Node000007" class="edge">
<title>Node11&#45;&gt;Node7</title>
<g id="a_edge17_Node000011_Node000007"><a xlink:title=" ">
<path fill="none" stroke="#63b8ff" d="M283.33,-124.81C298.29,-119.28 314.78,-114.18 330.5,-111.38 397.88,-99.35 417.08,-99.55 484.5,-111.38 508.39,-115.57 534.06,-124.87 553.7,-133.1"/>
<polygon fill="#63b8ff" stroke="#63b8ff" points="552.27,-136.29 562.84,-137.05 555.05,-129.87 552.27,-136.29"/>
</a>
</g>
</g>
<!-- Node11&#45;&gt;Node9 -->
<g id="edge15_Node000011_Node000009" class="edge">
<title>Node11&#45;&gt;Node9</title>
<g id="a_edge15_Node000011_Node000009"><a xlink:title=" ">
<path fill="none" stroke="#63b8ff" d="M294.8,-153.88C306.01,-154.83 317.76,-155.83 329.26,-156.81"/>
<polygon fill="#63b8ff" stroke="#63b8ff" points="328.88,-160.29 339.14,-157.65 329.48,-153.31 328.88,-160.29"/>
</a>
</g>
</g>
<!-- Node12 -->
<g id="Node000012" class="node">
<title>Node12</title>
<g id="a_Node000012"><a xlink:href="kest__button_8c.html#ad3092ccf8da8a99ee961bbad31c99095" target="_top" xlink:title=" ">
<polygon fill="white" stroke="#666666" points="484.5,-59.75 330.5,-59.75 330.5,-39 484.5,-39 484.5,-59.75"/>
<text xml:space="preserve" text-anchor="middle" x="407.5" y="-46.25" font-family="Helvetica,sans-Serif" font-size="10.00">kest_button_set_unclickable</text>
</a>
</g>
</g>
<!-- Node11&#45;&gt;Node12 -->
<g id="edge18_Node000011_Node000012" class="edge">
<title>Node11&#45;&gt;Node12</title>
<g id="a_edge18_Node000011_Node000012"><a xlink:title=" ">
<path fill="none" stroke="#63b8ff" d="M256.17,-125.04C275.53,-108.7 303.21,-87.37 330.5,-73.38 337.53,-69.77 345.2,-66.58 352.89,-63.8"/>
<polygon fill="#63b8ff" stroke="#63b8ff" points="353.9,-67.15 362.25,-60.62 351.66,-60.52 353.9,-67.15"/>
</a>
</g>
</g>
<!-- Node13 -->
<g id="Node000013" class="node">
<title>Node13</title>
<g id="a_Node000013"><a xlink:href="kest__button_8c.html#ad55b50e8c238c6de40dd73aab058274a" target="_top" xlink:title=" ">
<polygon fill="white" stroke="#666666" points="463.12,-20.75 351.88,-20.75 351.88,0 463.12,0 463.12,-20.75"/>
<text xml:space="preserve" text-anchor="middle" x="407.5" y="-7.25" font-family="Helvetica,sans-Serif" font-size="10.00">kest_button_unhide</text>
</a>
</g>
</g>
<!-- Node11&#45;&gt;Node13 -->
<g id="edge19_Node000011_Node000013" class="edge">
<title>Node11&#45;&gt;Node13</title>
<g id="a_edge19_Node000011_Node000013"><a xlink:title=" ">
<path fill="none" stroke="#63b8ff" d="M243.69,-125.14C260.61,-98.25 292.03,-54.58 330.5,-30.38 333.83,-28.28 337.38,-26.4 341.06,-24.71"/>
<polygon fill="#63b8ff" stroke="#63b8ff" points="342.27,-28 350.25,-21.03 339.67,-21.5 342.27,-28"/>
</a>
</g>
</g>
</g>
</svg>
