<?xml version="1.0" encoding="UTF-8" standalone="no"?>
<!DOCTYPE svg PUBLIC "-//W3C//DTD SVG 1.1//EN"
 "http://www.w3.org/Graphics/SVG/1.1/DTD/svg11.dtd">
<!-- Generated by graphviz version 13.1.2 (20250808.2320)
 -->
<!-- Title: seq_plus_cb Pages: 1 -->
<svg width="819pt" height="1126pt"
 viewBox="0.00 0.00 819.00 1126.00" xmlns="http://www.w3.org/2000/svg" xmlns:xlink="http://www.w3.org/1999/xlink">
<g id="graph0" class="graph" transform="scale(1 1) rotate(0) translate(4 1121.89)">
<title>seq_plus_cb</title>
<!-- Node1 -->
<g id="Node000001" class="node">
<title>Node1</title>
<g id="a_Node000001"><a xlink:title=" ">
<polygon fill="#999999" stroke="#666666" points="75.25,-379.51 0,-379.51 0,-358.76 75.25,-358.76 75.25,-379.51"/>
<text xml:space="preserve" text-anchor="middle" x="37.62" y="-366.01" font-family="Helvetica,sans-Serif" font-size="10.00">seq_plus_cb</text>
</a>
</g>
</g>
<!-- Node2 -->
<g id="Node000002" class="node">
<title>Node2</title>
<g id="a_Node000002"><a xlink:href="kest__button_8c.html#a760fe364ce4f5be2c972ff685e2f9825" target="_top" xlink:title=" ">
<polygon fill="white" stroke="#666666" points="254.38,-534.89 140.88,-534.89 140.88,-501.39 254.38,-501.39 254.38,-534.89"/>
<text xml:space="preserve" text-anchor="start" x="148.88" y="-521.39" font-family="Helvetica,sans-Serif" font-size="10.00">kest_active_button</text>
<text xml:space="preserve" text-anchor="middle" x="197.62" y="-508.64" font-family="Helvetica,sans-Serif" font-size="10.00">_array_append_new</text>
</a>
</g>
</g>
<!-- Node1&#45;&gt;Node2 -->
<g id="edge1_Node000001_Node000002" class="edge">
<title>Node1&#45;&gt;Node2</title>
<g id="a_edge1_Node000001_Node000002"><a xlink:title=" ">
<path fill="none" stroke="#63b8ff" d="M44.18,-379.74C54.95,-399.5 80.34,-442.49 111.25,-470.14 122.15,-479.89 135.36,-488.51 148.1,-495.65"/>
<polygon fill="#63b8ff" stroke="#63b8ff" points="146.37,-498.69 156.83,-500.34 149.68,-492.52 146.37,-498.69"/>
</a>
</g>
</g>
<!-- Node45 -->
<g id="Node000045" class="node">
<title>Node45</title>
<g id="a_Node000045"><a xlink:href="kest__button_8c.html#a5fdea311fb351ff8f9d27116813f35a8" target="_top" xlink:title=" ">
<polygon fill="white" stroke="#666666" points="251.75,-460.89 143.5,-460.89 143.5,-427.39 251.75,-427.39 251.75,-460.89"/>
<text xml:space="preserve" text-anchor="start" x="151.5" y="-447.39" font-family="Helvetica,sans-Serif" font-size="10.00">kest_active_button</text>
<text xml:space="preserve" text-anchor="middle" x="197.62" y="-434.64" font-family="Helvetica,sans-Serif" font-size="10.00">_create_ui</text>
</a>
</g>
</g>
<!-- Node1&#45;&gt;Node45 -->
<g id="edge31_Node000001_Node000045" class="edge">
<title>Node1&#45;&gt;Node45</title>
<g id="a_edge31_Node000001_Node000045"><a xlink:title=" ">
<path fill="none" stroke="#63b8ff" d="M51.81,-379.82C65.83,-390.73 89.01,-407.54 111.25,-418.14 118.02,-421.36 125.27,-424.3 132.6,-426.93"/>
<polygon fill="#63b8ff" stroke="#63b8ff" points="131.29,-430.19 141.89,-430.1 133.55,-423.56 131.29,-430.19"/>
</a>
</g>
</g>
<!-- Node47 -->
<g id="Node000047" class="node">
<title>Node47</title>
<g id="a_Node000047"><a xlink:href="kest__button_8c.html#a9d42d7845b1fcdaa4ee416ae86f6bc7e" target="_top" xlink:title=" ">
<polygon fill="white" stroke="#666666" points="254,-408.89 141.25,-408.89 141.25,-375.39 254,-375.39 254,-408.89"/>
<text xml:space="preserve" text-anchor="start" x="149.25" y="-395.39" font-family="Helvetica,sans-Serif" font-size="10.00">kest_active_button</text>
<text xml:space="preserve" text-anchor="middle" x="197.62" y="-382.64" font-family="Helvetica,sans-Serif" font-size="10.00">_set_representation</text>
</a>
</g>
</g>
<!-- Node1&#45;&gt;Node47 -->
<g id="edge34_Node000001_Node000047" class="edge">
<title>Node1&#45;&gt;Node47</title>
<g id="a_edge34_Node000001_Node000047"><a xlink:title=" ">
<path fill="none" stroke="#63b8ff" d="M75.67,-374.53C91.76,-376.87 111.12,-379.69 129.58,-382.38"/>
<polygon fill="#63b8ff" stroke="#63b8ff" points="129.03,-385.84 139.43,-383.81 130.04,-378.91 129.03,-385.84"/>
</a>
</g>
</g>
<!-- Node48 -->
<g id="Node000048" class="node">
<title>Node48</title>
<g id="a_Node000048"><a xlink:href="kest__profile_8c.html#a38013ae781ddb3a62cf9b490291662cb" target="_top" xlink:title=" ">
<polygon fill="white" stroke="#666666" points="284,-357.51 111.25,-357.51 111.25,-336.76 284,-336.76 284,-357.51"/>
<text xml:space="preserve" text-anchor="middle" x="197.62" y="-344.01" font-family="Helvetica,sans-Serif" font-size="10.00">kest_profile_add_representation</text>
</a>
</g>
</g>
<!-- Node1&#45;&gt;Node48 -->
<g id="edge35_Node000001_Node000048" class="edge">
<title>Node1&#45;&gt;Node48</title>
<g id="a_edge35_Node000001_Node000048"><a xlink:title=" ">
<path fill="none" stroke="#63b8ff" d="M75.67,-363.98C85.38,-362.63 96.29,-361.11 107.47,-359.55"/>
<polygon fill="#63b8ff" stroke="#63b8ff" points="107.79,-363.04 117.21,-358.2 106.83,-356.11 107.79,-363.04"/>
</a>
</g>
</g>
<!-- Node49 -->
<g id="Node000049" class="node">
<title>Node49</title>
<g id="a_Node000049"><a xlink:href="kest__sequence_8c.html#ad6a5ed07b6face169ffb11471d1d4294" target="_top" xlink:title=" ">
<polygon fill="white" stroke="#666666" points="275.38,-318.51 119.88,-318.51 119.88,-297.76 275.38,-297.76 275.38,-318.51"/>
<text xml:space="preserve" text-anchor="middle" x="197.62" y="-305.01" font-family="Helvetica,sans-Serif" font-size="10.00">sequence_append_profile_rp</text>
</a>
</g>
</g>
<!-- Node1&#45;&gt;Node49 -->
<g id="edge36_Node000001_Node000049" class="edge">
<title>Node1&#45;&gt;Node49</title>
<g id="a_edge36_Node000001_Node000049"><a xlink:title=" ">
<path fill="none" stroke="#63b8ff" d="M54.69,-358.3C68.99,-349.09 90.75,-336.14 111.25,-328.14 117.16,-325.83 123.4,-323.75 129.71,-321.88"/>
<polygon fill="#63b8ff" stroke="#63b8ff" points="130.2,-325.37 138.9,-319.32 128.33,-318.63 130.2,-325.37"/>
</a>
</g>
</g>
<!-- Node52 -->
<g id="Node000052" class="node">
<title>Node52</title>
<g id="a_Node000052"><a xlink:href="kest__sequence__view_8c.html#aa97e3f2de03cf8443b11f65520f6b387" target="_top" xlink:title=" ">
<polygon fill="white" stroke="#666666" points="261.5,-221.89 133.75,-221.89 133.75,-188.39 261.5,-188.39 261.5,-221.89"/>
<text xml:space="preserve" text-anchor="start" x="141.75" y="-208.39" font-family="Helvetica,sans-Serif" font-size="10.00">sequence_view_profile</text>
<text xml:space="preserve" text-anchor="middle" x="197.62" y="-195.64" font-family="Helvetica,sans-Serif" font-size="10.00">_button_rep_update</text>
</a>
</g>
</g>
<!-- Node1&#45;&gt;Node52 -->
<g id="edge40_Node000001_Node000052" class="edge">
<title>Node1&#45;&gt;Node52</title>
<g id="a_edge40_Node000001_Node000052"><a xlink:title=" ">
<path fill="none" stroke="#63b8ff" d="M48.07,-358.35C61.75,-342.82 87.99,-313.35 111.25,-289.14 130.81,-268.78 153.64,-246.38 170.77,-229.84"/>
<polygon fill="#63b8ff" stroke="#63b8ff" points="172.81,-232.73 177.59,-223.28 167.95,-227.69 172.81,-232.73"/>
</a>
</g>
</g>
<!-- Node3 -->
<g id="Node000003" class="node">
<title>Node3</title>
<g id="a_Node000003"><a xlink:href="kest__button_8c.html#a209511305dd2db40751857097e1e82c1" target="_top" xlink:title=" ">
<polygon fill="white" stroke="#666666" points="439.5,-556.89 331.25,-556.89 331.25,-523.39 439.5,-523.39 439.5,-556.89"/>
<text xml:space="preserve" text-anchor="start" x="339.25" y="-543.39" font-family="Helvetica,sans-Serif" font-size="10.00">kest_active_button</text>
<text xml:space="preserve" text-anchor="middle" x="385.38" y="-530.64" font-family="Helvetica,sans-Serif" font-size="10.00">_add_del_button</text>
</a>
</g>
</g>
<!-- Node2&#45;&gt;Node3 -->
<g id="edge2_Node000002_Node000003" class="edge">
<title>Node2&#45;&gt;Node3</title>
<g id="a_edge2_Node000002_Node000003"><a xlink:title=" ">
<path fill="none" stroke="#63b8ff" d="M254.86,-524.8C275.32,-527.22 298.6,-529.98 319.72,-532.48"/>
<polygon fill="#63b8ff" stroke="#63b8ff" points="319.03,-535.92 329.37,-533.62 319.85,-528.97 319.03,-535.92"/>
</a>
</g>
</g>
<!-- Node26 -->
<g id="Node000026" class="node">
<title>Node26</title>
<g id="a_Node000026"><a xlink:href="kest__alloc_8c.html#a849755c5dc5b35e712ffcdb602e50fb4" target="_top" xlink:title=" ">
<polygon fill="white" stroke="#666666" points="776.38,-408.51 711.62,-408.51 711.62,-387.76 776.38,-387.76 776.38,-408.51"/>
<text xml:space="preserve" text-anchor="middle" x="744" y="-395.01" font-family="Helvetica,sans-Serif" font-size="10.00">kest_alloc</text>
</a>
</g>
</g>
<!-- Node2&#45;&gt;Node26 -->
<g id="edge29_Node000002_Node000026" class="edge">
<title>Node2&#45;&gt;Node26</title>
<g id="a_edge29_Node000002_Node000026"><a xlink:title=" ">
<path fill="none" stroke="#63b8ff" d="M247.24,-500.95C269.38,-493.22 295.96,-484.06 320,-476.14 377.84,-457.07 394.28,-457.94 450.75,-435.14 467.34,-428.44 469.5,-421.89 486.75,-417.14 559.57,-397.08 648.15,-395.24 699.8,-396.3"/>
<polygon fill="#63b8ff" stroke="#63b8ff" points="699.57,-399.79 709.66,-396.55 699.75,-392.8 699.57,-399.79"/>
</a>
</g>
</g>
<!-- Node27 -->
<g id="Node000027" class="node">
<title>Node27</title>
<g id="a_Node000027"><a xlink:href="kest__button_8c.html#a591c84573c4b4dfefa4c6b1445fc290e" target="_top" xlink:title=" ">
<polygon fill="white" stroke="#666666" points="439.5,-651.89 331.25,-651.89 331.25,-618.39 439.5,-618.39 439.5,-651.89"/>
<text xml:space="preserve" text-anchor="start" x="339.25" y="-638.39" font-family="Helvetica,sans-Serif" font-size="10.00">kest_active_button</text>
<text xml:space="preserve" text-anchor="middle" x="385.38" y="-625.64" font-family="Helvetica,sans-Serif" font-size="10.00">_array_append</text>
</a>
</g>
</g>
<!-- Node2&#45;&gt;Node27 -->
<g id="edge15_Node000002_Node000027" class="edge">
<title>Node2&#45;&gt;Node27</title>
<g id="a_edge15_Node000002_Node000027"><a xlink:title=" ">
<path fill="none" stroke="#63b8ff" d="M225.63,-535.15C257.73,-555.37 311.46,-589.21 347.4,-611.85"/>
<polygon fill="#63b8ff" stroke="#63b8ff" points="345.42,-614.74 355.75,-617.11 349.15,-608.82 345.42,-614.74"/>
</a>
</g>
</g>
<!-- Node28 -->
<g id="Node000028" class="node">
<title>Node28</title>
<g id="a_Node000028"><a xlink:href="kest__button_8c.html#a9cc8b0c8114bbffc12e858af8589ff86" target="_top" xlink:title=" ">
<polygon fill="white" stroke="#666666" points="450,-917.51 320.75,-917.51 320.75,-896.76 450,-896.76 450,-917.51"/>
<text xml:space="preserve" text-anchor="middle" x="385.38" y="-904.01" font-family="Helvetica,sans-Serif" font-size="10.00">kest_active_button_init</text>
</a>
</g>
</g>
<!-- Node2&#45;&gt;Node28 -->
<g id="edge19_Node000002_Node000028" class="edge">
<title>Node2&#45;&gt;Node28</title>
<g id="a_edge19_Node000002_Node000028"><a xlink:title=" ">
<path fill="none" stroke="#63b8ff" d="M206.85,-535.36C237.04,-598.59 341.76,-817.9 374.51,-886.48"/>
<polygon fill="#63b8ff" stroke="#63b8ff" points="371.16,-887.59 378.63,-895.11 377.48,-884.58 371.16,-887.59"/>
</a>
</g>
</g>
<!-- Node18 -->
<g id="Node000018" class="node">
<title>Node18</title>
<g id="a_Node000018"><a xlink:href="kest__alloc_8c.html#a294af5728a94aa316fcf65304d388d48" target="_top" xlink:title=" ">
<polygon fill="white" stroke="#666666" points="415.88,-505.51 354.88,-505.51 354.88,-484.76 415.88,-484.76 415.88,-505.51"/>
<text xml:space="preserve" text-anchor="middle" x="385.38" y="-492.01" font-family="Helvetica,sans-Serif" font-size="10.00">kest_free</text>
</a>
</g>
</g>
<!-- Node2&#45;&gt;Node18 -->
<g id="edge30_Node000002_Node000018" class="edge">
<title>Node2&#45;&gt;Node18</title>
<g id="a_edge30_Node000002_Node000018"><a xlink:title=" ">
<path fill="none" stroke="#63b8ff" d="M254.86,-511.18C283.29,-507.66 317.17,-503.46 343.15,-500.24"/>
<polygon fill="#63b8ff" stroke="#63b8ff" points="343.48,-503.73 352.98,-499.03 342.62,-496.78 343.48,-503.73"/>
</a>
</g>
</g>
<!-- Node4 -->
<g id="Node000004" class="node">
<title>Node4</title>
<g id="a_Node000004"><a xlink:href="kest__button_8c.html#aa59f296fa9f9744c9753f81484085a15" target="_top" xlink:title=" ">
<polygon fill="white" stroke="#666666" points="625.38,-704.51 502.12,-704.51 502.12,-683.76 625.38,-683.76 625.38,-704.51"/>
<text xml:space="preserve" text-anchor="middle" x="563.75" y="-691.01" font-family="Helvetica,sans-Serif" font-size="10.00">button_set_clicked_cb</text>
</a>
</g>
</g>
<!-- Node3&#45;&gt;Node4 -->
<g id="edge3_Node000003_Node000004" class="edge">
<title>Node3&#45;&gt;Node4</title>
<g id="a_edge3_Node000003_Node000004"><a xlink:title=" ">
<path fill="none" stroke="#63b8ff" d="M404.6,-557.24C418.25,-570.61 436.88,-590.05 450.75,-609.14 470.16,-635.86 460.69,-653.86 486.75,-674.14 488.53,-675.52 490.39,-676.81 492.32,-678.01"/>
<polygon fill="#63b8ff" stroke="#63b8ff" points="490.63,-681.07 501.12,-682.59 493.87,-674.87 490.63,-681.07"/>
</a>
</g>
</g>
<!-- Node5 -->
<g id="Node000005" class="node">
<title>Node5</title>
<g id="a_Node000005"><a xlink:href="kest__button_8c.html#a20604a0eb74819a9747753ccfdb24e6c" target="_top" xlink:title=" ">
<polygon fill="white" stroke="#666666" points="778.25,-588.51 709.75,-588.51 709.75,-567.76 778.25,-567.76 778.25,-588.51"/>
<text xml:space="preserve" text-anchor="middle" x="744" y="-575.01" font-family="Helvetica,sans-Serif" font-size="10.00">init_button</text>
</a>
</g>
</g>
<!-- Node3&#45;&gt;Node5 -->
<g id="edge4_Node000003_Node000005" class="edge">
<title>Node3&#45;&gt;Node5</title>
<g id="a_edge4_Node000003_Node000005"><a xlink:title=" ">
<path fill="none" stroke="#63b8ff" d="M439.85,-551.42C454.96,-554.29 471.45,-557.13 486.75,-559.14 560.41,-568.81 646.67,-573.94 697.97,-576.34"/>
<polygon fill="#63b8ff" stroke="#63b8ff" points="697.64,-579.83 707.79,-576.79 697.95,-572.84 697.64,-579.83"/>
</a>
</g>
</g>
<!-- Node6 -->
<g id="Node000006" class="node">
<title>Node6</title>
<g id="a_Node000006"><a xlink:href="kest__button_8c.html#a79dee973d84b2c6abad7440f41145062" target="_top" xlink:title=" ">
<polygon fill="#fff0f0" stroke="red" points="617.88,-511.89 509.62,-511.89 509.62,-478.39 617.88,-478.39 617.88,-511.89"/>
<text xml:space="preserve" text-anchor="start" x="517.62" y="-498.39" font-family="Helvetica,sans-Serif" font-size="10.00">kest_active_button</text>
<text xml:space="preserve" text-anchor="middle" x="563.75" y="-485.64" font-family="Helvetica,sans-Serif" font-size="10.00">_del_cb</text>
</a>
</g>
</g>
<!-- Node3&#45;&gt;Node6 -->
<g id="edge5_Node000003_Node000006" class="edge">
<title>Node3&#45;&gt;Node6</title>
<g id="a_edge5_Node000003_Node000006"><a xlink:title=" ">
<path fill="none" stroke="#63b8ff" d="M439.77,-526.51C458.16,-521.82 478.96,-516.52 498.15,-511.62"/>
<polygon fill="#63b8ff" stroke="#63b8ff" points="498.94,-515.03 507.76,-509.17 497.21,-508.25 498.94,-515.03"/>
</a>
</g>
</g>
<!-- Node19 -->
<g id="Node000019" class="node">
<title>Node19</title>
<g id="a_Node000019"><a xlink:href="kest__button_8c.html#abe862422fc2d6cb221112645f26e29bd" target="_top" xlink:title=" ">
<polygon fill="white" stroke="#666666" points="623.12,-459.89 504.38,-459.89 504.38,-426.39 623.12,-426.39 623.12,-459.89"/>
<text xml:space="preserve" text-anchor="start" x="512.38" y="-446.39" font-family="Helvetica,sans-Serif" font-size="10.00">kest_button_add_sub</text>
<text xml:space="preserve" text-anchor="middle" x="563.75" y="-433.64" font-family="Helvetica,sans-Serif" font-size="10.00">_button</text>
</a>
</g>
</g>
<!-- Node3&#45;&gt;Node19 -->
<g id="edge6_Node000003_Node000019" class="edge">
<title>Node3&#45;&gt;Node19</title>
<g id="a_edge6_Node000003_Node000019"><a xlink:title=" ">
<path fill="none" stroke="#63b8ff" d="M436.28,-523.04C441.37,-520.41 446.3,-517.45 450.75,-514.14 471.29,-498.84 465.8,-483.87 486.75,-469.14 489.1,-467.49 491.55,-465.94 494.09,-464.48"/>
<polygon fill="#63b8ff" stroke="#63b8ff" points="495.56,-467.66 502.87,-459.98 492.37,-461.43 495.56,-467.66"/>
</a>
</g>
</g>
<!-- Node20 -->
<g id="Node000020" class="node">
<title>Node20</title>
<g id="a_Node000020"><a xlink:href="kest__button_8c.html#a247699a53218b0986f4149b42ecd3ae4" target="_top" xlink:title=" ">
<polygon fill="white" stroke="#666666" points="613.38,-280.51 514.12,-280.51 514.12,-259.76 613.38,-259.76 613.38,-280.51"/>
<text xml:space="preserve" text-anchor="middle" x="563.75" y="-267.01" font-family="Helvetica,sans-Serif" font-size="10.00">kest_button_hide</text>
</a>
</g>
</g>
<!-- Node3&#45;&gt;Node20 -->
<g id="edge7_Node000003_Node000020" class="edge">
<title>Node3&#45;&gt;Node20</title>
<g id="a_edge7_Node000003_Node000020"><a xlink:title=" ">
<path fill="none" stroke="#63b8ff" d="M439.98,-523.8C444.01,-521.06 447.69,-517.86 450.75,-514.14 504.53,-448.78 441.88,-398.9 486.75,-327.14 497.36,-310.16 515,-296.47 530.62,-286.76"/>
<polygon fill="#63b8ff" stroke="#63b8ff" points="532.34,-289.81 539.19,-281.73 528.79,-283.77 532.34,-289.81"/>
</a>
</g>
</g>
<!-- Node21 -->
<g id="Node000021" class="node">
<title>Node21</title>
<g id="a_Node000021"><a xlink:href="kest__button_8c.html#a8fdf6d6ae9b23100afda9fc1b7c9c985" target="_top" xlink:title=" ">
<polygon fill="white" stroke="#666666" points="637.75,-626.51 489.75,-626.51 489.75,-605.76 637.75,-605.76 637.75,-626.51"/>
<text xml:space="preserve" text-anchor="middle" x="563.75" y="-613.01" font-family="Helvetica,sans-Serif" font-size="10.00">kest_button_set_alignment</text>
</a>
</g>
</g>
<!-- Node3&#45;&gt;Node21 -->
<g id="edge8_Node000003_Node000021" class="edge">
<title>Node3&#45;&gt;Node21</title>
<g id="a_edge8_Node000003_Node000021"><a xlink:title=" ">
<path fill="none" stroke="#63b8ff" d="M416.04,-557.22C435.69,-568.11 462.26,-582.02 486.75,-592.14 495.2,-595.63 504.36,-598.92 513.29,-601.88"/>
<polygon fill="#63b8ff" stroke="#63b8ff" points="511.98,-605.14 522.58,-604.86 514.12,-598.47 511.98,-605.14"/>
</a>
</g>
</g>
<!-- Node22 -->
<g id="Node000022" class="node">
<title>Node22</title>
<g id="a_Node000022"><a xlink:href="kest__button_8c.html#ac24f7930db96a5006a81ec8255ad0e6c" target="_top" xlink:title=" ">
<polygon fill="white" stroke="#666666" points="625,-241.51 502.5,-241.51 502.5,-220.76 625,-220.76 625,-241.51"/>
<text xml:space="preserve" text-anchor="middle" x="563.75" y="-228.01" font-family="Helvetica,sans-Serif" font-size="10.00">kest_button_set_label</text>
</a>
</g>
</g>
<!-- Node3&#45;&gt;Node22 -->
<g id="edge9_Node000003_Node000022" class="edge">
<title>Node3&#45;&gt;Node22</title>
<g id="a_edge9_Node000003_Node000022"><a xlink:title=" ">
<path fill="none" stroke="#63b8ff" d="M439.9,-524.18C444,-521.36 447.71,-518.04 450.75,-514.14 523.22,-421.04 408.54,-339.46 486.75,-251.14 488.65,-248.99 490.75,-247.07 493,-245.33"/>
<polygon fill="#63b8ff" stroke="#63b8ff" points="494.38,-248.59 501.07,-240.37 490.72,-242.63 494.38,-248.59"/>
</a>
</g>
</g>
<!-- Node24 -->
<g id="Node000024" class="node">
<title>Node24</title>
<g id="a_Node000024"><a xlink:href="kest__button_8c.html#acb9de2f6034f6759c09358b5444db480" target="_top" xlink:title=" ">
<polygon fill="white" stroke="#666666" points="622.75,-665.51 504.75,-665.51 504.75,-644.76 622.75,-644.76 622.75,-665.51"/>
<text xml:space="preserve" text-anchor="middle" x="563.75" y="-652.01" font-family="Helvetica,sans-Serif" font-size="10.00">kest_button_set_size</text>
</a>
</g>
</g>
<!-- Node3&#45;&gt;Node24 -->
<g id="edge11_Node000003_Node000024" class="edge">
<title>Node3&#45;&gt;Node24</title>
<g id="a_edge11_Node000003_Node000024"><a xlink:title=" ">
<path fill="none" stroke="#63b8ff" d="M402.29,-557.1C425.45,-581.46 467.77,-624.58 486.75,-635.14 490.19,-637.05 493.83,-638.79 497.56,-640.37"/>
<polygon fill="#63b8ff" stroke="#63b8ff" points="496.29,-643.63 506.88,-643.86 498.74,-637.07 496.29,-643.63"/>
</a>
</g>
</g>
<!-- Node25 -->
<g id="Node000025" class="node">
<title>Node25</title>
<g id="a_Node000025"><a xlink:href="kest__button_8c.html#afd8846ca469218a65279da29ad72e29b" target="_top" xlink:title=" ">
<polygon fill="white" stroke="#666666" points="600.25,-550.51 527.25,-550.51 527.25,-529.76 600.25,-529.76 600.25,-550.51"/>
<text xml:space="preserve" text-anchor="middle" x="563.75" y="-537.01" font-family="Helvetica,sans-Serif" font-size="10.00">new_button</text>
</a>
</g>
</g>
<!-- Node3&#45;&gt;Node25 -->
<g id="edge12_Node000003_Node000025" class="edge">
<title>Node3&#45;&gt;Node25</title>
<g id="a_edge12_Node000003_Node000025"><a xlink:title=" ">
<path fill="none" stroke="#63b8ff" d="M439.77,-540.14C463.88,-540.14 492.13,-540.14 515.47,-540.14"/>
<polygon fill="#63b8ff" stroke="#63b8ff" points="515.32,-543.64 525.32,-540.14 515.32,-536.64 515.32,-543.64"/>
</a>
</g>
</g>
<!-- Node23 -->
<g id="Node000023" class="node">
<title>Node23</title>
<g id="a_Node000023"><a xlink:href="kest__button_8c.html#a56b5c7012f627d4d3f454029e26f1bef" target="_top" xlink:title=" ">
<polygon fill="white" stroke="#666666" points="798.5,-209.89 689.5,-209.89 689.5,-176.39 798.5,-176.39 798.5,-209.89"/>
<text xml:space="preserve" text-anchor="start" x="697.5" y="-196.39" font-family="Helvetica,sans-Serif" font-size="10.00">kest_button_create</text>
<text xml:space="preserve" text-anchor="middle" x="744" y="-183.64" font-family="Helvetica,sans-Serif" font-size="10.00">_label_ui</text>
</a>
</g>
</g>
<!-- Node22&#45;&gt;Node23 -->
<g id="edge10_Node000022_Node000023" class="edge">
<title>Node22&#45;&gt;Node23</title>
<g id="a_edge10_Node000022_Node000023"><a xlink:title=" ">
<path fill="none" stroke="#63b8ff" d="M615.35,-220.35C634.81,-216.2 657.29,-211.41 677.92,-207.01"/>
<polygon fill="#63b8ff" stroke="#63b8ff" points="678.63,-210.44 687.68,-204.93 677.17,-203.59 678.63,-210.44"/>
</a>
</g>
</g>
<!-- Node25&#45;&gt;Node5 -->
<g id="edge13_Node000025_Node000005" class="edge">
<title>Node25&#45;&gt;Node5</title>
<g id="a_edge13_Node000025_Node000005"><a xlink:title=" ">
<path fill="none" stroke="#63b8ff" d="M600.39,-547.74C628.59,-553.75 668.12,-562.18 698.41,-568.63"/>
<polygon fill="#63b8ff" stroke="#63b8ff" points="697.54,-572.03 708.05,-570.69 699,-565.18 697.54,-572.03"/>
</a>
</g>
</g>
<!-- Node25&#45;&gt;Node26 -->
<g id="edge14_Node000025_Node000026" class="edge">
<title>Node25&#45;&gt;Node26</title>
<g id="a_edge14_Node000025_Node000026"><a xlink:title=" ">
<path fill="none" stroke="#63b8ff" d="M600.65,-535.96C613.99,-533.21 628.77,-528.67 640.75,-521.14 682.26,-495.05 715.15,-446.44 731.57,-418.78"/>
<polygon fill="#63b8ff" stroke="#63b8ff" points="734.5,-420.7 736.46,-410.29 728.43,-417.21 734.5,-420.7"/>
</a>
</g>
</g>
<!-- Node27&#45;&gt;Node21 -->
<g id="edge17_Node000027_Node000021" class="edge">
<title>Node27&#45;&gt;Node21</title>
<g id="a_edge17_Node000027_Node000021"><a xlink:title=" ">
<path fill="none" stroke="#63b8ff" d="M439.77,-629.39C451.85,-628.09 464.96,-626.67 477.98,-625.27"/>
<polygon fill="#63b8ff" stroke="#63b8ff" points="478.29,-628.76 487.85,-624.21 477.54,-621.8 478.29,-628.76"/>
</a>
</g>
</g>
<!-- Node27&#45;&gt;Node24 -->
<g id="edge18_Node000027_Node000024" class="edge">
<title>Node27&#45;&gt;Node24</title>
<g id="a_edge18_Node000027_Node000024"><a xlink:title=" ">
<path fill="none" stroke="#63b8ff" d="M439.77,-641.19C456.49,-643.09 475.19,-645.21 492.87,-647.21"/>
<polygon fill="#63b8ff" stroke="#63b8ff" points="492.47,-650.69 502.8,-648.34 493.26,-643.74 492.47,-650.69"/>
</a>
</g>
</g>
<!-- Node13 -->
<g id="Node000013" class="node">
<title>Node13</title>
<g id="a_Node000013"><a xlink:href="kest__button_8c.html#ab7fe55b3f96297fce8392af5ccfe1ae4" target="_top" xlink:title=" ">
<polygon fill="white" stroke="#666666" points="631,-755.89 496.5,-755.89 496.5,-722.39 631,-722.39 631,-755.89"/>
<text xml:space="preserve" text-anchor="start" x="504.5" y="-742.39" font-family="Helvetica,sans-Serif" font-size="10.00">kest_active_button</text>
<text xml:space="preserve" text-anchor="middle" x="563.75" y="-729.64" font-family="Helvetica,sans-Serif" font-size="10.00">_array_index_y_position</text>
</a>
</g>
</g>
<!-- Node27&#45;&gt;Node13 -->
<g id="edge16_Node000027_Node000013" class="edge">
<title>Node27&#45;&gt;Node13</title>
<g id="a_edge16_Node000027_Node000013"><a xlink:title=" ">
<path fill="none" stroke="#63b8ff" d="M404.31,-652.09C423.45,-669.43 455.29,-696.15 486.75,-713.14 489.57,-714.66 492.49,-716.12 495.48,-717.51"/>
<polygon fill="#63b8ff" stroke="#63b8ff" points="493.88,-720.63 504.44,-721.4 496.66,-714.21 493.88,-720.63"/>
</a>
</g>
</g>
<!-- Node28&#45;&gt;Node4 -->
<g id="edge20_Node000028_Node000004" class="edge">
<title>Node28&#45;&gt;Node4</title>
<g id="a_edge20_Node000028_Node000004"><a xlink:title=" ">
<path fill="none" stroke="#63b8ff" d="M388.66,-896.34C396.24,-863.32 423.69,-763.01 486.75,-713.14 488.47,-711.78 490.28,-710.51 492.15,-709.34"/>
<polygon fill="#63b8ff" stroke="#63b8ff" points="493.42,-712.62 500.65,-704.88 490.17,-706.42 493.42,-712.62"/>
</a>
</g>
</g>
<!-- Node28&#45;&gt;Node5 -->
<g id="edge24_Node000028_Node000005" class="edge">
<title>Node28&#45;&gt;Node5</title>
<g id="a_edge24_Node000028_Node000005"><a xlink:title=" ">
<path fill="none" stroke="#63b8ff" d="M390.65,-917.88C401.8,-944.17 434.54,-1011.49 486.75,-1037.14 548.18,-1067.32 587.35,-1079.95 640.75,-1037.14 710.66,-981.09 735.85,-683.73 741.62,-600.06"/>
<polygon fill="#63b8ff" stroke="#63b8ff" points="745.1,-600.45 742.27,-590.24 738.12,-599.99 745.1,-600.45"/>
</a>
</g>
</g>
<!-- Node29 -->
<g id="Node000029" class="node">
<title>Node29</title>
<g id="a_Node000029"><a xlink:href="kest__button_8c.html#a83cf55aa097bd9144aa25c7296221deb" target="_top" xlink:title=" ">
<polygon fill="white" stroke="#666666" points="640.75,-976.51 486.75,-976.51 486.75,-955.76 640.75,-955.76 640.75,-976.51"/>
<text xml:space="preserve" text-anchor="middle" x="563.75" y="-963.01" font-family="Helvetica,sans-Serif" font-size="10.00">button_set_long_pressed_cb</text>
</a>
</g>
</g>
<!-- Node28&#45;&gt;Node29 -->
<g id="edge21_Node000028_Node000029" class="edge">
<title>Node28&#45;&gt;Node29</title>
<g id="a_edge21_Node000028_Node000029"><a xlink:title=" ">
<path fill="none" stroke="#63b8ff" d="M411.67,-917.88C431.79,-926.21 460.79,-937.71 486.75,-946.14 493.39,-948.3 500.42,-950.39 507.41,-952.36"/>
<polygon fill="#63b8ff" stroke="#63b8ff" points="506.27,-955.68 516.84,-954.94 508.12,-948.93 506.27,-955.68"/>
</a>
</g>
</g>
<!-- Node30 -->
<g id="Node000030" class="node">
<title>Node30</title>
<g id="a_Node000030"><a xlink:href="kest__button_8c.html#af00d79cf42f9b296fbb6027daacc8fb9" target="_top" xlink:title=" ">
<polygon fill="white" stroke="#666666" points="629.12,-937.51 498.38,-937.51 498.38,-916.76 629.12,-916.76 629.12,-937.51"/>
<text xml:space="preserve" text-anchor="middle" x="563.75" y="-924.01" font-family="Helvetica,sans-Serif" font-size="10.00">button_set_pressing_cb</text>
</a>
</g>
</g>
<!-- Node28&#45;&gt;Node30 -->
<g id="edge22_Node000028_Node000030" class="edge">
<title>Node28&#45;&gt;Node30</title>
<g id="a_edge22_Node000028_Node000030"><a xlink:title=" ">
<path fill="none" stroke="#63b8ff" d="M450.05,-914.36C461.99,-915.71 474.57,-917.14 486.84,-918.53"/>
<polygon fill="#63b8ff" stroke="#63b8ff" points="486.15,-921.97 496.48,-919.62 486.94,-915.02 486.15,-921.97"/>
</a>
</g>
</g>
<!-- Node31 -->
<g id="Node000031" class="node">
<title>Node31</title>
<g id="a_Node000031"><a xlink:href="kest__button_8c.html#a88c9b098c88d8bd3adc510cc34130a67" target="_top" xlink:title=" ">
<polygon fill="white" stroke="#666666" points="629.5,-898.51 498,-898.51 498,-877.76 629.5,-877.76 629.5,-898.51"/>
<text xml:space="preserve" text-anchor="middle" x="563.75" y="-885.01" font-family="Helvetica,sans-Serif" font-size="10.00">button_set_released_cb</text>
</a>
</g>
</g>
<!-- Node28&#45;&gt;Node31 -->
<g id="edge23_Node000028_Node000031" class="edge">
<title>Node28&#45;&gt;Node31</title>
<g id="a_edge23_Node000028_Node000031"><a xlink:title=" ">
<path fill="none" stroke="#63b8ff" d="M450.05,-900.28C461.91,-899 474.41,-897.65 486.61,-896.34"/>
<polygon fill="#63b8ff" stroke="#63b8ff" points="486.61,-899.86 496.18,-895.31 485.86,-892.9 486.61,-899.86"/>
</a>
</g>
</g>
<!-- Node32 -->
<g id="Node000032" class="node">
<title>Node32</title>
<g id="a_Node000032"><a xlink:href="kest__button_8c.html#a29023886dc241d5e52af656d2e8f7077" target="_top" xlink:title=" ">
<polygon fill="white" stroke="#666666" points="617.88,-859.89 509.62,-859.89 509.62,-826.39 617.88,-826.39 617.88,-859.89"/>
<text xml:space="preserve" text-anchor="start" x="517.62" y="-846.39" font-family="Helvetica,sans-Serif" font-size="10.00">kest_active_button</text>
<text xml:space="preserve" text-anchor="middle" x="563.75" y="-833.64" font-family="Helvetica,sans-Serif" font-size="10.00">_clicked_cb</text>
</a>
</g>
</g>
<!-- Node28&#45;&gt;Node32 -->
<g id="edge25_Node000028_Node000032" class="edge">
<title>Node28&#45;&gt;Node32</title>
<g id="a_edge25_Node000028_Node000032"><a xlink:title=" ">
<path fill="none" stroke="#63b8ff" d="M413.98,-896.41C434.09,-888.67 462.03,-878.04 486.75,-869.14 491.45,-867.44 496.33,-865.71 501.24,-863.99"/>
<polygon fill="#63b8ff" stroke="#63b8ff" points="502.26,-867.34 510.55,-860.75 499.95,-860.73 502.26,-867.34"/>
</a>
</g>
</g>
<!-- Node33 -->
<g id="Node000033" class="node">
<title>Node33</title>
<g id="a_Node000033"><a xlink:href="kest__button_8c.html#af4a8a2f9042aae51caf39056d3ae1972" target="_top" xlink:title=" ">
<polygon fill="#fff0f0" stroke="red" points="617.88,-807.89 509.62,-807.89 509.62,-774.39 617.88,-774.39 617.88,-807.89"/>
<text xml:space="preserve" text-anchor="start" x="517.62" y="-794.39" font-family="Helvetica,sans-Serif" font-size="10.00">kest_active_button</text>
<text xml:space="preserve" text-anchor="middle" x="563.75" y="-781.64" font-family="Helvetica,sans-Serif" font-size="10.00">_long_pressed_cb</text>
</a>
</g>
</g>
<!-- Node28&#45;&gt;Node33 -->
<g id="edge26_Node000028_Node000033" class="edge">
<title>Node28&#45;&gt;Node33</title>
<g id="a_edge26_Node000028_Node000033"><a xlink:title=" ">
<path fill="none" stroke="#63b8ff" d="M395.56,-896.47C412.06,-877.9 448.59,-839.51 486.75,-817.14 490.57,-814.9 494.6,-812.82 498.75,-810.89"/>
<polygon fill="#63b8ff" stroke="#63b8ff" points="500.01,-814.16 507.82,-806.99 497.25,-807.72 500.01,-814.16"/>
</a>
</g>
</g>
<!-- Node39 -->
<g id="Node000039" class="node">
<title>Node39</title>
<g id="a_Node000039"><a xlink:href="kest__button_8c.html#a5e8684adc8c5fbe7944b7cc188cd7b2c" target="_top" xlink:title=" ">
<polygon fill="#fff0f0" stroke="red" points="617.88,-1117.89 509.62,-1117.89 509.62,-1084.39 617.88,-1084.39 617.88,-1117.89"/>
<text xml:space="preserve" text-anchor="start" x="517.62" y="-1104.39" font-family="Helvetica,sans-Serif" font-size="10.00">kest_active_button</text>
<text xml:space="preserve" text-anchor="middle" x="563.75" y="-1091.64" font-family="Helvetica,sans-Serif" font-size="10.00">_pressing_cb</text>
</a>
</g>
</g>
<!-- Node28&#45;&gt;Node39 -->
<g id="edge27_Node000028_Node000039" class="edge">
<title>Node28&#45;&gt;Node39</title>
<g id="a_edge27_Node000028_Node000039"><a xlink:title=" ">
<path fill="none" stroke="#63b8ff" d="M390.23,-917.88C401.03,-946.54 434.27,-1025.66 486.75,-1070.14 490.58,-1073.39 494.8,-1076.33 499.23,-1078.99"/>
<polygon fill="#63b8ff" stroke="#63b8ff" points="497.39,-1081.97 507.85,-1083.64 500.71,-1075.81 497.39,-1081.97"/>
</a>
</g>
</g>
<!-- Node40 -->
<g id="Node000040" class="node">
<title>Node40</title>
<g id="a_Node000040"><a xlink:href="kest__button_8c.html#abd7f68ebcde411086bd7fa11eb96564b" target="_top" xlink:title=" ">
<polygon fill="#fff0f0" stroke="red" points="617.88,-1027.89 509.62,-1027.89 509.62,-994.39 617.88,-994.39 617.88,-1027.89"/>
<text xml:space="preserve" text-anchor="start" x="517.62" y="-1014.39" font-family="Helvetica,sans-Serif" font-size="10.00">kest_active_button</text>
<text xml:space="preserve" text-anchor="middle" x="563.75" y="-1001.64" font-family="Helvetica,sans-Serif" font-size="10.00">_release_cb</text>
</a>
</g>
</g>
<!-- Node28&#45;&gt;Node40 -->
<g id="edge28_Node000028_Node000040" class="edge">
<title>Node28&#45;&gt;Node40</title>
<g id="a_edge28_Node000028_Node000040"><a xlink:title=" ">
<path fill="none" stroke="#63b8ff" d="M397.54,-917.87C415.19,-934.34 451.21,-965.95 486.75,-985.14 490.64,-987.24 494.74,-989.22 498.92,-991.08"/>
<polygon fill="#63b8ff" stroke="#63b8ff" points="497.48,-994.27 508.06,-994.86 500.16,-987.8 497.48,-994.27"/>
</a>
</g>
</g>
<!-- Node46 -->
<g id="Node000046" class="node">
<title>Node46</title>
<g id="a_Node000046"><a xlink:href="kest__button_8c.html#a42c4bb920da57000dbde4fa1fa26868c" target="_top" xlink:title=" ">
<polygon fill="white" stroke="#666666" points="434.25,-408.51 336.5,-408.51 336.5,-387.76 434.25,-387.76 434.25,-408.51"/>
<text xml:space="preserve" text-anchor="middle" x="385.38" y="-395.01" font-family="Helvetica,sans-Serif" font-size="10.00">create_button_ui</text>
</a>
</g>
</g>
<!-- Node45&#45;&gt;Node46 -->
<g id="edge32_Node000045_Node000046" class="edge">
<title>Node45&#45;&gt;Node46</title>
<g id="a_edge32_Node000045_Node000046"><a xlink:title=" ">
<path fill="none" stroke="#63b8ff" d="M251.85,-430.96C276.21,-424.92 305.05,-417.78 329.59,-411.71"/>
<polygon fill="#63b8ff" stroke="#63b8ff" points="330.2,-415.16 339.06,-409.36 328.52,-408.37 330.2,-415.16"/>
</a>
</g>
</g>
<!-- Node46&#45;&gt;Node46 -->
<g id="edge33_Node000046_Node000046" class="edge">
<title>Node46&#45;&gt;Node46</title>
<g id="a_edge33_Node000046_Node000046"><a xlink:title=" ">
<path fill="none" stroke="#63b8ff" d="M356.63,-408.91C345.14,-417.57 354.72,-426.51 385.38,-426.51 402.14,-426.51 412.6,-423.84 416.76,-420"/>
<polygon fill="#63b8ff" stroke="#63b8ff" points="420.19,-419.3 414.47,-410.38 413.38,-420.92 420.19,-419.3"/>
</a>
</g>
</g>
<!-- Node49&#45;&gt;Node26 -->
<g id="edge37_Node000049_Node000026" class="edge">
<title>Node49&#45;&gt;Node26</title>
<g id="a_edge37_Node000049_Node000026"><a xlink:title=" ">
<path fill="none" stroke="#63b8ff" d="M275.67,-298.76C365.8,-290.64 518.25,-285.87 640.75,-327.14 673.14,-338.05 704.52,-362.57 723.79,-379.72"/>
<polygon fill="#63b8ff" stroke="#63b8ff" points="721.38,-382.26 731.11,-386.44 726.11,-377.1 721.38,-382.26"/>
</a>
</g>
</g>
<!-- Node50 -->
<g id="Node000050" class="node">
<title>Node50</title>
<g id="a_Node000050"><a xlink:href="kest__sequence_8c.html#abb62e308c5b4830b09a802084718cb2d" target="_top" xlink:title=" ">
<polygon fill="white" stroke="#666666" points="448.88,-369.89 321.88,-369.89 321.88,-336.39 448.88,-336.39 448.88,-369.89"/>
<text xml:space="preserve" text-anchor="start" x="329.88" y="-356.39" font-family="Helvetica,sans-Serif" font-size="10.00">kest_sequence_update</text>
<text xml:space="preserve" text-anchor="middle" x="385.38" y="-343.64" font-family="Helvetica,sans-Serif" font-size="10.00">_representations</text>
</a>
</g>
</g>
<!-- Node49&#45;&gt;Node50 -->
<g id="edge38_Node000049_Node000050" class="edge">
<title>Node49&#45;&gt;Node50</title>
<g id="a_edge38_Node000049_Node000050"><a xlink:title=" ">
<path fill="none" stroke="#63b8ff" d="M245.18,-318.92C257.78,-321.87 271.42,-325.1 284,-328.14 292.53,-330.2 301.46,-332.38 310.33,-334.57"/>
<polygon fill="#63b8ff" stroke="#63b8ff" points="309.48,-337.97 320.02,-336.97 311.16,-331.17 309.48,-337.97"/>
</a>
</g>
</g>
<!-- Node51 -->
<g id="Node000051" class="node">
<title>Node51</title>
<g id="a_Node000051"><a xlink:href="kest__representation_8c.html#a7a4a0f32b72f47d90e3d0f5932fbe58f" target="_top" xlink:title=" ">
<polygon fill="white" stroke="#666666" points="625,-369.89 502.5,-369.89 502.5,-336.39 625,-336.39 625,-369.89"/>
<text xml:space="preserve" text-anchor="start" x="510.5" y="-356.39" font-family="Helvetica,sans-Serif" font-size="10.00">queue_representation</text>
<text xml:space="preserve" text-anchor="middle" x="563.75" y="-343.64" font-family="Helvetica,sans-Serif" font-size="10.00">_list_update</text>
</a>
</g>
</g>
<!-- Node50&#45;&gt;Node51 -->
<g id="edge39_Node000050_Node000051" class="edge">
<title>Node50&#45;&gt;Node51</title>
<g id="a_edge39_Node000050_Node000051"><a xlink:title=" ">
<path fill="none" stroke="#63b8ff" d="M449.05,-353.14C462.51,-353.14 476.84,-353.14 490.63,-353.14"/>
<polygon fill="#63b8ff" stroke="#63b8ff" points="490.53,-356.64 500.53,-353.14 490.53,-349.64 490.53,-356.64"/>
</a>
</g>
</g>
<!-- Node53 -->
<g id="Node000053" class="node">
<title>Node53</title>
<g id="a_Node000053"><a xlink:href="kest__button_8c.html#a9899cf8789d635db3bb8b1d4c514e140" target="_top" xlink:title=" ">
<polygon fill="white" stroke="#666666" points="439.5,-247.89 331.25,-247.89 331.25,-214.39 439.5,-214.39 439.5,-247.89"/>
<text xml:space="preserve" text-anchor="start" x="339.25" y="-234.39" font-family="Helvetica,sans-Serif" font-size="10.00">kest_active_button</text>
<text xml:space="preserve" text-anchor="middle" x="385.38" y="-221.64" font-family="Helvetica,sans-Serif" font-size="10.00">_change_label</text>
</a>
</g>
</g>
<!-- Node52&#45;&gt;Node53 -->
<g id="edge41_Node000052_Node000053" class="edge">
<title>Node52&#45;&gt;Node53</title>
<g id="a_edge41_Node000052_Node000053"><a xlink:title=" ">
<path fill="none" stroke="#63b8ff" d="M261.77,-213.98C280.5,-216.6 301.03,-219.47 319.84,-222.11"/>
<polygon fill="#63b8ff" stroke="#63b8ff" points="319.11,-225.54 329.5,-223.46 320.08,-218.6 319.11,-225.54"/>
</a>
</g>
</g>
<!-- Node54 -->
<g id="Node000054" class="node">
<title>Node54</title>
<g id="a_Node000054"><a xlink:href="kest__button_8c.html#ab3d484ae52f7d01018eba300e3fe4e1f" target="_top" xlink:title=" ">
<polygon fill="white" stroke="#666666" points="439.5,-195.89 331.25,-195.89 331.25,-162.39 439.5,-162.39 439.5,-195.89"/>
<text xml:space="preserve" text-anchor="start" x="339.25" y="-182.39" font-family="Helvetica,sans-Serif" font-size="10.00">kest_active_button</text>
<text xml:space="preserve" text-anchor="middle" x="385.38" y="-169.64" font-family="Helvetica,sans-Serif" font-size="10.00">_reset_del_button</text>
</a>
</g>
</g>
<!-- Node52&#45;&gt;Node54 -->
<g id="edge43_Node000052_Node000054" class="edge">
<title>Node52&#45;&gt;Node54</title>
<g id="a_edge43_Node000052_Node000054"><a xlink:title=" ">
<path fill="none" stroke="#63b8ff" d="M261.77,-196.3C280.5,-193.68 301.03,-190.8 319.84,-188.17"/>
<polygon fill="#63b8ff" stroke="#63b8ff" points="320.08,-191.67 329.5,-186.82 319.11,-184.74 320.08,-191.67"/>
</a>
</g>
</g>
<!-- Node57 -->
<g id="Node000057" class="node">
<title>Node57</title>
<g id="a_Node000057"><a xlink:href="kest__button_8c.html#ab59ebaba4ff87ed51677e73ba4aac2ef" target="_top" xlink:title=" ">
<polygon fill="#fff0f0" stroke="red" points="450.75,-111.26 320,-111.26 320,-65.01 450.75,-65.01 450.75,-111.26"/>
<text xml:space="preserve" text-anchor="start" x="328" y="-97.76" font-family="Helvetica,sans-Serif" font-size="10.00">kest_active_button</text>
<text xml:space="preserve" text-anchor="start" x="328" y="-85.01" font-family="Helvetica,sans-Serif" font-size="10.00">_swap_del_button_for</text>
<text xml:space="preserve" text-anchor="middle" x="385.38" y="-72.26" font-family="Helvetica,sans-Serif" font-size="10.00">_persistent_unclickable</text>
</a>
</g>
</g>
<!-- Node52&#45;&gt;Node57 -->
<g id="edge51_Node000052_Node000057" class="edge">
<title>Node52&#45;&gt;Node57</title>
<g id="a_edge51_Node000052_Node000057"><a xlink:title=" ">
<path fill="none" stroke="#63b8ff" d="M225.63,-188.13C254.88,-169.7 302.08,-139.97 337.43,-117.71"/>
<polygon fill="#63b8ff" stroke="#63b8ff" points="339.18,-120.74 345.78,-112.45 335.45,-114.82 339.18,-120.74"/>
</a>
</g>
</g>
<!-- Node53&#45;&gt;Node22 -->
<g id="edge42_Node000053_Node000022" class="edge">
<title>Node53&#45;&gt;Node22</title>
<g id="a_edge42_Node000053_Node000022"><a xlink:title=" ">
<path fill="none" stroke="#63b8ff" d="M439.77,-231.14C455.91,-231.14 473.89,-231.14 491.02,-231.14"/>
<polygon fill="#63b8ff" stroke="#63b8ff" points="490.61,-234.64 500.61,-231.14 490.61,-227.64 490.61,-234.64"/>
</a>
</g>
</g>
<!-- Node54&#45;&gt;Node20 -->
<g id="edge47_Node000054_Node000020" class="edge">
<title>Node54&#45;&gt;Node20</title>
<g id="a_edge47_Node000054_Node000020"><a xlink:title=" ">
<path fill="none" stroke="#63b8ff" d="M436.28,-196.24C441.37,-198.87 446.3,-201.83 450.75,-205.14 471.29,-220.43 465.28,-236.17 486.75,-250.14 491.83,-253.44 497.42,-256.2 503.21,-258.5"/>
<polygon fill="#63b8ff" stroke="#63b8ff" points="501.74,-261.69 512.34,-261.68 504.04,-255.08 501.74,-261.69"/>
</a>
</g>
</g>
<!-- Node54&#45;&gt;Node22 -->
<g id="edge50_Node000054_Node000022" class="edge">
<title>Node54&#45;&gt;Node22</title>
<g id="a_edge50_Node000054_Node000022"><a xlink:title=" ">
<path fill="none" stroke="#63b8ff" d="M439.77,-194.88C463.73,-201.95 491.78,-210.21 515.03,-217.07"/>
<polygon fill="#63b8ff" stroke="#63b8ff" points="513.98,-220.41 524.56,-219.88 515.96,-213.7 513.98,-220.41"/>
</a>
</g>
</g>
<!-- Node54&#45;&gt;Node23 -->
<g id="edge46_Node000054_Node000023" class="edge">
<title>Node54&#45;&gt;Node23</title>
<g id="a_edge46_Node000054_Node000023"><a xlink:title=" ">
<path fill="none" stroke="#63b8ff" d="M439.77,-181.23C503.32,-183.73 609.42,-187.89 677.78,-190.58"/>
<polygon fill="#63b8ff" stroke="#63b8ff" points="677.6,-194.07 687.73,-190.97 677.88,-187.08 677.6,-194.07"/>
</a>
</g>
</g>
<!-- Node35 -->
<g id="Node000035" class="node">
<title>Node35</title>
<g id="a_Node000035"><a xlink:href="kest__button_8c.html#acef3a5e0199ca168471154fc981f4931" target="_top" xlink:title=" ">
<polygon fill="white" stroke="#666666" points="622,-126.89 505.5,-126.89 505.5,-93.39 622,-93.39 622,-126.89"/>
<text xml:space="preserve" text-anchor="start" x="513.5" y="-113.39" font-family="Helvetica,sans-Serif" font-size="10.00">kest_active_button</text>
<text xml:space="preserve" text-anchor="middle" x="563.75" y="-100.64" font-family="Helvetica,sans-Serif" font-size="10.00">_del_button_fade_cb</text>
</a>
</g>
</g>
<!-- Node54&#45;&gt;Node35 -->
<g id="edge44_Node000054_Node000035" class="edge">
<title>Node54&#45;&gt;Node35</title>
<g id="a_edge44_Node000054_Node000035"><a xlink:title=" ">
<path fill="none" stroke="#63b8ff" d="M424.71,-161.92C443.3,-153.77 466.05,-144.1 486.75,-136.14 491.07,-134.48 495.55,-132.81 500.07,-131.16"/>
<polygon fill="#63b8ff" stroke="#63b8ff" points="500.98,-134.56 509.22,-127.89 498.62,-127.96 500.98,-134.56"/>
</a>
</g>
</g>
<!-- Node55 -->
<g id="Node000055" class="node">
<title>Node55</title>
<g id="a_Node000055"><a xlink:href="kest__button_8c.html#ad480fe803983ae07bbf32f7930d9f467" target="_top" xlink:title=" ">
<polygon fill="white" stroke="#666666" points="630.25,-75.51 497.25,-75.51 497.25,-54.76 630.25,-54.76 630.25,-75.51"/>
<text xml:space="preserve" text-anchor="middle" x="563.75" y="-62.01" font-family="Helvetica,sans-Serif" font-size="10.00">kest_button_reset_state</text>
</a>
</g>
</g>
<!-- Node54&#45;&gt;Node55 -->
<g id="edge48_Node000054_Node000055" class="edge">
<title>Node54&#45;&gt;Node55</title>
<g id="a_edge48_Node000054_Node000055"><a xlink:title=" ">
<path fill="none" stroke="#63b8ff" d="M405.45,-162.06C418.37,-150.39 435.75,-134.5 450.75,-120.14 467.09,-104.49 467.06,-95.29 486.75,-84.14 489.38,-82.65 492.12,-81.28 494.94,-80.01"/>
<polygon fill="#63b8ff" stroke="#63b8ff" points="495.99,-83.36 504,-76.43 493.42,-76.85 495.99,-83.36"/>
</a>
</g>
</g>
<!-- Node56 -->
<g id="Node000056" class="node">
<title>Node56</title>
<g id="a_Node000056"><a xlink:href="kest__button_8c.html#a88fd3b166bca9400285d9f8cbd52d081" target="_top" xlink:title=" ">
<polygon fill="white" stroke="#666666" points="634.75,-165.51 492.75,-165.51 492.75,-144.76 634.75,-144.76 634.75,-165.51"/>
<text xml:space="preserve" text-anchor="middle" x="563.75" y="-152.01" font-family="Helvetica,sans-Serif" font-size="10.00">kest_button_set_clickable</text>
</a>
</g>
</g>
<!-- Node54&#45;&gt;Node56 -->
<g id="edge49_Node000054_Node000056" class="edge">
<title>Node54&#45;&gt;Node56</title>
<g id="a_edge49_Node000054_Node000056"><a xlink:title=" ">
<path fill="none" stroke="#63b8ff" d="M439.77,-171.87C452.81,-170.1 467.06,-168.16 481.09,-166.25"/>
<polygon fill="#63b8ff" stroke="#63b8ff" points="481.33,-169.75 490.76,-164.93 480.38,-162.81 481.33,-169.75"/>
</a>
</g>
</g>
<!-- Node9 -->
<g id="Node000009" class="node">
<title>Node9</title>
<g id="a_Node000009"><a xlink:href="kest__button_8c.html#a2835584385bb5d418a3ca596aa0ef5b1" target="_top" xlink:title=" ">
<polygon fill="white" stroke="#666666" points="811.25,-60.51 676.75,-60.51 676.75,-39.76 811.25,-39.76 811.25,-60.51"/>
<text xml:space="preserve" text-anchor="middle" x="744" y="-47.01" font-family="Helvetica,sans-Serif" font-size="10.00">kest_button_set_opacity</text>
</a>
</g>
</g>
<!-- Node35&#45;&gt;Node9 -->
<g id="edge45_Node000035_Node000009" class="edge">
<title>Node35&#45;&gt;Node9</title>
<g id="a_edge45_Node000035_Node000009"><a xlink:title=" ">
<path fill="none" stroke="#63b8ff" d="M615.83,-92.94C642.44,-83.99 674.63,-73.15 699.97,-64.62"/>
<polygon fill="#63b8ff" stroke="#63b8ff" points="700.93,-67.99 709.29,-61.49 698.69,-61.36 700.93,-67.99"/>
</a>
</g>
</g>
<!-- Node57&#45;&gt;Node22 -->
<g id="edge55_Node000057_Node000022" class="edge">
<title>Node57&#45;&gt;Node22</title>
<g id="a_edge55_Node000057_Node000022"><a xlink:title=" ">
<path fill="none" stroke="#63b8ff" d="M412.82,-111.61C432.83,-129.18 461.15,-153.61 486.75,-174.14 503.74,-187.77 523.43,-202.5 538.51,-213.58"/>
<polygon fill="#63b8ff" stroke="#63b8ff" points="536.32,-216.31 546.46,-219.39 540.45,-210.66 536.32,-216.31"/>
</a>
</g>
</g>
<!-- Node57&#45;&gt;Node23 -->
<g id="edge53_Node000057_Node000023" class="edge">
<title>Node57&#45;&gt;Node23</title>
<g id="a_edge53_Node000057_Node000023"><a xlink:title=" ">
<path fill="none" stroke="#63b8ff" d="M431.79,-64.53C484.85,-40.46 573.91,-11.21 640.75,-46.14 688.86,-71.28 718.91,-130.51 733.15,-165.63"/>
<polygon fill="#63b8ff" stroke="#63b8ff" points="729.79,-166.65 736.68,-174.7 736.32,-164.11 729.79,-166.65"/>
</a>
</g>
</g>
<!-- Node57&#45;&gt;Node35 -->
<g id="edge52_Node000057_Node000035" class="edge">
<title>Node57&#45;&gt;Node35</title>
<g id="a_edge52_Node000057_Node000035"><a xlink:title=" ">
<path fill="none" stroke="#63b8ff" d="M451.05,-96.21C465.01,-97.95 479.83,-99.79 493.94,-101.56"/>
<polygon fill="#63b8ff" stroke="#63b8ff" points="493.22,-104.99 503.58,-102.76 494.09,-98.05 493.22,-104.99"/>
</a>
</g>
</g>
<!-- Node57&#45;&gt;Node9 -->
<g id="edge56_Node000057_Node000009" class="edge">
<title>Node57&#45;&gt;Node9</title>
<g id="a_edge56_Node000057_Node000009"><a xlink:title=" ">
<path fill="none" stroke="#63b8ff" d="M408.58,-64.78C427.42,-46.77 456.2,-23.29 486.75,-13.14 551.7,8.45 573.33,-1.32 640.75,-13.14 664.64,-17.33 690.31,-26.63 709.95,-34.86"/>
<polygon fill="#63b8ff" stroke="#63b8ff" points="708.52,-38.06 719.09,-38.81 711.3,-31.63 708.52,-38.06"/>
</a>
</g>
</g>
<!-- Node57&#45;&gt;Node55 -->
<g id="edge54_Node000057_Node000055" class="edge">
<title>Node57&#45;&gt;Node55</title>
<g id="a_edge54_Node000057_Node000055"><a xlink:title=" ">
<path fill="none" stroke="#63b8ff" d="M451.05,-79.7C462.26,-78.24 474.01,-76.71 485.51,-75.21"/>
<polygon fill="#63b8ff" stroke="#63b8ff" points="485.94,-78.68 495.4,-73.92 485.03,-71.74 485.94,-78.68"/>
</a>
</g>
</g>
</g>
</svg>
