<?xml version="1.0" encoding="UTF-8" standalone="no"?>
<!DOCTYPE svg PUBLIC "-//W3C//DTD SVG 1.1//EN"
 "http://www.w3.org/Graphics/SVG/1.1/DTD/svg11.dtd">
<!-- Generated by graphviz version 13.1.2 (20250808.2320)
 -->
<!-- Title: kest_parser_format_offending_section Pages: 1 -->
<svg width="941pt" height="282pt"
 viewBox="0.00 0.00 941.00 282.00" xmlns="http://www.w3.org/2000/svg" xmlns:xlink="http://www.w3.org/1999/xlink">
<g id="graph0" class="graph" transform="scale(1 1) rotate(0) translate(4 278.05)">
<title>kest_parser_format_offending_section</title>
<!-- Node1 -->
<g id="Node000001" class="node">
<title>Node1</title>
<g id="a_Node000001"><a xlink:title=" ">
<polygon fill="#999999" stroke="#666666" points="933,-109.12 822.5,-109.12 822.5,-75.62 933,-75.62 933,-109.12"/>
<text xml:space="preserve" text-anchor="start" x="830.5" y="-95.62" font-family="Helvetica,sans-Serif" font-size="10.00">kest_parser_format</text>
<text xml:space="preserve" text-anchor="middle" x="877.75" y="-82.88" font-family="Helvetica,sans-Serif" font-size="10.00">_offending_section</text>
</a>
</g>
</g>
<!-- Node2 -->
<g id="Node000002" class="node">
<title>Node2</title>
<g id="a_Node000002"><a xlink:href="kest__eff__parser_8c.html#aee5c1435aac9ead9b0c5c692c7c621ec" target="_top" xlink:title=" ">
<polygon fill="white" stroke="#666666" points="774.88,-141.75 659.12,-141.75 659.12,-121 774.88,-121 774.88,-141.75"/>
<text xml:space="preserve" text-anchor="middle" x="717" y="-128.25" font-family="Helvetica,sans-Serif" font-size="10.00">kest_parser_error_at</text>
</a>
</g>
</g>
<!-- Node1&#45;&gt;Node2 -->
<g id="edge1_Node000001_Node000002" class="edge">
<title>Node1&#45;&gt;Node2</title>
<g id="a_edge1_Node000001_Node000002"><a xlink:title=" ">
<path fill="none" stroke="#63b8ff" d="M811.39,-108.43C794.84,-112.5 777.45,-116.77 762.22,-120.51"/>
<polygon fill="#63b8ff" stroke="#63b8ff" points="811.77,-111.94 820.65,-106.16 810.1,-105.14 811.77,-111.94"/>
</a>
</g>
</g>
<!-- Node20 -->
<g id="Node000020" class="node">
<title>Node20</title>
<g id="a_Node000020"><a xlink:href="kest__eff__parser_8c.html#ae3bf3630f6be1ab1efa82e557fef2b2d" target="_top" xlink:title=" ">
<polygon fill="white" stroke="#666666" points="786.5,-102.75 647.5,-102.75 647.5,-82 786.5,-82 786.5,-102.75"/>
<text xml:space="preserve" text-anchor="middle" x="717" y="-89.25" font-family="Helvetica,sans-Serif" font-size="10.00">kest_parser_print_info_at</text>
</a>
</g>
</g>
<!-- Node1&#45;&gt;Node20 -->
<g id="edge20_Node000001_Node000020" class="edge">
<title>Node1&#45;&gt;Node20</title>
<g id="a_edge20_Node000001_Node000020"><a xlink:title=" ">
<path fill="none" stroke="#63b8ff" d="M810.7,-92.38C802.79,-92.38 794.7,-92.38 786.76,-92.38"/>
<polygon fill="#63b8ff" stroke="#63b8ff" points="810.6,-95.88 820.6,-92.38 810.6,-88.88 810.6,-95.88"/>
</a>
</g>
</g>
<!-- Node21 -->
<g id="Node000021" class="node">
<title>Node21</title>
<g id="a_Node000021"><a xlink:href="kest__eff__parser_8c.html#a7b4161eda3224734f3d411a7febc89ba" target="_top" xlink:title=" ">
<polygon fill="white" stroke="#666666" points="775.25,-63.75 658.75,-63.75 658.75,-43 775.25,-43 775.25,-63.75"/>
<text xml:space="preserve" text-anchor="middle" x="717" y="-50.25" font-family="Helvetica,sans-Serif" font-size="10.00">kest_parser_warn_at</text>
</a>
</g>
</g>
<!-- Node1&#45;&gt;Node21 -->
<g id="edge21_Node000001_Node000021" class="edge">
<title>Node1&#45;&gt;Node21</title>
<g id="a_edge21_Node000001_Node000021"><a xlink:title=" ">
<path fill="none" stroke="#63b8ff" d="M811.39,-76.32C794.84,-72.25 777.45,-67.98 762.22,-64.24"/>
<polygon fill="#63b8ff" stroke="#63b8ff" points="810.1,-79.61 820.65,-78.59 811.77,-72.81 810.1,-79.61"/>
</a>
</g>
</g>
<!-- Node3 -->
<g id="Node000003" class="node">
<title>Node3</title>
<g id="a_Node000003"><a xlink:href="kest__asm__parser_8c.html#a975cb5ec55968124f930a9a35fe564c5" target="_top" xlink:title=" ">
<polygon fill="white" stroke="#666666" points="279.88,-203.75 164.12,-203.75 164.12,-183 279.88,-183 279.88,-203.75"/>
<text xml:space="preserve" text-anchor="middle" x="222" y="-190.25" font-family="Helvetica,sans-Serif" font-size="10.00">kest_parse_asm_arg</text>
</a>
</g>
</g>
<!-- Node2&#45;&gt;Node3 -->
<g id="edge2_Node000002_Node000003" class="edge">
<title>Node2&#45;&gt;Node3</title>
<g id="a_edge2_Node000002_Node000003"><a xlink:title=" ">
<path fill="none" stroke="#63b8ff" d="M686.07,-147.32C665.67,-157.34 637.7,-169.45 611.5,-175.38 496.09,-201.48 356.62,-200.28 280.13,-196.92"/>
<polygon fill="#63b8ff" stroke="#63b8ff" points="687.58,-150.48 694.93,-142.85 684.42,-144.23 687.58,-150.48"/>
</a>
</g>
</g>
<!-- Node4 -->
<g id="Node000004" class="node">
<title>Node4</title>
<g id="a_Node000004"><a xlink:href="kest__asm__parser_8c.html#a8a0d633256a85b35706b7a9ef1add7f0" target="_top" xlink:title=" ">
<polygon fill="#fff0f0" stroke="red" points="120.25,-242.75 2.25,-242.75 2.25,-222 120.25,-222 120.25,-242.75"/>
<text xml:space="preserve" text-anchor="middle" x="61.25" y="-229.25" font-family="Helvetica,sans-Serif" font-size="10.00">kest_parse_asm_line</text>
</a>
</g>
</g>
<!-- Node2&#45;&gt;Node4 -->
<g id="edge6_Node000002_Node000004" class="edge">
<title>Node2&#45;&gt;Node4</title>
<g id="a_edge6_Node000002_Node000004"><a xlink:title=" ">
<path fill="none" stroke="#63b8ff" d="M700.72,-151.12C682.22,-173.45 648.87,-208.97 611.5,-226.38 438.62,-306.92 200.63,-265.27 104.78,-243.2"/>
<polygon fill="#63b8ff" stroke="#63b8ff" points="703.43,-153.34 706.97,-143.35 697.98,-148.95 703.43,-153.34"/>
</a>
</g>
</g>
<!-- Node13 -->
<g id="Node000013" class="node">
<title>Node13</title>
<g id="a_Node000013"><a xlink:href="kest__asm__parser_8c.html#a93fe9789a6b0162607601862f5fa9c8c" target="_top" xlink:title=" ">
<polygon fill="white" stroke="#666666" points="285.5,-242.75 158.5,-242.75 158.5,-222 285.5,-222 285.5,-242.75"/>
<text xml:space="preserve" text-anchor="middle" x="222" y="-229.25" font-family="Helvetica,sans-Serif" font-size="10.00">kest_parse_asm_arg_2</text>
</a>
</g>
</g>
<!-- Node2&#45;&gt;Node13 -->
<g id="edge4_Node000002_Node000013" class="edge">
<title>Node2&#45;&gt;Node13</title>
<g id="a_edge4_Node000002_Node000013"><a xlink:title=" ">
<path fill="none" stroke="#63b8ff" d="M695.01,-149.23C674.98,-165.15 643.23,-187.55 611.5,-198.38 501.44,-235.91 364.19,-238.39 285.78,-235.95"/>
<polygon fill="#63b8ff" stroke="#63b8ff" points="697.15,-152.01 702.68,-142.97 692.72,-146.58 697.15,-152.01"/>
</a>
</g>
</g>
<!-- Node14 -->
<g id="Node000014" class="node">
<title>Node14</title>
<g id="a_Node000014"><a xlink:href="kest__dictionary_8c.html#af0aceaa93cba06fd44ad4bc50f2418e4" target="_top" xlink:title=" ">
<polygon fill="white" stroke="#666666" points="278,-97.75 166,-97.75 166,-77 278,-77 278,-97.75"/>
<text xml:space="preserve" text-anchor="middle" x="222" y="-84.25" font-family="Helvetica,sans-Serif" font-size="10.00">kest_parse_dict_val</text>
</a>
</g>
</g>
<!-- Node2&#45;&gt;Node14 -->
<g id="edge7_Node000002_Node000014" class="edge">
<title>Node2&#45;&gt;Node14</title>
<g id="a_edge7_Node000002_Node000014"><a xlink:title=" ">
<path fill="none" stroke="#63b8ff" d="M669.07,-117.6C651.2,-112.91 630.56,-108.16 611.5,-105.38 493.75,-88.17 353.98,-86.12 278.33,-86.52"/>
<polygon fill="#63b8ff" stroke="#63b8ff" points="668.05,-120.95 678.62,-120.18 669.87,-114.19 668.05,-120.95"/>
</a>
</g>
</g>
<!-- Node16 -->
<g id="Node000016" class="node">
<title>Node16</title>
<g id="a_Node000016"><a xlink:href="kest__dictionary_8c.html#aae3fbdeba250be8f6dd3dfa686eb24a8" target="_top" xlink:title=" ">
<polygon fill="#fff0f0" stroke="red" points="122.5,-58.75 0,-58.75 0,-38 122.5,-38 122.5,-58.75"/>
<text xml:space="preserve" text-anchor="middle" x="61.25" y="-45.25" font-family="Helvetica,sans-Serif" font-size="10.00">kest_parse_dictionary</text>
</a>
</g>
</g>
<!-- Node2&#45;&gt;Node16 -->
<g id="edge12_Node000002_Node000016" class="edge">
<title>Node2&#45;&gt;Node16</title>
<g id="a_edge12_Node000002_Node000016"><a xlink:title=" ">
<path fill="none" stroke="#63b8ff" d="M661.59,-117.05C656.76,-115.31 652,-113.42 647.5,-111.38 630.21,-103.52 629.52,-94.36 611.5,-88.38 441.37,-31.88 225.81,-36.68 122.64,-43.3"/>
<polygon fill="#63b8ff" stroke="#63b8ff" points="660.18,-120.27 670.77,-120.13 662.4,-113.63 660.18,-120.27"/>
</a>
</g>
</g>
<!-- Node18 -->
<g id="Node000018" class="node">
<title>Node18</title>
<g id="a_Node000018"><a xlink:href="kest__expr__parser_8c.html#adf0188b23902aff2ddacb388e811412e" target="_top" xlink:title=" ">
<polygon fill="white" stroke="#666666" points="611.5,-148.12 484.5,-148.12 484.5,-114.62 611.5,-114.62 611.5,-148.12"/>
<text xml:space="preserve" text-anchor="start" x="492.5" y="-134.62" font-family="Helvetica,sans-Serif" font-size="10.00">kest_parse_expression</text>
<text xml:space="preserve" text-anchor="middle" x="548" y="-121.88" font-family="Helvetica,sans-Serif" font-size="10.00">_rec_pratt</text>
</a>
</g>
</g>
<!-- Node2&#45;&gt;Node18 -->
<g id="edge13_Node000002_Node000018" class="edge">
<title>Node2&#45;&gt;Node18</title>
<g id="a_edge13_Node000002_Node000018"><a xlink:title=" ">
<path fill="none" stroke="#63b8ff" d="M647.74,-131.38C635.84,-131.38 623.51,-131.38 611.76,-131.38"/>
<polygon fill="#63b8ff" stroke="#63b8ff" points="647.48,-134.88 657.48,-131.38 647.48,-127.88 647.48,-134.88"/>
</a>
</g>
</g>
<!-- Node7 -->
<g id="Node000007" class="node">
<title>Node7</title>
<g id="a_Node000007"><a xlink:href="kest__eff__parser_8c.html#a73ef6962d1925857ec3e4b12d1aad834" target="_top" xlink:title=" ">
<polygon fill="#fff0f0" stroke="red" points="601,-20.75 495,-20.75 495,0 601,0 601,-20.75"/>
<text xml:space="preserve" text-anchor="middle" x="548" y="-7.25" font-family="Helvetica,sans-Serif" font-size="10.00">kest_parse_tokens</text>
</a>
</g>
</g>
<!-- Node2&#45;&gt;Node7 -->
<g id="edge19_Node000002_Node000007" class="edge">
<title>Node2&#45;&gt;Node7</title>
<g id="a_edge19_Node000002_Node000007"><a xlink:title=" ">
<path fill="none" stroke="#63b8ff" d="M652.18,-114.96C650.55,-113.84 648.99,-112.65 647.5,-111.38 618.82,-86.79 639.14,-60.13 611.5,-34.38 605.55,-28.83 598.18,-24.52 590.61,-21.19"/>
<polygon fill="#63b8ff" stroke="#63b8ff" points="650.33,-117.94 660.76,-119.82 653.78,-111.85 650.33,-117.94"/>
</a>
</g>
</g>
<!-- Node3&#45;&gt;Node4 -->
<g id="edge3_Node000003_Node000004" class="edge">
<title>Node3&#45;&gt;Node4</title>
<g id="a_edge3_Node000003_Node000004"><a xlink:title=" ">
<path fill="none" stroke="#63b8ff" d="M165.66,-206.97C146.31,-211.72 124.84,-217 106.51,-221.5"/>
<polygon fill="#63b8ff" stroke="#63b8ff" points="166.43,-210.38 175.31,-204.6 164.76,-203.59 166.43,-210.38"/>
</a>
</g>
</g>
<!-- Node13&#45;&gt;Node4 -->
<g id="edge5_Node000013_Node000004" class="edge">
<title>Node13&#45;&gt;Node4</title>
<g id="a_edge5_Node000013_Node000004"><a xlink:title=" ">
<path fill="none" stroke="#63b8ff" d="M146.81,-232.38C138.03,-232.38 129.17,-232.38 120.66,-232.38"/>
<polygon fill="#63b8ff" stroke="#63b8ff" points="146.74,-235.88 156.74,-232.38 146.74,-228.88 146.74,-235.88"/>
</a>
</g>
</g>
<!-- Node15 -->
<g id="Node000015" class="node">
<title>Node15</title>
<g id="a_Node000015"><a xlink:href="kest__dictionary_8c.html#a8db4f9c511b00d7240052135e9c1ed67" target="_top" xlink:title=" ">
<polygon fill="white" stroke="#666666" points="117.25,-97.75 5.25,-97.75 5.25,-77 117.25,-77 117.25,-97.75"/>
<text xml:space="preserve" text-anchor="middle" x="61.25" y="-84.25" font-family="Helvetica,sans-Serif" font-size="10.00">kest_parse_dict_list</text>
</a>
</g>
</g>
<!-- Node14&#45;&gt;Node15 -->
<g id="edge8_Node000014_Node000015" class="edge">
<title>Node14&#45;&gt;Node15</title>
<g id="a_edge8_Node000014_Node000015"><a xlink:title=" ">
<path fill="none" stroke="#63b8ff" d="M154.71,-80.71C142.33,-80.55 129.51,-80.62 117.5,-80.91"/>
<polygon fill="#63b8ff" stroke="#63b8ff" points="154.35,-84.2 164.41,-80.89 154.48,-77.2 154.35,-84.2"/>
</a>
</g>
</g>
<!-- Node14&#45;&gt;Node16 -->
<g id="edge10_Node000014_Node000016" class="edge">
<title>Node14&#45;&gt;Node16</title>
<g id="a_edge10_Node000014_Node000016"><a xlink:title=" ">
<path fill="none" stroke="#63b8ff" d="M186.36,-73.18C167.8,-67.63 144.38,-61.58 122.91,-56.7"/>
<polygon fill="#63b8ff" stroke="#63b8ff" points="185.2,-76.48 195.79,-76.1 187.28,-69.8 185.2,-76.48"/>
</a>
</g>
</g>
<!-- Node15&#45;&gt;Node14 -->
<g id="edge9_Node000015_Node000014" class="edge">
<title>Node15&#45;&gt;Node14</title>
<g id="a_edge9_Node000015_Node000014"><a xlink:title=" ">
<path fill="none" stroke="#63b8ff" d="M128.72,-94.05C141.11,-94.2 153.92,-94.13 165.92,-93.84"/>
<polygon fill="#63b8ff" stroke="#63b8ff" points="129.07,-90.55 119.01,-93.87 128.95,-97.55 129.07,-90.55"/>
</a>
</g>
</g>
<!-- Node16&#45;&gt;Node14 -->
<g id="edge11_Node000016_Node000014" class="edge">
<title>Node16&#45;&gt;Node14</title>
<g id="a_edge11_Node000016_Node000014"><a xlink:title=" ">
<path fill="none" stroke="#63b8ff" d="M96.66,-62.5C116.88,-68.56 142.91,-75.22 165.92,-80.3"/>
<polygon fill="#63b8ff" stroke="#63b8ff" points="97.82,-59.2 87.23,-59.57 95.74,-65.88 97.82,-59.2"/>
</a>
</g>
</g>
<!-- Node18&#45;&gt;Node18 -->
<g id="edge18_Node000018_Node000018" class="edge">
<title>Node18&#45;&gt;Node18</title>
<g id="a_edge18_Node000018_Node000018"><a xlink:title=" ">
<path fill="none" stroke="#63b8ff" d="M575.37,-159.51C570.91,-163.47 561.79,-166.12 548,-166.12 523.49,-166.12 513.72,-157.74 518.7,-148.54"/>
<polygon fill="#63b8ff" stroke="#63b8ff" points="578.75,-160.49 577.04,-150.03 571.86,-159.27 578.75,-160.49"/>
</a>
</g>
</g>
<!-- Node19 -->
<g id="Node000019" class="node">
<title>Node19</title>
<g id="a_Node000019"><a xlink:href="kest__expr__parser_8c.html#a7caaee6c8b0c14b3ff08fba98d837ead" target="_top" xlink:title=" ">
<polygon fill="white" stroke="#666666" points="448.5,-154.75 321.5,-154.75 321.5,-134 448.5,-134 448.5,-154.75"/>
<text xml:space="preserve" text-anchor="middle" x="385" y="-141.25" font-family="Helvetica,sans-Serif" font-size="10.00">kest_parse_expression</text>
</a>
</g>
</g>
<!-- Node18&#45;&gt;Node19 -->
<g id="edge14_Node000018_Node000019" class="edge">
<title>Node18&#45;&gt;Node19</title>
<g id="a_edge14_Node000018_Node000019"><a xlink:title=" ">
<path fill="none" stroke="#63b8ff" d="M472.97,-137.35C464.89,-138.01 456.72,-138.66 448.8,-139.3"/>
<polygon fill="#63b8ff" stroke="#63b8ff" points="473.1,-140.85 482.78,-136.56 472.53,-133.88 473.1,-140.85"/>
</a>
</g>
</g>
<!-- Node19&#45;&gt;Node3 -->
<g id="edge15_Node000019_Node000003" class="edge">
<title>Node19&#45;&gt;Node3</title>
<g id="a_edge15_Node000019_Node000003"><a xlink:title=" ">
<path fill="none" stroke="#63b8ff" d="M337.51,-158.52C312.39,-166.17 281.85,-175.46 258.63,-182.53"/>
<polygon fill="#63b8ff" stroke="#63b8ff" points="338.27,-161.95 346.82,-155.69 336.24,-155.25 338.27,-161.95"/>
</a>
</g>
</g>
<!-- Node19&#45;&gt;Node13 -->
<g id="edge16_Node000019_Node000013" class="edge">
<title>Node19&#45;&gt;Node13</title>
<g id="a_edge16_Node000019_Node000013"><a xlink:title=" ">
<path fill="none" stroke="#63b8ff" d="M362.25,-162.2C343.03,-177.24 313.74,-198.49 285.5,-212.38 278.45,-215.84 270.65,-218.9 263.03,-221.5"/>
<polygon fill="#63b8ff" stroke="#63b8ff" points="364.25,-165.08 369.89,-156.11 359.89,-159.6 364.25,-165.08"/>
</a>
</g>
</g>
<!-- Node19&#45;&gt;Node14 -->
<g id="edge17_Node000019_Node000014" class="edge">
<title>Node19&#45;&gt;Node14</title>
<g id="a_edge17_Node000019_Node000014"><a xlink:title=" ">
<path fill="none" stroke="#63b8ff" d="M342.74,-129.77C314.91,-119.92 278.81,-107.13 253.55,-98.19"/>
<polygon fill="#63b8ff" stroke="#63b8ff" points="341.32,-132.98 351.91,-133.01 343.65,-126.38 341.32,-132.98"/>
</a>
</g>
</g>
</g>
</svg>
