<?xml version="1.0" encoding="UTF-8" standalone="no"?>
<!DOCTYPE svg PUBLIC "-//W3C//DTD SVG 1.1//EN"
 "http://www.w3.org/Graphics/SVG/1.1/DTD/svg11.dtd">
<!-- Generated by graphviz version 13.1.2 (20250808.2320)
 -->
<!-- Title: format_parameter_widget_value_label Pages: 1 -->
<!--zoomable 119 -->

<svg id="main" version="1.1" xmlns="http://www.w3.org/2000/svg" xmlns:xlink="http://www.w3.org/1999/xlink" xml:space="preserve" onload="init(evt)">

<style type="text/css"><![CDATA[
.node, .edge {opacity: 0.7;}
.node.selected, .edge.selected {opacity: 1;}
.edge:hover path { stroke: red; }
.edge:hover polygon { stroke: red; fill: red; }
]]></style>

<defs>
  <circle id="rim" cx="0" cy="0" r="7"/>
  <circle id="rim2" cx="0" cy="0" r="3.5"/>
  <g id="zoomPlus">
    <use xlink:href="#rim" fill="#404040"><set attributeName="fill" to="#808080" begin="zoomplus.mouseover" end="zoomplus.mouseout"/></use>
    <path d="M-4,0h8M0,-4v8" fill="none" stroke="white" stroke-width="1.5" pointer-events="none"/>
  </g>
  <g id="zoomMin">
    <use xlink:href="#rim" fill="#404040"><set attributeName="fill" to="#808080" begin="zoomminus.mouseover" end="zoomminus.mouseout"/></use>
    <path d="M-4,0h8" fill="none" stroke="white" stroke-width="1.5" pointer-events="none"/>
  </g>
  <g id="arrowUp" transform="translate(30 24)">
    <use xlink:href="#rim"/>
    <path pointer-events="none" fill="none" stroke="white" stroke-width="1.5" d="M0,-3.0v7 M-2.5,-0.5L0,-3.0L2.5,-0.5"/>
  </g>
  <g id="arrowRight" transform="rotate(90) translate(36 -43)">
    <use xlink:href="#rim"/>
    <path pointer-events="none" fill="none" stroke="white" stroke-width="1.5" d="M0,-3.0v7 M-2.5,-0.5L0,-3.0L2.5,-0.5"/>
  </g>
  <g id="arrowDown" transform="rotate(180) translate(-30 -48)">
    <use xlink:href="#rim"/>
    <path pointer-events="none" fill="none" stroke="white" stroke-width="1.5" d="M0,-3.0v7 M-2.5,-0.5L0,-3.0L2.5,-0.5"/>
  </g>
  <g id="arrowLeft" transform="rotate(270) translate(-36 17)">
    <use xlink:href="#rim"/>
    <path pointer-events="none" fill="none" stroke="white" stroke-width="1.5" d="M0,-3.0v7 M-2.5,-0.5L0,-3.0L2.5,-0.5"/>
  </g>
  <g id="resetDef">
    <use xlink:href="#rim2" fill="#404040"><set attributeName="fill" to="#808080" begin="reset.mouseover" end="reset.mouseout"/></use>
  </g>
</defs>
<script type="application/ecmascript">
var viewWidth = 721;
var viewHeight = 119;
var sectionId = 'dynsection-6';
</script>
<script type="application/ecmascript" xlink:href="svg.min.js"/>
<svg id="graph" class="graph">
<g id="viewport">
<title>format_parameter_widget_value_label</title>
<!-- Node1 -->
<g id="Node000001" class="node">
<title>Node1</title>
<g id="a_Node000001"><a xlink:title=" ">
<polygon fill="#999999" stroke="#666666" points="712.75,-72.12 569.25,-72.12 569.25,-38.62 712.75,-38.62 712.75,-72.12"/>
<text xml:space="preserve" text-anchor="start" x="577.25" y="-58.62" font-family="Helvetica,sans-Serif" font-size="10.00">format_parameter_widget</text>
<text xml:space="preserve" text-anchor="middle" x="641" y="-45.88" font-family="Helvetica,sans-Serif" font-size="10.00">_value_label</text>
</a>
</g>
</g>
<!-- Node2 -->
<g id="Node000002" class="node">
<title>Node2</title>
<g id="a_Node000002"><a xlink:href="kest__parameter__widget_8c.html#af345b51066bd1985326c50809d992fab" target="_top" xlink:title=" ">
<polygon fill="white" stroke="#666666" points="533.25,-72.12 389,-72.12 389,-38.62 533.25,-38.62 533.25,-72.12"/>
<text xml:space="preserve" text-anchor="start" x="397" y="-58.62" font-family="Helvetica,sans-Serif" font-size="10.00">parameter_widget_update</text>
<text xml:space="preserve" text-anchor="middle" x="461.12" y="-45.88" font-family="Helvetica,sans-Serif" font-size="10.00">_value_label</text>
</a>
</g>
</g>
<!-- Node1&#45;&gt;Node2 -->
<g id="edge1_Node000001_Node000002" class="edge">
<title>Node1&#45;&gt;Node2</title>
<g id="a_edge1_Node000001_Node000002"><a xlink:title=" ">
<path fill="none" stroke="#63b8ff" d="M557.67,-55.38C549.65,-55.38 541.56,-55.38 533.66,-55.38"/>
<polygon fill="#63b8ff" stroke="#63b8ff" points="557.42,-58.88 567.42,-55.38 557.42,-51.88 557.42,-58.88"/>
</a>
</g>
</g>
<!-- Node3 -->
<g id="Node000003" class="node">
<title>Node3</title>
<g id="a_Node000003"><a xlink:href="kest__parameter__widget_8c.html#a1590cd4e080ed869e0372fef1a233085" target="_top" xlink:title=" ">
<polygon fill="white" stroke="#666666" points="345.12,-110.75 199.38,-110.75 199.38,-90 345.12,-90 345.12,-110.75"/>
<text xml:space="preserve" text-anchor="middle" x="272.25" y="-97.25" font-family="Helvetica,sans-Serif" font-size="10.00">param_widget_rep_update</text>
</a>
</g>
</g>
<!-- Node2&#45;&gt;Node3 -->
<g id="edge2_Node000002_Node000003" class="edge">
<title>Node2&#45;&gt;Node3</title>
<g id="a_edge2_Node000002_Node000003"><a xlink:title=" ">
<path fill="none" stroke="#63b8ff" d="M378.14,-75.31C369.65,-77.36 361.15,-79.41 353,-81.38 341.93,-84.04 329.99,-86.89 318.81,-89.56"/>
<polygon fill="#63b8ff" stroke="#63b8ff" points="378.89,-78.73 387.79,-72.98 377.24,-71.93 378.89,-78.73"/>
</a>
</g>
</g>
<!-- Node16 -->
<g id="Node000016" class="node">
<title>Node16</title>
<g id="a_Node000016"><a xlink:href="kest__parameter__widget_8c.html#a275a44ab81e73412a3c3da5597906fcc" target="_top" xlink:title=" ">
<polygon fill="white" stroke="#666666" points="342.88,-72.12 201.62,-72.12 201.62,-38.62 342.88,-38.62 342.88,-72.12"/>
<text xml:space="preserve" text-anchor="start" x="209.62" y="-58.62" font-family="Helvetica,sans-Serif" font-size="10.00">parameter_widget_create</text>
<text xml:space="preserve" text-anchor="middle" x="272.25" y="-45.88" font-family="Helvetica,sans-Serif" font-size="10.00">_ui_no_callback</text>
</a>
</g>
</g>
<!-- Node2&#45;&gt;Node16 -->
<g id="edge4_Node000002_Node000016" class="edge">
<title>Node2&#45;&gt;Node16</title>
<g id="a_edge4_Node000002_Node000016"><a xlink:title=" ">
<path fill="none" stroke="#63b8ff" d="M377.35,-55.38C365.92,-55.38 354.28,-55.38 343.12,-55.38"/>
<polygon fill="#63b8ff" stroke="#63b8ff" points="377.16,-58.88 387.16,-55.38 377.16,-51.88 377.16,-58.88"/>
</a>
</g>
</g>
<!-- Node44 -->
<g id="Node000044" class="node">
<title>Node44</title>
<g id="a_Node000044"><a xlink:href="kest__parameter__widget_8c.html#ac55937f74509696b892e16cd9148a0c4" target="_top" xlink:title=" ">
<polygon fill="white" stroke="#666666" points="353,-20.75 191.5,-20.75 191.5,0 353,0 353,-20.75"/>
<text xml:space="preserve" text-anchor="middle" x="272.25" y="-7.25" font-family="Helvetica,sans-Serif" font-size="10.00">parameter_widget_refresh_cb</text>
</a>
</g>
</g>
<!-- Node2&#45;&gt;Node44 -->
<g id="edge7_Node000002_Node000044" class="edge">
<title>Node2&#45;&gt;Node44</title>
<g id="a_edge7_Node000002_Node000044"><a xlink:title=" ">
<path fill="none" stroke="#63b8ff" d="M378.14,-35.44C369.65,-33.39 361.15,-31.34 353,-29.38 341.93,-26.71 329.99,-23.86 318.81,-21.19"/>
<polygon fill="#63b8ff" stroke="#63b8ff" points="377.24,-38.82 387.79,-37.77 378.89,-32.02 377.24,-38.82"/>
</a>
</g>
</g>
<!-- Node4 -->
<g id="Node000004" class="node">
<title>Node4</title>
<g id="a_Node000004"><a xlink:href="kest__parameter__widget_8c.html#a89863fab24827de020d29878a86c1b60" target="_top" xlink:title=" ">
<polygon fill="#fff0f0" stroke="red" points="148.38,-110.75 7.12,-110.75 7.12,-90 148.38,-90 148.38,-110.75"/>
<text xml:space="preserve" text-anchor="middle" x="77.75" y="-97.25" font-family="Helvetica,sans-Serif" font-size="10.00">nullify_parameter_widget</text>
</a>
</g>
</g>
<!-- Node3&#45;&gt;Node4 -->
<g id="edge3_Node000003_Node000004" class="edge">
<title>Node3&#45;&gt;Node4</title>
<g id="a_edge3_Node000003_Node000004"><a xlink:title=" ">
<path fill="none" stroke="#63b8ff" d="M187.73,-100.38C174.75,-100.38 161.46,-100.38 148.83,-100.38"/>
<polygon fill="#63b8ff" stroke="#63b8ff" points="187.51,-103.88 197.51,-100.38 187.51,-96.88 187.51,-103.88"/>
</a>
</g>
</g>
<!-- Node17 -->
<g id="Node000017" class="node">
<title>Node17</title>
<g id="a_Node000017"><a xlink:href="kest__menu_8c.html#aa44b42640611d3ca75f6b55206ebd08e" target="_top" xlink:title=" ">
<polygon fill="#fff0f0" stroke="red" points="138.62,-68.75 16.88,-68.75 16.88,-48 138.62,-48 138.62,-68.75"/>
<text xml:space="preserve" text-anchor="middle" x="77.75" y="-55.25" font-family="Helvetica,sans-Serif" font-size="10.00">create_menu_item_ui</text>
</a>
</g>
</g>
<!-- Node16&#45;&gt;Node17 -->
<g id="edge5_Node000016_Node000017" class="edge">
<title>Node16&#45;&gt;Node17</title>
<g id="a_edge5_Node000016_Node000017"><a xlink:title=" ">
<path fill="none" stroke="#63b8ff" d="M190.06,-56.64C172.91,-56.91 155.1,-57.19 138.9,-57.44"/>
<polygon fill="#63b8ff" stroke="#63b8ff" points="189.75,-60.15 199.7,-56.49 189.64,-53.15 189.75,-60.15"/>
</a>
</g>
</g>
<!-- Node24 -->
<g id="Node000024" class="node">
<title>Node24</title>
<g id="a_Node000024"><a xlink:href="kest__parameter__widget_8c.html#adbadb9573fa4f9b812f8d270c78053e4" target="_top" xlink:title=" ">
<polygon fill="#fff0f0" stroke="red" points="155.5,-29.75 0,-29.75 0,-9 155.5,-9 155.5,-29.75"/>
<text xml:space="preserve" text-anchor="middle" x="77.75" y="-16.25" font-family="Helvetica,sans-Serif" font-size="10.00">parameter_widget_create_ui</text>
</a>
</g>
</g>
<!-- Node16&#45;&gt;Node24 -->
<g id="edge6_Node000016_Node000024" class="edge">
<title>Node16&#45;&gt;Node24</title>
<g id="a_edge6_Node000016_Node000024"><a xlink:title=" ">
<path fill="none" stroke="#63b8ff" d="M189.9,-40.16C172.03,-36.82 153.45,-33.35 136.72,-30.22"/>
<polygon fill="#63b8ff" stroke="#63b8ff" points="189.25,-43.6 199.72,-42 190.53,-36.72 189.25,-43.6"/>
</a>
</g>
</g>
</g>
</svg>

<g id="navigator" transform="translate(0 0)" fill="#404254">
  <rect fill="#f2f5e9" fill-opacity="0.5" stroke="#606060" stroke-width=".5" x="0" y="0" width="60" height="60"/>
  <use id="zoomplus" xlink:href="#zoomPlus" x="17" y="9" onmousedown="handleZoom(evt,'in')"/>
  <use id="zoomminus" xlink:href="#zoomMin" x="42" y="9" onmousedown="handleZoom(evt,'out')"/>
  <use id="reset" xlink:href="#resetDef" x="30" y="36" onmousedown="handleReset()"/>
   <use id="arrowup" xlink:href="#arrowUp" x="0" y="0" onmousedown="handlePan(0,-1)"/>
  <use id="arrowright" xlink:href="#arrowRight" x="0" y="0" onmousedown="handlePan(1,0)"/>
  <use id="arrowdown" xlink:href="#arrowDown" x="0" y="0" onmousedown="handlePan(0,1)"/>
  <use id="arrowleft" xlink:href="#arrowLeft" x="0" y="0" onmousedown="handlePan(-1,0)"/>
</g>
<svg viewBox="0 0 15 15" width="100%" height="30px" preserveAspectRatio="xMaxYMin meet">
 <g id="arrow_out" transform="scale(0.3 0.3)">
  <a xlink:href="kest__parameter__widget_8c_a9a7e5431ab9599259aa5e2cfa47e6308_icgraph_org.svg" target="_base">
   <rect id="button" ry="5" rx="5" y="6" x="6" height="38" width="38"
        fill="#f2f5e9" fill-opacity="0.5" stroke="#606060" stroke-width="1.0"/>
   <path id="arrow"
     d="M 11.500037,31.436501 C 11.940474,20.09759 22.043105,11.32322 32.158766,21.979434 L 37.068811,17.246167 C 37.068811,17.246167 37.088388,32 37.088388,32 L 22.160133,31.978069 C 22.160133,31.978069 26.997745,27.140456 26.997745,27.140456 C 18.528582,18.264221 13.291696,25.230495 11.500037,31.436501 z"
     style="fill:#404040;"/>
  </a>
 </g>
</svg>

<style type='text/css'>
<![CDATA[
[data-mouse-over-selected='false'] { opacity: 0.7; }
[data-mouse-over-selected='true']  { opacity: 1.0; }
]]>
</style>
<script type="application/ecmascript"><![CDATA[
document.addEventListener('DOMContentLoaded', (event) => {
  highlightEdges();
  highlightAdjacentNodes();
});
]]></script>
</svg>
