<?xml version="1.0" encoding="UTF-8" standalone="no"?>
<!DOCTYPE svg PUBLIC "-//W3C//DTD SVG 1.1//EN"
 "http://www.w3.org/Graphics/SVG/1.1/DTD/svg11.dtd">
<!-- Generated by graphviz version 13.1.2 (20250808.2320)
 -->
<!-- Title: seq_view_clicked_cb Pages: 1 -->
<svg width="981pt" height="1159pt"
 viewBox="0.00 0.00 981.00 1159.00" xmlns="http://www.w3.org/2000/svg" xmlns:xlink="http://www.w3.org/1999/xlink">
<g id="graph0" class="graph" transform="scale(1 1) rotate(0) translate(4 1155.26)">
<title>seq_view_clicked_cb</title>
<!-- Node1 -->
<g id="Node000001" class="node">
<title>Node1</title>
<g id="a_Node000001"><a xlink:title=" ">
<polygon fill="#999999" stroke="#666666" points="117.25,-708.67 0,-708.67 0,-687.92 117.25,-687.92 117.25,-708.67"/>
<text xml:space="preserve" text-anchor="middle" x="58.62" y="-695.17" font-family="Helvetica,sans-Serif" font-size="10.00">seq_view_clicked_cb</text>
</a>
</g>
</g>
<!-- Node2 -->
<g id="Node000002" class="node">
<title>Node2</title>
<g id="a_Node000002"><a xlink:href="kest__profile__view_8c.html#a8a76cb40ff26bbde55ba56a4f25094d1" target="_top" xlink:title=" ">
<polygon fill="white" stroke="#666666" points="284,-457.67 153.25,-457.67 153.25,-436.92 284,-436.92 284,-457.67"/>
<text xml:space="preserve" text-anchor="middle" x="218.62" y="-444.17" font-family="Helvetica,sans-Serif" font-size="10.00">create_profile_view_for</text>
</a>
</g>
</g>
<!-- Node1&#45;&gt;Node2 -->
<g id="edge1_Node000001_Node000002" class="edge">
<title>Node1&#45;&gt;Node2</title>
<g id="a_edge1_Node000001_Node000002"><a xlink:title=" ">
<path fill="none" stroke="#63b8ff" d="M66.41,-687.51C90.62,-649.05 172.97,-518.24 204.86,-467.57"/>
<polygon fill="#63b8ff" stroke="#63b8ff" points="207.69,-469.65 210.05,-459.32 201.77,-465.92 207.69,-469.65"/>
</a>
</g>
</g>
<!-- Node18 -->
<g id="Node000018" class="node">
<title>Node18</title>
<g id="a_Node000018"><a xlink:href="kest__ui_8c.html#a2063cd4687cffa16c46c43deaa27642f" target="_top" xlink:title=" ">
<polygon fill="#fff0f0" stroke="red" points="972.75,-887.67 839.75,-887.67 839.75,-866.92 972.75,-866.92 972.75,-887.67"/>
<text xml:space="preserve" text-anchor="middle" x="906.25" y="-874.17" font-family="Helvetica,sans-Serif" font-size="10.00">enter_ui_page_forwards</text>
</a>
</g>
</g>
<!-- Node1&#45;&gt;Node18 -->
<g id="edge50_Node000001_Node000018" class="edge">
<title>Node1&#45;&gt;Node18</title>
<g id="a_edge50_Node000001_Node000018"><a xlink:title=" ">
<path fill="none" stroke="#63b8ff" d="M61.58,-709.02C74.46,-775.85 153.18,-1132.29 367.5,-1132.29 367.5,-1132.29 367.5,-1132.29 525,-1132.29 649.18,-1132.29 702.42,-1185.07 803.75,-1113.29 876.25,-1061.94 897.38,-947.61 903.18,-899.41"/>
<polygon fill="#63b8ff" stroke="#63b8ff" points="906.64,-899.98 904.24,-889.67 899.68,-899.23 906.64,-899.98"/>
</a>
</g>
</g>
<!-- Node3 -->
<g id="Node000003" class="node">
<title>Node3</title>
<g id="a_Node000003"><a xlink:href="kest__profile__view_8c.html#a9f9505132871c2ea372958fd06ecf10f" target="_top" xlink:title=" ">
<polygon fill="white" stroke="#666666" points="587.5,-754.67 460.5,-754.67 460.5,-733.92 587.5,-733.92 587.5,-754.67"/>
<text xml:space="preserve" text-anchor="middle" x="524" y="-741.17" font-family="Helvetica,sans-Serif" font-size="10.00">configure_profile_view</text>
</a>
</g>
</g>
<!-- Node2&#45;&gt;Node3 -->
<g id="edge2_Node000002_Node000003" class="edge">
<title>Node2&#45;&gt;Node3</title>
<g id="a_edge2_Node000002_Node000003"><a xlink:title=" ">
<path fill="none" stroke="#63b8ff" d="M227.04,-457.99C242.85,-480.48 281.58,-533.8 320,-573.29 379.84,-634.8 460.04,-697.3 499.31,-726.81"/>
<polygon fill="#63b8ff" stroke="#63b8ff" points="497.06,-729.5 507.17,-732.68 501.25,-723.89 497.06,-729.5"/>
</a>
</g>
</g>
<!-- Node6 -->
<g id="Node000006" class="node">
<title>Node6</title>
<g id="a_Node000006"><a xlink:href="kest__alloc_8c.html#a849755c5dc5b35e712ffcdb602e50fb4" target="_top" xlink:title=" ">
<polygon fill="white" stroke="#666666" points="938.62,-249.67 873.88,-249.67 873.88,-228.92 938.62,-228.92 938.62,-249.67"/>
<text xml:space="preserve" text-anchor="middle" x="906.25" y="-236.17" font-family="Helvetica,sans-Serif" font-size="10.00">kest_alloc</text>
</a>
</g>
</g>
<!-- Node2&#45;&gt;Node6 -->
<g id="edge49_Node000002_Node000006" class="edge">
<title>Node2&#45;&gt;Node6</title>
<g id="a_edge49_Node000002_Node000006"><a xlink:title=" ">
<path fill="none" stroke="#63b8ff" d="M219.18,-436.6C217.71,-387.44 218,-180.59 320,-65.29 362.16,-17.63 390.51,-24.29 453,-12.29 514.98,-0.4 535.01,7.31 595,-12.29 724.36,-54.56 844.48,-173.51 888.01,-220.17"/>
<polygon fill="#63b8ff" stroke="#63b8ff" points="885.3,-222.4 894.65,-227.38 890.45,-217.65 885.3,-222.4"/>
</a>
</g>
</g>
<!-- Node111 -->
<g id="Node000111" class="node">
<title>Node111</title>
<g id="a_Node000111"><a xlink:href="kest__profile__view_8c.html#a6dce0ee803014127f1b83f16eceb96dd" target="_top" xlink:title=" ">
<polygon fill="white" stroke="#666666" points="574.38,-639.67 473.62,-639.67 473.62,-618.92 574.38,-618.92 574.38,-639.67"/>
<text xml:space="preserve" text-anchor="middle" x="524" y="-626.17" font-family="Helvetica,sans-Serif" font-size="10.00">free_profile_view</text>
</a>
</g>
</g>
<!-- Node2&#45;&gt;Node111 -->
<g id="edge22_Node000002_Node000111" class="edge">
<title>Node2&#45;&gt;Node111</title>
<g id="a_edge22_Node000002_Node000111"><a xlink:title=" ">
<path fill="none" stroke="#63b8ff" d="M231.82,-458.16C264.94,-487.13 360.33,-566.96 453,-610.29 456.47,-611.92 460.1,-613.42 463.81,-614.81"/>
<polygon fill="#63b8ff" stroke="#63b8ff" points="462.37,-618.02 472.97,-617.95 464.64,-611.4 462.37,-618.02"/>
</a>
</g>
</g>
<!-- Node112 -->
<g id="Node000112" class="node">
<title>Node112</title>
<g id="a_Node000112"><a xlink:href="kest__profile__view_8c.html#abfe2cf72961d0ab0b70f858cf1281a38" target="_top" xlink:title=" ">
<polygon fill="white" stroke="#666666" points="417,-415.67 320,-415.67 320,-394.92 417,-394.92 417,-415.67"/>
<text xml:space="preserve" text-anchor="middle" x="368.5" y="-402.17" font-family="Helvetica,sans-Serif" font-size="10.00">init_profile_view</text>
</a>
</g>
</g>
<!-- Node2&#45;&gt;Node112 -->
<g id="edge23_Node000002_Node000112" class="edge">
<title>Node2&#45;&gt;Node112</title>
<g id="a_edge23_Node000002_Node000112"><a xlink:title=" ">
<path fill="none" stroke="#63b8ff" d="M257.71,-436.48C276.18,-431.23 298.59,-424.87 318.33,-419.26"/>
<polygon fill="#63b8ff" stroke="#63b8ff" points="319.17,-422.66 327.83,-416.56 317.26,-415.92 319.17,-422.66"/>
</a>
</g>
</g>
<!-- Node143 -->
<g id="Node000143" class="node">
<title>Node143</title>
<g id="a_Node000143"><a xlink:href="kest__ui_8c.html#aa35b25eb0a8f315343a7ea5190b0163b" target="_top" xlink:title=" ">
<polygon fill="white" stroke="#666666" points="755,-357.67 679.75,-357.67 679.75,-336.92 755,-336.92 755,-357.67"/>
<text xml:space="preserve" text-anchor="middle" x="717.38" y="-344.17" font-family="Helvetica,sans-Serif" font-size="10.00">init_ui_page</text>
</a>
</g>
</g>
<!-- Node2&#45;&gt;Node143 -->
<g id="edge48_Node000002_Node000143" class="edge">
<title>Node2&#45;&gt;Node143</title>
<g id="a_edge48_Node000002_Node000143"><a xlink:title=" ">
<path fill="none" stroke="#63b8ff" d="M221.81,-436.48C233.48,-381.93 294,-135.95 453,-44.29 507.68,-12.77 547.64,-2.58 595,-44.29 690.14,-128.1 546.11,-233.12 631,-327.29 640.57,-337.91 654.61,-343.43 668.54,-346.16"/>
<polygon fill="#63b8ff" stroke="#63b8ff" points="667.71,-349.58 678.12,-347.58 668.74,-342.65 667.71,-349.58"/>
</a>
</g>
</g>
<!-- Node4 -->
<g id="Node000004" class="node">
<title>Node4</title>
<g id="a_Node000004"><a xlink:href="kest__profile__settings_8c.html#ac5120bad91f723143bd3cf720e860fa5" target="_top" xlink:title=" ">
<polygon fill="#fff0f0" stroke="red" points="803.38,-408.67 631.38,-408.67 631.38,-387.92 803.38,-387.92 803.38,-408.67"/>
<text xml:space="preserve" text-anchor="middle" x="717.38" y="-395.17" font-family="Helvetica,sans-Serif" font-size="10.00">configure_profile_settings_page</text>
</a>
</g>
</g>
<!-- Node3&#45;&gt;Node4 -->
<g id="edge3_Node000003_Node000004" class="edge">
<title>Node3&#45;&gt;Node4</title>
<g id="a_edge3_Node000003_Node000004"><a xlink:title=" ">
<path fill="none" stroke="#63b8ff" d="M535.53,-733.55C551.23,-716.83 580.49,-682.92 595,-648.29 632.96,-557.72 568.65,-506.16 631,-430.29 636.65,-423.41 643.94,-418.01 651.88,-413.77"/>
<polygon fill="#63b8ff" stroke="#63b8ff" points="653.22,-417.01 660.83,-409.63 650.28,-410.66 653.22,-417.01"/>
</a>
</g>
</g>
<!-- Node17 -->
<g id="Node000017" class="node">
<title>Node17</title>
<g id="a_Node000017"><a xlink:href="kest__effect__select_8c.html#acd3eb99039d7b3531035a87718ae6948" target="_top" xlink:title=" ">
<polygon fill="white" stroke="#666666" points="785.38,-1104.67 649.38,-1104.67 649.38,-1083.92 785.38,-1083.92 785.38,-1104.67"/>
<text xml:space="preserve" text-anchor="middle" x="717.38" y="-1091.17" font-family="Helvetica,sans-Serif" font-size="10.00">enter_effect_selector_cb</text>
</a>
</g>
</g>
<!-- Node3&#45;&gt;Node17 -->
<g id="edge4_Node000003_Node000017" class="edge">
<title>Node3&#45;&gt;Node17</title>
<g id="a_edge4_Node000003_Node000017"><a xlink:title=" ">
<path fill="none" stroke="#63b8ff" d="M524.91,-755.1C525.17,-801.25 532.58,-983.52 631,-1074.29 633.47,-1076.57 636.14,-1078.6 638.97,-1080.41"/>
<polygon fill="#63b8ff" stroke="#63b8ff" points="637.28,-1083.48 647.75,-1085.06 640.55,-1077.29 637.28,-1083.48"/>
</a>
</g>
</g>
<!-- Node19 -->
<g id="Node000019" class="node">
<title>Node19</title>
<g id="a_Node000019"><a xlink:href="kest__button_8c.html#a760fe364ce4f5be2c972ff685e2f9825" target="_top" xlink:title=" ">
<polygon fill="#fff0f0" stroke="red" points="774.12,-511.04 660.62,-511.04 660.62,-477.54 774.12,-477.54 774.12,-511.04"/>
<text xml:space="preserve" text-anchor="start" x="668.62" y="-497.54" font-family="Helvetica,sans-Serif" font-size="10.00">kest_active_button</text>
<text xml:space="preserve" text-anchor="middle" x="717.38" y="-484.79" font-family="Helvetica,sans-Serif" font-size="10.00">_array_append_new</text>
</a>
</g>
</g>
<!-- Node3&#45;&gt;Node19 -->
<g id="edge6_Node000003_Node000019" class="edge">
<title>Node3&#45;&gt;Node19</title>
<g id="a_edge6_Node000003_Node000019"><a xlink:title=" ">
<path fill="none" stroke="#63b8ff" d="M532.85,-733.7C545.89,-716.07 572.78,-679.57 595,-648.29 611.28,-625.38 613.96,-618.65 631,-596.29 651.39,-569.54 676.23,-540.2 693.84,-519.88"/>
<polygon fill="#63b8ff" stroke="#63b8ff" points="696.46,-522.21 700.39,-512.37 691.18,-517.61 696.46,-522.21"/>
</a>
</g>
</g>
<!-- Node57 -->
<g id="Node000057" class="node">
<title>Node57</title>
<g id="a_Node000057"><a xlink:href="kest__button_8c.html#a21a7b8dcd7ffa25a3e7d230fa6a7d985" target="_top" xlink:title=" ">
<polygon fill="white" stroke="#666666" points="774.12,-459.67 660.62,-459.67 660.62,-438.92 774.12,-438.92 774.12,-459.67"/>
<text xml:space="preserve" text-anchor="middle" x="717.38" y="-446.17" font-family="Helvetica,sans-Serif" font-size="10.00">kest_button_disable</text>
</a>
</g>
</g>
<!-- Node3&#45;&gt;Node57 -->
<g id="edge9_Node000003_Node000057" class="edge">
<title>Node3&#45;&gt;Node57</title>
<g id="a_edge9_Node000003_Node000057"><a xlink:title=" ">
<path fill="none" stroke="#63b8ff" d="M535.38,-733.48C550.89,-716.69 579.91,-682.67 595,-648.29 627.8,-573.59 573.94,-526.6 631,-468.29 636.28,-462.9 642.73,-458.88 649.7,-455.91"/>
<polygon fill="#63b8ff" stroke="#63b8ff" points="650.46,-459.35 658.76,-452.77 648.17,-452.74 650.46,-459.35"/>
</a>
</g>
</g>
<!-- Node58 -->
<g id="Node000058" class="node">
<title>Node58</title>
<g id="a_Node000058"><a xlink:href="kest__effect_8h.html#a262d6915b50a9a4daf4cd64e3b74b13f" target="_top" xlink:title=" ">
<polygon fill="white" stroke="#666666" points="791.75,-793.67 643,-793.67 643,-772.92 791.75,-772.92 791.75,-793.67"/>
<text xml:space="preserve" text-anchor="middle" x="717.38" y="-780.17" font-family="Helvetica,sans-Serif" font-size="10.00">kest_effect_init_view_page</text>
</a>
</g>
</g>
<!-- Node3&#45;&gt;Node58 -->
<g id="edge10_Node000003_Node000058" class="edge">
<title>Node3&#45;&gt;Node58</title>
<g id="a_edge10_Node000003_Node000058"><a xlink:title=" ">
<path fill="none" stroke="#63b8ff" d="M578.31,-755.16C601.13,-759.81 627.98,-765.28 651.9,-770.15"/>
<polygon fill="#63b8ff" stroke="#63b8ff" points="651.04,-773.55 661.54,-772.12 652.44,-766.69 651.04,-773.55"/>
</a>
</g>
</g>
<!-- Node59 -->
<g id="Node000059" class="node">
<title>Node59</title>
<g id="a_Node000059"><a xlink:href="kest__effect_8c.html#a8f53e22436efdc0e494b297ea09db5eb" target="_top" xlink:title=" ">
<polygon fill="white" stroke="#666666" points="768.88,-754.67 665.88,-754.67 665.88,-733.92 768.88,-733.92 768.88,-754.67"/>
<text xml:space="preserve" text-anchor="middle" x="717.38" y="-741.17" font-family="Helvetica,sans-Serif" font-size="10.00">kest_effect_name</text>
</a>
</g>
</g>
<!-- Node3&#45;&gt;Node59 -->
<g id="edge11_Node000003_Node000059" class="edge">
<title>Node3&#45;&gt;Node59</title>
<g id="a_edge11_Node000003_Node000059"><a xlink:title=" ">
<path fill="none" stroke="#63b8ff" d="M587.93,-744.29C609.16,-744.29 632.84,-744.29 654.03,-744.29"/>
<polygon fill="#63b8ff" stroke="#63b8ff" points="654,-747.79 664,-744.29 654,-740.79 654,-747.79"/>
</a>
</g>
</g>
<!-- Node60 -->
<g id="Node000060" class="node">
<title>Node60</title>
<g id="a_Node000060"><a xlink:href="kest__profile_8c.html#a38013ae781ddb3a62cf9b490291662cb" target="_top" xlink:title=" ">
<polygon fill="white" stroke="#666666" points="803.75,-715.67 631,-715.67 631,-694.92 803.75,-694.92 803.75,-715.67"/>
<text xml:space="preserve" text-anchor="middle" x="717.38" y="-702.17" font-family="Helvetica,sans-Serif" font-size="10.00">kest_profile_add_representation</text>
</a>
</g>
</g>
<!-- Node3&#45;&gt;Node60 -->
<g id="edge12_Node000003_Node000060" class="edge">
<title>Node3&#45;&gt;Node60</title>
<g id="a_edge12_Node000003_Node000060"><a xlink:title=" ">
<path fill="none" stroke="#63b8ff" d="M578.31,-733.43C601.13,-728.78 627.98,-723.31 651.9,-718.43"/>
<polygon fill="#63b8ff" stroke="#63b8ff" points="652.44,-721.89 661.54,-716.47 651.04,-715.04 652.44,-721.89"/>
</a>
</g>
</g>
<!-- Node61 -->
<g id="Node000061" class="node">
<title>Node61</title>
<g id="a_Node000061"><a xlink:href="kest__profile__view_8c.html#a7fc7c03f230ebab9875f55534b681355" target="_top" xlink:title=" ">
<polygon fill="white" stroke="#666666" points="770.75,-677.04 664,-677.04 664,-643.54 770.75,-643.54 770.75,-677.04"/>
<text xml:space="preserve" text-anchor="start" x="672" y="-663.54" font-family="Helvetica,sans-Serif" font-size="10.00">profile_view_enter</text>
<text xml:space="preserve" text-anchor="middle" x="717.38" y="-650.79" font-family="Helvetica,sans-Serif" font-size="10.00">_settings_page_cb</text>
</a>
</g>
</g>
<!-- Node3&#45;&gt;Node61 -->
<g id="edge13_Node000003_Node000061" class="edge">
<title>Node3&#45;&gt;Node61</title>
<g id="a_edge13_Node000003_Node000061"><a xlink:title=" ">
<path fill="none" stroke="#63b8ff" d="M542.08,-733.51C562.59,-720.91 598.32,-700.04 631,-686.29 638,-683.35 645.46,-680.58 652.93,-678.02"/>
<polygon fill="#63b8ff" stroke="#63b8ff" points="654,-681.35 662.41,-674.91 651.82,-674.7 654,-681.35"/>
</a>
</g>
</g>
<!-- Node62 -->
<g id="Node000062" class="node">
<title>Node62</title>
<g id="a_Node000062"><a xlink:href="kest__profile__view_8c.html#a7a586e516fd3de15ad3ee1ff2d45ee94" target="_top" xlink:title=" ">
<polygon fill="#fff0f0" stroke="red" points="795.12,-625.67 639.62,-625.67 639.62,-604.92 795.12,-604.92 795.12,-625.67"/>
<text xml:space="preserve" text-anchor="middle" x="717.38" y="-612.17" font-family="Helvetica,sans-Serif" font-size="10.00">profile_view_play_button_cb</text>
</a>
</g>
</g>
<!-- Node3&#45;&gt;Node62 -->
<g id="edge15_Node000003_Node000062" class="edge">
<title>Node3&#45;&gt;Node62</title>
<g id="a_edge15_Node000003_Node000062"><a xlink:title=" ">
<path fill="none" stroke="#63b8ff" d="M532.04,-733.53C547.23,-711.22 585.44,-659.86 631,-634.29 633.64,-632.81 636.39,-631.45 639.21,-630.19"/>
<polygon fill="#63b8ff" stroke="#63b8ff" points="640.25,-633.54 648.28,-626.63 637.69,-627.02 640.25,-633.54"/>
</a>
</g>
</g>
<!-- Node102 -->
<g id="Node000102" class="node">
<title>Node102</title>
<g id="a_Node000102"><a xlink:href="kest__profile__view_8c.html#a43e0b701625c0a8717c09f33aaaa8aa2" target="_top" xlink:title=" ">
<polygon fill="#fff0f0" stroke="red" points="789.12,-1065.67 645.62,-1065.67 645.62,-1044.92 789.12,-1044.92 789.12,-1065.67"/>
<text xml:space="preserve" text-anchor="middle" x="717.38" y="-1052.17" font-family="Helvetica,sans-Serif" font-size="10.00">profile_view_revert_name</text>
</a>
</g>
</g>
<!-- Node3&#45;&gt;Node102 -->
<g id="edge16_Node000003_Node000102" class="edge">
<title>Node3&#45;&gt;Node102</title>
<g id="a_edge16_Node000003_Node000102"><a xlink:title=" ">
<path fill="none" stroke="#63b8ff" d="M525.43,-754.99C527.77,-797.58 542.32,-956.6 631,-1035.29 632.49,-1036.61 634.05,-1037.85 635.66,-1039.01"/>
<polygon fill="#63b8ff" stroke="#63b8ff" points="633.81,-1041.98 644.2,-1044.07 637.38,-1035.96 633.81,-1041.98"/>
</a>
</g>
</g>
<!-- Node104 -->
<g id="Node000104" class="node">
<title>Node104</title>
<g id="a_Node000104"><a xlink:href="kest__profile__view_8c.html#a08c96dd43f7672a21827f83800181c89" target="_top" xlink:title=" ">
<polygon fill="#fff0f0" stroke="red" points="794.38,-1026.67 640.38,-1026.67 640.38,-1005.92 794.38,-1005.92 794.38,-1026.67"/>
<text xml:space="preserve" text-anchor="middle" x="717.38" y="-1013.17" font-family="Helvetica,sans-Serif" font-size="10.00">profile_view_save_name_cb</text>
</a>
</g>
</g>
<!-- Node3&#45;&gt;Node104 -->
<g id="edge17_Node000003_Node000104" class="edge">
<title>Node3&#45;&gt;Node104</title>
<g id="a_edge17_Node000003_Node000104"><a xlink:title=" ">
<path fill="none" stroke="#63b8ff" d="M526.05,-754.96C530.49,-794.06 551.36,-930.69 631,-997.29 631.96,-998.1 632.95,-998.87 633.96,-999.61"/>
<polygon fill="#63b8ff" stroke="#63b8ff" points="631.98,-1002.5 642.35,-1004.69 635.61,-996.52 631.98,-1002.5"/>
</a>
</g>
</g>
<!-- Node107 -->
<g id="Node000107" class="node">
<title>Node107</title>
<g id="a_Node000107"><a xlink:href="kest__ui_8c.html#a446fd8da13243be96d2ce6a5ff1f1f7b" target="_top" xlink:title=" ">
<polygon fill="#fff0f0" stroke="red" points="776.38,-988.04 658.38,-988.04 658.38,-954.54 776.38,-954.54 776.38,-988.04"/>
<text xml:space="preserve" text-anchor="start" x="666.38" y="-974.54" font-family="Helvetica,sans-Serif" font-size="10.00">ui_page_add_bottom</text>
<text xml:space="preserve" text-anchor="middle" x="717.38" y="-961.79" font-family="Helvetica,sans-Serif" font-size="10.00">_button</text>
</a>
</g>
</g>
<!-- Node3&#45;&gt;Node107 -->
<g id="edge18_Node000003_Node000107" class="edge">
<title>Node3&#45;&gt;Node107</title>
<g id="a_edge18_Node000003_Node000107"><a xlink:title=" ">
<path fill="none" stroke="#63b8ff" d="M527.48,-754.87C535.86,-788.16 566.22,-891.77 631,-945.29 636.05,-949.47 641.76,-952.97 647.78,-955.91"/>
<polygon fill="#63b8ff" stroke="#63b8ff" points="646.16,-959.03 656.73,-959.75 648.92,-952.6 646.16,-959.03"/>
</a>
</g>
</g>
<!-- Node108 -->
<g id="Node000108" class="node">
<title>Node108</title>
<g id="a_Node000108"><a xlink:href="kest__ui_8c.html#a204baa82ce6693ec98b575b1f837158b" target="_top" xlink:title=" ">
<polygon fill="#fff0f0" stroke="red" points="783.12,-936.04 651.62,-936.04 651.62,-902.54 783.12,-902.54 783.12,-936.04"/>
<text xml:space="preserve" text-anchor="start" x="659.62" y="-922.54" font-family="Helvetica,sans-Serif" font-size="10.00">ui_page_add_left_panel</text>
<text xml:space="preserve" text-anchor="middle" x="717.38" y="-909.79" font-family="Helvetica,sans-Serif" font-size="10.00">_button</text>
</a>
</g>
</g>
<!-- Node3&#45;&gt;Node108 -->
<g id="edge19_Node000003_Node000108" class="edge">
<title>Node3&#45;&gt;Node108</title>
<g id="a_edge19_Node000003_Node000108"><a xlink:title=" ">
<path fill="none" stroke="#63b8ff" d="M529.66,-755.15C541.98,-782.6 578.19,-855.27 631,-893.29 634.18,-895.58 637.56,-897.67 641.07,-899.58"/>
<polygon fill="#63b8ff" stroke="#63b8ff" points="639.38,-902.65 649.91,-903.83 642.42,-896.34 639.38,-902.65"/>
</a>
</g>
</g>
<!-- Node109 -->
<g id="Node000109" class="node">
<title>Node109</title>
<g id="a_Node000109"><a xlink:href="kest__ui_8c.html#ac03024eff746f181b01136d6bfe4c7d5" target="_top" xlink:title=" ">
<polygon fill="#fff0f0" stroke="red" points="786.12,-884.04 648.62,-884.04 648.62,-850.54 786.12,-850.54 786.12,-884.04"/>
<text xml:space="preserve" text-anchor="start" x="656.62" y="-870.54" font-family="Helvetica,sans-Serif" font-size="10.00">ui_page_add_right_panel</text>
<text xml:space="preserve" text-anchor="middle" x="717.38" y="-857.79" font-family="Helvetica,sans-Serif" font-size="10.00">_button</text>
</a>
</g>
</g>
<!-- Node3&#45;&gt;Node109 -->
<g id="edge20_Node000003_Node000109" class="edge">
<title>Node3&#45;&gt;Node109</title>
<g id="a_edge20_Node000003_Node000109"><a xlink:title=" ">
<path fill="none" stroke="#63b8ff" d="M533.76,-755C550.57,-774.87 589.4,-817.56 631,-841.29 633.62,-842.79 636.34,-844.21 639.12,-845.55"/>
<polygon fill="#63b8ff" stroke="#63b8ff" points="637.49,-848.66 648.05,-849.49 640.32,-842.25 637.49,-848.66"/>
</a>
</g>
</g>
<!-- Node110 -->
<g id="Node000110" class="node">
<title>Node110</title>
<g id="a_Node000110"><a xlink:href="kest__ui_8c.html#a142d4ec0779ace260353dfeb5a572a93" target="_top" xlink:title=" ">
<polygon fill="white" stroke="#666666" points="775.62,-832.67 659.12,-832.67 659.12,-811.92 775.62,-811.92 775.62,-832.67"/>
<text xml:space="preserve" text-anchor="middle" x="717.38" y="-819.17" font-family="Helvetica,sans-Serif" font-size="10.00">ui_page_set_title_rw</text>
</a>
</g>
</g>
<!-- Node3&#45;&gt;Node110 -->
<g id="edge21_Node000003_Node000110" class="edge">
<title>Node3&#45;&gt;Node110</title>
<g id="a_edge21_Node000003_Node000110"><a xlink:title=" ">
<path fill="none" stroke="#63b8ff" d="M541.22,-754.99C561.46,-767.9 597.5,-789.48 631,-802.29 637.01,-804.59 643.37,-806.68 649.79,-808.56"/>
<polygon fill="#63b8ff" stroke="#63b8ff" points="648.58,-811.86 659.15,-811.13 650.43,-805.11 648.58,-811.86"/>
</a>
</g>
</g>
<!-- Node17&#45;&gt;Node18 -->
<g id="edge5_Node000017_Node000018" class="edge">
<title>Node17&#45;&gt;Node18</title>
<g id="a_edge5_Node000017_Node000018"><a xlink:title=" ">
<path fill="none" stroke="#63b8ff" d="M785.76,-1084.52C792.21,-1081.86 798.35,-1078.51 803.75,-1074.29 862.3,-1028.61 890.26,-939.81 900.48,-898.89"/>
<polygon fill="#63b8ff" stroke="#63b8ff" points="903.85,-899.84 902.74,-889.31 897.04,-898.23 903.85,-899.84"/>
</a>
</g>
</g>
<!-- Node19&#45;&gt;Node6 -->
<g id="edge7_Node000019_Node000006" class="edge">
<title>Node19&#45;&gt;Node6</title>
<g id="a_edge7_Node000019_Node000006"><a xlink:title=" ">
<path fill="none" stroke="#63b8ff" d="M774.34,-484.77C784.99,-480.98 795.4,-475.69 803.75,-468.29 867.89,-411.51 893.42,-306.53 901.78,-261.14"/>
<polygon fill="#63b8ff" stroke="#63b8ff" points="905.19,-261.95 903.44,-251.5 898.29,-260.76 905.19,-261.95"/>
</a>
</g>
</g>
<!-- Node7 -->
<g id="Node000007" class="node">
<title>Node7</title>
<g id="a_Node000007"><a xlink:href="kest__alloc_8c.html#a294af5728a94aa316fcf65304d388d48" target="_top" xlink:title=" ">
<polygon fill="white" stroke="#666666" points="936.75,-526.67 875.75,-526.67 875.75,-505.92 936.75,-505.92 936.75,-526.67"/>
<text xml:space="preserve" text-anchor="middle" x="906.25" y="-513.17" font-family="Helvetica,sans-Serif" font-size="10.00">kest_free</text>
</a>
</g>
</g>
<!-- Node19&#45;&gt;Node7 -->
<g id="edge8_Node000019_Node000007" class="edge">
<title>Node19&#45;&gt;Node7</title>
<g id="a_edge8_Node000019_Node000007"><a xlink:title=" ">
<path fill="none" stroke="#63b8ff" d="M774.44,-500.89C803.29,-504.29 837.82,-508.36 864.16,-511.46"/>
<polygon fill="#63b8ff" stroke="#63b8ff" points="863.43,-514.89 873.77,-512.59 864.25,-507.94 863.43,-514.89"/>
</a>
</g>
</g>
<!-- Node61&#45;&gt;Node18 -->
<g id="edge14_Node000061_Node000018" class="edge">
<title>Node61&#45;&gt;Node18</title>
<g id="a_edge14_Node000061_Node000018"><a xlink:title=" ">
<path fill="none" stroke="#63b8ff" d="M770.83,-669.23C782.55,-673.06 794.3,-678.51 803.75,-686.29 859.32,-732.06 888.58,-816.39 899.77,-855.87"/>
<polygon fill="#63b8ff" stroke="#63b8ff" points="896.35,-856.59 902.34,-865.33 903.1,-854.76 896.35,-856.59"/>
</a>
</g>
</g>
<!-- Node112&#45;&gt;Node3 -->
<g id="edge24_Node000112_Node000003" class="edge">
<title>Node112&#45;&gt;Node3</title>
<g id="a_edge24_Node000112_Node000003"><a xlink:title=" ">
<path fill="none" stroke="#63b8ff" d="M371.94,-415.93C380.17,-450.71 408.87,-563.64 453,-648.29 467.86,-676.8 490.57,-706.17 506.06,-724.8"/>
<polygon fill="#63b8ff" stroke="#63b8ff" points="503.31,-726.97 512.45,-732.34 508.66,-722.44 503.31,-726.97"/>
</a>
</g>
</g>
<!-- Node112&#45;&gt;Node6 -->
<g id="edge39_Node000112_Node000006" class="edge">
<title>Node112&#45;&gt;Node6</title>
<g id="a_edge39_Node000112_Node000006"><a xlink:title=" ">
<path fill="none" stroke="#63b8ff" d="M371.01,-394.52C376,-363.53 395.09,-274.08 453,-238.29 520.39,-196.64 762.55,-221.28 862.08,-233.58"/>
<polygon fill="#63b8ff" stroke="#63b8ff" points="861.62,-237.05 871.98,-234.82 862.5,-230.1 861.62,-237.05"/>
</a>
</g>
</g>
<!-- Node112&#45;&gt;Node7 -->
<g id="edge40_Node000112_Node000007" class="edge">
<title>Node112&#45;&gt;Node7</title>
<g id="a_edge40_Node000112_Node000007"><a xlink:title=" ">
<path fill="none" stroke="#63b8ff" d="M373.29,-415.82C382.54,-439.72 408.82,-497.77 453,-520.29 524,-556.48 766.77,-532.76 864.25,-521.39"/>
<polygon fill="#63b8ff" stroke="#63b8ff" points="864.38,-524.9 873.89,-520.25 863.55,-517.95 864.38,-524.9"/>
</a>
</g>
</g>
<!-- Node112&#45;&gt;Node111 -->
<g id="edge28_Node000112_Node000111" class="edge">
<title>Node112&#45;&gt;Node111</title>
<g id="a_edge28_Node000112_Node000111"><a xlink:title=" ">
<path fill="none" stroke="#63b8ff" d="M372.47,-415.93C383.31,-453.99 421.71,-582.59 453,-610.29 456.01,-612.96 459.37,-615.26 462.93,-617.24"/>
<polygon fill="#63b8ff" stroke="#63b8ff" points="461.47,-620.42 472.02,-621.38 464.38,-614.05 461.47,-620.42"/>
</a>
</g>
</g>
<!-- Node113 -->
<g id="Node000113" class="node">
<title>Node113</title>
<g id="a_Node000113"><a xlink:href="kest__profile__view_8c.html#a384beb6a193abc4367c013b9e43f0da9" target="_top" xlink:title=" ">
<polygon fill="#fff0f0" stroke="red" points="587.12,-472.67 460.88,-472.67 460.88,-451.92 587.12,-451.92 587.12,-472.67"/>
<text xml:space="preserve" text-anchor="middle" x="524" y="-459.17" font-family="Helvetica,sans-Serif" font-size="10.00">create_profile_view_ui</text>
</a>
</g>
</g>
<!-- Node112&#45;&gt;Node113 -->
<g id="edge25_Node000112_Node000113" class="edge">
<title>Node112&#45;&gt;Node113</title>
<g id="a_edge25_Node000112_Node000113"><a xlink:title=" ">
<path fill="none" stroke="#63b8ff" d="M396.08,-416.16C412.43,-422.75 433.84,-431.23 453,-438.29 461.66,-441.49 470.96,-444.77 479.87,-447.86"/>
<polygon fill="#63b8ff" stroke="#63b8ff" points="478.45,-451.07 489.05,-451 480.72,-444.45 478.45,-451.07"/>
</a>
</g>
</g>
<!-- Node128 -->
<g id="Node000128" class="node">
<title>Node128</title>
<g id="a_Node000128"><a xlink:href="kest__profile__view_8c.html#a87a9bfc5ba520537569aaf0b190bbf59" target="_top" xlink:title=" ">
<polygon fill="white" stroke="#666666" points="577.38,-396.67 470.62,-396.67 470.62,-375.92 577.38,-375.92 577.38,-396.67"/>
<text xml:space="preserve" text-anchor="middle" x="524" y="-383.17" font-family="Helvetica,sans-Serif" font-size="10.00">enter_profile_view</text>
</a>
</g>
</g>
<!-- Node112&#45;&gt;Node128 -->
<g id="edge27_Node000112_Node000128" class="edge">
<title>Node112&#45;&gt;Node128</title>
<g id="a_edge27_Node000112_Node000128"><a xlink:title=" ">
<path fill="none" stroke="#63b8ff" d="M417.23,-399.39C430.49,-397.74 445.11,-395.93 459.14,-394.2"/>
<polygon fill="#63b8ff" stroke="#63b8ff" points="459.23,-397.71 468.72,-393.01 458.37,-390.77 459.23,-397.71"/>
</a>
</g>
</g>
<!-- Node129 -->
<g id="Node000129" class="node">
<title>Node129</title>
<g id="a_Node000129"><a xlink:href="kest__profile__settings_8c.html#a1c60543ff9aed0e212ab514d669256f2" target="_top" xlink:title=" ">
<polygon fill="#fff0f0" stroke="red" points="595,-357.67 453,-357.67 453,-336.92 595,-336.92 595,-357.67"/>
<text xml:space="preserve" text-anchor="middle" x="524" y="-344.17" font-family="Helvetica,sans-Serif" font-size="10.00">init_profile_settings_page</text>
</a>
</g>
</g>
<!-- Node112&#45;&gt;Node129 -->
<g id="edge29_Node000112_Node000129" class="edge">
<title>Node112&#45;&gt;Node129</title>
<g id="a_edge29_Node000112_Node000129"><a xlink:title=" ">
<path fill="none" stroke="#63b8ff" d="M390.76,-394.56C407.42,-386.4 431.33,-375.27 453,-367.29 458.63,-365.22 464.59,-363.23 470.55,-361.36"/>
<polygon fill="#63b8ff" stroke="#63b8ff" points="471.21,-364.81 479.77,-358.57 469.18,-358.11 471.21,-364.81"/>
</a>
</g>
</g>
<!-- Node112&#45;&gt;Node143 -->
<g id="edge34_Node000112_Node000143" class="edge">
<title>Node112&#45;&gt;Node143</title>
<g id="a_edge34_Node000112_Node000143"><a xlink:title=" ">
<path fill="none" stroke="#63b8ff" d="M417.46,-413.66C464.04,-419.86 536.14,-424.32 595,-405.29 613.78,-399.22 613.6,-388.62 631,-379.29 643.43,-372.63 657.54,-366.73 670.66,-361.87"/>
<polygon fill="#63b8ff" stroke="#63b8ff" points="671.73,-365.21 679.97,-358.55 669.37,-358.62 671.73,-365.21"/>
</a>
</g>
</g>
<!-- Node144 -->
<g id="Node000144" class="node">
<title>Node144</title>
<g id="a_Node000144"><a xlink:href="kest__ui_8c.html#a01360963fabe989a816b58c78cbc041b" target="_top" xlink:title=" ">
<polygon fill="#fff0f0" stroke="red" points="751.62,-318.67 683.12,-318.67 683.12,-297.92 751.62,-297.92 751.62,-318.67"/>
<text xml:space="preserve" text-anchor="middle" x="717.38" y="-305.17" font-family="Helvetica,sans-Serif" font-size="10.00">new_panel</text>
</a>
</g>
</g>
<!-- Node112&#45;&gt;Node144 -->
<g id="edge41_Node000112_Node000144" class="edge">
<title>Node112&#45;&gt;Node144</title>
<g id="a_edge41_Node000112_Node000144"><a xlink:title=" ">
<path fill="none" stroke="#63b8ff" d="M377.27,-394.45C390.53,-376.94 419.37,-342.93 453,-328.29 524.49,-297.19 617.2,-298.58 671.4,-303.02"/>
<polygon fill="#63b8ff" stroke="#63b8ff" points="670.91,-306.49 681.18,-303.9 671.53,-299.52 670.91,-306.49"/>
</a>
</g>
</g>
<!-- Node148 -->
<g id="Node000148" class="node">
<title>Node148</title>
<g id="a_Node000148"><a xlink:href="kest__button_8c.html#aa8b7e33df0eaac17a63df490fcdadc60" target="_top" xlink:title=" ">
<polygon fill="#fff0f0" stroke="red" points="578.12,-281.04 469.88,-281.04 469.88,-247.54 578.12,-247.54 578.12,-281.04"/>
<text xml:space="preserve" text-anchor="start" x="477.88" y="-267.54" font-family="Helvetica,sans-Serif" font-size="10.00">kest_active_button</text>
<text xml:space="preserve" text-anchor="middle" x="524" y="-254.79" font-family="Helvetica,sans-Serif" font-size="10.00">_array_new</text>
</a>
</g>
</g>
<!-- Node112&#45;&gt;Node148 -->
<g id="edge35_Node000112_Node000148" class="edge">
<title>Node112&#45;&gt;Node148</title>
<g id="a_edge35_Node000112_Node000148"><a xlink:title=" ">
<path fill="none" stroke="#63b8ff" d="M375.22,-394.47C387.08,-372.94 416.33,-324.3 453,-295.29 456.92,-292.19 461.19,-289.34 465.64,-286.72"/>
<polygon fill="#63b8ff" stroke="#63b8ff" points="467.09,-289.91 474.23,-282.08 463.77,-283.75 467.09,-289.91"/>
</a>
</g>
</g>
<!-- Node150 -->
<g id="Node000150" class="node">
<title>Node150</title>
<g id="a_Node000150"><a xlink:href="kest__button_8c.html#a95418b04a55bd08c5da1f31e035bec0b" target="_top" xlink:title=" ">
<polygon fill="white" stroke="#666666" points="578.12,-191.04 469.88,-191.04 469.88,-157.54 578.12,-157.54 578.12,-191.04"/>
<text xml:space="preserve" text-anchor="start" x="477.88" y="-177.54" font-family="Helvetica,sans-Serif" font-size="10.00">kest_active_button</text>
<text xml:space="preserve" text-anchor="middle" x="524" y="-164.79" font-family="Helvetica,sans-Serif" font-size="10.00">_array_set_length</text>
</a>
</g>
</g>
<!-- Node112&#45;&gt;Node150 -->
<g id="edge37_Node000112_Node000150" class="edge">
<title>Node112&#45;&gt;Node150</title>
<g id="a_edge37_Node000112_Node000150"><a xlink:title=" ">
<path fill="none" stroke="#63b8ff" d="M371.11,-394.65C376.56,-362.05 397.2,-262.3 453,-205.29 455.78,-202.45 458.87,-199.85 462.15,-197.48"/>
<polygon fill="#63b8ff" stroke="#63b8ff" points="463.97,-200.47 470.55,-192.16 460.23,-194.55 463.97,-200.47"/>
</a>
</g>
</g>
<!-- Node151 -->
<g id="Node000151" class="node">
<title>Node151</title>
<g id="a_Node000151"><a xlink:href="kest__profile__view_8c.html#afdf7a635701897423b668de3c09d9383" target="_top" xlink:title=" ">
<polygon fill="white" stroke="#666666" points="578.88,-601.04 469.12,-601.04 469.12,-567.54 578.88,-567.54 578.88,-601.04"/>
<text xml:space="preserve" text-anchor="start" x="477.12" y="-587.54" font-family="Helvetica,sans-Serif" font-size="10.00">profile_view_effect</text>
<text xml:space="preserve" text-anchor="middle" x="524" y="-574.79" font-family="Helvetica,sans-Serif" font-size="10.00">_click_cb</text>
</a>
</g>
</g>
<!-- Node112&#45;&gt;Node151 -->
<g id="edge42_Node000112_Node000151" class="edge">
<title>Node112&#45;&gt;Node151</title>
<g id="a_edge42_Node000112_Node000151"><a xlink:title=" ">
<path fill="none" stroke="#63b8ff" d="M372.92,-416.13C381.87,-442.88 408.44,-512.85 453,-553.29 456.28,-556.27 459.9,-559 463.71,-561.5"/>
<polygon fill="#63b8ff" stroke="#63b8ff" points="461.78,-564.42 472.17,-566.45 465.31,-558.38 461.78,-564.42"/>
</a>
</g>
</g>
<!-- Node152 -->
<g id="Node000152" class="node">
<title>Node152</title>
<g id="a_Node000152"><a xlink:href="kest__profile__view_8c.html#aee48696f91d0ebc9e3ea2cf62e47cffe" target="_top" xlink:title=" ">
<polygon fill="#fff0f0" stroke="red" points="578.88,-139.04 469.12,-139.04 469.12,-105.54 578.88,-105.54 578.88,-139.04"/>
<text xml:space="preserve" text-anchor="start" x="477.12" y="-125.54" font-family="Helvetica,sans-Serif" font-size="10.00">profile_view_effect</text>
<text xml:space="preserve" text-anchor="middle" x="524" y="-112.79" font-family="Helvetica,sans-Serif" font-size="10.00">_delete_cb</text>
</a>
</g>
</g>
<!-- Node112&#45;&gt;Node152 -->
<g id="edge44_Node000112_Node000152" class="edge">
<title>Node112&#45;&gt;Node152</title>
<g id="a_edge44_Node000112_Node000152"><a xlink:title=" ">
<path fill="none" stroke="#63b8ff" d="M369.8,-394.6C371.48,-355.95 382.36,-221.93 453,-148.29 454.96,-146.25 457.1,-144.36 459.37,-142.62"/>
<polygon fill="#63b8ff" stroke="#63b8ff" points="460.9,-145.8 467.41,-137.44 457.11,-139.91 460.9,-145.8"/>
</a>
</g>
</g>
<!-- Node163 -->
<g id="Node000163" class="node">
<title>Node163</title>
<g id="a_Node000163"><a xlink:href="kest__profile__view_8c.html#a598c3ac11cd3e68c723ef303bdc26f5c" target="_top" xlink:title=" ">
<polygon fill="#fff0f0" stroke="red" points="578.88,-87.04 469.12,-87.04 469.12,-53.54 578.88,-53.54 578.88,-87.04"/>
<text xml:space="preserve" text-anchor="start" x="477.12" y="-73.54" font-family="Helvetica,sans-Serif" font-size="10.00">profile_view_effect</text>
<text xml:space="preserve" text-anchor="middle" x="524" y="-60.79" font-family="Helvetica,sans-Serif" font-size="10.00">_moved_cb</text>
</a>
</g>
</g>
<!-- Node112&#45;&gt;Node163 -->
<g id="edge45_Node000112_Node000163" class="edge">
<title>Node112&#45;&gt;Node163</title>
<g id="a_edge45_Node000112_Node000163"><a xlink:title=" ">
<path fill="none" stroke="#63b8ff" d="M369.11,-394.63C368.14,-351.39 370.23,-187.02 453,-96.29 454.95,-94.16 457.09,-92.19 459.38,-90.39"/>
<polygon fill="#63b8ff" stroke="#63b8ff" points="461.09,-93.45 467.53,-85.04 457.25,-87.6 461.09,-93.45"/>
</a>
</g>
</g>
<!-- Node166 -->
<g id="Node000166" class="node">
<title>Node166</title>
<g id="a_Node000166"><a xlink:href="kest__profile__view_8c.html#a8d4a419595556bb686a9d03c66f1d578" target="_top" xlink:title=" ">
<polygon fill="#fff0f0" stroke="red" points="592,-511.67 456,-511.67 456,-490.92 592,-490.92 592,-511.67"/>
<text xml:space="preserve" text-anchor="middle" x="524" y="-498.17" font-family="Helvetica,sans-Serif" font-size="10.00">profile_view_rep_update</text>
</a>
</g>
</g>
<!-- Node112&#45;&gt;Node166 -->
<g id="edge46_Node000112_Node000166" class="edge">
<title>Node112&#45;&gt;Node166</title>
<g id="a_edge46_Node000112_Node000166"><a xlink:title=" ">
<path fill="none" stroke="#63b8ff" d="M378.35,-416.05C392.46,-432.5 421.66,-463.83 453,-481.29 456.36,-483.16 459.91,-484.87 463.55,-486.43"/>
<polygon fill="#63b8ff" stroke="#63b8ff" points="462.01,-489.59 472.6,-489.9 464.51,-483.05 462.01,-489.59"/>
</a>
</g>
</g>
<!-- Node113&#45;&gt;Node57 -->
<g id="edge26_Node000113_Node000057" class="edge">
<title>Node113&#45;&gt;Node57</title>
<g id="a_edge26_Node000113_Node000057"><a xlink:title=" ">
<path fill="none" stroke="#63b8ff" d="M587.4,-458.05C607.09,-456.72 628.94,-455.23 648.97,-453.87"/>
<polygon fill="#63b8ff" stroke="#63b8ff" points="648.95,-457.38 658.69,-453.21 648.48,-450.4 648.95,-457.38"/>
</a>
</g>
</g>
<!-- Node129&#45;&gt;Node4 -->
<g id="edge30_Node000129_Node000004" class="edge">
<title>Node129&#45;&gt;Node4</title>
<g id="a_edge30_Node000129_Node000004"><a xlink:title=" ">
<path fill="none" stroke="#63b8ff" d="M565.59,-358.11C594.51,-365.82 633.63,-376.24 664.77,-384.54"/>
<polygon fill="#63b8ff" stroke="#63b8ff" points="663.82,-387.91 674.39,-387.1 665.62,-381.15 663.82,-387.91"/>
</a>
</g>
</g>
<!-- Node129&#45;&gt;Node143 -->
<g id="edge31_Node000129_Node000143" class="edge">
<title>Node129&#45;&gt;Node143</title>
<g id="a_edge31_Node000129_Node000143"><a xlink:title=" ">
<path fill="none" stroke="#63b8ff" d="M595.45,-347.29C619.57,-347.29 645.99,-347.29 667.97,-347.29"/>
<polygon fill="#63b8ff" stroke="#63b8ff" points="667.84,-350.79 677.84,-347.29 667.84,-343.79 667.84,-350.79"/>
</a>
</g>
</g>
<!-- Node129&#45;&gt;Node144 -->
<g id="edge32_Node000129_Node000144" class="edge">
<title>Node129&#45;&gt;Node144</title>
<g id="a_edge32_Node000129_Node000144"><a xlink:title=" ">
<path fill="none" stroke="#63b8ff" d="M578.31,-336.43C607.76,-330.43 643.93,-323.06 671.86,-317.37"/>
<polygon fill="#63b8ff" stroke="#63b8ff" points="672.31,-320.85 681.41,-315.42 670.91,-313.99 672.31,-320.85"/>
</a>
</g>
</g>
<!-- Node144&#45;&gt;Node6 -->
<g id="edge33_Node000144_Node000006" class="edge">
<title>Node144&#45;&gt;Node6</title>
<g id="a_edge33_Node000144_Node000006"><a xlink:title=" ">
<path fill="none" stroke="#63b8ff" d="M747.57,-297.51C779.3,-285.8 830.17,-267.02 865.52,-253.96"/>
<polygon fill="#63b8ff" stroke="#63b8ff" points="866.36,-257.38 874.53,-250.64 863.93,-250.82 866.36,-257.38"/>
</a>
</g>
</g>
<!-- Node148&#45;&gt;Node6 -->
<g id="edge36_Node000148_Node000006" class="edge">
<title>Node148&#45;&gt;Node6</title>
<g id="a_edge36_Node000148_Node000006"><a xlink:title=" ">
<path fill="none" stroke="#63b8ff" d="M578.27,-260.79C654.21,-255.8 792.1,-246.73 862.05,-242.13"/>
<polygon fill="#63b8ff" stroke="#63b8ff" points="862.23,-245.63 871.98,-241.48 861.77,-238.64 862.23,-245.63"/>
</a>
</g>
</g>
<!-- Node150&#45;&gt;Node6 -->
<g id="edge38_Node000150_Node000006" class="edge">
<title>Node150&#45;&gt;Node6</title>
<g id="a_edge38_Node000150_Node000006"><a xlink:title=" ">
<path fill="none" stroke="#63b8ff" d="M578.47,-176.86C634.99,-180.36 726.48,-188.26 803.75,-205.29 825.29,-210.04 848.68,-217.7 867.57,-224.54"/>
<polygon fill="#63b8ff" stroke="#63b8ff" points="866.11,-227.73 876.7,-227.93 868.54,-221.17 866.11,-227.73"/>
</a>
</g>
</g>
<!-- Node151&#45;&gt;Node18 -->
<g id="edge43_Node000151_Node000018" class="edge">
<title>Node151&#45;&gt;Node18</title>
<g id="a_edge43_Node000151_Node000018"><a xlink:title=" ">
<path fill="none" stroke="#63b8ff" d="M579.28,-570.21C640.09,-557.86 738.66,-548.47 803.75,-596.29 889.08,-658.98 902.87,-800.37 904.95,-855.08"/>
<polygon fill="#63b8ff" stroke="#63b8ff" points="901.45,-855.07 905.21,-864.97 908.44,-854.88 901.45,-855.07"/>
</a>
</g>
</g>
<!-- Node166&#45;&gt;Node57 -->
<g id="edge47_Node000166_Node000057" class="edge">
<title>Node166&#45;&gt;Node57</title>
<g id="a_edge47_Node000166_Node000057"><a xlink:title=" ">
<path fill="none" stroke="#63b8ff" d="M564.75,-490.44C574.67,-487.6 585.26,-484.44 595,-481.29 611.19,-476.06 614.66,-473.04 631,-468.29 637.7,-466.35 644.74,-464.49 651.79,-462.75"/>
<polygon fill="#63b8ff" stroke="#63b8ff" points="652.44,-466.19 661.35,-460.46 650.81,-459.38 652.44,-466.19"/>
</a>
</g>
</g>
</g>
</svg>
