<?xml version="1.0" encoding="UTF-8" standalone="no"?>
<!DOCTYPE svg PUBLIC "-//W3C//DTD SVG 1.1//EN"
 "http://www.w3.org/Graphics/SVG/1.1/DTD/svg11.dtd">
<!-- Generated by graphviz version 13.1.2 (20250808.2320)
 -->
<!-- Title: parameter_widget_change_cb Pages: 1 -->
<svg width="712pt" height="94pt"
 viewBox="0.00 0.00 712.00 94.00" xmlns="http://www.w3.org/2000/svg" xmlns:xlink="http://www.w3.org/1999/xlink">
<g id="graph0" class="graph" transform="scale(1 1) rotate(0) translate(4 89.5)">
<title>parameter_widget_change_cb</title>
<!-- Node1 -->
<g id="Node000001" class="node">
<title>Node1</title>
<g id="a_Node000001"><a xlink:title=" ">
<polygon fill="#999999" stroke="#666666" points="162.25,-53.12 0,-53.12 0,-32.38 162.25,-32.38 162.25,-53.12"/>
<text xml:space="preserve" text-anchor="middle" x="81.12" y="-39.62" font-family="Helvetica,sans-Serif" font-size="10.00">parameter_widget_change_cb</text>
</a>
</g>
</g>
<!-- Node2 -->
<g id="Node000002" class="node">
<title>Node2</title>
<g id="a_Node000002"><a xlink:href="kest__parameter__widget_8c.html#af94dfc8bbb394e3264533d794d147e95" target="_top" xlink:title=" ">
<polygon fill="white" stroke="#666666" points="344,-59.5 198.25,-59.5 198.25,-26 344,-26 344,-59.5"/>
<text xml:space="preserve" text-anchor="start" x="206.25" y="-46" font-family="Helvetica,sans-Serif" font-size="10.00">parameter_widget_change</text>
<text xml:space="preserve" text-anchor="middle" x="271.12" y="-33.25" font-family="Helvetica,sans-Serif" font-size="10.00">_cb_inner</text>
</a>
</g>
</g>
<!-- Node1&#45;&gt;Node2 -->
<g id="edge1_Node000001_Node000002" class="edge">
<title>Node1&#45;&gt;Node2</title>
<g id="a_edge1_Node000001_Node000002"><a xlink:title=" ">
<path fill="none" stroke="#63b8ff" d="M162.67,-42.75C170.51,-42.75 178.47,-42.75 186.33,-42.75"/>
<polygon fill="#63b8ff" stroke="#63b8ff" points="186.25,-46.25 196.25,-42.75 186.25,-39.25 186.25,-46.25"/>
</a>
</g>
</g>
<!-- Node3 -->
<g id="Node000003" class="node">
<title>Node3</title>
<g id="a_Node000003"><a xlink:href="kest__param__update_8c.html#a4228867b610227d141d8974773316e14" target="_top" xlink:title=" ">
<polygon fill="white" stroke="#666666" points="517.12,-85.5 387.12,-85.5 387.12,-52 517.12,-52 517.12,-85.5"/>
<text xml:space="preserve" text-anchor="start" x="395.12" y="-72" font-family="Helvetica,sans-Serif" font-size="10.00">kest_parameter_trigger</text>
<text xml:space="preserve" text-anchor="middle" x="452.12" y="-59.25" font-family="Helvetica,sans-Serif" font-size="10.00">_update</text>
</a>
</g>
</g>
<!-- Node2&#45;&gt;Node3 -->
<g id="edge2_Node000002_Node000003" class="edge">
<title>Node2&#45;&gt;Node3</title>
<g id="a_edge2_Node000002_Node000003"><a xlink:title=" ">
<path fill="none" stroke="#63b8ff" d="M344.42,-53.25C354.68,-54.74 365.25,-56.28 375.57,-57.78"/>
<polygon fill="#63b8ff" stroke="#63b8ff" points="374.75,-61.19 385.15,-59.17 375.75,-54.27 374.75,-61.19"/>
</a>
</g>
</g>
<!-- Node4 -->
<g id="Node000004" class="node">
<title>Node4</title>
<g id="a_Node000004"><a xlink:href="kest__parameter__widget_8c.html#a76b168e793fb4613c59656720649cba3" target="_top" xlink:title=" ">
<polygon fill="white" stroke="#666666" points="524.25,-33.5 380,-33.5 380,0 524.25,0 524.25,-33.5"/>
<text xml:space="preserve" text-anchor="start" x="388" y="-20" font-family="Helvetica,sans-Serif" font-size="10.00">parameter_widget_update</text>
<text xml:space="preserve" text-anchor="middle" x="452.12" y="-7.25" font-family="Helvetica,sans-Serif" font-size="10.00">_value_label_v</text>
</a>
</g>
</g>
<!-- Node2&#45;&gt;Node4 -->
<g id="edge3_Node000002_Node000004" class="edge">
<title>Node2&#45;&gt;Node4</title>
<g id="a_edge3_Node000002_Node000004"><a xlink:title=" ">
<path fill="none" stroke="#63b8ff" d="M344.42,-32.25C352.33,-31.1 360.43,-29.92 368.46,-28.76"/>
<polygon fill="#63b8ff" stroke="#63b8ff" points="368.84,-32.24 378.23,-27.34 367.83,-25.31 368.84,-32.24"/>
</a>
</g>
</g>
<!-- Node5 -->
<g id="Node000005" class="node">
<title>Node5</title>
<g id="a_Node000005"><a xlink:href="kest__parameter__widget_8c.html#a5ed85df98ceada227f8fcd5499d75be8" target="_top" xlink:title=" ">
<polygon fill="#fff0f0" stroke="red" points="703.75,-33.5 560.25,-33.5 560.25,0 703.75,0 703.75,-33.5"/>
<text xml:space="preserve" text-anchor="start" x="568.25" y="-20" font-family="Helvetica,sans-Serif" font-size="10.00">format_parameter_widget</text>
<text xml:space="preserve" text-anchor="middle" x="632" y="-7.25" font-family="Helvetica,sans-Serif" font-size="10.00">_value_label_v</text>
</a>
</g>
</g>
<!-- Node4&#45;&gt;Node5 -->
<g id="edge4_Node000004_Node000005" class="edge">
<title>Node4&#45;&gt;Node5</title>
<g id="a_edge4_Node000004_Node000005"><a xlink:title=" ">
<path fill="none" stroke="#63b8ff" d="M524.7,-16.75C532.49,-16.75 540.46,-16.75 548.36,-16.75"/>
<polygon fill="#63b8ff" stroke="#63b8ff" points="548.34,-20.25 558.34,-16.75 548.34,-13.25 548.34,-20.25"/>
</a>
</g>
</g>
</g>
</svg>
