<?xml version="1.0" encoding="UTF-8" standalone="no"?>
<!DOCTYPE svg PUBLIC "-//W3C//DTD SVG 1.1//EN"
 "http://www.w3.org/Graphics/SVG/1.1/DTD/svg11.dtd">
<!-- Generated by graphviz version 13.1.2 (20250808.2320)
 -->
<!-- Title: kest_dict_entry_type_to_string Pages: 1 -->
<svg width="592pt" height="42pt"
 viewBox="0.00 0.00 592.00 42.00" xmlns="http://www.w3.org/2000/svg" xmlns:xlink="http://www.w3.org/1999/xlink">
<g id="graph0" class="graph" transform="scale(1 1) rotate(0) translate(4 37.5)">
<title>kest_dict_entry_type_to_string</title>
<!-- Node1 -->
<g id="Node000001" class="node">
<title>Node1</title>
<g id="a_Node000001"><a xlink:title=" ">
<polygon fill="#999999" stroke="#666666" points="583.75,-33.5 466.5,-33.5 466.5,0 583.75,0 583.75,-33.5"/>
<text xml:space="preserve" text-anchor="start" x="474.5" y="-20" font-family="Helvetica,sans-Serif" font-size="10.00">kest_dict_entry_type</text>
<text xml:space="preserve" text-anchor="middle" x="525.12" y="-7.25" font-family="Helvetica,sans-Serif" font-size="10.00">_to_string</text>
</a>
</g>
</g>
<!-- Node2 -->
<g id="Node000002" class="node">
<title>Node2</title>
<g id="a_Node000002"><a xlink:href="kest__eff__section_8c.html#ae8e0f8831e8737c2ec64cb62d900942f" target="_top" xlink:title=" ">
<polygon fill="white" stroke="#666666" points="430.5,-27.12 287.75,-27.12 287.75,-6.38 430.5,-6.38 430.5,-27.12"/>
<text xml:space="preserve" text-anchor="middle" x="359.12" y="-13.62" font-family="Helvetica,sans-Serif" font-size="10.00">kest_defs_section_extract</text>
</a>
</g>
</g>
<!-- Node1&#45;&gt;Node2 -->
<g id="edge1_Node000001_Node000002" class="edge">
<title>Node1&#45;&gt;Node2</title>
<g id="a_edge1_Node000001_Node000002"><a xlink:title=" ">
<path fill="none" stroke="#63b8ff" d="M454.86,-16.75C446.95,-16.75 438.87,-16.75 430.94,-16.75"/>
<polygon fill="#63b8ff" stroke="#63b8ff" points="454.79,-20.25 464.79,-16.75 454.79,-13.25 454.79,-20.25"/>
</a>
</g>
</g>
<!-- Node3 -->
<g id="Node000003" class="node">
<title>Node3</title>
<g id="a_Node000003"><a xlink:href="kest__eff__parser_8c.html#a73ef6962d1925857ec3e4b12d1aad834" target="_top" xlink:title=" ">
<polygon fill="white" stroke="#666666" points="251.75,-27.12 145.75,-27.12 145.75,-6.38 251.75,-6.38 251.75,-27.12"/>
<text xml:space="preserve" text-anchor="middle" x="198.75" y="-13.62" font-family="Helvetica,sans-Serif" font-size="10.00">kest_parse_tokens</text>
</a>
</g>
</g>
<!-- Node2&#45;&gt;Node3 -->
<g id="edge2_Node000002_Node000003" class="edge">
<title>Node2&#45;&gt;Node3</title>
<g id="a_edge2_Node000002_Node000003"><a xlink:title=" ">
<path fill="none" stroke="#63b8ff" d="M275.84,-16.75C267.74,-16.75 259.69,-16.75 252.02,-16.75"/>
<polygon fill="#63b8ff" stroke="#63b8ff" points="275.76,-20.25 285.76,-16.75 275.76,-13.25 275.76,-20.25"/>
</a>
</g>
</g>
<!-- Node4 -->
<g id="Node000004" class="node">
<title>Node4</title>
<g id="a_Node000004"><a xlink:href="kest__eff__parser_8c.html#ae4618958c44389928c260fdb0e170761" target="_top" xlink:title=" ">
<polygon fill="#fff0f0" stroke="red" points="109.75,-33.5 0,-33.5 0,0 109.75,0 109.75,-33.5"/>
<text xml:space="preserve" text-anchor="start" x="8" y="-20" font-family="Helvetica,sans-Serif" font-size="10.00">kest_read_eff_desc</text>
<text xml:space="preserve" text-anchor="middle" x="54.88" y="-7.25" font-family="Helvetica,sans-Serif" font-size="10.00">_from_file</text>
</a>
</g>
</g>
<!-- Node3&#45;&gt;Node4 -->
<g id="edge3_Node000003_Node000004" class="edge">
<title>Node3&#45;&gt;Node4</title>
<g id="a_edge3_Node000003_Node000004"><a xlink:title=" ">
<path fill="none" stroke="#63b8ff" d="M134.08,-16.75C126.03,-16.75 117.86,-16.75 109.98,-16.75"/>
<polygon fill="#63b8ff" stroke="#63b8ff" points="133.81,-20.25 143.81,-16.75 133.81,-13.25 133.81,-20.25"/>
</a>
</g>
</g>
</g>
</svg>
