<?xml version="1.0" encoding="UTF-8" standalone="no"?>
<!DOCTYPE svg PUBLIC "-//W3C//DTD SVG 1.1//EN"
 "http://www.w3.org/Graphics/SVG/1.1/DTD/svg11.dtd">
<!-- Generated by graphviz version 13.1.2 (20250808.2320)
 -->
<!-- Title: seq_view_moved_cb Pages: 1 -->
<svg width="604pt" height="42pt"
 viewBox="0.00 0.00 604.00 42.00" xmlns="http://www.w3.org/2000/svg" xmlns:xlink="http://www.w3.org/1999/xlink">
<g id="graph0" class="graph" transform="scale(1 1) rotate(0) translate(4 37.5)">
<title>seq_view_moved_cb</title>
<!-- Node1 -->
<g id="Node000001" class="node">
<title>Node1</title>
<g id="a_Node000001"><a xlink:title=" ">
<polygon fill="#999999" stroke="#666666" points="117.25,-27.12 0,-27.12 0,-6.38 117.25,-6.38 117.25,-27.12"/>
<text xml:space="preserve" text-anchor="middle" x="58.62" y="-13.62" font-family="Helvetica,sans-Serif" font-size="10.00">seq_view_moved_cb</text>
</a>
</g>
</g>
<!-- Node2 -->
<g id="Node000002" class="node">
<title>Node2</title>
<g id="a_Node000002"><a xlink:href="kest__sequence_8c.html#aad6cac71add5fb13139fe3ed72212031" target="_top" xlink:title=" ">
<polygon fill="white" stroke="#666666" points="274.25,-33.5 153.25,-33.5 153.25,0 274.25,0 274.25,-33.5"/>
<text xml:space="preserve" text-anchor="start" x="161.25" y="-20" font-family="Helvetica,sans-Serif" font-size="10.00">kest_sequence_move</text>
<text xml:space="preserve" text-anchor="middle" x="213.75" y="-7.25" font-family="Helvetica,sans-Serif" font-size="10.00">_profile</text>
</a>
</g>
</g>
<!-- Node1&#45;&gt;Node2 -->
<g id="edge1_Node000001_Node000002" class="edge">
<title>Node1&#45;&gt;Node2</title>
<g id="a_edge1_Node000001_Node000002"><a xlink:title=" ">
<path fill="none" stroke="#63b8ff" d="M117.51,-16.75C125.4,-16.75 133.57,-16.75 141.66,-16.75"/>
<polygon fill="#63b8ff" stroke="#63b8ff" points="141.48,-20.25 151.48,-16.75 141.48,-13.25 141.48,-20.25"/>
</a>
</g>
</g>
<!-- Node3 -->
<g id="Node000003" class="node">
<title>Node3</title>
<g id="a_Node000003"><a xlink:href="kest__sequence_8c.html#abb62e308c5b4830b09a802084718cb2d" target="_top" xlink:title=" ">
<polygon fill="white" stroke="#666666" points="437.25,-33.5 310.25,-33.5 310.25,0 437.25,0 437.25,-33.5"/>
<text xml:space="preserve" text-anchor="start" x="318.25" y="-20" font-family="Helvetica,sans-Serif" font-size="10.00">kest_sequence_update</text>
<text xml:space="preserve" text-anchor="middle" x="373.75" y="-7.25" font-family="Helvetica,sans-Serif" font-size="10.00">_representations</text>
</a>
</g>
</g>
<!-- Node2&#45;&gt;Node3 -->
<g id="edge2_Node000002_Node000003" class="edge">
<title>Node2&#45;&gt;Node3</title>
<g id="a_edge2_Node000002_Node000003"><a xlink:title=" ">
<path fill="none" stroke="#63b8ff" d="M274.48,-16.75C282.32,-16.75 290.43,-16.75 298.48,-16.75"/>
<polygon fill="#63b8ff" stroke="#63b8ff" points="298.26,-20.25 308.26,-16.75 298.26,-13.25 298.26,-20.25"/>
</a>
</g>
</g>
<!-- Node4 -->
<g id="Node000004" class="node">
<title>Node4</title>
<g id="a_Node000004"><a xlink:href="kest__representation_8c.html#a7a4a0f32b72f47d90e3d0f5932fbe58f" target="_top" xlink:title=" ">
<polygon fill="white" stroke="#666666" points="595.75,-33.5 473.25,-33.5 473.25,0 595.75,0 595.75,-33.5"/>
<text xml:space="preserve" text-anchor="start" x="481.25" y="-20" font-family="Helvetica,sans-Serif" font-size="10.00">queue_representation</text>
<text xml:space="preserve" text-anchor="middle" x="534.5" y="-7.25" font-family="Helvetica,sans-Serif" font-size="10.00">_list_update</text>
</a>
</g>
</g>
<!-- Node3&#45;&gt;Node4 -->
<g id="edge3_Node000003_Node000004" class="edge">
<title>Node3&#45;&gt;Node4</title>
<g id="a_edge3_Node000003_Node000004"><a xlink:title=" ">
<path fill="none" stroke="#63b8ff" d="M437.49,-16.75C445.39,-16.75 453.51,-16.75 461.53,-16.75"/>
<polygon fill="#63b8ff" stroke="#63b8ff" points="461.25,-20.25 471.25,-16.75 461.25,-13.25 461.25,-20.25"/>
</a>
</g>
</g>
</g>
</svg>
