<?xml version="1.0" encoding="UTF-8" standalone="no"?>
<!DOCTYPE svg PUBLIC "-//W3C//DTD SVG 1.1//EN"
 "http://www.w3.org/Graphics/SVG/1.1/DTD/svg11.dtd">
<!-- Generated by graphviz version 13.1.2 (20250808.2320)
 -->
<!-- Title: new_panel Pages: 1 -->
<!--zoomable 391 -->

<svg id="main" version="1.1" xmlns="http://www.w3.org/2000/svg" xmlns:xlink="http://www.w3.org/1999/xlink" xml:space="preserve" onload="init(evt)">

<style type="text/css"><![CDATA[
.node, .edge {opacity: 0.7;}
.node.selected, .edge.selected {opacity: 1;}
.edge:hover path { stroke: red; }
.edge:hover polygon { stroke: red; fill: red; }
]]></style>

<defs>
  <circle id="rim" cx="0" cy="0" r="7"/>
  <circle id="rim2" cx="0" cy="0" r="3.5"/>
  <g id="zoomPlus">
    <use xlink:href="#rim" fill="#404040"><set attributeName="fill" to="#808080" begin="zoomplus.mouseover" end="zoomplus.mouseout"/></use>
    <path d="M-4,0h8M0,-4v8" fill="none" stroke="white" stroke-width="1.5" pointer-events="none"/>
  </g>
  <g id="zoomMin">
    <use xlink:href="#rim" fill="#404040"><set attributeName="fill" to="#808080" begin="zoomminus.mouseover" end="zoomminus.mouseout"/></use>
    <path d="M-4,0h8" fill="none" stroke="white" stroke-width="1.5" pointer-events="none"/>
  </g>
  <g id="arrowUp" transform="translate(30 24)">
    <use xlink:href="#rim"/>
    <path pointer-events="none" fill="none" stroke="white" stroke-width="1.5" d="M0,-3.0v7 M-2.5,-0.5L0,-3.0L2.5,-0.5"/>
  </g>
  <g id="arrowRight" transform="rotate(90) translate(36 -43)">
    <use xlink:href="#rim"/>
    <path pointer-events="none" fill="none" stroke="white" stroke-width="1.5" d="M0,-3.0v7 M-2.5,-0.5L0,-3.0L2.5,-0.5"/>
  </g>
  <g id="arrowDown" transform="rotate(180) translate(-30 -48)">
    <use xlink:href="#rim"/>
    <path pointer-events="none" fill="none" stroke="white" stroke-width="1.5" d="M0,-3.0v7 M-2.5,-0.5L0,-3.0L2.5,-0.5"/>
  </g>
  <g id="arrowLeft" transform="rotate(270) translate(-36 17)">
    <use xlink:href="#rim"/>
    <path pointer-events="none" fill="none" stroke="white" stroke-width="1.5" d="M0,-3.0v7 M-2.5,-0.5L0,-3.0L2.5,-0.5"/>
  </g>
  <g id="resetDef">
    <use xlink:href="#rim2" fill="#404040"><set attributeName="fill" to="#808080" begin="reset.mouseover" end="reset.mouseout"/></use>
  </g>
</defs>
<script type="application/ecmascript">
var viewWidth = 1321;
var viewHeight = 391;
var sectionId = 'dynsection-50';
</script>
<script type="application/ecmascript" xlink:href="svg.min.js"/>
<svg id="graph" class="graph">
<g id="viewport">
<title>new_panel</title>
<!-- Node1 -->
<g id="Node000001" class="node">
<title>Node1</title>
<g id="a_Node000001"><a xlink:title=" ">
<polygon fill="#999999" stroke="#666666" points="1312.5,-173.75 1244,-173.75 1244,-153 1312.5,-153 1312.5,-173.75"/>
<text xml:space="preserve" text-anchor="middle" x="1278.25" y="-160.25" font-family="Helvetica,sans-Serif" font-size="10.00">new_panel</text>
</a>
</g>
</g>
<!-- Node2 -->
<g id="Node000002" class="node">
<title>Node2</title>
<g id="a_Node000002"><a xlink:href="kest__menu_8c.html#a86c6c0acd2dfb8a62bd96bbfd739e687" target="_top" xlink:title=" ">
<polygon fill="white" stroke="#666666" points="1199.38,-382.75 1074.62,-382.75 1074.62,-362 1199.38,-362 1199.38,-382.75"/>
<text xml:space="preserve" text-anchor="middle" x="1137" y="-369.25" font-family="Helvetica,sans-Serif" font-size="10.00">configure_main_menu</text>
</a>
</g>
</g>
<!-- Node1&#45;&gt;Node2 -->
<g id="edge1_Node000001_Node000002" class="edge">
<title>Node1&#45;&gt;Node2</title>
<g id="a_edge1_Node000001_Node000002"><a xlink:title=" ">
<path fill="none" stroke="#63b8ff" d="M1275.51,-185.58C1271.22,-224.97 1256.63,-307.17 1208,-352.38 1204.02,-356.08 1199.4,-359.1 1194.47,-361.56"/>
<polygon fill="#63b8ff" stroke="#63b8ff" points="1278.99,-185.98 1276.45,-175.69 1272.02,-185.32 1278.99,-185.98"/>
</a>
</g>
</g>
<!-- Node8 -->
<g id="Node000008" class="node">
<title>Node8</title>
<g id="a_Node000008"><a xlink:href="kest__menu_8c.html#a264644eed0c454d882162f462ed24454" target="_top" xlink:title=" ">
<polygon fill="white" stroke="#666666" points="1199,-325.75 1075,-325.75 1075,-305 1199,-305 1199,-325.75"/>
<text xml:space="preserve" text-anchor="middle" x="1137" y="-312.25" font-family="Helvetica,sans-Serif" font-size="10.00">configure_menu_page</text>
</a>
</g>
</g>
<!-- Node1&#45;&gt;Node8 -->
<g id="edge6_Node000001_Node000008" class="edge">
<title>Node1&#45;&gt;Node8</title>
<g id="a_edge6_Node000001_Node000008"><a xlink:title=" ">
<path fill="none" stroke="#63b8ff" d="M1271.11,-184.7C1261.91,-212.99 1241.91,-262.66 1208,-291.38 1201.43,-296.94 1193.51,-301.23 1185.38,-304.54"/>
<polygon fill="#63b8ff" stroke="#63b8ff" points="1274.36,-186.05 1273.96,-175.46 1267.67,-183.99 1274.36,-186.05"/>
</a>
</g>
</g>
<!-- Node11 -->
<g id="Node000011" class="node">
<title>Node11</title>
<g id="a_Node000011"><a xlink:href="kest__sequence__list_8c.html#ae60870bb862edfc5b0a45344c20b152f" target="_top" xlink:title=" ">
<polygon fill="white" stroke="#666666" points="541,-249.75 407.25,-249.75 407.25,-229 541,-229 541,-249.75"/>
<text xml:space="preserve" text-anchor="middle" x="474.12" y="-236.25" font-family="Helvetica,sans-Serif" font-size="10.00">configure_sequence_list</text>
</a>
</g>
</g>
<!-- Node1&#45;&gt;Node11 -->
<g id="edge11_Node000001_Node000011" class="edge">
<title>Node1&#45;&gt;Node11</title>
<g id="a_edge11_Node000001_Node000011"><a xlink:title=" ">
<path fill="none" stroke="#63b8ff" d="M1259.42,-181.93C1246.31,-194.54 1227.46,-210.63 1208,-220.38 1112.68,-268.11 1081.61,-277.38 975,-277.38 975,-277.38 975,-277.38 808.12,-277.38 705.06,-277.38 679.16,-272.06 577,-258.38 560.86,-256.21 543.4,-253.2 527.57,-250.22"/>
<polygon fill="#63b8ff" stroke="#63b8ff" points="1261.81,-184.48 1266.44,-174.95 1256.88,-179.52 1261.81,-184.48"/>
</a>
</g>
</g>
<!-- Node13 -->
<g id="Node000013" class="node">
<title>Node13</title>
<g id="a_Node000013"><a xlink:href="kest__sequence__view_8c.html#ac871b24a7c875a7b6e707a3d2691a2a9" target="_top" xlink:title=" ">
<polygon fill="white" stroke="#666666" points="1208,-211.75 1066,-211.75 1066,-191 1208,-191 1208,-211.75"/>
<text xml:space="preserve" text-anchor="middle" x="1137" y="-198.25" font-family="Helvetica,sans-Serif" font-size="10.00">configure_sequence_view</text>
</a>
</g>
</g>
<!-- Node1&#45;&gt;Node13 -->
<g id="edge16_Node000001_Node000013" class="edge">
<title>Node1&#45;&gt;Node13</title>
<g id="a_edge16_Node000001_Node000013"><a xlink:title=" ">
<path fill="none" stroke="#63b8ff" d="M1232.66,-175.54C1215.04,-180.35 1194.95,-185.83 1177.83,-190.51"/>
<polygon fill="#63b8ff" stroke="#63b8ff" points="1233.36,-178.98 1242.08,-172.97 1231.51,-172.23 1233.36,-178.98"/>
</a>
</g>
</g>
<!-- Node21 -->
<g id="Node000021" class="node">
<title>Node21</title>
<g id="a_Node000021"><a xlink:href="kest__effect__settings_8c.html#ab8bf2accabc08beecb97a54915abc488" target="_top" xlink:title=" ">
<polygon fill="white" stroke="#666666" points="1206.5,-135.75 1067.5,-135.75 1067.5,-115 1206.5,-115 1206.5,-135.75"/>
<text xml:space="preserve" text-anchor="middle" x="1137" y="-122.25" font-family="Helvetica,sans-Serif" font-size="10.00">init_effect_settings_page</text>
</a>
</g>
</g>
<!-- Node1&#45;&gt;Node21 -->
<g id="edge27_Node000001_Node000021" class="edge">
<title>Node1&#45;&gt;Node21</title>
<g id="a_edge27_Node000001_Node000021"><a xlink:title=" ">
<path fill="none" stroke="#63b8ff" d="M1232.66,-151.21C1215.04,-146.4 1194.95,-140.92 1177.83,-136.24"/>
<polygon fill="#63b8ff" stroke="#63b8ff" points="1231.51,-154.52 1242.08,-153.78 1233.36,-147.77 1231.51,-154.52"/>
</a>
</g>
</g>
<!-- Node22 -->
<g id="Node000022" class="node">
<title>Node22</title>
<g id="a_Node000022"><a xlink:href="kest__effect__view_8c.html#a7b9803e86d71b10b167f0babf088fe08" target="_top" xlink:title=" ">
<polygon fill="white" stroke="#666666" points="1021,-135.75 927,-135.75 927,-115 1021,-115 1021,-135.75"/>
<text xml:space="preserve" text-anchor="middle" x="974" y="-122.25" font-family="Helvetica,sans-Serif" font-size="10.00">init_effect_view</text>
</a>
</g>
</g>
<!-- Node1&#45;&gt;Node22 -->
<g id="edge30_Node000001_Node000022" class="edge">
<title>Node1&#45;&gt;Node22</title>
<g id="a_edge30_Node000001_Node000022"><a xlink:title=" ">
<path fill="none" stroke="#63b8ff" d="M1232.37,-160.85C1189.48,-158.09 1123.1,-152.87 1066,-144.38 1051.31,-142.19 1035.43,-139.12 1021.11,-136.09"/>
<polygon fill="#63b8ff" stroke="#63b8ff" points="1232.1,-164.34 1242.3,-161.48 1232.54,-157.36 1232.1,-164.34"/>
</a>
</g>
</g>
<!-- Node24 -->
<g id="Node000024" class="node">
<title>Node24</title>
<g id="a_Node000024"><a xlink:href="kest__profile__settings_8c.html#a1c60543ff9aed0e212ab514d669256f2" target="_top" xlink:title=" ">
<polygon fill="white" stroke="#666666" points="1208,-59.75 1066,-59.75 1066,-39 1208,-39 1208,-59.75"/>
<text xml:space="preserve" text-anchor="middle" x="1137" y="-46.25" font-family="Helvetica,sans-Serif" font-size="10.00">init_profile_settings_page</text>
</a>
</g>
</g>
<!-- Node1&#45;&gt;Node24 -->
<g id="edge31_Node000001_Node000024" class="edge">
<title>Node1&#45;&gt;Node24</title>
<g id="a_edge31_Node000001_Node000024"><a xlink:title=" ">
<path fill="none" stroke="#63b8ff" d="M1266.2,-142.74C1254.32,-122.41 1233.66,-91.79 1208,-73.38 1200.38,-67.91 1191.42,-63.6 1182.49,-60.25"/>
<polygon fill="#63b8ff" stroke="#63b8ff" points="1263.03,-144.25 1270.98,-151.25 1269.13,-140.82 1263.03,-144.25"/>
</a>
</g>
</g>
<!-- Node25 -->
<g id="Node000025" class="node">
<title>Node25</title>
<g id="a_Node000025"><a xlink:href="kest__profile__view_8c.html#abfe2cf72961d0ab0b70f858cf1281a38" target="_top" xlink:title=" ">
<polygon fill="white" stroke="#666666" points="1022.5,-77.75 925.5,-77.75 925.5,-57 1022.5,-57 1022.5,-77.75"/>
<text xml:space="preserve" text-anchor="middle" x="974" y="-64.25" font-family="Helvetica,sans-Serif" font-size="10.00">init_profile_view</text>
</a>
</g>
</g>
<!-- Node1&#45;&gt;Node25 -->
<g id="edge34_Node000001_Node000025" class="edge">
<title>Node1&#45;&gt;Node25</title>
<g id="a_edge34_Node000001_Node000025"><a xlink:title=" ">
<path fill="none" stroke="#63b8ff" d="M1259.63,-144.37C1246.62,-131.55 1227.8,-115.39 1208,-106.38 1147.9,-79.01 1071.24,-70.64 1022.62,-68.2"/>
<polygon fill="#63b8ff" stroke="#63b8ff" points="1257.1,-146.78 1266.59,-151.49 1262.11,-141.89 1257.1,-146.78"/>
</a>
</g>
</g>
<!-- Node30 -->
<g id="Node000030" class="node">
<title>Node30</title>
<g id="a_Node000030"><a xlink:href="kest__ui_8c.html#a54f79f277b7d97da20f192e3bec8f3ec" target="_top" xlink:title=" ">
<polygon fill="white" stroke="#666666" points="1179.5,-20.75 1094.5,-20.75 1094.5,0 1179.5,0 1179.5,-20.75"/>
<text xml:space="preserve" text-anchor="middle" x="1137" y="-7.25" font-family="Helvetica,sans-Serif" font-size="10.00">init_test_page</text>
</a>
</g>
</g>
<!-- Node1&#45;&gt;Node30 -->
<g id="edge35_Node000001_Node000030" class="edge">
<title>Node1&#45;&gt;Node30</title>
<g id="a_edge35_Node000001_Node000030"><a xlink:title=" ">
<path fill="none" stroke="#63b8ff" d="M1271.81,-141.79C1263.25,-112.26 1243.81,-59.6 1208,-30.38 1199.97,-23.82 1189.9,-19.41 1179.93,-16.45"/>
<polygon fill="#63b8ff" stroke="#63b8ff" points="1268.34,-142.37 1274.35,-151.1 1275.1,-140.53 1268.34,-142.37"/>
</a>
</g>
</g>
<!-- Node3 -->
<g id="Node000003" class="node">
<title>Node3</title>
<g id="a_Node000003"><a xlink:href="kest__menu_8c.html#a6aa16fb3d12f098f021ae677605e683e" target="_top" xlink:title=" ">
<polygon fill="white" stroke="#666666" points="521.5,-358.75 426.75,-358.75 426.75,-338 521.5,-338 521.5,-358.75"/>
<text xml:space="preserve" text-anchor="middle" x="474.12" y="-345.25" font-family="Helvetica,sans-Serif" font-size="10.00">init_main_menu</text>
</a>
</g>
</g>
<!-- Node2&#45;&gt;Node3 -->
<g id="edge2_Node000002_Node000003" class="edge">
<title>Node2&#45;&gt;Node3</title>
<g id="a_edge2_Node000002_Node000003"><a xlink:title=" ">
<path fill="none" stroke="#63b8ff" d="M1063.27,-369.73C926.68,-364.77 635.33,-354.19 521.79,-350.07"/>
<polygon fill="#63b8ff" stroke="#63b8ff" points="1062.79,-373.22 1072.91,-370.08 1063.04,-366.22 1062.79,-373.22"/>
</a>
</g>
</g>
<!-- Node4 -->
<g id="Node000004" class="node">
<title>Node4</title>
<g id="a_Node000004"><a xlink:href="kest__ui_8c.html#ab1be7d2981c922ebe8d714f9af0f600d" target="_top" xlink:title=" ">
<polygon fill="white" stroke="#666666" points="230.75,-212.75 103.75,-212.75 103.75,-192 230.75,-192 230.75,-212.75"/>
<text xml:space="preserve" text-anchor="middle" x="167.25" y="-199.25" font-family="Helvetica,sans-Serif" font-size="10.00">kest_init_global_pages</text>
</a>
</g>
</g>
<!-- Node3&#45;&gt;Node4 -->
<g id="edge3_Node000003_Node000004" class="edge">
<title>Node3&#45;&gt;Node4</title>
<g id="a_edge3_Node000003_Node000004"><a xlink:title=" ">
<path fill="none" stroke="#63b8ff" d="M435.63,-333.3C394.01,-316.27 325.11,-287.14 267.5,-258.38 238.29,-243.79 205.51,-224.74 185.89,-213.04"/>
<polygon fill="#63b8ff" stroke="#63b8ff" points="434.13,-336.47 444.71,-337 436.77,-329.99 434.13,-336.47"/>
</a>
</g>
</g>
<!-- Node5 -->
<g id="Node000005" class="node">
<title>Node5</title>
<g id="a_Node000005"><a xlink:href="kest__int_8c.html#abce06be17fc37d675118a678a8100a36" target="_top" xlink:title=" ">
<polygon fill="white" stroke="#666666" points="65.5,-192.75 1.5,-192.75 1.5,-172 65.5,-172 65.5,-192.75"/>
<text xml:space="preserve" text-anchor="middle" x="33.5" y="-179.25" font-family="Helvetica,sans-Serif" font-size="10.00">app_main</text>
</a>
</g>
</g>
<!-- Node4&#45;&gt;Node5 -->
<g id="edge4_Node000004_Node000005" class="edge">
<title>Node4&#45;&gt;Node5</title>
<g id="a_edge4_Node000004_Node000005"><a xlink:title=" ">
<path fill="none" stroke="#63b8ff" d="M92.09,-191.12C82.82,-189.71 73.77,-188.34 65.69,-187.11"/>
<polygon fill="#63b8ff" stroke="#63b8ff" points="91.55,-194.58 101.97,-192.62 92.6,-187.66 91.55,-194.58"/>
</a>
</g>
</g>
<!-- Node6 -->
<g id="Node000006" class="node">
<title>Node6</title>
<g id="a_Node000006"><a xlink:href="kest__desktop_8c.html#ab499a4f71ef4cfc807b60d8739750c3e" target="_top" xlink:title=" ">
<polygon fill="#fff0f0" stroke="red" points="67,-153.75 0,-153.75 0,-133 67,-133 67,-153.75"/>
<text xml:space="preserve" text-anchor="middle" x="33.5" y="-140.25" font-family="Helvetica,sans-Serif" font-size="10.00">main_task</text>
</a>
</g>
</g>
<!-- Node4&#45;&gt;Node6 -->
<g id="edge5_Node000004_Node000006" class="edge">
<title>Node4&#45;&gt;Node6</title>
<g id="a_edge5_Node000004_Node000006"><a xlink:title=" ">
<path fill="none" stroke="#63b8ff" d="M117.1,-187.97C112.29,-186.22 107.51,-184.35 103,-182.38 93.09,-178.05 69.32,-164.21 52.57,-154.24"/>
<polygon fill="#63b8ff" stroke="#63b8ff" points="115.62,-191.16 126.21,-191.1 117.89,-184.54 115.62,-191.16"/>
</a>
</g>
</g>
<!-- Node8&#45;&gt;Node8 -->
<g id="edge7_Node000008_Node000008" class="edge">
<title>Node8&#45;&gt;Node8</title>
<g id="a_edge7_Node000008_Node000008"><a xlink:title=" ">
<path fill="none" stroke="#63b8ff" d="M1161.85,-337.24C1158.56,-341.08 1150.28,-343.75 1137,-343.75 1112.72,-343.75 1105.14,-334.81 1114.24,-326.15"/>
<polygon fill="#63b8ff" stroke="#63b8ff" points="1165.34,-336.81 1160.04,-327.63 1158.46,-338.11 1165.34,-336.81"/>
</a>
</g>
</g>
<!-- Node9 -->
<g id="Node000009" class="node">
<title>Node9</title>
<g id="a_Node000009"><a xlink:href="kest__menu_8c.html#a9a3dc2a29ebf6ace0a6b54a902530001" target="_top" xlink:title=" ">
<polygon fill="white" stroke="#666666" points="685.62,-325.75 591.62,-325.75 591.62,-305 685.62,-305 685.62,-325.75"/>
<text xml:space="preserve" text-anchor="middle" x="638.62" y="-312.25" font-family="Helvetica,sans-Serif" font-size="10.00">init_menu_page</text>
</a>
</g>
</g>
<!-- Node8&#45;&gt;Node9 -->
<g id="edge8_Node000008_Node000009" class="edge">
<title>Node8&#45;&gt;Node9</title>
<g id="a_edge8_Node000008_Node000009"><a xlink:title=" ">
<path fill="none" stroke="#63b8ff" d="M1063.36,-315.38C959.83,-315.38 772.82,-315.38 686.1,-315.38"/>
<polygon fill="#63b8ff" stroke="#63b8ff" points="1063.12,-318.88 1073.12,-315.38 1063.12,-311.88 1063.12,-318.88"/>
</a>
</g>
</g>
<!-- Node10 -->
<g id="Node000010" class="node">
<title>Node10</title>
<g id="a_Node000010"><a xlink:href="kest__sequence__list_8c.html#a0e869118af43741e3d4db628d5c414fe" target="_top" xlink:title=" ">
<polygon fill="white" stroke="#666666" points="371.25,-249.75 267.5,-249.75 267.5,-229 371.25,-229 371.25,-249.75"/>
<text xml:space="preserve" text-anchor="middle" x="319.38" y="-236.25" font-family="Helvetica,sans-Serif" font-size="10.00">init_sequence_list</text>
</a>
</g>
</g>
<!-- Node9&#45;&gt;Node10 -->
<g id="edge9_Node000009_Node000010" class="edge">
<title>Node9&#45;&gt;Node10</title>
<g id="a_edge9_Node000009_Node000010"><a xlink:title=" ">
<path fill="none" stroke="#63b8ff" d="M581.45,-301.92C519.91,-287.18 422.41,-263.82 365.59,-250.21"/>
<polygon fill="#63b8ff" stroke="#63b8ff" points="580.5,-305.29 591.04,-304.21 582.13,-298.48 580.5,-305.29"/>
</a>
</g>
</g>
<!-- Node10&#45;&gt;Node4 -->
<g id="edge10_Node000010_Node000004" class="edge">
<title>Node10&#45;&gt;Node4</title>
<g id="a_edge10_Node000010_Node000004"><a xlink:title=" ">
<path fill="none" stroke="#63b8ff" d="M263.66,-225.89C246.71,-221.71 228.25,-217.16 212.13,-213.19"/>
<polygon fill="#63b8ff" stroke="#63b8ff" points="262.53,-229.22 273.08,-228.21 264.21,-222.42 262.53,-229.22"/>
</a>
</g>
</g>
<!-- Node11&#45;&gt;Node10 -->
<g id="edge12_Node000011_Node000010" class="edge">
<title>Node11&#45;&gt;Node10</title>
<g id="a_edge12_Node000011_Node000010"><a xlink:title=" ">
<path fill="none" stroke="#63b8ff" d="M395.76,-239.38C387.49,-239.38 379.24,-239.38 371.39,-239.38"/>
<polygon fill="#63b8ff" stroke="#63b8ff" points="395.5,-242.88 405.5,-239.38 395.5,-235.88 395.5,-242.88"/>
</a>
</g>
</g>
<!-- Node12 -->
<g id="Node000012" class="node">
<title>Node12</title>
<g id="a_Node000012"><a xlink:href="kest__ui_8c.html#ac4b49754b0a8d3df4343e742d6899872" target="_top" xlink:title=" ">
<polygon fill="white" stroke="#666666" points="210.5,-173.75 124,-173.75 124,-153 210.5,-153 210.5,-173.75"/>
<text xml:space="preserve" text-anchor="middle" x="167.25" y="-160.25" font-family="Helvetica,sans-Serif" font-size="10.00">kest_create_ui</text>
</a>
</g>
</g>
<!-- Node11&#45;&gt;Node12 -->
<g id="edge13_Node000011_Node000012" class="edge">
<title>Node11&#45;&gt;Node12</title>
<g id="a_edge13_Node000011_Node000012"><a xlink:title=" ">
<path fill="none" stroke="#63b8ff" d="M418.73,-225.81C359.3,-211 265.33,-187.58 210.97,-174.02"/>
<polygon fill="#63b8ff" stroke="#63b8ff" points="417.75,-229.18 428.3,-228.2 419.44,-222.39 417.75,-229.18"/>
</a>
</g>
</g>
<!-- Node12&#45;&gt;Node5 -->
<g id="edge14_Node000012_Node000005" class="edge">
<title>Node12&#45;&gt;Node5</title>
<g id="a_edge14_Node000012_Node000005"><a xlink:title=" ">
<path fill="none" stroke="#63b8ff" d="M112.54,-171.12C96.71,-173.4 79.91,-175.83 65.97,-177.84"/>
<polygon fill="#63b8ff" stroke="#63b8ff" points="112.94,-174.6 122.34,-169.71 111.94,-167.67 112.94,-174.6"/>
</a>
</g>
</g>
<!-- Node12&#45;&gt;Node6 -->
<g id="edge15_Node000012_Node000006" class="edge">
<title>Node12&#45;&gt;Node6</title>
<g id="a_edge15_Node000012_Node000006"><a xlink:title=" ">
<path fill="none" stroke="#63b8ff" d="M112.81,-155.26C97.38,-152.92 80.99,-150.43 67.22,-148.34"/>
<polygon fill="#63b8ff" stroke="#63b8ff" points="111.93,-158.67 122.34,-156.71 112.98,-151.75 111.93,-158.67"/>
</a>
</g>
</g>
<!-- Node14 -->
<g id="Node000014" class="node">
<title>Node14</title>
<g id="a_Node000014"><a xlink:href="kest__sequence__view_8c.html#a6dd883651c2a7ff92c5ad28755953e91" target="_top" xlink:title=" ">
<polygon fill="white" stroke="#666666" points="882,-173.75 736.25,-173.75 736.25,-153 882,-153 882,-173.75"/>
<text xml:space="preserve" text-anchor="middle" x="809.12" y="-160.25" font-family="Helvetica,sans-Serif" font-size="10.00">create_sequence_view_for</text>
</a>
</g>
</g>
<!-- Node13&#45;&gt;Node14 -->
<g id="edge17_Node000013_Node000014" class="edge">
<title>Node13&#45;&gt;Node14</title>
<g id="a_edge17_Node000013_Node000014"><a xlink:title=" ">
<path fill="none" stroke="#63b8ff" d="M1069.55,-188.51C1056.47,-186.25 1042.83,-184.08 1030,-182.38 980.81,-175.86 925.12,-171.07 882.1,-167.93"/>
<polygon fill="#63b8ff" stroke="#63b8ff" points="1068.91,-191.95 1079.37,-190.24 1070.13,-185.06 1068.91,-191.95"/>
</a>
</g>
</g>
<!-- Node20 -->
<g id="Node000020" class="node">
<title>Node20</title>
<g id="a_Node000020"><a xlink:href="kest__sequence__view_8c.html#aca115eba822b7486dc289cc9150562a7" target="_top" xlink:title=" ">
<polygon fill="white" stroke="#666666" points="1030,-211.75 918,-211.75 918,-191 1030,-191 1030,-211.75"/>
<text xml:space="preserve" text-anchor="middle" x="974" y="-198.25" font-family="Helvetica,sans-Serif" font-size="10.00">init_sequence_view</text>
</a>
</g>
</g>
<!-- Node13&#45;&gt;Node20 -->
<g id="edge24_Node000013_Node000020" class="edge">
<title>Node13&#45;&gt;Node20</title>
<g id="a_edge24_Node000013_Node000020"><a xlink:title=" ">
<path fill="none" stroke="#63b8ff" d="M1054.39,-201.38C1046.27,-201.38 1038.16,-201.38 1030.4,-201.38"/>
<polygon fill="#63b8ff" stroke="#63b8ff" points="1054.34,-204.88 1064.34,-201.38 1054.34,-197.88 1054.34,-204.88"/>
</a>
</g>
</g>
<!-- Node15 -->
<g id="Node000015" class="node">
<title>Node15</title>
<g id="a_Node000015"><a xlink:href="kest__files_8c.html#a2b0f0df900e064b3a42198050e150084" target="_top" xlink:title=" ">
<polygon fill="white" stroke="#666666" points="231.5,-134.75 103,-134.75 103,-114 231.5,-114 231.5,-134.75"/>
<text xml:space="preserve" text-anchor="middle" x="167.25" y="-121.25" font-family="Helvetica,sans-Serif" font-size="10.00">load_saved_sequences</text>
</a>
</g>
</g>
<!-- Node14&#45;&gt;Node15 -->
<g id="edge18_Node000014_Node000015" class="edge">
<title>Node14&#45;&gt;Node15</title>
<g id="a_edge18_Node000014_Node000015"><a xlink:title=" ">
<path fill="none" stroke="#63b8ff" d="M756.61,-149.55C749.74,-147.55 742.81,-145.47 736.25,-143.38 720.04,-138.2 716.99,-133.4 700.25,-130.38 533.46,-100.21 332.44,-110.21 231.96,-118.29"/>
<polygon fill="#63b8ff" stroke="#63b8ff" points="755.26,-152.8 765.84,-152.17 757.18,-146.07 755.26,-152.8"/>
</a>
</g>
</g>
<!-- Node16 -->
<g id="Node000016" class="node">
<title>Node16</title>
<g id="a_Node000016"><a xlink:href="kest__sequence__list_8c.html#a0788bbcb1aa9c85a904e084c2abd48ad" target="_top" xlink:title=" ">
<polygon fill="#fff0f0" stroke="red" points="700.25,-173.12 577,-173.12 577,-139.62 700.25,-139.62 700.25,-173.12"/>
<text xml:space="preserve" text-anchor="start" x="585" y="-159.62" font-family="Helvetica,sans-Serif" font-size="10.00">menu_item_sequence</text>
<text xml:space="preserve" text-anchor="middle" x="638.62" y="-146.88" font-family="Helvetica,sans-Serif" font-size="10.00">_listing_released_cb</text>
</a>
</g>
</g>
<!-- Node14&#45;&gt;Node16 -->
<g id="edge21_Node000014_Node000016" class="edge">
<title>Node14&#45;&gt;Node16</title>
<g id="a_edge21_Node000014_Node000016"><a xlink:title=" ">
<path fill="none" stroke="#63b8ff" d="M724.76,-159.91C716.66,-159.58 708.55,-159.24 700.72,-158.91"/>
<polygon fill="#63b8ff" stroke="#63b8ff" points="724.53,-163.41 734.66,-160.32 724.82,-156.41 724.53,-163.41"/>
</a>
</g>
</g>
<!-- Node19 -->
<g id="Node000019" class="node">
<title>Node19</title>
<g id="a_Node000019"><a xlink:href="kest__sequence__list_8c.html#ac9d222d7405758d9f4edfeabe4c6200e" target="_top" xlink:title=" ">
<polygon fill="white" stroke="#666666" points="699.88,-249.75 577.38,-249.75 577.38,-229 699.88,-229 699.88,-249.75"/>
<text xml:space="preserve" text-anchor="middle" x="638.62" y="-236.25" font-family="Helvetica,sans-Serif" font-size="10.00">sequence_list_add_cb</text>
</a>
</g>
</g>
<!-- Node14&#45;&gt;Node19 -->
<g id="edge22_Node000014_Node000019" class="edge">
<title>Node14&#45;&gt;Node19</title>
<g id="a_edge22_Node000014_Node000019"><a xlink:title=" ">
<path fill="none" stroke="#63b8ff" d="M773.87,-178.82C741.06,-193.62 692.4,-215.57 663.56,-228.58"/>
<polygon fill="#63b8ff" stroke="#63b8ff" points="775.28,-182.03 782.96,-174.73 772.41,-175.65 775.28,-182.03"/>
</a>
</g>
</g>
<!-- Node15&#45;&gt;Node5 -->
<g id="edge19_Node000015_Node000005" class="edge">
<title>Node15&#45;&gt;Node5</title>
<g id="a_edge19_Node000015_Node000005"><a xlink:title=" ">
<path fill="none" stroke="#63b8ff" d="M117.13,-138.83C112.31,-140.57 107.53,-142.43 103,-144.38 84.89,-152.17 65.32,-163.33 51.75,-171.53"/>
<polygon fill="#63b8ff" stroke="#63b8ff" points="117.91,-142.26 126.24,-135.71 115.64,-135.64 117.91,-142.26"/>
</a>
</g>
</g>
<!-- Node15&#45;&gt;Node6 -->
<g id="edge20_Node000015_Node000006" class="edge">
<title>Node15&#45;&gt;Node6</title>
<g id="a_edge20_Node000015_Node000006"><a xlink:title=" ">
<path fill="none" stroke="#63b8ff" d="M91.52,-135.15C83.08,-136.37 74.83,-137.56 67.35,-138.64"/>
<polygon fill="#63b8ff" stroke="#63b8ff" points="91.79,-138.65 101.19,-133.76 90.8,-131.72 91.79,-138.65"/>
</a>
</g>
</g>
<!-- Node19&#45;&gt;Node11 -->
<g id="edge23_Node000019_Node000011" class="edge">
<title>Node19&#45;&gt;Node11</title>
<g id="a_edge23_Node000019_Node000011"><a xlink:title=" ">
<path fill="none" stroke="#63b8ff" d="M565.78,-239.38C557.67,-239.38 549.44,-239.38 541.41,-239.38"/>
<polygon fill="#63b8ff" stroke="#63b8ff" points="565.6,-242.88 575.6,-239.38 565.6,-235.88 565.6,-242.88"/>
</a>
</g>
</g>
<!-- Node20&#45;&gt;Node4 -->
<g id="edge26_Node000020_Node000004" class="edge">
<title>Node20&#45;&gt;Node4</title>
<g id="a_edge26_Node000020_Node000004"><a xlink:title=" ">
<path fill="none" stroke="#63b8ff" d="M906.28,-201.38C838.98,-201.38 732.09,-201.38 639.62,-201.38 639.62,-201.38 639.62,-201.38 473.12,-201.38 389.36,-201.38 292.66,-201.76 231.02,-202.05"/>
<polygon fill="#63b8ff" stroke="#63b8ff" points="906.04,-204.88 916.04,-201.38 906.04,-197.88 906.04,-204.88"/>
</a>
</g>
</g>
<!-- Node20&#45;&gt;Node14 -->
<g id="edge25_Node000020_Node000014" class="edge">
<title>Node20&#45;&gt;Node14</title>
<g id="a_edge25_Node000020_Node000014"><a xlink:title=" ">
<path fill="none" stroke="#63b8ff" d="M915.62,-187.99C896.25,-183.47 874.89,-178.48 856.48,-174.19"/>
<polygon fill="#63b8ff" stroke="#63b8ff" points="914.75,-191.38 925.29,-190.24 916.35,-184.56 914.75,-191.38"/>
</a>
</g>
</g>
<!-- Node21&#45;&gt;Node22 -->
<g id="edge28_Node000021_Node000022" class="edge">
<title>Node21&#45;&gt;Node22</title>
<g id="a_edge28_Node000021_Node000022"><a xlink:title=" ">
<path fill="none" stroke="#63b8ff" d="M1055.88,-125.38C1043.98,-125.38 1032.07,-125.38 1021.18,-125.38"/>
<polygon fill="#63b8ff" stroke="#63b8ff" points="1055.74,-128.88 1065.74,-125.38 1055.74,-121.88 1055.74,-128.88"/>
</a>
</g>
</g>
<!-- Node23 -->
<g id="Node000023" class="node">
<title>Node23</title>
<g id="a_Node000023"><a xlink:href="kest__effect__view_8c.html#abb65b28dc293fd68d3b384f48210130e" target="_top" xlink:title=" ">
<polygon fill="white" stroke="#666666" points="873,-134.75 745.25,-134.75 745.25,-114 873,-114 873,-134.75"/>
<text xml:space="preserve" text-anchor="middle" x="809.12" y="-121.25" font-family="Helvetica,sans-Serif" font-size="10.00">create_effect_view_for</text>
</a>
</g>
</g>
<!-- Node22&#45;&gt;Node23 -->
<g id="edge29_Node000022_Node000023" class="edge">
<title>Node22&#45;&gt;Node23</title>
<g id="a_edge29_Node000022_Node000023"><a xlink:title=" ">
<path fill="none" stroke="#63b8ff" d="M915.53,-125.02C901.83,-124.94 887.14,-124.85 873.2,-124.76"/>
<polygon fill="#63b8ff" stroke="#63b8ff" points="915.23,-128.52 925.25,-125.08 915.27,-121.52 915.23,-128.52"/>
</a>
</g>
</g>
<!-- Node24&#45;&gt;Node25 -->
<g id="edge32_Node000024_Node000025" class="edge">
<title>Node24&#45;&gt;Node25</title>
<g id="a_edge32_Node000024_Node000025"><a xlink:title=" ">
<path fill="none" stroke="#63b8ff" d="M1054.52,-58.48C1043.62,-59.7 1032.75,-60.92 1022.7,-62.04"/>
<polygon fill="#63b8ff" stroke="#63b8ff" points="1054.8,-61.98 1064.35,-57.39 1054.02,-55.02 1054.8,-61.98"/>
</a>
</g>
</g>
<!-- Node26 -->
<g id="Node000026" class="node">
<title>Node26</title>
<g id="a_Node000026"><a xlink:href="kest__profile__view_8c.html#a8a76cb40ff26bbde55ba56a4f25094d1" target="_top" xlink:title=" ">
<polygon fill="#fff0f0" stroke="red" points="874.5,-77.75 743.75,-77.75 743.75,-57 874.5,-57 874.5,-77.75"/>
<text xml:space="preserve" text-anchor="middle" x="809.12" y="-64.25" font-family="Helvetica,sans-Serif" font-size="10.00">create_profile_view_for</text>
</a>
</g>
</g>
<!-- Node25&#45;&gt;Node26 -->
<g id="edge33_Node000025_Node000026" class="edge">
<title>Node25&#45;&gt;Node26</title>
<g id="a_edge33_Node000025_Node000026"><a xlink:title=" ">
<path fill="none" stroke="#63b8ff" d="M913.7,-67.38C901.11,-67.38 887.76,-67.38 874.97,-67.38"/>
<polygon fill="#63b8ff" stroke="#63b8ff" points="913.5,-70.88 923.5,-67.38 913.5,-63.88 913.5,-70.88"/>
</a>
</g>
</g>
</g>
</svg>

<g id="navigator" transform="translate(0 0)" fill="#404254">
  <rect fill="#f2f5e9" fill-opacity="0.5" stroke="#606060" stroke-width=".5" x="0" y="0" width="60" height="60"/>
  <use id="zoomplus" xlink:href="#zoomPlus" x="17" y="9" onmousedown="handleZoom(evt,'in')"/>
  <use id="zoomminus" xlink:href="#zoomMin" x="42" y="9" onmousedown="handleZoom(evt,'out')"/>
  <use id="reset" xlink:href="#resetDef" x="30" y="36" onmousedown="handleReset()"/>
   <use id="arrowup" xlink:href="#arrowUp" x="0" y="0" onmousedown="handlePan(0,-1)"/>
  <use id="arrowright" xlink:href="#arrowRight" x="0" y="0" onmousedown="handlePan(1,0)"/>
  <use id="arrowdown" xlink:href="#arrowDown" x="0" y="0" onmousedown="handlePan(0,1)"/>
  <use id="arrowleft" xlink:href="#arrowLeft" x="0" y="0" onmousedown="handlePan(-1,0)"/>
</g>
<svg viewBox="0 0 15 15" width="100%" height="30px" preserveAspectRatio="xMaxYMin meet">
 <g id="arrow_out" transform="scale(0.3 0.3)">
  <a xlink:href="kest__ui_8h_a01360963fabe989a816b58c78cbc041b_icgraph_org.svg" target="_base">
   <rect id="button" ry="5" rx="5" y="6" x="6" height="38" width="38"
        fill="#f2f5e9" fill-opacity="0.5" stroke="#606060" stroke-width="1.0"/>
   <path id="arrow"
     d="M 11.500037,31.436501 C 11.940474,20.09759 22.043105,11.32322 32.158766,21.979434 L 37.068811,17.246167 C 37.068811,17.246167 37.088388,32 37.088388,32 L 22.160133,31.978069 C 22.160133,31.978069 26.997745,27.140456 26.997745,27.140456 C 18.528582,18.264221 13.291696,25.230495 11.500037,31.436501 z"
     style="fill:#404040;"/>
  </a>
 </g>
</svg>

<style type='text/css'>
<![CDATA[
[data-mouse-over-selected='false'] { opacity: 0.7; }
[data-mouse-over-selected='true']  { opacity: 1.0; }
]]>
</style>
<script type="application/ecmascript"><![CDATA[
document.addEventListener('DOMContentLoaded', (event) => {
  highlightEdges();
  highlightAdjacentNodes();
});
]]></script>
</svg>
