<?xml version="1.0" encoding="UTF-8" standalone="no"?>
<!DOCTYPE svg PUBLIC "-//W3C//DTD SVG 1.1//EN"
 "http://www.w3.org/Graphics/SVG/1.1/DTD/svg11.dtd">
<!-- Generated by graphviz version 13.1.2 (20250808.2320)
 -->
<!-- Title: kest_effect_profile_rep_update Pages: 1 -->
<svg width="376pt" height="158pt"
 viewBox="0.00 0.00 376.00 158.00" xmlns="http://www.w3.org/2000/svg" xmlns:xlink="http://www.w3.org/1999/xlink">
<g id="graph0" class="graph" transform="scale(1 1) rotate(0) translate(4 153.75)">
<title>kest_effect_profile_rep_update</title>
<!-- Node1 -->
<g id="Node000001" class="node">
<title>Node1</title>
<g id="a_Node000001"><a xlink:title=" ">
<polygon fill="#999999" stroke="#666666" points="106.75,-94.12 0,-94.12 0,-60.62 106.75,-60.62 106.75,-94.12"/>
<text xml:space="preserve" text-anchor="start" x="8" y="-80.62" font-family="Helvetica,sans-Serif" font-size="10.00">kest_effect_profile</text>
<text xml:space="preserve" text-anchor="middle" x="53.38" y="-67.88" font-family="Helvetica,sans-Serif" font-size="10.00">_rep_update</text>
</a>
</g>
</g>
<!-- Node2 -->
<g id="Node000002" class="node">
<title>Node2</title>
<g id="a_Node000002"><a xlink:href="kest__files_8c.html#ab39f3c0d9f0a16ccb7d076a22fc4ca22" target="_top" xlink:title=" ">
<polygon fill="white" stroke="#666666" points="218.75,-87.75 142.75,-87.75 142.75,-67 218.75,-67 218.75,-87.75"/>
<text xml:space="preserve" text-anchor="middle" x="180.75" y="-74.25" font-family="Helvetica,sans-Serif" font-size="10.00">save_profile</text>
</a>
</g>
</g>
<!-- Node1&#45;&gt;Node2 -->
<g id="edge1_Node000001_Node000002" class="edge">
<title>Node1&#45;&gt;Node2</title>
<g id="a_edge1_Node000001_Node000002"><a xlink:title=" ">
<path fill="none" stroke="#63b8ff" d="M107.18,-77.38C115.19,-77.38 123.41,-77.38 131.31,-77.38"/>
<polygon fill="#63b8ff" stroke="#63b8ff" points="131.09,-80.88 141.09,-77.38 131.09,-73.88 131.09,-80.88"/>
</a>
</g>
</g>
<!-- Node3 -->
<g id="Node000003" class="node">
<title>Node3</title>
<g id="a_Node000003"><a xlink:href="kest__files_8c.html#ab79d861306c25eab9284239e73d0cc07" target="_top" xlink:title=" ">
<polygon fill="white" stroke="#666666" points="367.5,-149.75 255.5,-149.75 255.5,-129 367.5,-129 367.5,-149.75"/>
<text xml:space="preserve" text-anchor="middle" x="311.5" y="-136.25" font-family="Helvetica,sans-Serif" font-size="10.00">dump_file_contents</text>
</a>
</g>
</g>
<!-- Node2&#45;&gt;Node3 -->
<g id="edge2_Node000002_Node000003" class="edge">
<title>Node2&#45;&gt;Node3</title>
<g id="a_edge2_Node000002_Node000003"><a xlink:title=" ">
<path fill="none" stroke="#63b8ff" d="M198.4,-88.1C212.91,-97.16 234.71,-110.11 254.75,-119.38 258.57,-121.14 262.59,-122.85 266.65,-124.48"/>
<polygon fill="#63b8ff" stroke="#63b8ff" points="265.38,-127.75 275.97,-128.05 267.88,-121.21 265.38,-127.75"/>
</a>
</g>
</g>
<!-- Node4 -->
<g id="Node000004" class="node">
<title>Node4</title>
<g id="a_Node000004"><a xlink:href="kest__files_8c.html#aa81649890323b78baf99fbbad53ab5ff" target="_top" xlink:title=" ">
<polygon fill="white" stroke="#666666" points="365.62,-110.75 257.38,-110.75 257.38,-90 365.62,-90 365.62,-110.75"/>
<text xml:space="preserve" text-anchor="middle" x="311.5" y="-97.25" font-family="Helvetica,sans-Serif" font-size="10.00">generate_filename</text>
</a>
</g>
</g>
<!-- Node2&#45;&gt;Node4 -->
<g id="edge3_Node000002_Node000004" class="edge">
<title>Node2&#45;&gt;Node4</title>
<g id="a_edge3_Node000002_Node000004"><a xlink:title=" ">
<path fill="none" stroke="#63b8ff" d="M218.99,-84.03C227.44,-85.54 236.65,-87.18 245.87,-88.83"/>
<polygon fill="#63b8ff" stroke="#63b8ff" points="245.11,-92.25 255.57,-90.56 246.34,-85.36 245.11,-92.25"/>
</a>
</g>
</g>
<!-- Node5 -->
<g id="Node000005" class="node">
<title>Node5</title>
<g id="a_Node000005"><a xlink:href="kest__error__codes_8c.html#a0f4c77127bc0b77264a21104979c576a" target="_top" xlink:title=" ">
<polygon fill="white" stroke="#666666" points="365.62,-72.12 257.38,-72.12 257.38,-38.62 365.62,-38.62 365.62,-72.12"/>
<text xml:space="preserve" text-anchor="start" x="265.38" y="-58.62" font-family="Helvetica,sans-Serif" font-size="10.00">kest_error_code_to</text>
<text xml:space="preserve" text-anchor="middle" x="311.5" y="-45.88" font-family="Helvetica,sans-Serif" font-size="10.00">_string</text>
</a>
</g>
</g>
<!-- Node2&#45;&gt;Node5 -->
<g id="edge4_Node000002_Node000005" class="edge">
<title>Node2&#45;&gt;Node5</title>
<g id="a_edge4_Node000002_Node000005"><a xlink:title=" ">
<path fill="none" stroke="#63b8ff" d="M218.99,-71.01C227.44,-69.57 236.65,-67.99 245.87,-66.42"/>
<polygon fill="#63b8ff" stroke="#63b8ff" points="246.3,-69.9 255.57,-64.76 245.12,-63 246.3,-69.9"/>
</a>
</g>
</g>
<!-- Node6 -->
<g id="Node000006" class="node">
<title>Node6</title>
<g id="a_Node000006"><a xlink:href="kest__files_8c.html#acdd9a1fdb8fef8888d540a275ecfa86a" target="_top" xlink:title=" ">
<polygon fill="white" stroke="#666666" points="368.25,-20.75 254.75,-20.75 254.75,0 368.25,0 368.25,-20.75"/>
<text xml:space="preserve" text-anchor="middle" x="311.5" y="-7.25" font-family="Helvetica,sans-Serif" font-size="10.00">save_profile_as_file</text>
</a>
</g>
</g>
<!-- Node2&#45;&gt;Node6 -->
<g id="edge5_Node000002_Node000006" class="edge">
<title>Node2&#45;&gt;Node6</title>
<g id="a_edge5_Node000002_Node000006"><a xlink:title=" ">
<path fill="none" stroke="#63b8ff" d="M195.65,-66.69C209.89,-56.12 232.95,-40.04 254.75,-29.38 257.63,-27.96 260.65,-26.61 263.72,-25.33"/>
<polygon fill="#63b8ff" stroke="#63b8ff" points="264.81,-28.66 272.86,-21.78 262.27,-22.14 264.81,-28.66"/>
</a>
</g>
</g>
</g>
</svg>
