<?xml version="1.0" encoding="UTF-8" standalone="no"?>
<!DOCTYPE svg PUBLIC "-//W3C//DTD SVG 1.1//EN"
 "http://www.w3.org/Graphics/SVG/1.1/DTD/svg11.dtd">
<!-- Generated by graphviz version 13.1.2 (20250808.2320)
 -->
<!-- Title: kest_msc_button_cb Pages: 1 -->
<svg width="527pt" height="81pt"
 viewBox="0.00 0.00 527.00 81.00" xmlns="http://www.w3.org/2000/svg" xmlns:xlink="http://www.w3.org/1999/xlink">
<g id="graph0" class="graph" transform="scale(1 1) rotate(0) translate(4 77.07)">
<title>kest_msc_button_cb</title>
<!-- Node1 -->
<g id="Node000001" class="node">
<title>Node1</title>
<g id="a_Node000001"><a xlink:title=" ">
<polygon fill="#999999" stroke="#666666" points="115,-59.75 0,-59.75 0,-39 115,-39 115,-59.75"/>
<text xml:space="preserve" text-anchor="middle" x="57.5" y="-46.25" font-family="Helvetica,sans-Serif" font-size="10.00">kest_msc_button_cb</text>
</a>
</g>
</g>
<!-- Node2 -->
<g id="Node000002" class="node">
<title>Node2</title>
<g id="a_Node000002"><a xlink:href="kest__sd_8c.html#a75b4b8c75ccae759b6c3ebbc6209b5c4" target="_top" xlink:title=" ">
<polygon fill="white" stroke="#666666" points="265.25,-59.75 151,-59.75 151,-39 265.25,-39 265.25,-59.75"/>
<text xml:space="preserve" text-anchor="middle" x="208.12" y="-46.25" font-family="Helvetica,sans-Serif" font-size="10.00">kest_sd_toggle_msc</text>
</a>
</g>
</g>
<!-- Node1&#45;&gt;Node2 -->
<g id="edge1_Node000001_Node000002" class="edge">
<title>Node1&#45;&gt;Node2</title>
<g id="a_edge1_Node000001_Node000002"><a xlink:title=" ">
<path fill="none" stroke="#63b8ff" d="M115.11,-49.38C123.03,-49.38 131.23,-49.38 139.33,-49.38"/>
<polygon fill="#63b8ff" stroke="#63b8ff" points="139.16,-52.88 149.16,-49.38 139.16,-45.88 139.16,-52.88"/>
</a>
</g>
</g>
<!-- Node3 -->
<g id="Node000003" class="node">
<title>Node3</title>
<g id="a_Node000003"><a xlink:href="kest__printf_8c.html#a302714171dfa950e18d9a951bdab4105" target="_top" xlink:title=" ">
<polygon fill="white" stroke="#666666" points="519.25,-59.75 451.5,-59.75 451.5,-39 519.25,-39 519.25,-59.75"/>
<text xml:space="preserve" text-anchor="middle" x="485.38" y="-46.25" font-family="Helvetica,sans-Serif" font-size="10.00">kest_printf</text>
</a>
</g>
</g>
<!-- Node2&#45;&gt;Node3 -->
<g id="edge2_Node000002_Node000003" class="edge">
<title>Node2&#45;&gt;Node3</title>
<g id="a_edge2_Node000002_Node000003"><a xlink:title=" ">
<path fill="none" stroke="#63b8ff" d="M252.43,-60.2C267.74,-63.52 285.17,-66.73 301.25,-68.38 351.77,-73.53 365.18,-75.19 415.5,-68.38 423.96,-67.23 432.85,-65.33 441.33,-63.16"/>
<polygon fill="#63b8ff" stroke="#63b8ff" points="441.98,-66.6 450.71,-60.59 440.14,-59.85 441.98,-66.6"/>
</a>
</g>
</g>
<!-- Node4 -->
<g id="Node000004" class="node">
<title>Node4</title>
<g id="a_Node000004"><a xlink:href="kest__sd_8c.html#a062111f9ec26e5dc2f6ef9625805120d" target="_top" xlink:title=" ">
<polygon fill="white" stroke="#666666" points="415.5,-59.75 301.25,-59.75 301.25,-39 415.5,-39 415.5,-59.75"/>
<text xml:space="preserve" text-anchor="middle" x="358.38" y="-46.25" font-family="Helvetica,sans-Serif" font-size="10.00">kest_sd_mode_local</text>
</a>
</g>
</g>
<!-- Node2&#45;&gt;Node4 -->
<g id="edge3_Node000002_Node000004" class="edge">
<title>Node2&#45;&gt;Node4</title>
<g id="a_edge3_Node000002_Node000004"><a xlink:title=" ">
<path fill="none" stroke="#63b8ff" d="M265.59,-49.38C273.49,-49.38 281.67,-49.38 289.75,-49.38"/>
<polygon fill="#63b8ff" stroke="#63b8ff" points="289.55,-52.88 299.55,-49.38 289.55,-45.88 289.55,-52.88"/>
</a>
</g>
</g>
<!-- Node5 -->
<g id="Node000005" class="node">
<title>Node5</title>
<g id="a_Node000005"><a xlink:href="kest__sd_8c.html#a5b352e1ac18808ffdaf59355b80859fc" target="_top" xlink:title=" ">
<polygon fill="white" stroke="#666666" points="414,-20.75 302.75,-20.75 302.75,0 414,0 414,-20.75"/>
<text xml:space="preserve" text-anchor="middle" x="358.38" y="-7.25" font-family="Helvetica,sans-Serif" font-size="10.00">kest_sd_mode_msc</text>
</a>
</g>
</g>
<!-- Node2&#45;&gt;Node5 -->
<g id="edge5_Node000002_Node000005" class="edge">
<title>Node2&#45;&gt;Node5</title>
<g id="a_edge5_Node000002_Node000005"><a xlink:title=" ">
<path fill="none" stroke="#63b8ff" d="M250.42,-38.51C267.38,-34.05 287.21,-28.83 305.15,-24.11"/>
<polygon fill="#63b8ff" stroke="#63b8ff" points="305.8,-27.56 314.58,-21.63 304.02,-20.79 305.8,-27.56"/>
</a>
</g>
</g>
<!-- Node4&#45;&gt;Node3 -->
<g id="edge4_Node000004_Node000003" class="edge">
<title>Node4&#45;&gt;Node3</title>
<g id="a_edge4_Node000004_Node000003"><a xlink:title=" ">
<path fill="none" stroke="#63b8ff" d="M415.66,-49.38C423.75,-49.38 431.98,-49.38 439.8,-49.38"/>
<polygon fill="#63b8ff" stroke="#63b8ff" points="439.77,-52.88 449.77,-49.38 439.77,-45.88 439.77,-52.88"/>
</a>
</g>
</g>
<!-- Node5&#45;&gt;Node3 -->
<g id="edge6_Node000005_Node000003" class="edge">
<title>Node5&#45;&gt;Node3</title>
<g id="a_edge6_Node000005_Node000003"><a xlink:title=" ">
<path fill="none" stroke="#63b8ff" d="M394.19,-21.24C408.49,-25.7 425.22,-30.92 440.35,-35.64"/>
<polygon fill="#63b8ff" stroke="#63b8ff" points="439,-38.88 449.59,-38.52 441.09,-32.2 439,-38.88"/>
</a>
</g>
</g>
</g>
</svg>
