<?xml version="1.0" encoding="UTF-8" standalone="no"?>
<!DOCTYPE svg PUBLIC "-//W3C//DTD SVG 1.1//EN"
 "http://www.w3.org/Graphics/SVG/1.1/DTD/svg11.dtd">
<!-- Generated by graphviz version 13.1.2 (20250808.2320)
 -->
<!-- Title: clone_pipeline Pages: 1 -->
<svg width="509pt" height="275pt"
 viewBox="0.00 0.00 509.00 275.00" xmlns="http://www.w3.org/2000/svg" xmlns:xlink="http://www.w3.org/1999/xlink">
<g id="graph0" class="graph" transform="scale(1 1) rotate(0) translate(4 270.75)">
<title>clone_pipeline</title>
<!-- Node1 -->
<g id="Node000001" class="node">
<title>Node1</title>
<g id="a_Node000001"><a xlink:title=" ">
<polygon fill="#999999" stroke="#666666" points="86.5,-79.75 0,-79.75 0,-59 86.5,-59 86.5,-79.75"/>
<text xml:space="preserve" text-anchor="middle" x="43.25" y="-66.25" font-family="Helvetica,sans-Serif" font-size="10.00">clone_pipeline</text>
</a>
</g>
</g>
<!-- Node2 -->
<g id="Node000002" class="node">
<title>Node2</title>
<g id="a_Node000002"><a xlink:href="kest__effect_8c.html#a935977843051ad81db1a153f2956658e" target="_top" xlink:title=" ">
<polygon fill="white" stroke="#666666" points="198.5,-98.75 122.5,-98.75 122.5,-78 198.5,-78 198.5,-98.75"/>
<text xml:space="preserve" text-anchor="middle" x="160.5" y="-85.25" font-family="Helvetica,sans-Serif" font-size="10.00">clone_effect</text>
</a>
</g>
</g>
<!-- Node1&#45;&gt;Node2 -->
<g id="edge1_Node000001_Node000002" class="edge">
<title>Node1&#45;&gt;Node2</title>
<g id="a_edge1_Node000001_Node000002"><a xlink:title=" ">
<path fill="none" stroke="#63b8ff" d="M86.84,-76.4C94.68,-77.69 102.93,-79.05 110.93,-80.37"/>
<polygon fill="#63b8ff" stroke="#63b8ff" points="110.09,-83.78 120.53,-81.95 111.23,-76.87 110.09,-83.78"/>
</a>
</g>
</g>
<!-- Node8 -->
<g id="Node000008" class="node">
<title>Node8</title>
<g id="a_Node000008"><a xlink:href="kest__alloc_8c.html#a849755c5dc5b35e712ffcdb602e50fb4" target="_top" xlink:title=" ">
<polygon fill="white" stroke="#666666" points="480.25,-98.75 415.5,-98.75 415.5,-78 480.25,-78 480.25,-98.75"/>
<text xml:space="preserve" text-anchor="middle" x="447.88" y="-85.25" font-family="Helvetica,sans-Serif" font-size="10.00">kest_alloc</text>
</a>
</g>
</g>
<!-- Node1&#45;&gt;Node8 -->
<g id="edge18_Node000001_Node000008" class="edge">
<title>Node1&#45;&gt;Node8</title>
<g id="a_edge18_Node000001_Node000008"><a xlink:title=" ">
<path fill="none" stroke="#63b8ff" d="M86.84,-66.53C147.41,-63.13 261.8,-59.1 358.5,-69.38 373.52,-70.97 389.74,-74.05 404.14,-77.28"/>
<polygon fill="#63b8ff" stroke="#63b8ff" points="403.22,-80.66 413.76,-79.53 404.82,-73.84 403.22,-80.66"/>
</a>
</g>
</g>
<!-- Node3 -->
<g id="Node000003" class="node">
<title>Node3</title>
<g id="a_Node000003"><a xlink:href="kest__parameter_8c.html#a0557624c9a1b47f1ae42049322650a6e" target="_top" xlink:title=" ">
<polygon fill="white" stroke="#666666" points="337.12,-137.75 255.88,-137.75 255.88,-117 337.12,-117 337.12,-137.75"/>
<text xml:space="preserve" text-anchor="middle" x="296.5" y="-124.25" font-family="Helvetica,sans-Serif" font-size="10.00">clone_setting</text>
</a>
</g>
</g>
<!-- Node2&#45;&gt;Node3 -->
<g id="edge2_Node000002_Node000003" class="edge">
<title>Node2&#45;&gt;Node3</title>
<g id="a_edge2_Node000002_Node000003"><a xlink:title=" ">
<path fill="none" stroke="#63b8ff" d="M198.83,-99.24C213.93,-103.63 231.55,-108.76 247.58,-113.43"/>
<polygon fill="#63b8ff" stroke="#63b8ff" points="246.34,-116.71 256.92,-116.15 248.3,-109.99 246.34,-116.71"/>
</a>
</g>
</g>
<!-- Node9 -->
<g id="Node000009" class="node">
<title>Node9</title>
<g id="a_Node000009"><a xlink:href="kest__effect_8c.html#a8dc8fceab7f835d960ea95e4f21fe327" target="_top" xlink:title=" ">
<polygon fill="white" stroke="#666666" points="358.5,-22.75 234.5,-22.75 234.5,-2 358.5,-2 358.5,-22.75"/>
<text xml:space="preserve" text-anchor="middle" x="296.5" y="-9.25" font-family="Helvetica,sans-Serif" font-size="10.00">effect_add_parameter</text>
</a>
</g>
</g>
<!-- Node2&#45;&gt;Node9 -->
<g id="edge5_Node000002_Node000009" class="edge">
<title>Node2&#45;&gt;Node9</title>
<g id="a_edge5_Node000002_Node000009"><a xlink:title=" ">
<path fill="none" stroke="#63b8ff" d="M180.41,-77.65C202.96,-64.86 240.86,-43.36 266.97,-28.56"/>
<polygon fill="#63b8ff" stroke="#63b8ff" points="268.39,-31.77 275.36,-23.79 264.94,-25.68 268.39,-31.77"/>
</a>
</g>
</g>
<!-- Node13 -->
<g id="Node000013" class="node">
<title>Node13</title>
<g id="a_Node000013"><a xlink:href="kest__effect_8c.html#abf12c30daf8ca1ac113eca5f22723cf7" target="_top" xlink:title=" ">
<polygon fill="white" stroke="#666666" points="349.88,-98.75 243.12,-98.75 243.12,-78 349.88,-78 349.88,-98.75"/>
<text xml:space="preserve" text-anchor="middle" x="296.5" y="-85.25" font-family="Helvetica,sans-Serif" font-size="10.00">effect_add_setting</text>
</a>
</g>
</g>
<!-- Node2&#45;&gt;Node13 -->
<g id="edge9_Node000002_Node000013" class="edge">
<title>Node2&#45;&gt;Node13</title>
<g id="a_edge9_Node000002_Node000013"><a xlink:title=" ">
<path fill="none" stroke="#63b8ff" d="M198.83,-88.38C209.05,-88.38 220.43,-88.38 231.68,-88.38"/>
<polygon fill="#63b8ff" stroke="#63b8ff" points="231.34,-91.88 241.34,-88.38 231.34,-84.88 231.34,-91.88"/>
</a>
</g>
</g>
<!-- Node14 -->
<g id="Node000014" class="node">
<title>Node14</title>
<g id="a_Node000014"><a xlink:href="kest__effect_8c.html#a6d9927f6d82c964bd07bef5c77879010" target="_top" xlink:title=" ">
<polygon fill="white" stroke="#666666" points="329.25,-176.75 263.75,-176.75 263.75,-156 329.25,-156 329.25,-176.75"/>
<text xml:space="preserve" text-anchor="middle" x="296.5" y="-163.25" font-family="Helvetica,sans-Serif" font-size="10.00">init_effect</text>
</a>
</g>
</g>
<!-- Node2&#45;&gt;Node14 -->
<g id="edge13_Node000002_Node000014" class="edge">
<title>Node2&#45;&gt;Node14</title>
<g id="a_edge13_Node000002_Node000014"><a xlink:title=" ">
<path fill="none" stroke="#63b8ff" d="M172.48,-99.2C186.03,-112.03 210.27,-133.32 234.5,-146.38 240.22,-149.46 246.5,-152.17 252.78,-154.53"/>
<polygon fill="#63b8ff" stroke="#63b8ff" points="251.25,-157.7 261.84,-157.66 253.53,-151.08 251.25,-157.7"/>
</a>
</g>
</g>
<!-- Node4 -->
<g id="Node000004" class="node">
<title>Node4</title>
<g id="a_Node000004"><a xlink:href="kest__parameter_8c.html#a7c270a293ab879d0d3e757625c7c7dda" target="_top" xlink:title=" ">
<polygon fill="#fff0f0" stroke="red" points="492.25,-137.75 403.5,-137.75 403.5,-117 492.25,-117 492.25,-137.75"/>
<text xml:space="preserve" text-anchor="middle" x="447.88" y="-124.25" font-family="Helvetica,sans-Serif" font-size="10.00">init_setting_str</text>
</a>
</g>
</g>
<!-- Node3&#45;&gt;Node4 -->
<g id="edge3_Node000003_Node000004" class="edge">
<title>Node3&#45;&gt;Node4</title>
<g id="a_edge3_Node000003_Node000004"><a xlink:title=" ">
<path fill="none" stroke="#63b8ff" d="M337.53,-127.38C354.12,-127.38 373.64,-127.38 391.56,-127.38"/>
<polygon fill="#63b8ff" stroke="#63b8ff" points="391.54,-130.88 401.54,-127.38 391.54,-123.88 391.54,-130.88"/>
</a>
</g>
</g>
<!-- Node3&#45;&gt;Node8 -->
<g id="edge4_Node000003_Node000008" class="edge">
<title>Node3&#45;&gt;Node8</title>
<g id="a_edge4_Node000003_Node000008"><a xlink:title=" ">
<path fill="none" stroke="#63b8ff" d="M337.53,-116.92C358.19,-111.53 383.39,-104.95 404.39,-99.47"/>
<polygon fill="#63b8ff" stroke="#63b8ff" points="405,-102.93 413.79,-97.01 403.23,-96.15 405,-102.93"/>
</a>
</g>
</g>
<!-- Node9&#45;&gt;Node8 -->
<g id="edge7_Node000009_Node000008" class="edge">
<title>Node9&#45;&gt;Node8</title>
<g id="a_edge7_Node000009_Node000008"><a xlink:title=" ">
<path fill="none" stroke="#63b8ff" d="M331.12,-23.17C340.32,-26.76 350.06,-31.19 358.5,-36.38 376.74,-47.58 376.2,-57.26 394.5,-68.38 397.8,-70.38 401.34,-72.25 404.96,-73.96"/>
<polygon fill="#63b8ff" stroke="#63b8ff" points="403.3,-77.06 413.87,-77.82 406.08,-70.64 403.3,-77.06"/>
</a>
</g>
</g>
<!-- Node10 -->
<g id="Node000010" class="node">
<title>Node10</title>
<g id="a_Node000010"><a xlink:href="kest__parameter_8c.html#a41fafa04c21a8ab5916a8ceb5442d99a" target="_top" xlink:title=" ">
<polygon fill="#fff0f0" stroke="red" points="500.88,-20.75 394.88,-20.75 394.88,0 500.88,0 500.88,-20.75"/>
<text xml:space="preserve" text-anchor="middle" x="447.88" y="-7.25" font-family="Helvetica,sans-Serif" font-size="10.00">init_parameter_str</text>
</a>
</g>
</g>
<!-- Node9&#45;&gt;Node10 -->
<g id="edge6_Node000009_Node000010" class="edge">
<title>Node9&#45;&gt;Node10</title>
<g id="a_edge6_Node000009_Node000010"><a xlink:title=" ">
<path fill="none" stroke="#63b8ff" d="M358.69,-11.56C366.79,-11.45 375.12,-11.34 383.26,-11.23"/>
<polygon fill="#63b8ff" stroke="#63b8ff" points="383.15,-14.73 393.1,-11.09 383.06,-7.73 383.15,-14.73"/>
</a>
</g>
</g>
<!-- Node12 -->
<g id="Node000012" class="node">
<title>Node12</title>
<g id="a_Node000012"><a xlink:href="kest__alloc_8c.html#a294af5728a94aa316fcf65304d388d48" target="_top" xlink:title=" ">
<polygon fill="white" stroke="#666666" points="478.38,-59.75 417.38,-59.75 417.38,-39 478.38,-39 478.38,-59.75"/>
<text xml:space="preserve" text-anchor="middle" x="447.88" y="-46.25" font-family="Helvetica,sans-Serif" font-size="10.00">kest_free</text>
</a>
</g>
</g>
<!-- Node9&#45;&gt;Node12 -->
<g id="edge8_Node000009_Node000012" class="edge">
<title>Node9&#45;&gt;Node12</title>
<g id="a_edge8_Node000009_Node000012"><a xlink:title=" ">
<path fill="none" stroke="#63b8ff" d="M341.11,-23.18C361.65,-28.26 386,-34.3 406.16,-39.29"/>
<polygon fill="#63b8ff" stroke="#63b8ff" points="405.16,-42.65 415.71,-41.66 406.85,-35.85 405.16,-42.65"/>
</a>
</g>
</g>
<!-- Node13&#45;&gt;Node4 -->
<g id="edge10_Node000013_Node000004" class="edge">
<title>Node13&#45;&gt;Node4</title>
<g id="a_edge10_Node000013_Node000004"><a xlink:title=" ">
<path fill="none" stroke="#63b8ff" d="M339.11,-99.24C356.2,-103.7 376.18,-108.92 394.26,-113.64"/>
<polygon fill="#63b8ff" stroke="#63b8ff" points="393.21,-116.98 403.77,-116.12 394.97,-110.21 393.21,-116.98"/>
</a>
</g>
</g>
<!-- Node13&#45;&gt;Node8 -->
<g id="edge11_Node000013_Node000008" class="edge">
<title>Node13&#45;&gt;Node8</title>
<g id="a_edge11_Node000013_Node000008"><a xlink:title=" ">
<path fill="none" stroke="#63b8ff" d="M350.16,-88.38C367.77,-88.38 387.17,-88.38 403.95,-88.38"/>
<polygon fill="#63b8ff" stroke="#63b8ff" points="403.57,-91.88 413.57,-88.38 403.57,-84.88 403.57,-91.88"/>
</a>
</g>
</g>
<!-- Node13&#45;&gt;Node12 -->
<g id="edge12_Node000013_Node000012" class="edge">
<title>Node13&#45;&gt;Node12</title>
<g id="a_edge12_Node000013_Node000012"><a xlink:title=" ">
<path fill="none" stroke="#63b8ff" d="M339.11,-77.51C360.09,-72.03 385.43,-65.42 406.26,-59.98"/>
<polygon fill="#63b8ff" stroke="#63b8ff" points="407.06,-63.39 415.85,-57.47 405.29,-56.61 407.06,-63.39"/>
</a>
</g>
</g>
<!-- Node14&#45;&gt;Node8 -->
<g id="edge16_Node000014_Node000008" class="edge">
<title>Node14&#45;&gt;Node8</title>
<g id="a_edge16_Node000014_Node000008"><a xlink:title=" ">
<path fill="none" stroke="#63b8ff" d="M329.55,-159.12C339.3,-156.08 349.74,-151.92 358.5,-146.38 378.15,-133.93 375.15,-121.29 394.5,-108.38 397.71,-106.23 401.19,-104.27 404.77,-102.49"/>
<polygon fill="#63b8ff" stroke="#63b8ff" points="405.91,-105.81 413.62,-98.55 403.07,-99.41 405.91,-105.81"/>
</a>
</g>
</g>
<!-- Node15 -->
<g id="Node000015" class="node">
<title>Node15</title>
<g id="a_Node000015"><a xlink:href="kest__parameter_8c.html#a2b94ddb1588d1a5af4311970bb068122" target="_top" xlink:title=" ">
<polygon fill="#fff0f0" stroke="red" points="491.88,-176.75 403.88,-176.75 403.88,-156 491.88,-156 491.88,-176.75"/>
<text xml:space="preserve" text-anchor="middle" x="447.88" y="-163.25" font-family="Helvetica,sans-Serif" font-size="10.00">init_parameter</text>
</a>
</g>
</g>
<!-- Node14&#45;&gt;Node15 -->
<g id="edge14_Node000014_Node000015" class="edge">
<title>Node14&#45;&gt;Node15</title>
<g id="a_edge14_Node000014_Node000015"><a xlink:title=" ">
<path fill="none" stroke="#63b8ff" d="M329.54,-166.38C347.77,-166.38 371.1,-166.38 392.14,-166.38"/>
<polygon fill="#63b8ff" stroke="#63b8ff" points="392.03,-169.88 402.03,-166.38 392.03,-162.88 392.03,-169.88"/>
</a>
</g>
</g>
<!-- Node16 -->
<g id="Node000016" class="node">
<title>Node16</title>
<g id="a_Node000016"><a xlink:href="kest__parameter_8c.html#a62dd23a17e3d4ca94ec6a8ff311e8b94" target="_top" xlink:title=" ">
<polygon fill="#fff0f0" stroke="red" points="483.25,-266.75 412.5,-266.75 412.5,-246 483.25,-246 483.25,-266.75"/>
<text xml:space="preserve" text-anchor="middle" x="447.88" y="-253.25" font-family="Helvetica,sans-Serif" font-size="10.00">init_setting</text>
</a>
</g>
</g>
<!-- Node14&#45;&gt;Node16 -->
<g id="edge15_Node000014_Node000016" class="edge">
<title>Node14&#45;&gt;Node16</title>
<g id="a_edge15_Node000014_Node000016"><a xlink:title=" ">
<path fill="none" stroke="#63b8ff" d="M309.6,-177.01C327.25,-192.09 361.54,-219.8 394.5,-237.38 397,-238.71 399.62,-239.99 402.29,-241.2"/>
<polygon fill="#63b8ff" stroke="#63b8ff" points="400.76,-244.36 411.34,-245 403.47,-237.9 400.76,-244.36"/>
</a>
</g>
</g>
<!-- Node17 -->
<g id="Node000017" class="node">
<title>Node17</title>
<g id="a_Node000017"><a xlink:href="kest__effect_8c.html#abd8eb2f7c5fa3c26690cddd429257881" target="_top" xlink:title=" ">
<polygon fill="#fff0f0" stroke="red" points="501.25,-228.12 394.5,-228.12 394.5,-194.62 501.25,-194.62 501.25,-228.12"/>
<text xml:space="preserve" text-anchor="start" x="402.5" y="-214.62" font-family="Helvetica,sans-Serif" font-size="10.00">kest_effect_profile</text>
<text xml:space="preserve" text-anchor="middle" x="447.88" y="-201.88" font-family="Helvetica,sans-Serif" font-size="10.00">_rep_update</text>
</a>
</g>
</g>
<!-- Node14&#45;&gt;Node17 -->
<g id="edge17_Node000014_Node000017" class="edge">
<title>Node14&#45;&gt;Node17</title>
<g id="a_edge17_Node000014_Node000017"><a xlink:title=" ">
<path fill="none" stroke="#63b8ff" d="M329.54,-176.03C345.24,-180.76 364.71,-186.62 383.25,-192.21"/>
<polygon fill="#63b8ff" stroke="#63b8ff" points="381.99,-195.48 392.58,-195.02 384.01,-188.78 381.99,-195.48"/>
</a>
</g>
</g>
</g>
</svg>
