<?xml version="1.0" encoding="UTF-8" standalone="no"?>
<!DOCTYPE svg PUBLIC "-//W3C//DTD SVG 1.1//EN"
 "http://www.w3.org/Graphics/SVG/1.1/DTD/svg11.dtd">
<!-- Generated by graphviz version 13.1.2 (20250808.2320)
 -->
<!-- Title: kest_new_fpga_transfer_batch Pages: 1 -->
<svg width="642pt" height="131pt"
 viewBox="0.00 0.00 642.00 131.00" xmlns="http://www.w3.org/2000/svg" xmlns:xlink="http://www.w3.org/1999/xlink">
<g id="graph0" class="graph" transform="scale(1 1) rotate(0) translate(4 127.12)">
<title>kest_new_fpga_transfer_batch</title>
<!-- Node1 -->
<g id="Node000001" class="node">
<title>Node1</title>
<g id="a_Node000001"><a xlink:title=" ">
<polygon fill="#999999" stroke="#666666" points="634,-97.12 501.75,-97.12 501.75,-63.62 634,-63.62 634,-97.12"/>
<text xml:space="preserve" text-anchor="start" x="509.75" y="-83.62" font-family="Helvetica,sans-Serif" font-size="10.00">kest_new_fpga_transfer</text>
<text xml:space="preserve" text-anchor="middle" x="567.88" y="-70.88" font-family="Helvetica,sans-Serif" font-size="10.00">_batch</text>
</a>
</g>
</g>
<!-- Node2 -->
<g id="Node000002" class="node">
<title>Node2</title>
<g id="a_Node000002"><a xlink:href="kest__effect_8c.html#abce80b3222c75d4f721e59f856083682" target="_top" xlink:title=" ">
<polygon fill="white" stroke="#666666" points="460.88,-123.12 351.88,-123.12 351.88,-89.62 460.88,-89.62 460.88,-123.12"/>
<text xml:space="preserve" text-anchor="start" x="359.88" y="-109.62" font-family="Helvetica,sans-Serif" font-size="10.00">kest_effect_update</text>
<text xml:space="preserve" text-anchor="middle" x="406.38" y="-96.88" font-family="Helvetica,sans-Serif" font-size="10.00">_fpga_registers</text>
</a>
</g>
</g>
<!-- Node1&#45;&gt;Node2 -->
<g id="edge1_Node000001_Node000002" class="edge">
<title>Node1&#45;&gt;Node2</title>
<g id="a_edge1_Node000001_Node000002"><a xlink:title=" ">
<path fill="none" stroke="#63b8ff" d="M490.44,-92.84C480.55,-94.45 470.59,-96.07 461.18,-97.6"/>
<polygon fill="#63b8ff" stroke="#63b8ff" points="490.74,-96.33 500.05,-91.27 489.61,-89.42 490.74,-96.33"/>
</a>
</g>
</g>
<!-- Node3 -->
<g id="Node000003" class="node">
<title>Node3</title>
<g id="a_Node000003"><a xlink:href="kest__pipeline_8c.html#a7bb8f92d379766cce5cdc4b68d11818f" target="_top" xlink:title=" ">
<polygon fill="white" stroke="#666666" points="465.75,-71.12 347,-71.12 347,-37.62 465.75,-37.62 465.75,-71.12"/>
<text xml:space="preserve" text-anchor="start" x="355" y="-57.62" font-family="Helvetica,sans-Serif" font-size="10.00">kest_pipeline_create</text>
<text xml:space="preserve" text-anchor="middle" x="406.38" y="-44.88" font-family="Helvetica,sans-Serif" font-size="10.00">_fpga_transfer_batch</text>
</a>
</g>
</g>
<!-- Node1&#45;&gt;Node3 -->
<g id="edge2_Node000001_Node000003" class="edge">
<title>Node1&#45;&gt;Node3</title>
<g id="a_edge2_Node000001_Node000003"><a xlink:title=" ">
<path fill="none" stroke="#63b8ff" d="M490.2,-67.88C482.13,-66.56 474.03,-65.24 466.21,-63.97"/>
<polygon fill="#63b8ff" stroke="#63b8ff" points="489.61,-71.33 500.05,-69.48 490.74,-64.42 489.61,-71.33"/>
</a>
</g>
</g>
<!-- Node4 -->
<g id="Node000004" class="node">
<title>Node4</title>
<g id="a_Node000004"><a xlink:href="kest__profile_8c.html#afe7f8217b8c26744e19d7e503e2289a5" target="_top" xlink:title=" ">
<polygon fill="white" stroke="#666666" points="297.12,-94.12 178.38,-94.12 178.38,-60.62 297.12,-60.62 297.12,-94.12"/>
<text xml:space="preserve" text-anchor="start" x="186.38" y="-80.62" font-family="Helvetica,sans-Serif" font-size="10.00">kest_profile_create</text>
<text xml:space="preserve" text-anchor="middle" x="237.75" y="-67.88" font-family="Helvetica,sans-Serif" font-size="10.00">_fpga_transfer_batch</text>
</a>
</g>
</g>
<!-- Node3&#45;&gt;Node4 -->
<g id="edge3_Node000003_Node000004" class="edge">
<title>Node3&#45;&gt;Node4</title>
<g id="a_edge3_Node000003_Node000004"><a xlink:title=" ">
<path fill="none" stroke="#63b8ff" d="M335.25,-64.06C322.69,-65.79 309.72,-67.58 297.53,-69.26"/>
<polygon fill="#63b8ff" stroke="#63b8ff" points="335.7,-67.53 345.13,-62.69 334.75,-60.59 335.7,-67.53"/>
</a>
</g>
</g>
<!-- Node5 -->
<g id="Node000005" class="node">
<title>Node5</title>
<g id="a_Node000005"><a xlink:href="kest__profile_8c.html#a23cd63c025729fe28dbd76f64ce43f0d" target="_top" xlink:title=" ">
<polygon fill="white" stroke="#666666" points="311,-42.75 164.5,-42.75 164.5,-22 311,-22 311,-42.75"/>
<text xml:space="preserve" text-anchor="middle" x="237.75" y="-29.25" font-family="Helvetica,sans-Serif" font-size="10.00">kest_profile_program_fpga</text>
</a>
</g>
</g>
<!-- Node3&#45;&gt;Node5 -->
<g id="edge4_Node000003_Node000005" class="edge">
<title>Node3&#45;&gt;Node5</title>
<g id="a_edge4_Node000003_Node000005"><a xlink:title=" ">
<path fill="none" stroke="#63b8ff" d="M335.47,-45.15C327.47,-44.09 319.31,-43.01 311.28,-41.95"/>
<polygon fill="#63b8ff" stroke="#63b8ff" points="334.76,-48.58 345.13,-46.42 335.67,-41.64 334.76,-48.58"/>
</a>
</g>
</g>
<!-- Node6 -->
<g id="Node000006" class="node">
<title>Node6</title>
<g id="a_Node000006"><a xlink:href="kest__profile_8c.html#a1943b8bd24ec344d5f80fcb7fb4ca297" target="_top" xlink:title=" ">
<polygon fill="#fff0f0" stroke="red" points="124.38,-72.12 4.12,-72.12 4.12,-38.62 124.38,-38.62 124.38,-72.12"/>
<text xml:space="preserve" text-anchor="start" x="12.12" y="-58.62" font-family="Helvetica,sans-Serif" font-size="10.00">kest_profile_if_active</text>
<text xml:space="preserve" text-anchor="middle" x="64.25" y="-45.88" font-family="Helvetica,sans-Serif" font-size="10.00">_update_fpga</text>
</a>
</g>
</g>
<!-- Node5&#45;&gt;Node6 -->
<g id="edge5_Node000005_Node000006" class="edge">
<title>Node5&#45;&gt;Node6</title>
<g id="a_edge5_Node000005_Node000006"><a xlink:title=" ">
<path fill="none" stroke="#63b8ff" d="M152.62,-43.66C143.25,-44.91 133.85,-46.18 124.87,-47.38"/>
<polygon fill="#63b8ff" stroke="#63b8ff" points="153.07,-47.13 162.52,-42.33 152.14,-40.19 153.07,-47.13"/>
</a>
</g>
</g>
<!-- Node43 -->
<g id="Node000043" class="node">
<title>Node43</title>
<g id="a_Node000043"><a xlink:href="kest__profile_8c.html#a9103db076a4ce8ae9b06c8e30480cbe3" target="_top" xlink:title=" ">
<polygon fill="#fff0f0" stroke="red" points="128.5,-20.75 0,-20.75 0,0 128.5,0 128.5,-20.75"/>
<text xml:space="preserve" text-anchor="middle" x="64.25" y="-7.25" font-family="Helvetica,sans-Serif" font-size="10.00">kest_profile_set_active</text>
</a>
</g>
</g>
<!-- Node5&#45;&gt;Node43 -->
<g id="edge6_Node000005_Node000043" class="edge">
<title>Node5&#45;&gt;Node43</title>
<g id="a_edge6_Node000005_Node000043"><a xlink:title=" ">
<path fill="none" stroke="#63b8ff" d="M152.72,-21.6C144.69,-20.57 136.65,-19.53 128.87,-18.54"/>
<polygon fill="#63b8ff" stroke="#63b8ff" points="152.15,-25.05 162.52,-22.85 153.04,-18.11 152.15,-25.05"/>
</a>
</g>
</g>
</g>
</svg>
