<?xml version="1.0" encoding="UTF-8" standalone="no"?>
<!DOCTYPE svg PUBLIC "-//W3C//DTD SVG 1.1//EN"
 "http://www.w3.org/Graphics/SVG/1.1/DTD/svg11.dtd">
<!-- Generated by graphviz version 13.1.2 (20250808.2320)
 -->
<!-- Title: init_setting_str Pages: 1 -->
<svg width="572pt" height="42pt"
 viewBox="0.00 0.00 572.00 42.00" xmlns="http://www.w3.org/2000/svg" xmlns:xlink="http://www.w3.org/1999/xlink">
<g id="graph0" class="graph" transform="scale(1 1) rotate(0) translate(4 37.5)">
<title>init_setting_str</title>
<!-- Node1 -->
<g id="Node000001" class="node">
<title>Node1</title>
<g id="a_Node000001"><a xlink:title=" ">
<polygon fill="#999999" stroke="#666666" points="88.75,-27.12 0,-27.12 0,-6.38 88.75,-6.38 88.75,-27.12"/>
<text xml:space="preserve" text-anchor="middle" x="44.38" y="-13.62" font-family="Helvetica,sans-Serif" font-size="10.00">init_setting_str</text>
</a>
</g>
</g>
<!-- Node2 -->
<g id="Node000002" class="node">
<title>Node2</title>
<g id="a_Node000002"><a xlink:href="kest__parameter_8c.html#a3c9f839cffc5f0a9b0630682ce8e9b9c" target="_top" xlink:title=" ">
<polygon fill="white" stroke="#666666" points="233.75,-33.5 124.75,-33.5 124.75,0 233.75,0 233.75,-33.5"/>
<text xml:space="preserve" text-anchor="start" x="132.75" y="-20" font-family="Helvetica,sans-Serif" font-size="10.00">kest_setting_effect</text>
<text xml:space="preserve" text-anchor="middle" x="179.25" y="-7.25" font-family="Helvetica,sans-Serif" font-size="10.00">_rep_update</text>
</a>
</g>
</g>
<!-- Node1&#45;&gt;Node2 -->
<g id="edge1_Node000001_Node000002" class="edge">
<title>Node1&#45;&gt;Node2</title>
<g id="a_edge1_Node000001_Node000002"><a xlink:title=" ">
<path fill="none" stroke="#63b8ff" d="M88.88,-16.75C96.6,-16.75 104.79,-16.75 112.95,-16.75"/>
<polygon fill="#63b8ff" stroke="#63b8ff" points="112.91,-20.25 122.91,-16.75 112.91,-13.25 112.91,-20.25"/>
</a>
</g>
</g>
<!-- Node3 -->
<g id="Node000003" class="node">
<title>Node3</title>
<g id="a_Node000003"><a xlink:href="kest__effect_8c.html#afdbf79f9f27eac4959dfcf7bbcb324d4" target="_top" xlink:title=" ">
<polygon fill="white" stroke="#666666" points="405,-27.12 269.75,-27.12 269.75,-6.38 405,-6.38 405,-27.12"/>
<text xml:space="preserve" text-anchor="middle" x="337.38" y="-13.62" font-family="Helvetica,sans-Serif" font-size="10.00">kest_effect_update_reps</text>
</a>
</g>
</g>
<!-- Node2&#45;&gt;Node3 -->
<g id="edge2_Node000002_Node000003" class="edge">
<title>Node2&#45;&gt;Node3</title>
<g id="a_edge2_Node000002_Node000003"><a xlink:title=" ">
<path fill="none" stroke="#63b8ff" d="M233.98,-16.75C241.71,-16.75 249.8,-16.75 257.9,-16.75"/>
<polygon fill="#63b8ff" stroke="#63b8ff" points="257.79,-20.25 267.79,-16.75 257.79,-13.25 257.79,-20.25"/>
</a>
</g>
</g>
<!-- Node4 -->
<g id="Node000004" class="node">
<title>Node4</title>
<g id="a_Node000004"><a xlink:href="kest__representation_8c.html#a7a4a0f32b72f47d90e3d0f5932fbe58f" target="_top" xlink:title=" ">
<polygon fill="white" stroke="#666666" points="563.5,-33.5 441,-33.5 441,0 563.5,0 563.5,-33.5"/>
<text xml:space="preserve" text-anchor="start" x="449" y="-20" font-family="Helvetica,sans-Serif" font-size="10.00">queue_representation</text>
<text xml:space="preserve" text-anchor="middle" x="502.25" y="-7.25" font-family="Helvetica,sans-Serif" font-size="10.00">_list_update</text>
</a>
</g>
</g>
<!-- Node3&#45;&gt;Node4 -->
<g id="edge3_Node000003_Node000004" class="edge">
<title>Node3&#45;&gt;Node4</title>
<g id="a_edge3_Node000003_Node000004"><a xlink:title=" ">
<path fill="none" stroke="#63b8ff" d="M405.09,-16.75C413.09,-16.75 421.29,-16.75 429.36,-16.75"/>
<polygon fill="#63b8ff" stroke="#63b8ff" points="429.14,-20.25 439.14,-16.75 429.14,-13.25 429.14,-20.25"/>
</a>
</g>
</g>
</g>
</svg>
