<?xml version="1.0" encoding="UTF-8" standalone="no"?>
<!DOCTYPE svg PUBLIC "-//W3C//DTD SVG 1.1//EN"
 "http://www.w3.org/Graphics/SVG/1.1/DTD/svg11.dtd">
<!-- Generated by graphviz version 13.1.2 (20250808.2320)
 -->
<!-- Title: kest_dictionary_section_lookup_int Pages: 1 -->
<svg width="650pt" height="42pt"
 viewBox="0.00 0.00 650.00 42.00" xmlns="http://www.w3.org/2000/svg" xmlns:xlink="http://www.w3.org/1999/xlink">
<g id="graph0" class="graph" transform="scale(1 1) rotate(0) translate(4 37.5)">
<title>kest_dictionary_section_lookup_int</title>
<!-- Node1 -->
<g id="Node000001" class="node">
<title>Node1</title>
<g id="a_Node000001"><a xlink:title=" ">
<polygon fill="#999999" stroke="#666666" points="130.75,-33.5 0,-33.5 0,0 130.75,0 130.75,-33.5"/>
<text xml:space="preserve" text-anchor="start" x="8" y="-20" font-family="Helvetica,sans-Serif" font-size="10.00">kest_dictionary_section</text>
<text xml:space="preserve" text-anchor="middle" x="65.38" y="-7.25" font-family="Helvetica,sans-Serif" font-size="10.00">_lookup_int</text>
</a>
</g>
</g>
<!-- Node2 -->
<g id="Node000002" class="node">
<title>Node2</title>
<g id="a_Node000002"><a xlink:href="kest__dictionary_8c.html#a1ded333d233d7d29ca2bdfccdb651b68" target="_top" xlink:title=" ">
<polygon fill="white" stroke="#666666" points="313.25,-27.12 166.75,-27.12 166.75,-6.38 313.25,-6.38 313.25,-27.12"/>
<text xml:space="preserve" text-anchor="middle" x="240" y="-13.62" font-family="Helvetica,sans-Serif" font-size="10.00">kest_dictionary_lookup_int</text>
</a>
</g>
</g>
<!-- Node1&#45;&gt;Node2 -->
<g id="edge1_Node000001_Node000002" class="edge">
<title>Node1&#45;&gt;Node2</title>
<g id="a_edge1_Node000001_Node000002"><a xlink:title=" ">
<path fill="none" stroke="#63b8ff" d="M131.15,-16.75C138.95,-16.75 147,-16.75 155.03,-16.75"/>
<polygon fill="#63b8ff" stroke="#63b8ff" points="154.82,-20.25 164.82,-16.75 154.82,-13.25 154.82,-20.25"/>
</a>
</g>
</g>
<!-- Node3 -->
<g id="Node000003" class="node">
<title>Node3</title>
<g id="a_Node000003"><a xlink:href="kest__dictionary_8c.html#ac32514fb9876c48a7b489fa4686fbdbd" target="_top" xlink:title=" ">
<polygon fill="white" stroke="#666666" points="477.75,-27.12 349.25,-27.12 349.25,-6.38 477.75,-6.38 477.75,-27.12"/>
<text xml:space="preserve" text-anchor="middle" x="413.5" y="-13.62" font-family="Helvetica,sans-Serif" font-size="10.00">kest_dictionary_lookup</text>
</a>
</g>
</g>
<!-- Node2&#45;&gt;Node3 -->
<g id="edge2_Node000002_Node000003" class="edge">
<title>Node2&#45;&gt;Node3</title>
<g id="a_edge2_Node000002_Node000003"><a xlink:title=" ">
<path fill="none" stroke="#63b8ff" d="M313.73,-16.75C321.58,-16.75 329.58,-16.75 337.46,-16.75"/>
<polygon fill="#63b8ff" stroke="#63b8ff" points="337.37,-20.25 347.37,-16.75 337.37,-13.25 337.37,-20.25"/>
</a>
</g>
</g>
<!-- Node4 -->
<g id="Node000004" class="node">
<title>Node4</title>
<g id="a_Node000004"><a xlink:href="kest__dictionary_8c.html#aed95d5d56052a9f450a8fca4a415cb1e" target="_top" xlink:title=" ">
<polygon fill="white" stroke="#666666" points="641.5,-33.5 513.75,-33.5 513.75,0 641.5,0 641.5,-33.5"/>
<text xml:space="preserve" text-anchor="start" x="521.75" y="-20" font-family="Helvetica,sans-Serif" font-size="10.00">kest_dictionary_bucket</text>
<text xml:space="preserve" text-anchor="middle" x="577.62" y="-7.25" font-family="Helvetica,sans-Serif" font-size="10.00">_lookup</text>
</a>
</g>
</g>
<!-- Node3&#45;&gt;Node4 -->
<g id="edge3_Node000003_Node000004" class="edge">
<title>Node3&#45;&gt;Node4</title>
<g id="a_edge3_Node000003_Node000004"><a xlink:title=" ">
<path fill="none" stroke="#63b8ff" d="M478.11,-16.75C486.01,-16.75 494.14,-16.75 502.18,-16.75"/>
<polygon fill="#63b8ff" stroke="#63b8ff" points="501.95,-20.25 511.95,-16.75 501.95,-13.25 501.95,-20.25"/>
</a>
</g>
</g>
</g>
</svg>
