<?xml version="1.0" encoding="UTF-8" standalone="no"?>
<!DOCTYPE svg PUBLIC "-//W3C//DTD SVG 1.1//EN"
 "http://www.w3.org/Graphics/SVG/1.1/DTD/svg11.dtd">
<!-- Generated by graphviz version 13.1.2 (20250808.2320)
 -->
<!-- Title: kest_button_delete_ui Pages: 1 -->
<svg width="623pt" height="53pt"
 viewBox="0.00 0.00 623.00 53.00" xmlns="http://www.w3.org/2000/svg" xmlns:xlink="http://www.w3.org/1999/xlink">
<g id="graph0" class="graph" transform="scale(1 1) rotate(0) translate(4 49.12)">
<title>kest_button_delete_ui</title>
<!-- Node1 -->
<g id="Node000001" class="node">
<title>Node1</title>
<g id="a_Node000001"><a xlink:title=" ">
<polygon fill="#999999" stroke="#666666" points="615.25,-27.12 492,-27.12 492,-6.38 615.25,-6.38 615.25,-27.12"/>
<text xml:space="preserve" text-anchor="middle" x="553.62" y="-13.62" font-family="Helvetica,sans-Serif" font-size="10.00">kest_button_delete_ui</text>
</a>
</g>
</g>
<!-- Node1&#45;&gt;Node1 -->
<g id="edge4_Node000001_Node000001" class="edge">
<title>Node1&#45;&gt;Node1</title>
<g id="a_edge4_Node000001_Node000001"><a xlink:title=" ">
<path fill="none" stroke="#63b8ff" d="M582.51,-38.61C578.68,-42.45 569.05,-45.12 553.62,-45.12 525.42,-45.12 516.6,-36.18 527.18,-27.52"/>
<polygon fill="#63b8ff" stroke="#63b8ff" points="585.96,-38.02 580.4,-29 579.12,-39.52 585.96,-38.02"/>
</a>
</g>
</g>
<!-- Node2 -->
<g id="Node000002" class="node">
<title>Node2</title>
<g id="a_Node000002"><a xlink:href="kest__button_8c.html#aceb82072ec06c6a63805432216adb376" target="_top" xlink:title=" ">
<polygon fill="white" stroke="#666666" points="456,-27.12 323,-27.12 323,-6.38 456,-6.38 456,-27.12"/>
<text xml:space="preserve" text-anchor="middle" x="389.5" y="-13.62" font-family="Helvetica,sans-Serif" font-size="10.00">kest_active_button_free</text>
</a>
</g>
</g>
<!-- Node1&#45;&gt;Node2 -->
<g id="edge1_Node000001_Node000002" class="edge">
<title>Node1&#45;&gt;Node2</title>
<g id="a_edge1_Node000001_Node000002"><a xlink:title=" ">
<path fill="none" stroke="#63b8ff" d="M480.51,-16.75C472.45,-16.75 464.26,-16.75 456.29,-16.75"/>
<polygon fill="#63b8ff" stroke="#63b8ff" points="480.28,-20.25 490.28,-16.75 480.28,-13.25 480.28,-20.25"/>
</a>
</g>
</g>
<!-- Node3 -->
<g id="Node000003" class="node">
<title>Node3</title>
<g id="a_Node000003"><a xlink:href="kest__button_8c.html#a843f20f7c8521fa0694f8cf2622afa96" target="_top" xlink:title=" ">
<polygon fill="white" stroke="#666666" points="287,-33.5 155.5,-33.5 155.5,0 287,0 287,-33.5"/>
<text xml:space="preserve" text-anchor="start" x="163.5" y="-20" font-family="Helvetica,sans-Serif" font-size="10.00">kest_active_button</text>
<text xml:space="preserve" text-anchor="middle" x="221.25" y="-7.25" font-family="Helvetica,sans-Serif" font-size="10.00">_delete_anim_ready_cb</text>
</a>
</g>
</g>
<!-- Node2&#45;&gt;Node3 -->
<g id="edge2_Node000002_Node000003" class="edge">
<title>Node2&#45;&gt;Node3</title>
<g id="a_edge2_Node000002_Node000003"><a xlink:title=" ">
<path fill="none" stroke="#63b8ff" d="M311.52,-16.75C303.48,-16.75 295.37,-16.75 287.48,-16.75"/>
<polygon fill="#63b8ff" stroke="#63b8ff" points="311.28,-20.25 321.28,-16.75 311.28,-13.25 311.28,-20.25"/>
</a>
</g>
</g>
<!-- Node4 -->
<g id="Node000004" class="node">
<title>Node4</title>
<g id="a_Node000004"><a xlink:href="kest__button_8c.html#a8f08189afc112ca297cd7718f2978258" target="_top" xlink:title=" ">
<polygon fill="#fff0f0" stroke="red" points="119.5,-33.5 0,-33.5 0,0 119.5,0 119.5,-33.5"/>
<text xml:space="preserve" text-anchor="start" x="8" y="-20" font-family="Helvetica,sans-Serif" font-size="10.00">kest_active_button</text>
<text xml:space="preserve" text-anchor="middle" x="59.75" y="-7.25" font-family="Helvetica,sans-Serif" font-size="10.00">_trigger_delete_anim</text>
</a>
</g>
</g>
<!-- Node3&#45;&gt;Node4 -->
<g id="edge3_Node000003_Node000004" class="edge">
<title>Node3&#45;&gt;Node4</title>
<g id="a_edge3_Node000003_Node000004"><a xlink:title=" ">
<path fill="none" stroke="#63b8ff" d="M144,-16.75C135.91,-16.75 127.77,-16.75 119.92,-16.75"/>
<polygon fill="#63b8ff" stroke="#63b8ff" points="143.86,-20.25 153.86,-16.75 143.86,-13.25 143.86,-20.25"/>
</a>
</g>
</g>
</g>
</svg>
