<?xml version="1.0" encoding="UTF-8" standalone="no"?>
<!DOCTYPE svg PUBLIC "-//W3C//DTD SVG 1.1//EN"
 "http://www.w3.org/Graphics/SVG/1.1/DTD/svg11.dtd">
<!-- Generated by graphviz version 13.1.2 (20250808.2320)
 -->
<!-- Title: init_main_menu Pages: 1 -->
<svg width="787pt" height="762pt"
 viewBox="0.00 0.00 787.00 762.00" xmlns="http://www.w3.org/2000/svg" xmlns:xlink="http://www.w3.org/1999/xlink">
<g id="graph0" class="graph" transform="scale(1 1) rotate(0) translate(4 757.5)">
<title>init_main_menu</title>
<!-- Node1 -->
<g id="Node000001" class="node">
<title>Node1</title>
<g id="a_Node000001"><a xlink:title=" ">
<polygon fill="#999999" stroke="#666666" points="94.75,-120.12 0,-120.12 0,-99.38 94.75,-99.38 94.75,-120.12"/>
<text xml:space="preserve" text-anchor="middle" x="47.38" y="-106.62" font-family="Helvetica,sans-Serif" font-size="10.00">init_main_menu</text>
</a>
</g>
</g>
<!-- Node2 -->
<g id="Node000002" class="node">
<title>Node2</title>
<g id="a_Node000002"><a xlink:href="kest__menu_8c.html#a86c6c0acd2dfb8a62bd96bbfd739e687" target="_top" xlink:title=" ">
<polygon fill="white" stroke="#666666" points="255.5,-496.12 130.75,-496.12 130.75,-475.38 255.5,-475.38 255.5,-496.12"/>
<text xml:space="preserve" text-anchor="middle" x="193.12" y="-482.62" font-family="Helvetica,sans-Serif" font-size="10.00">configure_main_menu</text>
</a>
</g>
</g>
<!-- Node1&#45;&gt;Node2 -->
<g id="edge1_Node000001_Node000002" class="edge">
<title>Node1&#45;&gt;Node2</title>
<g id="a_edge1_Node000001_Node000002"><a xlink:title=" ">
<path fill="none" stroke="#63b8ff" d="M52.52,-120.6C72.32,-172.39 157.38,-394.86 184.07,-464.69"/>
<polygon fill="#63b8ff" stroke="#63b8ff" points="180.72,-465.71 187.56,-473.8 187.26,-463.21 180.72,-465.71"/>
</a>
</g>
</g>
<!-- Node35 -->
<g id="Node000035" class="node">
<title>Node35</title>
<g id="a_Node000035"><a xlink:href="kest__menu_8c.html#ad08fcb7356b59af639c394da31d8f446" target="_top" xlink:title=" ">
<polygon fill="white" stroke="#666666" points="255.12,-140.12 131.12,-140.12 131.12,-119.38 255.12,-119.38 255.12,-140.12"/>
<text xml:space="preserve" text-anchor="middle" x="193.12" y="-126.62" font-family="Helvetica,sans-Serif" font-size="10.00">create_main_menu_ui</text>
</a>
</g>
</g>
<!-- Node1&#45;&gt;Node35 -->
<g id="edge25_Node000001_Node000035" class="edge">
<title>Node1&#45;&gt;Node35</title>
<g id="a_edge25_Node000001_Node000035"><a xlink:title=" ">
<path fill="none" stroke="#63b8ff" d="M95.05,-116.24C102.88,-117.33 111.17,-118.49 119.48,-119.64"/>
<polygon fill="#63b8ff" stroke="#63b8ff" points="118.88,-123.09 129.27,-121.01 119.85,-116.16 118.88,-123.09"/>
</a>
</g>
</g>
<!-- Node56 -->
<g id="Node000056" class="node">
<title>Node56</title>
<g id="a_Node000056"><a xlink:href="kest__menu_8c.html#ad39524fe8d62cff7c8e4c1d041b0dd61" target="_top" xlink:title=" ">
<polygon fill="white" stroke="#666666" points="245.38,-101.12 140.88,-101.12 140.88,-80.38 245.38,-80.38 245.38,-101.12"/>
<text xml:space="preserve" text-anchor="middle" x="193.12" y="-87.62" font-family="Helvetica,sans-Serif" font-size="10.00">enter_main_menu</text>
</a>
</g>
</g>
<!-- Node1&#45;&gt;Node56 -->
<g id="edge39_Node000001_Node000056" class="edge">
<title>Node1&#45;&gt;Node56</title>
<g id="a_edge39_Node000001_Node000056"><a xlink:title=" ">
<path fill="none" stroke="#63b8ff" d="M95.05,-103.58C105.93,-102.14 117.7,-100.59 129.15,-99.07"/>
<polygon fill="#63b8ff" stroke="#63b8ff" points="129.51,-102.56 138.97,-97.78 128.59,-95.62 129.51,-102.56"/>
</a>
</g>
</g>
<!-- Node57 -->
<g id="Node000057" class="node">
<title>Node57</title>
<g id="a_Node000057"><a xlink:href="kest__ui_8c.html#aa35b25eb0a8f315343a7ea5190b0163b" target="_top" xlink:title=" ">
<polygon fill="white" stroke="#666666" points="230.75,-62.12 155.5,-62.12 155.5,-41.38 230.75,-41.38 230.75,-62.12"/>
<text xml:space="preserve" text-anchor="middle" x="193.12" y="-48.62" font-family="Helvetica,sans-Serif" font-size="10.00">init_ui_page</text>
</a>
</g>
</g>
<!-- Node1&#45;&gt;Node57 -->
<g id="edge40_Node000001_Node000057" class="edge">
<title>Node1&#45;&gt;Node57</title>
<g id="a_edge40_Node000001_Node000057"><a xlink:title=" ">
<path fill="none" stroke="#63b8ff" d="M70.1,-98.88C86.54,-90.86 109.78,-79.97 130.75,-71.75 135.64,-69.83 140.81,-67.94 145.97,-66.14"/>
<polygon fill="#63b8ff" stroke="#63b8ff" points="146.72,-69.59 155.06,-63.06 144.47,-62.96 146.72,-69.59"/>
</a>
</g>
</g>
<!-- Node3 -->
<g id="Node000003" class="node">
<title>Node3</title>
<g id="a_Node000003"><a xlink:href="kest__button_8c.html#aa59f296fa9f9744c9753f81484085a15" target="_top" xlink:title=" ">
<polygon fill="white" stroke="#666666" points="625.75,-420.12 502.5,-420.12 502.5,-399.38 625.75,-399.38 625.75,-420.12"/>
<text xml:space="preserve" text-anchor="middle" x="564.12" y="-406.62" font-family="Helvetica,sans-Serif" font-size="10.00">button_set_clicked_cb</text>
</a>
</g>
</g>
<!-- Node2&#45;&gt;Node3 -->
<g id="edge2_Node000002_Node000003" class="edge">
<title>Node2&#45;&gt;Node3</title>
<g id="a_edge2_Node000002_Node000003"><a xlink:title=" ">
<path fill="none" stroke="#63b8ff" d="M207.67,-475.05C225.65,-461.53 258.93,-438.81 291.5,-428.75 356.89,-408.54 435.19,-405.12 490.89,-405.95"/>
<polygon fill="#63b8ff" stroke="#63b8ff" points="490.48,-409.44 500.55,-406.15 490.63,-402.44 490.48,-409.44"/>
</a>
</g>
</g>
<!-- Node4 -->
<g id="Node000004" class="node">
<title>Node4</title>
<g id="a_Node000004"><a xlink:href="kest__parameter__widget_8c.html#a3af686d17ed62653e1dd680cd85a2d6f" target="_top" xlink:title=" ">
<polygon fill="white" stroke="#666666" points="428.25,-624.5 310.25,-624.5 310.25,-591 428.25,-591 428.25,-624.5"/>
<text xml:space="preserve" text-anchor="start" x="318.25" y="-611" font-family="Helvetica,sans-Serif" font-size="10.00">configure_parameter</text>
<text xml:space="preserve" text-anchor="middle" x="369.25" y="-598.25" font-family="Helvetica,sans-Serif" font-size="10.00">_widget</text>
</a>
</g>
</g>
<!-- Node2&#45;&gt;Node4 -->
<g id="edge3_Node000002_Node000004" class="edge">
<title>Node2&#45;&gt;Node4</title>
<g id="a_edge3_Node000002_Node000004"><a xlink:title=" ">
<path fill="none" stroke="#63b8ff" d="M202.31,-496.57C217.7,-516.23 252.9,-557.96 291.5,-581.75 294.1,-583.36 296.82,-584.88 299.61,-586.31"/>
<polygon fill="#63b8ff" stroke="#63b8ff" points="298.06,-589.45 308.6,-590.53 301.03,-583.11 298.06,-589.45"/>
</a>
</g>
</g>
<!-- Node6 -->
<g id="Node000006" class="node">
<title>Node6</title>
<g id="a_Node000006"><a xlink:href="kest__ui_8c.html#a8c61274edfd5c1adb98471432976c3b6" target="_top" xlink:title=" ">
<polygon fill="white" stroke="#666666" points="444,-573.12 294.5,-573.12 294.5,-552.38 444,-552.38 444,-573.12"/>
<text xml:space="preserve" text-anchor="middle" x="369.25" y="-559.62" font-family="Helvetica,sans-Serif" font-size="10.00">enter_ui_page_forwards_cb</text>
</a>
</g>
</g>
<!-- Node2&#45;&gt;Node6 -->
<g id="edge5_Node000002_Node000006" class="edge">
<title>Node2&#45;&gt;Node6</title>
<g id="a_edge5_Node000002_Node000006"><a xlink:title=" ">
<path fill="none" stroke="#63b8ff" d="M209.29,-496.42C227.88,-509.06 260.73,-530.02 291.5,-542.75 296.69,-544.9 302.18,-546.87 307.74,-548.67"/>
<polygon fill="#63b8ff" stroke="#63b8ff" points="306.43,-551.93 317.01,-551.47 308.45,-545.23 306.43,-551.93"/>
</a>
</g>
</g>
<!-- Node10 -->
<g id="Node000010" class="node">
<title>Node10</title>
<g id="a_Node000010"><a xlink:href="kest__files_8c.html#a88e5ec05cd213e80c50f0279cdb3ca9c" target="_top" xlink:title=" ">
<polygon fill="white" stroke="#666666" points="433.5,-458.12 305,-458.12 305,-437.38 433.5,-437.38 433.5,-458.12"/>
<text xml:space="preserve" text-anchor="middle" x="369.25" y="-444.62" font-family="Helvetica,sans-Serif" font-size="10.00">erase_sd_card_void_cb</text>
</a>
</g>
</g>
<!-- Node2&#45;&gt;Node10 -->
<g id="edge7_Node000002_Node000010" class="edge">
<title>Node2&#45;&gt;Node10</title>
<g id="a_edge7_Node000002_Node000010"><a xlink:title=" ">
<path fill="none" stroke="#63b8ff" d="M243.56,-474.96C263.5,-470.61 286.71,-465.55 307.65,-460.97"/>
<polygon fill="#63b8ff" stroke="#63b8ff" points="308.19,-464.44 317.22,-458.89 306.7,-457.6 308.19,-464.44"/>
</a>
</g>
</g>
<!-- Node15 -->
<g id="Node000015" class="node">
<title>Node15</title>
<g id="a_Node000015"><a xlink:href="kest__button_8c.html#a20604a0eb74819a9747753ccfdb24e6c" target="_top" xlink:title=" ">
<polygon fill="white" stroke="#666666" points="598.38,-330.12 529.88,-330.12 529.88,-309.38 598.38,-309.38 598.38,-330.12"/>
<text xml:space="preserve" text-anchor="middle" x="564.12" y="-316.62" font-family="Helvetica,sans-Serif" font-size="10.00">init_button</text>
</a>
</g>
</g>
<!-- Node2&#45;&gt;Node15 -->
<g id="edge9_Node000002_Node000015" class="edge">
<title>Node2&#45;&gt;Node15</title>
<g id="a_edge9_Node000002_Node000015"><a xlink:title=" ">
<path fill="none" stroke="#63b8ff" d="M198.31,-475.17C209.2,-449.19 241.13,-382.26 291.5,-352.75 328.91,-330.84 451.07,-323.4 518.1,-320.93"/>
<polygon fill="#63b8ff" stroke="#63b8ff" points="518.16,-324.43 528.04,-320.59 517.92,-317.43 518.16,-324.43"/>
</a>
</g>
</g>
<!-- Node16 -->
<g id="Node000016" class="node">
<title>Node16</title>
<g id="a_Node000016"><a xlink:href="kest__button_8c.html#a382c34bb14e1a864798fce1072a1e876" target="_top" xlink:title=" ">
<polygon fill="white" stroke="#666666" points="423,-382.12 315.5,-382.12 315.5,-361.38 423,-361.38 423,-382.12"/>
<text xml:space="preserve" text-anchor="middle" x="369.25" y="-368.62" font-family="Helvetica,sans-Serif" font-size="10.00">init_danger_button</text>
</a>
</g>
</g>
<!-- Node2&#45;&gt;Node16 -->
<g id="edge10_Node000002_Node000016" class="edge">
<title>Node2&#45;&gt;Node16</title>
<g id="a_edge10_Node000002_Node000016"><a xlink:title=" ">
<path fill="none" stroke="#63b8ff" d="M202.9,-474.96C218.71,-456.21 253.84,-417.54 291.5,-395.75 297.83,-392.09 304.79,-388.92 311.85,-386.19"/>
<polygon fill="#63b8ff" stroke="#63b8ff" points="312.53,-389.67 320.78,-383.02 310.18,-383.07 312.53,-389.67"/>
</a>
</g>
</g>
<!-- Node13 -->
<g id="Node000013" class="node">
<title>Node13</title>
<g id="a_Node000013"><a xlink:href="kest__alloc_8c.html#a849755c5dc5b35e712ffcdb602e50fb4" target="_top" xlink:title=" ">
<polygon fill="white" stroke="#666666" points="596.5,-498.12 531.75,-498.12 531.75,-477.38 596.5,-477.38 596.5,-498.12"/>
<text xml:space="preserve" text-anchor="middle" x="564.12" y="-484.62" font-family="Helvetica,sans-Serif" font-size="10.00">kest_alloc</text>
</a>
</g>
</g>
<!-- Node2&#45;&gt;Node13 -->
<g id="edge14_Node000002_Node000013" class="edge">
<title>Node2&#45;&gt;Node13</title>
<g id="a_edge14_Node000002_Node000013"><a xlink:title=" ">
<path fill="none" stroke="#63b8ff" d="M255.89,-486.08C330.63,-486.49 454.57,-487.16 519.85,-487.52"/>
<polygon fill="#63b8ff" stroke="#63b8ff" points="519.79,-491.02 529.81,-487.57 519.83,-484.02 519.79,-491.02"/>
</a>
</g>
</g>
<!-- Node20 -->
<g id="Node000020" class="node">
<title>Node20</title>
<g id="a_Node000020"><a xlink:href="kest__button_8c.html#ab0abd81c81d95b73284ecfadc708b8ce" target="_top" xlink:title=" ">
<polygon fill="white" stroke="#666666" points="426,-305.5 312.5,-305.5 312.5,-272 426,-272 426,-305.5"/>
<text xml:space="preserve" text-anchor="start" x="320.5" y="-292" font-family="Helvetica,sans-Serif" font-size="10.00">kest_button_disable</text>
<text xml:space="preserve" text-anchor="middle" x="369.25" y="-279.25" font-family="Helvetica,sans-Serif" font-size="10.00">_alignment</text>
</a>
</g>
</g>
<!-- Node2&#45;&gt;Node20 -->
<g id="edge15_Node000002_Node000020" class="edge">
<title>Node2&#45;&gt;Node20</title>
<g id="a_edge15_Node000002_Node000020"><a xlink:title=" ">
<path fill="none" stroke="#63b8ff" d="M197.56,-475.22C207.49,-446.36 238.89,-365.16 291.5,-319.75 295.05,-316.69 298.94,-313.9 303.03,-311.37"/>
<polygon fill="#63b8ff" stroke="#63b8ff" points="304.48,-314.57 311.53,-306.66 301.09,-308.44 304.48,-314.57"/>
</a>
</g>
</g>
<!-- Node21 -->
<g id="Node000021" class="node">
<title>Node21</title>
<g id="a_Node000021"><a xlink:href="kest__button_8c.html#ac24f7930db96a5006a81ec8255ad0e6c" target="_top" xlink:title=" ">
<polygon fill="white" stroke="#666666" points="430.5,-744.12 308,-744.12 308,-723.38 430.5,-723.38 430.5,-744.12"/>
<text xml:space="preserve" text-anchor="middle" x="369.25" y="-730.62" font-family="Helvetica,sans-Serif" font-size="10.00">kest_button_set_label</text>
</a>
</g>
</g>
<!-- Node2&#45;&gt;Node21 -->
<g id="edge16_Node000002_Node000021" class="edge">
<title>Node2&#45;&gt;Node21</title>
<g id="a_edge16_Node000002_Node000021"><a xlink:title=" ">
<path fill="none" stroke="#63b8ff" d="M195.56,-496.54C200.91,-532.57 223.11,-649.94 291.5,-710.75 294.45,-713.37 297.68,-715.69 301.11,-717.75"/>
<polygon fill="#63b8ff" stroke="#63b8ff" points="299.33,-720.77 309.83,-722.19 302.51,-714.54 299.33,-720.77"/>
</a>
</g>
</g>
<!-- Node23 -->
<g id="Node000023" class="node">
<title>Node23</title>
<g id="a_Node000023"><a xlink:href="kest__menu_8c.html#a3eb9105417c06419b54fee6e3f79b39a" target="_top" xlink:title=" ">
<polygon fill="white" stroke="#666666" points="426.75,-702.12 311.75,-702.12 311.75,-681.38 426.75,-681.38 426.75,-702.12"/>
<text xml:space="preserve" text-anchor="middle" x="369.25" y="-688.62" font-family="Helvetica,sans-Serif" font-size="10.00">kest_msc_button_cb</text>
</a>
</g>
</g>
<!-- Node2&#45;&gt;Node23 -->
<g id="edge18_Node000002_Node000023" class="edge">
<title>Node2&#45;&gt;Node23</title>
<g id="a_edge18_Node000002_Node000023"><a xlink:title=" ">
<path fill="none" stroke="#63b8ff" d="M196.51,-496.53C204.19,-528.57 231.3,-623.89 291.5,-671.75 294.56,-674.18 297.88,-676.32 301.37,-678.2"/>
<polygon fill="#63b8ff" stroke="#63b8ff" points="299.64,-681.26 310.19,-682.21 302.54,-674.88 299.64,-681.26"/>
</a>
</g>
</g>
<!-- Node28 -->
<g id="Node000028" class="node">
<title>Node28</title>
<g id="a_Node000028"><a xlink:href="kest__ui_8c.html#a01360963fabe989a816b58c78cbc041b" target="_top" xlink:title=" ">
<polygon fill="white" stroke="#666666" points="403.5,-534.12 335,-534.12 335,-513.38 403.5,-513.38 403.5,-534.12"/>
<text xml:space="preserve" text-anchor="middle" x="369.25" y="-520.62" font-family="Helvetica,sans-Serif" font-size="10.00">new_panel</text>
</a>
</g>
</g>
<!-- Node2&#45;&gt;Node28 -->
<g id="edge20_Node000002_Node000028" class="edge">
<title>Node2&#45;&gt;Node28</title>
<g id="a_edge20_Node000002_Node000028"><a xlink:title=" ">
<path fill="none" stroke="#63b8ff" d="M243.56,-496.54C268.73,-502.03 299.1,-508.66 323.56,-514"/>
<polygon fill="#63b8ff" stroke="#63b8ff" points="322.7,-517.39 333.22,-516.1 324.19,-510.55 322.7,-517.39"/>
</a>
</g>
</g>
<!-- Node30 -->
<g id="Node000030" class="node">
<title>Node30</title>
<g id="a_Node000030"><a xlink:href="kest__parameter__widget_8c.html#a89863fab24827de020d29878a86c1b60" target="_top" xlink:title=" ">
<polygon fill="white" stroke="#666666" points="439.88,-663.12 298.62,-663.12 298.62,-642.38 439.88,-642.38 439.88,-663.12"/>
<text xml:space="preserve" text-anchor="middle" x="369.25" y="-649.62" font-family="Helvetica,sans-Serif" font-size="10.00">nullify_parameter_widget</text>
</a>
</g>
</g>
<!-- Node2&#45;&gt;Node30 -->
<g id="edge23_Node000002_Node000030" class="edge">
<title>Node2&#45;&gt;Node30</title>
<g id="a_edge23_Node000002_Node000030"><a xlink:title=" ">
<path fill="none" stroke="#63b8ff" d="M197.9,-496.29C208.24,-523.62 239.78,-597.15 291.5,-633.75 293.08,-634.87 294.72,-635.92 296.4,-636.91"/>
<polygon fill="#63b8ff" stroke="#63b8ff" points="294.63,-639.94 305.14,-641.26 297.75,-633.67 294.63,-639.94"/>
</a>
</g>
</g>
<!-- Node5 -->
<g id="Node000005" class="node">
<title>Node5</title>
<g id="a_Node000005"><a xlink:href="kest__hfunc_8c.html#a840904866becc1161859f30852e94595" target="_top" xlink:title=" ">
<polygon fill="white" stroke="#666666" points="602.5,-618.12 525.75,-618.12 525.75,-597.38 602.5,-597.38 602.5,-618.12"/>
<text xml:space="preserve" text-anchor="middle" x="564.12" y="-604.62" font-family="Helvetica,sans-Serif" font-size="10.00">format_float</text>
</a>
</g>
</g>
<!-- Node4&#45;&gt;Node5 -->
<g id="edge4_Node000004_Node000005" class="edge">
<title>Node4&#45;&gt;Node5</title>
<g id="a_edge4_Node000004_Node000005"><a xlink:title=" ">
<path fill="none" stroke="#63b8ff" d="M428.64,-607.75C455.85,-607.75 487.88,-607.75 513.85,-607.75"/>
<polygon fill="#63b8ff" stroke="#63b8ff" points="513.8,-611.25 523.8,-607.75 513.8,-604.25 513.8,-611.25"/>
</a>
</g>
</g>
<!-- Node7 -->
<g id="Node000007" class="node">
<title>Node7</title>
<g id="a_Node000007"><a xlink:href="kest__ui_8c.html#a2063cd4687cffa16c46c43deaa27642f" target="_top" xlink:title=" ">
<polygon fill="#fff0f0" stroke="red" points="630.62,-576.12 497.62,-576.12 497.62,-555.38 630.62,-555.38 630.62,-576.12"/>
<text xml:space="preserve" text-anchor="middle" x="564.12" y="-562.62" font-family="Helvetica,sans-Serif" font-size="10.00">enter_ui_page_forwards</text>
</a>
</g>
</g>
<!-- Node6&#45;&gt;Node7 -->
<g id="edge6_Node000006_Node000007" class="edge">
<title>Node6&#45;&gt;Node7</title>
<g id="a_edge6_Node000006_Node000007"><a xlink:title=" ">
<path fill="none" stroke="#63b8ff" d="M444.27,-563.9C457.88,-564.11 472.12,-564.33 485.83,-564.55"/>
<polygon fill="#63b8ff" stroke="#63b8ff" points="485.62,-568.04 495.67,-564.7 485.73,-561.05 485.62,-568.04"/>
</a>
</g>
</g>
<!-- Node11 -->
<g id="Node000011" class="node">
<title>Node11</title>
<g id="a_Node000011"><a xlink:href="kest__files_8c.html#ae0b903c442a7fc4a90097e958e31d485" target="_top" xlink:title=" ">
<polygon fill="#fff0f0" stroke="red" points="607,-459.12 521.25,-459.12 521.25,-438.38 607,-438.38 607,-459.12"/>
<text xml:space="preserve" text-anchor="middle" x="564.12" y="-445.62" font-family="Helvetica,sans-Serif" font-size="10.00">erase_sd_card</text>
</a>
</g>
</g>
<!-- Node10&#45;&gt;Node11 -->
<g id="edge8_Node000010_Node000011" class="edge">
<title>Node10&#45;&gt;Node11</title>
<g id="a_edge8_Node000010_Node000011"><a xlink:title=" ">
<path fill="none" stroke="#63b8ff" d="M433.94,-448.08C458.34,-448.21 485.93,-448.35 509.32,-448.47"/>
<polygon fill="#63b8ff" stroke="#63b8ff" points="509.25,-451.97 519.27,-448.52 509.28,-444.97 509.25,-451.97"/>
</a>
</g>
</g>
<!-- Node16&#45;&gt;Node3 -->
<g id="edge11_Node000016_Node000003" class="edge">
<title>Node16&#45;&gt;Node3</title>
<g id="a_edge11_Node000016_Node000003"><a xlink:title=" ">
<path fill="none" stroke="#63b8ff" d="M423.46,-382.23C446.18,-386.71 472.93,-391.98 496.91,-396.7"/>
<polygon fill="#63b8ff" stroke="#63b8ff" points="496.1,-400.11 506.58,-398.61 497.45,-393.24 496.1,-400.11"/>
</a>
</g>
</g>
<!-- Node16&#45;&gt;Node15 -->
<g id="edge12_Node000016_Node000015" class="edge">
<title>Node16&#45;&gt;Node15</title>
<g id="a_edge12_Node000016_Node000015"><a xlink:title=" ">
<path fill="none" stroke="#63b8ff" d="M405.16,-361.02C427.37,-354.33 456.78,-345.69 483,-338.75 494.4,-335.73 506.78,-332.69 518.31,-329.94"/>
<polygon fill="#63b8ff" stroke="#63b8ff" points="519.09,-333.35 528.03,-327.66 517.49,-326.54 519.09,-333.35"/>
</a>
</g>
</g>
<!-- Node17 -->
<g id="Node000017" class="node">
<title>Node17</title>
<g id="a_Node000017"><a xlink:href="kest__button_8c.html#ac7690c73fda7b52f35a47cb3c8b8e9cb" target="_top" xlink:title=" ">
<polygon fill="#fff0f0" stroke="red" points="620.5,-381.5 507.75,-381.5 507.75,-348 620.5,-348 620.5,-381.5"/>
<text xml:space="preserve" text-anchor="start" x="515.75" y="-368" font-family="Helvetica,sans-Serif" font-size="10.00">kest_danger_button</text>
<text xml:space="preserve" text-anchor="middle" x="564.12" y="-355.25" font-family="Helvetica,sans-Serif" font-size="10.00">_activate_popup_cb</text>
</a>
</g>
</g>
<!-- Node16&#45;&gt;Node17 -->
<g id="edge13_Node000016_Node000017" class="edge">
<title>Node16&#45;&gt;Node17</title>
<g id="a_edge13_Node000016_Node000017"><a xlink:title=" ">
<path fill="none" stroke="#63b8ff" d="M423.46,-369.82C445.89,-369 472.24,-368.05 495.98,-367.19"/>
<polygon fill="#63b8ff" stroke="#63b8ff" points="496.01,-370.69 505.88,-366.83 495.76,-363.69 496.01,-370.69"/>
</a>
</g>
</g>
<!-- Node22 -->
<g id="Node000022" class="node">
<title>Node22</title>
<g id="a_Node000022"><a xlink:href="kest__button_8c.html#a56b5c7012f627d4d3f454029e26f1bef" target="_top" xlink:title=" ">
<polygon fill="white" stroke="#666666" points="618.62,-753.5 509.62,-753.5 509.62,-720 618.62,-720 618.62,-753.5"/>
<text xml:space="preserve" text-anchor="start" x="517.62" y="-740" font-family="Helvetica,sans-Serif" font-size="10.00">kest_button_create</text>
<text xml:space="preserve" text-anchor="middle" x="564.12" y="-727.25" font-family="Helvetica,sans-Serif" font-size="10.00">_label_ui</text>
</a>
</g>
</g>
<!-- Node21&#45;&gt;Node22 -->
<g id="edge17_Node000021_Node000022" class="edge">
<title>Node21&#45;&gt;Node22</title>
<g id="a_edge17_Node000021_Node000022"><a xlink:title=" ">
<path fill="none" stroke="#63b8ff" d="M430.75,-734.69C452.1,-735.02 476.19,-735.4 497.92,-735.74"/>
<polygon fill="#63b8ff" stroke="#63b8ff" points="497.8,-739.23 507.86,-735.89 497.91,-732.24 497.8,-739.23"/>
</a>
</g>
</g>
<!-- Node24 -->
<g id="Node000024" class="node">
<title>Node24</title>
<g id="a_Node000024"><a xlink:href="kest__sd_8c.html#a75b4b8c75ccae759b6c3ebbc6209b5c4" target="_top" xlink:title=" ">
<polygon fill="#fff0f0" stroke="red" points="621.25,-702.12 507,-702.12 507,-681.38 621.25,-681.38 621.25,-702.12"/>
<text xml:space="preserve" text-anchor="middle" x="564.12" y="-688.62" font-family="Helvetica,sans-Serif" font-size="10.00">kest_sd_toggle_msc</text>
</a>
</g>
</g>
<!-- Node23&#45;&gt;Node24 -->
<g id="edge19_Node000023_Node000024" class="edge">
<title>Node23&#45;&gt;Node24</title>
<g id="a_edge19_Node000023_Node000024"><a xlink:title=" ">
<path fill="none" stroke="#63b8ff" d="M427.08,-691.75C448.46,-691.75 472.99,-691.75 495.28,-691.75"/>
<polygon fill="#63b8ff" stroke="#63b8ff" points="495.19,-695.25 505.19,-691.75 495.19,-688.25 495.19,-695.25"/>
</a>
</g>
</g>
<!-- Node28&#45;&gt;Node13 -->
<g id="edge22_Node000028_Node000013" class="edge">
<title>Node28&#45;&gt;Node13</title>
<g id="a_edge22_Node000028_Node000013"><a xlink:title=" ">
<path fill="none" stroke="#63b8ff" d="M403.85,-517.48C436.28,-511.43 485.5,-502.24 520.64,-495.68"/>
<polygon fill="#63b8ff" stroke="#63b8ff" points="520.84,-499.2 530.02,-493.93 519.55,-492.32 520.84,-499.2"/>
</a>
</g>
</g>
<!-- Node29 -->
<g id="Node000029" class="node">
<title>Node29</title>
<g id="a_Node000029"><a xlink:href="kest__ui_8c.html#a574d886c7fb2ce9bcf04b4a1e94576ac" target="_top" xlink:title=" ">
<polygon fill="white" stroke="#666666" points="596.12,-537.12 532.12,-537.12 532.12,-516.38 596.12,-516.38 596.12,-537.12"/>
<text xml:space="preserve" text-anchor="middle" x="564.12" y="-523.62" font-family="Helvetica,sans-Serif" font-size="10.00">init_panel</text>
</a>
</g>
</g>
<!-- Node28&#45;&gt;Node29 -->
<g id="edge21_Node000028_Node000029" class="edge">
<title>Node28&#45;&gt;Node29</title>
<g id="a_edge21_Node000028_Node000029"><a xlink:title=" ">
<path fill="none" stroke="#63b8ff" d="M403.85,-524.27C436.23,-524.78 485.37,-525.54 520.5,-526.09"/>
<polygon fill="#63b8ff" stroke="#63b8ff" points="520.26,-529.58 530.31,-526.24 520.37,-522.58 520.26,-529.58"/>
</a>
</g>
</g>
<!-- Node31 -->
<g id="Node000031" class="node">
<title>Node31</title>
<g id="a_Node000031"><a xlink:href="kest__parameter__widget_8c.html#a1590cd4e080ed869e0372fef1a233085" target="_top" xlink:title=" ">
<polygon fill="#fff0f0" stroke="red" points="637,-663.12 491.25,-663.12 491.25,-642.38 637,-642.38 637,-663.12"/>
<text xml:space="preserve" text-anchor="middle" x="564.12" y="-649.62" font-family="Helvetica,sans-Serif" font-size="10.00">param_widget_rep_update</text>
</a>
</g>
</g>
<!-- Node30&#45;&gt;Node31 -->
<g id="edge24_Node000030_Node000031" class="edge">
<title>Node30&#45;&gt;Node31</title>
<g id="a_edge24_Node000030_Node000031"><a xlink:title=" ">
<path fill="none" stroke="#63b8ff" d="M440.16,-652.75C452.91,-652.75 466.34,-652.75 479.45,-652.75"/>
<polygon fill="#63b8ff" stroke="#63b8ff" points="479.35,-656.25 489.35,-652.75 479.35,-649.25 479.35,-656.25"/>
</a>
</g>
</g>
<!-- Node36 -->
<g id="Node000036" class="node">
<title>Node36</title>
<g id="a_Node000036"><a xlink:href="kest__button_8c.html#a42c4bb920da57000dbde4fa1fa26868c" target="_top" xlink:title=" ">
<polygon fill="white" stroke="#666666" points="779,-156.12 681.25,-156.12 681.25,-135.38 779,-135.38 779,-156.12"/>
<text xml:space="preserve" text-anchor="middle" x="730.12" y="-142.62" font-family="Helvetica,sans-Serif" font-size="10.00">create_button_ui</text>
</a>
</g>
</g>
<!-- Node35&#45;&gt;Node36 -->
<g id="edge26_Node000035_Node000036" class="edge">
<title>Node35&#45;&gt;Node36</title>
<g id="a_edge26_Node000035_Node000036"><a xlink:title=" ">
<path fill="none" stroke="#63b8ff" d="M244.43,-118.9C345.99,-97.87 572.11,-55.73 645.25,-80.75 671.87,-89.86 696.58,-111.23 712.18,-126.99"/>
<polygon fill="#63b8ff" stroke="#63b8ff" points="709.39,-129.14 718.83,-133.97 714.46,-124.31 709.39,-129.14"/>
</a>
</g>
</g>
<!-- Node37 -->
<g id="Node000037" class="node">
<title>Node37</title>
<g id="a_Node000037"><a xlink:href="kest__button_8c.html#ae6551220e84fc3c185f77c594bf7b3ca" target="_top" xlink:title=" ">
<polygon fill="white" stroke="#666666" points="425.25,-33.5 313.25,-33.5 313.25,0 425.25,0 425.25,-33.5"/>
<text xml:space="preserve" text-anchor="start" x="321.25" y="-20" font-family="Helvetica,sans-Serif" font-size="10.00">kest_danger_button</text>
<text xml:space="preserve" text-anchor="middle" x="369.25" y="-7.25" font-family="Helvetica,sans-Serif" font-size="10.00">_create_ui</text>
</a>
</g>
</g>
<!-- Node35&#45;&gt;Node37 -->
<g id="edge28_Node000035_Node000037" class="edge">
<title>Node35&#45;&gt;Node37</title>
<g id="a_edge28_Node000035_Node000037"><a xlink:title=" ">
<path fill="none" stroke="#63b8ff" d="M239.98,-119.01C245.54,-116.53 250.88,-113.48 255.5,-109.75 280.28,-89.72 267.43,-68.62 291.5,-47.75 295.04,-44.68 298.93,-41.89 303.01,-39.35"/>
<polygon fill="#63b8ff" stroke="#63b8ff" points="304.47,-42.55 311.51,-34.63 301.07,-36.43 304.47,-42.55"/>
</a>
</g>
</g>
<!-- Node38 -->
<g id="Node000038" class="node">
<title>Node38</title>
<g id="a_Node000038"><a xlink:href="kest__parameter__widget_8c.html#adbadb9573fa4f9b812f8d270c78053e4" target="_top" xlink:title=" ">
<polygon fill="white" stroke="#666666" points="447,-140.12 291.5,-140.12 291.5,-119.38 447,-119.38 447,-140.12"/>
<text xml:space="preserve" text-anchor="middle" x="369.25" y="-126.62" font-family="Helvetica,sans-Serif" font-size="10.00">parameter_widget_create_ui</text>
</a>
</g>
</g>
<!-- Node35&#45;&gt;Node38 -->
<g id="edge30_Node000035_Node000038" class="edge">
<title>Node35&#45;&gt;Node38</title>
<g id="a_edge30_Node000035_Node000038"><a xlink:title=" ">
<path fill="none" stroke="#63b8ff" d="M255.51,-129.75C263.46,-129.75 271.71,-129.75 279.99,-129.75"/>
<polygon fill="#63b8ff" stroke="#63b8ff" points="279.73,-133.25 289.73,-129.75 279.73,-126.25 279.73,-133.25"/>
</a>
</g>
</g>
<!-- Node45 -->
<g id="Node000045" class="node">
<title>Node45</title>
<g id="a_Node000045"><a xlink:href="kest__ui_8c.html#a58a68a436917a32cc3daab2e0d4b3245" target="_top" xlink:title=" ">
<polygon fill="white" stroke="#666666" points="435.75,-220.12 302.75,-220.12 302.75,-199.38 435.75,-199.38 435.75,-220.12"/>
<text xml:space="preserve" text-anchor="middle" x="369.25" y="-206.62" font-family="Helvetica,sans-Serif" font-size="10.00">ui_page_create_base_ui</text>
</a>
</g>
</g>
<!-- Node35&#45;&gt;Node45 -->
<g id="edge33_Node000035_Node000045" class="edge">
<title>Node35&#45;&gt;Node45</title>
<g id="a_edge33_Node000035_Node000045"><a xlink:title=" ">
<path fill="none" stroke="#63b8ff" d="M217.61,-140.54C247.73,-154.38 300.16,-178.47 334.54,-194.26"/>
<polygon fill="#63b8ff" stroke="#63b8ff" points="332.66,-197.25 343.21,-198.24 335.58,-190.89 332.66,-197.25"/>
</a>
</g>
</g>
<!-- Node36&#45;&gt;Node36 -->
<g id="edge27_Node000036_Node000036" class="edge">
<title>Node36&#45;&gt;Node36</title>
<g id="a_edge27_Node000036_Node000036"><a xlink:title=" ">
<path fill="none" stroke="#63b8ff" d="M703.38,-156.52C692.68,-165.18 701.59,-174.12 730.12,-174.12 745.73,-174.12 755.46,-171.45 759.33,-167.61"/>
<polygon fill="#63b8ff" stroke="#63b8ff" points="762.79,-167 757.2,-158 755.95,-168.52 762.79,-167"/>
</a>
</g>
</g>
<!-- Node37&#45;&gt;Node36 -->
<g id="edge29_Node000037_Node000036" class="edge">
<title>Node37&#45;&gt;Node36</title>
<g id="a_edge29_Node000037_Node000036"><a xlink:title=" ">
<path fill="none" stroke="#63b8ff" d="M425.63,-11.51C483.78,-8.53 576.17,-11.12 645.25,-47.75 678.56,-65.41 704.33,-102.22 718.07,-125.36"/>
<polygon fill="#63b8ff" stroke="#63b8ff" points="714.94,-126.93 722.93,-133.88 721.02,-123.46 714.94,-126.93"/>
</a>
</g>
</g>
<!-- Node39 -->
<g id="Node000039" class="node">
<title>Node39</title>
<g id="a_Node000039"><a xlink:href="kest__parameter__widget_8c.html#aacedf3a01b62f8fba28c7521a2b64735" target="_top" xlink:title=" ">
<polygon fill="#fff0f0" stroke="red" points="645.25,-162.12 483,-162.12 483,-141.38 645.25,-141.38 645.25,-162.12"/>
<text xml:space="preserve" text-anchor="middle" x="564.12" y="-148.62" font-family="Helvetica,sans-Serif" font-size="10.00">parameter_widget_change_cb</text>
</a>
</g>
</g>
<!-- Node38&#45;&gt;Node39 -->
<g id="edge31_Node000038_Node000039" class="edge">
<title>Node38&#45;&gt;Node39</title>
<g id="a_edge31_Node000038_Node000039"><a xlink:title=" ">
<path fill="none" stroke="#63b8ff" d="M447.31,-138.54C455.23,-139.44 463.33,-140.37 471.38,-141.29"/>
<polygon fill="#63b8ff" stroke="#63b8ff" points="470.88,-144.75 481.21,-142.41 471.67,-137.8 470.88,-144.75"/>
</a>
</g>
</g>
<!-- Node44 -->
<g id="Node000044" class="node">
<title>Node44</title>
<g id="a_Node000044"><a xlink:href="kest__parameter__widget_8c.html#a275a44ab81e73412a3c3da5597906fcc" target="_top" xlink:title=" ">
<polygon fill="#fff0f0" stroke="red" points="634.75,-123.5 493.5,-123.5 493.5,-90 634.75,-90 634.75,-123.5"/>
<text xml:space="preserve" text-anchor="start" x="501.5" y="-110" font-family="Helvetica,sans-Serif" font-size="10.00">parameter_widget_create</text>
<text xml:space="preserve" text-anchor="middle" x="564.12" y="-97.25" font-family="Helvetica,sans-Serif" font-size="10.00">_ui_no_callback</text>
</a>
</g>
</g>
<!-- Node38&#45;&gt;Node44 -->
<g id="edge32_Node000038_Node000044" class="edge">
<title>Node38&#45;&gt;Node44</title>
<g id="a_edge32_Node000038_Node000044"><a xlink:title=" ">
<path fill="none" stroke="#63b8ff" d="M447.31,-120.56C458.64,-119.21 470.35,-117.81 481.76,-116.45"/>
<polygon fill="#63b8ff" stroke="#63b8ff" points="482.04,-119.94 491.56,-115.28 481.21,-112.99 482.04,-119.94"/>
</a>
</g>
</g>
<!-- Node46 -->
<g id="Node000046" class="node">
<title>Node46</title>
<g id="a_Node000046"><a xlink:href="kest__ui_8c.html#ab4d0521ac8d644d34daf9fde74ce1781" target="_top" xlink:title=" ">
<polygon fill="white" stroke="#666666" points="629.5,-291.5 498.75,-291.5 498.75,-258 629.5,-258 629.5,-291.5"/>
<text xml:space="preserve" text-anchor="start" x="506.75" y="-278" font-family="Helvetica,sans-Serif" font-size="10.00">ui_page_create_bottom</text>
<text xml:space="preserve" text-anchor="middle" x="564.12" y="-265.25" font-family="Helvetica,sans-Serif" font-size="10.00">_buttons</text>
</a>
</g>
</g>
<!-- Node45&#45;&gt;Node46 -->
<g id="edge34_Node000045_Node000046" class="edge">
<title>Node45&#45;&gt;Node46</title>
<g id="a_edge34_Node000045_Node000046"><a xlink:title=" ">
<path fill="none" stroke="#63b8ff" d="M400.82,-220.5C423.47,-228.43 455.11,-239.4 483,-248.75 488.1,-250.46 493.4,-252.22 498.72,-253.97"/>
<polygon fill="#63b8ff" stroke="#63b8ff" points="497.6,-257.29 508.2,-257.08 499.79,-250.64 497.6,-257.29"/>
</a>
</g>
</g>
<!-- Node47 -->
<g id="Node000047" class="node">
<title>Node47</title>
<g id="a_Node000047"><a xlink:href="kest__ui_8c.html#a1d4879268198647d06d247db21e13f1b" target="_top" xlink:title=" ">
<polygon fill="#fff0f0" stroke="red" points="634.75,-201.12 493.5,-201.12 493.5,-180.38 634.75,-180.38 634.75,-201.12"/>
<text xml:space="preserve" text-anchor="middle" x="564.12" y="-187.62" font-family="Helvetica,sans-Serif" font-size="10.00">ui_page_create_container</text>
</a>
</g>
</g>
<!-- Node45&#45;&gt;Node47 -->
<g id="edge36_Node000045_Node000047" class="edge">
<title>Node45&#45;&gt;Node47</title>
<g id="a_edge36_Node000045_Node000047"><a xlink:title=" ">
<path fill="none" stroke="#63b8ff" d="M436.09,-203.26C450.93,-201.8 466.85,-200.23 482.23,-198.72"/>
<polygon fill="#63b8ff" stroke="#63b8ff" points="482.19,-202.24 491.8,-197.78 481.5,-195.27 482.19,-202.24"/>
</a>
</g>
</g>
<!-- Node54 -->
<g id="Node000054" class="node">
<title>Node54</title>
<g id="a_Node000054"><a xlink:href="kest__ui_8c.html#ab16753d26193cafda5dd736999b6880c" target="_top" xlink:title=" ">
<polygon fill="#fff0f0" stroke="red" points="632.5,-240.12 495.75,-240.12 495.75,-219.38 632.5,-219.38 632.5,-240.12"/>
<text xml:space="preserve" text-anchor="middle" x="564.12" y="-226.62" font-family="Helvetica,sans-Serif" font-size="10.00">ui_page_create_panel_ui</text>
</a>
</g>
</g>
<!-- Node45&#45;&gt;Node54 -->
<g id="edge37_Node000045_Node000054" class="edge">
<title>Node45&#45;&gt;Node54</title>
<g id="a_edge37_Node000045_Node000054"><a xlink:title=" ">
<path fill="none" stroke="#63b8ff" d="M436.09,-216.58C451.45,-218.17 467.98,-219.88 483.86,-221.53"/>
<polygon fill="#63b8ff" stroke="#63b8ff" points="483.47,-225.01 493.78,-222.56 484.2,-218.05 483.47,-225.01"/>
</a>
</g>
</g>
<!-- Node46&#45;&gt;Node36 -->
<g id="edge35_Node000046_Node000036" class="edge">
<title>Node46&#45;&gt;Node36</title>
<g id="a_edge35_Node000046_Node000036"><a xlink:title=" ">
<path fill="none" stroke="#63b8ff" d="M629.69,-257.52C635.15,-254.96 640.42,-252.06 645.25,-248.75 677.11,-226.92 703.18,-189.57 717.4,-166.35"/>
<polygon fill="#63b8ff" stroke="#63b8ff" points="720.38,-168.19 722.47,-157.8 714.36,-164.62 720.38,-168.19"/>
</a>
</g>
</g>
<!-- Node54&#45;&gt;Node36 -->
<g id="edge38_Node000054_Node000036" class="edge">
<title>Node54&#45;&gt;Node36</title>
<g id="a_edge38_Node000054_Node000036"><a xlink:title=" ">
<path fill="none" stroke="#63b8ff" d="M620.9,-218.96C629.26,-216.45 637.63,-213.42 645.25,-209.75 669.76,-197.96 694.06,-178.32 710.14,-163.89"/>
<polygon fill="#63b8ff" stroke="#63b8ff" points="712.08,-166.87 717.07,-157.53 707.34,-161.72 712.08,-166.87"/>
</a>
</g>
</g>
</g>
</svg>
