<?xml version="1.0" encoding="UTF-8" standalone="no"?>
<!DOCTYPE svg PUBLIC "-//W3C//DTD SVG 1.1//EN"
 "http://www.w3.org/Graphics/SVG/1.1/DTD/svg11.dtd">
<!-- Generated by graphviz version 13.1.2 (20250808.2320)
 -->
<!-- Title: cxt_get_profile_by_id Pages: 1 -->
<svg width="653pt" height="197pt"
 viewBox="0.00 0.00 653.00 197.00" xmlns="http://www.w3.org/2000/svg" xmlns:xlink="http://www.w3.org/1999/xlink">
<g id="graph0" class="graph" transform="scale(1 1) rotate(0) translate(4 192.75)">
<title>cxt_get_profile_by_id</title>
<!-- Node1 -->
<g id="Node000001" class="node">
<title>Node1</title>
<g id="a_Node000001"><a xlink:title=" ">
<polygon fill="#999999" stroke="#666666" points="644.5,-98.75 524.25,-98.75 524.25,-78 644.5,-78 644.5,-98.75"/>
<text xml:space="preserve" text-anchor="middle" x="584.38" y="-85.25" font-family="Helvetica,sans-Serif" font-size="10.00">cxt_get_profile_by_id</text>
</a>
</g>
</g>
<!-- Node2 -->
<g id="Node000002" class="node">
<title>Node2</title>
<g id="a_Node000002"><a xlink:href="kest__context_8c.html#a5d77b0a0233c082d72cffb313f950e88" target="_top" xlink:title=" ">
<polygon fill="white" stroke="#666666" points="488.25,-188.75 350,-188.75 350,-168 488.25,-168 488.25,-188.75"/>
<text xml:space="preserve" text-anchor="middle" x="419.12" y="-175.25" font-family="Helvetica,sans-Serif" font-size="10.00">cxt_effect_id_to_position</text>
</a>
</g>
</g>
<!-- Node1&#45;&gt;Node2 -->
<g id="edge1_Node000001_Node000002" class="edge">
<title>Node1&#45;&gt;Node2</title>
<g id="a_edge1_Node000001_Node000002"><a xlink:title=" ">
<path fill="none" stroke="#63b8ff" d="M563.41,-106.77C545.11,-122.75 516.6,-145.45 488.25,-159.38 481.75,-162.57 474.62,-165.3 467.51,-167.61"/>
<polygon fill="#63b8ff" stroke="#63b8ff" points="565.74,-109.38 570.87,-100.12 561.08,-104.16 565.74,-109.38"/>
</a>
</g>
</g>
<!-- Node3 -->
<g id="Node000003" class="node">
<title>Node3</title>
<g id="a_Node000003"><a xlink:href="kest__context_8c.html#a879d6c9e6309a5f786b9e625fbf7338c" target="_top" xlink:title=" ">
<polygon fill="white" stroke="#666666" points="473.62,-150.12 364.62,-150.12 364.62,-116.62 473.62,-116.62 473.62,-150.12"/>
<text xml:space="preserve" text-anchor="start" x="372.62" y="-136.62" font-family="Helvetica,sans-Serif" font-size="10.00">cxt_effect_position</text>
<text xml:space="preserve" text-anchor="middle" x="419.12" y="-123.88" font-family="Helvetica,sans-Serif" font-size="10.00">_to_id</text>
</a>
</g>
</g>
<!-- Node1&#45;&gt;Node3 -->
<g id="edge2_Node000001_Node000003" class="edge">
<title>Node1&#45;&gt;Node3</title>
<g id="a_edge2_Node000001_Node000003"><a xlink:title=" ">
<path fill="none" stroke="#63b8ff" d="M533.27,-102.19C514.51,-107.36 493.12,-113.25 474.03,-118.52"/>
<polygon fill="#63b8ff" stroke="#63b8ff" points="534.1,-105.59 542.81,-99.56 532.24,-98.84 534.1,-105.59"/>
</a>
</g>
</g>
<!-- Node4 -->
<g id="Node000004" class="node">
<title>Node4</title>
<g id="a_Node000004"><a xlink:href="kest__context_8c.html#a41b599ca3666ca30ec4c720ef2841d1d" target="_top" xlink:title=" ">
<polygon fill="white" stroke="#666666" points="477.75,-98.75 360.5,-98.75 360.5,-78 477.75,-78 477.75,-98.75"/>
<text xml:space="preserve" text-anchor="middle" x="419.12" y="-85.25" font-family="Helvetica,sans-Serif" font-size="10.00">cxt_get_effect_by_id</text>
</a>
</g>
</g>
<!-- Node1&#45;&gt;Node4 -->
<g id="edge3_Node000001_Node000004" class="edge">
<title>Node1&#45;&gt;Node4</title>
<g id="a_edge3_Node000001_Node000004"><a xlink:title=" ">
<path fill="none" stroke="#63b8ff" d="M512.6,-88.38C501.08,-88.38 489.28,-88.38 478.12,-88.38"/>
<polygon fill="#63b8ff" stroke="#63b8ff" points="512.46,-91.88 522.46,-88.38 512.46,-84.88 512.46,-91.88"/>
</a>
</g>
</g>
<!-- Node8 -->
<g id="Node000008" class="node">
<title>Node8</title>
<g id="a_Node000008"><a xlink:href="kest__context_8c.html#a3dabfbe87edbacbacf5badc8db3fd629" target="_top" xlink:title=" ">
<polygon fill="white" stroke="#666666" points="472.88,-59.75 365.38,-59.75 365.38,-39 472.88,-39 472.88,-59.75"/>
<text xml:space="preserve" text-anchor="middle" x="419.12" y="-46.25" font-family="Helvetica,sans-Serif" font-size="10.00">cxt_remove_effect</text>
</a>
</g>
</g>
<!-- Node1&#45;&gt;Node8 -->
<g id="edge7_Node000001_Node000008" class="edge">
<title>Node1&#45;&gt;Node8</title>
<g id="a_edge7_Node000001_Node000008"><a xlink:title=" ">
<path fill="none" stroke="#63b8ff" d="M526.75,-74.85C506.77,-70.07 484.58,-64.77 465.64,-60.25"/>
<polygon fill="#63b8ff" stroke="#63b8ff" points="525.89,-78.24 536.43,-77.16 527.52,-71.43 525.89,-78.24"/>
</a>
</g>
</g>
<!-- Node9 -->
<g id="Node000009" class="node">
<title>Node9</title>
<g id="a_Node000009"><a xlink:href="kest__parameter__widget_8c.html#a22b7fa4ae5f9628f2da2155f58c2635c" target="_top" xlink:title=" ">
<polygon fill="white" stroke="#666666" points="469.88,-20.75 368.38,-20.75 368.38,0 469.88,0 469.88,-20.75"/>
<text xml:space="preserve" text-anchor="middle" x="419.12" y="-7.25" font-family="Helvetica,sans-Serif" font-size="10.00">sw_field_save_cb</text>
</a>
</g>
</g>
<!-- Node1&#45;&gt;Node9 -->
<g id="edge8_Node000001_Node000009" class="edge">
<title>Node1&#45;&gt;Node9</title>
<g id="a_edge8_Node000001_Node000009"><a xlink:title=" ">
<path fill="none" stroke="#63b8ff" d="M559.09,-71.11C540.43,-58.46 513.62,-41.6 488.25,-30.38 480.36,-26.88 471.69,-23.81 463.26,-21.18"/>
<polygon fill="#63b8ff" stroke="#63b8ff" points="557.1,-73.98 567.32,-76.78 561.07,-68.22 557.1,-73.98"/>
</a>
</g>
</g>
<!-- Node5 -->
<g id="Node000005" class="node">
<title>Node5</title>
<g id="a_Node000005"><a xlink:href="kest__context_8c.html#a0ee137e3f369f373843401d55f213418" target="_top" xlink:title=" ">
<polygon fill="white" stroke="#666666" points="309.88,-150.12 178.38,-150.12 178.38,-116.62 309.88,-116.62 309.88,-150.12"/>
<text xml:space="preserve" text-anchor="start" x="186.38" y="-136.62" font-family="Helvetica,sans-Serif" font-size="10.00">cxt_get_parameter_and</text>
<text xml:space="preserve" text-anchor="middle" x="244.12" y="-123.88" font-family="Helvetica,sans-Serif" font-size="10.00">_effect_by_id</text>
</a>
</g>
</g>
<!-- Node4&#45;&gt;Node5 -->
<g id="edge4_Node000004_Node000005" class="edge">
<title>Node4&#45;&gt;Node5</title>
<g id="a_edge4_Node000004_Node000005"><a xlink:title=" ">
<path fill="none" stroke="#63b8ff" d="M365.57,-102.04C348.13,-106.58 328.49,-111.69 310.21,-116.45"/>
<polygon fill="#63b8ff" stroke="#63b8ff" points="366.43,-105.44 375.22,-99.53 364.66,-98.66 366.43,-105.44"/>
</a>
</g>
</g>
<!-- Node6 -->
<g id="Node000006" class="node">
<title>Node6</title>
<g id="a_Node000006"><a xlink:href="kest__context_8c.html#a41560f1c9501a16528cc7072ad529fe0" target="_top" xlink:title=" ">
<polygon fill="white" stroke="#666666" points="314,-98.75 174.25,-98.75 174.25,-78 314,-78 314,-98.75"/>
<text xml:space="preserve" text-anchor="middle" x="244.12" y="-85.25" font-family="Helvetica,sans-Serif" font-size="10.00">cxt_get_parameter_by_id</text>
</a>
</g>
</g>
<!-- Node4&#45;&gt;Node6 -->
<g id="edge5_Node000004_Node000006" class="edge">
<title>Node4&#45;&gt;Node6</title>
<g id="a_edge5_Node000004_Node000006"><a xlink:title=" ">
<path fill="none" stroke="#63b8ff" d="M348.87,-88.38C337.53,-88.38 325.79,-88.38 314.45,-88.38"/>
<polygon fill="#63b8ff" stroke="#63b8ff" points="348.52,-91.88 358.52,-88.38 348.52,-84.88 348.52,-91.88"/>
</a>
</g>
</g>
<!-- Node7 -->
<g id="Node000007" class="node">
<title>Node7</title>
<g id="a_Node000007"><a xlink:href="kest__context_8c.html#a383285f1b02bd12e71b8139e87812352" target="_top" xlink:title=" ">
<polygon fill="white" stroke="#666666" points="305.38,-59.75 182.88,-59.75 182.88,-39 305.38,-39 305.38,-59.75"/>
<text xml:space="preserve" text-anchor="middle" x="244.12" y="-46.25" font-family="Helvetica,sans-Serif" font-size="10.00">cxt_get_setting_by_id</text>
</a>
</g>
</g>
<!-- Node4&#45;&gt;Node7 -->
<g id="edge6_Node000004_Node000007" class="edge">
<title>Node4&#45;&gt;Node7</title>
<g id="a_edge6_Node000004_Node000007"><a xlink:title=" ">
<path fill="none" stroke="#63b8ff" d="M358.71,-74.98C337.38,-70.17 313.62,-64.82 293.36,-60.25"/>
<polygon fill="#63b8ff" stroke="#63b8ff" points="357.93,-78.39 368.46,-77.18 359.47,-71.56 357.93,-78.39"/>
</a>
</g>
</g>
<!-- Node10 -->
<g id="Node000010" class="node">
<title>Node10</title>
<g id="a_Node000010"><a xlink:href="kest__parameter__widget_8c.html#a5a6ebded10138ba55624e195ae4f4309" target="_top" xlink:title=" ">
<polygon fill="white" stroke="#666666" points="292.62,-20.75 195.62,-20.75 195.62,0 292.62,0 292.62,-20.75"/>
<text xml:space="preserve" text-anchor="middle" x="244.12" y="-7.25" font-family="Helvetica,sans-Serif" font-size="10.00">edit_sw_field_cb</text>
</a>
</g>
</g>
<!-- Node9&#45;&gt;Node10 -->
<g id="edge9_Node000009_Node000010" class="edge">
<title>Node9&#45;&gt;Node10</title>
<g id="a_edge9_Node000009_Node000010"><a xlink:title=" ">
<path fill="none" stroke="#63b8ff" d="M356.71,-10.38C335.77,-10.38 312.68,-10.38 292.97,-10.38"/>
<polygon fill="#63b8ff" stroke="#63b8ff" points="356.57,-13.88 366.57,-10.38 356.57,-6.88 356.57,-13.88"/>
</a>
</g>
</g>
<!-- Node11 -->
<g id="Node000011" class="node">
<title>Node11</title>
<g id="a_Node000011"><a xlink:href="kest__parameter__widget_8c.html#a2074107eca4e8e2b3832c9f9f2e5f9f2" target="_top" xlink:title=" ">
<polygon fill="#fff0f0" stroke="red" points="138.25,-20.75 0,-20.75 0,0 138.25,0 138.25,-20.75"/>
<text xml:space="preserve" text-anchor="middle" x="69.12" y="-7.25" font-family="Helvetica,sans-Serif" font-size="10.00">setting_widget_create_ui</text>
</a>
</g>
</g>
<!-- Node10&#45;&gt;Node11 -->
<g id="edge10_Node000010_Node000011" class="edge">
<title>Node10&#45;&gt;Node11</title>
<g id="a_edge10_Node000010_Node000011"><a xlink:title=" ">
<path fill="none" stroke="#63b8ff" d="M184,-10.38C169.43,-10.38 153.72,-10.38 138.75,-10.38"/>
<polygon fill="#63b8ff" stroke="#63b8ff" points="183.88,-13.88 193.88,-10.38 183.88,-6.88 183.88,-13.88"/>
</a>
</g>
</g>
</g>
</svg>
