<?xml version="1.0" encoding="UTF-8" standalone="no"?>
<!DOCTYPE svg PUBLIC "-//W3C//DTD SVG 1.1//EN"
 "http://www.w3.org/Graphics/SVG/1.1/DTD/svg11.dtd">
<!-- Generated by graphviz version 13.1.2 (20250808.2320)
 -->
<!-- Title: kest_cxt_restore_state Pages: 1 -->
<!--zoomable 200 -->

<svg id="main" version="1.1" xmlns="http://www.w3.org/2000/svg" xmlns:xlink="http://www.w3.org/1999/xlink" xml:space="preserve" onload="init(evt)">

<style type="text/css"><![CDATA[
.node, .edge {opacity: 0.7;}
.node.selected, .edge.selected {opacity: 1;}
.edge:hover path { stroke: red; }
.edge:hover polygon { stroke: red; fill: red; }
]]></style>

<defs>
  <circle id="rim" cx="0" cy="0" r="7"/>
  <circle id="rim2" cx="0" cy="0" r="3.5"/>
  <g id="zoomPlus">
    <use xlink:href="#rim" fill="#404040"><set attributeName="fill" to="#808080" begin="zoomplus.mouseover" end="zoomplus.mouseout"/></use>
    <path d="M-4,0h8M0,-4v8" fill="none" stroke="white" stroke-width="1.5" pointer-events="none"/>
  </g>
  <g id="zoomMin">
    <use xlink:href="#rim" fill="#404040"><set attributeName="fill" to="#808080" begin="zoomminus.mouseover" end="zoomminus.mouseout"/></use>
    <path d="M-4,0h8" fill="none" stroke="white" stroke-width="1.5" pointer-events="none"/>
  </g>
  <g id="arrowUp" transform="translate(30 24)">
    <use xlink:href="#rim"/>
    <path pointer-events="none" fill="none" stroke="white" stroke-width="1.5" d="M0,-3.0v7 M-2.5,-0.5L0,-3.0L2.5,-0.5"/>
  </g>
  <g id="arrowRight" transform="rotate(90) translate(36 -43)">
    <use xlink:href="#rim"/>
    <path pointer-events="none" fill="none" stroke="white" stroke-width="1.5" d="M0,-3.0v7 M-2.5,-0.5L0,-3.0L2.5,-0.5"/>
  </g>
  <g id="arrowDown" transform="rotate(180) translate(-30 -48)">
    <use xlink:href="#rim"/>
    <path pointer-events="none" fill="none" stroke="white" stroke-width="1.5" d="M0,-3.0v7 M-2.5,-0.5L0,-3.0L2.5,-0.5"/>
  </g>
  <g id="arrowLeft" transform="rotate(270) translate(-36 17)">
    <use xlink:href="#rim"/>
    <path pointer-events="none" fill="none" stroke="white" stroke-width="1.5" d="M0,-3.0v7 M-2.5,-0.5L0,-3.0L2.5,-0.5"/>
  </g>
  <g id="resetDef">
    <use xlink:href="#rim2" fill="#404040"><set attributeName="fill" to="#808080" begin="reset.mouseover" end="reset.mouseout"/></use>
  </g>
</defs>
<script type="application/ecmascript">
var viewWidth = 666;
var viewHeight = 200;
var sectionId = 'dynsection-4';
</script>
<script type="application/ecmascript" xlink:href="svg.min.js"/>
<svg id="graph" class="graph">
<g id="viewport">
<title>kest_cxt_restore_state</title>
<!-- Node1 -->
<g id="Node000001" class="node">
<title>Node1</title>
<g id="a_Node000001"><a xlink:title=" ">
<polygon fill="#999999" stroke="#666666" points="126.25,-120.12 0,-120.12 0,-99.38 126.25,-99.38 126.25,-120.12"/>
<text xml:space="preserve" text-anchor="middle" x="63.12" y="-106.62" font-family="Helvetica,sans-Serif" font-size="10.00">kest_cxt_restore_state</text>
</a>
</g>
</g>
<!-- Node2 -->
<g id="Node000002" class="node">
<title>Node2</title>
<g id="a_Node000002"><a xlink:href="kest__context_8c.html#a9eec45af3bef4cc85ead192e80d4a524" target="_top" xlink:title=" ">
<polygon fill="white" stroke="#666666" points="285.12,-191.5 179.12,-191.5 179.12,-158 285.12,-158 285.12,-191.5"/>
<text xml:space="preserve" text-anchor="start" x="187.12" y="-178" font-family="Helvetica,sans-Serif" font-size="10.00">cxt_get_profile_by</text>
<text xml:space="preserve" text-anchor="middle" x="232.12" y="-165.25" font-family="Helvetica,sans-Serif" font-size="10.00">_fname</text>
</a>
</g>
</g>
<!-- Node1&#45;&gt;Node2 -->
<g id="edge1_Node000001_Node000002" class="edge">
<title>Node1&#45;&gt;Node2</title>
<g id="a_edge1_Node000001_Node000002"><a xlink:title=" ">
<path fill="none" stroke="#63b8ff" d="M90.73,-120.47C110.44,-128.37 137.98,-139.35 162.25,-148.75 166.29,-150.32 170.47,-151.92 174.68,-153.53"/>
<polygon fill="#63b8ff" stroke="#63b8ff" points="173.14,-156.69 183.73,-156.98 175.63,-150.15 173.14,-156.69"/>
</a>
</g>
</g>
<!-- Node5 -->
<g id="Node000005" class="node">
<title>Node5</title>
<g id="a_Node000005"><a xlink:href="kest__context_8c.html#a8552a503ff5b29bf2aae656e67cd915d" target="_top" xlink:title=" ">
<polygon fill="white" stroke="#666666" points="298.62,-140.12 165.62,-140.12 165.62,-119.38 298.62,-119.38 298.62,-140.12"/>
<text xml:space="preserve" text-anchor="middle" x="232.12" y="-126.62" font-family="Helvetica,sans-Serif" font-size="10.00">kest_cxt_set_input_gain</text>
</a>
</g>
</g>
<!-- Node1&#45;&gt;Node5 -->
<g id="edge4_Node000001_Node000005" class="edge">
<title>Node1&#45;&gt;Node5</title>
<g id="a_edge4_Node000001_Node000005"><a xlink:title=" ">
<path fill="none" stroke="#63b8ff" d="M126.31,-117.2C135.34,-118.28 144.73,-119.4 154.01,-120.52"/>
<polygon fill="#63b8ff" stroke="#63b8ff" points="153.41,-123.97 163.75,-121.68 154.24,-117.02 153.41,-123.97"/>
</a>
</g>
</g>
<!-- Node7 -->
<g id="Node000007" class="node">
<title>Node7</title>
<g id="a_Node000007"><a xlink:href="kest__context_8c.html#a2175ea8951fe2164e187335ff19b8777" target="_top" xlink:title=" ">
<polygon fill="white" stroke="#666666" points="302,-101.12 162.25,-101.12 162.25,-80.38 302,-80.38 302,-101.12"/>
<text xml:space="preserve" text-anchor="middle" x="232.12" y="-87.62" font-family="Helvetica,sans-Serif" font-size="10.00">kest_cxt_set_output_gain</text>
</a>
</g>
</g>
<!-- Node1&#45;&gt;Node7 -->
<g id="edge6_Node000001_Node000007" class="edge">
<title>Node1&#45;&gt;Node7</title>
<g id="a_edge6_Node000001_Node000007"><a xlink:title=" ">
<path fill="none" stroke="#63b8ff" d="M126.31,-102.68C134.19,-101.78 142.34,-100.85 150.45,-99.93"/>
<polygon fill="#63b8ff" stroke="#63b8ff" points="150.83,-103.41 160.37,-98.8 150.03,-96.45 150.83,-103.41"/>
</a>
</g>
</g>
<!-- Node8 -->
<g id="Node000008" class="node">
<title>Node8</title>
<g id="a_Node000008"><a xlink:href="kest__context_8c.html#a46a337c8aa1724024c73026c74d90a39" target="_top" xlink:title=" ">
<polygon fill="white" stroke="#666666" points="283.62,-62.5 180.62,-62.5 180.62,-29 283.62,-29 283.62,-62.5"/>
<text xml:space="preserve" text-anchor="start" x="188.62" y="-49" font-family="Helvetica,sans-Serif" font-size="10.00">set_active_profile</text>
<text xml:space="preserve" text-anchor="middle" x="232.12" y="-36.25" font-family="Helvetica,sans-Serif" font-size="10.00">_from_sequence</text>
</a>
</g>
</g>
<!-- Node1&#45;&gt;Node8 -->
<g id="edge8_Node000001_Node000008" class="edge">
<title>Node1&#45;&gt;Node8</title>
<g id="a_edge8_Node000001_Node000008"><a xlink:title=" ">
<path fill="none" stroke="#63b8ff" d="M92.02,-98.88C111.64,-91.24 138.53,-80.82 162.25,-71.75 166.36,-70.18 170.62,-68.56 174.9,-66.93"/>
<polygon fill="#63b8ff" stroke="#63b8ff" points="176.01,-70.25 184.12,-63.43 173.53,-63.71 176.01,-70.25"/>
</a>
</g>
</g>
<!-- Node3 -->
<g id="Node000003" class="node">
<title>Node3</title>
<g id="a_Node000003"><a xlink:href="kest__files_8c.html#a8bcff3a826c8132661386cd8098594a2" target="_top" xlink:title=" ">
<polygon fill="white" stroke="#666666" points="449.62,-185.12 363.88,-185.12 363.88,-164.38 449.62,-164.38 449.62,-185.12"/>
<text xml:space="preserve" text-anchor="middle" x="406.75" y="-171.62" font-family="Helvetica,sans-Serif" font-size="10.00">fnames_agree</text>
</a>
</g>
</g>
<!-- Node2&#45;&gt;Node3 -->
<g id="edge2_Node000002_Node000003" class="edge">
<title>Node2&#45;&gt;Node3</title>
<g id="a_edge2_Node000002_Node000003"><a xlink:title=" ">
<path fill="none" stroke="#63b8ff" d="M285.39,-174.75C306.49,-174.75 330.82,-174.75 352.06,-174.75"/>
<polygon fill="#63b8ff" stroke="#63b8ff" points="351.99,-178.25 361.99,-174.75 351.99,-171.25 351.99,-178.25"/>
</a>
</g>
</g>
<!-- Node4 -->
<g id="Node000004" class="node">
<title>Node4</title>
<g id="a_Node000004"><a xlink:href="kest__tokenizer_8c.html#ae3e094675b7f6c398787acd25603e724" target="_top" xlink:title=" ">
<polygon fill="white" stroke="#666666" points="625.75,-185.12 543.75,-185.12 543.75,-164.38 625.75,-164.38 625.75,-185.12"/>
<text xml:space="preserve" text-anchor="middle" x="584.75" y="-171.62" font-family="Helvetica,sans-Serif" font-size="10.00">char_is_letter</text>
</a>
</g>
</g>
<!-- Node3&#45;&gt;Node4 -->
<g id="edge3_Node000003_Node000004" class="edge">
<title>Node3&#45;&gt;Node4</title>
<g id="a_edge3_Node000003_Node000004"><a xlink:title=" ">
<path fill="none" stroke="#63b8ff" d="M449.91,-174.75C474.62,-174.75 506.03,-174.75 532.21,-174.75"/>
<polygon fill="#63b8ff" stroke="#63b8ff" points="531.94,-178.25 541.94,-174.75 531.94,-171.25 531.94,-178.25"/>
</a>
</g>
</g>
<!-- Node6 -->
<g id="Node000006" class="node">
<title>Node6</title>
<g id="a_Node000006"><a xlink:href="kest__param__update_8c.html#a4228867b610227d141d8974773316e14" target="_top" xlink:title=" ">
<polygon fill="white" stroke="#666666" points="471.75,-136.5 341.75,-136.5 341.75,-103 471.75,-103 471.75,-136.5"/>
<text xml:space="preserve" text-anchor="start" x="349.75" y="-123" font-family="Helvetica,sans-Serif" font-size="10.00">kest_parameter_trigger</text>
<text xml:space="preserve" text-anchor="middle" x="406.75" y="-110.25" font-family="Helvetica,sans-Serif" font-size="10.00">_update</text>
</a>
</g>
</g>
<!-- Node5&#45;&gt;Node6 -->
<g id="edge5_Node000005_Node000006" class="edge">
<title>Node5&#45;&gt;Node6</title>
<g id="a_edge5_Node000005_Node000006"><a xlink:title=" ">
<path fill="none" stroke="#63b8ff" d="M298.88,-125.94C309.1,-125.35 319.72,-124.73 330.13,-124.13"/>
<polygon fill="#63b8ff" stroke="#63b8ff" points="330.03,-127.64 339.81,-123.57 329.62,-120.65 330.03,-127.64"/>
</a>
</g>
</g>
<!-- Node7&#45;&gt;Node6 -->
<g id="edge7_Node000007_Node000006" class="edge">
<title>Node7&#45;&gt;Node6</title>
<g id="a_edge7_Node000007_Node000006"><a xlink:title=" ">
<path fill="none" stroke="#63b8ff" d="M297.4,-101.55C308.08,-103.34 319.23,-105.22 330.15,-107.05"/>
<polygon fill="#63b8ff" stroke="#63b8ff" points="329.48,-110.49 339.92,-108.69 330.64,-103.58 329.48,-110.49"/>
</a>
</g>
</g>
<!-- Node9 -->
<g id="Node000009" class="node">
<title>Node9</title>
<g id="a_Node000009"><a xlink:href="kest__profile_8c.html#a9103db076a4ce8ae9b06c8e30480cbe3" target="_top" xlink:title=" ">
<polygon fill="white" stroke="#666666" points="471,-66.12 342.5,-66.12 342.5,-45.38 471,-45.38 471,-66.12"/>
<text xml:space="preserve" text-anchor="middle" x="406.75" y="-52.62" font-family="Helvetica,sans-Serif" font-size="10.00">kest_profile_set_active</text>
</a>
</g>
</g>
<!-- Node8&#45;&gt;Node9 -->
<g id="edge9_Node000008_Node000009" class="edge">
<title>Node8&#45;&gt;Node9</title>
<g id="a_edge9_Node000008_Node000009"><a xlink:title=" ">
<path fill="none" stroke="#63b8ff" d="M283.98,-48.7C298.63,-49.54 314.92,-50.49 330.71,-51.4"/>
<polygon fill="#63b8ff" stroke="#63b8ff" points="330.38,-54.89 340.57,-51.97 330.78,-47.9 330.38,-54.89"/>
</a>
</g>
</g>
<!-- Node45 -->
<g id="Node000045" class="node">
<title>Node45</title>
<g id="a_Node000045"><a xlink:href="kest__profile_8c.html#a9485112eae167967c5ffd2a1c5018df1" target="_top" xlink:title=" ">
<polygon fill="white" stroke="#666666" points="475.5,-27.12 338,-27.12 338,-6.38 475.5,-6.38 475.5,-27.12"/>
<text xml:space="preserve" text-anchor="middle" x="406.75" y="-13.62" font-family="Helvetica,sans-Serif" font-size="10.00">kest_profile_set_inactive</text>
</a>
</g>
</g>
<!-- Node8&#45;&gt;Node45 -->
<g id="edge12_Node000008_Node000045" class="edge">
<title>Node8&#45;&gt;Node45</title>
<g id="a_edge12_Node000008_Node000045"><a xlink:title=" ">
<path fill="none" stroke="#63b8ff" d="M283.98,-37.21C298.39,-34.79 314.39,-32.1 329.93,-29.49"/>
<polygon fill="#63b8ff" stroke="#63b8ff" points="330.36,-32.96 339.64,-27.86 329.2,-26.06 330.36,-32.96"/>
</a>
</g>
</g>
<!-- Node10 -->
<g id="Node000010" class="node">
<title>Node10</title>
<g id="a_Node000010"><a xlink:href="kest__profile_8c.html#a23cd63c025729fe28dbd76f64ce43f0d" target="_top" xlink:title=" ">
<polygon fill="#fff0f0" stroke="red" points="658,-72.12 511.5,-72.12 511.5,-51.38 658,-51.38 658,-72.12"/>
<text xml:space="preserve" text-anchor="middle" x="584.75" y="-58.62" font-family="Helvetica,sans-Serif" font-size="10.00">kest_profile_program_fpga</text>
</a>
</g>
</g>
<!-- Node9&#45;&gt;Node10 -->
<g id="edge10_Node000009_Node000010" class="edge">
<title>Node9&#45;&gt;Node10</title>
<g id="a_edge10_Node000009_Node000010"><a xlink:title=" ">
<path fill="none" stroke="#63b8ff" d="M471.29,-57.92C480.56,-58.23 490.23,-58.56 499.82,-58.89"/>
<polygon fill="#63b8ff" stroke="#63b8ff" points="499.41,-62.38 509.52,-59.22 499.65,-55.38 499.41,-62.38"/>
</a>
</g>
</g>
<!-- Node43 -->
<g id="Node000043" class="node">
<title>Node43</title>
<g id="a_Node000043"><a xlink:href="kest__profile_8c.html#a8b1594e9e88b6298e1ce4d93641b1e4d" target="_top" xlink:title=" ">
<polygon fill="#fff0f0" stroke="red" points="640.75,-33.5 528.75,-33.5 528.75,0 640.75,0 640.75,-33.5"/>
<text xml:space="preserve" text-anchor="start" x="536.75" y="-20" font-family="Helvetica,sans-Serif" font-size="10.00">kest_profile_update</text>
<text xml:space="preserve" text-anchor="middle" x="584.75" y="-7.25" font-family="Helvetica,sans-Serif" font-size="10.00">_representations</text>
</a>
</g>
</g>
<!-- Node9&#45;&gt;Node43 -->
<g id="edge11_Node000009_Node000043" class="edge">
<title>Node9&#45;&gt;Node43</title>
<g id="a_edge11_Node000009_Node000043"><a xlink:title=" ">
<path fill="none" stroke="#63b8ff" d="M456.78,-44.89C475.57,-40.72 497.34,-35.9 517.48,-31.43"/>
<polygon fill="#63b8ff" stroke="#63b8ff" points="518,-34.91 527,-29.32 516.48,-28.07 518,-34.91"/>
</a>
</g>
</g>
<!-- Node45&#45;&gt;Node43 -->
<g id="edge13_Node000045_Node000043" class="edge">
<title>Node45&#45;&gt;Node43</title>
<g id="a_edge13_Node000045_Node000043"><a xlink:title=" ">
<path fill="none" stroke="#63b8ff" d="M475.8,-16.75C489.4,-16.75 503.67,-16.75 517.22,-16.75"/>
<polygon fill="#63b8ff" stroke="#63b8ff" points="516.89,-20.25 526.89,-16.75 516.89,-13.25 516.89,-20.25"/>
</a>
</g>
</g>
</g>
</svg>

<g id="navigator" transform="translate(0 0)" fill="#404254">
  <rect fill="#f2f5e9" fill-opacity="0.5" stroke="#606060" stroke-width=".5" x="0" y="0" width="60" height="60"/>
  <use id="zoomplus" xlink:href="#zoomPlus" x="17" y="9" onmousedown="handleZoom(evt,'in')"/>
  <use id="zoomminus" xlink:href="#zoomMin" x="42" y="9" onmousedown="handleZoom(evt,'out')"/>
  <use id="reset" xlink:href="#resetDef" x="30" y="36" onmousedown="handleReset()"/>
   <use id="arrowup" xlink:href="#arrowUp" x="0" y="0" onmousedown="handlePan(0,-1)"/>
  <use id="arrowright" xlink:href="#arrowRight" x="0" y="0" onmousedown="handlePan(1,0)"/>
  <use id="arrowdown" xlink:href="#arrowDown" x="0" y="0" onmousedown="handlePan(0,1)"/>
  <use id="arrowleft" xlink:href="#arrowLeft" x="0" y="0" onmousedown="handlePan(-1,0)"/>
</g>
<svg viewBox="0 0 15 15" width="100%" height="30px" preserveAspectRatio="xMaxYMin meet">
 <g id="arrow_out" transform="scale(0.3 0.3)">
  <a xlink:href="kest__state_8c_ab26da214ed0f9d143d63e80a7012796b_cgraph_org.svg" target="_base">
   <rect id="button" ry="5" rx="5" y="6" x="6" height="38" width="38"
        fill="#f2f5e9" fill-opacity="0.5" stroke="#606060" stroke-width="1.0"/>
   <path id="arrow"
     d="M 11.500037,31.436501 C 11.940474,20.09759 22.043105,11.32322 32.158766,21.979434 L 37.068811,17.246167 C 37.068811,17.246167 37.088388,32 37.088388,32 L 22.160133,31.978069 C 22.160133,31.978069 26.997745,27.140456 26.997745,27.140456 C 18.528582,18.264221 13.291696,25.230495 11.500037,31.436501 z"
     style="fill:#404040;"/>
  </a>
 </g>
</svg>

<style type='text/css'>
<![CDATA[
[data-mouse-over-selected='false'] { opacity: 0.7; }
[data-mouse-over-selected='true']  { opacity: 1.0; }
]]>
</style>
<script type="application/ecmascript"><![CDATA[
document.addEventListener('DOMContentLoaded', (event) => {
  highlightEdges();
  highlightAdjacentNodes();
});
]]></script>
</svg>
