<?xml version="1.0" encoding="UTF-8" standalone="no"?>
<!DOCTYPE svg PUBLIC "-//W3C//DTD SVG 1.1//EN"
 "http://www.w3.org/Graphics/SVG/1.1/DTD/svg11.dtd">
<!-- Generated by graphviz version 13.1.2 (20250808.2320)
 -->
<!-- Title: kest_expression_refers_constant Pages: 1 -->
<!--zoomable 263 -->

<svg id="main" version="1.1" xmlns="http://www.w3.org/2000/svg" xmlns:xlink="http://www.w3.org/1999/xlink" xml:space="preserve" onload="init(evt)">

<style type="text/css"><![CDATA[
.node, .edge {opacity: 0.7;}
.node.selected, .edge.selected {opacity: 1;}
.edge:hover path { stroke: red; }
.edge:hover polygon { stroke: red; fill: red; }
]]></style>

<defs>
  <circle id="rim" cx="0" cy="0" r="7"/>
  <circle id="rim2" cx="0" cy="0" r="3.5"/>
  <g id="zoomPlus">
    <use xlink:href="#rim" fill="#404040"><set attributeName="fill" to="#808080" begin="zoomplus.mouseover" end="zoomplus.mouseout"/></use>
    <path d="M-4,0h8M0,-4v8" fill="none" stroke="white" stroke-width="1.5" pointer-events="none"/>
  </g>
  <g id="zoomMin">
    <use xlink:href="#rim" fill="#404040"><set attributeName="fill" to="#808080" begin="zoomminus.mouseover" end="zoomminus.mouseout"/></use>
    <path d="M-4,0h8" fill="none" stroke="white" stroke-width="1.5" pointer-events="none"/>
  </g>
  <g id="arrowUp" transform="translate(30 24)">
    <use xlink:href="#rim"/>
    <path pointer-events="none" fill="none" stroke="white" stroke-width="1.5" d="M0,-3.0v7 M-2.5,-0.5L0,-3.0L2.5,-0.5"/>
  </g>
  <g id="arrowRight" transform="rotate(90) translate(36 -43)">
    <use xlink:href="#rim"/>
    <path pointer-events="none" fill="none" stroke="white" stroke-width="1.5" d="M0,-3.0v7 M-2.5,-0.5L0,-3.0L2.5,-0.5"/>
  </g>
  <g id="arrowDown" transform="rotate(180) translate(-30 -48)">
    <use xlink:href="#rim"/>
    <path pointer-events="none" fill="none" stroke="white" stroke-width="1.5" d="M0,-3.0v7 M-2.5,-0.5L0,-3.0L2.5,-0.5"/>
  </g>
  <g id="arrowLeft" transform="rotate(270) translate(-36 17)">
    <use xlink:href="#rim"/>
    <path pointer-events="none" fill="none" stroke="white" stroke-width="1.5" d="M0,-3.0v7 M-2.5,-0.5L0,-3.0L2.5,-0.5"/>
  </g>
  <g id="resetDef">
    <use xlink:href="#rim2" fill="#404040"><set attributeName="fill" to="#808080" begin="reset.mouseover" end="reset.mouseout"/></use>
  </g>
</defs>
<script type="application/ecmascript">
var viewWidth = 673;
var viewHeight = 263;
var sectionId = 'dynsection-22';
</script>
<script type="application/ecmascript" xlink:href="svg.min.js"/>
<svg id="graph" class="graph">
<g id="viewport">
<title>kest_expression_refers_constant</title>
<!-- Node1 -->
<g id="Node000001" class="node">
<title>Node1</title>
<g id="a_Node000001"><a xlink:title=" ">
<polygon fill="#999999" stroke="#666666" points="664.75,-166.5 536.25,-166.5 536.25,-133 664.75,-133 664.75,-166.5"/>
<text xml:space="preserve" text-anchor="start" x="544.25" y="-153" font-family="Helvetica,sans-Serif" font-size="10.00">kest_expression_refers</text>
<text xml:space="preserve" text-anchor="middle" x="600.5" y="-140.25" font-family="Helvetica,sans-Serif" font-size="10.00">_constant</text>
</a>
</g>
</g>
<!-- Node2 -->
<g id="Node000002" class="node">
<title>Node2</title>
<g id="a_Node000002"><a xlink:href="kest__expression_8c.html#a12b486853cdfbc5ca334e74f9a90de2b" target="_top" xlink:title=" ">
<polygon fill="white" stroke="#666666" points="500.25,-236.5 357.5,-236.5 357.5,-203 500.25,-203 500.25,-236.5"/>
<text xml:space="preserve" text-anchor="start" x="365.5" y="-223" font-family="Helvetica,sans-Serif" font-size="10.00">kest_expression_compute</text>
<text xml:space="preserve" text-anchor="middle" x="428.88" y="-210.25" font-family="Helvetica,sans-Serif" font-size="10.00">_range_rec</text>
</a>
</g>
</g>
<!-- Node1&#45;&gt;Node2 -->
<g id="edge1_Node000001_Node000002" class="edge">
<title>Node1&#45;&gt;Node2</title>
<g id="a_edge1_Node000001_Node000002"><a xlink:title=" ">
<path fill="none" stroke="#63b8ff" d="M552.11,-171.49C535.78,-178.79 517.3,-186.83 500.25,-193.75 493.01,-196.69 485.3,-199.68 477.73,-202.53"/>
<polygon fill="#63b8ff" stroke="#63b8ff" points="553.44,-174.73 561.13,-167.44 550.57,-168.35 553.44,-174.73"/>
</a>
</g>
</g>
<!-- Node13 -->
<g id="Node000013" class="node">
<title>Node13</title>
<g id="a_Node000013"><a xlink:href="kest__expression_8c.html#a620430bdb724fe4055dd713964c5be27" target="_top" xlink:title=" ">
<polygon fill="white" stroke="#666666" points="494.25,-166.5 363.5,-166.5 363.5,-133 494.25,-133 494.25,-166.5"/>
<text xml:space="preserve" text-anchor="start" x="371.5" y="-153" font-family="Helvetica,sans-Serif" font-size="10.00">kest_expression_detect</text>
<text xml:space="preserve" text-anchor="middle" x="428.88" y="-140.25" font-family="Helvetica,sans-Serif" font-size="10.00">_constants_rec</text>
</a>
</g>
</g>
<!-- Node1&#45;&gt;Node13 -->
<g id="edge5_Node000001_Node000013" class="edge">
<title>Node1&#45;&gt;Node13</title>
<g id="a_edge5_Node000001_Node000013"><a xlink:title=" ">
<path fill="none" stroke="#63b8ff" d="M524.37,-149.75C514.48,-149.75 504.42,-149.75 494.72,-149.75"/>
<polygon fill="#63b8ff" stroke="#63b8ff" points="524.34,-153.25 534.34,-149.75 524.34,-146.25 524.34,-153.25"/>
</a>
</g>
</g>
<!-- Node26 -->
<g id="Node000026" class="node">
<title>Node26</title>
<g id="a_Node000026"><a xlink:href="kest__expression_8c.html#a5f426c56ff63e0e740b12dbb629b89db" target="_top" xlink:title=" ">
<polygon fill="white" stroke="#666666" points="483,-101.5 374.75,-101.5 374.75,-68 483,-68 483,-101.5"/>
<text xml:space="preserve" text-anchor="start" x="382.75" y="-88" font-family="Helvetica,sans-Serif" font-size="10.00">kest_expression_is</text>
<text xml:space="preserve" text-anchor="middle" x="428.88" y="-75.25" font-family="Helvetica,sans-Serif" font-size="10.00">_constant</text>
</a>
</g>
</g>
<!-- Node1&#45;&gt;Node26 -->
<g id="edge9_Node000001_Node000026" class="edge">
<title>Node1&#45;&gt;Node26</title>
<g id="a_edge9_Node000001_Node000026"><a xlink:title=" ">
<path fill="none" stroke="#63b8ff" d="M543.78,-128.4C521.41,-119.83 495.96,-110.07 474.8,-101.97"/>
<polygon fill="#63b8ff" stroke="#63b8ff" points="542.49,-131.65 553.08,-131.96 544.99,-125.11 542.49,-131.65"/>
</a>
</g>
</g>
<!-- Node2&#45;&gt;Node2 -->
<g id="edge4_Node000002_Node000002" class="edge">
<title>Node2&#45;&gt;Node2</title>
<g id="a_edge4_Node000002_Node000002"><a xlink:title=" ">
<path fill="none" stroke="#63b8ff" d="M457.69,-247.89C453,-251.85 443.39,-254.5 428.88,-254.5 403.06,-254.5 392.78,-246.12 398.02,-236.91"/>
<polygon fill="#63b8ff" stroke="#63b8ff" points="461.07,-248.87 459.45,-238.4 454.19,-247.6 461.07,-248.87"/>
</a>
</g>
</g>
<!-- Node3 -->
<g id="Node000003" class="node">
<title>Node3</title>
<g id="a_Node000003"><a xlink:href="kest__expression_8c.html#a5f48e88077ddcd3c3de79b597094a3ef" target="_top" xlink:title=" ">
<polygon fill="white" stroke="#666666" points="321.5,-236.5 178.75,-236.5 178.75,-203 321.5,-203 321.5,-236.5"/>
<text xml:space="preserve" text-anchor="start" x="186.75" y="-223" font-family="Helvetica,sans-Serif" font-size="10.00">kest_expression_compute</text>
<text xml:space="preserve" text-anchor="middle" x="250.12" y="-210.25" font-family="Helvetica,sans-Serif" font-size="10.00">_range</text>
</a>
</g>
</g>
<!-- Node2&#45;&gt;Node3 -->
<g id="edge2_Node000002_Node000003" class="edge">
<title>Node2&#45;&gt;Node3</title>
<g id="a_edge2_Node000002_Node000003"><a xlink:title=" ">
<path fill="none" stroke="#63b8ff" d="M345.73,-219.75C337.71,-219.75 329.62,-219.75 321.73,-219.75"/>
<polygon fill="#63b8ff" stroke="#63b8ff" points="345.49,-223.25 355.49,-219.75 345.49,-216.25 345.49,-223.25"/>
</a>
</g>
</g>
<!-- Node4 -->
<g id="Node000004" class="node">
<title>Node4</title>
<g id="a_Node000004"><a xlink:href="kest__fixed__point_8c.html#ac5145d24cb0e25a237f9c8d30b8fc0d2" target="_top" xlink:title=" ">
<polygon fill="#fff0f0" stroke="red" points="142.75,-236.5 0,-236.5 0,-203 142.75,-203 142.75,-236.5"/>
<text xml:space="preserve" text-anchor="start" x="8" y="-223" font-family="Helvetica,sans-Serif" font-size="10.00">kest_expression_compute</text>
<text xml:space="preserve" text-anchor="middle" x="71.38" y="-210.25" font-family="Helvetica,sans-Serif" font-size="10.00">_format</text>
</a>
</g>
</g>
<!-- Node3&#45;&gt;Node4 -->
<g id="edge3_Node000003_Node000004" class="edge">
<title>Node3&#45;&gt;Node4</title>
<g id="a_edge3_Node000003_Node000004"><a xlink:title=" ">
<path fill="none" stroke="#63b8ff" d="M166.98,-219.75C158.96,-219.75 150.87,-219.75 142.98,-219.75"/>
<polygon fill="#63b8ff" stroke="#63b8ff" points="166.74,-223.25 176.74,-219.75 166.74,-216.25 166.74,-223.25"/>
</a>
</g>
</g>
<!-- Node13&#45;&gt;Node13 -->
<g id="edge8_Node000013_Node000013" class="edge">
<title>Node13&#45;&gt;Node13</title>
<g id="a_edge8_Node000013_Node000013"><a xlink:title=" ">
<path fill="none" stroke="#63b8ff" d="M457.69,-177.89C453,-181.85 443.39,-184.5 428.88,-184.5 403.06,-184.5 392.78,-176.12 398.02,-166.91"/>
<polygon fill="#63b8ff" stroke="#63b8ff" points="461.07,-178.87 459.45,-168.4 454.19,-177.6 461.07,-178.87"/>
</a>
</g>
</g>
<!-- Node14 -->
<g id="Node000014" class="node">
<title>Node14</title>
<g id="a_Node000014"><a xlink:href="kest__expression_8c.html#a10e88ee8970dd7501341b9d5ea0c3cba" target="_top" xlink:title=" ">
<polygon fill="white" stroke="#666666" points="315.5,-175.5 184.75,-175.5 184.75,-142 315.5,-142 315.5,-175.5"/>
<text xml:space="preserve" text-anchor="start" x="192.75" y="-162" font-family="Helvetica,sans-Serif" font-size="10.00">kest_expression_detect</text>
<text xml:space="preserve" text-anchor="middle" x="250.12" y="-149.25" font-family="Helvetica,sans-Serif" font-size="10.00">_constants</text>
</a>
</g>
</g>
<!-- Node13&#45;&gt;Node14 -->
<g id="edge6_Node000013_Node000014" class="edge">
<title>Node13&#45;&gt;Node14</title>
<g id="a_edge6_Node000013_Node000014"><a xlink:title=" ">
<path fill="none" stroke="#63b8ff" d="M351.75,-153.63C339.81,-154.23 327.58,-154.86 315.93,-155.45"/>
<polygon fill="#63b8ff" stroke="#63b8ff" points="351.74,-157.13 361.55,-153.13 351.39,-150.14 351.74,-157.13"/>
</a>
</g>
</g>
<!-- Node15 -->
<g id="Node000015" class="node">
<title>Node15</title>
<g id="a_Node000015"><a xlink:href="kest__expr__parser_8c.html#a7caaee6c8b0c14b3ff08fba98d837ead" target="_top" xlink:title=" ">
<polygon fill="#fff0f0" stroke="red" points="134.88,-169.12 7.87,-169.12 7.87,-148.38 134.88,-148.38 134.88,-169.12"/>
<text xml:space="preserve" text-anchor="middle" x="71.38" y="-155.62" font-family="Helvetica,sans-Serif" font-size="10.00">kest_parse_expression</text>
</a>
</g>
</g>
<!-- Node14&#45;&gt;Node15 -->
<g id="edge7_Node000014_Node000015" class="edge">
<title>Node14&#45;&gt;Node15</title>
<g id="a_edge7_Node000014_Node000015"><a xlink:title=" ">
<path fill="none" stroke="#63b8ff" d="M172.87,-158.75C160.27,-158.75 147.33,-158.75 135.12,-158.75"/>
<polygon fill="#63b8ff" stroke="#63b8ff" points="172.8,-162.25 182.8,-158.75 172.8,-155.25 172.8,-162.25"/>
</a>
</g>
</g>
<!-- Node27 -->
<g id="Node000027" class="node">
<title>Node27</title>
<g id="a_Node000027"><a xlink:href="kest__dict__extract_8c.html#aaef489a5ae1caa02a5e5a3ce26034d48" target="_top" xlink:title=" ">
<polygon fill="white" stroke="#666666" points="316.62,-123.5 183.62,-123.5 183.62,-90 316.62,-90 316.62,-123.5"/>
<text xml:space="preserve" text-anchor="start" x="191.62" y="-110" font-family="Helvetica,sans-Serif" font-size="10.00">kest_extract_int_setting</text>
<text xml:space="preserve" text-anchor="middle" x="250.12" y="-97.25" font-family="Helvetica,sans-Serif" font-size="10.00">_from_dict</text>
</a>
</g>
</g>
<!-- Node26&#45;&gt;Node27 -->
<g id="edge10_Node000026_Node000027" class="edge">
<title>Node26&#45;&gt;Node27</title>
<g id="a_edge10_Node000026_Node000027"><a xlink:title=" ">
<path fill="none" stroke="#63b8ff" d="M363.09,-92.81C348.05,-94.69 332.03,-96.68 316.95,-98.56"/>
<polygon fill="#63b8ff" stroke="#63b8ff" points="363.37,-96.31 372.86,-91.6 362.51,-89.36 363.37,-96.31"/>
</a>
</g>
</g>
<!-- Node28 -->
<g id="Node000028" class="node">
<title>Node28</title>
<g id="a_Node000028"><a xlink:href="kest__dict__extract_8c.html#a0225c4392c944b41b1db66787be35243" target="_top" xlink:title=" ">
<polygon fill="#fff0f0" stroke="red" points="128.88,-104.5 13.88,-104.5 13.88,-71 128.88,-71 128.88,-104.5"/>
<text xml:space="preserve" text-anchor="start" x="21.88" y="-91" font-family="Helvetica,sans-Serif" font-size="10.00">kest_extract_setting</text>
<text xml:space="preserve" text-anchor="middle" x="71.38" y="-78.25" font-family="Helvetica,sans-Serif" font-size="10.00">_from_dict</text>
</a>
</g>
</g>
<!-- Node26&#45;&gt;Node28 -->
<g id="edge14_Node000026_Node000028" class="edge">
<title>Node26&#45;&gt;Node28</title>
<g id="a_edge14_Node000026_Node000028"><a xlink:title=" ">
<path fill="none" stroke="#63b8ff" d="M363,-81.92C349.3,-81.43 334.93,-81 321.5,-80.75 258.07,-79.56 242.16,-78.67 178.75,-80.75 162.66,-81.28 145.22,-82.26 129.2,-83.32"/>
<polygon fill="#63b8ff" stroke="#63b8ff" points="362.68,-85.41 372.8,-82.29 362.94,-78.42 362.68,-85.41"/>
</a>
</g>
</g>
<!-- Node30 -->
<g id="Node000030" class="node">
<title>Node30</title>
<g id="a_Node000030"><a xlink:href="kest__dict__extract_8c.html#aaf0af9bba0940d4cfe5a8286222f14be" target="_top" xlink:title=" ">
<polygon fill="white" stroke="#666666" points="316.25,-33.5 184,-33.5 184,0 316.25,0 316.25,-33.5"/>
<text xml:space="preserve" text-anchor="start" x="192" y="-20" font-family="Helvetica,sans-Serif" font-size="10.00">kest_extract_parameter</text>
<text xml:space="preserve" text-anchor="middle" x="250.12" y="-7.25" font-family="Helvetica,sans-Serif" font-size="10.00">_from_dict</text>
</a>
</g>
</g>
<!-- Node26&#45;&gt;Node30 -->
<g id="edge12_Node000026_Node000030" class="edge">
<title>Node26&#45;&gt;Node30</title>
<g id="a_edge12_Node000026_Node000030"><a xlink:title=" ">
<path fill="none" stroke="#63b8ff" d="M372.58,-63.48C347.84,-53.96 319.05,-42.88 295.71,-33.9"/>
<polygon fill="#63b8ff" stroke="#63b8ff" points="371.27,-66.72 381.86,-67.05 373.78,-60.19 371.27,-66.72"/>
</a>
</g>
</g>
<!-- Node27&#45;&gt;Node28 -->
<g id="edge11_Node000027_Node000028" class="edge">
<title>Node27&#45;&gt;Node28</title>
<g id="a_edge11_Node000027_Node000028"><a xlink:title=" ">
<path fill="none" stroke="#63b8ff" d="M171.92,-98.45C157.58,-96.91 142.84,-95.32 129.25,-93.86"/>
<polygon fill="#63b8ff" stroke="#63b8ff" points="171.49,-101.92 181.8,-99.51 172.24,-94.96 171.49,-101.92"/>
</a>
</g>
</g>
<!-- Node31 -->
<g id="Node000031" class="node">
<title>Node31</title>
<g id="a_Node000031"><a xlink:href="kest__eff__section_8c.html#a5fe6d5cd354aa8f4322524ecc9b6af63" target="_top" xlink:title=" ">
<polygon fill="#fff0f0" stroke="red" points="140.5,-33.5 2.25,-33.5 2.25,0 140.5,0 140.5,-33.5"/>
<text xml:space="preserve" text-anchor="start" x="10.25" y="-20" font-family="Helvetica,sans-Serif" font-size="10.00">kest_parameters_section</text>
<text xml:space="preserve" text-anchor="middle" x="71.38" y="-7.25" font-family="Helvetica,sans-Serif" font-size="10.00">_extract</text>
</a>
</g>
</g>
<!-- Node30&#45;&gt;Node31 -->
<g id="edge13_Node000030_Node000031" class="edge">
<title>Node30&#45;&gt;Node31</title>
<g id="a_edge13_Node000030_Node000031"><a xlink:title=" ">
<path fill="none" stroke="#63b8ff" d="M172.3,-16.75C161.82,-16.75 151.11,-16.75 140.79,-16.75"/>
<polygon fill="#63b8ff" stroke="#63b8ff" points="172.05,-20.25 182.05,-16.75 172.05,-13.25 172.05,-20.25"/>
</a>
</g>
</g>
</g>
</svg>

<g id="navigator" transform="translate(0 0)" fill="#404254">
  <rect fill="#f2f5e9" fill-opacity="0.5" stroke="#606060" stroke-width=".5" x="0" y="0" width="60" height="60"/>
  <use id="zoomplus" xlink:href="#zoomPlus" x="17" y="9" onmousedown="handleZoom(evt,'in')"/>
  <use id="zoomminus" xlink:href="#zoomMin" x="42" y="9" onmousedown="handleZoom(evt,'out')"/>
  <use id="reset" xlink:href="#resetDef" x="30" y="36" onmousedown="handleReset()"/>
   <use id="arrowup" xlink:href="#arrowUp" x="0" y="0" onmousedown="handlePan(0,-1)"/>
  <use id="arrowright" xlink:href="#arrowRight" x="0" y="0" onmousedown="handlePan(1,0)"/>
  <use id="arrowdown" xlink:href="#arrowDown" x="0" y="0" onmousedown="handlePan(0,1)"/>
  <use id="arrowleft" xlink:href="#arrowLeft" x="0" y="0" onmousedown="handlePan(-1,0)"/>
</g>
<svg viewBox="0 0 15 15" width="100%" height="30px" preserveAspectRatio="xMaxYMin meet">
 <g id="arrow_out" transform="scale(0.3 0.3)">
  <a xlink:href="kest__expression_8c_af12e3464d3e6c4a6e573736af368fd91_icgraph_org.svg" target="_base">
   <rect id="button" ry="5" rx="5" y="6" x="6" height="38" width="38"
        fill="#f2f5e9" fill-opacity="0.5" stroke="#606060" stroke-width="1.0"/>
   <path id="arrow"
     d="M 11.500037,31.436501 C 11.940474,20.09759 22.043105,11.32322 32.158766,21.979434 L 37.068811,17.246167 C 37.068811,17.246167 37.088388,32 37.088388,32 L 22.160133,31.978069 C 22.160133,31.978069 26.997745,27.140456 26.997745,27.140456 C 18.528582,18.264221 13.291696,25.230495 11.500037,31.436501 z"
     style="fill:#404040;"/>
  </a>
 </g>
</svg>

<style type='text/css'>
<![CDATA[
[data-mouse-over-selected='false'] { opacity: 0.7; }
[data-mouse-over-selected='true']  { opacity: 1.0; }
]]>
</style>
<script type="application/ecmascript"><![CDATA[
document.addEventListener('DOMContentLoaded', (event) => {
  highlightEdges();
  highlightAdjacentNodes();
});
]]></script>
</svg>
