<?xml version="1.0" encoding="UTF-8" standalone="no"?>
<!DOCTYPE svg PUBLIC "-//W3C//DTD SVG 1.1//EN"
 "http://www.w3.org/Graphics/SVG/1.1/DTD/svg11.dtd">
<!-- Generated by graphviz version 13.1.2 (20250808.2320)
 -->
<!-- Title: kest_active_button_trigger_delete_anim Pages: 1 -->
<svg width="625pt" height="176pt"
 viewBox="0.00 0.00 625.00 176.00" xmlns="http://www.w3.org/2000/svg" xmlns:xlink="http://www.w3.org/1999/xlink">
<g id="graph0" class="graph" transform="scale(1 1) rotate(0) translate(4 172.12)">
<title>kest_active_button_trigger_delete_anim</title>
<!-- Node1 -->
<g id="Node000001" class="node">
<title>Node1</title>
<g id="a_Node000001"><a xlink:title=" ">
<polygon fill="#999999" stroke="#666666" points="119.5,-142.12 0,-142.12 0,-108.62 119.5,-108.62 119.5,-142.12"/>
<text xml:space="preserve" text-anchor="start" x="8" y="-128.62" font-family="Helvetica,sans-Serif" font-size="10.00">kest_active_button</text>
<text xml:space="preserve" text-anchor="middle" x="59.75" y="-115.88" font-family="Helvetica,sans-Serif" font-size="10.00">_trigger_delete_anim</text>
</a>
</g>
</g>
<!-- Node2 -->
<g id="Node000002" class="node">
<title>Node2</title>
<g id="a_Node000002"><a xlink:href="kest__button_8c.html#a502d7acdf8c2860c2f7e7ab0bd345fa4" target="_top" xlink:title=" ">
<polygon fill="white" stroke="#666666" points="275.38,-168.12 167.12,-168.12 167.12,-134.62 275.38,-134.62 275.38,-168.12"/>
<text xml:space="preserve" text-anchor="start" x="175.12" y="-154.62" font-family="Helvetica,sans-Serif" font-size="10.00">kest_active_button</text>
<text xml:space="preserve" text-anchor="middle" x="221.25" y="-141.88" font-family="Helvetica,sans-Serif" font-size="10.00">_delete_anim_cb</text>
</a>
</g>
</g>
<!-- Node1&#45;&gt;Node2 -->
<g id="edge1_Node000001_Node000002" class="edge">
<title>Node1&#45;&gt;Node2</title>
<g id="a_edge1_Node000001_Node000002"><a xlink:title=" ">
<path fill="none" stroke="#63b8ff" d="M119.69,-134.98C131.39,-136.89 143.73,-138.9 155.61,-140.84"/>
<polygon fill="#63b8ff" stroke="#63b8ff" points="154.9,-144.27 165.33,-142.42 156.02,-137.36 154.9,-144.27"/>
</a>
</g>
</g>
<!-- Node4 -->
<g id="Node000004" class="node">
<title>Node4</title>
<g id="a_Node000004"><a xlink:href="kest__button_8c.html#a843f20f7c8521fa0694f8cf2622afa96" target="_top" xlink:title=" ">
<polygon fill="white" stroke="#666666" points="287,-116.12 155.5,-116.12 155.5,-82.62 287,-82.62 287,-116.12"/>
<text xml:space="preserve" text-anchor="start" x="163.5" y="-102.62" font-family="Helvetica,sans-Serif" font-size="10.00">kest_active_button</text>
<text xml:space="preserve" text-anchor="middle" x="221.25" y="-89.88" font-family="Helvetica,sans-Serif" font-size="10.00">_delete_anim_ready_cb</text>
</a>
</g>
</g>
<!-- Node1&#45;&gt;Node4 -->
<g id="edge3_Node000001_Node000004" class="edge">
<title>Node1&#45;&gt;Node4</title>
<g id="a_edge3_Node000001_Node000004"><a xlink:title=" ">
<path fill="none" stroke="#63b8ff" d="M119.69,-115.77C127.62,-114.47 135.85,-113.13 144.02,-111.8"/>
<polygon fill="#63b8ff" stroke="#63b8ff" points="144.31,-115.3 153.62,-110.24 143.18,-108.39 144.31,-115.3"/>
</a>
</g>
</g>
<!-- Node3 -->
<g id="Node000003" class="node">
<title>Node3</title>
<g id="a_Node000003"><a xlink:href="kest__button_8c.html#a2835584385bb5d418a3ca596aa0ef5b1" target="_top" xlink:title=" ">
<polygon fill="white" stroke="#666666" points="457.5,-161.75 323,-161.75 323,-141 457.5,-141 457.5,-161.75"/>
<text xml:space="preserve" text-anchor="middle" x="390.25" y="-148.25" font-family="Helvetica,sans-Serif" font-size="10.00">kest_button_set_opacity</text>
</a>
</g>
</g>
<!-- Node2&#45;&gt;Node3 -->
<g id="edge2_Node000002_Node000003" class="edge">
<title>Node2&#45;&gt;Node3</title>
<g id="a_edge2_Node000002_Node000003"><a xlink:title=" ">
<path fill="none" stroke="#63b8ff" d="M275.55,-151.38C286.91,-151.38 299.12,-151.38 311.19,-151.38"/>
<polygon fill="#63b8ff" stroke="#63b8ff" points="311.17,-154.88 321.17,-151.38 311.17,-147.88 311.17,-154.88"/>
</a>
</g>
</g>
<!-- Node5 -->
<g id="Node000005" class="node">
<title>Node5</title>
<g id="a_Node000005"><a xlink:href="kest__button_8c.html#afeb80361807e202da0343dedeff8aa66" target="_top" xlink:title=" ">
<polygon fill="white" stroke="#666666" points="444.38,-120.12 336.12,-120.12 336.12,-86.62 444.38,-86.62 444.38,-120.12"/>
<text xml:space="preserve" text-anchor="start" x="344.12" y="-106.62" font-family="Helvetica,sans-Serif" font-size="10.00">kest_active_button</text>
<text xml:space="preserve" text-anchor="middle" x="390.25" y="-93.88" font-family="Helvetica,sans-Serif" font-size="10.00">_array_remove</text>
</a>
</g>
</g>
<!-- Node4&#45;&gt;Node5 -->
<g id="edge4_Node000004_Node000005" class="edge">
<title>Node4&#45;&gt;Node5</title>
<g id="a_edge4_Node000004_Node000005"><a xlink:title=" ">
<path fill="none" stroke="#63b8ff" d="M287.29,-100.93C299.44,-101.22 312.13,-101.53 324.28,-101.82"/>
<polygon fill="#63b8ff" stroke="#63b8ff" points="324.12,-105.32 334.2,-102.06 324.29,-98.32 324.12,-105.32"/>
</a>
</g>
</g>
<!-- Node10 -->
<g id="Node000010" class="node">
<title>Node10</title>
<g id="a_Node000010"><a xlink:href="kest__button_8c.html#aceb82072ec06c6a63805432216adb376" target="_top" xlink:title=" ">
<polygon fill="white" stroke="#666666" points="456.75,-59.75 323.75,-59.75 323.75,-39 456.75,-39 456.75,-59.75"/>
<text xml:space="preserve" text-anchor="middle" x="390.25" y="-46.25" font-family="Helvetica,sans-Serif" font-size="10.00">kest_active_button_free</text>
</a>
</g>
</g>
<!-- Node4&#45;&gt;Node10 -->
<g id="edge6_Node000004_Node000010" class="edge">
<title>Node4&#45;&gt;Node10</title>
<g id="a_edge6_Node000004_Node000010"><a xlink:title=" ">
<path fill="none" stroke="#63b8ff" d="M279.72,-82.17C300.07,-76.08 322.71,-69.3 342.1,-63.49"/>
<polygon fill="#63b8ff" stroke="#63b8ff" points="343.07,-66.85 351.65,-60.63 341.07,-60.15 343.07,-66.85"/>
</a>
</g>
</g>
<!-- Node6 -->
<g id="Node000006" class="node">
<title>Node6</title>
<g id="a_Node000006"><a xlink:href="kest__button_8c.html#a69c55e9f6142d27a7c4c7cd257041efa" target="_top" xlink:title=" ">
<polygon fill="#fff0f0" stroke="red" points="609.25,-129.12 501,-129.12 501,-95.62 609.25,-95.62 609.25,-129.12"/>
<text xml:space="preserve" text-anchor="start" x="509" y="-115.62" font-family="Helvetica,sans-Serif" font-size="10.00">kest_active_button</text>
<text xml:space="preserve" text-anchor="middle" x="555.12" y="-102.88" font-family="Helvetica,sans-Serif" font-size="10.00">_set_index</text>
</a>
</g>
</g>
<!-- Node5&#45;&gt;Node6 -->
<g id="edge5_Node000005_Node000006" class="edge">
<title>Node5&#45;&gt;Node6</title>
<g id="a_edge5_Node000005_Node000006"><a xlink:title=" ">
<path fill="none" stroke="#63b8ff" d="M444.58,-106.32C458.92,-107.11 474.59,-107.98 489.48,-108.8"/>
<polygon fill="#63b8ff" stroke="#63b8ff" points="488.98,-112.28 499.16,-109.34 489.37,-105.29 488.98,-112.28"/>
</a>
</g>
</g>
<!-- Node11 -->
<g id="Node000011" class="node">
<title>Node11</title>
<g id="a_Node000011"><a xlink:href="kest__button_8c.html#a5d3971a16772f47d5d5178004c93ca9b" target="_top" xlink:title=" ">
<polygon fill="white" stroke="#666666" points="616.75,-59.75 493.5,-59.75 493.5,-39 616.75,-39 616.75,-59.75"/>
<text xml:space="preserve" text-anchor="middle" x="555.12" y="-46.25" font-family="Helvetica,sans-Serif" font-size="10.00">kest_button_delete_ui</text>
</a>
</g>
</g>
<!-- Node10&#45;&gt;Node11 -->
<g id="edge7_Node000010_Node000011" class="edge">
<title>Node10&#45;&gt;Node11</title>
<g id="a_edge7_Node000010_Node000011"><a xlink:title=" ">
<path fill="none" stroke="#63b8ff" d="M457.03,-49.38C465.13,-49.38 473.45,-49.38 481.64,-49.38"/>
<polygon fill="#63b8ff" stroke="#63b8ff" points="481.59,-52.88 491.59,-49.38 481.59,-45.88 481.59,-52.88"/>
</a>
</g>
</g>
<!-- Node12 -->
<g id="Node000012" class="node">
<title>Node12</title>
<g id="a_Node000012"><a xlink:href="kest__alloc_8c.html#a294af5728a94aa316fcf65304d388d48" target="_top" xlink:title=" ">
<polygon fill="white" stroke="#666666" points="585.62,-20.75 524.62,-20.75 524.62,0 585.62,0 585.62,-20.75"/>
<text xml:space="preserve" text-anchor="middle" x="555.12" y="-7.25" font-family="Helvetica,sans-Serif" font-size="10.00">kest_free</text>
</a>
</g>
</g>
<!-- Node10&#45;&gt;Node12 -->
<g id="edge9_Node000010_Node000012" class="edge">
<title>Node10&#45;&gt;Node12</title>
<g id="a_edge9_Node000010_Node000012"><a xlink:title=" ">
<path fill="none" stroke="#63b8ff" d="M436.62,-38.51C460.73,-32.74 490.11,-25.7 513.47,-20.11"/>
<polygon fill="#63b8ff" stroke="#63b8ff" points="514.02,-23.58 522.93,-17.84 512.39,-16.77 514.02,-23.58"/>
</a>
</g>
</g>
<!-- Node11&#45;&gt;Node11 -->
<g id="edge8_Node000011_Node000011" class="edge">
<title>Node11&#45;&gt;Node11</title>
<g id="a_edge8_Node000011_Node000011"><a xlink:title=" ">
<path fill="none" stroke="#63b8ff" d="M528.56,-60.15C517.93,-68.81 526.79,-77.75 555.12,-77.75 570.62,-77.75 580.29,-75.08 584.14,-71.24"/>
<polygon fill="#63b8ff" stroke="#63b8ff" points="587.59,-70.64 582.02,-61.63 580.75,-72.14 587.59,-70.64"/>
</a>
</g>
</g>
</g>
</svg>
