<?xml version="1.0" encoding="UTF-8" standalone="no"?>
<!DOCTYPE svg PUBLIC "-//W3C//DTD SVG 1.1//EN"
 "http://www.w3.org/Graphics/SVG/1.1/DTD/svg11.dtd">
<!-- Generated by graphviz version 13.1.2 (20250808.2320)
 -->
<!-- Title: kest_init_global_pages Pages: 1 -->
<svg width="956pt" height="957pt"
 viewBox="0.00 0.00 956.00 957.00" xmlns="http://www.w3.org/2000/svg" xmlns:xlink="http://www.w3.org/1999/xlink">
<g id="graph0" class="graph" transform="scale(1 1) rotate(0) translate(4 953.48)">
<title>kest_init_global_pages</title>
<!-- Node1 -->
<g id="Node000001" class="node">
<title>Node1</title>
<g id="a_Node000001"><a xlink:title=" ">
<polygon fill="#999999" stroke="#666666" points="127,-419.48 0,-419.48 0,-398.73 127,-398.73 127,-419.48"/>
<text xml:space="preserve" text-anchor="middle" x="63.5" y="-405.98" font-family="Helvetica,sans-Serif" font-size="10.00">kest_init_global_pages</text>
</a>
</g>
</g>
<!-- Node2 -->
<g id="Node000002" class="node">
<title>Node2</title>
<g id="a_Node000002"><a xlink:href="kest__menu_8c.html#a6aa16fb3d12f098f021ae677605e683e" target="_top" xlink:title=" ">
<polygon fill="white" stroke="#666666" points="417,-546.48 322.25,-546.48 322.25,-525.73 417,-525.73 417,-546.48"/>
<text xml:space="preserve" text-anchor="middle" x="369.62" y="-532.98" font-family="Helvetica,sans-Serif" font-size="10.00">init_main_menu</text>
</a>
</g>
</g>
<!-- Node1&#45;&gt;Node2 -->
<g id="edge1_Node000001_Node000002" class="edge">
<title>Node1&#45;&gt;Node2</title>
<g id="a_edge1_Node000001_Node000002"><a xlink:title=" ">
<path fill="none" stroke="#63b8ff" d="M90.43,-419.94C144.63,-442.57 270.05,-494.94 332.27,-520.92"/>
<polygon fill="#63b8ff" stroke="#63b8ff" points="330.79,-524.1 341.36,-524.72 333.49,-517.64 330.79,-524.1"/>
</a>
</g>
</g>
<!-- Node59 -->
<g id="Node000059" class="node">
<title>Node59</title>
<g id="a_Node000059"><a xlink:href="kest__sequence__list_8c.html#a0e869118af43741e3d4db628d5c414fe" target="_top" xlink:title=" ">
<polygon fill="white" stroke="#666666" points="266.75,-381.48 163,-381.48 163,-360.73 266.75,-360.73 266.75,-381.48"/>
<text xml:space="preserve" text-anchor="middle" x="214.88" y="-367.98" font-family="Helvetica,sans-Serif" font-size="10.00">init_sequence_list</text>
</a>
</g>
</g>
<!-- Node1&#45;&gt;Node59 -->
<g id="edge27_Node000001_Node000059" class="edge">
<title>Node1&#45;&gt;Node59</title>
<g id="a_edge27_Node000001_Node000059"><a xlink:title=" ">
<path fill="none" stroke="#63b8ff" d="M106.91,-398.32C123.62,-394.07 143,-389.14 160.65,-384.65"/>
<polygon fill="#63b8ff" stroke="#63b8ff" points="161.07,-388.15 169.9,-382.3 159.34,-381.37 161.07,-388.15"/>
</a>
</g>
</g>
<!-- Node242 -->
<g id="Node000242" class="node">
<title>Node242</title>
<g id="a_Node000242"><a xlink:href="kest__sequence__view_8c.html#aca115eba822b7486dc289cc9150562a7" target="_top" xlink:title=" ">
<polygon fill="#fff0f0" stroke="red" points="425.62,-390.48 313.62,-390.48 313.62,-369.73 425.62,-369.73 425.62,-390.48"/>
<text xml:space="preserve" text-anchor="middle" x="369.62" y="-376.98" font-family="Helvetica,sans-Serif" font-size="10.00">init_sequence_view</text>
</a>
</g>
</g>
<!-- Node1&#45;&gt;Node242 -->
<g id="edge53_Node000001_Node000242" class="edge">
<title>Node1&#45;&gt;Node242</title>
<g id="a_edge53_Node000001_Node000242"><a xlink:title=" ">
<path fill="none" stroke="#63b8ff" d="M127.37,-403.27C167.29,-399.55 220.06,-394.59 266.75,-390.11 278.21,-389.01 290.4,-387.82 302.21,-386.67"/>
<polygon fill="#63b8ff" stroke="#63b8ff" points="302.26,-390.18 311.87,-385.72 301.58,-383.21 302.26,-390.18"/>
</a>
</g>
</g>
<!-- Node3 -->
<g id="Node000003" class="node">
<title>Node3</title>
<g id="a_Node000003"><a xlink:href="kest__menu_8c.html#a86c6c0acd2dfb8a62bd96bbfd739e687" target="_top" xlink:title=" ">
<polygon fill="white" stroke="#666666" points="597.25,-546.48 472.5,-546.48 472.5,-525.73 597.25,-525.73 597.25,-546.48"/>
<text xml:space="preserve" text-anchor="middle" x="534.88" y="-532.98" font-family="Helvetica,sans-Serif" font-size="10.00">configure_main_menu</text>
</a>
</g>
</g>
<!-- Node2&#45;&gt;Node3 -->
<g id="edge2_Node000002_Node000003" class="edge">
<title>Node2&#45;&gt;Node3</title>
<g id="a_edge2_Node000002_Node000003"><a xlink:title=" ">
<path fill="none" stroke="#63b8ff" d="M417.41,-536.11C431,-536.11 446.17,-536.11 460.96,-536.11"/>
<polygon fill="#63b8ff" stroke="#63b8ff" points="460.65,-539.61 470.65,-536.11 460.65,-532.61 460.65,-539.61"/>
</a>
</g>
</g>
<!-- Node36 -->
<g id="Node000036" class="node">
<title>Node36</title>
<g id="a_Node000036"><a xlink:href="kest__menu_8c.html#ad08fcb7356b59af639c394da31d8f446" target="_top" xlink:title=" ">
<polygon fill="white" stroke="#666666" points="596.88,-866.48 472.88,-866.48 472.88,-845.73 596.88,-845.73 596.88,-866.48"/>
<text xml:space="preserve" text-anchor="middle" x="534.88" y="-852.98" font-family="Helvetica,sans-Serif" font-size="10.00">create_main_menu_ui</text>
</a>
</g>
</g>
<!-- Node2&#45;&gt;Node36 -->
<g id="edge18_Node000002_Node000036" class="edge">
<title>Node2&#45;&gt;Node36</title>
<g id="a_edge18_Node000002_Node000036"><a xlink:title=" ">
<path fill="none" stroke="#63b8ff" d="M376.06,-546.75C399.44,-592.59 491.78,-773.59 523.28,-835.34"/>
<polygon fill="#63b8ff" stroke="#63b8ff" points="520.07,-836.76 527.74,-844.07 526.31,-833.57 520.07,-836.76"/>
</a>
</g>
</g>
<!-- Node57 -->
<g id="Node000057" class="node">
<title>Node57</title>
<g id="a_Node000057"><a xlink:href="kest__menu_8c.html#ad39524fe8d62cff7c8e4c1d041b0dd61" target="_top" xlink:title=" ">
<polygon fill="white" stroke="#666666" points="587.12,-642.48 482.62,-642.48 482.62,-621.73 587.12,-621.73 587.12,-642.48"/>
<text xml:space="preserve" text-anchor="middle" x="534.88" y="-628.98" font-family="Helvetica,sans-Serif" font-size="10.00">enter_main_menu</text>
</a>
</g>
</g>
<!-- Node2&#45;&gt;Node57 -->
<g id="edge25_Node000002_Node000057" class="edge">
<title>Node2&#45;&gt;Node57</title>
<g id="a_edge25_Node000002_Node000057"><a xlink:title=" ">
<path fill="none" stroke="#63b8ff" d="M382.3,-546.86C400.39,-563.02 436.84,-593.63 472.5,-612.11 475.99,-613.92 479.67,-615.6 483.43,-617.17"/>
<polygon fill="#63b8ff" stroke="#63b8ff" points="482.13,-620.42 492.72,-620.72 484.63,-613.88 482.13,-620.42"/>
</a>
</g>
</g>
<!-- Node58 -->
<g id="Node000058" class="node">
<title>Node58</title>
<g id="a_Node000058"><a xlink:href="kest__ui_8c.html#aa35b25eb0a8f315343a7ea5190b0163b" target="_top" xlink:title=" ">
<polygon fill="white" stroke="#666666" points="572.5,-429.48 497.25,-429.48 497.25,-408.73 572.5,-408.73 572.5,-429.48"/>
<text xml:space="preserve" text-anchor="middle" x="534.88" y="-415.98" font-family="Helvetica,sans-Serif" font-size="10.00">init_ui_page</text>
</a>
</g>
</g>
<!-- Node2&#45;&gt;Node58 -->
<g id="edge26_Node000002_Node000058" class="edge">
<title>Node2&#45;&gt;Node58</title>
<g id="a_edge26_Node000002_Node000058"><a xlink:title=" ">
<path fill="none" stroke="#63b8ff" d="M378.99,-525.46C395.06,-505.68 432.23,-463.13 472.5,-439.11 476.84,-436.52 481.56,-434.22 486.38,-432.19"/>
<polygon fill="#63b8ff" stroke="#63b8ff" points="487.48,-435.52 495.59,-428.71 485,-428.97 487.48,-435.52"/>
</a>
</g>
</g>
<!-- Node4 -->
<g id="Node000004" class="node">
<title>Node4</title>
<g id="a_Node000004"><a xlink:href="kest__button_8c.html#aa59f296fa9f9744c9753f81484085a15" target="_top" xlink:title=" ">
<polygon fill="white" stroke="#666666" points="948,-380.48 824.75,-380.48 824.75,-359.73 948,-359.73 948,-380.48"/>
<text xml:space="preserve" text-anchor="middle" x="886.38" y="-366.98" font-family="Helvetica,sans-Serif" font-size="10.00">button_set_clicked_cb</text>
</a>
</g>
</g>
<!-- Node3&#45;&gt;Node4 -->
<g id="edge3_Node000003_Node000004" class="edge">
<title>Node3&#45;&gt;Node4</title>
<g id="a_edge3_Node000003_Node000004"><a xlink:title=" ">
<path fill="none" stroke="#63b8ff" d="M583.91,-525.35C588.8,-522.88 593.38,-519.84 597.25,-516.11 630.66,-483.91 597.86,-448.12 633.25,-418.11 659.86,-395.54 748.25,-382.62 812.89,-375.99"/>
<polygon fill="#63b8ff" stroke="#63b8ff" points="813.15,-379.48 822.75,-375.01 812.46,-372.52 813.15,-379.48"/>
</a>
</g>
</g>
<!-- Node5 -->
<g id="Node000005" class="node">
<title>Node5</title>
<g id="a_Node000005"><a xlink:href="kest__parameter__widget_8c.html#a3af686d17ed62653e1dd680cd85a2d6f" target="_top" xlink:title=" ">
<polygon fill="#fff0f0" stroke="red" points="770,-744.86 652,-744.86 652,-711.36 770,-711.36 770,-744.86"/>
<text xml:space="preserve" text-anchor="start" x="660" y="-731.36" font-family="Helvetica,sans-Serif" font-size="10.00">configure_parameter</text>
<text xml:space="preserve" text-anchor="middle" x="711" y="-718.61" font-family="Helvetica,sans-Serif" font-size="10.00">_widget</text>
</a>
</g>
</g>
<!-- Node3&#45;&gt;Node5 -->
<g id="edge4_Node000003_Node000005" class="edge">
<title>Node3&#45;&gt;Node5</title>
<g id="a_edge4_Node000003_Node000005"><a xlink:title=" ">
<path fill="none" stroke="#63b8ff" d="M585.23,-546.94C589.69,-549.4 593.82,-552.41 597.25,-556.11 642.75,-605.06 588.04,-652.89 633.25,-702.11 635.82,-704.91 638.7,-707.4 641.8,-709.63"/>
<polygon fill="#63b8ff" stroke="#63b8ff" points="639.98,-712.62 650.36,-714.76 643.58,-706.62 639.98,-712.62"/>
</a>
</g>
</g>
<!-- Node7 -->
<g id="Node000007" class="node">
<title>Node7</title>
<g id="a_Node000007"><a xlink:href="kest__ui_8c.html#a8c61274edfd5c1adb98471432976c3b6" target="_top" xlink:title=" ">
<polygon fill="#fff0f0" stroke="red" points="785.75,-693.48 636.25,-693.48 636.25,-672.73 785.75,-672.73 785.75,-693.48"/>
<text xml:space="preserve" text-anchor="middle" x="711" y="-679.98" font-family="Helvetica,sans-Serif" font-size="10.00">enter_ui_page_forwards_cb</text>
</a>
</g>
</g>
<!-- Node3&#45;&gt;Node7 -->
<g id="edge5_Node000003_Node000007" class="edge">
<title>Node3&#45;&gt;Node7</title>
<g id="a_edge5_Node000003_Node000007"><a xlink:title=" ">
<path fill="none" stroke="#63b8ff" d="M584.32,-546.92C589.07,-549.38 593.51,-552.4 597.25,-556.11 632.9,-591.42 596.56,-628.89 633.25,-663.11 634.48,-664.25 635.76,-665.33 637.09,-666.35"/>
<polygon fill="#63b8ff" stroke="#63b8ff" points="634.9,-669.11 645.23,-671.45 638.62,-663.18 634.9,-669.11"/>
</a>
</g>
</g>
<!-- Node11 -->
<g id="Node000011" class="node">
<title>Node11</title>
<g id="a_Node000011"><a xlink:href="kest__files_8c.html#a88e5ec05cd213e80c50f0279cdb3ca9c" target="_top" xlink:title=" ">
<polygon fill="#fff0f0" stroke="red" points="775.25,-654.48 646.75,-654.48 646.75,-633.73 775.25,-633.73 775.25,-654.48"/>
<text xml:space="preserve" text-anchor="middle" x="711" y="-640.98" font-family="Helvetica,sans-Serif" font-size="10.00">erase_sd_card_void_cb</text>
</a>
</g>
</g>
<!-- Node3&#45;&gt;Node11 -->
<g id="edge6_Node000003_Node000011" class="edge">
<title>Node3&#45;&gt;Node11</title>
<g id="a_edge6_Node000003_Node000011"><a xlink:title=" ">
<path fill="none" stroke="#63b8ff" d="M582.52,-546.94C587.83,-549.4 592.89,-552.41 597.25,-556.11 623.65,-578.46 606.06,-603.73 633.25,-625.11 634.4,-626.01 635.59,-626.88 636.82,-627.7"/>
<polygon fill="#63b8ff" stroke="#63b8ff" points="634.98,-630.69 645.42,-632.51 638.4,-624.58 634.98,-630.69"/>
</a>
</g>
</g>
<!-- Node16 -->
<g id="Node000016" class="node">
<title>Node16</title>
<g id="a_Node000016"><a xlink:href="kest__button_8c.html#a20604a0eb74819a9747753ccfdb24e6c" target="_top" xlink:title=" ">
<polygon fill="white" stroke="#666666" points="920.62,-475.48 852.12,-475.48 852.12,-454.73 920.62,-454.73 920.62,-475.48"/>
<text xml:space="preserve" text-anchor="middle" x="886.38" y="-461.98" font-family="Helvetica,sans-Serif" font-size="10.00">init_button</text>
</a>
</g>
</g>
<!-- Node3&#45;&gt;Node16 -->
<g id="edge7_Node000003_Node000016" class="edge">
<title>Node3&#45;&gt;Node16</title>
<g id="a_edge7_Node000003_Node000016"><a xlink:title=" ">
<path fill="none" stroke="#63b8ff" d="M585.76,-546.9C590.07,-549.37 594.01,-552.39 597.25,-556.11 656.08,-623.48 564.58,-696.8 633.25,-754.11 686.31,-798.39 732.67,-794.49 788.75,-754.11 876.97,-690.58 885.82,-542.83 885.88,-487"/>
<polygon fill="#63b8ff" stroke="#63b8ff" points="889.38,-487.19 885.78,-477.22 882.38,-487.26 889.38,-487.19"/>
</a>
</g>
</g>
<!-- Node17 -->
<g id="Node000017" class="node">
<title>Node17</title>
<g id="a_Node000017"><a xlink:href="kest__button_8c.html#a382c34bb14e1a864798fce1072a1e876" target="_top" xlink:title=" ">
<polygon fill="#fff0f0" stroke="red" points="764.75,-447.48 657.25,-447.48 657.25,-426.73 764.75,-426.73 764.75,-447.48"/>
<text xml:space="preserve" text-anchor="middle" x="711" y="-433.98" font-family="Helvetica,sans-Serif" font-size="10.00">init_danger_button</text>
</a>
</g>
</g>
<!-- Node3&#45;&gt;Node17 -->
<g id="edge8_Node000003_Node000017" class="edge">
<title>Node3&#45;&gt;Node17</title>
<g id="a_edge8_Node000003_Node000017"><a xlink:title=" ">
<path fill="none" stroke="#63b8ff" d="M581.66,-525.27C587.23,-522.81 592.59,-519.79 597.25,-516.11 621.35,-497.06 608.59,-475.43 633.25,-457.11 637.28,-454.12 641.71,-451.57 646.35,-449.41"/>
<polygon fill="#63b8ff" stroke="#63b8ff" points="647.38,-452.77 655.37,-445.81 644.79,-446.26 647.38,-452.77"/>
</a>
</g>
</g>
<!-- Node14 -->
<g id="Node000014" class="node">
<title>Node14</title>
<g id="a_Node000014"><a xlink:href="kest__alloc_8c.html#a849755c5dc5b35e712ffcdb602e50fb4" target="_top" xlink:title=" ">
<polygon fill="white" stroke="#666666" points="918.75,-256.48 854,-256.48 854,-235.73 918.75,-235.73 918.75,-256.48"/>
<text xml:space="preserve" text-anchor="middle" x="886.38" y="-242.98" font-family="Helvetica,sans-Serif" font-size="10.00">kest_alloc</text>
</a>
</g>
</g>
<!-- Node3&#45;&gt;Node14 -->
<g id="edge11_Node000003_Node000014" class="edge">
<title>Node3&#45;&gt;Node14</title>
<g id="a_edge11_Node000003_Node000014"><a xlink:title=" ">
<path fill="none" stroke="#63b8ff" d="M585.2,-525.24C589.67,-522.79 593.8,-519.79 597.25,-516.11 641.47,-468.91 586.59,-419.9 633.25,-375.11 684.22,-326.18 726.6,-375.71 788.75,-342.11 823.56,-323.29 854.16,-288.04 871.17,-265.89"/>
<polygon fill="#63b8ff" stroke="#63b8ff" points="873.91,-268.07 877.09,-257.96 868.3,-263.88 873.91,-268.07"/>
</a>
</g>
</g>
<!-- Node21 -->
<g id="Node000021" class="node">
<title>Node21</title>
<g id="a_Node000021"><a xlink:href="kest__button_8c.html#ab0abd81c81d95b73284ecfadc708b8ce" target="_top" xlink:title=" ">
<polygon fill="white" stroke="#666666" points="767.75,-615.86 654.25,-615.86 654.25,-582.36 767.75,-582.36 767.75,-615.86"/>
<text xml:space="preserve" text-anchor="start" x="662.25" y="-602.36" font-family="Helvetica,sans-Serif" font-size="10.00">kest_button_disable</text>
<text xml:space="preserve" text-anchor="middle" x="711" y="-589.61" font-family="Helvetica,sans-Serif" font-size="10.00">_alignment</text>
</a>
</g>
</g>
<!-- Node3&#45;&gt;Node21 -->
<g id="edge12_Node000003_Node000021" class="edge">
<title>Node3&#45;&gt;Node21</title>
<g id="a_edge12_Node000003_Node000021"><a xlink:title=" ">
<path fill="none" stroke="#63b8ff" d="M571.52,-546.88C580.03,-549.68 589.02,-552.84 597.25,-556.11 613.69,-562.64 616.84,-566.48 633.25,-573.11 637.51,-574.83 641.92,-576.53 646.39,-578.19"/>
<polygon fill="#63b8ff" stroke="#63b8ff" points="644.84,-581.36 655.44,-581.48 647.23,-574.77 644.84,-581.36"/>
</a>
</g>
</g>
<!-- Node22 -->
<g id="Node000022" class="node">
<title>Node22</title>
<g id="a_Node000022"><a xlink:href="kest__button_8c.html#ac24f7930db96a5006a81ec8255ad0e6c" target="_top" xlink:title=" ">
<polygon fill="#fff0f0" stroke="red" points="772.25,-564.48 649.75,-564.48 649.75,-543.73 772.25,-543.73 772.25,-564.48"/>
<text xml:space="preserve" text-anchor="middle" x="711" y="-550.98" font-family="Helvetica,sans-Serif" font-size="10.00">kest_button_set_label</text>
</a>
</g>
</g>
<!-- Node3&#45;&gt;Node22 -->
<g id="edge13_Node000003_Node000022" class="edge">
<title>Node3&#45;&gt;Node22</title>
<g id="a_edge13_Node000003_Node000022"><a xlink:title=" ">
<path fill="none" stroke="#63b8ff" d="M597.26,-542.45C610.5,-543.82 624.6,-545.28 638.19,-546.68"/>
<polygon fill="#63b8ff" stroke="#63b8ff" points="637.65,-550.15 647.95,-547.69 638.36,-543.18 637.65,-550.15"/>
</a>
</g>
</g>
<!-- Node24 -->
<g id="Node000024" class="node">
<title>Node24</title>
<g id="a_Node000024"><a xlink:href="kest__menu_8c.html#a3eb9105417c06419b54fee6e3f79b39a" target="_top" xlink:title=" ">
<polygon fill="#fff0f0" stroke="red" points="768.5,-525.48 653.5,-525.48 653.5,-504.73 768.5,-504.73 768.5,-525.48"/>
<text xml:space="preserve" text-anchor="middle" x="711" y="-511.98" font-family="Helvetica,sans-Serif" font-size="10.00">kest_msc_button_cb</text>
</a>
</g>
</g>
<!-- Node3&#45;&gt;Node24 -->
<g id="edge14_Node000003_Node000024" class="edge">
<title>Node3&#45;&gt;Node24</title>
<g id="a_edge14_Node000003_Node000024"><a xlink:title=" ">
<path fill="none" stroke="#63b8ff" d="M597.26,-528.7C611.78,-526.95 627.34,-525.08 642.12,-523.29"/>
<polygon fill="#63b8ff" stroke="#63b8ff" points="642.23,-526.81 651.74,-522.13 641.39,-519.86 642.23,-526.81"/>
</a>
</g>
</g>
<!-- Node29 -->
<g id="Node000029" class="node">
<title>Node29</title>
<g id="a_Node000029"><a xlink:href="kest__ui_8c.html#a01360963fabe989a816b58c78cbc041b" target="_top" xlink:title=" ">
<polygon fill="#fff0f0" stroke="red" points="745.25,-333.48 676.75,-333.48 676.75,-312.73 745.25,-312.73 745.25,-333.48"/>
<text xml:space="preserve" text-anchor="middle" x="711" y="-319.98" font-family="Helvetica,sans-Serif" font-size="10.00">new_panel</text>
</a>
</g>
</g>
<!-- Node3&#45;&gt;Node29 -->
<g id="edge15_Node000003_Node000029" class="edge">
<title>Node3&#45;&gt;Node29</title>
<g id="a_edge15_Node000003_Node000029"><a xlink:title=" ">
<path fill="none" stroke="#63b8ff" d="M585.35,-525.38C589.79,-522.9 593.88,-519.86 597.25,-516.11 648.62,-459.03 581.54,-403.88 633.25,-347.11 641.67,-337.86 653.6,-332.15 665.54,-328.63"/>
<polygon fill="#63b8ff" stroke="#63b8ff" points="666.06,-332.1 674.95,-326.33 664.4,-325.3 666.06,-332.1"/>
</a>
</g>
</g>
<!-- Node31 -->
<g id="Node000031" class="node">
<title>Node31</title>
<g id="a_Node000031"><a xlink:href="kest__parameter__widget_8c.html#a89863fab24827de020d29878a86c1b60" target="_top" xlink:title=" ">
<polygon fill="#fff0f0" stroke="red" points="781.62,-486.48 640.38,-486.48 640.38,-465.73 781.62,-465.73 781.62,-486.48"/>
<text xml:space="preserve" text-anchor="middle" x="711" y="-472.98" font-family="Helvetica,sans-Serif" font-size="10.00">nullify_parameter_widget</text>
</a>
</g>
</g>
<!-- Node3&#45;&gt;Node31 -->
<g id="edge17_Node000003_Node000031" class="edge">
<title>Node3&#45;&gt;Node31</title>
<g id="a_edge17_Node000003_Node000031"><a xlink:title=" ">
<path fill="none" stroke="#63b8ff" d="M572.98,-525.29C581.09,-522.57 589.55,-519.47 597.25,-516.11 614.03,-508.79 616.26,-502.91 633.25,-496.11 638.76,-493.9 644.6,-491.87 650.48,-490.02"/>
<polygon fill="#63b8ff" stroke="#63b8ff" points="651.04,-493.5 659.64,-487.31 649.06,-486.79 651.04,-493.5"/>
</a>
</g>
</g>
<!-- Node17&#45;&gt;Node4 -->
<g id="edge9_Node000017_Node000004" class="edge">
<title>Node17&#45;&gt;Node4</title>
<g id="a_edge9_Node000017_Node000004"><a xlink:title=" ">
<path fill="none" stroke="#63b8ff" d="M749.77,-426.25C762.28,-422.4 776.21,-417.84 788.75,-413.11 810.43,-404.92 834.23,-394.36 852.78,-385.75"/>
<polygon fill="#63b8ff" stroke="#63b8ff" points="854.1,-388.99 861.67,-381.58 851.13,-382.65 854.1,-388.99"/>
</a>
</g>
</g>
<!-- Node17&#45;&gt;Node16 -->
<g id="edge10_Node000017_Node000016" class="edge">
<title>Node17&#45;&gt;Node16</title>
<g id="a_edge10_Node000017_Node000016"><a xlink:title=" ">
<path fill="none" stroke="#63b8ff" d="M764.96,-445.66C789.15,-449.57 817.5,-454.15 840.61,-457.88"/>
<polygon fill="#63b8ff" stroke="#63b8ff" points="839.91,-461.31 850.34,-459.45 841.02,-454.4 839.91,-461.31"/>
</a>
</g>
</g>
<!-- Node29&#45;&gt;Node14 -->
<g id="edge16_Node000029_Node000014" class="edge">
<title>Node29&#45;&gt;Node14</title>
<g id="a_edge16_Node000029_Node000014"><a xlink:title=" ">
<path fill="none" stroke="#63b8ff" d="M745.53,-316.51C759.21,-313.27 775.02,-308.82 788.75,-303.11 814.67,-292.34 842.02,-275.63 860.99,-263.08"/>
<polygon fill="#63b8ff" stroke="#63b8ff" points="862.75,-266.12 869.08,-257.63 858.83,-260.31 862.75,-266.12"/>
</a>
</g>
</g>
<!-- Node37 -->
<g id="Node000037" class="node">
<title>Node37</title>
<g id="a_Node000037"><a xlink:href="kest__button_8c.html#a42c4bb920da57000dbde4fa1fa26868c" target="_top" xlink:title=" ">
<polygon fill="white" stroke="#666666" points="935.25,-888.48 837.5,-888.48 837.5,-867.73 935.25,-867.73 935.25,-888.48"/>
<text xml:space="preserve" text-anchor="middle" x="886.38" y="-874.98" font-family="Helvetica,sans-Serif" font-size="10.00">create_button_ui</text>
</a>
</g>
</g>
<!-- Node36&#45;&gt;Node37 -->
<g id="edge19_Node000036_Node000037" class="edge">
<title>Node36&#45;&gt;Node37</title>
<g id="a_edge19_Node000036_Node000037"><a xlink:title=" ">
<path fill="none" stroke="#63b8ff" d="M567.91,-866.92C586.7,-872.69 611.04,-879.19 633.25,-882.11 698.82,-890.71 774.81,-887.77 826.08,-883.91"/>
<polygon fill="#63b8ff" stroke="#63b8ff" points="826.07,-887.42 835.76,-883.14 825.52,-880.44 826.07,-887.42"/>
</a>
</g>
</g>
<!-- Node38 -->
<g id="Node000038" class="node">
<title>Node38</title>
<g id="a_Node000038"><a xlink:href="kest__button_8c.html#ae6551220e84fc3c185f77c594bf7b3ca" target="_top" xlink:title=" ">
<polygon fill="white" stroke="#666666" points="767,-872.86 655,-872.86 655,-839.36 767,-839.36 767,-872.86"/>
<text xml:space="preserve" text-anchor="start" x="663" y="-859.36" font-family="Helvetica,sans-Serif" font-size="10.00">kest_danger_button</text>
<text xml:space="preserve" text-anchor="middle" x="711" y="-846.61" font-family="Helvetica,sans-Serif" font-size="10.00">_create_ui</text>
</a>
</g>
</g>
<!-- Node36&#45;&gt;Node38 -->
<g id="edge21_Node000036_Node000038" class="edge">
<title>Node36&#45;&gt;Node38</title>
<g id="a_edge21_Node000036_Node000038"><a xlink:title=" ">
<path fill="none" stroke="#63b8ff" d="M597.26,-856.11C612.17,-856.11 628.17,-856.11 643.31,-856.11"/>
<polygon fill="#63b8ff" stroke="#63b8ff" points="643.17,-859.61 653.17,-856.11 643.17,-852.61 643.17,-859.61"/>
</a>
</g>
</g>
<!-- Node39 -->
<g id="Node000039" class="node">
<title>Node39</title>
<g id="a_Node000039"><a xlink:href="kest__parameter__widget_8c.html#adbadb9573fa4f9b812f8d270c78053e4" target="_top" xlink:title=" ">
<polygon fill="#fff0f0" stroke="red" points="788.75,-949.48 633.25,-949.48 633.25,-928.73 788.75,-928.73 788.75,-949.48"/>
<text xml:space="preserve" text-anchor="middle" x="711" y="-935.98" font-family="Helvetica,sans-Serif" font-size="10.00">parameter_widget_create_ui</text>
</a>
</g>
</g>
<!-- Node36&#45;&gt;Node39 -->
<g id="edge23_Node000036_Node000039" class="edge">
<title>Node36&#45;&gt;Node39</title>
<g id="a_edge23_Node000036_Node000039"><a xlink:title=" ">
<path fill="none" stroke="#63b8ff" d="M551.09,-866.93C569.73,-879.8 602.62,-901.29 633.25,-915.11 641.21,-918.7 649.87,-921.97 658.4,-924.86"/>
<polygon fill="#63b8ff" stroke="#63b8ff" points="657.06,-928.11 667.65,-927.85 659.21,-921.45 657.06,-928.11"/>
</a>
</g>
</g>
<!-- Node46 -->
<g id="Node000046" class="node">
<title>Node46</title>
<g id="a_Node000046"><a xlink:href="kest__ui_8c.html#a58a68a436917a32cc3daab2e0d4b3245" target="_top" xlink:title=" ">
<polygon fill="#fff0f0" stroke="red" points="777.5,-821.48 644.5,-821.48 644.5,-800.73 777.5,-800.73 777.5,-821.48"/>
<text xml:space="preserve" text-anchor="middle" x="711" y="-807.98" font-family="Helvetica,sans-Serif" font-size="10.00">ui_page_create_base_ui</text>
</a>
</g>
</g>
<!-- Node36&#45;&gt;Node46 -->
<g id="edge24_Node000036_Node000046" class="edge">
<title>Node36&#45;&gt;Node46</title>
<g id="a_edge24_Node000036_Node000046"><a xlink:title=" ">
<path fill="none" stroke="#63b8ff" d="M575.63,-845.32C593.26,-840.58 614.27,-834.99 633.25,-830.11 640.14,-828.33 647.39,-826.5 654.57,-824.7"/>
<polygon fill="#63b8ff" stroke="#63b8ff" points="655.4,-828.1 664.26,-822.29 653.71,-821.31 655.4,-828.1"/>
</a>
</g>
</g>
<!-- Node37&#45;&gt;Node37 -->
<g id="edge20_Node000037_Node000037" class="edge">
<title>Node37&#45;&gt;Node37</title>
<g id="a_edge20_Node000037_Node000037"><a xlink:title=" ">
<path fill="none" stroke="#63b8ff" d="M858.12,-888.88C846.81,-897.54 856.23,-906.48 886.38,-906.48 902.86,-906.48 913.15,-903.81 917.23,-899.97"/>
<polygon fill="#63b8ff" stroke="#63b8ff" points="920.67,-899.29 914.98,-890.35 913.86,-900.89 920.67,-899.29"/>
</a>
</g>
</g>
<!-- Node38&#45;&gt;Node37 -->
<g id="edge22_Node000038_Node000037" class="edge">
<title>Node38&#45;&gt;Node37</title>
<g id="a_edge22_Node000038_Node000037"><a xlink:title=" ">
<path fill="none" stroke="#63b8ff" d="M767.33,-863.13C786.05,-865.5 807.02,-868.17 826.04,-870.58"/>
<polygon fill="#63b8ff" stroke="#63b8ff" points="825.42,-874.03 835.78,-871.81 826.3,-867.08 825.42,-874.03"/>
</a>
</g>
</g>
<!-- Node60 -->
<g id="Node000060" class="node">
<title>Node60</title>
<g id="a_Node000060"><a xlink:href="kest__sequence__list_8c.html#ae60870bb862edfc5b0a45344c20b152f" target="_top" xlink:title=" ">
<polygon fill="white" stroke="#666666" points="436.5,-174.48 302.75,-174.48 302.75,-153.73 436.5,-153.73 436.5,-174.48"/>
<text xml:space="preserve" text-anchor="middle" x="369.62" y="-160.98" font-family="Helvetica,sans-Serif" font-size="10.00">configure_sequence_list</text>
</a>
</g>
</g>
<!-- Node59&#45;&gt;Node60 -->
<g id="edge28_Node000059_Node000060" class="edge">
<title>Node59&#45;&gt;Node60</title>
<g id="a_edge28_Node000059_Node000060"><a xlink:title=" ">
<path fill="none" stroke="#63b8ff" d="M223.87,-360.27C248.31,-327.15 322.25,-226.95 353.95,-184"/>
<polygon fill="#63b8ff" stroke="#63b8ff" points="356.69,-186.18 359.81,-176.06 351.05,-182.02 356.69,-186.18"/>
</a>
</g>
</g>
<!-- Node261 -->
<g id="Node000261" class="node">
<title>Node261</title>
<g id="a_Node000261"><a xlink:href="kest__menu_8c.html#a9a3dc2a29ebf6ace0a6b54a902530001" target="_top" xlink:title=" ">
<polygon fill="white" stroke="#666666" points="416.62,-429.48 322.62,-429.48 322.62,-408.73 416.62,-408.73 416.62,-429.48"/>
<text xml:space="preserve" text-anchor="middle" x="369.62" y="-415.98" font-family="Helvetica,sans-Serif" font-size="10.00">init_menu_page</text>
</a>
</g>
</g>
<!-- Node59&#45;&gt;Node261 -->
<g id="edge40_Node000059_Node000261" class="edge">
<title>Node59&#45;&gt;Node261</title>
<g id="a_edge40_Node000059_Node000261"><a xlink:title=" ">
<path fill="none" stroke="#63b8ff" d="M248.84,-381.88C265.05,-387.14 284.9,-393.52 302.75,-399.11 308.96,-401.05 315.51,-403.07 321.97,-405.05"/>
<polygon fill="#63b8ff" stroke="#63b8ff" points="320.66,-408.31 331.24,-407.88 322.7,-401.61 320.66,-408.31"/>
</a>
</g>
</g>
<!-- Node60&#45;&gt;Node29 -->
<g id="edge32_Node000060_Node000029" class="edge">
<title>Node60&#45;&gt;Node29</title>
<g id="a_edge32_Node000060_Node000029"><a xlink:title=" ">
<path fill="none" stroke="#63b8ff" d="M387.48,-174.82C428.23,-200.31 535.89,-265.25 633.25,-303.11 643.54,-307.11 654.91,-310.56 665.67,-313.42"/>
<polygon fill="#63b8ff" stroke="#63b8ff" points="664.58,-316.76 675.13,-315.82 666.3,-309.97 664.58,-316.76"/>
</a>
</g>
</g>
<!-- Node61 -->
<g id="Node000061" class="node">
<title>Node61</title>
<g id="a_Node000061"><a xlink:href="kest__sequence__list_8c.html#a0350526aca07d7cc68e8325cf0b1f02c" target="_top" xlink:title=" ">
<polygon fill="#fff0f0" stroke="red" points="777.88,-90.86 644.12,-90.86 644.12,-57.36 777.88,-57.36 777.88,-90.86"/>
<text xml:space="preserve" text-anchor="start" x="652.12" y="-77.36" font-family="Helvetica,sans-Serif" font-size="10.00">create_sequence_listing</text>
<text xml:space="preserve" text-anchor="middle" x="711" y="-64.61" font-family="Helvetica,sans-Serif" font-size="10.00">_menu_item</text>
</a>
</g>
</g>
<!-- Node60&#45;&gt;Node61 -->
<g id="edge29_Node000060_Node000061" class="edge">
<title>Node60&#45;&gt;Node61</title>
<g id="a_edge29_Node000060_Node000061"><a xlink:title=" ">
<path fill="none" stroke="#63b8ff" d="M384.92,-153.35C403.86,-139.69 438.83,-116.54 472.5,-105.11 524.06,-87.6 585.02,-79.89 632.27,-76.54"/>
<polygon fill="#63b8ff" stroke="#63b8ff" points="632.4,-80.04 642.15,-75.89 631.94,-73.05 632.4,-80.04"/>
</a>
</g>
</g>
<!-- Node65 -->
<g id="Node000065" class="node">
<title>Node65</title>
<g id="a_Node000065"><a xlink:href="kest__menu_8c.html#a32a51795f1b204927f10b268fc1e9ce2" target="_top" xlink:title=" ">
<polygon fill="white" stroke="#666666" points="773,-27.48 649,-27.48 649,-6.73 773,-6.73 773,-27.48"/>
<text xml:space="preserve" text-anchor="middle" x="711" y="-13.98" font-family="Helvetica,sans-Serif" font-size="10.00">menu_page_add_item</text>
</a>
</g>
</g>
<!-- Node60&#45;&gt;Node65 -->
<g id="edge31_Node000060_Node000065" class="edge">
<title>Node60&#45;&gt;Node65</title>
<g id="a_edge31_Node000060_Node000065"><a xlink:title=" ">
<path fill="none" stroke="#63b8ff" d="M374.5,-153.48C385.14,-126.05 417.74,-53.01 472.5,-24.11 526.48,4.38 597.41,2.28 647.66,-4.58"/>
<polygon fill="#63b8ff" stroke="#63b8ff" points="647.1,-8.03 657.51,-6.03 648.13,-1.11 647.1,-8.03"/>
</a>
</g>
</g>
<!-- Node66 -->
<g id="Node000066" class="node">
<title>Node66</title>
<g id="a_Node000066"><a xlink:href="kest__sequence__list_8c.html#ac9d222d7405758d9f4edfeabe4c6200e" target="_top" xlink:title=" ">
<polygon fill="#fff0f0" stroke="red" points="596.12,-53.48 473.62,-53.48 473.62,-32.73 596.12,-32.73 596.12,-53.48"/>
<text xml:space="preserve" text-anchor="middle" x="534.88" y="-39.98" font-family="Helvetica,sans-Serif" font-size="10.00">sequence_list_add_cb</text>
</a>
</g>
</g>
<!-- Node60&#45;&gt;Node66 -->
<g id="edge33_Node000060_Node000066" class="edge">
<title>Node60&#45;&gt;Node66</title>
<g id="a_edge33_Node000060_Node000066"><a xlink:title=" ">
<path fill="none" stroke="#63b8ff" d="M379.38,-153.37C395.81,-133.82 433.15,-92.15 472.5,-67.11 477.63,-63.84 483.27,-60.9 488.99,-58.29"/>
<polygon fill="#63b8ff" stroke="#63b8ff" points="490.04,-61.64 497.89,-54.53 487.32,-55.19 490.04,-61.64"/>
</a>
</g>
</g>
<!-- Node180 -->
<g id="Node000180" class="node">
<title>Node180</title>
<g id="a_Node000180"><a xlink:href="kest__ui_8c.html#a349acdb394f97d782e6b5828af856b05" target="_top" xlink:title=" ">
<polygon fill="#fff0f0" stroke="red" points="782.38,-294.48 639.62,-294.48 639.62,-273.73 782.38,-273.73 782.38,-294.48"/>
<text xml:space="preserve" text-anchor="middle" x="711" y="-280.98" font-family="Helvetica,sans-Serif" font-size="10.00">ui_page_add_back_button</text>
</a>
</g>
</g>
<!-- Node60&#45;&gt;Node180 -->
<g id="edge36_Node000060_Node000180" class="edge">
<title>Node60&#45;&gt;Node180</title>
<g id="a_edge36_Node000060_Node000180"><a xlink:title=" ">
<path fill="none" stroke="#63b8ff" d="M401.34,-174.97C462.67,-196.66 600.31,-245.32 669.16,-269.67"/>
<polygon fill="#63b8ff" stroke="#63b8ff" points="667.58,-272.82 678.17,-272.85 669.91,-266.22 667.58,-272.82"/>
</a>
</g>
</g>
<!-- Node197 -->
<g id="Node000197" class="node">
<title>Node197</title>
<g id="a_Node000197"><a xlink:href="kest__ui_8c.html#a446fd8da13243be96d2ce6a5ff1f1f7b" target="_top" xlink:title=" ">
<polygon fill="#fff0f0" stroke="red" points="593.88,-180.86 475.88,-180.86 475.88,-147.36 593.88,-147.36 593.88,-180.86"/>
<text xml:space="preserve" text-anchor="start" x="483.88" y="-167.36" font-family="Helvetica,sans-Serif" font-size="10.00">ui_page_add_bottom</text>
<text xml:space="preserve" text-anchor="middle" x="534.88" y="-154.61" font-family="Helvetica,sans-Serif" font-size="10.00">_button</text>
</a>
</g>
</g>
<!-- Node60&#45;&gt;Node197 -->
<g id="edge38_Node000060_Node000197" class="edge">
<title>Node60&#45;&gt;Node197</title>
<g id="a_edge38_Node000060_Node000197"><a xlink:title=" ">
<path fill="none" stroke="#63b8ff" d="M436.55,-164.11C445.64,-164.11 454.99,-164.11 464.14,-164.11"/>
<polygon fill="#63b8ff" stroke="#63b8ff" points="464.07,-167.61 474.07,-164.11 464.07,-160.61 464.07,-167.61"/>
</a>
</g>
</g>
<!-- Node61&#45;&gt;Node14 -->
<g id="edge30_Node000061_Node000014" class="edge">
<title>Node61&#45;&gt;Node14</title>
<g id="a_edge30_Node000061_Node000014"><a xlink:title=" ">
<path fill="none" stroke="#63b8ff" d="M766.26,-91.3C774.24,-95.13 782.03,-99.71 788.75,-105.11 830.39,-138.57 861.24,-194.69 875.89,-225.05"/>
<polygon fill="#63b8ff" stroke="#63b8ff" points="872.65,-226.39 880.06,-233.96 878.99,-223.42 872.65,-226.39"/>
</a>
</g>
</g>
<!-- Node66&#45;&gt;Node61 -->
<g id="edge34_Node000066_Node000061" class="edge">
<title>Node66&#45;&gt;Node61</title>
<g id="a_edge34_Node000066_Node000061"><a xlink:title=" ">
<path fill="none" stroke="#63b8ff" d="M596.29,-53.86C608.02,-55.95 620.46,-58.17 632.65,-60.34"/>
<polygon fill="#63b8ff" stroke="#63b8ff" points="631.8,-63.74 642.26,-62.05 633.03,-56.85 631.8,-63.74"/>
</a>
</g>
</g>
<!-- Node66&#45;&gt;Node65 -->
<g id="edge35_Node000066_Node000065" class="edge">
<title>Node66&#45;&gt;Node65</title>
<g id="a_edge35_Node000066_Node000065"><a xlink:title=" ">
<path fill="none" stroke="#63b8ff" d="M596.29,-34.09C609.49,-32.12 623.59,-30.01 637.21,-27.98"/>
<polygon fill="#63b8ff" stroke="#63b8ff" points="637.64,-31.45 647.02,-26.51 636.61,-24.53 637.64,-31.45"/>
</a>
</g>
</g>
<!-- Node180&#45;&gt;Node4 -->
<g id="edge37_Node000180_Node000004" class="edge">
<title>Node180&#45;&gt;Node4</title>
<g id="a_edge37_Node000180_Node000004"><a xlink:title=" ">
<path fill="none" stroke="#63b8ff" d="M763.63,-294.94C772.2,-297.48 780.85,-300.51 788.75,-304.11 816.62,-316.79 845.17,-337.42 863.93,-352.24"/>
<polygon fill="#63b8ff" stroke="#63b8ff" points="861.64,-354.89 871.62,-358.44 866.03,-349.44 861.64,-354.89"/>
</a>
</g>
</g>
<!-- Node197&#45;&gt;Node4 -->
<g id="edge39_Node000197_Node000004" class="edge">
<title>Node197&#45;&gt;Node4</title>
<g id="a_edge39_Node000197_Node000004"><a xlink:title=" ">
<path fill="none" stroke="#63b8ff" d="M594.21,-179.3C647.93,-195.09 728.22,-223.39 788.75,-265.11 823.22,-288.87 854.29,-327.01 871.42,-350.2"/>
<polygon fill="#63b8ff" stroke="#63b8ff" points="868.5,-352.13 877.19,-358.19 874.18,-348.03 868.5,-352.13"/>
</a>
</g>
</g>
<!-- Node261&#45;&gt;Node14 -->
<g id="edge52_Node000261_Node000014" class="edge">
<title>Node261&#45;&gt;Node14</title>
<g id="a_edge52_Node000261_Node000014"><a xlink:title=" ">
<path fill="none" stroke="#63b8ff" d="M417.12,-410.91C424.22,-408.07 431,-404.25 436.5,-399.11 469.49,-368.28 438.65,-333.99 472.5,-304.11 577.59,-211.32 760,-225.73 842.57,-238.25"/>
<polygon fill="#63b8ff" stroke="#63b8ff" points="841.86,-241.68 852.28,-239.79 842.96,-234.77 841.86,-241.68"/>
</a>
</g>
</g>
<!-- Node261&#45;&gt;Node58 -->
<g id="edge51_Node000261_Node000058" class="edge">
<title>Node261&#45;&gt;Node58</title>
<g id="a_edge51_Node000261_Node000058"><a xlink:title=" ">
<path fill="none" stroke="#63b8ff" d="M416.97,-419.11C438.46,-419.11 464,-419.11 485.71,-419.11"/>
<polygon fill="#63b8ff" stroke="#63b8ff" points="485.49,-422.61 495.49,-419.11 485.49,-415.61 485.49,-422.61"/>
</a>
</g>
</g>
<!-- Node262 -->
<g id="Node000262" class="node">
<title>Node262</title>
<g id="a_Node000262"><a xlink:href="kest__menu_8c.html#a264644eed0c454d882162f462ed24454" target="_top" xlink:title=" ">
<polygon fill="#fff0f0" stroke="red" points="596.88,-333.48 472.88,-333.48 472.88,-312.73 596.88,-312.73 596.88,-333.48"/>
<text xml:space="preserve" text-anchor="middle" x="534.88" y="-319.98" font-family="Helvetica,sans-Serif" font-size="10.00">configure_menu_page</text>
</a>
</g>
</g>
<!-- Node261&#45;&gt;Node262 -->
<g id="edge41_Node000261_Node000262" class="edge">
<title>Node261&#45;&gt;Node262</title>
<g id="a_edge41_Node000261_Node000262"><a xlink:title=" ">
<path fill="none" stroke="#63b8ff" d="M416.96,-408.39C423.77,-405.88 430.5,-402.82 436.5,-399.11 456.29,-386.88 454.46,-375.8 472.5,-361.11 482.12,-353.27 493.48,-345.82 503.79,-339.61"/>
<polygon fill="#63b8ff" stroke="#63b8ff" points="505.47,-342.69 512.35,-334.63 501.94,-336.64 505.47,-342.69"/>
</a>
</g>
</g>
<!-- Node265 -->
<g id="Node000265" class="node">
<title>Node265</title>
<g id="a_Node000265"><a xlink:href="kest__menu_8c.html#a6775c89241a45f6fa04a6d8111139cb5" target="_top" xlink:title=" ">
<polygon fill="#fff0f0" stroke="red" points="596.5,-585.48 473.25,-585.48 473.25,-564.73 596.5,-564.73 596.5,-585.48"/>
<text xml:space="preserve" text-anchor="middle" x="534.88" y="-571.98" font-family="Helvetica,sans-Serif" font-size="10.00">create_menu_page_ui</text>
</a>
</g>
</g>
<!-- Node261&#45;&gt;Node265 -->
<g id="edge45_Node000261_Node000265" class="edge">
<title>Node261&#45;&gt;Node265</title>
<g id="a_edge45_Node000261_Node000265"><a xlink:title=" ">
<path fill="none" stroke="#63b8ff" d="M377.4,-429.77C395.89,-458.63 447.56,-537.24 472.5,-555.11 474.57,-556.59 476.76,-557.97 479.03,-559.25"/>
<polygon fill="#63b8ff" stroke="#63b8ff" points="477.48,-562.39 488.01,-563.59 480.53,-556.09 477.48,-562.39"/>
</a>
</g>
</g>
<!-- Node266 -->
<g id="Node000266" class="node">
<title>Node266</title>
<g id="a_Node000266"><a xlink:href="kest__menu_8c.html#af46174a3713bd90a7920a15efac58b46" target="_top" xlink:title=" ">
<polygon fill="#fff0f0" stroke="red" points="586.75,-507.48 483,-507.48 483,-486.73 586.75,-486.73 586.75,-507.48"/>
<text xml:space="preserve" text-anchor="middle" x="534.88" y="-493.98" font-family="Helvetica,sans-Serif" font-size="10.00">enter_menu_page</text>
</a>
</g>
</g>
<!-- Node261&#45;&gt;Node266 -->
<g id="edge48_Node000261_Node000266" class="edge">
<title>Node261&#45;&gt;Node266</title>
<g id="a_edge48_Node000261_Node000266"><a xlink:title=" ">
<path fill="none" stroke="#63b8ff" d="M387.03,-429.83C406.72,-442.38 441.04,-463.2 472.5,-477.11 476.77,-478.99 481.27,-480.8 485.82,-482.49"/>
<polygon fill="#63b8ff" stroke="#63b8ff" points="484.4,-485.7 494.99,-485.74 486.73,-479.1 484.4,-485.7"/>
</a>
</g>
</g>
<!-- Node269 -->
<g id="Node000269" class="node">
<title>Node269</title>
<g id="a_Node000269"><a xlink:href="kest__menu_8c.html#a2a0663e2aaf8fcb135cdf12feb40dfdb" target="_top" xlink:title=" ">
<polygon fill="white" stroke="#666666" points="590.88,-468.48 478.88,-468.48 478.88,-447.73 590.88,-447.73 590.88,-468.48"/>
<text xml:space="preserve" text-anchor="middle" x="534.88" y="-454.98" font-family="Helvetica,sans-Serif" font-size="10.00">free_menu_page_ui</text>
</a>
</g>
</g>
<!-- Node261&#45;&gt;Node269 -->
<g id="edge49_Node000261_Node000269" class="edge">
<title>Node261&#45;&gt;Node269</title>
<g id="a_edge49_Node000261_Node000269"><a xlink:title=" ">
<path fill="none" stroke="#63b8ff" d="M416.1,-429.97C435.04,-434.5 457.23,-439.8 477.21,-444.57"/>
<polygon fill="#63b8ff" stroke="#63b8ff" points="476.35,-447.96 486.89,-446.88 477.98,-441.16 476.35,-447.96"/>
</a>
</g>
</g>
<!-- Node270 -->
<g id="Node000270" class="node">
<title>Node270</title>
<g id="a_Node000270"><a xlink:href="kest__menu_8c.html#afb490f7eb37e93e314d988561c52c615" target="_top" xlink:title=" ">
<polygon fill="white" stroke="#666666" points="590.88,-390.48 478.88,-390.48 478.88,-369.73 590.88,-369.73 590.88,-390.48"/>
<text xml:space="preserve" text-anchor="middle" x="534.88" y="-376.98" font-family="Helvetica,sans-Serif" font-size="10.00">init_menu_page_str</text>
</a>
</g>
</g>
<!-- Node261&#45;&gt;Node270 -->
<g id="edge50_Node000261_Node000270" class="edge">
<title>Node261&#45;&gt;Node270</title>
<g id="a_edge50_Node000261_Node000270"><a xlink:title=" ">
<path fill="none" stroke="#63b8ff" d="M416.1,-408.24C435.04,-403.72 457.23,-398.42 477.21,-393.65"/>
<polygon fill="#63b8ff" stroke="#63b8ff" points="477.98,-397.06 486.89,-391.33 476.35,-390.25 477.98,-397.06"/>
</a>
</g>
</g>
<!-- Node262&#45;&gt;Node29 -->
<g id="edge43_Node000262_Node000029" class="edge">
<title>Node262&#45;&gt;Node29</title>
<g id="a_edge43_Node000262_Node000029"><a xlink:title=" ">
<path fill="none" stroke="#63b8ff" d="M597.26,-323.11C619.63,-323.11 644.48,-323.11 665.15,-323.11"/>
<polygon fill="#63b8ff" stroke="#63b8ff" points="664.95,-326.61 674.95,-323.11 664.95,-319.61 664.95,-326.61"/>
</a>
</g>
</g>
<!-- Node262&#45;&gt;Node180 -->
<g id="edge44_Node000262_Node000180" class="edge">
<title>Node262&#45;&gt;Node180</title>
<g id="a_edge44_Node000262_Node000180"><a xlink:title=" ">
<path fill="none" stroke="#63b8ff" d="M584.38,-312.24C604.86,-307.66 628.91,-302.27 650.45,-297.45"/>
<polygon fill="#63b8ff" stroke="#63b8ff" points="650.98,-300.91 659.98,-295.31 649.45,-294.08 650.98,-300.91"/>
</a>
</g>
</g>
<!-- Node262&#45;&gt;Node262 -->
<g id="edge42_Node000262_Node000262" class="edge">
<title>Node262&#45;&gt;Node262</title>
<g id="a_edge42_Node000262_Node000262"><a xlink:title=" ">
<path fill="none" stroke="#63b8ff" d="M508.25,-333.88C497.6,-342.54 506.47,-351.48 534.88,-351.48 550.41,-351.48 560.1,-348.81 563.95,-344.97"/>
<polygon fill="#63b8ff" stroke="#63b8ff" points="567.4,-344.37 561.83,-335.36 560.57,-345.88 567.4,-344.37"/>
</a>
</g>
</g>
<!-- Node265&#45;&gt;Node46 -->
<g id="edge47_Node000265_Node000046" class="edge">
<title>Node265&#45;&gt;Node46</title>
<g id="a_edge47_Node000265_Node000046"><a xlink:title=" ">
<path fill="none" stroke="#63b8ff" d="M563.08,-585.92C575.31,-592.12 588.85,-601.09 597.25,-613.11 642.5,-677.83 580.24,-728.57 633.25,-787.11 635.78,-789.9 638.63,-792.37 641.7,-794.56"/>
<polygon fill="#63b8ff" stroke="#63b8ff" points="639.8,-797.5 650.2,-799.53 643.34,-791.46 639.8,-797.5"/>
</a>
</g>
</g>
<!-- Node265&#45;&gt;Node265 -->
<g id="edge46_Node000265_Node000265" class="edge">
<title>Node265&#45;&gt;Node265</title>
<g id="a_edge46_Node000265_Node000265"><a xlink:title=" ">
<path fill="none" stroke="#63b8ff" d="M508.25,-585.88C497.6,-594.54 506.47,-603.48 534.88,-603.48 550.41,-603.48 560.1,-600.81 563.95,-596.97"/>
<polygon fill="#63b8ff" stroke="#63b8ff" points="567.4,-596.37 561.83,-587.36 560.57,-597.88 567.4,-596.37"/>
</a>
</g>
</g>
<!-- Node242&#45;&gt;Node14 -->
<g id="edge55_Node000242_Node000014" class="edge">
<title>Node242&#45;&gt;Node14</title>
<g id="a_edge55_Node000242_Node000014"><a xlink:title=" ">
<path fill="none" stroke="#63b8ff" d="M373.46,-369.34C385.1,-326.08 430.54,-165.97 472.5,-138.11 601.95,-52.15 796.42,-179.53 862.48,-228.38"/>
<polygon fill="#63b8ff" stroke="#63b8ff" points="860.3,-231.12 870.4,-234.33 864.51,-225.52 860.3,-231.12"/>
</a>
</g>
</g>
<!-- Node242&#45;&gt;Node58 -->
<g id="edge54_Node000242_Node000058" class="edge">
<title>Node242&#45;&gt;Node58</title>
<g id="a_edge54_Node000242_Node000058"><a xlink:title=" ">
<path fill="none" stroke="#63b8ff" d="M416.1,-390.97C437.79,-396.15 463.75,-402.36 485.77,-407.62"/>
<polygon fill="#63b8ff" stroke="#63b8ff" points="484.87,-411 495.41,-409.92 486.5,-404.19 484.87,-411"/>
</a>
</g>
</g>
</g>
</svg>
