<?xml version="1.0" encoding="UTF-8" standalone="no"?>
<!DOCTYPE svg PUBLIC "-//W3C//DTD SVG 1.1//EN"
 "http://www.w3.org/Graphics/SVG/1.1/DTD/svg11.dtd">
<!-- Generated by graphviz version 13.1.2 (20250808.2320)
 -->
<!-- Title: kest_active_button_trigger_del_button_fade_out Pages: 1 -->
<svg width="625pt" height="54pt"
 viewBox="0.00 0.00 625.00 54.00" xmlns="http://www.w3.org/2000/svg" xmlns:xlink="http://www.w3.org/1999/xlink">
<g id="graph0" class="graph" transform="scale(1 1) rotate(0) translate(4 50.25)">
<title>kest_active_button_trigger_del_button_fade_out</title>
<!-- Node1 -->
<g id="Node000001" class="node">
<title>Node1</title>
<g id="a_Node000001"><a xlink:title=" ">
<polygon fill="#999999" stroke="#666666" points="616.75,-46.25 506.25,-46.25 506.25,0 616.75,0 616.75,-46.25"/>
<text xml:space="preserve" text-anchor="start" x="514.25" y="-32.75" font-family="Helvetica,sans-Serif" font-size="10.00">kest_active_button</text>
<text xml:space="preserve" text-anchor="start" x="514.25" y="-20" font-family="Helvetica,sans-Serif" font-size="10.00">_trigger_del_button</text>
<text xml:space="preserve" text-anchor="middle" x="561.5" y="-7.25" font-family="Helvetica,sans-Serif" font-size="10.00">_fade_out</text>
</a>
</g>
</g>
<!-- Node2 -->
<g id="Node000002" class="node">
<title>Node2</title>
<g id="a_Node000002"><a xlink:href="kest__button_8c.html#a3477b16331ef3ee2eb1369f85977a523" target="_top" xlink:title=" ">
<polygon fill="white" stroke="#666666" points="470.25,-39.88 309.5,-39.88 309.5,-6.38 470.25,-6.38 470.25,-39.88"/>
<text xml:space="preserve" text-anchor="start" x="317.5" y="-26.38" font-family="Helvetica,sans-Serif" font-size="10.00">kest_active_button</text>
<text xml:space="preserve" text-anchor="middle" x="389.88" y="-13.62" font-family="Helvetica,sans-Serif" font-size="10.00">_del_button_remain_timer_cb</text>
</a>
</g>
</g>
<!-- Node1&#45;&gt;Node2 -->
<g id="edge1_Node000001_Node000002" class="edge">
<title>Node1&#45;&gt;Node2</title>
<g id="a_edge1_Node000001_Node000002"><a xlink:title=" ">
<path fill="none" stroke="#63b8ff" d="M494.61,-23.12C486.77,-23.12 478.7,-23.12 470.7,-23.12"/>
<polygon fill="#63b8ff" stroke="#63b8ff" points="494.38,-26.63 504.38,-23.13 494.38,-19.63 494.38,-26.63"/>
</a>
</g>
</g>
<!-- Node3 -->
<g id="Node000003" class="node">
<title>Node3</title>
<g id="a_Node000003"><a xlink:href="kest__button_8c.html#abd7f68ebcde411086bd7fa11eb96564b" target="_top" xlink:title=" ">
<polygon fill="white" stroke="#666666" points="273.5,-39.88 165.25,-39.88 165.25,-6.38 273.5,-6.38 273.5,-39.88"/>
<text xml:space="preserve" text-anchor="start" x="173.25" y="-26.38" font-family="Helvetica,sans-Serif" font-size="10.00">kest_active_button</text>
<text xml:space="preserve" text-anchor="middle" x="219.38" y="-13.62" font-family="Helvetica,sans-Serif" font-size="10.00">_release_cb</text>
</a>
</g>
</g>
<!-- Node2&#45;&gt;Node3 -->
<g id="edge2_Node000002_Node000003" class="edge">
<title>Node2&#45;&gt;Node3</title>
<g id="a_edge2_Node000002_Node000003"><a xlink:title=" ">
<path fill="none" stroke="#63b8ff" d="M297.62,-23.12C289.54,-23.12 281.55,-23.12 273.94,-23.12"/>
<polygon fill="#63b8ff" stroke="#63b8ff" points="297.55,-26.63 307.55,-23.13 297.55,-19.63 297.55,-26.63"/>
</a>
</g>
</g>
<!-- Node4 -->
<g id="Node000004" class="node">
<title>Node4</title>
<g id="a_Node000004"><a xlink:href="kest__button_8c.html#a9cc8b0c8114bbffc12e858af8589ff86" target="_top" xlink:title=" ">
<polygon fill="#fff0f0" stroke="red" points="129.25,-33.5 0,-33.5 0,-12.75 129.25,-12.75 129.25,-33.5"/>
<text xml:space="preserve" text-anchor="middle" x="64.62" y="-20" font-family="Helvetica,sans-Serif" font-size="10.00">kest_active_button_init</text>
</a>
</g>
</g>
<!-- Node3&#45;&gt;Node4 -->
<g id="edge3_Node000003_Node000004" class="edge">
<title>Node3&#45;&gt;Node4</title>
<g id="a_edge3_Node000003_Node000004"><a xlink:title=" ">
<path fill="none" stroke="#63b8ff" d="M153.48,-23.12C145.55,-23.12 137.44,-23.12 129.52,-23.12"/>
<polygon fill="#63b8ff" stroke="#63b8ff" points="153.44,-26.63 163.44,-23.13 153.44,-19.63 153.44,-26.63"/>
</a>
</g>
</g>
</g>
</svg>
