<?xml version="1.0" encoding="UTF-8" standalone="no"?>
<!DOCTYPE svg PUBLIC "-//W3C//DTD SVG 1.1//EN"
 "http://www.w3.org/Graphics/SVG/1.1/DTD/svg11.dtd">
<!-- Generated by graphviz version 13.1.2 (20250808.2320)
 -->
<!-- Title: kest_active_button_scale_cb Pages: 1 -->
<svg width="576pt" height="94pt"
 viewBox="0.00 0.00 576.00 94.00" xmlns="http://www.w3.org/2000/svg" xmlns:xlink="http://www.w3.org/1999/xlink">
<g id="graph0" class="graph" transform="scale(1 1) rotate(0) translate(4 89.5)">
<title>kest_active_button_scale_cb</title>
<!-- Node1 -->
<g id="Node000001" class="node">
<title>Node1</title>
<g id="a_Node000001"><a xlink:title=" ">
<polygon fill="#999999" stroke="#666666" points="568,-59.5 459.75,-59.5 459.75,-26 568,-26 568,-59.5"/>
<text xml:space="preserve" text-anchor="start" x="467.75" y="-46" font-family="Helvetica,sans-Serif" font-size="10.00">kest_active_button</text>
<text xml:space="preserve" text-anchor="middle" x="513.88" y="-33.25" font-family="Helvetica,sans-Serif" font-size="10.00">_scale_cb</text>
</a>
</g>
</g>
<!-- Node2 -->
<g id="Node000002" class="node">
<title>Node2</title>
<g id="a_Node000002"><a xlink:href="kest__button_8c.html#a88a9ce412a597e9275337196a681e6c0" target="_top" xlink:title=" ">
<polygon fill="white" stroke="#666666" points="423.75,-59.5 309.5,-59.5 309.5,-26 423.75,-26 423.75,-59.5"/>
<text xml:space="preserve" text-anchor="start" x="317.5" y="-46" font-family="Helvetica,sans-Serif" font-size="10.00">kest_active_button</text>
<text xml:space="preserve" text-anchor="middle" x="366.62" y="-33.25" font-family="Helvetica,sans-Serif" font-size="10.00">_trigger_scale_anim</text>
</a>
</g>
</g>
<!-- Node1&#45;&gt;Node2 -->
<g id="edge1_Node000001_Node000002" class="edge">
<title>Node1&#45;&gt;Node2</title>
<g id="a_edge1_Node000001_Node000002"><a xlink:title=" ">
<path fill="none" stroke="#63b8ff" d="M448.23,-42.75C440.09,-42.75 431.81,-42.75 423.81,-42.75"/>
<polygon fill="#63b8ff" stroke="#63b8ff" points="448.1,-46.25 458.1,-42.75 448.1,-39.25 448.1,-46.25"/>
</a>
</g>
</g>
<!-- Node3 -->
<g id="Node000003" class="node">
<title>Node3</title>
<g id="a_Node000003"><a xlink:href="kest__button_8c.html#af4a8a2f9042aae51caf39056d3ae1972" target="_top" xlink:title=" ">
<polygon fill="white" stroke="#666666" points="273.5,-85.5 165.25,-85.5 165.25,-52 273.5,-52 273.5,-85.5"/>
<text xml:space="preserve" text-anchor="start" x="173.25" y="-72" font-family="Helvetica,sans-Serif" font-size="10.00">kest_active_button</text>
<text xml:space="preserve" text-anchor="middle" x="219.38" y="-59.25" font-family="Helvetica,sans-Serif" font-size="10.00">_long_pressed_cb</text>
</a>
</g>
</g>
<!-- Node2&#45;&gt;Node3 -->
<g id="edge2_Node000002_Node000003" class="edge">
<title>Node2&#45;&gt;Node3</title>
<g id="a_edge2_Node000002_Node000003"><a xlink:title=" ">
<path fill="none" stroke="#63b8ff" d="M297.74,-54.9C289.67,-56.35 281.53,-57.8 273.7,-59.2"/>
<polygon fill="#63b8ff" stroke="#63b8ff" points="298.33,-58.35 307.56,-53.14 297.1,-51.46 298.33,-58.35"/>
</a>
</g>
</g>
<!-- Node35 -->
<g id="Node000035" class="node">
<title>Node35</title>
<g id="a_Node000035"><a xlink:href="kest__button_8c.html#abd7f68ebcde411086bd7fa11eb96564b" target="_top" xlink:title=" ">
<polygon fill="white" stroke="#666666" points="273.5,-33.5 165.25,-33.5 165.25,0 273.5,0 273.5,-33.5"/>
<text xml:space="preserve" text-anchor="start" x="173.25" y="-20" font-family="Helvetica,sans-Serif" font-size="10.00">kest_active_button</text>
<text xml:space="preserve" text-anchor="middle" x="219.38" y="-7.25" font-family="Helvetica,sans-Serif" font-size="10.00">_release_cb</text>
</a>
</g>
</g>
<!-- Node2&#45;&gt;Node35 -->
<g id="edge4_Node000002_Node000035" class="edge">
<title>Node2&#45;&gt;Node35</title>
<g id="a_edge4_Node000002_Node000035"><a xlink:title=" ">
<path fill="none" stroke="#63b8ff" d="M297.74,-30.6C289.67,-29.15 281.53,-27.7 273.7,-26.3"/>
<polygon fill="#63b8ff" stroke="#63b8ff" points="297.1,-34.04 307.56,-32.36 298.33,-27.15 297.1,-34.04"/>
</a>
</g>
</g>
<!-- Node4 -->
<g id="Node000004" class="node">
<title>Node4</title>
<g id="a_Node000004"><a xlink:href="kest__button_8c.html#a9cc8b0c8114bbffc12e858af8589ff86" target="_top" xlink:title=" ">
<polygon fill="#fff0f0" stroke="red" points="129.25,-53.12 0,-53.12 0,-32.38 129.25,-32.38 129.25,-53.12"/>
<text xml:space="preserve" text-anchor="middle" x="64.62" y="-39.62" font-family="Helvetica,sans-Serif" font-size="10.00">kest_active_button_init</text>
</a>
</g>
</g>
<!-- Node3&#45;&gt;Node4 -->
<g id="edge3_Node000003_Node000004" class="edge">
<title>Node3&#45;&gt;Node4</title>
<g id="a_edge3_Node000003_Node000004"><a xlink:title=" ">
<path fill="none" stroke="#63b8ff" d="M153.67,-57.74C145.59,-56.36 137.32,-54.95 129.25,-53.58"/>
<polygon fill="#63b8ff" stroke="#63b8ff" points="153.01,-61.17 163.46,-59.4 154.19,-54.27 153.01,-61.17"/>
</a>
</g>
</g>
<!-- Node35&#45;&gt;Node4 -->
<g id="edge5_Node000035_Node000004" class="edge">
<title>Node35&#45;&gt;Node4</title>
<g id="a_edge5_Node000035_Node000004"><a xlink:title=" ">
<path fill="none" stroke="#63b8ff" d="M153.67,-27.76C145.59,-29.14 137.32,-30.55 129.25,-31.92"/>
<polygon fill="#63b8ff" stroke="#63b8ff" points="154.19,-31.23 163.46,-26.1 153.01,-24.33 154.19,-31.23"/>
</a>
</g>
</g>
</g>
</svg>
