<?xml version="1.0" encoding="UTF-8" standalone="no"?>
<!DOCTYPE svg PUBLIC "-//W3C//DTD SVG 1.1//EN"
 "http://www.w3.org/Graphics/SVG/1.1/DTD/svg11.dtd">
<!-- Generated by graphviz version 13.1.2 (20250808.2320)
 -->
<!-- Title: kest_block_instr_encode_resource_aware Pages: 1 -->
<svg width="484pt" height="139pt"
 viewBox="0.00 0.00 484.00 139.00" xmlns="http://www.w3.org/2000/svg" xmlns:xlink="http://www.w3.org/1999/xlink">
<g id="graph0" class="graph" transform="scale(1 1) rotate(0) translate(4 134.5)">
<title>kest_block_instr_encode_resource_aware</title>
<!-- Node1 -->
<g id="Node000001" class="node">
<title>Node1</title>
<g id="a_Node000001"><a xlink:title=" ">
<polygon fill="#999999" stroke="#666666" points="135.25,-85.5 0,-85.5 0,-52 135.25,-52 135.25,-85.5"/>
<text xml:space="preserve" text-anchor="start" x="8" y="-72" font-family="Helvetica,sans-Serif" font-size="10.00">kest_block_instr_encode</text>
<text xml:space="preserve" text-anchor="middle" x="67.62" y="-59.25" font-family="Helvetica,sans-Serif" font-size="10.00">_resource_aware</text>
</a>
</g>
</g>
<!-- Node2 -->
<g id="Node000002" class="node">
<title>Node2</title>
<g id="a_Node000002"><a xlink:href="kest__fpga__encoding_8c.html#a87169a4f3a076c88525f4e753a313806" target="_top" xlink:title=" ">
<polygon fill="white" stroke="#666666" points="304.25,-124.12 171.25,-124.12 171.25,-103.38 304.25,-103.38 304.25,-124.12"/>
<text xml:space="preserve" text-anchor="middle" x="237.75" y="-110.62" font-family="Helvetica,sans-Serif" font-size="10.00">kest_block_instr_format</text>
</a>
</g>
</g>
<!-- Node1&#45;&gt;Node2 -->
<g id="edge1_Node000001_Node000002" class="edge">
<title>Node1&#45;&gt;Node2</title>
<g id="a_edge1_Node000001_Node000002"><a xlink:title=" ">
<path fill="none" stroke="#63b8ff" d="M132.67,-85.89C150.01,-90.53 168.56,-95.5 185.12,-99.93"/>
<polygon fill="#63b8ff" stroke="#63b8ff" points="184.2,-103.31 194.77,-102.51 186.01,-96.55 184.2,-103.31"/>
</a>
</g>
</g>
<!-- Node4 -->
<g id="Node000004" class="node">
<title>Node4</title>
<g id="a_Node000004"><a xlink:href="kest__fpga__encoding_8c.html#ac458e80a0b05b63cdd31322e1dcebf7d" target="_top" xlink:title=" ">
<polygon fill="white" stroke="#666666" points="303.12,-85.5 172.38,-85.5 172.38,-52 303.12,-52 303.12,-85.5"/>
<text xml:space="preserve" text-anchor="start" x="180.38" y="-72" font-family="Helvetica,sans-Serif" font-size="10.00">kest_encode_dsp_block</text>
<text xml:space="preserve" text-anchor="middle" x="237.75" y="-59.25" font-family="Helvetica,sans-Serif" font-size="10.00">_instr_type_a</text>
</a>
</g>
</g>
<!-- Node1&#45;&gt;Node4 -->
<g id="edge3_Node000001_Node000004" class="edge">
<title>Node1&#45;&gt;Node4</title>
<g id="a_edge3_Node000001_Node000004"><a xlink:title=" ">
<path fill="none" stroke="#63b8ff" d="M135.56,-68.75C143.8,-68.75 152.28,-68.75 160.65,-68.75"/>
<polygon fill="#63b8ff" stroke="#63b8ff" points="160.45,-72.25 170.45,-68.75 160.45,-65.25 160.45,-72.25"/>
</a>
</g>
</g>
<!-- Node5 -->
<g id="Node000005" class="node">
<title>Node5</title>
<g id="a_Node000005"><a xlink:href="kest__fpga__encoding_8c.html#af9d51e8e84a57743c39842e8a53f18e8" target="_top" xlink:title=" ">
<polygon fill="white" stroke="#666666" points="303.12,-33.5 172.38,-33.5 172.38,0 303.12,0 303.12,-33.5"/>
<text xml:space="preserve" text-anchor="start" x="180.38" y="-20" font-family="Helvetica,sans-Serif" font-size="10.00">kest_encode_dsp_block</text>
<text xml:space="preserve" text-anchor="middle" x="237.75" y="-7.25" font-family="Helvetica,sans-Serif" font-size="10.00">_instr_type_b</text>
</a>
</g>
</g>
<!-- Node1&#45;&gt;Node5 -->
<g id="edge4_Node000001_Node000005" class="edge">
<title>Node1&#45;&gt;Node5</title>
<g id="a_edge4_Node000001_Node000005"><a xlink:title=" ">
<path fill="none" stroke="#63b8ff" d="M124.14,-51.58C138.84,-47.03 154.86,-42.08 170.09,-37.37"/>
<polygon fill="#63b8ff" stroke="#63b8ff" points="171.04,-40.74 179.56,-34.44 168.97,-34.05 171.04,-40.74"/>
</a>
</g>
</g>
<!-- Node3 -->
<g id="Node000003" class="node">
<title>Node3</title>
<g id="a_Node000003"><a xlink:href="kest__fpga__encoding_8c.html#a8357836213e2592c0f36f83c83b1dcbd" target="_top" xlink:title=" ">
<polygon fill="white" stroke="#666666" points="475.5,-130.5 340.25,-130.5 340.25,-97 475.5,-97 475.5,-130.5"/>
<text xml:space="preserve" text-anchor="start" x="348.25" y="-117" font-family="Helvetica,sans-Serif" font-size="10.00">kest_fpga_block_opcode</text>
<text xml:space="preserve" text-anchor="middle" x="407.88" y="-104.25" font-family="Helvetica,sans-Serif" font-size="10.00">_format</text>
</a>
</g>
</g>
<!-- Node2&#45;&gt;Node3 -->
<g id="edge2_Node000002_Node000003" class="edge">
<title>Node2&#45;&gt;Node3</title>
<g id="a_edge2_Node000002_Node000003"><a xlink:title=" ">
<path fill="none" stroke="#63b8ff" d="M304.71,-113.75C312.59,-113.75 320.69,-113.75 328.72,-113.75"/>
<polygon fill="#63b8ff" stroke="#63b8ff" points="328.48,-117.25 338.48,-113.75 328.48,-110.25 328.48,-117.25"/>
</a>
</g>
</g>
</g>
</svg>
