<?xml version="1.0" encoding="UTF-8" standalone="no"?>
<!DOCTYPE svg PUBLIC "-//W3C//DTD SVG 1.1//EN"
 "http://www.w3.org/Graphics/SVG/1.1/DTD/svg11.dtd">
<!-- Generated by graphviz version 13.1.2 (20250808.2320)
 -->
<!-- Title: sgtl5000_set_address_level Pages: 1 -->
<svg width="370pt" height="42pt"
 viewBox="0.00 0.00 370.00 42.00" xmlns="http://www.w3.org/2000/svg" xmlns:xlink="http://www.w3.org/1999/xlink">
<g id="graph0" class="graph" transform="scale(1 1) rotate(0) translate(4 37.5)">
<title>sgtl5000_set_address_level</title>
<!-- Node1 -->
<g id="Node000001" class="node">
<title>Node1</title>
<g id="a_Node000001"><a xlink:title=" ">
<polygon fill="#999999" stroke="#666666" points="362.25,-33.5 240.5,-33.5 240.5,0 362.25,0 362.25,-33.5"/>
<text xml:space="preserve" text-anchor="start" x="248.5" y="-20" font-family="Helvetica,sans-Serif" font-size="10.00">sgtl5000_set_address</text>
<text xml:space="preserve" text-anchor="middle" x="301.38" y="-7.25" font-family="Helvetica,sans-Serif" font-size="10.00">_level</text>
</a>
</g>
</g>
<!-- Node2 -->
<g id="Node000002" class="node">
<title>Node2</title>
<g id="a_Node000002"><a xlink:href="kest__sgtl5000_8c.html#ab1fee6b32d3be05247ada395bd60915b" target="_top" xlink:title=" ">
<polygon fill="white" stroke="#666666" points="204.5,-27.12 100,-27.12 100,-6.38 204.5,-6.38 204.5,-27.12"/>
<text xml:space="preserve" text-anchor="middle" x="152.25" y="-13.62" font-family="Helvetica,sans-Serif" font-size="10.00">kest_sgtl5000_init</text>
</a>
</g>
</g>
<!-- Node1&#45;&gt;Node2 -->
<g id="edge1_Node000001_Node000002" class="edge">
<title>Node1&#45;&gt;Node2</title>
<g id="a_edge1_Node000001_Node000002"><a xlink:title=" ">
<path fill="none" stroke="#63b8ff" d="M228.72,-16.75C220.62,-16.75 212.49,-16.75 204.72,-16.75"/>
<polygon fill="#63b8ff" stroke="#63b8ff" points="228.6,-20.25 238.6,-16.75 228.6,-13.25 228.6,-20.25"/>
</a>
</g>
</g>
<!-- Node3 -->
<g id="Node000003" class="node">
<title>Node3</title>
<g id="a_Node000003"><a xlink:href="kest__int_8c.html#abce06be17fc37d675118a678a8100a36" target="_top" xlink:title=" ">
<polygon fill="white" stroke="#666666" points="64,-27.12 0,-27.12 0,-6.38 64,-6.38 64,-27.12"/>
<text xml:space="preserve" text-anchor="middle" x="32" y="-13.62" font-family="Helvetica,sans-Serif" font-size="10.00">app_main</text>
</a>
</g>
</g>
<!-- Node2&#45;&gt;Node3 -->
<g id="edge2_Node000002_Node000003" class="edge">
<title>Node2&#45;&gt;Node3</title>
<g id="a_edge2_Node000002_Node000003"><a xlink:title=" ">
<path fill="none" stroke="#63b8ff" d="M88.35,-16.75C80,-16.75 71.75,-16.75 64.27,-16.75"/>
<polygon fill="#63b8ff" stroke="#63b8ff" points="88.21,-20.25 98.21,-16.75 88.21,-13.25 88.21,-20.25"/>
</a>
</g>
</g>
</g>
</svg>
