<?xml version="1.0" encoding="UTF-8" standalone="no"?>
<!DOCTYPE svg PUBLIC "-//W3C//DTD SVG 1.1//EN"
 "http://www.w3.org/Graphics/SVG/1.1/DTD/svg11.dtd">
<!-- Generated by graphviz version 13.1.2 (20250808.2320)
 -->
<!-- Title: kest_context_init_main_sequence Pages: 1 -->
<svg width="544pt" height="42pt"
 viewBox="0.00 0.00 544.00 42.00" xmlns="http://www.w3.org/2000/svg" xmlns:xlink="http://www.w3.org/1999/xlink">
<g id="graph0" class="graph" transform="scale(1 1) rotate(0) translate(4 37.5)">
<title>kest_context_init_main_sequence</title>
<!-- Node1 -->
<g id="Node000001" class="node">
<title>Node1</title>
<g id="a_Node000001"><a xlink:title=" ">
<polygon fill="#999999" stroke="#666666" points="129.25,-33.5 0,-33.5 0,0 129.25,0 129.25,-33.5"/>
<text xml:space="preserve" text-anchor="start" x="8" y="-20" font-family="Helvetica,sans-Serif" font-size="10.00">kest_context_init_main</text>
<text xml:space="preserve" text-anchor="middle" x="64.62" y="-7.25" font-family="Helvetica,sans-Serif" font-size="10.00">_sequence</text>
</a>
</g>
</g>
<!-- Node2 -->
<g id="Node000002" class="node">
<title>Node2</title>
<g id="a_Node000002"><a xlink:href="kest__sequence_8c.html#a3d05c5041e825df7868554ff22e0dd80" target="_top" xlink:title=" ">
<polygon fill="white" stroke="#666666" points="263.75,-27.12 165.25,-27.12 165.25,-6.38 263.75,-6.38 263.75,-27.12"/>
<text xml:space="preserve" text-anchor="middle" x="214.5" y="-13.62" font-family="Helvetica,sans-Serif" font-size="10.00">init_m_sequence</text>
</a>
</g>
</g>
<!-- Node1&#45;&gt;Node2 -->
<g id="edge1_Node000001_Node000002" class="edge">
<title>Node1&#45;&gt;Node2</title>
<g id="a_edge1_Node000001_Node000002"><a xlink:title=" ">
<path fill="none" stroke="#63b8ff" d="M129.63,-16.75C137.6,-16.75 145.73,-16.75 153.63,-16.75"/>
<polygon fill="#63b8ff" stroke="#63b8ff" points="153.5,-20.25 163.5,-16.75 153.5,-13.25 153.5,-20.25"/>
</a>
</g>
</g>
<!-- Node3 -->
<g id="Node000003" class="node">
<title>Node3</title>
<g id="a_Node000003"><a xlink:href="kest__sequence_8c.html#aade8512fa274f7f5aba28d373fd2e6d9" target="_top" xlink:title=" ">
<polygon fill="white" stroke="#666666" points="408.75,-33.5 299.75,-33.5 299.75,0 408.75,0 408.75,-33.5"/>
<text xml:space="preserve" text-anchor="start" x="307.75" y="-20" font-family="Helvetica,sans-Serif" font-size="10.00">kest_sequence_file</text>
<text xml:space="preserve" text-anchor="middle" x="354.25" y="-7.25" font-family="Helvetica,sans-Serif" font-size="10.00">_rep_update</text>
</a>
</g>
</g>
<!-- Node2&#45;&gt;Node3 -->
<g id="edge2_Node000002_Node000003" class="edge">
<title>Node2&#45;&gt;Node3</title>
<g id="a_edge2_Node000002_Node000003"><a xlink:title=" ">
<path fill="none" stroke="#63b8ff" d="M264.07,-16.75C271.86,-16.75 280.03,-16.75 288.13,-16.75"/>
<polygon fill="#63b8ff" stroke="#63b8ff" points="287.98,-20.25 297.98,-16.75 287.98,-13.25 287.98,-20.25"/>
</a>
</g>
</g>
<!-- Node4 -->
<g id="Node000004" class="node">
<title>Node4</title>
<g id="a_Node000004"><a xlink:href="kest__files_8c.html#af53689e3600e69611b9c05f11971d23e" target="_top" xlink:title=" ">
<polygon fill="#fff0f0" stroke="red" points="535.75,-27.12 444.75,-27.12 444.75,-6.38 535.75,-6.38 535.75,-27.12"/>
<text xml:space="preserve" text-anchor="middle" x="490.25" y="-13.62" font-family="Helvetica,sans-Serif" font-size="10.00">save_sequence</text>
</a>
</g>
</g>
<!-- Node3&#45;&gt;Node4 -->
<g id="edge3_Node000003_Node000004" class="edge">
<title>Node3&#45;&gt;Node4</title>
<g id="a_edge3_Node000003_Node000004"><a xlink:title=" ">
<path fill="none" stroke="#63b8ff" d="M408.98,-16.75C416.91,-16.75 425.09,-16.75 433.06,-16.75"/>
<polygon fill="#63b8ff" stroke="#63b8ff" points="433.03,-20.25 443.03,-16.75 433.03,-13.25 433.03,-20.25"/>
</a>
</g>
</g>
</g>
</svg>
