<?xml version="1.0" encoding="UTF-8" standalone="no"?>
<!DOCTYPE svg PUBLIC "-//W3C//DTD SVG 1.1//EN"
 "http://www.w3.org/Graphics/SVG/1.1/DTD/svg11.dtd">
<!-- Generated by graphviz version 13.1.2 (20250808.2320)
 -->
<!-- Title: kest_new_expr_scope_entry_param Pages: 1 -->
<svg width="635pt" height="146pt"
 viewBox="0.00 0.00 635.00 146.00" xmlns="http://www.w3.org/2000/svg" xmlns:xlink="http://www.w3.org/1999/xlink">
<g id="graph0" class="graph" transform="scale(1 1) rotate(0) translate(4 141.5)">
<title>kest_new_expr_scope_entry_param</title>
<!-- Node1 -->
<g id="Node000001" class="node">
<title>Node1</title>
<g id="a_Node000001"><a xlink:title=" ">
<polygon fill="#999999" stroke="#666666" points="626.5,-85.5 504,-85.5 504,-52 626.5,-52 626.5,-85.5"/>
<text xml:space="preserve" text-anchor="start" x="512" y="-72" font-family="Helvetica,sans-Serif" font-size="10.00">kest_new_expr_scope</text>
<text xml:space="preserve" text-anchor="middle" x="565.25" y="-59.25" font-family="Helvetica,sans-Serif" font-size="10.00">_entry_param</text>
</a>
</g>
</g>
<!-- Node2 -->
<g id="Node000002" class="node">
<title>Node2</title>
<g id="a_Node000002"><a xlink:href="kest__expr__scope_8c.html#a4c5624229dada0831cefd45eebbbc2fd" target="_top" xlink:title=" ">
<polygon fill="white" stroke="#666666" points="468,-85.5 347.75,-85.5 347.75,-52 468,-52 468,-85.5"/>
<text xml:space="preserve" text-anchor="start" x="355.75" y="-72" font-family="Helvetica,sans-Serif" font-size="10.00">kest_expr_scope_add</text>
<text xml:space="preserve" text-anchor="middle" x="407.88" y="-59.25" font-family="Helvetica,sans-Serif" font-size="10.00">_param</text>
</a>
</g>
</g>
<!-- Node1&#45;&gt;Node2 -->
<g id="edge1_Node000001_Node000002" class="edge">
<title>Node1&#45;&gt;Node2</title>
<g id="a_edge1_Node000001_Node000002"><a xlink:title=" ">
<path fill="none" stroke="#63b8ff" d="M492.47,-68.75C484.44,-68.75 476.32,-68.75 468.46,-68.75"/>
<polygon fill="#63b8ff" stroke="#63b8ff" points="492.22,-72.25 502.22,-68.75 492.22,-65.25 492.22,-72.25"/>
</a>
</g>
</g>
<!-- Node3 -->
<g id="Node000003" class="node">
<title>Node3</title>
<g id="a_Node000003"><a xlink:href="kest__eff__desc_8c.html#aaf8a3f8e6d2ba98da34712a2a5f629f1" target="_top" xlink:title=" ">
<polygon fill="white" stroke="#666666" points="311,-137.5 192.25,-137.5 192.25,-104 311,-104 311,-137.5"/>
<text xml:space="preserve" text-anchor="start" x="200.25" y="-124" font-family="Helvetica,sans-Serif" font-size="10.00">kest_eff_desc_create</text>
<text xml:space="preserve" text-anchor="middle" x="251.62" y="-111.25" font-family="Helvetica,sans-Serif" font-size="10.00">_scope</text>
</a>
</g>
</g>
<!-- Node2&#45;&gt;Node3 -->
<g id="edge2_Node000002_Node000003" class="edge">
<title>Node2&#45;&gt;Node3</title>
<g id="a_edge2_Node000002_Node000003"><a xlink:title=" ">
<path fill="none" stroke="#63b8ff" d="M345.12,-89.57C331.4,-94.19 317.01,-99.05 303.77,-103.51"/>
<polygon fill="#63b8ff" stroke="#63b8ff" points="346.15,-92.92 354.51,-86.4 343.91,-86.28 346.15,-92.92"/>
</a>
</g>
</g>
<!-- Node4 -->
<g id="Node000004" class="node">
<title>Node4</title>
<g id="a_Node000004"><a xlink:href="kest__effect_8c.html#ad36244b2279575200cc5265d2e25dfdd" target="_top" xlink:title=" ">
<polygon fill="white" stroke="#666666" points="304.62,-85.5 198.62,-85.5 198.62,-52 304.62,-52 304.62,-85.5"/>
<text xml:space="preserve" text-anchor="start" x="206.62" y="-72" font-family="Helvetica,sans-Serif" font-size="10.00">kest_effect_create</text>
<text xml:space="preserve" text-anchor="middle" x="251.62" y="-59.25" font-family="Helvetica,sans-Serif" font-size="10.00">_scope</text>
</a>
</g>
</g>
<!-- Node2&#45;&gt;Node4 -->
<g id="edge3_Node000002_Node000004" class="edge">
<title>Node2&#45;&gt;Node4</title>
<g id="a_edge3_Node000002_Node000004"><a xlink:title=" ">
<path fill="none" stroke="#63b8ff" d="M336.3,-68.75C325.72,-68.75 314.97,-68.75 304.86,-68.75"/>
<polygon fill="#63b8ff" stroke="#63b8ff" points="336.17,-72.25 346.17,-68.75 336.17,-65.25 336.17,-72.25"/>
</a>
</g>
</g>
<!-- Node17 -->
<g id="Node000017" class="node">
<title>Node17</title>
<g id="a_Node000017"><a xlink:href="kest__expr__scope_8c.html#a34a014762db8866580f6b80231e441fe" target="_top" xlink:title=" ">
<polygon fill="white" stroke="#666666" points="311.75,-33.5 191.5,-33.5 191.5,0 311.75,0 311.75,-33.5"/>
<text xml:space="preserve" text-anchor="start" x="199.5" y="-20" font-family="Helvetica,sans-Serif" font-size="10.00">kest_expr_scope_add</text>
<text xml:space="preserve" text-anchor="middle" x="251.62" y="-7.25" font-family="Helvetica,sans-Serif" font-size="10.00">_params</text>
</a>
</g>
</g>
<!-- Node2&#45;&gt;Node17 -->
<g id="edge5_Node000002_Node000017" class="edge">
<title>Node2&#45;&gt;Node17</title>
<g id="a_edge5_Node000002_Node000017"><a xlink:title=" ">
<path fill="none" stroke="#63b8ff" d="M345.12,-47.93C331.4,-43.31 317.01,-38.45 303.77,-33.99"/>
<polygon fill="#63b8ff" stroke="#63b8ff" points="343.91,-51.22 354.51,-51.1 346.15,-44.58 343.91,-51.22"/>
</a>
</g>
</g>
<!-- Node5 -->
<g id="Node000005" class="node">
<title>Node5</title>
<g id="a_Node000005"><a xlink:href="kest__effect_8c.html#a85b25e44e2629962673634f965ffe304" target="_top" xlink:title=" ">
<polygon fill="#fff0f0" stroke="red" points="155.5,-79.12 0,-79.12 0,-58.38 155.5,-58.38 155.5,-79.12"/>
<text xml:space="preserve" text-anchor="middle" x="77.75" y="-65.62" font-family="Helvetica,sans-Serif" font-size="10.00">init_effect_from_effect_desc</text>
</a>
</g>
</g>
<!-- Node4&#45;&gt;Node5 -->
<g id="edge4_Node000004_Node000005" class="edge">
<title>Node4&#45;&gt;Node5</title>
<g id="a_edge4_Node000004_Node000005"><a xlink:title=" ">
<path fill="none" stroke="#63b8ff" d="M187.31,-68.75C177.11,-68.75 166.45,-68.75 155.98,-68.75"/>
<polygon fill="#63b8ff" stroke="#63b8ff" points="187.08,-72.25 197.08,-68.75 187.08,-65.25 187.08,-72.25"/>
</a>
</g>
</g>
<!-- Node18 -->
<g id="Node000018" class="node">
<title>Node18</title>
<g id="a_Node000018"><a xlink:href="kest__eff__parser_8c.html#a73ef6962d1925857ec3e4b12d1aad834" target="_top" xlink:title=" ">
<polygon fill="#fff0f0" stroke="red" points="130.75,-27.12 24.75,-27.12 24.75,-6.38 130.75,-6.38 130.75,-27.12"/>
<text xml:space="preserve" text-anchor="middle" x="77.75" y="-13.62" font-family="Helvetica,sans-Serif" font-size="10.00">kest_parse_tokens</text>
</a>
</g>
</g>
<!-- Node17&#45;&gt;Node18 -->
<g id="edge6_Node000017_Node000018" class="edge">
<title>Node17&#45;&gt;Node18</title>
<g id="a_edge6_Node000017_Node000018"><a xlink:title=" ">
<path fill="none" stroke="#63b8ff" d="M180.25,-16.75C163.82,-16.75 146.6,-16.75 131.11,-16.75"/>
<polygon fill="#63b8ff" stroke="#63b8ff" points="179.96,-20.25 189.96,-16.75 179.96,-13.25 179.96,-20.25"/>
</a>
</g>
</g>
</g>
</svg>
