<?xml version="1.0" encoding="UTF-8" standalone="no"?>
<!DOCTYPE svg PUBLIC "-//W3C//DTD SVG 1.1//EN"
 "http://www.w3.org/Graphics/SVG/1.1/DTD/svg11.dtd">
<!-- Generated by graphviz version 13.1.2 (20250808.2320)
 -->
<!-- Title: init_effect Pages: 1 -->
<!--zoomable 234 -->

<svg id="main" version="1.1" xmlns="http://www.w3.org/2000/svg" xmlns:xlink="http://www.w3.org/1999/xlink" xml:space="preserve" onload="init(evt)">

<style type="text/css"><![CDATA[
.node, .edge {opacity: 0.7;}
.node.selected, .edge.selected {opacity: 1;}
.edge:hover path { stroke: red; }
.edge:hover polygon { stroke: red; fill: red; }
]]></style>

<defs>
  <circle id="rim" cx="0" cy="0" r="7"/>
  <circle id="rim2" cx="0" cy="0" r="3.5"/>
  <g id="zoomPlus">
    <use xlink:href="#rim" fill="#404040"><set attributeName="fill" to="#808080" begin="zoomplus.mouseover" end="zoomplus.mouseout"/></use>
    <path d="M-4,0h8M0,-4v8" fill="none" stroke="white" stroke-width="1.5" pointer-events="none"/>
  </g>
  <g id="zoomMin">
    <use xlink:href="#rim" fill="#404040"><set attributeName="fill" to="#808080" begin="zoomminus.mouseover" end="zoomminus.mouseout"/></use>
    <path d="M-4,0h8" fill="none" stroke="white" stroke-width="1.5" pointer-events="none"/>
  </g>
  <g id="arrowUp" transform="translate(30 24)">
    <use xlink:href="#rim"/>
    <path pointer-events="none" fill="none" stroke="white" stroke-width="1.5" d="M0,-3.0v7 M-2.5,-0.5L0,-3.0L2.5,-0.5"/>
  </g>
  <g id="arrowRight" transform="rotate(90) translate(36 -43)">
    <use xlink:href="#rim"/>
    <path pointer-events="none" fill="none" stroke="white" stroke-width="1.5" d="M0,-3.0v7 M-2.5,-0.5L0,-3.0L2.5,-0.5"/>
  </g>
  <g id="arrowDown" transform="rotate(180) translate(-30 -48)">
    <use xlink:href="#rim"/>
    <path pointer-events="none" fill="none" stroke="white" stroke-width="1.5" d="M0,-3.0v7 M-2.5,-0.5L0,-3.0L2.5,-0.5"/>
  </g>
  <g id="arrowLeft" transform="rotate(270) translate(-36 17)">
    <use xlink:href="#rim"/>
    <path pointer-events="none" fill="none" stroke="white" stroke-width="1.5" d="M0,-3.0v7 M-2.5,-0.5L0,-3.0L2.5,-0.5"/>
  </g>
  <g id="resetDef">
    <use xlink:href="#rim2" fill="#404040"><set attributeName="fill" to="#808080" begin="reset.mouseover" end="reset.mouseout"/></use>
  </g>
</defs>
<script type="application/ecmascript">
var viewWidth = 550;
var viewHeight = 234;
var sectionId = 'dynsection-12';
</script>
<script type="application/ecmascript" xlink:href="svg.min.js"/>
<svg id="graph" class="graph">
<g id="viewport">
<title>init_effect</title>
<!-- Node1 -->
<g id="Node000001" class="node">
<title>Node1</title>
<g id="a_Node000001"><a xlink:title=" ">
<polygon fill="#999999" stroke="#666666" points="65.5,-151.75 0,-151.75 0,-131 65.5,-131 65.5,-151.75"/>
<text xml:space="preserve" text-anchor="middle" x="32.75" y="-138.25" font-family="Helvetica,sans-Serif" font-size="10.00">init_effect</text>
</a>
</g>
</g>
<!-- Node2 -->
<g id="Node000002" class="node">
<title>Node2</title>
<g id="a_Node000002"><a xlink:href="kest__parameter_8c.html#a2b94ddb1588d1a5af4311970bb068122" target="_top" xlink:title=" ">
<polygon fill="white" stroke="#666666" points="198.88,-216.75 110.88,-216.75 110.88,-196 198.88,-196 198.88,-216.75"/>
<text xml:space="preserve" text-anchor="middle" x="154.88" y="-203.25" font-family="Helvetica,sans-Serif" font-size="10.00">init_parameter</text>
</a>
</g>
</g>
<!-- Node1&#45;&gt;Node2 -->
<g id="edge1_Node000001_Node000002" class="edge">
<title>Node1&#45;&gt;Node2</title>
<g id="a_edge1_Node000001_Node000002"><a xlink:title=" ">
<path fill="none" stroke="#63b8ff" d="M51.7,-152.11C65.26,-160.12 84.39,-171.21 101.5,-180.38 107.84,-183.77 114.69,-187.28 121.27,-190.58"/>
<polygon fill="#63b8ff" stroke="#63b8ff" points="119.42,-193.57 129.94,-194.87 122.53,-187.29 119.42,-193.57"/>
</a>
</g>
</g>
<!-- Node6 -->
<g id="Node000006" class="node">
<title>Node6</title>
<g id="a_Node000006"><a xlink:href="kest__parameter_8c.html#a62dd23a17e3d4ca94ec6a8ff311e8b94" target="_top" xlink:title=" ">
<polygon fill="white" stroke="#666666" points="190.25,-171.75 119.5,-171.75 119.5,-151 190.25,-151 190.25,-171.75"/>
<text xml:space="preserve" text-anchor="middle" x="154.88" y="-158.25" font-family="Helvetica,sans-Serif" font-size="10.00">init_setting</text>
</a>
</g>
</g>
<!-- Node1&#45;&gt;Node6 -->
<g id="edge4_Node000001_Node000006" class="edge">
<title>Node1&#45;&gt;Node6</title>
<g id="a_edge4_Node000001_Node000006"><a xlink:title=" ">
<path fill="none" stroke="#63b8ff" d="M65.94,-146.73C78.88,-148.89 94.04,-151.41 108.1,-153.75"/>
<polygon fill="#63b8ff" stroke="#63b8ff" points="107.13,-157.14 117.57,-155.33 108.28,-150.24 107.13,-157.14"/>
</a>
</g>
</g>
<!-- Node8 -->
<g id="Node000008" class="node">
<title>Node8</title>
<g id="a_Node000008"><a xlink:href="kest__alloc_8c.html#a849755c5dc5b35e712ffcdb602e50fb4" target="_top" xlink:title=" ">
<polygon fill="white" stroke="#666666" points="187.25,-132.75 122.5,-132.75 122.5,-112 187.25,-112 187.25,-132.75"/>
<text xml:space="preserve" text-anchor="middle" x="154.88" y="-119.25" font-family="Helvetica,sans-Serif" font-size="10.00">kest_alloc</text>
</a>
</g>
</g>
<!-- Node1&#45;&gt;Node8 -->
<g id="edge7_Node000001_Node000008" class="edge">
<title>Node1&#45;&gt;Node8</title>
<g id="a_edge7_Node000001_Node000008"><a xlink:title=" ">
<path fill="none" stroke="#63b8ff" d="M65.94,-136.28C79.79,-134.09 96.17,-131.5 111.02,-129.15"/>
<polygon fill="#63b8ff" stroke="#63b8ff" points="111.19,-132.67 120.52,-127.65 110.09,-125.76 111.19,-132.67"/>
</a>
</g>
</g>
<!-- Node9 -->
<g id="Node000009" class="node">
<title>Node9</title>
<g id="a_Node000009"><a xlink:href="kest__effect_8c.html#abd8eb2f7c5fa3c26690cddd429257881" target="_top" xlink:title=" ">
<polygon fill="white" stroke="#666666" points="208.25,-94.12 101.5,-94.12 101.5,-60.62 208.25,-60.62 208.25,-94.12"/>
<text xml:space="preserve" text-anchor="start" x="109.5" y="-80.62" font-family="Helvetica,sans-Serif" font-size="10.00">kest_effect_profile</text>
<text xml:space="preserve" text-anchor="middle" x="154.88" y="-67.88" font-family="Helvetica,sans-Serif" font-size="10.00">_rep_update</text>
</a>
</g>
</g>
<!-- Node1&#45;&gt;Node9 -->
<g id="edge8_Node000001_Node000009" class="edge">
<title>Node1&#45;&gt;Node9</title>
<g id="a_edge8_Node000001_Node000009"><a xlink:title=" ">
<path fill="none" stroke="#63b8ff" d="M52.3,-130.64C65.84,-122.88 84.69,-112.26 101.5,-103.38 103.72,-102.2 106.01,-101.01 108.32,-99.82"/>
<polygon fill="#63b8ff" stroke="#63b8ff" points="109.86,-102.96 117.19,-95.3 106.69,-96.72 109.86,-102.96"/>
</a>
</g>
</g>
<!-- Node3 -->
<g id="Node000003" class="node">
<title>Node3</title>
<g id="a_Node000003"><a xlink:href="kest__parameter_8c.html#abff5b0dd3ed907207191aa6079c514eb" target="_top" xlink:title=" ">
<polygon fill="white" stroke="#666666" points="370.5,-226.12 244.25,-226.12 244.25,-192.62 370.5,-192.62 370.5,-226.12"/>
<text xml:space="preserve" text-anchor="start" x="252.25" y="-212.62" font-family="Helvetica,sans-Serif" font-size="10.00">kest_parameter_effect</text>
<text xml:space="preserve" text-anchor="middle" x="307.38" y="-199.88" font-family="Helvetica,sans-Serif" font-size="10.00">_rep_update</text>
</a>
</g>
</g>
<!-- Node2&#45;&gt;Node3 -->
<g id="edge2_Node000002_Node000003" class="edge">
<title>Node2&#45;&gt;Node3</title>
<g id="a_edge2_Node000002_Node000003"><a xlink:title=" ">
<path fill="none" stroke="#63b8ff" d="M199,-207.23C209.49,-207.44 221,-207.67 232.48,-207.9"/>
<polygon fill="#63b8ff" stroke="#63b8ff" points="232.31,-211.4 242.38,-208.1 232.45,-204.4 232.31,-211.4"/>
</a>
</g>
</g>
<!-- Node4 -->
<g id="Node000004" class="node">
<title>Node4</title>
<g id="a_Node000004"><a xlink:href="kest__effect_8c.html#afdbf79f9f27eac4959dfcf7bbcb324d4" target="_top" xlink:title=" ">
<polygon fill="#fff0f0" stroke="red" points="541.75,-204.75 406.5,-204.75 406.5,-184 541.75,-184 541.75,-204.75"/>
<text xml:space="preserve" text-anchor="middle" x="474.12" y="-191.25" font-family="Helvetica,sans-Serif" font-size="10.00">kest_effect_update_reps</text>
</a>
</g>
</g>
<!-- Node3&#45;&gt;Node4 -->
<g id="edge3_Node000003_Node000004" class="edge">
<title>Node3&#45;&gt;Node4</title>
<g id="a_edge3_Node000003_Node000004"><a xlink:title=" ">
<path fill="none" stroke="#63b8ff" d="M370.66,-203.7C378.53,-202.99 386.65,-202.25 394.73,-201.51"/>
<polygon fill="#63b8ff" stroke="#63b8ff" points="394.93,-205.01 404.57,-200.62 394.29,-198.04 394.93,-205.01"/>
</a>
</g>
</g>
<!-- Node7 -->
<g id="Node000007" class="node">
<title>Node7</title>
<g id="a_Node000007"><a xlink:href="kest__parameter_8c.html#a3c9f839cffc5f0a9b0630682ce8e9b9c" target="_top" xlink:title=" ">
<polygon fill="white" stroke="#666666" points="361.88,-174.12 252.88,-174.12 252.88,-140.62 361.88,-140.62 361.88,-174.12"/>
<text xml:space="preserve" text-anchor="start" x="260.88" y="-160.62" font-family="Helvetica,sans-Serif" font-size="10.00">kest_setting_effect</text>
<text xml:space="preserve" text-anchor="middle" x="307.38" y="-147.88" font-family="Helvetica,sans-Serif" font-size="10.00">_rep_update</text>
</a>
</g>
</g>
<!-- Node6&#45;&gt;Node7 -->
<g id="edge5_Node000006_Node000007" class="edge">
<title>Node6&#45;&gt;Node7</title>
<g id="a_edge5_Node000006_Node000007"><a xlink:title=" ">
<path fill="none" stroke="#63b8ff" d="M190.4,-160.46C205.49,-160.06 223.71,-159.57 241.2,-159.11"/>
<polygon fill="#63b8ff" stroke="#63b8ff" points="241.12,-162.61 251.02,-158.85 240.93,-155.61 241.12,-162.61"/>
</a>
</g>
</g>
<!-- Node7&#45;&gt;Node4 -->
<g id="edge6_Node000007_Node000004" class="edge">
<title>Node7&#45;&gt;Node4</title>
<g id="a_edge6_Node000007_Node000004"><a xlink:title=" ">
<path fill="none" stroke="#63b8ff" d="M362.32,-169.49C378.87,-173.21 397.17,-177.32 414.04,-181.11"/>
<polygon fill="#63b8ff" stroke="#63b8ff" points="412.89,-184.44 423.42,-183.21 414.43,-177.61 412.89,-184.44"/>
</a>
</g>
</g>
<!-- Node10 -->
<g id="Node000010" class="node">
<title>Node10</title>
<g id="a_Node000010"><a xlink:href="kest__files_8c.html#ab39f3c0d9f0a16ccb7d076a22fc4ca22" target="_top" xlink:title=" ">
<polygon fill="white" stroke="#666666" points="345.38,-87.75 269.38,-87.75 269.38,-67 345.38,-67 345.38,-87.75"/>
<text xml:space="preserve" text-anchor="middle" x="307.38" y="-74.25" font-family="Helvetica,sans-Serif" font-size="10.00">save_profile</text>
</a>
</g>
</g>
<!-- Node9&#45;&gt;Node10 -->
<g id="edge9_Node000009_Node000010" class="edge">
<title>Node9&#45;&gt;Node10</title>
<g id="a_edge9_Node000009_Node000010"><a xlink:title=" ">
<path fill="none" stroke="#63b8ff" d="M208.51,-77.38C224.61,-77.38 242.23,-77.38 258.03,-77.38"/>
<polygon fill="#63b8ff" stroke="#63b8ff" points="257.65,-80.88 267.65,-77.38 257.65,-73.88 257.65,-80.88"/>
</a>
</g>
</g>
<!-- Node11 -->
<g id="Node000011" class="node">
<title>Node11</title>
<g id="a_Node000011"><a xlink:href="kest__files_8c.html#ab79d861306c25eab9284239e73d0cc07" target="_top" xlink:title=" ">
<polygon fill="white" stroke="#666666" points="530.12,-149.75 418.12,-149.75 418.12,-129 530.12,-129 530.12,-149.75"/>
<text xml:space="preserve" text-anchor="middle" x="474.12" y="-136.25" font-family="Helvetica,sans-Serif" font-size="10.00">dump_file_contents</text>
</a>
</g>
</g>
<!-- Node10&#45;&gt;Node11 -->
<g id="edge10_Node000010_Node000011" class="edge">
<title>Node10&#45;&gt;Node11</title>
<g id="a_edge10_Node000010_Node000011"><a xlink:title=" ">
<path fill="none" stroke="#63b8ff" d="M331.47,-88.14C351.17,-97.11 380.37,-109.9 406.5,-119.38 411.97,-121.36 417.73,-123.3 423.49,-125.15"/>
<polygon fill="#63b8ff" stroke="#63b8ff" points="422.45,-128.49 433.04,-128.13 424.53,-121.81 422.45,-128.49"/>
</a>
</g>
</g>
<!-- Node12 -->
<g id="Node000012" class="node">
<title>Node12</title>
<g id="a_Node000012"><a xlink:href="kest__files_8c.html#aa81649890323b78baf99fbbad53ab5ff" target="_top" xlink:title=" ">
<polygon fill="white" stroke="#666666" points="528.25,-110.75 420,-110.75 420,-90 528.25,-90 528.25,-110.75"/>
<text xml:space="preserve" text-anchor="middle" x="474.12" y="-97.25" font-family="Helvetica,sans-Serif" font-size="10.00">generate_filename</text>
</a>
</g>
</g>
<!-- Node10&#45;&gt;Node12 -->
<g id="edge11_Node000010_Node000012" class="edge">
<title>Node10&#45;&gt;Node12</title>
<g id="a_edge11_Node000010_Node000012"><a xlink:title=" ">
<path fill="none" stroke="#63b8ff" d="M345.76,-82.59C364.27,-85.18 387.15,-88.37 408.39,-91.34"/>
<polygon fill="#63b8ff" stroke="#63b8ff" points="407.76,-94.78 418.15,-92.7 408.73,-87.85 407.76,-94.78"/>
</a>
</g>
</g>
<!-- Node13 -->
<g id="Node000013" class="node">
<title>Node13</title>
<g id="a_Node000013"><a xlink:href="kest__error__codes_8c.html#a0f4c77127bc0b77264a21104979c576a" target="_top" xlink:title=" ">
<polygon fill="white" stroke="#666666" points="528.25,-72.12 420,-72.12 420,-38.62 528.25,-38.62 528.25,-72.12"/>
<text xml:space="preserve" text-anchor="start" x="428" y="-58.62" font-family="Helvetica,sans-Serif" font-size="10.00">kest_error_code_to</text>
<text xml:space="preserve" text-anchor="middle" x="474.12" y="-45.88" font-family="Helvetica,sans-Serif" font-size="10.00">_string</text>
</a>
</g>
</g>
<!-- Node10&#45;&gt;Node13 -->
<g id="edge12_Node000010_Node000013" class="edge">
<title>Node10&#45;&gt;Node13</title>
<g id="a_edge12_Node000010_Node000013"><a xlink:title=" ">
<path fill="none" stroke="#63b8ff" d="M345.76,-72.38C364.27,-69.91 387.15,-66.86 408.39,-64.02"/>
<polygon fill="#63b8ff" stroke="#63b8ff" points="408.7,-67.51 418.15,-62.72 407.77,-60.57 408.7,-67.51"/>
</a>
</g>
</g>
<!-- Node14 -->
<g id="Node000014" class="node">
<title>Node14</title>
<g id="a_Node000014"><a xlink:href="kest__files_8c.html#acdd9a1fdb8fef8888d540a275ecfa86a" target="_top" xlink:title=" ">
<polygon fill="white" stroke="#666666" points="530.88,-20.75 417.38,-20.75 417.38,0 530.88,0 530.88,-20.75"/>
<text xml:space="preserve" text-anchor="middle" x="474.12" y="-7.25" font-family="Helvetica,sans-Serif" font-size="10.00">save_profile_as_file</text>
</a>
</g>
</g>
<!-- Node10&#45;&gt;Node14 -->
<g id="edge13_Node000010_Node000014" class="edge">
<title>Node10&#45;&gt;Node14</title>
<g id="a_edge13_Node000010_Node000014"><a xlink:title=" ">
<path fill="none" stroke="#63b8ff" d="M327.84,-66.58C347.31,-56.08 378.35,-40.18 406.5,-29.38 410.86,-27.7 415.43,-26.1 420.04,-24.59"/>
<polygon fill="#63b8ff" stroke="#63b8ff" points="420.87,-27.99 429.37,-21.67 418.78,-21.31 420.87,-27.99"/>
</a>
</g>
</g>
</g>
</svg>

<g id="navigator" transform="translate(0 0)" fill="#404254">
  <rect fill="#f2f5e9" fill-opacity="0.5" stroke="#606060" stroke-width=".5" x="0" y="0" width="60" height="60"/>
  <use id="zoomplus" xlink:href="#zoomPlus" x="17" y="9" onmousedown="handleZoom(evt,'in')"/>
  <use id="zoomminus" xlink:href="#zoomMin" x="42" y="9" onmousedown="handleZoom(evt,'out')"/>
  <use id="reset" xlink:href="#resetDef" x="30" y="36" onmousedown="handleReset()"/>
   <use id="arrowup" xlink:href="#arrowUp" x="0" y="0" onmousedown="handlePan(0,-1)"/>
  <use id="arrowright" xlink:href="#arrowRight" x="0" y="0" onmousedown="handlePan(1,0)"/>
  <use id="arrowdown" xlink:href="#arrowDown" x="0" y="0" onmousedown="handlePan(0,1)"/>
  <use id="arrowleft" xlink:href="#arrowLeft" x="0" y="0" onmousedown="handlePan(-1,0)"/>
</g>
<svg viewBox="0 0 15 15" width="100%" height="30px" preserveAspectRatio="xMaxYMin meet">
 <g id="arrow_out" transform="scale(0.3 0.3)">
  <a xlink:href="kest__transformer_8h_a6d9927f6d82c964bd07bef5c77879010_cgraph_org.svg" target="_base">
   <rect id="button" ry="5" rx="5" y="6" x="6" height="38" width="38"
        fill="#f2f5e9" fill-opacity="0.5" stroke="#606060" stroke-width="1.0"/>
   <path id="arrow"
     d="M 11.500037,31.436501 C 11.940474,20.09759 22.043105,11.32322 32.158766,21.979434 L 37.068811,17.246167 C 37.068811,17.246167 37.088388,32 37.088388,32 L 22.160133,31.978069 C 22.160133,31.978069 26.997745,27.140456 26.997745,27.140456 C 18.528582,18.264221 13.291696,25.230495 11.500037,31.436501 z"
     style="fill:#404040;"/>
  </a>
 </g>
</svg>

<style type='text/css'>
<![CDATA[
[data-mouse-over-selected='false'] { opacity: 0.7; }
[data-mouse-over-selected='true']  { opacity: 1.0; }
]]>
</style>
<script type="application/ecmascript"><![CDATA[
document.addEventListener('DOMContentLoaded', (event) => {
  highlightEdges();
  highlightAdjacentNodes();
});
]]></script>
</svg>
