<?xml version="1.0" encoding="UTF-8" standalone="no"?>
<!DOCTYPE svg PUBLIC "-//W3C//DTD SVG 1.1//EN"
 "http://www.w3.org/Graphics/SVG/1.1/DTD/svg11.dtd">
<!-- Generated by graphviz version 13.1.2 (20250808.2320)
 -->
<!-- Title: kest_parse_asm_arg Pages: 1 -->
<!--zoomable 578 -->

<svg id="main" version="1.1" xmlns="http://www.w3.org/2000/svg" xmlns:xlink="http://www.w3.org/1999/xlink" xml:space="preserve" onload="init(evt)">

<style type="text/css"><![CDATA[
.node, .edge {opacity: 0.7;}
.node.selected, .edge.selected {opacity: 1;}
.edge:hover path { stroke: red; }
.edge:hover polygon { stroke: red; fill: red; }
]]></style>

<defs>
  <circle id="rim" cx="0" cy="0" r="7"/>
  <circle id="rim2" cx="0" cy="0" r="3.5"/>
  <g id="zoomPlus">
    <use xlink:href="#rim" fill="#404040"><set attributeName="fill" to="#808080" begin="zoomplus.mouseover" end="zoomplus.mouseout"/></use>
    <path d="M-4,0h8M0,-4v8" fill="none" stroke="white" stroke-width="1.5" pointer-events="none"/>
  </g>
  <g id="zoomMin">
    <use xlink:href="#rim" fill="#404040"><set attributeName="fill" to="#808080" begin="zoomminus.mouseover" end="zoomminus.mouseout"/></use>
    <path d="M-4,0h8" fill="none" stroke="white" stroke-width="1.5" pointer-events="none"/>
  </g>
  <g id="arrowUp" transform="translate(30 24)">
    <use xlink:href="#rim"/>
    <path pointer-events="none" fill="none" stroke="white" stroke-width="1.5" d="M0,-3.0v7 M-2.5,-0.5L0,-3.0L2.5,-0.5"/>
  </g>
  <g id="arrowRight" transform="rotate(90) translate(36 -43)">
    <use xlink:href="#rim"/>
    <path pointer-events="none" fill="none" stroke="white" stroke-width="1.5" d="M0,-3.0v7 M-2.5,-0.5L0,-3.0L2.5,-0.5"/>
  </g>
  <g id="arrowDown" transform="rotate(180) translate(-30 -48)">
    <use xlink:href="#rim"/>
    <path pointer-events="none" fill="none" stroke="white" stroke-width="1.5" d="M0,-3.0v7 M-2.5,-0.5L0,-3.0L2.5,-0.5"/>
  </g>
  <g id="arrowLeft" transform="rotate(270) translate(-36 17)">
    <use xlink:href="#rim"/>
    <path pointer-events="none" fill="none" stroke="white" stroke-width="1.5" d="M0,-3.0v7 M-2.5,-0.5L0,-3.0L2.5,-0.5"/>
  </g>
  <g id="resetDef">
    <use xlink:href="#rim2" fill="#404040"><set attributeName="fill" to="#808080" begin="reset.mouseover" end="reset.mouseout"/></use>
  </g>
</defs>
<script type="application/ecmascript">
var viewWidth = 651;
var viewHeight = 578;
var sectionId = 'dynsection-5';
</script>
<script type="application/ecmascript" xlink:href="svg.min.js"/>
<svg id="graph" class="graph">
<g id="viewport">
<title>kest_parse_asm_arg</title>
<!-- Node1 -->
<g id="Node000001" class="node">
<title>Node1</title>
<g id="a_Node000001"><a xlink:title=" ">
<polygon fill="#999999" stroke="#666666" points="115.75,-330.12 0,-330.12 0,-309.38 115.75,-309.38 115.75,-330.12"/>
<text xml:space="preserve" text-anchor="middle" x="57.88" y="-316.62" font-family="Helvetica,sans-Serif" font-size="10.00">kest_parse_asm_arg</text>
</a>
</g>
</g>
<!-- Node2 -->
<g id="Node000002" class="node">
<title>Node2</title>
<g id="a_Node000002"><a xlink:href="kest__expr__parser_8c.html#a7caaee6c8b0c14b3ff08fba98d837ead" target="_top" xlink:title=" ">
<polygon fill="white" stroke="#666666" points="278.75,-330.12 151.75,-330.12 151.75,-309.38 278.75,-309.38 278.75,-330.12"/>
<text xml:space="preserve" text-anchor="middle" x="215.25" y="-316.62" font-family="Helvetica,sans-Serif" font-size="10.00">kest_parse_expression</text>
</a>
</g>
</g>
<!-- Node1&#45;&gt;Node2 -->
<g id="edge1_Node000001_Node000002" class="edge">
<title>Node1&#45;&gt;Node2</title>
<g id="a_edge1_Node000001_Node000002"><a xlink:title=" ">
<path fill="none" stroke="#63b8ff" d="M115.85,-319.75C123.68,-319.75 131.81,-319.75 139.89,-319.75"/>
<polygon fill="#63b8ff" stroke="#63b8ff" points="139.74,-323.25 149.74,-319.75 139.74,-316.25 139.74,-323.25"/>
</a>
</g>
</g>
<!-- Node12 -->
<g id="Node000012" class="node">
<title>Node12</title>
<g id="a_Node000012"><a xlink:href="kest__eff__parser_8c.html#aee5c1435aac9ead9b0c5c692c7c621ec" target="_top" xlink:title=" ">
<polygon fill="#fff0f0" stroke="red" points="620.12,-570.12 504.38,-570.12 504.38,-549.38 620.12,-549.38 620.12,-570.12"/>
<text xml:space="preserve" text-anchor="middle" x="562.25" y="-556.62" font-family="Helvetica,sans-Serif" font-size="10.00">kest_parser_error_at</text>
</a>
</g>
</g>
<!-- Node1&#45;&gt;Node12 -->
<g id="edge19_Node000001_Node000012" class="edge">
<title>Node1&#45;&gt;Node12</title>
<g id="a_edge19_Node000001_Node000012"><a xlink:title=" ">
<path fill="none" stroke="#63b8ff" d="M75.91,-330.5C131.87,-365.4 316.01,-476.92 481.5,-539.75 487.25,-541.93 493.33,-543.95 499.46,-545.79"/>
<polygon fill="#63b8ff" stroke="#63b8ff" points="498.47,-549.15 509.04,-548.51 500.38,-542.41 498.47,-549.15"/>
</a>
</g>
</g>
<!-- Node29 -->
<g id="Node000029" class="node">
<title>Node29</title>
<g id="a_Node000029"><a xlink:href="kest__tokenizer_8c.html#a2ec9c97a1ac58583e2731a0e3d533af6" target="_top" xlink:title=" ">
<polygon fill="white" stroke="#666666" points="252.5,-291.12 178,-291.12 178,-270.38 252.5,-270.38 252.5,-291.12"/>
<text xml:space="preserve" text-anchor="middle" x="215.25" y="-277.62" font-family="Helvetica,sans-Serif" font-size="10.00">token_is_int</text>
</a>
</g>
</g>
<!-- Node1&#45;&gt;Node29 -->
<g id="edge20_Node000001_Node000029" class="edge">
<title>Node1&#45;&gt;Node29</title>
<g id="a_edge20_Node000001_Node000029"><a xlink:title=" ">
<path fill="none" stroke="#63b8ff" d="M102.16,-308.89C122.16,-303.87 145.97,-297.89 166.5,-292.74"/>
<polygon fill="#63b8ff" stroke="#63b8ff" points="167.2,-296.17 176.05,-290.34 165.5,-289.38 167.2,-296.17"/>
</a>
</g>
</g>
<!-- Node3 -->
<g id="Node000003" class="node">
<title>Node3</title>
<g id="a_Node000003"><a xlink:href="kest__expression_8c.html#a10e88ee8970dd7501341b9d5ea0c3cba" target="_top" xlink:title=" ">
<polygon fill="white" stroke="#666666" points="445.5,-172.5 314.75,-172.5 314.75,-139 445.5,-139 445.5,-172.5"/>
<text xml:space="preserve" text-anchor="start" x="322.75" y="-159" font-family="Helvetica,sans-Serif" font-size="10.00">kest_expression_detect</text>
<text xml:space="preserve" text-anchor="middle" x="380.12" y="-146.25" font-family="Helvetica,sans-Serif" font-size="10.00">_constants</text>
</a>
</g>
</g>
<!-- Node2&#45;&gt;Node3 -->
<g id="edge2_Node000002_Node000003" class="edge">
<title>Node2&#45;&gt;Node3</title>
<g id="a_edge2_Node000002_Node000003"><a xlink:title=" ">
<path fill="none" stroke="#63b8ff" d="M262.01,-309C267.95,-306.52 273.71,-303.47 278.75,-299.75 320.6,-268.86 351.27,-215.14 367.06,-182.77"/>
<polygon fill="#63b8ff" stroke="#63b8ff" points="370.08,-184.58 371.19,-174.04 363.75,-181.58 370.08,-184.58"/>
</a>
</g>
</g>
<!-- Node7 -->
<g id="Node000007" class="node">
<title>Node7</title>
<g id="a_Node000007"><a xlink:href="kest__expr__parser_8c.html#adf0188b23902aff2ddacb388e811412e" target="_top" xlink:title=" ">
<polygon fill="white" stroke="#666666" points="443.62,-336.5 316.62,-336.5 316.62,-303 443.62,-303 443.62,-336.5"/>
<text xml:space="preserve" text-anchor="start" x="324.62" y="-323" font-family="Helvetica,sans-Serif" font-size="10.00">kest_parse_expression</text>
<text xml:space="preserve" text-anchor="middle" x="380.12" y="-310.25" font-family="Helvetica,sans-Serif" font-size="10.00">_rec_pratt</text>
</a>
</g>
</g>
<!-- Node2&#45;&gt;Node7 -->
<g id="edge5_Node000002_Node000007" class="edge">
<title>Node2&#45;&gt;Node7</title>
<g id="a_edge5_Node000002_Node000007"><a xlink:title=" ">
<path fill="none" stroke="#63b8ff" d="M279.22,-319.75C287.69,-319.75 296.43,-319.75 305.07,-319.75"/>
<polygon fill="#63b8ff" stroke="#63b8ff" points="304.81,-323.25 314.81,-319.75 304.81,-316.25 304.81,-323.25"/>
</a>
</g>
</g>
<!-- Node4 -->
<g id="Node000004" class="node">
<title>Node4</title>
<g id="a_Node000004"><a xlink:href="kest__expression_8c.html#a620430bdb724fe4055dd713964c5be27" target="_top" xlink:title=" ">
<polygon fill="#fff0f0" stroke="red" points="627.62,-33.5 496.88,-33.5 496.88,0 627.62,0 627.62,-33.5"/>
<text xml:space="preserve" text-anchor="start" x="504.88" y="-20" font-family="Helvetica,sans-Serif" font-size="10.00">kest_expression_detect</text>
<text xml:space="preserve" text-anchor="middle" x="562.25" y="-7.25" font-family="Helvetica,sans-Serif" font-size="10.00">_constants_rec</text>
</a>
</g>
</g>
<!-- Node3&#45;&gt;Node4 -->
<g id="edge3_Node000003_Node000004" class="edge">
<title>Node3&#45;&gt;Node4</title>
<g id="a_edge3_Node000003_Node000004"><a xlink:title=" ">
<path fill="none" stroke="#63b8ff" d="M396.68,-138.58C415.5,-118.41 448.76,-84.67 481.5,-60.75 492.07,-53.03 504.14,-45.7 515.63,-39.32"/>
<polygon fill="#63b8ff" stroke="#63b8ff" points="517.07,-42.52 524.2,-34.69 513.74,-36.36 517.07,-42.52"/>
</a>
</g>
</g>
<!-- Node4&#45;&gt;Node4 -->
<g id="edge4_Node000004_Node000004" class="edge">
<title>Node4&#45;&gt;Node4</title>
<g id="a_edge4_Node000004_Node000004"><a xlink:title=" ">
<path fill="none" stroke="#63b8ff" d="M529.51,-33.91C523.95,-43.12 534.86,-51.5 562.25,-51.5 577.66,-51.5 587.85,-48.85 592.83,-44.89"/>
<polygon fill="#63b8ff" stroke="#63b8ff" points="596.2,-45.89 594.7,-35.4 589.33,-44.54 596.2,-45.89"/>
</a>
</g>
</g>
<!-- Node7&#45;&gt;Node7 -->
<g id="edge10_Node000007_Node000007" class="edge">
<title>Node7&#45;&gt;Node7</title>
<g id="a_edge10_Node000007_Node000007"><a xlink:title=" ">
<path fill="none" stroke="#63b8ff" d="M350.49,-336.91C345.45,-346.12 355.33,-354.5 380.12,-354.5 394.07,-354.5 403.3,-351.85 407.81,-347.89"/>
<polygon fill="#63b8ff" stroke="#63b8ff" points="411.19,-348.86 409.5,-338.4 404.3,-347.64 411.19,-348.86"/>
</a>
</g>
</g>
<!-- Node8 -->
<g id="Node000008" class="node">
<title>Node8</title>
<g id="a_Node000008"><a xlink:href="kest__expr__parser_8c.html#ab535c878cfc1e73f9615ac670313aebd" target="_top" xlink:title=" ">
<polygon fill="white" stroke="#666666" points="623.12,-414.5 501.38,-414.5 501.38,-381 623.12,-381 623.12,-414.5"/>
<text xml:space="preserve" text-anchor="start" x="509.38" y="-401" font-family="Helvetica,sans-Serif" font-size="10.00">kest_expression_infix</text>
<text xml:space="preserve" text-anchor="middle" x="562.25" y="-388.25" font-family="Helvetica,sans-Serif" font-size="10.00">_associativity</text>
</a>
</g>
</g>
<!-- Node7&#45;&gt;Node8 -->
<g id="edge6_Node000007_Node000008" class="edge">
<title>Node7&#45;&gt;Node8</title>
<g id="a_edge6_Node000007_Node000008"><a xlink:title=" ">
<path fill="none" stroke="#63b8ff" d="M410.82,-336.76C430.48,-347.62 457.06,-361.52 481.5,-371.75 485.54,-373.44 489.73,-375.1 493.98,-376.7"/>
<polygon fill="#63b8ff" stroke="#63b8ff" points="492.61,-379.92 503.2,-380.04 495,-373.34 492.61,-379.92"/>
</a>
</g>
</g>
<!-- Node9 -->
<g id="Node000009" class="node">
<title>Node9</title>
<g id="a_Node000009"><a xlink:href="kest__expr__parser_8c.html#a1ea0c22b3110ab309e28a6822c721abc" target="_top" xlink:title=" ">
<polygon fill="white" stroke="#666666" points="624.25,-362.5 500.25,-362.5 500.25,-329 624.25,-329 624.25,-362.5"/>
<text xml:space="preserve" text-anchor="start" x="508.25" y="-349" font-family="Helvetica,sans-Serif" font-size="10.00">kest_expression_infix</text>
<text xml:space="preserve" text-anchor="middle" x="562.25" y="-336.25" font-family="Helvetica,sans-Serif" font-size="10.00">_operator_precedence</text>
</a>
</g>
</g>
<!-- Node7&#45;&gt;Node9 -->
<g id="edge7_Node000007_Node000009" class="edge">
<title>Node7&#45;&gt;Node9</title>
<g id="a_edge7_Node000007_Node000009"><a xlink:title=" ">
<path fill="none" stroke="#63b8ff" d="M444.12,-328.84C458.51,-330.92 473.92,-333.14 488.68,-335.27"/>
<polygon fill="#63b8ff" stroke="#63b8ff" points="487.91,-338.7 498.31,-336.66 488.91,-331.77 487.91,-338.7"/>
</a>
</g>
</g>
<!-- Node10 -->
<g id="Node000010" class="node">
<title>Node10</title>
<g id="a_Node000010"><a xlink:href="kest__expr__parser_8c.html#a6dd9bd174bfd939ea5cc471b67f36630" target="_top" xlink:title=" ">
<polygon fill="white" stroke="#666666" points="625.75,-310.5 498.75,-310.5 498.75,-277 625.75,-277 625.75,-310.5"/>
<text xml:space="preserve" text-anchor="start" x="506.75" y="-297" font-family="Helvetica,sans-Serif" font-size="10.00">kest_expression_token</text>
<text xml:space="preserve" text-anchor="middle" x="562.25" y="-284.25" font-family="Helvetica,sans-Serif" font-size="10.00">_infix_type</text>
</a>
</g>
</g>
<!-- Node7&#45;&gt;Node10 -->
<g id="edge8_Node000007_Node000010" class="edge">
<title>Node7&#45;&gt;Node10</title>
<g id="a_edge8_Node000007_Node000010"><a xlink:title=" ">
<path fill="none" stroke="#63b8ff" d="M444.12,-310.66C457.97,-308.66 472.76,-306.52 487.01,-304.47"/>
<polygon fill="#63b8ff" stroke="#63b8ff" points="487.39,-307.95 496.79,-303.05 486.39,-301.02 487.39,-307.95"/>
</a>
</g>
</g>
<!-- Node11 -->
<g id="Node000011" class="node">
<title>Node11</title>
<g id="a_Node000011"><a xlink:href="kest__expr__parser_8c.html#ac63b8facb2693c7c035f05fa4419f4b0" target="_top" xlink:title=" ">
<polygon fill="white" stroke="#666666" points="625.75,-258.5 498.75,-258.5 498.75,-225 625.75,-225 625.75,-258.5"/>
<text xml:space="preserve" text-anchor="start" x="506.75" y="-245" font-family="Helvetica,sans-Serif" font-size="10.00">kest_expression_token</text>
<text xml:space="preserve" text-anchor="middle" x="562.25" y="-232.25" font-family="Helvetica,sans-Serif" font-size="10.00">_unary_type</text>
</a>
</g>
</g>
<!-- Node7&#45;&gt;Node11 -->
<g id="edge9_Node000007_Node000011" class="edge">
<title>Node7&#45;&gt;Node11</title>
<g id="a_edge9_Node000007_Node000011"><a xlink:title=" ">
<path fill="none" stroke="#63b8ff" d="M410.82,-302.74C430.48,-291.88 457.06,-277.98 481.5,-267.75 485.54,-266.06 489.73,-264.4 493.98,-262.8"/>
<polygon fill="#63b8ff" stroke="#63b8ff" points="495,-266.16 503.2,-259.46 492.61,-259.58 495,-266.16"/>
</a>
</g>
</g>
<!-- Node7&#45;&gt;Node12 -->
<g id="edge11_Node000007_Node000012" class="edge">
<title>Node7&#45;&gt;Node12</title>
<g id="a_edge11_Node000007_Node000012"><a xlink:title=" ">
<path fill="none" stroke="#63b8ff" d="M388.4,-336.74C410.02,-387.12 472.97,-532.65 481.5,-539.75 485.2,-542.83 489.31,-545.45 493.66,-547.67"/>
<polygon fill="#63b8ff" stroke="#63b8ff" points="492.2,-550.85 502.77,-551.57 494.96,-544.42 492.2,-550.85"/>
</a>
</g>
</g>
<!-- Node14 -->
<g id="Node000014" class="node">
<title>Node14</title>
<g id="a_Node000014"><a xlink:href="kest__expression_8c.html#adc92f1213a2d8a8207e3cc043870cb13" target="_top" xlink:title=" ">
<polygon fill="#fff0f0" stroke="red" points="635.12,-207.12 489.38,-207.12 489.38,-186.38 635.12,-186.38 635.12,-207.12"/>
<text xml:space="preserve" text-anchor="middle" x="562.25" y="-193.62" font-family="Helvetica,sans-Serif" font-size="10.00">new_m_expression_binary</text>
</a>
</g>
</g>
<!-- Node7&#45;&gt;Node14 -->
<g id="edge12_Node000007_Node000014" class="edge">
<title>Node7&#45;&gt;Node14</title>
<g id="a_edge12_Node000007_Node000014"><a xlink:title=" ">
<path fill="none" stroke="#63b8ff" d="M392.6,-302.83C409.33,-279.52 442.7,-237.89 481.5,-215.75 483.99,-214.33 486.58,-213.02 489.24,-211.8"/>
<polygon fill="#63b8ff" stroke="#63b8ff" points="490.39,-215.11 498.37,-208.14 487.79,-208.61 490.39,-215.11"/>
</a>
</g>
</g>
<!-- Node17 -->
<g id="Node000017" class="node">
<title>Node17</title>
<g id="a_Node000017"><a xlink:href="kest__expression_8c.html#a5b047584af9003a45d12bb689067007b" target="_top" xlink:title=" ">
<polygon fill="#fff0f0" stroke="red" points="632.88,-168.12 491.62,-168.12 491.62,-147.38 632.88,-147.38 632.88,-168.12"/>
<text xml:space="preserve" text-anchor="middle" x="562.25" y="-154.62" font-family="Helvetica,sans-Serif" font-size="10.00">new_m_expression_const</text>
</a>
</g>
</g>
<!-- Node7&#45;&gt;Node17 -->
<g id="edge13_Node000007_Node000017" class="edge">
<title>Node7&#45;&gt;Node17</title>
<g id="a_edge13_Node000007_Node000017"><a xlink:title=" ">
<path fill="none" stroke="#63b8ff" d="M388.26,-302.77C401.81,-272.68 434.18,-210.17 481.5,-177.75 483.87,-176.13 486.36,-174.63 488.94,-173.26"/>
<polygon fill="#63b8ff" stroke="#63b8ff" points="490.22,-176.53 497.86,-169.18 487.31,-170.16 490.22,-176.53"/>
</a>
</g>
</g>
<!-- Node19 -->
<g id="Node000019" class="node">
<title>Node19</title>
<g id="a_Node000019"><a xlink:href="kest__expression_8c.html#a58d39794d89b01ca4b68e02c7fdc11c3" target="_top" xlink:title=" ">
<polygon fill="#fff0f0" stroke="red" points="643,-129.12 481.5,-129.12 481.5,-108.38 643,-108.38 643,-129.12"/>
<text xml:space="preserve" text-anchor="middle" x="562.25" y="-115.62" font-family="Helvetica,sans-Serif" font-size="10.00">new_m_expression_reference</text>
</a>
</g>
</g>
<!-- Node7&#45;&gt;Node19 -->
<g id="edge14_Node000007_Node000019" class="edge">
<title>Node7&#45;&gt;Node19</title>
<g id="a_edge14_Node000007_Node000019"><a xlink:title=" ">
<path fill="none" stroke="#63b8ff" d="M388.53,-302.55C406.41,-261.76 452.58,-160.97 481.5,-138.75 483.48,-137.23 485.56,-135.83 487.71,-134.53"/>
<polygon fill="#63b8ff" stroke="#63b8ff" points="488.94,-137.83 496.25,-130.17 485.76,-131.6 488.94,-137.83"/>
</a>
</g>
</g>
<!-- Node21 -->
<g id="Node000021" class="node">
<title>Node21</title>
<g id="a_Node000021"><a xlink:href="kest__expression_8c.html#a9874a54692befe960ba319c4a78049ee" target="_top" xlink:title=" ">
<polygon fill="#fff0f0" stroke="red" points="633.62,-90.12 490.88,-90.12 490.88,-69.38 633.62,-69.38 633.62,-90.12"/>
<text xml:space="preserve" text-anchor="middle" x="562.25" y="-76.62" font-family="Helvetica,sans-Serif" font-size="10.00">new_m_expression_unary</text>
</a>
</g>
</g>
<!-- Node7&#45;&gt;Node21 -->
<g id="edge15_Node000007_Node000021" class="edge">
<title>Node7&#45;&gt;Node21</title>
<g id="a_edge15_Node000007_Node000021"><a xlink:title=" ">
<path fill="none" stroke="#63b8ff" d="M389.18,-302.81C401.49,-276.84 425.66,-225.58 445.5,-181.75 461.91,-145.49 451.09,-125.43 481.5,-99.75 483,-98.48 484.57,-97.3 486.19,-96.18"/>
<polygon fill="#63b8ff" stroke="#63b8ff" points="487.78,-99.31 494.73,-91.32 484.31,-93.22 487.78,-99.31"/>
</a>
</g>
</g>
<!-- Node22 -->
<g id="Node000022" class="node">
<title>Node22</title>
<g id="a_Node000022"><a xlink:href="kest__tokenizer_8c.html#a713c477a645ef8a6abfd4cb4e257b53c" target="_top" xlink:title=" ">
<polygon fill="#fff0f0" stroke="red" points="607,-531.12 517.5,-531.12 517.5,-510.38 607,-510.38 607,-531.12"/>
<text xml:space="preserve" text-anchor="middle" x="562.25" y="-517.62" font-family="Helvetica,sans-Serif" font-size="10.00">token_is_name</text>
</a>
</g>
</g>
<!-- Node7&#45;&gt;Node22 -->
<g id="edge16_Node000007_Node000022" class="edge">
<title>Node7&#45;&gt;Node22</title>
<g id="a_edge16_Node000007_Node000022"><a xlink:title=" ">
<path fill="none" stroke="#63b8ff" d="M385.56,-336.74C395.89,-372.83 425.08,-457.41 481.5,-500.75 488.82,-506.38 497.54,-510.44 506.47,-513.36"/>
<polygon fill="#63b8ff" stroke="#63b8ff" points="505.37,-516.69 515.95,-515.99 507.25,-509.94 505.37,-516.69"/>
</a>
</g>
</g>
<!-- Node25 -->
<g id="Node000025" class="node">
<title>Node25</title>
<g id="a_Node000025"><a xlink:href="kest__tokenizer_8c.html#ae684335931207bb714fdc1b6588aad14" target="_top" xlink:title=" ">
<polygon fill="#fff0f0" stroke="red" points="611.88,-492.12 512.62,-492.12 512.62,-471.38 611.88,-471.38 611.88,-492.12"/>
<text xml:space="preserve" text-anchor="middle" x="562.25" y="-478.62" font-family="Helvetica,sans-Serif" font-size="10.00">token_is_number</text>
</a>
</g>
</g>
<!-- Node7&#45;&gt;Node25 -->
<g id="edge17_Node000007_Node000025" class="edge">
<title>Node7&#45;&gt;Node25</title>
<g id="a_edge17_Node000007_Node000025"><a xlink:title=" ">
<path fill="none" stroke="#63b8ff" d="M388.26,-336.73C401.81,-366.82 434.18,-429.33 481.5,-461.75 487.6,-465.93 494.5,-469.23 501.62,-471.85"/>
<polygon fill="#63b8ff" stroke="#63b8ff" points="500.49,-475.16 511.08,-474.86 502.61,-468.49 500.49,-475.16"/>
</a>
</g>
</g>
<!-- Node27 -->
<g id="Node000027" class="node">
<title>Node27</title>
<g id="a_Node000027"><a xlink:href="kest__tokenizer_8c.html#a6ca78d248f8970c62c3a5cfc32ee0bb6" target="_top" xlink:title=" ">
<polygon fill="#fff0f0" stroke="red" points="605.12,-453.12 519.38,-453.12 519.38,-432.38 605.12,-432.38 605.12,-453.12"/>
<text xml:space="preserve" text-anchor="middle" x="562.25" y="-439.62" font-family="Helvetica,sans-Serif" font-size="10.00">token_to_float</text>
</a>
</g>
</g>
<!-- Node7&#45;&gt;Node27 -->
<g id="edge18_Node000007_Node000027" class="edge">
<title>Node7&#45;&gt;Node27</title>
<g id="a_edge18_Node000007_Node000027"><a xlink:title=" ">
<path fill="none" stroke="#63b8ff" d="M392.6,-336.67C409.33,-359.98 442.7,-401.61 481.5,-423.75 489.59,-428.36 498.75,-431.86 507.9,-434.51"/>
<polygon fill="#63b8ff" stroke="#63b8ff" points="506.98,-437.88 517.53,-436.96 508.71,-431.1 506.98,-437.88"/>
</a>
</g>
</g>
</g>
</svg>

<g id="navigator" transform="translate(0 0)" fill="#404254">
  <rect fill="#f2f5e9" fill-opacity="0.5" stroke="#606060" stroke-width=".5" x="0" y="0" width="60" height="60"/>
  <use id="zoomplus" xlink:href="#zoomPlus" x="17" y="9" onmousedown="handleZoom(evt,'in')"/>
  <use id="zoomminus" xlink:href="#zoomMin" x="42" y="9" onmousedown="handleZoom(evt,'out')"/>
  <use id="reset" xlink:href="#resetDef" x="30" y="36" onmousedown="handleReset()"/>
   <use id="arrowup" xlink:href="#arrowUp" x="0" y="0" onmousedown="handlePan(0,-1)"/>
  <use id="arrowright" xlink:href="#arrowRight" x="0" y="0" onmousedown="handlePan(1,0)"/>
  <use id="arrowdown" xlink:href="#arrowDown" x="0" y="0" onmousedown="handlePan(0,1)"/>
  <use id="arrowleft" xlink:href="#arrowLeft" x="0" y="0" onmousedown="handlePan(-1,0)"/>
</g>
<svg viewBox="0 0 15 15" width="100%" height="30px" preserveAspectRatio="xMaxYMin meet">
 <g id="arrow_out" transform="scale(0.3 0.3)">
  <a xlink:href="kest__asm__parser_8c_a975cb5ec55968124f930a9a35fe564c5_cgraph_org.svg" target="_base">
   <rect id="button" ry="5" rx="5" y="6" x="6" height="38" width="38"
        fill="#f2f5e9" fill-opacity="0.5" stroke="#606060" stroke-width="1.0"/>
   <path id="arrow"
     d="M 11.500037,31.436501 C 11.940474,20.09759 22.043105,11.32322 32.158766,21.979434 L 37.068811,17.246167 C 37.068811,17.246167 37.088388,32 37.088388,32 L 22.160133,31.978069 C 22.160133,31.978069 26.997745,27.140456 26.997745,27.140456 C 18.528582,18.264221 13.291696,25.230495 11.500037,31.436501 z"
     style="fill:#404040;"/>
  </a>
 </g>
</svg>

<style type='text/css'>
<![CDATA[
[data-mouse-over-selected='false'] { opacity: 0.7; }
[data-mouse-over-selected='true']  { opacity: 1.0; }
]]>
</style>
<script type="application/ecmascript"><![CDATA[
document.addEventListener('DOMContentLoaded', (event) => {
  highlightEdges();
  highlightAdjacentNodes();
});
]]></script>
</svg>
