<?xml version="1.0" encoding="UTF-8" standalone="no"?>
<!DOCTYPE svg PUBLIC "-//W3C//DTD SVG 1.1//EN"
 "http://www.w3.org/Graphics/SVG/1.1/DTD/svg11.dtd">
<!-- Generated by graphviz version 13.1.2 (20250808.2320)
 -->
<!-- Title: kest_parse_expression Pages: 1 -->
<svg width="615pt" height="142pt"
 viewBox="0.00 0.00 615.00 142.00" xmlns="http://www.w3.org/2000/svg" xmlns:xlink="http://www.w3.org/1999/xlink">
<g id="graph0" class="graph" transform="scale(1 1) rotate(0) translate(4 138.12)">
<title>kest_parse_expression</title>
<!-- Node1 -->
<g id="Node000001" class="node">
<title>Node1</title>
<g id="a_Node000001"><a xlink:title=" ">
<polygon fill="#999999" stroke="#666666" points="607,-95.12 480,-95.12 480,-74.38 607,-74.38 607,-95.12"/>
<text xml:space="preserve" text-anchor="middle" x="543.5" y="-81.62" font-family="Helvetica,sans-Serif" font-size="10.00">kest_parse_expression</text>
</a>
</g>
</g>
<!-- Node2 -->
<g id="Node000002" class="node">
<title>Node2</title>
<g id="a_Node000002"><a xlink:href="kest__asm__parser_8c.html#a975cb5ec55968124f930a9a35fe564c5" target="_top" xlink:title=" ">
<polygon fill="white" stroke="#666666" points="438.38,-134.12 322.62,-134.12 322.62,-113.38 438.38,-113.38 438.38,-134.12"/>
<text xml:space="preserve" text-anchor="middle" x="380.5" y="-120.62" font-family="Helvetica,sans-Serif" font-size="10.00">kest_parse_asm_arg</text>
</a>
</g>
</g>
<!-- Node1&#45;&gt;Node2 -->
<g id="edge1_Node000001_Node000002" class="edge">
<title>Node1&#45;&gt;Node2</title>
<g id="a_edge1_Node000001_Node000002"><a xlink:title=" ">
<path fill="none" stroke="#63b8ff" d="M486.66,-98.28C466.95,-103.05 445.07,-108.35 426.39,-112.88"/>
<polygon fill="#63b8ff" stroke="#63b8ff" points="487.29,-101.73 496.18,-95.97 485.64,-94.92 487.29,-101.73"/>
</a>
</g>
</g>
<!-- Node12 -->
<g id="Node000012" class="node">
<title>Node12</title>
<g id="a_Node000012"><a xlink:href="kest__asm__parser_8c.html#a93fe9789a6b0162607601862f5fa9c8c" target="_top" xlink:title=" ">
<polygon fill="white" stroke="#666666" points="444,-95.12 317,-95.12 317,-74.38 444,-74.38 444,-95.12"/>
<text xml:space="preserve" text-anchor="middle" x="380.5" y="-81.62" font-family="Helvetica,sans-Serif" font-size="10.00">kest_parse_asm_arg_2</text>
</a>
</g>
</g>
<!-- Node1&#45;&gt;Node12 -->
<g id="edge4_Node000001_Node000012" class="edge">
<title>Node1&#45;&gt;Node12</title>
<g id="a_edge4_Node000001_Node000012"><a xlink:title=" ">
<path fill="none" stroke="#63b8ff" d="M468.47,-84.75C460.39,-84.75 452.22,-84.75 444.3,-84.75"/>
<polygon fill="#63b8ff" stroke="#63b8ff" points="468.28,-88.25 478.28,-84.75 468.28,-81.25 468.28,-88.25"/>
</a>
</g>
</g>
<!-- Node13 -->
<g id="Node000013" class="node">
<title>Node13</title>
<g id="a_Node000013"><a xlink:href="kest__dictionary_8c.html#af0aceaa93cba06fd44ad4bc50f2418e4" target="_top" xlink:title=" ">
<polygon fill="white" stroke="#666666" points="436.5,-56.12 324.5,-56.12 324.5,-35.38 436.5,-35.38 436.5,-56.12"/>
<text xml:space="preserve" text-anchor="middle" x="380.5" y="-42.62" font-family="Helvetica,sans-Serif" font-size="10.00">kest_parse_dict_val</text>
</a>
</g>
</g>
<!-- Node1&#45;&gt;Node13 -->
<g id="edge6_Node000001_Node000013" class="edge">
<title>Node1&#45;&gt;Node13</title>
<g id="a_edge6_Node000001_Node000013"><a xlink:title=" ">
<path fill="none" stroke="#63b8ff" d="M486.66,-71.22C466.95,-66.45 445.07,-61.15 426.39,-56.62"/>
<polygon fill="#63b8ff" stroke="#63b8ff" points="485.64,-74.58 496.18,-73.53 487.29,-67.77 485.64,-74.58"/>
</a>
</g>
</g>
<!-- Node3 -->
<g id="Node000003" class="node">
<title>Node3</title>
<g id="a_Node000003"><a xlink:href="kest__asm__parser_8c.html#a8a0d633256a85b35706b7a9ef1add7f0" target="_top" xlink:title=" ">
<polygon fill="white" stroke="#666666" points="278.75,-124.12 160.75,-124.12 160.75,-103.38 278.75,-103.38 278.75,-124.12"/>
<text xml:space="preserve" text-anchor="middle" x="219.75" y="-110.62" font-family="Helvetica,sans-Serif" font-size="10.00">kest_parse_asm_line</text>
</a>
</g>
</g>
<!-- Node2&#45;&gt;Node3 -->
<g id="edge2_Node000002_Node000003" class="edge">
<title>Node2&#45;&gt;Node3</title>
<g id="a_edge2_Node000002_Node000003"><a xlink:title=" ">
<path fill="none" stroke="#63b8ff" d="M310.83,-119.42C300.24,-118.76 289.38,-118.07 279.05,-117.42"/>
<polygon fill="#63b8ff" stroke="#63b8ff" points="310.48,-122.91 320.68,-120.04 310.92,-115.92 310.48,-122.91"/>
</a>
</g>
</g>
<!-- Node4 -->
<g id="Node000004" class="node">
<title>Node4</title>
<g id="a_Node000004"><a xlink:href="kest__asm__parser_8c.html#a1b7e03dd7589f652dec13b4b2c6d0a5c" target="_top" xlink:title=" ">
<polygon fill="#fff0f0" stroke="red" points="108.62,-124.12 13.88,-124.12 13.88,-103.38 108.62,-103.38 108.62,-124.12"/>
<text xml:space="preserve" text-anchor="middle" x="61.25" y="-110.62" font-family="Helvetica,sans-Serif" font-size="10.00">kest_parse_asm</text>
</a>
</g>
</g>
<!-- Node3&#45;&gt;Node4 -->
<g id="edge3_Node000003_Node000004" class="edge">
<title>Node3&#45;&gt;Node4</title>
<g id="a_edge3_Node000003_Node000004"><a xlink:title=" ">
<path fill="none" stroke="#63b8ff" d="M149.14,-113.75C135.5,-113.75 121.51,-113.75 108.85,-113.75"/>
<polygon fill="#63b8ff" stroke="#63b8ff" points="148.96,-117.25 158.96,-113.75 148.96,-110.25 148.96,-117.25"/>
</a>
</g>
</g>
<!-- Node12&#45;&gt;Node3 -->
<g id="edge5_Node000012_Node000003" class="edge">
<title>Node12&#45;&gt;Node3</title>
<g id="a_edge5_Node000012_Node000003"><a xlink:title=" ">
<path fill="none" stroke="#63b8ff" d="M309.17,-97.6C299.13,-99.43 288.9,-101.3 279.12,-103.09"/>
<polygon fill="#63b8ff" stroke="#63b8ff" points="309.69,-101.06 318.9,-95.82 308.43,-94.17 309.69,-101.06"/>
</a>
</g>
</g>
<!-- Node14 -->
<g id="Node000014" class="node">
<title>Node14</title>
<g id="a_Node000014"><a xlink:href="kest__dictionary_8c.html#a8db4f9c511b00d7240052135e9c1ed67" target="_top" xlink:title=" ">
<polygon fill="white" stroke="#666666" points="275.75,-66.12 163.75,-66.12 163.75,-45.38 275.75,-45.38 275.75,-66.12"/>
<text xml:space="preserve" text-anchor="middle" x="219.75" y="-52.62" font-family="Helvetica,sans-Serif" font-size="10.00">kest_parse_dict_list</text>
</a>
</g>
</g>
<!-- Node13&#45;&gt;Node14 -->
<g id="edge7_Node000013_Node000014" class="edge">
<title>Node13&#45;&gt;Node14</title>
<g id="a_edge7_Node000013_Node000014"><a xlink:title=" ">
<path fill="none" stroke="#63b8ff" d="M313.21,-43.26C300.83,-43.88 288.01,-44.76 276,-45.8"/>
<polygon fill="#63b8ff" stroke="#63b8ff" points="313.08,-46.77 322.91,-42.83 312.76,-39.77 313.08,-46.77"/>
</a>
</g>
</g>
<!-- Node15 -->
<g id="Node000015" class="node">
<title>Node15</title>
<g id="a_Node000015"><a xlink:href="kest__dictionary_8c.html#aae3fbdeba250be8f6dd3dfa686eb24a8" target="_top" xlink:title=" ">
<polygon fill="white" stroke="#666666" points="281,-27.12 158.5,-27.12 158.5,-6.38 281,-6.38 281,-27.12"/>
<text xml:space="preserve" text-anchor="middle" x="219.75" y="-13.62" font-family="Helvetica,sans-Serif" font-size="10.00">kest_parse_dictionary</text>
</a>
</g>
</g>
<!-- Node13&#45;&gt;Node15 -->
<g id="edge9_Node000013_Node000015" class="edge">
<title>Node13&#45;&gt;Node15</title>
<g id="a_edge9_Node000013_Node000015"><a xlink:title=" ">
<path fill="none" stroke="#63b8ff" d="M338.71,-32.31C321.27,-28.38 300.55,-24.39 281.38,-21.25"/>
<polygon fill="#63b8ff" stroke="#63b8ff" points="337.63,-35.66 348.17,-34.54 339.23,-28.84 337.63,-35.66"/>
</a>
</g>
</g>
<!-- Node14&#45;&gt;Node13 -->
<g id="edge8_Node000014_Node000013" class="edge">
<title>Node14&#45;&gt;Node13</title>
<g id="a_edge8_Node000014_Node000013"><a xlink:title=" ">
<path fill="none" stroke="#63b8ff" d="M287.22,-58.23C299.61,-57.61 312.42,-56.73 324.42,-55.68"/>
<polygon fill="#63b8ff" stroke="#63b8ff" points="287.34,-54.72 277.51,-58.67 287.66,-61.72 287.34,-54.72"/>
</a>
</g>
</g>
<!-- Node15&#45;&gt;Node13 -->
<g id="edge10_Node000015_Node000013" class="edge">
<title>Node15&#45;&gt;Node13</title>
<g id="a_edge10_Node000015_Node000013"><a xlink:title=" ">
<path fill="none" stroke="#63b8ff" d="M261.39,-30.15C280.55,-34.48 303.71,-38.87 324.42,-42.15"/>
<polygon fill="#63b8ff" stroke="#63b8ff" points="262.33,-26.78 251.79,-27.89 260.72,-33.59 262.33,-26.78"/>
</a>
</g>
</g>
<!-- Node16 -->
<g id="Node000016" class="node">
<title>Node16</title>
<g id="a_Node000016"><a xlink:href="kest__eff__section_8c.html#a4de28fb64398c9194136a2ced71e2795" target="_top" xlink:title=" ">
<polygon fill="#fff0f0" stroke="red" points="122.5,-33.5 0,-33.5 0,0 122.5,0 122.5,-33.5"/>
<text xml:space="preserve" text-anchor="start" x="8" y="-20" font-family="Helvetica,sans-Serif" font-size="10.00">kest_parse_dictionary</text>
<text xml:space="preserve" text-anchor="middle" x="61.25" y="-7.25" font-family="Helvetica,sans-Serif" font-size="10.00">_section</text>
</a>
</g>
</g>
<!-- Node15&#45;&gt;Node16 -->
<g id="edge11_Node000015_Node000016" class="edge">
<title>Node15&#45;&gt;Node16</title>
<g id="a_edge11_Node000015_Node000016"><a xlink:title=" ">
<path fill="none" stroke="#63b8ff" d="M146.95,-16.75C138.9,-16.75 130.75,-16.75 122.85,-16.75"/>
<polygon fill="#63b8ff" stroke="#63b8ff" points="146.73,-20.25 156.73,-16.75 146.73,-13.25 146.73,-20.25"/>
</a>
</g>
</g>
</g>
</svg>
