<?xml version="1.0" encoding="UTF-8" standalone="no"?>
<!DOCTYPE svg PUBLIC "-//W3C//DTD SVG 1.1//EN"
 "http://www.w3.org/Graphics/SVG/1.1/DTD/svg11.dtd">
<!-- Generated by graphviz version 13.1.2 (20250808.2320)
 -->
<!-- Title: create_effect_selector_button_ui_eff Pages: 1 -->
<!--zoomable 512 -->

<svg id="main" version="1.1" xmlns="http://www.w3.org/2000/svg" xmlns:xlink="http://www.w3.org/1999/xlink" xml:space="preserve" onload="init(evt)">

<style type="text/css"><![CDATA[
.node, .edge {opacity: 0.7;}
.node.selected, .edge.selected {opacity: 1;}
.edge:hover path { stroke: red; }
.edge:hover polygon { stroke: red; fill: red; }
]]></style>

<defs>
  <circle id="rim" cx="0" cy="0" r="7"/>
  <circle id="rim2" cx="0" cy="0" r="3.5"/>
  <g id="zoomPlus">
    <use xlink:href="#rim" fill="#404040"><set attributeName="fill" to="#808080" begin="zoomplus.mouseover" end="zoomplus.mouseout"/></use>
    <path d="M-4,0h8M0,-4v8" fill="none" stroke="white" stroke-width="1.5" pointer-events="none"/>
  </g>
  <g id="zoomMin">
    <use xlink:href="#rim" fill="#404040"><set attributeName="fill" to="#808080" begin="zoomminus.mouseover" end="zoomminus.mouseout"/></use>
    <path d="M-4,0h8" fill="none" stroke="white" stroke-width="1.5" pointer-events="none"/>
  </g>
  <g id="arrowUp" transform="translate(30 24)">
    <use xlink:href="#rim"/>
    <path pointer-events="none" fill="none" stroke="white" stroke-width="1.5" d="M0,-3.0v7 M-2.5,-0.5L0,-3.0L2.5,-0.5"/>
  </g>
  <g id="arrowRight" transform="rotate(90) translate(36 -43)">
    <use xlink:href="#rim"/>
    <path pointer-events="none" fill="none" stroke="white" stroke-width="1.5" d="M0,-3.0v7 M-2.5,-0.5L0,-3.0L2.5,-0.5"/>
  </g>
  <g id="arrowDown" transform="rotate(180) translate(-30 -48)">
    <use xlink:href="#rim"/>
    <path pointer-events="none" fill="none" stroke="white" stroke-width="1.5" d="M0,-3.0v7 M-2.5,-0.5L0,-3.0L2.5,-0.5"/>
  </g>
  <g id="arrowLeft" transform="rotate(270) translate(-36 17)">
    <use xlink:href="#rim"/>
    <path pointer-events="none" fill="none" stroke="white" stroke-width="1.5" d="M0,-3.0v7 M-2.5,-0.5L0,-3.0L2.5,-0.5"/>
  </g>
  <g id="resetDef">
    <use xlink:href="#rim2" fill="#404040"><set attributeName="fill" to="#808080" begin="reset.mouseover" end="reset.mouseout"/></use>
  </g>
</defs>
<script type="application/ecmascript">
var viewWidth = 867;
var viewHeight = 512;
var sectionId = 'dynsection-2';
</script>
<script type="application/ecmascript" xlink:href="svg.min.js"/>
<svg id="graph" class="graph">
<g id="viewport">
<title>create_effect_selector_button_ui_eff</title>
<!-- Node1 -->
<g id="Node000001" class="node">
<title>Node1</title>
<g id="a_Node000001"><a xlink:title=" ">
<polygon fill="#999999" stroke="#666666" points="124.75,-152.5 0,-152.5 0,-119 124.75,-119 124.75,-152.5"/>
<text xml:space="preserve" text-anchor="start" x="8" y="-139" font-family="Helvetica,sans-Serif" font-size="10.00">create_effect_selector</text>
<text xml:space="preserve" text-anchor="middle" x="62.38" y="-126.25" font-family="Helvetica,sans-Serif" font-size="10.00">_button_ui_eff</text>
</a>
</g>
</g>
<!-- Node2 -->
<g id="Node000002" class="node">
<title>Node2</title>
<g id="a_Node000002"><a xlink:href="kest__effect__select_8c.html#a0a0604d69c6fbeb09b31db2ebff0e901" target="_top" xlink:title=" ">
<polygon fill="white" stroke="#666666" points="308.75,-169.12 160.75,-169.12 160.75,-148.38 308.75,-148.38 308.75,-169.12"/>
<text xml:space="preserve" text-anchor="middle" x="234.75" y="-155.62" font-family="Helvetica,sans-Serif" font-size="10.00">add_effect_from_menu_eff</text>
</a>
</g>
</g>
<!-- Node1&#45;&gt;Node2 -->
<g id="edge1_Node000001_Node000002" class="edge">
<title>Node1&#45;&gt;Node2</title>
<g id="a_edge1_Node000001_Node000002"><a xlink:title=" ">
<path fill="none" stroke="#63b8ff" d="M124.88,-144.05C132.81,-145.12 141.04,-146.23 149.26,-147.34"/>
<polygon fill="#63b8ff" stroke="#63b8ff" points="148.55,-150.78 158.93,-148.65 149.49,-143.84 148.55,-150.78"/>
</a>
</g>
</g>
<!-- Node157 -->
<g id="Node000157" class="node">
<title>Node157</title>
<g id="a_Node000157"><a xlink:href="kest__ui_8c.html#a3db1223191628ba0e7dd7ca3c2c8a529" target="_top" xlink:title=" ">
<polygon fill="white" stroke="#666666" points="300.5,-130.5 169,-130.5 169,-97 300.5,-97 300.5,-130.5"/>
<text xml:space="preserve" text-anchor="start" x="177" y="-117" font-family="Helvetica,sans-Serif" font-size="10.00">create_standard_button</text>
<text xml:space="preserve" text-anchor="middle" x="234.75" y="-104.25" font-family="Helvetica,sans-Serif" font-size="10.00">_click_short</text>
</a>
</g>
</g>
<!-- Node1&#45;&gt;Node157 -->
<g id="edge24_Node000001_Node000157" class="edge">
<title>Node1&#45;&gt;Node157</title>
<g id="a_edge24_Node000001_Node000157"><a xlink:title=" ">
<path fill="none" stroke="#63b8ff" d="M124.88,-127.81C135.42,-126.45 146.49,-125.02 157.36,-123.61"/>
<polygon fill="#63b8ff" stroke="#63b8ff" points="157.62,-127.11 167.09,-122.36 156.73,-120.17 157.62,-127.11"/>
</a>
</g>
</g>
<!-- Node3 -->
<g id="Node000003" class="node">
<title>Node3</title>
<g id="a_Node000003"><a xlink:href="kest__effect__view_8c.html#a7d15ffb969bcf677cf4a1622e2666f8e" target="_top" xlink:title=" ">
<polygon fill="white" stroke="#666666" points="480.75,-408.12 357.5,-408.12 357.5,-387.38 480.75,-387.38 480.75,-408.12"/>
<text xml:space="preserve" text-anchor="middle" x="419.12" y="-394.62" font-family="Helvetica,sans-Serif" font-size="10.00">create_effect_view_ui</text>
</a>
</g>
</g>
<!-- Node2&#45;&gt;Node3 -->
<g id="edge2_Node000002_Node000003" class="edge">
<title>Node2&#45;&gt;Node3</title>
<g id="a_edge2_Node000002_Node000003"><a xlink:title=" ">
<path fill="none" stroke="#63b8ff" d="M243.82,-169.33C272,-206.26 366.32,-329.86 403.18,-378.16"/>
<polygon fill="#63b8ff" stroke="#63b8ff" points="400.17,-379.99 409.02,-385.82 405.74,-375.75 400.17,-379.99"/>
</a>
</g>
</g>
<!-- Node80 -->
<g id="Node000080" class="node">
<title>Node80</title>
<g id="a_Node000080"><a xlink:href="kest__ui_8c.html#a8e18610dded037df6bd96330d349f186" target="_top" xlink:title=" ">
<polygon fill="white" stroke="#666666" points="490.5,-214.12 347.75,-214.12 347.75,-193.38 490.5,-193.38 490.5,-214.12"/>
<text xml:space="preserve" text-anchor="middle" x="419.12" y="-200.62" font-family="Helvetica,sans-Serif" font-size="10.00">enter_ui_page_backwards</text>
</a>
</g>
</g>
<!-- Node2&#45;&gt;Node80 -->
<g id="edge10_Node000002_Node000080" class="edge">
<title>Node2&#45;&gt;Node80</title>
<g id="a_edge10_Node000002_Node000080"><a xlink:title=" ">
<path fill="none" stroke="#63b8ff" d="M279.43,-169.53C304.51,-175.72 336.25,-183.55 363.03,-190.15"/>
<polygon fill="#63b8ff" stroke="#63b8ff" points="362.15,-193.54 372.7,-192.54 363.83,-186.75 362.15,-193.54"/>
</a>
</g>
</g>
<!-- Node83 -->
<g id="Node000083" class="node">
<title>Node83</title>
<g id="a_Node000083"><a xlink:href="kest__effect_8h.html#a262d6915b50a9a4daf4cd64e3b74b13f" target="_top" xlink:title=" ">
<polygon fill="white" stroke="#666666" points="493.5,-124.12 344.75,-124.12 344.75,-103.38 493.5,-103.38 493.5,-124.12"/>
<text xml:space="preserve" text-anchor="middle" x="419.12" y="-110.62" font-family="Helvetica,sans-Serif" font-size="10.00">kest_effect_init_view_page</text>
</a>
</g>
</g>
<!-- Node2&#45;&gt;Node83 -->
<g id="edge13_Node000002_Node000083" class="edge">
<title>Node2&#45;&gt;Node83</title>
<g id="a_edge13_Node000002_Node000083"><a xlink:title=" ">
<path fill="none" stroke="#63b8ff" d="M279.43,-147.97C304.51,-141.78 336.25,-133.95 363.03,-127.35"/>
<polygon fill="#63b8ff" stroke="#63b8ff" points="363.83,-130.75 372.7,-124.96 362.15,-123.96 363.83,-130.75"/>
</a>
</g>
</g>
<!-- Node84 -->
<g id="Node000084" class="node">
<title>Node84</title>
<g id="a_Node000084"><a xlink:href="kest__profile_8c.html#ab6d55ea9738ce37aae141901562268d6" target="_top" xlink:title=" ">
<polygon fill="white" stroke="#666666" points="476.25,-85.5 362,-85.5 362,-52 476.25,-52 476.25,-85.5"/>
<text xml:space="preserve" text-anchor="start" x="370" y="-72" font-family="Helvetica,sans-Serif" font-size="10.00">kest_profile_append</text>
<text xml:space="preserve" text-anchor="middle" x="419.12" y="-59.25" font-family="Helvetica,sans-Serif" font-size="10.00">_effect_eff</text>
</a>
</g>
</g>
<!-- Node2&#45;&gt;Node84 -->
<g id="edge14_Node000002_Node000084" class="edge">
<title>Node2&#45;&gt;Node84</title>
<g id="a_edge14_Node000002_Node000084"><a xlink:title=" ">
<path fill="none" stroke="#63b8ff" d="M292.32,-147.99C298.1,-145.74 303.7,-143.03 308.75,-139.75 330.24,-125.81 323.88,-109.6 344.75,-94.75 346.93,-93.2 349.22,-91.73 351.58,-90.34"/>
<polygon fill="#63b8ff" stroke="#63b8ff" points="353.04,-93.53 360.27,-85.78 349.79,-87.33 353.04,-93.53"/>
</a>
</g>
</g>
<!-- Node44 -->
<g id="Node000044" class="node">
<title>Node44</title>
<g id="a_Node000044"><a xlink:href="kest__profile_8c.html#a1943b8bd24ec344d5f80fcb7fb4ca297" target="_top" xlink:title=" ">
<polygon fill="#fff0f0" stroke="red" points="479.25,-33.5 359,-33.5 359,0 479.25,0 479.25,-33.5"/>
<text xml:space="preserve" text-anchor="start" x="367" y="-20" font-family="Helvetica,sans-Serif" font-size="10.00">kest_profile_if_active</text>
<text xml:space="preserve" text-anchor="middle" x="419.12" y="-7.25" font-family="Helvetica,sans-Serif" font-size="10.00">_update_fpga</text>
</a>
</g>
</g>
<!-- Node2&#45;&gt;Node44 -->
<g id="edge17_Node000002_Node000044" class="edge">
<title>Node2&#45;&gt;Node44</title>
<g id="a_edge17_Node000002_Node000044"><a xlink:title=" ">
<path fill="none" stroke="#63b8ff" d="M296.72,-147.96C301.08,-145.71 305.16,-143 308.75,-139.75 342.86,-108.91 311.99,-75.02 344.75,-42.75 346.14,-41.38 347.61,-40.08 349.14,-38.85"/>
<polygon fill="#63b8ff" stroke="#63b8ff" points="350.92,-41.87 357.25,-33.38 347,-36.07 350.92,-41.87"/>
</a>
</g>
</g>
<!-- Node113 -->
<g id="Node000113" class="node">
<title>Node113</title>
<g id="a_Node000113"><a xlink:href="kest__profile_8c.html#a8b1594e9e88b6298e1ce4d93641b1e4d" target="_top" xlink:title=" ">
<polygon fill="white" stroke="#666666" points="475.12,-175.5 363.12,-175.5 363.12,-142 475.12,-142 475.12,-175.5"/>
<text xml:space="preserve" text-anchor="start" x="371.12" y="-162" font-family="Helvetica,sans-Serif" font-size="10.00">kest_profile_update</text>
<text xml:space="preserve" text-anchor="middle" x="419.12" y="-149.25" font-family="Helvetica,sans-Serif" font-size="10.00">_representations</text>
</a>
</g>
</g>
<!-- Node2&#45;&gt;Node113 -->
<g id="edge18_Node000002_Node000113" class="edge">
<title>Node2&#45;&gt;Node113</title>
<g id="a_edge18_Node000002_Node000113"><a xlink:title=" ">
<path fill="none" stroke="#63b8ff" d="M309.14,-158.75C323.14,-158.75 337.72,-158.75 351.49,-158.75"/>
<polygon fill="#63b8ff" stroke="#63b8ff" points="351.32,-162.25 361.32,-158.75 351.32,-155.25 351.32,-162.25"/>
</a>
</g>
</g>
<!-- Node114 -->
<g id="Node000114" class="node">
<title>Node114</title>
<g id="a_Node000114"><a xlink:href="kest__profile__view_8c.html#a9c3d5228a66c4f4546876fbc4c93b6ab" target="_top" xlink:title=" ">
<polygon fill="white" stroke="#666666" points="477.75,-288.5 360.5,-288.5 360.5,-255 477.75,-255 477.75,-288.5"/>
<text xml:space="preserve" text-anchor="start" x="368.5" y="-275" font-family="Helvetica,sans-Serif" font-size="10.00">profile_view_append</text>
<text xml:space="preserve" text-anchor="middle" x="419.12" y="-262.25" font-family="Helvetica,sans-Serif" font-size="10.00">_effect</text>
</a>
</g>
</g>
<!-- Node2&#45;&gt;Node114 -->
<g id="edge20_Node000002_Node000114" class="edge">
<title>Node2&#45;&gt;Node114</title>
<g id="a_edge20_Node000002_Node000114"><a xlink:title=" ">
<path fill="none" stroke="#63b8ff" d="M253.24,-169.58C282.5,-187.71 341.99,-224.58 380.94,-248.71"/>
<polygon fill="#63b8ff" stroke="#63b8ff" points="378.74,-251.46 389.08,-253.76 382.43,-245.51 378.74,-251.46"/>
</a>
</g>
</g>
<!-- Node4 -->
<g id="Node000004" class="node">
<title>Node4</title>
<g id="a_Node000004"><a xlink:href="kest__effect__settings_8c.html#ad39e071d5cf7cd7e4fc67d41f14d48e8" target="_top" xlink:title=" ">
<polygon fill="#fff0f0" stroke="red" points="661,-478.5 536.25,-478.5 536.25,-445 661,-445 661,-478.5"/>
<text xml:space="preserve" text-anchor="start" x="544.25" y="-465" font-family="Helvetica,sans-Serif" font-size="10.00">create_effect_settings</text>
<text xml:space="preserve" text-anchor="middle" x="598.62" y="-452.25" font-family="Helvetica,sans-Serif" font-size="10.00">_page_ui</text>
</a>
</g>
</g>
<!-- Node3&#45;&gt;Node4 -->
<g id="edge3_Node000003_Node000004" class="edge">
<title>Node3&#45;&gt;Node4</title>
<g id="a_edge3_Node000003_Node000004"><a xlink:title=" ">
<path fill="none" stroke="#63b8ff" d="M450.24,-408.61C474.55,-417.37 509.49,-429.97 539.25,-440.7"/>
<polygon fill="#63b8ff" stroke="#63b8ff" points="537.93,-443.95 548.53,-444.05 540.31,-437.36 537.93,-443.95"/>
</a>
</g>
</g>
<!-- Node7 -->
<g id="Node000007" class="node">
<title>Node7</title>
<g id="a_Node000007"><a xlink:href="kest__parameter__widget_8c.html#adbadb9573fa4f9b812f8d270c78053e4" target="_top" xlink:title=" ">
<polygon fill="#fff0f0" stroke="red" points="859.25,-494.12 703.75,-494.12 703.75,-473.38 859.25,-473.38 859.25,-494.12"/>
<text xml:space="preserve" text-anchor="middle" x="781.5" y="-480.62" font-family="Helvetica,sans-Serif" font-size="10.00">parameter_widget_create_ui</text>
</a>
</g>
</g>
<!-- Node3&#45;&gt;Node7 -->
<g id="edge7_Node000003_Node000007" class="edge">
<title>Node3&#45;&gt;Node7</title>
<g id="a_edge7_Node000003_Node000007"><a xlink:title=" ">
<path fill="none" stroke="#63b8ff" d="M428.62,-408.51C445.35,-428.71 484.82,-471.73 529.5,-487.75 591.42,-509.95 667.57,-504.58 719.65,-496.44"/>
<polygon fill="#63b8ff" stroke="#63b8ff" points="719.92,-499.94 729.22,-494.86 718.78,-493.03 719.92,-499.94"/>
</a>
</g>
</g>
<!-- Node20 -->
<g id="Node000020" class="node">
<title>Node20</title>
<g id="a_Node000020"><a xlink:href="kest__ui_8c.html#a58a68a436917a32cc3daab2e0d4b3245" target="_top" xlink:title=" ">
<polygon fill="#fff0f0" stroke="red" points="848,-430.12 715,-430.12 715,-409.38 848,-409.38 848,-430.12"/>
<text xml:space="preserve" text-anchor="middle" x="781.5" y="-416.62" font-family="Helvetica,sans-Serif" font-size="10.00">ui_page_create_base_ui</text>
</a>
</g>
</g>
<!-- Node3&#45;&gt;Node20 -->
<g id="edge9_Node000003_Node000020" class="edge">
<title>Node3&#45;&gt;Node20</title>
<g id="a_edge9_Node000003_Node000020"><a xlink:title=" ">
<path fill="none" stroke="#63b8ff" d="M480.85,-401.46C542.1,-405.2 636.86,-410.98 703.39,-415.04"/>
<polygon fill="#63b8ff" stroke="#63b8ff" points="702.93,-418.52 713.13,-415.64 703.36,-411.53 702.93,-418.52"/>
</a>
</g>
</g>
<!-- Node32 -->
<g id="Node000032" class="node">
<title>Node32</title>
<g id="a_Node000032"><a xlink:href="kest__effect_8c.html#a8f53e22436efdc0e494b297ea09db5eb" target="_top" xlink:title=" ">
<polygon fill="white" stroke="#666666" points="650.12,-350.12 547.12,-350.12 547.12,-329.38 650.12,-329.38 650.12,-350.12"/>
<text xml:space="preserve" text-anchor="middle" x="598.62" y="-336.62" font-family="Helvetica,sans-Serif" font-size="10.00">kest_effect_name</text>
</a>
</g>
</g>
<!-- Node3&#45;&gt;Node32 -->
<g id="edge6_Node000003_Node000032" class="edge">
<title>Node3&#45;&gt;Node32</title>
<g id="a_edge6_Node000003_Node000032"><a xlink:title=" ">
<path fill="none" stroke="#63b8ff" d="M449.7,-387.03C471.64,-379.2 502.32,-368.46 529.5,-359.75 535.74,-357.75 542.33,-355.72 548.85,-353.76"/>
<polygon fill="#63b8ff" stroke="#63b8ff" points="549.65,-357.17 558.24,-350.96 547.66,-350.46 549.65,-357.17"/>
</a>
</g>
</g>
<!-- Node33 -->
<g id="Node000033" class="node">
<title>Node33</title>
<g id="a_Node000033"><a xlink:href="kest__parameter__widget_8c.html#a2074107eca4e8e2b3832c9f9f2e5f9f2" target="_top" xlink:title=" ">
<polygon fill="#fff0f0" stroke="red" points="667.75,-389.12 529.5,-389.12 529.5,-368.38 667.75,-368.38 667.75,-389.12"/>
<text xml:space="preserve" text-anchor="middle" x="598.62" y="-375.62" font-family="Helvetica,sans-Serif" font-size="10.00">setting_widget_create_ui</text>
</a>
</g>
</g>
<!-- Node3&#45;&gt;Node33 -->
<g id="edge8_Node000003_Node000033" class="edge">
<title>Node3&#45;&gt;Node33</title>
<g id="a_edge8_Node000003_Node000033"><a xlink:title=" ">
<path fill="none" stroke="#63b8ff" d="M481.21,-391.21C493.03,-389.95 505.59,-388.6 517.9,-387.28"/>
<polygon fill="#63b8ff" stroke="#63b8ff" points="518.05,-390.79 527.62,-386.24 517.3,-383.83 518.05,-390.79"/>
</a>
</g>
</g>
<!-- Node4&#45;&gt;Node7 -->
<g id="edge4_Node000004_Node000007" class="edge">
<title>Node4&#45;&gt;Node7</title>
<g id="a_edge4_Node000004_Node000007"><a xlink:title=" ">
<path fill="none" stroke="#63b8ff" d="M661.37,-469.26C671.29,-470.47 681.72,-471.74 692.12,-473"/>
<polygon fill="#63b8ff" stroke="#63b8ff" points="691.51,-476.45 701.86,-474.18 692.36,-469.5 691.51,-476.45"/>
</a>
</g>
</g>
<!-- Node4&#45;&gt;Node20 -->
<g id="edge5_Node000004_Node000020" class="edge">
<title>Node4&#45;&gt;Node20</title>
<g id="a_edge5_Node000004_Node000020"><a xlink:title=" ">
<path fill="none" stroke="#63b8ff" d="M661.37,-447.41C681.21,-442.8 703.12,-437.72 722.67,-433.18"/>
<polygon fill="#63b8ff" stroke="#63b8ff" points="723.46,-436.59 732.41,-430.92 721.88,-429.77 723.46,-436.59"/>
</a>
</g>
</g>
<!-- Node81 -->
<g id="Node000081" class="node">
<title>Node81</title>
<g id="a_Node000081"><a xlink:href="kest__context_8c.html#a6292c7a2d7f0502ea5a59bbe9b552791" target="_top" xlink:title=" ">
<polygon fill="white" stroke="#666666" points="658.75,-207.5 538.5,-207.5 538.5,-174 658.75,-174 658.75,-207.5"/>
<text xml:space="preserve" text-anchor="start" x="546.5" y="-194" font-family="Helvetica,sans-Serif" font-size="10.00">kest_cxt_queue_save</text>
<text xml:space="preserve" text-anchor="middle" x="598.62" y="-181.25" font-family="Helvetica,sans-Serif" font-size="10.00">_state</text>
</a>
</g>
</g>
<!-- Node80&#45;&gt;Node81 -->
<g id="edge11_Node000080_Node000081" class="edge">
<title>Node80&#45;&gt;Node81</title>
<g id="a_edge11_Node000080_Node000081"><a xlink:title=" ">
<path fill="none" stroke="#63b8ff" d="M490.79,-198.57C502.66,-197.71 514.98,-196.8 526.85,-195.93"/>
<polygon fill="#63b8ff" stroke="#63b8ff" points="526.84,-199.44 536.55,-195.22 526.32,-192.46 526.84,-199.44"/>
</a>
</g>
</g>
<!-- Node82 -->
<g id="Node000082" class="node">
<title>Node82</title>
<g id="a_Node000082"><a xlink:href="kest__representation_8c.html#a7a4a0f32b72f47d90e3d0f5932fbe58f" target="_top" xlink:title=" ">
<polygon fill="white" stroke="#666666" points="842.75,-185.5 720.25,-185.5 720.25,-152 842.75,-152 842.75,-185.5"/>
<text xml:space="preserve" text-anchor="start" x="728.25" y="-172" font-family="Helvetica,sans-Serif" font-size="10.00">queue_representation</text>
<text xml:space="preserve" text-anchor="middle" x="781.5" y="-159.25" font-family="Helvetica,sans-Serif" font-size="10.00">_list_update</text>
</a>
</g>
</g>
<!-- Node81&#45;&gt;Node82 -->
<g id="edge12_Node000081_Node000082" class="edge">
<title>Node81&#45;&gt;Node82</title>
<g id="a_edge12_Node000081_Node000082"><a xlink:title=" ">
<path fill="none" stroke="#63b8ff" d="M659.1,-183.52C675,-181.58 692.34,-179.47 708.82,-177.47"/>
<polygon fill="#63b8ff" stroke="#63b8ff" points="709.05,-180.97 718.56,-176.28 708.21,-174.02 709.05,-180.97"/>
</a>
</g>
</g>
<!-- Node85 -->
<g id="Node000085" class="node">
<title>Node85</title>
<g id="a_Node000085"><a xlink:href="kest__effect_8c.html#a45969080cfeedba828e766c3fe6670ab" target="_top" xlink:title=" ">
<polygon fill="white" stroke="#666666" points="667.38,-92.12 529.88,-92.12 529.88,-71.38 667.38,-71.38 667.38,-92.12"/>
<text xml:space="preserve" text-anchor="middle" x="598.62" y="-78.62" font-family="Helvetica,sans-Serif" font-size="10.00">effect_rectify_param_ids</text>
</a>
</g>
</g>
<!-- Node84&#45;&gt;Node85 -->
<g id="edge15_Node000084_Node000085" class="edge">
<title>Node84&#45;&gt;Node85</title>
<g id="a_edge15_Node000084_Node000085"><a xlink:title=" ">
<path fill="none" stroke="#63b8ff" d="M476.29,-72.86C489.59,-73.84 504.03,-74.9 518.15,-75.93"/>
<polygon fill="#63b8ff" stroke="#63b8ff" points="517.64,-79.4 527.87,-76.64 518.15,-72.42 517.64,-79.4"/>
</a>
</g>
</g>
<!-- Node86 -->
<g id="Node000086" class="node">
<title>Node86</title>
<g id="a_Node000086"><a xlink:href="kest__pipeline_8c.html#a0eff55a4103a090993bbac228a981af6" target="_top" xlink:title=" ">
<polygon fill="#fff0f0" stroke="red" points="659.5,-53.5 537.75,-53.5 537.75,-20 659.5,-20 659.5,-53.5"/>
<text xml:space="preserve" text-anchor="start" x="545.75" y="-40" font-family="Helvetica,sans-Serif" font-size="10.00">kest_pipeline_append</text>
<text xml:space="preserve" text-anchor="middle" x="598.62" y="-27.25" font-family="Helvetica,sans-Serif" font-size="10.00">_effect_eff</text>
</a>
</g>
</g>
<!-- Node84&#45;&gt;Node86 -->
<g id="edge16_Node000084_Node000086" class="edge">
<title>Node84&#45;&gt;Node86</title>
<g id="a_edge16_Node000084_Node000086"><a xlink:title=" ">
<path fill="none" stroke="#63b8ff" d="M476.29,-58.62C492.28,-55.74 509.92,-52.56 526.68,-49.54"/>
<polygon fill="#63b8ff" stroke="#63b8ff" points="526.82,-53.07 536.04,-47.85 525.58,-46.18 526.82,-53.07"/>
</a>
</g>
</g>
<!-- Node113&#45;&gt;Node82 -->
<g id="edge19_Node000113_Node000082" class="edge">
<title>Node113&#45;&gt;Node82</title>
<g id="a_edge19_Node000113_Node000082"><a xlink:title=" ">
<path fill="none" stroke="#63b8ff" d="M475.21,-159.91C525.39,-161 601.55,-162.77 667.75,-164.75 680.98,-165.14 695.08,-165.61 708.67,-166.08"/>
<polygon fill="#63b8ff" stroke="#63b8ff" points="708.31,-169.57 718.43,-166.42 708.56,-162.57 708.31,-169.57"/>
</a>
</g>
</g>
<!-- Node114&#45;&gt;Node32 -->
<g id="edge23_Node000114_Node000032" class="edge">
<title>Node114&#45;&gt;Node32</title>
<g id="a_edge23_Node000114_Node000032"><a xlink:title=" ">
<path fill="none" stroke="#63b8ff" d="M455.04,-289C476.25,-299.07 504.06,-311.56 529.5,-320.75 534.24,-322.46 539.21,-324.11 544.22,-325.68"/>
<polygon fill="#63b8ff" stroke="#63b8ff" points="543.13,-329.01 553.71,-328.53 545.14,-322.3 543.13,-329.01"/>
</a>
</g>
</g>
<!-- Node115 -->
<g id="Node000115" class="node">
<title>Node115</title>
<g id="a_Node000115"><a xlink:href="kest__button_8c.html#a760fe364ce4f5be2c972ff685e2f9825" target="_top" xlink:title=" ">
<polygon fill="#fff0f0" stroke="red" points="655.38,-311.5 541.88,-311.5 541.88,-278 655.38,-278 655.38,-311.5"/>
<text xml:space="preserve" text-anchor="start" x="549.88" y="-298" font-family="Helvetica,sans-Serif" font-size="10.00">kest_active_button</text>
<text xml:space="preserve" text-anchor="middle" x="598.62" y="-285.25" font-family="Helvetica,sans-Serif" font-size="10.00">_array_append_new</text>
</a>
</g>
</g>
<!-- Node114&#45;&gt;Node115 -->
<g id="edge21_Node000114_Node000115" class="edge">
<title>Node114&#45;&gt;Node115</title>
<g id="a_edge21_Node000114_Node000115"><a xlink:title=" ">
<path fill="none" stroke="#63b8ff" d="M478.25,-279.28C494.92,-281.44 513.23,-283.81 530.4,-286.04"/>
<polygon fill="#63b8ff" stroke="#63b8ff" points="529.62,-289.47 539.99,-287.28 530.52,-282.53 529.62,-289.47"/>
</a>
</g>
</g>
<!-- Node156 -->
<g id="Node000156" class="node">
<title>Node156</title>
<g id="a_Node000156"><a xlink:href="kest__button_8c.html#a5fdea311fb351ff8f9d27116813f35a8" target="_top" xlink:title=" ">
<polygon fill="#fff0f0" stroke="red" points="652.75,-259.5 544.5,-259.5 544.5,-226 652.75,-226 652.75,-259.5"/>
<text xml:space="preserve" text-anchor="start" x="552.5" y="-246" font-family="Helvetica,sans-Serif" font-size="10.00">kest_active_button</text>
<text xml:space="preserve" text-anchor="middle" x="598.62" y="-233.25" font-family="Helvetica,sans-Serif" font-size="10.00">_create_ui</text>
</a>
</g>
</g>
<!-- Node114&#45;&gt;Node156 -->
<g id="edge22_Node000114_Node000156" class="edge">
<title>Node114&#45;&gt;Node156</title>
<g id="a_edge22_Node000114_Node000156"><a xlink:title=" ">
<path fill="none" stroke="#63b8ff" d="M478.25,-262.25C495.75,-259.4 515.06,-256.24 532.95,-253.32"/>
<polygon fill="#63b8ff" stroke="#63b8ff" points="533.38,-256.79 542.69,-251.73 532.25,-249.88 533.38,-256.79"/>
</a>
</g>
</g>
</g>
</svg>

<g id="navigator" transform="translate(0 0)" fill="#404254">
  <rect fill="#f2f5e9" fill-opacity="0.5" stroke="#606060" stroke-width=".5" x="0" y="0" width="60" height="60"/>
  <use id="zoomplus" xlink:href="#zoomPlus" x="17" y="9" onmousedown="handleZoom(evt,'in')"/>
  <use id="zoomminus" xlink:href="#zoomMin" x="42" y="9" onmousedown="handleZoom(evt,'out')"/>
  <use id="reset" xlink:href="#resetDef" x="30" y="36" onmousedown="handleReset()"/>
   <use id="arrowup" xlink:href="#arrowUp" x="0" y="0" onmousedown="handlePan(0,-1)"/>
  <use id="arrowright" xlink:href="#arrowRight" x="0" y="0" onmousedown="handlePan(1,0)"/>
  <use id="arrowdown" xlink:href="#arrowDown" x="0" y="0" onmousedown="handlePan(0,1)"/>
  <use id="arrowleft" xlink:href="#arrowLeft" x="0" y="0" onmousedown="handlePan(-1,0)"/>
</g>
<svg viewBox="0 0 15 15" width="100%" height="30px" preserveAspectRatio="xMaxYMin meet">
 <g id="arrow_out" transform="scale(0.3 0.3)">
  <a xlink:href="kest__effect__select_8c_a46b6d3a353595e72c7a17e6352e5a7a0_cgraph_org.svg" target="_base">
   <rect id="button" ry="5" rx="5" y="6" x="6" height="38" width="38"
        fill="#f2f5e9" fill-opacity="0.5" stroke="#606060" stroke-width="1.0"/>
   <path id="arrow"
     d="M 11.500037,31.436501 C 11.940474,20.09759 22.043105,11.32322 32.158766,21.979434 L 37.068811,17.246167 C 37.068811,17.246167 37.088388,32 37.088388,32 L 22.160133,31.978069 C 22.160133,31.978069 26.997745,27.140456 26.997745,27.140456 C 18.528582,18.264221 13.291696,25.230495 11.500037,31.436501 z"
     style="fill:#404040;"/>
  </a>
 </g>
</svg>

<style type='text/css'>
<![CDATA[
[data-mouse-over-selected='false'] { opacity: 0.7; }
[data-mouse-over-selected='true']  { opacity: 1.0; }
]]>
</style>
<script type="application/ecmascript"><![CDATA[
document.addEventListener('DOMContentLoaded', (event) => {
  highlightEdges();
  highlightAdjacentNodes();
});
]]></script>
</svg>
