<?xml version="1.0" encoding="UTF-8" standalone="no"?>
<!DOCTYPE svg PUBLIC "-//W3C//DTD SVG 1.1//EN"
 "http://www.w3.org/Graphics/SVG/1.1/DTD/svg11.dtd">
<!-- Generated by graphviz version 13.1.2 (20250808.2320)
 -->
<!-- Title: kest_expression_print Pages: 1 -->
<svg width="485pt" height="132pt"
 viewBox="0.00 0.00 485.00 132.00" xmlns="http://www.w3.org/2000/svg" xmlns:xlink="http://www.w3.org/1999/xlink">
<g id="graph0" class="graph" transform="scale(1 1) rotate(0) translate(4 128.12)">
<title>kest_expression_print</title>
<!-- Node1 -->
<g id="Node000001" class="node">
<title>Node1</title>
<g id="a_Node000001"><a xlink:title=" ">
<polygon fill="#999999" stroke="#666666" points="122.5,-79.12 0,-79.12 0,-58.38 122.5,-58.38 122.5,-79.12"/>
<text xml:space="preserve" text-anchor="middle" x="61.25" y="-65.62" font-family="Helvetica,sans-Serif" font-size="10.00">kest_expression_print</text>
</a>
</g>
</g>
<!-- Node2 -->
<g id="Node000002" class="node">
<title>Node2</title>
<g id="a_Node000002"><a xlink:href="kest__expression_8c.html#a767b50b7ddfa94dc61810dfdcc8feaf0" target="_top" xlink:title=" ">
<polygon fill="white" stroke="#666666" points="301.25,-79.12 158.5,-79.12 158.5,-58.38 301.25,-58.38 301.25,-79.12"/>
<text xml:space="preserve" text-anchor="middle" x="229.88" y="-65.62" font-family="Helvetica,sans-Serif" font-size="10.00">kest_expression_print_rec</text>
</a>
</g>
</g>
<!-- Node1&#45;&gt;Node2 -->
<g id="edge1_Node000001_Node000002" class="edge">
<title>Node1&#45;&gt;Node2</title>
<g id="a_edge1_Node000001_Node000002"><a xlink:title=" ">
<path fill="none" stroke="#63b8ff" d="M122.88,-68.75C130.66,-68.75 138.72,-68.75 146.77,-68.75"/>
<polygon fill="#63b8ff" stroke="#63b8ff" points="146.6,-72.25 156.6,-68.75 146.6,-65.25 146.6,-72.25"/>
</a>
</g>
</g>
<!-- Node2&#45;&gt;Node2 -->
<g id="edge5_Node000002_Node000002" class="edge">
<title>Node2&#45;&gt;Node2</title>
<g id="a_edge5_Node000002_Node000002"><a xlink:title=" ">
<path fill="none" stroke="#63b8ff" d="M202.7,-79.52C191.84,-88.18 200.89,-97.12 229.88,-97.12 245.72,-97.12 255.62,-94.45 259.55,-90.61"/>
<polygon fill="#63b8ff" stroke="#63b8ff" points="262.99,-89.98 257.38,-81 256.16,-91.52 262.99,-89.98"/>
</a>
</g>
</g>
<!-- Node3 -->
<g id="Node000003" class="node">
<title>Node3</title>
<g id="a_Node000003"><a xlink:href="kest__expression_8c.html#a2f21e4932bce8c87ec0bfc508588b761" target="_top" xlink:title=" ">
<polygon fill="white" stroke="#666666" points="468.75,-124.12 345.5,-124.12 345.5,-103.38 468.75,-103.38 468.75,-124.12"/>
<text xml:space="preserve" text-anchor="middle" x="407.12" y="-110.62" font-family="Helvetica,sans-Serif" font-size="10.00">kest_expression_form</text>
</a>
</g>
</g>
<!-- Node2&#45;&gt;Node3 -->
<g id="edge2_Node000002_Node000003" class="edge">
<title>Node2&#45;&gt;Node3</title>
<g id="a_edge2_Node000002_Node000003"><a xlink:title=" ">
<path fill="none" stroke="#63b8ff" d="M272.85,-79.53C296.84,-85.69 327.17,-93.48 352.83,-100.07"/>
<polygon fill="#63b8ff" stroke="#63b8ff" points="351.86,-103.43 362.42,-102.53 353.6,-96.65 351.86,-103.43"/>
</a>
</g>
</g>
<!-- Node4 -->
<g id="Node000004" class="node">
<title>Node4</title>
<g id="a_Node000004"><a xlink:href="kest__expression_8c.html#a81b490a2837a170e18e8cdae730d0d9b" target="_top" xlink:title=" ">
<polygon fill="white" stroke="#666666" points="477,-85.5 337.25,-85.5 337.25,-52 477,-52 477,-85.5"/>
<text xml:space="preserve" text-anchor="start" x="345.25" y="-72" font-family="Helvetica,sans-Serif" font-size="10.00">kest_expression_function</text>
<text xml:space="preserve" text-anchor="middle" x="407.12" y="-59.25" font-family="Helvetica,sans-Serif" font-size="10.00">_string</text>
</a>
</g>
</g>
<!-- Node2&#45;&gt;Node4 -->
<g id="edge3_Node000002_Node000004" class="edge">
<title>Node2&#45;&gt;Node4</title>
<g id="a_edge3_Node000002_Node000004"><a xlink:title=" ">
<path fill="none" stroke="#63b8ff" d="M301.65,-68.75C309.44,-68.75 317.41,-68.75 325.31,-68.75"/>
<polygon fill="#63b8ff" stroke="#63b8ff" points="325.28,-72.25 335.28,-68.75 325.28,-65.25 325.28,-72.25"/>
</a>
</g>
</g>
<!-- Node5 -->
<g id="Node000005" class="node">
<title>Node5</title>
<g id="a_Node000005"><a xlink:href="kest__expression_8c.html#a1a3a0bc9ed6726fb24e6a40803741b43" target="_top" xlink:title=" ">
<polygon fill="white" stroke="#666666" points="468,-33.5 346.25,-33.5 346.25,0 468,0 468,-33.5"/>
<text xml:space="preserve" text-anchor="start" x="354.25" y="-20" font-family="Helvetica,sans-Serif" font-size="10.00">kest_expression_infix</text>
<text xml:space="preserve" text-anchor="middle" x="407.12" y="-7.25" font-family="Helvetica,sans-Serif" font-size="10.00">_operator_string</text>
</a>
</g>
</g>
<!-- Node2&#45;&gt;Node5 -->
<g id="edge4_Node000002_Node000005" class="edge">
<title>Node2&#45;&gt;Node5</title>
<g id="a_edge4_Node000002_Node000005"><a xlink:title=" ">
<path fill="none" stroke="#63b8ff" d="M267.19,-57.98C287.44,-51.96 313.35,-44.28 337.29,-37.17"/>
<polygon fill="#63b8ff" stroke="#63b8ff" points="338.09,-40.59 346.68,-34.39 336.1,-33.88 338.09,-40.59"/>
</a>
</g>
</g>
</g>
</svg>
