<?xml version="1.0" encoding="UTF-8" standalone="no"?>
<!DOCTYPE svg PUBLIC "-//W3C//DTD SVG 1.1//EN"
 "http://www.w3.org/Graphics/SVG/1.1/DTD/svg11.dtd">
<!-- Generated by graphviz version 13.1.2 (20250808.2320)
 -->
<!-- Title: free_sequence Pages: 1 -->
<svg width="792pt" height="157pt"
 viewBox="0.00 0.00 792.00 157.00" xmlns="http://www.w3.org/2000/svg" xmlns:xlink="http://www.w3.org/1999/xlink">
<g id="graph0" class="graph" transform="scale(1 1) rotate(0) translate(4 153.12)">
<title>free_sequence</title>
<!-- Node1 -->
<g id="Node000001" class="node">
<title>Node1</title>
<g id="a_Node000001"><a xlink:title=" ">
<polygon fill="#999999" stroke="#666666" points="784.25,-97.75 697,-97.75 697,-77 784.25,-77 784.25,-97.75"/>
<text xml:space="preserve" text-anchor="middle" x="740.62" y="-84.25" font-family="Helvetica,sans-Serif" font-size="10.00">free_sequence</text>
</a>
</g>
</g>
<!-- Node2 -->
<g id="Node000002" class="node">
<title>Node2</title>
<g id="a_Node000002"><a xlink:href="kest__context_8c.html#a89a9a7d285986c386193190edd9a5e00" target="_top" xlink:title=" ">
<polygon fill="white" stroke="#666666" points="659.5,-138.75 534,-138.75 534,-118 659.5,-118 659.5,-138.75"/>
<text xml:space="preserve" text-anchor="middle" x="596.75" y="-125.25" font-family="Helvetica,sans-Serif" font-size="10.00">cxt_remove_sequence</text>
</a>
</g>
</g>
<!-- Node1&#45;&gt;Node2 -->
<g id="edge1_Node000001_Node000002" class="edge">
<title>Node1&#45;&gt;Node2</title>
<g id="a_edge1_Node000001_Node000002"><a xlink:title=" ">
<path fill="none" stroke="#63b8ff" d="M691.29,-101.34C672.98,-106.63 652.44,-112.57 635.27,-117.53"/>
<polygon fill="#63b8ff" stroke="#63b8ff" points="692.26,-104.71 700.89,-98.57 690.32,-97.98 692.26,-104.71"/>
</a>
</g>
</g>
<!-- Node15 -->
<g id="Node000015" class="node">
<title>Node15</title>
<g id="a_Node000015"><a xlink:href="kest__context_8c.html#ab67ff484aaa334c1425d4a580d645027" target="_top" xlink:title=" ">
<polygon fill="white" stroke="#666666" points="326.75,-100.75 158.5,-100.75 158.5,-80 326.75,-80 326.75,-100.75"/>
<text xml:space="preserve" text-anchor="middle" x="242.62" y="-87.25" font-family="Helvetica,sans-Serif" font-size="10.00">kest_context_add_sequence_rp</text>
</a>
</g>
</g>
<!-- Node1&#45;&gt;Node15 -->
<g id="edge5_Node000001_Node000015" class="edge">
<title>Node1&#45;&gt;Node15</title>
<g id="a_edge5_Node000001_Node000015"><a xlink:title=" ">
<path fill="none" stroke="#63b8ff" d="M685.52,-87.7C599,-88.23 428.87,-89.25 326.8,-89.87"/>
<polygon fill="#63b8ff" stroke="#63b8ff" points="685.41,-91.2 695.39,-87.64 685.37,-84.2 685.41,-91.2"/>
</a>
</g>
</g>
<!-- Node16 -->
<g id="Node000016" class="node">
<title>Node16</title>
<g id="a_Node000016"><a xlink:href="kest__files_8c.html#a2b0f0df900e064b3a42198050e150084" target="_top" xlink:title=" ">
<polygon fill="white" stroke="#666666" points="661,-59.75 532.5,-59.75 532.5,-39 661,-39 661,-59.75"/>
<text xml:space="preserve" text-anchor="middle" x="596.75" y="-46.25" font-family="Helvetica,sans-Serif" font-size="10.00">load_saved_sequences</text>
</a>
</g>
</g>
<!-- Node1&#45;&gt;Node16 -->
<g id="edge7_Node000001_Node000016" class="edge">
<title>Node1&#45;&gt;Node16</title>
<g id="a_edge7_Node000001_Node000016"><a xlink:title=" ">
<path fill="none" stroke="#63b8ff" d="M688.7,-73.74C672.08,-69.28 653.86,-64.4 638.13,-60.19"/>
<polygon fill="#63b8ff" stroke="#63b8ff" points="687.32,-76.99 697.89,-76.2 689.13,-70.23 687.32,-76.99"/>
</a>
</g>
</g>
<!-- Node3 -->
<g id="Node000003" class="node">
<title>Node3</title>
<g id="a_Node000003"><a xlink:href="kest__sequence__list_8c.html#a1982fe2baa22bbb76b3da523cfdda6da" target="_top" xlink:title=" ">
<polygon fill="white" stroke="#666666" points="496.5,-149.12 362.75,-149.12 362.75,-115.62 496.5,-115.62 496.5,-149.12"/>
<text xml:space="preserve" text-anchor="start" x="370.75" y="-135.62" font-family="Helvetica,sans-Serif" font-size="10.00">sequence_listing_delete</text>
<text xml:space="preserve" text-anchor="middle" x="429.62" y="-122.88" font-family="Helvetica,sans-Serif" font-size="10.00">_button_cb</text>
</a>
</g>
</g>
<!-- Node2&#45;&gt;Node3 -->
<g id="edge2_Node000002_Node000003" class="edge">
<title>Node2&#45;&gt;Node3</title>
<g id="a_edge2_Node000002_Node000003"><a xlink:title=" ">
<path fill="none" stroke="#63b8ff" d="M522.32,-130.15C513.82,-130.36 505.19,-130.57 496.8,-130.77"/>
<polygon fill="#63b8ff" stroke="#63b8ff" points="522.37,-133.65 532.28,-129.91 522.2,-126.66 522.37,-133.65"/>
</a>
</g>
</g>
<!-- Node4 -->
<g id="Node000004" class="node">
<title>Node4</title>
<g id="a_Node000004"><a xlink:href="kest__menu_8c.html#aa44b42640611d3ca75f6b55206ebd08e" target="_top" xlink:title=" ">
<polygon fill="#fff0f0" stroke="red" points="303.5,-140.75 181.75,-140.75 181.75,-120 303.5,-120 303.5,-140.75"/>
<text xml:space="preserve" text-anchor="middle" x="242.62" y="-127.25" font-family="Helvetica,sans-Serif" font-size="10.00">create_menu_item_ui</text>
</a>
</g>
</g>
<!-- Node3&#45;&gt;Node4 -->
<g id="edge3_Node000003_Node000004" class="edge">
<title>Node3&#45;&gt;Node4</title>
<g id="a_edge3_Node000003_Node000004"><a xlink:title=" ">
<path fill="none" stroke="#63b8ff" d="M351.02,-131.54C335.27,-131.37 318.93,-131.19 303.89,-131.03"/>
<polygon fill="#63b8ff" stroke="#63b8ff" points="350.81,-135.03 360.84,-131.64 350.88,-128.03 350.81,-135.03"/>
</a>
</g>
</g>
<!-- Node12 -->
<g id="Node000012" class="node">
<title>Node12</title>
<g id="a_Node000012"><a xlink:href="kest__sequence__list_8c.html#ac9d222d7405758d9f4edfeabe4c6200e" target="_top" xlink:title=" ">
<polygon fill="#fff0f0" stroke="red" points="122.5,-119.75 0,-119.75 0,-99 122.5,-99 122.5,-119.75"/>
<text xml:space="preserve" text-anchor="middle" x="61.25" y="-106.25" font-family="Helvetica,sans-Serif" font-size="10.00">sequence_list_add_cb</text>
</a>
</g>
</g>
<!-- Node4&#45;&gt;Node12 -->
<g id="edge4_Node000004_Node000012" class="edge">
<title>Node4&#45;&gt;Node12</title>
<g id="a_edge4_Node000004_Node000012"><a xlink:title=" ">
<path fill="none" stroke="#63b8ff" d="M170.17,-122.01C154.52,-120.18 138.11,-118.26 122.93,-116.48"/>
<polygon fill="#63b8ff" stroke="#63b8ff" points="169.55,-125.46 179.89,-123.15 170.37,-118.51 169.55,-125.46"/>
</a>
</g>
</g>
<!-- Node15&#45;&gt;Node12 -->
<g id="edge6_Node000015_Node000012" class="edge">
<title>Node15&#45;&gt;Node12</title>
<g id="a_edge6_Node000015_Node000012"><a xlink:title=" ">
<path fill="none" stroke="#63b8ff" d="M146.79,-100.42C138.7,-101.28 130.67,-102.13 122.95,-102.94"/>
<polygon fill="#63b8ff" stroke="#63b8ff" points="147.16,-103.9 156.73,-99.37 146.42,-96.94 147.16,-103.9"/>
</a>
</g>
</g>
<!-- Node9 -->
<g id="Node000009" class="node">
<title>Node9</title>
<g id="a_Node000009"><a xlink:href="kest__int_8c.html#abce06be17fc37d675118a678a8100a36" target="_top" xlink:title=" ">
<polygon fill="white" stroke="#666666" points="461.62,-59.75 397.62,-59.75 397.62,-39 461.62,-39 461.62,-59.75"/>
<text xml:space="preserve" text-anchor="middle" x="429.62" y="-46.25" font-family="Helvetica,sans-Serif" font-size="10.00">app_main</text>
</a>
</g>
</g>
<!-- Node16&#45;&gt;Node9 -->
<g id="edge8_Node000016_Node000009" class="edge">
<title>Node16&#45;&gt;Node9</title>
<g id="a_edge8_Node000016_Node000009"><a xlink:title=" ">
<path fill="none" stroke="#63b8ff" d="M520.9,-49.38C500.06,-49.38 478.56,-49.38 461.77,-49.38"/>
<polygon fill="#63b8ff" stroke="#63b8ff" points="520.87,-52.88 530.87,-49.38 520.87,-45.88 520.87,-52.88"/>
</a>
</g>
</g>
<!-- Node10 -->
<g id="Node000010" class="node">
<title>Node10</title>
<g id="a_Node000010"><a xlink:href="kest__desktop_8c.html#ab499a4f71ef4cfc807b60d8739750c3e" target="_top" xlink:title=" ">
<polygon fill="#fff0f0" stroke="red" points="463.12,-20.75 396.12,-20.75 396.12,0 463.12,0 463.12,-20.75"/>
<text xml:space="preserve" text-anchor="middle" x="429.62" y="-7.25" font-family="Helvetica,sans-Serif" font-size="10.00">main_task</text>
</a>
</g>
</g>
<!-- Node16&#45;&gt;Node10 -->
<g id="edge9_Node000016_Node000010" class="edge">
<title>Node16&#45;&gt;Node10</title>
<g id="a_edge9_Node000016_Node000010"><a xlink:title=" ">
<path fill="none" stroke="#63b8ff" d="M538.86,-35.94C513.73,-30 485.07,-23.23 463.56,-18.15"/>
<polygon fill="#63b8ff" stroke="#63b8ff" points="537.74,-39.27 548.28,-38.16 539.35,-32.46 537.74,-39.27"/>
</a>
</g>
</g>
</g>
</svg>
