<?xml version="1.0" encoding="UTF-8" standalone="no"?>
<!DOCTYPE svg PUBLIC "-//W3C//DTD SVG 1.1//EN"
 "http://www.w3.org/Graphics/SVG/1.1/DTD/svg11.dtd">
<!-- Generated by graphviz version 13.1.2 (20250808.2320)
 -->
<!-- Title: erase_folder Pages: 1 -->
<svg width="532pt" height="47pt"
 viewBox="0.00 0.00 532.00 47.00" xmlns="http://www.w3.org/2000/svg" xmlns:xlink="http://www.w3.org/1999/xlink">
<g id="graph0" class="graph" transform="scale(1 1) rotate(0) translate(4 42.75)">
<title>erase_folder</title>
<!-- Node1 -->
<g id="Node000001" class="node">
<title>Node1</title>
<g id="a_Node000001"><a xlink:title=" ">
<polygon fill="#999999" stroke="#666666" points="523.75,-20.75 447,-20.75 447,0 523.75,0 523.75,-20.75"/>
<text xml:space="preserve" text-anchor="middle" x="485.38" y="-7.25" font-family="Helvetica,sans-Serif" font-size="10.00">erase_folder</text>
</a>
</g>
</g>
<!-- Node1&#45;&gt;Node1 -->
<g id="edge1_Node000001_Node000001" class="edge">
<title>Node1&#45;&gt;Node1</title>
<g id="a_edge1_Node000001_Node000001"><a xlink:title=" ">
<path fill="none" stroke="#63b8ff" d="M505.76,-32.56C502.88,-36.23 496.08,-38.75 485.38,-38.75 465.22,-38.75 458.93,-29.81 466.48,-21.15"/>
<polygon fill="#63b8ff" stroke="#63b8ff" points="509.23,-32.11 504.46,-22.65 502.29,-33.02 509.23,-32.11"/>
</a>
</g>
</g>
<!-- Node2 -->
<g id="Node000002" class="node">
<title>Node2</title>
<g id="a_Node000002"><a xlink:href="kest__files_8c.html#ae0b903c442a7fc4a90097e958e31d485" target="_top" xlink:title=" ">
<polygon fill="white" stroke="#666666" points="411,-20.75 325.25,-20.75 325.25,0 411,0 411,-20.75"/>
<text xml:space="preserve" text-anchor="middle" x="368.12" y="-7.25" font-family="Helvetica,sans-Serif" font-size="10.00">erase_sd_card</text>
</a>
</g>
</g>
<!-- Node1&#45;&gt;Node2 -->
<g id="edge2_Node000001_Node000002" class="edge">
<title>Node1&#45;&gt;Node2</title>
<g id="a_edge2_Node000001_Node000002"><a xlink:title=" ">
<path fill="none" stroke="#63b8ff" d="M435.22,-10.38C427.27,-10.38 419.1,-10.38 411.33,-10.38"/>
<polygon fill="#63b8ff" stroke="#63b8ff" points="435.12,-13.88 445.12,-10.38 435.12,-6.88 435.12,-13.88"/>
</a>
</g>
</g>
<!-- Node3 -->
<g id="Node000003" class="node">
<title>Node3</title>
<g id="a_Node000003"><a xlink:href="kest__files_8c.html#a88e5ec05cd213e80c50f0279cdb3ca9c" target="_top" xlink:title=" ">
<polygon fill="white" stroke="#666666" points="289.25,-20.75 160.75,-20.75 160.75,0 289.25,0 289.25,-20.75"/>
<text xml:space="preserve" text-anchor="middle" x="225" y="-7.25" font-family="Helvetica,sans-Serif" font-size="10.00">erase_sd_card_void_cb</text>
</a>
</g>
</g>
<!-- Node2&#45;&gt;Node3 -->
<g id="edge3_Node000002_Node000003" class="edge">
<title>Node2&#45;&gt;Node3</title>
<g id="a_edge3_Node000002_Node000003"><a xlink:title=" ">
<path fill="none" stroke="#63b8ff" d="M313.33,-10.38C305.61,-10.38 297.6,-10.38 289.71,-10.38"/>
<polygon fill="#63b8ff" stroke="#63b8ff" points="313.27,-13.88 323.27,-10.38 313.27,-6.88 313.27,-13.88"/>
</a>
</g>
</g>
<!-- Node4 -->
<g id="Node000004" class="node">
<title>Node4</title>
<g id="a_Node000004"><a xlink:href="kest__menu_8c.html#a86c6c0acd2dfb8a62bd96bbfd739e687" target="_top" xlink:title=" ">
<polygon fill="#fff0f0" stroke="red" points="124.75,-20.75 0,-20.75 0,0 124.75,0 124.75,-20.75"/>
<text xml:space="preserve" text-anchor="middle" x="62.38" y="-7.25" font-family="Helvetica,sans-Serif" font-size="10.00">configure_main_menu</text>
</a>
</g>
</g>
<!-- Node3&#45;&gt;Node4 -->
<g id="edge4_Node000003_Node000004" class="edge">
<title>Node3&#45;&gt;Node4</title>
<g id="a_edge4_Node000003_Node000004"><a xlink:title=" ">
<path fill="none" stroke="#63b8ff" d="M149.19,-10.38C141.12,-10.38 132.98,-10.38 125.09,-10.38"/>
<polygon fill="#63b8ff" stroke="#63b8ff" points="149,-13.88 159,-10.38 149,-6.88 149,-13.88"/>
</a>
</g>
</g>
</g>
</svg>
