<?xml version="1.0" encoding="UTF-8" standalone="no"?>
<!DOCTYPE svg PUBLIC "-//W3C//DTD SVG 1.1//EN"
 "http://www.w3.org/Graphics/SVG/1.1/DTD/svg11.dtd">
<!-- Generated by graphviz version 13.1.2 (20250808.2320)
 -->
<!-- Title: create_sequence_view_for Pages: 1 -->
<svg width="635pt" height="161pt"
 viewBox="0.00 0.00 635.00 161.00" xmlns="http://www.w3.org/2000/svg" xmlns:xlink="http://www.w3.org/1999/xlink">
<g id="graph0" class="graph" transform="scale(1 1) rotate(0) translate(4 156.75)">
<title>create_sequence_view_for</title>
<!-- Node1 -->
<g id="Node000001" class="node">
<title>Node1</title>
<g id="a_Node000001"><a xlink:title=" ">
<polygon fill="#999999" stroke="#666666" points="627.25,-65.75 481.5,-65.75 481.5,-45 627.25,-45 627.25,-65.75"/>
<text xml:space="preserve" text-anchor="middle" x="554.38" y="-52.25" font-family="Helvetica,sans-Serif" font-size="10.00">create_sequence_view_for</text>
</a>
</g>
</g>
<!-- Node2 -->
<g id="Node000002" class="node">
<title>Node2</title>
<g id="a_Node000002"><a xlink:href="kest__files_8c.html#a2b0f0df900e064b3a42198050e150084" target="_top" xlink:title=" ">
<polygon fill="white" stroke="#666666" points="445.5,-113.75 317,-113.75 317,-93 445.5,-93 445.5,-113.75"/>
<text xml:space="preserve" text-anchor="middle" x="381.25" y="-100.25" font-family="Helvetica,sans-Serif" font-size="10.00">load_saved_sequences</text>
</a>
</g>
</g>
<!-- Node1&#45;&gt;Node2 -->
<g id="edge1_Node000001_Node000002" class="edge">
<title>Node1&#45;&gt;Node2</title>
<g id="a_edge1_Node000001_Node000002"><a xlink:title=" ">
<path fill="none" stroke="#63b8ff" d="M504.02,-69.22C477.55,-76.64 445.43,-85.65 420.82,-92.56"/>
<polygon fill="#63b8ff" stroke="#63b8ff" points="504.83,-72.63 513.51,-66.56 502.94,-65.89 504.83,-72.63"/>
</a>
</g>
</g>
<!-- Node6 -->
<g id="Node000006" class="node">
<title>Node6</title>
<g id="a_Node000006"><a xlink:href="kest__sequence__list_8c.html#a0788bbcb1aa9c85a904e084c2abd48ad" target="_top" xlink:title=" ">
<polygon fill="white" stroke="#666666" points="442.88,-72.12 319.62,-72.12 319.62,-38.62 442.88,-38.62 442.88,-72.12"/>
<text xml:space="preserve" text-anchor="start" x="327.62" y="-58.62" font-family="Helvetica,sans-Serif" font-size="10.00">menu_item_sequence</text>
<text xml:space="preserve" text-anchor="middle" x="381.25" y="-45.88" font-family="Helvetica,sans-Serif" font-size="10.00">_listing_released_cb</text>
</a>
</g>
</g>
<!-- Node1&#45;&gt;Node6 -->
<g id="edge5_Node000001_Node000006" class="edge">
<title>Node1&#45;&gt;Node6</title>
<g id="a_edge5_Node000001_Node000006"><a xlink:title=" ">
<path fill="none" stroke="#63b8ff" d="M469.91,-55.38C460.89,-55.38 451.83,-55.38 443.15,-55.38"/>
<polygon fill="#63b8ff" stroke="#63b8ff" points="469.79,-58.88 479.79,-55.38 469.78,-51.88 469.79,-58.88"/>
</a>
</g>
</g>
<!-- Node12 -->
<g id="Node000012" class="node">
<title>Node12</title>
<g id="a_Node000012"><a xlink:href="kest__sequence__list_8c.html#ac9d222d7405758d9f4edfeabe4c6200e" target="_top" xlink:title=" ">
<polygon fill="#fff0f0" stroke="red" points="122.88,-20.75 0.38,-20.75 0.38,0 122.88,0 122.88,-20.75"/>
<text xml:space="preserve" text-anchor="middle" x="61.62" y="-7.25" font-family="Helvetica,sans-Serif" font-size="10.00">sequence_list_add_cb</text>
</a>
</g>
</g>
<!-- Node1&#45;&gt;Node12 -->
<g id="edge10_Node000001_Node000012" class="edge">
<title>Node1&#45;&gt;Node12</title>
<g id="a_edge10_Node000001_Node000012"><a xlink:title=" ">
<path fill="none" stroke="#63b8ff" d="M505.16,-41.72C486.65,-37.01 465.24,-32.22 445.5,-29.38 332.53,-13.1 199.09,-10.11 123.31,-9.9"/>
<polygon fill="#63b8ff" stroke="#63b8ff" points="504.24,-45.09 514.8,-44.23 506.01,-38.32 504.24,-45.09"/>
</a>
</g>
</g>
<!-- Node3 -->
<g id="Node000003" class="node">
<title>Node3</title>
<g id="a_Node000003"><a xlink:href="kest__int_8c.html#abce06be17fc37d675118a678a8100a36" target="_top" xlink:title=" ">
<polygon fill="white" stroke="#666666" points="252.12,-152.75 188.12,-152.75 188.12,-132 252.12,-132 252.12,-152.75"/>
<text xml:space="preserve" text-anchor="middle" x="220.12" y="-139.25" font-family="Helvetica,sans-Serif" font-size="10.00">app_main</text>
</a>
</g>
</g>
<!-- Node2&#45;&gt;Node3 -->
<g id="edge2_Node000002_Node000003" class="edge">
<title>Node2&#45;&gt;Node3</title>
<g id="a_edge2_Node000002_Node000003"><a xlink:title=" ">
<path fill="none" stroke="#63b8ff" d="M325.06,-116.9C300.83,-122.84 273.26,-129.6 252.61,-134.66"/>
<polygon fill="#63b8ff" stroke="#63b8ff" points="325.58,-120.38 334.45,-114.6 323.91,-113.58 325.58,-120.38"/>
</a>
</g>
</g>
<!-- Node4 -->
<g id="Node000004" class="node">
<title>Node4</title>
<g id="a_Node000004"><a xlink:href="kest__desktop_8c.html#ab499a4f71ef4cfc807b60d8739750c3e" target="_top" xlink:title=" ">
<polygon fill="white" stroke="#666666" points="253.62,-113.75 186.62,-113.75 186.62,-93 253.62,-93 253.62,-113.75"/>
<text xml:space="preserve" text-anchor="middle" x="220.12" y="-100.25" font-family="Helvetica,sans-Serif" font-size="10.00">main_task</text>
</a>
</g>
</g>
<!-- Node2&#45;&gt;Node4 -->
<g id="edge3_Node000002_Node000004" class="edge">
<title>Node2&#45;&gt;Node4</title>
<g id="a_edge3_Node000002_Node000004"><a xlink:title=" ">
<path fill="none" stroke="#63b8ff" d="M305.45,-103.38C287.43,-103.38 269.07,-103.38 254.11,-103.38"/>
<polygon fill="#63b8ff" stroke="#63b8ff" points="305.39,-106.88 315.39,-103.38 305.39,-99.88 305.39,-106.88"/>
</a>
</g>
</g>
<!-- Node5 -->
<g id="Node000005" class="node">
<title>Node5</title>
<g id="a_Node000005"><a xlink:href="kest__desktop_8c.html#a3c04138a5bfe5d72780bb7e82a18e627" target="_top" xlink:title=" ">
<polygon fill="white" stroke="#666666" points="82,-116.75 41.25,-116.75 41.25,-96 82,-96 82,-116.75"/>
<text xml:space="preserve" text-anchor="middle" x="61.62" y="-103.25" font-family="Helvetica,sans-Serif" font-size="10.00">main</text>
</a>
</g>
</g>
<!-- Node4&#45;&gt;Node5 -->
<g id="edge4_Node000004_Node000005" class="edge">
<title>Node4&#45;&gt;Node5</title>
<g id="a_edge4_Node000004_Node000005"><a xlink:title=" ">
<path fill="none" stroke="#63b8ff" d="M175.07,-104.22C144.47,-104.81 105.18,-105.56 82.07,-106"/>
<polygon fill="#63b8ff" stroke="#63b8ff" points="174.87,-107.72 184.8,-104.03 174.74,-100.73 174.87,-107.72"/>
</a>
</g>
</g>
<!-- Node7 -->
<g id="Node000007" class="node">
<title>Node7</title>
<g id="a_Node000007"><a xlink:href="kest__menu_8c.html#aa44b42640611d3ca75f6b55206ebd08e" target="_top" xlink:title=" ">
<polygon fill="white" stroke="#666666" points="281,-59.75 159.25,-59.75 159.25,-39 281,-39 281,-59.75"/>
<text xml:space="preserve" text-anchor="middle" x="220.12" y="-46.25" font-family="Helvetica,sans-Serif" font-size="10.00">create_menu_item_ui</text>
</a>
</g>
</g>
<!-- Node6&#45;&gt;Node7 -->
<g id="edge6_Node000006_Node000007" class="edge">
<title>Node6&#45;&gt;Node7</title>
<g id="a_edge6_Node000006_Node000007"><a xlink:title=" ">
<path fill="none" stroke="#63b8ff" d="M307.96,-52.65C299.03,-52.31 289.97,-51.97 281.24,-51.64"/>
<polygon fill="#63b8ff" stroke="#63b8ff" points="307.55,-56.14 317.67,-53.02 307.81,-49.14 307.55,-56.14"/>
</a>
</g>
</g>
<!-- Node8 -->
<g id="Node000008" class="node">
<title>Node8</title>
<g id="a_Node000008"><a xlink:href="kest__menu_8c.html#a6775c89241a45f6fa04a6d8111139cb5" target="_top" xlink:title=" ">
<polygon fill="#fff0f0" stroke="red" points="123.25,-59.75 0,-59.75 0,-39 123.25,-39 123.25,-59.75"/>
<text xml:space="preserve" text-anchor="middle" x="61.62" y="-46.25" font-family="Helvetica,sans-Serif" font-size="10.00">create_menu_page_ui</text>
</a>
</g>
</g>
<!-- Node7&#45;&gt;Node8 -->
<g id="edge7_Node000007_Node000008" class="edge">
<title>Node7&#45;&gt;Node8</title>
<g id="a_edge7_Node000007_Node000008"><a xlink:title=" ">
<path fill="none" stroke="#63b8ff" d="M147.74,-49.38C139.67,-49.38 131.49,-49.38 123.56,-49.38"/>
<polygon fill="#63b8ff" stroke="#63b8ff" points="147.55,-52.88 157.55,-49.38 147.55,-45.88 147.55,-52.88"/>
</a>
</g>
</g>
<!-- Node7&#45;&gt;Node12 -->
<g id="edge9_Node000007_Node000012" class="edge">
<title>Node7&#45;&gt;Node12</title>
<g id="a_edge9_Node000007_Node000012"><a xlink:title=" ">
<path fill="none" stroke="#63b8ff" d="M164.57,-35.78C145.49,-31.03 124.33,-25.75 106.26,-21.25"/>
<polygon fill="#63b8ff" stroke="#63b8ff" points="163.51,-39.12 174.06,-38.15 165.21,-32.33 163.51,-39.12"/>
</a>
</g>
</g>
<!-- Node8&#45;&gt;Node8 -->
<g id="edge8_Node000008_Node000008" class="edge">
<title>Node8&#45;&gt;Node8</title>
<g id="a_edge8_Node000008_Node000008"><a xlink:title=" ">
<path fill="none" stroke="#63b8ff" d="M89.52,-71.24C85.82,-75.08 76.52,-77.75 61.62,-77.75 34.38,-77.75 25.87,-68.81 36.09,-60.15"/>
<polygon fill="#63b8ff" stroke="#63b8ff" points="92.98,-70.68 87.48,-61.63 86.13,-72.14 92.98,-70.68"/>
</a>
</g>
</g>
</g>
</svg>
