<?xml version="1.0" encoding="UTF-8" standalone="no"?>
<!DOCTYPE svg PUBLIC "-//W3C//DTD SVG 1.1//EN"
 "http://www.w3.org/Graphics/SVG/1.1/DTD/svg11.dtd">
<!-- Generated by graphviz version 13.1.2 (20250808.2320)
 -->
<!-- Title: kest_context_add_sequence_rp Pages: 1 -->
<svg width="583pt" height="107pt"
 viewBox="0.00 0.00 583.00 107.00" xmlns="http://www.w3.org/2000/svg" xmlns:xlink="http://www.w3.org/1999/xlink">
<g id="graph0" class="graph" transform="scale(1 1) rotate(0) translate(4 102.75)">
<title>kest_context_add_sequence_rp</title>
<!-- Node1 -->
<g id="Node000001" class="node">
<title>Node1</title>
<g id="a_Node000001"><a xlink:title=" ">
<polygon fill="#999999" stroke="#666666" points="168.25,-59.75 0,-59.75 0,-39 168.25,-39 168.25,-59.75"/>
<text xml:space="preserve" text-anchor="middle" x="84.12" y="-46.25" font-family="Helvetica,sans-Serif" font-size="10.00">kest_context_add_sequence_rp</text>
</a>
</g>
</g>
<!-- Node2 -->
<g id="Node000002" class="node">
<title>Node2</title>
<g id="a_Node000002"><a xlink:href="kest__sequence_8c.html#a6ff162921ceb28cfb5cb208e746ccea2" target="_top" xlink:title=" ">
<polygon fill="white" stroke="#666666" points="297.12,-98.75 209.88,-98.75 209.88,-78 297.12,-78 297.12,-98.75"/>
<text xml:space="preserve" text-anchor="middle" x="253.5" y="-85.25" font-family="Helvetica,sans-Serif" font-size="10.00">free_sequence</text>
</a>
</g>
</g>
<!-- Node1&#45;&gt;Node2 -->
<g id="edge1_Node000001_Node000002" class="edge">
<title>Node1&#45;&gt;Node2</title>
<g id="a_edge1_Node000001_Node000002"><a xlink:title=" ">
<path fill="none" stroke="#63b8ff" d="M131.75,-60.24C152.51,-65.08 177.08,-70.8 198.62,-75.82"/>
<polygon fill="#63b8ff" stroke="#63b8ff" points="197.56,-79.17 208.09,-78.03 199.15,-72.35 197.56,-79.17"/>
</a>
</g>
</g>
<!-- Node3 -->
<g id="Node000003" class="node">
<title>Node3</title>
<g id="a_Node000003"><a xlink:href="kest__sequence_8c.html#a3d05c5041e825df7868554ff22e0dd80" target="_top" xlink:title=" ">
<polygon fill="white" stroke="#666666" points="302.75,-59.75 204.25,-59.75 204.25,-39 302.75,-39 302.75,-59.75"/>
<text xml:space="preserve" text-anchor="middle" x="253.5" y="-46.25" font-family="Helvetica,sans-Serif" font-size="10.00">init_m_sequence</text>
</a>
</g>
</g>
<!-- Node1&#45;&gt;Node3 -->
<g id="edge2_Node000001_Node000003" class="edge">
<title>Node1&#45;&gt;Node3</title>
<g id="a_edge2_Node000001_Node000003"><a xlink:title=" ">
<path fill="none" stroke="#63b8ff" d="M168.32,-49.38C176.48,-49.38 184.64,-49.38 192.51,-49.38"/>
<polygon fill="#63b8ff" stroke="#63b8ff" points="192.25,-52.88 202.25,-49.38 192.25,-45.88 192.25,-52.88"/>
</a>
</g>
</g>
<!-- Node13 -->
<g id="Node000013" class="node">
<title>Node13</title>
<g id="a_Node000013"><a xlink:href="kest__alloc_8c.html#a849755c5dc5b35e712ffcdb602e50fb4" target="_top" xlink:title=" ">
<polygon fill="white" stroke="#666666" points="285.88,-20.75 221.12,-20.75 221.12,0 285.88,0 285.88,-20.75"/>
<text xml:space="preserve" text-anchor="middle" x="253.5" y="-7.25" font-family="Helvetica,sans-Serif" font-size="10.00">kest_alloc</text>
</a>
</g>
</g>
<!-- Node1&#45;&gt;Node13 -->
<g id="edge5_Node000001_Node000013" class="edge">
<title>Node1&#45;&gt;Node13</title>
<g id="a_edge5_Node000001_Node000013"><a xlink:title=" ">
<path fill="none" stroke="#63b8ff" d="M131.75,-38.51C156.1,-32.84 185.71,-25.94 209.51,-20.39"/>
<polygon fill="#63b8ff" stroke="#63b8ff" points="210.26,-23.81 219.2,-18.13 208.67,-16.99 210.26,-23.81"/>
</a>
</g>
</g>
<!-- Node4 -->
<g id="Node000004" class="node">
<title>Node4</title>
<g id="a_Node000004"><a xlink:href="kest__sequence_8c.html#aade8512fa274f7f5aba28d373fd2e6d9" target="_top" xlink:title=" ">
<polygon fill="white" stroke="#666666" points="447.75,-66.12 338.75,-66.12 338.75,-32.62 447.75,-32.62 447.75,-66.12"/>
<text xml:space="preserve" text-anchor="start" x="346.75" y="-52.62" font-family="Helvetica,sans-Serif" font-size="10.00">kest_sequence_file</text>
<text xml:space="preserve" text-anchor="middle" x="393.25" y="-39.88" font-family="Helvetica,sans-Serif" font-size="10.00">_rep_update</text>
</a>
</g>
</g>
<!-- Node3&#45;&gt;Node4 -->
<g id="edge3_Node000003_Node000004" class="edge">
<title>Node3&#45;&gt;Node4</title>
<g id="a_edge3_Node000003_Node000004"><a xlink:title=" ">
<path fill="none" stroke="#63b8ff" d="M303.07,-49.38C310.86,-49.38 319.03,-49.38 327.13,-49.38"/>
<polygon fill="#63b8ff" stroke="#63b8ff" points="326.98,-52.88 336.98,-49.38 326.98,-45.88 326.98,-52.88"/>
</a>
</g>
</g>
<!-- Node5 -->
<g id="Node000005" class="node">
<title>Node5</title>
<g id="a_Node000005"><a xlink:href="kest__files_8c.html#af53689e3600e69611b9c05f11971d23e" target="_top" xlink:title=" ">
<polygon fill="#fff0f0" stroke="red" points="574.75,-59.75 483.75,-59.75 483.75,-39 574.75,-39 574.75,-59.75"/>
<text xml:space="preserve" text-anchor="middle" x="529.25" y="-46.25" font-family="Helvetica,sans-Serif" font-size="10.00">save_sequence</text>
</a>
</g>
</g>
<!-- Node4&#45;&gt;Node5 -->
<g id="edge4_Node000004_Node000005" class="edge">
<title>Node4&#45;&gt;Node5</title>
<g id="a_edge4_Node000004_Node000005"><a xlink:title=" ">
<path fill="none" stroke="#63b8ff" d="M447.98,-49.38C455.91,-49.38 464.09,-49.38 472.06,-49.38"/>
<polygon fill="#63b8ff" stroke="#63b8ff" points="472.03,-52.88 482.03,-49.38 472.03,-45.88 472.03,-52.88"/>
</a>
</g>
</g>
</g>
</svg>
