<?xml version="1.0" encoding="UTF-8" standalone="no"?>
<!DOCTYPE svg PUBLIC "-//W3C//DTD SVG 1.1//EN"
 "http://www.w3.org/Graphics/SVG/1.1/DTD/svg11.dtd">
<!-- Generated by graphviz version 13.1.2 (20250808.2320)
 -->
<!-- Title: create_profile_listing_menu_item Pages: 1 -->
<svg width="356pt" height="105pt"
 viewBox="0.00 0.00 356.00 105.00" xmlns="http://www.w3.org/2000/svg" xmlns:xlink="http://www.w3.org/1999/xlink">
<g id="graph0" class="graph" transform="scale(1 1) rotate(0) translate(4 100.75)">
<title>create_profile_listing_menu_item</title>
<!-- Node1 -->
<g id="Node000001" class="node">
<title>Node1</title>
<g id="a_Node000001"><a xlink:title=" ">
<polygon fill="#999999" stroke="#666666" points="118.75,-65.12 0,-65.12 0,-31.62 118.75,-31.62 118.75,-65.12"/>
<text xml:space="preserve" text-anchor="start" x="8" y="-51.62" font-family="Helvetica,sans-Serif" font-size="10.00">create_profile_listing</text>
<text xml:space="preserve" text-anchor="middle" x="59.38" y="-38.88" font-family="Helvetica,sans-Serif" font-size="10.00">_menu_item</text>
</a>
</g>
</g>
<!-- Node2 -->
<g id="Node000002" class="node">
<title>Node2</title>
<g id="a_Node000002"><a xlink:href="kest__menu_8c.html#a1449503a7d3ba86031fa4c9f7b70649e" target="_top" xlink:title=" ">
<polygon fill="white" stroke="#666666" points="247.25,-96.75 154.75,-96.75 154.75,-76 247.25,-76 247.25,-96.75"/>
<text xml:space="preserve" text-anchor="middle" x="201" y="-83.25" font-family="Helvetica,sans-Serif" font-size="10.00">init_menu_item</text>
</a>
</g>
</g>
<!-- Node1&#45;&gt;Node2 -->
<g id="edge1_Node000001_Node000002" class="edge">
<title>Node1&#45;&gt;Node2</title>
<g id="a_edge1_Node000001_Node000002"><a xlink:title=" ">
<path fill="none" stroke="#63b8ff" d="M119.18,-64.38C129.26,-67.12 139.64,-69.95 149.47,-72.62"/>
<polygon fill="#63b8ff" stroke="#63b8ff" points="148.26,-75.92 158.83,-75.17 150.1,-69.17 148.26,-75.92"/>
</a>
</g>
</g>
<!-- Node3 -->
<g id="Node000003" class="node">
<title>Node3</title>
<g id="a_Node000003"><a xlink:href="kest__alloc_8c.html#a849755c5dc5b35e712ffcdb602e50fb4" target="_top" xlink:title=" ">
<polygon fill="white" stroke="#666666" points="348,-39.75 283.25,-39.75 283.25,-19 348,-19 348,-39.75"/>
<text xml:space="preserve" text-anchor="middle" x="315.62" y="-26.25" font-family="Helvetica,sans-Serif" font-size="10.00">kest_alloc</text>
</a>
</g>
</g>
<!-- Node1&#45;&gt;Node3 -->
<g id="edge2_Node000001_Node000003" class="edge">
<title>Node1&#45;&gt;Node3</title>
<g id="a_edge2_Node000001_Node000003"><a xlink:title=" ">
<path fill="none" stroke="#63b8ff" d="M119.02,-43.99C165.57,-40.51 229.58,-35.73 271.51,-32.6"/>
<polygon fill="#63b8ff" stroke="#63b8ff" points="271.76,-36.09 281.47,-31.85 271.24,-29.11 271.76,-36.09"/>
</a>
</g>
</g>
<!-- Node4 -->
<g id="Node000004" class="node">
<title>Node4</title>
<g id="a_Node000004"><a xlink:href="kest__alloc_8c.html#aed9ede1276c1ab3b4042c264ce64a3d2" target="_top" xlink:title=" ">
<polygon fill="white" stroke="#666666" points="240.12,-20.75 161.88,-20.75 161.88,0 240.12,0 240.12,-20.75"/>
<text xml:space="preserve" text-anchor="middle" x="201" y="-7.25" font-family="Helvetica,sans-Serif" font-size="10.00">kest_strndup</text>
</a>
</g>
</g>
<!-- Node1&#45;&gt;Node4 -->
<g id="edge3_Node000001_Node000004" class="edge">
<title>Node1&#45;&gt;Node4</title>
<g id="a_edge3_Node000001_Node000004"><a xlink:title=" ">
<path fill="none" stroke="#63b8ff" d="M119.18,-32.37C129.58,-29.54 140.31,-26.62 150.42,-23.87"/>
<polygon fill="#63b8ff" stroke="#63b8ff" points="151.33,-27.25 160.06,-21.24 149.49,-20.49 151.33,-27.25"/>
</a>
</g>
</g>
<!-- Node4&#45;&gt;Node3 -->
<g id="edge4_Node000004_Node000003" class="edge">
<title>Node4&#45;&gt;Node3</title>
<g id="a_edge4_Node000004_Node000003"><a xlink:title=" ">
<path fill="none" stroke="#63b8ff" d="M240.44,-16.86C250.54,-18.56 261.49,-20.41 271.79,-22.15"/>
<polygon fill="#63b8ff" stroke="#63b8ff" points="271.14,-25.59 281.59,-23.8 272.31,-18.69 271.14,-25.59"/>
</a>
</g>
</g>
</g>
</svg>
