<?xml version="1.0" encoding="UTF-8" standalone="no"?>
<!DOCTYPE svg PUBLIC "-//W3C//DTD SVG 1.1//EN"
 "http://www.w3.org/Graphics/SVG/1.1/DTD/svg11.dtd">
<!-- Generated by graphviz version 13.1.2 (20250808.2320)
 -->
<!-- Title: kest_fpga_transfer_batch_append_effect_register_updates Pages: 1 -->
<!--zoomable 195 -->

<svg id="main" version="1.1" xmlns="http://www.w3.org/2000/svg" xmlns:xlink="http://www.w3.org/1999/xlink" xml:space="preserve" onload="init(evt)">

<style type="text/css"><![CDATA[
.node, .edge {opacity: 0.7;}
.node.selected, .edge.selected {opacity: 1;}
.edge:hover path { stroke: red; }
.edge:hover polygon { stroke: red; fill: red; }
]]></style>

<defs>
  <circle id="rim" cx="0" cy="0" r="7"/>
  <circle id="rim2" cx="0" cy="0" r="3.5"/>
  <g id="zoomPlus">
    <use xlink:href="#rim" fill="#404040"><set attributeName="fill" to="#808080" begin="zoomplus.mouseover" end="zoomplus.mouseout"/></use>
    <path d="M-4,0h8M0,-4v8" fill="none" stroke="white" stroke-width="1.5" pointer-events="none"/>
  </g>
  <g id="zoomMin">
    <use xlink:href="#rim" fill="#404040"><set attributeName="fill" to="#808080" begin="zoomminus.mouseover" end="zoomminus.mouseout"/></use>
    <path d="M-4,0h8" fill="none" stroke="white" stroke-width="1.5" pointer-events="none"/>
  </g>
  <g id="arrowUp" transform="translate(30 24)">
    <use xlink:href="#rim"/>
    <path pointer-events="none" fill="none" stroke="white" stroke-width="1.5" d="M0,-3.0v7 M-2.5,-0.5L0,-3.0L2.5,-0.5"/>
  </g>
  <g id="arrowRight" transform="rotate(90) translate(36 -43)">
    <use xlink:href="#rim"/>
    <path pointer-events="none" fill="none" stroke="white" stroke-width="1.5" d="M0,-3.0v7 M-2.5,-0.5L0,-3.0L2.5,-0.5"/>
  </g>
  <g id="arrowDown" transform="rotate(180) translate(-30 -48)">
    <use xlink:href="#rim"/>
    <path pointer-events="none" fill="none" stroke="white" stroke-width="1.5" d="M0,-3.0v7 M-2.5,-0.5L0,-3.0L2.5,-0.5"/>
  </g>
  <g id="arrowLeft" transform="rotate(270) translate(-36 17)">
    <use xlink:href="#rim"/>
    <path pointer-events="none" fill="none" stroke="white" stroke-width="1.5" d="M0,-3.0v7 M-2.5,-0.5L0,-3.0L2.5,-0.5"/>
  </g>
  <g id="resetDef">
    <use xlink:href="#rim2" fill="#404040"><set attributeName="fill" to="#808080" begin="reset.mouseover" end="reset.mouseout"/></use>
  </g>
</defs>
<script type="application/ecmascript">
var viewWidth = 956;
var viewHeight = 195;
var sectionId = 'dynsection-32';
</script>
<script type="application/ecmascript" xlink:href="svg.min.js"/>
<svg id="graph" class="graph">
<g id="viewport">
<title>kest_fpga_transfer_batch_append_effect_register_updates</title>
<!-- Node1 -->
<g id="Node000001" class="node">
<title>Node1</title>
<g id="a_Node000001"><a xlink:title=" ">
<polygon fill="#999999" stroke="#666666" points="123.25,-122.88 0,-122.88 0,-76.62 123.25,-76.62 123.25,-122.88"/>
<text xml:space="preserve" text-anchor="start" x="8" y="-109.38" font-family="Helvetica,sans-Serif" font-size="10.00">kest_fpga_transfer</text>
<text xml:space="preserve" text-anchor="start" x="8" y="-96.62" font-family="Helvetica,sans-Serif" font-size="10.00">_batch_append_effect</text>
<text xml:space="preserve" text-anchor="middle" x="61.62" y="-83.88" font-family="Helvetica,sans-Serif" font-size="10.00">_register_updates</text>
</a>
</g>
</g>
<!-- Node2 -->
<g id="Node000002" class="node">
<title>Node2</title>
<g id="a_Node000002"><a xlink:href="kest__fpga__encoding_8c.html#a1eb834a3d6799cabab146f2f942de3a5" target="_top" xlink:title=" ">
<polygon fill="white" stroke="#666666" points="296,-116.5 159.25,-116.5 159.25,-83 296,-83 296,-116.5"/>
<text xml:space="preserve" text-anchor="start" x="167.25" y="-103" font-family="Helvetica,sans-Serif" font-size="10.00">kest_fpga_batch_append</text>
<text xml:space="preserve" text-anchor="middle" x="227.62" y="-90.25" font-family="Helvetica,sans-Serif" font-size="10.00">_block_register_updates</text>
</a>
</g>
</g>
<!-- Node1&#45;&gt;Node2 -->
<g id="edge1_Node000001_Node000002" class="edge">
<title>Node1&#45;&gt;Node2</title>
<g id="a_edge1_Node000001_Node000002"><a xlink:title=" ">
<path fill="none" stroke="#63b8ff" d="M123.69,-99.75C131.49,-99.75 139.56,-99.75 147.59,-99.75"/>
<polygon fill="#63b8ff" stroke="#63b8ff" points="147.38,-103.25 157.38,-99.75 147.38,-96.25 147.38,-103.25"/>
</a>
</g>
</g>
<!-- Node3 -->
<g id="Node000003" class="node">
<title>Node3</title>
<g id="a_Node000003"><a xlink:href="kest__fixed__point_8c.html#a1580bc2204b9b5083cfb04e1e883ea35" target="_top" xlink:title=" ">
<polygon fill="white" stroke="#666666" points="459.38,-187.12 347.38,-187.12 347.38,-166.38 459.38,-166.38 459.38,-187.12"/>
<text xml:space="preserve" text-anchor="middle" x="403.38" y="-173.62" font-family="Helvetica,sans-Serif" font-size="10.00">float_to_q_nminus1</text>
</a>
</g>
</g>
<!-- Node2&#45;&gt;Node3 -->
<g id="edge2_Node000002_Node000003" class="edge">
<title>Node2&#45;&gt;Node3</title>
<g id="a_edge2_Node000002_Node000003"><a xlink:title=" ">
<path fill="none" stroke="#63b8ff" d="M255.43,-116.74C275.82,-129.12 304.9,-145.6 332,-156.75 336.95,-158.79 342.18,-160.7 347.46,-162.46"/>
<polygon fill="#63b8ff" stroke="#63b8ff" points="346.27,-165.76 356.86,-165.43 348.38,-159.08 346.27,-165.76"/>
</a>
</g>
</g>
<!-- Node4 -->
<g id="Node000004" class="node">
<title>Node4</title>
<g id="a_Node000004"><a xlink:href="kest__expression_8c.html#acf37e49d77d8bcdaa88727bd67c146fa" target="_top" xlink:title=" ">
<polygon fill="white" stroke="#666666" points="474.75,-148.12 332,-148.12 332,-127.38 474.75,-127.38 474.75,-148.12"/>
<text xml:space="preserve" text-anchor="middle" x="403.38" y="-134.62" font-family="Helvetica,sans-Serif" font-size="10.00">kest_expression_evaluate</text>
</a>
</g>
</g>
<!-- Node2&#45;&gt;Node4 -->
<g id="edge3_Node000002_Node000004" class="edge">
<title>Node2&#45;&gt;Node4</title>
<g id="a_edge3_Node000002_Node000004"><a xlink:title=" ">
<path fill="none" stroke="#63b8ff" d="M296.3,-114.55C311.33,-117.84 327.17,-121.3 341.9,-124.52"/>
<polygon fill="#63b8ff" stroke="#63b8ff" points="340.91,-127.89 351.43,-126.61 342.41,-121.05 340.91,-127.89"/>
</a>
</g>
</g>
<!-- Node5 -->
<g id="Node000005" class="node">
<title>Node5</title>
<g id="a_Node000005"><a xlink:href="kest__fpga__io_8c.html#a6900c9b759f1dccf1b3535cc76ad83e3" target="_top" xlink:title=" ">
<polygon fill="white" stroke="#666666" points="837.5,-69.12 700.75,-69.12 700.75,-48.38 837.5,-48.38 837.5,-69.12"/>
<text xml:space="preserve" text-anchor="middle" x="769.12" y="-55.62" font-family="Helvetica,sans-Serif" font-size="10.00">kest_fpga_batch_append</text>
</a>
</g>
</g>
<!-- Node2&#45;&gt;Node5 -->
<g id="edge4_Node000002_Node000005" class="edge">
<title>Node2&#45;&gt;Node5</title>
<g id="a_edge4_Node000002_Node000005"><a xlink:title=" ">
<path fill="none" stroke="#63b8ff" d="M296.47,-99.08C382.44,-97.61 535.04,-92.88 664.75,-77.75 677.99,-76.21 692.09,-74 705.48,-71.63"/>
<polygon fill="#63b8ff" stroke="#63b8ff" points="705.83,-75.12 715.04,-69.88 704.58,-68.23 705.83,-75.12"/>
</a>
</g>
</g>
<!-- Node9 -->
<g id="Node000009" class="node">
<title>Node9</title>
<g id="a_Node000009"><a xlink:href="kest__fpga__io_8c.html#a1d6d30e20ceac79973b36fd12e790aa5" target="_top" xlink:title=" ">
<polygon fill="white" stroke="#666666" points="664.75,-69.12 510.75,-69.12 510.75,-48.38 664.75,-48.38 664.75,-69.12"/>
<text xml:space="preserve" text-anchor="middle" x="587.75" y="-55.62" font-family="Helvetica,sans-Serif" font-size="10.00">kest_fpga_batch_append_16</text>
</a>
</g>
</g>
<!-- Node2&#45;&gt;Node9 -->
<g id="edge6_Node000002_Node000009" class="edge">
<title>Node2&#45;&gt;Node9</title>
<g id="a_edge6_Node000002_Node000009"><a xlink:title=" ">
<path fill="none" stroke="#63b8ff" d="M296.43,-90.28C308.28,-88.71 320.49,-87.14 332,-85.75 387.51,-79.05 449.93,-72.42 499.09,-67.41"/>
<polygon fill="#63b8ff" stroke="#63b8ff" points="499.22,-70.91 508.82,-66.42 498.52,-63.95 499.22,-70.91"/>
</a>
</g>
</g>
<!-- Node10 -->
<g id="Node000010" class="node">
<title>Node10</title>
<g id="a_Node000010"><a xlink:href="kest__fpga__encoding_8c.html#a9b93bb2d500d5c9986515930a0f9ce47" target="_top" xlink:title=" ">
<polygon fill="white" stroke="#666666" points="471.75,-33.5 335,-33.5 335,0 471.75,0 471.75,-33.5"/>
<text xml:space="preserve" text-anchor="start" x="343" y="-20" font-family="Helvetica,sans-Serif" font-size="10.00">kest_fpga_batch_append</text>
<text xml:space="preserve" text-anchor="middle" x="403.38" y="-7.25" font-family="Helvetica,sans-Serif" font-size="10.00">_block_number</text>
</a>
</g>
</g>
<!-- Node2&#45;&gt;Node10 -->
<g id="edge8_Node000002_Node000010" class="edge">
<title>Node2&#45;&gt;Node10</title>
<g id="a_edge8_Node000002_Node000010"><a xlink:title=" ">
<path fill="none" stroke="#63b8ff" d="M261.47,-82.69C281.68,-72.32 308.19,-58.97 332,-47.75 338.42,-44.72 345.21,-41.62 351.93,-38.6"/>
<polygon fill="#63b8ff" stroke="#63b8ff" points="353.3,-41.82 361.01,-34.55 350.45,-35.43 353.3,-41.82"/>
</a>
</g>
</g>
<!-- Node6 -->
<g id="Node000006" class="node">
<title>Node6</title>
<g id="a_Node000006"><a xlink:href="kest__alloc_8c.html#ac3afebacd5118241e9f677df59a469b0" target="_top" xlink:title=" ">
<polygon fill="#fff0f0" stroke="red" points="948,-69.12 873.5,-69.12 873.5,-48.38 948,-48.38 948,-69.12"/>
<text xml:space="preserve" text-anchor="middle" x="910.75" y="-55.62" font-family="Helvetica,sans-Serif" font-size="10.00">kest_realloc</text>
</a>
</g>
</g>
<!-- Node5&#45;&gt;Node6 -->
<g id="edge5_Node000005_Node000006" class="edge">
<title>Node5&#45;&gt;Node6</title>
<g id="a_edge5_Node000005_Node000006"><a xlink:title=" ">
<path fill="none" stroke="#63b8ff" d="M837.89,-58.75C846.01,-58.75 854.17,-58.75 861.93,-58.75"/>
<polygon fill="#63b8ff" stroke="#63b8ff" points="861.81,-62.25 871.81,-58.75 861.81,-55.25 861.81,-62.25"/>
</a>
</g>
</g>
<!-- Node9&#45;&gt;Node5 -->
<g id="edge7_Node000009_Node000005" class="edge">
<title>Node9&#45;&gt;Node5</title>
<g id="a_edge7_Node000009_Node000005"><a xlink:title=" ">
<path fill="none" stroke="#63b8ff" d="M665.08,-58.75C672.96,-58.75 680.98,-58.75 688.89,-58.75"/>
<polygon fill="#63b8ff" stroke="#63b8ff" points="688.86,-62.25 698.86,-58.75 688.86,-55.25 688.86,-62.25"/>
</a>
</g>
</g>
<!-- Node10&#45;&gt;Node5 -->
<g id="edge9_Node000010_Node000005" class="edge">
<title>Node10&#45;&gt;Node5</title>
<g id="a_edge9_Node000010_Node000005"><a xlink:title=" ">
<path fill="none" stroke="#63b8ff" d="M472,-20.98C524.67,-24.69 599.55,-30.9 664.75,-39.75 677.27,-41.45 690.57,-43.62 703.33,-45.88"/>
<polygon fill="#63b8ff" stroke="#63b8ff" points="702.4,-49.27 712.87,-47.61 703.65,-42.38 702.4,-49.27"/>
</a>
</g>
</g>
<!-- Node10&#45;&gt;Node9 -->
<g id="edge10_Node000010_Node000009" class="edge">
<title>Node10&#45;&gt;Node9</title>
<g id="a_edge10_Node000010_Node000009"><a xlink:title=" ">
<path fill="none" stroke="#63b8ff" d="M472.03,-32.33C490.57,-36.6 510.52,-41.19 528.49,-45.33"/>
<polygon fill="#63b8ff" stroke="#63b8ff" points="527.68,-48.74 538.21,-47.57 529.25,-41.92 527.68,-48.74"/>
</a>
</g>
</g>
</g>
</svg>

<g id="navigator" transform="translate(0 0)" fill="#404254">
  <rect fill="#f2f5e9" fill-opacity="0.5" stroke="#606060" stroke-width=".5" x="0" y="0" width="60" height="60"/>
  <use id="zoomplus" xlink:href="#zoomPlus" x="17" y="9" onmousedown="handleZoom(evt,'in')"/>
  <use id="zoomminus" xlink:href="#zoomMin" x="42" y="9" onmousedown="handleZoom(evt,'out')"/>
  <use id="reset" xlink:href="#resetDef" x="30" y="36" onmousedown="handleReset()"/>
   <use id="arrowup" xlink:href="#arrowUp" x="0" y="0" onmousedown="handlePan(0,-1)"/>
  <use id="arrowright" xlink:href="#arrowRight" x="0" y="0" onmousedown="handlePan(1,0)"/>
  <use id="arrowdown" xlink:href="#arrowDown" x="0" y="0" onmousedown="handlePan(0,1)"/>
  <use id="arrowleft" xlink:href="#arrowLeft" x="0" y="0" onmousedown="handlePan(-1,0)"/>
</g>
<svg viewBox="0 0 15 15" width="100%" height="30px" preserveAspectRatio="xMaxYMin meet">
 <g id="arrow_out" transform="scale(0.3 0.3)">
  <a xlink:href="kest__fpga__encoding_8c_a2f3bae873de3ea2dafd0d6d1424e929f_cgraph_org.svg" target="_base">
   <rect id="button" ry="5" rx="5" y="6" x="6" height="38" width="38"
        fill="#f2f5e9" fill-opacity="0.5" stroke="#606060" stroke-width="1.0"/>
   <path id="arrow"
     d="M 11.500037,31.436501 C 11.940474,20.09759 22.043105,11.32322 32.158766,21.979434 L 37.068811,17.246167 C 37.068811,17.246167 37.088388,32 37.088388,32 L 22.160133,31.978069 C 22.160133,31.978069 26.997745,27.140456 26.997745,27.140456 C 18.528582,18.264221 13.291696,25.230495 11.500037,31.436501 z"
     style="fill:#404040;"/>
  </a>
 </g>
</svg>

<style type='text/css'>
<![CDATA[
[data-mouse-over-selected='false'] { opacity: 0.7; }
[data-mouse-over-selected='true']  { opacity: 1.0; }
]]>
</style>
<script type="application/ecmascript"><![CDATA[
document.addEventListener('DOMContentLoaded', (event) => {
  highlightEdges();
  highlightAdjacentNodes();
});
]]></script>
</svg>
