<?xml version="1.0" encoding="UTF-8" standalone="no"?>
<!DOCTYPE svg PUBLIC "-//W3C//DTD SVG 1.1//EN"
 "http://www.w3.org/Graphics/SVG/1.1/DTD/svg11.dtd">
<!-- Generated by graphviz version 13.1.2 (20250808.2320)
 -->
<!-- Title: parameter_widget_create_ui_no_callback Pages: 1 -->
<svg width="622pt" height="94pt"
 viewBox="0.00 0.00 622.00 94.00" xmlns="http://www.w3.org/2000/svg" xmlns:xlink="http://www.w3.org/1999/xlink">
<g id="graph0" class="graph" transform="scale(1 1) rotate(0) translate(4 89.5)">
<title>parameter_widget_create_ui_no_callback</title>
<!-- Node1 -->
<g id="Node000001" class="node">
<title>Node1</title>
<g id="a_Node000001"><a xlink:title=" ">
<polygon fill="#999999" stroke="#666666" points="141.25,-59.5 0,-59.5 0,-26 141.25,-26 141.25,-59.5"/>
<text xml:space="preserve" text-anchor="start" x="8" y="-46" font-family="Helvetica,sans-Serif" font-size="10.00">parameter_widget_create</text>
<text xml:space="preserve" text-anchor="middle" x="70.62" y="-33.25" font-family="Helvetica,sans-Serif" font-size="10.00">_ui_no_callback</text>
</a>
</g>
</g>
<!-- Node2 -->
<g id="Node000002" class="node">
<title>Node2</title>
<g id="a_Node000002"><a xlink:href="kest__parameter__widget_8c.html#abad910124e9bf706a008ab86f8bf70e6" target="_top" xlink:title=" ">
<polygon fill="white" stroke="#666666" points="321.5,-85.5 177.25,-85.5 177.25,-52 321.5,-52 321.5,-85.5"/>
<text xml:space="preserve" text-anchor="start" x="185.25" y="-72" font-family="Helvetica,sans-Serif" font-size="10.00">parameter_widget_update</text>
<text xml:space="preserve" text-anchor="middle" x="249.38" y="-59.25" font-family="Helvetica,sans-Serif" font-size="10.00">_value</text>
</a>
</g>
</g>
<!-- Node1&#45;&gt;Node2 -->
<g id="edge1_Node000001_Node000002" class="edge">
<title>Node1&#45;&gt;Node2</title>
<g id="a_edge1_Node000001_Node000002"><a xlink:title=" ">
<path fill="none" stroke="#63b8ff" d="M141.74,-53.06C149.6,-54.22 157.66,-55.41 165.66,-56.58"/>
<polygon fill="#63b8ff" stroke="#63b8ff" points="165,-60.02 175.4,-58.02 166.02,-53.1 165,-60.02"/>
</a>
</g>
</g>
<!-- Node3 -->
<g id="Node000003" class="node">
<title>Node3</title>
<g id="a_Node000003"><a xlink:href="kest__parameter__widget_8c.html#af345b51066bd1985326c50809d992fab" target="_top" xlink:title=" ">
<polygon fill="white" stroke="#666666" points="321.5,-33.5 177.25,-33.5 177.25,0 321.5,0 321.5,-33.5"/>
<text xml:space="preserve" text-anchor="start" x="185.25" y="-20" font-family="Helvetica,sans-Serif" font-size="10.00">parameter_widget_update</text>
<text xml:space="preserve" text-anchor="middle" x="249.38" y="-7.25" font-family="Helvetica,sans-Serif" font-size="10.00">_value_label</text>
</a>
</g>
</g>
<!-- Node1&#45;&gt;Node3 -->
<g id="edge2_Node000001_Node000003" class="edge">
<title>Node1&#45;&gt;Node3</title>
<g id="a_edge2_Node000001_Node000003"><a xlink:title=" ">
<path fill="none" stroke="#63b8ff" d="M141.74,-32.44C149.6,-31.28 157.66,-30.09 165.66,-28.92"/>
<polygon fill="#63b8ff" stroke="#63b8ff" points="166.02,-32.4 175.4,-27.48 165,-25.48 166.02,-32.4"/>
</a>
</g>
</g>
<!-- Node4 -->
<g id="Node000004" class="node">
<title>Node4</title>
<g id="a_Node000004"><a xlink:href="kest__parameter__widget_8c.html#a9a7e5431ab9599259aa5e2cfa47e6308" target="_top" xlink:title=" ">
<polygon fill="white" stroke="#666666" points="501,-33.5 357.5,-33.5 357.5,0 501,0 501,-33.5"/>
<text xml:space="preserve" text-anchor="start" x="365.5" y="-20" font-family="Helvetica,sans-Serif" font-size="10.00">format_parameter_widget</text>
<text xml:space="preserve" text-anchor="middle" x="429.25" y="-7.25" font-family="Helvetica,sans-Serif" font-size="10.00">_value_label</text>
</a>
</g>
</g>
<!-- Node3&#45;&gt;Node4 -->
<g id="edge3_Node000003_Node000004" class="edge">
<title>Node3&#45;&gt;Node4</title>
<g id="a_edge3_Node000003_Node000004"><a xlink:title=" ">
<path fill="none" stroke="#63b8ff" d="M321.95,-16.75C329.74,-16.75 337.71,-16.75 345.61,-16.75"/>
<polygon fill="#63b8ff" stroke="#63b8ff" points="345.59,-20.25 355.59,-16.75 345.59,-13.25 345.59,-20.25"/>
</a>
</g>
</g>
<!-- Node5 -->
<g id="Node000005" class="node">
<title>Node5</title>
<g id="a_Node000005"><a xlink:href="kest__hfunc_8c.html#a840904866becc1161859f30852e94595" target="_top" xlink:title=" ">
<polygon fill="white" stroke="#666666" points="613.75,-27.12 537,-27.12 537,-6.38 613.75,-6.38 613.75,-27.12"/>
<text xml:space="preserve" text-anchor="middle" x="575.38" y="-13.62" font-family="Helvetica,sans-Serif" font-size="10.00">format_float</text>
</a>
</g>
</g>
<!-- Node4&#45;&gt;Node5 -->
<g id="edge4_Node000004_Node000005" class="edge">
<title>Node4&#45;&gt;Node5</title>
<g id="a_edge4_Node000004_Node000005"><a xlink:title=" ">
<path fill="none" stroke="#63b8ff" d="M501.47,-16.75C509.57,-16.75 517.68,-16.75 525.4,-16.75"/>
<polygon fill="#63b8ff" stroke="#63b8ff" points="525.25,-20.25 535.25,-16.75 525.25,-13.25 525.25,-20.25"/>
</a>
</g>
</g>
</g>
</svg>
