<?xml version="1.0" encoding="UTF-8" standalone="no"?>
<!DOCTYPE svg PUBLIC "-//W3C//DTD SVG 1.1//EN"
 "http://www.w3.org/Graphics/SVG/1.1/DTD/svg11.dtd">
<!-- Generated by graphviz version 13.1.2 (20250808.2320)
 -->
<!-- Title: file_validity_check Pages: 1 -->
<svg width="558pt" height="68pt"
 viewBox="0.00 0.00 558.00 68.00" xmlns="http://www.w3.org/2000/svg" xmlns:xlink="http://www.w3.org/1999/xlink">
<g id="graph0" class="graph" transform="scale(1 1) rotate(0) translate(4 63.75)">
<title>file_validity_check</title>
<!-- Node1 -->
<g id="Node000001" class="node">
<title>Node1</title>
<g id="a_Node000001"><a xlink:title=" ">
<polygon fill="#999999" stroke="#666666" points="550,-39.75 442.5,-39.75 442.5,-19 550,-19 550,-39.75"/>
<text xml:space="preserve" text-anchor="middle" x="496.25" y="-26.25" font-family="Helvetica,sans-Serif" font-size="10.00">file_validity_check</text>
</a>
</g>
</g>
<!-- Node2 -->
<g id="Node000002" class="node">
<title>Node2</title>
<g id="a_Node000002"><a xlink:href="kest__files_8c.html#adecfc697f2f60941218706b2cd77f00c" target="_top" xlink:title=" ">
<polygon fill="white" stroke="#666666" points="406.5,-39.75 267.5,-39.75 267.5,-19 406.5,-19 406.5,-39.75"/>
<text xml:space="preserve" text-anchor="middle" x="337" y="-26.25" font-family="Helvetica,sans-Serif" font-size="10.00">read_sequence_from_file</text>
</a>
</g>
</g>
<!-- Node1&#45;&gt;Node2 -->
<g id="edge1_Node000001_Node000002" class="edge">
<title>Node1&#45;&gt;Node2</title>
<g id="a_edge1_Node000001_Node000002"><a xlink:title=" ">
<path fill="none" stroke="#63b8ff" d="M430.66,-29.38C422.79,-29.38 414.72,-29.38 406.79,-29.38"/>
<polygon fill="#63b8ff" stroke="#63b8ff" points="430.5,-32.88 440.5,-29.38 430.5,-25.88 430.5,-32.88"/>
</a>
</g>
</g>
<!-- Node3 -->
<g id="Node000003" class="node">
<title>Node3</title>
<g id="a_Node000003"><a xlink:href="kest__files_8c.html#a2b0f0df900e064b3a42198050e150084" target="_top" xlink:title=" ">
<polygon fill="white" stroke="#666666" points="231.5,-39.75 103,-39.75 103,-19 231.5,-19 231.5,-39.75"/>
<text xml:space="preserve" text-anchor="middle" x="167.25" y="-26.25" font-family="Helvetica,sans-Serif" font-size="10.00">load_saved_sequences</text>
</a>
</g>
</g>
<!-- Node2&#45;&gt;Node3 -->
<g id="edge2_Node000002_Node000003" class="edge">
<title>Node2&#45;&gt;Node3</title>
<g id="a_edge2_Node000002_Node000003"><a xlink:title=" ">
<path fill="none" stroke="#63b8ff" d="M255.98,-29.38C247.93,-29.38 239.84,-29.38 232,-29.38"/>
<polygon fill="#63b8ff" stroke="#63b8ff" points="255.77,-32.88 265.77,-29.38 255.77,-25.88 255.77,-32.88"/>
</a>
</g>
</g>
<!-- Node4 -->
<g id="Node000004" class="node">
<title>Node4</title>
<g id="a_Node000004"><a xlink:href="kest__int_8c.html#abce06be17fc37d675118a678a8100a36" target="_top" xlink:title=" ">
<polygon fill="white" stroke="#666666" points="65.5,-59.75 1.5,-59.75 1.5,-39 65.5,-39 65.5,-59.75"/>
<text xml:space="preserve" text-anchor="middle" x="33.5" y="-46.25" font-family="Helvetica,sans-Serif" font-size="10.00">app_main</text>
</a>
</g>
</g>
<!-- Node3&#45;&gt;Node4 -->
<g id="edge3_Node000003_Node000004" class="edge">
<title>Node3&#45;&gt;Node4</title>
<g id="a_edge3_Node000003_Node000004"><a xlink:title=" ">
<path fill="none" stroke="#63b8ff" d="M91.34,-40.75C82.44,-42.1 73.75,-43.42 65.97,-44.6"/>
<polygon fill="#63b8ff" stroke="#63b8ff" points="91.83,-44.21 101.19,-39.25 90.78,-37.29 91.83,-44.21"/>
</a>
</g>
</g>
<!-- Node5 -->
<g id="Node000005" class="node">
<title>Node5</title>
<g id="a_Node000005"><a xlink:href="kest__desktop_8c.html#ab499a4f71ef4cfc807b60d8739750c3e" target="_top" xlink:title=" ">
<polygon fill="#fff0f0" stroke="red" points="67,-20.75 0,-20.75 0,0 67,0 67,-20.75"/>
<text xml:space="preserve" text-anchor="middle" x="33.5" y="-7.25" font-family="Helvetica,sans-Serif" font-size="10.00">main_task</text>
</a>
</g>
</g>
<!-- Node3&#45;&gt;Node5 -->
<g id="edge4_Node000003_Node000005" class="edge">
<title>Node3&#45;&gt;Node5</title>
<g id="a_edge4_Node000003_Node000005"><a xlink:title=" ">
<path fill="none" stroke="#63b8ff" d="M91.52,-18.6C83.08,-17.38 74.83,-16.19 67.35,-15.11"/>
<polygon fill="#63b8ff" stroke="#63b8ff" points="90.8,-22.03 101.19,-19.99 91.79,-15.1 90.8,-22.03"/>
</a>
</g>
</g>
</g>
</svg>
