<?xml version="1.0" encoding="UTF-8" standalone="no"?>
<!DOCTYPE svg PUBLIC "-//W3C//DTD SVG 1.1//EN"
 "http://www.w3.org/Graphics/SVG/1.1/DTD/svg11.dtd">
<!-- Generated by graphviz version 13.1.2 (20250808.2320)
 -->
<!-- Title: kest_profile_save Pages: 1 -->
<svg width="557pt" height="29pt"
 viewBox="0.00 0.00 557.00 29.00" xmlns="http://www.w3.org/2000/svg" xmlns:xlink="http://www.w3.org/1999/xlink">
<g id="graph0" class="graph" transform="scale(1 1) rotate(0) translate(4 24.75)">
<title>kest_profile_save</title>
<!-- Node1 -->
<g id="Node000001" class="node">
<title>Node1</title>
<g id="a_Node000001"><a xlink:title=" ">
<polygon fill="#999999" stroke="#666666" points="548.5,-20.75 447,-20.75 447,0 548.5,0 548.5,-20.75"/>
<text xml:space="preserve" text-anchor="middle" x="497.75" y="-7.25" font-family="Helvetica,sans-Serif" font-size="10.00">kest_profile_save</text>
</a>
</g>
</g>
<!-- Node2 -->
<g id="Node000002" class="node">
<title>Node2</title>
<g id="a_Node000002"><a xlink:href="kest__context_8c.html#a289cc99b6fb44e0004339528497070f1" target="_top" xlink:title=" ">
<polygon fill="white" stroke="#666666" points="411,-20.75 292.25,-20.75 292.25,0 411,0 411,-20.75"/>
<text xml:space="preserve" text-anchor="middle" x="351.62" y="-7.25" font-family="Helvetica,sans-Serif" font-size="10.00">cxt_save_all_profiles</text>
</a>
</g>
</g>
<!-- Node1&#45;&gt;Node2 -->
<g id="edge1_Node000001_Node000002" class="edge">
<title>Node1&#45;&gt;Node2</title>
<g id="a_edge1_Node000001_Node000002"><a xlink:title=" ">
<path fill="none" stroke="#63b8ff" d="M435.33,-10.38C427.41,-10.38 419.33,-10.38 411.46,-10.38"/>
<polygon fill="#63b8ff" stroke="#63b8ff" points="435.23,-13.88 445.23,-10.38 435.23,-6.88 435.23,-13.88"/>
</a>
</g>
</g>
<!-- Node3 -->
<g id="Node000003" class="node">
<title>Node3</title>
<g id="a_Node000003"><a xlink:href="kest__sequence__view_8c.html#a48d14522bbc105d8b61111d5dc6a7c8f" target="_top" xlink:title=" ">
<polygon fill="white" stroke="#666666" points="256.25,-20.75 178,-20.75 178,0 256.25,0 256.25,-20.75"/>
<text xml:space="preserve" text-anchor="middle" x="217.12" y="-7.25" font-family="Helvetica,sans-Serif" font-size="10.00">seq_save_cb</text>
</a>
</g>
</g>
<!-- Node2&#45;&gt;Node3 -->
<g id="edge2_Node000002_Node000003" class="edge">
<title>Node2&#45;&gt;Node3</title>
<g id="a_edge2_Node000002_Node000003"><a xlink:title=" ">
<path fill="none" stroke="#63b8ff" d="M280.76,-10.38C272.43,-10.38 264.17,-10.38 256.52,-10.38"/>
<polygon fill="#63b8ff" stroke="#63b8ff" points="280.61,-13.88 290.61,-10.38 280.61,-6.88 280.61,-13.88"/>
</a>
</g>
</g>
<!-- Node4 -->
<g id="Node000004" class="node">
<title>Node4</title>
<g id="a_Node000004"><a xlink:href="kest__sequence__view_8c.html#ac871b24a7c875a7b6e707a3d2691a2a9" target="_top" xlink:title=" ">
<polygon fill="#fff0f0" stroke="red" points="142,-20.75 0,-20.75 0,0 142,0 142,-20.75"/>
<text xml:space="preserve" text-anchor="middle" x="71" y="-7.25" font-family="Helvetica,sans-Serif" font-size="10.00">configure_sequence_view</text>
</a>
</g>
</g>
<!-- Node3&#45;&gt;Node4 -->
<g id="edge3_Node000003_Node000004" class="edge">
<title>Node3&#45;&gt;Node4</title>
<g id="a_edge3_Node000003_Node000004"><a xlink:title=" ">
<path fill="none" stroke="#63b8ff" d="M166.19,-10.38C158.51,-10.38 150.47,-10.38 142.45,-10.38"/>
<polygon fill="#63b8ff" stroke="#63b8ff" points="165.99,-13.88 175.99,-10.38 165.99,-6.88 165.99,-13.88"/>
</a>
</g>
</g>
</g>
</svg>
