<?xml version="1.0" encoding="UTF-8" standalone="no"?>
<!DOCTYPE svg PUBLIC "-//W3C//DTD SVG 1.1//EN"
 "http://www.w3.org/Graphics/SVG/1.1/DTD/svg11.dtd">
<!-- Generated by graphviz version 13.1.2 (20250808.2320)
 -->
<!-- Title: kest_context_add_profile_rp Pages: 1 -->
<!--zoomable 196 -->

<svg id="main" version="1.1" xmlns="http://www.w3.org/2000/svg" xmlns:xlink="http://www.w3.org/1999/xlink" xml:space="preserve" onload="init(evt)">

<style type="text/css"><![CDATA[
.node, .edge {opacity: 0.7;}
.node.selected, .edge.selected {opacity: 1;}
.edge:hover path { stroke: red; }
.edge:hover polygon { stroke: red; fill: red; }
]]></style>

<defs>
  <circle id="rim" cx="0" cy="0" r="7"/>
  <circle id="rim2" cx="0" cy="0" r="3.5"/>
  <g id="zoomPlus">
    <use xlink:href="#rim" fill="#404040"><set attributeName="fill" to="#808080" begin="zoomplus.mouseover" end="zoomplus.mouseout"/></use>
    <path d="M-4,0h8M0,-4v8" fill="none" stroke="white" stroke-width="1.5" pointer-events="none"/>
  </g>
  <g id="zoomMin">
    <use xlink:href="#rim" fill="#404040"><set attributeName="fill" to="#808080" begin="zoomminus.mouseover" end="zoomminus.mouseout"/></use>
    <path d="M-4,0h8" fill="none" stroke="white" stroke-width="1.5" pointer-events="none"/>
  </g>
  <g id="arrowUp" transform="translate(30 24)">
    <use xlink:href="#rim"/>
    <path pointer-events="none" fill="none" stroke="white" stroke-width="1.5" d="M0,-3.0v7 M-2.5,-0.5L0,-3.0L2.5,-0.5"/>
  </g>
  <g id="arrowRight" transform="rotate(90) translate(36 -43)">
    <use xlink:href="#rim"/>
    <path pointer-events="none" fill="none" stroke="white" stroke-width="1.5" d="M0,-3.0v7 M-2.5,-0.5L0,-3.0L2.5,-0.5"/>
  </g>
  <g id="arrowDown" transform="rotate(180) translate(-30 -48)">
    <use xlink:href="#rim"/>
    <path pointer-events="none" fill="none" stroke="white" stroke-width="1.5" d="M0,-3.0v7 M-2.5,-0.5L0,-3.0L2.5,-0.5"/>
  </g>
  <g id="arrowLeft" transform="rotate(270) translate(-36 17)">
    <use xlink:href="#rim"/>
    <path pointer-events="none" fill="none" stroke="white" stroke-width="1.5" d="M0,-3.0v7 M-2.5,-0.5L0,-3.0L2.5,-0.5"/>
  </g>
  <g id="resetDef">
    <use xlink:href="#rim2" fill="#404040"><set attributeName="fill" to="#808080" begin="reset.mouseover" end="reset.mouseout"/></use>
  </g>
</defs>
<script type="application/ecmascript">
var viewWidth = 594;
var viewHeight = 196;
var sectionId = 'dynsection-25';
</script>
<script type="application/ecmascript" xlink:href="svg.min.js"/>
<svg id="graph" class="graph">
<g id="viewport">
<title>kest_context_add_profile_rp</title>
<!-- Node1 -->
<g id="Node000001" class="node">
<title>Node1</title>
<g id="a_Node000001"><a xlink:title=" ">
<polygon fill="#999999" stroke="#666666" points="153.25,-91.12 0,-91.12 0,-70.38 153.25,-70.38 153.25,-91.12"/>
<text xml:space="preserve" text-anchor="middle" x="76.62" y="-77.62" font-family="Helvetica,sans-Serif" font-size="10.00">kest_context_add_profile_rp</text>
</a>
</g>
</g>
<!-- Node2 -->
<g id="Node000002" class="node">
<title>Node2</title>
<g id="a_Node000002"><a xlink:href="kest__profile_8c.html#a7b50c42b3345fa0351fae2af60150ab1" target="_top" xlink:title=" ">
<polygon fill="white" stroke="#666666" points="267.12,-149.12 194.88,-149.12 194.88,-128.38 267.12,-128.38 267.12,-149.12"/>
<text xml:space="preserve" text-anchor="middle" x="231" y="-135.62" font-family="Helvetica,sans-Serif" font-size="10.00">free_profile</text>
</a>
</g>
</g>
<!-- Node1&#45;&gt;Node2 -->
<g id="edge1_Node000001_Node000002" class="edge">
<title>Node1&#45;&gt;Node2</title>
<g id="a_edge1_Node000001_Node000002"><a xlink:title=" ">
<path fill="none" stroke="#63b8ff" d="M105.93,-91.52C129.91,-100.65 164.53,-113.83 191.11,-123.95"/>
<polygon fill="#63b8ff" stroke="#63b8ff" points="189.58,-127.11 200.18,-127.4 192.07,-120.57 189.58,-127.11"/>
</a>
</g>
</g>
<!-- Node13 -->
<g id="Node000013" class="node">
<title>Node13</title>
<g id="a_Node000013"><a xlink:href="kest__profile_8c.html#a417513ac62c9729d2ade560580ca6618" target="_top" xlink:title=" ">
<polygon fill="white" stroke="#666666" points="272.75,-91.12 189.25,-91.12 189.25,-70.38 272.75,-70.38 272.75,-91.12"/>
<text xml:space="preserve" text-anchor="middle" x="231" y="-77.62" font-family="Helvetica,sans-Serif" font-size="10.00">init_m_profile</text>
</a>
</g>
</g>
<!-- Node1&#45;&gt;Node13 -->
<g id="edge6_Node000001_Node000013" class="edge">
<title>Node1&#45;&gt;Node13</title>
<g id="a_edge6_Node000001_Node000013"><a xlink:title=" ">
<path fill="none" stroke="#63b8ff" d="M153.37,-80.75C161.5,-80.75 169.64,-80.75 177.42,-80.75"/>
<polygon fill="#63b8ff" stroke="#63b8ff" points="177.38,-84.25 187.38,-80.75 177.38,-77.25 177.38,-84.25"/>
</a>
</g>
</g>
<!-- Node25 -->
<g id="Node000025" class="node">
<title>Node25</title>
<g id="a_Node000025"><a xlink:href="kest__alloc_8c.html#a849755c5dc5b35e712ffcdb602e50fb4" target="_top" xlink:title=" ">
<polygon fill="white" stroke="#666666" points="263.38,-52.12 198.62,-52.12 198.62,-31.38 263.38,-31.38 263.38,-52.12"/>
<text xml:space="preserve" text-anchor="middle" x="231" y="-38.62" font-family="Helvetica,sans-Serif" font-size="10.00">kest_alloc</text>
</a>
</g>
</g>
<!-- Node1&#45;&gt;Node25 -->
<g id="edge12_Node000001_Node000025" class="edge">
<title>Node1&#45;&gt;Node25</title>
<g id="a_edge12_Node000001_Node000025"><a xlink:title=" ">
<path fill="none" stroke="#63b8ff" d="M120.07,-69.89C141.12,-64.5 166.48,-58.01 187.53,-52.62"/>
<polygon fill="#63b8ff" stroke="#63b8ff" points="188.13,-56.08 196.95,-50.21 186.39,-49.3 188.13,-56.08"/>
</a>
</g>
</g>
<!-- Node3 -->
<g id="Node000003" class="node">
<title>Node3</title>
<g id="a_Node000003"><a xlink:href="kest__profile_8c.html#a98628f676eab8e760f52eec1b9dd7281" target="_top" xlink:title=" ">
<polygon fill="white" stroke="#666666" points="400.5,-187.12 332,-187.12 332,-166.38 400.5,-166.38 400.5,-187.12"/>
<text xml:space="preserve" text-anchor="middle" x="366.25" y="-173.62" font-family="Helvetica,sans-Serif" font-size="10.00">gut_profile</text>
</a>
</g>
</g>
<!-- Node2&#45;&gt;Node3 -->
<g id="edge2_Node000002_Node000003" class="edge">
<title>Node2&#45;&gt;Node3</title>
<g id="a_edge2_Node000002_Node000003"><a xlink:title=" ">
<path fill="none" stroke="#63b8ff" d="M267.36,-148.83C283.68,-153.49 303.23,-159.06 320.56,-164"/>
<polygon fill="#63b8ff" stroke="#63b8ff" points="319.53,-167.35 330.11,-166.73 321.45,-160.62 319.53,-167.35"/>
</a>
</g>
</g>
<!-- Node8 -->
<g id="Node000008" class="node">
<title>Node8</title>
<g id="a_Node000008"><a xlink:href="kest__alloc_8c.html#a294af5728a94aa316fcf65304d388d48" target="_top" xlink:title=" ">
<polygon fill="white" stroke="#666666" points="553.38,-149.12 492.38,-149.12 492.38,-128.38 553.38,-128.38 553.38,-149.12"/>
<text xml:space="preserve" text-anchor="middle" x="522.88" y="-135.62" font-family="Helvetica,sans-Serif" font-size="10.00">kest_free</text>
</a>
</g>
</g>
<!-- Node2&#45;&gt;Node8 -->
<g id="edge5_Node000002_Node000008" class="edge">
<title>Node2&#45;&gt;Node8</title>
<g id="a_edge5_Node000002_Node000008"><a xlink:title=" ">
<path fill="none" stroke="#63b8ff" d="M267.54,-138.75C321.46,-138.75 423.66,-138.75 480.72,-138.75"/>
<polygon fill="#63b8ff" stroke="#63b8ff" points="480.67,-142.25 490.67,-138.75 480.67,-135.25 480.67,-142.25"/>
</a>
</g>
</g>
<!-- Node4 -->
<g id="Node000004" class="node">
<title>Node4</title>
<g id="a_Node000004"><a xlink:href="kest__pipeline_8c.html#a840a0f31f2703ff6040d47245cc56c7a" target="_top" xlink:title=" ">
<polygon fill="#fff0f0" stroke="red" points="560.88,-188.12 484.88,-188.12 484.88,-167.38 560.88,-167.38 560.88,-188.12"/>
<text xml:space="preserve" text-anchor="middle" x="522.88" y="-174.62" font-family="Helvetica,sans-Serif" font-size="10.00">gut_pipeline</text>
</a>
</g>
</g>
<!-- Node3&#45;&gt;Node4 -->
<g id="edge3_Node000003_Node000004" class="edge">
<title>Node3&#45;&gt;Node4</title>
<g id="a_edge3_Node000003_Node000004"><a xlink:title=" ">
<path fill="none" stroke="#63b8ff" d="M400.8,-176.97C422.02,-177.1 449.8,-177.28 473.4,-177.44"/>
<polygon fill="#63b8ff" stroke="#63b8ff" points="473.06,-180.93 483.08,-177.5 473.1,-173.93 473.06,-180.93"/>
</a>
</g>
</g>
<!-- Node3&#45;&gt;Node8 -->
<g id="edge4_Node000003_Node000008" class="edge">
<title>Node3&#45;&gt;Node8</title>
<g id="a_edge4_Node000003_Node000008"><a xlink:title=" ">
<path fill="none" stroke="#63b8ff" d="M400.8,-168.5C424.37,-162.71 456.03,-154.93 481.06,-148.78"/>
<polygon fill="#63b8ff" stroke="#63b8ff" points="481.7,-152.23 490.58,-146.44 480.03,-145.43 481.7,-152.23"/>
</a>
</g>
</g>
<!-- Node14 -->
<g id="Node000014" class="node">
<title>Node14</title>
<g id="a_Node000014"><a xlink:href="kest__pipeline_8c.html#a5854d23849b879b4c5632bd23cac4ada" target="_top" xlink:title=" ">
<polygon fill="white" stroke="#666666" points="411.75,-111.12 320.75,-111.12 320.75,-90.38 411.75,-90.38 411.75,-111.12"/>
<text xml:space="preserve" text-anchor="middle" x="366.25" y="-97.62" font-family="Helvetica,sans-Serif" font-size="10.00">init_m_pipeline</text>
</a>
</g>
</g>
<!-- Node13&#45;&gt;Node14 -->
<g id="edge7_Node000013_Node000014" class="edge">
<title>Node13&#45;&gt;Node14</title>
<g id="a_edge7_Node000013_Node000014"><a xlink:title=" ">
<path fill="none" stroke="#63b8ff" d="M273.07,-86.91C284.42,-88.62 296.95,-90.5 309.01,-92.31"/>
<polygon fill="#63b8ff" stroke="#63b8ff" points="308.47,-95.77 318.88,-93.79 309.51,-88.84 308.47,-95.77"/>
</a>
</g>
</g>
<!-- Node15 -->
<g id="Node000015" class="node">
<title>Node15</title>
<g id="a_Node000015"><a xlink:href="kest__parameter_8c.html#a2b94ddb1588d1a5af4311970bb068122" target="_top" xlink:title=" ">
<polygon fill="white" stroke="#666666" points="410.25,-72.12 322.25,-72.12 322.25,-51.38 410.25,-51.38 410.25,-72.12"/>
<text xml:space="preserve" text-anchor="middle" x="366.25" y="-58.62" font-family="Helvetica,sans-Serif" font-size="10.00">init_parameter</text>
</a>
</g>
</g>
<!-- Node13&#45;&gt;Node15 -->
<g id="edge8_Node000013_Node000015" class="edge">
<title>Node13&#45;&gt;Node15</title>
<g id="a_edge8_Node000013_Node000015"><a xlink:title=" ">
<path fill="none" stroke="#63b8ff" d="M273.07,-74.89C284.89,-73.21 297.99,-71.34 310.5,-69.56"/>
<polygon fill="#63b8ff" stroke="#63b8ff" points="310.87,-73.04 320.28,-68.16 309.89,-66.11 310.87,-73.04"/>
</a>
</g>
</g>
<!-- Node19 -->
<g id="Node000019" class="node">
<title>Node19</title>
<g id="a_Node000019"><a xlink:href="kest__profile_8c.html#a291f067c2dd357a9bbe0a3bd156013a3" target="_top" xlink:title=" ">
<polygon fill="white" stroke="#666666" points="423.75,-33.5 308.75,-33.5 308.75,0 423.75,0 423.75,-33.5"/>
<text xml:space="preserve" text-anchor="start" x="316.75" y="-20" font-family="Helvetica,sans-Serif" font-size="10.00">kest_profile_file_rep</text>
<text xml:space="preserve" text-anchor="middle" x="366.25" y="-7.25" font-family="Helvetica,sans-Serif" font-size="10.00">_update</text>
</a>
</g>
</g>
<!-- Node13&#45;&gt;Node19 -->
<g id="edge10_Node000013_Node000019" class="edge">
<title>Node13&#45;&gt;Node19</title>
<g id="a_edge10_Node000013_Node000019"><a xlink:title=" ">
<path fill="none" stroke="#63b8ff" d="M254.01,-69.98C260.09,-67 266.68,-63.76 272.75,-60.75 288.78,-52.81 292.62,-50.49 308.75,-42.75 311.48,-41.44 314.3,-40.1 317.14,-38.76"/>
<polygon fill="#63b8ff" stroke="#63b8ff" points="318.54,-41.97 326.11,-34.56 315.57,-35.63 318.54,-41.97"/>
</a>
</g>
</g>
<!-- Node16 -->
<g id="Node000016" class="node">
<title>Node16</title>
<g id="a_Node000016"><a xlink:href="kest__parameter_8c.html#abff5b0dd3ed907207191aa6079c514eb" target="_top" xlink:title=" ">
<polygon fill="#fff0f0" stroke="red" points="586,-78.5 459.75,-78.5 459.75,-45 586,-45 586,-78.5"/>
<text xml:space="preserve" text-anchor="start" x="467.75" y="-65" font-family="Helvetica,sans-Serif" font-size="10.00">kest_parameter_effect</text>
<text xml:space="preserve" text-anchor="middle" x="522.88" y="-52.25" font-family="Helvetica,sans-Serif" font-size="10.00">_rep_update</text>
</a>
</g>
</g>
<!-- Node15&#45;&gt;Node16 -->
<g id="edge9_Node000015_Node000016" class="edge">
<title>Node15&#45;&gt;Node16</title>
<g id="a_edge9_Node000015_Node000016"><a xlink:title=" ">
<path fill="none" stroke="#63b8ff" d="M410.73,-61.75C422.41,-61.75 435.37,-61.75 448.19,-61.75"/>
<polygon fill="#63b8ff" stroke="#63b8ff" points="447.88,-65.25 457.88,-61.75 447.88,-58.25 447.88,-65.25"/>
</a>
</g>
</g>
<!-- Node20 -->
<g id="Node000020" class="node">
<title>Node20</title>
<g id="a_Node000020"><a xlink:href="kest__files_8c.html#ab39f3c0d9f0a16ccb7d076a22fc4ca22" target="_top" xlink:title=" ">
<polygon fill="#fff0f0" stroke="red" points="560.88,-27.12 484.88,-27.12 484.88,-6.38 560.88,-6.38 560.88,-27.12"/>
<text xml:space="preserve" text-anchor="middle" x="522.88" y="-13.62" font-family="Helvetica,sans-Serif" font-size="10.00">save_profile</text>
</a>
</g>
</g>
<!-- Node19&#45;&gt;Node20 -->
<g id="edge11_Node000019_Node000020" class="edge">
<title>Node19&#45;&gt;Node20</title>
<g id="a_edge11_Node000019_Node000020"><a xlink:title=" ">
<path fill="none" stroke="#63b8ff" d="M423.95,-16.75C440.02,-16.75 457.37,-16.75 472.95,-16.75"/>
<polygon fill="#63b8ff" stroke="#63b8ff" points="472.94,-20.25 482.94,-16.75 472.94,-13.25 472.94,-20.25"/>
</a>
</g>
</g>
</g>
</svg>

<g id="navigator" transform="translate(0 0)" fill="#404254">
  <rect fill="#f2f5e9" fill-opacity="0.5" stroke="#606060" stroke-width=".5" x="0" y="0" width="60" height="60"/>
  <use id="zoomplus" xlink:href="#zoomPlus" x="17" y="9" onmousedown="handleZoom(evt,'in')"/>
  <use id="zoomminus" xlink:href="#zoomMin" x="42" y="9" onmousedown="handleZoom(evt,'out')"/>
  <use id="reset" xlink:href="#resetDef" x="30" y="36" onmousedown="handleReset()"/>
   <use id="arrowup" xlink:href="#arrowUp" x="0" y="0" onmousedown="handlePan(0,-1)"/>
  <use id="arrowright" xlink:href="#arrowRight" x="0" y="0" onmousedown="handlePan(1,0)"/>
  <use id="arrowdown" xlink:href="#arrowDown" x="0" y="0" onmousedown="handlePan(0,1)"/>
  <use id="arrowleft" xlink:href="#arrowLeft" x="0" y="0" onmousedown="handlePan(-1,0)"/>
</g>
<svg viewBox="0 0 15 15" width="100%" height="30px" preserveAspectRatio="xMaxYMin meet">
 <g id="arrow_out" transform="scale(0.3 0.3)">
  <a xlink:href="kest__context_8h_a6940c938261204306d9a9b789bee846f_cgraph_org.svg" target="_base">
   <rect id="button" ry="5" rx="5" y="6" x="6" height="38" width="38"
        fill="#f2f5e9" fill-opacity="0.5" stroke="#606060" stroke-width="1.0"/>
   <path id="arrow"
     d="M 11.500037,31.436501 C 11.940474,20.09759 22.043105,11.32322 32.158766,21.979434 L 37.068811,17.246167 C 37.068811,17.246167 37.088388,32 37.088388,32 L 22.160133,31.978069 C 22.160133,31.978069 26.997745,27.140456 26.997745,27.140456 C 18.528582,18.264221 13.291696,25.230495 11.500037,31.436501 z"
     style="fill:#404040;"/>
  </a>
 </g>
</svg>

<style type='text/css'>
<![CDATA[
[data-mouse-over-selected='false'] { opacity: 0.7; }
[data-mouse-over-selected='true']  { opacity: 1.0; }
]]>
</style>
<script type="application/ecmascript"><![CDATA[
document.addEventListener('DOMContentLoaded', (event) => {
  highlightEdges();
  highlightAdjacentNodes();
});
]]></script>
</svg>
