<?xml version="1.0" encoding="UTF-8" standalone="no"?>
<!DOCTYPE svg PUBLIC "-//W3C//DTD SVG 1.1//EN"
 "http://www.w3.org/Graphics/SVG/1.1/DTD/svg11.dtd">
<!-- Generated by graphviz version 13.1.2 (20250808.2320)
 -->
<!-- Title: kest_linked_list.h Pages: 1 -->
<svg width="4037pt" height="199pt"
 viewBox="0.00 0.00 4037.00 199.00" xmlns="http://www.w3.org/2000/svg" xmlns:xlink="http://www.w3.org/1999/xlink">
<g id="graph0" class="graph" transform="scale(1 1) rotate(0) translate(4 195)">
<title>kest_linked_list.h</title>
<!-- Node1 -->
<g id="Node000001" class="node">
<title>Node1</title>
<g id="a_Node000001"><a xlink:title=" ">
<polygon fill="#999999" stroke="#666666" points="1989.5,-191 1889.5,-191 1889.5,-170.25 1989.5,-170.25 1989.5,-191"/>
<text xml:space="preserve" text-anchor="middle" x="1939.5" y="-177.5" font-family="Helvetica,sans-Serif" font-size="10.00">kest_linked_list.h</text>
</a>
</g>
</g>
<!-- Node2 -->
<g id="Node000002" class="node">
<title>Node2</title>
<g id="a_Node000002"><a xlink:href="kest__desktop_8h.html" target="_top" xlink:title=" ">
<polygon fill="white" stroke="#666666" points="1916.25,-77.5 1826.75,-77.5 1826.75,-56.75 1916.25,-56.75 1916.25,-77.5"/>
<text xml:space="preserve" text-anchor="middle" x="1871.5" y="-64" font-family="Helvetica,sans-Serif" font-size="10.00">kest_desktop.h</text>
</a>
</g>
</g>
<!-- Node1&#45;&gt;Node2 -->
<g id="edge1_Node000001_Node000002" class="edge">
<title>Node1&#45;&gt;Node2</title>
<g id="a_edge1_Node000001_Node000002"><a xlink:title=" ">
<path fill="none" stroke="#63b8ff" d="M1897.51,-165.2C1883.52,-158.16 1869.48,-148.13 1861.5,-134.25 1851.2,-116.34 1860.06,-91.36 1866.41,-77.81"/>
<polygon fill="#63b8ff" stroke="#63b8ff" points="1895.67,-168.21 1906.22,-169.18 1898.58,-161.84 1895.67,-168.21"/>
</a>
</g>
</g>
<!-- Node3 -->
<g id="Node000003" class="node">
<title>Node3</title>
<g id="a_Node000003"><a xlink:href="kest__int_8h.html" target="_top" xlink:title=" ">
<polygon fill="#fff0f0" stroke="red" points="2033.12,-77.5 1969.88,-77.5 1969.88,-56.75 2033.12,-56.75 2033.12,-77.5"/>
<text xml:space="preserve" text-anchor="middle" x="2001.5" y="-64" font-family="Helvetica,sans-Serif" font-size="10.00">kest_int.h</text>
</a>
</g>
</g>
<!-- Node1&#45;&gt;Node3 -->
<g id="edge2_Node000001_Node000003" class="edge">
<title>Node1&#45;&gt;Node3</title>
<g id="a_edge2_Node000001_Node000003"><a xlink:title=" ">
<path fill="none" stroke="#63b8ff" d="M1982.88,-165.27C1997.11,-158.27 2011.35,-148.24 2019.5,-134.25 2030.16,-115.95 2017.29,-91.13 2008.46,-77.7"/>
<polygon fill="#63b8ff" stroke="#63b8ff" points="1981.69,-161.97 1973.99,-169.24 1984.54,-168.36 1981.69,-161.97"/>
</a>
</g>
</g>
<!-- Node55 -->
<g id="Node000055" class="node">
<title>Node55</title>
<g id="a_Node000055"><a xlink:href="kest__lib_8h.html" target="_top" xlink:title=" ">
<polygon fill="white" stroke="#666666" points="2010.75,-134.25 1948.25,-134.25 1948.25,-113.5 2010.75,-113.5 2010.75,-134.25"/>
<text xml:space="preserve" text-anchor="middle" x="1979.5" y="-120.75" font-family="Helvetica,sans-Serif" font-size="10.00">kest_lib.h</text>
</a>
</g>
</g>
<!-- Node1&#45;&gt;Node55 -->
<g id="edge38_Node000001_Node000055" class="edge">
<title>Node1&#45;&gt;Node55</title>
<g id="a_edge38_Node000001_Node000055"><a xlink:title=" ">
<path fill="none" stroke="#63b8ff" d="M1953.35,-160.67C1959.77,-151.88 1967.14,-141.8 1972.41,-134.58"/>
<polygon fill="#63b8ff" stroke="#63b8ff" points="1950.62,-158.48 1947.54,-168.61 1956.27,-162.6 1950.62,-158.48"/>
</a>
</g>
</g>
<!-- Node56 -->
<g id="Node000056" class="node">
<title>Node56</title>
<g id="a_Node000056"><a xlink:href="kest__ui_8h.html" target="_top" xlink:title=" ">
<polygon fill="white" stroke="#666666" points="1930.25,-134.25 1870.75,-134.25 1870.75,-113.5 1930.25,-113.5 1930.25,-134.25"/>
<text xml:space="preserve" text-anchor="middle" x="1900.5" y="-120.75" font-family="Helvetica,sans-Serif" font-size="10.00">kest_ui.h</text>
</a>
</g>
</g>
<!-- Node1&#45;&gt;Node56 -->
<g id="edge39_Node000001_Node000056" class="edge">
<title>Node1&#45;&gt;Node56</title>
<g id="a_edge39_Node000001_Node000056"><a xlink:title=" ">
<path fill="none" stroke="#63b8ff" d="M1926,-160.67C1919.73,-151.88 1912.55,-141.8 1907.41,-134.58"/>
<polygon fill="#63b8ff" stroke="#63b8ff" points="1923,-162.49 1931.65,-168.6 1928.7,-158.43 1923,-162.49"/>
</a>
</g>
</g>
<!-- Node4 -->
<g id="Node000004" class="node">
<title>Node4</title>
<g id="a_Node000004"><a xlink:href="kest__alloc_8c.html" target="_top" xlink:title=" ">
<polygon fill="white" stroke="#666666" points="73,-20.75 0,-20.75 0,0 73,0 73,-20.75"/>
<text xml:space="preserve" text-anchor="middle" x="36.5" y="-7.25" font-family="Helvetica,sans-Serif" font-size="10.00">kest_alloc.c</text>
</a>
</g>
</g>
<!-- Node3&#45;&gt;Node4 -->
<g id="edge3_Node000003_Node000004" class="edge">
<title>Node3&#45;&gt;Node4</title>
<g id="a_edge3_Node000003_Node000004"><a xlink:title=" ">
<path fill="none" stroke="#63b8ff" d="M1958.19,-60C1947.52,-58.71 1936.11,-57.51 1925.5,-56.75 1516.9,-27.64 489.64,-65.84 82.5,-20.75 79.5,-20.42 76.41,-19.99 73.31,-19.49"/>
<polygon fill="#63b8ff" stroke="#63b8ff" points="1957.54,-63.44 1967.9,-61.23 1958.42,-56.5 1957.54,-63.44"/>
</a>
</g>
</g>
<!-- Node5 -->
<g id="Node000005" class="node">
<title>Node5</title>
<g id="a_Node000005"><a xlink:href="kest__asm__parser_8c.html" target="_top" xlink:title=" ">
<polygon fill="white" stroke="#666666" points="197.88,-20.75 91.12,-20.75 91.12,0 197.88,0 197.88,-20.75"/>
<text xml:space="preserve" text-anchor="middle" x="144.5" y="-7.25" font-family="Helvetica,sans-Serif" font-size="10.00">kest_asm_parser.c</text>
</a>
</g>
</g>
<!-- Node3&#45;&gt;Node5 -->
<g id="edge4_Node000003_Node000005" class="edge">
<title>Node3&#45;&gt;Node5</title>
<g id="a_edge4_Node000003_Node000005"><a xlink:title=" ">
<path fill="none" stroke="#63b8ff" d="M1958.19,-60.01C1947.52,-58.72 1936.11,-57.51 1925.5,-56.75 1163.3,-1.9 967.88,-86.01 206.5,-20.75 203.79,-20.52 201.02,-20.24 198.22,-19.93"/>
<polygon fill="#63b8ff" stroke="#63b8ff" points="1957.54,-63.45 1967.9,-61.24 1958.42,-56.51 1957.54,-63.45"/>
</a>
</g>
</g>
<!-- Node6 -->
<g id="Node000006" class="node">
<title>Node6</title>
<g id="a_Node000006"><a xlink:href="kest__block_8c.html" target="_top" xlink:title=" ">
<polygon fill="white" stroke="#666666" points="291.5,-20.75 215.5,-20.75 215.5,0 291.5,0 291.5,-20.75"/>
<text xml:space="preserve" text-anchor="middle" x="253.5" y="-7.25" font-family="Helvetica,sans-Serif" font-size="10.00">kest_block.c</text>
</a>
</g>
</g>
<!-- Node3&#45;&gt;Node6 -->
<g id="edge5_Node000003_Node000006" class="edge">
<title>Node3&#45;&gt;Node6</title>
<g id="a_edge5_Node000003_Node000006"><a xlink:title=" ">
<path fill="none" stroke="#63b8ff" d="M1958.19,-60.02C1947.52,-58.73 1936.11,-57.52 1925.5,-56.75 1205,-4.46 1018.57,-99.71 300.5,-20.75 297.69,-20.44 294.79,-20.05 291.89,-19.6"/>
<polygon fill="#63b8ff" stroke="#63b8ff" points="1957.54,-63.46 1967.9,-61.25 1958.42,-56.52 1957.54,-63.46"/>
</a>
</g>
</g>
<!-- Node7 -->
<g id="Node000007" class="node">
<title>Node7</title>
<g id="a_Node000007"><a xlink:href="kest__bump__arena_8c.html" target="_top" xlink:title=" ">
<polygon fill="white" stroke="#666666" points="419.75,-20.75 309.25,-20.75 309.25,0 419.75,0 419.75,-20.75"/>
<text xml:space="preserve" text-anchor="middle" x="364.5" y="-7.25" font-family="Helvetica,sans-Serif" font-size="10.00">kest_bump_arena.c</text>
</a>
</g>
</g>
<!-- Node3&#45;&gt;Node7 -->
<g id="edge6_Node000003_Node000007" class="edge">
<title>Node3&#45;&gt;Node7</title>
<g id="a_edge6_Node000003_Node000007"><a xlink:title=" ">
<path fill="none" stroke="#63b8ff" d="M1958.19,-60.03C1947.52,-58.74 1936.11,-57.53 1925.5,-56.75 1261.77,-7.95 1091.64,-77.08 428.5,-20.75 425.7,-20.51 422.84,-20.23 419.96,-19.92"/>
<polygon fill="#63b8ff" stroke="#63b8ff" points="1957.53,-63.48 1967.9,-61.26 1958.41,-56.53 1957.53,-63.48"/>
</a>
</g>
</g>
<!-- Node8 -->
<g id="Node000008" class="node">
<title>Node8</title>
<g id="a_Node000008"><a xlink:href="kest__button_8c.html" target="_top" xlink:title=" ">
<polygon fill="white" stroke="#666666" points="519.12,-20.75 437.88,-20.75 437.88,0 519.12,0 519.12,-20.75"/>
<text xml:space="preserve" text-anchor="middle" x="478.5" y="-7.25" font-family="Helvetica,sans-Serif" font-size="10.00">kest_button.c</text>
</a>
</g>
</g>
<!-- Node3&#45;&gt;Node8 -->
<g id="edge7_Node000003_Node000008" class="edge">
<title>Node3&#45;&gt;Node8</title>
<g id="a_edge7_Node000003_Node000008"><a xlink:title=" ">
<path fill="none" stroke="#63b8ff" d="M1958.19,-60.05C1947.52,-58.75 1936.11,-57.54 1925.5,-56.75 1306.12,-10.68 1146.14,-86.19 528.5,-20.75 525.6,-20.44 522.62,-20.06 519.62,-19.62"/>
<polygon fill="#63b8ff" stroke="#63b8ff" points="1957.53,-63.49 1967.89,-61.27 1958.41,-56.55 1957.53,-63.49"/>
</a>
</g>
</g>
<!-- Node9 -->
<g id="Node000009" class="node">
<title>Node9</title>
<g id="a_Node000009"><a xlink:href="kest__context_8c.html" target="_top" xlink:title=" ">
<polygon fill="white" stroke="#666666" points="623.75,-20.75 537.25,-20.75 537.25,0 623.75,0 623.75,-20.75"/>
<text xml:space="preserve" text-anchor="middle" x="580.5" y="-7.25" font-family="Helvetica,sans-Serif" font-size="10.00">kest_context.c</text>
</a>
</g>
</g>
<!-- Node3&#45;&gt;Node9 -->
<g id="edge8_Node000003_Node000009" class="edge">
<title>Node3&#45;&gt;Node9</title>
<g id="a_edge8_Node000003_Node000009"><a xlink:title=" ">
<path fill="none" stroke="#63b8ff" d="M1958.18,-60.06C1947.52,-58.77 1936.11,-57.55 1925.5,-56.75 1352.68,-13.54 1204.99,-78.94 633.5,-20.75 630.43,-20.44 627.27,-20.05 624.1,-19.61"/>
<polygon fill="#63b8ff" stroke="#63b8ff" points="1957.53,-63.51 1967.89,-61.29 1958.41,-56.56 1957.53,-63.51"/>
</a>
</g>
</g>
<!-- Node10 -->
<g id="Node000010" class="node">
<title>Node10</title>
<g id="a_Node000010"><a xlink:href="kest__desktop_8c.html" target="_top" xlink:title=" ">
<polygon fill="white" stroke="#666666" points="730.88,-20.75 642.12,-20.75 642.12,0 730.88,0 730.88,-20.75"/>
<text xml:space="preserve" text-anchor="middle" x="686.5" y="-7.25" font-family="Helvetica,sans-Serif" font-size="10.00">kest_desktop.c</text>
</a>
</g>
</g>
<!-- Node3&#45;&gt;Node10 -->
<g id="edge9_Node000003_Node000010" class="edge">
<title>Node3&#45;&gt;Node10</title>
<g id="a_edge9_Node000003_Node000010"><a xlink:title=" ">
<path fill="none" stroke="#63b8ff" d="M1958.18,-60.08C1947.52,-58.79 1936.11,-57.56 1925.5,-56.75 1399.69,-16.43 1264.07,-74.82 739.5,-20.75 736.8,-20.47 734.04,-20.14 731.26,-19.76"/>
<polygon fill="#63b8ff" stroke="#63b8ff" points="1957.53,-63.53 1967.89,-61.31 1958.41,-56.58 1957.53,-63.53"/>
</a>
</g>
</g>
<!-- Node11 -->
<g id="Node000011" class="node">
<title>Node11</title>
<g id="a_Node000011"><a xlink:href="kest__dict__extract_8c.html" target="_top" xlink:title=" ">
<polygon fill="white" stroke="#666666" points="856.25,-20.75 748.75,-20.75 748.75,0 856.25,0 856.25,-20.75"/>
<text xml:space="preserve" text-anchor="middle" x="802.5" y="-7.25" font-family="Helvetica,sans-Serif" font-size="10.00">kest_dict_extract.c</text>
</a>
</g>
</g>
<!-- Node3&#45;&gt;Node11 -->
<g id="edge10_Node000003_Node000011" class="edge">
<title>Node3&#45;&gt;Node11</title>
<g id="a_edge10_Node000003_Node000011"><a xlink:title=" ">
<path fill="none" stroke="#63b8ff" d="M1958.18,-60.11C1947.51,-58.81 1936.11,-57.58 1925.5,-56.75 1455.12,-19.83 1334.33,-64.09 864.5,-20.75 861.9,-20.51 859.24,-20.23 856.56,-19.93"/>
<polygon fill="#63b8ff" stroke="#63b8ff" points="1957.53,-63.55 1967.89,-61.33 1958.41,-56.61 1957.53,-63.55"/>
</a>
</g>
</g>
<!-- Node12 -->
<g id="Node000012" class="node">
<title>Node12</title>
<g id="a_Node000012"><a xlink:href="kest__dictionary_8c.html" target="_top" xlink:title=" ">
<polygon fill="white" stroke="#666666" points="971,-20.75 874,-20.75 874,0 971,0 971,-20.75"/>
<text xml:space="preserve" text-anchor="middle" x="922.5" y="-7.25" font-family="Helvetica,sans-Serif" font-size="10.00">kest_dictionary.c</text>
</a>
</g>
</g>
<!-- Node3&#45;&gt;Node12 -->
<g id="edge11_Node000003_Node000012" class="edge">
<title>Node3&#45;&gt;Node12</title>
<g id="a_edge11_Node000003_Node000012"><a xlink:title=" ">
<path fill="none" stroke="#63b8ff" d="M1958.18,-60.14C1947.51,-58.84 1936.11,-57.6 1925.5,-56.75 1506.11,-22.96 1398.12,-62.97 979.5,-20.75 976.81,-20.48 974.05,-20.16 971.26,-19.81"/>
<polygon fill="#63b8ff" stroke="#63b8ff" points="1957.53,-63.58 1967.89,-61.36 1958.4,-56.64 1957.53,-63.58"/>
</a>
</g>
</g>
<!-- Node13 -->
<g id="Node000013" class="node">
<title>Node13</title>
<g id="a_Node000013"><a xlink:href="kest__eff__desc_8c.html" target="_top" xlink:title=" ">
<polygon fill="white" stroke="#666666" points="1080,-20.75 989,-20.75 989,0 1080,0 1080,-20.75"/>
<text xml:space="preserve" text-anchor="middle" x="1034.5" y="-7.25" font-family="Helvetica,sans-Serif" font-size="10.00">kest_eff_desc.c</text>
</a>
</g>
</g>
<!-- Node3&#45;&gt;Node13 -->
<g id="edge12_Node000003_Node000013" class="edge">
<title>Node3&#45;&gt;Node13</title>
<g id="a_edge12_Node000003_Node000013"><a xlink:title=" ">
<path fill="none" stroke="#63b8ff" d="M1958.17,-60.17C1947.51,-58.88 1936.11,-57.63 1925.5,-56.75 1554.43,-25.93 1458.7,-60.68 1088.5,-20.75 1085.85,-20.46 1083.14,-20.13 1080.4,-19.76"/>
<polygon fill="#63b8ff" stroke="#63b8ff" points="1957.53,-63.62 1967.88,-61.4 1958.4,-56.68 1957.53,-63.62"/>
</a>
</g>
</g>
<!-- Node14 -->
<g id="Node000014" class="node">
<title>Node14</title>
<g id="a_Node000014"><a xlink:href="kest__eff__parser_8c.html" target="_top" xlink:title=" ">
<polygon fill="white" stroke="#666666" points="1197.12,-20.75 1097.88,-20.75 1097.88,0 1197.12,0 1197.12,-20.75"/>
<text xml:space="preserve" text-anchor="middle" x="1147.5" y="-7.25" font-family="Helvetica,sans-Serif" font-size="10.00">kest_eff_parser.c</text>
</a>
</g>
</g>
<!-- Node3&#45;&gt;Node14 -->
<g id="edge13_Node000003_Node000014" class="edge">
<title>Node3&#45;&gt;Node14</title>
<g id="a_edge13_Node000003_Node000014"><a xlink:title=" ">
<path fill="none" stroke="#63b8ff" d="M1958.17,-60.23C1947.5,-58.93 1936.1,-57.67 1925.5,-56.75 1606.74,-29.15 1524.73,-53.9 1206.5,-20.75 1203.51,-20.44 1200.44,-20.08 1197.34,-19.68"/>
<polygon fill="#63b8ff" stroke="#63b8ff" points="1957.52,-63.67 1967.88,-61.45 1958.4,-56.73 1957.52,-63.67"/>
</a>
</g>
</g>
<!-- Node15 -->
<g id="Node000015" class="node">
<title>Node15</title>
<g id="a_Node000015"><a xlink:href="kest__eff__section_8c.html" target="_top" xlink:title=" ">
<polygon fill="white" stroke="#666666" points="1319.38,-20.75 1215.62,-20.75 1215.62,0 1319.38,0 1319.38,-20.75"/>
<text xml:space="preserve" text-anchor="middle" x="1267.5" y="-7.25" font-family="Helvetica,sans-Serif" font-size="10.00">kest_eff_section.c</text>
</a>
</g>
</g>
<!-- Node3&#45;&gt;Node15 -->
<g id="edge14_Node000003_Node000015" class="edge">
<title>Node3&#45;&gt;Node15</title>
<g id="a_edge14_Node000003_Node000015"><a xlink:title=" ">
<path fill="none" stroke="#63b8ff" d="M1958.16,-60.3C1947.5,-59 1936.1,-57.72 1925.5,-56.75 1660.8,-32.47 1592.81,-48.97 1328.5,-20.75 1325.62,-20.44 1322.68,-20.1 1319.7,-19.72"/>
<polygon fill="#63b8ff" stroke="#63b8ff" points="1957.52,-63.75 1967.87,-61.52 1958.39,-56.8 1957.52,-63.75"/>
</a>
</g>
</g>
<!-- Node16 -->
<g id="Node000016" class="node">
<title>Node16</title>
<g id="a_Node000016"><a xlink:href="kest__effect_8c.html" target="_top" xlink:title=" ">
<polygon fill="white" stroke="#666666" points="1415.62,-20.75 1337.38,-20.75 1337.38,0 1415.62,0 1415.62,-20.75"/>
<text xml:space="preserve" text-anchor="middle" x="1376.5" y="-7.25" font-family="Helvetica,sans-Serif" font-size="10.00">kest_effect.c</text>
</a>
</g>
</g>
<!-- Node3&#45;&gt;Node16 -->
<g id="edge15_Node000003_Node000016" class="edge">
<title>Node3&#45;&gt;Node16</title>
<g id="a_edge15_Node000003_Node000016"><a xlink:title=" ">
<path fill="none" stroke="#63b8ff" d="M1958.45,-60.43C1947.7,-59.11 1936.19,-57.79 1925.5,-56.75 1703.31,-35.08 1645.79,-50.2 1424.5,-20.75 1421.72,-20.38 1418.86,-19.95 1415.99,-19.48"/>
<polygon fill="#63b8ff" stroke="#63b8ff" points="1957.88,-63.88 1968.24,-61.65 1958.75,-56.94 1957.88,-63.88"/>
</a>
</g>
</g>
<!-- Node17 -->
<g id="Node000017" class="node">
<title>Node17</title>
<g id="a_Node000017"><a xlink:href="kest__effect__init_8c.html" target="_top" xlink:title=" ">
<polygon fill="white" stroke="#666666" points="1533.12,-20.75 1433.88,-20.75 1433.88,0 1533.12,0 1533.12,-20.75"/>
<text xml:space="preserve" text-anchor="middle" x="1483.5" y="-7.25" font-family="Helvetica,sans-Serif" font-size="10.00">kest_effect_init.c</text>
</a>
</g>
</g>
<!-- Node3&#45;&gt;Node17 -->
<g id="edge16_Node000003_Node000017" class="edge">
<title>Node3&#45;&gt;Node17</title>
<g id="a_edge16_Node000003_Node000017"><a xlink:title=" ">
<path fill="none" stroke="#63b8ff" d="M1958.43,-60.59C1947.68,-59.27 1936.18,-57.91 1925.5,-56.75 1755.53,-38.28 1712.12,-42.18 1542.5,-20.75 1539.52,-20.37 1536.45,-19.96 1533.36,-19.53"/>
<polygon fill="#63b8ff" stroke="#63b8ff" points="1957.87,-64.05 1968.22,-61.81 1958.73,-57.1 1957.87,-64.05"/>
</a>
</g>
</g>
<!-- Node18 -->
<g id="Node000018" class="node">
<title>Node18</title>
<g id="a_Node000018"><a xlink:href="kest__effect__select_8c.html" target="_top" xlink:title=" ">
<polygon fill="white" stroke="#666666" points="1663.88,-20.75 1551.12,-20.75 1551.12,0 1663.88,0 1663.88,-20.75"/>
<text xml:space="preserve" text-anchor="middle" x="1607.5" y="-7.25" font-family="Helvetica,sans-Serif" font-size="10.00">kest_effect_select.c</text>
</a>
</g>
</g>
<!-- Node3&#45;&gt;Node18 -->
<g id="edge17_Node000003_Node000018" class="edge">
<title>Node3&#45;&gt;Node18</title>
<g id="a_edge17_Node000003_Node000018"><a xlink:title=" ">
<path fill="none" stroke="#63b8ff" d="M1958.44,-60.22C1895.75,-51.61 1775.65,-35.07 1673.5,-20.75 1670.41,-20.32 1667.23,-19.87 1664.02,-19.42"/>
<polygon fill="#63b8ff" stroke="#63b8ff" points="1957.95,-63.68 1968.33,-61.58 1958.9,-56.75 1957.95,-63.68"/>
</a>
</g>
</g>
<!-- Node19 -->
<g id="Node000019" class="node">
<title>Node19</title>
<g id="a_Node000019"><a xlink:href="kest__effect__settings_8c.html" target="_top" xlink:title=" ">
<polygon fill="white" stroke="#666666" points="1804.75,-20.75 1682.25,-20.75 1682.25,0 1804.75,0 1804.75,-20.75"/>
<text xml:space="preserve" text-anchor="middle" x="1743.5" y="-7.25" font-family="Helvetica,sans-Serif" font-size="10.00">kest_effect_settings.c</text>
</a>
</g>
</g>
<!-- Node3&#45;&gt;Node19 -->
<g id="edge18_Node000003_Node000019" class="edge">
<title>Node3&#45;&gt;Node19</title>
<g id="a_edge18_Node000003_Node000019"><a xlink:title=" ">
<path fill="none" stroke="#63b8ff" d="M1958.36,-56.97C1911.68,-47.06 1837.53,-31.33 1789.69,-21.18"/>
<polygon fill="#63b8ff" stroke="#63b8ff" points="1957.62,-60.39 1968.12,-59.04 1959.07,-53.54 1957.62,-60.39"/>
</a>
</g>
</g>
<!-- Node20 -->
<g id="Node000020" class="node">
<title>Node20</title>
<g id="a_Node000020"><a xlink:href="kest__effect__table_8c.html" target="_top" xlink:title=" ">
<polygon fill="white" stroke="#666666" points="1930.62,-20.75 1822.38,-20.75 1822.38,0 1930.62,0 1930.62,-20.75"/>
<text xml:space="preserve" text-anchor="middle" x="1876.5" y="-7.25" font-family="Helvetica,sans-Serif" font-size="10.00">kest_effect_table.c</text>
</a>
</g>
</g>
<!-- Node3&#45;&gt;Node20 -->
<g id="edge19_Node000003_Node000020" class="edge">
<title>Node3&#45;&gt;Node20</title>
<g id="a_edge19_Node000003_Node000020"><a xlink:title=" ">
<path fill="none" stroke="#63b8ff" d="M1968.89,-51.84C1946.78,-42.16 1918.15,-29.62 1898.65,-21.08"/>
<polygon fill="#63b8ff" stroke="#63b8ff" points="1967.2,-54.92 1977.77,-55.73 1970.01,-48.51 1967.2,-54.92"/>
</a>
</g>
</g>
<!-- Node21 -->
<g id="Node000021" class="node">
<title>Node21</title>
<g id="a_Node000021"><a xlink:href="kest__effect__view_8c.html" target="_top" xlink:title=" ">
<polygon fill="white" stroke="#666666" points="2054.5,-20.75 1948.5,-20.75 1948.5,0 2054.5,0 2054.5,-20.75"/>
<text xml:space="preserve" text-anchor="middle" x="2001.5" y="-7.25" font-family="Helvetica,sans-Serif" font-size="10.00">kest_effect_view.c</text>
</a>
</g>
</g>
<!-- Node3&#45;&gt;Node21 -->
<g id="edge20_Node000003_Node000021" class="edge">
<title>Node3&#45;&gt;Node21</title>
<g id="a_edge20_Node000003_Node000021"><a xlink:title=" ">
<path fill="none" stroke="#63b8ff" d="M2001.5,-44.88C2001.5,-36.66 2001.5,-27.68 2001.5,-21.08"/>
<polygon fill="#63b8ff" stroke="#63b8ff" points="1998,-44.82 2001.5,-54.82 2005,-44.82 1998,-44.82"/>
</a>
</g>
</g>
<!-- Node22 -->
<g id="Node000022" class="node">
<title>Node22</title>
<g id="a_Node000022"><a xlink:href="kest__expr__parser_8c.html" target="_top" xlink:title=" ">
<polygon fill="white" stroke="#666666" points="2180.25,-20.75 2072.75,-20.75 2072.75,0 2180.25,0 2180.25,-20.75"/>
<text xml:space="preserve" text-anchor="middle" x="2126.5" y="-7.25" font-family="Helvetica,sans-Serif" font-size="10.00">kest_expr_parser.c</text>
</a>
</g>
</g>
<!-- Node3&#45;&gt;Node22 -->
<g id="edge21_Node000003_Node000022" class="edge">
<title>Node3&#45;&gt;Node22</title>
<g id="a_edge21_Node000003_Node000022"><a xlink:title=" ">
<path fill="none" stroke="#63b8ff" d="M2034.11,-51.84C2056.22,-42.16 2084.85,-29.62 2104.35,-21.08"/>
<polygon fill="#63b8ff" stroke="#63b8ff" points="2032.99,-48.51 2025.23,-55.73 2035.8,-54.92 2032.99,-48.51"/>
</a>
</g>
</g>
<!-- Node23 -->
<g id="Node000023" class="node">
<title>Node23</title>
<g id="a_Node000023"><a xlink:href="kest__expr__scope_8c.html" target="_top" xlink:title=" ">
<polygon fill="white" stroke="#666666" points="2303.12,-20.75 2197.88,-20.75 2197.88,0 2303.12,0 2303.12,-20.75"/>
<text xml:space="preserve" text-anchor="middle" x="2250.5" y="-7.25" font-family="Helvetica,sans-Serif" font-size="10.00">kest_expr_scope.c</text>
</a>
</g>
</g>
<!-- Node3&#45;&gt;Node23 -->
<g id="edge22_Node000003_Node000023" class="edge">
<title>Node3&#45;&gt;Node23</title>
<g id="a_edge22_Node000003_Node000023"><a xlink:title=" ">
<path fill="none" stroke="#63b8ff" d="M2044.72,-56.62C2089.87,-46.69 2160.35,-31.2 2205.97,-21.17"/>
<polygon fill="#63b8ff" stroke="#63b8ff" points="2044.04,-53.19 2035.02,-58.75 2045.54,-60.03 2044.04,-53.19"/>
</a>
</g>
</g>
<!-- Node24 -->
<g id="Node000024" class="node">
<title>Node24</title>
<g id="a_Node000024"><a xlink:href="kest__expression_8c.html" target="_top" xlink:title=" ">
<polygon fill="white" stroke="#666666" points="2424,-20.75 2321,-20.75 2321,0 2424,0 2424,-20.75"/>
<text xml:space="preserve" text-anchor="middle" x="2372.5" y="-7.25" font-family="Helvetica,sans-Serif" font-size="10.00">kest_expression.c</text>
</a>
</g>
</g>
<!-- Node3&#45;&gt;Node24 -->
<g id="edge23_Node000003_Node000024" class="edge">
<title>Node3&#45;&gt;Node24</title>
<g id="a_edge23_Node000003_Node000024"><a xlink:title=" ">
<path fill="none" stroke="#63b8ff" d="M2044.6,-59.98C2104.65,-51.38 2216.9,-35.19 2312.5,-20.75 2315.21,-20.34 2317.99,-19.92 2320.79,-19.49"/>
<polygon fill="#63b8ff" stroke="#63b8ff" points="2044.2,-56.5 2034.8,-61.38 2045.2,-63.43 2044.2,-56.5"/>
</a>
</g>
</g>
<!-- Node25 -->
<g id="Node000025" class="node">
<title>Node25</title>
<g id="a_Node000025"><a xlink:href="kest__files_8c.html" target="_top" xlink:title=" ">
<polygon fill="white" stroke="#666666" points="2512.88,-20.75 2442.12,-20.75 2442.12,0 2512.88,0 2512.88,-20.75"/>
<text xml:space="preserve" text-anchor="middle" x="2477.5" y="-7.25" font-family="Helvetica,sans-Serif" font-size="10.00">kest_files.c</text>
</a>
</g>
</g>
<!-- Node3&#45;&gt;Node25 -->
<g id="edge24_Node000003_Node000025" class="edge">
<title>Node3&#45;&gt;Node25</title>
<g id="a_edge24_Node000003_Node000025"><a xlink:title=" ">
<path fill="none" stroke="#63b8ff" d="M2044.62,-63.11C2122.57,-57.32 2291.99,-43.19 2433.5,-20.75 2436.28,-20.31 2439.14,-19.81 2442.02,-19.27"/>
<polygon fill="#63b8ff" stroke="#63b8ff" points="2044.58,-59.6 2034.87,-63.82 2045.09,-66.58 2044.58,-59.6"/>
</a>
</g>
</g>
<!-- Node26 -->
<g id="Node000026" class="node">
<title>Node26</title>
<g id="a_Node000026"><a xlink:href="kest__fixed__point_8c.html" target="_top" xlink:title=" ">
<polygon fill="white" stroke="#666666" points="2635.75,-20.75 2531.25,-20.75 2531.25,0 2635.75,0 2635.75,-20.75"/>
<text xml:space="preserve" text-anchor="middle" x="2583.5" y="-7.25" font-family="Helvetica,sans-Serif" font-size="10.00">kest_fixed_point.c</text>
</a>
</g>
</g>
<!-- Node3&#45;&gt;Node26 -->
<g id="edge25_Node000003_Node000026" class="edge">
<title>Node3&#45;&gt;Node26</title>
<g id="a_edge25_Node000003_Node000026"><a xlink:title=" ">
<path fill="none" stroke="#63b8ff" d="M2044.8,-63.27C2134.12,-57.19 2345.17,-41.75 2521.5,-20.75 2524.53,-20.39 2527.63,-20 2530.77,-19.58"/>
<polygon fill="#63b8ff" stroke="#63b8ff" points="2044.78,-59.77 2035.04,-63.93 2045.25,-66.75 2044.78,-59.77"/>
</a>
</g>
</g>
<!-- Node27 -->
<g id="Node000027" class="node">
<title>Node27</title>
<g id="a_Node000027"><a xlink:href="kest__footswitch_8c.html" target="_top" xlink:title=" ">
<polygon fill="white" stroke="#666666" points="2754.88,-20.75 2654.12,-20.75 2654.12,0 2754.88,0 2754.88,-20.75"/>
<text xml:space="preserve" text-anchor="middle" x="2704.5" y="-7.25" font-family="Helvetica,sans-Serif" font-size="10.00">kest_footswitch.c</text>
</a>
</g>
</g>
<!-- Node3&#45;&gt;Node27 -->
<g id="edge26_Node000003_Node000027" class="edge">
<title>Node3&#45;&gt;Node27</title>
<g id="a_edge26_Node000003_Node000027"><a xlink:title=" ">
<path fill="none" stroke="#63b8ff" d="M2044.59,-64.34C2148.19,-59.79 2419.38,-46.23 2644.5,-20.75 2647.54,-20.41 2650.66,-20.02 2653.8,-19.61"/>
<polygon fill="#63b8ff" stroke="#63b8ff" points="2044.72,-60.84 2034.88,-64.77 2045.02,-67.83 2044.72,-60.84"/>
</a>
</g>
</g>
<!-- Node28 -->
<g id="Node000028" class="node">
<title>Node28</title>
<g id="a_Node000028"><a xlink:href="kest__fpga__comms_8c.html" target="_top" xlink:title=" ">
<polygon fill="white" stroke="#666666" points="2885.88,-20.75 2773.12,-20.75 2773.12,0 2885.88,0 2885.88,-20.75"/>
<text xml:space="preserve" text-anchor="middle" x="2829.5" y="-7.25" font-family="Helvetica,sans-Serif" font-size="10.00">kest_fpga_comms.c</text>
</a>
</g>
</g>
<!-- Node3&#45;&gt;Node28 -->
<g id="edge27_Node000003_Node000028" class="edge">
<title>Node3&#45;&gt;Node28</title>
<g id="a_edge27_Node000003_Node000028"><a xlink:title=" ">
<path fill="none" stroke="#63b8ff" d="M2044.74,-64.79C2161.13,-60.92 2490.69,-48.2 2763.5,-20.75 2766.49,-20.45 2769.56,-20.11 2772.65,-19.75"/>
<polygon fill="#63b8ff" stroke="#63b8ff" points="2044.91,-61.28 2035.03,-65.11 2045.14,-68.28 2044.91,-61.28"/>
</a>
</g>
</g>
<!-- Node29 -->
<g id="Node000029" class="node">
<title>Node29</title>
<g id="a_Node000029"><a xlink:href="kest__fpga__encoding_8c.html" target="_top" xlink:title=" ">
<polygon fill="white" stroke="#666666" points="3025,-20.75 2904,-20.75 2904,0 3025,0 3025,-20.75"/>
<text xml:space="preserve" text-anchor="middle" x="2964.5" y="-7.25" font-family="Helvetica,sans-Serif" font-size="10.00">kest_fpga_encoding.c</text>
</a>
</g>
</g>
<!-- Node3&#45;&gt;Node29 -->
<g id="edge28_Node000003_Node000029" class="edge">
<title>Node3&#45;&gt;Node29</title>
<g id="a_edge28_Node000003_Node000029"><a xlink:title=" ">
<path fill="none" stroke="#63b8ff" d="M2044.94,-65.19C2174.41,-62.11 2568.84,-50.78 2894.5,-20.75 2897.55,-20.47 2900.68,-20.15 2903.83,-19.81"/>
<polygon fill="#63b8ff" stroke="#63b8ff" points="2045.03,-61.68 2035.12,-65.41 2045.2,-68.68 2045.03,-61.68"/>
</a>
</g>
</g>
<!-- Node30 -->
<g id="Node000030" class="node">
<title>Node30</title>
<g id="a_Node000030"><a xlink:href="kest__fpga__io_8c.html" target="_top" xlink:title=" ">
<polygon fill="white" stroke="#666666" points="3128.38,-20.75 3042.62,-20.75 3042.62,0 3128.38,0 3128.38,-20.75"/>
<text xml:space="preserve" text-anchor="middle" x="3085.5" y="-7.25" font-family="Helvetica,sans-Serif" font-size="10.00">kest_fpga_io.c</text>
</a>
</g>
</g>
<!-- Node3&#45;&gt;Node30 -->
<g id="edge29_Node000003_Node000030" class="edge">
<title>Node3&#45;&gt;Node30</title>
<g id="a_edge29_Node000003_Node000030"><a xlink:title=" ">
<path fill="none" stroke="#63b8ff" d="M2044.51,-66.35C2186.41,-66.66 2652.38,-64.05 3034.5,-20.75 3037,-20.47 3039.57,-20.13 3042.16,-19.76"/>
<polygon fill="#63b8ff" stroke="#63b8ff" points="2044.85,-62.85 2034.84,-66.33 2044.83,-69.85 2044.85,-62.85"/>
</a>
</g>
</g>
<!-- Node31 -->
<g id="Node000031" class="node">
<title>Node31</title>
<g id="a_Node000031"><a xlink:href="kest__int_8c.html" target="_top" xlink:title=" ">
<polygon fill="white" stroke="#666666" points="3208.75,-20.75 3146.25,-20.75 3146.25,0 3208.75,0 3208.75,-20.75"/>
<text xml:space="preserve" text-anchor="middle" x="3177.5" y="-7.25" font-family="Helvetica,sans-Serif" font-size="10.00">kest_int.c</text>
</a>
</g>
</g>
<!-- Node3&#45;&gt;Node31 -->
<g id="edge30_Node000003_Node000031" class="edge">
<title>Node3&#45;&gt;Node31</title>
<g id="a_edge30_Node000003_Node000031"><a xlink:title=" ">
<path fill="none" stroke="#63b8ff" d="M2044.77,-65.5C2225.47,-62.71 2920.39,-50.25 3137.5,-20.75 3140.33,-20.37 3143.25,-19.87 3146.16,-19.31"/>
<polygon fill="#63b8ff" stroke="#63b8ff" points="2044.84,-62 2034.9,-65.65 2044.95,-69 2044.84,-62"/>
</a>
</g>
</g>
<!-- Node32 -->
<g id="Node000032" class="node">
<title>Node32</title>
<g id="a_Node000032"><a xlink:href="kest__lv__log_8c.html" target="_top" xlink:title=" ">
<polygon fill="white" stroke="#666666" points="3306,-20.75 3227,-20.75 3227,0 3306,0 3306,-20.75"/>
<text xml:space="preserve" text-anchor="middle" x="3266.5" y="-7.25" font-family="Helvetica,sans-Serif" font-size="10.00">kest_lv_log.c</text>
</a>
</g>
</g>
<!-- Node3&#45;&gt;Node32 -->
<g id="edge31_Node000003_Node000032" class="edge">
<title>Node3&#45;&gt;Node32</title>
<g id="a_edge31_Node000003_Node000032"><a xlink:title=" ">
<path fill="none" stroke="#63b8ff" d="M2044.7,-65.39C2233.02,-62.07 2983.23,-47.38 3217.5,-20.75 3220.51,-20.41 3223.62,-19.98 3226.73,-19.51"/>
<polygon fill="#63b8ff" stroke="#63b8ff" points="2044.82,-61.89 2034.88,-65.56 2044.94,-68.89 2044.82,-61.89"/>
</a>
</g>
</g>
<!-- Node33 -->
<g id="Node000033" class="node">
<title>Node33</title>
<g id="a_Node000033"><a xlink:href="kest__menu_8c.html" target="_top" xlink:title=" ">
<polygon fill="white" stroke="#666666" points="3401.25,-20.75 3323.75,-20.75 3323.75,0 3401.25,0 3401.25,-20.75"/>
<text xml:space="preserve" text-anchor="middle" x="3362.5" y="-7.25" font-family="Helvetica,sans-Serif" font-size="10.00">kest_menu.c</text>
</a>
</g>
</g>
<!-- Node3&#45;&gt;Node33 -->
<g id="edge32_Node000003_Node000033" class="edge">
<title>Node3&#45;&gt;Node33</title>
<g id="a_edge32_Node000003_Node000033"><a xlink:title=" ">
<path fill="none" stroke="#63b8ff" d="M2044.95,-65.57C2242.96,-62.92 3061.09,-50.32 3315.5,-20.75 3318.06,-20.45 3320.69,-20.09 3323.34,-19.68"/>
<polygon fill="#63b8ff" stroke="#63b8ff" points="2045.07,-62.07 2035.12,-65.7 2045.16,-69.07 2045.07,-62.07"/>
</a>
</g>
</g>
<!-- Node34 -->
<g id="Node000034" class="node">
<title>Node34</title>
<g id="a_Node000034"><a xlink:href="kest__page__id_8c.html" target="_top" xlink:title=" ">
<polygon fill="white" stroke="#666666" points="3507.5,-20.75 3419.5,-20.75 3419.5,0 3507.5,0 3507.5,-20.75"/>
<text xml:space="preserve" text-anchor="middle" x="3463.5" y="-7.25" font-family="Helvetica,sans-Serif" font-size="10.00">kest_page_id.c</text>
</a>
</g>
</g>
<!-- Node3&#45;&gt;Node34 -->
<g id="edge33_Node000003_Node000034" class="edge">
<title>Node3&#45;&gt;Node34</title>
<g id="a_edge33_Node000003_Node000034"><a xlink:title=" ">
<path fill="none" stroke="#63b8ff" d="M2044.72,-65.57C2250.9,-62.77 3135.88,-49.31 3410.5,-20.75 3413.29,-20.46 3416.15,-20.11 3419.03,-19.72"/>
<polygon fill="#63b8ff" stroke="#63b8ff" points="2044.95,-62.06 2035,-65.7 2045.05,-69.06 2044.95,-62.06"/>
</a>
</g>
</g>
<!-- Node35 -->
<g id="Node000035" class="node">
<title>Node35</title>
<g id="a_Node000035"><a xlink:href="kest__param__update_8c.html" target="_top" xlink:title=" ">
<polygon fill="white" stroke="#666666" points="3645.62,-20.75 3525.38,-20.75 3525.38,0 3645.62,0 3645.62,-20.75"/>
<text xml:space="preserve" text-anchor="middle" x="3585.5" y="-7.25" font-family="Helvetica,sans-Serif" font-size="10.00">kest_param_update.c</text>
</a>
</g>
</g>
<!-- Node3&#45;&gt;Node35 -->
<g id="edge34_Node000003_Node000035" class="edge">
<title>Node3&#45;&gt;Node35</title>
<g id="a_edge34_Node000003_Node000035"><a xlink:title=" ">
<path fill="none" stroke="#63b8ff" d="M2044.92,-66.49C2225.61,-67.66 2935.57,-68.78 3516.5,-20.75 3519.27,-20.52 3522.1,-20.26 3524.96,-19.97"/>
<polygon fill="#63b8ff" stroke="#63b8ff" points="2045.09,-62.99 2035.07,-66.42 2045.04,-69.99 2045.09,-62.99"/>
</a>
</g>
</g>
<!-- Node36 -->
<g id="Node000036" class="node">
<title>Node36</title>
<g id="a_Node000036"><a xlink:href="kest__parameter_8c.html" target="_top" xlink:title=" ">
<polygon fill="white" stroke="#666666" points="3764.88,-20.75 3664.12,-20.75 3664.12,0 3764.88,0 3764.88,-20.75"/>
<text xml:space="preserve" text-anchor="middle" x="3714.5" y="-7.25" font-family="Helvetica,sans-Serif" font-size="10.00">kest_parameter.c</text>
</a>
</g>
</g>
<!-- Node3&#45;&gt;Node36 -->
<g id="edge35_Node000003_Node000036" class="edge">
<title>Node3&#45;&gt;Node36</title>
<g id="a_edge35_Node000003_Node000036"><a xlink:title=" ">
<path fill="none" stroke="#63b8ff" d="M2045.04,-65.68C2272.75,-63.25 3328.69,-50.55 3654.5,-20.75 3657.54,-20.47 3660.67,-20.14 3663.82,-19.76"/>
<polygon fill="#63b8ff" stroke="#63b8ff" points="2045.09,-62.18 2035.13,-65.79 2045.17,-69.18 2045.09,-62.18"/>
</a>
</g>
</g>
<!-- Node37 -->
<g id="Node000037" class="node">
<title>Node37</title>
<g id="a_Node000037"><a xlink:href="kest__parameter__widget_8c.html" target="_top" xlink:title=" ">
<polygon fill="white" stroke="#666666" points="3922,-20.75 3783,-20.75 3783,0 3922,0 3922,-20.75"/>
<text xml:space="preserve" text-anchor="middle" x="3852.5" y="-7.25" font-family="Helvetica,sans-Serif" font-size="10.00">kest_parameter_widget.c</text>
</a>
</g>
</g>
<!-- Node3&#45;&gt;Node37 -->
<g id="edge36_Node000003_Node000037" class="edge">
<title>Node3&#45;&gt;Node37</title>
<g id="a_edge36_Node000003_Node000037"><a xlink:title=" ">
<path fill="none" stroke="#63b8ff" d="M2044.96,-66.49C2243.64,-67.86 3085.42,-70.28 3773.5,-20.75 3776.53,-20.53 3779.62,-20.28 3782.75,-20.01"/>
<polygon fill="#63b8ff" stroke="#63b8ff" points="2045.13,-62.99 2035.11,-66.42 2045.08,-69.99 2045.13,-62.99"/>
</a>
</g>
</g>
<!-- Node38 -->
<g id="Node000038" class="node">
<title>Node38</title>
<g id="a_Node000038"><a xlink:href="kest__pipeline_8c.html" target="_top" xlink:title=" ">
<polygon fill="white" stroke="#666666" points="4028.88,-20.75 3940.12,-20.75 3940.12,0 4028.88,0 4028.88,-20.75"/>
<text xml:space="preserve" text-anchor="middle" x="3984.5" y="-7.25" font-family="Helvetica,sans-Serif" font-size="10.00">kest_pipeline.c</text>
</a>
</g>
</g>
<!-- Node3&#45;&gt;Node38 -->
<g id="edge37_Node000003_Node000038" class="edge">
<title>Node3&#45;&gt;Node38</title>
<g id="a_edge37_Node000003_Node000038"><a xlink:title=" ">
<path fill="none" stroke="#63b8ff" d="M2044.96,-66C2294.56,-65.14 3547.78,-58.98 3931.5,-20.75 3934.2,-20.48 3936.96,-20.15 3939.75,-19.78"/>
<polygon fill="#63b8ff" stroke="#63b8ff" points="2045.02,-62.5 2035.03,-66.03 2045.04,-69.5 2045.02,-62.5"/>
</a>
</g>
</g>
<!-- Node56&#45;&gt;Node2 -->
<g id="edge40_Node000056_Node000002" class="edge">
<title>Node56&#45;&gt;Node2</title>
<g id="a_edge40_Node000056_Node000002"><a xlink:title=" ">
<path fill="none" stroke="#63b8ff" d="M1890.01,-103.07C1885.46,-94.48 1880.34,-84.81 1876.64,-77.83"/>
<polygon fill="#63b8ff" stroke="#63b8ff" points="1886.83,-104.55 1894.61,-111.75 1893.02,-101.27 1886.83,-104.55"/>
</a>
</g>
</g>
<!-- Node56&#45;&gt;Node3 -->
<g id="edge41_Node000056_Node000003" class="edge">
<title>Node56&#45;&gt;Node3</title>
<g id="a_edge41_Node000056_Node000003"><a xlink:title=" ">
<path fill="none" stroke="#63b8ff" d="M1928.32,-107.79C1945.97,-98.23 1968.28,-86.13 1983.6,-77.83"/>
<polygon fill="#63b8ff" stroke="#63b8ff" points="1927.01,-104.52 1919.89,-112.37 1930.35,-110.68 1927.01,-104.52"/>
</a>
</g>
</g>
</g>
</svg>
