<?xml version="1.0" encoding="UTF-8" standalone="no"?>
<!DOCTYPE svg PUBLIC "-//W3C//DTD SVG 1.1//EN"
 "http://www.w3.org/Graphics/SVG/1.1/DTD/svg11.dtd">
<!-- Generated by graphviz version 13.1.2 (20250808.2320)
 -->
<!-- Title: kest_string_append_str Pages: 1 -->
<!--zoomable 260 -->

<svg id="main" version="1.1" xmlns="http://www.w3.org/2000/svg" xmlns:xlink="http://www.w3.org/1999/xlink" xml:space="preserve" onload="init(evt)">

<style type="text/css"><![CDATA[
.node, .edge {opacity: 0.7;}
.node.selected, .edge.selected {opacity: 1;}
.edge:hover path { stroke: red; }
.edge:hover polygon { stroke: red; fill: red; }
]]></style>

<defs>
  <circle id="rim" cx="0" cy="0" r="7"/>
  <circle id="rim2" cx="0" cy="0" r="3.5"/>
  <g id="zoomPlus">
    <use xlink:href="#rim" fill="#404040"><set attributeName="fill" to="#808080" begin="zoomplus.mouseover" end="zoomplus.mouseout"/></use>
    <path d="M-4,0h8M0,-4v8" fill="none" stroke="white" stroke-width="1.5" pointer-events="none"/>
  </g>
  <g id="zoomMin">
    <use xlink:href="#rim" fill="#404040"><set attributeName="fill" to="#808080" begin="zoomminus.mouseover" end="zoomminus.mouseout"/></use>
    <path d="M-4,0h8" fill="none" stroke="white" stroke-width="1.5" pointer-events="none"/>
  </g>
  <g id="arrowUp" transform="translate(30 24)">
    <use xlink:href="#rim"/>
    <path pointer-events="none" fill="none" stroke="white" stroke-width="1.5" d="M0,-3.0v7 M-2.5,-0.5L0,-3.0L2.5,-0.5"/>
  </g>
  <g id="arrowRight" transform="rotate(90) translate(36 -43)">
    <use xlink:href="#rim"/>
    <path pointer-events="none" fill="none" stroke="white" stroke-width="1.5" d="M0,-3.0v7 M-2.5,-0.5L0,-3.0L2.5,-0.5"/>
  </g>
  <g id="arrowDown" transform="rotate(180) translate(-30 -48)">
    <use xlink:href="#rim"/>
    <path pointer-events="none" fill="none" stroke="white" stroke-width="1.5" d="M0,-3.0v7 M-2.5,-0.5L0,-3.0L2.5,-0.5"/>
  </g>
  <g id="arrowLeft" transform="rotate(270) translate(-36 17)">
    <use xlink:href="#rim"/>
    <path pointer-events="none" fill="none" stroke="white" stroke-width="1.5" d="M0,-3.0v7 M-2.5,-0.5L0,-3.0L2.5,-0.5"/>
  </g>
  <g id="resetDef">
    <use xlink:href="#rim2" fill="#404040"><set attributeName="fill" to="#808080" begin="reset.mouseover" end="reset.mouseout"/></use>
  </g>
</defs>
<script type="application/ecmascript">
var viewWidth = 949;
var viewHeight = 260;
var sectionId = 'dynsection-3';
</script>
<script type="application/ecmascript" xlink:href="svg.min.js"/>
<svg id="graph" class="graph">
<g id="viewport">
<title>kest_string_append_str</title>
<!-- Node1 -->
<g id="Node000001" class="node">
<title>Node1</title>
<g id="a_Node000001"><a xlink:title=" ">
<polygon fill="#999999" stroke="#666666" points="941.25,-220.12 812.75,-220.12 812.75,-199.38 941.25,-199.38 941.25,-220.12"/>
<text xml:space="preserve" text-anchor="middle" x="877" y="-206.62" font-family="Helvetica,sans-Serif" font-size="10.00">kest_string_append_str</text>
</a>
</g>
</g>
<!-- Node2 -->
<g id="Node000002" class="node">
<title>Node2</title>
<g id="a_Node000002"><a xlink:href="kest__dictionary_8c.html#a8db4f9c511b00d7240052135e9c1ed67" target="_top" xlink:title=" ">
<polygon fill="white" stroke="#666666" points="426,-252.12 314,-252.12 314,-231.38 426,-231.38 426,-252.12"/>
<text xml:space="preserve" text-anchor="middle" x="370" y="-238.62" font-family="Helvetica,sans-Serif" font-size="10.00">kest_parse_dict_list</text>
</a>
</g>
</g>
<!-- Node1&#45;&gt;Node2 -->
<g id="edge1_Node000001_Node000002" class="edge">
<title>Node1&#45;&gt;Node2</title>
<g id="a_edge1_Node000001_Node000002"><a xlink:title=" ">
<path fill="none" stroke="#63b8ff" d="M816.33,-222.75C803.34,-225.13 789.63,-227.32 776.75,-228.75 652.06,-242.6 504.61,-243.47 426.32,-242.72"/>
<polygon fill="#63b8ff" stroke="#63b8ff" points="816.86,-226.21 826.03,-220.89 815.55,-219.33 816.86,-226.21"/>
</a>
</g>
</g>
<!-- Node12 -->
<g id="Node000012" class="node">
<title>Node12</title>
<g id="a_Node000012"><a xlink:href="kest__string_8c.html#ad24c6cf21c6292f5f234cc2232d6c333" target="_top" xlink:title=" ">
<polygon fill="white" stroke="#666666" points="776.75,-220.12 648.25,-220.12 648.25,-199.38 776.75,-199.38 776.75,-220.12"/>
<text xml:space="preserve" text-anchor="middle" x="712.5" y="-206.62" font-family="Helvetica,sans-Serif" font-size="10.00">kest_string_append_int</text>
</a>
</g>
</g>
<!-- Node1&#45;&gt;Node12 -->
<g id="edge6_Node000001_Node000012" class="edge">
<title>Node1&#45;&gt;Node12</title>
<g id="a_edge6_Node000001_Node000012"><a xlink:title=" ">
<path fill="none" stroke="#63b8ff" d="M801.36,-209.75C793.27,-209.75 785.1,-209.75 777.15,-209.75"/>
<polygon fill="#63b8ff" stroke="#63b8ff" points="801.19,-213.25 811.19,-209.75 801.19,-206.25 801.19,-213.25"/>
</a>
</g>
</g>
<!-- Node13 -->
<g id="Node000013" class="node">
<title>Node13</title>
<g id="a_Node000013"><a xlink:href="kest__string_8c.html#a5e8184b1f070fc74a7d1d2f08c4d9658" target="_top" xlink:title=" ">
<polygon fill="white" stroke="#666666" points="769.62,-169.12 655.38,-169.12 655.38,-148.38 769.62,-148.38 769.62,-169.12"/>
<text xml:space="preserve" text-anchor="middle" x="712.5" y="-155.62" font-family="Helvetica,sans-Serif" font-size="10.00">kest_string_appendf</text>
</a>
</g>
</g>
<!-- Node1&#45;&gt;Node13 -->
<g id="edge7_Node000001_Node000013" class="edge">
<title>Node1&#45;&gt;Node13</title>
<g id="a_edge7_Node000001_Node000013"><a xlink:title=" ">
<path fill="none" stroke="#63b8ff" d="M830.73,-195.54C804.51,-187.31 772.03,-177.12 747.91,-169.55"/>
<polygon fill="#63b8ff" stroke="#63b8ff" points="829.5,-198.83 840.09,-198.48 831.6,-192.15 829.5,-198.83"/>
</a>
</g>
</g>
<!-- Node3 -->
<g id="Node000003" class="node">
<title>Node3</title>
<g id="a_Node000003"><a xlink:href="kest__dictionary_8c.html#af0aceaa93cba06fd44ad4bc50f2418e4" target="_top" xlink:title=" ">
<polygon fill="white" stroke="#666666" points="270.5,-252.12 158.5,-252.12 158.5,-231.38 270.5,-231.38 270.5,-252.12"/>
<text xml:space="preserve" text-anchor="middle" x="214.5" y="-238.62" font-family="Helvetica,sans-Serif" font-size="10.00">kest_parse_dict_val</text>
</a>
</g>
</g>
<!-- Node2&#45;&gt;Node3 -->
<g id="edge2_Node000002_Node000003" class="edge">
<title>Node2&#45;&gt;Node3</title>
<g id="a_edge2_Node000002_Node000003"><a xlink:title=" ">
<path fill="none" stroke="#63b8ff" d="M302.32,-235.05C291.81,-234.94 281.05,-235.01 270.84,-235.24"/>
<polygon fill="#63b8ff" stroke="#63b8ff" points="302.01,-238.55 312.07,-235.21 302.13,-231.55 302.01,-238.55"/>
</a>
</g>
</g>
<!-- Node3&#45;&gt;Node2 -->
<g id="edge3_Node000003_Node000002" class="edge">
<title>Node3&#45;&gt;Node2</title>
<g id="a_edge3_Node000003_Node000002"><a xlink:title=" ">
<path fill="none" stroke="#63b8ff" d="M282.1,-248.45C292.6,-248.56 303.37,-248.5 313.58,-248.26"/>
<polygon fill="#63b8ff" stroke="#63b8ff" points="282.41,-244.95 272.35,-248.29 282.29,-251.95 282.41,-244.95"/>
</a>
</g>
</g>
<!-- Node4 -->
<g id="Node000004" class="node">
<title>Node4</title>
<g id="a_Node000004"><a xlink:href="kest__dictionary_8c.html#aae3fbdeba250be8f6dd3dfa686eb24a8" target="_top" xlink:title=" ">
<polygon fill="#fff0f0" stroke="red" points="122.5,-252.12 0,-252.12 0,-231.38 122.5,-231.38 122.5,-252.12"/>
<text xml:space="preserve" text-anchor="middle" x="61.25" y="-238.62" font-family="Helvetica,sans-Serif" font-size="10.00">kest_parse_dictionary</text>
</a>
</g>
</g>
<!-- Node3&#45;&gt;Node4 -->
<g id="edge4_Node000003_Node000004" class="edge">
<title>Node3&#45;&gt;Node4</title>
<g id="a_edge4_Node000003_Node000004"><a xlink:title=" ">
<path fill="none" stroke="#63b8ff" d="M146.58,-235.04C138.66,-234.97 130.62,-234.99 122.8,-235.12"/>
<polygon fill="#63b8ff" stroke="#63b8ff" points="146.47,-238.54 156.53,-235.19 146.58,-231.54 146.47,-238.54"/>
</a>
</g>
</g>
<!-- Node4&#45;&gt;Node3 -->
<g id="edge5_Node000004_Node000003" class="edge">
<title>Node4&#45;&gt;Node3</title>
<g id="a_edge5_Node000004_Node000003"><a xlink:title=" ">
<path fill="none" stroke="#63b8ff" d="M134.1,-248.49C142.14,-248.52 150.25,-248.45 158.04,-248.28"/>
<polygon fill="#63b8ff" stroke="#63b8ff" points="134.35,-244.99 124.32,-248.39 134.28,-251.99 134.35,-244.99"/>
</a>
</g>
</g>
<!-- Node13&#45;&gt;Node2 -->
<g id="edge17_Node000013_Node000002" class="edge">
<title>Node13&#45;&gt;Node2</title>
<g id="a_edge17_Node000013_Node000002"><a xlink:title=" ">
<path fill="none" stroke="#63b8ff" d="M680.92,-174.76C661.69,-184.21 636.07,-195.67 612.25,-202.75 549.82,-221.3 475.52,-231.62 426.03,-236.92"/>
<polygon fill="#63b8ff" stroke="#63b8ff" points="682.46,-177.91 689.82,-170.3 679.32,-171.65 682.46,-177.91"/>
</a>
</g>
</g>
<!-- Node14 -->
<g id="Node000014" class="node">
<title>Node14</title>
<g id="a_Node000014"><a xlink:href="kest__dictionary_8c.html#a298bc3ea15bffee0e485de36aea099c2" target="_top" xlink:title=" ">
<polygon fill="white" stroke="#666666" points="593.5,-175.5 488.25,-175.5 488.25,-142 593.5,-142 593.5,-175.5"/>
<text xml:space="preserve" text-anchor="start" x="496.25" y="-162" font-family="Helvetica,sans-Serif" font-size="10.00">kest_dict_entry_to</text>
<text xml:space="preserve" text-anchor="middle" x="540.88" y="-149.25" font-family="Helvetica,sans-Serif" font-size="10.00">_string</text>
</a>
</g>
</g>
<!-- Node13&#45;&gt;Node14 -->
<g id="edge8_Node000013_Node000014" class="edge">
<title>Node13&#45;&gt;Node14</title>
<g id="a_edge8_Node000013_Node000014"><a xlink:title=" ">
<path fill="none" stroke="#63b8ff" d="M643.69,-158.75C627.08,-158.75 609.55,-158.75 593.82,-158.75"/>
<polygon fill="#63b8ff" stroke="#63b8ff" points="643.5,-162.25 653.5,-158.75 643.5,-155.25 643.5,-162.25"/>
</a>
</g>
</g>
<!-- Node20 -->
<g id="Node000020" class="node">
<title>Node20</title>
<g id="a_Node000020"><a xlink:href="kest__dictionary_8c.html#a2a60847422026db5eab8103cd8ea1dc5" target="_top" xlink:title=" ">
<polygon fill="#fff0f0" stroke="red" points="400.88,-124.12 339.12,-124.12 339.12,-103.38 400.88,-103.38 400.88,-124.12"/>
<text xml:space="preserve" text-anchor="middle" x="370" y="-110.62" font-family="Helvetica,sans-Serif" font-size="10.00">print_dict</text>
</a>
</g>
</g>
<!-- Node13&#45;&gt;Node20 -->
<g id="edge18_Node000013_Node000020" class="edge">
<title>Node13&#45;&gt;Node20</title>
<g id="a_edge18_Node000013_Node000020"><a xlink:title=" ">
<path fill="none" stroke="#63b8ff" d="M665.39,-144.85C648.78,-140.33 629.8,-135.72 612.25,-132.75 537.06,-120.04 447.22,-115.8 401.3,-114.41"/>
<polygon fill="#63b8ff" stroke="#63b8ff" points="664.43,-148.22 675,-147.54 666.31,-141.48 664.43,-148.22"/>
</a>
</g>
</g>
<!-- Node21 -->
<g id="Node000021" class="node">
<title>Node21</title>
<g id="a_Node000021"><a xlink:href="kest__fixed__point_8c.html#ac5145d24cb0e25a237f9c8d30b8fc0d2" target="_top" xlink:title=" ">
<polygon fill="white" stroke="#666666" points="612.25,-85.5 469.5,-85.5 469.5,-52 612.25,-52 612.25,-85.5"/>
<text xml:space="preserve" text-anchor="start" x="477.5" y="-72" font-family="Helvetica,sans-Serif" font-size="10.00">kest_expression_compute</text>
<text xml:space="preserve" text-anchor="middle" x="540.88" y="-59.25" font-family="Helvetica,sans-Serif" font-size="10.00">_format</text>
</a>
</g>
</g>
<!-- Node13&#45;&gt;Node21 -->
<g id="edge14_Node000013_Node000021" class="edge">
<title>Node13&#45;&gt;Node21</title>
<g id="a_edge14_Node000013_Node000021"><a xlink:title=" ">
<path fill="none" stroke="#63b8ff" d="M685.48,-142.1C665.74,-129.76 637.74,-112.88 612.25,-99.75 602.99,-94.98 592.84,-90.24 583.2,-85.95"/>
<polygon fill="#63b8ff" stroke="#63b8ff" points="683.39,-144.92 693.71,-147.29 687.12,-139 683.39,-144.92"/>
</a>
</g>
</g>
<!-- Node14&#45;&gt;Node2 -->
<g id="edge11_Node000014_Node000002" class="edge">
<title>Node14&#45;&gt;Node2</title>
<g id="a_edge11_Node000014_Node000002"><a xlink:title=" ">
<path fill="none" stroke="#63b8ff" d="M501.61,-181.68C481.66,-193.19 456.64,-206.95 433.5,-217.75 423.28,-222.52 411.84,-227.12 401.56,-230.99"/>
<polygon fill="#63b8ff" stroke="#63b8ff" points="503.36,-184.71 510.24,-176.65 499.84,-178.66 503.36,-184.71"/>
</a>
</g>
</g>
<!-- Node14&#45;&gt;Node3 -->
<g id="edge12_Node000014_Node000003" class="edge">
<title>Node14&#45;&gt;Node3</title>
<g id="a_edge12_Node000014_Node000003"><a xlink:title=" ">
<path fill="none" stroke="#63b8ff" d="M476.9,-174.86C412.25,-191.41 313.45,-216.69 257.67,-230.96"/>
<polygon fill="#63b8ff" stroke="#63b8ff" points="477.47,-178.33 486.29,-172.46 475.74,-171.55 477.47,-178.33"/>
</a>
</g>
</g>
<!-- Node14&#45;&gt;Node14 -->
<g id="edge9_Node000014_Node000014" class="edge">
<title>Node14&#45;&gt;Node14</title>
<g id="a_edge9_Node000014_Node000014"><a xlink:title=" ">
<path fill="none" stroke="#63b8ff" d="M569.57,-186.89C564.89,-190.85 555.33,-193.5 540.88,-193.5 515.18,-193.5 504.94,-185.12 510.16,-175.91"/>
<polygon fill="#63b8ff" stroke="#63b8ff" points="572.94,-187.87 571.32,-177.4 566.06,-186.6 572.94,-187.87"/>
</a>
</g>
</g>
<!-- Node15 -->
<g id="Node000015" class="node">
<title>Node15</title>
<g id="a_Node000015"><a xlink:href="kest__dict__extract_8c.html#ac9cee86a595df863e15b7693b86635b7" target="_top" xlink:title=" ">
<polygon fill="#fff0f0" stroke="red" points="422.25,-175.5 317.75,-175.5 317.75,-142 422.25,-142 422.25,-175.5"/>
<text xml:space="preserve" text-anchor="start" x="325.75" y="-162" font-family="Helvetica,sans-Serif" font-size="10.00">kest_extract_filter</text>
<text xml:space="preserve" text-anchor="middle" x="370" y="-149.25" font-family="Helvetica,sans-Serif" font-size="10.00">_coefs_from_dict</text>
</a>
</g>
</g>
<!-- Node14&#45;&gt;Node15 -->
<g id="edge10_Node000014_Node000015" class="edge">
<title>Node14&#45;&gt;Node15</title>
<g id="a_edge10_Node000014_Node000015"><a xlink:title=" ">
<path fill="none" stroke="#63b8ff" d="M476.39,-158.75C458.63,-158.75 439.56,-158.75 422.58,-158.75"/>
<polygon fill="#63b8ff" stroke="#63b8ff" points="476.32,-162.25 486.32,-158.75 476.32,-155.25 476.32,-162.25"/>
</a>
</g>
</g>
<!-- Node14&#45;&gt;Node20 -->
<g id="edge13_Node000014_Node000020" class="edge">
<title>Node14&#45;&gt;Node20</title>
<g id="a_edge13_Node000014_Node000020"><a xlink:title=" ">
<path fill="none" stroke="#63b8ff" d="M476.9,-141.97C450.92,-135.05 422.04,-127.35 401.01,-121.75"/>
<polygon fill="#63b8ff" stroke="#63b8ff" points="475.8,-145.3 486.37,-144.49 477.6,-138.53 475.8,-145.3"/>
</a>
</g>
</g>
<!-- Node22 -->
<g id="Node000022" class="node">
<title>Node22</title>
<g id="a_Node000022"><a xlink:href="kest__reg__format_8c.html#a2a23995382c692cce714a167deb0b94c" target="_top" xlink:title=" ">
<polygon fill="#fff0f0" stroke="red" points="433.5,-85.5 306.5,-85.5 306.5,-52 433.5,-52 433.5,-85.5"/>
<text xml:space="preserve" text-anchor="start" x="314.5" y="-72" font-family="Helvetica,sans-Serif" font-size="10.00">kest_compute_register</text>
<text xml:space="preserve" text-anchor="middle" x="370" y="-59.25" font-family="Helvetica,sans-Serif" font-size="10.00">_formats</text>
</a>
</g>
</g>
<!-- Node21&#45;&gt;Node22 -->
<g id="edge15_Node000021_Node000022" class="edge">
<title>Node21&#45;&gt;Node22</title>
<g id="a_edge15_Node000021_Node000022"><a xlink:title=" ">
<path fill="none" stroke="#63b8ff" d="M457.86,-68.75C449.78,-68.75 441.67,-68.75 433.83,-68.75"/>
<polygon fill="#63b8ff" stroke="#63b8ff" points="457.72,-72.25 467.72,-68.75 457.72,-65.25 457.72,-72.25"/>
</a>
</g>
</g>
<!-- Node24 -->
<g id="Node000024" class="node">
<title>Node24</title>
<g id="a_Node000024"><a xlink:href="kest__fixed__point_8c.html#af6f5122d04445665987167d50319ac6f" target="_top" xlink:title=" ">
<polygon fill="#fff0f0" stroke="red" points="426.38,-33.5 313.62,-33.5 313.62,0 426.38,0 426.38,-33.5"/>
<text xml:space="preserve" text-anchor="start" x="321.62" y="-20" font-family="Helvetica,sans-Serif" font-size="10.00">kest_filter_compute</text>
<text xml:space="preserve" text-anchor="middle" x="370" y="-7.25" font-family="Helvetica,sans-Serif" font-size="10.00">_format</text>
</a>
</g>
</g>
<!-- Node21&#45;&gt;Node24 -->
<g id="edge16_Node000021_Node000024" class="edge">
<title>Node21&#45;&gt;Node24</title>
<g id="a_edge16_Node000021_Node000024"><a xlink:title=" ">
<path fill="none" stroke="#63b8ff" d="M473.54,-48.33C458.04,-43.55 441.69,-38.52 426.71,-33.9"/>
<polygon fill="#63b8ff" stroke="#63b8ff" points="472.08,-51.54 482.66,-51.13 474.14,-44.85 472.08,-51.54"/>
</a>
</g>
</g>
</g>
</svg>

<g id="navigator" transform="translate(0 0)" fill="#404254">
  <rect fill="#f2f5e9" fill-opacity="0.5" stroke="#606060" stroke-width=".5" x="0" y="0" width="60" height="60"/>
  <use id="zoomplus" xlink:href="#zoomPlus" x="17" y="9" onmousedown="handleZoom(evt,'in')"/>
  <use id="zoomminus" xlink:href="#zoomMin" x="42" y="9" onmousedown="handleZoom(evt,'out')"/>
  <use id="reset" xlink:href="#resetDef" x="30" y="36" onmousedown="handleReset()"/>
   <use id="arrowup" xlink:href="#arrowUp" x="0" y="0" onmousedown="handlePan(0,-1)"/>
  <use id="arrowright" xlink:href="#arrowRight" x="0" y="0" onmousedown="handlePan(1,0)"/>
  <use id="arrowdown" xlink:href="#arrowDown" x="0" y="0" onmousedown="handlePan(0,1)"/>
  <use id="arrowleft" xlink:href="#arrowLeft" x="0" y="0" onmousedown="handlePan(-1,0)"/>
</g>
<svg viewBox="0 0 15 15" width="100%" height="30px" preserveAspectRatio="xMaxYMin meet">
 <g id="arrow_out" transform="scale(0.3 0.3)">
  <a xlink:href="kest__string_8c_ab38fd4531ec8be3f9c32f467f6808951_icgraph_org.svg" target="_base">
   <rect id="button" ry="5" rx="5" y="6" x="6" height="38" width="38"
        fill="#f2f5e9" fill-opacity="0.5" stroke="#606060" stroke-width="1.0"/>
   <path id="arrow"
     d="M 11.500037,31.436501 C 11.940474,20.09759 22.043105,11.32322 32.158766,21.979434 L 37.068811,17.246167 C 37.068811,17.246167 37.088388,32 37.088388,32 L 22.160133,31.978069 C 22.160133,31.978069 26.997745,27.140456 26.997745,27.140456 C 18.528582,18.264221 13.291696,25.230495 11.500037,31.436501 z"
     style="fill:#404040;"/>
  </a>
 </g>
</svg>

<style type='text/css'>
<![CDATA[
[data-mouse-over-selected='false'] { opacity: 0.7; }
[data-mouse-over-selected='true']  { opacity: 1.0; }
]]>
</style>
<script type="application/ecmascript"><![CDATA[
document.addEventListener('DOMContentLoaded', (event) => {
  highlightEdges();
  highlightAdjacentNodes();
});
]]></script>
</svg>
