<?xml version="1.0" encoding="UTF-8" standalone="no"?>
<!DOCTYPE svg PUBLIC "-//W3C//DTD SVG 1.1//EN"
 "http://www.w3.org/Graphics/SVG/1.1/DTD/svg11.dtd">
<!-- Generated by graphviz version 13.1.2 (20250808.2320)
 -->
<!-- Title: kest_fpga_batch_append_block_register_updates Pages: 1 -->
<svg width="898pt" height="195pt"
 viewBox="0.00 0.00 898.00 195.00" xmlns="http://www.w3.org/2000/svg" xmlns:xlink="http://www.w3.org/1999/xlink">
<g id="graph0" class="graph" transform="scale(1 1) rotate(0) translate(4 191.12)">
<title>kest_fpga_batch_append_block_register_updates</title>
<!-- Node1 -->
<g id="Node000001" class="node">
<title>Node1</title>
<g id="a_Node000001"><a xlink:title=" ">
<polygon fill="#999999" stroke="#666666" points="136.75,-116.5 0,-116.5 0,-83 136.75,-83 136.75,-116.5"/>
<text xml:space="preserve" text-anchor="start" x="8" y="-103" font-family="Helvetica,sans-Serif" font-size="10.00">kest_fpga_batch_append</text>
<text xml:space="preserve" text-anchor="middle" x="68.38" y="-90.25" font-family="Helvetica,sans-Serif" font-size="10.00">_block_register_updates</text>
</a>
</g>
</g>
<!-- Node2 -->
<g id="Node000002" class="node">
<title>Node2</title>
<g id="a_Node000002"><a xlink:href="kest__fixed__point_8c.html#a1580bc2204b9b5083cfb04e1e883ea35" target="_top" xlink:title=" ">
<polygon fill="white" stroke="#666666" points="300.12,-187.12 188.12,-187.12 188.12,-166.38 300.12,-166.38 300.12,-187.12"/>
<text xml:space="preserve" text-anchor="middle" x="244.12" y="-173.62" font-family="Helvetica,sans-Serif" font-size="10.00">float_to_q_nminus1</text>
</a>
</g>
</g>
<!-- Node1&#45;&gt;Node2 -->
<g id="edge1_Node000001_Node000002" class="edge">
<title>Node1&#45;&gt;Node2</title>
<g id="a_edge1_Node000001_Node000002"><a xlink:title=" ">
<path fill="none" stroke="#63b8ff" d="M96.18,-116.74C116.57,-129.12 145.65,-145.6 172.75,-156.75 177.7,-158.79 182.93,-160.7 188.21,-162.46"/>
<polygon fill="#63b8ff" stroke="#63b8ff" points="187.02,-165.76 197.61,-165.43 189.13,-159.08 187.02,-165.76"/>
</a>
</g>
</g>
<!-- Node3 -->
<g id="Node000003" class="node">
<title>Node3</title>
<g id="a_Node000003"><a xlink:href="kest__expression_8c.html#acf37e49d77d8bcdaa88727bd67c146fa" target="_top" xlink:title=" ">
<polygon fill="white" stroke="#666666" points="315.5,-148.12 172.75,-148.12 172.75,-127.38 315.5,-127.38 315.5,-148.12"/>
<text xml:space="preserve" text-anchor="middle" x="244.12" y="-134.62" font-family="Helvetica,sans-Serif" font-size="10.00">kest_expression_evaluate</text>
</a>
</g>
</g>
<!-- Node1&#45;&gt;Node3 -->
<g id="edge2_Node000001_Node000003" class="edge">
<title>Node1&#45;&gt;Node3</title>
<g id="a_edge2_Node000001_Node000003"><a xlink:title=" ">
<path fill="none" stroke="#63b8ff" d="M137.05,-114.55C152.08,-117.84 167.92,-121.3 182.65,-124.52"/>
<polygon fill="#63b8ff" stroke="#63b8ff" points="181.66,-127.89 192.18,-126.61 183.16,-121.05 181.66,-127.89"/>
</a>
</g>
</g>
<!-- Node4 -->
<g id="Node000004" class="node">
<title>Node4</title>
<g id="a_Node000004"><a xlink:href="kest__fpga__io_8c.html#a6900c9b759f1dccf1b3535cc76ad83e3" target="_top" xlink:title=" ">
<polygon fill="white" stroke="#666666" points="678.25,-69.12 541.5,-69.12 541.5,-48.38 678.25,-48.38 678.25,-69.12"/>
<text xml:space="preserve" text-anchor="middle" x="609.88" y="-55.62" font-family="Helvetica,sans-Serif" font-size="10.00">kest_fpga_batch_append</text>
</a>
</g>
</g>
<!-- Node1&#45;&gt;Node4 -->
<g id="edge3_Node000001_Node000004" class="edge">
<title>Node1&#45;&gt;Node4</title>
<g id="a_edge3_Node000001_Node000004"><a xlink:title=" ">
<path fill="none" stroke="#63b8ff" d="M137.22,-99.08C223.19,-97.61 375.79,-92.88 505.5,-77.75 518.74,-76.21 532.84,-74 546.23,-71.63"/>
<polygon fill="#63b8ff" stroke="#63b8ff" points="546.58,-75.12 555.79,-69.88 545.33,-68.23 546.58,-75.12"/>
</a>
</g>
</g>
<!-- Node8 -->
<g id="Node000008" class="node">
<title>Node8</title>
<g id="a_Node000008"><a xlink:href="kest__fpga__io_8c.html#a1d6d30e20ceac79973b36fd12e790aa5" target="_top" xlink:title=" ">
<polygon fill="white" stroke="#666666" points="505.5,-69.12 351.5,-69.12 351.5,-48.38 505.5,-48.38 505.5,-69.12"/>
<text xml:space="preserve" text-anchor="middle" x="428.5" y="-55.62" font-family="Helvetica,sans-Serif" font-size="10.00">kest_fpga_batch_append_16</text>
</a>
</g>
</g>
<!-- Node1&#45;&gt;Node8 -->
<g id="edge7_Node000001_Node000008" class="edge">
<title>Node1&#45;&gt;Node8</title>
<g id="a_edge7_Node000001_Node000008"><a xlink:title=" ">
<path fill="none" stroke="#63b8ff" d="M137.18,-90.28C149.03,-88.71 161.24,-87.14 172.75,-85.75 228.26,-79.05 290.68,-72.42 339.84,-67.41"/>
<polygon fill="#63b8ff" stroke="#63b8ff" points="339.97,-70.91 349.57,-66.42 339.27,-63.95 339.97,-70.91"/>
</a>
</g>
</g>
<!-- Node9 -->
<g id="Node000009" class="node">
<title>Node9</title>
<g id="a_Node000009"><a xlink:href="kest__fpga__encoding_8c.html#a9b93bb2d500d5c9986515930a0f9ce47" target="_top" xlink:title=" ">
<polygon fill="white" stroke="#666666" points="312.5,-33.5 175.75,-33.5 175.75,0 312.5,0 312.5,-33.5"/>
<text xml:space="preserve" text-anchor="start" x="183.75" y="-20" font-family="Helvetica,sans-Serif" font-size="10.00">kest_fpga_batch_append</text>
<text xml:space="preserve" text-anchor="middle" x="244.12" y="-7.25" font-family="Helvetica,sans-Serif" font-size="10.00">_block_number</text>
</a>
</g>
</g>
<!-- Node1&#45;&gt;Node9 -->
<g id="edge9_Node000001_Node000009" class="edge">
<title>Node1&#45;&gt;Node9</title>
<g id="a_edge9_Node000001_Node000009"><a xlink:title=" ">
<path fill="none" stroke="#63b8ff" d="M102.22,-82.69C122.43,-72.32 148.94,-58.97 172.75,-47.75 179.17,-44.72 185.96,-41.62 192.68,-38.6"/>
<polygon fill="#63b8ff" stroke="#63b8ff" points="194.05,-41.82 201.76,-34.55 191.2,-35.43 194.05,-41.82"/>
</a>
</g>
</g>
<!-- Node5 -->
<g id="Node000005" class="node">
<title>Node5</title>
<g id="a_Node000005"><a xlink:href="kest__alloc_8c.html#ac3afebacd5118241e9f677df59a469b0" target="_top" xlink:title=" ">
<polygon fill="white" stroke="#666666" points="788.75,-69.12 714.25,-69.12 714.25,-48.38 788.75,-48.38 788.75,-69.12"/>
<text xml:space="preserve" text-anchor="middle" x="751.5" y="-55.62" font-family="Helvetica,sans-Serif" font-size="10.00">kest_realloc</text>
</a>
</g>
</g>
<!-- Node4&#45;&gt;Node5 -->
<g id="edge4_Node000004_Node000005" class="edge">
<title>Node4&#45;&gt;Node5</title>
<g id="a_edge4_Node000004_Node000005"><a xlink:title=" ">
<path fill="none" stroke="#63b8ff" d="M678.64,-58.75C686.76,-58.75 694.92,-58.75 702.68,-58.75"/>
<polygon fill="#63b8ff" stroke="#63b8ff" points="702.56,-62.25 712.56,-58.75 702.56,-55.25 702.56,-62.25"/>
</a>
</g>
</g>
<!-- Node6 -->
<g id="Node000006" class="node">
<title>Node6</title>
<g id="a_Node000006"><a xlink:href="kest__alloc_8c.html#a849755c5dc5b35e712ffcdb602e50fb4" target="_top" xlink:title=" ">
<polygon fill="white" stroke="#666666" points="889.5,-89.12 824.75,-89.12 824.75,-68.38 889.5,-68.38 889.5,-89.12"/>
<text xml:space="preserve" text-anchor="middle" x="857.12" y="-75.62" font-family="Helvetica,sans-Serif" font-size="10.00">kest_alloc</text>
</a>
</g>
</g>
<!-- Node5&#45;&gt;Node6 -->
<g id="edge5_Node000005_Node000006" class="edge">
<title>Node5&#45;&gt;Node6</title>
<g id="a_edge5_Node000005_Node000006"><a xlink:title=" ">
<path fill="none" stroke="#63b8ff" d="M789.03,-65.8C796.88,-67.31 805.23,-68.93 813.29,-70.48"/>
<polygon fill="#63b8ff" stroke="#63b8ff" points="812.42,-73.88 822.91,-72.34 813.75,-67.01 812.42,-73.88"/>
</a>
</g>
</g>
<!-- Node7 -->
<g id="Node000007" class="node">
<title>Node7</title>
<g id="a_Node000007"><a xlink:href="kest__alloc_8c.html#a294af5728a94aa316fcf65304d388d48" target="_top" xlink:title=" ">
<polygon fill="white" stroke="#666666" points="887.62,-50.12 826.62,-50.12 826.62,-29.38 887.62,-29.38 887.62,-50.12"/>
<text xml:space="preserve" text-anchor="middle" x="857.12" y="-36.62" font-family="Helvetica,sans-Serif" font-size="10.00">kest_free</text>
</a>
</g>
</g>
<!-- Node5&#45;&gt;Node7 -->
<g id="edge6_Node000005_Node000007" class="edge">
<title>Node5&#45;&gt;Node7</title>
<g id="a_edge6_Node000005_Node000007"><a xlink:title=" ">
<path fill="none" stroke="#63b8ff" d="M789.03,-52.05C797.54,-50.49 806.65,-48.82 815.33,-47.23"/>
<polygon fill="#63b8ff" stroke="#63b8ff" points="815.71,-50.72 824.92,-45.47 814.45,-43.83 815.71,-50.72"/>
</a>
</g>
</g>
<!-- Node8&#45;&gt;Node4 -->
<g id="edge8_Node000008_Node000004" class="edge">
<title>Node8&#45;&gt;Node4</title>
<g id="a_edge8_Node000008_Node000004"><a xlink:title=" ">
<path fill="none" stroke="#63b8ff" d="M505.83,-58.75C513.71,-58.75 521.73,-58.75 529.64,-58.75"/>
<polygon fill="#63b8ff" stroke="#63b8ff" points="529.61,-62.25 539.61,-58.75 529.61,-55.25 529.61,-62.25"/>
</a>
</g>
</g>
<!-- Node9&#45;&gt;Node4 -->
<g id="edge10_Node000009_Node000004" class="edge">
<title>Node9&#45;&gt;Node4</title>
<g id="a_edge10_Node000009_Node000004"><a xlink:title=" ">
<path fill="none" stroke="#63b8ff" d="M312.75,-20.98C365.42,-24.69 440.3,-30.9 505.5,-39.75 518.02,-41.45 531.32,-43.62 544.08,-45.88"/>
<polygon fill="#63b8ff" stroke="#63b8ff" points="543.15,-49.27 553.62,-47.61 544.4,-42.38 543.15,-49.27"/>
</a>
</g>
</g>
<!-- Node9&#45;&gt;Node8 -->
<g id="edge11_Node000009_Node000008" class="edge">
<title>Node9&#45;&gt;Node8</title>
<g id="a_edge11_Node000009_Node000008"><a xlink:title=" ">
<path fill="none" stroke="#63b8ff" d="M312.78,-32.33C331.32,-36.6 351.27,-41.19 369.24,-45.33"/>
<polygon fill="#63b8ff" stroke="#63b8ff" points="368.43,-48.74 378.96,-47.57 370,-41.92 368.43,-48.74"/>
</a>
</g>
</g>
</g>
</svg>
