<?xml version="1.0" encoding="UTF-8" standalone="no"?>
<!DOCTYPE svg PUBLIC "-//W3C//DTD SVG 1.1//EN"
 "http://www.w3.org/Graphics/SVG/1.1/DTD/svg11.dtd">
<!-- Generated by graphviz version 13.1.2 (20250808.2320)
 -->
<!-- Title: nullify_parameter_widget Pages: 1 -->
<svg width="621pt" height="158pt"
 viewBox="0.00 0.00 621.00 158.00" xmlns="http://www.w3.org/2000/svg" xmlns:xlink="http://www.w3.org/1999/xlink">
<g id="graph0" class="graph" transform="scale(1 1) rotate(0) translate(4 153.75)">
<title>nullify_parameter_widget</title>
<!-- Node1 -->
<g id="Node000001" class="node">
<title>Node1</title>
<g id="a_Node000001"><a xlink:title=" ">
<polygon fill="#999999" stroke="#666666" points="613,-87.75 471.75,-87.75 471.75,-67 613,-67 613,-87.75"/>
<text xml:space="preserve" text-anchor="middle" x="542.38" y="-74.25" font-family="Helvetica,sans-Serif" font-size="10.00">nullify_parameter_widget</text>
</a>
</g>
</g>
<!-- Node2 -->
<g id="Node000002" class="node">
<title>Node2</title>
<g id="a_Node000002"><a xlink:href="kest__effect__view_8c.html#ae392eef44a5a025bad43a7a8969ab5b0" target="_top" xlink:title=" ">
<polygon fill="white" stroke="#666666" points="427.12,-110.75 303.12,-110.75 303.12,-90 427.12,-90 427.12,-110.75"/>
<text xml:space="preserve" text-anchor="middle" x="365.12" y="-97.25" font-family="Helvetica,sans-Serif" font-size="10.00">configure_effect_view</text>
</a>
</g>
</g>
<!-- Node1&#45;&gt;Node2 -->
<g id="edge1_Node000001_Node000002" class="edge">
<title>Node1&#45;&gt;Node2</title>
<g id="a_edge1_Node000001_Node000002"><a xlink:title=" ">
<path fill="none" stroke="#63b8ff" d="M460.04,-88.05C449.11,-89.48 438.05,-90.94 427.55,-92.31"/>
<polygon fill="#63b8ff" stroke="#63b8ff" points="460.4,-91.53 469.86,-86.76 459.48,-84.59 460.4,-91.53"/>
</a>
</g>
</g>
<!-- Node5 -->
<g id="Node000005" class="node">
<title>Node5</title>
<g id="a_Node000005"><a xlink:href="kest__menu_8c.html#a86c6c0acd2dfb8a62bd96bbfd739e687" target="_top" xlink:title=" ">
<polygon fill="white" stroke="#666666" points="427.5,-20.75 302.75,-20.75 302.75,0 427.5,0 427.5,-20.75"/>
<text xml:space="preserve" text-anchor="middle" x="365.12" y="-7.25" font-family="Helvetica,sans-Serif" font-size="10.00">configure_main_menu</text>
</a>
</g>
</g>
<!-- Node1&#45;&gt;Node5 -->
<g id="edge5_Node000001_Node000005" class="edge">
<title>Node1&#45;&gt;Node5</title>
<g id="a_edge5_Node000001_Node000005"><a xlink:title=" ">
<path fill="none" stroke="#63b8ff" d="M510.22,-61.62C489.47,-51.53 461.4,-38.64 435.75,-29.38 427.5,-26.4 418.56,-23.63 409.92,-21.17"/>
<polygon fill="#63b8ff" stroke="#63b8ff" points="508.47,-64.66 518.99,-65.94 511.56,-58.38 508.47,-64.66"/>
</a>
</g>
</g>
<!-- Node11 -->
<g id="Node000011" class="node">
<title>Node11</title>
<g id="a_Node000011"><a xlink:href="kest__menu_8c.html#a022467860beb31712a6580996ac1527e" target="_top" xlink:title=" ">
<polygon fill="white" stroke="#666666" points="435.75,-72.12 294.5,-72.12 294.5,-38.62 435.75,-38.62 435.75,-72.12"/>
<text xml:space="preserve" text-anchor="start" x="302.5" y="-58.62" font-family="Helvetica,sans-Serif" font-size="10.00">create_parameter_widget</text>
<text xml:space="preserve" text-anchor="middle" x="365.12" y="-45.88" font-family="Helvetica,sans-Serif" font-size="10.00">_menu_item</text>
</a>
</g>
</g>
<!-- Node1&#45;&gt;Node11 -->
<g id="edge8_Node000001_Node000011" class="edge">
<title>Node1&#45;&gt;Node11</title>
<g id="a_edge8_Node000001_Node000011"><a xlink:title=" ">
<path fill="none" stroke="#63b8ff" d="M460.07,-67.17C452.04,-66.16 443.94,-65.14 436.03,-64.15"/>
<polygon fill="#63b8ff" stroke="#63b8ff" points="459.5,-70.62 469.85,-68.4 460.37,-63.68 459.5,-70.62"/>
</a>
</g>
</g>
<!-- Node12 -->
<g id="Node000012" class="node">
<title>Node12</title>
<g id="a_Node000012"><a xlink:href="kest__effect__settings_8c.html#ab8bf2accabc08beecb97a54915abc488" target="_top" xlink:title=" ">
<polygon fill="white" stroke="#666666" points="434.62,-149.75 295.62,-149.75 295.62,-129 434.62,-129 434.62,-149.75"/>
<text xml:space="preserve" text-anchor="middle" x="365.12" y="-136.25" font-family="Helvetica,sans-Serif" font-size="10.00">init_effect_settings_page</text>
</a>
</g>
</g>
<!-- Node1&#45;&gt;Node12 -->
<g id="edge9_Node000001_Node000012" class="edge">
<title>Node1&#45;&gt;Node12</title>
<g id="a_edge9_Node000001_Node000012"><a xlink:title=" ">
<path fill="none" stroke="#63b8ff" d="M506.08,-92.42C485.71,-100.85 459.5,-111.27 435.75,-119.38 426.35,-122.59 416.12,-125.72 406.47,-128.52"/>
<polygon fill="#63b8ff" stroke="#63b8ff" points="507.17,-95.76 515.06,-88.68 504.48,-89.3 507.17,-95.76"/>
</a>
</g>
</g>
<!-- Node3 -->
<g id="Node000003" class="node">
<title>Node3</title>
<g id="a_Node000003"><a xlink:href="kest__effect__view_8c.html#abb65b28dc293fd68d3b384f48210130e" target="_top" xlink:title=" ">
<polygon fill="white" stroke="#666666" points="127.75,-129.75 0,-129.75 0,-109 127.75,-109 127.75,-129.75"/>
<text xml:space="preserve" text-anchor="middle" x="63.88" y="-116.25" font-family="Helvetica,sans-Serif" font-size="10.00">create_effect_view_for</text>
</a>
</g>
</g>
<!-- Node2&#45;&gt;Node3 -->
<g id="edge2_Node000002_Node000003" class="edge">
<title>Node2&#45;&gt;Node3</title>
<g id="a_edge2_Node000002_Node000003"><a xlink:title=" ">
<path fill="none" stroke="#63b8ff" d="M291.48,-104.99C241.55,-108.16 175.91,-112.33 128.14,-115.36"/>
<polygon fill="#63b8ff" stroke="#63b8ff" points="291.58,-108.49 301.33,-104.36 291.13,-101.5 291.58,-108.49"/>
</a>
</g>
</g>
<!-- Node4 -->
<g id="Node000004" class="node">
<title>Node4</title>
<g id="a_Node000004"><a xlink:href="kest__effect__view_8c.html#a7b9803e86d71b10b167f0babf088fe08" target="_top" xlink:title=" ">
<polygon fill="white" stroke="#666666" points="258.12,-148.75 164.12,-148.75 164.12,-128 258.12,-128 258.12,-148.75"/>
<text xml:space="preserve" text-anchor="middle" x="211.12" y="-135.25" font-family="Helvetica,sans-Serif" font-size="10.00">init_effect_view</text>
</a>
</g>
</g>
<!-- Node2&#45;&gt;Node4 -->
<g id="edge3_Node000002_Node000004" class="edge">
<title>Node2&#45;&gt;Node4</title>
<g id="a_edge3_Node000002_Node000004"><a xlink:title=" ">
<path fill="none" stroke="#63b8ff" d="M309.82,-113.95C291.94,-118.42 272.32,-123.33 255.38,-127.56"/>
<polygon fill="#63b8ff" stroke="#63b8ff" points="310.65,-117.35 319.51,-111.53 308.96,-110.56 310.65,-117.35"/>
</a>
</g>
</g>
<!-- Node4&#45;&gt;Node3 -->
<g id="edge4_Node000004_Node000003" class="edge">
<title>Node4&#45;&gt;Node3</title>
<g id="a_edge4_Node000004_Node000003"><a xlink:title=" ">
<path fill="none" stroke="#63b8ff" d="M152.58,-130.85C144.51,-129.79 136.18,-128.7 128.01,-127.63"/>
<polygon fill="#63b8ff" stroke="#63b8ff" points="151.9,-134.29 162.27,-132.11 152.81,-127.35 151.9,-134.29"/>
</a>
</g>
</g>
<!-- Node6 -->
<g id="Node000006" class="node">
<title>Node6</title>
<g id="a_Node000006"><a xlink:href="kest__menu_8c.html#a6aa16fb3d12f098f021ae677605e683e" target="_top" xlink:title=" ">
<polygon fill="white" stroke="#666666" points="258.5,-20.75 163.75,-20.75 163.75,0 258.5,0 258.5,-20.75"/>
<text xml:space="preserve" text-anchor="middle" x="211.12" y="-7.25" font-family="Helvetica,sans-Serif" font-size="10.00">init_main_menu</text>
</a>
</g>
</g>
<!-- Node5&#45;&gt;Node6 -->
<g id="edge6_Node000005_Node000006" class="edge">
<title>Node5&#45;&gt;Node6</title>
<g id="a_edge6_Node000005_Node000006"><a xlink:title=" ">
<path fill="none" stroke="#63b8ff" d="M291.01,-10.38C280.11,-10.38 269.13,-10.38 258.97,-10.38"/>
<polygon fill="#63b8ff" stroke="#63b8ff" points="290.79,-13.88 300.79,-10.38 290.79,-6.88 290.79,-13.88"/>
</a>
</g>
</g>
<!-- Node7 -->
<g id="Node000007" class="node">
<title>Node7</title>
<g id="a_Node000007"><a xlink:href="kest__ui_8c.html#ab1be7d2981c922ebe8d714f9af0f600d" target="_top" xlink:title=" ">
<polygon fill="#fff0f0" stroke="red" points="127.38,-20.75 0.37,-20.75 0.37,0 127.38,0 127.38,-20.75"/>
<text xml:space="preserve" text-anchor="middle" x="63.88" y="-7.25" font-family="Helvetica,sans-Serif" font-size="10.00">kest_init_global_pages</text>
</a>
</g>
</g>
<!-- Node6&#45;&gt;Node7 -->
<g id="edge7_Node000006_Node000007" class="edge">
<title>Node6&#45;&gt;Node7</title>
<g id="a_edge7_Node000006_Node000007"><a xlink:title=" ">
<path fill="none" stroke="#63b8ff" d="M151.92,-10.38C143.95,-10.38 135.74,-10.38 127.7,-10.38"/>
<polygon fill="#63b8ff" stroke="#63b8ff" points="151.85,-13.88 161.85,-10.38 151.85,-6.88 151.85,-13.88"/>
</a>
</g>
</g>
<!-- Node12&#45;&gt;Node4 -->
<g id="edge10_Node000012_Node000004" class="edge">
<title>Node12&#45;&gt;Node4</title>
<g id="a_edge10_Node000012_Node000004"><a xlink:title=" ">
<path fill="none" stroke="#63b8ff" d="M283.86,-138.85C275.21,-138.79 266.63,-138.73 258.58,-138.68"/>
<polygon fill="#63b8ff" stroke="#63b8ff" points="283.7,-142.35 293.73,-138.91 283.75,-135.35 283.7,-142.35"/>
</a>
</g>
</g>
</g>
</svg>
