<?xml version="1.0" encoding="UTF-8" standalone="no"?>
<!DOCTYPE svg PUBLIC "-//W3C//DTD SVG 1.1//EN"
 "http://www.w3.org/Graphics/SVG/1.1/DTD/svg11.dtd">
<!-- Generated by graphviz version 13.1.2 (20250808.2320)
 -->
<!-- Title: load_state_from_file Pages: 1 -->
<svg width="273pt" height="68pt"
 viewBox="0.00 0.00 273.00 68.00" xmlns="http://www.w3.org/2000/svg" xmlns:xlink="http://www.w3.org/1999/xlink">
<g id="graph0" class="graph" transform="scale(1 1) rotate(0) translate(4 63.75)">
<title>load_state_from_file</title>
<!-- Node1 -->
<g id="Node000001" class="node">
<title>Node1</title>
<g id="a_Node000001"><a xlink:title=" ">
<polygon fill="#999999" stroke="#666666" points="116.5,-39.75 0,-39.75 0,-19 116.5,-19 116.5,-39.75"/>
<text xml:space="preserve" text-anchor="middle" x="58.25" y="-26.25" font-family="Helvetica,sans-Serif" font-size="10.00">load_state_from_file</text>
</a>
</g>
</g>
<!-- Node2 -->
<g id="Node000002" class="node">
<title>Node2</title>
<g id="a_Node000002"><a xlink:href="kest__files_8c.html#ab79d861306c25eab9284239e73d0cc07" target="_top" xlink:title=" ">
<polygon fill="white" stroke="#666666" points="264.5,-59.75 152.5,-59.75 152.5,-39 264.5,-39 264.5,-59.75"/>
<text xml:space="preserve" text-anchor="middle" x="208.5" y="-46.25" font-family="Helvetica,sans-Serif" font-size="10.00">dump_file_contents</text>
</a>
</g>
</g>
<!-- Node1&#45;&gt;Node2 -->
<g id="edge1_Node000001_Node000002" class="edge">
<title>Node1&#45;&gt;Node2</title>
<g id="a_edge1_Node000001_Node000002"><a xlink:title=" ">
<path fill="none" stroke="#63b8ff" d="M116.99,-37.16C124.84,-38.22 132.94,-39.32 140.93,-40.39"/>
<polygon fill="#63b8ff" stroke="#63b8ff" points="140.22,-43.83 150.6,-41.7 141.16,-36.89 140.22,-43.83"/>
</a>
</g>
</g>
<!-- Node3 -->
<g id="Node000003" class="node">
<title>Node3</title>
<g id="a_Node000003"><a xlink:href="kest__alloc_8c.html#a849755c5dc5b35e712ffcdb602e50fb4" target="_top" xlink:title=" ">
<polygon fill="white" stroke="#666666" points="240.88,-20.75 176.12,-20.75 176.12,0 240.88,0 240.88,-20.75"/>
<text xml:space="preserve" text-anchor="middle" x="208.5" y="-7.25" font-family="Helvetica,sans-Serif" font-size="10.00">kest_alloc</text>
</a>
</g>
</g>
<!-- Node1&#45;&gt;Node3 -->
<g id="edge2_Node000001_Node000003" class="edge">
<title>Node1&#45;&gt;Node3</title>
<g id="a_edge2_Node000001_Node000003"><a xlink:title=" ">
<path fill="none" stroke="#63b8ff" d="M116.99,-21.97C132.77,-19.95 149.6,-17.8 164.41,-15.9"/>
<polygon fill="#63b8ff" stroke="#63b8ff" points="164.82,-19.37 174.29,-14.63 163.93,-12.43 164.82,-19.37"/>
</a>
</g>
</g>
</g>
</svg>
