<?xml version="1.0" encoding="UTF-8" standalone="no"?>
<!DOCTYPE svg PUBLIC "-//W3C//DTD SVG 1.1//EN"
 "http://www.w3.org/Graphics/SVG/1.1/DTD/svg11.dtd">
<!-- Generated by graphviz version 13.1.2 (20250808.2320)
 -->
<!-- Title: format_parameter_widget_value_label_v Pages: 1 -->
<svg width="712pt" height="80pt"
 viewBox="0.00 0.00 712.00 80.00" xmlns="http://www.w3.org/2000/svg" xmlns:xlink="http://www.w3.org/1999/xlink">
<g id="graph0" class="graph" transform="scale(1 1) rotate(0) translate(4 76.12)">
<title>format_parameter_widget_value_label_v</title>
<!-- Node1 -->
<g id="Node000001" class="node">
<title>Node1</title>
<g id="a_Node000001"><a xlink:title=" ">
<polygon fill="#999999" stroke="#666666" points="703.75,-55.5 560.25,-55.5 560.25,-22 703.75,-22 703.75,-55.5"/>
<text xml:space="preserve" text-anchor="start" x="568.25" y="-42" font-family="Helvetica,sans-Serif" font-size="10.00">format_parameter_widget</text>
<text xml:space="preserve" text-anchor="middle" x="632" y="-29.25" font-family="Helvetica,sans-Serif" font-size="10.00">_value_label_v</text>
</a>
</g>
</g>
<!-- Node2 -->
<g id="Node000002" class="node">
<title>Node2</title>
<g id="a_Node000002"><a xlink:href="kest__parameter__widget_8c.html#a76b168e793fb4613c59656720649cba3" target="_top" xlink:title=" ">
<polygon fill="white" stroke="#666666" points="524.25,-55.5 380,-55.5 380,-22 524.25,-22 524.25,-55.5"/>
<text xml:space="preserve" text-anchor="start" x="388" y="-42" font-family="Helvetica,sans-Serif" font-size="10.00">parameter_widget_update</text>
<text xml:space="preserve" text-anchor="middle" x="452.12" y="-29.25" font-family="Helvetica,sans-Serif" font-size="10.00">_value_label_v</text>
</a>
</g>
</g>
<!-- Node1&#45;&gt;Node2 -->
<g id="edge1_Node000001_Node000002" class="edge">
<title>Node1&#45;&gt;Node2</title>
<g id="a_edge1_Node000001_Node000002"><a xlink:title=" ">
<path fill="none" stroke="#63b8ff" d="M548.67,-38.75C540.65,-38.75 532.56,-38.75 524.66,-38.75"/>
<polygon fill="#63b8ff" stroke="#63b8ff" points="548.42,-42.25 558.42,-38.75 548.42,-35.25 548.42,-42.25"/>
</a>
</g>
</g>
<!-- Node3 -->
<g id="Node000003" class="node">
<title>Node3</title>
<g id="a_Node000003"><a xlink:href="kest__parameter__widget_8c.html#af94dfc8bbb394e3264533d794d147e95" target="_top" xlink:title=" ">
<polygon fill="white" stroke="#666666" points="344,-55.5 198.25,-55.5 198.25,-22 344,-22 344,-55.5"/>
<text xml:space="preserve" text-anchor="start" x="206.25" y="-42" font-family="Helvetica,sans-Serif" font-size="10.00">parameter_widget_change</text>
<text xml:space="preserve" text-anchor="middle" x="271.12" y="-29.25" font-family="Helvetica,sans-Serif" font-size="10.00">_cb_inner</text>
</a>
</g>
</g>
<!-- Node2&#45;&gt;Node3 -->
<g id="edge2_Node000002_Node000003" class="edge">
<title>Node2&#45;&gt;Node3</title>
<g id="a_edge2_Node000002_Node000003"><a xlink:title=" ">
<path fill="none" stroke="#63b8ff" d="M368.37,-38.75C360.37,-38.75 352.29,-38.75 344.41,-38.75"/>
<polygon fill="#63b8ff" stroke="#63b8ff" points="368.09,-42.25 378.09,-38.75 368.09,-35.25 368.09,-42.25"/>
</a>
</g>
</g>
<!-- Node4 -->
<g id="Node000004" class="node">
<title>Node4</title>
<g id="a_Node000004"><a xlink:href="kest__parameter__widget_8c.html#aacedf3a01b62f8fba28c7521a2b64735" target="_top" xlink:title=" ">
<polygon fill="#fff0f0" stroke="red" points="162.25,-72.12 0,-72.12 0,-51.38 162.25,-51.38 162.25,-72.12"/>
<text xml:space="preserve" text-anchor="middle" x="81.12" y="-58.62" font-family="Helvetica,sans-Serif" font-size="10.00">parameter_widget_change_cb</text>
</a>
</g>
</g>
<!-- Node3&#45;&gt;Node4 -->
<g id="edge3_Node000003_Node000004" class="edge">
<title>Node3&#45;&gt;Node4</title>
<g id="a_edge3_Node000003_Node000004"><a xlink:title=" ">
<path fill="none" stroke="#63b8ff" d="M186.71,-48.95C178.68,-49.94 170.54,-50.93 162.54,-51.91"/>
<polygon fill="#63b8ff" stroke="#63b8ff" points="186.97,-52.45 196.47,-47.76 186.12,-45.5 186.97,-52.45"/>
</a>
</g>
</g>
<!-- Node40 -->
<g id="Node000040" class="node">
<title>Node40</title>
<g id="a_Node000040"><a xlink:href="kest__menu_8c.html#a8edfbaa412cfceaa47690ee035de622c" target="_top" xlink:title=" ">
<polygon fill="#fff0f0" stroke="red" points="154,-33.5 8.25,-33.5 8.25,0 154,0 154,-33.5"/>
<text xml:space="preserve" text-anchor="start" x="16.25" y="-20" font-family="Helvetica,sans-Serif" font-size="10.00">parameter_widget_change</text>
<text xml:space="preserve" text-anchor="middle" x="81.12" y="-7.25" font-family="Helvetica,sans-Serif" font-size="10.00">_cb_settings_wrapper</text>
</a>
</g>
</g>
<!-- Node3&#45;&gt;Node40 -->
<g id="edge4_Node000003_Node000040" class="edge">
<title>Node3&#45;&gt;Node40</title>
<g id="a_edge4_Node000003_Node000040"><a xlink:title=" ">
<path fill="none" stroke="#63b8ff" d="M186.81,-29C176,-27.74 165,-26.45 154.39,-25.21"/>
<polygon fill="#63b8ff" stroke="#63b8ff" points="186.13,-32.45 196.47,-30.13 186.95,-25.49 186.13,-32.45"/>
</a>
</g>
</g>
</g>
</svg>
