<?xml version="1.0" encoding="UTF-8" standalone="no"?>
<!DOCTYPE svg PUBLIC "-//W3C//DTD SVG 1.1//EN"
 "http://www.w3.org/Graphics/SVG/1.1/DTD/svg11.dtd">
<!-- Generated by graphviz version 13.1.2 (20250808.2320)
 -->
<!-- Title: kest_fpga_batch_append_effects Pages: 1 -->
<svg width="663pt" height="120pt"
 viewBox="0.00 0.00 663.00 120.00" xmlns="http://www.w3.org/2000/svg" xmlns:xlink="http://www.w3.org/1999/xlink">
<g id="graph0" class="graph" transform="scale(1 1) rotate(0) translate(4 115.5)">
<title>kest_fpga_batch_append_effects</title>
<!-- Node1 -->
<g id="Node000001" class="node">
<title>Node1</title>
<g id="a_Node000001"><a xlink:title=" ">
<polygon fill="#999999" stroke="#666666" points="136.75,-59.5 0,-59.5 0,-26 136.75,-26 136.75,-59.5"/>
<text xml:space="preserve" text-anchor="start" x="8" y="-46" font-family="Helvetica,sans-Serif" font-size="10.00">kest_fpga_batch_append</text>
<text xml:space="preserve" text-anchor="middle" x="68.38" y="-33.25" font-family="Helvetica,sans-Serif" font-size="10.00">_effects</text>
</a>
</g>
</g>
<!-- Node2 -->
<g id="Node000002" class="node">
<title>Node2</title>
<g id="a_Node000002"><a xlink:href="kest__fpga__encoding_8c.html#a1d36760e33c68c0a5b22c8920f3a5a2b" target="_top" xlink:title=" ">
<polygon fill="white" stroke="#666666" points="309.5,-59.5 172.75,-59.5 172.75,-26 309.5,-26 309.5,-59.5"/>
<text xml:space="preserve" text-anchor="start" x="180.75" y="-46" font-family="Helvetica,sans-Serif" font-size="10.00">kest_fpga_batch_append</text>
<text xml:space="preserve" text-anchor="middle" x="241.12" y="-33.25" font-family="Helvetica,sans-Serif" font-size="10.00">_effect</text>
</a>
</g>
</g>
<!-- Node1&#45;&gt;Node2 -->
<g id="edge1_Node000001_Node000002" class="edge">
<title>Node1&#45;&gt;Node2</title>
<g id="a_edge1_Node000001_Node000002"><a xlink:title=" ">
<path fill="none" stroke="#63b8ff" d="M136.86,-42.75C144.78,-42.75 152.91,-42.75 160.98,-42.75"/>
<polygon fill="#63b8ff" stroke="#63b8ff" points="160.78,-46.25 170.78,-42.75 160.78,-39.25 160.78,-46.25"/>
</a>
</g>
</g>
<!-- Node3 -->
<g id="Node000003" class="node">
<title>Node3</title>
<g id="a_Node000003"><a xlink:href="kest__fpga__encoding_8c.html#a142858ad82d4b4214aa9191a2146454e" target="_top" xlink:title=" ">
<polygon fill="white" stroke="#666666" points="482.25,-85.5 345.5,-85.5 345.5,-52 482.25,-52 482.25,-85.5"/>
<text xml:space="preserve" text-anchor="start" x="353.5" y="-72" font-family="Helvetica,sans-Serif" font-size="10.00">kest_fpga_batch_append</text>
<text xml:space="preserve" text-anchor="middle" x="413.88" y="-59.25" font-family="Helvetica,sans-Serif" font-size="10.00">_eff_desc</text>
</a>
</g>
</g>
<!-- Node2&#45;&gt;Node3 -->
<g id="edge2_Node000002_Node000003" class="edge">
<title>Node2&#45;&gt;Node3</title>
<g id="a_edge2_Node000002_Node000003"><a xlink:title=" ">
<path fill="none" stroke="#63b8ff" d="M309.61,-53.03C317.53,-54.23 325.66,-55.47 333.73,-56.7"/>
<polygon fill="#63b8ff" stroke="#63b8ff" points="333.13,-60.15 343.55,-58.19 334.19,-53.23 333.13,-60.15"/>
</a>
</g>
</g>
<!-- Node26 -->
<g id="Node000026" class="node">
<title>Node26</title>
<g id="a_Node000026"><a xlink:href="kest__resource_8c.html#ac1b5488b4cacbcd4eda84d86e2fcecb8" target="_top" xlink:title=" ">
<polygon fill="white" stroke="#666666" points="472.88,-33.5 354.88,-33.5 354.88,0 472.88,0 472.88,-33.5"/>
<text xml:space="preserve" text-anchor="start" x="362.88" y="-20" font-family="Helvetica,sans-Serif" font-size="10.00">kest_resource_report</text>
<text xml:space="preserve" text-anchor="middle" x="413.88" y="-7.25" font-family="Helvetica,sans-Serif" font-size="10.00">_integrate</text>
</a>
</g>
</g>
<!-- Node2&#45;&gt;Node26 -->
<g id="edge5_Node000002_Node000026" class="edge">
<title>Node2&#45;&gt;Node26</title>
<g id="a_edge5_Node000002_Node000026"><a xlink:title=" ">
<path fill="none" stroke="#63b8ff" d="M309.61,-32.47C320.61,-30.8 332.03,-29.06 343.08,-27.38"/>
<polygon fill="#63b8ff" stroke="#63b8ff" points="343.58,-30.84 352.94,-25.88 342.53,-23.92 343.58,-30.84"/>
</a>
</g>
</g>
<!-- Node4 -->
<g id="Node000004" class="node">
<title>Node4</title>
<g id="a_Node000004"><a xlink:href="kest__fpga__encoding_8c.html#a1d6980972e5f88bc39838473e70f8281" target="_top" xlink:title=" ">
<polygon fill="#fff0f0" stroke="red" points="655,-111.5 518.25,-111.5 518.25,-78 655,-78 655,-111.5"/>
<text xml:space="preserve" text-anchor="start" x="526.25" y="-98" font-family="Helvetica,sans-Serif" font-size="10.00">kest_fpga_batch_append</text>
<text xml:space="preserve" text-anchor="middle" x="586.62" y="-85.25" font-family="Helvetica,sans-Serif" font-size="10.00">_blocks</text>
</a>
</g>
</g>
<!-- Node3&#45;&gt;Node4 -->
<g id="edge3_Node000003_Node000004" class="edge">
<title>Node3&#45;&gt;Node4</title>
<g id="a_edge3_Node000003_Node000004"><a xlink:title=" ">
<path fill="none" stroke="#63b8ff" d="M482.36,-79.03C490.28,-80.23 498.41,-81.47 506.48,-82.7"/>
<polygon fill="#63b8ff" stroke="#63b8ff" points="505.88,-86.15 516.3,-84.19 506.94,-79.23 505.88,-86.15"/>
</a>
</g>
</g>
<!-- Node22 -->
<g id="Node000022" class="node">
<title>Node22</title>
<g id="a_Node000022"><a xlink:href="kest__fpga__encoding_8c.html#adffee6f6156a2d821bd467b1c0c578c2" target="_top" xlink:title=" ">
<polygon fill="#fff0f0" stroke="red" points="655,-59.5 518.25,-59.5 518.25,-26 655,-26 655,-59.5"/>
<text xml:space="preserve" text-anchor="start" x="526.25" y="-46" font-family="Helvetica,sans-Serif" font-size="10.00">kest_fpga_batch_append</text>
<text xml:space="preserve" text-anchor="middle" x="586.62" y="-33.25" font-family="Helvetica,sans-Serif" font-size="10.00">_resources</text>
</a>
</g>
</g>
<!-- Node3&#45;&gt;Node22 -->
<g id="edge4_Node000003_Node000022" class="edge">
<title>Node3&#45;&gt;Node22</title>
<g id="a_edge4_Node000003_Node000022"><a xlink:title=" ">
<path fill="none" stroke="#63b8ff" d="M482.36,-58.47C490.28,-57.27 498.41,-56.03 506.48,-54.8"/>
<polygon fill="#63b8ff" stroke="#63b8ff" points="506.94,-58.27 516.3,-53.31 505.88,-51.35 506.94,-58.27"/>
</a>
</g>
</g>
</g>
</svg>
