<?xml version="1.0" encoding="UTF-8" standalone="no"?>
<!DOCTYPE svg PUBLIC "-//W3C//DTD SVG 1.1//EN"
 "http://www.w3.org/Graphics/SVG/1.1/DTD/svg11.dtd">
<!-- Generated by graphviz version 13.1.2 (20250808.2320)
 -->
<!-- Title: seq_save_cb Pages: 1 -->
<svg width="702pt" height="224pt"
 viewBox="0.00 0.00 702.00 224.00" xmlns="http://www.w3.org/2000/svg" xmlns:xlink="http://www.w3.org/1999/xlink">
<g id="graph0" class="graph" transform="scale(1 1) rotate(0) translate(4 220.09)">
<title>seq_save_cb</title>
<!-- Node1 -->
<g id="Node000001" class="node">
<title>Node1</title>
<g id="a_Node000001"><a xlink:title=" ">
<polygon fill="#999999" stroke="#666666" points="78.25,-126.71 0,-126.71 0,-105.96 78.25,-105.96 78.25,-126.71"/>
<text xml:space="preserve" text-anchor="middle" x="39.12" y="-113.21" font-family="Helvetica,sans-Serif" font-size="10.00">seq_save_cb</text>
</a>
</g>
</g>
<!-- Node2 -->
<g id="Node000002" class="node">
<title>Node2</title>
<g id="a_Node000002"><a xlink:href="kest__context_8c.html#a289cc99b6fb44e0004339528497070f1" target="_top" xlink:title=" ">
<polygon fill="white" stroke="#666666" points="233,-174.71 114.25,-174.71 114.25,-153.96 233,-153.96 233,-174.71"/>
<text xml:space="preserve" text-anchor="middle" x="173.62" y="-161.21" font-family="Helvetica,sans-Serif" font-size="10.00">cxt_save_all_profiles</text>
</a>
</g>
</g>
<!-- Node1&#45;&gt;Node2 -->
<g id="edge1_Node000001_Node000002" class="edge">
<title>Node1&#45;&gt;Node2</title>
<g id="a_edge1_Node000001_Node000002"><a xlink:title=" ">
<path fill="none" stroke="#63b8ff" d="M69.86,-127.11C88.27,-133.78 112.16,-142.43 132.26,-149.72"/>
<polygon fill="#63b8ff" stroke="#63b8ff" points="130.97,-152.97 141.57,-153.08 133.36,-146.39 130.97,-152.97"/>
</a>
</g>
</g>
<!-- Node11 -->
<g id="Node000011" class="node">
<title>Node11</title>
<g id="a_Node000011"><a xlink:href="kest__files_8c.html#af53689e3600e69611b9c05f11971d23e" target="_top" xlink:title=" ">
<polygon fill="white" stroke="#666666" points="219.12,-107.71 128.12,-107.71 128.12,-86.96 219.12,-86.96 219.12,-107.71"/>
<text xml:space="preserve" text-anchor="middle" x="173.62" y="-94.21" font-family="Helvetica,sans-Serif" font-size="10.00">save_sequence</text>
</a>
</g>
</g>
<!-- Node1&#45;&gt;Node11 -->
<g id="edge8_Node000001_Node000011" class="edge">
<title>Node1&#45;&gt;Node11</title>
<g id="a_edge8_Node000001_Node000011"><a xlink:title=" ">
<path fill="none" stroke="#63b8ff" d="M78.45,-110.84C90.39,-109.13 103.81,-107.2 116.7,-105.36"/>
<polygon fill="#63b8ff" stroke="#63b8ff" points="116.94,-108.86 126.34,-103.97 115.94,-101.93 116.94,-108.86"/>
</a>
</g>
</g>
<!-- Node3 -->
<g id="Node000003" class="node">
<title>Node3</title>
<g id="a_Node000003"><a xlink:href="kest__profile_8c.html#a683c1e3c748f22e8a573d3a767fbd3e3" target="_top" xlink:title=" ">
<polygon fill="white" stroke="#666666" points="384,-202.71 282.5,-202.71 282.5,-181.96 384,-181.96 384,-202.71"/>
<text xml:space="preserve" text-anchor="middle" x="333.25" y="-189.21" font-family="Helvetica,sans-Serif" font-size="10.00">kest_profile_save</text>
</a>
</g>
</g>
<!-- Node2&#45;&gt;Node3 -->
<g id="edge2_Node000002_Node000003" class="edge">
<title>Node2&#45;&gt;Node3</title>
<g id="a_edge2_Node000002_Node000003"><a xlink:title=" ">
<path fill="none" stroke="#63b8ff" d="M233.32,-174.76C245.58,-176.94 258.54,-179.24 270.9,-181.44"/>
<polygon fill="#63b8ff" stroke="#63b8ff" points="270.09,-184.85 280.55,-183.15 271.32,-177.96 270.09,-184.85"/>
</a>
</g>
</g>
<!-- Node4 -->
<g id="Node000004" class="node">
<title>Node4</title>
<g id="a_Node000004"><a xlink:href="kest__profile_8c.html#a8b1594e9e88b6298e1ce4d93641b1e4d" target="_top" xlink:title=" ">
<polygon fill="#fff0f0" stroke="red" points="545.5,-216.09 433.5,-216.09 433.5,-182.59 545.5,-182.59 545.5,-216.09"/>
<text xml:space="preserve" text-anchor="start" x="441.5" y="-202.59" font-family="Helvetica,sans-Serif" font-size="10.00">kest_profile_update</text>
<text xml:space="preserve" text-anchor="middle" x="489.5" y="-189.84" font-family="Helvetica,sans-Serif" font-size="10.00">_representations</text>
</a>
</g>
</g>
<!-- Node3&#45;&gt;Node4 -->
<g id="edge3_Node000003_Node000004" class="edge">
<title>Node3&#45;&gt;Node4</title>
<g id="a_edge3_Node000003_Node000004"><a xlink:title=" ">
<path fill="none" stroke="#63b8ff" d="M384.33,-194.61C396.25,-195.15 409.16,-195.74 421.7,-196.3"/>
<polygon fill="#63b8ff" stroke="#63b8ff" points="421.41,-199.8 431.56,-196.75 421.73,-192.8 421.41,-199.8"/>
</a>
</g>
</g>
<!-- Node6 -->
<g id="Node000006" class="node">
<title>Node6</title>
<g id="a_Node000006"><a xlink:href="kest__files_8c.html#ab39f3c0d9f0a16ccb7d076a22fc4ca22" target="_top" xlink:title=" ">
<polygon fill="#fff0f0" stroke="red" points="527.5,-88.71 451.5,-88.71 451.5,-67.96 527.5,-67.96 527.5,-88.71"/>
<text xml:space="preserve" text-anchor="middle" x="489.5" y="-75.21" font-family="Helvetica,sans-Serif" font-size="10.00">save_profile</text>
</a>
</g>
</g>
<!-- Node3&#45;&gt;Node6 -->
<g id="edge4_Node000003_Node000006" class="edge">
<title>Node3&#45;&gt;Node6</title>
<g id="a_edge4_Node000003_Node000006"><a xlink:title=" ">
<path fill="none" stroke="#63b8ff" d="M348.76,-181.61C375.4,-161.92 432.35,-119.84 464.72,-95.91"/>
<polygon fill="#63b8ff" stroke="#63b8ff" points="466.74,-98.77 472.7,-90.02 462.58,-93.14 466.74,-98.77"/>
</a>
</g>
</g>
<!-- Node7 -->
<g id="Node000007" class="node">
<title>Node7</title>
<g id="a_Node000007"><a xlink:href="kest__files_8c.html#ab79d861306c25eab9284239e73d0cc07" target="_top" xlink:title=" ">
<polygon fill="white" stroke="#666666" points="693.5,-49.71 581.5,-49.71 581.5,-28.96 693.5,-28.96 693.5,-49.71"/>
<text xml:space="preserve" text-anchor="middle" x="637.5" y="-36.21" font-family="Helvetica,sans-Serif" font-size="10.00">dump_file_contents</text>
</a>
</g>
</g>
<!-- Node6&#45;&gt;Node7 -->
<g id="edge5_Node000006_Node000007" class="edge">
<title>Node6&#45;&gt;Node7</title>
<g id="a_edge5_Node000006_Node000007"><a xlink:title=" ">
<path fill="none" stroke="#63b8ff" d="M527.72,-68.39C545.08,-63.76 566.03,-58.16 584.89,-53.12"/>
<polygon fill="#63b8ff" stroke="#63b8ff" points="585.79,-56.5 594.55,-50.54 583.99,-49.74 585.79,-56.5"/>
</a>
</g>
</g>
<!-- Node8 -->
<g id="Node000008" class="node">
<title>Node8</title>
<g id="a_Node000008"><a xlink:href="kest__files_8c.html#aa81649890323b78baf99fbbad53ab5ff" target="_top" xlink:title=" ">
<polygon fill="white" stroke="#666666" points="691.62,-157.71 583.38,-157.71 583.38,-136.96 691.62,-136.96 691.62,-157.71"/>
<text xml:space="preserve" text-anchor="middle" x="637.5" y="-144.21" font-family="Helvetica,sans-Serif" font-size="10.00">generate_filename</text>
</a>
</g>
</g>
<!-- Node6&#45;&gt;Node8 -->
<g id="edge6_Node000006_Node000008" class="edge">
<title>Node6&#45;&gt;Node8</title>
<g id="a_edge6_Node000006_Node000008"><a xlink:title=" ">
<path fill="none" stroke="#63b8ff" d="M512.5,-89.15C530.88,-98.15 557.83,-111.23 581.5,-122.34 588.11,-125.43 595.18,-128.69 601.99,-131.8"/>
<polygon fill="#63b8ff" stroke="#63b8ff" points="600.42,-134.93 610.97,-135.88 603.31,-128.56 600.42,-134.93"/>
</a>
</g>
</g>
<!-- Node9 -->
<g id="Node000009" class="node">
<title>Node9</title>
<g id="a_Node000009"><a xlink:href="kest__error__codes_8c.html#a0f4c77127bc0b77264a21104979c576a" target="_top" xlink:title=" ">
<polygon fill="white" stroke="#666666" points="691.62,-113.09 583.38,-113.09 583.38,-79.59 691.62,-79.59 691.62,-113.09"/>
<text xml:space="preserve" text-anchor="start" x="591.38" y="-99.59" font-family="Helvetica,sans-Serif" font-size="10.00">kest_error_code_to</text>
<text xml:space="preserve" text-anchor="middle" x="637.5" y="-86.84" font-family="Helvetica,sans-Serif" font-size="10.00">_string</text>
</a>
</g>
</g>
<!-- Node6&#45;&gt;Node9 -->
<g id="edge7_Node000006_Node000009" class="edge">
<title>Node6&#45;&gt;Node9</title>
<g id="a_edge7_Node000006_Node000009"><a xlink:title=" ">
<path fill="none" stroke="#63b8ff" d="M527.72,-82.93C541.12,-84.58 556.65,-86.49 571.71,-88.35"/>
<polygon fill="#63b8ff" stroke="#63b8ff" points="571.24,-91.82 581.59,-89.57 572.1,-84.87 571.24,-91.82"/>
</a>
</g>
</g>
<!-- Node11&#45;&gt;Node7 -->
<g id="edge9_Node000011_Node000007" class="edge">
<title>Node11&#45;&gt;Node7</title>
<g id="a_edge9_Node000011_Node000007"><a xlink:title=" ">
<path fill="none" stroke="#63b8ff" d="M183.38,-86.46C198.56,-68.57 231.75,-33.6 269,-20.34 378.4,18.63 517.73,-7.32 589.32,-25.64"/>
<polygon fill="#63b8ff" stroke="#63b8ff" points="588.19,-28.97 598.75,-28.12 589.97,-22.2 588.19,-28.97"/>
</a>
</g>
</g>
<!-- Node11&#45;&gt;Node8 -->
<g id="edge10_Node000011_Node000008" class="edge">
<title>Node11&#45;&gt;Node8</title>
<g id="a_edge10_Node000011_Node000008"><a xlink:title=" ">
<path fill="none" stroke="#63b8ff" d="M219.21,-104.41C234.92,-106.79 252.72,-109.33 269,-111.34 374.84,-124.36 498.31,-135.66 571.8,-141.98"/>
<polygon fill="#63b8ff" stroke="#63b8ff" points="571.39,-145.45 581.65,-142.82 571.98,-138.48 571.39,-145.45"/>
</a>
</g>
</g>
<!-- Node11&#45;&gt;Node9 -->
<g id="edge11_Node000011_Node000009" class="edge">
<title>Node11&#45;&gt;Node9</title>
<g id="a_edge11_Node000011_Node000009"><a xlink:title=" ">
<path fill="none" stroke="#63b8ff" d="M219.44,-97.5C289.16,-97.71 427.83,-97.98 545.5,-97.34 553.96,-97.29 562.86,-97.22 571.65,-97.14"/>
<polygon fill="#63b8ff" stroke="#63b8ff" points="571.61,-100.64 581.58,-97.04 571.54,-93.64 571.61,-100.64"/>
</a>
</g>
</g>
<!-- Node12 -->
<g id="Node000012" class="node">
<title>Node12</title>
<g id="a_Node000012"><a xlink:href="kest__alloc_8c.html#a294af5728a94aa316fcf65304d388d48" target="_top" xlink:title=" ">
<polygon fill="white" stroke="#666666" points="363.75,-88.71 302.75,-88.71 302.75,-67.96 363.75,-67.96 363.75,-88.71"/>
<text xml:space="preserve" text-anchor="middle" x="333.25" y="-75.21" font-family="Helvetica,sans-Serif" font-size="10.00">kest_free</text>
</a>
</g>
</g>
<!-- Node11&#45;&gt;Node12 -->
<g id="edge12_Node000011_Node000012" class="edge">
<title>Node11&#45;&gt;Node12</title>
<g id="a_edge12_Node000011_Node000012"><a xlink:title=" ">
<path fill="none" stroke="#63b8ff" d="M219.37,-91.94C241.9,-89.23 269.03,-85.96 291.04,-83.3"/>
<polygon fill="#63b8ff" stroke="#63b8ff" points="291.35,-86.79 300.86,-82.12 290.51,-79.84 291.35,-86.79"/>
</a>
</g>
</g>
<!-- Node13 -->
<g id="Node000013" class="node">
<title>Node13</title>
<g id="a_Node000013"><a xlink:href="kest__files_8c.html#a00c64a8e626a8a982c9a7ced88c5f90d" target="_top" xlink:title=" ">
<polygon fill="white" stroke="#666666" points="397.5,-49.71 269,-49.71 269,-28.96 397.5,-28.96 397.5,-49.71"/>
<text xml:space="preserve" text-anchor="middle" x="333.25" y="-36.21" font-family="Helvetica,sans-Serif" font-size="10.00">save_sequence_as_file</text>
</a>
</g>
</g>
<!-- Node11&#45;&gt;Node13 -->
<g id="edge13_Node000011_Node000013" class="edge">
<title>Node11&#45;&gt;Node13</title>
<g id="a_edge13_Node000011_Node000013"><a xlink:title=" ">
<path fill="none" stroke="#63b8ff" d="M200.06,-86.48C218.94,-78.57 245.39,-67.81 269,-59.34 274.35,-57.42 279.99,-55.49 285.61,-53.64"/>
<polygon fill="#63b8ff" stroke="#63b8ff" points="286.42,-57.05 294.86,-50.65 284.27,-50.39 286.42,-57.05"/>
</a>
</g>
</g>
<!-- Node13&#45;&gt;Node6 -->
<g id="edge15_Node000013_Node000006" class="edge">
<title>Node13&#45;&gt;Node6</title>
<g id="a_edge15_Node000013_Node000006"><a xlink:title=" ">
<path fill="none" stroke="#63b8ff" d="M377.22,-50.2C396.68,-55.12 419.79,-60.96 439.88,-66.04"/>
<polygon fill="#63b8ff" stroke="#63b8ff" points="438.99,-69.43 449.54,-68.49 440.7,-62.64 438.99,-69.43"/>
</a>
</g>
</g>
<!-- Node13&#45;&gt;Node7 -->
<g id="edge14_Node000013_Node000007" class="edge">
<title>Node13&#45;&gt;Node7</title>
<g id="a_edge14_Node000013_Node000007"><a xlink:title=" ">
<path fill="none" stroke="#63b8ff" d="M397.98,-39.34C448.54,-39.34 518.98,-39.34 570.2,-39.34"/>
<polygon fill="#63b8ff" stroke="#63b8ff" points="569.96,-42.84 579.96,-39.34 569.96,-35.84 569.96,-42.84"/>
</a>
</g>
</g>
</g>
</svg>
