<?xml version="1.0" encoding="UTF-8" standalone="no"?>
<!DOCTYPE svg PUBLIC "-//W3C//DTD SVG 1.1//EN"
 "http://www.w3.org/Graphics/SVG/1.1/DTD/svg11.dtd">
<!-- Generated by graphviz version 13.1.2 (20250808.2320)
 -->
<!-- Title: kest_button_enable Pages: 1 -->
<svg width="959pt" height="145pt"
 viewBox="0.00 0.00 959.00 145.00" xmlns="http://www.w3.org/2000/svg" xmlns:xlink="http://www.w3.org/1999/xlink">
<g id="graph0" class="graph" transform="scale(1 1) rotate(0) translate(4 140.75)">
<title>kest_button_enable</title>
<!-- Node1 -->
<g id="Node000001" class="node">
<title>Node1</title>
<g id="a_Node000001"><a xlink:title=" ">
<polygon fill="#999999" stroke="#666666" points="951,-78.75 839.75,-78.75 839.75,-58 951,-58 951,-78.75"/>
<text xml:space="preserve" text-anchor="middle" x="895.38" y="-65.25" font-family="Helvetica,sans-Serif" font-size="10.00">kest_button_enable</text>
</a>
</g>
</g>
<!-- Node2 -->
<g id="Node000002" class="node">
<title>Node2</title>
<g id="a_Node000002"><a xlink:href="kest__profile__view_8c.html#a8d4a419595556bb686a9d03c66f1d578" target="_top" xlink:title=" ">
<polygon fill="white" stroke="#666666" points="607.75,-136.75 471.75,-136.75 471.75,-116 607.75,-116 607.75,-136.75"/>
<text xml:space="preserve" text-anchor="middle" x="539.75" y="-123.25" font-family="Helvetica,sans-Serif" font-size="10.00">profile_view_rep_update</text>
</a>
</g>
</g>
<!-- Node1&#45;&gt;Node2 -->
<g id="edge1_Node000001_Node000002" class="edge">
<title>Node1&#45;&gt;Node2</title>
<g id="a_edge1_Node000001_Node000002"><a xlink:title=" ">
<path fill="none" stroke="#63b8ff" d="M864.51,-84.24C847.25,-92.63 824.83,-102.23 803.75,-107.38 738.59,-123.27 661.88,-127.19 608.18,-127.64"/>
<polygon fill="#63b8ff" stroke="#63b8ff" points="865.8,-87.5 873.18,-79.9 862.67,-81.24 865.8,-87.5"/>
</a>
</g>
</g>
<!-- Node24 -->
<g id="Node000024" class="node">
<title>Node24</title>
<g id="a_Node000024"><a xlink:href="kest__profile__view_8c.html#a090890f54a5017e1baacd296da5dffde" target="_top" xlink:title=" ">
<polygon fill="white" stroke="#666666" points="797,-98.75 659.5,-98.75 659.5,-78 797,-78 797,-98.75"/>
<text xml:space="preserve" text-anchor="middle" x="728.25" y="-85.25" font-family="Helvetica,sans-Serif" font-size="10.00">profile_view_save_name</text>
</a>
</g>
</g>
<!-- Node1&#45;&gt;Node24 -->
<g id="edge4_Node000001_Node000024" class="edge">
<title>Node1&#45;&gt;Node24</title>
<g id="a_edge4_Node000001_Node000024"><a xlink:title=" ">
<path fill="none" stroke="#63b8ff" d="M828.09,-76.4C817.93,-77.63 807.42,-78.91 797.22,-80.14"/>
<polygon fill="#63b8ff" stroke="#63b8ff" points="828.38,-79.89 837.89,-75.22 827.54,-72.94 828.38,-79.89"/>
</a>
</g>
</g>
<!-- Node27 -->
<g id="Node000027" class="node">
<title>Node27</title>
<g id="a_Node000027"><a xlink:href="kest__sequence__view_8c.html#a18341f03445e1f2f63bf07b4a97715aa" target="_top" xlink:title=" ">
<polygon fill="white" stroke="#666666" points="803.75,-59.75 652.75,-59.75 652.75,-39 803.75,-39 803.75,-59.75"/>
<text xml:space="preserve" text-anchor="middle" x="728.25" y="-46.25" font-family="Helvetica,sans-Serif" font-size="10.00">sequence_view_rep_update</text>
</a>
</g>
</g>
<!-- Node1&#45;&gt;Node27 -->
<g id="edge9_Node000001_Node000027" class="edge">
<title>Node1&#45;&gt;Node27</title>
<g id="a_edge9_Node000001_Node000027"><a xlink:title=" ">
<path fill="none" stroke="#63b8ff" d="M828,-60.74C820.1,-59.83 811.99,-58.9 803.98,-57.97"/>
<polygon fill="#63b8ff" stroke="#63b8ff" points="827.55,-64.21 837.89,-61.88 828.35,-57.26 827.55,-64.21"/>
</a>
</g>
</g>
<!-- Node28 -->
<g id="Node000028" class="node">
<title>Node28</title>
<g id="a_Node000028"><a xlink:href="kest__sequence__view_8c.html#a9a770d265f15421aca3cec3f9d758e30" target="_top" xlink:title=" ">
<polygon fill="white" stroke="#666666" points="800.38,-20.75 656.12,-20.75 656.12,0 800.38,0 800.38,-20.75"/>
<text xml:space="preserve" text-anchor="middle" x="728.25" y="-7.25" font-family="Helvetica,sans-Serif" font-size="10.00">sequence_view_set_name</text>
</a>
</g>
</g>
<!-- Node1&#45;&gt;Node28 -->
<g id="edge11_Node000001_Node000028" class="edge">
<title>Node1&#45;&gt;Node28</title>
<g id="a_edge11_Node000001_Node000028"><a xlink:title=" ">
<path fill="none" stroke="#63b8ff" d="M860.77,-53.01C843.87,-45.61 822.95,-36.94 803.75,-30.38 794.12,-27.08 783.64,-23.98 773.67,-21.25"/>
<polygon fill="#63b8ff" stroke="#63b8ff" points="859.29,-56.18 869.85,-57.04 862.13,-49.79 859.29,-56.18"/>
</a>
</g>
</g>
<!-- Node3 -->
<g id="Node000003" class="node">
<title>Node3</title>
<g id="a_Node000003"><a xlink:href="kest__profile__view_8c.html#abfe2cf72961d0ab0b70f858cf1281a38" target="_top" xlink:title=" ">
<polygon fill="white" stroke="#666666" points="263.75,-135.75 166.75,-135.75 166.75,-115 263.75,-115 263.75,-135.75"/>
<text xml:space="preserve" text-anchor="middle" x="215.25" y="-122.25" font-family="Helvetica,sans-Serif" font-size="10.00">init_profile_view</text>
</a>
</g>
</g>
<!-- Node2&#45;&gt;Node3 -->
<g id="edge2_Node000002_Node000003" class="edge">
<title>Node2&#45;&gt;Node3</title>
<g id="a_edge2_Node000002_Node000003"><a xlink:title=" ">
<path fill="none" stroke="#63b8ff" d="M460.35,-126.13C399.02,-125.94 315.73,-125.68 264.02,-125.52"/>
<polygon fill="#63b8ff" stroke="#63b8ff" points="460.01,-129.63 470.02,-126.16 460.03,-122.63 460.01,-129.63"/>
</a>
</g>
</g>
<!-- Node4 -->
<g id="Node000004" class="node">
<title>Node4</title>
<g id="a_Node000004"><a xlink:href="kest__profile__view_8c.html#a8a76cb40ff26bbde55ba56a4f25094d1" target="_top" xlink:title=" ">
<polygon fill="#fff0f0" stroke="red" points="130.75,-116.75 0,-116.75 0,-96 130.75,-96 130.75,-116.75"/>
<text xml:space="preserve" text-anchor="middle" x="65.38" y="-103.25" font-family="Helvetica,sans-Serif" font-size="10.00">create_profile_view_for</text>
</a>
</g>
</g>
<!-- Node3&#45;&gt;Node4 -->
<g id="edge3_Node000003_Node000004" class="edge">
<title>Node3&#45;&gt;Node4</title>
<g id="a_edge3_Node000003_Node000004"><a xlink:title=" ">
<path fill="none" stroke="#63b8ff" d="M155.25,-117.79C147.32,-116.78 139.16,-115.73 131.14,-114.7"/>
<polygon fill="#63b8ff" stroke="#63b8ff" points="154.78,-121.26 165.15,-119.07 155.67,-114.32 154.78,-121.26"/>
</a>
</g>
</g>
<!-- Node25 -->
<g id="Node000025" class="node">
<title>Node25</title>
<g id="a_Node000025"><a xlink:href="kest__profile__view_8c.html#a08c96dd43f7672a21827f83800181c89" target="_top" xlink:title=" ">
<polygon fill="white" stroke="#666666" points="616.75,-97.75 462.75,-97.75 462.75,-77 616.75,-77 616.75,-97.75"/>
<text xml:space="preserve" text-anchor="middle" x="539.75" y="-84.25" font-family="Helvetica,sans-Serif" font-size="10.00">profile_view_save_name_cb</text>
</a>
</g>
</g>
<!-- Node24&#45;&gt;Node25 -->
<g id="edge5_Node000024_Node000025" class="edge">
<title>Node24&#45;&gt;Node25</title>
<g id="a_edge5_Node000024_Node000025"><a xlink:title=" ">
<path fill="none" stroke="#63b8ff" d="M647.8,-87.95C637.66,-87.89 627.29,-87.84 617.2,-87.78"/>
<polygon fill="#63b8ff" stroke="#63b8ff" points="647.6,-91.45 657.61,-88 647.63,-84.45 647.6,-91.45"/>
</a>
</g>
</g>
<!-- Node26 -->
<g id="Node000026" class="node">
<title>Node26</title>
<g id="a_Node000026"><a xlink:href="kest__profile__view_8c.html#a9f9505132871c2ea372958fd06ecf10f" target="_top" xlink:title=" ">
<polygon fill="white" stroke="#666666" points="426.75,-97.75 299.75,-97.75 299.75,-77 426.75,-77 426.75,-97.75"/>
<text xml:space="preserve" text-anchor="middle" x="363.25" y="-84.25" font-family="Helvetica,sans-Serif" font-size="10.00">configure_profile_view</text>
</a>
</g>
</g>
<!-- Node25&#45;&gt;Node26 -->
<g id="edge6_Node000025_Node000026" class="edge">
<title>Node25&#45;&gt;Node26</title>
<g id="a_edge6_Node000025_Node000026"><a xlink:title=" ">
<path fill="none" stroke="#63b8ff" d="M451.04,-87.38C442.94,-87.38 434.85,-87.38 427.04,-87.38"/>
<polygon fill="#63b8ff" stroke="#63b8ff" points="450.95,-90.88 460.95,-87.38 450.95,-83.88 450.95,-90.88"/>
</a>
</g>
</g>
<!-- Node26&#45;&gt;Node3 -->
<g id="edge8_Node000026_Node000003" class="edge">
<title>Node26&#45;&gt;Node3</title>
<g id="a_edge8_Node000026_Node000003"><a xlink:title=" ">
<path fill="none" stroke="#63b8ff" d="M309.84,-101.01C292.74,-105.47 273.99,-110.35 257.8,-114.56"/>
<polygon fill="#63b8ff" stroke="#63b8ff" points="310.54,-104.45 319.34,-98.54 308.78,-97.68 310.54,-104.45"/>
</a>
</g>
</g>
<!-- Node26&#45;&gt;Node4 -->
<g id="edge7_Node000026_Node000004" class="edge">
<title>Node26&#45;&gt;Node4</title>
<g id="a_edge7_Node000026_Node000004"><a xlink:title=" ">
<path fill="none" stroke="#63b8ff" d="M288.17,-92.13C239.85,-95.23 177.4,-99.25 131.08,-102.22"/>
<polygon fill="#63b8ff" stroke="#63b8ff" points="288.24,-95.64 297.99,-91.5 287.79,-88.65 288.24,-95.64"/>
</a>
</g>
</g>
<!-- Node23 -->
<g id="Node000023" class="node">
<title>Node23</title>
<g id="a_Node000023"><a xlink:href="kest__sequence__view_8c.html#aca115eba822b7486dc289cc9150562a7" target="_top" xlink:title=" ">
<polygon fill="#fff0f0" stroke="red" points="419.25,-40.75 307.25,-40.75 307.25,-20 419.25,-20 419.25,-40.75"/>
<text xml:space="preserve" text-anchor="middle" x="363.25" y="-27.25" font-family="Helvetica,sans-Serif" font-size="10.00">init_sequence_view</text>
</a>
</g>
</g>
<!-- Node27&#45;&gt;Node23 -->
<g id="edge10_Node000027_Node000023" class="edge">
<title>Node27&#45;&gt;Node23</title>
<g id="a_edge10_Node000027_Node000023"><a xlink:title=" ">
<path fill="none" stroke="#63b8ff" d="M641.27,-44.87C572.68,-41.28 478.64,-36.36 419.68,-33.28"/>
<polygon fill="#63b8ff" stroke="#63b8ff" points="640.8,-48.35 650.96,-45.38 641.16,-41.36 640.8,-48.35"/>
</a>
</g>
</g>
<!-- Node11 -->
<g id="Node000011" class="node">
<title>Node11</title>
<g id="a_Node000011"><a xlink:href="kest__sequence__view_8c.html#ac871b24a7c875a7b6e707a3d2691a2a9" target="_top" xlink:title=" ">
<polygon fill="#fff0f0" stroke="red" points="610.75,-21.75 468.75,-21.75 468.75,-1 610.75,-1 610.75,-21.75"/>
<text xml:space="preserve" text-anchor="middle" x="539.75" y="-8.25" font-family="Helvetica,sans-Serif" font-size="10.00">configure_sequence_view</text>
</a>
</g>
</g>
<!-- Node28&#45;&gt;Node11 -->
<g id="edge12_Node000028_Node000011" class="edge">
<title>Node28&#45;&gt;Node11</title>
<g id="a_edge12_Node000028_Node000011"><a xlink:title=" ">
<path fill="none" stroke="#63b8ff" d="M644.27,-10.82C633.24,-10.88 622,-10.94 611.21,-11"/>
<polygon fill="#63b8ff" stroke="#63b8ff" points="644.18,-14.32 654.16,-10.77 644.15,-7.32 644.18,-14.32"/>
</a>
</g>
</g>
<!-- Node11&#45;&gt;Node23 -->
<g id="edge13_Node000011_Node000023" class="edge">
<title>Node11&#45;&gt;Node23</title>
<g id="a_edge13_Node000011_Node000023"><a xlink:title=" ">
<path fill="none" stroke="#63b8ff" d="M457.19,-20.26C444.49,-21.64 431.63,-23.04 419.69,-24.34"/>
<polygon fill="#63b8ff" stroke="#63b8ff" points="457.21,-23.77 466.77,-19.21 456.45,-16.82 457.21,-23.77"/>
</a>
</g>
</g>
</g>
</svg>
