<?xml version="1.0" encoding="UTF-8" standalone="no"?>
<!DOCTYPE svg PUBLIC "-//W3C//DTD SVG 1.1//EN"
 "http://www.w3.org/Graphics/SVG/1.1/DTD/svg11.dtd">
<!-- Generated by graphviz version 13.1.2 (20250808.2320)
 -->
<!-- Title: kest_parser_alloc Pages: 1 -->
<!--zoomable 808 -->

<svg id="main" version="1.1" xmlns="http://www.w3.org/2000/svg" xmlns:xlink="http://www.w3.org/1999/xlink" xml:space="preserve" onload="init(evt)">

<style type="text/css"><![CDATA[
.node, .edge {opacity: 0.7;}
.node.selected, .edge.selected {opacity: 1;}
.edge:hover path { stroke: red; }
.edge:hover polygon { stroke: red; fill: red; }
]]></style>

<defs>
  <circle id="rim" cx="0" cy="0" r="7"/>
  <circle id="rim2" cx="0" cy="0" r="3.5"/>
  <g id="zoomPlus">
    <use xlink:href="#rim" fill="#404040"><set attributeName="fill" to="#808080" begin="zoomplus.mouseover" end="zoomplus.mouseout"/></use>
    <path d="M-4,0h8M0,-4v8" fill="none" stroke="white" stroke-width="1.5" pointer-events="none"/>
  </g>
  <g id="zoomMin">
    <use xlink:href="#rim" fill="#404040"><set attributeName="fill" to="#808080" begin="zoomminus.mouseover" end="zoomminus.mouseout"/></use>
    <path d="M-4,0h8" fill="none" stroke="white" stroke-width="1.5" pointer-events="none"/>
  </g>
  <g id="arrowUp" transform="translate(30 24)">
    <use xlink:href="#rim"/>
    <path pointer-events="none" fill="none" stroke="white" stroke-width="1.5" d="M0,-3.0v7 M-2.5,-0.5L0,-3.0L2.5,-0.5"/>
  </g>
  <g id="arrowRight" transform="rotate(90) translate(36 -43)">
    <use xlink:href="#rim"/>
    <path pointer-events="none" fill="none" stroke="white" stroke-width="1.5" d="M0,-3.0v7 M-2.5,-0.5L0,-3.0L2.5,-0.5"/>
  </g>
  <g id="arrowDown" transform="rotate(180) translate(-30 -48)">
    <use xlink:href="#rim"/>
    <path pointer-events="none" fill="none" stroke="white" stroke-width="1.5" d="M0,-3.0v7 M-2.5,-0.5L0,-3.0L2.5,-0.5"/>
  </g>
  <g id="arrowLeft" transform="rotate(270) translate(-36 17)">
    <use xlink:href="#rim"/>
    <path pointer-events="none" fill="none" stroke="white" stroke-width="1.5" d="M0,-3.0v7 M-2.5,-0.5L0,-3.0L2.5,-0.5"/>
  </g>
  <g id="resetDef">
    <use xlink:href="#rim2" fill="#404040"><set attributeName="fill" to="#808080" begin="reset.mouseover" end="reset.mouseout"/></use>
  </g>
</defs>
<script type="application/ecmascript">
var viewWidth = 1067;
var viewHeight = 808;
var sectionId = 'dynsection-10';
</script>
<script type="application/ecmascript" xlink:href="svg.min.js"/>
<svg id="graph" class="graph">
<g id="viewport">
<title>kest_parser_alloc</title>
<!-- Node1 -->
<g id="Node000001" class="node">
<title>Node1</title>
<g id="a_Node000001"><a xlink:title=" ">
<polygon fill="#999999" stroke="#666666" points="1058.5,-226.49 957.75,-226.49 957.75,-205.74 1058.5,-205.74 1058.5,-226.49"/>
<text xml:space="preserve" text-anchor="middle" x="1008.12" y="-212.99" font-family="Helvetica,sans-Serif" font-size="10.00">kest_parser_alloc</text>
</a>
</g>
</g>
<!-- Node2 -->
<g id="Node000002" class="node">
<title>Node2</title>
<g id="a_Node000002"><a xlink:href="kest__dictionary_8c.html#acd9014ad851b1e82c27acf4d4b4bd13e" target="_top" xlink:title=" ">
<polygon fill="white" stroke="#666666" points="921.75,-591.86 794,-591.86 794,-558.36 921.75,-558.36 921.75,-591.86"/>
<text xml:space="preserve" text-anchor="start" x="802" y="-578.36" font-family="Helvetica,sans-Serif" font-size="10.00">kest_dictionary_bucket</text>
<text xml:space="preserve" text-anchor="middle" x="857.88" y="-565.61" font-family="Helvetica,sans-Serif" font-size="10.00">_ensure_capacity</text>
</a>
</g>
</g>
<!-- Node1&#45;&gt;Node2 -->
<g id="edge1_Node000001_Node000002" class="edge">
<title>Node1&#45;&gt;Node2</title>
<g id="a_edge1_Node000001_Node000002"><a xlink:title=" ">
<path fill="none" stroke="#63b8ff" d="M999.54,-237.54C985.21,-277.66 952.81,-366.66 921.75,-440.11 903.53,-483.22 879.64,-532.85 867.21,-558.24"/>
<polygon fill="#63b8ff" stroke="#63b8ff" points="1002.75,-238.97 1002.8,-228.37 996.15,-236.62 1002.75,-238.97"/>
</a>
</g>
</g>
<!-- Node5 -->
<g id="Node000005" class="node">
<title>Node5</title>
<g id="a_Node000005"><a xlink:href="kest__dictionary_8c.html#a8db4f9c511b00d7240052135e9c1ed67" target="_top" xlink:title=" ">
<polygon fill="white" stroke="#666666" points="431.25,-398.49 319.25,-398.49 319.25,-377.74 431.25,-377.74 431.25,-398.49"/>
<text xml:space="preserve" text-anchor="middle" x="375.25" y="-384.99" font-family="Helvetica,sans-Serif" font-size="10.00">kest_parse_dict_list</text>
</a>
</g>
</g>
<!-- Node1&#45;&gt;Node5 -->
<g id="edge34_Node000001_Node000005" class="edge">
<title>Node1&#45;&gt;Node5</title>
<g id="a_edge34_Node000001_Node000005"><a xlink:title=" ">
<path fill="none" stroke="#63b8ff" d="M984.47,-233.68C942.52,-265.14 848.69,-330.46 758,-359.11 646.14,-394.45 507.06,-394.85 431.47,-391.68"/>
<polygon fill="#63b8ff" stroke="#63b8ff" points="986.48,-236.55 992.33,-227.72 982.25,-230.98 986.48,-236.55"/>
</a>
</g>
</g>
<!-- Node25 -->
<g id="Node000025" class="node">
<title>Node25</title>
<g id="a_Node000025"><a xlink:href="kest__dictionary_8c.html#ab04009ad2902fc35ca82579760556eb5" target="_top" xlink:title=" ">
<polygon fill="white" stroke="#666666" points="758,-643.86 629.5,-643.86 629.5,-610.36 758,-610.36 758,-643.86"/>
<text xml:space="preserve" text-anchor="start" x="637.5" y="-630.36" font-family="Helvetica,sans-Serif" font-size="10.00">kest_dictionary_ensure</text>
<text xml:space="preserve" text-anchor="middle" x="693.75" y="-617.61" font-family="Helvetica,sans-Serif" font-size="10.00">_capacity</text>
</a>
</g>
</g>
<!-- Node1&#45;&gt;Node25 -->
<g id="edge20_Node000001_Node000025" class="edge">
<title>Node1&#45;&gt;Node25</title>
<g id="a_edge20_Node000001_Node000025"><a xlink:title=" ">
<path fill="none" stroke="#63b8ff" d="M1005.55,-237.74C999.7,-311.55 976.69,-551.62 921.75,-601.11 878.06,-640.47 808.84,-642.97 758.32,-638.09"/>
<polygon fill="#63b8ff" stroke="#63b8ff" points="1009.01,-238.42 1006.28,-228.18 1002.03,-237.89 1009.01,-238.42"/>
</a>
</g>
</g>
<!-- Node26 -->
<g id="Node000026" class="node">
<title>Node26</title>
<g id="a_Node000026"><a xlink:href="kest__dictionary_8c.html#aa3d79179f434138316e0d3a4c7315ace" target="_top" xlink:title=" ">
<polygon fill="white" stroke="#666666" points="433.12,-437.49 317.38,-437.49 317.38,-416.74 433.12,-416.74 433.12,-437.49"/>
<text xml:space="preserve" text-anchor="middle" x="375.25" y="-423.99" font-family="Helvetica,sans-Serif" font-size="10.00">kest_new_dictionary</text>
</a>
</g>
</g>
<!-- Node1&#45;&gt;Node26 -->
<g id="edge27_Node000001_Node000026" class="edge">
<title>Node1&#45;&gt;Node26</title>
<g id="a_edge27_Node000001_Node000026"><a xlink:title=" ">
<path fill="none" stroke="#63b8ff" d="M995.92,-236.82C981.68,-261.33 954.93,-301.87 921.75,-326.11 772.44,-435.21 540.25,-437.47 433.49,-431.79"/>
<polygon fill="#63b8ff" stroke="#63b8ff" points="998.96,-238.55 1000.82,-228.12 992.86,-235.12 998.96,-238.55"/>
</a>
</g>
</g>
<!-- Node27 -->
<g id="Node000027" class="node">
<title>Node27</title>
<g id="a_Node000027"><a xlink:href="kest__asm__parser_8c.html#a8a0d633256a85b35706b7a9ef1add7f0" target="_top" xlink:title=" ">
<polygon fill="white" stroke="#666666" points="752.75,-132.49 634.75,-132.49 634.75,-111.74 752.75,-111.74 752.75,-132.49"/>
<text xml:space="preserve" text-anchor="middle" x="693.75" y="-118.99" font-family="Helvetica,sans-Serif" font-size="10.00">kest_parse_asm_line</text>
</a>
</g>
</g>
<!-- Node1&#45;&gt;Node27 -->
<g id="edge29_Node000001_Node000027" class="edge">
<title>Node1&#45;&gt;Node27</title>
<g id="a_edge29_Node000001_Node000027"><a xlink:title=" ">
<path fill="none" stroke="#63b8ff" d="M982.05,-199.25C965.55,-188.86 943.13,-176.06 921.75,-168.11 866.35,-147.51 799.72,-135.4 753.03,-128.82"/>
<polygon fill="#63b8ff" stroke="#63b8ff" points="979.92,-202.04 990.22,-204.51 983.71,-196.15 979.92,-202.04"/>
</a>
</g>
</g>
<!-- Node9 -->
<g id="Node000009" class="node">
<title>Node9</title>
<g id="a_Node000009"><a xlink:href="kest__eff__parser_8c.html#a73ef6962d1925857ec3e4b12d1aad834" target="_top" xlink:title=" ">
<polygon fill="white" stroke="#666666" points="267.5,-150.49 161.5,-150.49 161.5,-129.74 267.5,-129.74 267.5,-150.49"/>
<text xml:space="preserve" text-anchor="middle" x="214.5" y="-136.99" font-family="Helvetica,sans-Serif" font-size="10.00">kest_parse_tokens</text>
</a>
</g>
</g>
<!-- Node1&#45;&gt;Node9 -->
<g id="edge35_Node000001_Node000009" class="edge">
<title>Node1&#45;&gt;Node9</title>
<g id="a_edge35_Node000001_Node000009"><a xlink:title=" ">
<path fill="none" stroke="#63b8ff" d="M992.77,-196.24C977.45,-176.56 951.34,-147.12 921.75,-131.11 831.05,-82.06 797.87,-83.11 694.75,-83.11 694.75,-83.11 694.75,-83.11 535.75,-83.11 433.51,-83.11 405.83,-77.9 306.5,-102.11 281.38,-108.24 254.24,-120.36 236.19,-129.27"/>
<polygon fill="#63b8ff" stroke="#63b8ff" points="989.85,-198.18 998.66,-204.06 995.44,-193.97 989.85,-198.18"/>
</a>
</g>
</g>
<!-- Node10 -->
<g id="Node000010" class="node">
<title>Node10</title>
<g id="a_Node000010"><a xlink:href="kest__eff__parser_8c.html#ae4618958c44389928c260fdb0e170761" target="_top" xlink:title=" ">
<polygon fill="#fff0f0" stroke="red" points="116.12,-156.86 6.38,-156.86 6.38,-123.36 116.12,-123.36 116.12,-156.86"/>
<text xml:space="preserve" text-anchor="start" x="14.38" y="-143.36" font-family="Helvetica,sans-Serif" font-size="10.00">kest_read_eff_desc</text>
<text xml:space="preserve" text-anchor="middle" x="61.25" y="-130.61" font-family="Helvetica,sans-Serif" font-size="10.00">_from_file</text>
</a>
</g>
</g>
<!-- Node1&#45;&gt;Node10 -->
<g id="edge46_Node000001_Node000010" class="edge">
<title>Node1&#45;&gt;Node10</title>
<g id="a_edge46_Node000001_Node000010"><a xlink:title=" ">
<path fill="none" stroke="#63b8ff" d="M1003.52,-194.36C995.91,-155.92 974.38,-76.46 921.75,-38.11 839.45,21.85 796.58,-7.11 694.75,-7.11 694.75,-7.11 694.75,-7.11 374.25,-7.11 275.82,-7.11 246.27,-12.56 158.5,-57.11 125.64,-73.79 94.69,-104.03 77.15,-123.04"/>
<polygon fill="#63b8ff" stroke="#63b8ff" points="1000.04,-194.8 1005.28,-204 1006.93,-193.54 1000.04,-194.8"/>
</a>
</g>
</g>
<!-- Node30 -->
<g id="Node000030" class="node">
<title>Node30</title>
<g id="a_Node000030"><a xlink:href="kest__eff__parser_8c.html#a265d95f1e4d31d04442cef44e98cb943" target="_top" xlink:title=" ">
<polygon fill="white" stroke="#666666" points="269.38,-99.86 159.62,-99.86 159.62,-66.36 269.38,-66.36 269.38,-99.86"/>
<text xml:space="preserve" text-anchor="start" x="167.62" y="-86.36" font-family="Helvetica,sans-Serif" font-size="10.00">kest_parser_lineize</text>
<text xml:space="preserve" text-anchor="middle" x="214.5" y="-73.61" font-family="Helvetica,sans-Serif" font-size="10.00">_content</text>
</a>
</g>
</g>
<!-- Node1&#45;&gt;Node30 -->
<g id="edge36_Node000001_Node000030" class="edge">
<title>Node1&#45;&gt;Node30</title>
<g id="a_edge36_Node000001_Node000030"><a xlink:title=" ">
<path fill="none" stroke="#63b8ff" d="M1000,-194.96C988.6,-164.64 963.23,-109.44 921.75,-82.11 836.39,-25.88 796.97,-45.11 694.75,-45.11 694.75,-45.11 694.75,-45.11 535.75,-45.11 441.69,-45.11 333.16,-61.48 269.67,-72.73"/>
<polygon fill="#63b8ff" stroke="#63b8ff" points="996.63,-195.94 1003.3,-204.18 1003.22,-193.58 996.63,-195.94"/>
</a>
</g>
</g>
<!-- Node31 -->
<g id="Node000031" class="node">
<title>Node31</title>
<g id="a_Node000031"><a xlink:href="kest__eff__parser_8c.html#a06afc65a973778a4d6bd160064e72253" target="_top" xlink:title=" ">
<polygon fill="white" stroke="#666666" points="915,-249.49 800.75,-249.49 800.75,-228.74 915,-228.74 915,-249.49"/>
<text xml:space="preserve" text-anchor="middle" x="857.88" y="-235.99" font-family="Helvetica,sans-Serif" font-size="10.00">kest_parser_strndup</text>
</a>
</g>
</g>
<!-- Node1&#45;&gt;Node31 -->
<g id="edge38_Node000001_Node000031" class="edge">
<title>Node1&#45;&gt;Node31</title>
<g id="a_edge38_Node000001_Node000031"><a xlink:title=" ">
<path fill="none" stroke="#63b8ff" d="M946.08,-225.58C935.93,-227.16 925.45,-228.78 915.42,-230.34"/>
<polygon fill="#63b8ff" stroke="#63b8ff" points="946.51,-229.06 955.85,-224.07 945.43,-222.14 946.51,-229.06"/>
</a>
</g>
</g>
<!-- Node33 -->
<g id="Node000033" class="node">
<title>Node33</title>
<g id="a_Node000033"><a xlink:href="kest__tokenizer_8c.html#a142be5695a3b349820b5aaf3718583dc" target="_top" xlink:title=" ">
<polygon fill="white" stroke="#666666" points="910.88,-210.86 804.88,-210.86 804.88,-177.36 910.88,-177.36 910.88,-210.86"/>
<text xml:space="preserve" text-anchor="start" x="812.88" y="-197.36" font-family="Helvetica,sans-Serif" font-size="10.00">kest_token_ll_safe</text>
<text xml:space="preserve" text-anchor="middle" x="857.88" y="-184.61" font-family="Helvetica,sans-Serif" font-size="10.00">_aappend</text>
</a>
</g>
</g>
<!-- Node1&#45;&gt;Node33 -->
<g id="edge47_Node000001_Node000033" class="edge">
<title>Node1&#45;&gt;Node33</title>
<g id="a_edge47_Node000001_Node000033"><a xlink:title=" ">
<path fill="none" stroke="#63b8ff" d="M946.01,-207.04C934.49,-205.33 922.54,-203.56 911.31,-201.89"/>
<polygon fill="#63b8ff" stroke="#63b8ff" points="945.44,-210.5 955.85,-208.5 946.47,-203.57 945.44,-210.5"/>
</a>
</g>
</g>
<!-- Node3 -->
<g id="Node000003" class="node">
<title>Node3</title>
<g id="a_Node000003"><a xlink:href="kest__dictionary_8c.html#a674edf8d06b6583a366c336ec755c20e" target="_top" xlink:title=" ">
<polygon fill="white" stroke="#666666" points="757.62,-487.86 629.88,-487.86 629.88,-454.36 757.62,-454.36 757.62,-487.86"/>
<text xml:space="preserve" text-anchor="start" x="637.88" y="-474.36" font-family="Helvetica,sans-Serif" font-size="10.00">kest_dictionary_bucket</text>
<text xml:space="preserve" text-anchor="middle" x="693.75" y="-461.61" font-family="Helvetica,sans-Serif" font-size="10.00">_add_entry</text>
</a>
</g>
</g>
<!-- Node2&#45;&gt;Node3 -->
<g id="edge2_Node000002_Node000003" class="edge">
<title>Node2&#45;&gt;Node3</title>
<g id="a_edge2_Node000002_Node000003"><a xlink:title=" ">
<path fill="none" stroke="#63b8ff" d="M829.87,-550.42C810.79,-533.85 784.07,-512.35 758,-497.11 752.57,-493.94 746.67,-490.96 740.74,-488.24"/>
<polygon fill="#63b8ff" stroke="#63b8ff" points="827.38,-552.89 837.2,-556.88 832.01,-547.64 827.38,-552.89"/>
</a>
</g>
</g>
<!-- Node15 -->
<g id="Node000015" class="node">
<title>Node15</title>
<g id="a_Node000015"><a xlink:href="kest__dictionary_8c.html#a85cee4d8833bf8638209bd8266415afa" target="_top" xlink:title=" ">
<polygon fill="white" stroke="#666666" points="757.62,-747.86 629.88,-747.86 629.88,-714.36 757.62,-714.36 757.62,-747.86"/>
<text xml:space="preserve" text-anchor="start" x="637.88" y="-734.36" font-family="Helvetica,sans-Serif" font-size="10.00">kest_dictionary_bucket</text>
<text xml:space="preserve" text-anchor="middle" x="693.75" y="-721.61" font-family="Helvetica,sans-Serif" font-size="10.00">_add_entry_dict</text>
</a>
</g>
</g>
<!-- Node2&#45;&gt;Node15 -->
<g id="edge10_Node000002_Node000015" class="edge">
<title>Node2&#45;&gt;Node15</title>
<g id="a_edge10_Node000002_Node000015"><a xlink:title=" ">
<path fill="none" stroke="#63b8ff" d="M842.27,-602.03C825.36,-630.97 795.04,-676.64 758,-705.11 753.76,-708.37 749.06,-711.28 744.19,-713.88"/>
<polygon fill="#63b8ff" stroke="#63b8ff" points="845.22,-603.92 847.13,-593.5 839.13,-600.46 845.22,-603.92"/>
</a>
</g>
</g>
<!-- Node17 -->
<g id="Node000017" class="node">
<title>Node17</title>
<g id="a_Node000017"><a xlink:href="kest__dictionary_8c.html#ad72136b7d725caf736b0c94caea9fb06" target="_top" xlink:title=" ">
<polygon fill="white" stroke="#666666" points="757.62,-695.86 629.88,-695.86 629.88,-662.36 757.62,-662.36 757.62,-695.86"/>
<text xml:space="preserve" text-anchor="start" x="637.88" y="-682.36" font-family="Helvetica,sans-Serif" font-size="10.00">kest_dictionary_bucket</text>
<text xml:space="preserve" text-anchor="middle" x="693.75" y="-669.61" font-family="Helvetica,sans-Serif" font-size="10.00">_add_entry_expr</text>
</a>
</g>
</g>
<!-- Node2&#45;&gt;Node17 -->
<g id="edge12_Node000002_Node000017" class="edge">
<title>Node2&#45;&gt;Node17</title>
<g id="a_edge12_Node000002_Node000017"><a xlink:title=" ">
<path fill="none" stroke="#63b8ff" d="M829.87,-599.8C810.79,-616.37 784.07,-637.87 758,-653.11 752.57,-656.29 746.67,-659.26 740.74,-661.98"/>
<polygon fill="#63b8ff" stroke="#63b8ff" points="832.01,-602.58 837.2,-593.35 827.38,-597.33 832.01,-602.58"/>
</a>
</g>
</g>
<!-- Node19 -->
<g id="Node000019" class="node">
<title>Node19</title>
<g id="a_Node000019"><a xlink:href="kest__dictionary_8c.html#a2f387c15a12220e5b1a670dba0f3b511" target="_top" xlink:title=" ">
<polygon fill="white" stroke="#666666" points="757.62,-591.86 629.88,-591.86 629.88,-558.36 757.62,-558.36 757.62,-591.86"/>
<text xml:space="preserve" text-anchor="start" x="637.88" y="-578.36" font-family="Helvetica,sans-Serif" font-size="10.00">kest_dictionary_bucket</text>
<text xml:space="preserve" text-anchor="middle" x="693.75" y="-565.61" font-family="Helvetica,sans-Serif" font-size="10.00">_add_entry_float</text>
</a>
</g>
</g>
<!-- Node2&#45;&gt;Node19 -->
<g id="edge14_Node000002_Node000019" class="edge">
<title>Node2&#45;&gt;Node19</title>
<g id="a_edge14_Node000002_Node000019"><a xlink:title=" ">
<path fill="none" stroke="#63b8ff" d="M782.32,-575.11C774.19,-575.11 765.97,-575.11 757.99,-575.11"/>
<polygon fill="#63b8ff" stroke="#63b8ff" points="782.22,-578.61 792.22,-575.11 782.22,-571.61 782.22,-578.61"/>
</a>
</g>
</g>
<!-- Node21 -->
<g id="Node000021" class="node">
<title>Node21</title>
<g id="a_Node000021"><a xlink:href="kest__dictionary_8c.html#a23ddb4ebb9a94e0cf954530b444a4963" target="_top" xlink:title=" ">
<polygon fill="white" stroke="#666666" points="757.62,-539.86 629.88,-539.86 629.88,-506.36 757.62,-506.36 757.62,-539.86"/>
<text xml:space="preserve" text-anchor="start" x="637.88" y="-526.36" font-family="Helvetica,sans-Serif" font-size="10.00">kest_dictionary_bucket</text>
<text xml:space="preserve" text-anchor="middle" x="693.75" y="-513.61" font-family="Helvetica,sans-Serif" font-size="10.00">_add_entry_int</text>
</a>
</g>
</g>
<!-- Node2&#45;&gt;Node21 -->
<g id="edge16_Node000002_Node000021" class="edge">
<title>Node2&#45;&gt;Node21</title>
<g id="a_edge16_Node000002_Node000021"><a xlink:title=" ">
<path fill="none" stroke="#63b8ff" d="M792.39,-554.43C777.85,-549.77 762.56,-544.86 748.51,-540.35"/>
<polygon fill="#63b8ff" stroke="#63b8ff" points="791.31,-557.76 801.9,-557.48 793.45,-551.09 791.31,-557.76"/>
</a>
</g>
</g>
<!-- Node23 -->
<g id="Node000023" class="node">
<title>Node23</title>
<g id="a_Node000023"><a xlink:href="kest__dictionary_8c.html#a3aaeba83bcb3cce911e04218ac103f51" target="_top" xlink:title=" ">
<polygon fill="white" stroke="#666666" points="757.62,-799.86 629.88,-799.86 629.88,-766.36 757.62,-766.36 757.62,-799.86"/>
<text xml:space="preserve" text-anchor="start" x="637.88" y="-786.36" font-family="Helvetica,sans-Serif" font-size="10.00">kest_dictionary_bucket</text>
<text xml:space="preserve" text-anchor="middle" x="693.75" y="-773.61" font-family="Helvetica,sans-Serif" font-size="10.00">_add_entry_str</text>
</a>
</g>
</g>
<!-- Node2&#45;&gt;Node23 -->
<g id="edge18_Node000002_Node000023" class="edge">
<title>Node2&#45;&gt;Node23</title>
<g id="a_edge18_Node000002_Node000023"><a xlink:title=" ">
<path fill="none" stroke="#63b8ff" d="M848.4,-602.99C835.13,-642.33 805.87,-714.13 758,-757.11 754.29,-760.44 750.09,-763.38 745.67,-765.97"/>
<polygon fill="#63b8ff" stroke="#63b8ff" points="851.7,-604.15 851.47,-593.56 845.05,-601.98 851.7,-604.15"/>
</a>
</g>
</g>
<!-- Node4 -->
<g id="Node000004" class="node">
<title>Node4</title>
<g id="a_Node000004"><a xlink:href="kest__dictionary_8c.html#acc0b5644c510feefba50797abb9f3d87" target="_top" xlink:title=" ">
<polygon fill="white" stroke="#666666" points="593.5,-487.86 480,-487.86 480,-454.36 593.5,-454.36 593.5,-487.86"/>
<text xml:space="preserve" text-anchor="start" x="488" y="-474.36" font-family="Helvetica,sans-Serif" font-size="10.00">kest_dictionary_add</text>
<text xml:space="preserve" text-anchor="middle" x="536.75" y="-461.61" font-family="Helvetica,sans-Serif" font-size="10.00">_entry</text>
</a>
</g>
</g>
<!-- Node3&#45;&gt;Node4 -->
<g id="edge3_Node000003_Node000004" class="edge">
<title>Node3&#45;&gt;Node4</title>
<g id="a_edge3_Node000003_Node000004"><a xlink:title=" ">
<path fill="none" stroke="#63b8ff" d="M618.45,-471.11C610.14,-471.11 601.78,-471.11 593.76,-471.11"/>
<polygon fill="#63b8ff" stroke="#63b8ff" points="618.19,-474.61 628.19,-471.11 618.19,-467.61 618.19,-474.61"/>
</a>
</g>
</g>
<!-- Node4&#45;&gt;Node5 -->
<g id="edge4_Node000004_Node000005" class="edge">
<title>Node4&#45;&gt;Node5</title>
<g id="a_edge4_Node000004_Node000005"><a xlink:title=" ">
<path fill="none" stroke="#63b8ff" d="M506.04,-447.15C488.75,-434.14 466.08,-418.63 444,-408.11 436.58,-404.58 428.41,-401.53 420.38,-398.94"/>
<polygon fill="#63b8ff" stroke="#63b8ff" points="503.78,-449.83 513.84,-453.14 508.04,-444.27 503.78,-449.83"/>
</a>
</g>
</g>
<!-- Node7 -->
<g id="Node000007" class="node">
<title>Node7</title>
<g id="a_Node000007"><a xlink:href="kest__dictionary_8c.html#aae3fbdeba250be8f6dd3dfa686eb24a8" target="_top" xlink:title=" ">
<polygon fill="#fff0f0" stroke="red" points="122.5,-398.49 0,-398.49 0,-377.74 122.5,-377.74 122.5,-398.49"/>
<text xml:space="preserve" text-anchor="middle" x="61.25" y="-384.99" font-family="Helvetica,sans-Serif" font-size="10.00">kest_parse_dictionary</text>
</a>
</g>
</g>
<!-- Node4&#45;&gt;Node7 -->
<g id="edge9_Node000004_Node000007" class="edge">
<title>Node4&#45;&gt;Node7</title>
<g id="a_edge9_Node000004_Node000007"><a xlink:title=" ">
<path fill="none" stroke="#63b8ff" d="M468.21,-468.93C391.9,-465.15 264.52,-454.9 158.5,-427.11 132.16,-420.21 103.41,-407.88 84.25,-398.93"/>
<polygon fill="#63b8ff" stroke="#63b8ff" points="467.89,-472.41 478.04,-469.39 468.22,-465.42 467.89,-472.41"/>
</a>
</g>
</g>
<!-- Node6 -->
<g id="Node000006" class="node">
<title>Node6</title>
<g id="a_Node000006"><a xlink:href="kest__dictionary_8c.html#af0aceaa93cba06fd44ad4bc50f2418e4" target="_top" xlink:title=" ">
<polygon fill="white" stroke="#666666" points="270.5,-398.49 158.5,-398.49 158.5,-377.74 270.5,-377.74 270.5,-398.49"/>
<text xml:space="preserve" text-anchor="middle" x="214.5" y="-384.99" font-family="Helvetica,sans-Serif" font-size="10.00">kest_parse_dict_val</text>
</a>
</g>
</g>
<!-- Node5&#45;&gt;Node6 -->
<g id="edge5_Node000005_Node000006" class="edge">
<title>Node5&#45;&gt;Node6</title>
<g id="a_edge5_Node000005_Node000006"><a xlink:title=" ">
<path fill="none" stroke="#63b8ff" d="M307.96,-381.44C295.58,-381.29 282.76,-381.36 270.75,-381.65"/>
<polygon fill="#63b8ff" stroke="#63b8ff" points="307.6,-384.94 317.66,-381.62 307.73,-377.94 307.6,-384.94"/>
</a>
</g>
</g>
<!-- Node6&#45;&gt;Node5 -->
<g id="edge6_Node000006_Node000005" class="edge">
<title>Node6&#45;&gt;Node5</title>
<g id="a_edge6_Node000006_Node000005"><a xlink:title=" ">
<path fill="none" stroke="#63b8ff" d="M281.97,-394.78C294.36,-394.94 307.17,-394.87 319.17,-394.57"/>
<polygon fill="#63b8ff" stroke="#63b8ff" points="282.32,-391.29 272.26,-394.61 282.2,-398.29 282.32,-391.29"/>
</a>
</g>
</g>
<!-- Node6&#45;&gt;Node7 -->
<g id="edge7_Node000006_Node000007" class="edge">
<title>Node6&#45;&gt;Node7</title>
<g id="a_edge7_Node000006_Node000007"><a xlink:title=" ">
<path fill="none" stroke="#63b8ff" d="M146.58,-381.4C138.66,-381.33 130.62,-381.36 122.8,-381.48"/>
<polygon fill="#63b8ff" stroke="#63b8ff" points="146.47,-384.9 156.53,-381.56 146.58,-377.9 146.47,-384.9"/>
</a>
</g>
</g>
<!-- Node7&#45;&gt;Node6 -->
<g id="edge8_Node000007_Node000006" class="edge">
<title>Node7&#45;&gt;Node6</title>
<g id="a_edge8_Node000007_Node000006"><a xlink:title=" ">
<path fill="none" stroke="#63b8ff" d="M134.1,-394.86C142.14,-394.89 150.25,-394.82 158.04,-394.64"/>
<polygon fill="#63b8ff" stroke="#63b8ff" points="134.35,-391.36 124.32,-394.76 134.28,-398.36 134.35,-391.36"/>
</a>
</g>
</g>
<!-- Node16 -->
<g id="Node000016" class="node">
<title>Node16</title>
<g id="a_Node000016"><a xlink:href="kest__dictionary_8c.html#ac422a4715e6e2b8919cec34b25074488" target="_top" xlink:title=" ">
<polygon fill="white" stroke="#666666" points="593.5,-743.86 480,-743.86 480,-710.36 593.5,-710.36 593.5,-743.86"/>
<text xml:space="preserve" text-anchor="start" x="488" y="-730.36" font-family="Helvetica,sans-Serif" font-size="10.00">kest_dictionary_add</text>
<text xml:space="preserve" text-anchor="middle" x="536.75" y="-717.61" font-family="Helvetica,sans-Serif" font-size="10.00">_entry_dict</text>
</a>
</g>
</g>
<!-- Node15&#45;&gt;Node16 -->
<g id="edge11_Node000015_Node000016" class="edge">
<title>Node15&#45;&gt;Node16</title>
<g id="a_edge11_Node000015_Node000016"><a xlink:title=" ">
<path fill="none" stroke="#63b8ff" d="M618.45,-729.2C610.14,-728.98 601.78,-728.77 593.76,-728.56"/>
<polygon fill="#63b8ff" stroke="#63b8ff" points="618.11,-732.69 628.19,-729.45 618.29,-725.69 618.11,-732.69"/>
</a>
</g>
</g>
<!-- Node18 -->
<g id="Node000018" class="node">
<title>Node18</title>
<g id="a_Node000018"><a xlink:href="kest__dictionary_8c.html#af3a2314e489cbe9344dbabff75d8981c" target="_top" xlink:title=" ">
<polygon fill="white" stroke="#666666" points="593.5,-688.86 480,-688.86 480,-655.36 593.5,-655.36 593.5,-688.86"/>
<text xml:space="preserve" text-anchor="start" x="488" y="-675.36" font-family="Helvetica,sans-Serif" font-size="10.00">kest_dictionary_add</text>
<text xml:space="preserve" text-anchor="middle" x="536.75" y="-662.61" font-family="Helvetica,sans-Serif" font-size="10.00">_entry_expr</text>
</a>
</g>
</g>
<!-- Node17&#45;&gt;Node18 -->
<g id="edge13_Node000017_Node000018" class="edge">
<title>Node17&#45;&gt;Node18</title>
<g id="a_edge13_Node000017_Node000018"><a xlink:title=" ">
<path fill="none" stroke="#63b8ff" d="M618.45,-675.76C610.14,-675.38 601.78,-675 593.76,-674.64"/>
<polygon fill="#63b8ff" stroke="#63b8ff" points="618.05,-679.24 628.19,-676.2 618.36,-672.25 618.05,-679.24"/>
</a>
</g>
</g>
<!-- Node20 -->
<g id="Node000020" class="node">
<title>Node20</title>
<g id="a_Node000020"><a xlink:href="kest__dictionary_8c.html#a6ed116ee21579913604cb74f565ef5e2" target="_top" xlink:title=" ">
<polygon fill="white" stroke="#666666" points="593.5,-630.86 480,-630.86 480,-597.36 593.5,-597.36 593.5,-630.86"/>
<text xml:space="preserve" text-anchor="start" x="488" y="-617.36" font-family="Helvetica,sans-Serif" font-size="10.00">kest_dictionary_add</text>
<text xml:space="preserve" text-anchor="middle" x="536.75" y="-604.61" font-family="Helvetica,sans-Serif" font-size="10.00">_entry_float</text>
</a>
</g>
</g>
<!-- Node19&#45;&gt;Node20 -->
<g id="edge15_Node000019_Node000020" class="edge">
<title>Node19&#45;&gt;Node20</title>
<g id="a_edge15_Node000019_Node000020"><a xlink:title=" ">
<path fill="none" stroke="#63b8ff" d="M618.73,-593.74C610.33,-595.85 601.88,-597.98 593.76,-600.02"/>
<polygon fill="#63b8ff" stroke="#63b8ff" points="619.39,-597.18 628.24,-591.34 617.69,-590.39 619.39,-597.18"/>
</a>
</g>
</g>
<!-- Node22 -->
<g id="Node000022" class="node">
<title>Node22</title>
<g id="a_Node000022"><a xlink:href="kest__dictionary_8c.html#af8a494be3d85c680f409f92d95b467ba" target="_top" xlink:title=" ">
<polygon fill="white" stroke="#666666" points="593.5,-565.86 480,-565.86 480,-532.36 593.5,-532.36 593.5,-565.86"/>
<text xml:space="preserve" text-anchor="start" x="488" y="-552.36" font-family="Helvetica,sans-Serif" font-size="10.00">kest_dictionary_add</text>
<text xml:space="preserve" text-anchor="middle" x="536.75" y="-539.61" font-family="Helvetica,sans-Serif" font-size="10.00">_entry_int</text>
</a>
</g>
</g>
<!-- Node21&#45;&gt;Node22 -->
<g id="edge17_Node000021_Node000022" class="edge">
<title>Node21&#45;&gt;Node22</title>
<g id="a_edge17_Node000021_Node000022"><a xlink:title=" ">
<path fill="none" stroke="#63b8ff" d="M618.45,-535.58C610.14,-536.97 601.78,-538.37 593.76,-539.72"/>
<polygon fill="#63b8ff" stroke="#63b8ff" points="618.93,-539.04 628.21,-533.94 617.77,-532.14 618.93,-539.04"/>
</a>
</g>
</g>
<!-- Node24 -->
<g id="Node000024" class="node">
<title>Node24</title>
<g id="a_Node000024"><a xlink:href="kest__dictionary_8c.html#af733edc9e1f9f10bb82f76a7d6ff3fbd" target="_top" xlink:title=" ">
<polygon fill="white" stroke="#666666" points="593.5,-797.86 480,-797.86 480,-764.36 593.5,-764.36 593.5,-797.86"/>
<text xml:space="preserve" text-anchor="start" x="488" y="-784.36" font-family="Helvetica,sans-Serif" font-size="10.00">kest_dictionary_add</text>
<text xml:space="preserve" text-anchor="middle" x="536.75" y="-771.61" font-family="Helvetica,sans-Serif" font-size="10.00">_entry_str</text>
</a>
</g>
</g>
<!-- Node23&#45;&gt;Node24 -->
<g id="edge19_Node000023_Node000024" class="edge">
<title>Node23&#45;&gt;Node24</title>
<g id="a_edge19_Node000023_Node000024"><a xlink:title=" ">
<path fill="none" stroke="#63b8ff" d="M618.45,-782.15C610.14,-782.05 601.78,-781.94 593.76,-781.84"/>
<polygon fill="#63b8ff" stroke="#63b8ff" points="618.15,-785.65 628.19,-782.28 618.24,-778.65 618.15,-785.65"/>
</a>
</g>
</g>
<!-- Node25&#45;&gt;Node4 -->
<g id="edge21_Node000025_Node000004" class="edge">
<title>Node25&#45;&gt;Node4</title>
<g id="a_edge21_Node000025_Node000004"><a xlink:title=" ">
<path fill="none" stroke="#63b8ff" d="M632.22,-603.56C631.29,-602.77 630.38,-601.95 629.5,-601.11 601.94,-574.69 615.88,-554.05 593.5,-523.11 584.04,-510.03 570.93,-497.61 559.8,-488.19"/>
<polygon fill="#63b8ff" stroke="#63b8ff" points="629.88,-606.19 640.05,-609.15 633.94,-600.49 629.88,-606.19"/>
</a>
</g>
</g>
<!-- Node25&#45;&gt;Node16 -->
<g id="edge22_Node000025_Node000016" class="edge">
<title>Node25&#45;&gt;Node16</title>
<g id="a_edge22_Node000025_Node000016"><a xlink:title=" ">
<path fill="none" stroke="#63b8ff" d="M634.16,-649.85C632.56,-650.9 631,-651.99 629.5,-653.11 609,-668.47 613.29,-681.85 593.5,-698.11 588.19,-702.48 582.12,-706.45 575.98,-709.96"/>
<polygon fill="#63b8ff" stroke="#63b8ff" points="635.53,-653.11 642.41,-645.05 632.01,-647.06 635.53,-653.11"/>
</a>
</g>
</g>
<!-- Node25&#45;&gt;Node18 -->
<g id="edge23_Node000025_Node000018" class="edge">
<title>Node25&#45;&gt;Node18</title>
<g id="a_edge23_Node000025_Node000018"><a xlink:title=" ">
<path fill="none" stroke="#63b8ff" d="M622.84,-647.41C613.12,-650.23 603.24,-653.1 593.82,-655.84"/>
<polygon fill="#63b8ff" stroke="#63b8ff" points="623.63,-650.83 632.26,-644.68 621.68,-644.1 623.63,-650.83"/>
</a>
</g>
</g>
<!-- Node25&#45;&gt;Node20 -->
<g id="edge24_Node000025_Node000020" class="edge">
<title>Node25&#45;&gt;Node20</title>
<g id="a_edge24_Node000025_Node000020"><a xlink:title=" ">
<path fill="none" stroke="#63b8ff" d="M617.91,-620.84C609.84,-620.16 601.73,-619.48 593.94,-618.83"/>
<polygon fill="#63b8ff" stroke="#63b8ff" points="617.49,-624.31 627.75,-621.66 618.08,-617.34 617.49,-624.31"/>
</a>
</g>
</g>
<!-- Node25&#45;&gt;Node22 -->
<g id="edge25_Node000025_Node000022" class="edge">
<title>Node25&#45;&gt;Node22</title>
<g id="a_edge25_Node000025_Node000022"><a xlink:title=" ">
<path fill="none" stroke="#63b8ff" d="M638.44,-605.31C635.4,-603.93 632.4,-602.52 629.5,-601.11 607.6,-590.46 583.69,-576.84 565.77,-566.21"/>
<polygon fill="#63b8ff" stroke="#63b8ff" points="636.93,-608.47 647.5,-609.31 639.76,-602.07 636.93,-608.47"/>
</a>
</g>
</g>
<!-- Node25&#45;&gt;Node24 -->
<g id="edge26_Node000025_Node000024" class="edge">
<title>Node25&#45;&gt;Node24</title>
<g id="a_edge26_Node000025_Node000024"><a xlink:title=" ">
<path fill="none" stroke="#63b8ff" d="M631.35,-651.27C630.72,-651.87 630.1,-652.49 629.5,-653.11 596.85,-687.25 624.84,-717.77 593.5,-753.11 589.84,-757.25 585.42,-760.84 580.69,-763.95"/>
<polygon fill="#63b8ff" stroke="#63b8ff" points="633.41,-654.1 639.16,-645.2 629.12,-648.58 633.41,-654.1"/>
</a>
</g>
</g>
<!-- Node26&#45;&gt;Node7 -->
<g id="edge28_Node000026_Node000007" class="edge">
<title>Node26&#45;&gt;Node7</title>
<g id="a_edge28_Node000026_Node000007"><a xlink:title=" ">
<path fill="none" stroke="#63b8ff" d="M305.93,-422.58C263.39,-419.31 207.61,-414.22 158.5,-407.11 143.33,-404.92 126.93,-401.92 112.04,-398.95"/>
<polygon fill="#63b8ff" stroke="#63b8ff" points="305.54,-426.06 315.77,-423.32 306.06,-419.08 305.54,-426.06"/>
</a>
</g>
</g>
<!-- Node28 -->
<g id="Node000028" class="node">
<title>Node28</title>
<g id="a_Node000028"><a xlink:href="kest__asm__parser_8c.html#a1b7e03dd7589f652dec13b4b2c6d0a5c" target="_top" xlink:title=" ">
<polygon fill="white" stroke="#666666" points="584.12,-132.49 489.38,-132.49 489.38,-111.74 584.12,-111.74 584.12,-132.49"/>
<text xml:space="preserve" text-anchor="middle" x="536.75" y="-118.99" font-family="Helvetica,sans-Serif" font-size="10.00">kest_parse_asm</text>
</a>
</g>
</g>
<!-- Node27&#45;&gt;Node28 -->
<g id="edge30_Node000027_Node000028" class="edge">
<title>Node27&#45;&gt;Node28</title>
<g id="a_edge30_Node000027_Node000028"><a xlink:title=" ">
<path fill="none" stroke="#63b8ff" d="M623.23,-122.11C610.16,-122.11 596.79,-122.11 584.62,-122.11"/>
<polygon fill="#63b8ff" stroke="#63b8ff" points="623.08,-125.61 633.08,-122.11 623.08,-118.61 623.08,-125.61"/>
</a>
</g>
</g>
<!-- Node29 -->
<g id="Node000029" class="node">
<title>Node29</title>
<g id="a_Node000029"><a xlink:href="kest__eff__section_8c.html#a992e0c66572f5ffabca2203a018ea97c" target="_top" xlink:title=" ">
<polygon fill="white" stroke="#666666" points="444,-131.49 306.5,-131.49 306.5,-110.74 444,-110.74 444,-131.49"/>
<text xml:space="preserve" text-anchor="middle" x="375.25" y="-117.99" font-family="Helvetica,sans-Serif" font-size="10.00">kest_parse_code_section</text>
</a>
</g>
</g>
<!-- Node28&#45;&gt;Node29 -->
<g id="edge31_Node000028_Node000029" class="edge">
<title>Node28&#45;&gt;Node29</title>
<g id="a_edge31_Node000028_Node000029"><a xlink:title=" ">
<path fill="none" stroke="#63b8ff" d="M478.01,-121.75C467.04,-121.68 455.46,-121.61 444.21,-121.54"/>
<polygon fill="#63b8ff" stroke="#63b8ff" points="477.65,-125.25 487.67,-121.81 477.7,-118.25 477.65,-125.25"/>
</a>
</g>
</g>
<!-- Node29&#45;&gt;Node9 -->
<g id="edge32_Node000029_Node000009" class="edge">
<title>Node29&#45;&gt;Node9</title>
<g id="a_edge32_Node000029_Node000009"><a xlink:title=" ">
<path fill="none" stroke="#63b8ff" d="M294.86,-130.61C285.7,-131.71 276.54,-132.81 267.87,-133.85"/>
<polygon fill="#63b8ff" stroke="#63b8ff" points="294.99,-134.12 304.5,-129.46 294.16,-127.17 294.99,-134.12"/>
</a>
</g>
</g>
<!-- Node9&#45;&gt;Node10 -->
<g id="edge33_Node000009_Node000010" class="edge">
<title>Node9&#45;&gt;Node10</title>
<g id="a_edge33_Node000009_Node000010"><a xlink:title=" ">
<path fill="none" stroke="#63b8ff" d="M149.67,-140.11C138.61,-140.11 127.2,-140.11 116.43,-140.11"/>
<polygon fill="#63b8ff" stroke="#63b8ff" points="149.51,-143.61 159.51,-140.11 149.51,-136.61 149.51,-143.61"/>
</a>
</g>
</g>
<!-- Node30&#45;&gt;Node10 -->
<g id="edge37_Node000030_Node000010" class="edge">
<title>Node30&#45;&gt;Node10</title>
<g id="a_edge37_Node000030_Node000010"><a xlink:title=" ">
<path fill="none" stroke="#63b8ff" d="M157.59,-104.18C141.21,-110.36 123.51,-117.03 107.86,-122.92"/>
<polygon fill="#63b8ff" stroke="#63b8ff" points="158.58,-107.55 166.7,-100.75 156.11,-101 158.58,-107.55"/>
</a>
</g>
</g>
<!-- Node31&#45;&gt;Node6 -->
<g id="edge40_Node000031_Node000006" class="edge">
<title>Node31&#45;&gt;Node6</title>
<g id="a_edge40_Node000031_Node000006"><a xlink:title=" ">
<path fill="none" stroke="#63b8ff" d="M841.61,-258.36C823.93,-279.08 792.76,-311.08 758,-326.11 572.99,-406.14 505.8,-338.91 306.5,-369.11 292.14,-371.29 276.63,-374.28 262.55,-377.25"/>
<polygon fill="#63b8ff" stroke="#63b8ff" points="844.1,-260.84 847.78,-250.9 838.7,-256.38 844.1,-260.84"/>
</a>
</g>
</g>
<!-- Node31&#45;&gt;Node7 -->
<g id="edge41_Node000031_Node000007" class="edge">
<title>Node31&#45;&gt;Node7</title>
<g id="a_edge41_Node000031_Node000007"><a xlink:title=" ">
<path fill="none" stroke="#63b8ff" d="M822.56,-254.34C803.8,-262.14 779.97,-271.21 758,-277.11 662.27,-302.81 636.87,-312.11 537.75,-312.11 537.75,-312.11 537.75,-312.11 374.25,-312.11 265.26,-312.11 140.78,-356.44 88.03,-377.39"/>
<polygon fill="#63b8ff" stroke="#63b8ff" points="823.73,-257.65 831.57,-250.52 821,-251.2 823.73,-257.65"/>
</a>
</g>
</g>
<!-- Node31&#45;&gt;Node27 -->
<g id="edge39_Node000031_Node000027" class="edge">
<title>Node31&#45;&gt;Node27</title>
<g id="a_edge39_Node000031_Node000027"><a xlink:title=" ">
<path fill="none" stroke="#63b8ff" d="M799.83,-223.51C797.82,-222.45 795.87,-221.32 794,-220.11 773.61,-206.99 775.04,-196.37 758,-179.11 741.18,-162.07 720.32,-143.77 707.27,-132.63"/>
<polygon fill="#63b8ff" stroke="#63b8ff" points="798.3,-226.66 808.85,-227.63 801.21,-220.29 798.3,-226.66"/>
</a>
</g>
</g>
<!-- Node31&#45;&gt;Node9 -->
<g id="edge42_Node000031_Node000009" class="edge">
<title>Node31&#45;&gt;Node9</title>
<g id="a_edge42_Node000031_Node000009"><a xlink:title=" ">
<path fill="none" stroke="#63b8ff" d="M789,-238.32C683.87,-235.62 476.12,-224.42 306.5,-179.11 281.26,-172.37 253.91,-159.89 235.86,-150.85"/>
<polygon fill="#63b8ff" stroke="#63b8ff" points="788.78,-241.81 798.86,-238.55 788.95,-234.81 788.78,-241.81"/>
</a>
</g>
</g>
<!-- Node31&#45;&gt;Node10 -->
<g id="edge43_Node000031_Node000010" class="edge">
<title>Node31&#45;&gt;Node10</title>
<g id="a_edge43_Node000031_Node000010"><a xlink:title=" ">
<path fill="none" stroke="#63b8ff" d="M789.08,-250.89C724.64,-261.06 624.9,-274.11 537.75,-274.11 537.75,-274.11 537.75,-274.11 374.25,-274.11 257.23,-274.11 134.1,-193.55 84.69,-157.36"/>
<polygon fill="#63b8ff" stroke="#63b8ff" points="789.48,-254.37 798.8,-249.33 788.38,-247.46 789.48,-254.37"/>
</a>
</g>
</g>
<!-- Node32 -->
<g id="Node000032" class="node">
<title>Node32</title>
<g id="a_Node000032"><a xlink:href="kest__tokenizer_8c.html#abfb9dd70524b2bf471b98caa15f1d764" target="_top" xlink:title=" ">
<polygon fill="white" stroke="#666666" points="756.12,-208.49 631.38,-208.49 631.38,-187.74 756.12,-187.74 756.12,-208.49"/>
<text xml:space="preserve" text-anchor="middle" x="693.75" y="-194.99" font-family="Helvetica,sans-Serif" font-size="10.00">kest_tokenize_content</text>
</a>
</g>
</g>
<!-- Node31&#45;&gt;Node32 -->
<g id="edge44_Node000031_Node000032" class="edge">
<title>Node31&#45;&gt;Node32</title>
<g id="a_edge44_Node000031_Node000032"><a xlink:title=" ">
<path fill="none" stroke="#63b8ff" d="M803.12,-225.52C781.83,-220.14 757.7,-214.03 737.62,-208.96"/>
<polygon fill="#63b8ff" stroke="#63b8ff" points="802.26,-228.91 812.81,-227.97 803.97,-222.12 802.26,-228.91"/>
</a>
</g>
</g>
<!-- Node32&#45;&gt;Node10 -->
<g id="edge45_Node000032_Node000010" class="edge">
<title>Node32&#45;&gt;Node10</title>
<g id="a_edge45_Node000032_Node000010"><a xlink:title=" ">
<path fill="none" stroke="#63b8ff" d="M619.99,-196.38C542.24,-194.1 415.46,-189.14 306.5,-179.11 240.4,-173.03 223.98,-169.99 158.5,-159.11 144.89,-156.85 130.26,-154.12 116.61,-151.44"/>
<polygon fill="#63b8ff" stroke="#63b8ff" points="619.48,-199.87 629.58,-196.65 619.68,-192.87 619.48,-199.87"/>
</a>
</g>
</g>
<!-- Node33&#45;&gt;Node32 -->
<g id="edge50_Node000033_Node000032" class="edge">
<title>Node33&#45;&gt;Node32</title>
<g id="a_edge50_Node000033_Node000032"><a xlink:title=" ">
<path fill="none" stroke="#63b8ff" d="M793.28,-195.68C781.17,-195.98 768.51,-196.29 756.46,-196.59"/>
<polygon fill="#63b8ff" stroke="#63b8ff" points="793.26,-199.18 803.17,-195.44 793.09,-192.19 793.26,-199.18"/>
</a>
</g>
</g>
<!-- Node34 -->
<g id="Node000034" class="node">
<title>Node34</title>
<g id="a_Node000034"><a xlink:href="kest__tokenizer_8c.html#ad63de1503ca72cafc49d724daf631b8c" target="_top" xlink:title=" ">
<polygon fill="white" stroke="#666666" points="436.88,-170.49 313.62,-170.49 313.62,-149.74 436.88,-149.74 436.88,-170.49"/>
<text xml:space="preserve" text-anchor="middle" x="375.25" y="-156.99" font-family="Helvetica,sans-Serif" font-size="10.00">kest_token_span_to_ll</text>
</a>
</g>
</g>
<!-- Node33&#45;&gt;Node34 -->
<g id="edge48_Node000033_Node000034" class="edge">
<title>Node33&#45;&gt;Node34</title>
<g id="a_edge48_Node000033_Node000034"><a xlink:title=" ">
<path fill="none" stroke="#63b8ff" d="M793.33,-183.51C781.61,-181.82 769.45,-180.26 758,-179.11 645.1,-167.77 512.69,-163.1 437.22,-161.25"/>
<polygon fill="#63b8ff" stroke="#63b8ff" points="792.5,-186.92 802.91,-184.92 793.53,-180 792.5,-186.92"/>
</a>
</g>
</g>
<!-- Node34&#45;&gt;Node9 -->
<g id="edge49_Node000034_Node000009" class="edge">
<title>Node34&#45;&gt;Node9</title>
<g id="a_edge49_Node000034_Node000009"><a xlink:title=" ">
<path fill="none" stroke="#63b8ff" d="M301.98,-151.01C290.52,-149.56 278.87,-148.1 267.98,-146.72"/>
<polygon fill="#63b8ff" stroke="#63b8ff" points="301.47,-154.47 311.83,-152.25 302.34,-147.53 301.47,-154.47"/>
</a>
</g>
</g>
</g>
</svg>

<g id="navigator" transform="translate(0 0)" fill="#404254">
  <rect fill="#f2f5e9" fill-opacity="0.5" stroke="#606060" stroke-width=".5" x="0" y="0" width="60" height="60"/>
  <use id="zoomplus" xlink:href="#zoomPlus" x="17" y="9" onmousedown="handleZoom(evt,'in')"/>
  <use id="zoomminus" xlink:href="#zoomMin" x="42" y="9" onmousedown="handleZoom(evt,'out')"/>
  <use id="reset" xlink:href="#resetDef" x="30" y="36" onmousedown="handleReset()"/>
   <use id="arrowup" xlink:href="#arrowUp" x="0" y="0" onmousedown="handlePan(0,-1)"/>
  <use id="arrowright" xlink:href="#arrowRight" x="0" y="0" onmousedown="handlePan(1,0)"/>
  <use id="arrowdown" xlink:href="#arrowDown" x="0" y="0" onmousedown="handlePan(0,1)"/>
  <use id="arrowleft" xlink:href="#arrowLeft" x="0" y="0" onmousedown="handlePan(-1,0)"/>
</g>
<svg viewBox="0 0 15 15" width="100%" height="30px" preserveAspectRatio="xMaxYMin meet">
 <g id="arrow_out" transform="scale(0.3 0.3)">
  <a xlink:href="kest__eff__parser_8h_ae0a87c76dcbf2248bb57755c7e76c08d_icgraph_org.svg" target="_base">
   <rect id="button" ry="5" rx="5" y="6" x="6" height="38" width="38"
        fill="#f2f5e9" fill-opacity="0.5" stroke="#606060" stroke-width="1.0"/>
   <path id="arrow"
     d="M 11.500037,31.436501 C 11.940474,20.09759 22.043105,11.32322 32.158766,21.979434 L 37.068811,17.246167 C 37.068811,17.246167 37.088388,32 37.088388,32 L 22.160133,31.978069 C 22.160133,31.978069 26.997745,27.140456 26.997745,27.140456 C 18.528582,18.264221 13.291696,25.230495 11.500037,31.436501 z"
     style="fill:#404040;"/>
  </a>
 </g>
</svg>

<style type='text/css'>
<![CDATA[
[data-mouse-over-selected='false'] { opacity: 0.7; }
[data-mouse-over-selected='true']  { opacity: 1.0; }
]]>
</style>
<script type="application/ecmascript"><![CDATA[
document.addEventListener('DOMContentLoaded', (event) => {
  highlightEdges();
  highlightAdjacentNodes();
});
]]></script>
</svg>
