<?xml version="1.0" encoding="UTF-8" standalone="no"?>
<!DOCTYPE svg PUBLIC "-//W3C//DTD SVG 1.1//EN"
 "http://www.w3.org/Graphics/SVG/1.1/DTD/svg11.dtd">
<!-- Generated by graphviz version 13.1.2 (20250808.2320)
 -->
<!-- Title: effect_view_request_parameter_values Pages: 1 -->
<svg width="557pt" height="42pt"
 viewBox="0.00 0.00 557.00 42.00" xmlns="http://www.w3.org/2000/svg" xmlns:xlink="http://www.w3.org/1999/xlink">
<g id="graph0" class="graph" transform="scale(1 1) rotate(0) translate(4 37.5)">
<title>effect_view_request_parameter_values</title>
<!-- Node1 -->
<g id="Node000001" class="node">
<title>Node1</title>
<g id="a_Node000001"><a xlink:title=" ">
<polygon fill="#999999" stroke="#666666" points="548.5,-33.5 433.5,-33.5 433.5,0 548.5,0 548.5,-33.5"/>
<text xml:space="preserve" text-anchor="start" x="441.5" y="-20" font-family="Helvetica,sans-Serif" font-size="10.00">effect_view_request</text>
<text xml:space="preserve" text-anchor="middle" x="491" y="-7.25" font-family="Helvetica,sans-Serif" font-size="10.00">_parameter_values</text>
</a>
</g>
</g>
<!-- Node2 -->
<g id="Node000002" class="node">
<title>Node2</title>
<g id="a_Node000002"><a xlink:href="kest__effect__view_8c.html#ad30abeafbc06c0a22d991e7a76c63547" target="_top" xlink:title=" ">
<polygon fill="white" stroke="#666666" points="397.5,-27.12 293.75,-27.12 293.75,-6.38 397.5,-6.38 397.5,-27.12"/>
<text xml:space="preserve" text-anchor="middle" x="345.62" y="-13.62" font-family="Helvetica,sans-Serif" font-size="10.00">enter_effect_view</text>
</a>
</g>
</g>
<!-- Node1&#45;&gt;Node2 -->
<g id="edge1_Node000001_Node000002" class="edge">
<title>Node1&#45;&gt;Node2</title>
<g id="a_edge1_Node000001_Node000002"><a xlink:title=" ">
<path fill="none" stroke="#63b8ff" d="M421.92,-16.75C413.79,-16.75 405.6,-16.75 397.76,-16.75"/>
<polygon fill="#63b8ff" stroke="#63b8ff" points="421.82,-20.25 431.82,-16.75 421.82,-13.25 421.82,-20.25"/>
</a>
</g>
</g>
<!-- Node3 -->
<g id="Node000003" class="node">
<title>Node3</title>
<g id="a_Node000003"><a xlink:href="kest__effect__view_8c.html#a7b9803e86d71b10b167f0babf088fe08" target="_top" xlink:title=" ">
<polygon fill="white" stroke="#666666" points="257.75,-27.12 163.75,-27.12 163.75,-6.38 257.75,-6.38 257.75,-27.12"/>
<text xml:space="preserve" text-anchor="middle" x="210.75" y="-13.62" font-family="Helvetica,sans-Serif" font-size="10.00">init_effect_view</text>
</a>
</g>
</g>
<!-- Node2&#45;&gt;Node3 -->
<g id="edge2_Node000002_Node000003" class="edge">
<title>Node2&#45;&gt;Node3</title>
<g id="a_edge2_Node000002_Node000003"><a xlink:title=" ">
<path fill="none" stroke="#63b8ff" d="M281.74,-16.75C273.81,-16.75 265.82,-16.75 258.21,-16.75"/>
<polygon fill="#63b8ff" stroke="#63b8ff" points="281.74,-20.25 291.74,-16.75 281.74,-13.25 281.74,-20.25"/>
</a>
</g>
</g>
<!-- Node4 -->
<g id="Node000004" class="node">
<title>Node4</title>
<g id="a_Node000004"><a xlink:href="kest__effect__view_8c.html#abb65b28dc293fd68d3b384f48210130e" target="_top" xlink:title=" ">
<polygon fill="white" stroke="#666666" points="127.75,-27.12 0,-27.12 0,-6.38 127.75,-6.38 127.75,-27.12"/>
<text xml:space="preserve" text-anchor="middle" x="63.88" y="-13.62" font-family="Helvetica,sans-Serif" font-size="10.00">create_effect_view_for</text>
</a>
</g>
</g>
<!-- Node3&#45;&gt;Node4 -->
<g id="edge3_Node000003_Node000004" class="edge">
<title>Node3&#45;&gt;Node4</title>
<g id="a_edge3_Node000003_Node000004"><a xlink:title=" ">
<path fill="none" stroke="#63b8ff" d="M152.16,-16.75C144.25,-16.75 136.11,-16.75 128.11,-16.75"/>
<polygon fill="#63b8ff" stroke="#63b8ff" points="152,-20.25 162,-16.75 152,-13.25 152,-20.25"/>
</a>
</g>
</g>
</g>
</svg>
