<?xml version="1.0" encoding="UTF-8" standalone="no"?>
<!DOCTYPE svg PUBLIC "-//W3C//DTD SVG 1.1//EN"
 "http://www.w3.org/Graphics/SVG/1.1/DTD/svg11.dtd">
<!-- Generated by graphviz version 13.1.2 (20250808.2320)
 -->
<!-- Title: kest_expression_to_string Pages: 1 -->
<svg width="472pt" height="132pt"
 viewBox="0.00 0.00 472.00 132.00" xmlns="http://www.w3.org/2000/svg" xmlns:xlink="http://www.w3.org/1999/xlink">
<g id="graph0" class="graph" transform="scale(1 1) rotate(0) translate(4 128.12)">
<title>kest_expression_to_string</title>
<!-- Node1 -->
<g id="Node000001" class="node">
<title>Node1</title>
<g id="a_Node000001"><a xlink:title=" ">
<polygon fill="#999999" stroke="#666666" points="109.75,-85.5 0,-85.5 0,-52 109.75,-52 109.75,-85.5"/>
<text xml:space="preserve" text-anchor="start" x="8" y="-72" font-family="Helvetica,sans-Serif" font-size="10.00">kest_expression_to</text>
<text xml:space="preserve" text-anchor="middle" x="54.88" y="-59.25" font-family="Helvetica,sans-Serif" font-size="10.00">_string</text>
</a>
</g>
</g>
<!-- Node2 -->
<g id="Node000002" class="node">
<title>Node2</title>
<g id="a_Node000002"><a xlink:href="kest__expression_8c.html#a767b50b7ddfa94dc61810dfdcc8feaf0" target="_top" xlink:title=" ">
<polygon fill="white" stroke="#666666" points="288.5,-79.12 145.75,-79.12 145.75,-58.38 288.5,-58.38 288.5,-79.12"/>
<text xml:space="preserve" text-anchor="middle" x="217.12" y="-65.62" font-family="Helvetica,sans-Serif" font-size="10.00">kest_expression_print_rec</text>
</a>
</g>
</g>
<!-- Node1&#45;&gt;Node2 -->
<g id="edge1_Node000001_Node000002" class="edge">
<title>Node1&#45;&gt;Node2</title>
<g id="a_edge1_Node000001_Node000002"><a xlink:title=" ">
<path fill="none" stroke="#63b8ff" d="M110.13,-68.75C117.84,-68.75 125.92,-68.75 134.02,-68.75"/>
<polygon fill="#63b8ff" stroke="#63b8ff" points="133.94,-72.25 143.94,-68.75 133.94,-65.25 133.94,-72.25"/>
</a>
</g>
</g>
<!-- Node2&#45;&gt;Node2 -->
<g id="edge5_Node000002_Node000002" class="edge">
<title>Node2&#45;&gt;Node2</title>
<g id="a_edge5_Node000002_Node000002"><a xlink:title=" ">
<path fill="none" stroke="#63b8ff" d="M190.98,-79.52C180.52,-88.18 189.24,-97.12 217.12,-97.12 232.38,-97.12 241.89,-94.45 245.68,-90.61"/>
<polygon fill="#63b8ff" stroke="#63b8ff" points="249.13,-90.03 243.59,-81 242.29,-91.52 249.13,-90.03"/>
</a>
</g>
</g>
<!-- Node3 -->
<g id="Node000003" class="node">
<title>Node3</title>
<g id="a_Node000003"><a xlink:href="kest__expression_8c.html#a2f21e4932bce8c87ec0bfc508588b761" target="_top" xlink:title=" ">
<polygon fill="white" stroke="#666666" points="456,-124.12 332.75,-124.12 332.75,-103.38 456,-103.38 456,-124.12"/>
<text xml:space="preserve" text-anchor="middle" x="394.38" y="-110.62" font-family="Helvetica,sans-Serif" font-size="10.00">kest_expression_form</text>
</a>
</g>
</g>
<!-- Node2&#45;&gt;Node3 -->
<g id="edge2_Node000002_Node000003" class="edge">
<title>Node2&#45;&gt;Node3</title>
<g id="a_edge2_Node000002_Node000003"><a xlink:title=" ">
<path fill="none" stroke="#63b8ff" d="M260.1,-79.53C284.09,-85.69 314.42,-93.48 340.08,-100.07"/>
<polygon fill="#63b8ff" stroke="#63b8ff" points="339.11,-103.43 349.67,-102.53 340.85,-96.65 339.11,-103.43"/>
</a>
</g>
</g>
<!-- Node4 -->
<g id="Node000004" class="node">
<title>Node4</title>
<g id="a_Node000004"><a xlink:href="kest__expression_8c.html#a81b490a2837a170e18e8cdae730d0d9b" target="_top" xlink:title=" ">
<polygon fill="white" stroke="#666666" points="464.25,-85.5 324.5,-85.5 324.5,-52 464.25,-52 464.25,-85.5"/>
<text xml:space="preserve" text-anchor="start" x="332.5" y="-72" font-family="Helvetica,sans-Serif" font-size="10.00">kest_expression_function</text>
<text xml:space="preserve" text-anchor="middle" x="394.38" y="-59.25" font-family="Helvetica,sans-Serif" font-size="10.00">_string</text>
</a>
</g>
</g>
<!-- Node2&#45;&gt;Node4 -->
<g id="edge3_Node000002_Node000004" class="edge">
<title>Node2&#45;&gt;Node4</title>
<g id="a_edge3_Node000002_Node000004"><a xlink:title=" ">
<path fill="none" stroke="#63b8ff" d="M288.9,-68.75C296.69,-68.75 304.66,-68.75 312.56,-68.75"/>
<polygon fill="#63b8ff" stroke="#63b8ff" points="312.53,-72.25 322.53,-68.75 312.53,-65.25 312.53,-72.25"/>
</a>
</g>
</g>
<!-- Node5 -->
<g id="Node000005" class="node">
<title>Node5</title>
<g id="a_Node000005"><a xlink:href="kest__expression_8c.html#a1a3a0bc9ed6726fb24e6a40803741b43" target="_top" xlink:title=" ">
<polygon fill="white" stroke="#666666" points="455.25,-33.5 333.5,-33.5 333.5,0 455.25,0 455.25,-33.5"/>
<text xml:space="preserve" text-anchor="start" x="341.5" y="-20" font-family="Helvetica,sans-Serif" font-size="10.00">kest_expression_infix</text>
<text xml:space="preserve" text-anchor="middle" x="394.38" y="-7.25" font-family="Helvetica,sans-Serif" font-size="10.00">_operator_string</text>
</a>
</g>
</g>
<!-- Node2&#45;&gt;Node5 -->
<g id="edge4_Node000002_Node000005" class="edge">
<title>Node2&#45;&gt;Node5</title>
<g id="a_edge4_Node000002_Node000005"><a xlink:title=" ">
<path fill="none" stroke="#63b8ff" d="M254.44,-57.98C274.69,-51.96 300.6,-44.28 324.54,-37.17"/>
<polygon fill="#63b8ff" stroke="#63b8ff" points="325.34,-40.59 333.93,-34.39 323.35,-33.88 325.34,-40.59"/>
</a>
</g>
</g>
</g>
</svg>
