<?xml version="1.0" encoding="UTF-8" standalone="no"?>
<!DOCTYPE svg PUBLIC "-//W3C//DTD SVG 1.1//EN"
 "http://www.w3.org/Graphics/SVG/1.1/DTD/svg11.dtd">
<!-- Generated by graphviz version 13.1.2 (20250808.2320)
 -->
<!-- Title: ui_page_add_parent_button Pages: 1 -->
<svg width="617pt" height="146pt"
 viewBox="0.00 0.00 617.00 146.00" xmlns="http://www.w3.org/2000/svg" xmlns:xlink="http://www.w3.org/1999/xlink">
<g id="graph0" class="graph" transform="scale(1 1) rotate(0) translate(4 141.75)">
<title>ui_page_add_parent_button</title>
<!-- Node1 -->
<g id="Node000001" class="node">
<title>Node1</title>
<g id="a_Node000001"><a xlink:title=" ">
<polygon fill="#999999" stroke="#666666" points="114.25,-105.12 0,-105.12 0,-71.62 114.25,-71.62 114.25,-105.12"/>
<text xml:space="preserve" text-anchor="start" x="8" y="-91.62" font-family="Helvetica,sans-Serif" font-size="10.00">ui_page_add_parent</text>
<text xml:space="preserve" text-anchor="middle" x="57.12" y="-78.88" font-family="Helvetica,sans-Serif" font-size="10.00">_button</text>
</a>
</g>
</g>
<!-- Node2 -->
<g id="Node000002" class="node">
<title>Node2</title>
<g id="a_Node000002"><a xlink:href="kest__button_8c.html#aa59f296fa9f9744c9753f81484085a15" target="_top" xlink:title=" ">
<polygon fill="white" stroke="#666666" points="273.88,-137.75 150.62,-137.75 150.62,-117 273.88,-117 273.88,-137.75"/>
<text xml:space="preserve" text-anchor="middle" x="212.25" y="-124.25" font-family="Helvetica,sans-Serif" font-size="10.00">button_set_clicked_cb</text>
</a>
</g>
</g>
<!-- Node1&#45;&gt;Node2 -->
<g id="edge1_Node000001_Node000002" class="edge">
<title>Node1&#45;&gt;Node2</title>
<g id="a_edge1_Node000001_Node000002"><a xlink:title=" ">
<path fill="none" stroke="#63b8ff" d="M114.71,-102.79C128.83,-106.38 143.92,-110.23 157.87,-113.78"/>
<polygon fill="#63b8ff" stroke="#63b8ff" points="156.76,-117.11 167.32,-116.19 158.49,-110.33 156.76,-117.11"/>
</a>
</g>
</g>
<!-- Node3 -->
<g id="Node000003" class="node">
<title>Node3</title>
<g id="a_Node000003"><a xlink:href="kest__ui_8c.html#af17d8912a520f607796e85d96467cc5a" target="_top" xlink:title=" ">
<polygon fill="white" stroke="#666666" points="274.25,-98.75 150.25,-98.75 150.25,-78 274.25,-78 274.25,-98.75"/>
<text xml:space="preserve" text-anchor="middle" x="212.25" y="-85.25" font-family="Helvetica,sans-Serif" font-size="10.00">enter_parent_page_cb</text>
</a>
</g>
</g>
<!-- Node1&#45;&gt;Node3 -->
<g id="edge2_Node000001_Node000003" class="edge">
<title>Node1&#45;&gt;Node3</title>
<g id="a_edge2_Node000001_Node000003"><a xlink:title=" ">
<path fill="none" stroke="#63b8ff" d="M114.71,-88.38C122.38,-88.38 130.34,-88.38 138.24,-88.38"/>
<polygon fill="#63b8ff" stroke="#63b8ff" points="138.24,-91.88 148.24,-88.38 138.24,-84.88 138.24,-91.88"/>
</a>
</g>
</g>
<!-- Node7 -->
<g id="Node000007" class="node">
<title>Node7</title>
<g id="a_Node000007"><a xlink:href="kest__button_8c.html#afd8846ca469218a65279da29ad72e29b" target="_top" xlink:title=" ">
<polygon fill="white" stroke="#666666" points="248.75,-59.75 175.75,-59.75 175.75,-39 248.75,-39 248.75,-59.75"/>
<text xml:space="preserve" text-anchor="middle" x="212.25" y="-46.25" font-family="Helvetica,sans-Serif" font-size="10.00">new_button</text>
</a>
</g>
</g>
<!-- Node1&#45;&gt;Node7 -->
<g id="edge5_Node000001_Node000007" class="edge">
<title>Node1&#45;&gt;Node7</title>
<g id="a_edge5_Node000001_Node000007"><a xlink:title=" ">
<path fill="none" stroke="#63b8ff" d="M114.71,-73.96C131.02,-69.81 148.64,-65.32 164.3,-61.33"/>
<polygon fill="#63b8ff" stroke="#63b8ff" points="165.02,-64.76 173.85,-58.9 163.3,-57.98 165.02,-64.76"/>
</a>
</g>
</g>
<!-- Node4 -->
<g id="Node000004" class="node">
<title>Node4</title>
<g id="a_Node000004"><a xlink:href="kest__ui_8c.html#a8e18610dded037df6bd96330d349f186" target="_top" xlink:title=" ">
<polygon fill="white" stroke="#666666" points="453,-98.75 310.25,-98.75 310.25,-78 453,-78 453,-98.75"/>
<text xml:space="preserve" text-anchor="middle" x="381.62" y="-85.25" font-family="Helvetica,sans-Serif" font-size="10.00">enter_ui_page_backwards</text>
</a>
</g>
</g>
<!-- Node3&#45;&gt;Node4 -->
<g id="edge3_Node000003_Node000004" class="edge">
<title>Node3&#45;&gt;Node4</title>
<g id="a_edge3_Node000003_Node000004"><a xlink:title=" ">
<path fill="none" stroke="#63b8ff" d="M274.62,-88.38C282.42,-88.38 290.5,-88.38 298.56,-88.38"/>
<polygon fill="#63b8ff" stroke="#63b8ff" points="298.4,-91.88 308.4,-88.38 298.4,-84.88 298.4,-91.88"/>
</a>
</g>
</g>
<!-- Node5 -->
<g id="Node000005" class="node">
<title>Node5</title>
<g id="a_Node000005"><a xlink:href="kest__context_8c.html#a6292c7a2d7f0502ea5a59bbe9b552791" target="_top" xlink:title=" ">
<polygon fill="#fff0f0" stroke="red" points="609.25,-105.12 489,-105.12 489,-71.62 609.25,-71.62 609.25,-105.12"/>
<text xml:space="preserve" text-anchor="start" x="497" y="-91.62" font-family="Helvetica,sans-Serif" font-size="10.00">kest_cxt_queue_save</text>
<text xml:space="preserve" text-anchor="middle" x="549.12" y="-78.88" font-family="Helvetica,sans-Serif" font-size="10.00">_state</text>
</a>
</g>
</g>
<!-- Node4&#45;&gt;Node5 -->
<g id="edge4_Node000004_Node000005" class="edge">
<title>Node4&#45;&gt;Node5</title>
<g id="a_edge4_Node000004_Node000005"><a xlink:title=" ">
<path fill="none" stroke="#63b8ff" d="M453.29,-88.38C461.2,-88.38 469.26,-88.38 477.18,-88.38"/>
<polygon fill="#63b8ff" stroke="#63b8ff" points="477.12,-91.88 487.12,-88.38 477.12,-84.88 477.12,-91.88"/>
</a>
</g>
</g>
<!-- Node8 -->
<g id="Node000008" class="node">
<title>Node8</title>
<g id="a_Node000008"><a xlink:href="kest__button_8c.html#a20604a0eb74819a9747753ccfdb24e6c" target="_top" xlink:title=" ">
<polygon fill="white" stroke="#666666" points="415.88,-59.75 347.38,-59.75 347.38,-39 415.88,-39 415.88,-59.75"/>
<text xml:space="preserve" text-anchor="middle" x="381.62" y="-46.25" font-family="Helvetica,sans-Serif" font-size="10.00">init_button</text>
</a>
</g>
</g>
<!-- Node7&#45;&gt;Node8 -->
<g id="edge6_Node000007_Node000008" class="edge">
<title>Node7&#45;&gt;Node8</title>
<g id="a_edge6_Node000007_Node000008"><a xlink:title=" ">
<path fill="none" stroke="#63b8ff" d="M249.16,-49.38C274.54,-49.38 308.74,-49.38 335.9,-49.38"/>
<polygon fill="#63b8ff" stroke="#63b8ff" points="335.54,-52.88 345.54,-49.38 335.54,-45.88 335.54,-52.88"/>
</a>
</g>
</g>
<!-- Node9 -->
<g id="Node000009" class="node">
<title>Node9</title>
<g id="a_Node000009"><a xlink:href="kest__alloc_8c.html#a849755c5dc5b35e712ffcdb602e50fb4" target="_top" xlink:title=" ">
<polygon fill="white" stroke="#666666" points="414,-20.75 349.25,-20.75 349.25,0 414,0 414,-20.75"/>
<text xml:space="preserve" text-anchor="middle" x="381.62" y="-7.25" font-family="Helvetica,sans-Serif" font-size="10.00">kest_alloc</text>
</a>
</g>
</g>
<!-- Node7&#45;&gt;Node9 -->
<g id="edge7_Node000007_Node000009" class="edge">
<title>Node7&#45;&gt;Node9</title>
<g id="a_edge7_Node000007_Node000009"><a xlink:title=" ">
<path fill="none" stroke="#63b8ff" d="M249.16,-41.01C275.24,-34.93 310.65,-26.68 338.14,-20.27"/>
<polygon fill="#63b8ff" stroke="#63b8ff" points="338.59,-23.76 347.54,-18.09 337,-16.95 338.59,-23.76"/>
</a>
</g>
</g>
</g>
</svg>
