<?xml version="1.0" encoding="UTF-8" standalone="no"?>
<!DOCTYPE svg PUBLIC "-//W3C//DTD SVG 1.1//EN"
 "http://www.w3.org/Graphics/SVG/1.1/DTD/svg11.dtd">
<!-- Generated by graphviz version 13.1.2 (20250808.2320)
 -->
<!-- Title: kest_fpga_comms_task Pages: 1 -->
<!--zoomable 437 -->

<svg id="main" version="1.1" xmlns="http://www.w3.org/2000/svg" xmlns:xlink="http://www.w3.org/1999/xlink" xml:space="preserve" onload="init(evt)">

<style type="text/css"><![CDATA[
.node, .edge {opacity: 0.7;}
.node.selected, .edge.selected {opacity: 1;}
.edge:hover path { stroke: red; }
.edge:hover polygon { stroke: red; fill: red; }
]]></style>

<defs>
  <circle id="rim" cx="0" cy="0" r="7"/>
  <circle id="rim2" cx="0" cy="0" r="3.5"/>
  <g id="zoomPlus">
    <use xlink:href="#rim" fill="#404040"><set attributeName="fill" to="#808080" begin="zoomplus.mouseover" end="zoomplus.mouseout"/></use>
    <path d="M-4,0h8M0,-4v8" fill="none" stroke="white" stroke-width="1.5" pointer-events="none"/>
  </g>
  <g id="zoomMin">
    <use xlink:href="#rim" fill="#404040"><set attributeName="fill" to="#808080" begin="zoomminus.mouseover" end="zoomminus.mouseout"/></use>
    <path d="M-4,0h8" fill="none" stroke="white" stroke-width="1.5" pointer-events="none"/>
  </g>
  <g id="arrowUp" transform="translate(30 24)">
    <use xlink:href="#rim"/>
    <path pointer-events="none" fill="none" stroke="white" stroke-width="1.5" d="M0,-3.0v7 M-2.5,-0.5L0,-3.0L2.5,-0.5"/>
  </g>
  <g id="arrowRight" transform="rotate(90) translate(36 -43)">
    <use xlink:href="#rim"/>
    <path pointer-events="none" fill="none" stroke="white" stroke-width="1.5" d="M0,-3.0v7 M-2.5,-0.5L0,-3.0L2.5,-0.5"/>
  </g>
  <g id="arrowDown" transform="rotate(180) translate(-30 -48)">
    <use xlink:href="#rim"/>
    <path pointer-events="none" fill="none" stroke="white" stroke-width="1.5" d="M0,-3.0v7 M-2.5,-0.5L0,-3.0L2.5,-0.5"/>
  </g>
  <g id="arrowLeft" transform="rotate(270) translate(-36 17)">
    <use xlink:href="#rim"/>
    <path pointer-events="none" fill="none" stroke="white" stroke-width="1.5" d="M0,-3.0v7 M-2.5,-0.5L0,-3.0L2.5,-0.5"/>
  </g>
  <g id="resetDef">
    <use xlink:href="#rim2" fill="#404040"><set attributeName="fill" to="#808080" begin="reset.mouseover" end="reset.mouseout"/></use>
  </g>
</defs>
<script type="application/ecmascript">
var viewWidth = 674;
var viewHeight = 437;
var sectionId = 'dynsection-1';
</script>
<script type="application/ecmascript" xlink:href="svg.min.js"/>
<svg id="graph" class="graph">
<g id="viewport">
<title>kest_fpga_comms_task</title>
<!-- Node1 -->
<g id="Node000001" class="node">
<title>Node1</title>
<g id="a_Node000001"><a xlink:title=" ">
<polygon fill="#999999" stroke="#666666" points="130.75,-201.12 0,-201.12 0,-180.38 130.75,-180.38 130.75,-201.12"/>
<text xml:space="preserve" text-anchor="middle" x="65.38" y="-187.62" font-family="Helvetica,sans-Serif" font-size="10.00">kest_fpga_comms_task</text>
</a>
</g>
</g>
<!-- Node2 -->
<g id="Node000002" class="node">
<title>Node2</title>
<g id="a_Node000002"><a xlink:href="kest__fpga__encoding_8c.html#a846915834c09759d6445b5dffc45b723" target="_top" xlink:title=" ">
<polygon fill="white" stroke="#666666" points="301.62,-367.12 178.38,-367.12 178.38,-346.38 301.62,-346.38 301.62,-367.12"/>
<text xml:space="preserve" text-anchor="middle" x="240" y="-353.62" font-family="Helvetica,sans-Serif" font-size="10.00">kest_fpga_batch_print</text>
</a>
</g>
</g>
<!-- Node1&#45;&gt;Node2 -->
<g id="edge1_Node000001_Node000002" class="edge">
<title>Node1&#45;&gt;Node2</title>
<g id="a_edge1_Node000001_Node000002"><a xlink:title=" ">
<path fill="none" stroke="#63b8ff" d="M70.58,-201.58C81.76,-228.93 114.99,-301.23 166.75,-337.75 168.35,-338.88 170.02,-339.94 171.73,-340.94"/>
<polygon fill="#63b8ff" stroke="#63b8ff" points="170.14,-344.06 180.66,-345.34 173.23,-337.78 170.14,-344.06"/>
</a>
</g>
</g>
<!-- Node11 -->
<g id="Node000011" class="node">
<title>Node11</title>
<g id="a_Node000011"><a xlink:href="kest__fpga__io_8c.html#a1a1501e2223a5cddbecfb2b92c9d9705" target="_top" xlink:title=" ">
<polygon fill="white" stroke="#666666" points="306.12,-328.5 173.88,-328.5 173.88,-295 306.12,-295 306.12,-328.5"/>
<text xml:space="preserve" text-anchor="start" x="181.88" y="-315" font-family="Helvetica,sans-Serif" font-size="10.00">kest_fpga_command_to</text>
<text xml:space="preserve" text-anchor="middle" x="240" y="-302.25" font-family="Helvetica,sans-Serif" font-size="10.00">_string</text>
</a>
</g>
</g>
<!-- Node1&#45;&gt;Node11 -->
<g id="edge10_Node000001_Node000011" class="edge">
<title>Node1&#45;&gt;Node11</title>
<g id="a_edge10_Node000001_Node000011"><a xlink:title=" ">
<path fill="none" stroke="#63b8ff" d="M76.01,-201.42C92.91,-219.63 129.66,-257.07 166.75,-280.75 171.78,-283.96 177.21,-286.98 182.74,-289.78"/>
<polygon fill="#63b8ff" stroke="#63b8ff" points="180.86,-292.76 191.39,-293.92 183.88,-286.45 180.86,-292.76"/>
</a>
</g>
</g>
<!-- Node12 -->
<g id="Node000012" class="node">
<title>Node12</title>
<g id="a_Node000012"><a xlink:href="kest__fpga__io_8c.html#ab908dedc52b0ca9107f52f74ab7860c6" target="_top" xlink:title=" ">
<polygon fill="white" stroke="#666666" points="475.5,-259.12 358.25,-259.12 358.25,-238.38 475.5,-238.38 475.5,-259.12"/>
<text xml:space="preserve" text-anchor="middle" x="416.88" y="-245.62" font-family="Helvetica,sans-Serif" font-size="10.00">kest_fpga_read_byte</text>
</a>
</g>
</g>
<!-- Node1&#45;&gt;Node12 -->
<g id="edge11_Node000001_Node000012" class="edge">
<title>Node1&#45;&gt;Node12</title>
<g id="a_edge11_Node000001_Node000012"><a xlink:title=" ">
<path fill="none" stroke="#63b8ff" d="M91.87,-201.58C111.87,-209.6 140.6,-220.07 166.75,-225.75 226.61,-238.74 296.11,-244.4 346.47,-246.86"/>
<polygon fill="#63b8ff" stroke="#63b8ff" points="346.22,-250.35 356.37,-247.31 346.54,-243.36 346.22,-250.35"/>
</a>
</g>
</g>
<!-- Node14 -->
<g id="Node000014" class="node">
<title>Node14</title>
<g id="a_Node000014"><a xlink:href="kest__fpga__io_8c.html#a5151b31faf4c75059d9d8bd1d27fa5f9" target="_top" xlink:title=" ">
<polygon fill="white" stroke="#666666" points="476.25,-201.12 357.5,-201.12 357.5,-180.38 476.25,-180.38 476.25,-201.12"/>
<text xml:space="preserve" text-anchor="middle" x="416.88" y="-187.62" font-family="Helvetica,sans-Serif" font-size="10.00">kest_fpga_send_byte</text>
</a>
</g>
</g>
<!-- Node1&#45;&gt;Node14 -->
<g id="edge13_Node000001_Node000014" class="edge">
<title>Node1&#45;&gt;Node14</title>
<g id="a_edge13_Node000001_Node000014"><a xlink:title=" ">
<path fill="none" stroke="#63b8ff" d="M113.85,-201.62C130.49,-204.93 149.36,-208.12 166.75,-209.75 231.58,-215.83 248.41,-215.7 313.25,-209.75 327.27,-208.46 342.24,-206.21 356.29,-203.69"/>
<polygon fill="#63b8ff" stroke="#63b8ff" points="356.65,-207.18 365.83,-201.9 355.36,-200.3 356.65,-207.18"/>
</a>
</g>
</g>
<!-- Node15 -->
<g id="Node000015" class="node">
<title>Node15</title>
<g id="a_Node000015"><a xlink:href="kest__fpga__io_8c.html#a0e6e4e058cfd8f3ec79208acb0f71aa6" target="_top" xlink:title=" ">
<polygon fill="white" stroke="#666666" points="309.88,-162.12 170.12,-162.12 170.12,-141.38 309.88,-141.38 309.88,-162.12"/>
<text xml:space="preserve" text-anchor="middle" x="240" y="-148.62" font-family="Helvetica,sans-Serif" font-size="10.00">kest_fpga_set_input_gain</text>
</a>
</g>
</g>
<!-- Node1&#45;&gt;Node15 -->
<g id="edge15_Node000001_Node000015" class="edge">
<title>Node1&#45;&gt;Node15</title>
<g id="a_edge15_Node000001_Node000015"><a xlink:title=" ">
<path fill="none" stroke="#63b8ff" d="M114.46,-179.89C134.67,-175.32 158.39,-169.96 179.67,-165.15"/>
<polygon fill="#63b8ff" stroke="#63b8ff" points="180.41,-168.57 189.4,-162.96 178.87,-161.75 180.41,-168.57"/>
</a>
</g>
</g>
<!-- Node17 -->
<g id="Node000017" class="node">
<title>Node17</title>
<g id="a_Node000017"><a xlink:href="kest__fpga__io_8c.html#a6569f6bf656d72080dd355179ac2c4e9" target="_top" xlink:title=" ">
<polygon fill="white" stroke="#666666" points="313.25,-201.12 166.75,-201.12 166.75,-180.38 313.25,-180.38 313.25,-201.12"/>
<text xml:space="preserve" text-anchor="middle" x="240" y="-187.62" font-family="Helvetica,sans-Serif" font-size="10.00">kest_fpga_set_output_gain</text>
</a>
</g>
</g>
<!-- Node1&#45;&gt;Node17 -->
<g id="edge18_Node000001_Node000017" class="edge">
<title>Node1&#45;&gt;Node17</title>
<g id="a_edge18_Node000001_Node000017"><a xlink:title=" ">
<path fill="none" stroke="#63b8ff" d="M131.15,-190.75C138.95,-190.75 147,-190.75 155.03,-190.75"/>
<polygon fill="#63b8ff" stroke="#63b8ff" points="154.82,-194.25 164.82,-190.75 154.82,-187.25 154.82,-194.25"/>
</a>
</g>
</g>
<!-- Node18 -->
<g id="Node000018" class="node">
<title>Node18</title>
<g id="a_Node000018"><a xlink:href="kest__fpga__io_8c.html#a8b41ed8feb0e991733a9af1a8f8acc20" target="_top" xlink:title=" ">
<polygon fill="white" stroke="#666666" points="291.88,-72.12 188.12,-72.12 188.12,-51.38 291.88,-51.38 291.88,-72.12"/>
<text xml:space="preserve" text-anchor="middle" x="240" y="-58.62" font-family="Helvetica,sans-Serif" font-size="10.00">kest_fpga_spi_init</text>
</a>
</g>
</g>
<!-- Node1&#45;&gt;Node18 -->
<g id="edge21_Node000001_Node000018" class="edge">
<title>Node1&#45;&gt;Node18</title>
<g id="a_edge21_Node000001_Node000018"><a xlink:title=" ">
<path fill="none" stroke="#63b8ff" d="M72.97,-180.12C87.22,-158.04 123.18,-107.12 166.75,-80.75 170.07,-78.74 173.6,-76.94 177.24,-75.33"/>
<polygon fill="#63b8ff" stroke="#63b8ff" points="178.27,-78.69 186.33,-71.82 175.74,-72.16 178.27,-78.69"/>
</a>
</g>
</g>
<!-- Node19 -->
<g id="Node000019" class="node">
<title>Node19</title>
<g id="a_Node000019"><a xlink:href="kest__fpga__io_8c.html#ae911bef59743e59043a283dac1be0761" target="_top" xlink:title=" ">
<polygon fill="white" stroke="#666666" points="293.38,-123.5 186.62,-123.5 186.62,-90 293.38,-90 293.38,-123.5"/>
<text xml:space="preserve" text-anchor="start" x="194.62" y="-110" font-family="Helvetica,sans-Serif" font-size="10.00">kest_fpga_transfer</text>
<text xml:space="preserve" text-anchor="middle" x="240" y="-97.25" font-family="Helvetica,sans-Serif" font-size="10.00">_batch_send</text>
</a>
</g>
</g>
<!-- Node1&#45;&gt;Node19 -->
<g id="edge22_Node000001_Node000019" class="edge">
<title>Node1&#45;&gt;Node19</title>
<g id="a_edge22_Node000001_Node000019"><a xlink:title=" ">
<path fill="none" stroke="#63b8ff" d="M82.93,-179.95C102.44,-167.52 136.08,-146.99 166.75,-132.75 170.08,-131.21 173.52,-129.69 177.02,-128.22"/>
<polygon fill="#63b8ff" stroke="#63b8ff" points="178.25,-131.5 186.22,-124.52 175.63,-125.01 178.25,-131.5"/>
</a>
</g>
</g>
<!-- Node20 -->
<g id="Node000020" class="node">
<title>Node20</title>
<g id="a_Node000020"><a xlink:href="kest__fpga__io_8c.html#aa1e89a33f9427932bc0d8e62bbfed3cb" target="_top" xlink:title=" ">
<polygon fill="white" stroke="#666666" points="305.75,-33.5 174.25,-33.5 174.25,0 305.75,0 305.75,-33.5"/>
<text xml:space="preserve" text-anchor="start" x="182.25" y="-20" font-family="Helvetica,sans-Serif" font-size="10.00">kest_free_fpga_transfer</text>
<text xml:space="preserve" text-anchor="middle" x="240" y="-7.25" font-family="Helvetica,sans-Serif" font-size="10.00">_batch</text>
</a>
</g>
</g>
<!-- Node1&#45;&gt;Node20 -->
<g id="edge24_Node000001_Node000020" class="edge">
<title>Node1&#45;&gt;Node20</title>
<g id="a_edge24_Node000001_Node000020"><a xlink:title=" ">
<path fill="none" stroke="#63b8ff" d="M70.75,-180.12C82.35,-153.21 116.48,-81.78 166.75,-42.75 168.23,-41.6 169.77,-40.49 171.36,-39.44"/>
<polygon fill="#63b8ff" stroke="#63b8ff" points="172.69,-42.71 179.55,-34.64 169.15,-36.67 172.69,-42.71"/>
</a>
</g>
</g>
<!-- Node3 -->
<g id="Node000003" class="node">
<title>Node3</title>
<g id="a_Node000003"><a xlink:href="kest__hfunc_8c.html#a3e848609eabc8d2389b0a9f4517a0a13" target="_top" xlink:title=" ">
<polygon fill="white" stroke="#666666" points="462.75,-429.12 371,-429.12 371,-408.38 462.75,-408.38 462.75,-429.12"/>
<text xml:space="preserve" text-anchor="middle" x="416.88" y="-415.62" font-family="Helvetica,sans-Serif" font-size="10.00">binary_print_16</text>
</a>
</g>
</g>
<!-- Node2&#45;&gt;Node3 -->
<g id="edge2_Node000002_Node000003" class="edge">
<title>Node2&#45;&gt;Node3</title>
<g id="a_edge2_Node000002_Node000003"><a xlink:title=" ">
<path fill="none" stroke="#63b8ff" d="M266.1,-367.55C287.87,-376.72 320.34,-389.91 349.25,-399.75 354.25,-401.45 359.5,-403.13 364.76,-404.74"/>
<polygon fill="#63b8ff" stroke="#63b8ff" points="363.48,-408.01 374.06,-407.51 365.47,-401.3 363.48,-408.01"/>
</a>
</g>
</g>
<!-- Node5 -->
<g id="Node000005" class="node">
<title>Node5</title>
<g id="a_Node000005"><a xlink:href="kest__hfunc_8c.html#ad1ec0738e9eb4d206d93d895c18185fb" target="_top" xlink:title=" ">
<polygon fill="white" stroke="#666666" points="462.75,-339.12 371,-339.12 371,-318.38 462.75,-318.38 462.75,-339.12"/>
<text xml:space="preserve" text-anchor="middle" x="416.88" y="-325.62" font-family="Helvetica,sans-Serif" font-size="10.00">binary_print_24</text>
</a>
</g>
</g>
<!-- Node2&#45;&gt;Node5 -->
<g id="edge4_Node000002_Node000005" class="edge">
<title>Node2&#45;&gt;Node5</title>
<g id="a_edge4_Node000002_Node000005"><a xlink:title=" ">
<path fill="none" stroke="#63b8ff" d="M301.67,-347.04C320.46,-344.03 341.08,-340.73 359.56,-337.77"/>
<polygon fill="#63b8ff" stroke="#63b8ff" points="359.94,-341.25 369.26,-336.21 358.83,-334.34 359.94,-341.25"/>
</a>
</g>
</g>
<!-- Node6 -->
<g id="Node000006" class="node">
<title>Node6</title>
<g id="a_Node000006"><a xlink:href="kest__fpga__encoding_8c.html#a8357836213e2592c0f36f83c83b1dcbd" target="_top" xlink:title=" ">
<polygon fill="white" stroke="#666666" points="484.5,-390.5 349.25,-390.5 349.25,-357 484.5,-357 484.5,-390.5"/>
<text xml:space="preserve" text-anchor="start" x="357.25" y="-377" font-family="Helvetica,sans-Serif" font-size="10.00">kest_fpga_block_opcode</text>
<text xml:space="preserve" text-anchor="middle" x="416.88" y="-364.25" font-family="Helvetica,sans-Serif" font-size="10.00">_format</text>
</a>
</g>
</g>
<!-- Node2&#45;&gt;Node6 -->
<g id="edge6_Node000002_Node000006" class="edge">
<title>Node2&#45;&gt;Node6</title>
<g id="a_edge6_Node000002_Node000006"><a xlink:title=" ">
<path fill="none" stroke="#63b8ff" d="M301.67,-362.65C313.26,-363.77 325.54,-364.97 337.59,-366.14"/>
<polygon fill="#63b8ff" stroke="#63b8ff" points="337.24,-369.62 347.53,-367.11 337.92,-362.65 337.24,-369.62"/>
</a>
</g>
</g>
<!-- Node7 -->
<g id="Node000007" class="node">
<title>Node7</title>
<g id="a_Node000007"><a xlink:href="kest__fpga__encoding_8c.html#a9f3d76916b565e27599aebdb6c624499" target="_top" xlink:title=" ">
<polygon fill="white" stroke="#666666" points="464.62,-300.12 369.12,-300.12 369.12,-279.38 464.62,-279.38 464.62,-300.12"/>
<text xml:space="preserve" text-anchor="middle" x="416.88" y="-286.62" font-family="Helvetica,sans-Serif" font-size="10.00">print_instruction</text>
</a>
</g>
</g>
<!-- Node2&#45;&gt;Node7 -->
<g id="edge7_Node000002_Node000007" class="edge">
<title>Node2&#45;&gt;Node7</title>
<g id="a_edge7_Node000002_Node000007"><a xlink:title=" ">
<path fill="none" stroke="#63b8ff" d="M292.47,-345.97C299.62,-343.69 306.74,-340.97 313.25,-337.75 331.42,-328.77 331.24,-319.04 349.25,-309.75 352.96,-307.84 356.87,-306.08 360.88,-304.46"/>
<polygon fill="#63b8ff" stroke="#63b8ff" points="362,-307.78 370.18,-301.05 359.59,-301.21 362,-307.78"/>
</a>
</g>
</g>
<!-- Node4 -->
<g id="Node000004" class="node">
<title>Node4</title>
<g id="a_Node000004"><a xlink:href="kest__hfunc_8c.html#af8699cf7affbc403aa0e90ab78311cfe" target="_top" xlink:title=" ">
<polygon fill="white" stroke="#666666" points="635.88,-384.12 550.12,-384.12 550.12,-363.38 635.88,-363.38 635.88,-384.12"/>
<text xml:space="preserve" text-anchor="middle" x="593" y="-370.62" font-family="Helvetica,sans-Serif" font-size="10.00">binary_print_n</text>
</a>
</g>
</g>
<!-- Node3&#45;&gt;Node4 -->
<g id="edge3_Node000003_Node000004" class="edge">
<title>Node3&#45;&gt;Node4</title>
<g id="a_edge3_Node000003_Node000004"><a xlink:title=" ">
<path fill="none" stroke="#63b8ff" d="M459.58,-407.97C483.42,-401.81 513.55,-394.02 539.05,-387.43"/>
<polygon fill="#63b8ff" stroke="#63b8ff" points="539.76,-390.87 548.56,-384.98 538.01,-384.09 539.76,-390.87"/>
</a>
</g>
</g>
<!-- Node5&#45;&gt;Node4 -->
<g id="edge5_Node000005_Node000004" class="edge">
<title>Node5&#45;&gt;Node4</title>
<g id="a_edge5_Node000005_Node000004"><a xlink:title=" ">
<path fill="none" stroke="#63b8ff" d="M459.58,-339.53C483.42,-345.69 513.55,-353.48 539.05,-360.07"/>
<polygon fill="#63b8ff" stroke="#63b8ff" points="538.01,-363.41 548.56,-362.52 539.76,-356.63 538.01,-363.41"/>
</a>
</g>
</g>
<!-- Node8 -->
<g id="Node000008" class="node">
<title>Node8</title>
<g id="a_Node000008"><a xlink:href="kest__fpga__encoding_8c.html#a7ca2a1fbddc5d291e6f3196e060cd163" target="_top" xlink:title=" ">
<polygon fill="#fff0f0" stroke="red" points="665.5,-261.12 520.5,-261.12 520.5,-240.38 665.5,-240.38 665.5,-261.12"/>
<text xml:space="preserve" text-anchor="middle" x="593" y="-247.62" font-family="Helvetica,sans-Serif" font-size="10.00">print_instruction_format_a</text>
</a>
</g>
</g>
<!-- Node7&#45;&gt;Node8 -->
<g id="edge8_Node000007_Node000008" class="edge">
<title>Node7&#45;&gt;Node8</title>
<g id="a_edge8_Node000007_Node000008"><a xlink:title=" ">
<path fill="none" stroke="#63b8ff" d="M465,-279.2C485.85,-274.53 510.6,-268.98 532.69,-264.03"/>
<polygon fill="#63b8ff" stroke="#63b8ff" points="533.16,-267.52 542.15,-261.91 531.63,-260.69 533.16,-267.52"/>
</a>
</g>
</g>
<!-- Node10 -->
<g id="Node000010" class="node">
<title>Node10</title>
<g id="a_Node000010"><a xlink:href="kest__fpga__encoding_8c.html#a742d286efbcdfcfb04471fac4282b318" target="_top" xlink:title=" ">
<polygon fill="#fff0f0" stroke="red" points="665.5,-300.12 520.5,-300.12 520.5,-279.38 665.5,-279.38 665.5,-300.12"/>
<text xml:space="preserve" text-anchor="middle" x="593" y="-286.62" font-family="Helvetica,sans-Serif" font-size="10.00">print_instruction_format_b</text>
</a>
</g>
</g>
<!-- Node7&#45;&gt;Node10 -->
<g id="edge9_Node000007_Node000010" class="edge">
<title>Node7&#45;&gt;Node10</title>
<g id="a_edge9_Node000007_Node000010"><a xlink:title=" ">
<path fill="none" stroke="#63b8ff" d="M465,-289.75C478.56,-289.75 493.77,-289.75 508.83,-289.75"/>
<polygon fill="#63b8ff" stroke="#63b8ff" points="508.78,-293.25 518.78,-289.75 508.78,-286.25 508.78,-293.25"/>
</a>
</g>
</g>
<!-- Node13 -->
<g id="Node000013" class="node">
<title>Node13</title>
<g id="a_Node000013"><a xlink:href="kest__fpga__io_8c.html#a2fe46577ece371a5fc9834bc59390913" target="_top" xlink:title=" ">
<polygon fill="white" stroke="#666666" points="637,-201.12 549,-201.12 549,-180.38 637,-180.38 637,-201.12"/>
<text xml:space="preserve" text-anchor="middle" x="593" y="-187.62" font-family="Helvetica,sans-Serif" font-size="10.00">kest_fpga_txrx</text>
</a>
</g>
</g>
<!-- Node12&#45;&gt;Node13 -->
<g id="edge12_Node000012_Node000013" class="edge">
<title>Node12&#45;&gt;Node13</title>
<g id="a_edge12_Node000012_Node000013"><a xlink:title=" ">
<path fill="none" stroke="#63b8ff" d="M450.22,-237.98C477.99,-228.73 518.24,-215.32 548.77,-205.15"/>
<polygon fill="#63b8ff" stroke="#63b8ff" points="549.72,-208.52 558.1,-202.04 547.51,-201.88 549.72,-208.52"/>
</a>
</g>
</g>
<!-- Node14&#45;&gt;Node13 -->
<g id="edge14_Node000014_Node000013" class="edge">
<title>Node14&#45;&gt;Node13</title>
<g id="a_edge14_Node000014_Node000013"><a xlink:title=" ">
<path fill="none" stroke="#63b8ff" d="M476.34,-190.75C495.99,-190.75 517.82,-190.75 537.18,-190.75"/>
<polygon fill="#63b8ff" stroke="#63b8ff" points="537.04,-194.25 547.04,-190.75 537.04,-187.25 537.04,-194.25"/>
</a>
</g>
</g>
<!-- Node15&#45;&gt;Node14 -->
<g id="edge17_Node000015_Node000014" class="edge">
<title>Node15&#45;&gt;Node14</title>
<g id="a_edge17_Node000015_Node000014"><a xlink:title=" ">
<path fill="none" stroke="#63b8ff" d="M289.71,-162.61C310.28,-167.2 334.43,-172.59 356.07,-177.41"/>
<polygon fill="#63b8ff" stroke="#63b8ff" points="355.12,-180.79 365.64,-179.55 356.65,-173.95 355.12,-180.79"/>
</a>
</g>
</g>
<!-- Node16 -->
<g id="Node000016" class="node">
<title>Node16</title>
<g id="a_Node000016"><a xlink:href="kest__fixed__point_8c.html#a1580bc2204b9b5083cfb04e1e883ea35" target="_top" xlink:title=" ">
<polygon fill="white" stroke="#666666" points="472.88,-162.12 360.88,-162.12 360.88,-141.38 472.88,-141.38 472.88,-162.12"/>
<text xml:space="preserve" text-anchor="middle" x="416.88" y="-148.62" font-family="Helvetica,sans-Serif" font-size="10.00">float_to_q_nminus1</text>
</a>
</g>
</g>
<!-- Node15&#45;&gt;Node16 -->
<g id="edge16_Node000015_Node000016" class="edge">
<title>Node15&#45;&gt;Node16</title>
<g id="a_edge16_Node000015_Node000016"><a xlink:title=" ">
<path fill="none" stroke="#63b8ff" d="M310.37,-151.75C323.14,-151.75 336.46,-151.75 349.15,-151.75"/>
<polygon fill="#63b8ff" stroke="#63b8ff" points="349.09,-155.25 359.09,-151.75 349.09,-148.25 349.09,-155.25"/>
</a>
</g>
</g>
<!-- Node17&#45;&gt;Node14 -->
<g id="edge20_Node000017_Node000014" class="edge">
<title>Node17&#45;&gt;Node14</title>
<g id="a_edge20_Node000017_Node000014"><a xlink:title=" ">
<path fill="none" stroke="#63b8ff" d="M313.64,-190.75C324.26,-190.75 335.17,-190.75 345.73,-190.75"/>
<polygon fill="#63b8ff" stroke="#63b8ff" points="345.51,-194.25 355.51,-190.75 345.51,-187.25 345.51,-194.25"/>
</a>
</g>
</g>
<!-- Node17&#45;&gt;Node16 -->
<g id="edge19_Node000017_Node000016" class="edge">
<title>Node17&#45;&gt;Node16</title>
<g id="a_edge19_Node000017_Node000016"><a xlink:title=" ">
<path fill="none" stroke="#63b8ff" d="M289.71,-179.89C310.28,-175.3 334.43,-169.91 356.07,-165.09"/>
<polygon fill="#63b8ff" stroke="#63b8ff" points="356.65,-168.55 365.64,-162.95 355.12,-161.71 356.65,-168.55"/>
</a>
</g>
</g>
<!-- Node19&#45;&gt;Node13 -->
<g id="edge23_Node000019_Node000013" class="edge">
<title>Node19&#45;&gt;Node13</title>
<g id="a_edge23_Node000019_Node000013"><a xlink:title=" ">
<path fill="none" stroke="#63b8ff" d="M293.48,-106.54C343.61,-107.69 420.74,-112.99 484.5,-132.75 514.79,-142.14 546.37,-160.35 567.4,-173.87"/>
<polygon fill="#63b8ff" stroke="#63b8ff" points="565.28,-176.67 575.56,-179.24 569.13,-170.82 565.28,-176.67"/>
</a>
</g>
</g>
<!-- Node21 -->
<g id="Node000021" class="node">
<title>Node21</title>
<g id="a_Node000021"><a xlink:href="kest__alloc_8c.html#a294af5728a94aa316fcf65304d388d48" target="_top" xlink:title=" ">
<polygon fill="white" stroke="#666666" points="447.38,-27.12 386.38,-27.12 386.38,-6.38 447.38,-6.38 447.38,-27.12"/>
<text xml:space="preserve" text-anchor="middle" x="416.88" y="-13.62" font-family="Helvetica,sans-Serif" font-size="10.00">kest_free</text>
</a>
</g>
</g>
<!-- Node20&#45;&gt;Node21 -->
<g id="edge25_Node000020_Node000021" class="edge">
<title>Node20&#45;&gt;Node21</title>
<g id="a_edge25_Node000020_Node000021"><a xlink:title=" ">
<path fill="none" stroke="#63b8ff" d="M306.12,-16.75C329.01,-16.75 354.09,-16.75 374.49,-16.75"/>
<polygon fill="#63b8ff" stroke="#63b8ff" points="374.39,-20.25 384.39,-16.75 374.39,-13.25 374.39,-20.25"/>
</a>
</g>
</g>
</g>
</svg>

<g id="navigator" transform="translate(0 0)" fill="#404254">
  <rect fill="#f2f5e9" fill-opacity="0.5" stroke="#606060" stroke-width=".5" x="0" y="0" width="60" height="60"/>
  <use id="zoomplus" xlink:href="#zoomPlus" x="17" y="9" onmousedown="handleZoom(evt,'in')"/>
  <use id="zoomminus" xlink:href="#zoomMin" x="42" y="9" onmousedown="handleZoom(evt,'out')"/>
  <use id="reset" xlink:href="#resetDef" x="30" y="36" onmousedown="handleReset()"/>
   <use id="arrowup" xlink:href="#arrowUp" x="0" y="0" onmousedown="handlePan(0,-1)"/>
  <use id="arrowright" xlink:href="#arrowRight" x="0" y="0" onmousedown="handlePan(1,0)"/>
  <use id="arrowdown" xlink:href="#arrowDown" x="0" y="0" onmousedown="handlePan(0,1)"/>
  <use id="arrowleft" xlink:href="#arrowLeft" x="0" y="0" onmousedown="handlePan(-1,0)"/>
</g>
<svg viewBox="0 0 15 15" width="100%" height="30px" preserveAspectRatio="xMaxYMin meet">
 <g id="arrow_out" transform="scale(0.3 0.3)">
  <a xlink:href="kest__fpga__comms_8h_a8f850777494bb4c4d61df3efbf31ca7c_cgraph_org.svg" target="_base">
   <rect id="button" ry="5" rx="5" y="6" x="6" height="38" width="38"
        fill="#f2f5e9" fill-opacity="0.5" stroke="#606060" stroke-width="1.0"/>
   <path id="arrow"
     d="M 11.500037,31.436501 C 11.940474,20.09759 22.043105,11.32322 32.158766,21.979434 L 37.068811,17.246167 C 37.068811,17.246167 37.088388,32 37.088388,32 L 22.160133,31.978069 C 22.160133,31.978069 26.997745,27.140456 26.997745,27.140456 C 18.528582,18.264221 13.291696,25.230495 11.500037,31.436501 z"
     style="fill:#404040;"/>
  </a>
 </g>
</svg>

<style type='text/css'>
<![CDATA[
[data-mouse-over-selected='false'] { opacity: 0.7; }
[data-mouse-over-selected='true']  { opacity: 1.0; }
]]>
</style>
<script type="application/ecmascript"><![CDATA[
document.addEventListener('DOMContentLoaded', (event) => {
  highlightEdges();
  highlightAdjacentNodes();
});
]]></script>
</svg>
