<?xml version="1.0" encoding="UTF-8" standalone="no"?>
<!DOCTYPE svg PUBLIC "-//W3C//DTD SVG 1.1//EN"
 "http://www.w3.org/Graphics/SVG/1.1/DTD/svg11.dtd">
<!-- Generated by graphviz version 13.1.2 (20250808.2320)
 -->
<!-- Title: kest_extract_delay_buffer_from_dict Pages: 1 -->
<svg width="636pt" height="74pt"
 viewBox="0.00 0.00 636.00 74.00" xmlns="http://www.w3.org/2000/svg" xmlns:xlink="http://www.w3.org/1999/xlink">
<g id="graph0" class="graph" transform="scale(1 1) rotate(0) translate(4 70.12)">
<title>kest_extract_delay_buffer_from_dict</title>
<!-- Node1 -->
<g id="Node000001" class="node">
<title>Node1</title>
<g id="a_Node000001"><a xlink:title=" ">
<polygon fill="#999999" stroke="#666666" points="108.25,-46.12 0,-46.12 0,-12.62 108.25,-12.62 108.25,-46.12"/>
<text xml:space="preserve" text-anchor="start" x="8" y="-32.62" font-family="Helvetica,sans-Serif" font-size="10.00">kest_extract_delay</text>
<text xml:space="preserve" text-anchor="middle" x="54.12" y="-19.88" font-family="Helvetica,sans-Serif" font-size="10.00">_buffer_from_dict</text>
</a>
</g>
</g>
<!-- Node2 -->
<g id="Node000002" class="node">
<title>Node2</title>
<g id="a_Node000002"><a xlink:href="kest__dictionary_8c.html#aa5e01745c3975da2999b57cc7f51fba7" target="_top" xlink:title=" ">
<polygon fill="white" stroke="#666666" points="299.75,-59.75 144.25,-59.75 144.25,-39 299.75,-39 299.75,-59.75"/>
<text xml:space="preserve" text-anchor="middle" x="222" y="-46.25" font-family="Helvetica,sans-Serif" font-size="10.00">kest_dictionary_lookup_expr</text>
</a>
</g>
</g>
<!-- Node1&#45;&gt;Node2 -->
<g id="edge1_Node000001_Node000002" class="edge">
<title>Node1&#45;&gt;Node2</title>
<g id="a_edge1_Node000001_Node000002"><a xlink:title=" ">
<path fill="none" stroke="#63b8ff" d="M108.52,-35.81C116.27,-36.75 124.41,-37.73 132.63,-38.72"/>
<polygon fill="#63b8ff" stroke="#63b8ff" points="132,-42.17 142.34,-39.89 132.83,-35.22 132,-42.17"/>
</a>
</g>
</g>
<!-- Node5 -->
<g id="Node000005" class="node">
<title>Node5</title>
<g id="a_Node000005"><a xlink:href="kest__eff__parser_8c.html#a9c89af02214b349048ed0f85274af710" target="_top" xlink:title=" ">
<polygon fill="white" stroke="#666666" points="294.5,-20.75 149.5,-20.75 149.5,0 294.5,0 294.5,-20.75"/>
<text xml:space="preserve" text-anchor="middle" x="222" y="-7.25" font-family="Helvetica,sans-Serif" font-size="10.00">kest_parser_error_at_node</text>
</a>
</g>
</g>
<!-- Node1&#45;&gt;Node5 -->
<g id="edge4_Node000001_Node000005" class="edge">
<title>Node1&#45;&gt;Node5</title>
<g id="a_edge4_Node000001_Node000005"><a xlink:title=" ">
<path fill="none" stroke="#63b8ff" d="M108.52,-23.26C117.95,-22.18 127.96,-21.03 137.98,-19.88"/>
<polygon fill="#63b8ff" stroke="#63b8ff" points="138.21,-23.38 147.75,-18.77 137.42,-16.43 138.21,-23.38"/>
</a>
</g>
</g>
<!-- Node3 -->
<g id="Node000003" class="node">
<title>Node3</title>
<g id="a_Node000003"><a xlink:href="kest__dictionary_8c.html#ac32514fb9876c48a7b489fa4686fbdbd" target="_top" xlink:title=" ">
<polygon fill="white" stroke="#666666" points="464.25,-59.75 335.75,-59.75 335.75,-39 464.25,-39 464.25,-59.75"/>
<text xml:space="preserve" text-anchor="middle" x="400" y="-46.25" font-family="Helvetica,sans-Serif" font-size="10.00">kest_dictionary_lookup</text>
</a>
</g>
</g>
<!-- Node2&#45;&gt;Node3 -->
<g id="edge2_Node000002_Node000003" class="edge">
<title>Node2&#45;&gt;Node3</title>
<g id="a_edge2_Node000002_Node000003"><a xlink:title=" ">
<path fill="none" stroke="#63b8ff" d="M300.2,-49.38C308.08,-49.38 316.08,-49.38 323.93,-49.38"/>
<polygon fill="#63b8ff" stroke="#63b8ff" points="323.8,-52.88 333.8,-49.38 323.8,-45.88 323.8,-52.88"/>
</a>
</g>
</g>
<!-- Node4 -->
<g id="Node000004" class="node">
<title>Node4</title>
<g id="a_Node000004"><a xlink:href="kest__dictionary_8c.html#aed95d5d56052a9f450a8fca4a415cb1e" target="_top" xlink:title=" ">
<polygon fill="white" stroke="#666666" points="628,-66.12 500.25,-66.12 500.25,-32.62 628,-32.62 628,-66.12"/>
<text xml:space="preserve" text-anchor="start" x="508.25" y="-52.62" font-family="Helvetica,sans-Serif" font-size="10.00">kest_dictionary_bucket</text>
<text xml:space="preserve" text-anchor="middle" x="564.12" y="-39.88" font-family="Helvetica,sans-Serif" font-size="10.00">_lookup</text>
</a>
</g>
</g>
<!-- Node3&#45;&gt;Node4 -->
<g id="edge3_Node000003_Node000004" class="edge">
<title>Node3&#45;&gt;Node4</title>
<g id="a_edge3_Node000003_Node000004"><a xlink:title=" ">
<path fill="none" stroke="#63b8ff" d="M464.61,-49.38C472.51,-49.38 480.64,-49.38 488.68,-49.38"/>
<polygon fill="#63b8ff" stroke="#63b8ff" points="488.45,-52.88 498.45,-49.38 488.45,-45.88 488.45,-52.88"/>
</a>
</g>
</g>
</g>
</svg>
