<?xml version="1.0" encoding="UTF-8" standalone="no"?>
<!DOCTYPE svg PUBLIC "-//W3C//DTD SVG 1.1//EN"
 "http://www.w3.org/Graphics/SVG/1.1/DTD/svg11.dtd">
<!-- Generated by graphviz version 13.1.2 (20250808.2320)
 -->
<!-- Title: kest_profile_program_fpga Pages: 1 -->
<svg width="866pt" height="493pt"
 viewBox="0.00 0.00 866.00 493.00" xmlns="http://www.w3.org/2000/svg" xmlns:xlink="http://www.w3.org/1999/xlink">
<g id="graph0" class="graph" transform="scale(1 1) rotate(0) translate(4 489.12)">
<title>kest_profile_program_fpga</title>
<!-- Node1 -->
<g id="Node000001" class="node">
<title>Node1</title>
<g id="a_Node000001"><a xlink:title=" ">
<polygon fill="#999999" stroke="#666666" points="857.75,-294.75 711.25,-294.75 711.25,-274 857.75,-274 857.75,-294.75"/>
<text xml:space="preserve" text-anchor="middle" x="784.5" y="-281.25" font-family="Helvetica,sans-Serif" font-size="10.00">kest_profile_program_fpga</text>
</a>
</g>
</g>
<!-- Node2 -->
<g id="Node000002" class="node">
<title>Node2</title>
<g id="a_Node000002"><a xlink:href="kest__profile_8c.html#a1943b8bd24ec344d5f80fcb7fb4ca297" target="_top" xlink:title=" ">
<polygon fill="white" stroke="#666666" points="671.12,-365.12 550.88,-365.12 550.88,-331.62 671.12,-331.62 671.12,-365.12"/>
<text xml:space="preserve" text-anchor="start" x="558.88" y="-351.62" font-family="Helvetica,sans-Serif" font-size="10.00">kest_profile_if_active</text>
<text xml:space="preserve" text-anchor="middle" x="611" y="-338.88" font-family="Helvetica,sans-Serif" font-size="10.00">_update_fpga</text>
</a>
</g>
</g>
<!-- Node1&#45;&gt;Node2 -->
<g id="edge1_Node000001_Node000002" class="edge">
<title>Node1&#45;&gt;Node2</title>
<g id="a_edge1_Node000001_Node000002"><a xlink:title=" ">
<path fill="none" stroke="#63b8ff" d="M743.95,-299.13C718.34,-308.69 684.88,-321.18 658.06,-331.18"/>
<polygon fill="#63b8ff" stroke="#63b8ff" points="744.84,-302.54 752.99,-295.76 742.4,-295.98 744.84,-302.54"/>
</a>
</g>
</g>
<!-- Node39 -->
<g id="Node000039" class="node">
<title>Node39</title>
<g id="a_Node000039"><a xlink:href="kest__profile_8c.html#a9103db076a4ce8ae9b06c8e30480cbe3" target="_top" xlink:title=" ">
<polygon fill="white" stroke="#666666" points="675.25,-253.75 546.75,-253.75 546.75,-233 675.25,-233 675.25,-253.75"/>
<text xml:space="preserve" text-anchor="middle" x="611" y="-240.25" font-family="Helvetica,sans-Serif" font-size="10.00">kest_profile_set_active</text>
</a>
</g>
</g>
<!-- Node1&#45;&gt;Node39 -->
<g id="edge12_Node000001_Node000039" class="edge">
<title>Node1&#45;&gt;Node39</title>
<g id="a_edge12_Node000001_Node000039"><a xlink:title=" ">
<path fill="none" stroke="#63b8ff" d="M727.26,-270.93C704.59,-265.51 678.79,-259.34 657.35,-254.22"/>
<polygon fill="#63b8ff" stroke="#63b8ff" points="726.43,-274.33 736.97,-273.25 728.06,-267.52 726.43,-274.33"/>
</a>
</g>
</g>
<!-- Node3 -->
<g id="Node000003" class="node">
<title>Node3</title>
<g id="a_Node000003"><a xlink:href="kest__effect__select_8c.html#a0a0604d69c6fbeb09b31db2ebff0e901" target="_top" xlink:title=" ">
<polygon fill="white" stroke="#666666" points="510.75,-471.75 362.75,-471.75 362.75,-451 510.75,-451 510.75,-471.75"/>
<text xml:space="preserve" text-anchor="middle" x="436.75" y="-458.25" font-family="Helvetica,sans-Serif" font-size="10.00">add_effect_from_menu_eff</text>
</a>
</g>
</g>
<!-- Node2&#45;&gt;Node3 -->
<g id="edge2_Node000002_Node000003" class="edge">
<title>Node2&#45;&gt;Node3</title>
<g id="a_edge2_Node000002_Node000003"><a xlink:title=" ">
<path fill="none" stroke="#63b8ff" d="M586.55,-373.58C567.62,-392.71 539.49,-418.5 510.75,-435.38 500.19,-441.57 487.92,-446.65 476.48,-450.62"/>
<polygon fill="#63b8ff" stroke="#63b8ff" points="588.81,-376.28 593.26,-366.67 583.79,-371.4 588.81,-376.28"/>
</a>
</g>
</g>
<!-- Node10 -->
<g id="Node000010" class="node">
<title>Node10</title>
<g id="a_Node000010"><a xlink:href="kest__profile_8c.html#af379350488211e7b72a4c955335bb4de" target="_top" xlink:title=" ">
<polygon fill="white" stroke="#666666" points="506.62,-426.75 366.88,-426.75 366.88,-406 506.62,-406 506.62,-426.75"/>
<text xml:space="preserve" text-anchor="middle" x="436.75" y="-413.25" font-family="Helvetica,sans-Serif" font-size="10.00">kest_profile_move_effect</text>
</a>
</g>
</g>
<!-- Node2&#45;&gt;Node10 -->
<g id="edge4_Node000002_Node000010" class="edge">
<title>Node2&#45;&gt;Node10</title>
<g id="a_edge4_Node000002_Node000010"><a xlink:title=" ">
<path fill="none" stroke="#63b8ff" d="M569.47,-370.72C551.8,-379.85 530.62,-389.97 510.75,-397.38 502.53,-400.44 493.61,-403.2 484.92,-405.61"/>
<polygon fill="#63b8ff" stroke="#63b8ff" points="570.86,-373.94 578.09,-366.2 567.61,-367.75 570.86,-373.94"/>
</a>
</g>
</g>
<!-- Node30 -->
<g id="Node000030" class="node">
<title>Node30</title>
<g id="a_Node000030"><a xlink:href="kest__profile_8c.html#a25cea119219eee39a50e7433a8b914d6" target="_top" xlink:title=" ">
<polygon fill="white" stroke="#666666" points="494.62,-388.12 378.88,-388.12 378.88,-354.62 494.62,-354.62 494.62,-388.12"/>
<text xml:space="preserve" text-anchor="start" x="386.88" y="-374.62" font-family="Helvetica,sans-Serif" font-size="10.00">kest_profile_remove</text>
<text xml:space="preserve" text-anchor="middle" x="436.75" y="-361.88" font-family="Helvetica,sans-Serif" font-size="10.00">_effect</text>
</a>
</g>
</g>
<!-- Node2&#45;&gt;Node30 -->
<g id="edge6_Node000002_Node000030" class="edge">
<title>Node2&#45;&gt;Node30</title>
<g id="a_edge6_Node000002_Node000030"><a xlink:title=" ">
<path fill="none" stroke="#63b8ff" d="M539.57,-357.78C524.77,-359.75 509.34,-361.82 495.1,-363.72"/>
<polygon fill="#63b8ff" stroke="#63b8ff" points="539.77,-361.28 549.22,-356.49 538.85,-354.35 539.77,-361.28"/>
</a>
</g>
</g>
<!-- Node32 -->
<g id="Node000032" class="node">
<title>Node32</title>
<g id="a_Node000032"><a xlink:href="kest__profile__view_8c.html#aee48696f91d0ebc9e3ea2cf62e47cffe" target="_top" xlink:title=" ">
<polygon fill="#fff0f0" stroke="red" points="314,-343.12 204.25,-343.12 204.25,-309.62 314,-309.62 314,-343.12"/>
<text xml:space="preserve" text-anchor="start" x="212.25" y="-329.62" font-family="Helvetica,sans-Serif" font-size="10.00">profile_view_effect</text>
<text xml:space="preserve" text-anchor="middle" x="259.12" y="-316.88" font-family="Helvetica,sans-Serif" font-size="10.00">_delete_cb</text>
</a>
</g>
</g>
<!-- Node2&#45;&gt;Node32 -->
<g id="edge9_Node000002_Node000032" class="edge">
<title>Node2&#45;&gt;Node32</title>
<g id="a_edge9_Node000002_Node000032"><a xlink:title=" ">
<path fill="none" stroke="#63b8ff" d="M539.44,-343.94C472.97,-339.76 374.81,-333.59 314.3,-329.78"/>
<polygon fill="#63b8ff" stroke="#63b8ff" points="538.94,-347.41 549.14,-344.55 539.38,-340.43 538.94,-347.41"/>
</a>
</g>
</g>
<!-- Node33 -->
<g id="Node000033" class="node">
<title>Node33</title>
<g id="a_Node000033"><a xlink:href="kest__parameter__widget_8c.html#a22b7fa4ae5f9628f2da2155f58c2635c" target="_top" xlink:title=" ">
<polygon fill="white" stroke="#666666" points="487.5,-295.75 386,-295.75 386,-275 487.5,-275 487.5,-295.75"/>
<text xml:space="preserve" text-anchor="middle" x="436.75" y="-282.25" font-family="Helvetica,sans-Serif" font-size="10.00">sw_field_save_cb</text>
</a>
</g>
</g>
<!-- Node2&#45;&gt;Node33 -->
<g id="edge10_Node000002_Node000033" class="edge">
<title>Node2&#45;&gt;Node33</title>
<g id="a_edge10_Node000002_Node000033"><a xlink:title=" ">
<path fill="none" stroke="#63b8ff" d="M552.28,-327.27C523.83,-316.86 490.72,-304.75 467.43,-296.23"/>
<polygon fill="#63b8ff" stroke="#63b8ff" points="550.92,-330.49 561.51,-330.64 553.32,-323.92 550.92,-330.49"/>
</a>
</g>
</g>
<!-- Node4 -->
<g id="Node000004" class="node">
<title>Node4</title>
<g id="a_Node000004"><a xlink:href="kest__effect__select_8c.html#a46b6d3a353595e72c7a17e6352e5a7a0" target="_top" xlink:title=" ">
<polygon fill="#fff0f0" stroke="red" points="321.5,-485.12 196.75,-485.12 196.75,-451.62 321.5,-451.62 321.5,-485.12"/>
<text xml:space="preserve" text-anchor="start" x="204.75" y="-471.62" font-family="Helvetica,sans-Serif" font-size="10.00">create_effect_selector</text>
<text xml:space="preserve" text-anchor="middle" x="259.12" y="-458.88" font-family="Helvetica,sans-Serif" font-size="10.00">_button_ui_eff</text>
</a>
</g>
</g>
<!-- Node3&#45;&gt;Node4 -->
<g id="edge3_Node000003_Node000004" class="edge">
<title>Node3&#45;&gt;Node4</title>
<g id="a_edge3_Node000003_Node000004"><a xlink:title=" ">
<path fill="none" stroke="#63b8ff" d="M350.87,-464.76C341.09,-465.15 331.27,-465.54 321.89,-465.91"/>
<polygon fill="#63b8ff" stroke="#63b8ff" points="350.92,-468.26 360.77,-464.36 350.64,-461.26 350.92,-468.26"/>
</a>
</g>
</g>
<!-- Node11 -->
<g id="Node000011" class="node">
<title>Node11</title>
<g id="a_Node000011"><a xlink:href="kest__profile__view_8c.html#a598c3ac11cd3e68c723ef303bdc26f5c" target="_top" xlink:title=" ">
<polygon fill="#fff0f0" stroke="red" points="314,-433.12 204.25,-433.12 204.25,-399.62 314,-399.62 314,-433.12"/>
<text xml:space="preserve" text-anchor="start" x="212.25" y="-419.62" font-family="Helvetica,sans-Serif" font-size="10.00">profile_view_effect</text>
<text xml:space="preserve" text-anchor="middle" x="259.12" y="-406.88" font-family="Helvetica,sans-Serif" font-size="10.00">_moved_cb</text>
</a>
</g>
</g>
<!-- Node10&#45;&gt;Node11 -->
<g id="edge5_Node000010_Node000011" class="edge">
<title>Node10&#45;&gt;Node11</title>
<g id="a_edge5_Node000010_Node000011"><a xlink:title=" ">
<path fill="none" stroke="#63b8ff" d="M355.49,-416.38C341.54,-416.38 327.34,-416.38 314.3,-416.38"/>
<polygon fill="#63b8ff" stroke="#63b8ff" points="355.08,-419.88 365.08,-416.38 355.08,-412.88 355.08,-419.88"/>
</a>
</g>
</g>
<!-- Node31 -->
<g id="Node000031" class="node">
<title>Node31</title>
<g id="a_Node000031"><a xlink:href="kest__context_8c.html#a3dabfbe87edbacbacf5badc8db3fd629" target="_top" xlink:title=" ">
<polygon fill="white" stroke="#666666" points="312.88,-381.75 205.38,-381.75 205.38,-361 312.88,-361 312.88,-381.75"/>
<text xml:space="preserve" text-anchor="middle" x="259.12" y="-368.25" font-family="Helvetica,sans-Serif" font-size="10.00">cxt_remove_effect</text>
</a>
</g>
</g>
<!-- Node30&#45;&gt;Node31 -->
<g id="edge7_Node000030_Node000031" class="edge">
<title>Node30&#45;&gt;Node31</title>
<g id="a_edge7_Node000030_Node000031"><a xlink:title=" ">
<path fill="none" stroke="#63b8ff" d="M367.42,-371.38C349.45,-371.38 330.33,-371.38 313.29,-371.38"/>
<polygon fill="#63b8ff" stroke="#63b8ff" points="367.22,-374.88 377.22,-371.38 367.22,-367.88 367.22,-374.88"/>
</a>
</g>
</g>
<!-- Node30&#45;&gt;Node32 -->
<g id="edge8_Node000030_Node000032" class="edge">
<title>Node30&#45;&gt;Node32</title>
<g id="a_edge8_Node000030_Node000032"><a xlink:title=" ">
<path fill="none" stroke="#63b8ff" d="M367.64,-353.92C350.02,-349.41 331.28,-344.61 314.47,-340.3"/>
<polygon fill="#63b8ff" stroke="#63b8ff" points="366.71,-357.3 377.26,-356.39 368.45,-350.52 366.71,-357.3"/>
</a>
</g>
</g>
<!-- Node34 -->
<g id="Node000034" class="node">
<title>Node34</title>
<g id="a_Node000034"><a xlink:href="kest__parameter__widget_8c.html#a5a6ebded10138ba55624e195ae4f4309" target="_top" xlink:title=" ">
<polygon fill="#fff0f0" stroke="red" points="307.62,-291.75 210.62,-291.75 210.62,-271 307.62,-271 307.62,-291.75"/>
<text xml:space="preserve" text-anchor="middle" x="259.12" y="-278.25" font-family="Helvetica,sans-Serif" font-size="10.00">edit_sw_field_cb</text>
</a>
</g>
</g>
<!-- Node33&#45;&gt;Node34 -->
<g id="edge11_Node000033_Node000034" class="edge">
<title>Node33&#45;&gt;Node34</title>
<g id="a_edge11_Node000033_Node000034"><a xlink:title=" ">
<path fill="none" stroke="#63b8ff" d="M374.42,-283.98C352.65,-283.48 328.47,-282.93 307.99,-282.47"/>
<polygon fill="#63b8ff" stroke="#63b8ff" points="374.3,-287.48 384.38,-284.2 374.46,-280.48 374.3,-287.48"/>
</a>
</g>
</g>
<!-- Node40 -->
<g id="Node000040" class="node">
<title>Node40</title>
<g id="a_Node000040"><a xlink:href="kest__context_8c.html#a38c024b5edfeaccd111fd83b9276503e" target="_top" xlink:title=" ">
<polygon fill="white" stroke="#666666" points="488.25,-253.75 385.25,-253.75 385.25,-233 488.25,-233 488.25,-253.75"/>
<text xml:space="preserve" text-anchor="middle" x="436.75" y="-240.25" font-family="Helvetica,sans-Serif" font-size="10.00">set_active_profile</text>
</a>
</g>
</g>
<!-- Node39&#45;&gt;Node40 -->
<g id="edge13_Node000039_Node000040" class="edge">
<title>Node39&#45;&gt;Node40</title>
<g id="a_edge13_Node000039_Node000040"><a xlink:title=" ">
<path fill="none" stroke="#63b8ff" d="M535.03,-243.38C519.31,-243.38 503.09,-243.38 488.5,-243.38"/>
<polygon fill="#63b8ff" stroke="#63b8ff" points="534.84,-246.88 544.84,-243.38 534.84,-239.88 534.84,-246.88"/>
</a>
</g>
</g>
<!-- Node43 -->
<g id="Node000043" class="node">
<title>Node43</title>
<g id="a_Node000043"><a xlink:href="kest__context_8c.html#a46a337c8aa1724024c73026c74d90a39" target="_top" xlink:title=" ">
<polygon fill="white" stroke="#666666" points="488.25,-144.12 385.25,-144.12 385.25,-110.62 488.25,-110.62 488.25,-144.12"/>
<text xml:space="preserve" text-anchor="start" x="393.25" y="-130.62" font-family="Helvetica,sans-Serif" font-size="10.00">set_active_profile</text>
<text xml:space="preserve" text-anchor="middle" x="436.75" y="-117.88" font-family="Helvetica,sans-Serif" font-size="10.00">_from_sequence</text>
</a>
</g>
</g>
<!-- Node39&#45;&gt;Node43 -->
<g id="edge15_Node000039_Node000043" class="edge">
<title>Node39&#45;&gt;Node43</title>
<g id="a_edge15_Node000039_Node000043"><a xlink:title=" ">
<path fill="none" stroke="#63b8ff" d="M584.83,-226.42C552.3,-204.52 495.98,-166.59 463.28,-144.57"/>
<polygon fill="#63b8ff" stroke="#63b8ff" points="582.6,-229.14 592.85,-231.82 586.51,-223.34 582.6,-229.14"/>
</a>
</g>
</g>
<!-- Node41 -->
<g id="Node000041" class="node">
<title>Node41</title>
<g id="a_Node000041"><a xlink:href="kest__profile__view_8c.html#a7a586e516fd3de15ad3ee1ff2d45ee94" target="_top" xlink:title=" ">
<polygon fill="#fff0f0" stroke="red" points="155.5,-175.75 0,-175.75 0,-155 155.5,-155 155.5,-175.75"/>
<text xml:space="preserve" text-anchor="middle" x="77.75" y="-162.25" font-family="Helvetica,sans-Serif" font-size="10.00">profile_view_play_button_cb</text>
</a>
</g>
</g>
<!-- Node40&#45;&gt;Node41 -->
<g id="edge14_Node000040_Node000041" class="edge">
<title>Node40&#45;&gt;Node41</title>
<g id="a_edge14_Node000040_Node000041"><a xlink:title=" ">
<path fill="none" stroke="#63b8ff" d="M373.82,-245.37C323.7,-245.37 251.8,-241.71 191.5,-224.38 154.34,-213.7 115.3,-190.05 94.31,-176.15"/>
<polygon fill="#63b8ff" stroke="#63b8ff" points="373.62,-248.87 383.6,-245.31 373.58,-241.87 373.62,-248.87"/>
</a>
</g>
</g>
<!-- Node44 -->
<g id="Node000044" class="node">
<title>Node44</title>
<g id="a_Node000044"><a xlink:href="kest__state_8c.html#ab26da214ed0f9d143d63e80a7012796b" target="_top" xlink:title=" ">
<polygon fill="#fff0f0" stroke="red" points="322.25,-215.75 196,-215.75 196,-195 322.25,-195 322.25,-215.75"/>
<text xml:space="preserve" text-anchor="middle" x="259.12" y="-202.25" font-family="Helvetica,sans-Serif" font-size="10.00">kest_cxt_restore_state</text>
</a>
</g>
</g>
<!-- Node43&#45;&gt;Node44 -->
<g id="edge16_Node000043_Node000044" class="edge">
<title>Node43&#45;&gt;Node44</title>
<g id="a_edge16_Node000043_Node000044"><a xlink:title=" ">
<path fill="none" stroke="#63b8ff" d="M397.47,-150.14C376.96,-161.71 351,-175.4 326.75,-185.38 318.49,-188.78 309.43,-191.88 300.74,-194.58"/>
<polygon fill="#63b8ff" stroke="#63b8ff" points="399.1,-153.24 406.04,-145.23 395.62,-147.16 399.1,-153.24"/>
</a>
</g>
</g>
<!-- Node45 -->
<g id="Node000045" class="node">
<title>Node45</title>
<g id="a_Node000045"><a xlink:href="kest__sequence_8c.html#a85f3248c9d10338f835e998245e44b30" target="_top" xlink:title=" ">
<polygon fill="#fff0f0" stroke="red" points="326.38,-176.75 191.88,-176.75 191.88,-156 326.38,-156 326.38,-176.75"/>
<text xml:space="preserve" text-anchor="middle" x="259.12" y="-163.25" font-family="Helvetica,sans-Serif" font-size="10.00">kest_sequence_advance</text>
</a>
</g>
</g>
<!-- Node43&#45;&gt;Node45 -->
<g id="edge17_Node000043_Node000045" class="edge">
<title>Node43&#45;&gt;Node45</title>
<g id="a_edge17_Node000043_Node000045"><a xlink:title=" ">
<path fill="none" stroke="#63b8ff" d="M373.75,-141.14C352.5,-145.86 329.05,-151.07 309,-155.52"/>
<polygon fill="#63b8ff" stroke="#63b8ff" points="374.47,-144.57 383.47,-138.98 372.95,-137.73 374.47,-144.57"/>
</a>
</g>
</g>
<!-- Node49 -->
<g id="Node000049" class="node">
<title>Node49</title>
<g id="a_Node000049"><a xlink:href="kest__sequence_8c.html#adf2bc7c26b0bead2b6bd85fcd9bc6248" target="_top" xlink:title=" ">
<polygon fill="#fff0f0" stroke="red" points="319.25,-137.75 199,-137.75 199,-117 319.25,-117 319.25,-137.75"/>
<text xml:space="preserve" text-anchor="middle" x="259.12" y="-124.25" font-family="Helvetica,sans-Serif" font-size="10.00">kest_sequence_begin</text>
</a>
</g>
</g>
<!-- Node43&#45;&gt;Node49 -->
<g id="edge18_Node000043_Node000049" class="edge">
<title>Node43&#45;&gt;Node49</title>
<g id="a_edge18_Node000043_Node000049"><a xlink:title=" ">
<path fill="none" stroke="#63b8ff" d="M373.64,-127.38C356.03,-127.38 336.92,-127.38 319.49,-127.38"/>
<polygon fill="#63b8ff" stroke="#63b8ff" points="373.44,-130.88 383.44,-127.38 373.44,-123.88 373.44,-130.88"/>
</a>
</g>
</g>
<!-- Node51 -->
<g id="Node000051" class="node">
<title>Node51</title>
<g id="a_Node000051"><a xlink:href="kest__sequence_8c.html#a7598590e9434f17fad5ac037b0bb4164" target="_top" xlink:title=" ">
<polygon fill="white" stroke="#666666" points="326.75,-98.75 191.5,-98.75 191.5,-78 326.75,-78 326.75,-98.75"/>
<text xml:space="preserve" text-anchor="middle" x="259.12" y="-85.25" font-family="Helvetica,sans-Serif" font-size="10.00">kest_sequence_begin_at</text>
</a>
</g>
</g>
<!-- Node43&#45;&gt;Node51 -->
<g id="edge19_Node000043_Node000051" class="edge">
<title>Node43&#45;&gt;Node51</title>
<g id="a_edge19_Node000043_Node000051"><a xlink:title=" ">
<path fill="none" stroke="#63b8ff" d="M373.75,-113.61C352.5,-108.89 329.05,-103.68 309,-99.23"/>
<polygon fill="#63b8ff" stroke="#63b8ff" points="372.95,-117.02 383.47,-115.77 374.47,-110.18 372.95,-117.02"/>
</a>
</g>
</g>
<!-- Node52 -->
<g id="Node000052" class="node">
<title>Node52</title>
<g id="a_Node000052"><a xlink:href="kest__sequence_8c.html#a0076ab743ce384590dc02431edb343c3" target="_top" xlink:title=" ">
<polygon fill="#fff0f0" stroke="red" points="323.75,-59.75 194.5,-59.75 194.5,-39 323.75,-39 323.75,-59.75"/>
<text xml:space="preserve" text-anchor="middle" x="259.12" y="-46.25" font-family="Helvetica,sans-Serif" font-size="10.00">kest_sequence_regress</text>
</a>
</g>
</g>
<!-- Node43&#45;&gt;Node52 -->
<g id="edge21_Node000043_Node000052" class="edge">
<title>Node43&#45;&gt;Node52</title>
<g id="a_edge21_Node000043_Node000052"><a xlink:title=" ">
<path fill="none" stroke="#63b8ff" d="M397.47,-104.61C376.96,-93.04 351,-79.35 326.75,-69.38 318.49,-65.97 309.43,-62.87 300.74,-60.17"/>
<polygon fill="#63b8ff" stroke="#63b8ff" points="395.62,-107.59 406.04,-109.52 399.1,-101.51 395.62,-107.59"/>
</a>
</g>
</g>
<!-- Node53 -->
<g id="Node000053" class="node">
<title>Node53</title>
<g id="a_Node000053"><a xlink:href="kest__sequence_8c.html#a3b2993ed35376e7c9a4fb0f4496b2757" target="_top" xlink:title=" ">
<polygon fill="white" stroke="#666666" points="316.25,-20.75 202,-20.75 202,0 316.25,0 316.25,-20.75"/>
<text xml:space="preserve" text-anchor="middle" x="259.12" y="-7.25" font-family="Helvetica,sans-Serif" font-size="10.00">kest_sequence_stop</text>
</a>
</g>
</g>
<!-- Node43&#45;&gt;Node53 -->
<g id="edge22_Node000043_Node000053" class="edge">
<title>Node43&#45;&gt;Node53</title>
<g id="a_edge22_Node000043_Node000053"><a xlink:title=" ">
<path fill="none" stroke="#63b8ff" d="M413.34,-101.97C392.8,-80.12 360.53,-49.24 326.75,-30.38 320.21,-26.72 312.93,-23.67 305.66,-21.13"/>
<polygon fill="#63b8ff" stroke="#63b8ff" points="410.49,-104.05 419.85,-109.02 415.64,-99.3 410.49,-104.05"/>
</a>
</g>
</g>
<!-- Node51&#45;&gt;Node41 -->
<g id="edge20_Node000051_Node000041" class="edge">
<title>Node51&#45;&gt;Node41</title>
<g id="a_edge20_Node000051_Node000041"><a xlink:title=" ">
<path fill="none" stroke="#63b8ff" d="M207.07,-102.69C201.77,-104.48 196.49,-106.38 191.5,-108.38 157.28,-122.04 119.41,-142.32 97.43,-154.64"/>
<polygon fill="#63b8ff" stroke="#63b8ff" points="208.03,-106.06 216.48,-99.66 205.89,-99.39 208.03,-106.06"/>
</a>
</g>
</g>
</g>
</svg>
