<?xml version="1.0" encoding="UTF-8" standalone="no"?>
<!DOCTYPE svg PUBLIC "-//W3C//DTD SVG 1.1//EN"
 "http://www.w3.org/Graphics/SVG/1.1/DTD/svg11.dtd">
<!-- Generated by graphviz version 13.1.2 (20250808.2320)
 -->
<!-- Title: enter_parent_page_cb Pages: 1 -->
<!--zoomable 396 -->

<svg id="main" version="1.1" xmlns="http://www.w3.org/2000/svg" xmlns:xlink="http://www.w3.org/1999/xlink" xml:space="preserve" onload="init(evt)">

<style type="text/css"><![CDATA[
.node, .edge {opacity: 0.7;}
.node.selected, .edge.selected {opacity: 1;}
.edge:hover path { stroke: red; }
.edge:hover polygon { stroke: red; fill: red; }
]]></style>

<defs>
  <circle id="rim" cx="0" cy="0" r="7"/>
  <circle id="rim2" cx="0" cy="0" r="3.5"/>
  <g id="zoomPlus">
    <use xlink:href="#rim" fill="#404040"><set attributeName="fill" to="#808080" begin="zoomplus.mouseover" end="zoomplus.mouseout"/></use>
    <path d="M-4,0h8M0,-4v8" fill="none" stroke="white" stroke-width="1.5" pointer-events="none"/>
  </g>
  <g id="zoomMin">
    <use xlink:href="#rim" fill="#404040"><set attributeName="fill" to="#808080" begin="zoomminus.mouseover" end="zoomminus.mouseout"/></use>
    <path d="M-4,0h8" fill="none" stroke="white" stroke-width="1.5" pointer-events="none"/>
  </g>
  <g id="arrowUp" transform="translate(30 24)">
    <use xlink:href="#rim"/>
    <path pointer-events="none" fill="none" stroke="white" stroke-width="1.5" d="M0,-3.0v7 M-2.5,-0.5L0,-3.0L2.5,-0.5"/>
  </g>
  <g id="arrowRight" transform="rotate(90) translate(36 -43)">
    <use xlink:href="#rim"/>
    <path pointer-events="none" fill="none" stroke="white" stroke-width="1.5" d="M0,-3.0v7 M-2.5,-0.5L0,-3.0L2.5,-0.5"/>
  </g>
  <g id="arrowDown" transform="rotate(180) translate(-30 -48)">
    <use xlink:href="#rim"/>
    <path pointer-events="none" fill="none" stroke="white" stroke-width="1.5" d="M0,-3.0v7 M-2.5,-0.5L0,-3.0L2.5,-0.5"/>
  </g>
  <g id="arrowLeft" transform="rotate(270) translate(-36 17)">
    <use xlink:href="#rim"/>
    <path pointer-events="none" fill="none" stroke="white" stroke-width="1.5" d="M0,-3.0v7 M-2.5,-0.5L0,-3.0L2.5,-0.5"/>
  </g>
  <g id="resetDef">
    <use xlink:href="#rim2" fill="#404040"><set attributeName="fill" to="#808080" begin="reset.mouseover" end="reset.mouseout"/></use>
  </g>
</defs>
<script type="application/ecmascript">
var viewWidth = 697;
var viewHeight = 396;
var sectionId = 'dynsection-31';
</script>
<script type="application/ecmascript" xlink:href="svg.min.js"/>
<svg id="graph" class="graph">
<g id="viewport">
<title>enter_parent_page_cb</title>
<!-- Node1 -->
<g id="Node000001" class="node">
<title>Node1</title>
<g id="a_Node000001"><a xlink:title=" ">
<polygon fill="#999999" stroke="#666666" points="688.75,-158.75 564.75,-158.75 564.75,-138 688.75,-138 688.75,-158.75"/>
<text xml:space="preserve" text-anchor="middle" x="626.75" y="-145.25" font-family="Helvetica,sans-Serif" font-size="10.00">enter_parent_page_cb</text>
</a>
</g>
</g>
<!-- Node2 -->
<g id="Node000002" class="node">
<title>Node2</title>
<g id="a_Node000002"><a xlink:href="kest__ui_8c.html#a7aea2c8df77b1c144c35271c2ab8241f" target="_top" xlink:title=" ">
<polygon fill="white" stroke="#666666" points="524.25,-310.12 390.5,-310.12 390.5,-276.62 524.25,-276.62 524.25,-310.12"/>
<text xml:space="preserve" text-anchor="start" x="398.5" y="-296.62" font-family="Helvetica,sans-Serif" font-size="10.00">create_panel_with_back</text>
<text xml:space="preserve" text-anchor="middle" x="457.38" y="-283.88" font-family="Helvetica,sans-Serif" font-size="10.00">_button</text>
</a>
</g>
</g>
<!-- Node1&#45;&gt;Node2 -->
<g id="edge1_Node000001_Node000002" class="edge">
<title>Node1&#45;&gt;Node2</title>
<g id="a_edge1_Node000001_Node000002"><a xlink:title=" ">
<path fill="none" stroke="#63b8ff" d="M605.15,-166.22C572.73,-194.31 510.23,-248.45 478.26,-276.15"/>
<polygon fill="#63b8ff" stroke="#63b8ff" points="607.03,-169.22 612.3,-160.03 602.45,-163.93 607.03,-169.22"/>
</a>
</g>
</g>
<!-- Node11 -->
<g id="Node000011" class="node">
<title>Node11</title>
<g id="a_Node000011"><a xlink:href="kest__ui_8c.html#aea23235acc3b1a34113c2aff79e030e7" target="_top" xlink:title=" ">
<polygon fill="white" stroke="#666666" points="527.62,-188.12 387.12,-188.12 387.12,-154.62 527.62,-154.62 527.62,-188.12"/>
<text xml:space="preserve" text-anchor="start" x="395.12" y="-174.62" font-family="Helvetica,sans-Serif" font-size="10.00">create_panel_with_back</text>
<text xml:space="preserve" text-anchor="middle" x="457.38" y="-161.88" font-family="Helvetica,sans-Serif" font-size="10.00">_button_and_right_button</text>
</a>
</g>
</g>
<!-- Node1&#45;&gt;Node11 -->
<g id="edge7_Node000001_Node000011" class="edge">
<title>Node1&#45;&gt;Node11</title>
<g id="a_edge7_Node000001_Node000011"><a xlink:title=" ">
<path fill="none" stroke="#63b8ff" d="M553.11,-158.36C544.76,-159.5 536.26,-160.67 527.95,-161.81"/>
<polygon fill="#63b8ff" stroke="#63b8ff" points="553.45,-161.84 562.88,-157.01 552.49,-154.91 553.45,-161.84"/>
</a>
</g>
</g>
<!-- Node12 -->
<g id="Node000012" class="node">
<title>Node12</title>
<g id="a_Node000012"><a xlink:href="kest__ui_8c.html#a349acdb394f97d782e6b5828af856b05" target="_top" xlink:title=" ">
<polygon fill="white" stroke="#666666" points="528.75,-136.75 386,-136.75 386,-116 528.75,-116 528.75,-136.75"/>
<text xml:space="preserve" text-anchor="middle" x="457.38" y="-123.25" font-family="Helvetica,sans-Serif" font-size="10.00">ui_page_add_back_button</text>
</a>
</g>
</g>
<!-- Node1&#45;&gt;Node12 -->
<g id="edge8_Node000001_Node000012" class="edge">
<title>Node1&#45;&gt;Node12</title>
<g id="a_edge8_Node000001_Node000012"><a xlink:title=" ">
<path fill="none" stroke="#63b8ff" d="M553.19,-138.84C545.2,-137.79 537.06,-136.72 529.09,-135.67"/>
<polygon fill="#63b8ff" stroke="#63b8ff" points="552.5,-142.28 562.88,-140.11 553.42,-135.34 552.5,-142.28"/>
</a>
</g>
</g>
<!-- Node40 -->
<g id="Node000040" class="node">
<title>Node40</title>
<g id="a_Node000040"><a xlink:href="kest__ui_8c.html#af1279a2281df951462cffadc74e0a5f7" target="_top" xlink:title=" ">
<polygon fill="white" stroke="#666666" points="514.5,-63.12 400.25,-63.12 400.25,-29.62 514.5,-29.62 514.5,-63.12"/>
<text xml:space="preserve" text-anchor="start" x="408.25" y="-49.62" font-family="Helvetica,sans-Serif" font-size="10.00">ui_page_add_parent</text>
<text xml:space="preserve" text-anchor="middle" x="457.38" y="-36.88" font-family="Helvetica,sans-Serif" font-size="10.00">_button</text>
</a>
</g>
</g>
<!-- Node1&#45;&gt;Node40 -->
<g id="edge20_Node000001_Node000040" class="edge">
<title>Node1&#45;&gt;Node40</title>
<g id="a_edge20_Node000001_Node000040"><a xlink:title=" ">
<path fill="none" stroke="#63b8ff" d="M598.49,-131.76C567.67,-112.98 517.73,-82.55 486.54,-63.54"/>
<polygon fill="#63b8ff" stroke="#63b8ff" points="596.5,-134.65 606.86,-136.86 600.14,-128.67 596.5,-134.65"/>
</a>
</g>
</g>
<!-- Node3 -->
<g id="Node000003" class="node">
<title>Node3</title>
<g id="a_Node000003"><a xlink:href="kest__effect__select_8c.html#af5e1f2ec64c8c42ed66a3bc39c7411eb" target="_top" xlink:title=" ">
<polygon fill="white" stroke="#666666" points="326.38,-388.12 201.62,-388.12 201.62,-354.62 326.38,-354.62 326.38,-388.12"/>
<text xml:space="preserve" text-anchor="start" x="209.62" y="-374.62" font-family="Helvetica,sans-Serif" font-size="10.00">create_effect_selector</text>
<text xml:space="preserve" text-anchor="middle" x="264" y="-361.88" font-family="Helvetica,sans-Serif" font-size="10.00">_ui_eff</text>
</a>
</g>
</g>
<!-- Node2&#45;&gt;Node3 -->
<g id="edge2_Node000002_Node000003" class="edge">
<title>Node2&#45;&gt;Node3</title>
<g id="a_edge2_Node000002_Node000003"><a xlink:title=" ">
<path fill="none" stroke="#63b8ff" d="M414.84,-315.57C395.46,-325.44 371.88,-336.74 350,-345.38 342.1,-348.49 333.68,-351.47 325.31,-354.22"/>
<polygon fill="#63b8ff" stroke="#63b8ff" points="416.21,-318.8 423.5,-311.11 413.01,-312.58 416.21,-318.8"/>
</a>
</g>
</g>
<!-- Node8 -->
<g id="Node000008" class="node">
<title>Node8</title>
<g id="a_Node000008"><a xlink:href="kest__ui_8c.html#a91cbeba99527e75576d1690162018ef5" target="_top" xlink:title=" ">
<polygon fill="white" stroke="#666666" points="335,-336.12 193,-336.12 193,-302.62 335,-302.62 335,-336.12"/>
<text xml:space="preserve" text-anchor="start" x="201" y="-322.62" font-family="Helvetica,sans-Serif" font-size="10.00">create_panel_with_back</text>
<text xml:space="preserve" text-anchor="middle" x="264" y="-309.88" font-family="Helvetica,sans-Serif" font-size="10.00">_button_and_page_button</text>
</a>
</g>
</g>
<!-- Node2&#45;&gt;Node8 -->
<g id="edge4_Node000002_Node000008" class="edge">
<title>Node2&#45;&gt;Node8</title>
<g id="a_edge4_Node000002_Node000008"><a xlink:title=" ">
<path fill="none" stroke="#63b8ff" d="M378.86,-303.91C364.48,-305.86 349.53,-307.89 335.37,-309.81"/>
<polygon fill="#63b8ff" stroke="#63b8ff" points="379.31,-307.38 388.75,-302.56 378.37,-300.44 379.31,-307.38"/>
</a>
</g>
</g>
<!-- Node10 -->
<g id="Node000010" class="node">
<title>Node10</title>
<g id="a_Node000010"><a xlink:href="kest__ui_8c.html#a62156348a1dfc799541fc93d3dd20b6e" target="_top" xlink:title=" ">
<polygon fill="white" stroke="#666666" points="330.5,-284.12 197.5,-284.12 197.5,-250.62 330.5,-250.62 330.5,-284.12"/>
<text xml:space="preserve" text-anchor="start" x="205.5" y="-270.62" font-family="Helvetica,sans-Serif" font-size="10.00">create_panel_with_right</text>
<text xml:space="preserve" text-anchor="middle" x="264" y="-257.88" font-family="Helvetica,sans-Serif" font-size="10.00">_button</text>
</a>
</g>
</g>
<!-- Node2&#45;&gt;Node10 -->
<g id="edge6_Node000002_Node000010" class="edge">
<title>Node2&#45;&gt;Node10</title>
<g id="a_edge6_Node000002_Node000010"><a xlink:title=" ">
<path fill="none" stroke="#63b8ff" d="M379.27,-282.9C363.2,-280.72 346.42,-278.44 330.81,-276.32"/>
<polygon fill="#63b8ff" stroke="#63b8ff" points="378.37,-286.31 388.75,-284.19 379.31,-279.37 378.37,-286.31"/>
</a>
</g>
</g>
<!-- Node4 -->
<g id="Node000004" class="node">
<title>Node4</title>
<g id="a_Node000004"><a xlink:href="kest__effect__select_8c.html#a4f784340d1e1e332c60be5a095244ba1" target="_top" xlink:title=" ">
<polygon fill="#fff0f0" stroke="red" points="135.25,-381.75 6.75,-381.75 6.75,-361 135.25,-361 135.25,-381.75"/>
<text xml:space="preserve" text-anchor="middle" x="71" y="-368.25" font-family="Helvetica,sans-Serif" font-size="10.00">init_effect_selector_eff</text>
</a>
</g>
</g>
<!-- Node3&#45;&gt;Node4 -->
<g id="edge3_Node000003_Node000004" class="edge">
<title>Node3&#45;&gt;Node4</title>
<g id="a_edge3_Node000003_Node000004"><a xlink:title=" ">
<path fill="none" stroke="#63b8ff" d="M189.95,-371.38C172.01,-371.38 152.95,-371.38 135.5,-371.38"/>
<polygon fill="#63b8ff" stroke="#63b8ff" points="189.74,-374.88 199.74,-371.38 189.74,-367.88 189.74,-374.88"/>
</a>
</g>
</g>
<!-- Node9 -->
<g id="Node000009" class="node">
<title>Node9</title>
<g id="a_Node000009"><a xlink:href="kest__ui_8c.html#a56d00dcd05509dc9999a3c25122f4851" target="_top" xlink:title=" ">
<polygon fill="white" stroke="#666666" points="137.88,-336.12 4.12,-336.12 4.12,-302.62 137.88,-302.62 137.88,-336.12"/>
<text xml:space="preserve" text-anchor="start" x="12.12" y="-322.62" font-family="Helvetica,sans-Serif" font-size="10.00">create_panel_with_back</text>
<text xml:space="preserve" text-anchor="middle" x="71" y="-309.88" font-family="Helvetica,sans-Serif" font-size="10.00">_and_settings_buttons</text>
</a>
</g>
</g>
<!-- Node8&#45;&gt;Node9 -->
<g id="edge5_Node000008_Node000009" class="edge">
<title>Node8&#45;&gt;Node9</title>
<g id="a_edge5_Node000008_Node000009"><a xlink:title=" ">
<path fill="none" stroke="#63b8ff" d="M181.31,-319.38C166.97,-319.38 152.21,-319.38 138.35,-319.38"/>
<polygon fill="#63b8ff" stroke="#63b8ff" points="181.18,-322.88 191.18,-319.38 181.18,-315.88 181.18,-322.88"/>
</a>
</g>
</g>
<!-- Node13 -->
<g id="Node000013" class="node">
<title>Node13</title>
<g id="a_Node000013"><a xlink:href="kest__effect__settings_8c.html#ab738a7e4abecdaf8e9e7788ace97d8b5" target="_top" xlink:title=" ">
<polygon fill="white" stroke="#666666" points="348.5,-58.75 179.5,-58.75 179.5,-38 348.5,-38 348.5,-58.75"/>
<text xml:space="preserve" text-anchor="middle" x="264" y="-45.25" font-family="Helvetica,sans-Serif" font-size="10.00">configure_effect_settings_page</text>
</a>
</g>
</g>
<!-- Node12&#45;&gt;Node13 -->
<g id="edge9_Node000012_Node000013" class="edge">
<title>Node12&#45;&gt;Node13</title>
<g id="a_edge9_Node000012_Node000013"><a xlink:title=" ">
<path fill="none" stroke="#63b8ff" d="M430.34,-109.6C409.37,-96.73 378.74,-79.36 350,-68.38 340.65,-64.8 330.48,-61.74 320.52,-59.17"/>
<polygon fill="#63b8ff" stroke="#63b8ff" points="428.47,-112.56 438.81,-114.88 432.18,-106.62 428.47,-112.56"/>
</a>
</g>
</g>
<!-- Node18 -->
<g id="Node000018" class="node">
<title>Node18</title>
<g id="a_Node000018"><a xlink:href="kest__menu_8c.html#a264644eed0c454d882162f462ed24454" target="_top" xlink:title=" ">
<polygon fill="white" stroke="#666666" points="326,-214.75 202,-214.75 202,-194 326,-194 326,-214.75"/>
<text xml:space="preserve" text-anchor="middle" x="264" y="-201.25" font-family="Helvetica,sans-Serif" font-size="10.00">configure_menu_page</text>
</a>
</g>
</g>
<!-- Node12&#45;&gt;Node18 -->
<g id="edge12_Node000012_Node000018" class="edge">
<title>Node12&#45;&gt;Node18</title>
<g id="a_edge12_Node000012_Node000018"><a xlink:title=" ">
<path fill="none" stroke="#63b8ff" d="M393.12,-141.52C390.67,-142.71 388.28,-143.99 386,-145.38 365.82,-157.59 370.37,-172.49 350,-184.38 342.67,-188.65 334.48,-192.02 326.15,-194.66"/>
<polygon fill="#63b8ff" stroke="#63b8ff" points="394.28,-144.83 402.13,-137.71 391.55,-138.38 394.28,-144.83"/>
</a>
</g>
</g>
<!-- Node22 -->
<g id="Node000022" class="node">
<title>Node22</title>
<g id="a_Node000022"><a xlink:href="kest__profile__settings_8c.html#ac5120bad91f723143bd3cf720e860fa5" target="_top" xlink:title=" ">
<polygon fill="white" stroke="#666666" points="350,-175.75 178,-175.75 178,-155 350,-155 350,-175.75"/>
<text xml:space="preserve" text-anchor="middle" x="264" y="-162.25" font-family="Helvetica,sans-Serif" font-size="10.00">configure_profile_settings_page</text>
</a>
</g>
</g>
<!-- Node12&#45;&gt;Node22 -->
<g id="edge15_Node000012_Node000022" class="edge">
<title>Node12&#45;&gt;Node22</title>
<g id="a_edge15_Node000012_Node000022"><a xlink:title=" ">
<path fill="none" stroke="#63b8ff" d="M391.95,-139.5C368.03,-144.38 341.18,-149.85 318.35,-154.5"/>
<polygon fill="#63b8ff" stroke="#63b8ff" points="392.48,-142.97 401.58,-137.54 391.09,-136.11 392.48,-142.97"/>
</a>
</g>
</g>
<!-- Node35 -->
<g id="Node000035" class="node">
<title>Node35</title>
<g id="a_Node000035"><a xlink:href="kest__sequence__list_8c.html#ae60870bb862edfc5b0a45344c20b152f" target="_top" xlink:title=" ">
<polygon fill="#fff0f0" stroke="red" points="330.88,-136.75 197.12,-136.75 197.12,-116 330.88,-116 330.88,-136.75"/>
<text xml:space="preserve" text-anchor="middle" x="264" y="-123.25" font-family="Helvetica,sans-Serif" font-size="10.00">configure_sequence_list</text>
</a>
</g>
</g>
<!-- Node12&#45;&gt;Node35 -->
<g id="edge18_Node000012_Node000035" class="edge">
<title>Node12&#45;&gt;Node35</title>
<g id="a_edge18_Node000012_Node000035"><a xlink:title=" ">
<path fill="none" stroke="#63b8ff" d="M374.27,-126.38C359.92,-126.38 345.15,-126.38 331.3,-126.38"/>
<polygon fill="#63b8ff" stroke="#63b8ff" points="374.14,-129.88 384.14,-126.38 374.14,-122.88 374.14,-129.88"/>
</a>
</g>
</g>
<!-- Node28 -->
<g id="Node000028" class="node">
<title>Node28</title>
<g id="a_Node000028"><a xlink:href="kest__sequence__view_8c.html#ac871b24a7c875a7b6e707a3d2691a2a9" target="_top" xlink:title=" ">
<polygon fill="#fff0f0" stroke="red" points="335,-97.75 193,-97.75 193,-77 335,-77 335,-97.75"/>
<text xml:space="preserve" text-anchor="middle" x="264" y="-84.25" font-family="Helvetica,sans-Serif" font-size="10.00">configure_sequence_view</text>
</a>
</g>
</g>
<!-- Node12&#45;&gt;Node28 -->
<g id="edge19_Node000012_Node000028" class="edge">
<title>Node12&#45;&gt;Node28</title>
<g id="a_edge19_Node000012_Node000028"><a xlink:title=" ">
<path fill="none" stroke="#63b8ff" d="M391.95,-113.25C368.03,-108.37 341.18,-102.9 318.35,-98.25"/>
<polygon fill="#63b8ff" stroke="#63b8ff" points="391.09,-116.64 401.58,-115.21 392.48,-109.78 391.09,-116.64"/>
</a>
</g>
</g>
<!-- Node14 -->
<g id="Node000014" class="node">
<title>Node14</title>
<g id="a_Node000014"><a xlink:href="kest__effect__view_8c.html#ae392eef44a5a025bad43a7a8969ab5b0" target="_top" xlink:title=" ">
<polygon fill="#fff0f0" stroke="red" points="133,-20.75 9,-20.75 9,0 133,0 133,-20.75"/>
<text xml:space="preserve" text-anchor="middle" x="71" y="-7.25" font-family="Helvetica,sans-Serif" font-size="10.00">configure_effect_view</text>
</a>
</g>
</g>
<!-- Node13&#45;&gt;Node14 -->
<g id="edge10_Node000013_Node000014" class="edge">
<title>Node13&#45;&gt;Node14</title>
<g id="a_edge10_Node000013_Node000014"><a xlink:title=" ">
<path fill="none" stroke="#63b8ff" d="M197.42,-35.33C174.33,-30.73 148.64,-25.62 126.55,-21.23"/>
<polygon fill="#63b8ff" stroke="#63b8ff" points="196.55,-38.72 207.04,-37.24 197.91,-31.86 196.55,-38.72"/>
</a>
</g>
</g>
<!-- Node17 -->
<g id="Node000017" class="node">
<title>Node17</title>
<g id="a_Node000017"><a xlink:href="kest__effect__settings_8c.html#ab8bf2accabc08beecb97a54915abc488" target="_top" xlink:title=" ">
<polygon fill="#fff0f0" stroke="red" points="140.5,-59.75 1.5,-59.75 1.5,-39 140.5,-39 140.5,-59.75"/>
<text xml:space="preserve" text-anchor="middle" x="71" y="-46.25" font-family="Helvetica,sans-Serif" font-size="10.00">init_effect_settings_page</text>
</a>
</g>
</g>
<!-- Node13&#45;&gt;Node17 -->
<g id="edge11_Node000013_Node000017" class="edge">
<title>Node13&#45;&gt;Node17</title>
<g id="a_edge11_Node000013_Node000017"><a xlink:title=" ">
<path fill="none" stroke="#63b8ff" d="M167.75,-48.87C158.66,-48.92 149.58,-48.97 140.82,-49.01"/>
<polygon fill="#63b8ff" stroke="#63b8ff" points="167.73,-52.37 177.71,-48.82 167.69,-45.37 167.73,-52.37"/>
</a>
</g>
</g>
<!-- Node18&#45;&gt;Node18 -->
<g id="edge13_Node000018_Node000018" class="edge">
<title>Node18&#45;&gt;Node18</title>
<g id="a_edge13_Node000018_Node000018"><a xlink:title=" ">
<path fill="none" stroke="#63b8ff" d="M297.96,-226.24C293.46,-230.08 282.14,-232.75 264,-232.75 230.83,-232.75 220.46,-223.81 232.9,-215.15"/>
<polygon fill="#63b8ff" stroke="#63b8ff" points="301.37,-225.42 295.48,-216.61 294.59,-227.17 301.37,-225.42"/>
</a>
</g>
</g>
<!-- Node19 -->
<g id="Node000019" class="node">
<title>Node19</title>
<g id="a_Node000019"><a xlink:href="kest__menu_8c.html#a9a3dc2a29ebf6ace0a6b54a902530001" target="_top" xlink:title=" ">
<polygon fill="#fff0f0" stroke="red" points="118,-214.75 24,-214.75 24,-194 118,-194 118,-214.75"/>
<text xml:space="preserve" text-anchor="middle" x="71" y="-201.25" font-family="Helvetica,sans-Serif" font-size="10.00">init_menu_page</text>
</a>
</g>
</g>
<!-- Node18&#45;&gt;Node19 -->
<g id="edge14_Node000018_Node000019" class="edge">
<title>Node18&#45;&gt;Node19</title>
<g id="a_edge14_Node000018_Node000019"><a xlink:title=" ">
<path fill="none" stroke="#63b8ff" d="M190.21,-204.38C166.05,-204.38 139.82,-204.38 118.22,-204.38"/>
<polygon fill="#63b8ff" stroke="#63b8ff" points="190,-207.88 200,-204.38 190,-200.88 190,-207.88"/>
</a>
</g>
</g>
<!-- Node23 -->
<g id="Node000023" class="node">
<title>Node23</title>
<g id="a_Node000023"><a xlink:href="kest__profile__view_8c.html#a9f9505132871c2ea372958fd06ecf10f" target="_top" xlink:title=" ">
<polygon fill="#fff0f0" stroke="red" points="134.5,-136.75 7.5,-136.75 7.5,-116 134.5,-116 134.5,-136.75"/>
<text xml:space="preserve" text-anchor="middle" x="71" y="-123.25" font-family="Helvetica,sans-Serif" font-size="10.00">configure_profile_view</text>
</a>
</g>
</g>
<!-- Node22&#45;&gt;Node23 -->
<g id="edge16_Node000022_Node000023" class="edge">
<title>Node22&#45;&gt;Node23</title>
<g id="a_edge16_Node000022_Node000023"><a xlink:title=" ">
<path fill="none" stroke="#63b8ff" d="M198.7,-152.25C174.83,-147.37 148.03,-141.9 125.25,-137.25"/>
<polygon fill="#63b8ff" stroke="#63b8ff" points="197.81,-155.64 208.31,-154.21 199.22,-148.78 197.81,-155.64"/>
</a>
</g>
</g>
<!-- Node39 -->
<g id="Node000039" class="node">
<title>Node39</title>
<g id="a_Node000039"><a xlink:href="kest__profile__settings_8c.html#a1c60543ff9aed0e212ab514d669256f2" target="_top" xlink:title=" ">
<polygon fill="#fff0f0" stroke="red" points="142,-175.75 0,-175.75 0,-155 142,-155 142,-175.75"/>
<text xml:space="preserve" text-anchor="middle" x="71" y="-162.25" font-family="Helvetica,sans-Serif" font-size="10.00">init_profile_settings_page</text>
</a>
</g>
</g>
<!-- Node22&#45;&gt;Node39 -->
<g id="edge17_Node000022_Node000039" class="edge">
<title>Node22&#45;&gt;Node39</title>
<g id="a_edge17_Node000022_Node000039"><a xlink:title=" ">
<path fill="none" stroke="#63b8ff" d="M166.25,-165.38C158.25,-165.38 150.26,-165.38 142.5,-165.38"/>
<polygon fill="#63b8ff" stroke="#63b8ff" points="166.04,-168.88 176.04,-165.38 166.04,-161.88 166.04,-168.88"/>
</a>
</g>
</g>
<!-- Node40&#45;&gt;Node14 -->
<g id="edge21_Node000040_Node000014" class="edge">
<title>Node40&#45;&gt;Node14</title>
<g id="a_edge21_Node000040_Node000014"><a xlink:title=" ">
<path fill="none" stroke="#63b8ff" d="M388.79,-34.64C375.94,-32.67 362.58,-30.81 350,-29.38 275.74,-20.92 189.86,-15.75 133.43,-12.98"/>
<polygon fill="#63b8ff" stroke="#63b8ff" points="388,-38.05 398.42,-36.15 389.09,-31.14 388,-38.05"/>
</a>
</g>
</g>
</g>
</svg>

<g id="navigator" transform="translate(0 0)" fill="#404254">
  <rect fill="#f2f5e9" fill-opacity="0.5" stroke="#606060" stroke-width=".5" x="0" y="0" width="60" height="60"/>
  <use id="zoomplus" xlink:href="#zoomPlus" x="17" y="9" onmousedown="handleZoom(evt,'in')"/>
  <use id="zoomminus" xlink:href="#zoomMin" x="42" y="9" onmousedown="handleZoom(evt,'out')"/>
  <use id="reset" xlink:href="#resetDef" x="30" y="36" onmousedown="handleReset()"/>
   <use id="arrowup" xlink:href="#arrowUp" x="0" y="0" onmousedown="handlePan(0,-1)"/>
  <use id="arrowright" xlink:href="#arrowRight" x="0" y="0" onmousedown="handlePan(1,0)"/>
  <use id="arrowdown" xlink:href="#arrowDown" x="0" y="0" onmousedown="handlePan(0,1)"/>
  <use id="arrowleft" xlink:href="#arrowLeft" x="0" y="0" onmousedown="handlePan(-1,0)"/>
</g>
<svg viewBox="0 0 15 15" width="100%" height="30px" preserveAspectRatio="xMaxYMin meet">
 <g id="arrow_out" transform="scale(0.3 0.3)">
  <a xlink:href="kest__ui_8c_af17d8912a520f607796e85d96467cc5a_icgraph_org.svg" target="_base">
   <rect id="button" ry="5" rx="5" y="6" x="6" height="38" width="38"
        fill="#f2f5e9" fill-opacity="0.5" stroke="#606060" stroke-width="1.0"/>
   <path id="arrow"
     d="M 11.500037,31.436501 C 11.940474,20.09759 22.043105,11.32322 32.158766,21.979434 L 37.068811,17.246167 C 37.068811,17.246167 37.088388,32 37.088388,32 L 22.160133,31.978069 C 22.160133,31.978069 26.997745,27.140456 26.997745,27.140456 C 18.528582,18.264221 13.291696,25.230495 11.500037,31.436501 z"
     style="fill:#404040;"/>
  </a>
 </g>
</svg>

<style type='text/css'>
<![CDATA[
[data-mouse-over-selected='false'] { opacity: 0.7; }
[data-mouse-over-selected='true']  { opacity: 1.0; }
]]>
</style>
<script type="application/ecmascript"><![CDATA[
document.addEventListener('DOMContentLoaded', (event) => {
  highlightEdges();
  highlightAdjacentNodes();
});
]]></script>
</svg>
