<?xml version="1.0" encoding="UTF-8" standalone="no"?>
<!DOCTYPE svg PUBLIC "-//W3C//DTD SVG 1.1//EN"
 "http://www.w3.org/Graphics/SVG/1.1/DTD/svg11.dtd">
<!-- Generated by graphviz version 13.1.2 (20250808.2320)
 -->
<!-- Title: configure_main_menu Pages: 1 -->
<!--zoomable 611 -->

<svg id="main" version="1.1" xmlns="http://www.w3.org/2000/svg" xmlns:xlink="http://www.w3.org/1999/xlink" xml:space="preserve" onload="init(evt)">

<style type="text/css"><![CDATA[
.node, .edge {opacity: 0.7;}
.node.selected, .edge.selected {opacity: 1;}
.edge:hover path { stroke: red; }
.edge:hover polygon { stroke: red; fill: red; }
]]></style>

<defs>
  <circle id="rim" cx="0" cy="0" r="7"/>
  <circle id="rim2" cx="0" cy="0" r="3.5"/>
  <g id="zoomPlus">
    <use xlink:href="#rim" fill="#404040"><set attributeName="fill" to="#808080" begin="zoomplus.mouseover" end="zoomplus.mouseout"/></use>
    <path d="M-4,0h8M0,-4v8" fill="none" stroke="white" stroke-width="1.5" pointer-events="none"/>
  </g>
  <g id="zoomMin">
    <use xlink:href="#rim" fill="#404040"><set attributeName="fill" to="#808080" begin="zoomminus.mouseover" end="zoomminus.mouseout"/></use>
    <path d="M-4,0h8" fill="none" stroke="white" stroke-width="1.5" pointer-events="none"/>
  </g>
  <g id="arrowUp" transform="translate(30 24)">
    <use xlink:href="#rim"/>
    <path pointer-events="none" fill="none" stroke="white" stroke-width="1.5" d="M0,-3.0v7 M-2.5,-0.5L0,-3.0L2.5,-0.5"/>
  </g>
  <g id="arrowRight" transform="rotate(90) translate(36 -43)">
    <use xlink:href="#rim"/>
    <path pointer-events="none" fill="none" stroke="white" stroke-width="1.5" d="M0,-3.0v7 M-2.5,-0.5L0,-3.0L2.5,-0.5"/>
  </g>
  <g id="arrowDown" transform="rotate(180) translate(-30 -48)">
    <use xlink:href="#rim"/>
    <path pointer-events="none" fill="none" stroke="white" stroke-width="1.5" d="M0,-3.0v7 M-2.5,-0.5L0,-3.0L2.5,-0.5"/>
  </g>
  <g id="arrowLeft" transform="rotate(270) translate(-36 17)">
    <use xlink:href="#rim"/>
    <path pointer-events="none" fill="none" stroke="white" stroke-width="1.5" d="M0,-3.0v7 M-2.5,-0.5L0,-3.0L2.5,-0.5"/>
  </g>
  <g id="resetDef">
    <use xlink:href="#rim2" fill="#404040"><set attributeName="fill" to="#808080" begin="reset.mouseover" end="reset.mouseout"/></use>
  </g>
</defs>
<script type="application/ecmascript">
var viewWidth = 784;
var viewHeight = 611;
var sectionId = 'dynsection-0';
</script>
<script type="application/ecmascript" xlink:href="svg.min.js"/>
<svg id="graph" class="graph">
<g id="viewport">
<title>configure_main_menu</title>
<!-- Node1 -->
<g id="Node000001" class="node">
<title>Node1</title>
<g id="a_Node000001"><a xlink:title=" ">
<polygon fill="#999999" stroke="#666666" points="124.75,-368.12 0,-368.12 0,-347.38 124.75,-347.38 124.75,-368.12"/>
<text xml:space="preserve" text-anchor="middle" x="62.38" y="-354.62" font-family="Helvetica,sans-Serif" font-size="10.00">configure_main_menu</text>
</a>
</g>
</g>
<!-- Node2 -->
<g id="Node000002" class="node">
<title>Node2</title>
<g id="a_Node000002"><a xlink:href="kest__button_8c.html#aa59f296fa9f9744c9753f81484085a15" target="_top" xlink:title=" ">
<polygon fill="white" stroke="#666666" points="480.75,-475.12 357.5,-475.12 357.5,-454.38 480.75,-454.38 480.75,-475.12"/>
<text xml:space="preserve" text-anchor="middle" x="419.12" y="-461.62" font-family="Helvetica,sans-Serif" font-size="10.00">button_set_clicked_cb</text>
</a>
</g>
</g>
<!-- Node1&#45;&gt;Node2 -->
<g id="edge1_Node000001_Node000002" class="edge">
<title>Node1&#45;&gt;Node2</title>
<g id="a_edge1_Node000001_Node000002"><a xlink:title=" ">
<path fill="none" stroke="#63b8ff" d="M72.89,-368.59C89,-386.12 123.55,-420.29 160.75,-435.75 219.84,-460.3 292.77,-466.52 345.89,-467.2"/>
<polygon fill="#63b8ff" stroke="#63b8ff" points="345.72,-470.7 355.74,-467.26 345.76,-463.7 345.72,-470.7"/>
</a>
</g>
</g>
<!-- Node3 -->
<g id="Node000003" class="node">
<title>Node3</title>
<g id="a_Node000003"><a xlink:href="kest__parameter__widget_8c.html#a3af686d17ed62653e1dd680cd85a2d6f" target="_top" xlink:title=" ">
<polygon fill="white" stroke="#666666" points="294.5,-602.5 176.5,-602.5 176.5,-569 294.5,-569 294.5,-602.5"/>
<text xml:space="preserve" text-anchor="start" x="184.5" y="-589" font-family="Helvetica,sans-Serif" font-size="10.00">configure_parameter</text>
<text xml:space="preserve" text-anchor="middle" x="235.5" y="-576.25" font-family="Helvetica,sans-Serif" font-size="10.00">_widget</text>
</a>
</g>
</g>
<!-- Node1&#45;&gt;Node3 -->
<g id="edge2_Node000001_Node000003" class="edge">
<title>Node1&#45;&gt;Node3</title>
<g id="a_edge2_Node000001_Node000003"><a xlink:title=" ">
<path fill="none" stroke="#63b8ff" d="M65.47,-368.25C72.59,-401.33 98.97,-504.43 160.75,-559.75 162.6,-561.41 164.56,-562.96 166.61,-564.41"/>
<polygon fill="#63b8ff" stroke="#63b8ff" points="164.41,-567.17 174.77,-569.39 168.06,-561.2 164.41,-567.17"/>
</a>
</g>
</g>
<!-- Node5 -->
<g id="Node000005" class="node">
<title>Node5</title>
<g id="a_Node000005"><a xlink:href="kest__ui_8c.html#a8c61274edfd5c1adb98471432976c3b6" target="_top" xlink:title=" ">
<polygon fill="white" stroke="#666666" points="310.25,-551.12 160.75,-551.12 160.75,-530.38 310.25,-530.38 310.25,-551.12"/>
<text xml:space="preserve" text-anchor="middle" x="235.5" y="-537.62" font-family="Helvetica,sans-Serif" font-size="10.00">enter_ui_page_forwards_cb</text>
</a>
</g>
</g>
<!-- Node1&#45;&gt;Node5 -->
<g id="edge4_Node000001_Node000005" class="edge">
<title>Node1&#45;&gt;Node5</title>
<g id="a_edge4_Node000001_Node000005"><a xlink:title=" ">
<path fill="none" stroke="#63b8ff" d="M66.93,-368.43C76.95,-396.9 108.15,-475.25 160.75,-516.75 164.96,-520.07 169.63,-522.93 174.54,-525.41"/>
<polygon fill="#63b8ff" stroke="#63b8ff" points="172.9,-528.51 183.46,-529.35 175.72,-522.11 172.9,-528.51"/>
</a>
</g>
</g>
<!-- Node9 -->
<g id="Node000009" class="node">
<title>Node9</title>
<g id="a_Node000009"><a xlink:href="kest__files_8c.html#a88e5ec05cd213e80c50f0279cdb3ca9c" target="_top" xlink:title=" ">
<polygon fill="white" stroke="#666666" points="299.75,-220.12 171.25,-220.12 171.25,-199.38 299.75,-199.38 299.75,-220.12"/>
<text xml:space="preserve" text-anchor="middle" x="235.5" y="-206.62" font-family="Helvetica,sans-Serif" font-size="10.00">erase_sd_card_void_cb</text>
</a>
</g>
</g>
<!-- Node1&#45;&gt;Node9 -->
<g id="edge7_Node000001_Node000009" class="edge">
<title>Node1&#45;&gt;Node9</title>
<g id="a_edge7_Node000001_Node000009"><a xlink:title=" ">
<path fill="none" stroke="#63b8ff" d="M68.48,-346.9C80.72,-322.13 114.2,-261.1 160.75,-229.75 163.16,-228.13 165.69,-226.64 168.31,-225.27"/>
<polygon fill="#63b8ff" stroke="#63b8ff" points="169.71,-228.48 177.4,-221.18 166.84,-222.09 169.71,-228.48"/>
</a>
</g>
</g>
<!-- Node12 -->
<g id="Node000012" class="node">
<title>Node12</title>
<g id="a_Node000012"><a xlink:href="kest__alloc_8c.html#a849755c5dc5b35e712ffcdb602e50fb4" target="_top" xlink:title=" ">
<polygon fill="white" stroke="#666666" points="774.5,-295.12 709.75,-295.12 709.75,-274.38 774.5,-274.38 774.5,-295.12"/>
<text xml:space="preserve" text-anchor="middle" x="742.12" y="-281.62" font-family="Helvetica,sans-Serif" font-size="10.00">kest_alloc</text>
</a>
</g>
</g>
<!-- Node1&#45;&gt;Node12 -->
<g id="edge19_Node000001_Node000012" class="edge">
<title>Node1&#45;&gt;Node12</title>
<g id="a_edge19_Node000001_Node000012"><a xlink:title=" ">
<path fill="none" stroke="#63b8ff" d="M69.27,-368.29C82.38,-390.59 116.35,-442.35 160.75,-464.75 262.23,-515.95 582.12,-534.01 672.25,-464.75 722.65,-426.02 736.18,-345.64 739.8,-306.76"/>
<polygon fill="#63b8ff" stroke="#63b8ff" points="743.28,-307.24 740.56,-297 736.3,-306.7 743.28,-307.24"/>
</a>
</g>
</g>
<!-- Node14 -->
<g id="Node000014" class="node">
<title>Node14</title>
<g id="a_Node000014"><a xlink:href="kest__button_8c.html#a20604a0eb74819a9747753ccfdb24e6c" target="_top" xlink:title=" ">
<polygon fill="white" stroke="#666666" points="453.38,-385.12 384.88,-385.12 384.88,-364.38 453.38,-364.38 453.38,-385.12"/>
<text xml:space="preserve" text-anchor="middle" x="419.12" y="-371.62" font-family="Helvetica,sans-Serif" font-size="10.00">init_button</text>
</a>
</g>
</g>
<!-- Node1&#45;&gt;Node14 -->
<g id="edge12_Node000001_Node000014" class="edge">
<title>Node1&#45;&gt;Node14</title>
<g id="a_edge12_Node000001_Node000014"><a xlink:title=" ">
<path fill="none" stroke="#63b8ff" d="M125.17,-360.71C196.04,-364.11 310.5,-369.59 373.32,-372.6"/>
<polygon fill="#63b8ff" stroke="#63b8ff" points="373.12,-376.1 383.28,-373.08 373.46,-369.11 373.12,-376.1"/>
</a>
</g>
</g>
<!-- Node15 -->
<g id="Node000015" class="node">
<title>Node15</title>
<g id="a_Node000015"><a xlink:href="kest__button_8c.html#a382c34bb14e1a864798fce1072a1e876" target="_top" xlink:title=" ">
<polygon fill="white" stroke="#666666" points="289.25,-427.12 181.75,-427.12 181.75,-406.38 289.25,-406.38 289.25,-427.12"/>
<text xml:space="preserve" text-anchor="middle" x="235.5" y="-413.62" font-family="Helvetica,sans-Serif" font-size="10.00">init_danger_button</text>
</a>
</g>
</g>
<!-- Node1&#45;&gt;Node15 -->
<g id="edge13_Node000001_Node000015" class="edge">
<title>Node1&#45;&gt;Node15</title>
<g id="a_edge13_Node000001_Node000015"><a xlink:title=" ">
<path fill="none" stroke="#63b8ff" d="M94.76,-368.57C122.18,-378.02 162.19,-391.82 192.39,-402.23"/>
<polygon fill="#63b8ff" stroke="#63b8ff" points="191,-405.45 201.59,-405.4 193.28,-398.84 191,-405.45"/>
</a>
</g>
</g>
<!-- Node19 -->
<g id="Node000019" class="node">
<title>Node19</title>
<g id="a_Node000019"><a xlink:href="kest__button_8c.html#ab0abd81c81d95b73284ecfadc708b8ce" target="_top" xlink:title=" ">
<polygon fill="white" stroke="#666666" points="292.25,-310.5 178.75,-310.5 178.75,-277 292.25,-277 292.25,-310.5"/>
<text xml:space="preserve" text-anchor="start" x="186.75" y="-297" font-family="Helvetica,sans-Serif" font-size="10.00">kest_button_disable</text>
<text xml:space="preserve" text-anchor="middle" x="235.5" y="-284.25" font-family="Helvetica,sans-Serif" font-size="10.00">_alignment</text>
</a>
</g>
</g>
<!-- Node1&#45;&gt;Node19 -->
<g id="edge20_Node000001_Node000019" class="edge">
<title>Node1&#45;&gt;Node19</title>
<g id="a_edge20_Node000001_Node000019"><a xlink:title=" ">
<path fill="none" stroke="#63b8ff" d="M90.15,-347.03C109.66,-339.28 136.76,-328.66 160.75,-319.75 165.19,-318.1 169.79,-316.42 174.42,-314.75"/>
<polygon fill="#63b8ff" stroke="#63b8ff" points="175.57,-318.05 183.8,-311.38 173.21,-311.46 175.57,-318.05"/>
</a>
</g>
</g>
<!-- Node20 -->
<g id="Node000020" class="node">
<title>Node20</title>
<g id="a_Node000020"><a xlink:href="kest__button_8c.html#ac24f7930db96a5006a81ec8255ad0e6c" target="_top" xlink:title=" ">
<polygon fill="white" stroke="#666666" points="296.75,-349.12 174.25,-349.12 174.25,-328.38 296.75,-328.38 296.75,-349.12"/>
<text xml:space="preserve" text-anchor="middle" x="235.5" y="-335.62" font-family="Helvetica,sans-Serif" font-size="10.00">kest_button_set_label</text>
</a>
</g>
</g>
<!-- Node1&#45;&gt;Node20 -->
<g id="edge21_Node000001_Node000020" class="edge">
<title>Node1&#45;&gt;Node20</title>
<g id="a_edge21_Node000001_Node000020"><a xlink:title=" ">
<path fill="none" stroke="#63b8ff" d="M125.16,-350.89C137.32,-349.54 150.19,-348.11 162.65,-346.73"/>
<polygon fill="#63b8ff" stroke="#63b8ff" points="162.9,-350.22 172.45,-345.64 162.13,-343.26 162.9,-350.22"/>
</a>
</g>
</g>
<!-- Node22 -->
<g id="Node000022" class="node">
<title>Node22</title>
<g id="a_Node000022"><a xlink:href="kest__menu_8c.html#a3eb9105417c06419b54fee6e3f79b39a" target="_top" xlink:title=" ">
<polygon fill="white" stroke="#666666" points="293,-173.12 178,-173.12 178,-152.38 293,-152.38 293,-173.12"/>
<text xml:space="preserve" text-anchor="middle" x="235.5" y="-159.62" font-family="Helvetica,sans-Serif" font-size="10.00">kest_msc_button_cb</text>
</a>
</g>
</g>
<!-- Node1&#45;&gt;Node22 -->
<g id="edge23_Node000001_Node000022" class="edge">
<title>Node1&#45;&gt;Node22</title>
<g id="a_edge23_Node000001_Node000022"><a xlink:title=" ">
<path fill="none" stroke="#63b8ff" d="M66.74,-347.1C76.49,-317.92 107.49,-235.88 160.75,-190.75 166.65,-185.75 173.53,-181.6 180.67,-178.16"/>
<polygon fill="#63b8ff" stroke="#63b8ff" points="182.05,-181.38 189.86,-174.21 179.29,-174.95 182.05,-181.38"/>
</a>
</g>
</g>
<!-- Node27 -->
<g id="Node000027" class="node">
<title>Node27</title>
<g id="a_Node000027"><a xlink:href="kest__ui_8c.html#a01360963fabe989a816b58c78cbc041b" target="_top" xlink:title=" ">
<polygon fill="white" stroke="#666666" points="269.75,-259.12 201.25,-259.12 201.25,-238.38 269.75,-238.38 269.75,-259.12"/>
<text xml:space="preserve" text-anchor="middle" x="235.5" y="-245.62" font-family="Helvetica,sans-Serif" font-size="10.00">new_panel</text>
</a>
</g>
</g>
<!-- Node1&#45;&gt;Node27 -->
<g id="edge30_Node000001_Node000027" class="edge">
<title>Node1&#45;&gt;Node27</title>
<g id="a_edge30_Node000001_Node000027"><a xlink:title=" ">
<path fill="none" stroke="#63b8ff" d="M71.8,-347.06C87.31,-328.12 122.35,-288.68 160.75,-267.75 169.69,-262.88 179.93,-259.22 189.87,-256.48"/>
<polygon fill="#63b8ff" stroke="#63b8ff" points="190.54,-259.92 199.42,-254.13 188.87,-253.12 190.54,-259.92"/>
</a>
</g>
</g>
<!-- Node29 -->
<g id="Node000029" class="node">
<title>Node29</title>
<g id="a_Node000029"><a xlink:href="kest__parameter__widget_8c.html#a89863fab24827de020d29878a86c1b60" target="_top" xlink:title=" ">
<polygon fill="white" stroke="#666666" points="306.12,-104.12 164.88,-104.12 164.88,-83.38 306.12,-83.38 306.12,-104.12"/>
<text xml:space="preserve" text-anchor="middle" x="235.5" y="-90.62" font-family="Helvetica,sans-Serif" font-size="10.00">nullify_parameter_widget</text>
</a>
</g>
</g>
<!-- Node1&#45;&gt;Node29 -->
<g id="edge33_Node000001_Node000029" class="edge">
<title>Node1&#45;&gt;Node29</title>
<g id="a_edge33_Node000001_Node000029"><a xlink:title=" ">
<path fill="none" stroke="#63b8ff" d="M65.95,-347.29C74.5,-314.22 104.67,-210.19 160.75,-143.75 172.23,-130.15 188.29,-118.67 202.49,-110.16"/>
<polygon fill="#63b8ff" stroke="#63b8ff" points="204.15,-113.24 211.1,-105.24 200.68,-107.16 204.15,-113.24"/>
</a>
</g>
</g>
<!-- Node4 -->
<g id="Node000004" class="node">
<title>Node4</title>
<g id="a_Node000004"><a xlink:href="kest__hfunc_8c.html#a840904866becc1161859f30852e94595" target="_top" xlink:title=" ">
<polygon fill="white" stroke="#666666" points="457.5,-596.12 380.75,-596.12 380.75,-575.38 457.5,-575.38 457.5,-596.12"/>
<text xml:space="preserve" text-anchor="middle" x="419.12" y="-582.62" font-family="Helvetica,sans-Serif" font-size="10.00">format_float</text>
</a>
</g>
</g>
<!-- Node3&#45;&gt;Node4 -->
<g id="edge3_Node000003_Node000004" class="edge">
<title>Node3&#45;&gt;Node4</title>
<g id="a_edge3_Node000003_Node000004"><a xlink:title=" ">
<path fill="none" stroke="#63b8ff" d="M294.97,-585.75C318.81,-585.75 346.08,-585.75 368.88,-585.75"/>
<polygon fill="#63b8ff" stroke="#63b8ff" points="368.84,-589.25 378.84,-585.75 368.84,-582.25 368.84,-589.25"/>
</a>
</g>
</g>
<!-- Node6 -->
<g id="Node000006" class="node">
<title>Node6</title>
<g id="a_Node000006"><a xlink:href="kest__ui_8c.html#a2063cd4687cffa16c46c43deaa27642f" target="_top" xlink:title=" ">
<polygon fill="white" stroke="#666666" points="485.62,-554.12 352.62,-554.12 352.62,-533.38 485.62,-533.38 485.62,-554.12"/>
<text xml:space="preserve" text-anchor="middle" x="419.12" y="-540.62" font-family="Helvetica,sans-Serif" font-size="10.00">enter_ui_page_forwards</text>
</a>
</g>
</g>
<!-- Node5&#45;&gt;Node6 -->
<g id="edge5_Node000005_Node000006" class="edge">
<title>Node5&#45;&gt;Node6</title>
<g id="a_edge5_Node000005_Node000006"><a xlink:title=" ">
<path fill="none" stroke="#63b8ff" d="M310.64,-541.97C320.68,-542.14 331.02,-542.31 341.11,-542.48"/>
<polygon fill="#63b8ff" stroke="#63b8ff" points="340.82,-545.97 350.87,-542.64 340.93,-538.97 340.82,-545.97"/>
</a>
</g>
</g>
<!-- Node7 -->
<g id="Node000007" class="node">
<title>Node7</title>
<g id="a_Node000007"><a xlink:href="kest__context_8c.html#a6292c7a2d7f0502ea5a59bbe9b552791" target="_top" xlink:title=" ">
<polygon fill="#fff0f0" stroke="red" points="660.25,-564.5 540,-564.5 540,-531 660.25,-531 660.25,-564.5"/>
<text xml:space="preserve" text-anchor="start" x="548" y="-551" font-family="Helvetica,sans-Serif" font-size="10.00">kest_cxt_queue_save</text>
<text xml:space="preserve" text-anchor="middle" x="600.12" y="-538.25" font-family="Helvetica,sans-Serif" font-size="10.00">_state</text>
</a>
</g>
</g>
<!-- Node6&#45;&gt;Node7 -->
<g id="edge6_Node000006_Node000007" class="edge">
<title>Node6&#45;&gt;Node7</title>
<g id="a_edge6_Node000006_Node000007"><a xlink:title=" ">
<path fill="none" stroke="#63b8ff" d="M486.02,-545.22C499.72,-545.53 514.22,-545.85 528.11,-546.16"/>
<polygon fill="#63b8ff" stroke="#63b8ff" points="528,-549.66 538.08,-546.39 528.16,-542.66 528,-549.66"/>
</a>
</g>
</g>
<!-- Node10 -->
<g id="Node000010" class="node">
<title>Node10</title>
<g id="a_Node000010"><a xlink:href="kest__files_8c.html#ae0b903c442a7fc4a90097e958e31d485" target="_top" xlink:title=" ">
<polygon fill="white" stroke="#666666" points="462,-218.12 376.25,-218.12 376.25,-197.38 462,-197.38 462,-218.12"/>
<text xml:space="preserve" text-anchor="middle" x="419.12" y="-204.62" font-family="Helvetica,sans-Serif" font-size="10.00">erase_sd_card</text>
</a>
</g>
</g>
<!-- Node9&#45;&gt;Node10 -->
<g id="edge8_Node000009_Node000010" class="edge">
<title>Node9&#45;&gt;Node10</title>
<g id="a_edge8_Node000009_Node000010"><a xlink:title=" ">
<path fill="none" stroke="#63b8ff" d="M300.02,-209.05C321.16,-208.82 344.47,-208.56 364.75,-208.34"/>
<polygon fill="#63b8ff" stroke="#63b8ff" points="364.52,-211.84 374.48,-208.23 364.44,-204.84 364.52,-211.84"/>
</a>
</g>
</g>
<!-- Node11 -->
<g id="Node000011" class="node">
<title>Node11</title>
<g id="a_Node000011"><a xlink:href="kest__files_8c.html#aff84d4d47e4388d05a209a42c7b3cf97" target="_top" xlink:title=" ">
<polygon fill="#fff0f0" stroke="red" points="638.5,-239.12 561.75,-239.12 561.75,-218.38 638.5,-218.38 638.5,-239.12"/>
<text xml:space="preserve" text-anchor="middle" x="600.12" y="-225.62" font-family="Helvetica,sans-Serif" font-size="10.00">erase_folder</text>
</a>
</g>
</g>
<!-- Node10&#45;&gt;Node11 -->
<g id="edge9_Node000010_Node000011" class="edge">
<title>Node10&#45;&gt;Node11</title>
<g id="a_edge9_Node000010_Node000011"><a xlink:title=" ">
<path fill="none" stroke="#63b8ff" d="M462.09,-212.67C488.4,-215.76 522.44,-219.75 550,-222.99"/>
<polygon fill="#63b8ff" stroke="#63b8ff" points="549.54,-226.46 559.88,-224.15 550.35,-219.5 549.54,-226.46"/>
</a>
</g>
</g>
<!-- Node11&#45;&gt;Node11 -->
<g id="edge10_Node000011_Node000011" class="edge">
<title>Node11&#45;&gt;Node11</title>
<g id="a_edge10_Node000011_Node000011"><a xlink:title=" ">
<path fill="none" stroke="#63b8ff" d="M577.24,-239.52C568.09,-248.18 575.72,-257.12 600.12,-257.12 613.47,-257.12 621.8,-254.45 625.11,-250.61"/>
<polygon fill="#63b8ff" stroke="#63b8ff" points="628.59,-250.18 623.29,-241.01 621.72,-251.49 628.59,-250.18"/>
</a>
</g>
</g>
<!-- Node11&#45;&gt;Node12 -->
<g id="edge11_Node000011_Node000012" class="edge">
<title>Node11&#45;&gt;Node12</title>
<g id="a_edge11_Node000011_Node000012"><a xlink:title=" ">
<path fill="none" stroke="#63b8ff" d="M628.12,-239.55C649.62,-248.15 679.95,-260.28 703.78,-269.81"/>
<polygon fill="#63b8ff" stroke="#63b8ff" points="702.22,-272.96 712.81,-273.42 704.82,-266.46 702.22,-272.96"/>
</a>
</g>
</g>
<!-- Node15&#45;&gt;Node2 -->
<g id="edge14_Node000015_Node000002" class="edge">
<title>Node15&#45;&gt;Node2</title>
<g id="a_edge14_Node000015_Node000002"><a xlink:title=" ">
<path fill="none" stroke="#63b8ff" d="M277.26,-427.52C303.57,-434.48 338.04,-443.59 366.3,-451.05"/>
<polygon fill="#63b8ff" stroke="#63b8ff" points="365.16,-454.37 375.72,-453.54 366.95,-447.61 365.16,-454.37"/>
</a>
</g>
</g>
<!-- Node15&#45;&gt;Node14 -->
<g id="edge15_Node000015_Node000014" class="edge">
<title>Node15&#45;&gt;Node14</title>
<g id="a_edge15_Node000015_Node000014"><a xlink:title=" ">
<path fill="none" stroke="#63b8ff" d="M283.27,-405.93C311.08,-399.5 346.15,-391.39 373.56,-385.06"/>
<polygon fill="#63b8ff" stroke="#63b8ff" points="373.98,-388.55 382.94,-382.89 372.41,-381.73 373.98,-388.55"/>
</a>
</g>
</g>
<!-- Node16 -->
<g id="Node000016" class="node">
<title>Node16</title>
<g id="a_Node000016"><a xlink:href="kest__button_8c.html#ac7690c73fda7b52f35a47cb3c8b8e9cb" target="_top" xlink:title=" ">
<polygon fill="white" stroke="#666666" points="475.5,-436.5 362.75,-436.5 362.75,-403 475.5,-403 475.5,-436.5"/>
<text xml:space="preserve" text-anchor="start" x="370.75" y="-423" font-family="Helvetica,sans-Serif" font-size="10.00">kest_danger_button</text>
<text xml:space="preserve" text-anchor="middle" x="419.12" y="-410.25" font-family="Helvetica,sans-Serif" font-size="10.00">_activate_popup_cb</text>
</a>
</g>
</g>
<!-- Node15&#45;&gt;Node16 -->
<g id="edge16_Node000015_Node000016" class="edge">
<title>Node15&#45;&gt;Node16</title>
<g id="a_edge16_Node000015_Node000016"><a xlink:title=" ">
<path fill="none" stroke="#63b8ff" d="M289.52,-417.63C308.78,-417.94 330.8,-418.31 351.11,-418.64"/>
<polygon fill="#63b8ff" stroke="#63b8ff" points="350.94,-422.14 361,-418.81 351.05,-415.14 350.94,-422.14"/>
</a>
</g>
</g>
<!-- Node17 -->
<g id="Node000017" class="node">
<title>Node17</title>
<g id="a_Node000017"><a xlink:href="kest__button_8c.html#a534796bd271226a0d3c7d166bb75b25a" target="_top" xlink:title=" ">
<polygon fill="white" stroke="#666666" points="656.12,-403.5 544.12,-403.5 544.12,-370 656.12,-370 656.12,-403.5"/>
<text xml:space="preserve" text-anchor="start" x="552.12" y="-390" font-family="Helvetica,sans-Serif" font-size="10.00">kest_danger_button</text>
<text xml:space="preserve" text-anchor="middle" x="600.12" y="-377.25" font-family="Helvetica,sans-Serif" font-size="10.00">_cancel_cb</text>
</a>
</g>
</g>
<!-- Node16&#45;&gt;Node17 -->
<g id="edge17_Node000016_Node000017" class="edge">
<title>Node16&#45;&gt;Node17</title>
<g id="a_edge17_Node000016_Node000017"><a xlink:title=" ">
<path fill="none" stroke="#63b8ff" d="M475.78,-409.49C493.8,-406.17 513.96,-402.45 532.68,-399"/>
<polygon fill="#63b8ff" stroke="#63b8ff" points="533.12,-402.48 542.32,-397.22 531.85,-395.59 533.12,-402.48"/>
</a>
</g>
</g>
<!-- Node18 -->
<g id="Node000018" class="node">
<title>Node18</title>
<g id="a_Node000018"><a xlink:href="kest__button_8c.html#a3c57a71cade66cdd7ffef14b864b0cba" target="_top" xlink:title=" ">
<polygon fill="white" stroke="#666666" points="656.12,-455.5 544.12,-455.5 544.12,-422 656.12,-422 656.12,-455.5"/>
<text xml:space="preserve" text-anchor="start" x="552.12" y="-442" font-family="Helvetica,sans-Serif" font-size="10.00">kest_danger_button</text>
<text xml:space="preserve" text-anchor="middle" x="600.12" y="-429.25" font-family="Helvetica,sans-Serif" font-size="10.00">_confirm_cb</text>
</a>
</g>
</g>
<!-- Node16&#45;&gt;Node18 -->
<g id="edge18_Node000016_Node000018" class="edge">
<title>Node16&#45;&gt;Node18</title>
<g id="a_edge18_Node000016_Node000018"><a xlink:title=" ">
<path fill="none" stroke="#63b8ff" d="M475.78,-425.66C493.71,-427.56 513.77,-429.69 532.42,-431.67"/>
<polygon fill="#63b8ff" stroke="#63b8ff" points="531.99,-435.14 542.31,-432.72 532.73,-428.18 531.99,-435.14"/>
</a>
</g>
</g>
<!-- Node21 -->
<g id="Node000021" class="node">
<title>Node21</title>
<g id="a_Node000021"><a xlink:href="kest__button_8c.html#a56b5c7012f627d4d3f454029e26f1bef" target="_top" xlink:title=" ">
<polygon fill="white" stroke="#666666" points="473.62,-346.5 364.62,-346.5 364.62,-313 473.62,-313 473.62,-346.5"/>
<text xml:space="preserve" text-anchor="start" x="372.62" y="-333" font-family="Helvetica,sans-Serif" font-size="10.00">kest_button_create</text>
<text xml:space="preserve" text-anchor="middle" x="419.12" y="-320.25" font-family="Helvetica,sans-Serif" font-size="10.00">_label_ui</text>
</a>
</g>
</g>
<!-- Node20&#45;&gt;Node21 -->
<g id="edge22_Node000020_Node000021" class="edge">
<title>Node20&#45;&gt;Node21</title>
<g id="a_edge22_Node000020_Node000021"><a xlink:title=" ">
<path fill="none" stroke="#63b8ff" d="M297.23,-335.74C315.08,-334.86 334.68,-333.89 352.8,-332.99"/>
<polygon fill="#63b8ff" stroke="#63b8ff" points="352.84,-336.49 362.65,-332.5 352.49,-329.5 352.84,-336.49"/>
</a>
</g>
</g>
<!-- Node23 -->
<g id="Node000023" class="node">
<title>Node23</title>
<g id="a_Node000023"><a xlink:href="kest__sd_8c.html#a75b4b8c75ccae759b6c3ebbc6209b5c4" target="_top" xlink:title=" ">
<polygon fill="white" stroke="#666666" points="476.25,-167.12 362,-167.12 362,-146.38 476.25,-146.38 476.25,-167.12"/>
<text xml:space="preserve" text-anchor="middle" x="419.12" y="-153.62" font-family="Helvetica,sans-Serif" font-size="10.00">kest_sd_toggle_msc</text>
</a>
</g>
</g>
<!-- Node22&#45;&gt;Node23 -->
<g id="edge24_Node000022_Node000023" class="edge">
<title>Node22&#45;&gt;Node23</title>
<g id="a_edge24_Node000022_Node000023"><a xlink:title=" ">
<path fill="none" stroke="#63b8ff" d="M293.47,-160.87C311.47,-160.27 331.55,-159.61 350.24,-158.99"/>
<polygon fill="#63b8ff" stroke="#63b8ff" points="350.28,-162.49 360.16,-158.66 350.05,-155.5 350.28,-162.49"/>
</a>
</g>
</g>
<!-- Node24 -->
<g id="Node000024" class="node">
<title>Node24</title>
<g id="a_Node000024"><a xlink:href="kest__printf_8c.html#a302714171dfa950e18d9a951bdab4105" target="_top" xlink:title=" ">
<polygon fill="white" stroke="#666666" points="776,-163.12 708.25,-163.12 708.25,-142.38 776,-142.38 776,-163.12"/>
<text xml:space="preserve" text-anchor="middle" x="742.12" y="-149.62" font-family="Helvetica,sans-Serif" font-size="10.00">kest_printf</text>
</a>
</g>
</g>
<!-- Node23&#45;&gt;Node24 -->
<g id="edge25_Node000023_Node000024" class="edge">
<title>Node23&#45;&gt;Node24</title>
<g id="a_edge25_Node000023_Node000024"><a xlink:title=" ">
<path fill="none" stroke="#63b8ff" d="M476.69,-166.35C527.94,-173.57 605.44,-180.8 672.25,-171.75 680.71,-170.6 689.6,-168.7 698.08,-166.53"/>
<polygon fill="#63b8ff" stroke="#63b8ff" points="698.73,-169.98 707.46,-163.96 696.89,-163.23 698.73,-169.98"/>
</a>
</g>
</g>
<!-- Node25 -->
<g id="Node000025" class="node">
<title>Node25</title>
<g id="a_Node000025"><a xlink:href="kest__sd_8c.html#a062111f9ec26e5dc2f6ef9625805120d" target="_top" xlink:title=" ">
<polygon fill="white" stroke="#666666" points="657.25,-163.12 543,-163.12 543,-142.38 657.25,-142.38 657.25,-163.12"/>
<text xml:space="preserve" text-anchor="middle" x="600.12" y="-149.62" font-family="Helvetica,sans-Serif" font-size="10.00">kest_sd_mode_local</text>
</a>
</g>
</g>
<!-- Node23&#45;&gt;Node25 -->
<g id="edge26_Node000023_Node000025" class="edge">
<title>Node23&#45;&gt;Node25</title>
<g id="a_edge26_Node000023_Node000025"><a xlink:title=" ">
<path fill="none" stroke="#63b8ff" d="M476.27,-155.5C493.68,-155.11 513.05,-154.67 531.17,-154.27"/>
<polygon fill="#63b8ff" stroke="#63b8ff" points="531.13,-157.77 541.05,-154.05 530.97,-150.77 531.13,-157.77"/>
</a>
</g>
</g>
<!-- Node26 -->
<g id="Node000026" class="node">
<title>Node26</title>
<g id="a_Node000026"><a xlink:href="kest__sd_8c.html#a5b352e1ac18808ffdaf59355b80859fc" target="_top" xlink:title=" ">
<polygon fill="white" stroke="#666666" points="655.75,-124.12 544.5,-124.12 544.5,-103.38 655.75,-103.38 655.75,-124.12"/>
<text xml:space="preserve" text-anchor="middle" x="600.12" y="-110.62" font-family="Helvetica,sans-Serif" font-size="10.00">kest_sd_mode_msc</text>
</a>
</g>
</g>
<!-- Node23&#45;&gt;Node26 -->
<g id="edge28_Node000023_Node000026" class="edge">
<title>Node23&#45;&gt;Node26</title>
<g id="a_edge28_Node000023_Node000026"><a xlink:title=" ">
<path fill="none" stroke="#63b8ff" d="M465.29,-145.9C488.83,-140.25 517.83,-133.28 542.81,-127.28"/>
<polygon fill="#63b8ff" stroke="#63b8ff" points="543.59,-130.69 552.5,-124.95 541.96,-123.88 543.59,-130.69"/>
</a>
</g>
</g>
<!-- Node25&#45;&gt;Node24 -->
<g id="edge27_Node000025_Node000024" class="edge">
<title>Node25&#45;&gt;Node24</title>
<g id="a_edge27_Node000025_Node000024"><a xlink:title=" ">
<path fill="none" stroke="#63b8ff" d="M657.66,-152.75C670.66,-152.75 684.3,-152.75 696.7,-152.75"/>
<polygon fill="#63b8ff" stroke="#63b8ff" points="696.63,-156.25 706.63,-152.75 696.63,-149.25 696.63,-156.25"/>
</a>
</g>
</g>
<!-- Node26&#45;&gt;Node24 -->
<g id="edge29_Node000026_Node000024" class="edge">
<title>Node26&#45;&gt;Node24</title>
<g id="a_edge29_Node000026_Node000024"><a xlink:title=" ">
<path fill="none" stroke="#63b8ff" d="M640.12,-124.61C657.81,-129.54 678.81,-135.39 697.07,-140.48"/>
<polygon fill="#63b8ff" stroke="#63b8ff" points="695.99,-143.81 706.57,-143.12 697.87,-137.07 695.99,-143.81"/>
</a>
</g>
</g>
<!-- Node27&#45;&gt;Node12 -->
<g id="edge32_Node000027_Node000012" class="edge">
<title>Node27&#45;&gt;Node12</title>
<g id="a_edge32_Node000027_Node000012"><a xlink:title=" ">
<path fill="none" stroke="#63b8ff" d="M270.01,-254.88C291.68,-258.61 320.54,-263.15 346.25,-265.75 473.68,-278.65 625.15,-282.84 697.91,-284.16"/>
<polygon fill="#63b8ff" stroke="#63b8ff" points="697.73,-287.66 707.79,-284.33 697.85,-280.66 697.73,-287.66"/>
</a>
</g>
</g>
<!-- Node28 -->
<g id="Node000028" class="node">
<title>Node28</title>
<g id="a_Node000028"><a xlink:href="kest__ui_8c.html#a574d886c7fb2ce9bcf04b4a1e94576ac" target="_top" xlink:title=" ">
<polygon fill="white" stroke="#666666" points="451.12,-257.12 387.12,-257.12 387.12,-236.38 451.12,-236.38 451.12,-257.12"/>
<text xml:space="preserve" text-anchor="middle" x="419.12" y="-243.62" font-family="Helvetica,sans-Serif" font-size="10.00">init_panel</text>
</a>
</g>
</g>
<!-- Node27&#45;&gt;Node28 -->
<g id="edge31_Node000027_Node000028" class="edge">
<title>Node27&#45;&gt;Node28</title>
<g id="a_edge31_Node000027_Node000028"><a xlink:title=" ">
<path fill="none" stroke="#63b8ff" d="M270.24,-248.38C299.93,-248.05 343.32,-247.57 375.42,-247.22"/>
<polygon fill="#63b8ff" stroke="#63b8ff" points="375.22,-250.72 385.18,-247.11 375.14,-243.72 375.22,-250.72"/>
</a>
</g>
</g>
<!-- Node30 -->
<g id="Node000030" class="node">
<title>Node30</title>
<g id="a_Node000030"><a xlink:href="kest__parameter__widget_8c.html#a1590cd4e080ed869e0372fef1a233085" target="_top" xlink:title=" ">
<polygon fill="white" stroke="#666666" points="492,-79.12 346.25,-79.12 346.25,-58.38 492,-58.38 492,-79.12"/>
<text xml:space="preserve" text-anchor="middle" x="419.12" y="-65.62" font-family="Helvetica,sans-Serif" font-size="10.00">param_widget_rep_update</text>
</a>
</g>
</g>
<!-- Node29&#45;&gt;Node30 -->
<g id="edge34_Node000029_Node000030" class="edge">
<title>Node29&#45;&gt;Node30</title>
<g id="a_edge34_Node000029_Node000030"><a xlink:title=" ">
<path fill="none" stroke="#63b8ff" d="M306.46,-84.12C315.63,-82.86 325.09,-81.56 334.45,-80.27"/>
<polygon fill="#63b8ff" stroke="#63b8ff" points="334.87,-83.74 344.3,-78.91 333.91,-76.81 334.87,-83.74"/>
</a>
</g>
</g>
<!-- Node31 -->
<g id="Node000031" class="node">
<title>Node31</title>
<g id="a_Node000031"><a xlink:href="kest__parameter__widget_8c.html#abad910124e9bf706a008ab86f8bf70e6" target="_top" xlink:title=" ">
<polygon fill="white" stroke="#666666" points="672.25,-33.5 528,-33.5 528,0 672.25,0 672.25,-33.5"/>
<text xml:space="preserve" text-anchor="start" x="536" y="-20" font-family="Helvetica,sans-Serif" font-size="10.00">parameter_widget_update</text>
<text xml:space="preserve" text-anchor="middle" x="600.12" y="-7.25" font-family="Helvetica,sans-Serif" font-size="10.00">_value</text>
</a>
</g>
</g>
<!-- Node30&#45;&gt;Node31 -->
<g id="edge35_Node000030_Node000031" class="edge">
<title>Node30&#45;&gt;Node31</title>
<g id="a_edge35_Node000030_Node000031"><a xlink:title=" ">
<path fill="none" stroke="#63b8ff" d="M457.21,-57.98C478,-51.94 504.6,-44.21 529.15,-37.08"/>
<polygon fill="#63b8ff" stroke="#63b8ff" points="529.81,-40.53 538.43,-34.38 527.85,-33.81 529.81,-40.53"/>
</a>
</g>
</g>
<!-- Node32 -->
<g id="Node000032" class="node">
<title>Node32</title>
<g id="a_Node000032"><a xlink:href="kest__parameter__widget_8c.html#af345b51066bd1985326c50809d992fab" target="_top" xlink:title=" ">
<polygon fill="#fff0f0" stroke="red" points="672.25,-85.5 528,-85.5 528,-52 672.25,-52 672.25,-85.5"/>
<text xml:space="preserve" text-anchor="start" x="536" y="-72" font-family="Helvetica,sans-Serif" font-size="10.00">parameter_widget_update</text>
<text xml:space="preserve" text-anchor="middle" x="600.12" y="-59.25" font-family="Helvetica,sans-Serif" font-size="10.00">_value_label</text>
</a>
</g>
</g>
<!-- Node30&#45;&gt;Node32 -->
<g id="edge36_Node000030_Node000032" class="edge">
<title>Node30&#45;&gt;Node32</title>
<g id="a_edge36_Node000030_Node000032"><a xlink:title=" ">
<path fill="none" stroke="#63b8ff" d="M492.42,-68.75C500.33,-68.75 508.43,-68.75 516.46,-68.75"/>
<polygon fill="#63b8ff" stroke="#63b8ff" points="516.21,-72.25 526.21,-68.75 516.21,-65.25 516.21,-72.25"/>
</a>
</g>
</g>
</g>
</svg>

<g id="navigator" transform="translate(0 0)" fill="#404254">
  <rect fill="#f2f5e9" fill-opacity="0.5" stroke="#606060" stroke-width=".5" x="0" y="0" width="60" height="60"/>
  <use id="zoomplus" xlink:href="#zoomPlus" x="17" y="9" onmousedown="handleZoom(evt,'in')"/>
  <use id="zoomminus" xlink:href="#zoomMin" x="42" y="9" onmousedown="handleZoom(evt,'out')"/>
  <use id="reset" xlink:href="#resetDef" x="30" y="36" onmousedown="handleReset()"/>
   <use id="arrowup" xlink:href="#arrowUp" x="0" y="0" onmousedown="handlePan(0,-1)"/>
  <use id="arrowright" xlink:href="#arrowRight" x="0" y="0" onmousedown="handlePan(1,0)"/>
  <use id="arrowdown" xlink:href="#arrowDown" x="0" y="0" onmousedown="handlePan(0,1)"/>
  <use id="arrowleft" xlink:href="#arrowLeft" x="0" y="0" onmousedown="handlePan(-1,0)"/>
</g>
<svg viewBox="0 0 15 15" width="100%" height="30px" preserveAspectRatio="xMaxYMin meet">
 <g id="arrow_out" transform="scale(0.3 0.3)">
  <a xlink:href="kest__menu_8c_a86c6c0acd2dfb8a62bd96bbfd739e687_cgraph_org.svg" target="_base">
   <rect id="button" ry="5" rx="5" y="6" x="6" height="38" width="38"
        fill="#f2f5e9" fill-opacity="0.5" stroke="#606060" stroke-width="1.0"/>
   <path id="arrow"
     d="M 11.500037,31.436501 C 11.940474,20.09759 22.043105,11.32322 32.158766,21.979434 L 37.068811,17.246167 C 37.068811,17.246167 37.088388,32 37.088388,32 L 22.160133,31.978069 C 22.160133,31.978069 26.997745,27.140456 26.997745,27.140456 C 18.528582,18.264221 13.291696,25.230495 11.500037,31.436501 z"
     style="fill:#404040;"/>
  </a>
 </g>
</svg>

<style type='text/css'>
<![CDATA[
[data-mouse-over-selected='false'] { opacity: 0.7; }
[data-mouse-over-selected='true']  { opacity: 1.0; }
]]>
</style>
<script type="application/ecmascript"><![CDATA[
document.addEventListener('DOMContentLoaded', (event) => {
  highlightEdges();
  highlightAdjacentNodes();
});
]]></script>
</svg>
