<?xml version="1.0" encoding="UTF-8" standalone="no"?>
<!DOCTYPE svg PUBLIC "-//W3C//DTD SVG 1.1//EN"
 "http://www.w3.org/Graphics/SVG/1.1/DTD/svg11.dtd">
<!-- Generated by graphviz version 13.1.2 (20250808.2320)
 -->
<!-- Title: parameter_widget_change_cb Pages: 1 -->
<!--zoomable 167 -->

<svg id="main" version="1.1" xmlns="http://www.w3.org/2000/svg" xmlns:xlink="http://www.w3.org/1999/xlink" xml:space="preserve" onload="init(evt)">

<style type="text/css"><![CDATA[
.node, .edge {opacity: 0.7;}
.node.selected, .edge.selected {opacity: 1;}
.edge:hover path { stroke: red; }
.edge:hover polygon { stroke: red; fill: red; }
]]></style>

<defs>
  <circle id="rim" cx="0" cy="0" r="7"/>
  <circle id="rim2" cx="0" cy="0" r="3.5"/>
  <g id="zoomPlus">
    <use xlink:href="#rim" fill="#404040"><set attributeName="fill" to="#808080" begin="zoomplus.mouseover" end="zoomplus.mouseout"/></use>
    <path d="M-4,0h8M0,-4v8" fill="none" stroke="white" stroke-width="1.5" pointer-events="none"/>
  </g>
  <g id="zoomMin">
    <use xlink:href="#rim" fill="#404040"><set attributeName="fill" to="#808080" begin="zoomminus.mouseover" end="zoomminus.mouseout"/></use>
    <path d="M-4,0h8" fill="none" stroke="white" stroke-width="1.5" pointer-events="none"/>
  </g>
  <g id="arrowUp" transform="translate(30 24)">
    <use xlink:href="#rim"/>
    <path pointer-events="none" fill="none" stroke="white" stroke-width="1.5" d="M0,-3.0v7 M-2.5,-0.5L0,-3.0L2.5,-0.5"/>
  </g>
  <g id="arrowRight" transform="rotate(90) translate(36 -43)">
    <use xlink:href="#rim"/>
    <path pointer-events="none" fill="none" stroke="white" stroke-width="1.5" d="M0,-3.0v7 M-2.5,-0.5L0,-3.0L2.5,-0.5"/>
  </g>
  <g id="arrowDown" transform="rotate(180) translate(-30 -48)">
    <use xlink:href="#rim"/>
    <path pointer-events="none" fill="none" stroke="white" stroke-width="1.5" d="M0,-3.0v7 M-2.5,-0.5L0,-3.0L2.5,-0.5"/>
  </g>
  <g id="arrowLeft" transform="rotate(270) translate(-36 17)">
    <use xlink:href="#rim"/>
    <path pointer-events="none" fill="none" stroke="white" stroke-width="1.5" d="M0,-3.0v7 M-2.5,-0.5L0,-3.0L2.5,-0.5"/>
  </g>
  <g id="resetDef">
    <use xlink:href="#rim2" fill="#404040"><set attributeName="fill" to="#808080" begin="reset.mouseover" end="reset.mouseout"/></use>
  </g>
</defs>
<script type="application/ecmascript">
var viewWidth = 704;
var viewHeight = 167;
var sectionId = 'dynsection-19';
</script>
<script type="application/ecmascript" xlink:href="svg.min.js"/>
<svg id="graph" class="graph">
<g id="viewport">
<title>parameter_widget_change_cb</title>
<!-- Node1 -->
<g id="Node000001" class="node">
<title>Node1</title>
<g id="a_Node000001"><a xlink:title=" ">
<polygon fill="#999999" stroke="#666666" points="695.5,-94.12 533.25,-94.12 533.25,-73.38 695.5,-73.38 695.5,-94.12"/>
<text xml:space="preserve" text-anchor="middle" x="614.38" y="-80.62" font-family="Helvetica,sans-Serif" font-size="10.00">parameter_widget_change_cb</text>
</a>
</g>
</g>
<!-- Node2 -->
<g id="Node000002" class="node">
<title>Node2</title>
<g id="a_Node000002"><a xlink:href="kest__parameter__widget_8c.html#adbadb9573fa4f9b812f8d270c78053e4" target="_top" xlink:title=" ">
<polygon fill="white" stroke="#666666" points="497.25,-94.12 341.75,-94.12 341.75,-73.38 497.25,-73.38 497.25,-94.12"/>
<text xml:space="preserve" text-anchor="middle" x="419.5" y="-80.62" font-family="Helvetica,sans-Serif" font-size="10.00">parameter_widget_create_ui</text>
</a>
</g>
</g>
<!-- Node1&#45;&gt;Node2 -->
<g id="edge1_Node000001_Node000002" class="edge">
<title>Node1&#45;&gt;Node2</title>
<g id="a_edge1_Node000001_Node000002"><a xlink:title=" ">
<path fill="none" stroke="#63b8ff" d="M521.68,-83.75C513.65,-83.75 505.57,-83.75 497.68,-83.75"/>
<polygon fill="#63b8ff" stroke="#63b8ff" points="521.46,-87.25 531.46,-83.75 521.46,-80.25 521.46,-87.25"/>
</a>
</g>
</g>
<!-- Node3 -->
<g id="Node000003" class="node">
<title>Node3</title>
<g id="a_Node000003"><a xlink:href="kest__effect__settings_8c.html#ad39e071d5cf7cd7e4fc67d41f14d48e8" target="_top" xlink:title=" ">
<polygon fill="white" stroke="#666666" points="304.25,-123.5 179.5,-123.5 179.5,-90 304.25,-90 304.25,-123.5"/>
<text xml:space="preserve" text-anchor="start" x="187.5" y="-110" font-family="Helvetica,sans-Serif" font-size="10.00">create_effect_settings</text>
<text xml:space="preserve" text-anchor="middle" x="241.88" y="-97.25" font-family="Helvetica,sans-Serif" font-size="10.00">_page_ui</text>
</a>
</g>
</g>
<!-- Node2&#45;&gt;Node3 -->
<g id="edge2_Node000002_Node000003" class="edge">
<title>Node2&#45;&gt;Node3</title>
<g id="a_edge2_Node000002_Node000003"><a xlink:title=" ">
<path fill="none" stroke="#63b8ff" d="M330.13,-95.32C321.48,-96.46 312.84,-97.59 304.55,-98.67"/>
<polygon fill="#63b8ff" stroke="#63b8ff" points="330.51,-98.8 339.97,-94.03 329.6,-91.86 330.51,-98.8"/>
</a>
</g>
</g>
<!-- Node4 -->
<g id="Node000004" class="node">
<title>Node4</title>
<g id="a_Node000004"><a xlink:href="kest__effect__view_8c.html#a7d15ffb969bcf677cf4a1622e2666f8e" target="_top" xlink:title=" ">
<polygon fill="#fff0f0" stroke="red" points="132.62,-159.12 9.38,-159.12 9.38,-138.38 132.62,-138.38 132.62,-159.12"/>
<text xml:space="preserve" text-anchor="middle" x="71" y="-145.62" font-family="Helvetica,sans-Serif" font-size="10.00">create_effect_view_ui</text>
</a>
</g>
</g>
<!-- Node2&#45;&gt;Node4 -->
<g id="edge5_Node000002_Node000004" class="edge">
<title>Node2&#45;&gt;Node4</title>
<g id="a_edge5_Node000002_Node000004"><a xlink:title=" ">
<path fill="none" stroke="#63b8ff" d="M389.16,-99.82C366.96,-111.15 335.33,-125.54 305.75,-132.75 248.25,-146.77 180.6,-150.02 132.92,-150.22"/>
<polygon fill="#63b8ff" stroke="#63b8ff" points="390.67,-102.98 397.91,-95.25 387.43,-96.78 390.67,-102.98"/>
</a>
</g>
</g>
<!-- Node15 -->
<g id="Node000015" class="node">
<title>Node15</title>
<g id="a_Node000015"><a xlink:href="kest__menu_8c.html#ad08fcb7356b59af639c394da31d8f446" target="_top" xlink:title=" ">
<polygon fill="white" stroke="#666666" points="303.88,-72.12 179.88,-72.12 179.88,-51.38 303.88,-51.38 303.88,-72.12"/>
<text xml:space="preserve" text-anchor="middle" x="241.88" y="-58.62" font-family="Helvetica,sans-Serif" font-size="10.00">create_main_menu_ui</text>
</a>
</g>
</g>
<!-- Node2&#45;&gt;Node15 -->
<g id="edge6_Node000002_Node000015" class="edge">
<title>Node2&#45;&gt;Node15</title>
<g id="a_edge6_Node000002_Node000015"><a xlink:title=" ">
<path fill="none" stroke="#63b8ff" d="M330.34,-72.71C321.53,-71.6 312.73,-70.5 304.28,-69.44"/>
<polygon fill="#63b8ff" stroke="#63b8ff" points="329.61,-76.14 339.97,-73.91 330.48,-69.2 329.61,-76.14"/>
</a>
</g>
</g>
<!-- Node18 -->
<g id="Node000018" class="node">
<title>Node18</title>
<g id="a_Node000018"><a xlink:href="kest__profile__settings_8c.html#ab05371cb50924acc78762340a22cc585" target="_top" xlink:title=" ">
<polygon fill="white" stroke="#666666" points="305.75,-33.5 178,-33.5 178,0 305.75,0 305.75,-33.5"/>
<text xml:space="preserve" text-anchor="start" x="186" y="-20" font-family="Helvetica,sans-Serif" font-size="10.00">create_profile_settings</text>
<text xml:space="preserve" text-anchor="middle" x="241.88" y="-7.25" font-family="Helvetica,sans-Serif" font-size="10.00">_page_ui</text>
</a>
</g>
</g>
<!-- Node2&#45;&gt;Node18 -->
<g id="edge8_Node000002_Node000018" class="edge">
<title>Node2&#45;&gt;Node18</title>
<g id="a_edge8_Node000002_Node000018"><a xlink:title=" ">
<path fill="none" stroke="#63b8ff" d="M379.63,-68.92C352.5,-58.57 316.19,-44.72 287.81,-33.89"/>
<polygon fill="#63b8ff" stroke="#63b8ff" points="378.28,-72.15 388.87,-72.45 380.77,-65.61 378.28,-72.15"/>
</a>
</g>
</g>
<!-- Node3&#45;&gt;Node4 -->
<g id="edge3_Node000003_Node000004" class="edge">
<title>Node3&#45;&gt;Node4</title>
<g id="a_edge3_Node000003_Node000004"><a xlink:title=" ">
<path fill="none" stroke="#63b8ff" d="M168.38,-124.78C150.44,-129.24 131.76,-133.89 115.68,-137.89"/>
<polygon fill="#63b8ff" stroke="#63b8ff" points="169.1,-128.21 177.96,-122.4 167.41,-121.41 169.1,-128.21"/>
</a>
</g>
</g>
<!-- Node14 -->
<g id="Node000014" class="node">
<title>Node14</title>
<g id="a_Node000014"><a xlink:href="kest__effect__settings_8c.html#ab8bf2accabc08beecb97a54915abc488" target="_top" xlink:title=" ">
<polygon fill="#fff0f0" stroke="red" points="140.5,-117.12 1.5,-117.12 1.5,-96.38 140.5,-96.38 140.5,-117.12"/>
<text xml:space="preserve" text-anchor="middle" x="71" y="-103.62" font-family="Helvetica,sans-Serif" font-size="10.00">init_effect_settings_page</text>
</a>
</g>
</g>
<!-- Node3&#45;&gt;Node14 -->
<g id="edge4_Node000003_Node000014" class="edge">
<title>Node3&#45;&gt;Node14</title>
<g id="a_edge4_Node000003_Node000014"><a xlink:title=" ">
<path fill="none" stroke="#63b8ff" d="M168.1,-106.75C159.05,-106.75 149.82,-106.75 140.83,-106.75"/>
<polygon fill="#63b8ff" stroke="#63b8ff" points="167.92,-110.25 177.92,-106.75 167.92,-103.25 167.92,-110.25"/>
</a>
</g>
</g>
<!-- Node16 -->
<g id="Node000016" class="node">
<title>Node16</title>
<g id="a_Node000016"><a xlink:href="kest__menu_8c.html#a6aa16fb3d12f098f021ae677605e683e" target="_top" xlink:title=" ">
<polygon fill="#fff0f0" stroke="red" points="118.38,-72.12 23.62,-72.12 23.62,-51.38 118.38,-51.38 118.38,-72.12"/>
<text xml:space="preserve" text-anchor="middle" x="71" y="-58.62" font-family="Helvetica,sans-Serif" font-size="10.00">init_main_menu</text>
</a>
</g>
</g>
<!-- Node15&#45;&gt;Node16 -->
<g id="edge7_Node000015_Node000016" class="edge">
<title>Node15&#45;&gt;Node16</title>
<g id="a_edge7_Node000015_Node000016"><a xlink:title=" ">
<path fill="none" stroke="#63b8ff" d="M168.02,-61.75C151.35,-61.75 134.07,-61.75 118.83,-61.75"/>
<polygon fill="#63b8ff" stroke="#63b8ff" points="167.92,-65.25 177.92,-61.75 167.92,-58.25 167.92,-65.25"/>
</a>
</g>
</g>
<!-- Node19 -->
<g id="Node000019" class="node">
<title>Node19</title>
<g id="a_Node000019"><a xlink:href="kest__profile__settings_8c.html#a1c60543ff9aed0e212ab514d669256f2" target="_top" xlink:title=" ">
<polygon fill="#fff0f0" stroke="red" points="142,-27.12 0,-27.12 0,-6.38 142,-6.38 142,-27.12"/>
<text xml:space="preserve" text-anchor="middle" x="71" y="-13.62" font-family="Helvetica,sans-Serif" font-size="10.00">init_profile_settings_page</text>
</a>
</g>
</g>
<!-- Node18&#45;&gt;Node19 -->
<g id="edge9_Node000018_Node000019" class="edge">
<title>Node18&#45;&gt;Node19</title>
<g id="a_edge9_Node000018_Node000019"><a xlink:title=" ">
<path fill="none" stroke="#63b8ff" d="M166.03,-16.75C158.12,-16.75 150.09,-16.75 142.23,-16.75"/>
<polygon fill="#63b8ff" stroke="#63b8ff" points="166,-20.25 176,-16.75 166,-13.25 166,-20.25"/>
</a>
</g>
</g>
</g>
</svg>

<g id="navigator" transform="translate(0 0)" fill="#404254">
  <rect fill="#f2f5e9" fill-opacity="0.5" stroke="#606060" stroke-width=".5" x="0" y="0" width="60" height="60"/>
  <use id="zoomplus" xlink:href="#zoomPlus" x="17" y="9" onmousedown="handleZoom(evt,'in')"/>
  <use id="zoomminus" xlink:href="#zoomMin" x="42" y="9" onmousedown="handleZoom(evt,'out')"/>
  <use id="reset" xlink:href="#resetDef" x="30" y="36" onmousedown="handleReset()"/>
   <use id="arrowup" xlink:href="#arrowUp" x="0" y="0" onmousedown="handlePan(0,-1)"/>
  <use id="arrowright" xlink:href="#arrowRight" x="0" y="0" onmousedown="handlePan(1,0)"/>
  <use id="arrowdown" xlink:href="#arrowDown" x="0" y="0" onmousedown="handlePan(0,1)"/>
  <use id="arrowleft" xlink:href="#arrowLeft" x="0" y="0" onmousedown="handlePan(-1,0)"/>
</g>
<svg viewBox="0 0 15 15" width="100%" height="30px" preserveAspectRatio="xMaxYMin meet">
 <g id="arrow_out" transform="scale(0.3 0.3)">
  <a xlink:href="kest__parameter__widget_8c_aacedf3a01b62f8fba28c7521a2b64735_icgraph_org.svg" target="_base">
   <rect id="button" ry="5" rx="5" y="6" x="6" height="38" width="38"
        fill="#f2f5e9" fill-opacity="0.5" stroke="#606060" stroke-width="1.0"/>
   <path id="arrow"
     d="M 11.500037,31.436501 C 11.940474,20.09759 22.043105,11.32322 32.158766,21.979434 L 37.068811,17.246167 C 37.068811,17.246167 37.088388,32 37.088388,32 L 22.160133,31.978069 C 22.160133,31.978069 26.997745,27.140456 26.997745,27.140456 C 18.528582,18.264221 13.291696,25.230495 11.500037,31.436501 z"
     style="fill:#404040;"/>
  </a>
 </g>
</svg>

<style type='text/css'>
<![CDATA[
[data-mouse-over-selected='false'] { opacity: 0.7; }
[data-mouse-over-selected='true']  { opacity: 1.0; }
]]>
</style>
<script type="application/ecmascript"><![CDATA[
document.addEventListener('DOMContentLoaded', (event) => {
  highlightEdges();
  highlightAdjacentNodes();
});
]]></script>
</svg>
