<?xml version="1.0" encoding="UTF-8" standalone="no"?>
<!DOCTYPE svg PUBLIC "-//W3C//DTD SVG 1.1//EN"
 "http://www.w3.org/Graphics/SVG/1.1/DTD/svg11.dtd">
<!-- Generated by graphviz version 13.1.2 (20250808.2320)
 -->
<!-- Title: kest_allocator_alloc Pages: 1 -->
<svg width="609pt" height="300pt"
 viewBox="0.00 0.00 609.00 300.00" xmlns="http://www.w3.org/2000/svg" xmlns:xlink="http://www.w3.org/1999/xlink">
<g id="graph0" class="graph" transform="scale(1 1) rotate(0) translate(4 296.12)">
<title>kest_allocator_alloc</title>
<!-- Node1 -->
<g id="Node000001" class="node">
<title>Node1</title>
<g id="a_Node000001"><a xlink:title=" ">
<polygon fill="#999999" stroke="#666666" points="601,-212.12 488.25,-212.12 488.25,-191.38 601,-191.38 601,-212.12"/>
<text xml:space="preserve" text-anchor="middle" x="544.62" y="-198.62" font-family="Helvetica,sans-Serif" font-size="10.00">kest_allocator_alloc</text>
</a>
</g>
</g>
<!-- Node2 -->
<g id="Node000002" class="node">
<title>Node2</title>
<g id="a_Node000002"><a xlink:href="kest__alloc_8c.html#a5c912e0ea909c2936856b46189e2c704" target="_top" xlink:title=" ">
<polygon fill="white" stroke="#666666" points="452.25,-292.12 326,-292.12 326,-271.38 452.25,-271.38 452.25,-292.12"/>
<text xml:space="preserve" text-anchor="middle" x="389.12" y="-278.62" font-family="Helvetica,sans-Serif" font-size="10.00">kest_allocator_strndup</text>
</a>
</g>
</g>
<!-- Node1&#45;&gt;Node2 -->
<g id="edge1_Node000001_Node000002" class="edge">
<title>Node1&#45;&gt;Node2</title>
<g id="a_edge1_Node000001_Node000002"><a xlink:title=" ">
<path fill="none" stroke="#63b8ff" d="M521.13,-219.49C503.28,-232.87 477.26,-250.89 452.25,-262.75 445.73,-265.84 438.58,-268.58 431.54,-270.94"/>
<polygon fill="#63b8ff" stroke="#63b8ff" points="523.12,-222.38 528.94,-213.52 518.87,-216.81 523.12,-222.38"/>
</a>
</g>
</g>
<!-- Node3 -->
<g id="Node000003" class="node">
<title>Node3</title>
<g id="a_Node000003"><a xlink:href="kest__dictionary_8c.html#a298bc3ea15bffee0e485de36aea099c2" target="_top" xlink:title=" ">
<polygon fill="white" stroke="#666666" points="441.75,-183.5 336.5,-183.5 336.5,-150 441.75,-150 441.75,-183.5"/>
<text xml:space="preserve" text-anchor="start" x="344.5" y="-170" font-family="Helvetica,sans-Serif" font-size="10.00">kest_dict_entry_to</text>
<text xml:space="preserve" text-anchor="middle" x="389.12" y="-157.25" font-family="Helvetica,sans-Serif" font-size="10.00">_string</text>
</a>
</g>
</g>
<!-- Node1&#45;&gt;Node3 -->
<g id="edge2_Node000001_Node000003" class="edge">
<title>Node1&#45;&gt;Node3</title>
<g id="a_edge2_Node000001_Node000003"><a xlink:title=" ">
<path fill="none" stroke="#63b8ff" d="M485.18,-188.42C471,-185.19 455.94,-181.76 442.09,-178.6"/>
<polygon fill="#63b8ff" stroke="#63b8ff" points="484.31,-191.82 494.84,-190.63 485.87,-184.99 484.31,-191.82"/>
</a>
</g>
</g>
<!-- Node20 -->
<g id="Node000020" class="node">
<title>Node20</title>
<g id="a_Node000020"><a xlink:href="kest__resource_8c.html#adb005fd5423242a5fb393a1ec10feb9d" target="_top" xlink:title=" ">
<polygon fill="white" stroke="#666666" points="284.38,-82.12 183.62,-82.12 183.62,-61.38 284.38,-61.38 284.38,-82.12"/>
<text xml:space="preserve" text-anchor="middle" x="234" y="-68.62" font-family="Helvetica,sans-Serif" font-size="10.00">kest_filter_create</text>
</a>
</g>
</g>
<!-- Node1&#45;&gt;Node20 -->
<g id="edge13_Node000001_Node000020" class="edge">
<title>Node1&#45;&gt;Node20</title>
<g id="a_edge13_Node000001_Node000020"><a xlink:title=" ">
<path fill="none" stroke="#63b8ff" d="M521.09,-184.08C503.23,-170.74 477.2,-152.74 452.25,-140.75 396.07,-113.75 326.79,-93.85 281.79,-82.54"/>
<polygon fill="#63b8ff" stroke="#63b8ff" points="518.83,-186.76 528.91,-190.03 523.07,-181.19 518.83,-186.76"/>
</a>
</g>
</g>
<!-- Node22 -->
<g id="Node000022" class="node">
<title>Node22</title>
<g id="a_Node000022"><a xlink:href="kest__string_8c.html#a7538f892d9e722fe9e9e1cfcb0ac1b40" target="_top" xlink:title=" ">
<polygon fill="white" stroke="#666666" points="449.25,-253.5 329,-253.5 329,-220 449.25,-220 449.25,-253.5"/>
<text xml:space="preserve" text-anchor="start" x="337" y="-240" font-family="Helvetica,sans-Serif" font-size="10.00">kest_string_to_native</text>
<text xml:space="preserve" text-anchor="middle" x="389.12" y="-227.25" font-family="Helvetica,sans-Serif" font-size="10.00">_with_allocator</text>
</a>
</g>
</g>
<!-- Node1&#45;&gt;Node22 -->
<g id="edge17_Node000001_Node000022" class="edge">
<title>Node1&#45;&gt;Node22</title>
<g id="a_edge17_Node000001_Node000022"><a xlink:title=" ">
<path fill="none" stroke="#63b8ff" d="M485.3,-215.05C473.57,-217.72 461.24,-220.53 449.48,-223.22"/>
<polygon fill="#63b8ff" stroke="#63b8ff" points="485.87,-218.51 494.84,-212.87 484.31,-211.68 485.87,-218.51"/>
</a>
</g>
</g>
<!-- Node3&#45;&gt;Node3 -->
<g id="edge3_Node000003_Node000003" class="edge">
<title>Node3&#45;&gt;Node3</title>
<g id="a_edge3_Node000003_Node000003"><a xlink:title=" ">
<path fill="none" stroke="#63b8ff" d="M415.17,-194.89C410.93,-198.85 402.25,-201.5 389.12,-201.5 365.8,-201.5 356.5,-193.12 361.24,-183.91"/>
<polygon fill="#63b8ff" stroke="#63b8ff" points="418.56,-195.85 416.76,-185.41 411.66,-194.69 418.56,-195.85"/>
</a>
</g>
</g>
<!-- Node4 -->
<g id="Node000004" class="node">
<title>Node4</title>
<g id="a_Node000004"><a xlink:href="kest__dict__extract_8c.html#ac9cee86a595df863e15b7693b86635b7" target="_top" xlink:title=" ">
<polygon fill="white" stroke="#666666" points="286.25,-135.5 181.75,-135.5 181.75,-102 286.25,-102 286.25,-135.5"/>
<text xml:space="preserve" text-anchor="start" x="189.75" y="-122" font-family="Helvetica,sans-Serif" font-size="10.00">kest_extract_filter</text>
<text xml:space="preserve" text-anchor="middle" x="234" y="-109.25" font-family="Helvetica,sans-Serif" font-size="10.00">_coefs_from_dict</text>
</a>
</g>
</g>
<!-- Node3&#45;&gt;Node4 -->
<g id="edge4_Node000003_Node000004" class="edge">
<title>Node3&#45;&gt;Node4</title>
<g id="a_edge4_Node000003_Node000004"><a xlink:title=" ">
<path fill="none" stroke="#63b8ff" d="M325.55,-147.14C312.58,-143.07 299.05,-138.83 286.53,-134.9"/>
<polygon fill="#63b8ff" stroke="#63b8ff" points="324.25,-150.4 334.84,-150.05 326.34,-143.72 324.25,-150.4"/>
</a>
</g>
</g>
<!-- Node15 -->
<g id="Node000015" class="node">
<title>Node15</title>
<g id="a_Node000015"><a xlink:href="kest__dictionary_8c.html#a8db4f9c511b00d7240052135e9c1ed67" target="_top" xlink:title=" ">
<polygon fill="white" stroke="#666666" points="290,-250.12 178,-250.12 178,-229.38 290,-229.38 290,-250.12"/>
<text xml:space="preserve" text-anchor="middle" x="234" y="-236.62" font-family="Helvetica,sans-Serif" font-size="10.00">kest_parse_dict_list</text>
</a>
</g>
</g>
<!-- Node3&#45;&gt;Node15 -->
<g id="edge7_Node000003_Node000015" class="edge">
<title>Node3&#45;&gt;Node15</title>
<g id="a_edge7_Node000003_Node000015"><a xlink:title=" ">
<path fill="none" stroke="#63b8ff" d="M344.57,-189.11C327.63,-197.64 308,-207.34 290,-215.75 280.47,-220.21 269.9,-224.88 260.59,-228.91"/>
<polygon fill="#63b8ff" stroke="#63b8ff" points="346.03,-192.29 353.38,-184.65 342.87,-186.04 346.03,-192.29"/>
</a>
</g>
</g>
<!-- Node16 -->
<g id="Node000016" class="node">
<title>Node16</title>
<g id="a_Node000016"><a xlink:href="kest__dictionary_8c.html#af0aceaa93cba06fd44ad4bc50f2418e4" target="_top" xlink:title=" ">
<polygon fill="#fff0f0" stroke="red" points="127,-250.12 15,-250.12 15,-229.38 127,-229.38 127,-250.12"/>
<text xml:space="preserve" text-anchor="middle" x="71" y="-236.62" font-family="Helvetica,sans-Serif" font-size="10.00">kest_parse_dict_val</text>
</a>
</g>
</g>
<!-- Node3&#45;&gt;Node16 -->
<g id="edge10_Node000003_Node000016" class="edge">
<title>Node3&#45;&gt;Node16</title>
<g id="a_edge10_Node000003_Node000016"><a xlink:title=" ">
<path fill="none" stroke="#63b8ff" d="M325.29,-181.26C264.5,-195.3 173.74,-216.26 118.97,-228.9"/>
<polygon fill="#63b8ff" stroke="#63b8ff" points="325.85,-184.72 334.8,-179.06 324.27,-177.9 325.85,-184.72"/>
</a>
</g>
</g>
<!-- Node19 -->
<g id="Node000019" class="node">
<title>Node19</title>
<g id="a_Node000019"><a xlink:href="kest__dictionary_8c.html#a2a60847422026db5eab8103cd8ea1dc5" target="_top" xlink:title=" ">
<polygon fill="white" stroke="#666666" points="264.88,-174.12 203.12,-174.12 203.12,-153.38 264.88,-153.38 264.88,-174.12"/>
<text xml:space="preserve" text-anchor="middle" x="234" y="-160.62" font-family="Helvetica,sans-Serif" font-size="10.00">print_dict</text>
</a>
</g>
</g>
<!-- Node3&#45;&gt;Node19 -->
<g id="edge11_Node000003_Node000019" class="edge">
<title>Node3&#45;&gt;Node19</title>
<g id="a_edge11_Node000003_Node000019"><a xlink:title=" ">
<path fill="none" stroke="#63b8ff" d="M325,-165.51C304.38,-165.11 282.41,-164.68 265.34,-164.34"/>
<polygon fill="#63b8ff" stroke="#63b8ff" points="324.7,-169.01 334.77,-165.7 324.84,-162.01 324.7,-169.01"/>
</a>
</g>
</g>
<!-- Node5 -->
<g id="Node000005" class="node">
<title>Node5</title>
<g id="a_Node000005"><a xlink:href="kest__dict__extract_8c.html#ab7acbd0287c39e5bbb08575fa2a61291" target="_top" xlink:title=" ">
<polygon fill="#fff0f0" stroke="red" points="128.12,-85.5 13.88,-85.5 13.88,-52 128.12,-52 128.12,-85.5"/>
<text xml:space="preserve" text-anchor="start" x="21.88" y="-72" font-family="Helvetica,sans-Serif" font-size="10.00">kest_extract_biquad</text>
<text xml:space="preserve" text-anchor="middle" x="71" y="-59.25" font-family="Helvetica,sans-Serif" font-size="10.00">_from_dict</text>
</a>
</g>
</g>
<!-- Node4&#45;&gt;Node5 -->
<g id="edge5_Node000004_Node000005" class="edge">
<title>Node4&#45;&gt;Node5</title>
<g id="a_edge5_Node000004_Node000005"><a xlink:title=" ">
<path fill="none" stroke="#63b8ff" d="M170.85,-99.45C156.52,-95 141.37,-90.29 127.35,-85.94"/>
<polygon fill="#63b8ff" stroke="#63b8ff" points="169.58,-102.72 180.17,-102.34 171.66,-96.03 169.58,-102.72"/>
</a>
</g>
</g>
<!-- Node14 -->
<g id="Node000014" class="node">
<title>Node14</title>
<g id="a_Node000014"><a xlink:href="kest__dict__extract_8c.html#a449de50461a34d20bba301a90a39ec05" target="_top" xlink:title=" ">
<polygon fill="#fff0f0" stroke="red" points="123.25,-137.5 18.75,-137.5 18.75,-104 123.25,-104 123.25,-137.5"/>
<text xml:space="preserve" text-anchor="start" x="26.75" y="-124" font-family="Helvetica,sans-Serif" font-size="10.00">kest_extract_filter</text>
<text xml:space="preserve" text-anchor="middle" x="71" y="-111.25" font-family="Helvetica,sans-Serif" font-size="10.00">_from_dict</text>
</a>
</g>
</g>
<!-- Node4&#45;&gt;Node14 -->
<g id="edge6_Node000004_Node000014" class="edge">
<title>Node4&#45;&gt;Node14</title>
<g id="a_edge6_Node000004_Node000014"><a xlink:title=" ">
<path fill="none" stroke="#63b8ff" d="M170.54,-119.53C155.06,-119.72 138.63,-119.92 123.72,-120.11"/>
<polygon fill="#63b8ff" stroke="#63b8ff" points="170.15,-123.03 180.1,-119.41 170.06,-116.03 170.15,-123.03"/>
</a>
</g>
</g>
<!-- Node15&#45;&gt;Node16 -->
<g id="edge8_Node000015_Node000016" class="edge">
<title>Node15&#45;&gt;Node16</title>
<g id="a_edge8_Node000015_Node000016"><a xlink:title=" ">
<path fill="none" stroke="#63b8ff" d="M166.33,-233.09C153.32,-232.92 139.82,-232.99 127.24,-233.3"/>
<polygon fill="#63b8ff" stroke="#63b8ff" points="166.02,-236.58 176.08,-233.27 166.15,-229.59 166.02,-236.58"/>
</a>
</g>
</g>
<!-- Node16&#45;&gt;Node15 -->
<g id="edge9_Node000016_Node000015" class="edge">
<title>Node16&#45;&gt;Node15</title>
<g id="a_edge9_Node000016_Node000015"><a xlink:title=" ">
<path fill="none" stroke="#63b8ff" d="M138.5,-246.41C151.5,-246.58 165,-246.51 177.59,-246.2"/>
<polygon fill="#63b8ff" stroke="#63b8ff" points="138.81,-242.91 128.75,-246.22 138.68,-249.91 138.81,-242.91"/>
</a>
</g>
</g>
<!-- Node18 -->
<g id="Node000018" class="node">
<title>Node18</title>
<g id="a_Node000018"><a xlink:href="kest__eff__section_8c.html#a4de28fb64398c9194136a2ced71e2795" target="_top" xlink:title=" ">
<polygon fill="#fff0f0" stroke="red" points="132.25,-189.5 9.75,-189.5 9.75,-156 132.25,-156 132.25,-189.5"/>
<text xml:space="preserve" text-anchor="start" x="17.75" y="-176" font-family="Helvetica,sans-Serif" font-size="10.00">kest_parse_dictionary</text>
<text xml:space="preserve" text-anchor="middle" x="71" y="-163.25" font-family="Helvetica,sans-Serif" font-size="10.00">_section</text>
</a>
</g>
</g>
<!-- Node19&#45;&gt;Node18 -->
<g id="edge12_Node000019_Node000018" class="edge">
<title>Node19&#45;&gt;Node18</title>
<g id="a_edge12_Node000019_Node000018"><a xlink:title=" ">
<path fill="none" stroke="#63b8ff" d="M191.46,-166.07C173.51,-167.08 152.15,-168.27 132.49,-169.37"/>
<polygon fill="#63b8ff" stroke="#63b8ff" points="191.42,-169.58 201.21,-165.53 191.03,-162.59 191.42,-169.58"/>
</a>
</g>
</g>
<!-- Node20&#45;&gt;Node5 -->
<g id="edge15_Node000020_Node000005" class="edge">
<title>Node20&#45;&gt;Node5</title>
<g id="a_edge15_Node000020_Node000005"><a xlink:title=" ">
<path fill="none" stroke="#63b8ff" d="M172.12,-70.62C157.81,-70.35 142.61,-70.07 128.49,-69.8"/>
<polygon fill="#63b8ff" stroke="#63b8ff" points="171.8,-74.11 181.87,-70.8 171.93,-67.11 171.8,-74.11"/>
</a>
</g>
</g>
<!-- Node20&#45;&gt;Node14 -->
<g id="edge16_Node000020_Node000014" class="edge">
<title>Node20&#45;&gt;Node14</title>
<g id="a_edge16_Node000020_Node000014"><a xlink:title=" ">
<path fill="none" stroke="#63b8ff" d="M186.41,-85.93C166.72,-91.92 143.71,-98.92 123.52,-105.07"/>
<polygon fill="#63b8ff" stroke="#63b8ff" points="187.27,-89.33 195.82,-83.07 185.24,-82.63 187.27,-89.33"/>
</a>
</g>
</g>
<!-- Node21 -->
<g id="Node000021" class="node">
<title>Node21</title>
<g id="a_Node000021"><a xlink:href="kest__resource_8c.html#ade6c61f0ea389c6775e6a045ff384d5d" target="_top" xlink:title=" ">
<polygon fill="white" stroke="#666666" points="142,-33.5 0,-33.5 0,0 142,0 142,-33.5"/>
<text xml:space="preserve" text-anchor="start" x="8" y="-20" font-family="Helvetica,sans-Serif" font-size="10.00">kest_dsp_resource_create</text>
<text xml:space="preserve" text-anchor="middle" x="71" y="-7.25" font-family="Helvetica,sans-Serif" font-size="10.00">_filter</text>
</a>
</g>
</g>
<!-- Node20&#45;&gt;Node21 -->
<g id="edge14_Node000020_Node000021" class="edge">
<title>Node20&#45;&gt;Node21</title>
<g id="a_edge14_Node000020_Node000021"><a xlink:title=" ">
<path fill="none" stroke="#63b8ff" d="M190.41,-57.2C169.54,-50.07 144.27,-41.44 122.44,-33.98"/>
<polygon fill="#63b8ff" stroke="#63b8ff" points="189.16,-60.47 199.76,-60.39 191.43,-53.85 189.16,-60.47"/>
</a>
</g>
</g>
<!-- Node22&#45;&gt;Node15 -->
<g id="edge18_Node000022_Node000015" class="edge">
<title>Node22&#45;&gt;Node15</title>
<g id="a_edge18_Node000022_Node000015"><a xlink:title=" ">
<path fill="none" stroke="#63b8ff" d="M317.7,-238.13C308.41,-238.31 299.01,-238.5 290.03,-238.67"/>
<polygon fill="#63b8ff" stroke="#63b8ff" points="317.48,-241.63 327.41,-237.94 317.34,-234.64 317.48,-241.63"/>
</a>
</g>
</g>
</g>
</svg>
