<?xml version="1.0" encoding="UTF-8" standalone="no"?>
<!DOCTYPE svg PUBLIC "-//W3C//DTD SVG 1.1//EN"
 "http://www.w3.org/Graphics/SVG/1.1/DTD/svg11.dtd">
<!-- Generated by graphviz version 13.1.2 (20250808.2320)
 -->
<!-- Title: kest_extract_int_setting_from_dict Pages: 1 -->
<svg width="591pt" height="42pt"
 viewBox="0.00 0.00 591.00 42.00" xmlns="http://www.w3.org/2000/svg" xmlns:xlink="http://www.w3.org/1999/xlink">
<g id="graph0" class="graph" transform="scale(1 1) rotate(0) translate(4 37.5)">
<title>kest_extract_int_setting_from_dict</title>
<!-- Node1 -->
<g id="Node000001" class="node">
<title>Node1</title>
<g id="a_Node000001"><a xlink:title=" ">
<polygon fill="#999999" stroke="#666666" points="583,-33.5 450,-33.5 450,0 583,0 583,-33.5"/>
<text xml:space="preserve" text-anchor="start" x="458" y="-20" font-family="Helvetica,sans-Serif" font-size="10.00">kest_extract_int_setting</text>
<text xml:space="preserve" text-anchor="middle" x="516.5" y="-7.25" font-family="Helvetica,sans-Serif" font-size="10.00">_from_dict</text>
</a>
</g>
</g>
<!-- Node2 -->
<g id="Node000002" class="node">
<title>Node2</title>
<g id="a_Node000002"><a xlink:href="kest__dict__extract_8c.html#a0225c4392c944b41b1db66787be35243" target="_top" xlink:title=" ">
<polygon fill="white" stroke="#666666" points="414,-33.5 299,-33.5 299,0 414,0 414,-33.5"/>
<text xml:space="preserve" text-anchor="start" x="307" y="-20" font-family="Helvetica,sans-Serif" font-size="10.00">kest_extract_setting</text>
<text xml:space="preserve" text-anchor="middle" x="356.5" y="-7.25" font-family="Helvetica,sans-Serif" font-size="10.00">_from_dict</text>
</a>
</g>
</g>
<!-- Node1&#45;&gt;Node2 -->
<g id="edge1_Node000001_Node000002" class="edge">
<title>Node1&#45;&gt;Node2</title>
<g id="a_edge1_Node000001_Node000002"><a xlink:title=" ">
<path fill="none" stroke="#63b8ff" d="M438.37,-16.75C430.2,-16.75 422,-16.75 414.13,-16.75"/>
<polygon fill="#63b8ff" stroke="#63b8ff" points="438.35,-20.25 448.35,-16.75 438.35,-13.25 438.35,-20.25"/>
</a>
</g>
</g>
<!-- Node3 -->
<g id="Node000003" class="node">
<title>Node3</title>
<g id="a_Node000003"><a xlink:href="kest__eff__section_8c.html#ac86840256c51c90c1c1066da9b88e7af" target="_top" xlink:title=" ">
<polygon fill="white" stroke="#666666" points="263,-33.5 142,-33.5 142,0 263,0 263,-33.5"/>
<text xml:space="preserve" text-anchor="start" x="150" y="-20" font-family="Helvetica,sans-Serif" font-size="10.00">kest_settings_section</text>
<text xml:space="preserve" text-anchor="middle" x="202.5" y="-7.25" font-family="Helvetica,sans-Serif" font-size="10.00">_extract</text>
</a>
</g>
</g>
<!-- Node2&#45;&gt;Node3 -->
<g id="edge2_Node000002_Node000003" class="edge">
<title>Node2&#45;&gt;Node3</title>
<g id="a_edge2_Node000002_Node000003"><a xlink:title=" ">
<path fill="none" stroke="#63b8ff" d="M287.63,-16.75C279.57,-16.75 271.39,-16.75 263.46,-16.75"/>
<polygon fill="#63b8ff" stroke="#63b8ff" points="287.39,-20.25 297.39,-16.75 287.39,-13.25 287.39,-20.25"/>
</a>
</g>
</g>
<!-- Node4 -->
<g id="Node000004" class="node">
<title>Node4</title>
<g id="a_Node000004"><a xlink:href="kest__eff__parser_8c.html#a73ef6962d1925857ec3e4b12d1aad834" target="_top" xlink:title=" ">
<polygon fill="#fff0f0" stroke="red" points="106,-27.12 0,-27.12 0,-6.38 106,-6.38 106,-27.12"/>
<text xml:space="preserve" text-anchor="middle" x="53" y="-13.62" font-family="Helvetica,sans-Serif" font-size="10.00">kest_parse_tokens</text>
</a>
</g>
</g>
<!-- Node3&#45;&gt;Node4 -->
<g id="edge3_Node000003_Node000004" class="edge">
<title>Node3&#45;&gt;Node4</title>
<g id="a_edge3_Node000003_Node000004"><a xlink:title=" ">
<path fill="none" stroke="#63b8ff" d="M130.21,-16.75C122.17,-16.75 114.1,-16.75 106.37,-16.75"/>
<polygon fill="#63b8ff" stroke="#63b8ff" points="129.99,-20.25 139.99,-16.75 129.99,-13.25 129.99,-20.25"/>
</a>
</g>
</g>
</g>
</svg>
