<?xml version="1.0" encoding="UTF-8" standalone="no"?>
<!DOCTYPE svg PUBLIC "-//W3C//DTD SVG 1.1//EN"
 "http://www.w3.org/Graphics/SVG/1.1/DTD/svg11.dtd">
<!-- Generated by graphviz version 13.1.2 (20250808.2320)
 -->
<!-- Title: app_main Pages: 1 -->
<!--zoomable 1081 -->

<svg id="main" version="1.1" xmlns="http://www.w3.org/2000/svg" xmlns:xlink="http://www.w3.org/1999/xlink" xml:space="preserve" onload="init(evt)">

<style type="text/css"><![CDATA[
.node, .edge {opacity: 0.7;}
.node.selected, .edge.selected {opacity: 1;}
.edge:hover path { stroke: red; }
.edge:hover polygon { stroke: red; fill: red; }
]]></style>

<defs>
  <circle id="rim" cx="0" cy="0" r="7"/>
  <circle id="rim2" cx="0" cy="0" r="3.5"/>
  <g id="zoomPlus">
    <use xlink:href="#rim" fill="#404040"><set attributeName="fill" to="#808080" begin="zoomplus.mouseover" end="zoomplus.mouseout"/></use>
    <path d="M-4,0h8M0,-4v8" fill="none" stroke="white" stroke-width="1.5" pointer-events="none"/>
  </g>
  <g id="zoomMin">
    <use xlink:href="#rim" fill="#404040"><set attributeName="fill" to="#808080" begin="zoomminus.mouseover" end="zoomminus.mouseout"/></use>
    <path d="M-4,0h8" fill="none" stroke="white" stroke-width="1.5" pointer-events="none"/>
  </g>
  <g id="arrowUp" transform="translate(30 24)">
    <use xlink:href="#rim"/>
    <path pointer-events="none" fill="none" stroke="white" stroke-width="1.5" d="M0,-3.0v7 M-2.5,-0.5L0,-3.0L2.5,-0.5"/>
  </g>
  <g id="arrowRight" transform="rotate(90) translate(36 -43)">
    <use xlink:href="#rim"/>
    <path pointer-events="none" fill="none" stroke="white" stroke-width="1.5" d="M0,-3.0v7 M-2.5,-0.5L0,-3.0L2.5,-0.5"/>
  </g>
  <g id="arrowDown" transform="rotate(180) translate(-30 -48)">
    <use xlink:href="#rim"/>
    <path pointer-events="none" fill="none" stroke="white" stroke-width="1.5" d="M0,-3.0v7 M-2.5,-0.5L0,-3.0L2.5,-0.5"/>
  </g>
  <g id="arrowLeft" transform="rotate(270) translate(-36 17)">
    <use xlink:href="#rim"/>
    <path pointer-events="none" fill="none" stroke="white" stroke-width="1.5" d="M0,-3.0v7 M-2.5,-0.5L0,-3.0L2.5,-0.5"/>
  </g>
  <g id="resetDef">
    <use xlink:href="#rim2" fill="#404040"><set attributeName="fill" to="#808080" begin="reset.mouseover" end="reset.mouseout"/></use>
  </g>
</defs>
<script type="application/ecmascript">
var viewWidth = 579;
var viewHeight = 1081;
var sectionId = 'dynsection-0';
</script>
<script type="application/ecmascript" xlink:href="svg.min.js"/>
<svg id="graph" class="graph">
<g id="viewport">
<title>app_main</title>
<!-- Node1 -->
<g id="Node000001" class="node">
<title>Node1</title>
<g id="a_Node000001"><a xlink:title=" ">
<polygon fill="#999999" stroke="#666666" points="64,-499.12 0,-499.12 0,-478.38 64,-478.38 64,-499.12"/>
<text xml:space="preserve" text-anchor="middle" x="32" y="-485.62" font-family="Helvetica,sans-Serif" font-size="10.00">app_main</text>
</a>
</g>
</g>
<!-- Node2 -->
<g id="Node000002" class="node">
<title>Node2</title>
<g id="a_Node000002"><a xlink:href="kest__context_8c.html#a2d01fba6636f3cb4d826ba7a4211158f" target="_top" xlink:title=" ">
<polygon fill="white" stroke="#666666" points="237.88,-1025.12 115.38,-1025.12 115.38,-1004.38 237.88,-1004.38 237.88,-1025.12"/>
<text xml:space="preserve" text-anchor="middle" x="176.62" y="-1011.62" font-family="Helvetica,sans-Serif" font-size="10.00">context_print_profiles</text>
</a>
</g>
</g>
<!-- Node1&#45;&gt;Node2 -->
<g id="edge1_Node000001_Node000002" class="edge">
<title>Node1&#45;&gt;Node2</title>
<g id="a_edge1_Node000001_Node000002"><a xlink:title=" ">
<path fill="none" stroke="#63b8ff" d="M33.58,-499.44C37.05,-560.51 56.36,-865.29 100,-946.75 111.22,-967.7 131.55,-985.41 148.3,-997.51"/>
<polygon fill="#63b8ff" stroke="#63b8ff" points="146.19,-1000.3 156.41,-1003.1 150.17,-994.54 146.19,-1000.3"/>
</a>
</g>
</g>
<!-- Node4 -->
<g id="Node000004" class="node">
<title>Node4</title>
<g id="a_Node000004"><a xlink:href="kest__effect__select_8c.html#a4f784340d1e1e332c60be5a095244ba1" target="_top" xlink:title=" ">
<polygon fill="white" stroke="#666666" points="240.88,-938.12 112.38,-938.12 112.38,-917.38 240.88,-917.38 240.88,-938.12"/>
<text xml:space="preserve" text-anchor="middle" x="176.62" y="-924.62" font-family="Helvetica,sans-Serif" font-size="10.00">init_effect_selector_eff</text>
</a>
</g>
</g>
<!-- Node1&#45;&gt;Node4 -->
<g id="edge3_Node000001_Node000004" class="edge">
<title>Node1&#45;&gt;Node4</title>
<g id="a_edge3_Node000001_Node000004"><a xlink:title=" ">
<path fill="none" stroke="#63b8ff" d="M33.18,-499.27C34.41,-558.03 43.29,-845.06 100,-907.75 100.97,-908.83 102,-909.85 103.07,-910.82"/>
<polygon fill="#63b8ff" stroke="#63b8ff" points="100.65,-913.39 110.81,-916.38 104.73,-907.7 100.65,-913.39"/>
</a>
</g>
</g>
<!-- Node172 -->
<g id="Node000172" class="node">
<title>Node172</title>
<g id="a_Node000172"><a xlink:href="kest__sd_8c.html#a3412367a35f21ef470fd3a2d3c628542" target="_top" xlink:title=" ">
<polygon fill="white" stroke="#666666" points="213.88,-782.12 139.38,-782.12 139.38,-761.38 213.88,-761.38 213.88,-782.12"/>
<text xml:space="preserve" text-anchor="middle" x="176.62" y="-768.62" font-family="Helvetica,sans-Serif" font-size="10.00">init_sd_card</text>
</a>
</g>
</g>
<!-- Node1&#45;&gt;Node172 -->
<g id="edge9_Node000001_Node000172" class="edge">
<title>Node1&#45;&gt;Node172</title>
<g id="a_edge9_Node000001_Node000172"><a xlink:title=" ">
<path fill="none" stroke="#63b8ff" d="M34.28,-499.47C39.84,-544.1 63.19,-714.6 100,-751.75 107.51,-759.33 117.54,-764.14 127.82,-767.17"/>
<polygon fill="#63b8ff" stroke="#63b8ff" points="126.98,-770.56 137.51,-769.45 128.58,-763.75 126.98,-770.56"/>
</a>
</g>
</g>
<!-- Node173 -->
<g id="Node000173" class="node">
<title>Node173</title>
<g id="a_Node000173"><a xlink:href="kest__context_8c.html#aa9e6615b96b5c047fe43c42046d5adc0" target="_top" xlink:title=" ">
<polygon fill="white" stroke="#666666" points="253.25,-743.12 100,-743.12 100,-722.38 253.25,-722.38 253.25,-743.12"/>
<text xml:space="preserve" text-anchor="middle" x="176.62" y="-729.62" font-family="Helvetica,sans-Serif" font-size="10.00">kest_context_init_effect_list</text>
</a>
</g>
</g>
<!-- Node1&#45;&gt;Node173 -->
<g id="edge10_Node000001_Node000173" class="edge">
<title>Node1&#45;&gt;Node173</title>
<g id="a_edge10_Node000001_Node000173"><a xlink:title=" ">
<path fill="none" stroke="#63b8ff" d="M32.78,-499.47C32.66,-535.31 37.31,-652.04 100,-712.75 101.07,-713.79 102.19,-714.77 103.35,-715.71"/>
<polygon fill="#63b8ff" stroke="#63b8ff" points="101.37,-718.6 111.66,-721.12 105.19,-712.73 101.37,-718.6"/>
</a>
</g>
</g>
<!-- Node174 -->
<g id="Node000174" class="node">
<title>Node174</title>
<g id="a_Node000174"><a xlink:href="kest__ui_8c.html#ac4b49754b0a8d3df4343e742d6899872" target="_top" xlink:title=" ">
<polygon fill="white" stroke="#666666" points="219.88,-704.12 133.38,-704.12 133.38,-683.38 219.88,-683.38 219.88,-704.12"/>
<text xml:space="preserve" text-anchor="middle" x="176.62" y="-690.62" font-family="Helvetica,sans-Serif" font-size="10.00">kest_create_ui</text>
</a>
</g>
</g>
<!-- Node1&#45;&gt;Node174 -->
<g id="edge11_Node000001_Node000174" class="edge">
<title>Node1&#45;&gt;Node174</title>
<g id="a_edge11_Node000001_Node000174"><a xlink:title=" ">
<path fill="none" stroke="#63b8ff" d="M33.51,-499.47C35.61,-531.31 46.3,-626.15 100,-674.75 106.35,-680.5 114.18,-684.56 122.37,-687.43"/>
<polygon fill="#63b8ff" stroke="#63b8ff" points="121.22,-690.74 131.8,-690.13 123.15,-684.01 121.22,-690.74"/>
</a>
</g>
</g>
<!-- Node300 -->
<g id="Node000300" class="node">
<title>Node300</title>
<g id="a_Node000300"><a xlink:href="kest__state_8c.html#ad67167136a5f2e68f04622bc4f518b22" target="_top" xlink:title=" ">
<polygon fill="white" stroke="#666666" points="243.88,-665.5 109.38,-665.5 109.38,-632 243.88,-632 243.88,-665.5"/>
<text xml:space="preserve" text-anchor="start" x="117.38" y="-652" font-family="Helvetica,sans-Serif" font-size="10.00">kest_cxt_enter_previous</text>
<text xml:space="preserve" text-anchor="middle" x="176.62" y="-639.25" font-family="Helvetica,sans-Serif" font-size="10.00">_current_page</text>
</a>
</g>
</g>
<!-- Node1&#45;&gt;Node300 -->
<g id="edge15_Node000001_Node000300" class="edge">
<title>Node1&#45;&gt;Node300</title>
<g id="a_edge15_Node000001_Node000300"><a xlink:title=" ">
<path fill="none" stroke="#63b8ff" d="M35.41,-499.5C41.61,-524.72 60.47,-588.14 100,-622.75 101.09,-623.7 102.21,-624.62 103.37,-625.5"/>
<polygon fill="#63b8ff" stroke="#63b8ff" points="101.22,-628.28 111.5,-630.82 105.05,-622.42 101.22,-628.28"/>
</a>
</g>
</g>
<!-- Node308 -->
<g id="Node000308" class="node">
<title>Node308</title>
<g id="a_Node000308"><a xlink:href="kest__state_8c.html#ab26da214ed0f9d143d63e80a7012796b" target="_top" xlink:title=" ">
<polygon fill="white" stroke="#666666" points="239.75,-614.12 113.5,-614.12 113.5,-593.38 239.75,-593.38 239.75,-614.12"/>
<text xml:space="preserve" text-anchor="middle" x="176.62" y="-600.62" font-family="Helvetica,sans-Serif" font-size="10.00">kest_cxt_restore_state</text>
</a>
</g>
</g>
<!-- Node1&#45;&gt;Node308 -->
<g id="edge19_Node000001_Node000308" class="edge">
<title>Node1&#45;&gt;Node308</title>
<g id="a_edge19_Node000001_Node000308"><a xlink:title=" ">
<path fill="none" stroke="#63b8ff" d="M38.02,-499.45C47.47,-518.43 69.7,-558.04 100,-579.75 104.71,-583.12 109.91,-586.04 115.32,-588.55"/>
<polygon fill="#63b8ff" stroke="#63b8ff" points="113.91,-591.75 124.49,-592.33 116.57,-585.28 113.91,-591.75"/>
</a>
</g>
</g>
<!-- Node50 -->
<g id="Node000050" class="node">
<title>Node50</title>
<g id="a_Node000050"><a xlink:href="kest__error__codes_8c.html#a0f4c77127bc0b77264a21104979c576a" target="_top" xlink:title=" ">
<polygon fill="white" stroke="#666666" points="413.25,-459.5 305,-459.5 305,-426 413.25,-426 413.25,-459.5"/>
<text xml:space="preserve" text-anchor="start" x="313" y="-446" font-family="Helvetica,sans-Serif" font-size="10.00">kest_error_code_to</text>
<text xml:space="preserve" text-anchor="middle" x="359.12" y="-433.25" font-family="Helvetica,sans-Serif" font-size="10.00">_string</text>
</a>
</g>
</g>
<!-- Node1&#45;&gt;Node50 -->
<g id="edge24_Node000001_Node000050" class="edge">
<title>Node1&#45;&gt;Node50</title>
<g id="a_edge24_Node000001_Node000050"><a xlink:title=" ">
<path fill="none" stroke="#63b8ff" d="M41.11,-499.43C52.47,-513.43 74.63,-537.29 100,-546.75 163.82,-570.54 195.88,-583.46 253.25,-546.75 285.41,-526.17 261.3,-494.77 289.25,-468.75 291.11,-467.02 293.1,-465.4 295.19,-463.88"/>
<polygon fill="#63b8ff" stroke="#63b8ff" points="296.91,-466.93 303.56,-458.68 293.22,-460.98 296.91,-466.93"/>
</a>
</g>
</g>
<!-- Node311 -->
<g id="Node000311" class="node">
<title>Node311</title>
<g id="a_Node000311"><a xlink:href="kest__fpga__comms_8c.html#a8f850777494bb4c4d61df3efbf31ca7c" target="_top" xlink:title=" ">
<polygon fill="#fff0f0" stroke="red" points="242,-499.12 111.25,-499.12 111.25,-478.38 242,-478.38 242,-499.12"/>
<text xml:space="preserve" text-anchor="middle" x="176.62" y="-485.62" font-family="Helvetica,sans-Serif" font-size="10.00">kest_fpga_comms_task</text>
</a>
</g>
</g>
<!-- Node1&#45;&gt;Node311 -->
<g id="edge25_Node000001_Node000311" class="edge">
<title>Node1&#45;&gt;Node311</title>
<g id="a_edge25_Node000001_Node000311"><a xlink:title=" ">
<path fill="none" stroke="#63b8ff" d="M64.3,-488.75C74.78,-488.75 86.97,-488.75 99.37,-488.75"/>
<polygon fill="#63b8ff" stroke="#63b8ff" points="99.24,-492.25 109.24,-488.75 99.24,-485.25 99.24,-492.25"/>
</a>
</g>
</g>
<!-- Node328 -->
<g id="Node000328" class="node">
<title>Node328</title>
<g id="a_Node000328"><a xlink:href="kest__context_8c.html#a8d785a89178c048ac11ee14f2a659993" target="_top" xlink:title=" ">
<polygon fill="#fff0f0" stroke="red" points="226.25,-460.12 127,-460.12 127,-439.38 226.25,-439.38 226.25,-460.12"/>
<text xml:space="preserve" text-anchor="middle" x="176.62" y="-446.62" font-family="Helvetica,sans-Serif" font-size="10.00">kest_init_context</text>
</a>
</g>
</g>
<!-- Node1&#45;&gt;Node328 -->
<g id="edge26_Node000001_Node000328" class="edge">
<title>Node1&#45;&gt;Node328</title>
<g id="a_edge26_Node000001_Node000328"><a xlink:title=" ">
<path fill="none" stroke="#63b8ff" d="M64.33,-479.74C75.56,-476.54 88.34,-472.95 100,-469.75 107.39,-467.72 115.2,-465.62 122.88,-463.57"/>
<polygon fill="#63b8ff" stroke="#63b8ff" points="123.75,-466.96 132.52,-461.01 121.96,-460.19 123.75,-466.96"/>
</a>
</g>
</g>
<!-- Node337 -->
<g id="Node000337" class="node">
<title>Node337</title>
<g id="a_Node000337"><a xlink:href="kest__files_8c.html#a7a95a25dc61dcf2a435f45a67fcd08c7" target="_top" xlink:title=" ">
<polygon fill="white" stroke="#666666" points="233.75,-421.12 119.5,-421.12 119.5,-400.38 233.75,-400.38 233.75,-421.12"/>
<text xml:space="preserve" text-anchor="middle" x="176.62" y="-407.62" font-family="Helvetica,sans-Serif" font-size="10.00">kest_init_directories</text>
</a>
</g>
</g>
<!-- Node1&#45;&gt;Node337 -->
<g id="edge27_Node000001_Node000337" class="edge">
<title>Node1&#45;&gt;Node337</title>
<g id="a_edge27_Node000001_Node000337"><a xlink:title=" ">
<path fill="none" stroke="#63b8ff" d="M42.35,-478.11C54.4,-465.04 76.6,-443.11 100,-430.75 103.7,-428.8 107.6,-427.02 111.61,-425.41"/>
<polygon fill="#63b8ff" stroke="#63b8ff" points="112.74,-428.73 120.96,-422.05 110.37,-422.14 112.74,-428.73"/>
</a>
</g>
</g>
<!-- Node338 -->
<g id="Node000338" class="node">
<title>Node338</title>
<g id="a_Node000338"><a xlink:href="kest__ui_8c.html#ab1be7d2981c922ebe8d714f9af0f600d" target="_top" xlink:title=" ">
<polygon fill="#fff0f0" stroke="red" points="240.12,-382.12 113.12,-382.12 113.12,-361.38 240.12,-361.38 240.12,-382.12"/>
<text xml:space="preserve" text-anchor="middle" x="176.62" y="-368.62" font-family="Helvetica,sans-Serif" font-size="10.00">kest_init_global_pages</text>
</a>
</g>
</g>
<!-- Node1&#45;&gt;Node338 -->
<g id="edge28_Node000001_Node000338" class="edge">
<title>Node1&#45;&gt;Node338</title>
<g id="a_edge28_Node000001_Node000338"><a xlink:title=" ">
<path fill="none" stroke="#63b8ff" d="M37.3,-478.14C46.01,-458.06 67.68,-414.46 100,-391.75 102.33,-390.11 104.79,-388.61 107.34,-387.22"/>
<polygon fill="#63b8ff" stroke="#63b8ff" points="108.58,-390.51 116.17,-383.12 105.63,-384.16 108.58,-390.51"/>
</a>
</g>
</g>
<!-- Node371 -->
<g id="Node000371" class="node">
<title>Node371</title>
<g id="a_Node000371"><a xlink:href="kest__lv__log_8h.html#a7d096bb8fa5e1146bfdcf8c0dc3ba179" target="_top" xlink:title=" ">
<polygon fill="white" stroke="#666666" points="215.38,-343.12 137.88,-343.12 137.88,-322.38 215.38,-322.38 215.38,-343.12"/>
<text xml:space="preserve" text-anchor="middle" x="176.62" y="-329.62" font-family="Helvetica,sans-Serif" font-size="10.00">kest_log_init</text>
</a>
</g>
</g>
<!-- Node1&#45;&gt;Node371 -->
<g id="edge29_Node000001_Node000371" class="edge">
<title>Node1&#45;&gt;Node371</title>
<g id="a_edge29_Node000001_Node000371"><a xlink:title=" ">
<path fill="none" stroke="#63b8ff" d="M35.11,-478.03C40.75,-452.28 58.65,-386.59 100,-352.75 107.71,-346.44 117.22,-342.1 126.85,-339.13"/>
<polygon fill="#63b8ff" stroke="#63b8ff" points="127.43,-342.59 136.24,-336.69 125.68,-335.82 127.43,-342.59"/>
</a>
</g>
</g>
<!-- Node372 -->
<g id="Node000372" class="node">
<title>Node372</title>
<g id="a_Node000372"><a xlink:href="kest__lv__log_8h.html#a52402185c5c87c102372d01137d19fd0" target="_top" xlink:title=" ">
<polygon fill="white" stroke="#666666" points="220.25,-304.12 133,-304.12 133,-283.38 220.25,-283.38 220.25,-304.12"/>
<text xml:space="preserve" text-anchor="middle" x="176.62" y="-290.62" font-family="Helvetica,sans-Serif" font-size="10.00">kest_lv_log_cb</text>
</a>
</g>
</g>
<!-- Node1&#45;&gt;Node372 -->
<g id="edge30_Node000001_Node000372" class="edge">
<title>Node1&#45;&gt;Node372</title>
<g id="a_edge30_Node000001_Node000372"><a xlink:title=" ">
<path fill="none" stroke="#63b8ff" d="M33.79,-478.25C36.65,-447.92 49.18,-359.4 100,-313.75 106.18,-308.2 113.73,-304.16 121.64,-301.22"/>
<polygon fill="#63b8ff" stroke="#63b8ff" points="122.57,-304.6 131.1,-298.31 120.51,-297.91 122.57,-304.6"/>
</a>
</g>
</g>
<!-- Node373 -->
<g id="Node000373" class="node">
<title>Node373</title>
<g id="a_Node000373"><a xlink:href="kest__alloc_8c.html#aa0e80da4e1c1ccbe3a4c3f2eb56c4d3c" target="_top" xlink:title=" ">
<polygon fill="#fff0f0" stroke="red" points="220.62,-265.12 132.62,-265.12 132.62,-244.38 220.62,-244.38 220.62,-265.12"/>
<text xml:space="preserve" text-anchor="middle" x="176.62" y="-251.62" font-family="Helvetica,sans-Serif" font-size="10.00">kest_mem_init</text>
</a>
</g>
</g>
<!-- Node1&#45;&gt;Node373 -->
<g id="edge31_Node000001_Node000373" class="edge">
<title>Node1&#45;&gt;Node373</title>
<g id="a_edge31_Node000001_Node000373"><a xlink:title=" ">
<path fill="none" stroke="#63b8ff" d="M32.96,-478.01C33.42,-443.18 39.78,-332.32 100,-274.75 106.01,-269.01 113.46,-264.87 121.33,-261.89"/>
<polygon fill="#63b8ff" stroke="#63b8ff" points="122.26,-265.27 130.77,-258.96 120.19,-258.58 122.26,-265.27"/>
</a>
</g>
</g>
<!-- Node376 -->
<g id="Node000376" class="node">
<title>Node376</title>
<g id="a_Node000376"><a xlink:href="kest__param__update_8h.html#ac2a1db74cfea4a032b83a22f45e2a69f" target="_top" xlink:title=" ">
<polygon fill="white" stroke="#666666" points="245.75,-226.12 107.5,-226.12 107.5,-205.38 245.75,-205.38 245.75,-226.12"/>
<text xml:space="preserve" text-anchor="middle" x="176.62" y="-212.62" font-family="Helvetica,sans-Serif" font-size="10.00">kest_param_update_task</text>
</a>
</g>
</g>
<!-- Node1&#45;&gt;Node376 -->
<g id="edge32_Node000001_Node000376" class="edge">
<title>Node1&#45;&gt;Node376</title>
<g id="a_edge32_Node000001_Node000376"><a xlink:title=" ">
<path fill="none" stroke="#63b8ff" d="M34.38,-478.14C40.25,-434.74 64.41,-271.33 100,-235.75 101.03,-234.72 102.1,-233.75 103.21,-232.82"/>
<polygon fill="#63b8ff" stroke="#63b8ff" points="104.84,-235.95 111.19,-227.47 100.93,-230.14 104.84,-235.95"/>
</a>
</g>
</g>
<!-- Node353 -->
<g id="Node000353" class="node">
<title>Node353</title>
<g id="a_Node000353"><a xlink:href="kest__printf_8c.html#a302714171dfa950e18d9a951bdab4105" target="_top" xlink:title=" ">
<polygon fill="white" stroke="#666666" points="393,-169.12 325.25,-169.12 325.25,-148.38 393,-148.38 393,-169.12"/>
<text xml:space="preserve" text-anchor="middle" x="359.12" y="-155.62" font-family="Helvetica,sans-Serif" font-size="10.00">kest_printf</text>
</a>
</g>
</g>
<!-- Node1&#45;&gt;Node353 -->
<g id="edge33_Node000001_Node000353" class="edge">
<title>Node1&#45;&gt;Node353</title>
<g id="a_edge33_Node000001_Node000353"><a xlink:title=" ">
<path fill="none" stroke="#63b8ff" d="M33.87,-478.06C38,-430.19 57.21,-236.27 100,-196.75 130.29,-168.77 248.06,-161.37 313.55,-159.43"/>
<polygon fill="#63b8ff" stroke="#63b8ff" points="313.34,-162.93 323.24,-159.17 313.15,-155.94 313.34,-162.93"/>
</a>
</g>
</g>
<!-- Node377 -->
<g id="Node000377" class="node">
<title>Node377</title>
<g id="a_Node000377"><a xlink:href="kest__printf_8c.html#a745e9edc5a495f2fbd52a34a86d71c1b" target="_top" xlink:title=" ">
<polygon fill="white" stroke="#666666" points="221,-111.12 132.25,-111.12 132.25,-90.38 221,-90.38 221,-111.12"/>
<text xml:space="preserve" text-anchor="middle" x="176.62" y="-97.62" font-family="Helvetica,sans-Serif" font-size="10.00">kest_printf_init</text>
</a>
</g>
</g>
<!-- Node1&#45;&gt;Node377 -->
<g id="edge34_Node000001_Node000377" class="edge">
<title>Node1&#45;&gt;Node377</title>
<g id="a_edge34_Node000001_Node000377"><a xlink:title=" ">
<path fill="none" stroke="#63b8ff" d="M33.44,-478.1C35.92,-423.45 49.86,-174.99 100,-120.75 105.7,-114.58 113.07,-110.22 120.96,-107.17"/>
<polygon fill="#63b8ff" stroke="#63b8ff" points="121.98,-110.51 130.49,-104.2 119.9,-103.83 121.98,-110.51"/>
</a>
</g>
</g>
<!-- Node378 -->
<g id="Node000378" class="node">
<title>Node378</title>
<g id="a_Node000378"><a xlink:href="kest__sgtl5000_8c.html#ab1fee6b32d3be05247ada395bd60915b" target="_top" xlink:title=" ">
<polygon fill="#fff0f0" stroke="red" points="228.88,-150.12 124.38,-150.12 124.38,-129.38 228.88,-129.38 228.88,-150.12"/>
<text xml:space="preserve" text-anchor="middle" x="176.62" y="-136.62" font-family="Helvetica,sans-Serif" font-size="10.00">kest_sgtl5000_init</text>
</a>
</g>
</g>
<!-- Node1&#45;&gt;Node378 -->
<g id="edge35_Node000001_Node000378" class="edge">
<title>Node1&#45;&gt;Node378</title>
<g id="a_edge35_Node000001_Node000378"><a xlink:title=" ">
<path fill="none" stroke="#63b8ff" d="M33.77,-478.06C37.65,-427.42 56.52,-212.01 100,-163.75 103.93,-159.38 108.66,-155.81 113.79,-152.88"/>
<polygon fill="#63b8ff" stroke="#63b8ff" points="115.18,-156.09 122.72,-148.65 112.19,-149.77 115.18,-156.09"/>
</a>
</g>
</g>
<!-- Node388 -->
<g id="Node000388" class="node">
<title>Node388</title>
<g id="a_Node000388"><a xlink:href="kest__files_8c.html#abd963628acfd524509956fff3c5f498c" target="_top" xlink:title=" ">
<polygon fill="#fff0f0" stroke="red" points="214.62,-538.12 138.62,-538.12 138.62,-517.38 214.62,-517.38 214.62,-538.12"/>
<text xml:space="preserve" text-anchor="middle" x="176.62" y="-524.62" font-family="Helvetica,sans-Serif" font-size="10.00">load_effects</text>
</a>
</g>
</g>
<!-- Node1&#45;&gt;Node388 -->
<g id="edge37_Node000001_Node000388" class="edge">
<title>Node1&#45;&gt;Node388</title>
<g id="a_edge37_Node000001_Node000388"><a xlink:title=" ">
<path fill="none" stroke="#63b8ff" d="M64.33,-497.76C75.56,-500.96 88.34,-504.55 100,-507.75 108.85,-510.17 118.29,-512.71 127.4,-515.13"/>
<polygon fill="#63b8ff" stroke="#63b8ff" points="126.25,-518.45 136.82,-517.63 128.04,-511.68 126.25,-518.45"/>
</a>
</g>
</g>
<!-- Node533 -->
<g id="Node000533" class="node">
<title>Node533</title>
<g id="a_Node000533"><a xlink:href="kest__files_8c.html#a9a8521ad7db2dd3514b6ece8c4d6d787" target="_top" xlink:title=" ">
<polygon fill="#fff0f0" stroke="red" points="233.38,-899.12 119.88,-899.12 119.88,-878.38 233.38,-878.38 233.38,-899.12"/>
<text xml:space="preserve" text-anchor="middle" x="176.62" y="-885.62" font-family="Helvetica,sans-Serif" font-size="10.00">load_saved_profiles</text>
</a>
</g>
</g>
<!-- Node1&#45;&gt;Node533 -->
<g id="edge39_Node000001_Node000533" class="edge">
<title>Node1&#45;&gt;Node533</title>
<g id="a_edge39_Node000001_Node000533"><a xlink:title=" ">
<path fill="none" stroke="#63b8ff" d="M33.37,-499.38C35.55,-555.03 48.31,-812.53 100,-868.75 102.75,-871.74 105.89,-874.3 109.29,-876.5"/>
<polygon fill="#63b8ff" stroke="#63b8ff" points="107.62,-879.58 118.11,-881.07 110.84,-873.37 107.62,-879.58"/>
</a>
</g>
</g>
<!-- Node539 -->
<g id="Node000539" class="node">
<title>Node539</title>
<g id="a_Node000539"><a xlink:href="kest__files_8c.html#a2b0f0df900e064b3a42198050e150084" target="_top" xlink:title=" ">
<polygon fill="#fff0f0" stroke="red" points="240.88,-860.12 112.38,-860.12 112.38,-839.38 240.88,-839.38 240.88,-860.12"/>
<text xml:space="preserve" text-anchor="middle" x="176.62" y="-846.62" font-family="Helvetica,sans-Serif" font-size="10.00">load_saved_sequences</text>
</a>
</g>
</g>
<!-- Node1&#45;&gt;Node539 -->
<g id="edge41_Node000001_Node000539" class="edge">
<title>Node1&#45;&gt;Node539</title>
<g id="a_edge41_Node000001_Node000539"><a xlink:title=" ">
<path fill="none" stroke="#63b8ff" d="M33.6,-499.3C36.78,-551.32 53.27,-779.9 100,-829.75 100.99,-830.81 102.03,-831.81 103.12,-832.77"/>
<polygon fill="#63b8ff" stroke="#63b8ff" points="100.75,-835.38 110.94,-838.26 104.77,-829.65 100.75,-835.38"/>
</a>
</g>
</g>
<!-- Node543 -->
<g id="Node000543" class="node">
<title>Node543</title>
<g id="a_Node000543"><a xlink:href="kest__files_8c.html#a70d3333ed52be1c6b2967d18b2c09bfa" target="_top" xlink:title=" ">
<polygon fill="#fff0f0" stroke="red" points="234.88,-821.12 118.38,-821.12 118.38,-800.38 234.88,-800.38 234.88,-821.12"/>
<text xml:space="preserve" text-anchor="middle" x="176.62" y="-807.62" font-family="Helvetica,sans-Serif" font-size="10.00">load_state_from_file</text>
</a>
</g>
</g>
<!-- Node1&#45;&gt;Node543 -->
<g id="edge43_Node000001_Node000543" class="edge">
<title>Node1&#45;&gt;Node543</title>
<g id="a_edge43_Node000001_Node000543"><a xlink:title=" ">
<path fill="none" stroke="#63b8ff" d="M33.9,-499.37C38.2,-547.8 58.24,-747.27 100,-790.75 102.46,-793.31 105.21,-795.56 108.16,-797.53"/>
<polygon fill="#63b8ff" stroke="#63b8ff" points="106.37,-800.54 116.83,-802.2 109.69,-794.38 106.37,-800.54"/>
</a>
</g>
</g>
<!-- Node375 -->
<g id="Node000375" class="node">
<title>Node375</title>
<g id="a_Node000375"><a xlink:href="kest__alloc_8c.html#a78465771e821845999fad24dca873c9a" target="_top" xlink:title=" ">
<polygon fill="white" stroke="#666666" points="236.38,-72.12 116.88,-72.12 116.88,-51.38 236.38,-51.38 236.38,-72.12"/>
<text xml:space="preserve" text-anchor="middle" x="176.62" y="-58.62" font-family="Helvetica,sans-Serif" font-size="10.00">print_memory_report</text>
</a>
</g>
</g>
<!-- Node1&#45;&gt;Node375 -->
<g id="edge45_Node000001_Node000375" class="edge">
<title>Node1&#45;&gt;Node375</title>
<g id="a_edge45_Node000001_Node000375"><a xlink:title=" ">
<path fill="none" stroke="#63b8ff" d="M33.24,-478.15C34.75,-420.22 44.85,-142.43 100,-81.75 102,-79.55 104.21,-77.58 106.58,-75.82"/>
<polygon fill="#63b8ff" stroke="#63b8ff" points="108.28,-78.88 115.1,-70.77 104.71,-72.86 108.28,-78.88"/>
</a>
</g>
</g>
<!-- Node544 -->
<g id="Node000544" class="node">
<title>Node544</title>
<g id="a_Node000544"><a xlink:href="waveshare__dsi__touch__5__a_8c.html#ab695eb7d2c11318b4de2ee677d918255" target="_top" xlink:title=" ">
<polygon fill="white" stroke="#666666" points="237.12,-33.5 116.12,-33.5 116.12,0 237.12,0 237.12,-33.5"/>
<text xml:space="preserve" text-anchor="start" x="124.12" y="-20" font-family="Helvetica,sans-Serif" font-size="10.00">waveshare_dsi_touch</text>
<text xml:space="preserve" text-anchor="middle" x="176.62" y="-7.25" font-family="Helvetica,sans-Serif" font-size="10.00">_5_a_init</text>
</a>
</g>
</g>
<!-- Node1&#45;&gt;Node544 -->
<g id="edge46_Node000001_Node000544" class="edge">
<title>Node1&#45;&gt;Node544</title>
<g id="a_edge46_Node000001_Node000544"><a xlink:title=" ">
<path fill="none" stroke="#63b8ff" d="M33.15,-478.02C34.21,-416.81 42.38,-111.94 100,-42.75 101.9,-40.46 104.02,-38.38 106.3,-36.47"/>
<polygon fill="#63b8ff" stroke="#63b8ff" points="108.25,-39.38 114.54,-30.86 104.31,-33.6 108.25,-39.38"/>
</a>
</g>
</g>
<!-- Node3 -->
<g id="Node000003" class="node">
<title>Node3</title>
<g id="a_Node000003"><a xlink:href="kest__effect_8c.html#a8f53e22436efdc0e494b297ea09db5eb" target="_top" xlink:title=" ">
<polygon fill="white" stroke="#666666" points="410.62,-1073.12 307.62,-1073.12 307.62,-1052.38 410.62,-1052.38 410.62,-1073.12"/>
<text xml:space="preserve" text-anchor="middle" x="359.12" y="-1059.62" font-family="Helvetica,sans-Serif" font-size="10.00">kest_effect_name</text>
</a>
</g>
</g>
<!-- Node2&#45;&gt;Node3 -->
<g id="edge2_Node000002_Node000003" class="edge">
<title>Node2&#45;&gt;Node3</title>
<g id="a_edge2_Node000002_Node000003"><a xlink:title=" ">
<path fill="none" stroke="#63b8ff" d="M218.13,-1025.52C244.28,-1032.48 278.54,-1041.59 306.62,-1049.05"/>
<polygon fill="#63b8ff" stroke="#63b8ff" points="305.41,-1052.35 315.98,-1051.54 307.21,-1045.59 305.41,-1052.35"/>
</a>
</g>
</g>
<!-- Node5 -->
<g id="Node000005" class="node">
<title>Node5</title>
<g id="a_Node000005"><a xlink:href="kest__effect__select_8c.html#af5e1f2ec64c8c42ed66a3bc39c7411eb" target="_top" xlink:title=" ">
<polygon fill="#fff0f0" stroke="red" points="421.5,-1034.5 296.75,-1034.5 296.75,-1001 421.5,-1001 421.5,-1034.5"/>
<text xml:space="preserve" text-anchor="start" x="304.75" y="-1021" font-family="Helvetica,sans-Serif" font-size="10.00">create_effect_selector</text>
<text xml:space="preserve" text-anchor="middle" x="359.12" y="-1008.25" font-family="Helvetica,sans-Serif" font-size="10.00">_ui_eff</text>
</a>
</g>
</g>
<!-- Node4&#45;&gt;Node5 -->
<g id="edge4_Node000004_Node000005" class="edge">
<title>Node4&#45;&gt;Node5</title>
<g id="a_edge4_Node000004_Node000005"><a xlink:title=" ">
<path fill="none" stroke="#63b8ff" d="M194.57,-938.61C216.06,-952.1 254.5,-975.36 289.25,-991.75 292.39,-993.23 295.63,-994.69 298.92,-996.11"/>
<polygon fill="#63b8ff" stroke="#63b8ff" points="297.57,-999.34 308.15,-999.95 300.26,-992.88 297.57,-999.34"/>
</a>
</g>
</g>
<!-- Node169 -->
<g id="Node000169" class="node">
<title>Node169</title>
<g id="a_Node000169"><a xlink:href="kest__effect__select_8c.html#a561886dfef79c8a41b80cf6da53887f6" target="_top" xlink:title=" ">
<polygon fill="white" stroke="#666666" points="418.88,-983.12 299.38,-983.12 299.38,-962.38 418.88,-962.38 418.88,-983.12"/>
<text xml:space="preserve" text-anchor="middle" x="359.12" y="-969.62" font-family="Helvetica,sans-Serif" font-size="10.00">enter_effect_selector</text>
</a>
</g>
</g>
<!-- Node4&#45;&gt;Node169 -->
<g id="edge5_Node000004_Node000169" class="edge">
<title>Node4&#45;&gt;Node169</title>
<g id="a_edge5_Node000004_Node000169"><a xlink:title=" ">
<path fill="none" stroke="#63b8ff" d="M220.86,-938.53C245.68,-944.72 277.09,-952.55 303.59,-959.15"/>
<polygon fill="#63b8ff" stroke="#63b8ff" points="302.6,-962.51 313.15,-961.54 304.29,-955.72 302.6,-962.51"/>
</a>
</g>
</g>
<!-- Node170 -->
<g id="Node000170" class="node">
<title>Node170</title>
<g id="a_Node000170"><a xlink:href="kest__effect__select_8c.html#acd02f7ed00bcc8462f330064ba42b495" target="_top" xlink:title=" ">
<polygon fill="white" stroke="#666666" points="416.62,-944.5 301.62,-944.5 301.62,-911 416.62,-911 416.62,-944.5"/>
<text xml:space="preserve" text-anchor="start" x="309.62" y="-931" font-family="Helvetica,sans-Serif" font-size="10.00">init_effect_selector</text>
<text xml:space="preserve" text-anchor="middle" x="359.12" y="-918.25" font-family="Helvetica,sans-Serif" font-size="10.00">_button_from_effect</text>
</a>
</g>
</g>
<!-- Node4&#45;&gt;Node170 -->
<g id="edge6_Node000004_Node000170" class="edge">
<title>Node4&#45;&gt;Node170</title>
<g id="a_edge6_Node000004_Node000170"><a xlink:title=" ">
<path fill="none" stroke="#63b8ff" d="M241.26,-927.75C257.03,-927.75 273.98,-927.75 289.95,-927.75"/>
<polygon fill="#63b8ff" stroke="#63b8ff" points="289.86,-931.25 299.86,-927.75 289.86,-924.25 289.86,-931.25"/>
</a>
</g>
</g>
<!-- Node171 -->
<g id="Node000171" class="node">
<title>Node171</title>
<g id="a_Node000171"><a xlink:href="kest__ui_8c.html#aa35b25eb0a8f315343a7ea5190b0163b" target="_top" xlink:title=" ">
<polygon fill="white" stroke="#666666" points="396.75,-893.12 321.5,-893.12 321.5,-872.38 396.75,-872.38 396.75,-893.12"/>
<text xml:space="preserve" text-anchor="middle" x="359.12" y="-879.62" font-family="Helvetica,sans-Serif" font-size="10.00">init_ui_page</text>
</a>
</g>
</g>
<!-- Node4&#45;&gt;Node171 -->
<g id="edge7_Node000004_Node000171" class="edge">
<title>Node4&#45;&gt;Node171</title>
<g id="a_edge7_Node000004_Node000171"><a xlink:title=" ">
<path fill="none" stroke="#63b8ff" d="M220.86,-916.97C247.72,-910.28 282.28,-901.66 310.01,-894.75"/>
<polygon fill="#63b8ff" stroke="#63b8ff" points="310.72,-898.18 319.57,-892.36 309.02,-891.38 310.72,-898.18"/>
</a>
</g>
</g>
<!-- Node40 -->
<g id="Node000040" class="node">
<title>Node40</title>
<g id="a_Node000040"><a xlink:href="kest__alloc_8c.html#a849755c5dc5b35e712ffcdb602e50fb4" target="_top" xlink:title=" ">
<polygon fill="white" stroke="#666666" points="391.5,-854.12 326.75,-854.12 326.75,-833.38 391.5,-833.38 391.5,-854.12"/>
<text xml:space="preserve" text-anchor="middle" x="359.12" y="-840.62" font-family="Helvetica,sans-Serif" font-size="10.00">kest_alloc</text>
</a>
</g>
</g>
<!-- Node4&#45;&gt;Node40 -->
<g id="edge8_Node000004_Node000040" class="edge">
<title>Node4&#45;&gt;Node40</title>
<g id="a_edge8_Node000004_Node000040"><a xlink:title=" ">
<path fill="none" stroke="#63b8ff" d="M234.63,-916.88C241.18,-914.43 247.54,-911.42 253.25,-907.75 274.5,-894.08 268.17,-877.68 289.25,-863.75 297.15,-858.53 306.44,-854.64 315.59,-851.76"/>
<polygon fill="#63b8ff" stroke="#63b8ff" points="316.42,-855.17 325.13,-849.13 314.56,-848.42 316.42,-855.17"/>
</a>
</g>
</g>
<!-- Node175 -->
<g id="Node000175" class="node">
<title>Node175</title>
<g id="a_Node000175"><a xlink:href="kest__sequence__list_8c.html#ae60870bb862edfc5b0a45344c20b152f" target="_top" xlink:title=" ">
<polygon fill="#fff0f0" stroke="red" points="426,-782.12 292.25,-782.12 292.25,-761.38 426,-761.38 426,-782.12"/>
<text xml:space="preserve" text-anchor="middle" x="359.12" y="-768.62" font-family="Helvetica,sans-Serif" font-size="10.00">configure_sequence_list</text>
</a>
</g>
</g>
<!-- Node174&#45;&gt;Node175 -->
<g id="edge12_Node000174_Node000175" class="edge">
<title>Node174&#45;&gt;Node175</title>
<g id="a_edge12_Node000174_Node000175"><a xlink:title=" ">
<path fill="none" stroke="#63b8ff" d="M220.09,-700.61C231.37,-703.58 243.21,-707.79 253.25,-713.75 273.26,-725.62 269.39,-739.64 289.25,-751.75 292.19,-753.54 295.29,-755.18 298.49,-756.67"/>
<polygon fill="#63b8ff" stroke="#63b8ff" points="296.98,-759.83 307.56,-760.4 299.64,-753.36 296.98,-759.83"/>
</a>
</g>
</g>
<!-- Node298 -->
<g id="Node000298" class="node">
<title>Node298</title>
<g id="a_Node000298"><a xlink:href="kest__ui_8c.html#afbe4096c7ee75eb4368161945403d399" target="_top" xlink:title=" ">
<polygon fill="white" stroke="#666666" points="411.75,-743.12 306.5,-743.12 306.5,-722.38 411.75,-722.38 411.75,-743.12"/>
<text xml:space="preserve" text-anchor="middle" x="359.12" y="-729.62" font-family="Helvetica,sans-Serif" font-size="10.00">configure_ui_page</text>
</a>
</g>
</g>
<!-- Node174&#45;&gt;Node298 -->
<g id="edge13_Node000174_Node000298" class="edge">
<title>Node174&#45;&gt;Node298</title>
<g id="a_edge13_Node000174_Node000298"><a xlink:title=" ">
<path fill="none" stroke="#63b8ff" d="M219.94,-702.89C242.91,-707.86 271.71,-714.08 297.06,-719.56"/>
<polygon fill="#63b8ff" stroke="#63b8ff" points="296.07,-722.92 306.58,-721.61 297.54,-716.08 296.07,-722.92"/>
</a>
</g>
</g>
<!-- Node299 -->
<g id="Node000299" class="node">
<title>Node299</title>
<g id="a_Node000299"><a xlink:href="kest__ui_8c.html#aab9f2e82d67858edd53fd09370687007" target="_top" xlink:title=" ">
<polygon fill="#fff0f0" stroke="red" points="401.62,-704.12 316.62,-704.12 316.62,-683.38 401.62,-683.38 401.62,-704.12"/>
<text xml:space="preserve" text-anchor="middle" x="359.12" y="-690.62" font-family="Helvetica,sans-Serif" font-size="10.00">enter_ui_page</text>
</a>
</g>
</g>
<!-- Node174&#45;&gt;Node299 -->
<g id="edge14_Node000174_Node000299" class="edge">
<title>Node174&#45;&gt;Node299</title>
<g id="a_edge14_Node000174_Node000299"><a xlink:title=" ">
<path fill="none" stroke="#63b8ff" d="M219.94,-693.75C245.38,-693.75 277.98,-693.75 305.12,-693.75"/>
<polygon fill="#63b8ff" stroke="#63b8ff" points="304.87,-697.25 314.87,-693.75 304.87,-690.25 304.87,-697.25"/>
</a>
</g>
</g>
<!-- Node300&#45;&gt;Node299 -->
<g id="edge16_Node000300_Node000299" class="edge">
<title>Node300&#45;&gt;Node299</title>
<g id="a_edge16_Node000300_Node000299"><a xlink:title=" ">
<path fill="none" stroke="#63b8ff" d="M244.32,-665.38C264.38,-670.38 286.1,-675.79 305.14,-680.54"/>
<polygon fill="#63b8ff" stroke="#63b8ff" points="304.29,-683.93 314.83,-682.96 305.98,-677.14 304.29,-683.93"/>
</a>
</g>
</g>
<!-- Node301 -->
<g id="Node000301" class="node">
<title>Node301</title>
<g id="a_Node000301"><a xlink:href="kest__page__id_8c.html#a63b55de25f16c715b468429c78e79af0" target="_top" xlink:title=" ">
<polygon fill="#fff0f0" stroke="red" points="425.62,-665.12 292.62,-665.12 292.62,-644.38 425.62,-644.38 425.62,-665.12"/>
<text xml:space="preserve" text-anchor="middle" x="359.12" y="-651.62" font-family="Helvetica,sans-Serif" font-size="10.00">kest_page_id_find_page</text>
</a>
</g>
</g>
<!-- Node300&#45;&gt;Node301 -->
<g id="edge17_Node000300_Node000301" class="edge">
<title>Node300&#45;&gt;Node301</title>
<g id="a_edge17_Node000300_Node000301"><a xlink:title=" ">
<path fill="none" stroke="#63b8ff" d="M244.32,-650.97C256.32,-651.37 268.91,-651.78 281.17,-652.19"/>
<polygon fill="#63b8ff" stroke="#63b8ff" points="280.68,-655.68 290.79,-652.51 280.91,-648.68 280.68,-655.68"/>
</a>
</g>
</g>
<!-- Node302 -->
<g id="Node000302" class="node">
<title>Node302</title>
<g id="a_Node000302"><a xlink:href="kest__context_8c.html#a9eec45af3bef4cc85ead192e80d4a524" target="_top" xlink:title=" ">
<polygon fill="#fff0f0" stroke="red" points="571,-652.5 465,-652.5 465,-619 571,-619 571,-652.5"/>
<text xml:space="preserve" text-anchor="start" x="473" y="-639" font-family="Helvetica,sans-Serif" font-size="10.00">cxt_get_profile_by</text>
<text xml:space="preserve" text-anchor="middle" x="518" y="-626.25" font-family="Helvetica,sans-Serif" font-size="10.00">_fname</text>
</a>
</g>
</g>
<!-- Node301&#45;&gt;Node302 -->
<g id="edge18_Node000301_Node000302" class="edge">
<title>Node301&#45;&gt;Node302</title>
<g id="a_edge18_Node000301_Node000302"><a xlink:title=" ">
<path fill="none" stroke="#63b8ff" d="M425.75,-646.8C434.84,-645.7 444.16,-644.57 453.22,-643.47"/>
<polygon fill="#63b8ff" stroke="#63b8ff" points="453.5,-646.97 463.01,-642.29 452.66,-640.02 453.5,-646.97"/>
</a>
</g>
</g>
<!-- Node308&#45;&gt;Node302 -->
<g id="edge20_Node000308_Node000302" class="edge">
<title>Node308&#45;&gt;Node302</title>
<g id="a_edge20_Node000308_Node000302"><a xlink:title=" ">
<path fill="none" stroke="#63b8ff" d="M239.87,-609.62C300.45,-615.33 392.08,-623.97 453.19,-629.73"/>
<polygon fill="#63b8ff" stroke="#63b8ff" points="452.81,-633.21 463.1,-630.67 453.47,-626.24 452.81,-633.21"/>
</a>
</g>
</g>
<!-- Node309 -->
<g id="Node000309" class="node">
<title>Node309</title>
<g id="a_Node000309"><a xlink:href="kest__context_8c.html#a8552a503ff5b29bf2aae656e67cd915d" target="_top" xlink:title=" ">
<polygon fill="#fff0f0" stroke="red" points="425.62,-589.12 292.62,-589.12 292.62,-568.38 425.62,-568.38 425.62,-589.12"/>
<text xml:space="preserve" text-anchor="middle" x="359.12" y="-575.62" font-family="Helvetica,sans-Serif" font-size="10.00">kest_cxt_set_input_gain</text>
</a>
</g>
</g>
<!-- Node308&#45;&gt;Node309 -->
<g id="edge21_Node000308_Node000309" class="edge">
<title>Node308&#45;&gt;Node309</title>
<g id="a_edge21_Node000308_Node000309"><a xlink:title=" ">
<path fill="none" stroke="#63b8ff" d="M240.25,-595.08C253.37,-593.26 267.36,-591.32 280.95,-589.44"/>
<polygon fill="#63b8ff" stroke="#63b8ff" points="281.31,-592.92 290.74,-588.08 280.35,-585.99 281.31,-592.92"/>
</a>
</g>
</g>
<!-- Node310 -->
<g id="Node000310" class="node">
<title>Node310</title>
<g id="a_Node000310"><a xlink:href="kest__context_8c.html#a2175ea8951fe2164e187335ff19b8777" target="_top" xlink:title=" ">
<polygon fill="#fff0f0" stroke="red" points="429,-550.12 289.25,-550.12 289.25,-529.38 429,-529.38 429,-550.12"/>
<text xml:space="preserve" text-anchor="middle" x="359.12" y="-536.62" font-family="Helvetica,sans-Serif" font-size="10.00">kest_cxt_set_output_gain</text>
</a>
</g>
</g>
<!-- Node308&#45;&gt;Node310 -->
<g id="edge22_Node000308_Node000310" class="edge">
<title>Node308&#45;&gt;Node310</title>
<g id="a_edge22_Node000308_Node000310"><a xlink:title=" ">
<path fill="none" stroke="#63b8ff" d="M217.03,-592.88C228.86,-589.18 241.74,-584.71 253.25,-579.75 270.06,-572.5 272.36,-566.79 289.25,-559.75 294.16,-557.7 299.36,-555.78 304.6,-554"/>
<polygon fill="#63b8ff" stroke="#63b8ff" points="305.46,-557.4 313.91,-551.01 303.32,-550.73 305.46,-557.4"/>
</a>
</g>
</g>
<!-- Node200 -->
<g id="Node000200" class="node">
<title>Node200</title>
<g id="a_Node000200"><a xlink:href="kest__context_8c.html#a46a337c8aa1724024c73026c74d90a39" target="_top" xlink:title=" ">
<polygon fill="#fff0f0" stroke="red" points="410.62,-511.5 307.62,-511.5 307.62,-478 410.62,-478 410.62,-511.5"/>
<text xml:space="preserve" text-anchor="start" x="315.62" y="-498" font-family="Helvetica,sans-Serif" font-size="10.00">set_active_profile</text>
<text xml:space="preserve" text-anchor="middle" x="359.12" y="-485.25" font-family="Helvetica,sans-Serif" font-size="10.00">_from_sequence</text>
</a>
</g>
</g>
<!-- Node308&#45;&gt;Node200 -->
<g id="edge23_Node000308_Node000200" class="edge">
<title>Node308&#45;&gt;Node200</title>
<g id="a_edge23_Node000308_Node000200"><a xlink:title=" ">
<path fill="none" stroke="#63b8ff" d="M228.94,-592.98C237.61,-589.67 246.1,-585.36 253.25,-579.75 277.42,-560.79 265.6,-540.35 289.25,-520.75 291.79,-518.65 294.51,-516.7 297.36,-514.91"/>
<polygon fill="#63b8ff" stroke="#63b8ff" points="299.03,-517.99 306.11,-510.1 295.66,-511.85 299.03,-517.99"/>
</a>
</g>
</g>
<!-- Node378&#45;&gt;Node353 -->
<g id="edge36_Node000378_Node000353" class="edge">
<title>Node378&#45;&gt;Node353</title>
<g id="a_edge36_Node000378_Node000353"><a xlink:title=" ">
<path fill="none" stroke="#63b8ff" d="M229.35,-145.19C256,-148 288.17,-151.39 313.68,-154.07"/>
<polygon fill="#63b8ff" stroke="#63b8ff" points="313.08,-157.53 323.39,-155.09 313.81,-150.57 313.08,-157.53"/>
</a>
</g>
</g>
<!-- Node388&#45;&gt;Node50 -->
<g id="edge38_Node000388_Node000050" class="edge">
<title>Node388&#45;&gt;Node50</title>
<g id="a_edge38_Node000388_Node000050"><a xlink:title=" ">
<path fill="none" stroke="#63b8ff" d="M215.07,-522.23C227.81,-519.25 241.73,-514.69 253.25,-507.75 273.46,-495.58 269.69,-481.94 289.25,-468.75 291.08,-467.52 292.97,-466.33 294.92,-465.2"/>
<polygon fill="#63b8ff" stroke="#63b8ff" points="296.41,-468.36 303.62,-460.6 293.15,-462.17 296.41,-468.36"/>
</a>
</g>
</g>
<!-- Node533&#45;&gt;Node40 -->
<g id="edge40_Node000533_Node000040" class="edge">
<title>Node533&#45;&gt;Node40</title>
<g id="a_edge40_Node000533_Node000040"><a xlink:title=" ">
<path fill="none" stroke="#63b8ff" d="M220.86,-877.97C249.49,-870.83 286.89,-861.51 315.42,-854.4"/>
<polygon fill="#63b8ff" stroke="#63b8ff" points="315.94,-857.87 324.8,-852.06 314.25,-851.08 315.94,-857.87"/>
</a>
</g>
</g>
<!-- Node539&#45;&gt;Node40 -->
<g id="edge42_Node000539_Node000040" class="edge">
<title>Node539&#45;&gt;Node40</title>
<g id="a_edge42_Node000539_Node000040"><a xlink:title=" ">
<path fill="none" stroke="#63b8ff" d="M241.26,-847.63C265.7,-846.82 292.99,-845.92 315.05,-845.18"/>
<polygon fill="#63b8ff" stroke="#63b8ff" points="315,-848.69 324.88,-844.86 314.77,-841.69 315,-848.69"/>
</a>
</g>
</g>
<!-- Node543&#45;&gt;Node40 -->
<g id="edge44_Node000543_Node000040" class="edge">
<title>Node543&#45;&gt;Node40</title>
<g id="a_edge44_Node000543_Node000040"><a xlink:title=" ">
<path fill="none" stroke="#63b8ff" d="M235.23,-821.28C261.21,-826.03 291.36,-831.54 315.29,-835.92"/>
<polygon fill="#63b8ff" stroke="#63b8ff" points="314.54,-839.34 325.01,-837.7 315.8,-832.45 314.54,-839.34"/>
</a>
</g>
</g>
</g>
</svg>

<g id="navigator" transform="translate(0 0)" fill="#404254">
  <rect fill="#f2f5e9" fill-opacity="0.5" stroke="#606060" stroke-width=".5" x="0" y="0" width="60" height="60"/>
  <use id="zoomplus" xlink:href="#zoomPlus" x="17" y="9" onmousedown="handleZoom(evt,'in')"/>
  <use id="zoomminus" xlink:href="#zoomMin" x="42" y="9" onmousedown="handleZoom(evt,'out')"/>
  <use id="reset" xlink:href="#resetDef" x="30" y="36" onmousedown="handleReset()"/>
   <use id="arrowup" xlink:href="#arrowUp" x="0" y="0" onmousedown="handlePan(0,-1)"/>
  <use id="arrowright" xlink:href="#arrowRight" x="0" y="0" onmousedown="handlePan(1,0)"/>
  <use id="arrowdown" xlink:href="#arrowDown" x="0" y="0" onmousedown="handlePan(0,1)"/>
  <use id="arrowleft" xlink:href="#arrowLeft" x="0" y="0" onmousedown="handlePan(-1,0)"/>
</g>
<svg viewBox="0 0 15 15" width="100%" height="30px" preserveAspectRatio="xMaxYMin meet">
 <g id="arrow_out" transform="scale(0.3 0.3)">
  <a xlink:href="kest__int_8c_abce06be17fc37d675118a678a8100a36_cgraph_org.svg" target="_base">
   <rect id="button" ry="5" rx="5" y="6" x="6" height="38" width="38"
        fill="#f2f5e9" fill-opacity="0.5" stroke="#606060" stroke-width="1.0"/>
   <path id="arrow"
     d="M 11.500037,31.436501 C 11.940474,20.09759 22.043105,11.32322 32.158766,21.979434 L 37.068811,17.246167 C 37.068811,17.246167 37.088388,32 37.088388,32 L 22.160133,31.978069 C 22.160133,31.978069 26.997745,27.140456 26.997745,27.140456 C 18.528582,18.264221 13.291696,25.230495 11.500037,31.436501 z"
     style="fill:#404040;"/>
  </a>
 </g>
</svg>

<style type='text/css'>
<![CDATA[
[data-mouse-over-selected='false'] { opacity: 0.7; }
[data-mouse-over-selected='true']  { opacity: 1.0; }
]]>
</style>
<script type="application/ecmascript"><![CDATA[
document.addEventListener('DOMContentLoaded', (event) => {
  highlightEdges();
  highlightAdjacentNodes();
});
]]></script>
</svg>
