<?xml version="1.0" encoding="UTF-8" standalone="no"?>
<!DOCTYPE svg PUBLIC "-//W3C//DTD SVG 1.1//EN"
 "http://www.w3.org/Graphics/SVG/1.1/DTD/svg11.dtd">
<!-- Generated by graphviz version 13.1.2 (20250808.2320)
 -->
<!-- Title: edit_sw_field_cb Pages: 1 -->
<!--zoomable 275 -->

<svg id="main" version="1.1" xmlns="http://www.w3.org/2000/svg" xmlns:xlink="http://www.w3.org/1999/xlink" xml:space="preserve" onload="init(evt)">

<style type="text/css"><![CDATA[
.node, .edge {opacity: 0.7;}
.node.selected, .edge.selected {opacity: 1;}
.edge:hover path { stroke: red; }
.edge:hover polygon { stroke: red; fill: red; }
]]></style>

<defs>
  <circle id="rim" cx="0" cy="0" r="7"/>
  <circle id="rim2" cx="0" cy="0" r="3.5"/>
  <g id="zoomPlus">
    <use xlink:href="#rim" fill="#404040"><set attributeName="fill" to="#808080" begin="zoomplus.mouseover" end="zoomplus.mouseout"/></use>
    <path d="M-4,0h8M0,-4v8" fill="none" stroke="white" stroke-width="1.5" pointer-events="none"/>
  </g>
  <g id="zoomMin">
    <use xlink:href="#rim" fill="#404040"><set attributeName="fill" to="#808080" begin="zoomminus.mouseover" end="zoomminus.mouseout"/></use>
    <path d="M-4,0h8" fill="none" stroke="white" stroke-width="1.5" pointer-events="none"/>
  </g>
  <g id="arrowUp" transform="translate(30 24)">
    <use xlink:href="#rim"/>
    <path pointer-events="none" fill="none" stroke="white" stroke-width="1.5" d="M0,-3.0v7 M-2.5,-0.5L0,-3.0L2.5,-0.5"/>
  </g>
  <g id="arrowRight" transform="rotate(90) translate(36 -43)">
    <use xlink:href="#rim"/>
    <path pointer-events="none" fill="none" stroke="white" stroke-width="1.5" d="M0,-3.0v7 M-2.5,-0.5L0,-3.0L2.5,-0.5"/>
  </g>
  <g id="arrowDown" transform="rotate(180) translate(-30 -48)">
    <use xlink:href="#rim"/>
    <path pointer-events="none" fill="none" stroke="white" stroke-width="1.5" d="M0,-3.0v7 M-2.5,-0.5L0,-3.0L2.5,-0.5"/>
  </g>
  <g id="arrowLeft" transform="rotate(270) translate(-36 17)">
    <use xlink:href="#rim"/>
    <path pointer-events="none" fill="none" stroke="white" stroke-width="1.5" d="M0,-3.0v7 M-2.5,-0.5L0,-3.0L2.5,-0.5"/>
  </g>
  <g id="resetDef">
    <use xlink:href="#rim2" fill="#404040"><set attributeName="fill" to="#808080" begin="reset.mouseover" end="reset.mouseout"/></use>
  </g>
</defs>
<script type="application/ecmascript">
var viewWidth = 632;
var viewHeight = 275;
var sectionId = 'dynsection-3';
</script>
<script type="application/ecmascript" xlink:href="svg.min.js"/>
<svg id="graph" class="graph">
<g id="viewport">
<title>edit_sw_field_cb</title>
<!-- Node1 -->
<g id="Node000001" class="node">
<title>Node1</title>
<g id="a_Node000001"><a xlink:title=" ">
<polygon fill="#999999" stroke="#666666" points="97,-178.75 0,-178.75 0,-158 97,-158 97,-178.75"/>
<text xml:space="preserve" text-anchor="middle" x="48.5" y="-165.25" font-family="Helvetica,sans-Serif" font-size="10.00">edit_sw_field_cb</text>
</a>
</g>
</g>
<!-- Node2 -->
<g id="Node000002" class="node">
<title>Node2</title>
<g id="a_Node000002"><a xlink:href="kest__alloc_8c.html#aed9ede1276c1ab3b4042c264ce64a3d2" target="_top" xlink:title=" ">
<polygon fill="white" stroke="#666666" points="420,-266.75 341.75,-266.75 341.75,-246 420,-246 420,-266.75"/>
<text xml:space="preserve" text-anchor="middle" x="380.88" y="-253.25" font-family="Helvetica,sans-Serif" font-size="10.00">kest_strndup</text>
</a>
</g>
</g>
<!-- Node1&#45;&gt;Node2 -->
<g id="edge1_Node000001_Node000002" class="edge">
<title>Node1&#45;&gt;Node2</title>
<g id="a_edge1_Node000001_Node000002"><a xlink:title=" ">
<path fill="none" stroke="#63b8ff" d="M69.19,-179.23C85.77,-187.96 110.34,-199.96 133,-207.38 199.65,-229.2 279.76,-242.92 330.26,-250.12"/>
<polygon fill="#63b8ff" stroke="#63b8ff" points="329.62,-253.56 340.01,-251.47 330.58,-246.63 329.62,-253.56"/>
</a>
</g>
</g>
<!-- Node4 -->
<g id="Node000004" class="node">
<title>Node4</title>
<g id="a_Node000004"><a xlink:href="kest__ui_8c.html#a5f3db3c652369719e7f6de8456f09512" target="_top" xlink:title=" ">
<polygon fill="white" stroke="#666666" points="284.75,-75.75 133,-75.75 133,-55 284.75,-55 284.75,-75.75"/>
<text xml:space="preserve" text-anchor="middle" x="208.88" y="-62.25" font-family="Helvetica,sans-Serif" font-size="10.00">spawn_numerical_keyboard</text>
</a>
</g>
</g>
<!-- Node1&#45;&gt;Node4 -->
<g id="edge3_Node000001_Node000004" class="edge">
<title>Node1&#45;&gt;Node4</title>
<g id="a_edge3_Node000001_Node000004"><a xlink:title=" ">
<path fill="none" stroke="#63b8ff" d="M66.15,-157.55C93.79,-139.57 149.33,-103.45 182.07,-82.15"/>
<polygon fill="#63b8ff" stroke="#63b8ff" points="183.7,-85.27 190.18,-76.88 179.89,-79.4 183.7,-85.27"/>
</a>
</g>
</g>
<!-- Node6 -->
<g id="Node000006" class="node">
<title>Node6</title>
<g id="a_Node000006"><a xlink:href="kest__parameter__widget_8c.html#a04db5fc0ed01be6d1f7b2233ea9094bb" target="_top" xlink:title=" ">
<polygon fill="white" stroke="#666666" points="263.75,-198.75 154,-198.75 154,-178 263.75,-178 263.75,-198.75"/>
<text xml:space="preserve" text-anchor="middle" x="208.88" y="-185.25" font-family="Helvetica,sans-Serif" font-size="10.00">sw_field_cancel_cb</text>
</a>
</g>
</g>
<!-- Node1&#45;&gt;Node6 -->
<g id="edge5_Node000001_Node000006" class="edge">
<title>Node1&#45;&gt;Node6</title>
<g id="a_edge5_Node000001_Node000006"><a xlink:title=" ">
<path fill="none" stroke="#63b8ff" d="M97.45,-174.43C111.59,-176.22 127.33,-178.2 142.38,-180.1"/>
<polygon fill="#63b8ff" stroke="#63b8ff" points="141.86,-183.57 152.21,-181.35 142.73,-176.62 141.86,-183.57"/>
</a>
</g>
</g>
<!-- Node9 -->
<g id="Node000009" class="node">
<title>Node9</title>
<g id="a_Node000009"><a xlink:href="kest__parameter__widget_8c.html#a22b7fa4ae5f9628f2da2155f58c2635c" target="_top" xlink:title=" ">
<polygon fill="white" stroke="#666666" points="259.62,-159.75 158.12,-159.75 158.12,-139 259.62,-139 259.62,-159.75"/>
<text xml:space="preserve" text-anchor="middle" x="208.88" y="-146.25" font-family="Helvetica,sans-Serif" font-size="10.00">sw_field_save_cb</text>
</a>
</g>
</g>
<!-- Node1&#45;&gt;Node9 -->
<g id="edge8_Node000001_Node000009" class="edge">
<title>Node1&#45;&gt;Node9</title>
<g id="a_edge8_Node000001_Node000009"><a xlink:title=" ">
<path fill="none" stroke="#63b8ff" d="M97.45,-162.62C112.98,-160.76 130.43,-158.67 146.78,-156.7"/>
<polygon fill="#63b8ff" stroke="#63b8ff" points="146.88,-160.22 156.39,-155.55 146.05,-153.27 146.88,-160.22"/>
</a>
</g>
</g>
<!-- Node3 -->
<g id="Node000003" class="node">
<title>Node3</title>
<g id="a_Node000003"><a xlink:href="kest__alloc_8c.html#a849755c5dc5b35e712ffcdb602e50fb4" target="_top" xlink:title=" ">
<polygon fill="white" stroke="#666666" points="582.62,-266.75 517.88,-266.75 517.88,-246 582.62,-246 582.62,-266.75"/>
<text xml:space="preserve" text-anchor="middle" x="550.25" y="-253.25" font-family="Helvetica,sans-Serif" font-size="10.00">kest_alloc</text>
</a>
</g>
</g>
<!-- Node2&#45;&gt;Node3 -->
<g id="edge2_Node000002_Node000003" class="edge">
<title>Node2&#45;&gt;Node3</title>
<g id="a_edge2_Node000002_Node000003"><a xlink:title=" ">
<path fill="none" stroke="#63b8ff" d="M420.27,-256.38C445.92,-256.38 479.68,-256.38 506.22,-256.38"/>
<polygon fill="#63b8ff" stroke="#63b8ff" points="505.97,-259.88 515.97,-256.38 505.97,-252.88 505.97,-259.88"/>
</a>
</g>
</g>
<!-- Node5 -->
<g id="Node000005" class="node">
<title>Node5</title>
<g id="a_Node000005"><a xlink:href="kest__ui_8c.html#a81bbde51fcf8ad785cd8b89d91106a5b" target="_top" xlink:title=" ">
<polygon fill="white" stroke="#666666" points="429.75,-20.75 332,-20.75 332,0 429.75,0 429.75,-20.75"/>
<text xml:space="preserve" text-anchor="middle" x="380.88" y="-7.25" font-family="Helvetica,sans-Serif" font-size="10.00">spawn_keyboard</text>
</a>
</g>
</g>
<!-- Node4&#45;&gt;Node5 -->
<g id="edge4_Node000004_Node000005" class="edge">
<title>Node4&#45;&gt;Node5</title>
<g id="a_edge4_Node000004_Node000005"><a xlink:title=" ">
<path fill="none" stroke="#63b8ff" d="M243.46,-54.51C269.89,-45.96 306.94,-33.97 335.76,-24.65"/>
<polygon fill="#63b8ff" stroke="#63b8ff" points="336.48,-28.09 344.92,-21.68 334.33,-21.43 336.48,-28.09"/>
</a>
</g>
</g>
<!-- Node7 -->
<g id="Node000007" class="node">
<title>Node7</title>
<g id="a_Node000007"><a xlink:href="kest__ui_8c.html#a449db99602c8ef93fb805362fec7fb1d" target="_top" xlink:title=" ">
<polygon fill="white" stroke="#666666" points="424.5,-188.75 337.25,-188.75 337.25,-168 424.5,-168 424.5,-188.75"/>
<text xml:space="preserve" text-anchor="middle" x="380.88" y="-175.25" font-family="Helvetica,sans-Serif" font-size="10.00">hide_keyboard</text>
</a>
</g>
</g>
<!-- Node6&#45;&gt;Node7 -->
<g id="edge6_Node000006_Node000007" class="edge">
<title>Node6&#45;&gt;Node7</title>
<g id="a_edge6_Node000006_Node000007"><a xlink:title=" ">
<path fill="none" stroke="#63b8ff" d="M264.13,-185.18C283.79,-184.03 305.98,-182.72 325.64,-181.57"/>
<polygon fill="#63b8ff" stroke="#63b8ff" points="325.59,-185.07 335.37,-180.99 325.18,-178.09 325.59,-185.07"/>
</a>
</g>
</g>
<!-- Node8 -->
<g id="Node000008" class="node">
<title>Node8</title>
<g id="a_Node000008"><a xlink:href="kest__alloc_8c.html#a294af5728a94aa316fcf65304d388d48" target="_top" xlink:title=" ">
<polygon fill="white" stroke="#666666" points="411.38,-227.75 350.38,-227.75 350.38,-207 411.38,-207 411.38,-227.75"/>
<text xml:space="preserve" text-anchor="middle" x="380.88" y="-214.25" font-family="Helvetica,sans-Serif" font-size="10.00">kest_free</text>
</a>
</g>
</g>
<!-- Node6&#45;&gt;Node8 -->
<g id="edge7_Node000006_Node000008" class="edge">
<title>Node6&#45;&gt;Node8</title>
<g id="a_edge7_Node000006_Node000008"><a xlink:title=" ">
<path fill="none" stroke="#63b8ff" d="M264.13,-197.63C288.46,-201.78 316.67,-206.59 339.15,-210.43"/>
<polygon fill="#63b8ff" stroke="#63b8ff" points="338.39,-213.85 348.84,-212.08 339.57,-206.95 338.39,-213.85"/>
</a>
</g>
</g>
<!-- Node9&#45;&gt;Node2 -->
<g id="edge14_Node000009_Node000002" class="edge">
<title>Node9&#45;&gt;Node2</title>
<g id="a_edge14_Node000009_Node000002"><a xlink:title=" ">
<path fill="none" stroke="#63b8ff" d="M260.1,-156.71C268.93,-159.63 277.58,-163.7 284.75,-169.38 311.26,-190.35 294.94,-214.55 320.75,-236.38 323.91,-239.05 327.45,-241.37 331.18,-243.39"/>
<polygon fill="#63b8ff" stroke="#63b8ff" points="329.45,-246.45 340.01,-247.41 332.36,-240.08 329.45,-246.45"/>
</a>
</g>
</g>
<!-- Node9&#45;&gt;Node7 -->
<g id="edge10_Node000009_Node000007" class="edge">
<title>Node9&#45;&gt;Node7</title>
<g id="a_edge10_Node000009_Node000007"><a xlink:title=" ">
<path fill="none" stroke="#63b8ff" d="M259.96,-157.92C280.54,-161.43 304.42,-165.5 325.43,-169.09"/>
<polygon fill="#63b8ff" stroke="#63b8ff" points="324.83,-172.53 335.27,-170.77 326,-165.63 324.83,-172.53"/>
</a>
</g>
</g>
<!-- Node9&#45;&gt;Node8 -->
<g id="edge11_Node000009_Node000008" class="edge">
<title>Node9&#45;&gt;Node8</title>
<g id="a_edge11_Node000009_Node000008"><a xlink:title=" ">
<path fill="none" stroke="#63b8ff" d="M260.04,-159.79C268.5,-162.38 277.04,-165.54 284.75,-169.38 302.9,-178.39 302.9,-187.77 320.75,-197.38 326.56,-200.5 332.95,-203.27 339.31,-205.68"/>
<polygon fill="#63b8ff" stroke="#63b8ff" points="337.87,-208.88 348.46,-208.88 340.18,-202.27 337.87,-208.88"/>
</a>
</g>
</g>
<!-- Node10 -->
<g id="Node000010" class="node">
<title>Node10</title>
<g id="a_Node000010"><a xlink:href="kest__context_8c.html#a8a0da058a66a81e046c9dbe0394cb1b8" target="_top" xlink:title=" ">
<polygon fill="white" stroke="#666666" points="441,-149.75 320.75,-149.75 320.75,-129 441,-129 441,-149.75"/>
<text xml:space="preserve" text-anchor="middle" x="380.88" y="-136.25" font-family="Helvetica,sans-Serif" font-size="10.00">cxt_get_profile_by_id</text>
</a>
</g>
</g>
<!-- Node9&#45;&gt;Node10 -->
<g id="edge9_Node000009_Node000010" class="edge">
<title>Node9&#45;&gt;Node10</title>
<g id="a_edge9_Node000009_Node000010"><a xlink:title=" ">
<path fill="none" stroke="#63b8ff" d="M259.96,-146.43C275.4,-145.52 292.7,-144.5 309.25,-143.53"/>
<polygon fill="#63b8ff" stroke="#63b8ff" points="309.26,-147.03 319.04,-142.95 308.85,-140.05 309.26,-147.03"/>
</a>
</g>
</g>
<!-- Node11 -->
<g id="Node000011" class="node">
<title>Node11</title>
<g id="a_Node000011"><a xlink:href="kest__profile_8c.html#a1943b8bd24ec344d5f80fcb7fb4ca297" target="_top" xlink:title=" ">
<polygon fill="white" stroke="#666666" points="441,-111.12 320.75,-111.12 320.75,-77.62 441,-77.62 441,-111.12"/>
<text xml:space="preserve" text-anchor="start" x="328.75" y="-97.62" font-family="Helvetica,sans-Serif" font-size="10.00">kest_profile_if_active</text>
<text xml:space="preserve" text-anchor="middle" x="380.88" y="-84.88" font-family="Helvetica,sans-Serif" font-size="10.00">_update_fpga</text>
</a>
</g>
</g>
<!-- Node9&#45;&gt;Node11 -->
<g id="edge12_Node000009_Node000011" class="edge">
<title>Node9&#45;&gt;Node11</title>
<g id="a_edge12_Node000009_Node000011"><a xlink:title=" ">
<path fill="none" stroke="#63b8ff" d="M243.46,-138.51C264.11,-131.83 291.25,-123.05 315.88,-115.08"/>
<polygon fill="#63b8ff" stroke="#63b8ff" points="316.74,-118.48 325.18,-112.07 314.58,-111.82 316.74,-118.48"/>
</a>
</g>
</g>
<!-- Node43 -->
<g id="Node000043" class="node">
<title>Node43</title>
<g id="a_Node000043"><a xlink:href="kest__parameter__widget_8c.html#a24b55362ed912007f19d66a3e9784e3a" target="_top" xlink:title=" ">
<polygon fill="white" stroke="#666666" points="425.62,-59.75 336.12,-59.75 336.12,-39 425.62,-39 425.62,-59.75"/>
<text xml:space="preserve" text-anchor="middle" x="380.88" y="-46.25" font-family="Helvetica,sans-Serif" font-size="10.00">sw_field_reject</text>
</a>
</g>
</g>
<!-- Node9&#45;&gt;Node43 -->
<g id="edge15_Node000009_Node000043" class="edge">
<title>Node9&#45;&gt;Node43</title>
<g id="a_edge15_Node000009_Node000043"><a xlink:title=" ">
<path fill="none" stroke="#63b8ff" d="M221.66,-138.76C241.05,-121.77 281.45,-88.38 320.75,-68.38 323.59,-66.93 326.56,-65.57 329.59,-64.28"/>
<polygon fill="#63b8ff" stroke="#63b8ff" points="330.58,-67.65 338.64,-60.78 328.05,-61.13 330.58,-67.65"/>
</a>
</g>
</g>
<!-- Node12 -->
<g id="Node000012" class="node">
<title>Node12</title>
<g id="a_Node000012"><a xlink:href="kest__profile_8c.html#a23cd63c025729fe28dbd76f64ce43f0d" target="_top" xlink:title=" ">
<polygon fill="#fff0f0" stroke="red" points="623.5,-104.75 477,-104.75 477,-84 623.5,-84 623.5,-104.75"/>
<text xml:space="preserve" text-anchor="middle" x="550.25" y="-91.25" font-family="Helvetica,sans-Serif" font-size="10.00">kest_profile_program_fpga</text>
</a>
</g>
</g>
<!-- Node11&#45;&gt;Node12 -->
<g id="edge13_Node000011_Node000012" class="edge">
<title>Node11&#45;&gt;Node12</title>
<g id="a_edge13_Node000011_Node000012"><a xlink:title=" ">
<path fill="none" stroke="#63b8ff" d="M441.36,-94.38C449.15,-94.38 457.25,-94.38 465.35,-94.38"/>
<polygon fill="#63b8ff" stroke="#63b8ff" points="465.26,-97.88 475.26,-94.38 465.25,-90.88 465.26,-97.88"/>
</a>
</g>
</g>
</g>
</svg>

<g id="navigator" transform="translate(0 0)" fill="#404254">
  <rect fill="#f2f5e9" fill-opacity="0.5" stroke="#606060" stroke-width=".5" x="0" y="0" width="60" height="60"/>
  <use id="zoomplus" xlink:href="#zoomPlus" x="17" y="9" onmousedown="handleZoom(evt,'in')"/>
  <use id="zoomminus" xlink:href="#zoomMin" x="42" y="9" onmousedown="handleZoom(evt,'out')"/>
  <use id="reset" xlink:href="#resetDef" x="30" y="36" onmousedown="handleReset()"/>
   <use id="arrowup" xlink:href="#arrowUp" x="0" y="0" onmousedown="handlePan(0,-1)"/>
  <use id="arrowright" xlink:href="#arrowRight" x="0" y="0" onmousedown="handlePan(1,0)"/>
  <use id="arrowdown" xlink:href="#arrowDown" x="0" y="0" onmousedown="handlePan(0,1)"/>
  <use id="arrowleft" xlink:href="#arrowLeft" x="0" y="0" onmousedown="handlePan(-1,0)"/>
</g>
<svg viewBox="0 0 15 15" width="100%" height="30px" preserveAspectRatio="xMaxYMin meet">
 <g id="arrow_out" transform="scale(0.3 0.3)">
  <a xlink:href="kest__parameter__widget_8c_a5a6ebded10138ba55624e195ae4f4309_cgraph_org.svg" target="_base">
   <rect id="button" ry="5" rx="5" y="6" x="6" height="38" width="38"
        fill="#f2f5e9" fill-opacity="0.5" stroke="#606060" stroke-width="1.0"/>
   <path id="arrow"
     d="M 11.500037,31.436501 C 11.940474,20.09759 22.043105,11.32322 32.158766,21.979434 L 37.068811,17.246167 C 37.068811,17.246167 37.088388,32 37.088388,32 L 22.160133,31.978069 C 22.160133,31.978069 26.997745,27.140456 26.997745,27.140456 C 18.528582,18.264221 13.291696,25.230495 11.500037,31.436501 z"
     style="fill:#404040;"/>
  </a>
 </g>
</svg>

<style type='text/css'>
<![CDATA[
[data-mouse-over-selected='false'] { opacity: 0.7; }
[data-mouse-over-selected='true']  { opacity: 1.0; }
]]>
</style>
<script type="application/ecmascript"><![CDATA[
document.addEventListener('DOMContentLoaded', (event) => {
  highlightEdges();
  highlightAdjacentNodes();
});
]]></script>
</svg>
