<?xml version="1.0" encoding="UTF-8" standalone="no"?>
<!DOCTYPE svg PUBLIC "-//W3C//DTD SVG 1.1//EN"
 "http://www.w3.org/Graphics/SVG/1.1/DTD/svg11.dtd">
<!-- Generated by graphviz version 13.1.2 (20250808.2320)
 -->
<!-- Title: configure_profile_settings_page Pages: 1 -->
<svg width="698pt" height="200pt"
 viewBox="0.00 0.00 698.00 200.00" xmlns="http://www.w3.org/2000/svg" xmlns:xlink="http://www.w3.org/1999/xlink">
<g id="graph0" class="graph" transform="scale(1 1) rotate(0) translate(4 195.68)">
<title>configure_profile_settings_page</title>
<!-- Node1 -->
<g id="Node000001" class="node">
<title>Node1</title>
<g id="a_Node000001"><a xlink:title=" ">
<polygon fill="#999999" stroke="#666666" points="172,-132.75 0,-132.75 0,-112 172,-112 172,-132.75"/>
<text xml:space="preserve" text-anchor="middle" x="86" y="-119.25" font-family="Helvetica,sans-Serif" font-size="10.00">configure_profile_settings_page</text>
</a>
</g>
</g>
<!-- Node2 -->
<g id="Node000002" class="node">
<title>Node2</title>
<g id="a_Node000002"><a xlink:href="kest__profile_8c.html#aff585ba9940aeb40f695a68deb4094e5" target="_top" xlink:title=" ">
<polygon fill="white" stroke="#666666" points="345.88,-184.12 212.88,-184.12 212.88,-150.62 345.88,-150.62 345.88,-184.12"/>
<text xml:space="preserve" text-anchor="start" x="220.88" y="-170.62" font-family="Helvetica,sans-Serif" font-size="10.00">kest_profile_set_default</text>
<text xml:space="preserve" text-anchor="middle" x="279.38" y="-157.88" font-family="Helvetica,sans-Serif" font-size="10.00">_name_from_id</text>
</a>
</g>
</g>
<!-- Node1&#45;&gt;Node2 -->
<g id="edge1_Node000001_Node000002" class="edge">
<title>Node1&#45;&gt;Node2</title>
<g id="a_edge1_Node000001_Node000002"><a xlink:title=" ">
<path fill="none" stroke="#63b8ff" d="M132.84,-133.15C153.46,-138 178.36,-143.86 201.7,-149.34"/>
<polygon fill="#63b8ff" stroke="#63b8ff" points="200.63,-152.69 211.17,-151.57 202.23,-145.88 200.63,-152.69"/>
</a>
</g>
</g>
<!-- Node5 -->
<g id="Node000005" class="node">
<title>Node5</title>
<g id="a_Node000005"><a xlink:href="kest__alloc_8c.html#aed9ede1276c1ab3b4042c264ce64a3d2" target="_top" xlink:title=" ">
<polygon fill="white" stroke="#666666" points="318.5,-132.75 240.25,-132.75 240.25,-112 318.5,-112 318.5,-132.75"/>
<text xml:space="preserve" text-anchor="middle" x="279.38" y="-119.25" font-family="Helvetica,sans-Serif" font-size="10.00">kest_strndup</text>
</a>
</g>
</g>
<!-- Node1&#45;&gt;Node5 -->
<g id="edge4_Node000001_Node000005" class="edge">
<title>Node1&#45;&gt;Node5</title>
<g id="a_edge4_Node000001_Node000005"><a xlink:title=" ">
<path fill="none" stroke="#63b8ff" d="M172.33,-122.38C191.61,-122.38 211.45,-122.38 228.68,-122.38"/>
<polygon fill="#63b8ff" stroke="#63b8ff" points="228.64,-125.88 238.64,-122.38 228.64,-118.88 228.64,-125.88"/>
</a>
</g>
</g>
<!-- Node6 -->
<g id="Node000006" class="node">
<title>Node6</title>
<g id="a_Node000006"><a xlink:href="kest__ui_8c.html#a349acdb394f97d782e6b5828af856b05" target="_top" xlink:title=" ">
<polygon fill="white" stroke="#666666" points="350.75,-78.75 208,-78.75 208,-58 350.75,-58 350.75,-78.75"/>
<text xml:space="preserve" text-anchor="middle" x="279.38" y="-65.25" font-family="Helvetica,sans-Serif" font-size="10.00">ui_page_add_back_button</text>
</a>
</g>
</g>
<!-- Node1&#45;&gt;Node6 -->
<g id="edge6_Node000001_Node000006" class="edge">
<title>Node1&#45;&gt;Node6</title>
<g id="a_edge6_Node000001_Node000006"><a xlink:title=" ">
<path fill="none" stroke="#63b8ff" d="M125.27,-111.58C155.03,-103.18 196.55,-91.46 228.84,-82.35"/>
<polygon fill="#63b8ff" stroke="#63b8ff" points="229.72,-85.74 238.39,-79.66 227.81,-79 229.72,-85.74"/>
</a>
</g>
</g>
<!-- Node3 -->
<g id="Node000003" class="node">
<title>Node3</title>
<g id="a_Node000003"><a xlink:href="kest__alloc_8c.html#a849755c5dc5b35e712ffcdb602e50fb4" target="_top" xlink:title=" ">
<polygon fill="white" stroke="#666666" points="650.5,-136.75 585.75,-136.75 585.75,-116 650.5,-116 650.5,-136.75"/>
<text xml:space="preserve" text-anchor="middle" x="618.12" y="-123.25" font-family="Helvetica,sans-Serif" font-size="10.00">kest_alloc</text>
</a>
</g>
</g>
<!-- Node2&#45;&gt;Node3 -->
<g id="edge2_Node000002_Node000003" class="edge">
<title>Node2&#45;&gt;Node3</title>
<g id="a_edge2_Node000002_Node000003"><a xlink:title=" ">
<path fill="none" stroke="#63b8ff" d="M346.13,-182.72C392.74,-191 456.41,-197.02 510.75,-183.38 541.31,-175.7 572.68,-157.37 593.35,-143.56"/>
<polygon fill="#63b8ff" stroke="#63b8ff" points="595.09,-146.61 601.35,-138.06 591.13,-140.84 595.09,-146.61"/>
</a>
</g>
</g>
<!-- Node4 -->
<g id="Node000004" class="node">
<title>Node4</title>
<g id="a_Node000004"><a xlink:href="kest__alloc_8c.html#a294af5728a94aa316fcf65304d388d48" target="_top" xlink:title=" ">
<polygon fill="white" stroke="#666666" points="479.25,-174.75 418.25,-174.75 418.25,-154 479.25,-154 479.25,-174.75"/>
<text xml:space="preserve" text-anchor="middle" x="448.75" y="-161.25" font-family="Helvetica,sans-Serif" font-size="10.00">kest_free</text>
</a>
</g>
</g>
<!-- Node2&#45;&gt;Node4 -->
<g id="edge3_Node000002_Node000004" class="edge">
<title>Node2&#45;&gt;Node4</title>
<g id="a_edge3_Node000002_Node000004"><a xlink:title=" ">
<path fill="none" stroke="#63b8ff" d="M346.05,-166.2C366.48,-165.83 388.42,-165.44 406.67,-165.11"/>
<polygon fill="#63b8ff" stroke="#63b8ff" points="406.63,-168.61 416.57,-164.93 406.51,-161.61 406.63,-168.61"/>
</a>
</g>
</g>
<!-- Node5&#45;&gt;Node3 -->
<g id="edge5_Node000005_Node000003" class="edge">
<title>Node5&#45;&gt;Node3</title>
<g id="a_edge5_Node000005_Node000003"><a xlink:title=" ">
<path fill="none" stroke="#63b8ff" d="M318.68,-122.83C381.94,-123.58 507.83,-125.08 574.08,-125.86"/>
<polygon fill="#63b8ff" stroke="#63b8ff" points="573.78,-129.36 583.82,-125.98 573.87,-122.36 573.78,-129.36"/>
</a>
</g>
</g>
<!-- Node7 -->
<g id="Node000007" class="node">
<title>Node7</title>
<g id="a_Node000007"><a xlink:href="kest__button_8c.html#aa59f296fa9f9744c9753f81484085a15" target="_top" xlink:title=" ">
<polygon fill="white" stroke="#666666" points="510.38,-98.75 387.12,-98.75 387.12,-78 510.38,-78 510.38,-98.75"/>
<text xml:space="preserve" text-anchor="middle" x="448.75" y="-85.25" font-family="Helvetica,sans-Serif" font-size="10.00">button_set_clicked_cb</text>
</a>
</g>
</g>
<!-- Node6&#45;&gt;Node7 -->
<g id="edge7_Node000006_Node000007" class="edge">
<title>Node6&#45;&gt;Node7</title>
<g id="a_edge7_Node000006_Node000007"><a xlink:title=" ">
<path fill="none" stroke="#63b8ff" d="M350.87,-76.8C359.01,-77.77 367.32,-78.76 375.48,-79.74"/>
<polygon fill="#63b8ff" stroke="#63b8ff" points="375.03,-83.21 385.38,-80.92 375.86,-76.26 375.03,-83.21"/>
</a>
</g>
</g>
<!-- Node8 -->
<g id="Node000008" class="node">
<title>Node8</title>
<g id="a_Node000008"><a xlink:href="kest__ui_8c.html#af17d8912a520f607796e85d96467cc5a" target="_top" xlink:title=" ">
<polygon fill="white" stroke="#666666" points="510.75,-20.75 386.75,-20.75 386.75,0 510.75,0 510.75,-20.75"/>
<text xml:space="preserve" text-anchor="middle" x="448.75" y="-7.25" font-family="Helvetica,sans-Serif" font-size="10.00">enter_parent_page_cb</text>
</a>
</g>
</g>
<!-- Node6&#45;&gt;Node8 -->
<g id="edge8_Node000006_Node000008" class="edge">
<title>Node6&#45;&gt;Node8</title>
<g id="a_edge8_Node000006_Node000008"><a xlink:title=" ">
<path fill="none" stroke="#63b8ff" d="M310.11,-57.52C331.4,-49.8 360.78,-39.27 386.75,-30.38 392.15,-28.53 397.82,-26.62 403.45,-24.75"/>
<polygon fill="#63b8ff" stroke="#63b8ff" points="404.3,-28.15 412.7,-21.69 402.11,-21.51 404.3,-28.15"/>
</a>
</g>
</g>
<!-- Node12 -->
<g id="Node000012" class="node">
<title>Node12</title>
<g id="a_Node000012"><a xlink:href="kest__button_8c.html#afd8846ca469218a65279da29ad72e29b" target="_top" xlink:title=" ">
<polygon fill="white" stroke="#666666" points="485.25,-59.75 412.25,-59.75 412.25,-39 485.25,-39 485.25,-59.75"/>
<text xml:space="preserve" text-anchor="middle" x="448.75" y="-46.25" font-family="Helvetica,sans-Serif" font-size="10.00">new_button</text>
</a>
</g>
</g>
<!-- Node6&#45;&gt;Node12 -->
<g id="edge10_Node000006_Node000012" class="edge">
<title>Node6&#45;&gt;Node12</title>
<g id="a_edge10_Node000006_Node000012"><a xlink:title=" ">
<path fill="none" stroke="#63b8ff" d="M350.87,-60.37C367.67,-58.47 385.2,-56.48 400.66,-54.72"/>
<polygon fill="#63b8ff" stroke="#63b8ff" points="400.98,-58.21 410.52,-53.6 400.19,-51.25 400.98,-58.21"/>
</a>
</g>
</g>
<!-- Node9 -->
<g id="Node000009" class="node">
<title>Node9</title>
<g id="a_Node000009"><a xlink:href="kest__ui_8c.html#a8e18610dded037df6bd96330d349f186" target="_top" xlink:title=" ">
<polygon fill="#fff0f0" stroke="red" points="689.5,-20.75 546.75,-20.75 546.75,0 689.5,0 689.5,-20.75"/>
<text xml:space="preserve" text-anchor="middle" x="618.12" y="-7.25" font-family="Helvetica,sans-Serif" font-size="10.00">enter_ui_page_backwards</text>
</a>
</g>
</g>
<!-- Node8&#45;&gt;Node9 -->
<g id="edge9_Node000008_Node000009" class="edge">
<title>Node8&#45;&gt;Node9</title>
<g id="a_edge9_Node000008_Node000009"><a xlink:title=" ">
<path fill="none" stroke="#63b8ff" d="M511.12,-10.38C518.92,-10.38 527,-10.38 535.06,-10.38"/>
<polygon fill="#63b8ff" stroke="#63b8ff" points="534.9,-13.88 544.9,-10.38 534.9,-6.88 534.9,-13.88"/>
</a>
</g>
</g>
<!-- Node12&#45;&gt;Node3 -->
<g id="edge12_Node000012_Node000003" class="edge">
<title>Node12&#45;&gt;Node3</title>
<g id="a_edge12_Node000012_Node000003"><a xlink:title=" ">
<path fill="none" stroke="#63b8ff" d="M485.62,-59.98C493.97,-62.76 502.76,-65.95 510.75,-69.38 538.43,-81.22 568.56,-97.73 589.66,-109.94"/>
<polygon fill="#63b8ff" stroke="#63b8ff" points="587.82,-112.92 598.22,-114.94 591.36,-106.87 587.82,-112.92"/>
</a>
</g>
</g>
<!-- Node13 -->
<g id="Node000013" class="node">
<title>Node13</title>
<g id="a_Node000013"><a xlink:href="kest__button_8c.html#a20604a0eb74819a9747753ccfdb24e6c" target="_top" xlink:title=" ">
<polygon fill="white" stroke="#666666" points="652.38,-59.75 583.88,-59.75 583.88,-39 652.38,-39 652.38,-59.75"/>
<text xml:space="preserve" text-anchor="middle" x="618.12" y="-46.25" font-family="Helvetica,sans-Serif" font-size="10.00">init_button</text>
</a>
</g>
</g>
<!-- Node12&#45;&gt;Node13 -->
<g id="edge11_Node000012_Node000013" class="edge">
<title>Node12&#45;&gt;Node13</title>
<g id="a_edge11_Node000012_Node000013"><a xlink:title=" ">
<path fill="none" stroke="#63b8ff" d="M485.66,-49.38C511.04,-49.38 545.24,-49.38 572.4,-49.38"/>
<polygon fill="#63b8ff" stroke="#63b8ff" points="572.04,-52.88 582.04,-49.38 572.04,-45.88 572.04,-52.88"/>
</a>
</g>
</g>
</g>
</svg>
