<?xml version="1.0" encoding="UTF-8" standalone="no"?>
<!DOCTYPE svg PUBLIC "-//W3C//DTD SVG 1.1//EN"
 "http://www.w3.org/Graphics/SVG/1.1/DTD/svg11.dtd">
<!-- Generated by graphviz version 13.1.2 (20250808.2320)
 -->
<!-- Title: kest_setting_make_clone Pages: 1 -->
<svg width="534pt" height="74pt"
 viewBox="0.00 0.00 534.00 74.00" xmlns="http://www.w3.org/2000/svg" xmlns:xlink="http://www.w3.org/1999/xlink">
<g id="graph0" class="graph" transform="scale(1 1) rotate(0) translate(4 70.12)">
<title>kest_setting_make_clone</title>
<!-- Node1 -->
<g id="Node000001" class="node">
<title>Node1</title>
<g id="a_Node000001"><a xlink:title=" ">
<polygon fill="#999999" stroke="#666666" points="139,-39.75 0,-39.75 0,-19 139,-19 139,-39.75"/>
<text xml:space="preserve" text-anchor="middle" x="69.5" y="-26.25" font-family="Helvetica,sans-Serif" font-size="10.00">kest_setting_make_clone</text>
</a>
</g>
</g>
<!-- Node2 -->
<g id="Node000002" class="node">
<title>Node2</title>
<g id="a_Node000002"><a xlink:href="kest__parameter_8c.html#a0557624c9a1b47f1ae42049322650a6e" target="_top" xlink:title=" ">
<polygon fill="white" stroke="#666666" points="256.25,-58.75 175,-58.75 175,-38 256.25,-38 256.25,-58.75"/>
<text xml:space="preserve" text-anchor="middle" x="215.62" y="-45.25" font-family="Helvetica,sans-Serif" font-size="10.00">clone_setting</text>
</a>
</g>
</g>
<!-- Node1&#45;&gt;Node2 -->
<g id="edge1_Node000001_Node000002" class="edge">
<title>Node1&#45;&gt;Node2</title>
<g id="a_edge1_Node000001_Node000002"><a xlink:title=" ">
<path fill="none" stroke="#63b8ff" d="M139.19,-38.43C147.37,-39.51 155.61,-40.6 163.49,-41.63"/>
<polygon fill="#63b8ff" stroke="#63b8ff" points="162.85,-45.08 173.22,-42.92 163.76,-38.14 162.85,-45.08"/>
</a>
</g>
</g>
<!-- Node7 -->
<g id="Node000007" class="node">
<title>Node7</title>
<g id="a_Node000007"><a xlink:href="kest__alloc_8c.html#a849755c5dc5b35e712ffcdb602e50fb4" target="_top" xlink:title=" ">
<polygon fill="white" stroke="#666666" points="369,-20.75 304.25,-20.75 304.25,0 369,0 369,-20.75"/>
<text xml:space="preserve" text-anchor="middle" x="336.62" y="-7.25" font-family="Helvetica,sans-Serif" font-size="10.00">kest_alloc</text>
</a>
</g>
</g>
<!-- Node1&#45;&gt;Node7 -->
<g id="edge5_Node000001_Node000007" class="edge">
<title>Node1&#45;&gt;Node7</title>
<g id="a_edge5_Node000001_Node000007"><a xlink:title=" ">
<path fill="none" stroke="#63b8ff" d="M139.47,-24.43C187.89,-20.96 251.14,-16.43 292.55,-13.46"/>
<polygon fill="#63b8ff" stroke="#63b8ff" points="292.64,-16.96 302.37,-12.76 292.14,-9.98 292.64,-16.96"/>
</a>
</g>
</g>
<!-- Node3 -->
<g id="Node000003" class="node">
<title>Node3</title>
<g id="a_Node000003"><a xlink:href="kest__parameter_8c.html#a7c270a293ab879d0d3e757625c7c7dda" target="_top" xlink:title=" ">
<polygon fill="white" stroke="#666666" points="381,-59.75 292.25,-59.75 292.25,-39 381,-39 381,-59.75"/>
<text xml:space="preserve" text-anchor="middle" x="336.62" y="-46.25" font-family="Helvetica,sans-Serif" font-size="10.00">init_setting_str</text>
</a>
</g>
</g>
<!-- Node2&#45;&gt;Node3 -->
<g id="edge2_Node000002_Node000003" class="edge">
<title>Node2&#45;&gt;Node3</title>
<g id="a_edge2_Node000002_Node000003"><a xlink:title=" ">
<path fill="none" stroke="#63b8ff" d="M256.58,-48.71C264.29,-48.78 272.49,-48.84 280.59,-48.91"/>
<polygon fill="#63b8ff" stroke="#63b8ff" points="280.35,-52.41 290.38,-48.99 280.41,-45.41 280.35,-52.41"/>
</a>
</g>
</g>
<!-- Node2&#45;&gt;Node7 -->
<g id="edge4_Node000002_Node000007" class="edge">
<title>Node2&#45;&gt;Node7</title>
<g id="a_edge4_Node000002_Node000007"><a xlink:title=" ">
<path fill="none" stroke="#63b8ff" d="M250.41,-37.59C263.64,-33.36 278.97,-28.47 292.95,-24"/>
<polygon fill="#63b8ff" stroke="#63b8ff" points="293.9,-27.37 302.36,-21 291.77,-20.7 293.9,-27.37"/>
</a>
</g>
</g>
<!-- Node4 -->
<g id="Node000004" class="node">
<title>Node4</title>
<g id="a_Node000004"><a xlink:href="kest__parameter_8c.html#a3c9f839cffc5f0a9b0630682ce8e9b9c" target="_top" xlink:title=" ">
<polygon fill="#fff0f0" stroke="red" points="526,-66.12 417,-66.12 417,-32.62 526,-32.62 526,-66.12"/>
<text xml:space="preserve" text-anchor="start" x="425" y="-52.62" font-family="Helvetica,sans-Serif" font-size="10.00">kest_setting_effect</text>
<text xml:space="preserve" text-anchor="middle" x="471.5" y="-39.88" font-family="Helvetica,sans-Serif" font-size="10.00">_rep_update</text>
</a>
</g>
</g>
<!-- Node3&#45;&gt;Node4 -->
<g id="edge3_Node000003_Node000004" class="edge">
<title>Node3&#45;&gt;Node4</title>
<g id="a_edge3_Node000003_Node000004"><a xlink:title=" ">
<path fill="none" stroke="#63b8ff" d="M381.13,-49.38C388.85,-49.38 397.04,-49.38 405.2,-49.38"/>
<polygon fill="#63b8ff" stroke="#63b8ff" points="405.16,-52.88 415.16,-49.38 405.16,-45.88 405.16,-52.88"/>
</a>
</g>
</g>
</g>
</svg>
