<?xml version="1.0" encoding="UTF-8" standalone="no"?>
<!DOCTYPE svg PUBLIC "-//W3C//DTD SVG 1.1//EN"
 "http://www.w3.org/Graphics/SVG/1.1/DTD/svg11.dtd">
<!-- Generated by graphviz version 13.1.2 (20250808.2320)
 -->
<!-- Title: kest_profile_file_rep_update Pages: 1 -->
<svg width="385pt" height="158pt"
 viewBox="0.00 0.00 385.00 158.00" xmlns="http://www.w3.org/2000/svg" xmlns:xlink="http://www.w3.org/1999/xlink">
<g id="graph0" class="graph" transform="scale(1 1) rotate(0) translate(4 153.75)">
<title>kest_profile_file_rep_update</title>
<!-- Node1 -->
<g id="Node000001" class="node">
<title>Node1</title>
<g id="a_Node000001"><a xlink:title=" ">
<polygon fill="#999999" stroke="#666666" points="115,-94.12 0,-94.12 0,-60.62 115,-60.62 115,-94.12"/>
<text xml:space="preserve" text-anchor="start" x="8" y="-80.62" font-family="Helvetica,sans-Serif" font-size="10.00">kest_profile_file_rep</text>
<text xml:space="preserve" text-anchor="middle" x="57.5" y="-67.88" font-family="Helvetica,sans-Serif" font-size="10.00">_update</text>
</a>
</g>
</g>
<!-- Node2 -->
<g id="Node000002" class="node">
<title>Node2</title>
<g id="a_Node000002"><a xlink:href="kest__files_8c.html#ab39f3c0d9f0a16ccb7d076a22fc4ca22" target="_top" xlink:title=" ">
<polygon fill="white" stroke="#666666" points="227,-87.75 151,-87.75 151,-67 227,-67 227,-87.75"/>
<text xml:space="preserve" text-anchor="middle" x="189" y="-74.25" font-family="Helvetica,sans-Serif" font-size="10.00">save_profile</text>
</a>
</g>
</g>
<!-- Node1&#45;&gt;Node2 -->
<g id="edge1_Node000001_Node000002" class="edge">
<title>Node1&#45;&gt;Node2</title>
<g id="a_edge1_Node000001_Node000002"><a xlink:title=" ">
<path fill="none" stroke="#63b8ff" d="M115.3,-77.38C123.24,-77.38 131.35,-77.38 139.13,-77.38"/>
<polygon fill="#63b8ff" stroke="#63b8ff" points="139.11,-80.88 149.11,-77.38 139.11,-73.88 139.11,-80.88"/>
</a>
</g>
</g>
<!-- Node3 -->
<g id="Node000003" class="node">
<title>Node3</title>
<g id="a_Node000003"><a xlink:href="kest__files_8c.html#ab79d861306c25eab9284239e73d0cc07" target="_top" xlink:title=" ">
<polygon fill="white" stroke="#666666" points="375.75,-149.75 263.75,-149.75 263.75,-129 375.75,-129 375.75,-149.75"/>
<text xml:space="preserve" text-anchor="middle" x="319.75" y="-136.25" font-family="Helvetica,sans-Serif" font-size="10.00">dump_file_contents</text>
</a>
</g>
</g>
<!-- Node2&#45;&gt;Node3 -->
<g id="edge2_Node000002_Node000003" class="edge">
<title>Node2&#45;&gt;Node3</title>
<g id="a_edge2_Node000002_Node000003"><a xlink:title=" ">
<path fill="none" stroke="#63b8ff" d="M206.65,-88.1C221.16,-97.16 242.96,-110.11 263,-119.38 266.82,-121.14 270.84,-122.85 274.9,-124.48"/>
<polygon fill="#63b8ff" stroke="#63b8ff" points="273.63,-127.75 284.22,-128.05 276.13,-121.21 273.63,-127.75"/>
</a>
</g>
</g>
<!-- Node4 -->
<g id="Node000004" class="node">
<title>Node4</title>
<g id="a_Node000004"><a xlink:href="kest__files_8c.html#aa81649890323b78baf99fbbad53ab5ff" target="_top" xlink:title=" ">
<polygon fill="white" stroke="#666666" points="373.88,-110.75 265.62,-110.75 265.62,-90 373.88,-90 373.88,-110.75"/>
<text xml:space="preserve" text-anchor="middle" x="319.75" y="-97.25" font-family="Helvetica,sans-Serif" font-size="10.00">generate_filename</text>
</a>
</g>
</g>
<!-- Node2&#45;&gt;Node4 -->
<g id="edge3_Node000002_Node000004" class="edge">
<title>Node2&#45;&gt;Node4</title>
<g id="a_edge3_Node000002_Node000004"><a xlink:title=" ">
<path fill="none" stroke="#63b8ff" d="M227.24,-84.03C235.69,-85.54 244.9,-87.18 254.12,-88.83"/>
<polygon fill="#63b8ff" stroke="#63b8ff" points="253.36,-92.25 263.82,-90.56 254.59,-85.36 253.36,-92.25"/>
</a>
</g>
</g>
<!-- Node5 -->
<g id="Node000005" class="node">
<title>Node5</title>
<g id="a_Node000005"><a xlink:href="kest__error__codes_8c.html#a0f4c77127bc0b77264a21104979c576a" target="_top" xlink:title=" ">
<polygon fill="white" stroke="#666666" points="373.88,-72.12 265.62,-72.12 265.62,-38.62 373.88,-38.62 373.88,-72.12"/>
<text xml:space="preserve" text-anchor="start" x="273.62" y="-58.62" font-family="Helvetica,sans-Serif" font-size="10.00">kest_error_code_to</text>
<text xml:space="preserve" text-anchor="middle" x="319.75" y="-45.88" font-family="Helvetica,sans-Serif" font-size="10.00">_string</text>
</a>
</g>
</g>
<!-- Node2&#45;&gt;Node5 -->
<g id="edge4_Node000002_Node000005" class="edge">
<title>Node2&#45;&gt;Node5</title>
<g id="a_edge4_Node000002_Node000005"><a xlink:title=" ">
<path fill="none" stroke="#63b8ff" d="M227.24,-71.01C235.69,-69.57 244.9,-67.99 254.12,-66.42"/>
<polygon fill="#63b8ff" stroke="#63b8ff" points="254.55,-69.9 263.82,-64.76 253.37,-63 254.55,-69.9"/>
</a>
</g>
</g>
<!-- Node6 -->
<g id="Node000006" class="node">
<title>Node6</title>
<g id="a_Node000006"><a xlink:href="kest__files_8c.html#acdd9a1fdb8fef8888d540a275ecfa86a" target="_top" xlink:title=" ">
<polygon fill="white" stroke="#666666" points="376.5,-20.75 263,-20.75 263,0 376.5,0 376.5,-20.75"/>
<text xml:space="preserve" text-anchor="middle" x="319.75" y="-7.25" font-family="Helvetica,sans-Serif" font-size="10.00">save_profile_as_file</text>
</a>
</g>
</g>
<!-- Node2&#45;&gt;Node6 -->
<g id="edge5_Node000002_Node000006" class="edge">
<title>Node2&#45;&gt;Node6</title>
<g id="a_edge5_Node000002_Node000006"><a xlink:title=" ">
<path fill="none" stroke="#63b8ff" d="M203.9,-66.69C218.14,-56.12 241.2,-40.04 263,-29.38 265.88,-27.96 268.9,-26.61 271.97,-25.33"/>
<polygon fill="#63b8ff" stroke="#63b8ff" points="273.06,-28.66 281.11,-21.78 270.52,-22.14 273.06,-28.66"/>
</a>
</g>
</g>
</g>
</svg>
