<?xml version="1.0" encoding="UTF-8" standalone="no"?>
<!DOCTYPE svg PUBLIC "-//W3C//DTD SVG 1.1//EN"
 "http://www.w3.org/Graphics/SVG/1.1/DTD/svg11.dtd">
<!-- Generated by graphviz version 13.1.2 (20250808.2320)
 -->
<!-- Title: kest_parser_warn_at_node Pages: 1 -->
<svg width="798pt" height="184pt"
 viewBox="0.00 0.00 798.00 184.00" xmlns="http://www.w3.org/2000/svg" xmlns:xlink="http://www.w3.org/1999/xlink">
<g id="graph0" class="graph" transform="scale(1 1) rotate(0) translate(4 179.5)">
<title>kest_parser_warn_at_node</title>
<!-- Node1 -->
<g id="Node000001" class="node">
<title>Node1</title>
<g id="a_Node000001"><a xlink:title=" ">
<polygon fill="#999999" stroke="#666666" points="790.25,-101.12 644.5,-101.12 644.5,-80.38 790.25,-80.38 790.25,-101.12"/>
<text xml:space="preserve" text-anchor="middle" x="717.38" y="-87.62" font-family="Helvetica,sans-Serif" font-size="10.00">kest_parser_warn_at_node</text>
</a>
</g>
</g>
<!-- Node2 -->
<g id="Node000002" class="node">
<title>Node2</title>
<g id="a_Node000002"><a xlink:href="kest__dict__extract_8c.html#ae4dad8e5e3965fca45e94b9d877ccb97" target="_top" xlink:title=" ">
<polygon fill="white" stroke="#666666" points="608.5,-175.5 467.25,-175.5 467.25,-142 608.5,-142 608.5,-175.5"/>
<text xml:space="preserve" text-anchor="start" x="475.25" y="-162" font-family="Helvetica,sans-Serif" font-size="10.00">kest_extract_bool_setting</text>
<text xml:space="preserve" text-anchor="middle" x="537.88" y="-149.25" font-family="Helvetica,sans-Serif" font-size="10.00">_from_dict</text>
</a>
</g>
</g>
<!-- Node1&#45;&gt;Node2 -->
<g id="edge1_Node000001_Node000002" class="edge">
<title>Node1&#45;&gt;Node2</title>
<g id="a_edge1_Node000001_Node000002"><a xlink:title=" ">
<path fill="none" stroke="#63b8ff" d="M677.79,-105.53C650.14,-116.13 612.81,-130.43 583.81,-141.54"/>
<polygon fill="#63b8ff" stroke="#63b8ff" points="678.75,-108.91 686.84,-102.07 676.25,-102.38 678.75,-108.91"/>
</a>
</g>
</g>
<!-- Node3 -->
<g id="Node000003" class="node">
<title>Node3</title>
<g id="a_Node000003"><a xlink:href="kest__dict__extract_8c.html#a0225c4392c944b41b1db66787be35243" target="_top" xlink:title=" ">
<polygon fill="white" stroke="#666666" points="431.25,-127.5 316.25,-127.5 316.25,-94 431.25,-94 431.25,-127.5"/>
<text xml:space="preserve" text-anchor="start" x="324.25" y="-114" font-family="Helvetica,sans-Serif" font-size="10.00">kest_extract_setting</text>
<text xml:space="preserve" text-anchor="middle" x="373.75" y="-101.25" font-family="Helvetica,sans-Serif" font-size="10.00">_from_dict</text>
</a>
</g>
</g>
<!-- Node1&#45;&gt;Node3 -->
<g id="edge10_Node000001_Node000003" class="edge">
<title>Node1&#45;&gt;Node3</title>
<g id="a_edge10_Node000001_Node000003"><a xlink:title=" ">
<path fill="none" stroke="#63b8ff" d="M632.94,-95.63C570.47,-99.29 486.67,-104.2 431.72,-107.41"/>
<polygon fill="#63b8ff" stroke="#63b8ff" points="633.05,-99.13 642.83,-95.06 632.64,-92.15 633.05,-99.13"/>
</a>
</g>
</g>
<!-- Node11 -->
<g id="Node000011" class="node">
<title>Node11</title>
<g id="a_Node000011"><a xlink:href="kest__dict__extract_8c.html#aaef489a5ae1caa02a5e5a3ce26034d48" target="_top" xlink:title=" ">
<polygon fill="white" stroke="#666666" points="604.38,-85.5 471.38,-85.5 471.38,-52 604.38,-52 604.38,-85.5"/>
<text xml:space="preserve" text-anchor="start" x="479.38" y="-72" font-family="Helvetica,sans-Serif" font-size="10.00">kest_extract_int_setting</text>
<text xml:space="preserve" text-anchor="middle" x="537.88" y="-59.25" font-family="Helvetica,sans-Serif" font-size="10.00">_from_dict</text>
</a>
</g>
</g>
<!-- Node1&#45;&gt;Node11 -->
<g id="edge5_Node000001_Node000011" class="edge">
<title>Node1&#45;&gt;Node11</title>
<g id="a_edge5_Node000001_Node000011"><a xlink:title=" ">
<path fill="none" stroke="#63b8ff" d="M632.76,-80.39C623.35,-79.22 613.86,-78.04 604.72,-76.91"/>
<polygon fill="#63b8ff" stroke="#63b8ff" points="632.32,-83.86 642.68,-81.62 633.18,-76.91 632.32,-83.86"/>
</a>
</g>
</g>
<!-- Node12 -->
<g id="Node000012" class="node">
<title>Node12</title>
<g id="a_Node000012"><a xlink:href="kest__dict__extract_8c.html#aaf0af9bba0940d4cfe5a8286222f14be" target="_top" xlink:title=" ">
<polygon fill="white" stroke="#666666" points="604,-33.5 471.75,-33.5 471.75,0 604,0 604,-33.5"/>
<text xml:space="preserve" text-anchor="start" x="479.75" y="-20" font-family="Helvetica,sans-Serif" font-size="10.00">kest_extract_parameter</text>
<text xml:space="preserve" text-anchor="middle" x="537.88" y="-7.25" font-family="Helvetica,sans-Serif" font-size="10.00">_from_dict</text>
</a>
</g>
</g>
<!-- Node1&#45;&gt;Node12 -->
<g id="edge7_Node000001_Node000012" class="edge">
<title>Node1&#45;&gt;Node12</title>
<g id="a_edge7_Node000001_Node000012"><a xlink:title=" ">
<path fill="none" stroke="#63b8ff" d="M683,-75.27C661.8,-65.59 633.71,-53.05 608.5,-42.75 601.33,-39.82 593.7,-36.84 586.22,-33.98"/>
<polygon fill="#63b8ff" stroke="#63b8ff" points="681.48,-78.42 692.03,-79.41 684.4,-72.06 681.48,-78.42"/>
</a>
</g>
</g>
<!-- Node2&#45;&gt;Node3 -->
<g id="edge2_Node000002_Node000003" class="edge">
<title>Node2&#45;&gt;Node3</title>
<g id="a_edge2_Node000002_Node000003"><a xlink:title=" ">
<path fill="none" stroke="#63b8ff" d="M467.84,-138.31C455.76,-134.73 443.31,-131.05 431.6,-127.58"/>
<polygon fill="#63b8ff" stroke="#63b8ff" points="466.77,-141.64 477.35,-141.13 468.76,-134.93 466.77,-141.64"/>
</a>
</g>
</g>
<!-- Node4 -->
<g id="Node000004" class="node">
<title>Node4</title>
<g id="a_Node000004"><a xlink:href="kest__eff__section_8c.html#ac86840256c51c90c1c1066da9b88e7af" target="_top" xlink:title=" ">
<polygon fill="white" stroke="#666666" points="271.62,-124.5 150.62,-124.5 150.62,-91 271.62,-91 271.62,-124.5"/>
<text xml:space="preserve" text-anchor="start" x="158.62" y="-111" font-family="Helvetica,sans-Serif" font-size="10.00">kest_settings_section</text>
<text xml:space="preserve" text-anchor="middle" x="211.12" y="-98.25" font-family="Helvetica,sans-Serif" font-size="10.00">_extract</text>
</a>
</g>
</g>
<!-- Node3&#45;&gt;Node4 -->
<g id="edge3_Node000003_Node000004" class="edge">
<title>Node3&#45;&gt;Node4</title>
<g id="a_edge3_Node000003_Node000004"><a xlink:title=" ">
<path fill="none" stroke="#63b8ff" d="M304.9,-109.48C293.99,-109.28 282.76,-109.07 272.06,-108.87"/>
<polygon fill="#63b8ff" stroke="#63b8ff" points="304.54,-112.98 314.61,-109.66 304.67,-105.98 304.54,-112.98"/>
</a>
</g>
</g>
<!-- Node5 -->
<g id="Node000005" class="node">
<title>Node5</title>
<g id="a_Node000005"><a xlink:href="kest__eff__parser_8c.html#a73ef6962d1925857ec3e4b12d1aad834" target="_top" xlink:title=" ">
<polygon fill="#fff0f0" stroke="red" points="106,-86.12 0,-86.12 0,-65.38 106,-65.38 106,-86.12"/>
<text xml:space="preserve" text-anchor="middle" x="53" y="-72.62" font-family="Helvetica,sans-Serif" font-size="10.00">kest_parse_tokens</text>
</a>
</g>
</g>
<!-- Node4&#45;&gt;Node5 -->
<g id="edge4_Node000004_Node000005" class="edge">
<title>Node4&#45;&gt;Node5</title>
<g id="a_edge4_Node000004_Node000005"><a xlink:title=" ">
<path fill="none" stroke="#63b8ff" d="M139.24,-93.22C128.18,-90.95 116.92,-88.65 106.37,-86.48"/>
<polygon fill="#63b8ff" stroke="#63b8ff" points="138.23,-96.59 148.73,-95.17 139.63,-89.73 138.23,-96.59"/>
</a>
</g>
</g>
<!-- Node11&#45;&gt;Node3 -->
<g id="edge6_Node000011_Node000003" class="edge">
<title>Node11&#45;&gt;Node3</title>
<g id="a_edge6_Node000011_Node000003"><a xlink:title=" ">
<path fill="none" stroke="#63b8ff" d="M459.81,-88.71C450.29,-91.18 440.69,-93.67 431.54,-96.04"/>
<polygon fill="#63b8ff" stroke="#63b8ff" points="460.66,-92.11 469.47,-86.21 458.91,-85.33 460.66,-92.11"/>
</a>
</g>
</g>
<!-- Node13 -->
<g id="Node000013" class="node">
<title>Node13</title>
<g id="a_Node000013"><a xlink:href="kest__eff__section_8c.html#a5fe6d5cd354aa8f4322524ecc9b6af63" target="_top" xlink:title=" ">
<polygon fill="white" stroke="#666666" points="280.25,-66.5 142,-66.5 142,-33 280.25,-33 280.25,-66.5"/>
<text xml:space="preserve" text-anchor="start" x="150" y="-53" font-family="Helvetica,sans-Serif" font-size="10.00">kest_parameters_section</text>
<text xml:space="preserve" text-anchor="middle" x="211.12" y="-40.25" font-family="Helvetica,sans-Serif" font-size="10.00">_extract</text>
</a>
</g>
</g>
<!-- Node12&#45;&gt;Node13 -->
<g id="edge8_Node000012_Node000013" class="edge">
<title>Node12&#45;&gt;Node13</title>
<g id="a_edge8_Node000012_Node000013"><a xlink:title=" ">
<path fill="none" stroke="#63b8ff" d="M460.21,-24.54C405.75,-30.07 333.26,-37.44 280.71,-42.78"/>
<polygon fill="#63b8ff" stroke="#63b8ff" points="460.45,-28.03 470.04,-23.54 459.74,-21.07 460.45,-28.03"/>
</a>
</g>
</g>
<!-- Node13&#45;&gt;Node5 -->
<g id="edge9_Node000013_Node000005" class="edge">
<title>Node13&#45;&gt;Node5</title>
<g id="a_edge9_Node000013_Node000005"><a xlink:title=" ">
<path fill="none" stroke="#63b8ff" d="M130.53,-63C122.37,-64.36 114.23,-65.72 106.46,-67.01"/>
<polygon fill="#63b8ff" stroke="#63b8ff" points="130.86,-66.5 140.15,-61.4 129.71,-59.59 130.86,-66.5"/>
</a>
</g>
</g>
</g>
</svg>
