<?xml version="1.0" encoding="UTF-8" standalone="no"?>
<!DOCTYPE svg PUBLIC "-//W3C//DTD SVG 1.1//EN"
 "http://www.w3.org/Graphics/SVG/1.1/DTD/svg11.dtd">
<!-- Generated by graphviz version 13.1.2 (20250808.2320)
 -->
<!-- Title: kest_fpga_send_byte Pages: 1 -->
<svg width="656pt" height="157pt"
 viewBox="0.00 0.00 656.00 157.00" xmlns="http://www.w3.org/2000/svg" xmlns:xlink="http://www.w3.org/1999/xlink">
<g id="graph0" class="graph" transform="scale(1 1) rotate(0) translate(4 153.12)">
<title>kest_fpga_send_byte</title>
<!-- Node1 -->
<g id="Node000001" class="node">
<title>Node1</title>
<g id="a_Node000001"><a xlink:title=" ">
<polygon fill="#999999" stroke="#666666" points="647.75,-78.75 529,-78.75 529,-58 647.75,-58 647.75,-78.75"/>
<text xml:space="preserve" text-anchor="middle" x="588.38" y="-65.25" font-family="Helvetica,sans-Serif" font-size="10.00">kest_fpga_send_byte</text>
</a>
</g>
</g>
<!-- Node2 -->
<g id="Node000002" class="node">
<title>Node2</title>
<g id="a_Node000002"><a xlink:href="kest__fpga__io_8c.html#ac4389d5b4fc4dc3806d9e9cc2195b6b4" target="_top" xlink:title=" ">
<polygon fill="white" stroke="#666666" points="483.25,-149.12 356.25,-149.12 356.25,-115.62 483.25,-115.62 483.25,-149.12"/>
<text xml:space="preserve" text-anchor="start" x="364.25" y="-135.62" font-family="Helvetica,sans-Serif" font-size="10.00">kest_fpga_commit_reg</text>
<text xml:space="preserve" text-anchor="middle" x="419.75" y="-122.88" font-family="Helvetica,sans-Serif" font-size="10.00">_updates</text>
</a>
</g>
</g>
<!-- Node1&#45;&gt;Node2 -->
<g id="edge1_Node000001_Node000002" class="edge">
<title>Node1&#45;&gt;Node2</title>
<g id="a_edge1_Node000001_Node000002"><a xlink:title=" ">
<path fill="none" stroke="#63b8ff" d="M548.62,-83.26C523.77,-92.8 491.44,-105.22 465.51,-115.18"/>
<polygon fill="#63b8ff" stroke="#63b8ff" points="549.62,-86.63 557.7,-79.77 547.11,-80.09 549.62,-86.63"/>
</a>
</g>
</g>
<!-- Node3 -->
<g id="Node000003" class="node">
<title>Node3</title>
<g id="a_Node000003"><a xlink:href="kest__fpga__comms_8c.html#a8f850777494bb4c4d61df3efbf31ca7c" target="_top" xlink:title=" ">
<polygon fill="white" stroke="#666666" points="310.5,-59.75 179.75,-59.75 179.75,-39 310.5,-39 310.5,-59.75"/>
<text xml:space="preserve" text-anchor="middle" x="245.12" y="-46.25" font-family="Helvetica,sans-Serif" font-size="10.00">kest_fpga_comms_task</text>
</a>
</g>
</g>
<!-- Node1&#45;&gt;Node3 -->
<g id="edge2_Node000001_Node000003" class="edge">
<title>Node1&#45;&gt;Node3</title>
<g id="a_edge2_Node000001_Node000003"><a xlink:title=" ">
<path fill="none" stroke="#63b8ff" d="M517.58,-71.81C469.41,-73.34 403.93,-73.76 346.5,-68.38 329.11,-66.74 310.24,-63.55 293.6,-60.25"/>
<polygon fill="#63b8ff" stroke="#63b8ff" points="517.44,-75.32 527.31,-71.48 517.2,-68.32 517.44,-75.32"/>
</a>
</g>
</g>
<!-- Node7 -->
<g id="Node000007" class="node">
<title>Node7</title>
<g id="a_Node000007"><a xlink:href="kest__fpga__io_8c.html#a0e6e4e058cfd8f3ec79208acb0f71aa6" target="_top" xlink:title=" ">
<polygon fill="white" stroke="#666666" points="489.62,-59.75 349.88,-59.75 349.88,-39 489.62,-39 489.62,-59.75"/>
<text xml:space="preserve" text-anchor="middle" x="419.75" y="-46.25" font-family="Helvetica,sans-Serif" font-size="10.00">kest_fpga_set_input_gain</text>
</a>
</g>
</g>
<!-- Node1&#45;&gt;Node7 -->
<g id="edge6_Node000001_Node000007" class="edge">
<title>Node1&#45;&gt;Node7</title>
<g id="a_edge6_Node000001_Node000007"><a xlink:title=" ">
<path fill="none" stroke="#63b8ff" d="M517.35,-60.39C508.33,-59.36 499.1,-58.31 490.09,-57.28"/>
<polygon fill="#63b8ff" stroke="#63b8ff" points="516.79,-63.85 527.13,-61.5 517.59,-56.89 516.79,-63.85"/>
</a>
</g>
</g>
<!-- Node8 -->
<g id="Node000008" class="node">
<title>Node8</title>
<g id="a_Node000008"><a xlink:href="kest__fpga__io_8c.html#a6569f6bf656d72080dd355179ac2c4e9" target="_top" xlink:title=" ">
<polygon fill="white" stroke="#666666" points="493,-20.75 346.5,-20.75 346.5,0 493,0 493,-20.75"/>
<text xml:space="preserve" text-anchor="middle" x="419.75" y="-7.25" font-family="Helvetica,sans-Serif" font-size="10.00">kest_fpga_set_output_gain</text>
</a>
</g>
</g>
<!-- Node1&#45;&gt;Node8 -->
<g id="edge8_Node000001_Node000008" class="edge">
<title>Node1&#45;&gt;Node8</title>
<g id="a_edge8_Node000001_Node000008"><a xlink:title=" ">
<path fill="none" stroke="#63b8ff" d="M552.44,-53.21C534.79,-45.84 512.95,-37.13 493,-30.38 483.38,-27.12 472.92,-23.99 463.02,-21.22"/>
<polygon fill="#63b8ff" stroke="#63b8ff" points="550.86,-56.34 561.43,-57.01 553.58,-49.9 550.86,-56.34"/>
</a>
</g>
</g>
<!-- Node4 -->
<g id="Node000004" class="node">
<title>Node4</title>
<g id="a_Node000004"><a xlink:href="kest__int_8c.html#abce06be17fc37d675118a678a8100a36" target="_top" xlink:title=" ">
<polygon fill="white" stroke="#666666" points="142.25,-79.75 78.25,-79.75 78.25,-59 142.25,-59 142.25,-79.75"/>
<text xml:space="preserve" text-anchor="middle" x="110.25" y="-66.25" font-family="Helvetica,sans-Serif" font-size="10.00">app_main</text>
</a>
</g>
</g>
<!-- Node3&#45;&gt;Node4 -->
<g id="edge3_Node000003_Node000004" class="edge">
<title>Node3&#45;&gt;Node4</title>
<g id="a_edge3_Node000003_Node000004"><a xlink:title=" ">
<path fill="none" stroke="#63b8ff" d="M168.42,-60.77C159.28,-62.15 150.38,-63.48 142.43,-64.68"/>
<polygon fill="#63b8ff" stroke="#63b8ff" points="168.77,-64.26 178.14,-59.31 167.73,-57.33 168.77,-64.26"/>
</a>
</g>
</g>
<!-- Node5 -->
<g id="Node000005" class="node">
<title>Node5</title>
<g id="a_Node000005"><a xlink:href="kest__desktop_8c.html#ab499a4f71ef4cfc807b60d8739750c3e" target="_top" xlink:title=" ">
<polygon fill="white" stroke="#666666" points="143.75,-40.75 76.75,-40.75 76.75,-20 143.75,-20 143.75,-40.75"/>
<text xml:space="preserve" text-anchor="middle" x="110.25" y="-27.25" font-family="Helvetica,sans-Serif" font-size="10.00">main_task</text>
</a>
</g>
</g>
<!-- Node3&#45;&gt;Node5 -->
<g id="edge4_Node000003_Node000005" class="edge">
<title>Node3&#45;&gt;Node5</title>
<g id="a_edge4_Node000003_Node000005"><a xlink:title=" ">
<path fill="none" stroke="#63b8ff" d="M168.41,-38.55C159.93,-37.34 151.66,-36.15 144.16,-35.08"/>
<polygon fill="#63b8ff" stroke="#63b8ff" points="167.74,-41.99 178.14,-39.94 168.73,-35.06 167.74,-41.99"/>
</a>
</g>
</g>
<!-- Node6 -->
<g id="Node000006" class="node">
<title>Node6</title>
<g id="a_Node000006"><a xlink:href="kest__desktop_8c.html#a3c04138a5bfe5d72780bb7e82a18e627" target="_top" xlink:title=" ">
<polygon fill="white" stroke="#666666" points="40.75,-40.75 0,-40.75 0,-20 40.75,-20 40.75,-40.75"/>
<text xml:space="preserve" text-anchor="middle" x="20.38" y="-27.25" font-family="Helvetica,sans-Serif" font-size="10.00">main</text>
</a>
</g>
</g>
<!-- Node5&#45;&gt;Node6 -->
<g id="edge5_Node000005_Node000006" class="edge">
<title>Node5&#45;&gt;Node6</title>
<g id="a_edge5_Node000005_Node000006"><a xlink:title=" ">
<path fill="none" stroke="#63b8ff" d="M65.01,-30.38C56.68,-30.38 48.35,-30.38 41.24,-30.38"/>
<polygon fill="#63b8ff" stroke="#63b8ff" points="64.77,-33.88 74.77,-30.38 64.77,-26.88 64.77,-33.88"/>
</a>
</g>
</g>
<!-- Node7&#45;&gt;Node3 -->
<g id="edge7_Node000007_Node000003" class="edge">
<title>Node7&#45;&gt;Node3</title>
<g id="a_edge7_Node000007_Node000003"><a xlink:title=" ">
<path fill="none" stroke="#63b8ff" d="M338.06,-49.38C328.95,-49.38 319.75,-49.38 310.88,-49.38"/>
<polygon fill="#63b8ff" stroke="#63b8ff" points="338.02,-52.88 348.02,-49.38 338.02,-45.88 338.02,-52.88"/>
</a>
</g>
</g>
<!-- Node8&#45;&gt;Node3 -->
<g id="edge9_Node000008_Node000003" class="edge">
<title>Node8&#45;&gt;Node3</title>
<g id="a_edge9_Node000008_Node000003"><a xlink:title=" ">
<path fill="none" stroke="#63b8ff" d="M359.46,-23.77C338.18,-28.58 314.47,-33.93 294.25,-38.5"/>
<polygon fill="#63b8ff" stroke="#63b8ff" points="360.21,-27.19 369.19,-21.57 358.66,-20.36 360.21,-27.19"/>
</a>
</g>
</g>
</g>
</svg>
