<?xml version="1.0" encoding="UTF-8" standalone="no"?>
<!DOCTYPE svg PUBLIC "-//W3C//DTD SVG 1.1//EN"
 "http://www.w3.org/Graphics/SVG/1.1/DTD/svg11.dtd">
<!-- Generated by graphviz version 13.1.2 (20250808.2320)
 -->
<!-- Title: kest_fpga_batch_append_16 Pages: 1 -->
<svg width="680pt" height="204pt"
 viewBox="0.00 0.00 680.00 204.00" xmlns="http://www.w3.org/2000/svg" xmlns:xlink="http://www.w3.org/1999/xlink">
<g id="graph0" class="graph" transform="scale(1 1) rotate(0) translate(4 199.88)">
<title>kest_fpga_batch_append_16</title>
<!-- Node1 -->
<g id="Node000001" class="node">
<title>Node1</title>
<g id="a_Node000001"><a xlink:title=" ">
<polygon fill="#999999" stroke="#666666" points="672.25,-103.12 518.25,-103.12 518.25,-82.38 672.25,-82.38 672.25,-103.12"/>
<text xml:space="preserve" text-anchor="middle" x="595.25" y="-89.62" font-family="Helvetica,sans-Serif" font-size="10.00">kest_fpga_batch_append_16</text>
</a>
</g>
</g>
<!-- Node2 -->
<g id="Node000002" class="node">
<title>Node2</title>
<g id="a_Node000002"><a xlink:href="kest__fpga__encoding_8c.html#a9b93bb2d500d5c9986515930a0f9ce47" target="_top" xlink:title=" ">
<polygon fill="white" stroke="#666666" points="482.25,-135.5 345.5,-135.5 345.5,-102 482.25,-102 482.25,-135.5"/>
<text xml:space="preserve" text-anchor="start" x="353.5" y="-122" font-family="Helvetica,sans-Serif" font-size="10.00">kest_fpga_batch_append</text>
<text xml:space="preserve" text-anchor="middle" x="413.88" y="-109.25" font-family="Helvetica,sans-Serif" font-size="10.00">_block_number</text>
</a>
</g>
</g>
<!-- Node1&#45;&gt;Node2 -->
<g id="edge1_Node000001_Node000002" class="edge">
<title>Node1&#45;&gt;Node2</title>
<g id="a_edge1_Node000001_Node000002"><a xlink:title=" ">
<path fill="none" stroke="#63b8ff" d="M508.24,-105.22C499.65,-106.46 491.02,-107.71 482.65,-108.93"/>
<polygon fill="#63b8ff" stroke="#63b8ff" points="508.59,-108.7 517.98,-103.81 507.58,-101.78 508.59,-108.7"/>
</a>
</g>
</g>
<!-- Node64 -->
<g id="Node000064" class="node">
<title>Node64</title>
<g id="a_Node000064"><a xlink:href="kest__fpga__encoding_8c.html#a1eb834a3d6799cabab146f2f942de3a5" target="_top" xlink:title=" ">
<polygon fill="white" stroke="#666666" points="309.5,-189.5 172.75,-189.5 172.75,-156 309.5,-156 309.5,-189.5"/>
<text xml:space="preserve" text-anchor="start" x="180.75" y="-176" font-family="Helvetica,sans-Serif" font-size="10.00">kest_fpga_batch_append</text>
<text xml:space="preserve" text-anchor="middle" x="241.12" y="-163.25" font-family="Helvetica,sans-Serif" font-size="10.00">_block_register_updates</text>
</a>
</g>
</g>
<!-- Node1&#45;&gt;Node64 -->
<g id="edge8_Node000001_Node000064" class="edge">
<title>Node1&#45;&gt;Node64</title>
<g id="a_edge8_Node000001_Node000064"><a xlink:title=" ">
<path fill="none" stroke="#63b8ff" d="M565.93,-108.99C543.85,-120.87 512.03,-136.33 482.25,-144.75 425.4,-160.81 358.48,-167.68 309.74,-170.6"/>
<polygon fill="#63b8ff" stroke="#63b8ff" points="567.53,-112.1 574.61,-104.22 564.16,-105.97 567.53,-112.1"/>
</a>
</g>
</g>
<!-- Node67 -->
<g id="Node000067" class="node">
<title>Node67</title>
<g id="a_Node000067"><a xlink:href="kest__fpga__encoding_8c.html#a0c272bb9440b58f3546ad0f628d0daec" target="_top" xlink:title=" ">
<polygon fill="white" stroke="#666666" points="309.5,-85.5 172.75,-85.5 172.75,-52 309.5,-52 309.5,-85.5"/>
<text xml:space="preserve" text-anchor="start" x="180.75" y="-72" font-family="Helvetica,sans-Serif" font-size="10.00">kest_fpga_batch_append</text>
<text xml:space="preserve" text-anchor="middle" x="241.12" y="-59.25" font-family="Helvetica,sans-Serif" font-size="10.00">_block_regs</text>
</a>
</g>
</g>
<!-- Node1&#45;&gt;Node67 -->
<g id="edge9_Node000001_Node000067" class="edge">
<title>Node1&#45;&gt;Node67</title>
<g id="a_edge9_Node000001_Node000067"><a xlink:title=" ">
<path fill="none" stroke="#63b8ff" d="M506.7,-86.78C445.8,-82.63 365.78,-77.18 309.76,-73.36"/>
<polygon fill="#63b8ff" stroke="#63b8ff" points="506.12,-90.25 516.33,-87.44 506.6,-83.27 506.12,-90.25"/>
</a>
</g>
</g>
<!-- Node68 -->
<g id="Node000068" class="node">
<title>Node68</title>
<g id="a_Node000068"><a xlink:href="kest__fpga__encoding_8c.html#a3b6ea5da3d104a83a4e5fd1f668d9a91" target="_top" xlink:title=" ">
<polygon fill="white" stroke="#666666" points="482.25,-39.5 345.5,-39.5 345.5,-6 482.25,-6 482.25,-39.5"/>
<text xml:space="preserve" text-anchor="start" x="353.5" y="-26" font-family="Helvetica,sans-Serif" font-size="10.00">kest_fpga_batch_append</text>
<text xml:space="preserve" text-anchor="middle" x="413.88" y="-13.25" font-family="Helvetica,sans-Serif" font-size="10.00">_resource</text>
</a>
</g>
</g>
<!-- Node1&#45;&gt;Node68 -->
<g id="edge10_Node000001_Node000068" class="edge">
<title>Node1&#45;&gt;Node68</title>
<g id="a_edge10_Node000001_Node000068"><a xlink:title=" ">
<path fill="none" stroke="#63b8ff" d="M556.26,-77.93C527.8,-66.82 488.79,-51.59 458.95,-39.95"/>
<polygon fill="#63b8ff" stroke="#63b8ff" points="554.62,-81.04 565.21,-81.42 557.16,-74.52 554.62,-81.04"/>
</a>
</g>
</g>
<!-- Node3 -->
<g id="Node000003" class="node">
<title>Node3</title>
<g id="a_Node000003"><a xlink:href="kest__fpga__encoding_8c.html#a1e92fe0ff4b72e00fa5d840ec96508c7" target="_top" xlink:title=" ">
<polygon fill="white" stroke="#666666" points="309.5,-137.5 172.75,-137.5 172.75,-104 309.5,-104 309.5,-137.5"/>
<text xml:space="preserve" text-anchor="start" x="180.75" y="-124" font-family="Helvetica,sans-Serif" font-size="10.00">kest_fpga_batch_append</text>
<text xml:space="preserve" text-anchor="middle" x="241.12" y="-111.25" font-family="Helvetica,sans-Serif" font-size="10.00">_block_instr</text>
</a>
</g>
</g>
<!-- Node2&#45;&gt;Node3 -->
<g id="edge2_Node000002_Node000003" class="edge">
<title>Node2&#45;&gt;Node3</title>
<g id="a_edge2_Node000002_Node000003"><a xlink:title=" ">
<path fill="none" stroke="#63b8ff" d="M334.08,-119.67C326.02,-119.77 317.88,-119.86 309.96,-119.96"/>
<polygon fill="#63b8ff" stroke="#63b8ff" points="333.92,-123.18 343.88,-119.56 333.84,-116.18 333.92,-123.18"/>
</a>
</g>
</g>
<!-- Node2&#45;&gt;Node64 -->
<g id="edge4_Node000002_Node000064" class="edge">
<title>Node2&#45;&gt;Node64</title>
<g id="a_edge4_Node000002_Node000064"><a xlink:title=" ">
<path fill="none" stroke="#63b8ff" d="M347.48,-139.43C330.61,-144.77 312.63,-150.45 296.4,-155.59"/>
<polygon fill="#63b8ff" stroke="#63b8ff" points="348.46,-142.79 356.94,-136.44 346.35,-136.12 348.46,-142.79"/>
</a>
</g>
</g>
<!-- Node2&#45;&gt;Node67 -->
<g id="edge6_Node000002_Node000067" class="edge">
<title>Node2&#45;&gt;Node67</title>
<g id="a_edge6_Node000002_Node000067"><a xlink:title=" ">
<path fill="none" stroke="#63b8ff" d="M343.06,-98.31C329.09,-94.22 314.55,-89.96 301,-85.99"/>
<polygon fill="#63b8ff" stroke="#63b8ff" points="342.08,-101.67 352.66,-101.12 344.05,-94.95 342.08,-101.67"/>
</a>
</g>
</g>
<!-- Node4 -->
<g id="Node000004" class="node">
<title>Node4</title>
<g id="a_Node000004"><a xlink:href="kest__fpga__encoding_8c.html#a793b1841a47fcdbddc9d0aa5b6eec343" target="_top" xlink:title=" ">
<polygon fill="#fff0f0" stroke="red" points="136.75,-108.5 0,-108.5 0,-75 136.75,-75 136.75,-108.5"/>
<text xml:space="preserve" text-anchor="start" x="8" y="-95" font-family="Helvetica,sans-Serif" font-size="10.00">kest_fpga_batch_append</text>
<text xml:space="preserve" text-anchor="middle" x="68.38" y="-82.25" font-family="Helvetica,sans-Serif" font-size="10.00">_block</text>
</a>
</g>
</g>
<!-- Node3&#45;&gt;Node4 -->
<g id="edge3_Node000003_Node000004" class="edge">
<title>Node3&#45;&gt;Node4</title>
<g id="a_edge3_Node000003_Node000004"><a xlink:title=" ">
<path fill="none" stroke="#63b8ff" d="M161.33,-107.37C153.27,-106 145.13,-104.62 137.21,-103.27"/>
<polygon fill="#63b8ff" stroke="#63b8ff" points="160.7,-110.81 171.15,-109.03 161.88,-103.91 160.7,-110.81"/>
</a>
</g>
</g>
<!-- Node65 -->
<g id="Node000065" class="node">
<title>Node65</title>
<g id="a_Node000065"><a xlink:href="kest__fpga__encoding_8c.html#a2f3bae873de3ea2dafd0d6d1424e929f" target="_top" xlink:title=" ">
<polygon fill="#fff0f0" stroke="red" points="130,-195.88 6.75,-195.88 6.75,-149.62 130,-149.62 130,-195.88"/>
<text xml:space="preserve" text-anchor="start" x="14.75" y="-182.38" font-family="Helvetica,sans-Serif" font-size="10.00">kest_fpga_transfer</text>
<text xml:space="preserve" text-anchor="start" x="14.75" y="-169.62" font-family="Helvetica,sans-Serif" font-size="10.00">_batch_append_effect</text>
<text xml:space="preserve" text-anchor="middle" x="68.38" y="-156.88" font-family="Helvetica,sans-Serif" font-size="10.00">_register_updates</text>
</a>
</g>
</g>
<!-- Node64&#45;&gt;Node65 -->
<g id="edge5_Node000064_Node000065" class="edge">
<title>Node64&#45;&gt;Node65</title>
<g id="a_edge5_Node000064_Node000065"><a xlink:title=" ">
<path fill="none" stroke="#63b8ff" d="M161.39,-172.75C150.94,-172.75 140.36,-172.75 130.27,-172.75"/>
<polygon fill="#63b8ff" stroke="#63b8ff" points="161.13,-176.25 171.13,-172.75 161.13,-169.25 161.13,-176.25"/>
</a>
</g>
</g>
<!-- Node67&#45;&gt;Node4 -->
<g id="edge7_Node000067_Node000004" class="edge">
<title>Node67&#45;&gt;Node4</title>
<g id="a_edge7_Node000067_Node000004"><a xlink:title=" ">
<path fill="none" stroke="#63b8ff" d="M161.33,-79.36C153.27,-80.45 145.13,-81.55 137.21,-82.61"/>
<polygon fill="#63b8ff" stroke="#63b8ff" points="161.7,-82.85 171.14,-78.04 160.76,-75.91 161.7,-82.85"/>
</a>
</g>
</g>
<!-- Node69 -->
<g id="Node000069" class="node">
<title>Node69</title>
<g id="a_Node000069"><a xlink:href="kest__fpga__encoding_8c.html#adffee6f6156a2d821bd467b1c0c578c2" target="_top" xlink:title=" ">
<polygon fill="white" stroke="#666666" points="309.5,-33.5 172.75,-33.5 172.75,0 309.5,0 309.5,-33.5"/>
<text xml:space="preserve" text-anchor="start" x="180.75" y="-20" font-family="Helvetica,sans-Serif" font-size="10.00">kest_fpga_batch_append</text>
<text xml:space="preserve" text-anchor="middle" x="241.12" y="-7.25" font-family="Helvetica,sans-Serif" font-size="10.00">_resources</text>
</a>
</g>
</g>
<!-- Node68&#45;&gt;Node69 -->
<g id="edge11_Node000068_Node000069" class="edge">
<title>Node68&#45;&gt;Node69</title>
<g id="a_edge11_Node000068_Node000069"><a xlink:title=" ">
<path fill="none" stroke="#63b8ff" d="M334.08,-19.98C326.02,-19.7 317.88,-19.41 309.96,-19.13"/>
<polygon fill="#63b8ff" stroke="#63b8ff" points="333.76,-23.47 343.88,-20.33 334.01,-16.48 333.76,-23.47"/>
</a>
</g>
</g>
<!-- Node6 -->
<g id="Node000006" class="node">
<title>Node6</title>
<g id="a_Node000006"><a xlink:href="kest__fpga__encoding_8c.html#a142858ad82d4b4214aa9191a2146454e" target="_top" xlink:title=" ">
<polygon fill="#fff0f0" stroke="red" points="136.75,-33.5 0,-33.5 0,0 136.75,0 136.75,-33.5"/>
<text xml:space="preserve" text-anchor="start" x="8" y="-20" font-family="Helvetica,sans-Serif" font-size="10.00">kest_fpga_batch_append</text>
<text xml:space="preserve" text-anchor="middle" x="68.38" y="-7.25" font-family="Helvetica,sans-Serif" font-size="10.00">_eff_desc</text>
</a>
</g>
</g>
<!-- Node69&#45;&gt;Node6 -->
<g id="edge12_Node000069_Node000006" class="edge">
<title>Node69&#45;&gt;Node6</title>
<g id="a_edge12_Node000069_Node000006"><a xlink:title=" ">
<path fill="none" stroke="#63b8ff" d="M161.33,-16.75C153.27,-16.75 145.13,-16.75 137.21,-16.75"/>
<polygon fill="#63b8ff" stroke="#63b8ff" points="161.13,-20.25 171.13,-16.75 161.13,-13.25 161.13,-20.25"/>
</a>
</g>
</g>
</g>
</svg>
