<?xml version="1.0" encoding="UTF-8" standalone="no"?>
<!DOCTYPE svg PUBLIC "-//W3C//DTD SVG 1.1//EN"
 "http://www.w3.org/Graphics/SVG/1.1/DTD/svg11.dtd">
<!-- Generated by graphviz version 13.1.2 (20250808.2320)
 -->
<!-- Title: kest_sequence_update_representations Pages: 1 -->
<!--zoomable 364 -->

<svg id="main" version="1.1" xmlns="http://www.w3.org/2000/svg" xmlns:xlink="http://www.w3.org/1999/xlink" xml:space="preserve" onload="init(evt)">

<style type="text/css"><![CDATA[
.node, .edge {opacity: 0.7;}
.node.selected, .edge.selected {opacity: 1;}
.edge:hover path { stroke: red; }
.edge:hover polygon { stroke: red; fill: red; }
]]></style>

<defs>
  <circle id="rim" cx="0" cy="0" r="7"/>
  <circle id="rim2" cx="0" cy="0" r="3.5"/>
  <g id="zoomPlus">
    <use xlink:href="#rim" fill="#404040"><set attributeName="fill" to="#808080" begin="zoomplus.mouseover" end="zoomplus.mouseout"/></use>
    <path d="M-4,0h8M0,-4v8" fill="none" stroke="white" stroke-width="1.5" pointer-events="none"/>
  </g>
  <g id="zoomMin">
    <use xlink:href="#rim" fill="#404040"><set attributeName="fill" to="#808080" begin="zoomminus.mouseover" end="zoomminus.mouseout"/></use>
    <path d="M-4,0h8" fill="none" stroke="white" stroke-width="1.5" pointer-events="none"/>
  </g>
  <g id="arrowUp" transform="translate(30 24)">
    <use xlink:href="#rim"/>
    <path pointer-events="none" fill="none" stroke="white" stroke-width="1.5" d="M0,-3.0v7 M-2.5,-0.5L0,-3.0L2.5,-0.5"/>
  </g>
  <g id="arrowRight" transform="rotate(90) translate(36 -43)">
    <use xlink:href="#rim"/>
    <path pointer-events="none" fill="none" stroke="white" stroke-width="1.5" d="M0,-3.0v7 M-2.5,-0.5L0,-3.0L2.5,-0.5"/>
  </g>
  <g id="arrowDown" transform="rotate(180) translate(-30 -48)">
    <use xlink:href="#rim"/>
    <path pointer-events="none" fill="none" stroke="white" stroke-width="1.5" d="M0,-3.0v7 M-2.5,-0.5L0,-3.0L2.5,-0.5"/>
  </g>
  <g id="arrowLeft" transform="rotate(270) translate(-36 17)">
    <use xlink:href="#rim"/>
    <path pointer-events="none" fill="none" stroke="white" stroke-width="1.5" d="M0,-3.0v7 M-2.5,-0.5L0,-3.0L2.5,-0.5"/>
  </g>
  <g id="resetDef">
    <use xlink:href="#rim2" fill="#404040"><set attributeName="fill" to="#808080" begin="reset.mouseover" end="reset.mouseout"/></use>
  </g>
</defs>
<script type="application/ecmascript">
var viewWidth = 1015;
var viewHeight = 364;
var sectionId = 'dynsection-27';
</script>
<script type="application/ecmascript" xlink:href="svg.min.js"/>
<svg id="graph" class="graph">
<g id="viewport">
<title>kest_sequence_update_representations</title>
<!-- Node1 -->
<g id="Node000001" class="node">
<title>Node1</title>
<g id="a_Node000001"><a xlink:title=" ">
<polygon fill="#999999" stroke="#666666" points="1007.25,-207.5 880.25,-207.5 880.25,-174 1007.25,-174 1007.25,-207.5"/>
<text xml:space="preserve" text-anchor="start" x="888.25" y="-194" font-family="Helvetica,sans-Serif" font-size="10.00">kest_sequence_update</text>
<text xml:space="preserve" text-anchor="middle" x="943.75" y="-181.25" font-family="Helvetica,sans-Serif" font-size="10.00">_representations</text>
</a>
</g>
</g>
<!-- Node2 -->
<g id="Node000002" class="node">
<title>Node2</title>
<g id="a_Node000002"><a xlink:href="kest__sequence_8c.html#a202811eda2c1fde6c1ba99aba433bc1b" target="_top" xlink:title=" ">
<polygon fill="white" stroke="#666666" points="840.5,-316.12 692.5,-316.12 692.5,-295.38 840.5,-295.38 840.5,-316.12"/>
<text xml:space="preserve" text-anchor="middle" x="766.5" y="-302.62" font-family="Helvetica,sans-Serif" font-size="10.00">kest_sequence_activate_at</text>
</a>
</g>
</g>
<!-- Node1&#45;&gt;Node2 -->
<g id="edge1_Node000001_Node000002" class="edge">
<title>Node1&#45;&gt;Node2</title>
<g id="a_edge1_Node000001_Node000002"><a xlink:title=" ">
<path fill="none" stroke="#63b8ff" d="M920.91,-216.42C902.37,-236.75 874.09,-264.49 844.25,-281.75 834.82,-287.2 824.02,-291.56 813.55,-294.99"/>
<polygon fill="#63b8ff" stroke="#63b8ff" points="923.41,-218.87 927.46,-209.08 918.19,-214.21 923.41,-218.87"/>
</a>
</g>
</g>
<!-- Node27 -->
<g id="Node000027" class="node">
<title>Node27</title>
<g id="a_Node000027"><a xlink:href="kest__sequence_8c.html#adf2bc7c26b0bead2b6bd85fcd9bc6248" target="_top" xlink:title=" ">
<polygon fill="white" stroke="#666666" points="826.62,-201.12 706.38,-201.12 706.38,-180.38 826.62,-180.38 826.62,-201.12"/>
<text xml:space="preserve" text-anchor="middle" x="766.5" y="-187.62" font-family="Helvetica,sans-Serif" font-size="10.00">kest_sequence_begin</text>
</a>
</g>
</g>
<!-- Node1&#45;&gt;Node27 -->
<g id="edge4_Node000001_Node000027" class="edge">
<title>Node1&#45;&gt;Node27</title>
<g id="a_edge4_Node000001_Node000027"><a xlink:title=" ">
<path fill="none" stroke="#63b8ff" d="M868.88,-190.75C854.88,-190.75 840.39,-190.75 826.91,-190.75"/>
<polygon fill="#63b8ff" stroke="#63b8ff" points="868.46,-194.25 878.46,-190.75 868.46,-187.25 868.46,-194.25"/>
</a>
</g>
</g>
<!-- Node29 -->
<g id="Node000029" class="node">
<title>Node29</title>
<g id="a_Node000029"><a xlink:href="kest__sequence_8c.html#a7598590e9434f17fad5ac037b0bb4164" target="_top" xlink:title=" ">
<polygon fill="white" stroke="#666666" points="652.75,-355.12 517.5,-355.12 517.5,-334.38 652.75,-334.38 652.75,-355.12"/>
<text xml:space="preserve" text-anchor="middle" x="585.12" y="-341.62" font-family="Helvetica,sans-Serif" font-size="10.00">kest_sequence_begin_at</text>
</a>
</g>
</g>
<!-- Node1&#45;&gt;Node29 -->
<g id="edge8_Node000001_Node000029" class="edge">
<title>Node1&#45;&gt;Node29</title>
<g id="a_edge8_Node000001_Node000029"><a xlink:title=" ">
<path fill="none" stroke="#63b8ff" d="M931.39,-217.91C916.5,-249.67 887.15,-300.92 844.25,-324.75 785.71,-357.28 707.87,-358.71 653.03,-354.24"/>
<polygon fill="#63b8ff" stroke="#63b8ff" points="934.51,-219.5 935.43,-208.94 928.13,-216.62 934.51,-219.5"/>
</a>
</g>
</g>
<!-- Node30 -->
<g id="Node000030" class="node">
<title>Node30</title>
<g id="a_Node000030"><a xlink:href="kest__sequence_8c.html#aad6cac71add5fb13139fe3ed72212031" target="_top" xlink:title=" ">
<polygon fill="white" stroke="#666666" points="645.62,-277.5 524.62,-277.5 524.62,-244 645.62,-244 645.62,-277.5"/>
<text xml:space="preserve" text-anchor="start" x="532.62" y="-264" font-family="Helvetica,sans-Serif" font-size="10.00">kest_sequence_move</text>
<text xml:space="preserve" text-anchor="middle" x="585.12" y="-251.25" font-family="Helvetica,sans-Serif" font-size="10.00">_profile</text>
</a>
</g>
</g>
<!-- Node1&#45;&gt;Node30 -->
<g id="edge10_Node000001_Node000030" class="edge">
<title>Node1&#45;&gt;Node30</title>
<g id="a_edge10_Node000001_Node000030"><a xlink:title=" ">
<path fill="none" stroke="#63b8ff" d="M911.39,-214.57C892.89,-227.2 868.43,-241.55 844.25,-248.75 778.46,-268.33 699.11,-268.79 645.91,-266"/>
<polygon fill="#63b8ff" stroke="#63b8ff" points="913.35,-217.47 919.51,-208.85 909.32,-211.75 913.35,-217.47"/>
</a>
</g>
</g>
<!-- Node32 -->
<g id="Node000032" class="node">
<title>Node32</title>
<g id="a_Node000032"><a xlink:href="kest__sequence_8c.html#a48fa9a10b57d5305e1d65c8bbe179555" target="_top" xlink:title=" ">
<polygon fill="white" stroke="#666666" points="831.88,-33.5 701.12,-33.5 701.12,0 831.88,0 831.88,-33.5"/>
<text xml:space="preserve" text-anchor="start" x="709.12" y="-20" font-family="Helvetica,sans-Serif" font-size="10.00">kest_sequence_remove</text>
<text xml:space="preserve" text-anchor="middle" x="766.5" y="-7.25" font-family="Helvetica,sans-Serif" font-size="10.00">_profile</text>
</a>
</g>
</g>
<!-- Node1&#45;&gt;Node32 -->
<g id="edge14_Node000001_Node000032" class="edge">
<title>Node1&#45;&gt;Node32</title>
<g id="a_edge14_Node000001_Node000032"><a xlink:title=" ">
<path fill="none" stroke="#63b8ff" d="M930.15,-163.51C914.22,-131.77 884.02,-79.63 844.25,-47.75 837.52,-42.36 829.73,-37.79 821.75,-33.96"/>
<polygon fill="#63b8ff" stroke="#63b8ff" points="926.98,-165 934.51,-172.45 933.27,-161.93 926.98,-165"/>
</a>
</g>
</g>
<!-- Node35 -->
<g id="Node000035" class="node">
<title>Node35</title>
<g id="a_Node000035"><a xlink:href="kest__sequence_8c.html#a3b2993ed35376e7c9a4fb0f4496b2757" target="_top" xlink:title=" ">
<polygon fill="white" stroke="#666666" points="823.62,-162.12 709.38,-162.12 709.38,-141.38 823.62,-141.38 823.62,-162.12"/>
<text xml:space="preserve" text-anchor="middle" x="766.5" y="-148.62" font-family="Helvetica,sans-Serif" font-size="10.00">kest_sequence_stop</text>
</a>
</g>
</g>
<!-- Node1&#45;&gt;Node35 -->
<g id="edge18_Node000001_Node000035" class="edge">
<title>Node1&#45;&gt;Node35</title>
<g id="a_edge18_Node000001_Node000035"><a xlink:title=" ">
<path fill="none" stroke="#63b8ff" d="M868.98,-174.33C851.12,-170.36 832.46,-166.21 816.09,-162.56"/>
<polygon fill="#63b8ff" stroke="#63b8ff" points="867.98,-177.7 878.5,-176.45 869.5,-170.86 867.98,-177.7"/>
</a>
</g>
</g>
<!-- Node36 -->
<g id="Node000036" class="node">
<title>Node36</title>
<g id="a_Node000036"><a xlink:href="kest__sequence_8c.html#a3fc6ed8b388176fde8e58eb4a07ff8ad" target="_top" xlink:title=" ">
<polygon fill="white" stroke="#666666" points="823.62,-123.5 709.38,-123.5 709.38,-90 823.62,-90 823.62,-123.5"/>
<text xml:space="preserve" text-anchor="start" x="717.38" y="-110" font-family="Helvetica,sans-Serif" font-size="10.00">kest_sequence_stop</text>
<text xml:space="preserve" text-anchor="middle" x="766.5" y="-97.25" font-family="Helvetica,sans-Serif" font-size="10.00">_from_profile</text>
</a>
</g>
</g>
<!-- Node1&#45;&gt;Node36 -->
<g id="edge19_Node000001_Node000036" class="edge">
<title>Node1&#45;&gt;Node36</title>
<g id="a_edge19_Node000001_Node000036"><a xlink:title=" ">
<path fill="none" stroke="#63b8ff" d="M907.52,-167.62C889.15,-156.17 866.02,-142.72 844.25,-132.75 837.34,-129.59 829.93,-126.6 822.54,-123.86"/>
<polygon fill="#63b8ff" stroke="#63b8ff" points="905.6,-170.54 915.92,-172.92 909.34,-164.62 905.6,-170.54"/>
</a>
</g>
</g>
<!-- Node37 -->
<g id="Node000037" class="node">
<title>Node37</title>
<g id="a_Node000037"><a xlink:href="kest__sequence_8c.html#ad6a5ed07b6face169ffb11471d1d4294" target="_top" xlink:title=" ">
<polygon fill="white" stroke="#666666" points="844.25,-240.12 688.75,-240.12 688.75,-219.38 844.25,-219.38 844.25,-240.12"/>
<text xml:space="preserve" text-anchor="middle" x="766.5" y="-226.62" font-family="Helvetica,sans-Serif" font-size="10.00">sequence_append_profile_rp</text>
</a>
</g>
</g>
<!-- Node1&#45;&gt;Node37 -->
<g id="edge20_Node000001_Node000037" class="edge">
<title>Node1&#45;&gt;Node37</title>
<g id="a_edge20_Node000001_Node000037"><a xlink:title=" ">
<path fill="none" stroke="#63b8ff" d="M868.98,-207.17C851.12,-211.14 832.46,-215.29 816.09,-218.94"/>
<polygon fill="#63b8ff" stroke="#63b8ff" points="869.5,-210.64 878.5,-205.05 867.98,-203.8 869.5,-210.64"/>
</a>
</g>
</g>
<!-- Node39 -->
<g id="Node000039" class="node">
<title>Node39</title>
<g id="a_Node000039"><a xlink:href="kest__sequence__view_8c.html#a9a770d265f15421aca3cec3f9d758e30" target="_top" xlink:title=" ">
<polygon fill="white" stroke="#666666" points="475.88,-128.12 331.62,-128.12 331.62,-107.38 475.88,-107.38 475.88,-128.12"/>
<text xml:space="preserve" text-anchor="middle" x="403.75" y="-114.62" font-family="Helvetica,sans-Serif" font-size="10.00">sequence_view_set_name</text>
</a>
</g>
</g>
<!-- Node1&#45;&gt;Node39 -->
<g id="edge23_Node000001_Node000039" class="edge">
<title>Node1&#45;&gt;Node39</title>
<g id="a_edge23_Node000001_Node000039"><a xlink:title=" ">
<path fill="none" stroke="#63b8ff" d="M928.08,-164.14C911.64,-137.37 882.23,-97.72 844.25,-80.75 699.89,-16.24 502.45,-79.88 431.5,-106.9"/>
<polygon fill="#63b8ff" stroke="#63b8ff" points="924.86,-165.56 932.97,-172.38 930.88,-162 924.86,-165.56"/>
</a>
</g>
</g>
<!-- Node3 -->
<g id="Node000003" class="node">
<title>Node3</title>
<g id="a_Node000003"><a xlink:href="kest__context_8c.html#a38c024b5edfeaccd111fd83b9276503e" target="_top" xlink:title=" ">
<polygon fill="white" stroke="#666666" points="636.62,-316.12 533.62,-316.12 533.62,-295.38 636.62,-295.38 636.62,-316.12"/>
<text xml:space="preserve" text-anchor="middle" x="585.12" y="-302.62" font-family="Helvetica,sans-Serif" font-size="10.00">set_active_profile</text>
</a>
</g>
</g>
<!-- Node2&#45;&gt;Node3 -->
<g id="edge2_Node000002_Node000003" class="edge">
<title>Node2&#45;&gt;Node3</title>
<g id="a_edge2_Node000002_Node000003"><a xlink:title=" ">
<path fill="none" stroke="#63b8ff" d="M680.67,-305.75C665.75,-305.75 650.64,-305.75 637.02,-305.75"/>
<polygon fill="#63b8ff" stroke="#63b8ff" points="680.51,-309.25 690.51,-305.75 680.51,-302.25 680.51,-309.25"/>
</a>
</g>
</g>
<!-- Node4 -->
<g id="Node000004" class="node">
<title>Node4</title>
<g id="a_Node000004"><a xlink:href="kest__profile__view_8c.html#a7a586e516fd3de15ad3ee1ff2d45ee94" target="_top" xlink:title=" ">
<polygon fill="#fff0f0" stroke="red" points="481.5,-335.12 326,-335.12 326,-314.38 481.5,-314.38 481.5,-335.12"/>
<text xml:space="preserve" text-anchor="middle" x="403.75" y="-321.62" font-family="Helvetica,sans-Serif" font-size="10.00">profile_view_play_button_cb</text>
</a>
</g>
</g>
<!-- Node3&#45;&gt;Node4 -->
<g id="edge3_Node000003_Node000004" class="edge">
<title>Node3&#45;&gt;Node4</title>
<g id="a_edge3_Node000003_Node000004"><a xlink:title=" ">
<path fill="none" stroke="#63b8ff" d="M522.08,-312.32C509.14,-313.69 495.35,-315.15 481.94,-316.57"/>
<polygon fill="#63b8ff" stroke="#63b8ff" points="522.12,-315.84 531.7,-311.3 521.38,-308.88 522.12,-315.84"/>
</a>
</g>
</g>
<!-- Node28 -->
<g id="Node000028" class="node">
<title>Node28</title>
<g id="a_Node000028"><a xlink:href="kest__sequence__view_8c.html#a4d67fe5ecc44c7b1bff00ec58e369dad" target="_top" xlink:title=" ">
<polygon fill="white" stroke="#666666" points="441.75,-188.12 365.75,-188.12 365.75,-167.38 441.75,-167.38 441.75,-188.12"/>
<text xml:space="preserve" text-anchor="middle" x="403.75" y="-174.62" font-family="Helvetica,sans-Serif" font-size="10.00">seq_play_cb</text>
</a>
</g>
</g>
<!-- Node27&#45;&gt;Node28 -->
<g id="edge5_Node000027_Node000028" class="edge">
<title>Node27&#45;&gt;Node28</title>
<g id="a_edge5_Node000027_Node000028"><a xlink:title=" ">
<path fill="none" stroke="#63b8ff" d="M694.6,-188.19C618.79,-185.46 501.49,-181.24 442.03,-179.09"/>
<polygon fill="#63b8ff" stroke="#63b8ff" points="694.3,-191.69 704.42,-188.55 694.55,-184.69 694.3,-191.69"/>
</a>
</g>
</g>
<!-- Node13 -->
<g id="Node000013" class="node">
<title>Node13</title>
<g id="a_Node000013"><a xlink:href="kest__sequence__view_8c.html#ac871b24a7c875a7b6e707a3d2691a2a9" target="_top" xlink:title=" ">
<polygon fill="#fff0f0" stroke="red" points="290,-207.12 148,-207.12 148,-186.38 290,-186.38 290,-207.12"/>
<text xml:space="preserve" text-anchor="middle" x="219" y="-193.62" font-family="Helvetica,sans-Serif" font-size="10.00">configure_sequence_view</text>
</a>
</g>
</g>
<!-- Node28&#45;&gt;Node13 -->
<g id="edge6_Node000028_Node000013" class="edge">
<title>Node28&#45;&gt;Node13</title>
<g id="a_edge6_Node000028_Node000013"><a xlink:title=" ">
<path fill="none" stroke="#63b8ff" d="M353.94,-182.82C334.41,-184.86 311.53,-187.23 290.26,-189.45"/>
<polygon fill="#63b8ff" stroke="#63b8ff" points="354.24,-186.31 363.82,-181.8 353.51,-179.35 354.24,-186.31"/>
</a>
</g>
</g>
<!-- Node25 -->
<g id="Node000025" class="node">
<title>Node25</title>
<g id="a_Node000025"><a xlink:href="kest__sequence__view_8c.html#aca115eba822b7486dc289cc9150562a7" target="_top" xlink:title=" ">
<polygon fill="#fff0f0" stroke="red" points="112,-226.12 0,-226.12 0,-205.38 112,-205.38 112,-226.12"/>
<text xml:space="preserve" text-anchor="middle" x="56" y="-212.62" font-family="Helvetica,sans-Serif" font-size="10.00">init_sequence_view</text>
</a>
</g>
</g>
<!-- Node13&#45;&gt;Node25 -->
<g id="edge7_Node000013_Node000025" class="edge">
<title>Node13&#45;&gt;Node25</title>
<g id="a_edge7_Node000013_Node000025"><a xlink:title=" ">
<path fill="none" stroke="#63b8ff" d="M136.67,-206.35C128.46,-207.32 120.25,-208.29 112.4,-209.21"/>
<polygon fill="#63b8ff" stroke="#63b8ff" points="136.83,-209.85 146.35,-205.21 136.01,-202.9 136.83,-209.85"/>
</a>
</g>
</g>
<!-- Node29&#45;&gt;Node4 -->
<g id="edge9_Node000029_Node000004" class="edge">
<title>Node29&#45;&gt;Node4</title>
<g id="a_edge9_Node000029_Node000004"><a xlink:title=" ">
<path fill="none" stroke="#63b8ff" d="M505.67,-336C497.81,-335.13 489.83,-334.24 481.98,-333.36"/>
<polygon fill="#63b8ff" stroke="#63b8ff" points="505.25,-339.48 515.57,-337.11 506.02,-332.52 505.25,-339.48"/>
</a>
</g>
</g>
<!-- Node31 -->
<g id="Node000031" class="node">
<title>Node31</title>
<g id="a_Node000031"><a xlink:href="kest__sequence__view_8c.html#a781781f2f55b9caaa4c9a9db94b566f5" target="_top" xlink:title=" ">
<polygon fill="white" stroke="#666666" points="462.38,-264.12 345.12,-264.12 345.12,-243.38 462.38,-243.38 462.38,-264.12"/>
<text xml:space="preserve" text-anchor="middle" x="403.75" y="-250.62" font-family="Helvetica,sans-Serif" font-size="10.00">seq_view_moved_cb</text>
</a>
</g>
</g>
<!-- Node30&#45;&gt;Node31 -->
<g id="edge11_Node000030_Node000031" class="edge">
<title>Node30&#45;&gt;Node31</title>
<g id="a_edge11_Node000030_Node000031"><a xlink:title=" ">
<path fill="none" stroke="#63b8ff" d="M513.01,-257.97C496.32,-257.32 478.73,-256.64 462.7,-256.01"/>
<polygon fill="#63b8ff" stroke="#63b8ff" points="512.75,-261.47 522.88,-258.36 513.03,-254.47 512.75,-261.47"/>
</a>
</g>
</g>
<!-- Node31&#45;&gt;Node13 -->
<g id="edge12_Node000031_Node000013" class="edge">
<title>Node31&#45;&gt;Node13</title>
<g id="a_edge12_Node000031_Node000013"><a xlink:title=" ">
<path fill="none" stroke="#63b8ff" d="M357.17,-239.53C325.42,-229.63 283.73,-216.63 254.67,-207.57"/>
<polygon fill="#63b8ff" stroke="#63b8ff" points="355.91,-242.81 366.5,-242.44 358,-236.13 355.91,-242.81"/>
</a>
</g>
</g>
<!-- Node31&#45;&gt;Node25 -->
<g id="edge13_Node000031_Node000025" class="edge">
<title>Node31&#45;&gt;Node25</title>
<g id="a_edge13_Node000031_Node000025"><a xlink:title=" ">
<path fill="none" stroke="#63b8ff" d="M333.52,-246.14C268.54,-239 172.58,-228.45 112.48,-221.85"/>
<polygon fill="#63b8ff" stroke="#63b8ff" points="333.05,-249.61 343.37,-247.22 333.82,-242.65 333.05,-249.61"/>
</a>
</g>
</g>
<!-- Node33 -->
<g id="Node000033" class="node">
<title>Node33</title>
<g id="a_Node000033"><a xlink:href="kest__sequence_8c.html#a8e1bb657ea395200ce33bd762732bbdb" target="_top" xlink:title=" ">
<polygon fill="white" stroke="#666666" points="647.12,-33.5 523.12,-33.5 523.12,0 647.12,0 647.12,-33.5"/>
<text xml:space="preserve" text-anchor="start" x="531.12" y="-20" font-family="Helvetica,sans-Serif" font-size="10.00">kest_sequence_delete</text>
<text xml:space="preserve" text-anchor="middle" x="585.12" y="-7.25" font-family="Helvetica,sans-Serif" font-size="10.00">_profile</text>
</a>
</g>
</g>
<!-- Node32&#45;&gt;Node33 -->
<g id="edge15_Node000032_Node000033" class="edge">
<title>Node32&#45;&gt;Node33</title>
<g id="a_edge15_Node000032_Node000033"><a xlink:title=" ">
<path fill="none" stroke="#63b8ff" d="M689.6,-16.75C675.55,-16.75 661.04,-16.75 647.5,-16.75"/>
<polygon fill="#63b8ff" stroke="#63b8ff" points="689.23,-20.25 699.23,-16.75 689.23,-13.25 689.23,-20.25"/>
</a>
</g>
</g>
<!-- Node34 -->
<g id="Node000034" class="node">
<title>Node34</title>
<g id="a_Node000034"><a xlink:href="kest__sequence__view_8c.html#aa3f0ce5b257c2a9a76df997c35718cbd" target="_top" xlink:title=" ">
<polygon fill="white" stroke="#666666" points="460.88,-48.12 346.62,-48.12 346.62,-27.38 460.88,-27.38 460.88,-48.12"/>
<text xml:space="preserve" text-anchor="middle" x="403.75" y="-34.62" font-family="Helvetica,sans-Serif" font-size="10.00">seq_view_delete_cb</text>
</a>
</g>
</g>
<!-- Node33&#45;&gt;Node34 -->
<g id="edge16_Node000033_Node000034" class="edge">
<title>Node33&#45;&gt;Node34</title>
<g id="a_edge16_Node000033_Node000034"><a xlink:title=" ">
<path fill="none" stroke="#63b8ff" d="M511.28,-25.28C494.63,-27.23 477.17,-29.27 461.33,-31.13"/>
<polygon fill="#63b8ff" stroke="#63b8ff" points="511.62,-28.76 521.14,-24.12 510.8,-21.81 511.62,-28.76"/>
</a>
</g>
</g>
<!-- Node34&#45;&gt;Node13 -->
<g id="edge17_Node000034_Node000013" class="edge">
<title>Node34&#45;&gt;Node13</title>
<g id="a_edge17_Node000034_Node000013"><a xlink:title=" ">
<path fill="none" stroke="#63b8ff" d="M379.77,-55.29C364.33,-67.25 343.65,-83.61 326,-98.75 290.42,-129.26 250.26,-167.49 231.2,-185.88"/>
<polygon fill="#63b8ff" stroke="#63b8ff" points="381.65,-58.26 387.43,-49.39 377.38,-52.72 381.65,-58.26"/>
</a>
</g>
</g>
<!-- Node38 -->
<g id="Node000038" class="node">
<title>Node38</title>
<g id="a_Node000038"><a xlink:href="kest__sequence__view_8c.html#a83d1a352af6a3932ce4d08e01f7d8d8a" target="_top" xlink:title=" ">
<polygon fill="white" stroke="#666666" points="622.75,-226.12 547.5,-226.12 547.5,-205.38 622.75,-205.38 622.75,-226.12"/>
<text xml:space="preserve" text-anchor="middle" x="585.12" y="-212.62" font-family="Helvetica,sans-Serif" font-size="10.00">seq_plus_cb</text>
</a>
</g>
</g>
<!-- Node37&#45;&gt;Node38 -->
<g id="edge21_Node000037_Node000038" class="edge">
<title>Node37&#45;&gt;Node38</title>
<g id="a_edge21_Node000037_Node000038"><a xlink:title=" ">
<path fill="none" stroke="#63b8ff" d="M676.94,-222.84C657.97,-221.36 638.93,-219.87 623.22,-218.65"/>
<polygon fill="#63b8ff" stroke="#63b8ff" points="676.64,-226.32 686.88,-223.61 677.18,-219.35 676.64,-226.32"/>
</a>
</g>
</g>
<!-- Node38&#45;&gt;Node13 -->
<g id="edge22_Node000038_Node000013" class="edge">
<title>Node38&#45;&gt;Node13</title>
<g id="a_edge22_Node000038_Node000013"><a xlink:title=" ">
<path fill="none" stroke="#63b8ff" d="M536.04,-213.24C473.17,-209.96 362.56,-204.19 290.29,-200.42"/>
<polygon fill="#63b8ff" stroke="#63b8ff" points="535.53,-216.72 545.7,-213.74 535.89,-209.73 535.53,-216.72"/>
</a>
</g>
</g>
<!-- Node39&#45;&gt;Node13 -->
<g id="edge24_Node000039_Node000013" class="edge">
<title>Node39&#45;&gt;Node13</title>
<g id="a_edge24_Node000039_Node000013"><a xlink:title=" ">
<path fill="none" stroke="#63b8ff" d="M367.21,-133.11C331.27,-148.65 276.64,-172.27 245.02,-185.94"/>
<polygon fill="#63b8ff" stroke="#63b8ff" points="368.54,-136.35 376.33,-129.17 365.77,-129.92 368.54,-136.35"/>
</a>
</g>
</g>
</g>
</svg>

<g id="navigator" transform="translate(0 0)" fill="#404254">
  <rect fill="#f2f5e9" fill-opacity="0.5" stroke="#606060" stroke-width=".5" x="0" y="0" width="60" height="60"/>
  <use id="zoomplus" xlink:href="#zoomPlus" x="17" y="9" onmousedown="handleZoom(evt,'in')"/>
  <use id="zoomminus" xlink:href="#zoomMin" x="42" y="9" onmousedown="handleZoom(evt,'out')"/>
  <use id="reset" xlink:href="#resetDef" x="30" y="36" onmousedown="handleReset()"/>
   <use id="arrowup" xlink:href="#arrowUp" x="0" y="0" onmousedown="handlePan(0,-1)"/>
  <use id="arrowright" xlink:href="#arrowRight" x="0" y="0" onmousedown="handlePan(1,0)"/>
  <use id="arrowdown" xlink:href="#arrowDown" x="0" y="0" onmousedown="handlePan(0,1)"/>
  <use id="arrowleft" xlink:href="#arrowLeft" x="0" y="0" onmousedown="handlePan(-1,0)"/>
</g>
<svg viewBox="0 0 15 15" width="100%" height="30px" preserveAspectRatio="xMaxYMin meet">
 <g id="arrow_out" transform="scale(0.3 0.3)">
  <a xlink:href="kest__sequence_8h_abb62e308c5b4830b09a802084718cb2d_icgraph_org.svg" target="_base">
   <rect id="button" ry="5" rx="5" y="6" x="6" height="38" width="38"
        fill="#f2f5e9" fill-opacity="0.5" stroke="#606060" stroke-width="1.0"/>
   <path id="arrow"
     d="M 11.500037,31.436501 C 11.940474,20.09759 22.043105,11.32322 32.158766,21.979434 L 37.068811,17.246167 C 37.068811,17.246167 37.088388,32 37.088388,32 L 22.160133,31.978069 C 22.160133,31.978069 26.997745,27.140456 26.997745,27.140456 C 18.528582,18.264221 13.291696,25.230495 11.500037,31.436501 z"
     style="fill:#404040;"/>
  </a>
 </g>
</svg>

<style type='text/css'>
<![CDATA[
[data-mouse-over-selected='false'] { opacity: 0.7; }
[data-mouse-over-selected='true']  { opacity: 1.0; }
]]>
</style>
<script type="application/ecmascript"><![CDATA[
document.addEventListener('DOMContentLoaded', (event) => {
  highlightEdges();
  highlightAdjacentNodes();
});
]]></script>
</svg>
