<?xml version="1.0" encoding="UTF-8" standalone="no"?>
<!DOCTYPE svg PUBLIC "-//W3C//DTD SVG 1.1//EN"
 "http://www.w3.org/Graphics/SVG/1.1/DTD/svg11.dtd">
<!-- Generated by graphviz version 13.1.2 (20250808.2320)
 -->
<!-- Title: kest_parameter_free Pages: 1 -->
<svg width="542pt" height="80pt"
 viewBox="0.00 0.00 542.00 80.00" xmlns="http://www.w3.org/2000/svg" xmlns:xlink="http://www.w3.org/1999/xlink">
<g id="graph0" class="graph" transform="scale(1 1) rotate(0) translate(4 76.12)">
<title>kest_parameter_free</title>
<!-- Node1 -->
<g id="Node000001" class="node">
<title>Node1</title>
<g id="a_Node000001"><a xlink:title=" ">
<polygon fill="#999999" stroke="#666666" points="533.5,-49.12 416.25,-49.12 416.25,-28.38 533.5,-28.38 533.5,-49.12"/>
<text xml:space="preserve" text-anchor="middle" x="474.88" y="-35.62" font-family="Helvetica,sans-Serif" font-size="10.00">kest_parameter_free</text>
</a>
</g>
</g>
<!-- Node2 -->
<g id="Node000002" class="node">
<title>Node2</title>
<g id="a_Node000002"><a xlink:href="kest__effect_8c.html#a09f04708e6ffd20ecaba2c10460cb1eb" target="_top" xlink:title=" ">
<polygon fill="white" stroke="#666666" points="380.25,-49.12 311,-49.12 311,-28.38 380.25,-28.38 380.25,-49.12"/>
<text xml:space="preserve" text-anchor="middle" x="345.62" y="-35.62" font-family="Helvetica,sans-Serif" font-size="10.00">free_effect</text>
</a>
</g>
</g>
<!-- Node1&#45;&gt;Node2 -->
<g id="edge1_Node000001_Node000002" class="edge">
<title>Node1&#45;&gt;Node2</title>
<g id="a_edge1_Node000001_Node000002"><a xlink:title=" ">
<path fill="none" stroke="#63b8ff" d="M404.5,-38.75C396.21,-38.75 388.05,-38.75 380.6,-38.75"/>
<polygon fill="#63b8ff" stroke="#63b8ff" points="404.32,-42.25 414.32,-38.75 404.32,-35.25 404.32,-42.25"/>
</a>
</g>
</g>
<!-- Node3 -->
<g id="Node000003" class="node">
<title>Node3</title>
<g id="a_Node000003"><a xlink:href="kest__pipeline_8c.html#a840a0f31f2703ff6040d47245cc56c7a" target="_top" xlink:title=" ">
<polygon fill="white" stroke="#666666" points="251.38,-72.12 175.38,-72.12 175.38,-51.38 251.38,-51.38 251.38,-72.12"/>
<text xml:space="preserve" text-anchor="middle" x="213.38" y="-58.62" font-family="Helvetica,sans-Serif" font-size="10.00">gut_pipeline</text>
</a>
</g>
</g>
<!-- Node2&#45;&gt;Node3 -->
<g id="edge2_Node000002_Node000003" class="edge">
<title>Node2&#45;&gt;Node3</title>
<g id="a_edge2_Node000002_Node000003"><a xlink:title=" ">
<path fill="none" stroke="#63b8ff" d="M299.72,-46.68C284.08,-49.44 266.72,-52.51 251.75,-55.15"/>
<polygon fill="#63b8ff" stroke="#63b8ff" points="300.01,-50.18 309.25,-45 298.8,-43.29 300.01,-50.18"/>
</a>
</g>
</g>
<!-- Node31 -->
<g id="Node000031" class="node">
<title>Node31</title>
<g id="a_Node000031"><a xlink:href="kest__pipeline_8c.html#a73cdb3a338dc34668b63859d87ba81b9" target="_top" xlink:title=" ">
<polygon fill="white" stroke="#666666" points="275,-33.5 151.75,-33.5 151.75,0 275,0 275,-33.5"/>
<text xml:space="preserve" text-anchor="start" x="159.75" y="-20" font-family="Helvetica,sans-Serif" font-size="10.00">kest_pipeline_remove</text>
<text xml:space="preserve" text-anchor="middle" x="213.38" y="-7.25" font-family="Helvetica,sans-Serif" font-size="10.00">_effect</text>
</a>
</g>
</g>
<!-- Node2&#45;&gt;Node31 -->
<g id="edge4_Node000002_Node000031" class="edge">
<title>Node2&#45;&gt;Node31</title>
<g id="a_edge4_Node000002_Node000031"><a xlink:title=" ">
<path fill="none" stroke="#63b8ff" d="M299.63,-31.15C291.79,-29.83 283.52,-28.43 275.34,-27.05"/>
<polygon fill="#63b8ff" stroke="#63b8ff" points="298.81,-34.56 309.25,-32.78 299.97,-27.66 298.81,-34.56"/>
</a>
</g>
</g>
<!-- Node4 -->
<g id="Node000004" class="node">
<title>Node4</title>
<g id="a_Node000004"><a xlink:href="kest__profile_8c.html#a98628f676eab8e760f52eec1b9dd7281" target="_top" xlink:title=" ">
<polygon fill="#fff0f0" stroke="red" points="92.12,-72.12 23.62,-72.12 23.62,-51.38 92.12,-51.38 92.12,-72.12"/>
<text xml:space="preserve" text-anchor="middle" x="57.88" y="-58.62" font-family="Helvetica,sans-Serif" font-size="10.00">gut_profile</text>
</a>
</g>
</g>
<!-- Node3&#45;&gt;Node4 -->
<g id="edge3_Node000003_Node000004" class="edge">
<title>Node3&#45;&gt;Node4</title>
<g id="a_edge3_Node000003_Node000004"><a xlink:title=" ">
<path fill="none" stroke="#63b8ff" d="M163.85,-61.75C140.65,-61.75 113.45,-61.75 92.55,-61.75"/>
<polygon fill="#63b8ff" stroke="#63b8ff" points="163.7,-65.25 173.7,-61.75 163.7,-58.25 163.7,-65.25"/>
</a>
</g>
</g>
<!-- Node32 -->
<g id="Node000032" class="node">
<title>Node32</title>
<g id="a_Node000032"><a xlink:href="kest__profile_8c.html#a25cea119219eee39a50e7433a8b914d6" target="_top" xlink:title=" ">
<polygon fill="#fff0f0" stroke="red" points="115.75,-33.5 0,-33.5 0,0 115.75,0 115.75,-33.5"/>
<text xml:space="preserve" text-anchor="start" x="8" y="-20" font-family="Helvetica,sans-Serif" font-size="10.00">kest_profile_remove</text>
<text xml:space="preserve" text-anchor="middle" x="57.88" y="-7.25" font-family="Helvetica,sans-Serif" font-size="10.00">_effect</text>
</a>
</g>
</g>
<!-- Node31&#45;&gt;Node32 -->
<g id="edge5_Node000031_Node000032" class="edge">
<title>Node31&#45;&gt;Node32</title>
<g id="a_edge5_Node000031_Node000032"><a xlink:title=" ">
<path fill="none" stroke="#63b8ff" d="M139.9,-16.75C131.8,-16.75 123.65,-16.75 115.78,-16.75"/>
<polygon fill="#63b8ff" stroke="#63b8ff" points="139.75,-20.25 149.75,-16.75 139.75,-13.25 139.75,-20.25"/>
</a>
</g>
</g>
</g>
</svg>
