<?xml version="1.0" encoding="UTF-8" standalone="no"?>
<!DOCTYPE svg PUBLIC "-//W3C//DTD SVG 1.1//EN"
 "http://www.w3.org/Graphics/SVG/1.1/DTD/svg11.dtd">
<!-- Generated by graphviz version 13.1.2 (20250808.2320)
 -->
<!-- Title: ui_page_set_title_rw Pages: 1 -->
<svg width="919pt" height="147pt"
 viewBox="0.00 0.00 919.00 147.00" xmlns="http://www.w3.org/2000/svg" xmlns:xlink="http://www.w3.org/1999/xlink">
<g id="graph0" class="graph" transform="scale(1 1) rotate(0) translate(4 142.75)">
<title>ui_page_set_title_rw</title>
<!-- Node1 -->
<g id="Node000001" class="node">
<title>Node1</title>
<g id="a_Node000001"><a xlink:title=" ">
<polygon fill="#999999" stroke="#666666" points="910.5,-29.38 794,-29.38 794,-8.62 910.5,-8.62 910.5,-29.38"/>
<text xml:space="preserve" text-anchor="middle" x="852.25" y="-15.88" font-family="Helvetica,sans-Serif" font-size="10.00">ui_page_set_title_rw</text>
</a>
</g>
</g>
<!-- Node2 -->
<g id="Node000002" class="node">
<title>Node2</title>
<g id="a_Node000002"><a xlink:href="kest__profile__view_8c.html#a9f9505132871c2ea372958fd06ecf10f" target="_top" xlink:title=" ">
<polygon fill="white" stroke="#666666" points="758,-48.38 631,-48.38 631,-27.62 758,-27.62 758,-48.38"/>
<text xml:space="preserve" text-anchor="middle" x="694.5" y="-34.88" font-family="Helvetica,sans-Serif" font-size="10.00">configure_profile_view</text>
</a>
</g>
</g>
<!-- Node1&#45;&gt;Node2 -->
<g id="edge1_Node000001_Node000002" class="edge">
<title>Node1&#45;&gt;Node2</title>
<g id="a_edge1_Node000001_Node000002"><a xlink:title=" ">
<path fill="none" stroke="#63b8ff" d="M782.46,-27.39C774.43,-28.37 766.26,-29.37 758.32,-30.34"/>
<polygon fill="#63b8ff" stroke="#63b8ff" points="782.69,-30.89 792.19,-26.2 781.84,-23.94 782.69,-30.89"/>
</a>
</g>
</g>
<!-- Node10 -->
<g id="Node000010" class="node">
<title>Node10</title>
<g id="a_Node000010"><a xlink:href="kest__sequence__view_8c.html#ac871b24a7c875a7b6e707a3d2691a2a9" target="_top" xlink:title=" ">
<polygon fill="#fff0f0" stroke="red" points="142,-29.38 0,-29.38 0,-8.62 142,-8.62 142,-29.38"/>
<text xml:space="preserve" text-anchor="middle" x="71" y="-15.88" font-family="Helvetica,sans-Serif" font-size="10.00">configure_sequence_view</text>
</a>
</g>
</g>
<!-- Node1&#45;&gt;Node10 -->
<g id="edge9_Node000001_Node000010" class="edge">
<title>Node1&#45;&gt;Node10</title>
<g id="a_edge9_Node000001_Node000010"><a xlink:title=" ">
<path fill="none" stroke="#63b8ff" d="M782.54,-12.25C721.02,-6.78 628.33,0 547.5,0 547.5,0 547.5,0 395.62,0 308.25,0 207.83,-6.99 142.32,-12.49"/>
<polygon fill="#63b8ff" stroke="#63b8ff" points="781.87,-15.7 792.14,-13.11 782.5,-8.73 781.87,-15.7"/>
</a>
</g>
</g>
<!-- Node3 -->
<g id="Node000003" class="node">
<title>Node3</title>
<g id="a_Node000003"><a xlink:href="kest__profile__view_8c.html#a8a76cb40ff26bbde55ba56a4f25094d1" target="_top" xlink:title=" ">
<polygon fill="white" stroke="#666666" points="462,-86.38 331.25,-86.38 331.25,-65.62 462,-65.62 462,-86.38"/>
<text xml:space="preserve" text-anchor="middle" x="396.62" y="-72.88" font-family="Helvetica,sans-Serif" font-size="10.00">create_profile_view_for</text>
</a>
</g>
</g>
<!-- Node2&#45;&gt;Node3 -->
<g id="edge2_Node000002_Node000003" class="edge">
<title>Node2&#45;&gt;Node3</title>
<g id="a_edge2_Node000002_Node000003"><a xlink:title=" ">
<path fill="none" stroke="#63b8ff" d="M631.03,-50.97C619.1,-53.19 606.69,-55.31 595,-57 550.88,-63.36 500.89,-68.15 462.26,-71.33"/>
<polygon fill="#63b8ff" stroke="#63b8ff" points="631.62,-54.42 640.79,-49.12 630.31,-47.55 631.62,-54.42"/>
</a>
</g>
</g>
<!-- Node23 -->
<g id="Node000023" class="node">
<title>Node23</title>
<g id="a_Node000023"><a xlink:href="kest__profile__view_8c.html#abfe2cf72961d0ab0b70f858cf1281a38" target="_top" xlink:title=" ">
<polygon fill="white" stroke="#666666" points="595,-48.38 498,-48.38 498,-27.62 595,-27.62 595,-48.38"/>
<text xml:space="preserve" text-anchor="middle" x="546.5" y="-34.88" font-family="Helvetica,sans-Serif" font-size="10.00">init_profile_view</text>
</a>
</g>
</g>
<!-- Node2&#45;&gt;Node23 -->
<g id="edge7_Node000002_Node000023" class="edge">
<title>Node2&#45;&gt;Node23</title>
<g id="a_edge7_Node000002_Node000023"><a xlink:title=" ">
<path fill="none" stroke="#63b8ff" d="M619.23,-38C611.07,-38 602.93,-38 595.22,-38"/>
<polygon fill="#63b8ff" stroke="#63b8ff" points="619.22,-41.5 629.22,-38 619.22,-34.5 619.22,-41.5"/>
</a>
</g>
</g>
<!-- Node4 -->
<g id="Node000004" class="node">
<title>Node4</title>
<g id="a_Node000004"><a xlink:href="kest__profile_8c.html#a9222b6f2a0efa93ce0168e1bb530d733" target="_top" xlink:title=" ">
<polygon fill="white" stroke="#666666" points="291.12,-138.75 182.12,-138.75 182.12,-105.25 291.12,-105.25 291.12,-138.75"/>
<text xml:space="preserve" text-anchor="start" x="190.12" y="-125.25" font-family="Helvetica,sans-Serif" font-size="10.00">create_new_profile</text>
<text xml:space="preserve" text-anchor="middle" x="236.62" y="-112.5" font-family="Helvetica,sans-Serif" font-size="10.00">_with_teensy</text>
</a>
</g>
</g>
<!-- Node3&#45;&gt;Node4 -->
<g id="edge3_Node000003_Node000004" class="edge">
<title>Node3&#45;&gt;Node4</title>
<g id="a_edge3_Node000003_Node000004"><a xlink:title=" ">
<path fill="none" stroke="#63b8ff" d="M347.62,-89.98C329.9,-95.13 309.71,-101.01 291.5,-106.32"/>
<polygon fill="#63b8ff" stroke="#63b8ff" points="348.5,-93.36 357.13,-87.21 346.55,-86.64 348.5,-93.36"/>
</a>
</g>
</g>
<!-- Node5 -->
<g id="Node000005" class="node">
<title>Node5</title>
<g id="a_Node000005"><a xlink:href="kest__files_8c.html#a9a8521ad7db2dd3514b6ece8c4d6d787" target="_top" xlink:title=" ">
<polygon fill="#fff0f0" stroke="red" points="293.38,-87.38 179.88,-87.38 179.88,-66.62 293.38,-66.62 293.38,-87.38"/>
<text xml:space="preserve" text-anchor="middle" x="236.62" y="-73.88" font-family="Helvetica,sans-Serif" font-size="10.00">load_saved_profiles</text>
</a>
</g>
</g>
<!-- Node3&#45;&gt;Node5 -->
<g id="edge4_Node000003_Node000005" class="edge">
<title>Node3&#45;&gt;Node5</title>
<g id="a_edge4_Node000003_Node000005"><a xlink:title=" ">
<path fill="none" stroke="#63b8ff" d="M319.43,-76.48C310.66,-76.54 301.83,-76.59 293.4,-76.65"/>
<polygon fill="#63b8ff" stroke="#63b8ff" points="319.41,-79.98 329.39,-76.42 319.37,-72.98 319.41,-79.98"/>
</a>
</g>
</g>
<!-- Node9 -->
<g id="Node000009" class="node">
<title>Node9</title>
<g id="a_Node000009"><a xlink:href="kest__sequence__view_8c.html#abc9a54120c4bc7c4fe6a4632764e5e91" target="_top" xlink:title=" ">
<polygon fill="#fff0f0" stroke="red" points="295.25,-48.38 178,-48.38 178,-27.62 295.25,-27.62 295.25,-48.38"/>
<text xml:space="preserve" text-anchor="middle" x="236.62" y="-34.88" font-family="Helvetica,sans-Serif" font-size="10.00">seq_view_clicked_cb</text>
</a>
</g>
</g>
<!-- Node3&#45;&gt;Node9 -->
<g id="edge5_Node000003_Node000009" class="edge">
<title>Node3&#45;&gt;Node9</title>
<g id="a_edge5_Node000003_Node000009"><a xlink:title=" ">
<path fill="none" stroke="#63b8ff" d="M339.7,-62.55C320.98,-58.05 300.37,-53.09 282.59,-48.81"/>
<polygon fill="#63b8ff" stroke="#63b8ff" points="338.76,-65.92 349.3,-64.86 340.4,-59.12 338.76,-65.92"/>
</a>
</g>
</g>
<!-- Node9&#45;&gt;Node10 -->
<g id="edge6_Node000009_Node000010" class="edge">
<title>Node9&#45;&gt;Node10</title>
<g id="a_edge6_Node000009_Node000010"><a xlink:title=" ">
<path fill="none" stroke="#63b8ff" d="M166.7,-30C158.65,-29.06 150.43,-28.11 142.36,-27.17"/>
<polygon fill="#63b8ff" stroke="#63b8ff" points="166.1,-33.45 176.43,-31.13 166.9,-26.5 166.1,-33.45"/>
</a>
</g>
</g>
<!-- Node23&#45;&gt;Node3 -->
<g id="edge8_Node000023_Node000003" class="edge">
<title>Node23&#45;&gt;Node3</title>
<g id="a_edge8_Node000023_Node000003"><a xlink:title=" ">
<path fill="none" stroke="#63b8ff" d="M492.42,-51.64C475.1,-56.09 456.11,-60.97 439.71,-65.19"/>
<polygon fill="#63b8ff" stroke="#63b8ff" points="493.24,-55.04 502.05,-49.16 491.5,-48.26 493.24,-55.04"/>
</a>
</g>
</g>
</g>
</svg>
