<?xml version="1.0" encoding="UTF-8" standalone="no"?>
<!DOCTYPE svg PUBLIC "-//W3C//DTD SVG 1.1//EN"
 "http://www.w3.org/Graphics/SVG/1.1/DTD/svg11.dtd">
<!-- Generated by graphviz version 13.1.2 (20250808.2320)
 -->
<!-- Title: kest_dictionary_lookup_expr Pages: 1 -->
<svg width="834pt" height="326pt"
 viewBox="0.00 0.00 834.00 326.00" xmlns="http://www.w3.org/2000/svg" xmlns:xlink="http://www.w3.org/1999/xlink">
<g id="graph0" class="graph" transform="scale(1 1) rotate(0) translate(4 321.5)">
<title>kest_dictionary_lookup_expr</title>
<!-- Node1 -->
<g id="Node000001" class="node">
<title>Node1</title>
<g id="a_Node000001"><a xlink:title=" ">
<polygon fill="#999999" stroke="#666666" points="825.5,-162.12 670,-162.12 670,-141.38 825.5,-141.38 825.5,-162.12"/>
<text xml:space="preserve" text-anchor="middle" x="747.75" y="-148.62" font-family="Helvetica,sans-Serif" font-size="10.00">kest_dictionary_lookup_expr</text>
</a>
</g>
</g>
<!-- Node2 -->
<g id="Node000002" class="node">
<title>Node2</title>
<g id="a_Node000002"><a xlink:href="kest__eff__section_8c.html#ae26b07a97afe15681a9357b7e017b0b9" target="_top" xlink:title=" ">
<polygon fill="white" stroke="#666666" points="620.12,-317.5 489.38,-317.5 489.38,-284 620.12,-284 620.12,-317.5"/>
<text xml:space="preserve" text-anchor="start" x="497.38" y="-304" font-family="Helvetica,sans-Serif" font-size="10.00">kest_dictionary_section</text>
<text xml:space="preserve" text-anchor="middle" x="554.75" y="-291.25" font-family="Helvetica,sans-Serif" font-size="10.00">_lookup_expr</text>
</a>
</g>
</g>
<!-- Node1&#45;&gt;Node2 -->
<g id="edge1_Node000001_Node000002" class="edge">
<title>Node1&#45;&gt;Node2</title>
<g id="a_edge1_Node000001_Node000002"><a xlink:title=" ">
<path fill="none" stroke="#63b8ff" d="M733.57,-171.54C714.6,-198.56 677.12,-246.82 634,-274.75 628.83,-278.1 623.2,-281.05 617.39,-283.65"/>
<polygon fill="#63b8ff" stroke="#63b8ff" points="736.27,-173.78 739.05,-163.56 730.5,-169.82 736.27,-173.78"/>
</a>
</g>
</g>
<!-- Node3 -->
<g id="Node000003" class="node">
<title>Node3</title>
<g id="a_Node000003"><a xlink:href="kest__dict__extract_8c.html#a192768d0d5febcb6cda91f7135f2cebb" target="_top" xlink:title=" ">
<polygon fill="white" stroke="#666666" points="608.88,-265.5 500.62,-265.5 500.62,-232 608.88,-232 608.88,-265.5"/>
<text xml:space="preserve" text-anchor="start" x="508.62" y="-252" font-family="Helvetica,sans-Serif" font-size="10.00">kest_extract_delay</text>
<text xml:space="preserve" text-anchor="middle" x="554.75" y="-239.25" font-family="Helvetica,sans-Serif" font-size="10.00">_buffer_from_dict</text>
</a>
</g>
</g>
<!-- Node1&#45;&gt;Node3 -->
<g id="edge2_Node000001_Node000003" class="edge">
<title>Node1&#45;&gt;Node3</title>
<g id="a_edge2_Node000001_Node000003"><a xlink:title=" ">
<path fill="none" stroke="#63b8ff" d="M722.81,-169.23C700.63,-184.82 666.28,-207.5 634,-222.75 626.1,-226.48 617.53,-229.91 609.05,-232.97"/>
<polygon fill="#63b8ff" stroke="#63b8ff" points="724.75,-172.14 730.86,-163.49 720.69,-166.44 724.75,-172.14"/>
</a>
</g>
</g>
<!-- Node12 -->
<g id="Node000012" class="node">
<title>Node12</title>
<g id="a_Node000012"><a xlink:href="kest__dict__extract_8c.html#a449de50461a34d20bba301a90a39ec05" target="_top" xlink:title=" ">
<polygon fill="white" stroke="#666666" points="607,-213.5 502.5,-213.5 502.5,-180 607,-180 607,-213.5"/>
<text xml:space="preserve" text-anchor="start" x="510.5" y="-200" font-family="Helvetica,sans-Serif" font-size="10.00">kest_extract_filter</text>
<text xml:space="preserve" text-anchor="middle" x="554.75" y="-187.25" font-family="Helvetica,sans-Serif" font-size="10.00">_from_dict</text>
</a>
</g>
</g>
<!-- Node1&#45;&gt;Node12 -->
<g id="edge6_Node000001_Node000012" class="edge">
<title>Node1&#45;&gt;Node12</title>
<g id="a_edge6_Node000001_Node000012"><a xlink:title=" ">
<path fill="none" stroke="#63b8ff" d="M690.06,-165.11C663.78,-171.3 632.78,-178.6 607.19,-184.63"/>
<polygon fill="#63b8ff" stroke="#63b8ff" points="690.6,-168.58 699.53,-162.88 688.99,-161.76 690.6,-168.58"/>
</a>
</g>
</g>
<!-- Node13 -->
<g id="Node000013" class="node">
<title>Node13</title>
<g id="a_Node000013"><a xlink:href="kest__dict__extract_8c.html#aaef489a5ae1caa02a5e5a3ce26034d48" target="_top" xlink:title=" ">
<polygon fill="white" stroke="#666666" points="621.25,-123.5 488.25,-123.5 488.25,-90 621.25,-90 621.25,-123.5"/>
<text xml:space="preserve" text-anchor="start" x="496.25" y="-110" font-family="Helvetica,sans-Serif" font-size="10.00">kest_extract_int_setting</text>
<text xml:space="preserve" text-anchor="middle" x="554.75" y="-97.25" font-family="Helvetica,sans-Serif" font-size="10.00">_from_dict</text>
</a>
</g>
</g>
<!-- Node1&#45;&gt;Node13 -->
<g id="edge8_Node000001_Node000013" class="edge">
<title>Node1&#45;&gt;Node13</title>
<g id="a_edge8_Node000001_Node000013"><a xlink:title=" ">
<path fill="none" stroke="#63b8ff" d="M690.09,-138.4C668.61,-133.34 643.98,-127.54 621.72,-122.29"/>
<polygon fill="#63b8ff" stroke="#63b8ff" points="688.99,-141.74 699.53,-140.62 690.6,-134.92 688.99,-141.74"/>
</a>
</g>
</g>
<!-- Node14 -->
<g id="Node000014" class="node">
<title>Node14</title>
<g id="a_Node000014"><a xlink:href="kest__dict__extract_8c.html#a0225c4392c944b41b1db66787be35243" target="_top" xlink:title=" ">
<polygon fill="white" stroke="#666666" points="435.38,-113.5 320.38,-113.5 320.38,-80 435.38,-80 435.38,-113.5"/>
<text xml:space="preserve" text-anchor="start" x="328.38" y="-100" font-family="Helvetica,sans-Serif" font-size="10.00">kest_extract_setting</text>
<text xml:space="preserve" text-anchor="middle" x="377.88" y="-87.25" font-family="Helvetica,sans-Serif" font-size="10.00">_from_dict</text>
</a>
</g>
</g>
<!-- Node1&#45;&gt;Node14 -->
<g id="edge17_Node000001_Node000014" class="edge">
<title>Node1&#45;&gt;Node14</title>
<g id="a_edge17_Node000001_Node000014"><a xlink:title=" ">
<path fill="none" stroke="#63b8ff" d="M726.25,-133.76C704.9,-116.32 669.66,-91.04 634,-80.75 567.91,-61.67 488.32,-71.56 435.81,-82.34"/>
<polygon fill="#63b8ff" stroke="#63b8ff" points="723.96,-136.41 733.87,-140.16 728.47,-131.05 723.96,-136.41"/>
</a>
</g>
</g>
<!-- Node16 -->
<g id="Node000016" class="node">
<title>Node16</title>
<g id="a_Node000016"><a xlink:href="kest__dict__extract_8c.html#ab9eb2913c5cfcd0dd01128a9b0d3be9a" target="_top" xlink:title=" ">
<polygon fill="white" stroke="#666666" points="634,-162.12 475.5,-162.12 475.5,-141.38 634,-141.38 634,-162.12"/>
<text xml:space="preserve" text-anchor="middle" x="554.75" y="-148.62" font-family="Helvetica,sans-Serif" font-size="10.00">kest_extract_mem_from_dict</text>
</a>
</g>
</g>
<!-- Node1&#45;&gt;Node16 -->
<g id="edge12_Node000001_Node000016" class="edge">
<title>Node1&#45;&gt;Node16</title>
<g id="a_edge12_Node000001_Node000016"><a xlink:title=" ">
<path fill="none" stroke="#63b8ff" d="M658.1,-151.75C650.2,-151.75 642.23,-151.75 634.42,-151.75"/>
<polygon fill="#63b8ff" stroke="#63b8ff" points="658.1,-155.25 668.1,-151.75 658.1,-148.25 658.1,-155.25"/>
</a>
</g>
</g>
<!-- Node17 -->
<g id="Node000017" class="node">
<title>Node17</title>
<g id="a_Node000017"><a xlink:href="kest__dict__extract_8c.html#aaf0af9bba0940d4cfe5a8286222f14be" target="_top" xlink:title=" ">
<polygon fill="white" stroke="#666666" points="620.88,-33.5 488.62,-33.5 488.62,0 620.88,0 620.88,-33.5"/>
<text xml:space="preserve" text-anchor="start" x="496.62" y="-20" font-family="Helvetica,sans-Serif" font-size="10.00">kest_extract_parameter</text>
<text xml:space="preserve" text-anchor="middle" x="554.75" y="-7.25" font-family="Helvetica,sans-Serif" font-size="10.00">_from_dict</text>
</a>
</g>
</g>
<!-- Node1&#45;&gt;Node17 -->
<g id="edge14_Node000001_Node000017" class="edge">
<title>Node1&#45;&gt;Node17</title>
<g id="a_edge14_Node000001_Node000017"><a xlink:title=" ">
<path fill="none" stroke="#63b8ff" d="M729.97,-132.43C709.31,-109.63 672.25,-71.79 634,-47.75 625.71,-42.54 616.4,-37.93 607.17,-33.97"/>
<polygon fill="#63b8ff" stroke="#63b8ff" points="727.26,-134.65 736.53,-139.79 732.49,-130 727.26,-134.65"/>
</a>
</g>
</g>
<!-- Node4 -->
<g id="Node000004" class="node">
<title>Node4</title>
<g id="a_Node000004"><a xlink:href="kest__dict__extract_8c.html#ad78dabb9f962180138c9dfc2bf1731e3" target="_top" xlink:title=" ">
<polygon fill="white" stroke="#666666" points="439.5,-173.5 316.25,-173.5 316.25,-140 439.5,-140 439.5,-173.5"/>
<text xml:space="preserve" text-anchor="start" x="324.25" y="-160" font-family="Helvetica,sans-Serif" font-size="10.00">kest_extract_resource</text>
<text xml:space="preserve" text-anchor="middle" x="377.88" y="-147.25" font-family="Helvetica,sans-Serif" font-size="10.00">_from_dict</text>
</a>
</g>
</g>
<!-- Node3&#45;&gt;Node4 -->
<g id="edge3_Node000003_Node000004" class="edge">
<title>Node3&#45;&gt;Node4</title>
<g id="a_edge3_Node000003_Node000004"><a xlink:title=" ">
<path fill="none" stroke="#63b8ff" d="M489.64,-229.09C484.79,-227.11 480.02,-224.99 475.5,-222.75 447.83,-209.04 418.96,-188.34 400.06,-173.79"/>
<polygon fill="#63b8ff" stroke="#63b8ff" points="488.33,-232.34 498.92,-232.68 490.85,-225.81 488.33,-232.34"/>
</a>
</g>
</g>
<!-- Node5 -->
<g id="Node000005" class="node">
<title>Node5</title>
<g id="a_Node000005"><a xlink:href="kest__eff__section_8c.html#a55e76cf45dd01c8cc35bf2323f67b931" target="_top" xlink:title=" ">
<polygon fill="white" stroke="#666666" points="275.75,-169.5 146.5,-169.5 146.5,-136 275.75,-136 275.75,-169.5"/>
<text xml:space="preserve" text-anchor="start" x="154.5" y="-156" font-family="Helvetica,sans-Serif" font-size="10.00">kest_resources_section</text>
<text xml:space="preserve" text-anchor="middle" x="211.12" y="-143.25" font-family="Helvetica,sans-Serif" font-size="10.00">_extract</text>
</a>
</g>
</g>
<!-- Node4&#45;&gt;Node5 -->
<g id="edge4_Node000004_Node000005" class="edge">
<title>Node4&#45;&gt;Node5</title>
<g id="a_edge4_Node000004_Node000005"><a xlink:title=" ">
<path fill="none" stroke="#63b8ff" d="M304.55,-154.99C295.07,-154.76 285.4,-154.53 276.07,-154.3"/>
<polygon fill="#63b8ff" stroke="#63b8ff" points="304.4,-158.49 314.48,-155.24 304.57,-151.49 304.4,-158.49"/>
</a>
</g>
</g>
<!-- Node6 -->
<g id="Node000006" class="node">
<title>Node6</title>
<g id="a_Node000006"><a xlink:href="kest__eff__parser_8c.html#a73ef6962d1925857ec3e4b12d1aad834" target="_top" xlink:title=" ">
<polygon fill="#fff0f0" stroke="red" points="106,-107.12 0,-107.12 0,-86.38 106,-86.38 106,-107.12"/>
<text xml:space="preserve" text-anchor="middle" x="53" y="-93.62" font-family="Helvetica,sans-Serif" font-size="10.00">kest_parse_tokens</text>
</a>
</g>
</g>
<!-- Node5&#45;&gt;Node6 -->
<g id="edge5_Node000005_Node000006" class="edge">
<title>Node5&#45;&gt;Node6</title>
<g id="a_edge5_Node000005_Node000006"><a xlink:title=" ">
<path fill="none" stroke="#63b8ff" d="M151.74,-131.81C128.76,-123.57 103.36,-114.45 84.21,-107.58"/>
<polygon fill="#63b8ff" stroke="#63b8ff" points="150.41,-135.05 161.01,-135.13 152.78,-128.46 150.41,-135.05"/>
</a>
</g>
</g>
<!-- Node12&#45;&gt;Node4 -->
<g id="edge7_Node000012_Node000004" class="edge">
<title>Node12&#45;&gt;Node4</title>
<g id="a_edge7_Node000012_Node000004"><a xlink:title=" ">
<path fill="none" stroke="#63b8ff" d="M491.44,-182.5C474.68,-178.66 456.58,-174.52 439.9,-170.71"/>
<polygon fill="#63b8ff" stroke="#63b8ff" points="490.22,-185.81 500.75,-184.63 491.78,-178.99 490.22,-185.81"/>
</a>
</g>
</g>
<!-- Node13&#45;&gt;Node14 -->
<g id="edge9_Node000013_Node000014" class="edge">
<title>Node13&#45;&gt;Node14</title>
<g id="a_edge9_Node000013_Node000014"><a xlink:title=" ">
<path fill="none" stroke="#63b8ff" d="M476.67,-102.34C462.89,-101.55 448.76,-100.75 435.68,-100"/>
<polygon fill="#63b8ff" stroke="#63b8ff" points="476.44,-105.83 486.62,-102.91 476.84,-98.85 476.44,-105.83"/>
</a>
</g>
</g>
<!-- Node15 -->
<g id="Node000015" class="node">
<title>Node15</title>
<g id="a_Node000015"><a xlink:href="kest__eff__section_8c.html#ac86840256c51c90c1c1066da9b88e7af" target="_top" xlink:title=" ">
<polygon fill="white" stroke="#666666" points="271.62,-113.5 150.62,-113.5 150.62,-80 271.62,-80 271.62,-113.5"/>
<text xml:space="preserve" text-anchor="start" x="158.62" y="-100" font-family="Helvetica,sans-Serif" font-size="10.00">kest_settings_section</text>
<text xml:space="preserve" text-anchor="middle" x="211.12" y="-87.25" font-family="Helvetica,sans-Serif" font-size="10.00">_extract</text>
</a>
</g>
</g>
<!-- Node14&#45;&gt;Node15 -->
<g id="edge10_Node000014_Node000015" class="edge">
<title>Node14&#45;&gt;Node15</title>
<g id="a_edge10_Node000014_Node000015"><a xlink:title=" ">
<path fill="none" stroke="#63b8ff" d="M308.68,-96.75C296.52,-96.75 283.93,-96.75 272.02,-96.75"/>
<polygon fill="#63b8ff" stroke="#63b8ff" points="308.66,-100.25 318.66,-96.75 308.66,-93.25 308.66,-100.25"/>
</a>
</g>
</g>
<!-- Node15&#45;&gt;Node6 -->
<g id="edge11_Node000015_Node000006" class="edge">
<title>Node15&#45;&gt;Node6</title>
<g id="a_edge11_Node000015_Node000006"><a xlink:title=" ">
<path fill="none" stroke="#63b8ff" d="M138.9,-96.75C127.94,-96.75 116.81,-96.75 106.37,-96.75"/>
<polygon fill="#63b8ff" stroke="#63b8ff" points="138.7,-100.25 148.7,-96.75 138.7,-93.25 138.7,-100.25"/>
</a>
</g>
</g>
<!-- Node16&#45;&gt;Node4 -->
<g id="edge13_Node000016_Node000004" class="edge">
<title>Node16&#45;&gt;Node4</title>
<g id="a_edge13_Node000016_Node000004"><a xlink:title=" ">
<path fill="none" stroke="#63b8ff" d="M463.65,-154.33C455.6,-154.56 447.59,-154.79 439.88,-155.01"/>
<polygon fill="#63b8ff" stroke="#63b8ff" points="463.6,-157.83 473.5,-154.04 463.4,-150.83 463.6,-157.83"/>
</a>
</g>
</g>
<!-- Node18 -->
<g id="Node000018" class="node">
<title>Node18</title>
<g id="a_Node000018"><a xlink:href="kest__eff__section_8c.html#a5fe6d5cd354aa8f4322524ecc9b6af63" target="_top" xlink:title=" ">
<polygon fill="white" stroke="#666666" points="280.25,-53.5 142,-53.5 142,-20 280.25,-20 280.25,-53.5"/>
<text xml:space="preserve" text-anchor="start" x="150" y="-40" font-family="Helvetica,sans-Serif" font-size="10.00">kest_parameters_section</text>
<text xml:space="preserve" text-anchor="middle" x="211.12" y="-27.25" font-family="Helvetica,sans-Serif" font-size="10.00">_extract</text>
</a>
</g>
</g>
<!-- Node17&#45;&gt;Node18 -->
<g id="edge15_Node000017_Node000018" class="edge">
<title>Node17&#45;&gt;Node18</title>
<g id="a_edge15_Node000017_Node000018"><a xlink:title=" ">
<path fill="none" stroke="#63b8ff" d="M476.8,-21.25C417.86,-24.71 337.3,-29.42 280.59,-32.74"/>
<polygon fill="#63b8ff" stroke="#63b8ff" points="477,-24.75 486.77,-20.67 476.59,-17.76 477,-24.75"/>
</a>
</g>
</g>
<!-- Node18&#45;&gt;Node6 -->
<g id="edge16_Node000018_Node000006" class="edge">
<title>Node18&#45;&gt;Node6</title>
<g id="a_edge16_Node000018_Node000006"><a xlink:title=" ">
<path fill="none" stroke="#63b8ff" d="M154.71,-58.04C130.11,-67.5 102.22,-78.22 82.04,-85.98"/>
<polygon fill="#63b8ff" stroke="#63b8ff" points="155.89,-61.34 163.97,-54.49 153.38,-54.81 155.89,-61.34"/>
</a>
</g>
</g>
</g>
</svg>
