<?xml version="1.0" encoding="UTF-8" standalone="no"?>
<!DOCTYPE svg PUBLIC "-//W3C//DTD SVG 1.1//EN"
 "http://www.w3.org/Graphics/SVG/1.1/DTD/svg11.dtd">
<!-- Generated by graphviz version 13.1.2 (20250808.2320)
 -->
<!-- Title: kest_fpga_batch_append_block_instr Pages: 1 -->
<!--zoomable 291 -->

<svg id="main" version="1.1" xmlns="http://www.w3.org/2000/svg" xmlns:xlink="http://www.w3.org/1999/xlink" xml:space="preserve" onload="init(evt)">

<style type="text/css"><![CDATA[
.node, .edge {opacity: 0.7;}
.node.selected, .edge.selected {opacity: 1;}
.edge:hover path { stroke: red; }
.edge:hover polygon { stroke: red; fill: red; }
]]></style>

<defs>
  <circle id="rim" cx="0" cy="0" r="7"/>
  <circle id="rim2" cx="0" cy="0" r="3.5"/>
  <g id="zoomPlus">
    <use xlink:href="#rim" fill="#404040"><set attributeName="fill" to="#808080" begin="zoomplus.mouseover" end="zoomplus.mouseout"/></use>
    <path d="M-4,0h8M0,-4v8" fill="none" stroke="white" stroke-width="1.5" pointer-events="none"/>
  </g>
  <g id="zoomMin">
    <use xlink:href="#rim" fill="#404040"><set attributeName="fill" to="#808080" begin="zoomminus.mouseover" end="zoomminus.mouseout"/></use>
    <path d="M-4,0h8" fill="none" stroke="white" stroke-width="1.5" pointer-events="none"/>
  </g>
  <g id="arrowUp" transform="translate(30 24)">
    <use xlink:href="#rim"/>
    <path pointer-events="none" fill="none" stroke="white" stroke-width="1.5" d="M0,-3.0v7 M-2.5,-0.5L0,-3.0L2.5,-0.5"/>
  </g>
  <g id="arrowRight" transform="rotate(90) translate(36 -43)">
    <use xlink:href="#rim"/>
    <path pointer-events="none" fill="none" stroke="white" stroke-width="1.5" d="M0,-3.0v7 M-2.5,-0.5L0,-3.0L2.5,-0.5"/>
  </g>
  <g id="arrowDown" transform="rotate(180) translate(-30 -48)">
    <use xlink:href="#rim"/>
    <path pointer-events="none" fill="none" stroke="white" stroke-width="1.5" d="M0,-3.0v7 M-2.5,-0.5L0,-3.0L2.5,-0.5"/>
  </g>
  <g id="arrowLeft" transform="rotate(270) translate(-36 17)">
    <use xlink:href="#rim"/>
    <path pointer-events="none" fill="none" stroke="white" stroke-width="1.5" d="M0,-3.0v7 M-2.5,-0.5L0,-3.0L2.5,-0.5"/>
  </g>
  <g id="resetDef">
    <use xlink:href="#rim2" fill="#404040"><set attributeName="fill" to="#808080" begin="reset.mouseover" end="reset.mouseout"/></use>
  </g>
</defs>
<script type="application/ecmascript">
var viewWidth = 909;
var viewHeight = 291;
var sectionId = 'dynsection-9';
</script>
<script type="application/ecmascript" xlink:href="svg.min.js"/>
<svg id="graph" class="graph">
<g id="viewport">
<title>kest_fpga_batch_append_block_instr</title>
<!-- Node1 -->
<g id="Node000001" class="node">
<title>Node1</title>
<g id="a_Node000001"><a xlink:title=" ">
<polygon fill="#999999" stroke="#666666" points="136.75,-122.12 0,-122.12 0,-88.62 136.75,-88.62 136.75,-122.12"/>
<text xml:space="preserve" text-anchor="start" x="8" y="-108.62" font-family="Helvetica,sans-Serif" font-size="10.00">kest_fpga_batch_append</text>
<text xml:space="preserve" text-anchor="middle" x="68.38" y="-95.88" font-family="Helvetica,sans-Serif" font-size="10.00">_block_instr</text>
</a>
</g>
</g>
<!-- Node2 -->
<g id="Node000002" class="node">
<title>Node2</title>
<g id="a_Node000002"><a xlink:href="kest__fpga__encoding_8c.html#a2e8aa45bdd1fc75e8d054d63628dea8a" target="_top" xlink:title=" ">
<polygon fill="white" stroke="#666666" points="317.38,-212.12 182.12,-212.12 182.12,-178.62 317.38,-178.62 317.38,-212.12"/>
<text xml:space="preserve" text-anchor="start" x="190.12" y="-198.62" font-family="Helvetica,sans-Serif" font-size="10.00">kest_block_instr_encode</text>
<text xml:space="preserve" text-anchor="middle" x="249.75" y="-185.88" font-family="Helvetica,sans-Serif" font-size="10.00">_resource_aware</text>
</a>
</g>
</g>
<!-- Node1&#45;&gt;Node2 -->
<g id="edge1_Node000001_Node000002" class="edge">
<title>Node1&#45;&gt;Node2</title>
<g id="a_edge1_Node000001_Node000002"><a xlink:title=" ">
<path fill="none" stroke="#63b8ff" d="M103.54,-122.52C132.12,-136.86 173.11,-157.42 204.26,-173.05"/>
<polygon fill="#63b8ff" stroke="#63b8ff" points="202.55,-176.11 213.06,-177.47 205.69,-169.85 202.55,-176.11"/>
</a>
</g>
</g>
<!-- Node7 -->
<g id="Node000007" class="node">
<title>Node7</title>
<g id="a_Node000007"><a xlink:href="kest__fpga__io_8c.html#a6900c9b759f1dccf1b3535cc76ad83e3" target="_top" xlink:title=" ">
<polygon fill="white" stroke="#666666" points="689.5,-77.75 552.75,-77.75 552.75,-57 689.5,-57 689.5,-77.75"/>
<text xml:space="preserve" text-anchor="middle" x="621.12" y="-64.25" font-family="Helvetica,sans-Serif" font-size="10.00">kest_fpga_batch_append</text>
</a>
</g>
</g>
<!-- Node1&#45;&gt;Node7 -->
<g id="edge6_Node000001_Node000007" class="edge">
<title>Node1&#45;&gt;Node7</title>
<g id="a_edge6_Node000001_Node000007"><a xlink:title=" ">
<path fill="none" stroke="#63b8ff" d="M136.89,-107.93C224.86,-110.15 383.22,-110.4 516.75,-90.38 533.15,-87.92 550.82,-84.33 566.84,-80.73"/>
<polygon fill="#63b8ff" stroke="#63b8ff" points="567.19,-84.24 576.15,-78.58 565.62,-77.42 567.19,-84.24"/>
</a>
</g>
</g>
<!-- Node11 -->
<g id="Node000011" class="node">
<title>Node11</title>
<g id="a_Node000011"><a xlink:href="kest__fpga__io_8c.html#ac7679b9a1a77f12aa23affb51346e3d4" target="_top" xlink:title=" ">
<polygon fill="white" stroke="#666666" points="326.75,-96.75 172.75,-96.75 172.75,-76 326.75,-76 326.75,-96.75"/>
<text xml:space="preserve" text-anchor="middle" x="249.75" y="-83.25" font-family="Helvetica,sans-Serif" font-size="10.00">kest_fpga_batch_append_32</text>
</a>
</g>
</g>
<!-- Node1&#45;&gt;Node11 -->
<g id="edge10_Node000001_Node000011" class="edge">
<title>Node1&#45;&gt;Node11</title>
<g id="a_edge10_Node000001_Node000011"><a xlink:title=" ">
<path fill="none" stroke="#63b8ff" d="M137.19,-98.19C145.01,-97.36 153.07,-96.51 161.11,-95.66"/>
<polygon fill="#63b8ff" stroke="#63b8ff" points="161.35,-99.15 170.92,-94.62 160.61,-92.19 161.35,-99.15"/>
</a>
</g>
</g>
<!-- Node12 -->
<g id="Node000012" class="node">
<title>Node12</title>
<g id="a_Node000012"><a xlink:href="kest__fpga__encoding_8c.html#a9b93bb2d500d5c9986515930a0f9ce47" target="_top" xlink:title=" ">
<polygon fill="white" stroke="#666666" points="318.12,-58.12 181.38,-58.12 181.38,-24.62 318.12,-24.62 318.12,-58.12"/>
<text xml:space="preserve" text-anchor="start" x="189.38" y="-44.62" font-family="Helvetica,sans-Serif" font-size="10.00">kest_fpga_batch_append</text>
<text xml:space="preserve" text-anchor="middle" x="249.75" y="-31.88" font-family="Helvetica,sans-Serif" font-size="10.00">_block_number</text>
</a>
</g>
</g>
<!-- Node1&#45;&gt;Node12 -->
<g id="edge12_Node000001_Node000012" class="edge">
<title>Node1&#45;&gt;Node12</title>
<g id="a_edge12_Node000001_Node000012"><a xlink:title=" ">
<path fill="none" stroke="#63b8ff" d="M115.61,-88.13C133.43,-81.54 154.01,-74.02 172.75,-67.38 177.46,-65.7 182.34,-63.99 187.25,-62.28"/>
<polygon fill="#63b8ff" stroke="#63b8ff" points="188.27,-65.63 196.57,-59.05 185.98,-59.02 188.27,-65.63"/>
</a>
</g>
</g>
<!-- Node3 -->
<g id="Node000003" class="node">
<title>Node3</title>
<g id="a_Node000003"><a xlink:href="kest__fpga__encoding_8c.html#a87169a4f3a076c88525f4e753a313806" target="_top" xlink:title=" ">
<polygon fill="white" stroke="#666666" points="506.25,-276.75 373.25,-276.75 373.25,-256 506.25,-256 506.25,-276.75"/>
<text xml:space="preserve" text-anchor="middle" x="439.75" y="-263.25" font-family="Helvetica,sans-Serif" font-size="10.00">kest_block_instr_format</text>
</a>
</g>
</g>
<!-- Node2&#45;&gt;Node3 -->
<g id="edge2_Node000002_Node000003" class="edge">
<title>Node2&#45;&gt;Node3</title>
<g id="a_edge2_Node000002_Node000003"><a xlink:title=" ">
<path fill="none" stroke="#63b8ff" d="M283.39,-212.53C305.37,-223.59 335.26,-237.66 362.75,-247.38 367.85,-249.18 373.2,-250.88 378.6,-252.47"/>
<polygon fill="#63b8ff" stroke="#63b8ff" points="377.66,-255.84 388.23,-255.16 379.54,-249.1 377.66,-255.84"/>
</a>
</g>
</g>
<!-- Node5 -->
<g id="Node000005" class="node">
<title>Node5</title>
<g id="a_Node000005"><a xlink:href="kest__fpga__encoding_8c.html#ac458e80a0b05b63cdd31322e1dcebf7d" target="_top" xlink:title=" ">
<polygon fill="white" stroke="#666666" points="505.12,-238.12 374.38,-238.12 374.38,-204.62 505.12,-204.62 505.12,-238.12"/>
<text xml:space="preserve" text-anchor="start" x="382.38" y="-224.62" font-family="Helvetica,sans-Serif" font-size="10.00">kest_encode_dsp_block</text>
<text xml:space="preserve" text-anchor="middle" x="439.75" y="-211.88" font-family="Helvetica,sans-Serif" font-size="10.00">_instr_type_a</text>
</a>
</g>
</g>
<!-- Node2&#45;&gt;Node5 -->
<g id="edge4_Node000002_Node000005" class="edge">
<title>Node2&#45;&gt;Node5</title>
<g id="a_edge4_Node000002_Node000005"><a xlink:title=" ">
<path fill="none" stroke="#63b8ff" d="M317.83,-204.65C332.36,-206.66 347.84,-208.8 362.69,-210.86"/>
<polygon fill="#63b8ff" stroke="#63b8ff" points="362.02,-214.3 372.41,-212.2 362.98,-207.36 362.02,-214.3"/>
</a>
</g>
</g>
<!-- Node6 -->
<g id="Node000006" class="node">
<title>Node6</title>
<g id="a_Node000006"><a xlink:href="kest__fpga__encoding_8c.html#af9d51e8e84a57743c39842e8a53f18e8" target="_top" xlink:title=" ">
<polygon fill="white" stroke="#666666" points="505.12,-186.12 374.38,-186.12 374.38,-152.62 505.12,-152.62 505.12,-186.12"/>
<text xml:space="preserve" text-anchor="start" x="382.38" y="-172.62" font-family="Helvetica,sans-Serif" font-size="10.00">kest_encode_dsp_block</text>
<text xml:space="preserve" text-anchor="middle" x="439.75" y="-159.88" font-family="Helvetica,sans-Serif" font-size="10.00">_instr_type_b</text>
</a>
</g>
</g>
<!-- Node2&#45;&gt;Node6 -->
<g id="edge5_Node000002_Node000006" class="edge">
<title>Node2&#45;&gt;Node6</title>
<g id="a_edge5_Node000002_Node000006"><a xlink:title=" ">
<path fill="none" stroke="#63b8ff" d="M317.83,-186.1C332.36,-184.09 347.84,-181.95 362.69,-179.89"/>
<polygon fill="#63b8ff" stroke="#63b8ff" points="362.98,-183.39 372.41,-178.55 362.02,-176.45 362.98,-183.39"/>
</a>
</g>
</g>
<!-- Node4 -->
<g id="Node000004" class="node">
<title>Node4</title>
<g id="a_Node000004"><a xlink:href="kest__fpga__encoding_8c.html#a8357836213e2592c0f36f83c83b1dcbd" target="_top" xlink:title=" ">
<polygon fill="white" stroke="#666666" points="688.75,-283.12 553.5,-283.12 553.5,-249.62 688.75,-249.62 688.75,-283.12"/>
<text xml:space="preserve" text-anchor="start" x="561.5" y="-269.62" font-family="Helvetica,sans-Serif" font-size="10.00">kest_fpga_block_opcode</text>
<text xml:space="preserve" text-anchor="middle" x="621.12" y="-256.88" font-family="Helvetica,sans-Serif" font-size="10.00">_format</text>
</a>
</g>
</g>
<!-- Node3&#45;&gt;Node4 -->
<g id="edge3_Node000003_Node000004" class="edge">
<title>Node3&#45;&gt;Node4</title>
<g id="a_edge3_Node000003_Node000004"><a xlink:title=" ">
<path fill="none" stroke="#63b8ff" d="M506.52,-266.38C518.04,-266.38 530.13,-266.38 541.94,-266.38"/>
<polygon fill="#63b8ff" stroke="#63b8ff" points="541.64,-269.88 551.64,-266.38 541.64,-262.88 541.64,-269.88"/>
</a>
</g>
</g>
<!-- Node8 -->
<g id="Node000008" class="node">
<title>Node8</title>
<g id="a_Node000008"><a xlink:href="kest__alloc_8c.html#ac3afebacd5118241e9f677df59a469b0" target="_top" xlink:title=" ">
<polygon fill="white" stroke="#666666" points="800,-77.75 725.5,-77.75 725.5,-57 800,-57 800,-77.75"/>
<text xml:space="preserve" text-anchor="middle" x="762.75" y="-64.25" font-family="Helvetica,sans-Serif" font-size="10.00">kest_realloc</text>
</a>
</g>
</g>
<!-- Node7&#45;&gt;Node8 -->
<g id="edge7_Node000007_Node000008" class="edge">
<title>Node7&#45;&gt;Node8</title>
<g id="a_edge7_Node000007_Node000008"><a xlink:title=" ">
<path fill="none" stroke="#63b8ff" d="M689.89,-67.38C698.01,-67.38 706.17,-67.38 713.93,-67.38"/>
<polygon fill="#63b8ff" stroke="#63b8ff" points="713.81,-70.88 723.81,-67.38 713.81,-63.88 713.81,-70.88"/>
</a>
</g>
</g>
<!-- Node9 -->
<g id="Node000009" class="node">
<title>Node9</title>
<g id="a_Node000009"><a xlink:href="kest__alloc_8c.html#a849755c5dc5b35e712ffcdb602e50fb4" target="_top" xlink:title=" ">
<polygon fill="white" stroke="#666666" points="900.75,-97.75 836,-97.75 836,-77 900.75,-77 900.75,-97.75"/>
<text xml:space="preserve" text-anchor="middle" x="868.38" y="-84.25" font-family="Helvetica,sans-Serif" font-size="10.00">kest_alloc</text>
</a>
</g>
</g>
<!-- Node8&#45;&gt;Node9 -->
<g id="edge8_Node000008_Node000009" class="edge">
<title>Node8&#45;&gt;Node9</title>
<g id="a_edge8_Node000008_Node000009"><a xlink:title=" ">
<path fill="none" stroke="#63b8ff" d="M800.28,-74.43C808.13,-75.94 816.48,-77.55 824.54,-79.11"/>
<polygon fill="#63b8ff" stroke="#63b8ff" points="823.67,-82.51 834.16,-80.96 825,-75.63 823.67,-82.51"/>
</a>
</g>
</g>
<!-- Node10 -->
<g id="Node000010" class="node">
<title>Node10</title>
<g id="a_Node000010"><a xlink:href="kest__alloc_8c.html#a294af5728a94aa316fcf65304d388d48" target="_top" xlink:title=" ">
<polygon fill="white" stroke="#666666" points="898.88,-58.75 837.88,-58.75 837.88,-38 898.88,-38 898.88,-58.75"/>
<text xml:space="preserve" text-anchor="middle" x="868.38" y="-45.25" font-family="Helvetica,sans-Serif" font-size="10.00">kest_free</text>
</a>
</g>
</g>
<!-- Node8&#45;&gt;Node10 -->
<g id="edge9_Node000008_Node000010" class="edge">
<title>Node8&#45;&gt;Node10</title>
<g id="a_edge9_Node000008_Node000010"><a xlink:title=" ">
<path fill="none" stroke="#63b8ff" d="M800.28,-60.68C808.79,-59.12 817.9,-57.45 826.58,-55.85"/>
<polygon fill="#63b8ff" stroke="#63b8ff" points="826.96,-59.34 836.17,-54.1 825.7,-52.46 826.96,-59.34"/>
</a>
</g>
</g>
<!-- Node11&#45;&gt;Node7 -->
<g id="edge11_Node000011_Node000007" class="edge">
<title>Node11&#45;&gt;Node7</title>
<g id="a_edge11_Node000011_Node000007"><a xlink:title=" ">
<path fill="none" stroke="#63b8ff" d="M326.84,-82.46C389.49,-79.24 478.02,-74.68 541.39,-71.43"/>
<polygon fill="#63b8ff" stroke="#63b8ff" points="541.2,-74.94 551.01,-70.93 540.84,-67.95 541.2,-74.94"/>
</a>
</g>
</g>
<!-- Node12&#45;&gt;Node7 -->
<g id="edge13_Node000012_Node000007" class="edge">
<title>Node12&#45;&gt;Node7</title>
<g id="a_edge13_Node000012_Node000007"><a xlink:title=" ">
<path fill="none" stroke="#63b8ff" d="M318.5,-46.14C381.4,-50.57 475.05,-57.16 541.29,-61.83"/>
<polygon fill="#63b8ff" stroke="#63b8ff" points="540.76,-65.3 550.98,-62.51 541.25,-58.31 540.76,-65.3"/>
</a>
</g>
</g>
<!-- Node13 -->
<g id="Node000013" class="node">
<title>Node13</title>
<g id="a_Node000013"><a xlink:href="kest__fpga__io_8c.html#a1d6d30e20ceac79973b36fd12e790aa5" target="_top" xlink:title=" ">
<polygon fill="white" stroke="#666666" points="516.75,-20.75 362.75,-20.75 362.75,0 516.75,0 516.75,-20.75"/>
<text xml:space="preserve" text-anchor="middle" x="439.75" y="-7.25" font-family="Helvetica,sans-Serif" font-size="10.00">kest_fpga_batch_append_16</text>
</a>
</g>
</g>
<!-- Node12&#45;&gt;Node13 -->
<g id="edge14_Node000012_Node000013" class="edge">
<title>Node12&#45;&gt;Node13</title>
<g id="a_edge14_Node000012_Node000013"><a xlink:title=" ">
<path fill="none" stroke="#63b8ff" d="M318.62,-30.18C332.56,-27.88 347.34,-25.45 361.58,-23.1"/>
<polygon fill="#63b8ff" stroke="#63b8ff" points="362.07,-26.57 371.37,-21.49 360.94,-19.66 362.07,-26.57"/>
</a>
</g>
</g>
<!-- Node13&#45;&gt;Node7 -->
<g id="edge15_Node000013_Node000007" class="edge">
<title>Node13&#45;&gt;Node7</title>
<g id="a_edge15_Node000013_Node000007"><a xlink:title=" ">
<path fill="none" stroke="#63b8ff" d="M475.19,-21.22C488.21,-25.33 503.17,-30.06 516.75,-34.38 536.08,-40.51 557.43,-47.32 575.69,-53.16"/>
<polygon fill="#63b8ff" stroke="#63b8ff" points="574.58,-56.48 585.17,-56.19 576.71,-49.81 574.58,-56.48"/>
</a>
</g>
</g>
</g>
</svg>

<g id="navigator" transform="translate(0 0)" fill="#404254">
  <rect fill="#f2f5e9" fill-opacity="0.5" stroke="#606060" stroke-width=".5" x="0" y="0" width="60" height="60"/>
  <use id="zoomplus" xlink:href="#zoomPlus" x="17" y="9" onmousedown="handleZoom(evt,'in')"/>
  <use id="zoomminus" xlink:href="#zoomMin" x="42" y="9" onmousedown="handleZoom(evt,'out')"/>
  <use id="reset" xlink:href="#resetDef" x="30" y="36" onmousedown="handleReset()"/>
   <use id="arrowup" xlink:href="#arrowUp" x="0" y="0" onmousedown="handlePan(0,-1)"/>
  <use id="arrowright" xlink:href="#arrowRight" x="0" y="0" onmousedown="handlePan(1,0)"/>
  <use id="arrowdown" xlink:href="#arrowDown" x="0" y="0" onmousedown="handlePan(0,1)"/>
  <use id="arrowleft" xlink:href="#arrowLeft" x="0" y="0" onmousedown="handlePan(-1,0)"/>
</g>
<svg viewBox="0 0 15 15" width="100%" height="30px" preserveAspectRatio="xMaxYMin meet">
 <g id="arrow_out" transform="scale(0.3 0.3)">
  <a xlink:href="kest__fpga__encoding_8c_a1e92fe0ff4b72e00fa5d840ec96508c7_cgraph_org.svg" target="_base">
   <rect id="button" ry="5" rx="5" y="6" x="6" height="38" width="38"
        fill="#f2f5e9" fill-opacity="0.5" stroke="#606060" stroke-width="1.0"/>
   <path id="arrow"
     d="M 11.500037,31.436501 C 11.940474,20.09759 22.043105,11.32322 32.158766,21.979434 L 37.068811,17.246167 C 37.068811,17.246167 37.088388,32 37.088388,32 L 22.160133,31.978069 C 22.160133,31.978069 26.997745,27.140456 26.997745,27.140456 C 18.528582,18.264221 13.291696,25.230495 11.500037,31.436501 z"
     style="fill:#404040;"/>
  </a>
 </g>
</svg>

<style type='text/css'>
<![CDATA[
[data-mouse-over-selected='false'] { opacity: 0.7; }
[data-mouse-over-selected='true']  { opacity: 1.0; }
]]>
</style>
<script type="application/ecmascript"><![CDATA[
document.addEventListener('DOMContentLoaded', (event) => {
  highlightEdges();
  highlightAdjacentNodes();
});
]]></script>
</svg>
