<?xml version="1.0" encoding="UTF-8" standalone="no"?>
<!DOCTYPE svg PUBLIC "-//W3C//DTD SVG 1.1//EN"
 "http://www.w3.org/Graphics/SVG/1.1/DTD/svg11.dtd">
<!-- Generated by graphviz version 13.1.2 (20250808.2320)
 -->
<!-- Title: menu_page_remove_item Pages: 1 -->
<svg width="638pt" height="99pt"
 viewBox="0.00 0.00 638.00 99.00" xmlns="http://www.w3.org/2000/svg" xmlns:xlink="http://www.w3.org/1999/xlink">
<g id="graph0" class="graph" transform="scale(1 1) rotate(0) translate(4 95.12)">
<title>menu_page_remove_item</title>
<!-- Node1 -->
<g id="Node000001" class="node">
<title>Node1</title>
<g id="a_Node000001"><a xlink:title=" ">
<polygon fill="#999999" stroke="#666666" points="630.25,-53.12 486.75,-53.12 486.75,-32.38 630.25,-32.38 630.25,-53.12"/>
<text xml:space="preserve" text-anchor="middle" x="558.5" y="-39.62" font-family="Helvetica,sans-Serif" font-size="10.00">menu_page_remove_item</text>
</a>
</g>
</g>
<!-- Node2 -->
<g id="Node000002" class="node">
<title>Node2</title>
<g id="a_Node000002"><a xlink:href="kest__menu_8c.html#a33b1b7cde7c97dfddede16dae1536481" target="_top" xlink:title=" ">
<polygon fill="white" stroke="#666666" points="443.25,-85.5 324.5,-85.5 324.5,-52 443.25,-52 443.25,-85.5"/>
<text xml:space="preserve" text-anchor="start" x="332.5" y="-72" font-family="Helvetica,sans-Serif" font-size="10.00">profile_listing_delete</text>
<text xml:space="preserve" text-anchor="middle" x="383.88" y="-59.25" font-family="Helvetica,sans-Serif" font-size="10.00">_button_cb</text>
</a>
</g>
</g>
<!-- Node1&#45;&gt;Node2 -->
<g id="edge1_Node000001_Node000002" class="edge">
<title>Node1&#45;&gt;Node2</title>
<g id="a_edge1_Node000001_Node000002"><a xlink:title=" ">
<path fill="none" stroke="#63b8ff" d="M475.21,-55.14C464.53,-56.75 453.77,-58.37 443.58,-59.91"/>
<polygon fill="#63b8ff" stroke="#63b8ff" points="475.43,-58.65 484.79,-53.7 474.38,-51.73 475.43,-58.65"/>
</a>
</g>
</g>
<!-- Node14 -->
<g id="Node000014" class="node">
<title>Node14</title>
<g id="a_Node000014"><a xlink:href="kest__sequence__list_8c.html#a1982fe2baa22bbb76b3da523cfdda6da" target="_top" xlink:title=" ">
<polygon fill="white" stroke="#666666" points="450.75,-33.5 317,-33.5 317,0 450.75,0 450.75,-33.5"/>
<text xml:space="preserve" text-anchor="start" x="325" y="-20" font-family="Helvetica,sans-Serif" font-size="10.00">sequence_listing_delete</text>
<text xml:space="preserve" text-anchor="middle" x="383.88" y="-7.25" font-family="Helvetica,sans-Serif" font-size="10.00">_button_cb</text>
</a>
</g>
</g>
<!-- Node1&#45;&gt;Node14 -->
<g id="edge6_Node000001_Node000014" class="edge">
<title>Node1&#45;&gt;Node14</title>
<g id="a_edge6_Node000001_Node000014"><a xlink:title=" ">
<path fill="none" stroke="#63b8ff" d="M475.05,-30.33C467.05,-29.13 459.02,-27.92 451.21,-26.74"/>
<polygon fill="#63b8ff" stroke="#63b8ff" points="474.38,-33.77 484.79,-31.8 475.43,-26.85 474.38,-33.77"/>
</a>
</g>
</g>
<!-- Node3 -->
<g id="Node000003" class="node">
<title>Node3</title>
<g id="a_Node000003"><a xlink:href="kest__menu_8c.html#aa44b42640611d3ca75f6b55206ebd08e" target="_top" xlink:title=" ">
<polygon fill="white" stroke="#666666" points="281,-53.12 159.25,-53.12 159.25,-32.38 281,-32.38 281,-53.12"/>
<text xml:space="preserve" text-anchor="middle" x="220.12" y="-39.62" font-family="Helvetica,sans-Serif" font-size="10.00">create_menu_item_ui</text>
</a>
</g>
</g>
<!-- Node2&#45;&gt;Node3 -->
<g id="edge2_Node000002_Node000003" class="edge">
<title>Node2&#45;&gt;Node3</title>
<g id="a_edge2_Node000002_Node000003"><a xlink:title=" ">
<path fill="none" stroke="#63b8ff" d="M312.77,-57.48C302.28,-55.8 291.55,-54.07 281.29,-52.42"/>
<polygon fill="#63b8ff" stroke="#63b8ff" points="312.1,-60.92 322.53,-59.05 313.21,-54.01 312.1,-60.92"/>
</a>
</g>
</g>
<!-- Node4 -->
<g id="Node000004" class="node">
<title>Node4</title>
<g id="a_Node000004"><a xlink:href="kest__menu_8c.html#a6775c89241a45f6fa04a6d8111139cb5" target="_top" xlink:title=" ">
<polygon fill="#fff0f0" stroke="red" points="123.25,-73.12 0,-73.12 0,-52.38 123.25,-52.38 123.25,-73.12"/>
<text xml:space="preserve" text-anchor="middle" x="61.62" y="-59.62" font-family="Helvetica,sans-Serif" font-size="10.00">create_menu_page_ui</text>
</a>
</g>
</g>
<!-- Node3&#45;&gt;Node4 -->
<g id="edge3_Node000003_Node000004" class="edge">
<title>Node3&#45;&gt;Node4</title>
<g id="a_edge3_Node000003_Node000004"><a xlink:title=" ">
<path fill="none" stroke="#63b8ff" d="M147.74,-51.87C139.67,-52.9 131.49,-53.95 123.56,-54.96"/>
<polygon fill="#63b8ff" stroke="#63b8ff" points="148.09,-55.36 157.56,-50.62 147.2,-48.41 148.09,-55.36"/>
</a>
</g>
</g>
<!-- Node11 -->
<g id="Node000011" class="node">
<title>Node11</title>
<g id="a_Node000011"><a xlink:href="kest__sequence__list_8c.html#ac9d222d7405758d9f4edfeabe4c6200e" target="_top" xlink:title=" ">
<polygon fill="#fff0f0" stroke="red" points="122.88,-34.12 0.38,-34.12 0.38,-13.38 122.88,-13.38 122.88,-34.12"/>
<text xml:space="preserve" text-anchor="middle" x="61.62" y="-20.62" font-family="Helvetica,sans-Serif" font-size="10.00">sequence_list_add_cb</text>
</a>
</g>
</g>
<!-- Node3&#45;&gt;Node11 -->
<g id="edge5_Node000003_Node000011" class="edge">
<title>Node3&#45;&gt;Node11</title>
<g id="a_edge5_Node000003_Node000011"><a xlink:title=" ">
<path fill="none" stroke="#63b8ff" d="M147.66,-34.07C139.52,-33.09 131.28,-32.09 123.3,-31.12"/>
<polygon fill="#63b8ff" stroke="#63b8ff" points="147.21,-37.55 157.56,-35.28 148.06,-30.6 147.21,-37.55"/>
</a>
</g>
</g>
<!-- Node4&#45;&gt;Node4 -->
<g id="edge4_Node000004_Node000004" class="edge">
<title>Node4&#45;&gt;Node4</title>
<g id="a_edge4_Node000004_Node000004"><a xlink:title=" ">
<path fill="none" stroke="#63b8ff" d="M89.52,-84.61C85.82,-88.45 76.52,-91.12 61.62,-91.12 34.38,-91.12 25.87,-82.18 36.09,-73.52"/>
<polygon fill="#63b8ff" stroke="#63b8ff" points="92.98,-84.06 87.48,-75 86.13,-85.51 92.98,-84.06"/>
</a>
</g>
</g>
<!-- Node14&#45;&gt;Node3 -->
<g id="edge7_Node000014_Node000003" class="edge">
<title>Node14&#45;&gt;Node3</title>
<g id="a_edge7_Node000014_Node000003"><a xlink:title=" ">
<path fill="none" stroke="#63b8ff" d="M305.29,-29.22C297.23,-30.52 289.13,-31.82 281.3,-33.08"/>
<polygon fill="#63b8ff" stroke="#63b8ff" points="305.81,-32.68 315.12,-27.64 304.7,-25.77 305.81,-32.68"/>
</a>
</g>
</g>
</g>
</svg>
