<?xml version="1.0" encoding="UTF-8" standalone="no"?>
<!DOCTYPE svg PUBLIC "-//W3C//DTD SVG 1.1//EN"
 "http://www.w3.org/Graphics/SVG/1.1/DTD/svg11.dtd">
<!-- Generated by graphviz version 13.1.2 (20250808.2320)
 -->
<!-- Title: enter_ui_page_cb Pages: 1 -->
<svg width="545pt" height="42pt"
 viewBox="0.00 0.00 545.00 42.00" xmlns="http://www.w3.org/2000/svg" xmlns:xlink="http://www.w3.org/1999/xlink">
<g id="graph0" class="graph" transform="scale(1 1) rotate(0) translate(4 37.5)">
<title>enter_ui_page_cb</title>
<!-- Node1 -->
<g id="Node000001" class="node">
<title>Node1</title>
<g id="a_Node000001"><a xlink:title=" ">
<polygon fill="#999999" stroke="#666666" points="101.5,-27.12 0,-27.12 0,-6.38 101.5,-6.38 101.5,-27.12"/>
<text xml:space="preserve" text-anchor="middle" x="50.75" y="-13.62" font-family="Helvetica,sans-Serif" font-size="10.00">enter_ui_page_cb</text>
</a>
</g>
</g>
<!-- Node2 -->
<g id="Node000002" class="node">
<title>Node2</title>
<g id="a_Node000002"><a xlink:href="kest__ui_8c.html#aab9f2e82d67858edd53fd09370687007" target="_top" xlink:title=" ">
<polygon fill="white" stroke="#666666" points="222.5,-27.12 137.5,-27.12 137.5,-6.38 222.5,-6.38 222.5,-27.12"/>
<text xml:space="preserve" text-anchor="middle" x="180" y="-13.62" font-family="Helvetica,sans-Serif" font-size="10.00">enter_ui_page</text>
</a>
</g>
</g>
<!-- Node1&#45;&gt;Node2 -->
<g id="edge1_Node000001_Node000002" class="edge">
<title>Node1&#45;&gt;Node2</title>
<g id="a_edge1_Node000001_Node000002"><a xlink:title=" ">
<path fill="none" stroke="#63b8ff" d="M101.68,-16.75C109.54,-16.75 117.69,-16.75 125.62,-16.75"/>
<polygon fill="#63b8ff" stroke="#63b8ff" points="125.52,-20.25 135.52,-16.75 125.52,-13.25 125.52,-20.25"/>
</a>
</g>
</g>
<!-- Node3 -->
<g id="Node000003" class="node">
<title>Node3</title>
<g id="a_Node000003"><a xlink:href="kest__context_8c.html#a6292c7a2d7f0502ea5a59bbe9b552791" target="_top" xlink:title=" ">
<polygon fill="white" stroke="#666666" points="378.75,-33.5 258.5,-33.5 258.5,0 378.75,0 378.75,-33.5"/>
<text xml:space="preserve" text-anchor="start" x="266.5" y="-20" font-family="Helvetica,sans-Serif" font-size="10.00">kest_cxt_queue_save</text>
<text xml:space="preserve" text-anchor="middle" x="318.62" y="-7.25" font-family="Helvetica,sans-Serif" font-size="10.00">_state</text>
</a>
</g>
</g>
<!-- Node2&#45;&gt;Node3 -->
<g id="edge2_Node000002_Node000003" class="edge">
<title>Node2&#45;&gt;Node3</title>
<g id="a_edge2_Node000002_Node000003"><a xlink:title=" ">
<path fill="none" stroke="#63b8ff" d="M222.73,-16.75C230.31,-16.75 238.4,-16.75 246.54,-16.75"/>
<polygon fill="#63b8ff" stroke="#63b8ff" points="246.53,-20.25 256.53,-16.75 246.53,-13.25 246.53,-20.25"/>
</a>
</g>
</g>
<!-- Node4 -->
<g id="Node000004" class="node">
<title>Node4</title>
<g id="a_Node000004"><a xlink:href="kest__representation_8c.html#a7a4a0f32b72f47d90e3d0f5932fbe58f" target="_top" xlink:title=" ">
<polygon fill="white" stroke="#666666" points="537.25,-33.5 414.75,-33.5 414.75,0 537.25,0 537.25,-33.5"/>
<text xml:space="preserve" text-anchor="start" x="422.75" y="-20" font-family="Helvetica,sans-Serif" font-size="10.00">queue_representation</text>
<text xml:space="preserve" text-anchor="middle" x="476" y="-7.25" font-family="Helvetica,sans-Serif" font-size="10.00">_list_update</text>
</a>
</g>
</g>
<!-- Node3&#45;&gt;Node4 -->
<g id="edge3_Node000003_Node000004" class="edge">
<title>Node3&#45;&gt;Node4</title>
<g id="a_edge3_Node000003_Node000004"><a xlink:title=" ">
<path fill="none" stroke="#63b8ff" d="M378.81,-16.75C386.74,-16.75 394.94,-16.75 403.05,-16.75"/>
<polygon fill="#63b8ff" stroke="#63b8ff" points="402.92,-20.25 412.92,-16.75 402.92,-13.25 402.92,-20.25"/>
</a>
</g>
</g>
</g>
</svg>
