<?xml version="1.0" encoding="UTF-8" standalone="no"?>
<!DOCTYPE svg PUBLIC "-//W3C//DTD SVG 1.1//EN"
 "http://www.w3.org/Graphics/SVG/1.1/DTD/svg11.dtd">
<!-- Generated by graphviz version 13.1.2 (20250808.2320)
 -->
<!-- Title: kest_active_button_array_init Pages: 1 -->
<svg width="575pt" height="107pt"
 viewBox="0.00 0.00 575.00 107.00" xmlns="http://www.w3.org/2000/svg" xmlns:xlink="http://www.w3.org/1999/xlink">
<g id="graph0" class="graph" transform="scale(1 1) rotate(0) translate(4 102.75)">
<title>kest_active_button_array_init</title>
<!-- Node1 -->
<g id="Node000001" class="node">
<title>Node1</title>
<g id="a_Node000001"><a xlink:title=" ">
<polygon fill="#999999" stroke="#666666" points="567.25,-66.12 459,-66.12 459,-32.62 567.25,-32.62 567.25,-66.12"/>
<text xml:space="preserve" text-anchor="start" x="467" y="-52.62" font-family="Helvetica,sans-Serif" font-size="10.00">kest_active_button</text>
<text xml:space="preserve" text-anchor="middle" x="513.12" y="-39.88" font-family="Helvetica,sans-Serif" font-size="10.00">_array_init</text>
</a>
</g>
</g>
<!-- Node2 -->
<g id="Node000002" class="node">
<title>Node2</title>
<g id="a_Node000002"><a xlink:href="kest__button_8c.html#aa8b7e33df0eaac17a63df490fcdadc60" target="_top" xlink:title=" ">
<polygon fill="white" stroke="#666666" points="423,-66.12 314.75,-66.12 314.75,-32.62 423,-32.62 423,-66.12"/>
<text xml:space="preserve" text-anchor="start" x="322.75" y="-52.62" font-family="Helvetica,sans-Serif" font-size="10.00">kest_active_button</text>
<text xml:space="preserve" text-anchor="middle" x="368.88" y="-39.88" font-family="Helvetica,sans-Serif" font-size="10.00">_array_new</text>
</a>
</g>
</g>
<!-- Node1&#45;&gt;Node2 -->
<g id="edge1_Node000001_Node000002" class="edge">
<title>Node1&#45;&gt;Node2</title>
<g id="a_edge1_Node000001_Node000002"><a xlink:title=" ">
<path fill="none" stroke="#63b8ff" d="M447.38,-49.38C439.24,-49.38 431,-49.38 423.07,-49.38"/>
<polygon fill="#63b8ff" stroke="#63b8ff" points="447.24,-52.88 457.24,-49.38 447.24,-45.88 447.24,-52.88"/>
</a>
</g>
</g>
<!-- Node3 -->
<g id="Node000003" class="node">
<title>Node3</title>
<g id="a_Node000003"><a xlink:href="kest__profile__view_8c.html#abfe2cf72961d0ab0b70f858cf1281a38" target="_top" xlink:title=" ">
<polygon fill="white" stroke="#666666" points="271.25,-98.75 174.25,-98.75 174.25,-78 271.25,-78 271.25,-98.75"/>
<text xml:space="preserve" text-anchor="middle" x="222.75" y="-85.25" font-family="Helvetica,sans-Serif" font-size="10.00">init_profile_view</text>
</a>
</g>
</g>
<!-- Node2&#45;&gt;Node3 -->
<g id="edge2_Node000002_Node000003" class="edge">
<title>Node2&#45;&gt;Node3</title>
<g id="a_edge2_Node000002_Node000003"><a xlink:title=" ">
<path fill="none" stroke="#63b8ff" d="M303.8,-66.71C290.17,-70.4 276.15,-74.2 263.72,-77.56"/>
<polygon fill="#63b8ff" stroke="#63b8ff" points="304.42,-70.17 313.16,-64.18 302.59,-63.42 304.42,-70.17"/>
</a>
</g>
</g>
<!-- Node23 -->
<g id="Node000023" class="node">
<title>Node23</title>
<g id="a_Node000023"><a xlink:href="kest__sequence__view_8c.html#aca115eba822b7486dc289cc9150562a7" target="_top" xlink:title=" ">
<polygon fill="#fff0f0" stroke="red" points="278.75,-59.75 166.75,-59.75 166.75,-39 278.75,-39 278.75,-59.75"/>
<text xml:space="preserve" text-anchor="middle" x="222.75" y="-46.25" font-family="Helvetica,sans-Serif" font-size="10.00">init_sequence_view</text>
</a>
</g>
</g>
<!-- Node2&#45;&gt;Node23 -->
<g id="edge4_Node000002_Node000023" class="edge">
<title>Node2&#45;&gt;Node23</title>
<g id="a_edge4_Node000002_Node000023"><a xlink:title=" ">
<path fill="none" stroke="#63b8ff" d="M303.35,-49.38C295.29,-49.38 287.11,-49.38 279.2,-49.38"/>
<polygon fill="#63b8ff" stroke="#63b8ff" points="303.1,-52.88 313.1,-49.38 303.1,-45.88 303.1,-52.88"/>
</a>
</g>
</g>
<!-- Node24 -->
<g id="Node000024" class="node">
<title>Node24</title>
<g id="a_Node000024"><a xlink:href="kest__ui_8c.html#a54f79f277b7d97da20f192e3bec8f3ec" target="_top" xlink:title=" ">
<polygon fill="white" stroke="#666666" points="265.25,-20.75 180.25,-20.75 180.25,0 265.25,0 265.25,-20.75"/>
<text xml:space="preserve" text-anchor="middle" x="222.75" y="-7.25" font-family="Helvetica,sans-Serif" font-size="10.00">init_test_page</text>
</a>
</g>
</g>
<!-- Node2&#45;&gt;Node24 -->
<g id="edge5_Node000002_Node000024" class="edge">
<title>Node2&#45;&gt;Node24</title>
<g id="a_edge5_Node000002_Node000024"><a xlink:title=" ">
<path fill="none" stroke="#63b8ff" d="M303.8,-32.04C290.17,-28.35 276.15,-24.55 263.72,-21.19"/>
<polygon fill="#63b8ff" stroke="#63b8ff" points="302.59,-35.33 313.16,-34.57 304.42,-28.58 302.59,-35.33"/>
</a>
</g>
</g>
<!-- Node4 -->
<g id="Node000004" class="node">
<title>Node4</title>
<g id="a_Node000004"><a xlink:href="kest__profile__view_8c.html#a8a76cb40ff26bbde55ba56a4f25094d1" target="_top" xlink:title=" ">
<polygon fill="#fff0f0" stroke="red" points="130.75,-98.75 0,-98.75 0,-78 130.75,-78 130.75,-98.75"/>
<text xml:space="preserve" text-anchor="middle" x="65.38" y="-85.25" font-family="Helvetica,sans-Serif" font-size="10.00">create_profile_view_for</text>
</a>
</g>
</g>
<!-- Node3&#45;&gt;Node4 -->
<g id="edge3_Node000003_Node000004" class="edge">
<title>Node3&#45;&gt;Node4</title>
<g id="a_edge3_Node000003_Node000004"><a xlink:title=" ">
<path fill="none" stroke="#63b8ff" d="M162.47,-88.38C152.17,-88.38 141.4,-88.38 130.97,-88.38"/>
<polygon fill="#63b8ff" stroke="#63b8ff" points="162.35,-91.88 172.35,-88.38 162.35,-84.88 162.35,-91.88"/>
</a>
</g>
</g>
</g>
</svg>
