<?xml version="1.0" encoding="UTF-8" standalone="no"?>
<!DOCTYPE svg PUBLIC "-//W3C//DTD SVG 1.1//EN"
 "http://www.w3.org/Graphics/SVG/1.1/DTD/svg11.dtd">
<!-- Generated by graphviz version 13.1.2 (20250808.2320)
 -->
<!-- Title: new_m_expression_const Pages: 1 -->
<svg width="312pt" height="68pt"
 viewBox="0.00 0.00 312.00 68.00" xmlns="http://www.w3.org/2000/svg" xmlns:xlink="http://www.w3.org/1999/xlink">
<g id="graph0" class="graph" transform="scale(1 1) rotate(0) translate(4 63.75)">
<title>new_m_expression_const</title>
<!-- Node1 -->
<g id="Node000001" class="node">
<title>Node1</title>
<g id="a_Node000001"><a xlink:title=" ">
<polygon fill="#999999" stroke="#666666" points="141.25,-39.75 0,-39.75 0,-19 141.25,-19 141.25,-39.75"/>
<text xml:space="preserve" text-anchor="middle" x="70.62" y="-26.25" font-family="Helvetica,sans-Serif" font-size="10.00">new_m_expression_const</text>
</a>
</g>
</g>
<!-- Node2 -->
<g id="Node000002" class="node">
<title>Node2</title>
<g id="a_Node000002"><a xlink:href="kest__alloc_8c.html#a849755c5dc5b35e712ffcdb602e50fb4" target="_top" xlink:title=" ">
<polygon fill="white" stroke="#666666" points="272.75,-59.75 208,-59.75 208,-39 272.75,-39 272.75,-59.75"/>
<text xml:space="preserve" text-anchor="middle" x="240.38" y="-46.25" font-family="Helvetica,sans-Serif" font-size="10.00">kest_alloc</text>
</a>
</g>
</g>
<!-- Node1&#45;&gt;Node2 -->
<g id="edge1_Node000001_Node000002" class="edge">
<title>Node1&#45;&gt;Node2</title>
<g id="a_edge1_Node000001_Node000002"><a xlink:title=" ">
<path fill="none" stroke="#63b8ff" d="M141.31,-37.68C160.03,-39.92 179.73,-42.26 196.52,-44.27"/>
<polygon fill="#63b8ff" stroke="#63b8ff" points="195.78,-47.7 206.12,-45.41 196.61,-40.75 195.78,-47.7"/>
</a>
</g>
</g>
<!-- Node3 -->
<g id="Node000003" class="node">
<title>Node3</title>
<g id="a_Node000003"><a xlink:href="kest__expression_8c.html#ae6f52fade51b75af749874a7664095b0" target="_top" xlink:title=" ">
<polygon fill="white" stroke="#666666" points="303.5,-20.75 177.25,-20.75 177.25,0 303.5,0 303.5,-20.75"/>
<text xml:space="preserve" text-anchor="middle" x="240.38" y="-7.25" font-family="Helvetica,sans-Serif" font-size="10.00">kest_expression_const</text>
</a>
</g>
</g>
<!-- Node1&#45;&gt;Node3 -->
<g id="edge2_Node000001_Node000003" class="edge">
<title>Node1&#45;&gt;Node3</title>
<g id="a_edge2_Node000001_Node000003"><a xlink:title=" ">
<path fill="none" stroke="#63b8ff" d="M141.31,-21.48C149.32,-20.57 157.52,-19.65 165.58,-18.73"/>
<polygon fill="#63b8ff" stroke="#63b8ff" points="165.83,-22.23 175.37,-17.62 165.04,-15.27 165.83,-22.23"/>
</a>
</g>
</g>
</g>
</svg>
