<?xml version="1.0" encoding="UTF-8" standalone="no"?>
<!DOCTYPE svg PUBLIC "-//W3C//DTD SVG 1.1//EN"
 "http://www.w3.org/Graphics/SVG/1.1/DTD/svg11.dtd">
<!-- Generated by graphviz version 13.1.2 (20250808.2320)
 -->
<!-- Title: kest_extract_parameter_from_dict Pages: 1 -->
<!--zoomable 526 -->

<svg id="main" version="1.1" xmlns="http://www.w3.org/2000/svg" xmlns:xlink="http://www.w3.org/1999/xlink" xml:space="preserve" onload="init(evt)">

<style type="text/css"><![CDATA[
.node, .edge {opacity: 0.7;}
.node.selected, .edge.selected {opacity: 1;}
.edge:hover path { stroke: red; }
.edge:hover polygon { stroke: red; fill: red; }
]]></style>

<defs>
  <circle id="rim" cx="0" cy="0" r="7"/>
  <circle id="rim2" cx="0" cy="0" r="3.5"/>
  <g id="zoomPlus">
    <use xlink:href="#rim" fill="#404040"><set attributeName="fill" to="#808080" begin="zoomplus.mouseover" end="zoomplus.mouseout"/></use>
    <path d="M-4,0h8M0,-4v8" fill="none" stroke="white" stroke-width="1.5" pointer-events="none"/>
  </g>
  <g id="zoomMin">
    <use xlink:href="#rim" fill="#404040"><set attributeName="fill" to="#808080" begin="zoomminus.mouseover" end="zoomminus.mouseout"/></use>
    <path d="M-4,0h8" fill="none" stroke="white" stroke-width="1.5" pointer-events="none"/>
  </g>
  <g id="arrowUp" transform="translate(30 24)">
    <use xlink:href="#rim"/>
    <path pointer-events="none" fill="none" stroke="white" stroke-width="1.5" d="M0,-3.0v7 M-2.5,-0.5L0,-3.0L2.5,-0.5"/>
  </g>
  <g id="arrowRight" transform="rotate(90) translate(36 -43)">
    <use xlink:href="#rim"/>
    <path pointer-events="none" fill="none" stroke="white" stroke-width="1.5" d="M0,-3.0v7 M-2.5,-0.5L0,-3.0L2.5,-0.5"/>
  </g>
  <g id="arrowDown" transform="rotate(180) translate(-30 -48)">
    <use xlink:href="#rim"/>
    <path pointer-events="none" fill="none" stroke="white" stroke-width="1.5" d="M0,-3.0v7 M-2.5,-0.5L0,-3.0L2.5,-0.5"/>
  </g>
  <g id="arrowLeft" transform="rotate(270) translate(-36 17)">
    <use xlink:href="#rim"/>
    <path pointer-events="none" fill="none" stroke="white" stroke-width="1.5" d="M0,-3.0v7 M-2.5,-0.5L0,-3.0L2.5,-0.5"/>
  </g>
  <g id="resetDef">
    <use xlink:href="#rim2" fill="#404040"><set attributeName="fill" to="#808080" begin="reset.mouseover" end="reset.mouseout"/></use>
  </g>
</defs>
<script type="application/ecmascript">
var viewWidth = 686;
var viewHeight = 526;
var sectionId = 'dynsection-1';
</script>
<script type="application/ecmascript" xlink:href="svg.min.js"/>
<svg id="graph" class="graph">
<g id="viewport">
<title>kest_extract_parameter_from_dict</title>
<!-- Node1 -->
<g id="Node000001" class="node">
<title>Node1</title>
<g id="a_Node000001"><a xlink:title=" ">
<polygon fill="#999999" stroke="#666666" points="132.25,-271.93 0,-271.93 0,-238.43 132.25,-238.43 132.25,-271.93"/>
<text xml:space="preserve" text-anchor="start" x="8" y="-258.43" font-family="Helvetica,sans-Serif" font-size="10.00">kest_extract_parameter</text>
<text xml:space="preserve" text-anchor="middle" x="66.12" y="-245.68" font-family="Helvetica,sans-Serif" font-size="10.00">_from_dict</text>
</a>
</g>
</g>
<!-- Node2 -->
<g id="Node000002" class="node">
<title>Node2</title>
<g id="a_Node000002"><a xlink:href="kest__parameter_8c.html#aba1de2a97c113a2fc9e06799c71dd5b5" target="_top" xlink:title=" ">
<polygon fill="white" stroke="#666666" points="290,-517.55 202,-517.55 202,-496.8 290,-496.8 290,-517.55"/>
<text xml:space="preserve" text-anchor="middle" x="246" y="-504.05" font-family="Helvetica,sans-Serif" font-size="10.00">gut_parameter</text>
</a>
</g>
</g>
<!-- Node1&#45;&gt;Node2 -->
<g id="edge1_Node000001_Node000002" class="edge">
<title>Node1&#45;&gt;Node2</title>
<g id="a_edge1_Node000001_Node000002"><a xlink:title=" ">
<path fill="none" stroke="#63b8ff" d="M69.41,-272.16C76.12,-315.09 99.79,-428.65 168.25,-487.18 174.73,-492.72 182.56,-496.74 190.71,-499.67"/>
<polygon fill="#63b8ff" stroke="#63b8ff" points="189.49,-502.96 200.07,-502.48 191.5,-496.25 189.49,-502.96"/>
</a>
</g>
</g>
<!-- Node3 -->
<g id="Node000003" class="node">
<title>Node3</title>
<g id="a_Node000003"><a xlink:href="kest__parameter_8c.html#a41fafa04c21a8ab5916a8ceb5442d99a" target="_top" xlink:title=" ">
<polygon fill="white" stroke="#666666" points="299,-478.55 193,-478.55 193,-457.8 299,-457.8 299,-478.55"/>
<text xml:space="preserve" text-anchor="middle" x="246" y="-465.05" font-family="Helvetica,sans-Serif" font-size="10.00">init_parameter_str</text>
</a>
</g>
</g>
<!-- Node1&#45;&gt;Node3 -->
<g id="edge2_Node000001_Node000003" class="edge">
<title>Node1&#45;&gt;Node3</title>
<g id="a_edge2_Node000001_Node000003"><a xlink:title=" ">
<path fill="none" stroke="#63b8ff" d="M71.09,-272.37C80.76,-310.24 109.17,-401.22 168.25,-448.18 172.47,-451.54 177.2,-454.33 182.18,-456.67"/>
<polygon fill="#63b8ff" stroke="#63b8ff" points="180.69,-459.84 191.27,-460.27 183.27,-453.33 180.69,-459.84"/>
</a>
</g>
</g>
<!-- Node7 -->
<g id="Node000007" class="node">
<title>Node7</title>
<g id="a_Node000007"><a xlink:href="kest__alloc_8c.html#a849755c5dc5b35e712ffcdb602e50fb4" target="_top" xlink:title=" ">
<polygon fill="white" stroke="#666666" points="463.5,-117.55 398.75,-117.55 398.75,-96.8 463.5,-96.8 463.5,-117.55"/>
<text xml:space="preserve" text-anchor="middle" x="431.12" y="-104.05" font-family="Helvetica,sans-Serif" font-size="10.00">kest_alloc</text>
</a>
</g>
</g>
<!-- Node1&#45;&gt;Node7 -->
<g id="edge5_Node000001_Node000007" class="edge">
<title>Node1&#45;&gt;Node7</title>
<g id="a_edge5_Node000001_Node000007"><a xlink:title=" ">
<path fill="none" stroke="#63b8ff" d="M68.49,-238.09C73.1,-193.36 92.35,-72.89 168.25,-23.18 226.06,14.69 258.46,-0.51 323.75,-23.18 360.74,-36.02 394.58,-67.65 413.74,-88.22"/>
<polygon fill="#63b8ff" stroke="#63b8ff" points="410.93,-90.33 420.23,-95.41 416.13,-85.64 410.93,-90.33"/>
</a>
</g>
</g>
<!-- Node8 -->
<g id="Node000008" class="node">
<title>Node8</title>
<g id="a_Node000008"><a xlink:href="kest__dictionary_8c.html#aa5e01745c3975da2999b57cc7f51fba7" target="_top" xlink:title=" ">
<polygon fill="white" stroke="#666666" points="323.75,-400.55 168.25,-400.55 168.25,-379.8 323.75,-379.8 323.75,-400.55"/>
<text xml:space="preserve" text-anchor="middle" x="246" y="-387.05" font-family="Helvetica,sans-Serif" font-size="10.00">kest_dictionary_lookup_expr</text>
</a>
</g>
</g>
<!-- Node1&#45;&gt;Node8 -->
<g id="edge6_Node000001_Node000008" class="edge">
<title>Node1&#45;&gt;Node8</title>
<g id="a_edge6_Node000001_Node000008"><a xlink:title=" ">
<path fill="none" stroke="#63b8ff" d="M77.19,-272.3C93.15,-297.9 126.75,-345.84 168.25,-371.18 170.52,-372.57 172.89,-373.85 175.33,-375.05"/>
<polygon fill="#63b8ff" stroke="#63b8ff" points="173.71,-378.16 184.28,-378.85 176.45,-371.72 173.71,-378.16"/>
</a>
</g>
</g>
<!-- Node11 -->
<g id="Node000011" class="node">
<title>Node11</title>
<g id="a_Node000011"><a xlink:href="kest__dictionary_8c.html#a76d1d160cee6b666deb63f52a8f04d94" target="_top" xlink:title=" ">
<polygon fill="white" stroke="#666666" points="319.25,-439.55 172.75,-439.55 172.75,-418.8 319.25,-418.8 319.25,-439.55"/>
<text xml:space="preserve" text-anchor="middle" x="246" y="-426.05" font-family="Helvetica,sans-Serif" font-size="10.00">kest_dictionary_lookup_str</text>
</a>
</g>
</g>
<!-- Node1&#45;&gt;Node11 -->
<g id="edge9_Node000001_Node000011" class="edge">
<title>Node1&#45;&gt;Node11</title>
<g id="a_edge9_Node000001_Node000011"><a xlink:title=" ">
<path fill="none" stroke="#63b8ff" d="M73.37,-272.03C86.09,-303.94 118.09,-373.19 168.25,-409.18 170.34,-410.68 172.54,-412.07 174.81,-413.35"/>
<polygon fill="#63b8ff" stroke="#63b8ff" points="173.29,-416.5 183.82,-417.68 176.32,-410.19 173.29,-416.5"/>
</a>
</g>
</g>
<!-- Node12 -->
<g id="Node000012" class="node">
<title>Node12</title>
<g id="a_Node000012"><a xlink:href="kest__expression_8c.html#acf37e49d77d8bcdaa88727bd67c146fa" target="_top" xlink:title=" ">
<polygon fill="white" stroke="#666666" points="317.38,-310.55 174.62,-310.55 174.62,-289.8 317.38,-289.8 317.38,-310.55"/>
<text xml:space="preserve" text-anchor="middle" x="246" y="-297.05" font-family="Helvetica,sans-Serif" font-size="10.00">kest_expression_evaluate</text>
</a>
</g>
</g>
<!-- Node1&#45;&gt;Node12 -->
<g id="edge11_Node000001_Node000012" class="edge">
<title>Node1&#45;&gt;Node12</title>
<g id="a_edge11_Node000001_Node000012"><a xlink:title=" ">
<path fill="none" stroke="#63b8ff" d="M132.65,-272.12C144.5,-275.15 156.74,-278.27 168.25,-281.18 175.32,-282.96 182.76,-284.82 190.12,-286.65"/>
<polygon fill="#63b8ff" stroke="#63b8ff" points="189.13,-290.02 199.68,-289.03 190.82,-283.22 189.13,-290.02"/>
</a>
</g>
</g>
<!-- Node13 -->
<g id="Node000013" class="node">
<title>Node13</title>
<g id="a_Node000013"><a xlink:href="kest__expression_8c.html#a5f426c56ff63e0e740b12dbb629b89db" target="_top" xlink:title=" ">
<polygon fill="white" stroke="#666666" points="300.12,-361.93 191.88,-361.93 191.88,-328.43 300.12,-328.43 300.12,-361.93"/>
<text xml:space="preserve" text-anchor="start" x="199.88" y="-348.43" font-family="Helvetica,sans-Serif" font-size="10.00">kest_expression_is</text>
<text xml:space="preserve" text-anchor="middle" x="246" y="-335.68" font-family="Helvetica,sans-Serif" font-size="10.00">_constant</text>
</a>
</g>
</g>
<!-- Node1&#45;&gt;Node13 -->
<g id="edge12_Node000001_Node000013" class="edge">
<title>Node1&#45;&gt;Node13</title>
<g id="a_edge12_Node000001_Node000013"><a xlink:title=" ">
<path fill="none" stroke="#63b8ff" d="M90.71,-272.38C110.64,-286.35 140.31,-305.84 168.25,-319.18 172.39,-321.16 176.72,-323.05 181.13,-324.85"/>
<polygon fill="#63b8ff" stroke="#63b8ff" points="179.5,-327.97 190.09,-328.34 182.04,-321.45 179.5,-327.97"/>
</a>
</g>
</g>
<!-- Node15 -->
<g id="Node000015" class="node">
<title>Node15</title>
<g id="a_Node000015"><a xlink:href="kest__expression_8c.html#aadf2a6a074cb1ad7b45893704cbd71c3" target="_top" xlink:title=" ">
<polygon fill="white" stroke="#666666" points="300.88,-271.93 191.12,-271.93 191.12,-238.43 300.88,-238.43 300.88,-271.93"/>
<text xml:space="preserve" text-anchor="start" x="199.12" y="-258.43" font-family="Helvetica,sans-Serif" font-size="10.00">kest_expression_to</text>
<text xml:space="preserve" text-anchor="middle" x="246" y="-245.68" font-family="Helvetica,sans-Serif" font-size="10.00">_string</text>
</a>
</g>
</g>
<!-- Node1&#45;&gt;Node15 -->
<g id="edge14_Node000001_Node000015" class="edge">
<title>Node1&#45;&gt;Node15</title>
<g id="a_edge14_Node000001_Node000015"><a xlink:title=" ">
<path fill="none" stroke="#63b8ff" d="M132.6,-255.18C147.84,-255.18 164.06,-255.18 179.3,-255.18"/>
<polygon fill="#63b8ff" stroke="#63b8ff" points="179.22,-258.68 189.22,-255.18 179.22,-251.68 179.22,-258.68"/>
</a>
</g>
</g>
<!-- Node20 -->
<g id="Node000020" class="node">
<title>Node20</title>
<g id="a_Node000020"><a xlink:href="kest__expression_8c.html#a85dc61fcbd8c58a963a7e00f91aeb8cd" target="_top" xlink:title=" ">
<polygon fill="white" stroke="#666666" points="306.88,-181.93 185.12,-181.93 185.12,-148.43 306.88,-148.43 306.88,-181.93"/>
<text xml:space="preserve" text-anchor="start" x="193.12" y="-168.43" font-family="Helvetica,sans-Serif" font-size="10.00">kest_expression_type</text>
<text xml:space="preserve" text-anchor="middle" x="246" y="-155.68" font-family="Helvetica,sans-Serif" font-size="10.00">_to_str</text>
</a>
</g>
</g>
<!-- Node1&#45;&gt;Node20 -->
<g id="edge20_Node000001_Node000020" class="edge">
<title>Node1&#45;&gt;Node20</title>
<g id="a_edge20_Node000001_Node000020"><a xlink:title=" ">
<path fill="none" stroke="#63b8ff" d="M90.71,-237.97C110.64,-224.01 140.31,-204.52 168.25,-191.18 171.55,-189.6 174.97,-188.08 178.46,-186.61"/>
<polygon fill="#63b8ff" stroke="#63b8ff" points="179.64,-189.91 187.63,-182.95 177.05,-183.41 179.64,-189.91"/>
</a>
</g>
</g>
<!-- Node21 -->
<g id="Node000021" class="node">
<title>Node21</title>
<g id="a_Node000021"><a xlink:href="kest__alloc_8c.html#a294af5728a94aa316fcf65304d388d48" target="_top" xlink:title=" ">
<polygon fill="white" stroke="#666666" points="276.5,-130.55 215.5,-130.55 215.5,-109.8 276.5,-109.8 276.5,-130.55"/>
<text xml:space="preserve" text-anchor="middle" x="246" y="-117.05" font-family="Helvetica,sans-Serif" font-size="10.00">kest_free</text>
</a>
</g>
</g>
<!-- Node1&#45;&gt;Node21 -->
<g id="edge21_Node000001_Node000021" class="edge">
<title>Node1&#45;&gt;Node21</title>
<g id="a_edge21_Node000001_Node000021"><a xlink:title=" ">
<path fill="none" stroke="#63b8ff" d="M77.19,-238.06C93.15,-212.46 126.75,-164.52 168.25,-139.18 179.1,-132.55 192.15,-128.23 204.39,-125.42"/>
<polygon fill="#63b8ff" stroke="#63b8ff" points="204.7,-128.92 213.82,-123.53 203.33,-122.06 204.7,-128.92"/>
</a>
</g>
</g>
<!-- Node22 -->
<g id="Node000022" class="node">
<title>Node22</title>
<g id="a_Node000022"><a xlink:href="kest__eff__parser_8c.html#a9c89af02214b349048ed0f85274af710" target="_top" xlink:title=" ">
<polygon fill="white" stroke="#666666" points="318.5,-91.55 173.5,-91.55 173.5,-70.8 318.5,-70.8 318.5,-91.55"/>
<text xml:space="preserve" text-anchor="middle" x="246" y="-78.05" font-family="Helvetica,sans-Serif" font-size="10.00">kest_parser_error_at_node</text>
</a>
</g>
</g>
<!-- Node1&#45;&gt;Node22 -->
<g id="edge22_Node000001_Node000022" class="edge">
<title>Node1&#45;&gt;Node22</title>
<g id="a_edge22_Node000001_Node000022"><a xlink:title=" ">
<path fill="none" stroke="#63b8ff" d="M73.37,-238.33C86.09,-206.42 118.09,-137.16 168.25,-101.18 170.34,-99.68 172.54,-98.29 174.81,-97.01"/>
<polygon fill="#63b8ff" stroke="#63b8ff" points="176.32,-100.16 183.82,-92.67 173.29,-93.85 176.32,-100.16"/>
</a>
</g>
</g>
<!-- Node23 -->
<g id="Node000023" class="node">
<title>Node23</title>
<g id="a_Node000023"><a xlink:href="kest__eff__parser_8c.html#a4e586b53c5767354bf5b8f83f6e08eb9" target="_top" xlink:title=" ">
<polygon fill="white" stroke="#666666" points="318.88,-52.55 173.12,-52.55 173.12,-31.8 318.88,-31.8 318.88,-52.55"/>
<text xml:space="preserve" text-anchor="middle" x="246" y="-39.05" font-family="Helvetica,sans-Serif" font-size="10.00">kest_parser_warn_at_node</text>
</a>
</g>
</g>
<!-- Node1&#45;&gt;Node23 -->
<g id="edge23_Node000001_Node000023" class="edge">
<title>Node1&#45;&gt;Node23</title>
<g id="a_edge23_Node000001_Node000023"><a xlink:title=" ">
<path fill="none" stroke="#63b8ff" d="M71.09,-237.99C80.76,-200.11 109.17,-109.13 168.25,-62.18 169.99,-60.8 171.81,-59.51 173.7,-58.31"/>
<polygon fill="#63b8ff" stroke="#63b8ff" points="175.12,-61.52 182.31,-53.73 171.84,-55.34 175.12,-61.52"/>
</a>
</g>
</g>
<!-- Node24 -->
<g id="Node000024" class="node">
<title>Node24</title>
<g id="a_Node000024"><a xlink:href="kest__alloc_8c.html#aed9ede1276c1ab3b4042c264ce64a3d2" target="_top" xlink:title=" ">
<polygon fill="white" stroke="#666666" points="285.12,-220.55 206.88,-220.55 206.88,-199.8 285.12,-199.8 285.12,-220.55"/>
<text xml:space="preserve" text-anchor="middle" x="246" y="-207.05" font-family="Helvetica,sans-Serif" font-size="10.00">kest_strndup</text>
</a>
</g>
</g>
<!-- Node1&#45;&gt;Node24 -->
<g id="edge24_Node000001_Node000024" class="edge">
<title>Node1&#45;&gt;Node24</title>
<g id="a_edge24_Node000001_Node000024"><a xlink:title=" ">
<path fill="none" stroke="#63b8ff" d="M132.65,-238.24C144.5,-235.2 156.74,-232.08 168.25,-229.18 177.14,-226.93 186.63,-224.57 195.78,-222.29"/>
<polygon fill="#63b8ff" stroke="#63b8ff" points="196.39,-225.75 205.26,-219.95 194.71,-218.95 196.39,-225.75"/>
</a>
</g>
</g>
<!-- Node4 -->
<g id="Node000004" class="node">
<title>Node4</title>
<g id="a_Node000004"><a xlink:href="kest__parameter_8c.html#abff5b0dd3ed907207191aa6079c514eb" target="_top" xlink:title=" ">
<polygon fill="white" stroke="#666666" points="494.25,-484.93 368,-484.93 368,-451.43 494.25,-451.43 494.25,-484.93"/>
<text xml:space="preserve" text-anchor="start" x="376" y="-471.43" font-family="Helvetica,sans-Serif" font-size="10.00">kest_parameter_effect</text>
<text xml:space="preserve" text-anchor="middle" x="431.12" y="-458.68" font-family="Helvetica,sans-Serif" font-size="10.00">_rep_update</text>
</a>
</g>
</g>
<!-- Node3&#45;&gt;Node4 -->
<g id="edge3_Node000003_Node000004" class="edge">
<title>Node3&#45;&gt;Node4</title>
<g id="a_edge3_Node000003_Node000004"><a xlink:title=" ">
<path fill="none" stroke="#63b8ff" d="M299.48,-468.18C317.15,-468.18 337.22,-468.18 356.23,-468.18"/>
<polygon fill="#63b8ff" stroke="#63b8ff" points="356.07,-471.68 366.07,-468.18 356.07,-464.68 356.07,-471.68"/>
</a>
</g>
</g>
<!-- Node5 -->
<g id="Node000005" class="node">
<title>Node5</title>
<g id="a_Node000005"><a xlink:href="kest__effect_8c.html#afdbf79f9f27eac4959dfcf7bbcb324d4" target="_top" xlink:title=" ">
<polygon fill="#fff0f0" stroke="red" points="676,-478.55 540.75,-478.55 540.75,-457.8 676,-457.8 676,-478.55"/>
<text xml:space="preserve" text-anchor="middle" x="608.38" y="-465.05" font-family="Helvetica,sans-Serif" font-size="10.00">kest_effect_update_reps</text>
</a>
</g>
</g>
<!-- Node4&#45;&gt;Node5 -->
<g id="edge4_Node000004_Node000005" class="edge">
<title>Node4&#45;&gt;Node5</title>
<g id="a_edge4_Node000004_Node000005"><a xlink:title=" ">
<path fill="none" stroke="#63b8ff" d="M494.41,-468.18C505.62,-468.18 517.44,-468.18 529.04,-468.18"/>
<polygon fill="#63b8ff" stroke="#63b8ff" points="529.03,-471.68 539.03,-468.18 529.03,-464.68 529.03,-471.68"/>
</a>
</g>
</g>
<!-- Node9 -->
<g id="Node000009" class="node">
<title>Node9</title>
<g id="a_Node000009"><a xlink:href="kest__dictionary_8c.html#ac32514fb9876c48a7b489fa4686fbdbd" target="_top" xlink:title=" ">
<polygon fill="white" stroke="#666666" points="495.38,-416.55 366.88,-416.55 366.88,-395.8 495.38,-395.8 495.38,-416.55"/>
<text xml:space="preserve" text-anchor="middle" x="431.12" y="-403.05" font-family="Helvetica,sans-Serif" font-size="10.00">kest_dictionary_lookup</text>
</a>
</g>
</g>
<!-- Node8&#45;&gt;Node9 -->
<g id="edge7_Node000008_Node000009" class="edge">
<title>Node8&#45;&gt;Node9</title>
<g id="a_edge7_Node000008_Node000009"><a xlink:title=" ">
<path fill="none" stroke="#63b8ff" d="M324.13,-396.92C334.36,-397.81 344.83,-398.73 355.02,-399.62"/>
<polygon fill="#63b8ff" stroke="#63b8ff" points="354.61,-403.09 364.87,-400.48 355.22,-396.12 354.61,-403.09"/>
</a>
</g>
</g>
<!-- Node10 -->
<g id="Node000010" class="node">
<title>Node10</title>
<g id="a_Node000010"><a xlink:href="kest__dictionary_8c.html#aed95d5d56052a9f450a8fca4a415cb1e" target="_top" xlink:title=" ">
<polygon fill="white" stroke="#666666" points="672.25,-422.93 544.5,-422.93 544.5,-389.43 672.25,-389.43 672.25,-422.93"/>
<text xml:space="preserve" text-anchor="start" x="552.5" y="-409.43" font-family="Helvetica,sans-Serif" font-size="10.00">kest_dictionary_bucket</text>
<text xml:space="preserve" text-anchor="middle" x="608.38" y="-396.68" font-family="Helvetica,sans-Serif" font-size="10.00">_lookup</text>
</a>
</g>
</g>
<!-- Node9&#45;&gt;Node10 -->
<g id="edge8_Node000009_Node000010" class="edge">
<title>Node9&#45;&gt;Node10</title>
<g id="a_edge8_Node000009_Node000010"><a xlink:title=" ">
<path fill="none" stroke="#63b8ff" d="M495.39,-406.18C507.55,-406.18 520.39,-406.18 532.87,-406.18"/>
<polygon fill="#63b8ff" stroke="#63b8ff" points="532.69,-409.68 542.69,-406.18 532.69,-402.68 532.69,-409.68"/>
</a>
</g>
</g>
<!-- Node11&#45;&gt;Node9 -->
<g id="edge10_Node000011_Node000009" class="edge">
<title>Node11&#45;&gt;Node9</title>
<g id="a_edge10_Node000011_Node000009"><a xlink:title=" ">
<path fill="none" stroke="#63b8ff" d="M319.64,-420.05C331.37,-418.58 343.53,-417.05 355.31,-415.57"/>
<polygon fill="#63b8ff" stroke="#63b8ff" points="355.47,-419.08 364.96,-414.36 354.6,-412.14 355.47,-419.08"/>
</a>
</g>
</g>
<!-- Node14 -->
<g id="Node000014" class="node">
<title>Node14</title>
<g id="a_Node000014"><a xlink:href="kest__expression_8c.html#af12e3464d3e6c4a6e573736af368fd91" target="_top" xlink:title=" ">
<polygon fill="white" stroke="#666666" points="495.38,-361.93 366.88,-361.93 366.88,-328.43 495.38,-328.43 495.38,-361.93"/>
<text xml:space="preserve" text-anchor="start" x="374.88" y="-348.43" font-family="Helvetica,sans-Serif" font-size="10.00">kest_expression_refers</text>
<text xml:space="preserve" text-anchor="middle" x="431.12" y="-335.68" font-family="Helvetica,sans-Serif" font-size="10.00">_constant</text>
</a>
</g>
</g>
<!-- Node13&#45;&gt;Node14 -->
<g id="edge13_Node000013_Node000014" class="edge">
<title>Node13&#45;&gt;Node14</title>
<g id="a_edge13_Node000013_Node000014"><a xlink:title=" ">
<path fill="none" stroke="#63b8ff" d="M300.46,-345.18C317.59,-345.18 336.9,-345.18 355.27,-345.18"/>
<polygon fill="#63b8ff" stroke="#63b8ff" points="355.05,-348.68 365.05,-345.18 355.05,-341.68 355.05,-348.68"/>
</a>
</g>
</g>
<!-- Node16 -->
<g id="Node000016" class="node">
<title>Node16</title>
<g id="a_Node000016"><a xlink:href="kest__expression_8c.html#a767b50b7ddfa94dc61810dfdcc8feaf0" target="_top" xlink:title=" ">
<polygon fill="white" stroke="#666666" points="502.5,-265.55 359.75,-265.55 359.75,-244.8 502.5,-244.8 502.5,-265.55"/>
<text xml:space="preserve" text-anchor="middle" x="431.12" y="-252.05" font-family="Helvetica,sans-Serif" font-size="10.00">kest_expression_print_rec</text>
</a>
</g>
</g>
<!-- Node15&#45;&gt;Node16 -->
<g id="edge15_Node000015_Node000016" class="edge">
<title>Node15&#45;&gt;Node16</title>
<g id="a_edge15_Node000015_Node000016"><a xlink:title=" ">
<path fill="none" stroke="#63b8ff" d="M300.95,-255.18C315.87,-255.18 332.4,-255.18 348.51,-255.18"/>
<polygon fill="#63b8ff" stroke="#63b8ff" points="348.06,-258.68 358.06,-255.18 348.06,-251.68 348.06,-258.68"/>
</a>
</g>
</g>
<!-- Node16&#45;&gt;Node16 -->
<g id="edge19_Node000016_Node000016" class="edge">
<title>Node16&#45;&gt;Node16</title>
<g id="a_edge19_Node000016_Node000016"><a xlink:title=" ">
<path fill="none" stroke="#63b8ff" d="M402.56,-265.95C391.14,-274.61 400.66,-283.55 431.12,-283.55 447.79,-283.55 458.18,-280.88 462.31,-277.04"/>
<polygon fill="#63b8ff" stroke="#63b8ff" points="465.75,-276.35 460.03,-267.42 458.94,-277.96 465.75,-276.35"/>
</a>
</g>
</g>
<!-- Node17 -->
<g id="Node000017" class="node">
<title>Node17</title>
<g id="a_Node000017"><a xlink:href="kest__expression_8c.html#a2f21e4932bce8c87ec0bfc508588b761" target="_top" xlink:title=" ">
<polygon fill="white" stroke="#666666" points="670,-220.55 546.75,-220.55 546.75,-199.8 670,-199.8 670,-220.55"/>
<text xml:space="preserve" text-anchor="middle" x="608.38" y="-207.05" font-family="Helvetica,sans-Serif" font-size="10.00">kest_expression_form</text>
</a>
</g>
</g>
<!-- Node16&#45;&gt;Node17 -->
<g id="edge16_Node000016_Node000017" class="edge">
<title>Node16&#45;&gt;Node17</title>
<g id="a_edge16_Node000016_Node000017"><a xlink:title=" ">
<path fill="none" stroke="#63b8ff" d="M474.1,-244.4C498.09,-238.24 528.42,-230.45 554.08,-223.86"/>
<polygon fill="#63b8ff" stroke="#63b8ff" points="554.85,-227.28 563.67,-221.4 553.11,-220.5 554.85,-227.28"/>
</a>
</g>
</g>
<!-- Node18 -->
<g id="Node000018" class="node">
<title>Node18</title>
<g id="a_Node000018"><a xlink:href="kest__expression_8c.html#a81b490a2837a170e18e8cdae730d0d9b" target="_top" xlink:title=" ">
<polygon fill="white" stroke="#666666" points="678.25,-323.93 538.5,-323.93 538.5,-290.43 678.25,-290.43 678.25,-323.93"/>
<text xml:space="preserve" text-anchor="start" x="546.5" y="-310.43" font-family="Helvetica,sans-Serif" font-size="10.00">kest_expression_function</text>
<text xml:space="preserve" text-anchor="middle" x="608.38" y="-297.68" font-family="Helvetica,sans-Serif" font-size="10.00">_string</text>
</a>
</g>
</g>
<!-- Node16&#45;&gt;Node18 -->
<g id="edge17_Node000016_Node000018" class="edge">
<title>Node16&#45;&gt;Node18</title>
<g id="a_edge17_Node000016_Node000018"><a xlink:title=" ">
<path fill="none" stroke="#63b8ff" d="M468.44,-265.95C488.69,-271.96 514.6,-279.65 538.54,-286.75"/>
<polygon fill="#63b8ff" stroke="#63b8ff" points="537.35,-290.05 547.93,-289.54 539.34,-283.34 537.35,-290.05"/>
</a>
</g>
</g>
<!-- Node19 -->
<g id="Node000019" class="node">
<title>Node19</title>
<g id="a_Node000019"><a xlink:href="kest__expression_8c.html#a1a3a0bc9ed6726fb24e6a40803741b43" target="_top" xlink:title=" ">
<polygon fill="white" stroke="#666666" points="669.25,-271.93 547.5,-271.93 547.5,-238.43 669.25,-238.43 669.25,-271.93"/>
<text xml:space="preserve" text-anchor="start" x="555.5" y="-258.43" font-family="Helvetica,sans-Serif" font-size="10.00">kest_expression_infix</text>
<text xml:space="preserve" text-anchor="middle" x="608.38" y="-245.68" font-family="Helvetica,sans-Serif" font-size="10.00">_operator_string</text>
</a>
</g>
</g>
<!-- Node16&#45;&gt;Node19 -->
<g id="edge18_Node000016_Node000019" class="edge">
<title>Node16&#45;&gt;Node19</title>
<g id="a_edge18_Node000016_Node000019"><a xlink:title=" ">
<path fill="none" stroke="#63b8ff" d="M502.9,-255.18C513.76,-255.18 524.98,-255.18 535.85,-255.18"/>
<polygon fill="#63b8ff" stroke="#63b8ff" points="535.51,-258.68 545.51,-255.18 535.51,-251.68 535.51,-258.68"/>
</a>
</g>
</g>
<!-- Node24&#45;&gt;Node7 -->
<g id="edge25_Node000024_Node000007" class="edge">
<title>Node24&#45;&gt;Node7</title>
<g id="a_edge25_Node000024_Node000007"><a xlink:title=" ">
<path fill="none" stroke="#63b8ff" d="M285.6,-203.98C298.16,-201.1 311.92,-196.98 323.75,-191.18 358.02,-174.39 391.56,-145.16 411.54,-126"/>
<polygon fill="#63b8ff" stroke="#63b8ff" points="413.95,-128.54 418.64,-119.04 409.05,-123.54 413.95,-128.54"/>
</a>
</g>
</g>
</g>
</svg>

<g id="navigator" transform="translate(0 0)" fill="#404254">
  <rect fill="#f2f5e9" fill-opacity="0.5" stroke="#606060" stroke-width=".5" x="0" y="0" width="60" height="60"/>
  <use id="zoomplus" xlink:href="#zoomPlus" x="17" y="9" onmousedown="handleZoom(evt,'in')"/>
  <use id="zoomminus" xlink:href="#zoomMin" x="42" y="9" onmousedown="handleZoom(evt,'out')"/>
  <use id="reset" xlink:href="#resetDef" x="30" y="36" onmousedown="handleReset()"/>
   <use id="arrowup" xlink:href="#arrowUp" x="0" y="0" onmousedown="handlePan(0,-1)"/>
  <use id="arrowright" xlink:href="#arrowRight" x="0" y="0" onmousedown="handlePan(1,0)"/>
  <use id="arrowdown" xlink:href="#arrowDown" x="0" y="0" onmousedown="handlePan(0,1)"/>
  <use id="arrowleft" xlink:href="#arrowLeft" x="0" y="0" onmousedown="handlePan(-1,0)"/>
</g>
<svg viewBox="0 0 15 15" width="100%" height="30px" preserveAspectRatio="xMaxYMin meet">
 <g id="arrow_out" transform="scale(0.3 0.3)">
  <a xlink:href="kest__dict__extract_8h_aaf0af9bba0940d4cfe5a8286222f14be_cgraph_org.svg" target="_base">
   <rect id="button" ry="5" rx="5" y="6" x="6" height="38" width="38"
        fill="#f2f5e9" fill-opacity="0.5" stroke="#606060" stroke-width="1.0"/>
   <path id="arrow"
     d="M 11.500037,31.436501 C 11.940474,20.09759 22.043105,11.32322 32.158766,21.979434 L 37.068811,17.246167 C 37.068811,17.246167 37.088388,32 37.088388,32 L 22.160133,31.978069 C 22.160133,31.978069 26.997745,27.140456 26.997745,27.140456 C 18.528582,18.264221 13.291696,25.230495 11.500037,31.436501 z"
     style="fill:#404040;"/>
  </a>
 </g>
</svg>

<style type='text/css'>
<![CDATA[
[data-mouse-over-selected='false'] { opacity: 0.7; }
[data-mouse-over-selected='true']  { opacity: 1.0; }
]]>
</style>
<script type="application/ecmascript"><![CDATA[
document.addEventListener('DOMContentLoaded', (event) => {
  highlightEdges();
  highlightAdjacentNodes();
});
]]></script>
</svg>
