<?xml version="1.0" encoding="UTF-8" standalone="no"?>
<!DOCTYPE svg PUBLIC "-//W3C//DTD SVG 1.1//EN"
 "http://www.w3.org/Graphics/SVG/1.1/DTD/svg11.dtd">
<!-- Generated by graphviz version 13.1.2 (20250808.2320)
 -->
<!-- Title: init_effect_from_effect_desc Pages: 1 -->
<svg width="656pt" height="68pt"
 viewBox="0.00 0.00 656.00 68.00" xmlns="http://www.w3.org/2000/svg" xmlns:xlink="http://www.w3.org/1999/xlink">
<g id="graph0" class="graph" transform="scale(1 1) rotate(0) translate(4 63.75)">
<title>init_effect_from_effect_desc</title>
<!-- Node1 -->
<g id="Node000001" class="node">
<title>Node1</title>
<g id="a_Node000001"><a xlink:title=" ">
<polygon fill="#999999" stroke="#666666" points="647.5,-39.75 492,-39.75 492,-19 647.5,-19 647.5,-39.75"/>
<text xml:space="preserve" text-anchor="middle" x="569.75" y="-26.25" font-family="Helvetica,sans-Serif" font-size="10.00">init_effect_from_effect_desc</text>
</a>
</g>
</g>
<!-- Node2 -->
<g id="Node000002" class="node">
<title>Node2</title>
<g id="a_Node000002"><a xlink:href="kest__pipeline_8c.html#a0eff55a4103a090993bbac228a981af6" target="_top" xlink:title=" ">
<polygon fill="white" stroke="#666666" points="456,-46.12 334.25,-46.12 334.25,-12.62 456,-12.62 456,-46.12"/>
<text xml:space="preserve" text-anchor="start" x="342.25" y="-32.62" font-family="Helvetica,sans-Serif" font-size="10.00">kest_pipeline_append</text>
<text xml:space="preserve" text-anchor="middle" x="395.12" y="-19.88" font-family="Helvetica,sans-Serif" font-size="10.00">_effect_eff</text>
</a>
</g>
</g>
<!-- Node1&#45;&gt;Node2 -->
<g id="edge1_Node000001_Node000002" class="edge">
<title>Node1&#45;&gt;Node2</title>
<g id="a_edge1_Node000001_Node000002"><a xlink:title=" ">
<path fill="none" stroke="#63b8ff" d="M480.18,-29.38C472.15,-29.38 464.15,-29.38 456.45,-29.38"/>
<polygon fill="#63b8ff" stroke="#63b8ff" points="480.01,-32.88 490.01,-29.38 480.01,-25.88 480.01,-32.88"/>
</a>
</g>
</g>
<!-- Node3 -->
<g id="Node000003" class="node">
<title>Node3</title>
<g id="a_Node000003"><a xlink:href="kest__profile_8c.html#ab6d55ea9738ce37aae141901562268d6" target="_top" xlink:title=" ">
<polygon fill="white" stroke="#666666" points="298.25,-46.12 184,-46.12 184,-12.62 298.25,-12.62 298.25,-46.12"/>
<text xml:space="preserve" text-anchor="start" x="192" y="-32.62" font-family="Helvetica,sans-Serif" font-size="10.00">kest_profile_append</text>
<text xml:space="preserve" text-anchor="middle" x="241.12" y="-19.88" font-family="Helvetica,sans-Serif" font-size="10.00">_effect_eff</text>
</a>
</g>
</g>
<!-- Node2&#45;&gt;Node3 -->
<g id="edge2_Node000002_Node000003" class="edge">
<title>Node2&#45;&gt;Node3</title>
<g id="a_edge2_Node000002_Node000003"><a xlink:title=" ">
<path fill="none" stroke="#63b8ff" d="M322.6,-29.38C314.44,-29.38 306.22,-29.38 298.3,-29.38"/>
<polygon fill="#63b8ff" stroke="#63b8ff" points="322.54,-32.88 332.54,-29.38 322.54,-25.88 322.54,-32.88"/>
</a>
</g>
</g>
<!-- Node4 -->
<g id="Node000004" class="node">
<title>Node4</title>
<g id="a_Node000004"><a xlink:href="kest__effect__select_8c.html#a0a0604d69c6fbeb09b31db2ebff0e901" target="_top" xlink:title=" ">
<polygon fill="#fff0f0" stroke="red" points="148,-59.75 0,-59.75 0,-39 148,-39 148,-59.75"/>
<text xml:space="preserve" text-anchor="middle" x="74" y="-46.25" font-family="Helvetica,sans-Serif" font-size="10.00">add_effect_from_menu_eff</text>
</a>
</g>
</g>
<!-- Node3&#45;&gt;Node4 -->
<g id="edge3_Node000003_Node000004" class="edge">
<title>Node3&#45;&gt;Node4</title>
<g id="a_edge3_Node000003_Node000004"><a xlink:title=" ">
<path fill="none" stroke="#63b8ff" d="M172.34,-37.59C164.42,-38.54 156.32,-39.53 148.34,-40.49"/>
<polygon fill="#63b8ff" stroke="#63b8ff" points="172.75,-41.06 182.26,-36.38 171.91,-34.11 172.75,-41.06"/>
</a>
</g>
</g>
<!-- Node11 -->
<g id="Node000011" class="node">
<title>Node11</title>
<g id="a_Node000011"><a xlink:href="kest__files_8c.html#ae1110c7660e66d69a41e0709aeea6052" target="_top" xlink:title=" ">
<polygon fill="#fff0f0" stroke="red" points="136,-20.75 12,-20.75 12,0 136,0 136,-20.75"/>
<text xml:space="preserve" text-anchor="middle" x="74" y="-7.25" font-family="Helvetica,sans-Serif" font-size="10.00">read_profile_from_file</text>
</a>
</g>
</g>
<!-- Node3&#45;&gt;Node11 -->
<g id="edge4_Node000003_Node000011" class="edge">
<title>Node3&#45;&gt;Node11</title>
<g id="a_edge4_Node000003_Node000011"><a xlink:title=" ">
<path fill="none" stroke="#63b8ff" d="M172.5,-21.59C160.57,-20.22 148.22,-18.8 136.48,-17.45"/>
<polygon fill="#63b8ff" stroke="#63b8ff" points="171.92,-25.05 182.26,-22.72 172.72,-18.1 171.92,-25.05"/>
</a>
</g>
</g>
</g>
</svg>
