<?xml version="1.0" encoding="UTF-8" standalone="no"?>
<!DOCTYPE svg PUBLIC "-//W3C//DTD SVG 1.1//EN"
 "http://www.w3.org/Graphics/SVG/1.1/DTD/svg11.dtd">
<!-- Generated by graphviz version 13.1.2 (20250808.2320)
 -->
<!-- Title: kest_profile_set_default_name_from_id Pages: 1 -->
<!--zoomable 106 -->

<svg id="main" version="1.1" xmlns="http://www.w3.org/2000/svg" xmlns:xlink="http://www.w3.org/1999/xlink" xml:space="preserve" onload="init(evt)">

<style type="text/css"><![CDATA[
.node, .edge {opacity: 0.7;}
.node.selected, .edge.selected {opacity: 1;}
.edge:hover path { stroke: red; }
.edge:hover polygon { stroke: red; fill: red; }
]]></style>

<defs>
  <circle id="rim" cx="0" cy="0" r="7"/>
  <circle id="rim2" cx="0" cy="0" r="3.5"/>
  <g id="zoomPlus">
    <use xlink:href="#rim" fill="#404040"><set attributeName="fill" to="#808080" begin="zoomplus.mouseover" end="zoomplus.mouseout"/></use>
    <path d="M-4,0h8M0,-4v8" fill="none" stroke="white" stroke-width="1.5" pointer-events="none"/>
  </g>
  <g id="zoomMin">
    <use xlink:href="#rim" fill="#404040"><set attributeName="fill" to="#808080" begin="zoomminus.mouseover" end="zoomminus.mouseout"/></use>
    <path d="M-4,0h8" fill="none" stroke="white" stroke-width="1.5" pointer-events="none"/>
  </g>
  <g id="arrowUp" transform="translate(30 24)">
    <use xlink:href="#rim"/>
    <path pointer-events="none" fill="none" stroke="white" stroke-width="1.5" d="M0,-3.0v7 M-2.5,-0.5L0,-3.0L2.5,-0.5"/>
  </g>
  <g id="arrowRight" transform="rotate(90) translate(36 -43)">
    <use xlink:href="#rim"/>
    <path pointer-events="none" fill="none" stroke="white" stroke-width="1.5" d="M0,-3.0v7 M-2.5,-0.5L0,-3.0L2.5,-0.5"/>
  </g>
  <g id="arrowDown" transform="rotate(180) translate(-30 -48)">
    <use xlink:href="#rim"/>
    <path pointer-events="none" fill="none" stroke="white" stroke-width="1.5" d="M0,-3.0v7 M-2.5,-0.5L0,-3.0L2.5,-0.5"/>
  </g>
  <g id="arrowLeft" transform="rotate(270) translate(-36 17)">
    <use xlink:href="#rim"/>
    <path pointer-events="none" fill="none" stroke="white" stroke-width="1.5" d="M0,-3.0v7 M-2.5,-0.5L0,-3.0L2.5,-0.5"/>
  </g>
  <g id="resetDef">
    <use xlink:href="#rim2" fill="#404040"><set attributeName="fill" to="#808080" begin="reset.mouseover" end="reset.mouseout"/></use>
  </g>
</defs>
<script type="application/ecmascript">
var viewWidth = 827;
var viewHeight = 106;
var sectionId = 'dynsection-32';
</script>
<script type="application/ecmascript" xlink:href="svg.min.js"/>
<svg id="graph" class="graph">
<g id="viewport">
<title>kest_profile_set_default_name_from_id</title>
<!-- Node1 -->
<g id="Node000001" class="node">
<title>Node1</title>
<g id="a_Node000001"><a xlink:title=" ">
<polygon fill="#999999" stroke="#666666" points="818.75,-46.12 685.75,-46.12 685.75,-12.62 818.75,-12.62 818.75,-46.12"/>
<text xml:space="preserve" text-anchor="start" x="693.75" y="-32.62" font-family="Helvetica,sans-Serif" font-size="10.00">kest_profile_set_default</text>
<text xml:space="preserve" text-anchor="middle" x="752.25" y="-19.88" font-family="Helvetica,sans-Serif" font-size="10.00">_name_from_id</text>
</a>
</g>
</g>
<!-- Node2 -->
<g id="Node000002" class="node">
<title>Node2</title>
<g id="a_Node000002"><a xlink:href="kest__profile__settings_8c.html#ac5120bad91f723143bd3cf720e860fa5" target="_top" xlink:title=" ">
<polygon fill="white" stroke="#666666" points="649.75,-59.75 477.75,-59.75 477.75,-39 649.75,-39 649.75,-59.75"/>
<text xml:space="preserve" text-anchor="middle" x="563.75" y="-46.25" font-family="Helvetica,sans-Serif" font-size="10.00">configure_profile_settings_page</text>
</a>
</g>
</g>
<!-- Node1&#45;&gt;Node2 -->
<g id="edge1_Node000001_Node000002" class="edge">
<title>Node1&#45;&gt;Node2</title>
<g id="a_edge1_Node000001_Node000002"><a xlink:title=" ">
<path fill="none" stroke="#63b8ff" d="M674.08,-37.65C666.19,-38.5 658.14,-39.36 650.16,-40.22"/>
<polygon fill="#63b8ff" stroke="#63b8ff" points="674.42,-41.13 683.99,-36.59 673.68,-34.17 674.42,-41.13"/>
</a>
</g>
</g>
<!-- Node26 -->
<g id="Node000026" class="node">
<title>Node26</title>
<g id="a_Node000026"><a xlink:href="kest__profile__view_8c.html#a384beb6a193abc4367c013b9e43f0da9" target="_top" xlink:title=" ">
<polygon fill="white" stroke="#666666" points="626.88,-20.75 500.62,-20.75 500.62,0 626.88,0 626.88,-20.75"/>
<text xml:space="preserve" text-anchor="middle" x="563.75" y="-7.25" font-family="Helvetica,sans-Serif" font-size="10.00">create_profile_view_ui</text>
</a>
</g>
</g>
<!-- Node1&#45;&gt;Node26 -->
<g id="edge8_Node000001_Node000026" class="edge">
<title>Node1&#45;&gt;Node26</title>
<g id="a_edge8_Node000001_Node000026"><a xlink:title=" ">
<path fill="none" stroke="#63b8ff" d="M674.21,-21.53C658.52,-19.93 642.2,-18.27 627.1,-16.73"/>
<polygon fill="#63b8ff" stroke="#63b8ff" points="673.69,-24.99 683.99,-22.52 674.4,-18.03 673.69,-24.99"/>
</a>
</g>
</g>
<!-- Node3 -->
<g id="Node000003" class="node">
<title>Node3</title>
<g id="a_Node000003"><a xlink:href="kest__profile__view_8c.html#a9f9505132871c2ea372958fd06ecf10f" target="_top" xlink:title=" ">
<polygon fill="white" stroke="#666666" points="434.25,-97.75 307.25,-97.75 307.25,-77 434.25,-77 434.25,-97.75"/>
<text xml:space="preserve" text-anchor="middle" x="370.75" y="-84.25" font-family="Helvetica,sans-Serif" font-size="10.00">configure_profile_view</text>
</a>
</g>
</g>
<!-- Node2&#45;&gt;Node3 -->
<g id="edge2_Node000002_Node000003" class="edge">
<title>Node2&#45;&gt;Node3</title>
<g id="a_edge2_Node000002_Node000003"><a xlink:title=" ">
<path fill="none" stroke="#63b8ff" d="M497.17,-62.42C474.08,-67.02 448.39,-72.13 426.3,-76.52"/>
<polygon fill="#63b8ff" stroke="#63b8ff" points="497.66,-65.89 506.79,-60.51 496.3,-59.03 497.66,-65.89"/>
</a>
</g>
</g>
<!-- Node25 -->
<g id="Node000025" class="node">
<title>Node25</title>
<g id="a_Node000025"><a xlink:href="kest__profile__settings_8c.html#a1c60543ff9aed0e212ab514d669256f2" target="_top" xlink:title=" ">
<polygon fill="white" stroke="#666666" points="441.75,-58.75 299.75,-58.75 299.75,-38 441.75,-38 441.75,-58.75"/>
<text xml:space="preserve" text-anchor="middle" x="370.75" y="-45.25" font-family="Helvetica,sans-Serif" font-size="10.00">init_profile_settings_page</text>
</a>
</g>
</g>
<!-- Node2&#45;&gt;Node25 -->
<g id="edge6_Node000002_Node000025" class="edge">
<title>Node2&#45;&gt;Node25</title>
<g id="a_edge6_Node000002_Node000025"><a xlink:title=" ">
<path fill="none" stroke="#63b8ff" d="M466,-48.87C458,-48.83 450.01,-48.78 442.25,-48.74"/>
<polygon fill="#63b8ff" stroke="#63b8ff" points="465.77,-52.37 475.79,-48.92 465.81,-45.37 465.77,-52.37"/>
</a>
</g>
</g>
<!-- Node4 -->
<g id="Node000004" class="node">
<title>Node4</title>
<g id="a_Node000004"><a xlink:href="kest__profile__view_8c.html#a8a76cb40ff26bbde55ba56a4f25094d1" target="_top" xlink:title=" ">
<polygon fill="#fff0f0" stroke="red" points="130.75,-77.75 0,-77.75 0,-57 130.75,-57 130.75,-77.75"/>
<text xml:space="preserve" text-anchor="middle" x="65.38" y="-64.25" font-family="Helvetica,sans-Serif" font-size="10.00">create_profile_view_for</text>
</a>
</g>
</g>
<!-- Node3&#45;&gt;Node4 -->
<g id="edge3_Node000003_Node000004" class="edge">
<title>Node3&#45;&gt;Node4</title>
<g id="a_edge3_Node000003_Node000004"><a xlink:title=" ">
<path fill="none" stroke="#63b8ff" d="M295.44,-82.48C245.17,-79.16 179.41,-74.83 131.25,-71.65"/>
<polygon fill="#63b8ff" stroke="#63b8ff" points="295.17,-85.97 305.38,-83.13 295.63,-78.98 295.17,-85.97"/>
</a>
</g>
</g>
<!-- Node24 -->
<g id="Node000024" class="node">
<title>Node24</title>
<g id="a_Node000024"><a xlink:href="kest__profile__view_8c.html#abfe2cf72961d0ab0b70f858cf1281a38" target="_top" xlink:title=" ">
<polygon fill="white" stroke="#666666" points="263.75,-58.75 166.75,-58.75 166.75,-38 263.75,-38 263.75,-58.75"/>
<text xml:space="preserve" text-anchor="middle" x="215.25" y="-45.25" font-family="Helvetica,sans-Serif" font-size="10.00">init_profile_view</text>
</a>
</g>
</g>
<!-- Node3&#45;&gt;Node24 -->
<g id="edge4_Node000003_Node000024" class="edge">
<title>Node3&#45;&gt;Node24</title>
<g id="a_edge4_Node000003_Node000024"><a xlink:title=" ">
<path fill="none" stroke="#63b8ff" d="M315.98,-73.71C297.33,-68.98 276.69,-63.73 259.04,-59.25"/>
<polygon fill="#63b8ff" stroke="#63b8ff" points="314.97,-77.07 325.52,-76.14 316.69,-70.28 314.97,-77.07"/>
</a>
</g>
</g>
<!-- Node24&#45;&gt;Node4 -->
<g id="edge5_Node000024_Node000004" class="edge">
<title>Node24&#45;&gt;Node4</title>
<g id="a_edge5_Node000024_Node000004"><a xlink:title=" ">
<path fill="none" stroke="#63b8ff" d="M155.25,-55.96C147.32,-56.97 139.16,-58.02 131.14,-59.05"/>
<polygon fill="#63b8ff" stroke="#63b8ff" points="155.67,-59.43 165.15,-54.68 154.78,-52.49 155.67,-59.43"/>
</a>
</g>
</g>
<!-- Node25&#45;&gt;Node24 -->
<g id="edge7_Node000025_Node000024" class="edge">
<title>Node25&#45;&gt;Node24</title>
<g id="a_edge7_Node000025_Node000024"><a xlink:title=" ">
<path fill="none" stroke="#63b8ff" d="M288.03,-48.38C279.79,-48.38 271.62,-48.38 263.91,-48.38"/>
<polygon fill="#63b8ff" stroke="#63b8ff" points="287.78,-51.88 297.78,-48.38 287.78,-44.88 287.78,-51.88"/>
</a>
</g>
</g>
<!-- Node26&#45;&gt;Node24 -->
<g id="edge9_Node000026_Node000024" class="edge">
<title>Node26&#45;&gt;Node24</title>
<g id="a_edge9_Node000026_Node000024"><a xlink:title=" ">
<path fill="none" stroke="#63b8ff" d="M488.97,-12.71C436.07,-15.12 363.24,-19.91 299.75,-29.38 286.07,-31.41 271.32,-34.48 258.06,-37.55"/>
<polygon fill="#63b8ff" stroke="#63b8ff" points="488.93,-16.22 498.77,-12.29 488.63,-9.23 488.93,-16.22"/>
</a>
</g>
</g>
</g>
</svg>

<g id="navigator" transform="translate(0 0)" fill="#404254">
  <rect fill="#f2f5e9" fill-opacity="0.5" stroke="#606060" stroke-width=".5" x="0" y="0" width="60" height="60"/>
  <use id="zoomplus" xlink:href="#zoomPlus" x="17" y="9" onmousedown="handleZoom(evt,'in')"/>
  <use id="zoomminus" xlink:href="#zoomMin" x="42" y="9" onmousedown="handleZoom(evt,'out')"/>
  <use id="reset" xlink:href="#resetDef" x="30" y="36" onmousedown="handleReset()"/>
   <use id="arrowup" xlink:href="#arrowUp" x="0" y="0" onmousedown="handlePan(0,-1)"/>
  <use id="arrowright" xlink:href="#arrowRight" x="0" y="0" onmousedown="handlePan(1,0)"/>
  <use id="arrowdown" xlink:href="#arrowDown" x="0" y="0" onmousedown="handlePan(0,1)"/>
  <use id="arrowleft" xlink:href="#arrowLeft" x="0" y="0" onmousedown="handlePan(-1,0)"/>
</g>
<svg viewBox="0 0 15 15" width="100%" height="30px" preserveAspectRatio="xMaxYMin meet">
 <g id="arrow_out" transform="scale(0.3 0.3)">
  <a xlink:href="kest__profile_8c_aff585ba9940aeb40f695a68deb4094e5_icgraph_org.svg" target="_base">
   <rect id="button" ry="5" rx="5" y="6" x="6" height="38" width="38"
        fill="#f2f5e9" fill-opacity="0.5" stroke="#606060" stroke-width="1.0"/>
   <path id="arrow"
     d="M 11.500037,31.436501 C 11.940474,20.09759 22.043105,11.32322 32.158766,21.979434 L 37.068811,17.246167 C 37.068811,17.246167 37.088388,32 37.088388,32 L 22.160133,31.978069 C 22.160133,31.978069 26.997745,27.140456 26.997745,27.140456 C 18.528582,18.264221 13.291696,25.230495 11.500037,31.436501 z"
     style="fill:#404040;"/>
  </a>
 </g>
</svg>

<style type='text/css'>
<![CDATA[
[data-mouse-over-selected='false'] { opacity: 0.7; }
[data-mouse-over-selected='true']  { opacity: 1.0; }
]]>
</style>
<script type="application/ecmascript"><![CDATA[
document.addEventListener('DOMContentLoaded', (event) => {
  highlightEdges();
  highlightAdjacentNodes();
});
]]></script>
</svg>
