<?xml version="1.0" encoding="UTF-8" standalone="no"?>
<!DOCTYPE svg PUBLIC "-//W3C//DTD SVG 1.1//EN"
 "http://www.w3.org/Graphics/SVG/1.1/DTD/svg11.dtd">
<!-- Generated by graphviz version 13.1.2 (20250808.2320)
 -->
<!-- Title: kest_allocator_realloc Pages: 1 -->
<svg width="342pt" height="68pt"
 viewBox="0.00 0.00 342.00 68.00" xmlns="http://www.w3.org/2000/svg" xmlns:xlink="http://www.w3.org/1999/xlink">
<g id="graph0" class="graph" transform="scale(1 1) rotate(0) translate(4 63.75)">
<title>kest_allocator_realloc</title>
<!-- Node1 -->
<g id="Node000001" class="node">
<title>Node1</title>
<g id="a_Node000001"><a xlink:title=" ">
<polygon fill="#999999" stroke="#666666" points="122.5,-39.75 0,-39.75 0,-19 122.5,-19 122.5,-39.75"/>
<text xml:space="preserve" text-anchor="middle" x="61.25" y="-26.25" font-family="Helvetica,sans-Serif" font-size="10.00">kest_allocator_realloc</text>
</a>
</g>
</g>
<!-- Node2 -->
<g id="Node000002" class="node">
<title>Node2</title>
<g id="a_Node000002"><a xlink:href="kest__alloc_8c.html#ac3afebacd5118241e9f677df59a469b0" target="_top" xlink:title=" ">
<polygon fill="white" stroke="#666666" points="233,-39.75 158.5,-39.75 158.5,-19 233,-19 233,-39.75"/>
<text xml:space="preserve" text-anchor="middle" x="195.75" y="-26.25" font-family="Helvetica,sans-Serif" font-size="10.00">kest_realloc</text>
</a>
</g>
</g>
<!-- Node1&#45;&gt;Node2 -->
<g id="edge1_Node000001_Node000002" class="edge">
<title>Node1&#45;&gt;Node2</title>
<g id="a_edge1_Node000001_Node000002"><a xlink:title=" ">
<path fill="none" stroke="#63b8ff" d="M122.68,-29.38C130.85,-29.38 139.13,-29.38 147.03,-29.38"/>
<polygon fill="#63b8ff" stroke="#63b8ff" points="146.75,-32.88 156.75,-29.38 146.75,-25.88 146.75,-32.88"/>
</a>
</g>
</g>
<!-- Node3 -->
<g id="Node000003" class="node">
<title>Node3</title>
<g id="a_Node000003"><a xlink:href="kest__alloc_8c.html#a849755c5dc5b35e712ffcdb602e50fb4" target="_top" xlink:title=" ">
<polygon fill="white" stroke="#666666" points="333.75,-59.75 269,-59.75 269,-39 333.75,-39 333.75,-59.75"/>
<text xml:space="preserve" text-anchor="middle" x="301.38" y="-46.25" font-family="Helvetica,sans-Serif" font-size="10.00">kest_alloc</text>
</a>
</g>
</g>
<!-- Node2&#45;&gt;Node3 -->
<g id="edge2_Node000002_Node000003" class="edge">
<title>Node2&#45;&gt;Node3</title>
<g id="a_edge2_Node000002_Node000003"><a xlink:title=" ">
<path fill="none" stroke="#63b8ff" d="M233.28,-36.43C241.13,-37.94 249.48,-39.55 257.54,-41.11"/>
<polygon fill="#63b8ff" stroke="#63b8ff" points="256.67,-44.51 267.16,-42.96 258,-37.63 256.67,-44.51"/>
</a>
</g>
</g>
<!-- Node4 -->
<g id="Node000004" class="node">
<title>Node4</title>
<g id="a_Node000004"><a xlink:href="kest__alloc_8c.html#a294af5728a94aa316fcf65304d388d48" target="_top" xlink:title=" ">
<polygon fill="white" stroke="#666666" points="331.88,-20.75 270.88,-20.75 270.88,0 331.88,0 331.88,-20.75"/>
<text xml:space="preserve" text-anchor="middle" x="301.38" y="-7.25" font-family="Helvetica,sans-Serif" font-size="10.00">kest_free</text>
</a>
</g>
</g>
<!-- Node2&#45;&gt;Node4 -->
<g id="edge3_Node000002_Node000004" class="edge">
<title>Node2&#45;&gt;Node4</title>
<g id="a_edge3_Node000002_Node000004"><a xlink:title=" ">
<path fill="none" stroke="#63b8ff" d="M233.28,-22.68C241.79,-21.12 250.9,-19.45 259.58,-17.85"/>
<polygon fill="#63b8ff" stroke="#63b8ff" points="259.96,-21.34 269.17,-16.1 258.7,-14.46 259.96,-21.34"/>
</a>
</g>
</g>
</g>
</svg>
