<?xml version="1.0" encoding="UTF-8" standalone="no"?>
<!DOCTYPE svg PUBLIC "-//W3C//DTD SVG 1.1//EN"
 "http://www.w3.org/Graphics/SVG/1.1/DTD/svg11.dtd">
<!-- Generated by graphviz version 13.1.2 (20250808.2320)
 -->
<!-- Title: kest_active_button_array_append Pages: 1 -->
<svg width="300pt" height="119pt"
 viewBox="0.00 0.00 300.00 119.00" xmlns="http://www.w3.org/2000/svg" xmlns:xlink="http://www.w3.org/1999/xlink">
<g id="graph0" class="graph" transform="scale(1 1) rotate(0) translate(4 115.12)">
<title>kest_active_button_array_append</title>
<!-- Node1 -->
<g id="Node000001" class="node">
<title>Node1</title>
<g id="a_Node000001"><a xlink:title=" ">
<polygon fill="#999999" stroke="#666666" points="108.25,-66.12 0,-66.12 0,-32.62 108.25,-32.62 108.25,-66.12"/>
<text xml:space="preserve" text-anchor="start" x="8" y="-52.62" font-family="Helvetica,sans-Serif" font-size="10.00">kest_active_button</text>
<text xml:space="preserve" text-anchor="middle" x="54.12" y="-39.88" font-family="Helvetica,sans-Serif" font-size="10.00">_array_append</text>
</a>
</g>
</g>
<!-- Node2 -->
<g id="Node000002" class="node">
<title>Node2</title>
<g id="a_Node000002"><a xlink:href="kest__button_8c.html#ab7fe55b3f96297fce8392af5ccfe1ae4" target="_top" xlink:title=" ">
<polygon fill="white" stroke="#666666" points="285.5,-111.12 151,-111.12 151,-77.62 285.5,-77.62 285.5,-111.12"/>
<text xml:space="preserve" text-anchor="start" x="159" y="-97.62" font-family="Helvetica,sans-Serif" font-size="10.00">kest_active_button</text>
<text xml:space="preserve" text-anchor="middle" x="218.25" y="-84.88" font-family="Helvetica,sans-Serif" font-size="10.00">_array_index_y_position</text>
</a>
</g>
</g>
<!-- Node1&#45;&gt;Node2 -->
<g id="edge1_Node000001_Node000002" class="edge">
<title>Node1&#45;&gt;Node2</title>
<g id="a_edge1_Node000001_Node000002"><a xlink:title=" ">
<path fill="none" stroke="#63b8ff" d="M108.66,-64.23C120.1,-67.41 132.37,-70.82 144.4,-74.15"/>
<polygon fill="#63b8ff" stroke="#63b8ff" points="143.31,-77.48 153.88,-76.79 145.18,-70.74 143.31,-77.48"/>
</a>
</g>
</g>
<!-- Node3 -->
<g id="Node000003" class="node">
<title>Node3</title>
<g id="a_Node000003"><a xlink:href="kest__button_8c.html#a8fdf6d6ae9b23100afda9fc1b7c9c985" target="_top" xlink:title=" ">
<polygon fill="white" stroke="#666666" points="292.25,-59.75 144.25,-59.75 144.25,-39 292.25,-39 292.25,-59.75"/>
<text xml:space="preserve" text-anchor="middle" x="218.25" y="-46.25" font-family="Helvetica,sans-Serif" font-size="10.00">kest_button_set_alignment</text>
</a>
</g>
</g>
<!-- Node1&#45;&gt;Node3 -->
<g id="edge2_Node000001_Node000003" class="edge">
<title>Node1&#45;&gt;Node3</title>
<g id="a_edge2_Node000001_Node000003"><a xlink:title=" ">
<path fill="none" stroke="#63b8ff" d="M108.66,-49.38C116.31,-49.38 124.33,-49.38 132.4,-49.38"/>
<polygon fill="#63b8ff" stroke="#63b8ff" points="132.29,-52.88 142.29,-49.38 132.29,-45.88 132.29,-52.88"/>
</a>
</g>
</g>
<!-- Node4 -->
<g id="Node000004" class="node">
<title>Node4</title>
<g id="a_Node000004"><a xlink:href="kest__button_8c.html#acb9de2f6034f6759c09358b5444db480" target="_top" xlink:title=" ">
<polygon fill="white" stroke="#666666" points="277.25,-20.75 159.25,-20.75 159.25,0 277.25,0 277.25,-20.75"/>
<text xml:space="preserve" text-anchor="middle" x="218.25" y="-7.25" font-family="Helvetica,sans-Serif" font-size="10.00">kest_button_set_size</text>
</a>
</g>
</g>
<!-- Node1&#45;&gt;Node4 -->
<g id="edge3_Node000001_Node000004" class="edge">
<title>Node1&#45;&gt;Node4</title>
<g id="a_edge3_Node000001_Node000004"><a xlink:title=" ">
<path fill="none" stroke="#63b8ff" d="M108.66,-36.5C125.53,-32.44 144.21,-27.95 161.25,-23.85"/>
<polygon fill="#63b8ff" stroke="#63b8ff" points="161.8,-27.31 170.7,-21.57 160.16,-20.51 161.8,-27.31"/>
</a>
</g>
</g>
</g>
</svg>
