<?xml version="1.0" encoding="UTF-8" standalone="no"?>
<!DOCTYPE svg PUBLIC "-//W3C//DTD SVG 1.1//EN"
 "http://www.w3.org/Graphics/SVG/1.1/DTD/svg11.dtd">
<!-- Generated by graphviz version 13.1.2 (20250808.2320)
 -->
<!-- Title: free_effect_view Pages: 1 -->
<svg width="581pt" height="107pt"
 viewBox="0.00 0.00 581.00 107.00" xmlns="http://www.w3.org/2000/svg" xmlns:xlink="http://www.w3.org/1999/xlink">
<g id="graph0" class="graph" transform="scale(1 1) rotate(0) translate(4 102.75)">
<title>free_effect_view</title>
<!-- Node1 -->
<g id="Node000001" class="node">
<title>Node1</title>
<g id="a_Node000001"><a xlink:title=" ">
<polygon fill="#999999" stroke="#666666" points="572.5,-59.75 474.75,-59.75 474.75,-39 572.5,-39 572.5,-59.75"/>
<text xml:space="preserve" text-anchor="middle" x="523.62" y="-46.25" font-family="Helvetica,sans-Serif" font-size="10.00">free_effect_view</text>
</a>
</g>
</g>
<!-- Node2 -->
<g id="Node000002" class="node">
<title>Node2</title>
<g id="a_Node000002"><a xlink:href="kest__effect__view_8c.html#abb65b28dc293fd68d3b384f48210130e" target="_top" xlink:title=" ">
<polygon fill="white" stroke="#666666" points="438.75,-98.75 311,-98.75 311,-78 438.75,-78 438.75,-98.75"/>
<text xml:space="preserve" text-anchor="middle" x="374.88" y="-85.25" font-family="Helvetica,sans-Serif" font-size="10.00">create_effect_view_for</text>
</a>
</g>
</g>
<!-- Node1&#45;&gt;Node2 -->
<g id="edge1_Node000001_Node000002" class="edge">
<title>Node1&#45;&gt;Node2</title>
<g id="a_edge1_Node000001_Node000002"><a xlink:title=" ">
<path fill="none" stroke="#63b8ff" d="M470.72,-63.17C453.02,-67.87 433.5,-73.06 416.79,-77.5"/>
<polygon fill="#63b8ff" stroke="#63b8ff" points="471.52,-66.58 480.28,-60.63 469.72,-59.81 471.52,-66.58"/>
</a>
</g>
</g>
<!-- Node3 -->
<g id="Node000003" class="node">
<title>Node3</title>
<g id="a_Node000003"><a xlink:href="kest__effect_8c.html#a09f04708e6ffd20ecaba2c10460cb1eb" target="_top" xlink:title=" ">
<polygon fill="white" stroke="#666666" points="409.5,-59.75 340.25,-59.75 340.25,-39 409.5,-39 409.5,-59.75"/>
<text xml:space="preserve" text-anchor="middle" x="374.88" y="-46.25" font-family="Helvetica,sans-Serif" font-size="10.00">free_effect</text>
</a>
</g>
</g>
<!-- Node1&#45;&gt;Node3 -->
<g id="edge2_Node000001_Node000003" class="edge">
<title>Node1&#45;&gt;Node3</title>
<g id="a_edge2_Node000001_Node000003"><a xlink:title=" ">
<path fill="none" stroke="#63b8ff" d="M463.12,-49.38C444.9,-49.38 425.5,-49.38 409.63,-49.38"/>
<polygon fill="#63b8ff" stroke="#63b8ff" points="463.06,-52.88 473.06,-49.38 463.06,-45.88 463.06,-52.88"/>
</a>
</g>
</g>
<!-- Node39 -->
<g id="Node000039" class="node">
<title>Node39</title>
<g id="a_Node000039"><a xlink:href="kest__effect_8c.html#a85452ce9d186abbc8864a17f582cc09c" target="_top" xlink:title=" ">
<polygon fill="white" stroke="#666666" points="407.62,-20.75 342.12,-20.75 342.12,0 407.62,0 407.62,-20.75"/>
<text xml:space="preserve" text-anchor="middle" x="374.88" y="-7.25" font-family="Helvetica,sans-Serif" font-size="10.00">gut_effect</text>
</a>
</g>
</g>
<!-- Node1&#45;&gt;Node39 -->
<g id="edge7_Node000001_Node000039" class="edge">
<title>Node1&#45;&gt;Node39</title>
<g id="a_edge7_Node000001_Node000039"><a xlink:title=" ">
<path fill="none" stroke="#63b8ff" d="M470.71,-35.58C449.69,-29.99 426.1,-23.72 407.7,-18.83"/>
<polygon fill="#63b8ff" stroke="#63b8ff" points="469.72,-38.94 480.28,-38.12 471.52,-32.17 469.72,-38.94"/>
</a>
</g>
</g>
<!-- Node4 -->
<g id="Node000004" class="node">
<title>Node4</title>
<g id="a_Node000004"><a xlink:href="kest__pipeline_8c.html#a840a0f31f2703ff6040d47245cc56c7a" target="_top" xlink:title=" ">
<polygon fill="white" stroke="#666666" points="251.38,-81.75 175.38,-81.75 175.38,-61 251.38,-61 251.38,-81.75"/>
<text xml:space="preserve" text-anchor="middle" x="213.38" y="-68.25" font-family="Helvetica,sans-Serif" font-size="10.00">gut_pipeline</text>
</a>
</g>
</g>
<!-- Node3&#45;&gt;Node4 -->
<g id="edge3_Node000003_Node000004" class="edge">
<title>Node3&#45;&gt;Node4</title>
<g id="a_edge3_Node000003_Node000004"><a xlink:title=" ">
<path fill="none" stroke="#63b8ff" d="M328.93,-55.57C304.58,-58.93 274.85,-63.03 251.78,-66.22"/>
<polygon fill="#63b8ff" stroke="#63b8ff" points="329.12,-59.08 338.55,-54.25 328.17,-52.15 329.12,-59.08"/>
</a>
</g>
</g>
<!-- Node32 -->
<g id="Node000032" class="node">
<title>Node32</title>
<g id="a_Node000032"><a xlink:href="kest__pipeline_8c.html#a73cdb3a338dc34668b63859d87ba81b9" target="_top" xlink:title=" ">
<polygon fill="white" stroke="#666666" points="275,-43.12 151.75,-43.12 151.75,-9.62 275,-9.62 275,-43.12"/>
<text xml:space="preserve" text-anchor="start" x="159.75" y="-29.62" font-family="Helvetica,sans-Serif" font-size="10.00">kest_pipeline_remove</text>
<text xml:space="preserve" text-anchor="middle" x="213.38" y="-16.88" font-family="Helvetica,sans-Serif" font-size="10.00">_effect</text>
</a>
</g>
</g>
<!-- Node3&#45;&gt;Node32 -->
<g id="edge5_Node000003_Node000032" class="edge">
<title>Node3&#45;&gt;Node32</title>
<g id="a_edge5_Node000003_Node000032"><a xlink:title=" ">
<path fill="none" stroke="#63b8ff" d="M328.95,-42.9C312.27,-40.49 293.07,-37.72 275.2,-35.15"/>
<polygon fill="#63b8ff" stroke="#63b8ff" points="328.15,-46.32 338.55,-44.28 329.15,-39.39 328.15,-46.32"/>
</a>
</g>
</g>
<!-- Node5 -->
<g id="Node000005" class="node">
<title>Node5</title>
<g id="a_Node000005"><a xlink:href="kest__profile_8c.html#a98628f676eab8e760f52eec1b9dd7281" target="_top" xlink:title=" ">
<polygon fill="#fff0f0" stroke="red" points="92.12,-81.75 23.62,-81.75 23.62,-61 92.12,-61 92.12,-81.75"/>
<text xml:space="preserve" text-anchor="middle" x="57.88" y="-68.25" font-family="Helvetica,sans-Serif" font-size="10.00">gut_profile</text>
</a>
</g>
</g>
<!-- Node4&#45;&gt;Node5 -->
<g id="edge4_Node000004_Node000005" class="edge">
<title>Node4&#45;&gt;Node5</title>
<g id="a_edge4_Node000004_Node000005"><a xlink:title=" ">
<path fill="none" stroke="#63b8ff" d="M163.85,-71.38C140.65,-71.38 113.45,-71.38 92.55,-71.38"/>
<polygon fill="#63b8ff" stroke="#63b8ff" points="163.7,-74.88 173.7,-71.38 163.7,-67.88 163.7,-74.88"/>
</a>
</g>
</g>
<!-- Node33 -->
<g id="Node000033" class="node">
<title>Node33</title>
<g id="a_Node000033"><a xlink:href="kest__profile_8c.html#a25cea119219eee39a50e7433a8b914d6" target="_top" xlink:title=" ">
<polygon fill="#fff0f0" stroke="red" points="115.75,-43.12 0,-43.12 0,-9.62 115.75,-9.62 115.75,-43.12"/>
<text xml:space="preserve" text-anchor="start" x="8" y="-29.62" font-family="Helvetica,sans-Serif" font-size="10.00">kest_profile_remove</text>
<text xml:space="preserve" text-anchor="middle" x="57.88" y="-16.88" font-family="Helvetica,sans-Serif" font-size="10.00">_effect</text>
</a>
</g>
</g>
<!-- Node32&#45;&gt;Node33 -->
<g id="edge6_Node000032_Node000033" class="edge">
<title>Node32&#45;&gt;Node33</title>
<g id="a_edge6_Node000032_Node000033"><a xlink:title=" ">
<path fill="none" stroke="#63b8ff" d="M139.9,-26.38C131.8,-26.38 123.65,-26.38 115.78,-26.38"/>
<polygon fill="#63b8ff" stroke="#63b8ff" points="139.75,-29.88 149.75,-26.38 139.75,-22.88 139.75,-29.88"/>
</a>
</g>
</g>
</g>
</svg>
