<?xml version="1.0" encoding="UTF-8" standalone="no"?>
<!DOCTYPE svg PUBLIC "-//W3C//DTD SVG 1.1//EN"
 "http://www.w3.org/Graphics/SVG/1.1/DTD/svg11.dtd">
<!-- Generated by graphviz version 13.1.2 (20250808.2320)
 -->
<!-- Title: enter_menu_page Pages: 1 -->
<svg width="545pt" height="29pt"
 viewBox="0.00 0.00 545.00 29.00" xmlns="http://www.w3.org/2000/svg" xmlns:xlink="http://www.w3.org/1999/xlink">
<g id="graph0" class="graph" transform="scale(1 1) rotate(0) translate(4 24.75)">
<title>enter_menu_page</title>
<!-- Node1 -->
<g id="Node000001" class="node">
<title>Node1</title>
<g id="a_Node000001"><a xlink:title=" ">
<polygon fill="#999999" stroke="#666666" points="536.5,-20.75 432.75,-20.75 432.75,0 536.5,0 536.5,-20.75"/>
<text xml:space="preserve" text-anchor="middle" x="484.62" y="-7.25" font-family="Helvetica,sans-Serif" font-size="10.00">enter_menu_page</text>
</a>
</g>
</g>
<!-- Node2 -->
<g id="Node000002" class="node">
<title>Node2</title>
<g id="a_Node000002"><a xlink:href="kest__menu_8c.html#a9a3dc2a29ebf6ace0a6b54a902530001" target="_top" xlink:title=" ">
<polygon fill="white" stroke="#666666" points="396.75,-20.75 302.75,-20.75 302.75,0 396.75,0 396.75,-20.75"/>
<text xml:space="preserve" text-anchor="middle" x="349.75" y="-7.25" font-family="Helvetica,sans-Serif" font-size="10.00">init_menu_page</text>
</a>
</g>
</g>
<!-- Node1&#45;&gt;Node2 -->
<g id="edge1_Node000001_Node000002" class="edge">
<title>Node1&#45;&gt;Node2</title>
<g id="a_edge1_Node000001_Node000002"><a xlink:title=" ">
<path fill="none" stroke="#63b8ff" d="M420.74,-10.38C412.81,-10.38 404.82,-10.38 397.21,-10.38"/>
<polygon fill="#63b8ff" stroke="#63b8ff" points="420.74,-13.88 430.74,-10.38 420.74,-6.88 420.74,-13.88"/>
</a>
</g>
</g>
<!-- Node3 -->
<g id="Node000003" class="node">
<title>Node3</title>
<g id="a_Node000003"><a xlink:href="kest__sequence__list_8c.html#a0e869118af43741e3d4db628d5c414fe" target="_top" xlink:title=" ">
<polygon fill="white" stroke="#666666" points="266.75,-20.75 163,-20.75 163,0 266.75,0 266.75,-20.75"/>
<text xml:space="preserve" text-anchor="middle" x="214.88" y="-7.25" font-family="Helvetica,sans-Serif" font-size="10.00">init_sequence_list</text>
</a>
</g>
</g>
<!-- Node2&#45;&gt;Node3 -->
<g id="edge2_Node000002_Node000003" class="edge">
<title>Node2&#45;&gt;Node3</title>
<g id="a_edge2_Node000002_Node000003"><a xlink:title=" ">
<path fill="none" stroke="#63b8ff" d="M290.85,-10.38C282.94,-10.38 274.86,-10.38 267.08,-10.38"/>
<polygon fill="#63b8ff" stroke="#63b8ff" points="290.76,-13.88 300.76,-10.38 290.76,-6.88 290.76,-13.88"/>
</a>
</g>
</g>
<!-- Node4 -->
<g id="Node000004" class="node">
<title>Node4</title>
<g id="a_Node000004"><a xlink:href="kest__ui_8c.html#ab1be7d2981c922ebe8d714f9af0f600d" target="_top" xlink:title=" ">
<polygon fill="#fff0f0" stroke="red" points="127,-20.75 0,-20.75 0,0 127,0 127,-20.75"/>
<text xml:space="preserve" text-anchor="middle" x="63.5" y="-7.25" font-family="Helvetica,sans-Serif" font-size="10.00">kest_init_global_pages</text>
</a>
</g>
</g>
<!-- Node3&#45;&gt;Node4 -->
<g id="edge3_Node000003_Node000004" class="edge">
<title>Node3&#45;&gt;Node4</title>
<g id="a_edge3_Node000003_Node000004"><a xlink:title=" ">
<path fill="none" stroke="#63b8ff" d="M151.43,-10.38C143.49,-10.38 135.36,-10.38 127.41,-10.38"/>
<polygon fill="#63b8ff" stroke="#63b8ff" points="151.37,-13.88 161.37,-10.38 151.37,-6.88 151.37,-13.88"/>
</a>
</g>
</g>
</g>
</svg>
