<?xml version="1.0" encoding="UTF-8" standalone="no"?>
<!DOCTYPE svg PUBLIC "-//W3C//DTD SVG 1.1//EN"
 "http://www.w3.org/Graphics/SVG/1.1/DTD/svg11.dtd">
<!-- Generated by graphviz version 13.1.2 (20250808.2320)
 -->
<!-- Title: kest_representation.h Pages: 1 -->
<svg width="3930pt" height="256pt"
 viewBox="0.00 0.00 3930.00 256.00" xmlns="http://www.w3.org/2000/svg" xmlns:xlink="http://www.w3.org/1999/xlink">
<g id="graph0" class="graph" transform="scale(1 1) rotate(0) translate(4 251.75)">
<title>kest_representation.h</title>
<!-- Node1 -->
<g id="Node000001" class="node">
<title>Node1</title>
<g id="a_Node000001"><a xlink:title=" ">
<polygon fill="#999999" stroke="#666666" points="2002.38,-247.75 1880.62,-247.75 1880.62,-227 2002.38,-227 2002.38,-247.75"/>
<text xml:space="preserve" text-anchor="middle" x="1941.5" y="-234.25" font-family="Helvetica,sans-Serif" font-size="10.00">kest_representation.h</text>
</a>
</g>
</g>
<!-- Node2 -->
<g id="Node000002" class="node">
<title>Node2</title>
<g id="a_Node000002"><a xlink:href="kest__button_8h.html" target="_top" xlink:title=" ">
<polygon fill="white" stroke="#666666" points="1934.5,-191 1852.5,-191 1852.5,-170.25 1934.5,-170.25 1934.5,-191"/>
<text xml:space="preserve" text-anchor="middle" x="1893.5" y="-177.5" font-family="Helvetica,sans-Serif" font-size="10.00">kest_button.h</text>
</a>
</g>
</g>
<!-- Node1&#45;&gt;Node2 -->
<g id="edge1_Node000001_Node000002" class="edge">
<title>Node1&#45;&gt;Node2</title>
<g id="a_edge1_Node000001_Node000002"><a xlink:title=" ">
<path fill="none" stroke="#63b8ff" d="M1925.38,-217.99C1917.56,-209.06 1908.47,-198.7 1902.01,-191.33"/>
<polygon fill="#63b8ff" stroke="#63b8ff" points="1922.7,-220.24 1931.92,-225.45 1927.96,-215.62 1922.7,-220.24"/>
</a>
</g>
</g>
<!-- Node3 -->
<g id="Node000003" class="node">
<title>Node3</title>
<g id="a_Node000003"><a xlink:href="kest__desktop_8h.html" target="_top" xlink:title=" ">
<polygon fill="white" stroke="#666666" points="1867.25,-77.5 1777.75,-77.5 1777.75,-56.75 1867.25,-56.75 1867.25,-77.5"/>
<text xml:space="preserve" text-anchor="middle" x="1822.5" y="-64" font-family="Helvetica,sans-Serif" font-size="10.00">kest_desktop.h</text>
</a>
</g>
</g>
<!-- Node1&#45;&gt;Node3 -->
<g id="edge41_Node000001_Node000003" class="edge">
<title>Node1&#45;&gt;Node3</title>
<g id="a_edge41_Node000001_Node000003"><a xlink:title=" ">
<path fill="none" stroke="#63b8ff" d="M1891.17,-222.64C1873.94,-215.68 1855.89,-205.53 1843.5,-191 1815.14,-157.73 1818.46,-100.46 1821.12,-77.78"/>
<polygon fill="#63b8ff" stroke="#63b8ff" points="1889.73,-225.84 1900.33,-226.04 1892.17,-219.28 1889.73,-225.84"/>
</a>
</g>
</g>
<!-- Node4 -->
<g id="Node000004" class="node">
<title>Node4</title>
<g id="a_Node000004"><a xlink:href="kest__int_8h.html" target="_top" xlink:title=" ">
<polygon fill="#fff0f0" stroke="red" points="1970.12,-77.5 1906.88,-77.5 1906.88,-56.75 1970.12,-56.75 1970.12,-77.5"/>
<text xml:space="preserve" text-anchor="middle" x="1938.5" y="-64" font-family="Helvetica,sans-Serif" font-size="10.00">kest_int.h</text>
</a>
</g>
</g>
<!-- Node1&#45;&gt;Node4 -->
<g id="edge42_Node000001_Node000004" class="edge">
<title>Node1&#45;&gt;Node4</title>
<g id="a_edge42_Node000001_Node000004"><a xlink:title=" ">
<path fill="none" stroke="#63b8ff" d="M1942.62,-215.41C1942.98,-207.73 1943.32,-198.97 1943.5,-191 1944.43,-148.95 1940.97,-98.85 1939.32,-78"/>
<polygon fill="#63b8ff" stroke="#63b8ff" points="1939.13,-214.97 1942.13,-225.13 1946.13,-215.32 1939.13,-214.97"/>
</a>
</g>
</g>
<!-- Node57 -->
<g id="Node000057" class="node">
<title>Node57</title>
<g id="a_Node000057"><a xlink:href="kest__lib_8h.html" target="_top" xlink:title=" ">
<polygon fill="white" stroke="#666666" points="2066.75,-191 2004.25,-191 2004.25,-170.25 2066.75,-170.25 2066.75,-191"/>
<text xml:space="preserve" text-anchor="middle" x="2035.5" y="-177.5" font-family="Helvetica,sans-Serif" font-size="10.00">kest_lib.h</text>
</a>
</g>
</g>
<!-- Node1&#45;&gt;Node57 -->
<g id="edge43_Node000001_Node000057" class="edge">
<title>Node1&#45;&gt;Node57</title>
<g id="a_edge43_Node000001_Node000057"><a xlink:title=" ">
<path fill="none" stroke="#63b8ff" d="M1967.85,-221.03C1984.2,-211.5 2004.71,-199.56 2018.84,-191.33"/>
<polygon fill="#63b8ff" stroke="#63b8ff" points="1966.49,-217.77 1959.61,-225.83 1970.02,-223.82 1966.49,-217.77"/>
</a>
</g>
</g>
<!-- Node2&#45;&gt;Node3 -->
<g id="edge2_Node000002_Node000003" class="edge">
<title>Node2&#45;&gt;Node3</title>
<g id="a_edge2_Node000002_Node000003"><a xlink:title=" ">
<path fill="none" stroke="#63b8ff" d="M1869.13,-163.17C1859.29,-155.43 1848.62,-145.44 1841.5,-134.25 1830.09,-116.31 1825.36,-91.35 1823.54,-77.8"/>
<polygon fill="#63b8ff" stroke="#63b8ff" points="1866.82,-165.81 1876.93,-168.96 1870.99,-160.19 1866.82,-165.81"/>
</a>
</g>
</g>
<!-- Node2&#45;&gt;Node4 -->
<g id="edge3_Node000002_Node000004" class="edge">
<title>Node2&#45;&gt;Node4</title>
<g id="a_edge3_Node000002_Node000004"><a xlink:title=" ">
<path fill="none" stroke="#63b8ff" d="M1905.97,-160.25C1910.66,-152.4 1915.76,-143.1 1919.5,-134.25 1927.69,-114.89 1933.6,-90.89 1936.49,-77.79"/>
<polygon fill="#63b8ff" stroke="#63b8ff" points="1903.09,-158.26 1900.8,-168.6 1909.04,-161.95 1903.09,-158.26"/>
</a>
</g>
</g>
<!-- Node56 -->
<g id="Node000056" class="node">
<title>Node56</title>
<g id="a_Node000056"><a xlink:href="kest__ui_8h.html" target="_top" xlink:title=" ">
<polygon fill="white" stroke="#666666" points="1910.25,-134.25 1850.75,-134.25 1850.75,-113.5 1910.25,-113.5 1910.25,-134.25"/>
<text xml:space="preserve" text-anchor="middle" x="1880.5" y="-120.75" font-family="Helvetica,sans-Serif" font-size="10.00">kest_ui.h</text>
</a>
</g>
</g>
<!-- Node2&#45;&gt;Node56 -->
<g id="edge38_Node000002_Node000056" class="edge">
<title>Node2&#45;&gt;Node56</title>
<g id="a_edge38_Node000002_Node000056"><a xlink:title=" ">
<path fill="none" stroke="#63b8ff" d="M1888.52,-158.67C1886.56,-150.38 1884.39,-141.25 1882.8,-134.58"/>
<polygon fill="#63b8ff" stroke="#63b8ff" points="1885.11,-159.44 1890.83,-168.36 1891.92,-157.83 1885.11,-159.44"/>
</a>
</g>
</g>
<!-- Node5 -->
<g id="Node000005" class="node">
<title>Node5</title>
<g id="a_Node000005"><a xlink:href="kest__alloc_8c.html" target="_top" xlink:title=" ">
<polygon fill="white" stroke="#666666" points="73,-20.75 0,-20.75 0,0 73,0 73,-20.75"/>
<text xml:space="preserve" text-anchor="middle" x="36.5" y="-7.25" font-family="Helvetica,sans-Serif" font-size="10.00">kest_alloc.c</text>
</a>
</g>
</g>
<!-- Node4&#45;&gt;Node5 -->
<g id="edge4_Node000004_Node000005" class="edge">
<title>Node4&#45;&gt;Node5</title>
<g id="a_edge4_Node000004_Node000005"><a xlink:title=" ">
<path fill="none" stroke="#63b8ff" d="M1895.31,-58.86C1889.01,-58.01 1882.6,-57.27 1876.5,-56.75 1081.89,11.01 875.12,-108.74 82.5,-20.75 79.5,-20.42 76.41,-19.98 73.31,-19.49"/>
<polygon fill="#63b8ff" stroke="#63b8ff" points="1894.52,-62.28 1904.92,-60.25 1895.52,-55.35 1894.52,-62.28"/>
</a>
</g>
</g>
<!-- Node6 -->
<g id="Node000006" class="node">
<title>Node6</title>
<g id="a_Node000006"><a xlink:href="kest__asm__parser_8c.html" target="_top" xlink:title=" ">
<polygon fill="white" stroke="#666666" points="197.88,-20.75 91.12,-20.75 91.12,0 197.88,0 197.88,-20.75"/>
<text xml:space="preserve" text-anchor="middle" x="144.5" y="-7.25" font-family="Helvetica,sans-Serif" font-size="10.00">kest_asm_parser.c</text>
</a>
</g>
</g>
<!-- Node4&#45;&gt;Node6 -->
<g id="edge5_Node000004_Node000006" class="edge">
<title>Node4&#45;&gt;Node6</title>
<g id="a_edge5_Node000004_Node000006"><a xlink:title=" ">
<path fill="none" stroke="#63b8ff" d="M1895.31,-58.87C1889.01,-58.02 1882.6,-57.27 1876.5,-56.75 1136.84,6.88 946.16,-84.38 206.5,-20.75 203.79,-20.52 201.02,-20.24 198.22,-19.93"/>
<polygon fill="#63b8ff" stroke="#63b8ff" points="1894.52,-62.29 1904.92,-60.25 1895.52,-55.36 1894.52,-62.29"/>
</a>
</g>
</g>
<!-- Node7 -->
<g id="Node000007" class="node">
<title>Node7</title>
<g id="a_Node000007"><a xlink:href="kest__block_8c.html" target="_top" xlink:title=" ">
<polygon fill="white" stroke="#666666" points="291.5,-20.75 215.5,-20.75 215.5,0 291.5,0 291.5,-20.75"/>
<text xml:space="preserve" text-anchor="middle" x="253.5" y="-7.25" font-family="Helvetica,sans-Serif" font-size="10.00">kest_block.c</text>
</a>
</g>
</g>
<!-- Node4&#45;&gt;Node7 -->
<g id="edge6_Node000004_Node000007" class="edge">
<title>Node4&#45;&gt;Node7</title>
<g id="a_edge6_Node000004_Node000007"><a xlink:title=" ">
<path fill="none" stroke="#63b8ff" d="M1895.31,-58.87C1889.01,-58.03 1882.6,-57.28 1876.5,-56.75 1178.49,3.75 996.9,-97.57 300.5,-20.75 297.69,-20.44 294.79,-20.05 291.89,-19.6"/>
<polygon fill="#63b8ff" stroke="#63b8ff" points="1894.52,-62.3 1904.92,-60.26 1895.52,-55.37 1894.52,-62.3"/>
</a>
</g>
</g>
<!-- Node8 -->
<g id="Node000008" class="node">
<title>Node8</title>
<g id="a_Node000008"><a xlink:href="kest__bump__arena_8c.html" target="_top" xlink:title=" ">
<polygon fill="white" stroke="#666666" points="419.75,-20.75 309.25,-20.75 309.25,0 419.75,0 419.75,-20.75"/>
<text xml:space="preserve" text-anchor="middle" x="364.5" y="-7.25" font-family="Helvetica,sans-Serif" font-size="10.00">kest_bump_arena.c</text>
</a>
</g>
</g>
<!-- Node4&#45;&gt;Node8 -->
<g id="edge7_Node000004_Node000008" class="edge">
<title>Node4&#45;&gt;Node8</title>
<g id="a_edge7_Node000004_Node000008"><a xlink:title=" ">
<path fill="none" stroke="#63b8ff" d="M1895.31,-58.89C1889.01,-58.04 1882.6,-57.28 1876.5,-56.75 1235.21,-0.52 1069.92,-75.5 428.5,-20.75 425.7,-20.51 422.84,-20.23 419.96,-19.92"/>
<polygon fill="#63b8ff" stroke="#63b8ff" points="1894.52,-62.31 1904.91,-60.27 1895.52,-55.38 1894.52,-62.31"/>
</a>
</g>
</g>
<!-- Node9 -->
<g id="Node000009" class="node">
<title>Node9</title>
<g id="a_Node000009"><a xlink:href="kest__button_8c.html" target="_top" xlink:title=" ">
<polygon fill="white" stroke="#666666" points="519.12,-20.75 437.88,-20.75 437.88,0 519.12,0 519.12,-20.75"/>
<text xml:space="preserve" text-anchor="middle" x="478.5" y="-7.25" font-family="Helvetica,sans-Serif" font-size="10.00">kest_button.c</text>
</a>
</g>
</g>
<!-- Node4&#45;&gt;Node9 -->
<g id="edge8_Node000004_Node000009" class="edge">
<title>Node4&#45;&gt;Node9</title>
<g id="a_edge8_Node000004_Node000009"><a xlink:title=" ">
<path fill="none" stroke="#63b8ff" d="M1895.31,-58.9C1889.01,-58.05 1882.6,-57.29 1876.5,-56.75 1279.51,-3.85 1124.46,-84.17 528.5,-20.75 525.6,-20.44 522.62,-20.06 519.62,-19.62"/>
<polygon fill="#63b8ff" stroke="#63b8ff" points="1894.52,-62.32 1904.91,-60.29 1895.52,-55.39 1894.52,-62.32"/>
</a>
</g>
</g>
<!-- Node10 -->
<g id="Node000010" class="node">
<title>Node10</title>
<g id="a_Node000010"><a xlink:href="kest__context_8c.html" target="_top" xlink:title=" ">
<polygon fill="white" stroke="#666666" points="623.75,-20.75 537.25,-20.75 537.25,0 623.75,0 623.75,-20.75"/>
<text xml:space="preserve" text-anchor="middle" x="580.5" y="-7.25" font-family="Helvetica,sans-Serif" font-size="10.00">kest_context.c</text>
</a>
</g>
</g>
<!-- Node4&#45;&gt;Node10 -->
<g id="edge9_Node000004_Node000010" class="edge">
<title>Node4&#45;&gt;Node10</title>
<g id="a_edge9_Node000004_Node000010"><a xlink:title=" ">
<path fill="none" stroke="#63b8ff" d="M1895.3,-58.91C1889.01,-58.06 1882.6,-57.3 1876.5,-56.75 1326.04,-7.34 1183.3,-77.03 633.5,-20.75 630.43,-20.44 627.28,-20.05 624.1,-19.61"/>
<polygon fill="#63b8ff" stroke="#63b8ff" points="1894.51,-62.33 1904.91,-60.3 1895.52,-55.4 1894.51,-62.33"/>
</a>
</g>
</g>
<!-- Node11 -->
<g id="Node000011" class="node">
<title>Node11</title>
<g id="a_Node000011"><a xlink:href="kest__desktop_8c.html" target="_top" xlink:title=" ">
<polygon fill="white" stroke="#666666" points="730.88,-20.75 642.12,-20.75 642.12,0 730.88,0 730.88,-20.75"/>
<text xml:space="preserve" text-anchor="middle" x="686.5" y="-7.25" font-family="Helvetica,sans-Serif" font-size="10.00">kest_desktop.c</text>
</a>
</g>
</g>
<!-- Node4&#45;&gt;Node11 -->
<g id="edge10_Node000004_Node000011" class="edge">
<title>Node4&#45;&gt;Node11</title>
<g id="a_edge10_Node000004_Node000011"><a xlink:title=" ">
<path fill="none" stroke="#63b8ff" d="M1895.3,-58.92C1889.01,-58.07 1882.6,-57.31 1876.5,-56.75 1373,-10.87 1242.39,-72.92 739.5,-20.75 736.8,-20.47 734.04,-20.13 731.26,-19.76"/>
<polygon fill="#63b8ff" stroke="#63b8ff" points="1894.51,-62.35 1904.91,-60.32 1895.52,-55.42 1894.51,-62.35"/>
</a>
</g>
</g>
<!-- Node12 -->
<g id="Node000012" class="node">
<title>Node12</title>
<g id="a_Node000012"><a xlink:href="kest__dict__extract_8c.html" target="_top" xlink:title=" ">
<polygon fill="white" stroke="#666666" points="856.25,-20.75 748.75,-20.75 748.75,0 856.25,0 856.25,-20.75"/>
<text xml:space="preserve" text-anchor="middle" x="802.5" y="-7.25" font-family="Helvetica,sans-Serif" font-size="10.00">kest_dict_extract.c</text>
</a>
</g>
</g>
<!-- Node4&#45;&gt;Node12 -->
<g id="edge11_Node000004_Node000012" class="edge">
<title>Node4&#45;&gt;Node12</title>
<g id="a_edge11_Node000004_Node000012"><a xlink:title=" ">
<path fill="none" stroke="#63b8ff" d="M1895.3,-58.95C1889.01,-58.09 1882.6,-57.32 1876.5,-56.75 1428.37,-15.04 1312.63,-62.46 864.5,-20.75 861.9,-20.51 859.24,-20.23 856.56,-19.92"/>
<polygon fill="#63b8ff" stroke="#63b8ff" points="1894.51,-62.37 1904.91,-60.34 1895.51,-55.44 1894.51,-62.37"/>
</a>
</g>
</g>
<!-- Node13 -->
<g id="Node000013" class="node">
<title>Node13</title>
<g id="a_Node000013"><a xlink:href="kest__dictionary_8c.html" target="_top" xlink:title=" ">
<polygon fill="white" stroke="#666666" points="971,-20.75 874,-20.75 874,0 971,0 971,-20.75"/>
<text xml:space="preserve" text-anchor="middle" x="922.5" y="-7.25" font-family="Helvetica,sans-Serif" font-size="10.00">kest_dictionary.c</text>
</a>
</g>
</g>
<!-- Node4&#45;&gt;Node13 -->
<g id="edge12_Node000004_Node000013" class="edge">
<title>Node4&#45;&gt;Node13</title>
<g id="a_edge12_Node000004_Node000013"><a xlink:title=" ">
<path fill="none" stroke="#63b8ff" d="M1895.3,-58.97C1889.01,-58.11 1882.6,-57.33 1876.5,-56.75 1479.31,-18.87 1376.43,-61.2 979.5,-20.75 976.81,-20.48 974.05,-20.15 971.26,-19.8"/>
<polygon fill="#63b8ff" stroke="#63b8ff" points="1894.51,-62.39 1904.91,-60.37 1895.51,-55.47 1894.51,-62.39"/>
</a>
</g>
</g>
<!-- Node14 -->
<g id="Node000014" class="node">
<title>Node14</title>
<g id="a_Node000014"><a xlink:href="kest__eff__desc_8c.html" target="_top" xlink:title=" ">
<polygon fill="white" stroke="#666666" points="1080,-20.75 989,-20.75 989,0 1080,0 1080,-20.75"/>
<text xml:space="preserve" text-anchor="middle" x="1034.5" y="-7.25" font-family="Helvetica,sans-Serif" font-size="10.00">kest_eff_desc.c</text>
</a>
</g>
</g>
<!-- Node4&#45;&gt;Node14 -->
<g id="edge13_Node000004_Node000014" class="edge">
<title>Node4&#45;&gt;Node14</title>
<g id="a_edge13_Node000004_Node000014"><a xlink:title=" ">
<path fill="none" stroke="#63b8ff" d="M1895.3,-59C1889,-58.14 1882.59,-57.35 1876.5,-56.75 1527.59,-22.5 1437.02,-58.81 1088.5,-20.75 1085.85,-20.46 1083.14,-20.12 1080.4,-19.75"/>
<polygon fill="#63b8ff" stroke="#63b8ff" points="1894.5,-62.42 1904.9,-60.4 1895.51,-55.5 1894.5,-62.42"/>
</a>
</g>
</g>
<!-- Node15 -->
<g id="Node000015" class="node">
<title>Node15</title>
<g id="a_Node000015"><a xlink:href="kest__eff__parser_8c.html" target="_top" xlink:title=" ">
<polygon fill="white" stroke="#666666" points="1197.12,-20.75 1097.88,-20.75 1097.88,0 1197.12,0 1197.12,-20.75"/>
<text xml:space="preserve" text-anchor="middle" x="1147.5" y="-7.25" font-family="Helvetica,sans-Serif" font-size="10.00">kest_eff_parser.c</text>
</a>
</g>
</g>
<!-- Node4&#45;&gt;Node15 -->
<g id="edge14_Node000004_Node000015" class="edge">
<title>Node4&#45;&gt;Node15</title>
<g id="a_edge14_Node000004_Node000015"><a xlink:title=" ">
<path fill="none" stroke="#63b8ff" d="M1895.29,-59.05C1889,-58.17 1882.59,-57.37 1876.5,-56.75 1579.84,-26.42 1503.05,-52.19 1206.5,-20.75 1203.51,-20.43 1200.44,-20.07 1197.34,-19.67"/>
<polygon fill="#63b8ff" stroke="#63b8ff" points="1894.5,-62.47 1904.9,-60.45 1895.51,-55.54 1894.5,-62.47"/>
</a>
</g>
</g>
<!-- Node16 -->
<g id="Node000016" class="node">
<title>Node16</title>
<g id="a_Node000016"><a xlink:href="kest__eff__section_8c.html" target="_top" xlink:title=" ">
<polygon fill="white" stroke="#666666" points="1319.38,-20.75 1215.62,-20.75 1215.62,0 1319.38,0 1319.38,-20.75"/>
<text xml:space="preserve" text-anchor="middle" x="1267.5" y="-7.25" font-family="Helvetica,sans-Serif" font-size="10.00">kest_eff_section.c</text>
</a>
</g>
</g>
<!-- Node4&#45;&gt;Node16 -->
<g id="edge15_Node000004_Node000016" class="edge">
<title>Node4&#45;&gt;Node16</title>
<g id="a_edge15_Node000004_Node000016"><a xlink:title=" ">
<path fill="none" stroke="#63b8ff" d="M1895.28,-59.11C1888.99,-58.23 1882.59,-57.41 1876.5,-56.75 1633.84,-30.48 1571.13,-47.31 1328.5,-20.75 1325.62,-20.44 1322.68,-20.08 1319.7,-19.7"/>
<polygon fill="#63b8ff" stroke="#63b8ff" points="1894.49,-62.53 1904.89,-60.52 1895.5,-55.61 1894.49,-62.53"/>
</a>
</g>
</g>
<!-- Node17 -->
<g id="Node000017" class="node">
<title>Node17</title>
<g id="a_Node000017"><a xlink:href="kest__effect_8c.html" target="_top" xlink:title=" ">
<polygon fill="white" stroke="#666666" points="1415.62,-20.75 1337.38,-20.75 1337.38,0 1415.62,0 1415.62,-20.75"/>
<text xml:space="preserve" text-anchor="middle" x="1376.5" y="-7.25" font-family="Helvetica,sans-Serif" font-size="10.00">kest_effect.c</text>
</a>
</g>
</g>
<!-- Node4&#45;&gt;Node17 -->
<g id="edge16_Node000004_Node000017" class="edge">
<title>Node4&#45;&gt;Node17</title>
<g id="a_edge16_Node000004_Node000017"><a xlink:title=" ">
<path fill="none" stroke="#63b8ff" d="M1895.28,-59.19C1888.99,-58.3 1882.58,-57.45 1876.5,-56.75 1676.3,-33.67 1624.16,-48.11 1424.5,-20.75 1421.72,-20.37 1418.87,-19.93 1415.99,-19.46"/>
<polygon fill="#63b8ff" stroke="#63b8ff" points="1894.48,-62.61 1904.88,-60.61 1895.5,-55.68 1894.48,-62.61"/>
</a>
</g>
</g>
<!-- Node18 -->
<g id="Node000018" class="node">
<title>Node18</title>
<g id="a_Node000018"><a xlink:href="kest__effect__init_8c.html" target="_top" xlink:title=" ">
<polygon fill="white" stroke="#666666" points="1533.12,-20.75 1433.88,-20.75 1433.88,0 1533.12,0 1533.12,-20.75"/>
<text xml:space="preserve" text-anchor="middle" x="1483.5" y="-7.25" font-family="Helvetica,sans-Serif" font-size="10.00">kest_effect_init.c</text>
</a>
</g>
</g>
<!-- Node4&#45;&gt;Node18 -->
<g id="edge17_Node000004_Node000018" class="edge">
<title>Node4&#45;&gt;Node18</title>
<g id="a_edge17_Node000004_Node000018"><a xlink:title=" ">
<path fill="none" stroke="#63b8ff" d="M1895.47,-59.38C1889.11,-58.45 1882.64,-57.54 1876.5,-56.75 1728.43,-37.58 1690.5,-40.47 1542.5,-20.75 1539.52,-20.35 1536.46,-19.93 1533.37,-19.48"/>
<polygon fill="#63b8ff" stroke="#63b8ff" points="1894.77,-62.81 1905.18,-60.82 1895.81,-55.89 1894.77,-62.81"/>
</a>
</g>
</g>
<!-- Node19 -->
<g id="Node000019" class="node">
<title>Node19</title>
<g id="a_Node000019"><a xlink:href="kest__effect__select_8c.html" target="_top" xlink:title=" ">
<polygon fill="white" stroke="#666666" points="1663.88,-20.75 1551.12,-20.75 1551.12,0 1663.88,0 1663.88,-20.75"/>
<text xml:space="preserve" text-anchor="middle" x="1607.5" y="-7.25" font-family="Helvetica,sans-Serif" font-size="10.00">kest_effect_select.c</text>
</a>
</g>
</g>
<!-- Node4&#45;&gt;Node19 -->
<g id="edge18_Node000004_Node000019" class="edge">
<title>Node4&#45;&gt;Node19</title>
<g id="a_edge18_Node000004_Node000019"><a xlink:title=" ">
<path fill="none" stroke="#63b8ff" d="M1895.29,-58.98C1836.13,-49.19 1729.84,-31.61 1664.3,-20.77"/>
<polygon fill="#63b8ff" stroke="#63b8ff" points="1894.53,-62.4 1904.97,-60.58 1895.67,-55.49 1894.53,-62.4"/>
</a>
</g>
</g>
<!-- Node20 -->
<g id="Node000020" class="node">
<title>Node20</title>
<g id="a_Node000020"><a xlink:href="kest__effect__settings_8c.html" target="_top" xlink:title=" ">
<polygon fill="white" stroke="#666666" points="1804.75,-20.75 1682.25,-20.75 1682.25,0 1804.75,0 1804.75,-20.75"/>
<text xml:space="preserve" text-anchor="middle" x="1743.5" y="-7.25" font-family="Helvetica,sans-Serif" font-size="10.00">kest_effect_settings.c</text>
</a>
</g>
</g>
<!-- Node4&#45;&gt;Node20 -->
<g id="edge19_Node000004_Node000020" class="edge">
<title>Node4&#45;&gt;Node20</title>
<g id="a_edge19_Node000004_Node000020"><a xlink:title=" ">
<path fill="none" stroke="#63b8ff" d="M1895.86,-54.15C1860.7,-44.28 1811.44,-30.45 1778.55,-21.22"/>
<polygon fill="#63b8ff" stroke="#63b8ff" points="1894.7,-57.46 1905.28,-56.8 1896.6,-50.72 1894.7,-57.46"/>
</a>
</g>
</g>
<!-- Node21 -->
<g id="Node000021" class="node">
<title>Node21</title>
<g id="a_Node000021"><a xlink:href="kest__effect__table_8c.html" target="_top" xlink:title=" ">
<polygon fill="white" stroke="#666666" points="1930.62,-20.75 1822.38,-20.75 1822.38,0 1930.62,0 1930.62,-20.75"/>
<text xml:space="preserve" text-anchor="middle" x="1876.5" y="-7.25" font-family="Helvetica,sans-Serif" font-size="10.00">kest_effect_table.c</text>
</a>
</g>
</g>
<!-- Node4&#45;&gt;Node21 -->
<g id="edge20_Node000004_Node000021" class="edge">
<title>Node4&#45;&gt;Node21</title>
<g id="a_edge20_Node000004_Node000021"><a xlink:title=" ">
<path fill="none" stroke="#63b8ff" d="M1918.95,-48.86C1908.57,-39.69 1896.19,-28.76 1887.49,-21.08"/>
<polygon fill="#63b8ff" stroke="#63b8ff" points="1916.47,-51.34 1926.28,-55.33 1921.1,-46.09 1916.47,-51.34"/>
</a>
</g>
</g>
<!-- Node22 -->
<g id="Node000022" class="node">
<title>Node22</title>
<g id="a_Node000022"><a xlink:href="kest__effect__view_8c.html" target="_top" xlink:title=" ">
<polygon fill="white" stroke="#666666" points="2054.5,-20.75 1948.5,-20.75 1948.5,0 2054.5,0 2054.5,-20.75"/>
<text xml:space="preserve" text-anchor="middle" x="2001.5" y="-7.25" font-family="Helvetica,sans-Serif" font-size="10.00">kest_effect_view.c</text>
</a>
</g>
</g>
<!-- Node4&#45;&gt;Node22 -->
<g id="edge21_Node000004_Node000022" class="edge">
<title>Node4&#45;&gt;Node22</title>
<g id="a_edge21_Node000004_Node000022"><a xlink:title=" ">
<path fill="none" stroke="#63b8ff" d="M1958.37,-48.86C1968.92,-39.69 1981.49,-28.76 1990.33,-21.08"/>
<polygon fill="#63b8ff" stroke="#63b8ff" points="1956.16,-46.14 1950.91,-55.34 1960.75,-51.43 1956.16,-46.14"/>
</a>
</g>
</g>
<!-- Node23 -->
<g id="Node000023" class="node">
<title>Node23</title>
<g id="a_Node000023"><a xlink:href="kest__expr__parser_8c.html" target="_top" xlink:title=" ">
<polygon fill="white" stroke="#666666" points="2180.25,-20.75 2072.75,-20.75 2072.75,0 2180.25,0 2180.25,-20.75"/>
<text xml:space="preserve" text-anchor="middle" x="2126.5" y="-7.25" font-family="Helvetica,sans-Serif" font-size="10.00">kest_expr_parser.c</text>
</a>
</g>
</g>
<!-- Node4&#45;&gt;Node23 -->
<g id="edge22_Node000004_Node000023" class="edge">
<title>Node4&#45;&gt;Node23</title>
<g id="a_edge22_Node000004_Node000023"><a xlink:title=" ">
<path fill="none" stroke="#63b8ff" d="M1981.33,-53.65C2015.16,-43.8 2061.69,-30.25 2092.86,-21.17"/>
<polygon fill="#63b8ff" stroke="#63b8ff" points="1980.47,-50.26 1971.84,-56.41 1982.42,-56.98 1980.47,-50.26"/>
</a>
</g>
</g>
<!-- Node24 -->
<g id="Node000024" class="node">
<title>Node24</title>
<g id="a_Node000024"><a xlink:href="kest__expr__scope_8c.html" target="_top" xlink:title=" ">
<polygon fill="white" stroke="#666666" points="2303.12,-20.75 2197.88,-20.75 2197.88,0 2303.12,0 2303.12,-20.75"/>
<text xml:space="preserve" text-anchor="middle" x="2250.5" y="-7.25" font-family="Helvetica,sans-Serif" font-size="10.00">kest_expr_scope.c</text>
</a>
</g>
</g>
<!-- Node4&#45;&gt;Node24 -->
<g id="edge23_Node000004_Node000024" class="edge">
<title>Node4&#45;&gt;Node24</title>
<g id="a_edge23_Node000004_Node000024"><a xlink:title=" ">
<path fill="none" stroke="#63b8ff" d="M1981.44,-58.59C2037.82,-48.7 2136.74,-31.34 2197.65,-20.65"/>
<polygon fill="#63b8ff" stroke="#63b8ff" points="1981.16,-55.09 1971.91,-60.26 1982.37,-61.98 1981.16,-55.09"/>
</a>
</g>
</g>
<!-- Node25 -->
<g id="Node000025" class="node">
<title>Node25</title>
<g id="a_Node000025"><a xlink:href="kest__expression_8c.html" target="_top" xlink:title=" ">
<polygon fill="white" stroke="#666666" points="2424,-20.75 2321,-20.75 2321,0 2424,0 2424,-20.75"/>
<text xml:space="preserve" text-anchor="middle" x="2372.5" y="-7.25" font-family="Helvetica,sans-Serif" font-size="10.00">kest_expression.c</text>
</a>
</g>
</g>
<!-- Node4&#45;&gt;Node25 -->
<g id="edge24_Node000004_Node000025" class="edge">
<title>Node4&#45;&gt;Node25</title>
<g id="a_edge24_Node000004_Node000025"><a xlink:title=" ">
<path fill="none" stroke="#63b8ff" d="M1981.94,-61.34C2051.72,-53.55 2193.08,-37.32 2312.5,-20.75 2315.22,-20.37 2318,-19.98 2320.81,-19.57"/>
<polygon fill="#63b8ff" stroke="#63b8ff" points="1981.62,-57.86 1972.07,-62.44 1982.4,-64.81 1981.62,-57.86"/>
</a>
</g>
</g>
<!-- Node26 -->
<g id="Node000026" class="node">
<title>Node26</title>
<g id="a_Node000026"><a xlink:href="kest__files_8c.html" target="_top" xlink:title=" ">
<polygon fill="white" stroke="#666666" points="2512.88,-20.75 2442.12,-20.75 2442.12,0 2512.88,0 2512.88,-20.75"/>
<text xml:space="preserve" text-anchor="middle" x="2477.5" y="-7.25" font-family="Helvetica,sans-Serif" font-size="10.00">kest_files.c</text>
</a>
</g>
</g>
<!-- Node4&#45;&gt;Node26 -->
<g id="edge25_Node000004_Node000026" class="edge">
<title>Node4&#45;&gt;Node26</title>
<g id="a_edge25_Node000004_Node000026"><a xlink:title=" ">
<path fill="none" stroke="#63b8ff" d="M1981.93,-63.88C2068.32,-59.03 2267.67,-45.93 2433.5,-20.75 2436.28,-20.33 2439.15,-19.84 2442.02,-19.31"/>
<polygon fill="#63b8ff" stroke="#63b8ff" points="1981.81,-60.38 1972.02,-64.43 1982.2,-67.37 1981.81,-60.38"/>
</a>
</g>
</g>
<!-- Node27 -->
<g id="Node000027" class="node">
<title>Node27</title>
<g id="a_Node000027"><a xlink:href="kest__fixed__point_8c.html" target="_top" xlink:title=" ">
<polygon fill="white" stroke="#666666" points="2635.75,-20.75 2531.25,-20.75 2531.25,0 2635.75,0 2635.75,-20.75"/>
<text xml:space="preserve" text-anchor="middle" x="2583.5" y="-7.25" font-family="Helvetica,sans-Serif" font-size="10.00">kest_fixed_point.c</text>
</a>
</g>
</g>
<!-- Node4&#45;&gt;Node27 -->
<g id="edge26_Node000004_Node000027" class="edge">
<title>Node4&#45;&gt;Node27</title>
<g id="a_edge26_Node000004_Node000027"><a xlink:title=" ">
<path fill="none" stroke="#63b8ff" d="M1981.85,-63.83C2078.79,-58.45 2320.35,-43.76 2521.5,-20.75 2524.53,-20.4 2527.64,-20.02 2530.77,-19.61"/>
<polygon fill="#63b8ff" stroke="#63b8ff" points="1981.8,-60.33 1972,-64.37 1982.18,-67.31 1981.8,-60.33"/>
</a>
</g>
</g>
<!-- Node28 -->
<g id="Node000028" class="node">
<title>Node28</title>
<g id="a_Node000028"><a xlink:href="kest__footswitch_8c.html" target="_top" xlink:title=" ">
<polygon fill="white" stroke="#666666" points="2754.88,-20.75 2654.12,-20.75 2654.12,0 2754.88,0 2754.88,-20.75"/>
<text xml:space="preserve" text-anchor="middle" x="2704.5" y="-7.25" font-family="Helvetica,sans-Serif" font-size="10.00">kest_footswitch.c</text>
</a>
</g>
</g>
<!-- Node4&#45;&gt;Node28 -->
<g id="edge27_Node000004_Node000028" class="edge">
<title>Node4&#45;&gt;Node28</title>
<g id="a_edge27_Node000004_Node000028"><a xlink:title=" ">
<path fill="none" stroke="#63b8ff" d="M1981.94,-64.71C2092.68,-60.79 2394.48,-48.26 2644.5,-20.75 2647.54,-20.42 2650.66,-20.04 2653.8,-19.63"/>
<polygon fill="#63b8ff" stroke="#63b8ff" points="1981.99,-61.2 1972.12,-65.05 1982.23,-68.2 1981.99,-61.2"/>
</a>
</g>
</g>
<!-- Node29 -->
<g id="Node000029" class="node">
<title>Node29</title>
<g id="a_Node000029"><a xlink:href="kest__fpga__comms_8c.html" target="_top" xlink:title=" ">
<polygon fill="white" stroke="#666666" points="2885.88,-20.75 2773.12,-20.75 2773.12,0 2885.88,0 2885.88,-20.75"/>
<text xml:space="preserve" text-anchor="middle" x="2829.5" y="-7.25" font-family="Helvetica,sans-Serif" font-size="10.00">kest_fpga_comms.c</text>
</a>
</g>
</g>
<!-- Node4&#45;&gt;Node29 -->
<g id="edge28_Node000004_Node000029" class="edge">
<title>Node4&#45;&gt;Node29</title>
<g id="a_edge28_Node000004_Node000029"><a xlink:title=" ">
<path fill="none" stroke="#63b8ff" d="M1981.9,-65.06C2104.77,-61.74 2465.43,-50.06 2763.5,-20.75 2766.49,-20.46 2769.56,-20.12 2772.66,-19.77"/>
<polygon fill="#63b8ff" stroke="#63b8ff" points="1981.85,-61.56 1971.94,-65.32 1982.03,-68.55 1981.85,-61.56"/>
</a>
</g>
</g>
<!-- Node30 -->
<g id="Node000030" class="node">
<title>Node30</title>
<g id="a_Node000030"><a xlink:href="kest__fpga__encoding_8c.html" target="_top" xlink:title=" ">
<polygon fill="white" stroke="#666666" points="3025,-20.75 2904,-20.75 2904,0 3025,0 3025,-20.75"/>
<text xml:space="preserve" text-anchor="middle" x="2964.5" y="-7.25" font-family="Helvetica,sans-Serif" font-size="10.00">kest_fpga_encoding.c</text>
</a>
</g>
</g>
<!-- Node4&#45;&gt;Node30 -->
<g id="edge29_Node000004_Node000030" class="edge">
<title>Node4&#45;&gt;Node30</title>
<g id="a_edge29_Node000004_Node000030"><a xlink:title=" ">
<path fill="none" stroke="#63b8ff" d="M1981.77,-65.39C2116.92,-62.82 2543.11,-52.56 2894.5,-20.75 2897.55,-20.47 2900.68,-20.16 2903.83,-19.82"/>
<polygon fill="#63b8ff" stroke="#63b8ff" points="1981.79,-61.89 1971.85,-65.58 1981.92,-68.89 1981.79,-61.89"/>
</a>
</g>
</g>
<!-- Node31 -->
<g id="Node000031" class="node">
<title>Node31</title>
<g id="a_Node000031"><a xlink:href="kest__fpga__io_8c.html" target="_top" xlink:title=" ">
<polygon fill="white" stroke="#666666" points="3128.38,-20.75 3042.62,-20.75 3042.62,0 3128.38,0 3128.38,-20.75"/>
<text xml:space="preserve" text-anchor="middle" x="3085.5" y="-7.25" font-family="Helvetica,sans-Serif" font-size="10.00">kest_fpga_io.c</text>
</a>
</g>
</g>
<!-- Node4&#45;&gt;Node31 -->
<g id="edge30_Node000004_Node000031" class="edge">
<title>Node4&#45;&gt;Node31</title>
<g id="a_edge30_Node000004_Node000031"><a xlink:title=" ">
<path fill="none" stroke="#63b8ff" d="M1981.66,-66.51C2129.19,-67.36 2626.81,-66.43 3034.5,-20.75 3037.01,-20.47 3039.57,-20.14 3042.16,-19.77"/>
<polygon fill="#63b8ff" stroke="#63b8ff" points="1981.99,-63.01 1971.97,-66.45 1981.95,-70.01 1981.99,-63.01"/>
</a>
</g>
</g>
<!-- Node32 -->
<g id="Node000032" class="node">
<title>Node32</title>
<g id="a_Node000032"><a xlink:href="kest__int_8c.html" target="_top" xlink:title=" ">
<polygon fill="white" stroke="#666666" points="3208.75,-20.75 3146.25,-20.75 3146.25,0 3208.75,0 3208.75,-20.75"/>
<text xml:space="preserve" text-anchor="middle" x="3177.5" y="-7.25" font-family="Helvetica,sans-Serif" font-size="10.00">kest_int.c</text>
</a>
</g>
</g>
<!-- Node4&#45;&gt;Node32 -->
<g id="edge31_Node000004_Node000032" class="edge">
<title>Node4&#45;&gt;Node32</title>
<g id="a_edge31_Node000004_Node000032"><a xlink:title=" ">
<path fill="none" stroke="#63b8ff" d="M1981.74,-65.6C2168.56,-63.18 2907.35,-51.78 3137.5,-20.75 3140.33,-20.37 3143.25,-19.88 3146.16,-19.32"/>
<polygon fill="#63b8ff" stroke="#63b8ff" points="1981.96,-62.1 1972.01,-65.73 1982.05,-69.1 1981.96,-62.1"/>
</a>
</g>
</g>
<!-- Node33 -->
<g id="Node000033" class="node">
<title>Node33</title>
<g id="a_Node000033"><a xlink:href="kest__lv__log_8c.html" target="_top" xlink:title=" ">
<polygon fill="white" stroke="#666666" points="3306,-20.75 3227,-20.75 3227,0 3306,0 3306,-20.75"/>
<text xml:space="preserve" text-anchor="middle" x="3266.5" y="-7.25" font-family="Helvetica,sans-Serif" font-size="10.00">kest_lv_log.c</text>
</a>
</g>
</g>
<!-- Node4&#45;&gt;Node33 -->
<g id="edge32_Node000004_Node000033" class="edge">
<title>Node4&#45;&gt;Node33</title>
<g id="a_edge32_Node000004_Node000033"><a xlink:title=" ">
<path fill="none" stroke="#63b8ff" d="M1982.03,-65.48C2176.9,-62.45 2970.29,-48.62 3217.5,-20.75 3220.51,-20.41 3223.62,-19.99 3226.73,-19.51"/>
<polygon fill="#63b8ff" stroke="#63b8ff" points="1982.05,-61.98 1972.1,-65.63 1982.16,-68.98 1982.05,-61.98"/>
</a>
</g>
</g>
<!-- Node34 -->
<g id="Node000034" class="node">
<title>Node34</title>
<g id="a_Node000034"><a xlink:href="kest__menu_8c.html" target="_top" xlink:title=" ">
<polygon fill="white" stroke="#666666" points="3401.25,-20.75 3323.75,-20.75 3323.75,0 3401.25,0 3401.25,-20.75"/>
<text xml:space="preserve" text-anchor="middle" x="3362.5" y="-7.25" font-family="Helvetica,sans-Serif" font-size="10.00">kest_menu.c</text>
</a>
</g>
</g>
<!-- Node4&#45;&gt;Node34 -->
<g id="edge33_Node000004_Node000034" class="edge">
<title>Node4&#45;&gt;Node34</title>
<g id="a_edge33_Node000004_Node000034"><a xlink:title=" ">
<path fill="none" stroke="#63b8ff" d="M1981.71,-65.66C2185.05,-63.3 3047.87,-51.64 3315.5,-20.75 3318.06,-20.45 3320.69,-20.09 3323.34,-19.69"/>
<polygon fill="#63b8ff" stroke="#63b8ff" points="1981.83,-62.15 1971.87,-65.77 1981.91,-69.15 1981.83,-62.15"/>
</a>
</g>
</g>
<!-- Node35 -->
<g id="Node000035" class="node">
<title>Node35</title>
<g id="a_Node000035"><a xlink:href="kest__page__id_8c.html" target="_top" xlink:title=" ">
<polygon fill="white" stroke="#666666" points="3507.5,-20.75 3419.5,-20.75 3419.5,0 3507.5,0 3507.5,-20.75"/>
<text xml:space="preserve" text-anchor="middle" x="3463.5" y="-7.25" font-family="Helvetica,sans-Serif" font-size="10.00">kest_page_id.c</text>
</a>
</g>
</g>
<!-- Node4&#45;&gt;Node35 -->
<g id="edge34_Node000004_Node000035" class="edge">
<title>Node4&#45;&gt;Node35</title>
<g id="a_edge34_Node000004_Node000035"><a xlink:title=" ">
<path fill="none" stroke="#63b8ff" d="M1981.59,-65.64C2193.09,-63.11 3122.67,-50.49 3410.5,-20.75 3413.29,-20.46 3416.15,-20.11 3419.03,-19.72"/>
<polygon fill="#63b8ff" stroke="#63b8ff" points="1981.85,-62.13 1971.89,-65.75 1981.93,-69.13 1981.85,-62.13"/>
</a>
</g>
</g>
<!-- Node36 -->
<g id="Node000036" class="node">
<title>Node36</title>
<g id="a_Node000036"><a xlink:href="kest__param__update_8c.html" target="_top" xlink:title=" ">
<polygon fill="white" stroke="#666666" points="3645.62,-20.75 3525.38,-20.75 3525.38,0 3645.62,0 3645.62,-20.75"/>
<text xml:space="preserve" text-anchor="middle" x="3585.5" y="-7.25" font-family="Helvetica,sans-Serif" font-size="10.00">kest_param_update.c</text>
</a>
</g>
</g>
<!-- Node4&#45;&gt;Node36 -->
<g id="edge35_Node000004_Node000036" class="edge">
<title>Node4&#45;&gt;Node36</title>
<g id="a_edge35_Node000004_Node000036"><a xlink:title=" ">
<path fill="none" stroke="#63b8ff" d="M1981.8,-65.5C2202.72,-62.24 3206.04,-46.23 3516.5,-20.75 3519.27,-20.52 3522.1,-20.26 3524.96,-19.97"/>
<polygon fill="#63b8ff" stroke="#63b8ff" points="1981.87,-62 1971.92,-65.65 1981.97,-69 1981.87,-62"/>
</a>
</g>
</g>
<!-- Node37 -->
<g id="Node000037" class="node">
<title>Node37</title>
<g id="a_Node000037"><a xlink:href="kest__parameter_8c.html" target="_top" xlink:title=" ">
<polygon fill="white" stroke="#666666" points="3764.88,-20.75 3664.12,-20.75 3664.12,0 3764.88,0 3764.88,-20.75"/>
<text xml:space="preserve" text-anchor="middle" x="3714.5" y="-7.25" font-family="Helvetica,sans-Serif" font-size="10.00">kest_parameter.c</text>
</a>
</g>
</g>
<!-- Node4&#45;&gt;Node37 -->
<g id="edge36_Node000004_Node000037" class="edge">
<title>Node4&#45;&gt;Node37</title>
<g id="a_edge36_Node000004_Node000037"><a xlink:title=" ">
<path fill="none" stroke="#63b8ff" d="M1981.83,-65.74C2214.26,-63.53 3315.37,-51.6 3654.5,-20.75 3657.54,-20.47 3660.67,-20.14 3663.82,-19.76"/>
<polygon fill="#63b8ff" stroke="#63b8ff" points="1981.98,-62.23 1972.02,-65.83 1982.05,-69.23 1981.98,-62.23"/>
</a>
</g>
</g>
<!-- Node38 -->
<g id="Node000038" class="node">
<title>Node38</title>
<g id="a_Node000038"><a xlink:href="kest__parameter__widget_8c.html" target="_top" xlink:title=" ">
<polygon fill="white" stroke="#666666" points="3922,-20.75 3783,-20.75 3783,0 3922,0 3922,-20.75"/>
<text xml:space="preserve" text-anchor="middle" x="3852.5" y="-7.25" font-family="Helvetica,sans-Serif" font-size="10.00">kest_parameter_widget.c</text>
</a>
</g>
</g>
<!-- Node4&#45;&gt;Node38 -->
<g id="edge37_Node000004_Node000038" class="edge">
<title>Node4&#45;&gt;Node38</title>
<g id="a_edge37_Node000004_Node000038"><a xlink:title=" ">
<path fill="none" stroke="#63b8ff" d="M1982.08,-65.6C2224.49,-62.6 3408.95,-46.83 3773.5,-20.75 3776.53,-20.53 3779.62,-20.28 3782.75,-20.01"/>
<polygon fill="#63b8ff" stroke="#63b8ff" points="1982.09,-62.1 1972.13,-65.72 1982.17,-69.1 1982.09,-62.1"/>
</a>
</g>
</g>
<!-- Node56&#45;&gt;Node3 -->
<g id="edge39_Node000056_Node000003" class="edge">
<title>Node56&#45;&gt;Node3</title>
<g id="a_edge39_Node000056_Node000003"><a xlink:title=" ">
<path fill="none" stroke="#63b8ff" d="M1861.91,-105.33C1852.26,-96.22 1840.84,-85.43 1832.78,-77.83"/>
<polygon fill="#63b8ff" stroke="#63b8ff" points="1859.36,-107.73 1869.03,-112.05 1864.16,-102.64 1859.36,-107.73"/>
</a>
</g>
</g>
<!-- Node56&#45;&gt;Node4 -->
<g id="edge40_Node000056_Node000004" class="edge">
<title>Node56&#45;&gt;Node4</title>
<g id="a_edge40_Node000056_Node000004"><a xlink:title=" ">
<path fill="none" stroke="#63b8ff" d="M1899.09,-105.33C1908.74,-96.22 1920.16,-85.43 1928.22,-77.83"/>
<polygon fill="#63b8ff" stroke="#63b8ff" points="1896.84,-102.64 1891.97,-112.05 1901.64,-107.73 1896.84,-102.64"/>
</a>
</g>
</g>
</g>
</svg>
