<?xml version="1.0" encoding="UTF-8" standalone="no"?>
<!DOCTYPE svg PUBLIC "-//W3C//DTD SVG 1.1//EN"
 "http://www.w3.org/Graphics/SVG/1.1/DTD/svg11.dtd">
<!-- Generated by graphviz version 13.1.2 (20250808.2320)
 -->
<!-- Title: init_parameter Pages: 1 -->
<svg width="592pt" height="306pt"
 viewBox="0.00 0.00 592.00 306.00" xmlns="http://www.w3.org/2000/svg" xmlns:xlink="http://www.w3.org/1999/xlink">
<g id="graph0" class="graph" transform="scale(1 1) rotate(0) translate(4 301.75)">
<title>init_parameter</title>
<!-- Node1 -->
<g id="Node000001" class="node">
<title>Node1</title>
<g id="a_Node000001"><a xlink:title=" ">
<polygon fill="#999999" stroke="#666666" points="583.75,-78.75 495.75,-78.75 495.75,-58 583.75,-58 583.75,-78.75"/>
<text xml:space="preserve" text-anchor="middle" x="539.75" y="-65.25" font-family="Helvetica,sans-Serif" font-size="10.00">init_parameter</text>
</a>
</g>
</g>
<!-- Node2 -->
<g id="Node000002" class="node">
<title>Node2</title>
<g id="a_Node000002"><a xlink:href="kest__effect_8c.html#a6d9927f6d82c964bd07bef5c77879010" target="_top" xlink:title=" ">
<polygon fill="white" stroke="#666666" points="437.25,-234.75 371.75,-234.75 371.75,-214 437.25,-214 437.25,-234.75"/>
<text xml:space="preserve" text-anchor="middle" x="404.5" y="-221.25" font-family="Helvetica,sans-Serif" font-size="10.00">init_effect</text>
</a>
</g>
</g>
<!-- Node1&#45;&gt;Node2 -->
<g id="edge1_Node000001_Node000002" class="edge">
<title>Node1&#45;&gt;Node2</title>
<g id="a_edge1_Node000001_Node000002"><a xlink:title=" ">
<path fill="none" stroke="#63b8ff" d="M522.44,-87.47C494.19,-120.54 437.04,-187.45 414.72,-213.58"/>
<polygon fill="#63b8ff" stroke="#63b8ff" points="524.77,-90.13 528.61,-80.25 519.45,-85.58 524.77,-90.13"/>
</a>
</g>
</g>
<!-- Node19 -->
<g id="Node000019" class="node">
<title>Node19</title>
<g id="a_Node000019"><a xlink:href="kest__profile_8c.html#a417513ac62c9729d2ade560580ca6618" target="_top" xlink:title=" ">
<polygon fill="white" stroke="#666666" points="446.25,-117.75 362.75,-117.75 362.75,-97 446.25,-97 446.25,-117.75"/>
<text xml:space="preserve" text-anchor="middle" x="404.5" y="-104.25" font-family="Helvetica,sans-Serif" font-size="10.00">init_m_profile</text>
</a>
</g>
</g>
<!-- Node1&#45;&gt;Node19 -->
<g id="edge7_Node000001_Node000019" class="edge">
<title>Node1&#45;&gt;Node19</title>
<g id="a_edge7_Node000001_Node000019"><a xlink:title=" ">
<path fill="none" stroke="#63b8ff" d="M490.89,-82.38C474.93,-87.05 457.41,-92.18 442.42,-96.57"/>
<polygon fill="#63b8ff" stroke="#63b8ff" points="491.57,-85.83 500.18,-79.66 489.6,-79.11 491.57,-85.83"/>
</a>
</g>
</g>
<!-- Node23 -->
<g id="Node000023" class="node">
<title>Node23</title>
<g id="a_Node000023"><a xlink:href="kest__parameter_8c.html#afcc9188cca32abf00e8c9d5028edbb68" target="_top" xlink:title=" ">
<polygon fill="white" stroke="#666666" points="459.75,-21.75 349.25,-21.75 349.25,-1 459.75,-1 459.75,-21.75"/>
<text xml:space="preserve" text-anchor="middle" x="404.5" y="-8.25" font-family="Helvetica,sans-Serif" font-size="10.00">init_parameter_wni</text>
</a>
</g>
</g>
<!-- Node1&#45;&gt;Node23 -->
<g id="edge14_Node000001_Node000023" class="edge">
<title>Node1&#45;&gt;Node23</title>
<g id="a_edge14_Node000001_Node000023"><a xlink:title=" ">
<path fill="none" stroke="#63b8ff" d="M503.06,-53.11C480.25,-43.35 451.22,-30.93 430.78,-22.19"/>
<polygon fill="#63b8ff" stroke="#63b8ff" points="501.41,-56.21 511.98,-56.92 504.16,-49.77 501.41,-56.21"/>
</a>
</g>
</g>
<!-- Node25 -->
<g id="Node000025" class="node">
<title>Node25</title>
<g id="a_Node000025"><a xlink:href="kest__context_8c.html#a8d785a89178c048ac11ee14f2a659993" target="_top" xlink:title=" ">
<polygon fill="white" stroke="#666666" points="285.12,-59.75 185.88,-59.75 185.88,-39 285.12,-39 285.12,-59.75"/>
<text xml:space="preserve" text-anchor="middle" x="235.5" y="-46.25" font-family="Helvetica,sans-Serif" font-size="10.00">kest_init_context</text>
</a>
</g>
</g>
<!-- Node1&#45;&gt;Node25 -->
<g id="edge16_Node000001_Node000025" class="edge">
<title>Node1&#45;&gt;Node25</title>
<g id="a_edge16_Node000001_Node000025"><a xlink:title=" ">
<path fill="none" stroke="#63b8ff" d="M484.21,-64.95C427.62,-61.39 339.93,-55.88 285.49,-52.45"/>
<polygon fill="#63b8ff" stroke="#63b8ff" points="483.73,-68.42 493.93,-65.56 484.17,-61.44 483.73,-68.42"/>
</a>
</g>
</g>
<!-- Node3 -->
<g id="Node000003" class="node">
<title>Node3</title>
<g id="a_Node000003"><a xlink:href="kest__effect_8c.html#a935977843051ad81db1a153f2956658e" target="_top" xlink:title=" ">
<polygon fill="white" stroke="#666666" points="273.5,-296.75 197.5,-296.75 197.5,-276 273.5,-276 273.5,-296.75"/>
<text xml:space="preserve" text-anchor="middle" x="235.5" y="-283.25" font-family="Helvetica,sans-Serif" font-size="10.00">clone_effect</text>
</a>
</g>
</g>
<!-- Node2&#45;&gt;Node3 -->
<g id="edge2_Node000002_Node000003" class="edge">
<title>Node2&#45;&gt;Node3</title>
<g id="a_edge2_Node000002_Node000003"><a xlink:title=" ">
<path fill="none" stroke="#63b8ff" d="M370,-239.96C353.16,-247.51 332.32,-256.42 313.25,-263.38 300.57,-268 286.48,-272.42 273.87,-276.13"/>
<polygon fill="#63b8ff" stroke="#63b8ff" points="371.39,-243.18 379.05,-235.86 368.5,-236.8 371.39,-243.18"/>
</a>
</g>
</g>
<!-- Node6 -->
<g id="Node000006" class="node">
<title>Node6</title>
<g id="a_Node000006"><a xlink:href="kest__effect_8c.html#a85b25e44e2629962673634f965ffe304" target="_top" xlink:title=" ">
<polygon fill="white" stroke="#666666" points="313.25,-254.75 157.75,-254.75 157.75,-234 313.25,-234 313.25,-254.75"/>
<text xml:space="preserve" text-anchor="middle" x="235.5" y="-241.25" font-family="Helvetica,sans-Serif" font-size="10.00">init_effect_from_effect_desc</text>
</a>
</g>
</g>
<!-- Node2&#45;&gt;Node6 -->
<g id="edge4_Node000002_Node000006" class="edge">
<title>Node2&#45;&gt;Node6</title>
<g id="a_edge4_Node000002_Node000006"><a xlink:title=" ">
<path fill="none" stroke="#63b8ff" d="M359.9,-229.6C345.71,-231.3 329.51,-233.24 313.61,-235.14"/>
<polygon fill="#63b8ff" stroke="#63b8ff" points="360.29,-233.08 369.8,-228.41 359.45,-226.13 360.29,-233.08"/>
</a>
</g>
</g>
<!-- Node18 -->
<g id="Node000018" class="node">
<title>Node18</title>
<g id="a_Node000018"><a xlink:href="kest__effect__init_8c.html#a2e48b19e5588065e64b5003fe8f25f04" target="_top" xlink:title=" ">
<polygon fill="white" stroke="#666666" points="289.25,-215.75 181.75,-215.75 181.75,-195 289.25,-195 289.25,-215.75"/>
<text xml:space="preserve" text-anchor="middle" x="235.5" y="-202.25" font-family="Helvetica,sans-Serif" font-size="10.00">init_effect_of_type</text>
</a>
</g>
</g>
<!-- Node2&#45;&gt;Node18 -->
<g id="edge6_Node000002_Node000018" class="edge">
<title>Node2&#45;&gt;Node18</title>
<g id="a_edge6_Node000002_Node000018"><a xlink:title=" ">
<path fill="none" stroke="#63b8ff" d="M359.88,-219.41C338.39,-216.97 312.28,-214 289.63,-211.42"/>
<polygon fill="#63b8ff" stroke="#63b8ff" points="359.47,-222.89 369.8,-220.54 360.26,-215.93 359.47,-222.89"/>
</a>
</g>
</g>
<!-- Node4 -->
<g id="Node000004" class="node">
<title>Node4</title>
<g id="a_Node000004"><a xlink:href="kest__pipeline_8c.html#af22e3efe71ee44cc8dcf5a46af1c05ec" target="_top" xlink:title=" ">
<polygon fill="#fff0f0" stroke="red" points="104.12,-297.75 17.62,-297.75 17.62,-277 104.12,-277 104.12,-297.75"/>
<text xml:space="preserve" text-anchor="middle" x="60.88" y="-284.25" font-family="Helvetica,sans-Serif" font-size="10.00">clone_pipeline</text>
</a>
</g>
</g>
<!-- Node3&#45;&gt;Node4 -->
<g id="edge3_Node000003_Node000004" class="edge">
<title>Node3&#45;&gt;Node4</title>
<g id="a_edge3_Node000003_Node000004"><a xlink:title=" ">
<path fill="none" stroke="#63b8ff" d="M185.71,-286.66C160.1,-286.81 129.03,-286.99 104.42,-287.13"/>
<polygon fill="#63b8ff" stroke="#63b8ff" points="185.55,-290.16 195.53,-286.6 185.51,-283.16 185.55,-290.16"/>
</a>
</g>
</g>
<!-- Node7 -->
<g id="Node000007" class="node">
<title>Node7</title>
<g id="a_Node000007"><a xlink:href="kest__pipeline_8c.html#a0eff55a4103a090993bbac228a981af6" target="_top" xlink:title=" ">
<polygon fill="#fff0f0" stroke="red" points="121.75,-259.12 0,-259.12 0,-225.62 121.75,-225.62 121.75,-259.12"/>
<text xml:space="preserve" text-anchor="start" x="8" y="-245.62" font-family="Helvetica,sans-Serif" font-size="10.00">kest_pipeline_append</text>
<text xml:space="preserve" text-anchor="middle" x="60.88" y="-232.88" font-family="Helvetica,sans-Serif" font-size="10.00">_effect_eff</text>
</a>
</g>
</g>
<!-- Node6&#45;&gt;Node7 -->
<g id="edge5_Node000006_Node000007" class="edge">
<title>Node6&#45;&gt;Node7</title>
<g id="a_edge5_Node000006_Node000007"><a xlink:title=" ">
<path fill="none" stroke="#63b8ff" d="M145.93,-243.35C137.9,-243.26 129.9,-243.16 122.2,-243.07"/>
<polygon fill="#63b8ff" stroke="#63b8ff" points="145.72,-246.85 155.76,-243.46 145.8,-239.85 145.72,-246.85"/>
</a>
</g>
</g>
<!-- Node20 -->
<g id="Node000020" class="node">
<title>Node20</title>
<g id="a_Node000020"><a xlink:href="kest__context_8c.html#a197c4a2d342fa09268805b00cdcfaff0" target="_top" xlink:title=" ">
<polygon fill="white" stroke="#666666" points="304.62,-176.75 166.38,-176.75 166.38,-156 304.62,-156 304.62,-176.75"/>
<text xml:space="preserve" text-anchor="middle" x="235.5" y="-163.25" font-family="Helvetica,sans-Serif" font-size="10.00">kest_context_add_profile</text>
</a>
</g>
</g>
<!-- Node19&#45;&gt;Node20 -->
<g id="edge8_Node000019_Node000020" class="edge">
<title>Node19&#45;&gt;Node20</title>
<g id="a_edge8_Node000019_Node000020"><a xlink:title=" ">
<path fill="none" stroke="#63b8ff" d="M371.28,-122.73C354.27,-130.46 332.9,-139.61 313.25,-146.38 303.48,-149.74 292.85,-152.84 282.7,-155.56"/>
<polygon fill="#63b8ff" stroke="#63b8ff" points="372.26,-126.13 379.88,-118.76 369.33,-119.77 372.26,-126.13"/>
</a>
</g>
</g>
<!-- Node21 -->
<g id="Node000021" class="node">
<title>Node21</title>
<g id="a_Node000021"><a xlink:href="kest__context_8c.html#a6940c938261204306d9a9b789bee846f" target="_top" xlink:title=" ">
<polygon fill="white" stroke="#666666" points="312.12,-137.75 158.88,-137.75 158.88,-117 312.12,-117 312.12,-137.75"/>
<text xml:space="preserve" text-anchor="middle" x="235.5" y="-124.25" font-family="Helvetica,sans-Serif" font-size="10.00">kest_context_add_profile_rp</text>
</a>
</g>
</g>
<!-- Node19&#45;&gt;Node21 -->
<g id="edge9_Node000019_Node000021" class="edge">
<title>Node19&#45;&gt;Node21</title>
<g id="a_edge9_Node000019_Node000021"><a xlink:title=" ">
<path fill="none" stroke="#63b8ff" d="M351.22,-113.64C338.93,-115.11 325.58,-116.71 312.47,-118.28"/>
<polygon fill="#63b8ff" stroke="#63b8ff" points="351.63,-117.11 361.14,-112.45 350.8,-110.16 351.63,-117.11"/>
</a>
</g>
</g>
<!-- Node17 -->
<g id="Node000017" class="node">
<title>Node17</title>
<g id="a_Node000017"><a xlink:href="kest__files_8c.html#a9a8521ad7db2dd3514b6ece8c4d6d787" target="_top" xlink:title=" ">
<polygon fill="white" stroke="#666666" points="292.25,-98.75 178.75,-98.75 178.75,-78 292.25,-78 292.25,-98.75"/>
<text xml:space="preserve" text-anchor="middle" x="235.5" y="-85.25" font-family="Helvetica,sans-Serif" font-size="10.00">load_saved_profiles</text>
</a>
</g>
</g>
<!-- Node19&#45;&gt;Node17 -->
<g id="edge11_Node000019_Node000017" class="edge">
<title>Node19&#45;&gt;Node17</title>
<g id="a_edge11_Node000019_Node000017"><a xlink:title=" ">
<path fill="none" stroke="#63b8ff" d="M351.4,-101.45C332.75,-99.33 311.66,-96.93 292.69,-94.77"/>
<polygon fill="#63b8ff" stroke="#63b8ff" points="350.81,-104.9 361.14,-102.56 351.6,-97.95 350.81,-104.9"/>
</a>
</g>
</g>
<!-- Node22 -->
<g id="Node000022" class="node">
<title>Node22</title>
<g id="a_Node000022"><a xlink:href="kest__profile_8c.html#a9222b6f2a0efa93ce0168e1bb530d733" target="_top" xlink:title=" ">
<polygon fill="white" stroke="#666666" points="115.38,-150.12 6.38,-150.12 6.38,-116.62 115.38,-116.62 115.38,-150.12"/>
<text xml:space="preserve" text-anchor="start" x="14.38" y="-136.62" font-family="Helvetica,sans-Serif" font-size="10.00">create_new_profile</text>
<text xml:space="preserve" text-anchor="middle" x="60.88" y="-123.88" font-family="Helvetica,sans-Serif" font-size="10.00">_with_teensy</text>
</a>
</g>
</g>
<!-- Node21&#45;&gt;Node22 -->
<g id="edge10_Node000021_Node000022" class="edge">
<title>Node21&#45;&gt;Node22</title>
<g id="a_edge10_Node000021_Node000022"><a xlink:title=" ">
<path fill="none" stroke="#63b8ff" d="M147.36,-130.4C136.62,-130.78 125.89,-131.15 115.85,-131.5"/>
<polygon fill="#63b8ff" stroke="#63b8ff" points="147.15,-133.91 157.02,-130.07 146.9,-126.92 147.15,-133.91"/>
</a>
</g>
</g>
<!-- Node13 -->
<g id="Node000013" class="node">
<title>Node13</title>
<g id="a_Node000013"><a xlink:href="kest__int_8c.html#abce06be17fc37d675118a678a8100a36" target="_top" xlink:title=" ">
<polygon fill="white" stroke="#666666" points="92.88,-59.75 28.88,-59.75 28.88,-39 92.88,-39 92.88,-59.75"/>
<text xml:space="preserve" text-anchor="middle" x="60.88" y="-46.25" font-family="Helvetica,sans-Serif" font-size="10.00">app_main</text>
</a>
</g>
</g>
<!-- Node17&#45;&gt;Node13 -->
<g id="edge12_Node000017_Node000013" class="edge">
<title>Node17&#45;&gt;Node13</title>
<g id="a_edge12_Node000017_Node000013"><a xlink:title=" ">
<path fill="none" stroke="#63b8ff" d="M175.28,-74.99C147.68,-68.76 115.97,-61.6 93.12,-56.43"/>
<polygon fill="#63b8ff" stroke="#63b8ff" points="174.41,-78.39 184.94,-77.18 175.96,-71.56 174.41,-78.39"/>
</a>
</g>
</g>
<!-- Node14 -->
<g id="Node000014" class="node">
<title>Node14</title>
<g id="a_Node000014"><a xlink:href="kest__desktop_8c.html#ab499a4f71ef4cfc807b60d8739750c3e" target="_top" xlink:title=" ">
<polygon fill="#fff0f0" stroke="red" points="94.38,-98.75 27.38,-98.75 27.38,-78 94.38,-78 94.38,-98.75"/>
<text xml:space="preserve" text-anchor="middle" x="60.88" y="-85.25" font-family="Helvetica,sans-Serif" font-size="10.00">main_task</text>
</a>
</g>
</g>
<!-- Node17&#45;&gt;Node14 -->
<g id="edge13_Node000017_Node000014" class="edge">
<title>Node17&#45;&gt;Node14</title>
<g id="a_edge13_Node000017_Node000014"><a xlink:title=" ">
<path fill="none" stroke="#63b8ff" d="M167.21,-88.38C142.34,-88.38 115.24,-88.38 94.76,-88.38"/>
<polygon fill="#63b8ff" stroke="#63b8ff" points="166.94,-91.88 176.94,-88.38 166.94,-84.88 166.94,-91.88"/>
</a>
</g>
</g>
<!-- Node24 -->
<g id="Node000024" class="node">
<title>Node24</title>
<g id="a_Node000024"><a xlink:href="kest__parameter_8c.html#ae4e1091e0702399354b9fe2b66aff7e5" target="_top" xlink:title=" ">
<polygon fill="white" stroke="#666666" points="300.5,-20.75 170.5,-20.75 170.5,0 300.5,0 300.5,-20.75"/>
<text xml:space="preserve" text-anchor="middle" x="235.5" y="-7.25" font-family="Helvetica,sans-Serif" font-size="10.00">new_m_parameter_wni</text>
</a>
</g>
</g>
<!-- Node23&#45;&gt;Node24 -->
<g id="edge15_Node000023_Node000024" class="edge">
<title>Node23&#45;&gt;Node24</title>
<g id="a_edge15_Node000023_Node000024"><a xlink:title=" ">
<path fill="none" stroke="#63b8ff" d="M337.47,-10.98C325.43,-10.91 312.88,-10.83 300.89,-10.76"/>
<polygon fill="#63b8ff" stroke="#63b8ff" points="337.28,-14.48 347.3,-11.04 337.33,-7.48 337.28,-14.48"/>
</a>
</g>
</g>
<!-- Node25&#45;&gt;Node13 -->
<g id="edge17_Node000025_Node000013" class="edge">
<title>Node25&#45;&gt;Node13</title>
<g id="a_edge17_Node000025_Node000013"><a xlink:title=" ">
<path fill="none" stroke="#63b8ff" d="M174.09,-49.38C146.85,-49.38 115.82,-49.38 93.3,-49.38"/>
<polygon fill="#63b8ff" stroke="#63b8ff" points="173.98,-52.88 183.98,-49.38 173.98,-45.88 173.98,-52.88"/>
</a>
</g>
</g>
<!-- Node25&#45;&gt;Node14 -->
<g id="edge18_Node000025_Node000014" class="edge">
<title>Node25&#45;&gt;Node14</title>
<g id="a_edge18_Node000025_Node000014"><a xlink:title=" ">
<path fill="none" stroke="#63b8ff" d="M175.5,-62.7C148.49,-68.81 117.48,-75.81 94.7,-80.96"/>
<polygon fill="#63b8ff" stroke="#63b8ff" points="175.96,-66.19 184.94,-60.57 174.41,-59.36 175.96,-66.19"/>
</a>
</g>
</g>
</g>
</svg>
