<?xml version="1.0" encoding="UTF-8" standalone="no"?>
<!DOCTYPE svg PUBLIC "-//W3C//DTD SVG 1.1//EN"
 "http://www.w3.org/Graphics/SVG/1.1/DTD/svg11.dtd">
<!-- Generated by graphviz version 13.1.2 (20250808.2320)
 -->
<!-- Title: kest_dictionary_section_lookup_float Pages: 1 -->
<svg width="632pt" height="42pt"
 viewBox="0.00 0.00 632.00 42.00" xmlns="http://www.w3.org/2000/svg" xmlns:xlink="http://www.w3.org/1999/xlink">
<g id="graph0" class="graph" transform="scale(1 1) rotate(0) translate(4 37.5)">
<title>kest_dictionary_section_lookup_float</title>
<!-- Node1 -->
<g id="Node000001" class="node">
<title>Node1</title>
<g id="a_Node000001"><a xlink:title=" ">
<polygon fill="#999999" stroke="#666666" points="130.75,-33.5 0,-33.5 0,0 130.75,0 130.75,-33.5"/>
<text xml:space="preserve" text-anchor="start" x="8" y="-20" font-family="Helvetica,sans-Serif" font-size="10.00">kest_dictionary_section</text>
<text xml:space="preserve" text-anchor="middle" x="65.38" y="-7.25" font-family="Helvetica,sans-Serif" font-size="10.00">_lookup_float</text>
</a>
</g>
</g>
<!-- Node2 -->
<g id="Node000002" class="node">
<title>Node2</title>
<g id="a_Node000002"><a xlink:href="kest__dictionary_8c.html#ac0d717121bfefc909ebb35791957e2e7" target="_top" xlink:title=" ">
<polygon fill="white" stroke="#666666" points="295.25,-33.5 166.75,-33.5 166.75,0 295.25,0 295.25,-33.5"/>
<text xml:space="preserve" text-anchor="start" x="174.75" y="-20" font-family="Helvetica,sans-Serif" font-size="10.00">kest_dictionary_lookup</text>
<text xml:space="preserve" text-anchor="middle" x="231" y="-7.25" font-family="Helvetica,sans-Serif" font-size="10.00">_float</text>
</a>
</g>
</g>
<!-- Node1&#45;&gt;Node2 -->
<g id="edge1_Node000001_Node000002" class="edge">
<title>Node1&#45;&gt;Node2</title>
<g id="a_edge1_Node000001_Node000002"><a xlink:title=" ">
<path fill="none" stroke="#63b8ff" d="M131.04,-16.75C138.94,-16.75 147.05,-16.75 155.08,-16.75"/>
<polygon fill="#63b8ff" stroke="#63b8ff" points="154.82,-20.25 164.82,-16.75 154.82,-13.25 154.82,-20.25"/>
</a>
</g>
</g>
<!-- Node3 -->
<g id="Node000003" class="node">
<title>Node3</title>
<g id="a_Node000003"><a xlink:href="kest__dictionary_8c.html#ac32514fb9876c48a7b489fa4686fbdbd" target="_top" xlink:title=" ">
<polygon fill="white" stroke="#666666" points="459.75,-27.12 331.25,-27.12 331.25,-6.38 459.75,-6.38 459.75,-27.12"/>
<text xml:space="preserve" text-anchor="middle" x="395.5" y="-13.62" font-family="Helvetica,sans-Serif" font-size="10.00">kest_dictionary_lookup</text>
</a>
</g>
</g>
<!-- Node2&#45;&gt;Node3 -->
<g id="edge2_Node000002_Node000003" class="edge">
<title>Node2&#45;&gt;Node3</title>
<g id="a_edge2_Node000002_Node000003"><a xlink:title=" ">
<path fill="none" stroke="#63b8ff" d="M295.29,-16.75C303.23,-16.75 311.4,-16.75 319.49,-16.75"/>
<polygon fill="#63b8ff" stroke="#63b8ff" points="319.33,-20.25 329.33,-16.75 319.33,-13.25 319.33,-20.25"/>
</a>
</g>
</g>
<!-- Node4 -->
<g id="Node000004" class="node">
<title>Node4</title>
<g id="a_Node000004"><a xlink:href="kest__dictionary_8c.html#aed95d5d56052a9f450a8fca4a415cb1e" target="_top" xlink:title=" ">
<polygon fill="white" stroke="#666666" points="623.5,-33.5 495.75,-33.5 495.75,0 623.5,0 623.5,-33.5"/>
<text xml:space="preserve" text-anchor="start" x="503.75" y="-20" font-family="Helvetica,sans-Serif" font-size="10.00">kest_dictionary_bucket</text>
<text xml:space="preserve" text-anchor="middle" x="559.62" y="-7.25" font-family="Helvetica,sans-Serif" font-size="10.00">_lookup</text>
</a>
</g>
</g>
<!-- Node3&#45;&gt;Node4 -->
<g id="edge3_Node000003_Node000004" class="edge">
<title>Node3&#45;&gt;Node4</title>
<g id="a_edge3_Node000003_Node000004"><a xlink:title=" ">
<path fill="none" stroke="#63b8ff" d="M460.11,-16.75C468.01,-16.75 476.14,-16.75 484.18,-16.75"/>
<polygon fill="#63b8ff" stroke="#63b8ff" points="483.95,-20.25 493.95,-16.75 483.95,-13.25 483.95,-20.25"/>
</a>
</g>
</g>
</g>
</svg>
