<?xml version="1.0" encoding="UTF-8" standalone="no"?>
<!DOCTYPE svg PUBLIC "-//W3C//DTD SVG 1.1//EN"
 "http://www.w3.org/Graphics/SVG/1.1/DTD/svg11.dtd">
<!-- Generated by graphviz version 13.1.2 (20250808.2320)
 -->
<!-- Title: sw_field_reject Pages: 1 -->
<svg width="542pt" height="29pt"
 viewBox="0.00 0.00 542.00 29.00" xmlns="http://www.w3.org/2000/svg" xmlns:xlink="http://www.w3.org/1999/xlink">
<g id="graph0" class="graph" transform="scale(1 1) rotate(0) translate(4 24.75)">
<title>sw_field_reject</title>
<!-- Node1 -->
<g id="Node000001" class="node">
<title>Node1</title>
<g id="a_Node000001"><a xlink:title=" ">
<polygon fill="#999999" stroke="#666666" points="534.25,-20.75 444.75,-20.75 444.75,0 534.25,0 534.25,-20.75"/>
<text xml:space="preserve" text-anchor="middle" x="489.5" y="-7.25" font-family="Helvetica,sans-Serif" font-size="10.00">sw_field_reject</text>
</a>
</g>
</g>
<!-- Node2 -->
<g id="Node000002" class="node">
<title>Node2</title>
<g id="a_Node000002"><a xlink:href="kest__parameter__widget_8c.html#a22b7fa4ae5f9628f2da2155f58c2635c" target="_top" xlink:title=" ">
<polygon fill="white" stroke="#666666" points="408.75,-20.75 307.25,-20.75 307.25,0 408.75,0 408.75,-20.75"/>
<text xml:space="preserve" text-anchor="middle" x="358" y="-7.25" font-family="Helvetica,sans-Serif" font-size="10.00">sw_field_save_cb</text>
</a>
</g>
</g>
<!-- Node1&#45;&gt;Node2 -->
<g id="edge1_Node000001_Node000002" class="edge">
<title>Node1&#45;&gt;Node2</title>
<g id="a_edge1_Node000001_Node000002"><a xlink:title=" ">
<path fill="none" stroke="#63b8ff" d="M432.94,-10.38C425.07,-10.38 417.01,-10.38 409.24,-10.38"/>
<polygon fill="#63b8ff" stroke="#63b8ff" points="432.78,-13.88 442.78,-10.38 432.78,-6.88 432.78,-13.88"/>
</a>
</g>
</g>
<!-- Node3 -->
<g id="Node000003" class="node">
<title>Node3</title>
<g id="a_Node000003"><a xlink:href="kest__parameter__widget_8c.html#a5a6ebded10138ba55624e195ae4f4309" target="_top" xlink:title=" ">
<polygon fill="white" stroke="#666666" points="271.25,-20.75 174.25,-20.75 174.25,0 271.25,0 271.25,-20.75"/>
<text xml:space="preserve" text-anchor="middle" x="222.75" y="-7.25" font-family="Helvetica,sans-Serif" font-size="10.00">edit_sw_field_cb</text>
</a>
</g>
</g>
<!-- Node2&#45;&gt;Node3 -->
<g id="edge2_Node000002_Node000003" class="edge">
<title>Node2&#45;&gt;Node3</title>
<g id="a_edge2_Node000002_Node000003"><a xlink:title=" ">
<path fill="none" stroke="#63b8ff" d="M295.62,-10.38C287.48,-10.38 279.24,-10.38 271.38,-10.38"/>
<polygon fill="#63b8ff" stroke="#63b8ff" points="295.49,-13.88 305.49,-10.38 295.49,-6.88 295.49,-13.88"/>
</a>
</g>
</g>
<!-- Node4 -->
<g id="Node000004" class="node">
<title>Node4</title>
<g id="a_Node000004"><a xlink:href="kest__parameter__widget_8c.html#a2074107eca4e8e2b3832c9f9f2e5f9f2" target="_top" xlink:title=" ">
<polygon fill="#fff0f0" stroke="red" points="138.25,-20.75 0,-20.75 0,0 138.25,0 138.25,-20.75"/>
<text xml:space="preserve" text-anchor="middle" x="69.12" y="-7.25" font-family="Helvetica,sans-Serif" font-size="10.00">setting_widget_create_ui</text>
</a>
</g>
</g>
<!-- Node3&#45;&gt;Node4 -->
<g id="edge3_Node000003_Node000004" class="edge">
<title>Node3&#45;&gt;Node4</title>
<g id="a_edge3_Node000003_Node000004"><a xlink:title=" ">
<path fill="none" stroke="#63b8ff" d="M162.5,-10.38C154.65,-10.38 146.55,-10.38 138.56,-10.38"/>
<polygon fill="#63b8ff" stroke="#63b8ff" points="162.26,-13.88 172.26,-10.38 162.26,-6.88 162.26,-13.88"/>
</a>
</g>
</g>
</g>
</svg>
