<?xml version="1.0" encoding="UTF-8" standalone="no"?>
<!DOCTYPE svg PUBLIC "-//W3C//DTD SVG 1.1//EN"
 "http://www.w3.org/Graphics/SVG/1.1/DTD/svg11.dtd">
<!-- Generated by graphviz version 13.1.2 (20250808.2320)
 -->
<!-- Title: gut_effect Pages: 1 -->
<svg width="470pt" height="105pt"
 viewBox="0.00 0.00 470.00 105.00" xmlns="http://www.w3.org/2000/svg" xmlns:xlink="http://www.w3.org/1999/xlink">

<svg id="main" version="1.1" xmlns="http://www.w3.org/2000/svg" xmlns:xlink="http://www.w3.org/1999/xlink" xml:space="preserve">

<style type="text/css"><![CDATA[
.node, .edge {opacity: 0.7;}
.node.selected, .edge.selected {opacity: 1;}
.edge:hover path { stroke: red; }
.edge:hover polygon { stroke: red; fill: red; }
]]></style>
<script type="application/ecmascript" xlink:href="svg.min.js"/>
<svg id="graph" class="graph">
<g id="graph0" class="graph" transform="scale(1 1) rotate(0) translate(4 100.75)">
<title>gut_effect</title>
<!-- Node1 -->
<g id="Node000001" class="node">
<title>Node1</title>
<g id="a_Node000001"><a xlink:title=" ">
<polygon fill="#999999" stroke="#666666" points="65.5,-39.75 0,-39.75 0,-19 65.5,-19 65.5,-39.75"/>
<text xml:space="preserve" text-anchor="middle" x="32.75" y="-26.25" font-family="Helvetica,sans-Serif" font-size="10.00">gut_effect</text>
</a>
</g>
</g>
<!-- Node2 -->
<g id="Node000002" class="node">
<title>Node2</title>
<g id="a_Node000002"><a xlink:href="kest__effect__view_8c.html#ac64b0341f8283e6aabdd27c42e9a55b0" target="_top" xlink:title=" ">
<polygon fill="white" stroke="#666666" points="199.25,-58.75 101.5,-58.75 101.5,-38 199.25,-38 199.25,-58.75"/>
<text xml:space="preserve" text-anchor="middle" x="150.38" y="-45.25" font-family="Helvetica,sans-Serif" font-size="10.00">free_effect_view</text>
</a>
</g>
</g>
<!-- Node1&#45;&gt;Node2 -->
<g id="edge1_Node000001_Node000002" class="edge">
<title>Node1&#45;&gt;Node2</title>
<g id="a_edge1_Node000001_Node000002"><a xlink:title=" ">
<path fill="none" stroke="#63b8ff" d="M65.96,-34.67C73.49,-35.91 81.75,-37.26 90.06,-38.63"/>
<polygon fill="#63b8ff" stroke="#63b8ff" points="89.41,-42.07 99.85,-40.24 90.55,-35.16 89.41,-42.07"/>
</a>
</g>
</g>
<!-- Node5 -->
<g id="Node000005" class="node">
<title>Node5</title>
<g id="a_Node000005"><a xlink:href="kest__parameter_8c.html#a5c2bab51c10fbcb32e9e050d246b0880" target="_top" xlink:title=" ">
<polygon fill="white" stroke="#666666" points="335.62,-20.75 264.88,-20.75 264.88,0 335.62,0 335.62,-20.75"/>
<text xml:space="preserve" text-anchor="middle" x="300.25" y="-7.25" font-family="Helvetica,sans-Serif" font-size="10.00">gut_setting</text>
</a>
</g>
</g>
<!-- Node1&#45;&gt;Node5 -->
<g id="edge5_Node000001_Node000005" class="edge">
<title>Node1&#45;&gt;Node5</title>
<g id="a_edge5_Node000001_Node000005"><a xlink:title=" ">
<path fill="none" stroke="#63b8ff" d="M65.78,-27.08C112.55,-23.74 199.78,-17.49 253.37,-13.66"/>
<polygon fill="#63b8ff" stroke="#63b8ff" points="253.35,-17.17 263.08,-12.96 252.85,-10.19 253.35,-17.17"/>
</a>
</g>
</g>
<!-- Node3 -->
<g id="Node000003" class="node">
<title>Node3</title>
<g id="a_Node000003"><a xlink:href="kest__parameter__widget_8c.html#ac18cc7427373a289f2677b33112e4851" target="_top" xlink:title=" ">
<polygon fill="white" stroke="#666666" points="365.25,-96.75 235.25,-96.75 235.25,-76 365.25,-76 365.25,-96.75"/>
<text xml:space="preserve" text-anchor="middle" x="300.25" y="-83.25" font-family="Helvetica,sans-Serif" font-size="10.00">free_parameter_widget</text>
</a>
</g>
</g>
<!-- Node2&#45;&gt;Node3 -->
<g id="edge2_Node000002_Node000003" class="edge">
<title>Node2&#45;&gt;Node3</title>
<g id="a_edge2_Node000002_Node000003"><a xlink:title=" ">
<path fill="none" stroke="#63b8ff" d="M193.35,-59.16C209.74,-63.37 228.73,-68.25 246.06,-72.71"/>
<polygon fill="#63b8ff" stroke="#63b8ff" points="245.14,-76.08 255.7,-75.18 246.89,-69.3 245.14,-76.08"/>
</a>
</g>
</g>
<!-- Node4 -->
<g id="Node000004" class="node">
<title>Node4</title>
<g id="a_Node000004"><a xlink:href="kest__alloc_8c.html#a294af5728a94aa316fcf65304d388d48" target="_top" xlink:title=" ">
<polygon fill="white" stroke="#666666" points="462.25,-58.75 401.25,-58.75 401.25,-38 462.25,-38 462.25,-58.75"/>
<text xml:space="preserve" text-anchor="middle" x="431.75" y="-45.25" font-family="Helvetica,sans-Serif" font-size="10.00">kest_free</text>
</a>
</g>
</g>
<!-- Node2&#45;&gt;Node4 -->
<g id="edge4_Node000002_Node000004" class="edge">
<title>Node2&#45;&gt;Node4</title>
<g id="a_edge4_Node000002_Node000004"><a xlink:title=" ">
<path fill="none" stroke="#63b8ff" d="M199.72,-48.38C253.36,-48.38 339,-48.38 389.57,-48.38"/>
<polygon fill="#63b8ff" stroke="#63b8ff" points="389.51,-51.88 399.51,-48.38 389.51,-44.88 389.51,-51.88"/>
</a>
</g>
</g>
<!-- Node3&#45;&gt;Node4 -->
<g id="edge3_Node000003_Node000004" class="edge">
<title>Node3&#45;&gt;Node4</title>
<g id="a_edge3_Node000003_Node000004"><a xlink:title=" ">
<path fill="none" stroke="#63b8ff" d="M338.01,-75.59C354.17,-70.85 373.22,-65.26 389.83,-60.38"/>
<polygon fill="#63b8ff" stroke="#63b8ff" points="390.81,-63.74 399.42,-57.57 388.84,-57.03 390.81,-63.74"/>
</a>
</g>
</g>
<!-- Node5&#45;&gt;Node4 -->
<g id="edge6_Node000005_Node000004" class="edge">
<title>Node5&#45;&gt;Node4</title>
<g id="a_edge6_Node000005_Node000004"><a xlink:title=" ">
<path fill="none" stroke="#63b8ff" d="M335.95,-20.56C352.55,-25.43 372.52,-31.29 389.85,-36.37"/>
<polygon fill="#63b8ff" stroke="#63b8ff" points="388.76,-39.7 399.34,-39.16 390.73,-32.98 388.76,-39.7"/>
</a>
</g>
</g>
</g>
</svg>
</svg>

<style type='text/css'>
<![CDATA[
[data-mouse-over-selected='false'] { opacity: 0.7; }
[data-mouse-over-selected='true']  { opacity: 1.0; }
]]>
</style>
<script type="application/ecmascript"><![CDATA[
document.addEventListener('DOMContentLoaded', (event) => {
  highlightEdges();
  highlightAdjacentNodes();
});
]]></script>
</svg>
