<?xml version="1.0" encoding="UTF-8" standalone="no"?>
<!DOCTYPE svg PUBLIC "-//W3C//DTD SVG 1.1//EN"
 "http://www.w3.org/Graphics/SVG/1.1/DTD/svg11.dtd">
<!-- Generated by graphviz version 13.1.2 (20250808.2320)
 -->
<!-- Title: kest_active_button_set_index Pages: 1 -->
<svg width="584pt" height="94pt"
 viewBox="0.00 0.00 584.00 94.00" xmlns="http://www.w3.org/2000/svg" xmlns:xlink="http://www.w3.org/1999/xlink">
<g id="graph0" class="graph" transform="scale(1 1) rotate(0) translate(4 89.5)">
<title>kest_active_button_set_index</title>
<!-- Node1 -->
<g id="Node000001" class="node">
<title>Node1</title>
<g id="a_Node000001"><a xlink:title=" ">
<polygon fill="#999999" stroke="#666666" points="575.5,-59.5 467.25,-59.5 467.25,-26 575.5,-26 575.5,-59.5"/>
<text xml:space="preserve" text-anchor="start" x="475.25" y="-46" font-family="Helvetica,sans-Serif" font-size="10.00">kest_active_button</text>
<text xml:space="preserve" text-anchor="middle" x="521.38" y="-33.25" font-family="Helvetica,sans-Serif" font-size="10.00">_set_index</text>
</a>
</g>
</g>
<!-- Node2 -->
<g id="Node000002" class="node">
<title>Node2</title>
<g id="a_Node000002"><a xlink:href="kest__button_8c.html#afeb80361807e202da0343dedeff8aa66" target="_top" xlink:title=" ">
<polygon fill="white" stroke="#666666" points="431.25,-85.5 323,-85.5 323,-52 431.25,-52 431.25,-85.5"/>
<text xml:space="preserve" text-anchor="start" x="331" y="-72" font-family="Helvetica,sans-Serif" font-size="10.00">kest_active_button</text>
<text xml:space="preserve" text-anchor="middle" x="377.12" y="-59.25" font-family="Helvetica,sans-Serif" font-size="10.00">_array_remove</text>
</a>
</g>
</g>
<!-- Node1&#45;&gt;Node2 -->
<g id="edge1_Node000001_Node000002" class="edge">
<title>Node1&#45;&gt;Node2</title>
<g id="a_edge1_Node000001_Node000002"><a xlink:title=" ">
<path fill="none" stroke="#63b8ff" d="M455.91,-54.53C447.68,-56.04 439.34,-57.56 431.32,-59.03"/>
<polygon fill="#63b8ff" stroke="#63b8ff" points="456.31,-58.02 465.51,-52.78 455.05,-51.13 456.31,-58.02"/>
</a>
</g>
</g>
<!-- Node37 -->
<g id="Node000037" class="node">
<title>Node37</title>
<g id="a_Node000037"><a xlink:href="kest__button_8c.html#a5e8684adc8c5fbe7944b7cc188cd7b2c" target="_top" xlink:title=" ">
<polygon fill="white" stroke="#666666" points="431.25,-33.5 323,-33.5 323,0 431.25,0 431.25,-33.5"/>
<text xml:space="preserve" text-anchor="start" x="331" y="-20" font-family="Helvetica,sans-Serif" font-size="10.00">kest_active_button</text>
<text xml:space="preserve" text-anchor="middle" x="377.12" y="-7.25" font-family="Helvetica,sans-Serif" font-size="10.00">_pressing_cb</text>
</a>
</g>
</g>
<!-- Node1&#45;&gt;Node37 -->
<g id="edge4_Node000001_Node000037" class="edge">
<title>Node1&#45;&gt;Node37</title>
<g id="a_edge4_Node000001_Node000037"><a xlink:title=" ">
<path fill="none" stroke="#63b8ff" d="M455.91,-30.97C447.68,-29.46 439.34,-27.94 431.32,-26.47"/>
<polygon fill="#63b8ff" stroke="#63b8ff" points="455.05,-34.37 465.51,-32.72 456.31,-27.48 455.05,-34.37"/>
</a>
</g>
</g>
<!-- Node3 -->
<g id="Node000003" class="node">
<title>Node3</title>
<g id="a_Node000003"><a xlink:href="kest__button_8c.html#a843f20f7c8521fa0694f8cf2622afa96" target="_top" xlink:title=" ">
<polygon fill="white" stroke="#666666" points="287,-85.5 155.5,-85.5 155.5,-52 287,-52 287,-85.5"/>
<text xml:space="preserve" text-anchor="start" x="163.5" y="-72" font-family="Helvetica,sans-Serif" font-size="10.00">kest_active_button</text>
<text xml:space="preserve" text-anchor="middle" x="221.25" y="-59.25" font-family="Helvetica,sans-Serif" font-size="10.00">_delete_anim_ready_cb</text>
</a>
</g>
</g>
<!-- Node2&#45;&gt;Node3 -->
<g id="edge2_Node000002_Node000003" class="edge">
<title>Node2&#45;&gt;Node3</title>
<g id="a_edge2_Node000002_Node000003"><a xlink:title=" ">
<path fill="none" stroke="#63b8ff" d="M311.34,-68.75C303.45,-68.75 295.38,-68.75 287.48,-68.75"/>
<polygon fill="#63b8ff" stroke="#63b8ff" points="311.23,-72.25 321.23,-68.75 311.23,-65.25 311.23,-72.25"/>
</a>
</g>
</g>
<!-- Node4 -->
<g id="Node000004" class="node">
<title>Node4</title>
<g id="a_Node000004"><a xlink:href="kest__button_8c.html#a8f08189afc112ca297cd7718f2978258" target="_top" xlink:title=" ">
<polygon fill="#fff0f0" stroke="red" points="119.5,-85.5 0,-85.5 0,-52 119.5,-52 119.5,-85.5"/>
<text xml:space="preserve" text-anchor="start" x="8" y="-72" font-family="Helvetica,sans-Serif" font-size="10.00">kest_active_button</text>
<text xml:space="preserve" text-anchor="middle" x="59.75" y="-59.25" font-family="Helvetica,sans-Serif" font-size="10.00">_trigger_delete_anim</text>
</a>
</g>
</g>
<!-- Node3&#45;&gt;Node4 -->
<g id="edge3_Node000003_Node000004" class="edge">
<title>Node3&#45;&gt;Node4</title>
<g id="a_edge3_Node000003_Node000004"><a xlink:title=" ">
<path fill="none" stroke="#63b8ff" d="M144,-68.75C135.91,-68.75 127.77,-68.75 119.92,-68.75"/>
<polygon fill="#63b8ff" stroke="#63b8ff" points="143.86,-72.25 153.86,-68.75 143.86,-65.25 143.86,-72.25"/>
</a>
</g>
</g>
<!-- Node38 -->
<g id="Node000038" class="node">
<title>Node38</title>
<g id="a_Node000038"><a xlink:href="kest__button_8c.html#a9cc8b0c8114bbffc12e858af8589ff86" target="_top" xlink:title=" ">
<polygon fill="white" stroke="#666666" points="285.88,-27.12 156.62,-27.12 156.62,-6.38 285.88,-6.38 285.88,-27.12"/>
<text xml:space="preserve" text-anchor="middle" x="221.25" y="-13.62" font-family="Helvetica,sans-Serif" font-size="10.00">kest_active_button_init</text>
</a>
</g>
</g>
<!-- Node37&#45;&gt;Node38 -->
<g id="edge5_Node000037_Node000038" class="edge">
<title>Node37&#45;&gt;Node38</title>
<g id="a_edge5_Node000037_Node000038"><a xlink:title=" ">
<path fill="none" stroke="#63b8ff" d="M311.47,-16.75C303.09,-16.75 294.51,-16.75 286.14,-16.75"/>
<polygon fill="#63b8ff" stroke="#63b8ff" points="311.23,-20.25 321.23,-16.75 311.23,-13.25 311.23,-20.25"/>
</a>
</g>
</g>
<!-- Node7 -->
<g id="Node000007" class="node">
<title>Node7</title>
<g id="a_Node000007"><a xlink:href="kest__button_8c.html#a760fe364ce4f5be2c972ff685e2f9825" target="_top" xlink:title=" ">
<polygon fill="#fff0f0" stroke="red" points="116.5,-33.5 3,-33.5 3,0 116.5,0 116.5,-33.5"/>
<text xml:space="preserve" text-anchor="start" x="11" y="-20" font-family="Helvetica,sans-Serif" font-size="10.00">kest_active_button</text>
<text xml:space="preserve" text-anchor="middle" x="59.75" y="-7.25" font-family="Helvetica,sans-Serif" font-size="10.00">_array_append_new</text>
</a>
</g>
</g>
<!-- Node38&#45;&gt;Node7 -->
<g id="edge6_Node000038_Node000007" class="edge">
<title>Node38&#45;&gt;Node7</title>
<g id="a_edge6_Node000038_Node000007"><a xlink:title=" ">
<path fill="none" stroke="#63b8ff" d="M144.83,-16.75C135.37,-16.75 125.83,-16.75 116.75,-16.75"/>
<polygon fill="#63b8ff" stroke="#63b8ff" points="144.78,-20.25 154.78,-16.75 144.78,-13.25 144.78,-20.25"/>
</a>
</g>
</g>
</g>
</svg>
