<?xml version="1.0" encoding="UTF-8" standalone="no"?>
<!DOCTYPE svg PUBLIC "-//W3C//DTD SVG 1.1//EN"
 "http://www.w3.org/Graphics/SVG/1.1/DTD/svg11.dtd">
<!-- Generated by graphviz version 13.1.2 (20250808.2320)
 -->
<!-- Title: init_footswitch_task Pages: 1 -->
<svg width="584pt" height="87pt"
 viewBox="0.00 0.00 584.00 87.00" xmlns="http://www.w3.org/2000/svg" xmlns:xlink="http://www.w3.org/1999/xlink">
<g id="graph0" class="graph" transform="scale(1 1) rotate(0) translate(4 82.75)">
<title>init_footswitch_task</title>
<!-- Node1 -->
<g id="Node000001" class="node">
<title>Node1</title>
<g id="a_Node000001"><a xlink:title=" ">
<polygon fill="#999999" stroke="#666666" points="114.25,-39.75 0,-39.75 0,-19 114.25,-19 114.25,-39.75"/>
<text xml:space="preserve" text-anchor="middle" x="57.12" y="-26.25" font-family="Helvetica,sans-Serif" font-size="10.00">init_footswitch_task</text>
</a>
</g>
</g>
<!-- Node2 -->
<g id="Node000002" class="node">
<title>Node2</title>
<g id="a_Node000002"><a xlink:href="kest__footswitch_8c.html#af755237c2b87b3ade3fa580c3e468641" target="_top" xlink:title=" ">
<polygon fill="white" stroke="#666666" points="243.5,-39.75 150.25,-39.75 150.25,-19 243.5,-19 243.5,-39.75"/>
<text xml:space="preserve" text-anchor="middle" x="196.88" y="-26.25" font-family="Helvetica,sans-Serif" font-size="10.00">footswitch_task</text>
</a>
</g>
</g>
<!-- Node1&#45;&gt;Node2 -->
<g id="edge1_Node000001_Node000002" class="edge">
<title>Node1&#45;&gt;Node2</title>
<g id="a_edge1_Node000001_Node000002"><a xlink:title=" ">
<path fill="none" stroke="#63b8ff" d="M114.55,-29.38C122.44,-29.38 130.55,-29.38 138.46,-29.38"/>
<polygon fill="#63b8ff" stroke="#63b8ff" points="138.33,-32.88 148.33,-29.38 138.33,-25.88 138.33,-32.88"/>
</a>
</g>
</g>
<!-- Node3 -->
<g id="Node000003" class="node">
<title>Node3</title>
<g id="a_Node000003"><a xlink:href="kest__context_8c.html#a92d3aa6e51991a8969ec021b9d1e0f33" target="_top" xlink:title=" ">
<polygon fill="white" stroke="#666666" points="405,-59.75 279.5,-59.75 279.5,-39 405,-39 405,-59.75"/>
<text xml:space="preserve" text-anchor="middle" x="342.25" y="-46.25" font-family="Helvetica,sans-Serif" font-size="10.00">cxt_handle_hw_switch</text>
</a>
</g>
</g>
<!-- Node2&#45;&gt;Node3 -->
<g id="edge2_Node000002_Node000003" class="edge">
<title>Node2&#45;&gt;Node3</title>
<g id="a_edge2_Node000002_Node000003"><a xlink:title=" ">
<path fill="none" stroke="#63b8ff" d="M243.63,-35.76C251.41,-36.84 259.65,-37.99 267.93,-39.15"/>
<polygon fill="#63b8ff" stroke="#63b8ff" points="267.3,-42.59 277.69,-40.51 268.27,-35.66 267.3,-42.59"/>
</a>
</g>
</g>
<!-- Node44 -->
<g id="Node000044" class="node">
<title>Node44</title>
<g id="a_Node000044"><a xlink:href="kest__printf_8c.html#a302714171dfa950e18d9a951bdab4105" target="_top" xlink:title=" ">
<polygon fill="white" stroke="#666666" points="376.12,-20.75 308.38,-20.75 308.38,0 376.12,0 376.12,-20.75"/>
<text xml:space="preserve" text-anchor="middle" x="342.25" y="-7.25" font-family="Helvetica,sans-Serif" font-size="10.00">kest_printf</text>
</a>
</g>
</g>
<!-- Node2&#45;&gt;Node44 -->
<g id="edge5_Node000002_Node000044" class="edge">
<title>Node2&#45;&gt;Node44</title>
<g id="a_edge5_Node000002_Node000044"><a xlink:title=" ">
<path fill="none" stroke="#63b8ff" d="M243.63,-23.31C260.68,-21.05 279.99,-18.49 296.9,-16.25"/>
<polygon fill="#63b8ff" stroke="#63b8ff" points="297.22,-19.74 306.68,-14.96 296.3,-12.8 297.22,-19.74"/>
</a>
</g>
</g>
<!-- Node4 -->
<g id="Node000004" class="node">
<title>Node4</title>
<g id="a_Node000004"><a xlink:href="kest__sequence_8c.html#a85f3248c9d10338f835e998245e44b30" target="_top" xlink:title=" ">
<polygon fill="#fff0f0" stroke="red" points="575.5,-78.75 441,-78.75 441,-58 575.5,-58 575.5,-78.75"/>
<text xml:space="preserve" text-anchor="middle" x="508.25" y="-65.25" font-family="Helvetica,sans-Serif" font-size="10.00">kest_sequence_advance</text>
</a>
</g>
</g>
<!-- Node3&#45;&gt;Node4 -->
<g id="edge3_Node000003_Node000004" class="edge">
<title>Node3&#45;&gt;Node4</title>
<g id="a_edge3_Node000003_Node000004"><a xlink:title=" ">
<path fill="none" stroke="#63b8ff" d="M405.25,-56.56C413.08,-57.47 421.17,-58.4 429.21,-59.33"/>
<polygon fill="#63b8ff" stroke="#63b8ff" points="428.67,-62.79 439,-60.47 429.47,-55.84 428.67,-62.79"/>
</a>
</g>
</g>
<!-- Node43 -->
<g id="Node000043" class="node">
<title>Node43</title>
<g id="a_Node000043"><a xlink:href="kest__sequence_8c.html#a0076ab743ce384590dc02431edb343c3" target="_top" xlink:title=" ">
<polygon fill="#fff0f0" stroke="red" points="572.88,-39.75 443.62,-39.75 443.62,-19 572.88,-19 572.88,-39.75"/>
<text xml:space="preserve" text-anchor="middle" x="508.25" y="-26.25" font-family="Helvetica,sans-Serif" font-size="10.00">kest_sequence_regress</text>
</a>
</g>
</g>
<!-- Node3&#45;&gt;Node43 -->
<g id="edge4_Node000003_Node000043" class="edge">
<title>Node3&#45;&gt;Node43</title>
<g id="a_edge4_Node000003_Node000043"><a xlink:title=" ">
<path fill="none" stroke="#63b8ff" d="M405.25,-41.81C413.99,-40.75 423.05,-39.64 432,-38.55"/>
<polygon fill="#63b8ff" stroke="#63b8ff" points="432.25,-42.05 441.75,-37.36 431.4,-35.1 432.25,-42.05"/>
</a>
</g>
</g>
</g>
</svg>
