<?xml version="1.0" encoding="UTF-8" standalone="no"?>
<!DOCTYPE svg PUBLIC "-//W3C//DTD SVG 1.1//EN"
 "http://www.w3.org/Graphics/SVG/1.1/DTD/svg11.dtd">
<!-- Generated by graphviz version 13.1.2 (20250808.2320)
 -->
<!-- Title: sgtl5000_write_reg Pages: 1 -->
<!--zoomable 106 -->

<svg id="main" version="1.1" xmlns="http://www.w3.org/2000/svg" xmlns:xlink="http://www.w3.org/1999/xlink" xml:space="preserve" onload="init(evt)">

<style type="text/css"><![CDATA[
.node, .edge {opacity: 0.7;}
.node.selected, .edge.selected {opacity: 1;}
.edge:hover path { stroke: red; }
.edge:hover polygon { stroke: red; fill: red; }
]]></style>

<defs>
  <circle id="rim" cx="0" cy="0" r="7"/>
  <circle id="rim2" cx="0" cy="0" r="3.5"/>
  <g id="zoomPlus">
    <use xlink:href="#rim" fill="#404040"><set attributeName="fill" to="#808080" begin="zoomplus.mouseover" end="zoomplus.mouseout"/></use>
    <path d="M-4,0h8M0,-4v8" fill="none" stroke="white" stroke-width="1.5" pointer-events="none"/>
  </g>
  <g id="zoomMin">
    <use xlink:href="#rim" fill="#404040"><set attributeName="fill" to="#808080" begin="zoomminus.mouseover" end="zoomminus.mouseout"/></use>
    <path d="M-4,0h8" fill="none" stroke="white" stroke-width="1.5" pointer-events="none"/>
  </g>
  <g id="arrowUp" transform="translate(30 24)">
    <use xlink:href="#rim"/>
    <path pointer-events="none" fill="none" stroke="white" stroke-width="1.5" d="M0,-3.0v7 M-2.5,-0.5L0,-3.0L2.5,-0.5"/>
  </g>
  <g id="arrowRight" transform="rotate(90) translate(36 -43)">
    <use xlink:href="#rim"/>
    <path pointer-events="none" fill="none" stroke="white" stroke-width="1.5" d="M0,-3.0v7 M-2.5,-0.5L0,-3.0L2.5,-0.5"/>
  </g>
  <g id="arrowDown" transform="rotate(180) translate(-30 -48)">
    <use xlink:href="#rim"/>
    <path pointer-events="none" fill="none" stroke="white" stroke-width="1.5" d="M0,-3.0v7 M-2.5,-0.5L0,-3.0L2.5,-0.5"/>
  </g>
  <g id="arrowLeft" transform="rotate(270) translate(-36 17)">
    <use xlink:href="#rim"/>
    <path pointer-events="none" fill="none" stroke="white" stroke-width="1.5" d="M0,-3.0v7 M-2.5,-0.5L0,-3.0L2.5,-0.5"/>
  </g>
  <g id="resetDef">
    <use xlink:href="#rim2" fill="#404040"><set attributeName="fill" to="#808080" begin="reset.mouseover" end="reset.mouseout"/></use>
  </g>
</defs>
<script type="application/ecmascript">
var viewWidth = 686;
var viewHeight = 106;
var sectionId = 'dynsection-14';
</script>
<script type="application/ecmascript" xlink:href="svg.min.js"/>
<svg id="graph" class="graph">
<g id="viewport">
<title>sgtl5000_write_reg</title>
<!-- Node1 -->
<g id="Node000001" class="node">
<title>Node1</title>
<g id="a_Node000001"><a xlink:title=" ">
<polygon fill="#999999" stroke="#666666" points="677.75,-59.75 568.75,-59.75 568.75,-39 677.75,-39 677.75,-59.75"/>
<text xml:space="preserve" text-anchor="middle" x="623.25" y="-46.25" font-family="Helvetica,sans-Serif" font-size="10.00">sgtl5000_write_reg</text>
</a>
</g>
</g>
<!-- Node2 -->
<g id="Node000002" class="node">
<title>Node2</title>
<g id="a_Node000002"><a xlink:href="kest__sgtl5000_8c.html#aea0b88353e34544fac687da2c0803e75" target="_top" xlink:title=" ">
<polygon fill="white" stroke="#666666" points="354.38,-59.75 258.12,-59.75 258.12,-39 354.38,-39 354.38,-59.75"/>
<text xml:space="preserve" text-anchor="middle" x="306.25" y="-46.25" font-family="Helvetica,sans-Serif" font-size="10.00">sgtl5000_enable</text>
</a>
</g>
</g>
<!-- Node1&#45;&gt;Node2 -->
<g id="edge1_Node000001_Node000002" class="edge">
<title>Node1&#45;&gt;Node2</title>
<g id="a_edge1_Node000001_Node000002"><a xlink:title=" ">
<path fill="none" stroke="#63b8ff" d="M557.16,-49.38C496.84,-49.38 408.53,-49.38 354.64,-49.38"/>
<polygon fill="#63b8ff" stroke="#63b8ff" points="556.94,-52.88 566.94,-49.38 556.94,-45.88 556.94,-52.88"/>
</a>
</g>
</g>
<!-- Node5 -->
<g id="Node000005" class="node">
<title>Node5</title>
<g id="a_Node000005"><a xlink:href="kest__sgtl5000_8c.html#aa771518d0b95bc0d126b2cd83d474e2e" target="_top" xlink:title=" ">
<polygon fill="white" stroke="#666666" points="532.75,-97.75 408,-97.75 408,-77 532.75,-77 532.75,-97.75"/>
<text xml:space="preserve" text-anchor="middle" x="470.38" y="-84.25" font-family="Helvetica,sans-Serif" font-size="10.00">sgtl5000_line_in_level</text>
</a>
</g>
</g>
<!-- Node1&#45;&gt;Node5 -->
<g id="edge4_Node000001_Node000005" class="edge">
<title>Node1&#45;&gt;Node5</title>
<g id="a_edge4_Node000001_Node000005"><a xlink:title=" ">
<path fill="none" stroke="#63b8ff" d="M568.35,-62.95C550.6,-67.42 531.13,-72.33 514.31,-76.56"/>
<polygon fill="#63b8ff" stroke="#63b8ff" points="569.11,-66.37 577.95,-60.53 567.4,-59.58 569.11,-66.37"/>
</a>
</g>
</g>
<!-- Node6 -->
<g id="Node000006" class="node">
<title>Node6</title>
<g id="a_Node000006"><a xlink:href="kest__sgtl5000_8c.html#afea270852e954eff7f457aa81e56c8ea" target="_top" xlink:title=" ">
<polygon fill="white" stroke="#666666" points="529.75,-21.75 411,-21.75 411,-1 529.75,-1 529.75,-21.75"/>
<text xml:space="preserve" text-anchor="middle" x="470.38" y="-8.25" font-family="Helvetica,sans-Serif" font-size="10.00">sgtl5000_modify_reg</text>
</a>
</g>
</g>
<!-- Node1&#45;&gt;Node6 -->
<g id="edge6_Node000001_Node000006" class="edge">
<title>Node1&#45;&gt;Node6</title>
<g id="a_edge6_Node000001_Node000006"><a xlink:title=" ">
<path fill="none" stroke="#63b8ff" d="M568.35,-35.8C550.6,-31.33 531.13,-26.42 514.31,-22.19"/>
<polygon fill="#63b8ff" stroke="#63b8ff" points="567.4,-39.17 577.95,-38.22 569.11,-32.38 567.4,-39.17"/>
</a>
</g>
</g>
<!-- Node3 -->
<g id="Node000003" class="node">
<title>Node3</title>
<g id="a_Node000003"><a xlink:href="kest__sgtl5000_8c.html#ab1fee6b32d3be05247ada395bd60915b" target="_top" xlink:title=" ">
<polygon fill="white" stroke="#666666" points="204.5,-59.75 100,-59.75 100,-39 204.5,-39 204.5,-59.75"/>
<text xml:space="preserve" text-anchor="middle" x="152.25" y="-46.25" font-family="Helvetica,sans-Serif" font-size="10.00">kest_sgtl5000_init</text>
</a>
</g>
</g>
<!-- Node2&#45;&gt;Node3 -->
<g id="edge2_Node000002_Node000003" class="edge">
<title>Node2&#45;&gt;Node3</title>
<g id="a_edge2_Node000002_Node000003"><a xlink:title=" ">
<path fill="none" stroke="#63b8ff" d="M246.68,-49.38C232.94,-49.38 218.39,-49.38 204.97,-49.38"/>
<polygon fill="#63b8ff" stroke="#63b8ff" points="246.48,-52.88 256.48,-49.38 246.48,-45.88 246.48,-52.88"/>
</a>
</g>
</g>
<!-- Node4 -->
<g id="Node000004" class="node">
<title>Node4</title>
<g id="a_Node000004"><a xlink:href="kest__int_8c.html#abce06be17fc37d675118a678a8100a36" target="_top" xlink:title=" ">
<polygon fill="white" stroke="#666666" points="64,-59.75 0,-59.75 0,-39 64,-39 64,-59.75"/>
<text xml:space="preserve" text-anchor="middle" x="32" y="-46.25" font-family="Helvetica,sans-Serif" font-size="10.00">app_main</text>
</a>
</g>
</g>
<!-- Node3&#45;&gt;Node4 -->
<g id="edge3_Node000003_Node000004" class="edge">
<title>Node3&#45;&gt;Node4</title>
<g id="a_edge3_Node000003_Node000004"><a xlink:title=" ">
<path fill="none" stroke="#63b8ff" d="M88.35,-49.38C80,-49.38 71.75,-49.38 64.27,-49.38"/>
<polygon fill="#63b8ff" stroke="#63b8ff" points="88.21,-52.88 98.21,-49.38 88.21,-45.88 88.21,-52.88"/>
</a>
</g>
</g>
<!-- Node5&#45;&gt;Node3 -->
<g id="edge5_Node000005_Node000003" class="edge">
<title>Node5&#45;&gt;Node3</title>
<g id="a_edge5_Node000005_Node000003"><a xlink:title=" ">
<path fill="none" stroke="#63b8ff" d="M396.47,-83.78C351.37,-80.94 292.37,-76.14 240.5,-68.38 226.39,-66.26 211.16,-63.22 197.43,-60.18"/>
<polygon fill="#63b8ff" stroke="#63b8ff" points="396.22,-87.27 406.41,-84.38 396.64,-80.28 396.22,-87.27"/>
</a>
</g>
</g>
<!-- Node6&#45;&gt;Node2 -->
<g id="edge7_Node000006_Node000002" class="edge">
<title>Node6&#45;&gt;Node2</title>
<g id="a_edge7_Node000006_Node000002"><a xlink:title=" ">
<path fill="none" stroke="#63b8ff" d="M412.26,-24.76C392.98,-29.28 371.71,-34.27 353.39,-38.56"/>
<polygon fill="#63b8ff" stroke="#63b8ff" points="412.94,-28.2 421.88,-22.51 411.34,-21.38 412.94,-28.2"/>
</a>
</g>
</g>
<!-- Node7 -->
<g id="Node000007" class="node">
<title>Node7</title>
<g id="a_Node000007"><a xlink:href="kest__sgtl5000_8c.html#ac7edd80eb3f420ce979ca8b26f4690e6" target="_top" xlink:title=" ">
<polygon fill="white" stroke="#666666" points="372,-20.75 240.5,-20.75 240.5,0 372,0 372,-20.75"/>
<text xml:space="preserve" text-anchor="middle" x="306.25" y="-7.25" font-family="Helvetica,sans-Serif" font-size="10.00">sgtl5000_line_out_level</text>
</a>
</g>
</g>
<!-- Node6&#45;&gt;Node7 -->
<g id="edge8_Node000006_Node000007" class="edge">
<title>Node6&#45;&gt;Node7</title>
<g id="a_edge8_Node000006_Node000007"><a xlink:title=" ">
<path fill="none" stroke="#63b8ff" d="M399.53,-10.94C390.48,-10.89 381.25,-10.83 372.29,-10.78"/>
<polygon fill="#63b8ff" stroke="#63b8ff" points="399.31,-14.44 409.33,-11 399.35,-7.44 399.31,-14.44"/>
</a>
</g>
</g>
<!-- Node7&#45;&gt;Node3 -->
<g id="edge9_Node000007_Node000003" class="edge">
<title>Node7&#45;&gt;Node3</title>
<g id="a_edge9_Node000007_Node000003"><a xlink:title=" ">
<path fill="none" stroke="#63b8ff" d="M252.01,-24.04C233.54,-28.77 213.1,-34.02 195.63,-38.5"/>
<polygon fill="#63b8ff" stroke="#63b8ff" points="252.63,-27.49 261.44,-21.61 250.89,-20.71 252.63,-27.49"/>
</a>
</g>
</g>
</g>
</svg>

<g id="navigator" transform="translate(0 0)" fill="#404254">
  <rect fill="#f2f5e9" fill-opacity="0.5" stroke="#606060" stroke-width=".5" x="0" y="0" width="60" height="60"/>
  <use id="zoomplus" xlink:href="#zoomPlus" x="17" y="9" onmousedown="handleZoom(evt,'in')"/>
  <use id="zoomminus" xlink:href="#zoomMin" x="42" y="9" onmousedown="handleZoom(evt,'out')"/>
  <use id="reset" xlink:href="#resetDef" x="30" y="36" onmousedown="handleReset()"/>
   <use id="arrowup" xlink:href="#arrowUp" x="0" y="0" onmousedown="handlePan(0,-1)"/>
  <use id="arrowright" xlink:href="#arrowRight" x="0" y="0" onmousedown="handlePan(1,0)"/>
  <use id="arrowdown" xlink:href="#arrowDown" x="0" y="0" onmousedown="handlePan(0,1)"/>
  <use id="arrowleft" xlink:href="#arrowLeft" x="0" y="0" onmousedown="handlePan(-1,0)"/>
</g>
<svg viewBox="0 0 15 15" width="100%" height="30px" preserveAspectRatio="xMaxYMin meet">
 <g id="arrow_out" transform="scale(0.3 0.3)">
  <a xlink:href="kest__sgtl5000_8c_a5d3609040614e6236b7058d3073311c5_icgraph_org.svg" target="_base">
   <rect id="button" ry="5" rx="5" y="6" x="6" height="38" width="38"
        fill="#f2f5e9" fill-opacity="0.5" stroke="#606060" stroke-width="1.0"/>
   <path id="arrow"
     d="M 11.500037,31.436501 C 11.940474,20.09759 22.043105,11.32322 32.158766,21.979434 L 37.068811,17.246167 C 37.068811,17.246167 37.088388,32 37.088388,32 L 22.160133,31.978069 C 22.160133,31.978069 26.997745,27.140456 26.997745,27.140456 C 18.528582,18.264221 13.291696,25.230495 11.500037,31.436501 z"
     style="fill:#404040;"/>
  </a>
 </g>
</svg>

<style type='text/css'>
<![CDATA[
[data-mouse-over-selected='false'] { opacity: 0.7; }
[data-mouse-over-selected='true']  { opacity: 1.0; }
]]>
</style>
<script type="application/ecmascript"><![CDATA[
document.addEventListener('DOMContentLoaded', (event) => {
  highlightEdges();
  highlightAdjacentNodes();
});
]]></script>
</svg>
