<?xml version="1.0" encoding="UTF-8" standalone="no"?>
<!DOCTYPE svg PUBLIC "-//W3C//DTD SVG 1.1//EN"
 "http://www.w3.org/Graphics/SVG/1.1/DTD/svg11.dtd">
<!-- Generated by graphviz version 13.1.2 (20250808.2320)
 -->
<!-- Title: param_widget_rep_update Pages: 1 -->
<svg width="626pt" height="94pt"
 viewBox="0.00 0.00 626.00 94.00" xmlns="http://www.w3.org/2000/svg" xmlns:xlink="http://www.w3.org/1999/xlink">
<g id="graph0" class="graph" transform="scale(1 1) rotate(0) translate(4 89.5)">
<title>param_widget_rep_update</title>
<!-- Node1 -->
<g id="Node000001" class="node">
<title>Node1</title>
<g id="a_Node000001"><a xlink:title=" ">
<polygon fill="#999999" stroke="#666666" points="145.75,-53.12 0,-53.12 0,-32.38 145.75,-32.38 145.75,-53.12"/>
<text xml:space="preserve" text-anchor="middle" x="72.88" y="-39.62" font-family="Helvetica,sans-Serif" font-size="10.00">param_widget_rep_update</text>
</a>
</g>
</g>
<!-- Node2 -->
<g id="Node000002" class="node">
<title>Node2</title>
<g id="a_Node000002"><a xlink:href="kest__parameter__widget_8c.html#abad910124e9bf706a008ab86f8bf70e6" target="_top" xlink:title=" ">
<polygon fill="white" stroke="#666666" points="326,-85.5 181.75,-85.5 181.75,-52 326,-52 326,-85.5"/>
<text xml:space="preserve" text-anchor="start" x="189.75" y="-72" font-family="Helvetica,sans-Serif" font-size="10.00">parameter_widget_update</text>
<text xml:space="preserve" text-anchor="middle" x="253.88" y="-59.25" font-family="Helvetica,sans-Serif" font-size="10.00">_value</text>
</a>
</g>
</g>
<!-- Node1&#45;&gt;Node2 -->
<g id="edge1_Node000001_Node000002" class="edge">
<title>Node1&#45;&gt;Node2</title>
<g id="a_edge1_Node000001_Node000002"><a xlink:title=" ">
<path fill="none" stroke="#63b8ff" d="M146.17,-53.25C154.08,-54.4 162.18,-55.58 170.21,-56.74"/>
<polygon fill="#63b8ff" stroke="#63b8ff" points="169.58,-60.19 179.98,-58.16 170.59,-53.26 169.58,-60.19"/>
</a>
</g>
</g>
<!-- Node3 -->
<g id="Node000003" class="node">
<title>Node3</title>
<g id="a_Node000003"><a xlink:href="kest__parameter__widget_8c.html#af345b51066bd1985326c50809d992fab" target="_top" xlink:title=" ">
<polygon fill="white" stroke="#666666" points="326,-33.5 181.75,-33.5 181.75,0 326,0 326,-33.5"/>
<text xml:space="preserve" text-anchor="start" x="189.75" y="-20" font-family="Helvetica,sans-Serif" font-size="10.00">parameter_widget_update</text>
<text xml:space="preserve" text-anchor="middle" x="253.88" y="-7.25" font-family="Helvetica,sans-Serif" font-size="10.00">_value_label</text>
</a>
</g>
</g>
<!-- Node1&#45;&gt;Node3 -->
<g id="edge2_Node000001_Node000003" class="edge">
<title>Node1&#45;&gt;Node3</title>
<g id="a_edge2_Node000001_Node000003"><a xlink:title=" ">
<path fill="none" stroke="#63b8ff" d="M146.17,-32.25C154.08,-31.1 162.18,-29.92 170.21,-28.76"/>
<polygon fill="#63b8ff" stroke="#63b8ff" points="170.59,-32.24 179.98,-27.34 169.58,-25.31 170.59,-32.24"/>
</a>
</g>
</g>
<!-- Node4 -->
<g id="Node000004" class="node">
<title>Node4</title>
<g id="a_Node000004"><a xlink:href="kest__parameter__widget_8c.html#a9a7e5431ab9599259aa5e2cfa47e6308" target="_top" xlink:title=" ">
<polygon fill="white" stroke="#666666" points="505.5,-33.5 362,-33.5 362,0 505.5,0 505.5,-33.5"/>
<text xml:space="preserve" text-anchor="start" x="370" y="-20" font-family="Helvetica,sans-Serif" font-size="10.00">format_parameter_widget</text>
<text xml:space="preserve" text-anchor="middle" x="433.75" y="-7.25" font-family="Helvetica,sans-Serif" font-size="10.00">_value_label</text>
</a>
</g>
</g>
<!-- Node3&#45;&gt;Node4 -->
<g id="edge3_Node000003_Node000004" class="edge">
<title>Node3&#45;&gt;Node4</title>
<g id="a_edge3_Node000003_Node000004"><a xlink:title=" ">
<path fill="none" stroke="#63b8ff" d="M326.45,-16.75C334.24,-16.75 342.21,-16.75 350.11,-16.75"/>
<polygon fill="#63b8ff" stroke="#63b8ff" points="350.09,-20.25 360.09,-16.75 350.09,-13.25 350.09,-20.25"/>
</a>
</g>
</g>
<!-- Node5 -->
<g id="Node000005" class="node">
<title>Node5</title>
<g id="a_Node000005"><a xlink:href="kest__hfunc_8c.html#a840904866becc1161859f30852e94595" target="_top" xlink:title=" ">
<polygon fill="white" stroke="#666666" points="618.25,-27.12 541.5,-27.12 541.5,-6.38 618.25,-6.38 618.25,-27.12"/>
<text xml:space="preserve" text-anchor="middle" x="579.88" y="-13.62" font-family="Helvetica,sans-Serif" font-size="10.00">format_float</text>
</a>
</g>
</g>
<!-- Node4&#45;&gt;Node5 -->
<g id="edge4_Node000004_Node000005" class="edge">
<title>Node4&#45;&gt;Node5</title>
<g id="a_edge4_Node000004_Node000005"><a xlink:title=" ">
<path fill="none" stroke="#63b8ff" d="M505.97,-16.75C514.07,-16.75 522.18,-16.75 529.9,-16.75"/>
<polygon fill="#63b8ff" stroke="#63b8ff" points="529.75,-20.25 539.75,-16.75 529.75,-13.25 529.75,-20.25"/>
</a>
</g>
</g>
</g>
</svg>
