<?xml version="1.0" encoding="UTF-8" standalone="no"?>
<!DOCTYPE svg PUBLIC "-//W3C//DTD SVG 1.1//EN"
 "http://www.w3.org/Graphics/SVG/1.1/DTD/svg11.dtd">
<!-- Generated by graphviz version 13.1.2 (20250808.2320)
 -->
<!-- Title: clone_effect Pages: 1 -->
<!--zoomable 275 -->

<svg id="main" version="1.1" xmlns="http://www.w3.org/2000/svg" xmlns:xlink="http://www.w3.org/1999/xlink" xml:space="preserve" onload="init(evt)">

<style type="text/css"><![CDATA[
.node, .edge {opacity: 0.7;}
.node.selected, .edge.selected {opacity: 1;}
.edge:hover path { stroke: red; }
.edge:hover polygon { stroke: red; fill: red; }
]]></style>

<defs>
  <circle id="rim" cx="0" cy="0" r="7"/>
  <circle id="rim2" cx="0" cy="0" r="3.5"/>
  <g id="zoomPlus">
    <use xlink:href="#rim" fill="#404040"><set attributeName="fill" to="#808080" begin="zoomplus.mouseover" end="zoomplus.mouseout"/></use>
    <path d="M-4,0h8M0,-4v8" fill="none" stroke="white" stroke-width="1.5" pointer-events="none"/>
  </g>
  <g id="zoomMin">
    <use xlink:href="#rim" fill="#404040"><set attributeName="fill" to="#808080" begin="zoomminus.mouseover" end="zoomminus.mouseout"/></use>
    <path d="M-4,0h8" fill="none" stroke="white" stroke-width="1.5" pointer-events="none"/>
  </g>
  <g id="arrowUp" transform="translate(30 24)">
    <use xlink:href="#rim"/>
    <path pointer-events="none" fill="none" stroke="white" stroke-width="1.5" d="M0,-3.0v7 M-2.5,-0.5L0,-3.0L2.5,-0.5"/>
  </g>
  <g id="arrowRight" transform="rotate(90) translate(36 -43)">
    <use xlink:href="#rim"/>
    <path pointer-events="none" fill="none" stroke="white" stroke-width="1.5" d="M0,-3.0v7 M-2.5,-0.5L0,-3.0L2.5,-0.5"/>
  </g>
  <g id="arrowDown" transform="rotate(180) translate(-30 -48)">
    <use xlink:href="#rim"/>
    <path pointer-events="none" fill="none" stroke="white" stroke-width="1.5" d="M0,-3.0v7 M-2.5,-0.5L0,-3.0L2.5,-0.5"/>
  </g>
  <g id="arrowLeft" transform="rotate(270) translate(-36 17)">
    <use xlink:href="#rim"/>
    <path pointer-events="none" fill="none" stroke="white" stroke-width="1.5" d="M0,-3.0v7 M-2.5,-0.5L0,-3.0L2.5,-0.5"/>
  </g>
  <g id="resetDef">
    <use xlink:href="#rim2" fill="#404040"><set attributeName="fill" to="#808080" begin="reset.mouseover" end="reset.mouseout"/></use>
  </g>
</defs>
<script type="application/ecmascript">
var viewWidth = 549;
var viewHeight = 275;
var sectionId = 'dynsection-0';
</script>
<script type="application/ecmascript" xlink:href="svg.min.js"/>
<svg id="graph" class="graph">
<g id="viewport">
<title>clone_effect</title>
<!-- Node1 -->
<g id="Node000001" class="node">
<title>Node1</title>
<g id="a_Node000001"><a xlink:title=" ">
<polygon fill="#999999" stroke="#666666" points="76,-169.12 0,-169.12 0,-148.38 76,-148.38 76,-169.12"/>
<text xml:space="preserve" text-anchor="middle" x="38" y="-155.62" font-family="Helvetica,sans-Serif" font-size="10.00">clone_effect</text>
</a>
</g>
</g>
<!-- Node2 -->
<g id="Node000002" class="node">
<title>Node2</title>
<g id="a_Node000002"><a xlink:href="kest__parameter_8c.html#a0557624c9a1b47f1ae42049322650a6e" target="_top" xlink:title=" ">
<polygon fill="white" stroke="#666666" points="214.62,-189.12 133.38,-189.12 133.38,-168.38 214.62,-168.38 214.62,-189.12"/>
<text xml:space="preserve" text-anchor="middle" x="174" y="-175.62" font-family="Helvetica,sans-Serif" font-size="10.00">clone_setting</text>
</a>
</g>
</g>
<!-- Node1&#45;&gt;Node2 -->
<g id="edge1_Node000001_Node000002" class="edge">
<title>Node1&#45;&gt;Node2</title>
<g id="a_edge1_Node000001_Node000002"><a xlink:title=" ">
<path fill="none" stroke="#63b8ff" d="M76.33,-164.32C90.4,-166.42 106.65,-168.85 121.78,-171.1"/>
<polygon fill="#63b8ff" stroke="#63b8ff" points="121.16,-174.55 131.57,-172.57 122.19,-167.63 121.16,-174.55"/>
</a>
</g>
</g>
<!-- Node8 -->
<g id="Node000008" class="node">
<title>Node8</title>
<g id="a_Node000008"><a xlink:href="kest__effect_8c.html#a8dc8fceab7f835d960ea95e4f21fe327" target="_top" xlink:title=" ">
<polygon fill="white" stroke="#666666" points="236,-150.12 112,-150.12 112,-129.38 236,-129.38 236,-150.12"/>
<text xml:space="preserve" text-anchor="middle" x="174" y="-136.62" font-family="Helvetica,sans-Serif" font-size="10.00">effect_add_parameter</text>
</a>
</g>
</g>
<!-- Node1&#45;&gt;Node8 -->
<g id="edge5_Node000001_Node000008" class="edge">
<title>Node1&#45;&gt;Node8</title>
<g id="a_edge5_Node000001_Node000008"><a xlink:title=" ">
<path fill="none" stroke="#63b8ff" d="M76.33,-153.46C83.89,-152.39 92.08,-151.22 100.39,-150.05"/>
<polygon fill="#63b8ff" stroke="#63b8ff" points="100.83,-153.52 110.24,-148.65 99.85,-146.59 100.83,-153.52"/>
</a>
</g>
</g>
<!-- Node12 -->
<g id="Node000012" class="node">
<title>Node12</title>
<g id="a_Node000012"><a xlink:href="kest__effect_8c.html#abf12c30daf8ca1ac113eca5f22723cf7" target="_top" xlink:title=" ">
<polygon fill="white" stroke="#666666" points="227.38,-228.12 120.62,-228.12 120.62,-207.38 227.38,-207.38 227.38,-228.12"/>
<text xml:space="preserve" text-anchor="middle" x="174" y="-214.62" font-family="Helvetica,sans-Serif" font-size="10.00">effect_add_setting</text>
</a>
</g>
</g>
<!-- Node1&#45;&gt;Node12 -->
<g id="edge10_Node000001_Node000012" class="edge">
<title>Node1&#45;&gt;Node12</title>
<g id="a_edge10_Node000001_Node000012"><a xlink:title=" ">
<path fill="none" stroke="#63b8ff" d="M57.17,-169.6C71.68,-177.98 92.71,-189.51 112,-197.75 116.38,-199.62 121,-201.43 125.66,-203.13"/>
<polygon fill="#63b8ff" stroke="#63b8ff" points="124.47,-206.43 135.06,-206.43 126.78,-199.82 124.47,-206.43"/>
</a>
</g>
</g>
<!-- Node13 -->
<g id="Node000013" class="node">
<title>Node13</title>
<g id="a_Node000013"><a xlink:href="kest__effect_8c.html#a6d9927f6d82c964bd07bef5c77879010" target="_top" xlink:title=" ">
<polygon fill="white" stroke="#666666" points="206.75,-111.12 141.25,-111.12 141.25,-90.38 206.75,-90.38 206.75,-111.12"/>
<text xml:space="preserve" text-anchor="middle" x="174" y="-97.62" font-family="Helvetica,sans-Serif" font-size="10.00">init_effect</text>
</a>
</g>
</g>
<!-- Node1&#45;&gt;Node13 -->
<g id="edge14_Node000001_Node000013" class="edge">
<title>Node1&#45;&gt;Node13</title>
<g id="a_edge14_Node000001_Node000013"><a xlink:title=" ">
<path fill="none" stroke="#63b8ff" d="M57.8,-147.88C72.31,-139.76 93.04,-128.73 112,-120.75 117.78,-118.32 123.96,-115.99 130.09,-113.84"/>
<polygon fill="#63b8ff" stroke="#63b8ff" points="131.19,-117.16 139.54,-110.65 128.95,-110.53 131.19,-117.16"/>
</a>
</g>
</g>
<!-- Node3 -->
<g id="Node000003" class="node">
<title>Node3</title>
<g id="a_Node000003"><a xlink:href="kest__parameter_8c.html#a7c270a293ab879d0d3e757625c7c7dda" target="_top" xlink:title=" ">
<polygon fill="white" stroke="#666666" points="369.75,-267.12 281,-267.12 281,-246.38 369.75,-246.38 369.75,-267.12"/>
<text xml:space="preserve" text-anchor="middle" x="325.38" y="-253.62" font-family="Helvetica,sans-Serif" font-size="10.00">init_setting_str</text>
</a>
</g>
</g>
<!-- Node2&#45;&gt;Node3 -->
<g id="edge2_Node000002_Node000003" class="edge">
<title>Node2&#45;&gt;Node3</title>
<g id="a_edge2_Node000002_Node000003"><a xlink:title=" ">
<path fill="none" stroke="#63b8ff" d="M215.02,-188.71C222.29,-191.38 229.6,-194.69 236,-198.75 255.65,-211.2 252.65,-223.83 272,-236.75 274.25,-238.25 276.64,-239.67 279.1,-240.99"/>
<polygon fill="#63b8ff" stroke="#63b8ff" points="277.58,-244.15 288.11,-245.29 280.59,-237.83 277.58,-244.15"/>
</a>
</g>
</g>
<!-- Node7 -->
<g id="Node000007" class="node">
<title>Node7</title>
<g id="a_Node000007"><a xlink:href="kest__alloc_8c.html#a849755c5dc5b35e712ffcdb602e50fb4" target="_top" xlink:title=" ">
<polygon fill="white" stroke="#666666" points="357.75,-189.12 293,-189.12 293,-168.38 357.75,-168.38 357.75,-189.12"/>
<text xml:space="preserve" text-anchor="middle" x="325.38" y="-175.62" font-family="Helvetica,sans-Serif" font-size="10.00">kest_alloc</text>
</a>
</g>
</g>
<!-- Node2&#45;&gt;Node7 -->
<g id="edge4_Node000002_Node000007" class="edge">
<title>Node2&#45;&gt;Node7</title>
<g id="a_edge4_Node000002_Node000007"><a xlink:title=" ">
<path fill="none" stroke="#63b8ff" d="M215.03,-178.75C235.5,-178.75 260.43,-178.75 281.31,-178.75"/>
<polygon fill="#63b8ff" stroke="#63b8ff" points="281.24,-182.25 291.24,-178.75 281.24,-175.25 281.24,-182.25"/>
</a>
</g>
</g>
<!-- Node4 -->
<g id="Node000004" class="node">
<title>Node4</title>
<g id="a_Node000004"><a xlink:href="kest__parameter_8c.html#a3c9f839cffc5f0a9b0630682ce8e9b9c" target="_top" xlink:title=" ">
<polygon fill="#fff0f0" stroke="red" points="532.38,-221.5 423.38,-221.5 423.38,-188 532.38,-188 532.38,-221.5"/>
<text xml:space="preserve" text-anchor="start" x="431.38" y="-208" font-family="Helvetica,sans-Serif" font-size="10.00">kest_setting_effect</text>
<text xml:space="preserve" text-anchor="middle" x="477.88" y="-195.25" font-family="Helvetica,sans-Serif" font-size="10.00">_rep_update</text>
</a>
</g>
</g>
<!-- Node3&#45;&gt;Node4 -->
<g id="edge3_Node000003_Node000004" class="edge">
<title>Node3&#45;&gt;Node4</title>
<g id="a_edge3_Node000003_Node000004"><a xlink:title=" ">
<path fill="none" stroke="#63b8ff" d="M357.56,-245.98C374.56,-240.1 396.2,-232.62 416.37,-225.65"/>
<polygon fill="#63b8ff" stroke="#63b8ff" points="417.33,-229.03 425.64,-222.45 415.04,-222.41 417.33,-229.03"/>
</a>
</g>
</g>
<!-- Node8&#45;&gt;Node7 -->
<g id="edge8_Node000008_Node000007" class="edge">
<title>Node8&#45;&gt;Node7</title>
<g id="a_edge8_Node000008_Node000007"><a xlink:title=" ">
<path fill="none" stroke="#63b8ff" d="M216.61,-150.61C237,-155.94 261.52,-162.34 282.02,-167.69"/>
<polygon fill="#63b8ff" stroke="#63b8ff" points="280.91,-171.02 291.47,-170.16 282.68,-164.25 280.91,-171.02"/>
</a>
</g>
</g>
<!-- Node9 -->
<g id="Node000009" class="node">
<title>Node9</title>
<g id="a_Node000009"><a xlink:href="kest__parameter_8c.html#a41fafa04c21a8ab5916a8ceb5442d99a" target="_top" xlink:title=" ">
<polygon fill="white" stroke="#666666" points="378.38,-150.12 272.38,-150.12 272.38,-129.38 378.38,-129.38 378.38,-150.12"/>
<text xml:space="preserve" text-anchor="middle" x="325.38" y="-136.62" font-family="Helvetica,sans-Serif" font-size="10.00">init_parameter_str</text>
</a>
</g>
</g>
<!-- Node8&#45;&gt;Node9 -->
<g id="edge6_Node000008_Node000009" class="edge">
<title>Node8&#45;&gt;Node9</title>
<g id="a_edge6_Node000008_Node000009"><a xlink:title=" ">
<path fill="none" stroke="#63b8ff" d="M236.19,-139.75C244.29,-139.75 252.62,-139.75 260.76,-139.75"/>
<polygon fill="#63b8ff" stroke="#63b8ff" points="260.6,-143.25 270.6,-139.75 260.6,-136.25 260.6,-143.25"/>
</a>
</g>
</g>
<!-- Node11 -->
<g id="Node000011" class="node">
<title>Node11</title>
<g id="a_Node000011"><a xlink:href="kest__alloc_8c.html#a294af5728a94aa316fcf65304d388d48" target="_top" xlink:title=" ">
<polygon fill="white" stroke="#666666" points="355.88,-228.12 294.88,-228.12 294.88,-207.38 355.88,-207.38 355.88,-228.12"/>
<text xml:space="preserve" text-anchor="middle" x="325.38" y="-214.62" font-family="Helvetica,sans-Serif" font-size="10.00">kest_free</text>
</a>
</g>
</g>
<!-- Node8&#45;&gt;Node11 -->
<g id="edge9_Node000008_Node000011" class="edge">
<title>Node8&#45;&gt;Node11</title>
<g id="a_edge9_Node000008_Node000011"><a xlink:title=" ">
<path fill="none" stroke="#63b8ff" d="M217.26,-150.55C223.79,-153.07 230.26,-156.11 236,-159.75 255.65,-172.2 252.65,-184.83 272,-197.75 275.72,-200.23 279.79,-202.47 283.97,-204.47"/>
<polygon fill="#63b8ff" stroke="#63b8ff" points="282.46,-207.63 293.03,-208.35 285.22,-201.19 282.46,-207.63"/>
</a>
</g>
</g>
<!-- Node10 -->
<g id="Node000010" class="node">
<title>Node10</title>
<g id="a_Node000010"><a xlink:href="kest__parameter_8c.html#abff5b0dd3ed907207191aa6079c514eb" target="_top" xlink:title=" ">
<polygon fill="#fff0f0" stroke="red" points="541,-117.5 414.75,-117.5 414.75,-84 541,-84 541,-117.5"/>
<text xml:space="preserve" text-anchor="start" x="422.75" y="-104" font-family="Helvetica,sans-Serif" font-size="10.00">kest_parameter_effect</text>
<text xml:space="preserve" text-anchor="middle" x="477.88" y="-91.25" font-family="Helvetica,sans-Serif" font-size="10.00">_rep_update</text>
</a>
</g>
</g>
<!-- Node9&#45;&gt;Node10 -->
<g id="edge7_Node000009_Node000010" class="edge">
<title>Node9&#45;&gt;Node10</title>
<g id="a_edge7_Node000009_Node000010"><a xlink:title=" ">
<path fill="none" stroke="#63b8ff" d="M368.3,-128.89C379.22,-126.06 391.31,-122.92 403.35,-119.8"/>
<polygon fill="#63b8ff" stroke="#63b8ff" points="404.08,-123.23 412.88,-117.33 402.33,-116.45 404.08,-123.23"/>
</a>
</g>
</g>
<!-- Node12&#45;&gt;Node3 -->
<g id="edge11_Node000012_Node000003" class="edge">
<title>Node12&#45;&gt;Node3</title>
<g id="a_edge11_Node000012_Node000003"><a xlink:title=" ">
<path fill="none" stroke="#63b8ff" d="M216.61,-228.61C233.7,-233.07 253.68,-238.29 271.76,-243.01"/>
<polygon fill="#63b8ff" stroke="#63b8ff" points="270.71,-246.35 281.27,-245.49 272.47,-239.58 270.71,-246.35"/>
</a>
</g>
</g>
<!-- Node12&#45;&gt;Node7 -->
<g id="edge12_Node000012_Node000007" class="edge">
<title>Node12&#45;&gt;Node7</title>
<g id="a_edge12_Node000012_Node000007"><a xlink:title=" ">
<path fill="none" stroke="#63b8ff" d="M216.61,-206.89C237,-201.56 261.52,-195.16 282.02,-189.81"/>
<polygon fill="#63b8ff" stroke="#63b8ff" points="282.68,-193.25 291.47,-187.34 280.91,-186.48 282.68,-193.25"/>
</a>
</g>
</g>
<!-- Node12&#45;&gt;Node11 -->
<g id="edge13_Node000012_Node000011" class="edge">
<title>Node12&#45;&gt;Node11</title>
<g id="a_edge13_Node000012_Node000011"><a xlink:title=" ">
<path fill="none" stroke="#63b8ff" d="M227.66,-217.75C245.95,-217.75 266.18,-217.75 283.39,-217.75"/>
<polygon fill="#63b8ff" stroke="#63b8ff" points="283.24,-221.25 293.24,-217.75 283.24,-214.25 283.24,-221.25"/>
</a>
</g>
</g>
<!-- Node13&#45;&gt;Node7 -->
<g id="edge19_Node000013_Node000007" class="edge">
<title>Node13&#45;&gt;Node7</title>
<g id="a_edge19_Node000013_Node000007"><a xlink:title=" ">
<path fill="none" stroke="#63b8ff" d="M207.05,-108C216.8,-111.05 227.24,-115.2 236,-120.75 255.65,-133.2 252.65,-145.83 272,-158.75 275.21,-160.9 278.69,-162.86 282.27,-164.64"/>
<polygon fill="#63b8ff" stroke="#63b8ff" points="280.57,-167.71 291.12,-168.58 283.41,-161.31 280.57,-167.71"/>
</a>
</g>
</g>
<!-- Node14 -->
<g id="Node000014" class="node">
<title>Node14</title>
<g id="a_Node000014"><a xlink:href="kest__parameter_8c.html#a2b94ddb1588d1a5af4311970bb068122" target="_top" xlink:title=" ">
<polygon fill="white" stroke="#666666" points="369.38,-72.12 281.38,-72.12 281.38,-51.38 369.38,-51.38 369.38,-72.12"/>
<text xml:space="preserve" text-anchor="middle" x="325.38" y="-58.62" font-family="Helvetica,sans-Serif" font-size="10.00">init_parameter</text>
</a>
</g>
</g>
<!-- Node13&#45;&gt;Node14 -->
<g id="edge15_Node000013_Node000014" class="edge">
<title>Node13&#45;&gt;Node14</title>
<g id="a_edge15_Node000013_Node000014"><a xlink:title=" ">
<path fill="none" stroke="#63b8ff" d="M207.04,-92.38C225.88,-87.47 250.15,-81.13 271.73,-75.49"/>
<polygon fill="#63b8ff" stroke="#63b8ff" points="272.47,-78.92 281.26,-73.01 270.7,-72.15 272.47,-78.92"/>
</a>
</g>
</g>
<!-- Node15 -->
<g id="Node000015" class="node">
<title>Node15</title>
<g id="a_Node000015"><a xlink:href="kest__parameter_8c.html#a62dd23a17e3d4ca94ec6a8ff311e8b94" target="_top" xlink:title=" ">
<polygon fill="white" stroke="#666666" points="360.75,-111.12 290,-111.12 290,-90.38 360.75,-90.38 360.75,-111.12"/>
<text xml:space="preserve" text-anchor="middle" x="325.38" y="-97.62" font-family="Helvetica,sans-Serif" font-size="10.00">init_setting</text>
</a>
</g>
</g>
<!-- Node13&#45;&gt;Node15 -->
<g id="edge17_Node000013_Node000015" class="edge">
<title>Node13&#45;&gt;Node15</title>
<g id="a_edge17_Node000013_Node000015"><a xlink:title=" ">
<path fill="none" stroke="#63b8ff" d="M207.04,-100.75C227.8,-100.75 255.16,-100.75 278.24,-100.75"/>
<polygon fill="#63b8ff" stroke="#63b8ff" points="278,-104.25 288,-100.75 278,-97.25 278,-104.25"/>
</a>
</g>
</g>
<!-- Node16 -->
<g id="Node000016" class="node">
<title>Node16</title>
<g id="a_Node000016"><a xlink:href="kest__effect_8c.html#abd8eb2f7c5fa3c26690cddd429257881" target="_top" xlink:title=" ">
<polygon fill="white" stroke="#666666" points="378.75,-33.5 272,-33.5 272,0 378.75,0 378.75,-33.5"/>
<text xml:space="preserve" text-anchor="start" x="280" y="-20" font-family="Helvetica,sans-Serif" font-size="10.00">kest_effect_profile</text>
<text xml:space="preserve" text-anchor="middle" x="325.38" y="-7.25" font-family="Helvetica,sans-Serif" font-size="10.00">_rep_update</text>
</a>
</g>
</g>
<!-- Node13&#45;&gt;Node16 -->
<g id="edge20_Node000013_Node000016" class="edge">
<title>Node13&#45;&gt;Node16</title>
<g id="a_edge20_Node000013_Node000016"><a xlink:title=" ">
<path fill="none" stroke="#63b8ff" d="M191.94,-90.07C211.11,-78.11 243.41,-58.36 272,-42.75 274.21,-41.54 276.48,-40.33 278.78,-39.12"/>
<polygon fill="#63b8ff" stroke="#63b8ff" points="280.34,-42.25 287.62,-34.55 277.13,-36.03 280.34,-42.25"/>
</a>
</g>
</g>
<!-- Node14&#45;&gt;Node10 -->
<g id="edge16_Node000014_Node000010" class="edge">
<title>Node14&#45;&gt;Node10</title>
<g id="a_edge16_Node000014_Node000010"><a xlink:title=" ">
<path fill="none" stroke="#63b8ff" d="M368.3,-72.61C379.22,-75.44 391.31,-78.58 403.35,-81.7"/>
<polygon fill="#63b8ff" stroke="#63b8ff" points="402.33,-85.05 412.88,-84.17 404.08,-78.27 402.33,-85.05"/>
</a>
</g>
</g>
<!-- Node15&#45;&gt;Node4 -->
<g id="edge18_Node000015_Node000004" class="edge">
<title>Node15&#45;&gt;Node4</title>
<g id="a_edge18_Node000015_Node000004"><a xlink:title=" ">
<path fill="none" stroke="#63b8ff" d="M359.87,-111.57C366.32,-114.2 372.89,-117.27 378.75,-120.75 406.33,-137.15 433.73,-161.46 452.54,-179.71"/>
<polygon fill="#63b8ff" stroke="#63b8ff" points="449.9,-182.02 459.47,-186.56 454.82,-177.04 449.9,-182.02"/>
</a>
</g>
</g>
<!-- Node17 -->
<g id="Node000017" class="node">
<title>Node17</title>
<g id="a_Node000017"><a xlink:href="kest__files_8c.html#ab39f3c0d9f0a16ccb7d076a22fc4ca22" target="_top" xlink:title=" ">
<polygon fill="#fff0f0" stroke="red" points="515.88,-27.12 439.88,-27.12 439.88,-6.38 515.88,-6.38 515.88,-27.12"/>
<text xml:space="preserve" text-anchor="middle" x="477.88" y="-13.62" font-family="Helvetica,sans-Serif" font-size="10.00">save_profile</text>
</a>
</g>
</g>
<!-- Node16&#45;&gt;Node17 -->
<g id="edge21_Node000016_Node000017" class="edge">
<title>Node16&#45;&gt;Node17</title>
<g id="a_edge21_Node000016_Node000017"><a xlink:title=" ">
<path fill="none" stroke="#63b8ff" d="M379.01,-16.75C395.11,-16.75 412.73,-16.75 428.53,-16.75"/>
<polygon fill="#63b8ff" stroke="#63b8ff" points="428.15,-20.25 438.15,-16.75 428.15,-13.25 428.15,-20.25"/>
</a>
</g>
</g>
</g>
</svg>

<g id="navigator" transform="translate(0 0)" fill="#404254">
  <rect fill="#f2f5e9" fill-opacity="0.5" stroke="#606060" stroke-width=".5" x="0" y="0" width="60" height="60"/>
  <use id="zoomplus" xlink:href="#zoomPlus" x="17" y="9" onmousedown="handleZoom(evt,'in')"/>
  <use id="zoomminus" xlink:href="#zoomMin" x="42" y="9" onmousedown="handleZoom(evt,'out')"/>
  <use id="reset" xlink:href="#resetDef" x="30" y="36" onmousedown="handleReset()"/>
   <use id="arrowup" xlink:href="#arrowUp" x="0" y="0" onmousedown="handlePan(0,-1)"/>
  <use id="arrowright" xlink:href="#arrowRight" x="0" y="0" onmousedown="handlePan(1,0)"/>
  <use id="arrowdown" xlink:href="#arrowDown" x="0" y="0" onmousedown="handlePan(0,1)"/>
  <use id="arrowleft" xlink:href="#arrowLeft" x="0" y="0" onmousedown="handlePan(-1,0)"/>
</g>
<svg viewBox="0 0 15 15" width="100%" height="30px" preserveAspectRatio="xMaxYMin meet">
 <g id="arrow_out" transform="scale(0.3 0.3)">
  <a xlink:href="kest__effect_8c_a935977843051ad81db1a153f2956658e_cgraph_org.svg" target="_base">
   <rect id="button" ry="5" rx="5" y="6" x="6" height="38" width="38"
        fill="#f2f5e9" fill-opacity="0.5" stroke="#606060" stroke-width="1.0"/>
   <path id="arrow"
     d="M 11.500037,31.436501 C 11.940474,20.09759 22.043105,11.32322 32.158766,21.979434 L 37.068811,17.246167 C 37.068811,17.246167 37.088388,32 37.088388,32 L 22.160133,31.978069 C 22.160133,31.978069 26.997745,27.140456 26.997745,27.140456 C 18.528582,18.264221 13.291696,25.230495 11.500037,31.436501 z"
     style="fill:#404040;"/>
  </a>
 </g>
</svg>

<style type='text/css'>
<![CDATA[
[data-mouse-over-selected='false'] { opacity: 0.7; }
[data-mouse-over-selected='true']  { opacity: 1.0; }
]]>
</style>
<script type="application/ecmascript"><![CDATA[
document.addEventListener('DOMContentLoaded', (event) => {
  highlightEdges();
  highlightAdjacentNodes();
});
]]></script>
</svg>
