<?xml version="1.0" encoding="UTF-8" standalone="no"?>
<!DOCTYPE svg PUBLIC "-//W3C//DTD SVG 1.1//EN"
 "http://www.w3.org/Graphics/SVG/1.1/DTD/svg11.dtd">
<!-- Generated by graphviz version 13.1.2 (20250808.2320)
 -->
<!-- Title: gut_setting Pages: 1 -->
<svg width="546pt" height="167pt"
 viewBox="0.00 0.00 546.00 167.00" xmlns="http://www.w3.org/2000/svg" xmlns:xlink="http://www.w3.org/1999/xlink">
<g id="graph0" class="graph" transform="scale(1 1) rotate(0) translate(4 163.12)">
<title>gut_setting</title>
<!-- Node1 -->
<g id="Node000001" class="node">
<title>Node1</title>
<g id="a_Node000001"><a xlink:title=" ">
<polygon fill="#999999" stroke="#666666" points="538,-114.12 467.25,-114.12 467.25,-93.38 538,-93.38 538,-114.12"/>
<text xml:space="preserve" text-anchor="middle" x="502.62" y="-100.62" font-family="Helvetica,sans-Serif" font-size="10.00">gut_setting</text>
</a>
</g>
</g>
<!-- Node2 -->
<g id="Node000002" class="node">
<title>Node2</title>
<g id="a_Node000002"><a xlink:href="kest__effect_8c.html#a85452ce9d186abbc8864a17f582cc09c" target="_top" xlink:title=" ">
<polygon fill="white" stroke="#666666" points="406.5,-159.12 341,-159.12 341,-138.38 406.5,-138.38 406.5,-159.12"/>
<text xml:space="preserve" text-anchor="middle" x="373.75" y="-145.62" font-family="Helvetica,sans-Serif" font-size="10.00">gut_effect</text>
</a>
</g>
</g>
<!-- Node1&#45;&gt;Node2 -->
<g id="edge1_Node000001_Node000002" class="edge">
<title>Node1&#45;&gt;Node2</title>
<g id="a_edge1_Node000001_Node000002"><a xlink:title=" ">
<path fill="none" stroke="#63b8ff" d="M462.34,-118.5C452.23,-122.23 441.35,-126.19 431.25,-129.75 423.34,-132.54 414.79,-135.46 406.78,-138.16"/>
<polygon fill="#63b8ff" stroke="#63b8ff" points="463.35,-121.85 471.51,-115.09 460.92,-115.29 463.35,-121.85"/>
</a>
</g>
</g>
<!-- Node3 -->
<g id="Node000003" class="node">
<title>Node3</title>
<g id="a_Node000003"><a xlink:href="kest__dict__extract_8c.html#a0225c4392c944b41b1db66787be35243" target="_top" xlink:title=" ">
<polygon fill="white" stroke="#666666" points="431.25,-120.5 316.25,-120.5 316.25,-87 431.25,-87 431.25,-120.5"/>
<text xml:space="preserve" text-anchor="start" x="324.25" y="-107" font-family="Helvetica,sans-Serif" font-size="10.00">kest_extract_setting</text>
<text xml:space="preserve" text-anchor="middle" x="373.75" y="-94.25" font-family="Helvetica,sans-Serif" font-size="10.00">_from_dict</text>
</a>
</g>
</g>
<!-- Node1&#45;&gt;Node3 -->
<g id="edge2_Node000001_Node000003" class="edge">
<title>Node1&#45;&gt;Node3</title>
<g id="a_edge2_Node000001_Node000003"><a xlink:title=" ">
<path fill="none" stroke="#63b8ff" d="M455.71,-103.75C447.8,-103.75 439.5,-103.75 431.35,-103.75"/>
<polygon fill="#63b8ff" stroke="#63b8ff" points="455.44,-107.25 465.44,-103.75 455.44,-100.25 455.44,-107.25"/>
</a>
</g>
</g>
<!-- Node11 -->
<g id="Node000011" class="node">
<title>Node11</title>
<g id="a_Node000011"><a xlink:href="kest__parameter_8c.html#a6426ab9815dd11cad99a9dd9283423b0" target="_top" xlink:title=" ">
<polygon fill="white" stroke="#666666" points="423.75,-69.12 323.75,-69.12 323.75,-48.38 423.75,-48.38 423.75,-69.12"/>
<text xml:space="preserve" text-anchor="middle" x="373.75" y="-55.62" font-family="Helvetica,sans-Serif" font-size="10.00">kest_setting_free</text>
</a>
</g>
</g>
<!-- Node1&#45;&gt;Node11 -->
<g id="edge5_Node000001_Node000011" class="edge">
<title>Node1&#45;&gt;Node11</title>
<g id="a_edge5_Node000001_Node000011"><a xlink:title=" ">
<path fill="none" stroke="#63b8ff" d="M462.34,-89C452.23,-85.27 441.35,-81.31 431.25,-77.75 423.54,-75.03 415.21,-72.18 407.37,-69.54"/>
<polygon fill="#63b8ff" stroke="#63b8ff" points="460.92,-92.21 471.51,-92.41 463.35,-85.65 460.92,-92.21"/>
</a>
</g>
</g>
<!-- Node4 -->
<g id="Node000004" class="node">
<title>Node4</title>
<g id="a_Node000004"><a xlink:href="kest__eff__section_8c.html#ac86840256c51c90c1c1066da9b88e7af" target="_top" xlink:title=" ">
<polygon fill="white" stroke="#666666" points="280.25,-120.5 159.25,-120.5 159.25,-87 280.25,-87 280.25,-120.5"/>
<text xml:space="preserve" text-anchor="start" x="167.25" y="-107" font-family="Helvetica,sans-Serif" font-size="10.00">kest_settings_section</text>
<text xml:space="preserve" text-anchor="middle" x="219.75" y="-94.25" font-family="Helvetica,sans-Serif" font-size="10.00">_extract</text>
</a>
</g>
</g>
<!-- Node3&#45;&gt;Node4 -->
<g id="edge3_Node000003_Node000004" class="edge">
<title>Node3&#45;&gt;Node4</title>
<g id="a_edge3_Node000003_Node000004"><a xlink:title=" ">
<path fill="none" stroke="#63b8ff" d="M304.88,-103.75C296.82,-103.75 288.64,-103.75 280.71,-103.75"/>
<polygon fill="#63b8ff" stroke="#63b8ff" points="304.64,-107.25 314.64,-103.75 304.64,-100.25 304.64,-107.25"/>
</a>
</g>
</g>
<!-- Node5 -->
<g id="Node000005" class="node">
<title>Node5</title>
<g id="a_Node000005"><a xlink:href="kest__eff__parser_8c.html#a73ef6962d1925857ec3e4b12d1aad834" target="_top" xlink:title=" ">
<polygon fill="#fff0f0" stroke="red" points="114.62,-114.12 8.62,-114.12 8.62,-93.38 114.62,-93.38 114.62,-114.12"/>
<text xml:space="preserve" text-anchor="middle" x="61.62" y="-100.62" font-family="Helvetica,sans-Serif" font-size="10.00">kest_parse_tokens</text>
</a>
</g>
</g>
<!-- Node4&#45;&gt;Node5 -->
<g id="edge4_Node000004_Node000005" class="edge">
<title>Node4&#45;&gt;Node5</title>
<g id="a_edge4_Node000004_Node000005"><a xlink:title=" ">
<path fill="none" stroke="#63b8ff" d="M147.52,-103.75C136.57,-103.75 125.44,-103.75 114.99,-103.75"/>
<polygon fill="#63b8ff" stroke="#63b8ff" points="147.32,-107.25 157.32,-103.75 147.32,-100.25 147.32,-107.25"/>
</a>
</g>
</g>
<!-- Node12 -->
<g id="Node000012" class="node">
<title>Node12</title>
<g id="a_Node000012"><a xlink:href="kest__effect_8c.html#a09f04708e6ffd20ecaba2c10460cb1eb" target="_top" xlink:title=" ">
<polygon fill="white" stroke="#666666" points="254.38,-69.12 185.12,-69.12 185.12,-48.38 254.38,-48.38 254.38,-69.12"/>
<text xml:space="preserve" text-anchor="middle" x="219.75" y="-55.62" font-family="Helvetica,sans-Serif" font-size="10.00">free_effect</text>
</a>
</g>
</g>
<!-- Node11&#45;&gt;Node12 -->
<g id="edge6_Node000011_Node000012" class="edge">
<title>Node11&#45;&gt;Node12</title>
<g id="a_edge6_Node000011_Node000012"><a xlink:title=" ">
<path fill="none" stroke="#63b8ff" d="M312.06,-58.75C292.45,-58.75 271.42,-58.75 254.49,-58.75"/>
<polygon fill="#63b8ff" stroke="#63b8ff" points="311.89,-62.25 321.89,-58.75 311.89,-55.25 311.89,-62.25"/>
</a>
</g>
</g>
<!-- Node13 -->
<g id="Node000013" class="node">
<title>Node13</title>
<g id="a_Node000013"><a xlink:href="kest__pipeline_8c.html#a840a0f31f2703ff6040d47245cc56c7a" target="_top" xlink:title=" ">
<polygon fill="#fff0f0" stroke="red" points="99.62,-72.12 23.62,-72.12 23.62,-51.38 99.62,-51.38 99.62,-72.12"/>
<text xml:space="preserve" text-anchor="middle" x="61.62" y="-58.62" font-family="Helvetica,sans-Serif" font-size="10.00">gut_pipeline</text>
</a>
</g>
</g>
<!-- Node12&#45;&gt;Node13 -->
<g id="edge7_Node000012_Node000013" class="edge">
<title>Node12&#45;&gt;Node13</title>
<g id="a_edge7_Node000012_Node000013"><a xlink:title=" ">
<path fill="none" stroke="#63b8ff" d="M173.51,-59.62C150.18,-60.07 122.07,-60.61 99.99,-61.03"/>
<polygon fill="#63b8ff" stroke="#63b8ff" points="173.43,-63.12 183.36,-59.43 173.29,-56.12 173.43,-63.12"/>
</a>
</g>
</g>
<!-- Node38 -->
<g id="Node000038" class="node">
<title>Node38</title>
<g id="a_Node000038"><a xlink:href="kest__pipeline_8c.html#a73cdb3a338dc34668b63859d87ba81b9" target="_top" xlink:title=" ">
<polygon fill="#fff0f0" stroke="red" points="123.25,-33.5 0,-33.5 0,0 123.25,0 123.25,-33.5"/>
<text xml:space="preserve" text-anchor="start" x="8" y="-20" font-family="Helvetica,sans-Serif" font-size="10.00">kest_pipeline_remove</text>
<text xml:space="preserve" text-anchor="middle" x="61.62" y="-7.25" font-family="Helvetica,sans-Serif" font-size="10.00">_effect</text>
</a>
</g>
</g>
<!-- Node12&#45;&gt;Node38 -->
<g id="edge8_Node000012_Node000038" class="edge">
<title>Node12&#45;&gt;Node38</title>
<g id="a_edge8_Node000012_Node000038"><a xlink:title=" ">
<path fill="none" stroke="#63b8ff" d="M173.88,-46.68C158.18,-42.46 140.29,-37.64 123.5,-33.13"/>
<polygon fill="#63b8ff" stroke="#63b8ff" points="172.85,-50.03 183.41,-49.24 174.66,-43.27 172.85,-50.03"/>
</a>
</g>
</g>
</g>
</svg>
