<?xml version="1.0" encoding="UTF-8" standalone="no"?>
<!DOCTYPE svg PUBLIC "-//W3C//DTD SVG 1.1//EN"
 "http://www.w3.org/Graphics/SVG/1.1/DTD/svg11.dtd">
<!-- Generated by graphviz version 13.1.2 (20250808.2320)
 -->
<!-- Title: kest_filter_compute_format Pages: 1 -->
<svg width="803pt" height="292pt"
 viewBox="0.00 0.00 803.00 292.00" xmlns="http://www.w3.org/2000/svg" xmlns:xlink="http://www.w3.org/1999/xlink">
<g id="graph0" class="graph" transform="scale(1 1) rotate(0) translate(4 288.12)">
<title>kest_filter_compute_format</title>
<!-- Node1 -->
<g id="Node000001" class="node">
<title>Node1</title>
<g id="a_Node000001"><a xlink:title=" ">
<polygon fill="#999999" stroke="#666666" points="112.75,-144.12 0,-144.12 0,-110.62 112.75,-110.62 112.75,-144.12"/>
<text xml:space="preserve" text-anchor="start" x="8" y="-130.62" font-family="Helvetica,sans-Serif" font-size="10.00">kest_filter_compute</text>
<text xml:space="preserve" text-anchor="middle" x="56.38" y="-117.88" font-family="Helvetica,sans-Serif" font-size="10.00">_format</text>
</a>
</g>
</g>
<!-- Node2 -->
<g id="Node000002" class="node">
<title>Node2</title>
<g id="a_Node000002"><a xlink:href="kest__fixed__point_8c.html#ac5145d24cb0e25a237f9c8d30b8fc0d2" target="_top" xlink:title=" ">
<polygon fill="white" stroke="#666666" points="291.5,-144.12 148.75,-144.12 148.75,-110.62 291.5,-110.62 291.5,-144.12"/>
<text xml:space="preserve" text-anchor="start" x="156.75" y="-130.62" font-family="Helvetica,sans-Serif" font-size="10.00">kest_expression_compute</text>
<text xml:space="preserve" text-anchor="middle" x="220.12" y="-117.88" font-family="Helvetica,sans-Serif" font-size="10.00">_format</text>
</a>
</g>
</g>
<!-- Node1&#45;&gt;Node2 -->
<g id="edge1_Node000001_Node000002" class="edge">
<title>Node1&#45;&gt;Node2</title>
<g id="a_edge1_Node000001_Node000002"><a xlink:title=" ">
<path fill="none" stroke="#63b8ff" d="M113.04,-127.38C120.8,-127.38 128.91,-127.38 137.04,-127.38"/>
<polygon fill="#63b8ff" stroke="#63b8ff" points="136.99,-130.88 146.99,-127.38 136.99,-123.88 136.99,-130.88"/>
</a>
</g>
</g>
<!-- Node3 -->
<g id="Node000003" class="node">
<title>Node3</title>
<g id="a_Node000003"><a xlink:href="kest__expression_8c.html#a5f48e88077ddcd3c3de79b597094a3ef" target="_top" xlink:title=" ">
<polygon fill="white" stroke="#666666" points="470.25,-266.12 327.5,-266.12 327.5,-232.62 470.25,-232.62 470.25,-266.12"/>
<text xml:space="preserve" text-anchor="start" x="335.5" y="-252.62" font-family="Helvetica,sans-Serif" font-size="10.00">kest_expression_compute</text>
<text xml:space="preserve" text-anchor="middle" x="398.88" y="-239.88" font-family="Helvetica,sans-Serif" font-size="10.00">_range</text>
</a>
</g>
</g>
<!-- Node2&#45;&gt;Node3 -->
<g id="edge2_Node000002_Node000003" class="edge">
<title>Node2&#45;&gt;Node3</title>
<g id="a_edge2_Node000002_Node000003"><a xlink:title=" ">
<path fill="none" stroke="#63b8ff" d="M237.94,-144.54C257.92,-164.24 292.93,-196.64 327.5,-218.38 332.59,-221.57 338.06,-224.6 343.62,-227.43"/>
<polygon fill="#63b8ff" stroke="#63b8ff" points="341.79,-230.43 352.32,-231.62 344.83,-224.13 341.79,-230.43"/>
</a>
</g>
</g>
<!-- Node9 -->
<g id="Node000009" class="node">
<title>Node9</title>
<g id="a_Node000009"><a xlink:href="kest__expression_8c.html#aadf2a6a074cb1ad7b45893704cbd71c3" target="_top" xlink:title=" ">
<polygon fill="#fff0f0" stroke="red" points="794.75,-243.12 685,-243.12 685,-209.62 794.75,-209.62 794.75,-243.12"/>
<text xml:space="preserve" text-anchor="start" x="693" y="-229.62" font-family="Helvetica,sans-Serif" font-size="10.00">kest_expression_to</text>
<text xml:space="preserve" text-anchor="middle" x="739.88" y="-216.88" font-family="Helvetica,sans-Serif" font-size="10.00">_string</text>
</a>
</g>
</g>
<!-- Node2&#45;&gt;Node9 -->
<g id="edge6_Node000002_Node000009" class="edge">
<title>Node2&#45;&gt;Node9</title>
<g id="a_edge6_Node000002_Node000009"><a xlink:title=" ">
<path fill="none" stroke="#63b8ff" d="M245.64,-144.46C266.43,-158 297.55,-176.14 327.5,-185.38 390.34,-204.76 573.99,-217.4 673.31,-223.02"/>
<polygon fill="#63b8ff" stroke="#63b8ff" points="673,-226.51 683.18,-223.57 673.39,-219.52 673,-226.51"/>
</a>
</g>
</g>
<!-- Node17 -->
<g id="Node000017" class="node">
<title>Node17</title>
<g id="a_Node000017"><a xlink:href="kest__alloc_8c.html#a294af5728a94aa316fcf65304d388d48" target="_top" xlink:title=" ">
<polygon fill="white" stroke="#666666" points="429.38,-176.75 368.38,-176.75 368.38,-156 429.38,-156 429.38,-176.75"/>
<text xml:space="preserve" text-anchor="middle" x="398.88" y="-163.25" font-family="Helvetica,sans-Serif" font-size="10.00">kest_free</text>
</a>
</g>
</g>
<!-- Node2&#45;&gt;Node17 -->
<g id="edge7_Node000002_Node000017" class="edge">
<title>Node2&#45;&gt;Node17</title>
<g id="a_edge7_Node000002_Node000017"><a xlink:title=" ">
<path fill="none" stroke="#63b8ff" d="M292,-143.01C314.05,-147.88 337.62,-153.08 356.91,-157.34"/>
<polygon fill="#63b8ff" stroke="#63b8ff" points="356.03,-160.73 366.54,-159.46 357.53,-153.89 356.03,-160.73"/>
</a>
</g>
</g>
<!-- Node18 -->
<g id="Node000018" class="node">
<title>Node18</title>
<g id="a_Node000018"><a xlink:href="kest__string_8c.html#a5e8184b1f070fc74a7d1d2f08c4d9658" target="_top" xlink:title=" ">
<polygon fill="white" stroke="#666666" points="456,-137.75 341.75,-137.75 341.75,-117 456,-117 456,-137.75"/>
<text xml:space="preserve" text-anchor="middle" x="398.88" y="-124.25" font-family="Helvetica,sans-Serif" font-size="10.00">kest_string_appendf</text>
</a>
</g>
</g>
<!-- Node2&#45;&gt;Node18 -->
<g id="edge8_Node000002_Node000018" class="edge">
<title>Node2&#45;&gt;Node18</title>
<g id="a_edge8_Node000002_Node000018"><a xlink:title=" ">
<path fill="none" stroke="#63b8ff" d="M292,-127.38C304.57,-127.38 317.64,-127.38 330.12,-127.38"/>
<polygon fill="#63b8ff" stroke="#63b8ff" points="329.88,-130.88 339.88,-127.38 329.88,-123.88 329.88,-130.88"/>
</a>
</g>
</g>
<!-- Node20 -->
<g id="Node000020" class="node">
<title>Node20</title>
<g id="a_Node000020"><a xlink:href="kest__string_8c.html#ad346e7c1a0b506f7eca9423a05b47f11" target="_top" xlink:title=" ">
<polygon fill="white" stroke="#666666" points="454.5,-98.75 343.25,-98.75 343.25,-78 454.5,-78 454.5,-98.75"/>
<text xml:space="preserve" text-anchor="middle" x="398.88" y="-85.25" font-family="Helvetica,sans-Serif" font-size="10.00">kest_string_destroy</text>
</a>
</g>
</g>
<!-- Node2&#45;&gt;Node20 -->
<g id="edge10_Node000002_Node000020" class="edge">
<title>Node2&#45;&gt;Node20</title>
<g id="a_edge10_Node000002_Node000020"><a xlink:title=" ">
<path fill="none" stroke="#63b8ff" d="M292,-111.74C307.15,-108.39 323.02,-104.89 337.72,-101.65"/>
<polygon fill="#63b8ff" stroke="#63b8ff" points="338.22,-105.12 347.23,-99.55 336.71,-98.29 338.22,-105.12"/>
</a>
</g>
</g>
<!-- Node21 -->
<g id="Node000021" class="node">
<title>Node21</title>
<g id="a_Node000021"><a xlink:href="kest__string_8c.html#ab74edc9a2be32d899a92ef58edb16286" target="_top" xlink:title=" ">
<polygon fill="white" stroke="#666666" points="444,-59.75 353.75,-59.75 353.75,-39 444,-39 444,-59.75"/>
<text xml:space="preserve" text-anchor="middle" x="398.88" y="-46.25" font-family="Helvetica,sans-Serif" font-size="10.00">kest_string_init</text>
</a>
</g>
</g>
<!-- Node2&#45;&gt;Node21 -->
<g id="edge11_Node000002_Node000021" class="edge">
<title>Node2&#45;&gt;Node21</title>
<g id="a_edge11_Node000002_Node000021"><a xlink:title=" ">
<path fill="none" stroke="#63b8ff" d="M248.29,-110.37C269.31,-97.75 299.46,-80.84 327.5,-69.38 332.66,-67.27 338.12,-65.29 343.62,-63.47"/>
<polygon fill="#63b8ff" stroke="#63b8ff" points="344.25,-66.94 352.74,-60.61 342.16,-60.26 344.25,-66.94"/>
</a>
</g>
</g>
<!-- Node22 -->
<g id="Node000022" class="node">
<title>Node22</title>
<g id="a_Node000022"><a xlink:href="kest__string_8c.html#a476a3ace857a6df4b94057b078a5bcb3" target="_top" xlink:title=" ">
<polygon fill="white" stroke="#666666" points="459,-20.75 338.75,-20.75 338.75,0 459,0 459,-20.75"/>
<text xml:space="preserve" text-anchor="middle" x="398.88" y="-7.25" font-family="Helvetica,sans-Serif" font-size="10.00">kest_string_to_native</text>
</a>
</g>
</g>
<!-- Node2&#45;&gt;Node22 -->
<g id="edge12_Node000002_Node000022" class="edge">
<title>Node2&#45;&gt;Node22</title>
<g id="a_edge12_Node000002_Node000022"><a xlink:title=" ">
<path fill="none" stroke="#63b8ff" d="M235.18,-110.41C254.02,-88.74 289.51,-51.53 327.5,-30.38 330.88,-28.5 334.44,-26.78 338.11,-25.22"/>
<polygon fill="#63b8ff" stroke="#63b8ff" points="339.12,-28.58 347.21,-21.74 336.62,-22.04 339.12,-28.58"/>
</a>
</g>
</g>
<!-- Node4 -->
<g id="Node000004" class="node">
<title>Node4</title>
<g id="a_Node000004"><a xlink:href="kest__expression_8c.html#a12b486853cdfbc5ca334e74f9a90de2b" target="_top" xlink:title=" ">
<polygon fill="#fff0f0" stroke="red" points="649,-266.12 506.25,-266.12 506.25,-232.62 649,-232.62 649,-266.12"/>
<text xml:space="preserve" text-anchor="start" x="514.25" y="-252.62" font-family="Helvetica,sans-Serif" font-size="10.00">kest_expression_compute</text>
<text xml:space="preserve" text-anchor="middle" x="577.62" y="-239.88" font-family="Helvetica,sans-Serif" font-size="10.00">_range_rec</text>
</a>
</g>
</g>
<!-- Node3&#45;&gt;Node4 -->
<g id="edge3_Node000003_Node000004" class="edge">
<title>Node3&#45;&gt;Node4</title>
<g id="a_edge3_Node000003_Node000004"><a xlink:title=" ">
<path fill="none" stroke="#63b8ff" d="M470.75,-249.38C478.65,-249.38 486.74,-249.38 494.76,-249.38"/>
<polygon fill="#63b8ff" stroke="#63b8ff" points="494.51,-252.88 504.51,-249.38 494.51,-245.88 494.51,-252.88"/>
</a>
</g>
</g>
<!-- Node4&#45;&gt;Node4 -->
<g id="edge4_Node000004_Node000004" class="edge">
<title>Node4&#45;&gt;Node4</title>
<g id="a_edge4_Node000004_Node000004"><a xlink:title=" ">
<path fill="none" stroke="#63b8ff" d="M548.46,-266.54C543.5,-275.74 553.22,-284.12 577.62,-284.12 591.35,-284.12 600.43,-281.47 604.87,-277.51"/>
<polygon fill="#63b8ff" stroke="#63b8ff" points="608.25,-278.48 606.53,-268.03 601.36,-277.28 608.25,-278.48"/>
</a>
</g>
</g>
<!-- Node4&#45;&gt;Node9 -->
<g id="edge5_Node000004_Node000009" class="edge">
<title>Node4&#45;&gt;Node9</title>
<g id="a_edge5_Node000004_Node000009"><a xlink:title=" ">
<path fill="none" stroke="#63b8ff" d="M649.38,-239.22C657.47,-238.06 665.69,-236.88 673.71,-235.73"/>
<polygon fill="#63b8ff" stroke="#63b8ff" points="673.97,-239.23 683.37,-234.34 672.97,-232.3 673.97,-239.23"/>
</a>
</g>
</g>
<!-- Node19 -->
<g id="Node000019" class="node">
<title>Node19</title>
<g id="a_Node000019"><a xlink:href="kest__string_8c.html#ab38fd4531ec8be3f9c32f467f6808951" target="_top" xlink:title=" ">
<polygon fill="white" stroke="#666666" points="641.88,-137.75 513.38,-137.75 513.38,-117 641.88,-117 641.88,-137.75"/>
<text xml:space="preserve" text-anchor="middle" x="577.62" y="-124.25" font-family="Helvetica,sans-Serif" font-size="10.00">kest_string_append_str</text>
</a>
</g>
</g>
<!-- Node18&#45;&gt;Node19 -->
<g id="edge9_Node000018_Node000019" class="edge">
<title>Node18&#45;&gt;Node19</title>
<g id="a_edge9_Node000018_Node000019"><a xlink:title=" ">
<path fill="none" stroke="#63b8ff" d="M456.29,-127.38C470.7,-127.38 486.42,-127.38 501.6,-127.38"/>
<polygon fill="#63b8ff" stroke="#63b8ff" points="501.56,-130.88 511.56,-127.38 501.56,-123.88 501.56,-130.88"/>
</a>
</g>
</g>
<!-- Node23 -->
<g id="Node000023" class="node">
<title>Node23</title>
<g id="a_Node000023"><a xlink:href="kest__alloc_8c.html#a849755c5dc5b35e712ffcdb602e50fb4" target="_top" xlink:title=" ">
<polygon fill="white" stroke="#666666" points="610,-20.75 545.25,-20.75 545.25,0 610,0 610,-20.75"/>
<text xml:space="preserve" text-anchor="middle" x="577.62" y="-7.25" font-family="Helvetica,sans-Serif" font-size="10.00">kest_alloc</text>
</a>
</g>
</g>
<!-- Node22&#45;&gt;Node23 -->
<g id="edge13_Node000022_Node000023" class="edge">
<title>Node22&#45;&gt;Node23</title>
<g id="a_edge13_Node000022_Node000023"><a xlink:title=" ">
<path fill="none" stroke="#63b8ff" d="M459.22,-10.38C483.53,-10.38 511.15,-10.38 533.48,-10.38"/>
<polygon fill="#63b8ff" stroke="#63b8ff" points="533.45,-13.88 543.45,-10.38 533.45,-6.88 533.45,-13.88"/>
</a>
</g>
</g>
</g>
</svg>
