<?xml version="1.0" encoding="UTF-8" standalone="no"?>
<!DOCTYPE svg PUBLIC "-//W3C//DTD SVG 1.1//EN"
 "http://www.w3.org/Graphics/SVG/1.1/DTD/svg11.dtd">
<!-- Generated by graphviz version 13.1.2 (20250808.2320)
 -->
<!-- Title: sgtl5000_modify_reg Pages: 1 -->
<svg width="272pt" height="68pt"
 viewBox="0.00 0.00 272.00 68.00" xmlns="http://www.w3.org/2000/svg" xmlns:xlink="http://www.w3.org/1999/xlink">
<g id="graph0" class="graph" transform="scale(1 1) rotate(0) translate(4 63.75)">
<title>sgtl5000_modify_reg</title>
<!-- Node1 -->
<g id="Node000001" class="node">
<title>Node1</title>
<g id="a_Node000001"><a xlink:title=" ">
<polygon fill="#999999" stroke="#666666" points="118.75,-39.75 0,-39.75 0,-19 118.75,-19 118.75,-39.75"/>
<text xml:space="preserve" text-anchor="middle" x="59.38" y="-26.25" font-family="Helvetica,sans-Serif" font-size="10.00">sgtl5000_modify_reg</text>
</a>
</g>
</g>
<!-- Node2 -->
<g id="Node000002" class="node">
<title>Node2</title>
<g id="a_Node000002"><a xlink:href="kest__sgtl5000_8c.html#a4131ee2d0facbb38d8459e471647f68d" target="_top" xlink:title=" ">
<polygon fill="white" stroke="#666666" points="262.25,-59.75 156.25,-59.75 156.25,-39 262.25,-39 262.25,-59.75"/>
<text xml:space="preserve" text-anchor="middle" x="209.25" y="-46.25" font-family="Helvetica,sans-Serif" font-size="10.00">sgtl5000_read_reg</text>
</a>
</g>
</g>
<!-- Node1&#45;&gt;Node2 -->
<g id="edge1_Node000001_Node000002" class="edge">
<title>Node1&#45;&gt;Node2</title>
<g id="a_edge1_Node000001_Node000002"><a xlink:title=" ">
<path fill="none" stroke="#63b8ff" d="M119.24,-37.34C127.55,-38.46 136.12,-39.62 144.51,-40.75"/>
<polygon fill="#63b8ff" stroke="#63b8ff" points="143.93,-44.21 154.3,-42.08 144.86,-37.27 143.93,-44.21"/>
</a>
</g>
</g>
<!-- Node3 -->
<g id="Node000003" class="node">
<title>Node3</title>
<g id="a_Node000003"><a xlink:href="kest__sgtl5000_8c.html#a5d3609040614e6236b7058d3073311c5" target="_top" xlink:title=" ">
<polygon fill="white" stroke="#666666" points="263.75,-20.75 154.75,-20.75 154.75,0 263.75,0 263.75,-20.75"/>
<text xml:space="preserve" text-anchor="middle" x="209.25" y="-7.25" font-family="Helvetica,sans-Serif" font-size="10.00">sgtl5000_write_reg</text>
</a>
</g>
</g>
<!-- Node1&#45;&gt;Node3 -->
<g id="edge2_Node000001_Node000003" class="edge">
<title>Node1&#45;&gt;Node3</title>
<g id="a_edge2_Node000001_Node000003"><a xlink:title=" ">
<path fill="none" stroke="#63b8ff" d="M119.24,-21.81C127.13,-20.8 135.25,-19.75 143.23,-18.73"/>
<polygon fill="#63b8ff" stroke="#63b8ff" points="143.41,-22.24 152.88,-17.49 142.51,-15.29 143.41,-22.24"/>
</a>
</g>
</g>
</g>
</svg>
