<?xml version="1.0" encoding="UTF-8" standalone="no"?>
<!DOCTYPE svg PUBLIC "-//W3C//DTD SVG 1.1//EN"
 "http://www.w3.org/Graphics/SVG/1.1/DTD/svg11.dtd">
<!-- Generated by graphviz version 13.1.2 (20250808.2320)
 -->
<!-- Title: kest_button_disable_alignment Pages: 1 -->
<svg width="576pt" height="42pt"
 viewBox="0.00 0.00 576.00 42.00" xmlns="http://www.w3.org/2000/svg" xmlns:xlink="http://www.w3.org/1999/xlink">
<g id="graph0" class="graph" transform="scale(1 1) rotate(0) translate(4 37.5)">
<title>kest_button_disable_alignment</title>
<!-- Node1 -->
<g id="Node000001" class="node">
<title>Node1</title>
<g id="a_Node000001"><a xlink:title=" ">
<polygon fill="#999999" stroke="#666666" points="568,-33.5 454.5,-33.5 454.5,0 568,0 568,-33.5"/>
<text xml:space="preserve" text-anchor="start" x="462.5" y="-20" font-family="Helvetica,sans-Serif" font-size="10.00">kest_button_disable</text>
<text xml:space="preserve" text-anchor="middle" x="511.25" y="-7.25" font-family="Helvetica,sans-Serif" font-size="10.00">_alignment</text>
</a>
</g>
</g>
<!-- Node2 -->
<g id="Node000002" class="node">
<title>Node2</title>
<g id="a_Node000002"><a xlink:href="kest__menu_8c.html#a86c6c0acd2dfb8a62bd96bbfd739e687" target="_top" xlink:title=" ">
<polygon fill="white" stroke="#666666" points="418.5,-27.12 293.75,-27.12 293.75,-6.38 418.5,-6.38 418.5,-27.12"/>
<text xml:space="preserve" text-anchor="middle" x="356.12" y="-13.62" font-family="Helvetica,sans-Serif" font-size="10.00">configure_main_menu</text>
</a>
</g>
</g>
<!-- Node1&#45;&gt;Node2 -->
<g id="edge1_Node000001_Node000002" class="edge">
<title>Node1&#45;&gt;Node2</title>
<g id="a_edge1_Node000001_Node000002"><a xlink:title=" ">
<path fill="none" stroke="#63b8ff" d="M442.67,-16.75C434.78,-16.75 426.76,-16.75 418.95,-16.75"/>
<polygon fill="#63b8ff" stroke="#63b8ff" points="442.59,-20.25 452.59,-16.75 442.59,-13.25 442.59,-20.25"/>
</a>
</g>
</g>
<!-- Node3 -->
<g id="Node000003" class="node">
<title>Node3</title>
<g id="a_Node000003"><a xlink:href="kest__menu_8c.html#a6aa16fb3d12f098f021ae677605e683e" target="_top" xlink:title=" ">
<polygon fill="white" stroke="#666666" points="257.75,-27.12 163,-27.12 163,-6.38 257.75,-6.38 257.75,-27.12"/>
<text xml:space="preserve" text-anchor="middle" x="210.38" y="-13.62" font-family="Helvetica,sans-Serif" font-size="10.00">init_main_menu</text>
</a>
</g>
</g>
<!-- Node2&#45;&gt;Node3 -->
<g id="edge2_Node000002_Node000003" class="edge">
<title>Node2&#45;&gt;Node3</title>
<g id="a_edge2_Node000002_Node000003"><a xlink:title=" ">
<path fill="none" stroke="#63b8ff" d="M281.85,-16.75C273.71,-16.75 265.6,-16.75 257.92,-16.75"/>
<polygon fill="#63b8ff" stroke="#63b8ff" points="281.81,-20.25 291.81,-16.75 281.81,-13.25 281.81,-20.25"/>
</a>
</g>
</g>
<!-- Node4 -->
<g id="Node000004" class="node">
<title>Node4</title>
<g id="a_Node000004"><a xlink:href="kest__ui_8c.html#ab1be7d2981c922ebe8d714f9af0f600d" target="_top" xlink:title=" ">
<polygon fill="#fff0f0" stroke="red" points="127,-27.12 0,-27.12 0,-6.38 127,-6.38 127,-27.12"/>
<text xml:space="preserve" text-anchor="middle" x="63.5" y="-13.62" font-family="Helvetica,sans-Serif" font-size="10.00">kest_init_global_pages</text>
</a>
</g>
</g>
<!-- Node3&#45;&gt;Node4 -->
<g id="edge3_Node000003_Node000004" class="edge">
<title>Node3&#45;&gt;Node4</title>
<g id="a_edge3_Node000003_Node000004"><a xlink:title=" ">
<path fill="none" stroke="#63b8ff" d="M151.4,-16.75C143.52,-16.75 135.39,-16.75 127.43,-16.75"/>
<polygon fill="#63b8ff" stroke="#63b8ff" points="151.22,-20.25 161.22,-16.75 151.22,-13.25 151.22,-20.25"/>
</a>
</g>
</g>
</g>
</svg>
