<?xml version="1.0" encoding="UTF-8" standalone="no"?>
<!DOCTYPE svg PUBLIC "-//W3C//DTD SVG 1.1//EN"
 "http://www.w3.org/Graphics/SVG/1.1/DTD/svg11.dtd">
<!-- Generated by graphviz version 13.1.2 (20250808.2320)
 -->
<!-- Title: kest_extract_biquad_from_dict Pages: 1 -->
<svg width="967pt" height="428pt"
 viewBox="0.00 0.00 967.00 428.00" xmlns="http://www.w3.org/2000/svg" xmlns:xlink="http://www.w3.org/1999/xlink">
<g id="graph0" class="graph" transform="scale(1 1) rotate(0) translate(4 423.75)">
<title>kest_extract_biquad_from_dict</title>
<!-- Node1 -->
<g id="Node000001" class="node">
<title>Node1</title>
<g id="a_Node000001"><a xlink:title=" ">
<polygon fill="#999999" stroke="#666666" points="114.25,-244.12 0,-244.12 0,-210.62 114.25,-210.62 114.25,-244.12"/>
<text xml:space="preserve" text-anchor="start" x="8" y="-230.62" font-family="Helvetica,sans-Serif" font-size="10.00">kest_extract_biquad</text>
<text xml:space="preserve" text-anchor="middle" x="57.12" y="-217.88" font-family="Helvetica,sans-Serif" font-size="10.00">_from_dict</text>
</a>
</g>
</g>
<!-- Node2 -->
<g id="Node000002" class="node">
<title>Node2</title>
<g id="a_Node000002"><a xlink:href="kest__expression_8c.html#aadf2a6a074cb1ad7b45893704cbd71c3" target="_top" xlink:title=" ">
<polygon fill="white" stroke="#666666" points="594.62,-381.12 484.88,-381.12 484.88,-347.62 594.62,-347.62 594.62,-381.12"/>
<text xml:space="preserve" text-anchor="start" x="492.88" y="-367.62" font-family="Helvetica,sans-Serif" font-size="10.00">kest_expression_to</text>
<text xml:space="preserve" text-anchor="middle" x="539.75" y="-354.88" font-family="Helvetica,sans-Serif" font-size="10.00">_string</text>
</a>
</g>
</g>
<!-- Node1&#45;&gt;Node2 -->
<g id="edge1_Node000001_Node000002" class="edge">
<title>Node1&#45;&gt;Node2</title>
<g id="a_edge1_Node000001_Node000002"><a xlink:title=" ">
<path fill="none" stroke="#63b8ff" d="M84.38,-244.44C126.15,-270.63 211.16,-320.02 290.75,-342.38 350.98,-359.29 422.37,-364.11 473.05,-365.11"/>
<polygon fill="#63b8ff" stroke="#63b8ff" points="472.94,-368.6 482.99,-365.25 473.04,-361.61 472.94,-368.6"/>
</a>
</g>
</g>
<!-- Node7 -->
<g id="Node000007" class="node">
<title>Node7</title>
<g id="a_Node000007"><a xlink:href="kest__dict__extract_8c.html#ac9cee86a595df863e15b7693b86635b7" target="_top" xlink:title=" ">
<polygon fill="white" stroke="#666666" points="254.75,-168.12 150.25,-168.12 150.25,-134.62 254.75,-134.62 254.75,-168.12"/>
<text xml:space="preserve" text-anchor="start" x="158.25" y="-154.62" font-family="Helvetica,sans-Serif" font-size="10.00">kest_extract_filter</text>
<text xml:space="preserve" text-anchor="middle" x="202.5" y="-141.88" font-family="Helvetica,sans-Serif" font-size="10.00">_coefs_from_dict</text>
</a>
</g>
</g>
<!-- Node1&#45;&gt;Node7 -->
<g id="edge7_Node000001_Node000007" class="edge">
<title>Node1&#45;&gt;Node7</title>
<g id="a_edge7_Node000001_Node000007"><a xlink:title=" ">
<path fill="none" stroke="#63b8ff" d="M90.66,-210.13C110.92,-199.39 137.19,-185.47 159.07,-173.87"/>
<polygon fill="#63b8ff" stroke="#63b8ff" points="160.56,-177.04 167.76,-169.26 157.28,-170.85 160.56,-177.04"/>
</a>
</g>
</g>
<!-- Node22 -->
<g id="Node000022" class="node">
<title>Node22</title>
<g id="a_Node000022"><a xlink:href="kest__eff__parser_8c.html#a9c89af02214b349048ed0f85274af710" target="_top" xlink:title=" ">
<polygon fill="white" stroke="#666666" points="437.62,-20.75 292.62,-20.75 292.62,0 437.62,0 437.62,-20.75"/>
<text xml:space="preserve" text-anchor="middle" x="365.12" y="-7.25" font-family="Helvetica,sans-Serif" font-size="10.00">kest_parser_error_at_node</text>
</a>
</g>
</g>
<!-- Node1&#45;&gt;Node22 -->
<g id="edge28_Node000001_Node000022" class="edge">
<title>Node1&#45;&gt;Node22</title>
<g id="a_edge28_Node000001_Node000022"><a xlink:title=" ">
<path fill="none" stroke="#63b8ff" d="M71.37,-210.33C88.33,-189.09 119.27,-152.3 150.25,-125.38 207.15,-75.93 222.24,-61.82 290.75,-30.38 295.26,-28.31 300.03,-26.41 304.88,-24.69"/>
<polygon fill="#63b8ff" stroke="#63b8ff" points="305.72,-28.1 314.13,-21.65 303.53,-21.45 305.72,-28.1"/>
</a>
</g>
</g>
<!-- Node24 -->
<g id="Node000024" class="node">
<title>Node24</title>
<g id="a_Node000024"><a xlink:href="kest__resource_8c.html#adb005fd5423242a5fb393a1ec10feb9d" target="_top" xlink:title=" ">
<polygon fill="white" stroke="#666666" points="252.88,-257.75 152.12,-257.75 152.12,-237 252.88,-237 252.88,-257.75"/>
<text xml:space="preserve" text-anchor="middle" x="202.5" y="-244.25" font-family="Helvetica,sans-Serif" font-size="10.00">kest_filter_create</text>
</a>
</g>
</g>
<!-- Node1&#45;&gt;Node24 -->
<g id="edge26_Node000001_Node000024" class="edge">
<title>Node1&#45;&gt;Node24</title>
<g id="a_edge26_Node000001_Node000024"><a xlink:title=" ">
<path fill="none" stroke="#63b8ff" d="M114.38,-235.22C123,-236.42 131.93,-237.67 140.64,-238.89"/>
<polygon fill="#63b8ff" stroke="#63b8ff" points="140.04,-242.34 150.43,-240.25 141.01,-235.4 140.04,-242.34"/>
</a>
</g>
</g>
<!-- Node3 -->
<g id="Node000003" class="node">
<title>Node3</title>
<g id="a_Node000003"><a xlink:href="kest__expression_8c.html#a767b50b7ddfa94dc61810dfdcc8feaf0" target="_top" xlink:title=" ">
<polygon fill="white" stroke="#666666" points="782.75,-374.75 640,-374.75 640,-354 782.75,-354 782.75,-374.75"/>
<text xml:space="preserve" text-anchor="middle" x="711.38" y="-361.25" font-family="Helvetica,sans-Serif" font-size="10.00">kest_expression_print_rec</text>
</a>
</g>
</g>
<!-- Node2&#45;&gt;Node3 -->
<g id="edge2_Node000002_Node000003" class="edge">
<title>Node2&#45;&gt;Node3</title>
<g id="a_edge2_Node000002_Node000003"><a xlink:title=" ">
<path fill="none" stroke="#63b8ff" d="M594.89,-364.38C605.58,-364.38 617.02,-364.38 628.39,-364.38"/>
<polygon fill="#63b8ff" stroke="#63b8ff" points="628.2,-367.88 638.2,-364.38 628.2,-360.88 628.2,-367.88"/>
</a>
</g>
</g>
<!-- Node3&#45;&gt;Node3 -->
<g id="edge6_Node000003_Node000003" class="edge">
<title>Node3&#45;&gt;Node3</title>
<g id="a_edge6_Node000003_Node000003"><a xlink:title=" ">
<path fill="none" stroke="#63b8ff" d="M683.72,-375.15C672.66,-383.81 681.88,-392.75 711.38,-392.75 727.51,-392.75 737.57,-390.08 741.57,-386.24"/>
<polygon fill="#63b8ff" stroke="#63b8ff" points="745.02,-385.59 739.37,-376.62 738.19,-387.15 745.02,-385.59"/>
</a>
</g>
</g>
<!-- Node4 -->
<g id="Node000004" class="node">
<title>Node4</title>
<g id="a_Node000004"><a xlink:href="kest__expression_8c.html#a2f21e4932bce8c87ec0bfc508588b761" target="_top" xlink:title=" ">
<polygon fill="white" stroke="#666666" points="950.25,-419.75 827,-419.75 827,-399 950.25,-399 950.25,-419.75"/>
<text xml:space="preserve" text-anchor="middle" x="888.62" y="-406.25" font-family="Helvetica,sans-Serif" font-size="10.00">kest_expression_form</text>
</a>
</g>
</g>
<!-- Node3&#45;&gt;Node4 -->
<g id="edge3_Node000003_Node000004" class="edge">
<title>Node3&#45;&gt;Node4</title>
<g id="a_edge3_Node000003_Node000004"><a xlink:title=" ">
<path fill="none" stroke="#63b8ff" d="M754.35,-375.15C778.34,-381.31 808.67,-389.1 834.33,-395.69"/>
<polygon fill="#63b8ff" stroke="#63b8ff" points="833.36,-399.05 843.92,-398.15 835.1,-392.27 833.36,-399.05"/>
</a>
</g>
</g>
<!-- Node5 -->
<g id="Node000005" class="node">
<title>Node5</title>
<g id="a_Node000005"><a xlink:href="kest__expression_8c.html#a81b490a2837a170e18e8cdae730d0d9b" target="_top" xlink:title=" ">
<polygon fill="white" stroke="#666666" points="958.5,-381.12 818.75,-381.12 818.75,-347.62 958.5,-347.62 958.5,-381.12"/>
<text xml:space="preserve" text-anchor="start" x="826.75" y="-367.62" font-family="Helvetica,sans-Serif" font-size="10.00">kest_expression_function</text>
<text xml:space="preserve" text-anchor="middle" x="888.62" y="-354.88" font-family="Helvetica,sans-Serif" font-size="10.00">_string</text>
</a>
</g>
</g>
<!-- Node3&#45;&gt;Node5 -->
<g id="edge4_Node000003_Node000005" class="edge">
<title>Node3&#45;&gt;Node5</title>
<g id="a_edge4_Node000003_Node000005"><a xlink:title=" ">
<path fill="none" stroke="#63b8ff" d="M783.15,-364.38C790.94,-364.38 798.91,-364.38 806.81,-364.38"/>
<polygon fill="#63b8ff" stroke="#63b8ff" points="806.78,-367.88 816.78,-364.38 806.78,-360.88 806.78,-367.88"/>
</a>
</g>
</g>
<!-- Node6 -->
<g id="Node000006" class="node">
<title>Node6</title>
<g id="a_Node000006"><a xlink:href="kest__expression_8c.html#a1a3a0bc9ed6726fb24e6a40803741b43" target="_top" xlink:title=" ">
<polygon fill="white" stroke="#666666" points="949.5,-329.12 827.75,-329.12 827.75,-295.62 949.5,-295.62 949.5,-329.12"/>
<text xml:space="preserve" text-anchor="start" x="835.75" y="-315.62" font-family="Helvetica,sans-Serif" font-size="10.00">kest_expression_infix</text>
<text xml:space="preserve" text-anchor="middle" x="888.62" y="-302.88" font-family="Helvetica,sans-Serif" font-size="10.00">_operator_string</text>
</a>
</g>
</g>
<!-- Node3&#45;&gt;Node6 -->
<g id="edge5_Node000003_Node000006" class="edge">
<title>Node3&#45;&gt;Node6</title>
<g id="a_edge5_Node000003_Node000006"><a xlink:title=" ">
<path fill="none" stroke="#63b8ff" d="M748.69,-353.6C768.94,-347.59 794.85,-339.9 818.79,-332.8"/>
<polygon fill="#63b8ff" stroke="#63b8ff" points="819.59,-336.21 828.18,-330.01 817.6,-329.5 819.59,-336.21"/>
</a>
</g>
</g>
<!-- Node8 -->
<g id="Node000008" class="node">
<title>Node8</title>
<g id="a_Node000008"><a xlink:href="kest__dictionary_8c.html#a298bc3ea15bffee0e485de36aea099c2" target="_top" xlink:title=" ">
<polygon fill="white" stroke="#666666" points="417.75,-149.12 312.5,-149.12 312.5,-115.62 417.75,-115.62 417.75,-149.12"/>
<text xml:space="preserve" text-anchor="start" x="320.5" y="-135.62" font-family="Helvetica,sans-Serif" font-size="10.00">kest_dict_entry_to</text>
<text xml:space="preserve" text-anchor="middle" x="365.12" y="-122.88" font-family="Helvetica,sans-Serif" font-size="10.00">_string</text>
</a>
</g>
</g>
<!-- Node7&#45;&gt;Node8 -->
<g id="edge8_Node000007_Node000008" class="edge">
<title>Node7&#45;&gt;Node8</title>
<g id="a_edge8_Node000007_Node000008"><a xlink:title=" ">
<path fill="none" stroke="#63b8ff" d="M255.21,-145.26C269.75,-143.54 285.73,-141.65 300.87,-139.86"/>
<polygon fill="#63b8ff" stroke="#63b8ff" points="301.22,-143.34 310.74,-138.69 300.39,-136.39 301.22,-143.34"/>
</a>
</g>
</g>
<!-- Node15 -->
<g id="Node000015" class="node">
<title>Node15</title>
<g id="a_Node000015"><a xlink:href="kest__string_8c.html#ad346e7c1a0b506f7eca9423a05b47f11" target="_top" xlink:title=" ">
<polygon fill="white" stroke="#666666" points="595.38,-95.75 484.12,-95.75 484.12,-75 595.38,-75 595.38,-95.75"/>
<text xml:space="preserve" text-anchor="middle" x="539.75" y="-82.25" font-family="Helvetica,sans-Serif" font-size="10.00">kest_string_destroy</text>
</a>
</g>
</g>
<!-- Node7&#45;&gt;Node15 -->
<g id="edge23_Node000007_Node000015" class="edge">
<title>Node7&#45;&gt;Node15</title>
<g id="a_edge23_Node000007_Node000015"><a xlink:title=" ">
<path fill="none" stroke="#63b8ff" d="M229.86,-134.31C246.61,-124.37 269.13,-112.6 290.75,-106.38 350.65,-89.13 421.8,-84.65 472.49,-84.03"/>
<polygon fill="#63b8ff" stroke="#63b8ff" points="472.46,-87.53 482.44,-83.96 472.41,-80.53 472.46,-87.53"/>
</a>
</g>
</g>
<!-- Node17 -->
<g id="Node000017" class="node">
<title>Node17</title>
<g id="a_Node000017"><a xlink:href="kest__dictionary_8c.html#abaef2273aade2095c1ba537a60e71450" target="_top" xlink:title=" ">
<polygon fill="white" stroke="#666666" points="423.75,-257.12 306.5,-257.12 306.5,-223.62 423.75,-223.62 423.75,-257.12"/>
<text xml:space="preserve" text-anchor="start" x="314.5" y="-243.62" font-family="Helvetica,sans-Serif" font-size="10.00">kest_dict_entry_type</text>
<text xml:space="preserve" text-anchor="middle" x="365.12" y="-230.88" font-family="Helvetica,sans-Serif" font-size="10.00">_to_string_nice</text>
</a>
</g>
</g>
<!-- Node7&#45;&gt;Node17 -->
<g id="edge18_Node000007_Node000017" class="edge">
<title>Node7&#45;&gt;Node17</title>
<g id="a_edge18_Node000007_Node000017"><a xlink:title=" ">
<path fill="none" stroke="#63b8ff" d="M223.56,-168.42C240.58,-182.23 266.1,-201.45 290.75,-214.38 293.61,-215.88 296.58,-217.32 299.61,-218.71"/>
<polygon fill="#63b8ff" stroke="#63b8ff" points="298.11,-221.88 308.68,-222.62 300.88,-215.45 298.11,-221.88"/>
</a>
</g>
</g>
<!-- Node18 -->
<g id="Node000018" class="node">
<title>Node18</title>
<g id="a_Node000018"><a xlink:href="kest__dictionary_8c.html#a21526e898fbbfcc30e54dc674406d435" target="_top" xlink:title=" ">
<polygon fill="white" stroke="#666666" points="439.5,-333.75 290.75,-333.75 290.75,-313 439.5,-313 439.5,-333.75"/>
<text xml:space="preserve" text-anchor="middle" x="365.12" y="-320.25" font-family="Helvetica,sans-Serif" font-size="10.00">kest_dictionary_lookup_list</text>
</a>
</g>
</g>
<!-- Node7&#45;&gt;Node18 -->
<g id="edge19_Node000007_Node000018" class="edge">
<title>Node7&#45;&gt;Node18</title>
<g id="a_edge19_Node000007_Node000018"><a xlink:title=" ">
<path fill="none" stroke="#63b8ff" d="M214.39,-168.46C229.79,-191.93 259.56,-234.83 290.75,-266.38 305.45,-281.24 324.07,-295.67 338.88,-306.28"/>
<polygon fill="#63b8ff" stroke="#63b8ff" points="336.54,-308.92 346.74,-311.81 340.57,-303.2 336.54,-308.92"/>
</a>
</g>
</g>
<!-- Node21 -->
<g id="Node000021" class="node">
<title>Node21</title>
<g id="a_Node000021"><a xlink:href="kest__alloc_8c.html#a294af5728a94aa316fcf65304d388d48" target="_top" xlink:title=" ">
<polygon fill="white" stroke="#666666" points="395.62,-205.75 334.62,-205.75 334.62,-185 395.62,-185 395.62,-205.75"/>
<text xml:space="preserve" text-anchor="middle" x="365.12" y="-192.25" font-family="Helvetica,sans-Serif" font-size="10.00">kest_free</text>
</a>
</g>
</g>
<!-- Node7&#45;&gt;Node21 -->
<g id="edge21_Node000007_Node000021" class="edge">
<title>Node7&#45;&gt;Node21</title>
<g id="a_edge21_Node000007_Node000021"><a xlink:title=" ">
<path fill="none" stroke="#63b8ff" d="M255.11,-166.4C266.81,-169.74 279.2,-173.22 290.75,-176.38 301.29,-179.25 312.7,-182.25 323.32,-185.01"/>
<polygon fill="#63b8ff" stroke="#63b8ff" points="322.42,-188.39 332.98,-187.5 324.17,-181.61 322.42,-188.39"/>
</a>
</g>
</g>
<!-- Node7&#45;&gt;Node22 -->
<g id="edge22_Node000007_Node000022" class="edge">
<title>Node7&#45;&gt;Node22</title>
<g id="a_edge22_Node000007_Node000022"><a xlink:title=" ">
<path fill="none" stroke="#63b8ff" d="M216.51,-134.19C226.96,-120.31 241.97,-100.2 254.75,-82.38 271.13,-59.53 267.8,-46.61 290.75,-30.38 292.98,-28.8 295.33,-27.35 297.76,-26.01"/>
<polygon fill="#63b8ff" stroke="#63b8ff" points="299.21,-29.19 306.78,-21.77 296.24,-22.86 299.21,-29.19"/>
</a>
</g>
</g>
<!-- Node23 -->
<g id="Node000023" class="node">
<title>Node23</title>
<g id="a_Node000023"><a xlink:href="kest__string_8c.html#a476a3ace857a6df4b94057b078a5bcb3" target="_top" xlink:title=" ">
<polygon fill="white" stroke="#666666" points="425.25,-59.75 305,-59.75 305,-39 425.25,-39 425.25,-59.75"/>
<text xml:space="preserve" text-anchor="middle" x="365.12" y="-46.25" font-family="Helvetica,sans-Serif" font-size="10.00">kest_string_to_native</text>
</a>
</g>
</g>
<!-- Node7&#45;&gt;Node23 -->
<g id="edge24_Node000007_Node000023" class="edge">
<title>Node7&#45;&gt;Node23</title>
<g id="a_edge24_Node000007_Node000023"><a xlink:title=" ">
<path fill="none" stroke="#63b8ff" d="M218.62,-134.2C234.87,-116.68 262.23,-89.81 290.75,-73.38 296.85,-69.86 303.53,-66.78 310.3,-64.1"/>
<polygon fill="#63b8ff" stroke="#63b8ff" points="311.33,-67.45 319.52,-60.74 308.93,-60.88 311.33,-67.45"/>
</a>
</g>
</g>
<!-- Node8&#45;&gt;Node2 -->
<g id="edge12_Node000008_Node000002" class="edge">
<title>Node8&#45;&gt;Node2</title>
<g id="a_edge12_Node000008_Node000002"><a xlink:title=" ">
<path fill="none" stroke="#63b8ff" d="M407.66,-149.55C419.53,-156.3 431.42,-165.17 439.5,-176.38 482.63,-236.2 428,-281.95 475.5,-338.38 475.94,-338.9 476.4,-339.41 476.86,-339.92"/>
<polygon fill="#63b8ff" stroke="#63b8ff" points="474.3,-342.33 484.15,-346.23 478.88,-337.04 474.3,-342.33"/>
</a>
</g>
</g>
<!-- Node8&#45;&gt;Node8 -->
<g id="edge11_Node000008_Node000008" class="edge">
<title>Node8&#45;&gt;Node8</title>
<g id="a_edge11_Node000008_Node000008"><a xlink:title=" ">
<path fill="none" stroke="#63b8ff" d="M335.89,-149.54C330.92,-158.74 340.67,-167.12 365.12,-167.12 378.88,-167.12 387.98,-164.47 392.43,-160.51"/>
<polygon fill="#63b8ff" stroke="#63b8ff" points="395.81,-161.48 394.1,-151.03 388.92,-160.27 395.81,-161.48"/>
</a>
</g>
</g>
<!-- Node9 -->
<g id="Node000009" class="node">
<title>Node9</title>
<g id="a_Node000009"><a xlink:href="kest__alloc_8c.html#a4bb52284828149d9a740bac0c9706ecd" target="_top" xlink:title=" ">
<polygon fill="white" stroke="#666666" points="596.12,-290.75 483.38,-290.75 483.38,-270 596.12,-270 596.12,-290.75"/>
<text xml:space="preserve" text-anchor="middle" x="539.75" y="-277.25" font-family="Helvetica,sans-Serif" font-size="10.00">kest_allocator_alloc</text>
</a>
</g>
</g>
<!-- Node8&#45;&gt;Node9 -->
<g id="edge9_Node000008_Node000009" class="edge">
<title>Node8&#45;&gt;Node9</title>
<g id="a_edge9_Node000008_Node000009"><a xlink:title=" ">
<path fill="none" stroke="#63b8ff" d="M404.53,-149.44C416.93,-156.39 429.93,-165.41 439.5,-176.38 466.21,-206.97 445.4,-233.1 475.5,-260.38 476.91,-261.65 478.4,-262.85 479.95,-263.96"/>
<polygon fill="#63b8ff" stroke="#63b8ff" points="477.76,-266.73 488.15,-268.8 481.32,-260.7 477.76,-266.73"/>
</a>
</g>
</g>
<!-- Node11 -->
<g id="Node000011" class="node">
<title>Node11</title>
<g id="a_Node000011"><a xlink:href="kest__string_8c.html#a2f2e64515d872efab6ae1974554b5d5c" target="_top" xlink:title=" ">
<polygon fill="white" stroke="#666666" points="595,-251.75 484.5,-251.75 484.5,-231 595,-231 595,-251.75"/>
<text xml:space="preserve" text-anchor="middle" x="539.75" y="-238.25" font-family="Helvetica,sans-Serif" font-size="10.00">kest_string_append</text>
</a>
</g>
</g>
<!-- Node8&#45;&gt;Node11 -->
<g id="edge13_Node000008_Node000011" class="edge">
<title>Node8&#45;&gt;Node11</title>
<g id="a_edge13_Node000008_Node000011"><a xlink:title=" ">
<path fill="none" stroke="#63b8ff" d="M400.34,-149.53C413.3,-156.87 427.76,-166.11 439.5,-176.38 458.79,-193.23 454.38,-206.89 475.5,-221.38 477.74,-222.91 480.11,-224.34 482.56,-225.66"/>
<polygon fill="#63b8ff" stroke="#63b8ff" points="481.08,-228.83 491.62,-229.87 484.03,-222.48 481.08,-228.83"/>
</a>
</g>
</g>
<!-- Node12 -->
<g id="Node000012" class="node">
<title>Node12</title>
<g id="a_Node000012"><a xlink:href="kest__string_8c.html#a5e8184b1f070fc74a7d1d2f08c4d9658" target="_top" xlink:title=" ">
<polygon fill="#fff0f0" stroke="red" points="596.88,-212.75 482.62,-212.75 482.62,-192 596.88,-192 596.88,-212.75"/>
<text xml:space="preserve" text-anchor="middle" x="539.75" y="-199.25" font-family="Helvetica,sans-Serif" font-size="10.00">kest_string_appendf</text>
</a>
</g>
</g>
<!-- Node8&#45;&gt;Node12 -->
<g id="edge14_Node000008_Node000012" class="edge">
<title>Node8&#45;&gt;Node12</title>
<g id="a_edge14_Node000008_Node000012"><a xlink:title=" ">
<path fill="none" stroke="#63b8ff" d="M400.63,-149.47C421.93,-159.69 449.98,-172.55 475.5,-182.38 480.54,-184.32 485.86,-186.22 491.18,-188.03"/>
<polygon fill="#63b8ff" stroke="#63b8ff" points="490,-191.32 500.59,-191.13 492.19,-184.67 490,-191.32"/>
</a>
</g>
</g>
<!-- Node14 -->
<g id="Node000014" class="node">
<title>Node14</title>
<g id="a_Node000014"><a xlink:href="kest__string_8c.html#a0b1566bbaac339c306b950a97f9e81fc" target="_top" xlink:title=" ">
<polygon fill="white" stroke="#666666" points="593.12,-173.75 486.38,-173.75 486.38,-153 593.12,-153 593.12,-173.75"/>
<text xml:space="preserve" text-anchor="middle" x="539.75" y="-160.25" font-family="Helvetica,sans-Serif" font-size="10.00">kest_string_concat</text>
</a>
</g>
</g>
<!-- Node8&#45;&gt;Node14 -->
<g id="edge15_Node000008_Node000014" class="edge">
<title>Node8&#45;&gt;Node14</title>
<g id="a_edge15_Node000008_Node000014"><a xlink:title=" ">
<path fill="none" stroke="#63b8ff" d="M417.92,-141.68C435.85,-144.9 456.16,-148.54 474.94,-151.92"/>
<polygon fill="#63b8ff" stroke="#63b8ff" points="474.15,-155.33 484.61,-153.65 475.38,-148.44 474.15,-155.33"/>
</a>
</g>
</g>
<!-- Node8&#45;&gt;Node15 -->
<g id="edge16_Node000008_Node000015" class="edge">
<title>Node8&#45;&gt;Node15</title>
<g id="a_edge16_Node000008_Node000015"><a xlink:title=" ">
<path fill="none" stroke="#63b8ff" d="M417.92,-118.27C440.18,-112.21 466.1,-105.15 488.22,-99.13"/>
<polygon fill="#63b8ff" stroke="#63b8ff" points="488.88,-102.58 497.61,-96.58 487.04,-95.83 488.88,-102.58"/>
</a>
</g>
</g>
<!-- Node16 -->
<g id="Node000016" class="node">
<title>Node16</title>
<g id="a_Node000016"><a xlink:href="kest__string_8c.html#ab74edc9a2be32d899a92ef58edb16286" target="_top" xlink:title=" ">
<polygon fill="white" stroke="#666666" points="584.88,-134.75 494.62,-134.75 494.62,-114 584.88,-114 584.88,-134.75"/>
<text xml:space="preserve" text-anchor="middle" x="539.75" y="-121.25" font-family="Helvetica,sans-Serif" font-size="10.00">kest_string_init</text>
</a>
</g>
</g>
<!-- Node8&#45;&gt;Node16 -->
<g id="edge17_Node000008_Node000016" class="edge">
<title>Node8&#45;&gt;Node16</title>
<g id="a_edge17_Node000008_Node000016"><a xlink:title=" ">
<path fill="none" stroke="#63b8ff" d="M417.92,-129.97C438.45,-129.02 462.1,-127.93 483,-126.96"/>
<polygon fill="#63b8ff" stroke="#63b8ff" points="482.95,-130.46 492.78,-126.51 482.63,-123.47 482.95,-130.46"/>
</a>
</g>
</g>
<!-- Node10 -->
<g id="Node000010" class="node">
<title>Node10</title>
<g id="a_Node000010"><a xlink:href="kest__alloc_8c.html#a849755c5dc5b35e712ffcdb602e50fb4" target="_top" xlink:title=" ">
<polygon fill="white" stroke="#666666" points="743.75,-174.75 679,-174.75 679,-154 743.75,-154 743.75,-174.75"/>
<text xml:space="preserve" text-anchor="middle" x="711.38" y="-161.25" font-family="Helvetica,sans-Serif" font-size="10.00">kest_alloc</text>
</a>
</g>
</g>
<!-- Node9&#45;&gt;Node10 -->
<g id="edge10_Node000009_Node000010" class="edge">
<title>Node9&#45;&gt;Node10</title>
<g id="a_edge10_Node000009_Node000010"><a xlink:title=" ">
<path fill="none" stroke="#63b8ff" d="M583.66,-269.56C590.68,-267.02 597.7,-263.98 604,-260.38 640.07,-239.71 674.38,-205.11 693.86,-183.58"/>
<polygon fill="#63b8ff" stroke="#63b8ff" points="696.24,-186.17 700.25,-176.36 691,-181.53 696.24,-186.17"/>
</a>
</g>
</g>
<!-- Node19 -->
<g id="Node000019" class="node">
<title>Node19</title>
<g id="a_Node000019"><a xlink:href="kest__dictionary_8c.html#ac32514fb9876c48a7b489fa4686fbdbd" target="_top" xlink:title=" ">
<polygon fill="#fff0f0" stroke="red" points="604,-329.75 475.5,-329.75 475.5,-309 604,-309 604,-329.75"/>
<text xml:space="preserve" text-anchor="middle" x="539.75" y="-316.25" font-family="Helvetica,sans-Serif" font-size="10.00">kest_dictionary_lookup</text>
</a>
</g>
</g>
<!-- Node18&#45;&gt;Node19 -->
<g id="edge20_Node000018_Node000019" class="edge">
<title>Node18&#45;&gt;Node19</title>
<g id="a_edge20_Node000018_Node000019"><a xlink:title=" ">
<path fill="none" stroke="#63b8ff" d="M439.83,-321.67C447.72,-321.48 455.74,-321.3 463.64,-321.12"/>
<polygon fill="#63b8ff" stroke="#63b8ff" points="463.65,-324.62 473.57,-320.89 463.49,-317.62 463.65,-324.62"/>
</a>
</g>
</g>
<!-- Node23&#45;&gt;Node10 -->
<g id="edge25_Node000023_Node000010" class="edge">
<title>Node23&#45;&gt;Node10</title>
<g id="a_edge25_Node000023_Node000010"><a xlink:title=" ">
<path fill="none" stroke="#63b8ff" d="M425.38,-43.03C475.12,-40.14 546.99,-41.74 604,-66.38 643.33,-83.37 677.49,-121.25 695.9,-144.62"/>
<polygon fill="#63b8ff" stroke="#63b8ff" points="693.02,-146.62 701.87,-152.44 698.58,-142.37 693.02,-146.62"/>
</a>
</g>
</g>
<!-- Node24&#45;&gt;Node9 -->
<g id="edge27_Node000024_Node000009" class="edge">
<title>Node24&#45;&gt;Node9</title>
<g id="a_edge27_Node000024_Node000009"><a xlink:title=" ">
<path fill="none" stroke="#63b8ff" d="M246.75,-258.21C260.71,-261.32 276.31,-264.41 290.75,-266.38 351.8,-274.69 421.95,-278.09 472.03,-279.46"/>
<polygon fill="#63b8ff" stroke="#63b8ff" points="471.75,-282.96 481.84,-279.71 471.93,-275.96 471.75,-282.96"/>
</a>
</g>
</g>
</g>
</svg>
