<?xml version="1.0" encoding="UTF-8" standalone="no"?>
<!DOCTYPE svg PUBLIC "-//W3C//DTD SVG 1.1//EN"
 "http://www.w3.org/Graphics/SVG/1.1/DTD/svg11.dtd">
<!-- Generated by graphviz version 13.1.2 (20250808.2320)
 -->
<!-- Title: kest_expression_compute_range Pages: 1 -->
<svg width="649pt" height="94pt"
 viewBox="0.00 0.00 649.00 94.00" xmlns="http://www.w3.org/2000/svg" xmlns:xlink="http://www.w3.org/1999/xlink">
<g id="graph0" class="graph" transform="scale(1 1) rotate(0) translate(4 89.5)">
<title>kest_expression_compute_range</title>
<!-- Node1 -->
<g id="Node000001" class="node">
<title>Node1</title>
<g id="a_Node000001"><a xlink:title=" ">
<polygon fill="#999999" stroke="#666666" points="640.75,-59.5 498,-59.5 498,-26 640.75,-26 640.75,-59.5"/>
<text xml:space="preserve" text-anchor="start" x="506" y="-46" font-family="Helvetica,sans-Serif" font-size="10.00">kest_expression_compute</text>
<text xml:space="preserve" text-anchor="middle" x="569.38" y="-33.25" font-family="Helvetica,sans-Serif" font-size="10.00">_range</text>
</a>
</g>
</g>
<!-- Node2 -->
<g id="Node000002" class="node">
<title>Node2</title>
<g id="a_Node000002"><a xlink:href="kest__fixed__point_8c.html#ac5145d24cb0e25a237f9c8d30b8fc0d2" target="_top" xlink:title=" ">
<polygon fill="white" stroke="#666666" points="462,-59.5 319.25,-59.5 319.25,-26 462,-26 462,-59.5"/>
<text xml:space="preserve" text-anchor="start" x="327.25" y="-46" font-family="Helvetica,sans-Serif" font-size="10.00">kest_expression_compute</text>
<text xml:space="preserve" text-anchor="middle" x="390.62" y="-33.25" font-family="Helvetica,sans-Serif" font-size="10.00">_format</text>
</a>
</g>
</g>
<!-- Node1&#45;&gt;Node2 -->
<g id="edge1_Node000001_Node000002" class="edge">
<title>Node1&#45;&gt;Node2</title>
<g id="a_edge1_Node000001_Node000002"><a xlink:title=" ">
<path fill="none" stroke="#63b8ff" d="M486.23,-42.75C478.21,-42.75 470.12,-42.75 462.23,-42.75"/>
<polygon fill="#63b8ff" stroke="#63b8ff" points="485.99,-46.25 495.99,-42.75 485.99,-39.25 485.99,-46.25"/>
</a>
</g>
</g>
<!-- Node3 -->
<g id="Node000003" class="node">
<title>Node3</title>
<g id="a_Node000003"><a xlink:href="kest__reg__format_8c.html#a2a23995382c692cce714a167deb0b94c" target="_top" xlink:title=" ">
<polygon fill="white" stroke="#666666" points="283.25,-85.5 156.25,-85.5 156.25,-52 283.25,-52 283.25,-85.5"/>
<text xml:space="preserve" text-anchor="start" x="164.25" y="-72" font-family="Helvetica,sans-Serif" font-size="10.00">kest_compute_register</text>
<text xml:space="preserve" text-anchor="middle" x="219.75" y="-59.25" font-family="Helvetica,sans-Serif" font-size="10.00">_formats</text>
</a>
</g>
</g>
<!-- Node2&#45;&gt;Node3 -->
<g id="edge2_Node000002_Node000003" class="edge">
<title>Node2&#45;&gt;Node3</title>
<g id="a_edge2_Node000002_Node000003"><a xlink:title=" ">
<path fill="none" stroke="#63b8ff" d="M307.61,-55.38C299.53,-56.62 291.42,-57.87 283.58,-59.08"/>
<polygon fill="#63b8ff" stroke="#63b8ff" points="308.14,-58.84 317.49,-53.86 307.07,-51.92 308.14,-58.84"/>
</a>
</g>
</g>
<!-- Node10 -->
<g id="Node000010" class="node">
<title>Node10</title>
<g id="a_Node000010"><a xlink:href="kest__fixed__point_8c.html#af6f5122d04445665987167d50319ac6f" target="_top" xlink:title=" ">
<polygon fill="white" stroke="#666666" points="276.12,-33.5 163.38,-33.5 163.38,0 276.12,0 276.12,-33.5"/>
<text xml:space="preserve" text-anchor="start" x="171.38" y="-20" font-family="Helvetica,sans-Serif" font-size="10.00">kest_filter_compute</text>
<text xml:space="preserve" text-anchor="middle" x="219.75" y="-7.25" font-family="Helvetica,sans-Serif" font-size="10.00">_format</text>
</a>
</g>
</g>
<!-- Node2&#45;&gt;Node10 -->
<g id="edge4_Node000002_Node000010" class="edge">
<title>Node2&#45;&gt;Node10</title>
<g id="a_edge4_Node000002_Node000010"><a xlink:title=" ">
<path fill="none" stroke="#63b8ff" d="M307.93,-30.17C297.28,-28.53 286.57,-26.88 276.47,-25.33"/>
<polygon fill="#63b8ff" stroke="#63b8ff" points="307.07,-33.58 317.49,-31.64 308.14,-26.66 307.07,-33.58"/>
</a>
</g>
</g>
<!-- Node4 -->
<g id="Node000004" class="node">
<title>Node4</title>
<g id="a_Node000004"><a xlink:href="kest__eff__parser_8c.html#a745050bced3ccd568a1223c9f6a416e0" target="_top" xlink:title=" ">
<polygon fill="#fff0f0" stroke="red" points="120.25,-59.5 0,-59.5 0,-26 120.25,-26 120.25,-59.5"/>
<text xml:space="preserve" text-anchor="start" x="8" y="-46" font-family="Helvetica,sans-Serif" font-size="10.00">kest_parser_compute</text>
<text xml:space="preserve" text-anchor="middle" x="60.12" y="-33.25" font-family="Helvetica,sans-Serif" font-size="10.00">_formats</text>
</a>
</g>
</g>
<!-- Node3&#45;&gt;Node4 -->
<g id="edge3_Node000003_Node000004" class="edge">
<title>Node3&#45;&gt;Node4</title>
<g id="a_edge3_Node000003_Node000004"><a xlink:title=" ">
<path fill="none" stroke="#63b8ff" d="M144.66,-56.53C136.59,-55.2 128.45,-53.86 120.58,-52.56"/>
<polygon fill="#63b8ff" stroke="#63b8ff" points="144.07,-59.98 154.51,-58.15 145.21,-53.07 144.07,-59.98"/>
</a>
</g>
</g>
<!-- Node10&#45;&gt;Node4 -->
<g id="edge5_Node000010_Node000004" class="edge">
<title>Node10&#45;&gt;Node4</title>
<g id="a_edge5_Node000010_Node000004"><a xlink:title=" ">
<path fill="none" stroke="#63b8ff" d="M152.05,-27.75C141.65,-29.47 130.97,-31.23 120.74,-32.92"/>
<polygon fill="#63b8ff" stroke="#63b8ff" points="152.39,-31.24 161.68,-26.16 151.25,-24.34 152.39,-31.24"/>
</a>
</g>
</g>
</g>
</svg>
