<?xml version="1.0" encoding="UTF-8" standalone="no"?>
<!DOCTYPE svg PUBLIC "-//W3C//DTD SVG 1.1//EN"
 "http://www.w3.org/Graphics/SVG/1.1/DTD/svg11.dtd">
<!-- Generated by graphviz version 13.1.2 (20250808.2320)
 -->
<!-- Title: save_sequence Pages: 1 -->
<!--zoomable 195 -->

<svg id="main" version="1.1" xmlns="http://www.w3.org/2000/svg" xmlns:xlink="http://www.w3.org/1999/xlink" xml:space="preserve" onload="init(evt)">

<style type="text/css"><![CDATA[
.node, .edge {opacity: 0.7;}
.node.selected, .edge.selected {opacity: 1;}
.edge:hover path { stroke: red; }
.edge:hover polygon { stroke: red; fill: red; }
]]></style>

<defs>
  <circle id="rim" cx="0" cy="0" r="7"/>
  <circle id="rim2" cx="0" cy="0" r="3.5"/>
  <g id="zoomPlus">
    <use xlink:href="#rim" fill="#404040"><set attributeName="fill" to="#808080" begin="zoomplus.mouseover" end="zoomplus.mouseout"/></use>
    <path d="M-4,0h8M0,-4v8" fill="none" stroke="white" stroke-width="1.5" pointer-events="none"/>
  </g>
  <g id="zoomMin">
    <use xlink:href="#rim" fill="#404040"><set attributeName="fill" to="#808080" begin="zoomminus.mouseover" end="zoomminus.mouseout"/></use>
    <path d="M-4,0h8" fill="none" stroke="white" stroke-width="1.5" pointer-events="none"/>
  </g>
  <g id="arrowUp" transform="translate(30 24)">
    <use xlink:href="#rim"/>
    <path pointer-events="none" fill="none" stroke="white" stroke-width="1.5" d="M0,-3.0v7 M-2.5,-0.5L0,-3.0L2.5,-0.5"/>
  </g>
  <g id="arrowRight" transform="rotate(90) translate(36 -43)">
    <use xlink:href="#rim"/>
    <path pointer-events="none" fill="none" stroke="white" stroke-width="1.5" d="M0,-3.0v7 M-2.5,-0.5L0,-3.0L2.5,-0.5"/>
  </g>
  <g id="arrowDown" transform="rotate(180) translate(-30 -48)">
    <use xlink:href="#rim"/>
    <path pointer-events="none" fill="none" stroke="white" stroke-width="1.5" d="M0,-3.0v7 M-2.5,-0.5L0,-3.0L2.5,-0.5"/>
  </g>
  <g id="arrowLeft" transform="rotate(270) translate(-36 17)">
    <use xlink:href="#rim"/>
    <path pointer-events="none" fill="none" stroke="white" stroke-width="1.5" d="M0,-3.0v7 M-2.5,-0.5L0,-3.0L2.5,-0.5"/>
  </g>
  <g id="resetDef">
    <use xlink:href="#rim2" fill="#404040"><set attributeName="fill" to="#808080" begin="reset.mouseover" end="reset.mouseout"/></use>
  </g>
</defs>
<script type="application/ecmascript">
var viewWidth = 973;
var viewHeight = 195;
var sectionId = 'dynsection-28';
</script>
<script type="application/ecmascript" xlink:href="svg.min.js"/>
<svg id="graph" class="graph">
<g id="viewport">
<title>save_sequence</title>
<!-- Node1 -->
<g id="Node000001" class="node">
<title>Node1</title>
<g id="a_Node000001"><a xlink:title=" ">
<polygon fill="#999999" stroke="#666666" points="964.5,-99.75 873.5,-99.75 873.5,-79 964.5,-79 964.5,-99.75"/>
<text xml:space="preserve" text-anchor="middle" x="919" y="-86.25" font-family="Helvetica,sans-Serif" font-size="10.00">save_sequence</text>
</a>
</g>
</g>
<!-- Node2 -->
<g id="Node000002" class="node">
<title>Node2</title>
<g id="a_Node000002"><a xlink:href="kest__sequence_8c.html#aade8512fa274f7f5aba28d373fd2e6d9" target="_top" xlink:title=" ">
<polygon fill="white" stroke="#666666" points="837.5,-138.12 728.5,-138.12 728.5,-104.62 837.5,-104.62 837.5,-138.12"/>
<text xml:space="preserve" text-anchor="start" x="736.5" y="-124.62" font-family="Helvetica,sans-Serif" font-size="10.00">kest_sequence_file</text>
<text xml:space="preserve" text-anchor="middle" x="783" y="-111.88" font-family="Helvetica,sans-Serif" font-size="10.00">_rep_update</text>
</a>
</g>
</g>
<!-- Node1&#45;&gt;Node2 -->
<g id="edge1_Node000001_Node000002" class="edge">
<title>Node1&#45;&gt;Node2</title>
<g id="a_edge1_Node000001_Node000002"><a xlink:title=" ">
<path fill="none" stroke="#63b8ff" d="M861.96,-102.76C854,-104.66 845.84,-106.61 837.93,-108.5"/>
<polygon fill="#63b8ff" stroke="#63b8ff" points="862.62,-106.2 871.54,-100.47 861,-99.39 862.62,-106.2"/>
</a>
</g>
</g>
<!-- Node16 -->
<g id="Node000016" class="node">
<title>Node16</title>
<g id="a_Node000016"><a xlink:href="kest__sequence__view_8c.html#a48d14522bbc105d8b61111d5dc6a7c8f" target="_top" xlink:title=" ">
<polygon fill="white" stroke="#666666" points="822.12,-77.75 743.88,-77.75 743.88,-57 822.12,-57 822.12,-77.75"/>
<text xml:space="preserve" text-anchor="middle" x="783" y="-64.25" font-family="Helvetica,sans-Serif" font-size="10.00">seq_save_cb</text>
</a>
</g>
</g>
<!-- Node1&#45;&gt;Node16 -->
<g id="edge6_Node000001_Node000016" class="edge">
<title>Node1&#45;&gt;Node16</title>
<g id="a_edge6_Node000001_Node000016"><a xlink:title=" ">
<path fill="none" stroke="#63b8ff" d="M861.99,-80.18C848.66,-77.99 834.72,-75.7 822.38,-73.68"/>
<polygon fill="#63b8ff" stroke="#63b8ff" points="861.08,-83.58 871.51,-81.74 862.21,-76.67 861.08,-83.58"/>
</a>
</g>
</g>
<!-- Node3 -->
<g id="Node000003" class="node">
<title>Node3</title>
<g id="a_Node000003"><a xlink:href="kest__sequence_8c.html#a3d05c5041e825df7868554ff22e0dd80" target="_top" xlink:title=" ">
<polygon fill="white" stroke="#666666" points="670.75,-136.75 572.25,-136.75 572.25,-116 670.75,-116 670.75,-136.75"/>
<text xml:space="preserve" text-anchor="middle" x="621.5" y="-123.25" font-family="Helvetica,sans-Serif" font-size="10.00">init_m_sequence</text>
</a>
</g>
</g>
<!-- Node2&#45;&gt;Node3 -->
<g id="edge2_Node000002_Node000003" class="edge">
<title>Node2&#45;&gt;Node3</title>
<g id="a_edge2_Node000002_Node000003"><a xlink:title=" ">
<path fill="none" stroke="#63b8ff" d="M716.55,-123.43C701.34,-123.9 685.42,-124.4 671.09,-124.85"/>
<polygon fill="#63b8ff" stroke="#63b8ff" points="716.6,-126.93 726.49,-123.12 716.38,-119.93 716.6,-126.93"/>
</a>
</g>
</g>
<!-- Node4 -->
<g id="Node000004" class="node">
<title>Node4</title>
<g id="a_Node000004"><a xlink:href="kest__context_8c.html#ab67ff484aaa334c1425d4a580d645027" target="_top" xlink:title=" ">
<polygon fill="#fff0f0" stroke="red" points="514.5,-186.75 346.25,-186.75 346.25,-166 514.5,-166 514.5,-186.75"/>
<text xml:space="preserve" text-anchor="middle" x="430.38" y="-173.25" font-family="Helvetica,sans-Serif" font-size="10.00">kest_context_add_sequence_rp</text>
</a>
</g>
</g>
<!-- Node3&#45;&gt;Node4 -->
<g id="edge3_Node000003_Node000004" class="edge">
<title>Node3&#45;&gt;Node4</title>
<g id="a_edge3_Node000003_Node000004"><a xlink:title=" ">
<path fill="none" stroke="#63b8ff" d="M574.49,-140.48C555.93,-146 534.26,-152.23 514.5,-157.38 503.76,-160.17 492.17,-162.96 481.16,-165.51"/>
<polygon fill="#63b8ff" stroke="#63b8ff" points="575.29,-143.9 583.86,-137.67 573.28,-137.19 575.29,-143.9"/>
</a>
</g>
</g>
<!-- Node13 -->
<g id="Node000013" class="node">
<title>Node13</title>
<g id="a_Node000013"><a xlink:href="kest__context_8c.html#ac93ad47b7b693a17e3416824b4c416ad" target="_top" xlink:title=" ">
<polygon fill="#fff0f0" stroke="red" points="495,-148.12 365.75,-148.12 365.75,-114.62 495,-114.62 495,-148.12"/>
<text xml:space="preserve" text-anchor="start" x="373.75" y="-134.62" font-family="Helvetica,sans-Serif" font-size="10.00">kest_context_init_main</text>
<text xml:space="preserve" text-anchor="middle" x="430.38" y="-121.88" font-family="Helvetica,sans-Serif" font-size="10.00">_sequence</text>
</a>
</g>
</g>
<!-- Node3&#45;&gt;Node13 -->
<g id="edge4_Node000003_Node000013" class="edge">
<title>Node3&#45;&gt;Node13</title>
<g id="a_edge4_Node000003_Node000013"><a xlink:title=" ">
<path fill="none" stroke="#63b8ff" d="M560.54,-127.96C539.74,-128.51 516.36,-129.13 495.26,-129.69"/>
<polygon fill="#63b8ff" stroke="#63b8ff" points="560.38,-131.47 570.28,-127.7 560.19,-124.47 560.38,-131.47"/>
</a>
</g>
</g>
<!-- Node15 -->
<g id="Node000015" class="node">
<title>Node15</title>
<g id="a_Node000015"><a xlink:href="kest__files_8c.html#a2b0f0df900e064b3a42198050e150084" target="_top" xlink:title=" ">
<polygon fill="#fff0f0" stroke="red" points="128.5,-77.75 0,-77.75 0,-57 128.5,-57 128.5,-77.75"/>
<text xml:space="preserve" text-anchor="middle" x="64.25" y="-64.25" font-family="Helvetica,sans-Serif" font-size="10.00">load_saved_sequences</text>
</a>
</g>
</g>
<!-- Node3&#45;&gt;Node15 -->
<g id="edge5_Node000003_Node000015" class="edge">
<title>Node3&#45;&gt;Node15</title>
<g id="a_edge5_Node000003_Node000015"><a xlink:title=" ">
<path fill="none" stroke="#63b8ff" d="M560.65,-113.31C545.64,-110.37 529.53,-107.49 514.5,-105.38 377.7,-86.1 215.98,-75.34 128.74,-70.52"/>
<polygon fill="#63b8ff" stroke="#63b8ff" points="559.9,-116.73 570.4,-115.27 561.28,-109.87 559.9,-116.73"/>
</a>
</g>
</g>
<!-- Node17 -->
<g id="Node000017" class="node">
<title>Node17</title>
<g id="a_Node000017"><a xlink:href="kest__sequence__view_8c.html#ac871b24a7c875a7b6e707a3d2691a2a9" target="_top" xlink:title=" ">
<polygon fill="white" stroke="#666666" points="692.5,-58.75 550.5,-58.75 550.5,-38 692.5,-38 692.5,-58.75"/>
<text xml:space="preserve" text-anchor="middle" x="621.5" y="-45.25" font-family="Helvetica,sans-Serif" font-size="10.00">configure_sequence_view</text>
</a>
</g>
</g>
<!-- Node16&#45;&gt;Node17 -->
<g id="edge7_Node000016_Node000017" class="edge">
<title>Node16&#45;&gt;Node17</title>
<g id="a_edge7_Node000016_Node000017"><a xlink:title=" ">
<path fill="none" stroke="#63b8ff" d="M732.28,-61.45C719.79,-59.96 706.15,-58.34 692.85,-56.76"/>
<polygon fill="#63b8ff" stroke="#63b8ff" points="731.54,-64.89 741.89,-62.6 732.37,-57.94 731.54,-64.89"/>
</a>
</g>
</g>
<!-- Node18 -->
<g id="Node000018" class="node">
<title>Node18</title>
<g id="a_Node000018"><a xlink:href="kest__sequence__view_8c.html#a6dd883651c2a7ff92c5ad28755953e91" target="_top" xlink:title=" ">
<polygon fill="#fff0f0" stroke="red" points="310.25,-58.75 164.5,-58.75 164.5,-38 310.25,-38 310.25,-58.75"/>
<text xml:space="preserve" text-anchor="middle" x="237.38" y="-45.25" font-family="Helvetica,sans-Serif" font-size="10.00">create_sequence_view_for</text>
</a>
</g>
</g>
<!-- Node17&#45;&gt;Node18 -->
<g id="edge8_Node000017_Node000018" class="edge">
<title>Node17&#45;&gt;Node18</title>
<g id="a_edge8_Node000017_Node000018"><a xlink:title=" ">
<path fill="none" stroke="#63b8ff" d="M538.94,-48.38C471.17,-48.38 375.66,-48.38 310.61,-48.38"/>
<polygon fill="#63b8ff" stroke="#63b8ff" points="538.9,-51.88 548.9,-48.38 538.9,-44.88 538.9,-51.88"/>
</a>
</g>
</g>
<!-- Node23 -->
<g id="Node000023" class="node">
<title>Node23</title>
<g id="a_Node000023"><a xlink:href="kest__sequence__view_8c.html#aca115eba822b7486dc289cc9150562a7" target="_top" xlink:title=" ">
<polygon fill="#fff0f0" stroke="red" points="486.38,-20.75 374.38,-20.75 374.38,0 486.38,0 486.38,-20.75"/>
<text xml:space="preserve" text-anchor="middle" x="430.38" y="-7.25" font-family="Helvetica,sans-Serif" font-size="10.00">init_sequence_view</text>
</a>
</g>
</g>
<!-- Node17&#45;&gt;Node23 -->
<g id="edge10_Node000017_Node000023" class="edge">
<title>Node17&#45;&gt;Node23</title>
<g id="a_edge10_Node000017_Node000023"><a xlink:title=" ">
<path fill="none" stroke="#63b8ff" d="M555.57,-35.33C532.7,-30.73 507.26,-25.62 485.39,-21.23"/>
<polygon fill="#63b8ff" stroke="#63b8ff" points="554.58,-38.7 565.07,-37.24 555.96,-31.84 554.58,-38.7"/>
</a>
</g>
</g>
<!-- Node18&#45;&gt;Node15 -->
<g id="edge9_Node000018_Node000015" class="edge">
<title>Node18&#45;&gt;Node15</title>
<g id="a_edge9_Node000018_Node000015"><a xlink:title=" ">
<path fill="none" stroke="#63b8ff" d="M152.9,-57.64C144.8,-58.54 136.68,-59.44 128.82,-60.32"/>
<polygon fill="#63b8ff" stroke="#63b8ff" points="153.24,-61.13 162.79,-56.54 152.47,-54.17 153.24,-61.13"/>
</a>
</g>
</g>
<!-- Node23&#45;&gt;Node18 -->
<g id="edge11_Node000023_Node000018" class="edge">
<title>Node23&#45;&gt;Node18</title>
<g id="a_edge11_Node000023_Node000018"><a xlink:title=" ">
<path fill="none" stroke="#63b8ff" d="M363.8,-23.42C340.7,-28.02 315.01,-33.13 292.92,-37.52"/>
<polygon fill="#63b8ff" stroke="#63b8ff" points="364.29,-26.89 373.41,-21.51 362.92,-20.03 364.29,-26.89"/>
</a>
</g>
</g>
</g>
</svg>

<g id="navigator" transform="translate(0 0)" fill="#404254">
  <rect fill="#f2f5e9" fill-opacity="0.5" stroke="#606060" stroke-width=".5" x="0" y="0" width="60" height="60"/>
  <use id="zoomplus" xlink:href="#zoomPlus" x="17" y="9" onmousedown="handleZoom(evt,'in')"/>
  <use id="zoomminus" xlink:href="#zoomMin" x="42" y="9" onmousedown="handleZoom(evt,'out')"/>
  <use id="reset" xlink:href="#resetDef" x="30" y="36" onmousedown="handleReset()"/>
   <use id="arrowup" xlink:href="#arrowUp" x="0" y="0" onmousedown="handlePan(0,-1)"/>
  <use id="arrowright" xlink:href="#arrowRight" x="0" y="0" onmousedown="handlePan(1,0)"/>
  <use id="arrowdown" xlink:href="#arrowDown" x="0" y="0" onmousedown="handlePan(0,1)"/>
  <use id="arrowleft" xlink:href="#arrowLeft" x="0" y="0" onmousedown="handlePan(-1,0)"/>
</g>
<svg viewBox="0 0 15 15" width="100%" height="30px" preserveAspectRatio="xMaxYMin meet">
 <g id="arrow_out" transform="scale(0.3 0.3)">
  <a xlink:href="kest__files_8h_af53689e3600e69611b9c05f11971d23e_icgraph_org.svg" target="_base">
   <rect id="button" ry="5" rx="5" y="6" x="6" height="38" width="38"
        fill="#f2f5e9" fill-opacity="0.5" stroke="#606060" stroke-width="1.0"/>
   <path id="arrow"
     d="M 11.500037,31.436501 C 11.940474,20.09759 22.043105,11.32322 32.158766,21.979434 L 37.068811,17.246167 C 37.068811,17.246167 37.088388,32 37.088388,32 L 22.160133,31.978069 C 22.160133,31.978069 26.997745,27.140456 26.997745,27.140456 C 18.528582,18.264221 13.291696,25.230495 11.500037,31.436501 z"
     style="fill:#404040;"/>
  </a>
 </g>
</svg>

<style type='text/css'>
<![CDATA[
[data-mouse-over-selected='false'] { opacity: 0.7; }
[data-mouse-over-selected='true']  { opacity: 1.0; }
]]>
</style>
<script type="application/ecmascript"><![CDATA[
document.addEventListener('DOMContentLoaded', (event) => {
  highlightEdges();
  highlightAdjacentNodes();
});
]]></script>
</svg>
