<?xml version="1.0" encoding="UTF-8" standalone="no"?>
<!DOCTYPE svg PUBLIC "-//W3C//DTD SVG 1.1//EN"
 "http://www.w3.org/Graphics/SVG/1.1/DTD/svg11.dtd">
<!-- Generated by graphviz version 13.1.2 (20250808.2320)
 -->
<!-- Title: profile_view_save_name_cb Pages: 1 -->
<!--zoomable 197 -->

<svg id="main" version="1.1" xmlns="http://www.w3.org/2000/svg" xmlns:xlink="http://www.w3.org/1999/xlink" xml:space="preserve" onload="init(evt)">

<style type="text/css"><![CDATA[
.node, .edge {opacity: 0.7;}
.node.selected, .edge.selected {opacity: 1;}
.edge:hover path { stroke: red; }
.edge:hover polygon { stroke: red; fill: red; }
]]></style>

<defs>
  <circle id="rim" cx="0" cy="0" r="7"/>
  <circle id="rim2" cx="0" cy="0" r="3.5"/>
  <g id="zoomPlus">
    <use xlink:href="#rim" fill="#404040"><set attributeName="fill" to="#808080" begin="zoomplus.mouseover" end="zoomplus.mouseout"/></use>
    <path d="M-4,0h8M0,-4v8" fill="none" stroke="white" stroke-width="1.5" pointer-events="none"/>
  </g>
  <g id="zoomMin">
    <use xlink:href="#rim" fill="#404040"><set attributeName="fill" to="#808080" begin="zoomminus.mouseover" end="zoomminus.mouseout"/></use>
    <path d="M-4,0h8" fill="none" stroke="white" stroke-width="1.5" pointer-events="none"/>
  </g>
  <g id="arrowUp" transform="translate(30 24)">
    <use xlink:href="#rim"/>
    <path pointer-events="none" fill="none" stroke="white" stroke-width="1.5" d="M0,-3.0v7 M-2.5,-0.5L0,-3.0L2.5,-0.5"/>
  </g>
  <g id="arrowRight" transform="rotate(90) translate(36 -43)">
    <use xlink:href="#rim"/>
    <path pointer-events="none" fill="none" stroke="white" stroke-width="1.5" d="M0,-3.0v7 M-2.5,-0.5L0,-3.0L2.5,-0.5"/>
  </g>
  <g id="arrowDown" transform="rotate(180) translate(-30 -48)">
    <use xlink:href="#rim"/>
    <path pointer-events="none" fill="none" stroke="white" stroke-width="1.5" d="M0,-3.0v7 M-2.5,-0.5L0,-3.0L2.5,-0.5"/>
  </g>
  <g id="arrowLeft" transform="rotate(270) translate(-36 17)">
    <use xlink:href="#rim"/>
    <path pointer-events="none" fill="none" stroke="white" stroke-width="1.5" d="M0,-3.0v7 M-2.5,-0.5L0,-3.0L2.5,-0.5"/>
  </g>
  <g id="resetDef">
    <use xlink:href="#rim2" fill="#404040"><set attributeName="fill" to="#808080" begin="reset.mouseover" end="reset.mouseout"/></use>
  </g>
</defs>
<script type="application/ecmascript">
var viewWidth = 642;
var viewHeight = 197;
var sectionId = 'dynsection-29';
</script>
<script type="application/ecmascript" xlink:href="svg.min.js"/>
<svg id="graph" class="graph">
<g id="viewport">
<title>profile_view_save_name_cb</title>
<!-- Node1 -->
<g id="Node000001" class="node">
<title>Node1</title>
<g id="a_Node000001"><a xlink:title=" ">
<polygon fill="#999999" stroke="#666666" points="154,-110.75 0,-110.75 0,-90 154,-90 154,-110.75"/>
<text xml:space="preserve" text-anchor="middle" x="77" y="-97.25" font-family="Helvetica,sans-Serif" font-size="10.00">profile_view_save_name_cb</text>
</a>
</g>
</g>
<!-- Node2 -->
<g id="Node000002" class="node">
<title>Node2</title>
<g id="a_Node000002"><a xlink:href="kest__profile__view_8c.html#a090890f54a5017e1baacd296da5dffde" target="_top" xlink:title=" ">
<polygon fill="white" stroke="#666666" points="327.5,-110.75 190,-110.75 190,-90 327.5,-90 327.5,-110.75"/>
<text xml:space="preserve" text-anchor="middle" x="258.75" y="-97.25" font-family="Helvetica,sans-Serif" font-size="10.00">profile_view_save_name</text>
</a>
</g>
</g>
<!-- Node1&#45;&gt;Node2 -->
<g id="edge1_Node000001_Node000002" class="edge">
<title>Node1&#45;&gt;Node2</title>
<g id="a_edge1_Node000001_Node000002"><a xlink:title=" ">
<path fill="none" stroke="#63b8ff" d="M154.49,-100.38C162.32,-100.38 170.29,-100.38 178.16,-100.38"/>
<polygon fill="#63b8ff" stroke="#63b8ff" points="178.06,-103.88 188.06,-100.38 178.06,-96.88 178.06,-103.88"/>
</a>
</g>
</g>
<!-- Node3 -->
<g id="Node000003" class="node">
<title>Node3</title>
<g id="a_Node000003"><a xlink:href="kest__ui_8c.html#a449db99602c8ef93fb805362fec7fb1d" target="_top" xlink:title=" ">
<polygon fill="white" stroke="#666666" points="463.12,-188.75 375.88,-188.75 375.88,-168 463.12,-168 463.12,-188.75"/>
<text xml:space="preserve" text-anchor="middle" x="419.5" y="-175.25" font-family="Helvetica,sans-Serif" font-size="10.00">hide_keyboard</text>
</a>
</g>
</g>
<!-- Node2&#45;&gt;Node3 -->
<g id="edge2_Node000002_Node000003" class="edge">
<title>Node2&#45;&gt;Node3</title>
<g id="a_edge2_Node000002_Node000003"><a xlink:title=" ">
<path fill="none" stroke="#63b8ff" d="M276.93,-111.11C297.15,-123.48 331.98,-143.95 363.5,-158.38 367.33,-160.13 371.36,-161.84 375.42,-163.47"/>
<polygon fill="#63b8ff" stroke="#63b8ff" points="374.16,-166.73 384.75,-167.05 376.67,-160.2 374.16,-166.73"/>
</a>
</g>
</g>
<!-- Node4 -->
<g id="Node000004" class="node">
<title>Node4</title>
<g id="a_Node000004"><a xlink:href="kest__button_8c.html#a8d5acc76176bf3f5ec7fdd6b31139830" target="_top" xlink:title=" ">
<polygon fill="white" stroke="#666666" points="475.12,-149.75 363.88,-149.75 363.88,-129 475.12,-129 475.12,-149.75"/>
<text xml:space="preserve" text-anchor="middle" x="419.5" y="-136.25" font-family="Helvetica,sans-Serif" font-size="10.00">kest_button_enable</text>
</a>
</g>
</g>
<!-- Node2&#45;&gt;Node4 -->
<g id="edge3_Node000002_Node000004" class="edge">
<title>Node2&#45;&gt;Node4</title>
<g id="a_edge3_Node000002_Node000004"><a xlink:title=" ">
<path fill="none" stroke="#63b8ff" d="M303.97,-111.24C322.3,-115.74 343.76,-121.01 363.12,-125.77"/>
<polygon fill="#63b8ff" stroke="#63b8ff" points="362.23,-129.15 372.77,-128.14 363.9,-122.36 362.23,-129.15"/>
</a>
</g>
</g>
<!-- Node5 -->
<g id="Node000005" class="node">
<title>Node5</title>
<g id="a_Node000005"><a xlink:href="kest__alloc_8c.html#a294af5728a94aa316fcf65304d388d48" target="_top" xlink:title=" ">
<polygon fill="white" stroke="#666666" points="450,-110.75 389,-110.75 389,-90 450,-90 450,-110.75"/>
<text xml:space="preserve" text-anchor="middle" x="419.5" y="-97.25" font-family="Helvetica,sans-Serif" font-size="10.00">kest_free</text>
</a>
</g>
</g>
<!-- Node2&#45;&gt;Node5 -->
<g id="edge4_Node000002_Node000005" class="edge">
<title>Node2&#45;&gt;Node5</title>
<g id="a_edge4_Node000002_Node000005"><a xlink:title=" ">
<path fill="none" stroke="#63b8ff" d="M328,-100.38C344.71,-100.38 362.09,-100.38 377.1,-100.38"/>
<polygon fill="#63b8ff" stroke="#63b8ff" points="377.06,-103.88 387.06,-100.38 377.06,-96.88 377.06,-103.88"/>
</a>
</g>
</g>
<!-- Node6 -->
<g id="Node000006" class="node">
<title>Node6</title>
<g id="a_Node000006"><a xlink:href="kest__profile_8c.html#a8b1594e9e88b6298e1ce4d93641b1e4d" target="_top" xlink:title=" ">
<polygon fill="white" stroke="#666666" points="475.5,-72.12 363.5,-72.12 363.5,-38.62 475.5,-38.62 475.5,-72.12"/>
<text xml:space="preserve" text-anchor="start" x="371.5" y="-58.62" font-family="Helvetica,sans-Serif" font-size="10.00">kest_profile_update</text>
<text xml:space="preserve" text-anchor="middle" x="419.5" y="-45.88" font-family="Helvetica,sans-Serif" font-size="10.00">_representations</text>
</a>
</g>
</g>
<!-- Node2&#45;&gt;Node6 -->
<g id="edge5_Node000002_Node000006" class="edge">
<title>Node2&#45;&gt;Node6</title>
<g id="a_edge5_Node000002_Node000006"><a xlink:title=" ">
<path fill="none" stroke="#63b8ff" d="M297.77,-89.6C314.03,-84.99 333.5,-79.47 352,-74.22"/>
<polygon fill="#63b8ff" stroke="#63b8ff" points="352.94,-77.6 361.61,-71.5 351.03,-70.86 352.94,-77.6"/>
</a>
</g>
</g>
<!-- Node8 -->
<g id="Node000008" class="node">
<title>Node8</title>
<g id="a_Node000008"><a xlink:href="kest__alloc_8c.html#aed9ede1276c1ab3b4042c264ce64a3d2" target="_top" xlink:title=" ">
<polygon fill="white" stroke="#666666" points="458.62,-20.75 380.38,-20.75 380.38,0 458.62,0 458.62,-20.75"/>
<text xml:space="preserve" text-anchor="middle" x="419.5" y="-7.25" font-family="Helvetica,sans-Serif" font-size="10.00">kest_strndup</text>
</a>
</g>
</g>
<!-- Node2&#45;&gt;Node8 -->
<g id="edge7_Node000002_Node000008" class="edge">
<title>Node2&#45;&gt;Node8</title>
<g id="a_edge7_Node000002_Node000008"><a xlink:title=" ">
<path fill="none" stroke="#63b8ff" d="M272.79,-89.74C291.78,-74.66 328.6,-46.94 363.5,-29.38 366.24,-28 369.1,-26.68 372.02,-25.42"/>
<polygon fill="#63b8ff" stroke="#63b8ff" points="373.31,-28.68 381.31,-21.73 370.72,-22.17 373.31,-28.68"/>
</a>
</g>
</g>
<!-- Node7 -->
<g id="Node000007" class="node">
<title>Node7</title>
<g id="a_Node000007"><a xlink:href="kest__representation_8c.html#a7a4a0f32b72f47d90e3d0f5932fbe58f" target="_top" xlink:title=" ">
<polygon fill="white" stroke="#666666" points="634,-72.12 511.5,-72.12 511.5,-38.62 634,-38.62 634,-72.12"/>
<text xml:space="preserve" text-anchor="start" x="519.5" y="-58.62" font-family="Helvetica,sans-Serif" font-size="10.00">queue_representation</text>
<text xml:space="preserve" text-anchor="middle" x="572.75" y="-45.88" font-family="Helvetica,sans-Serif" font-size="10.00">_list_update</text>
</a>
</g>
</g>
<!-- Node6&#45;&gt;Node7 -->
<g id="edge6_Node000006_Node000007" class="edge">
<title>Node6&#45;&gt;Node7</title>
<g id="a_edge6_Node000006_Node000007"><a xlink:title=" ">
<path fill="none" stroke="#63b8ff" d="M475.96,-55.38C483.75,-55.38 491.86,-55.38 499.9,-55.38"/>
<polygon fill="#63b8ff" stroke="#63b8ff" points="499.68,-58.88 509.68,-55.38 499.68,-51.88 499.68,-58.88"/>
</a>
</g>
</g>
<!-- Node9 -->
<g id="Node000009" class="node">
<title>Node9</title>
<g id="a_Node000009"><a xlink:href="kest__alloc_8c.html#a849755c5dc5b35e712ffcdb602e50fb4" target="_top" xlink:title=" ">
<polygon fill="white" stroke="#666666" points="605.12,-20.75 540.38,-20.75 540.38,0 605.12,0 605.12,-20.75"/>
<text xml:space="preserve" text-anchor="middle" x="572.75" y="-7.25" font-family="Helvetica,sans-Serif" font-size="10.00">kest_alloc</text>
</a>
</g>
</g>
<!-- Node8&#45;&gt;Node9 -->
<g id="edge8_Node000008_Node000009" class="edge">
<title>Node8&#45;&gt;Node9</title>
<g id="a_edge8_Node000008_Node000009"><a xlink:title=" ">
<path fill="none" stroke="#63b8ff" d="M459.06,-10.38C480.28,-10.38 506.67,-10.38 528.57,-10.38"/>
<polygon fill="#63b8ff" stroke="#63b8ff" points="528.38,-13.88 538.38,-10.38 528.38,-6.88 528.38,-13.88"/>
</a>
</g>
</g>
</g>
</svg>

<g id="navigator" transform="translate(0 0)" fill="#404254">
  <rect fill="#f2f5e9" fill-opacity="0.5" stroke="#606060" stroke-width=".5" x="0" y="0" width="60" height="60"/>
  <use id="zoomplus" xlink:href="#zoomPlus" x="17" y="9" onmousedown="handleZoom(evt,'in')"/>
  <use id="zoomminus" xlink:href="#zoomMin" x="42" y="9" onmousedown="handleZoom(evt,'out')"/>
  <use id="reset" xlink:href="#resetDef" x="30" y="36" onmousedown="handleReset()"/>
   <use id="arrowup" xlink:href="#arrowUp" x="0" y="0" onmousedown="handlePan(0,-1)"/>
  <use id="arrowright" xlink:href="#arrowRight" x="0" y="0" onmousedown="handlePan(1,0)"/>
  <use id="arrowdown" xlink:href="#arrowDown" x="0" y="0" onmousedown="handlePan(0,1)"/>
  <use id="arrowleft" xlink:href="#arrowLeft" x="0" y="0" onmousedown="handlePan(-1,0)"/>
</g>
<svg viewBox="0 0 15 15" width="100%" height="30px" preserveAspectRatio="xMaxYMin meet">
 <g id="arrow_out" transform="scale(0.3 0.3)">
  <a xlink:href="kest__profile__view_8c_a08c96dd43f7672a21827f83800181c89_cgraph_org.svg" target="_base">
   <rect id="button" ry="5" rx="5" y="6" x="6" height="38" width="38"
        fill="#f2f5e9" fill-opacity="0.5" stroke="#606060" stroke-width="1.0"/>
   <path id="arrow"
     d="M 11.500037,31.436501 C 11.940474,20.09759 22.043105,11.32322 32.158766,21.979434 L 37.068811,17.246167 C 37.068811,17.246167 37.088388,32 37.088388,32 L 22.160133,31.978069 C 22.160133,31.978069 26.997745,27.140456 26.997745,27.140456 C 18.528582,18.264221 13.291696,25.230495 11.500037,31.436501 z"
     style="fill:#404040;"/>
  </a>
 </g>
</svg>

<style type='text/css'>
<![CDATA[
[data-mouse-over-selected='false'] { opacity: 0.7; }
[data-mouse-over-selected='true']  { opacity: 1.0; }
]]>
</style>
<script type="application/ecmascript"><![CDATA[
document.addEventListener('DOMContentLoaded', (event) => {
  highlightEdges();
  highlightAdjacentNodes();
});
]]></script>
</svg>
