<?xml version="1.0" encoding="UTF-8" standalone="no"?>
<!DOCTYPE svg PUBLIC "-//W3C//DTD SVG 1.1//EN"
 "http://www.w3.org/Graphics/SVG/1.1/DTD/svg11.dtd">
<!-- Generated by graphviz version 13.1.2 (20250808.2320)
 -->
<!-- Title: kest_active_button_delete_anim_ready_cb Pages: 1 -->
<svg width="638pt" height="163pt"
 viewBox="0.00 0.00 638.00 163.00" xmlns="http://www.w3.org/2000/svg" xmlns:xlink="http://www.w3.org/1999/xlink">
<g id="graph0" class="graph" transform="scale(1 1) rotate(0) translate(4 159.12)">
<title>kest_active_button_delete_anim_ready_cb</title>
<!-- Node1 -->
<g id="Node000001" class="node">
<title>Node1</title>
<g id="a_Node000001"><a xlink:title=" ">
<polygon fill="#999999" stroke="#666666" points="131.5,-88.12 0,-88.12 0,-54.62 131.5,-54.62 131.5,-88.12"/>
<text xml:space="preserve" text-anchor="start" x="8" y="-74.62" font-family="Helvetica,sans-Serif" font-size="10.00">kest_active_button</text>
<text xml:space="preserve" text-anchor="middle" x="65.75" y="-61.88" font-family="Helvetica,sans-Serif" font-size="10.00">_delete_anim_ready_cb</text>
</a>
</g>
</g>
<!-- Node2 -->
<g id="Node000002" class="node">
<title>Node2</title>
<g id="a_Node000002"><a xlink:href="kest__button_8c.html#afeb80361807e202da0343dedeff8aa66" target="_top" xlink:title=" ">
<polygon fill="white" stroke="#666666" points="288.12,-120.12 179.88,-120.12 179.88,-86.62 288.12,-86.62 288.12,-120.12"/>
<text xml:space="preserve" text-anchor="start" x="187.88" y="-106.62" font-family="Helvetica,sans-Serif" font-size="10.00">kest_active_button</text>
<text xml:space="preserve" text-anchor="middle" x="234" y="-93.88" font-family="Helvetica,sans-Serif" font-size="10.00">_array_remove</text>
</a>
</g>
</g>
<!-- Node1&#45;&gt;Node2 -->
<g id="edge1_Node000001_Node000002" class="edge">
<title>Node1&#45;&gt;Node2</title>
<g id="a_edge1_Node000001_Node000002"><a xlink:title=" ">
<path fill="none" stroke="#63b8ff" d="M131.98,-83.93C143.91,-86.23 156.35,-88.62 168.26,-90.91"/>
<polygon fill="#63b8ff" stroke="#63b8ff" points="167.52,-94.33 178,-92.79 168.84,-87.46 167.52,-94.33"/>
</a>
</g>
</g>
<!-- Node7 -->
<g id="Node000007" class="node">
<title>Node7</title>
<g id="a_Node000007"><a xlink:href="kest__button_8c.html#aceb82072ec06c6a63805432216adb376" target="_top" xlink:title=" ">
<polygon fill="white" stroke="#666666" points="300.5,-59.75 167.5,-59.75 167.5,-39 300.5,-39 300.5,-59.75"/>
<text xml:space="preserve" text-anchor="middle" x="234" y="-46.25" font-family="Helvetica,sans-Serif" font-size="10.00">kest_active_button_free</text>
</a>
</g>
</g>
<!-- Node1&#45;&gt;Node7 -->
<g id="edge5_Node000001_Node000007" class="edge">
<title>Node1&#45;&gt;Node7</title>
<g id="a_edge5_Node000001_Node000007"><a xlink:title=" ">
<path fill="none" stroke="#63b8ff" d="M131.98,-62.74C139.83,-61.7 147.91,-60.64 155.91,-59.58"/>
<polygon fill="#63b8ff" stroke="#63b8ff" points="156.18,-63.07 165.64,-58.29 155.27,-56.13 156.18,-63.07"/>
</a>
</g>
</g>
<!-- Node3 -->
<g id="Node000003" class="node">
<title>Node3</title>
<g id="a_Node000003"><a xlink:href="kest__button_8c.html#a69c55e9f6142d27a7c4c7cd257041efa" target="_top" xlink:title=" ">
<polygon fill="white" stroke="#666666" points="452.25,-129.12 344,-129.12 344,-95.62 452.25,-95.62 452.25,-129.12"/>
<text xml:space="preserve" text-anchor="start" x="352" y="-115.62" font-family="Helvetica,sans-Serif" font-size="10.00">kest_active_button</text>
<text xml:space="preserve" text-anchor="middle" x="398.12" y="-102.88" font-family="Helvetica,sans-Serif" font-size="10.00">_set_index</text>
</a>
</g>
</g>
<!-- Node2&#45;&gt;Node3 -->
<g id="edge2_Node000002_Node000003" class="edge">
<title>Node2&#45;&gt;Node3</title>
<g id="a_edge2_Node000002_Node000003"><a xlink:title=" ">
<path fill="none" stroke="#63b8ff" d="M288.54,-106.35C302.51,-107.12 317.72,-107.97 332.21,-108.77"/>
<polygon fill="#63b8ff" stroke="#63b8ff" points="331.96,-112.26 342.13,-109.32 332.34,-105.27 331.96,-112.26"/>
</a>
</g>
</g>
<!-- Node4 -->
<g id="Node000004" class="node">
<title>Node4</title>
<g id="a_Node000004"><a xlink:href="kest__button_8c.html#ab7fe55b3f96297fce8392af5ccfe1ae4" target="_top" xlink:title=" ">
<polygon fill="white" stroke="#666666" points="630.25,-155.12 495.75,-155.12 495.75,-121.62 630.25,-121.62 630.25,-155.12"/>
<text xml:space="preserve" text-anchor="start" x="503.75" y="-141.62" font-family="Helvetica,sans-Serif" font-size="10.00">kest_active_button</text>
<text xml:space="preserve" text-anchor="middle" x="563" y="-128.88" font-family="Helvetica,sans-Serif" font-size="10.00">_array_index_y_position</text>
</a>
</g>
</g>
<!-- Node3&#45;&gt;Node4 -->
<g id="edge3_Node000003_Node000004" class="edge">
<title>Node3&#45;&gt;Node4</title>
<g id="a_edge3_Node000003_Node000004"><a xlink:title=" ">
<path fill="none" stroke="#63b8ff" d="M452.46,-120.89C462.65,-122.52 473.51,-124.25 484.28,-125.97"/>
<polygon fill="#63b8ff" stroke="#63b8ff" points="483.52,-129.39 493.95,-127.51 484.63,-122.48 483.52,-129.39"/>
</a>
</g>
</g>
<!-- Node5 -->
<g id="Node000005" class="node">
<title>Node5</title>
<g id="a_Node000005"><a xlink:href="kest__button_8c.html#a84592332a7993043a8ad256687eebf22" target="_top" xlink:title=" ">
<polygon fill="#fff0f0" stroke="red" points="619.38,-103.12 506.62,-103.12 506.62,-69.62 619.38,-69.62 619.38,-103.12"/>
<text xml:space="preserve" text-anchor="start" x="514.62" y="-89.62" font-family="Helvetica,sans-Serif" font-size="10.00">kest_active_button</text>
<text xml:space="preserve" text-anchor="middle" x="563" y="-76.88" font-family="Helvetica,sans-Serif" font-size="10.00">_trigger_glide_anim</text>
</a>
</g>
</g>
<!-- Node3&#45;&gt;Node5 -->
<g id="edge4_Node000003_Node000005" class="edge">
<title>Node3&#45;&gt;Node5</title>
<g id="a_edge4_Node000003_Node000005"><a xlink:title=" ">
<path fill="none" stroke="#63b8ff" d="M452.46,-103.86C466.07,-101.69 480.88,-99.32 495.09,-97.06"/>
<polygon fill="#63b8ff" stroke="#63b8ff" points="495.49,-100.54 504.82,-95.5 494.39,-93.62 495.49,-100.54"/>
</a>
</g>
</g>
<!-- Node8 -->
<g id="Node000008" class="node">
<title>Node8</title>
<g id="a_Node000008"><a xlink:href="kest__button_8c.html#a5d3971a16772f47d5d5178004c93ca9b" target="_top" xlink:title=" ">
<polygon fill="white" stroke="#666666" points="459.75,-59.75 336.5,-59.75 336.5,-39 459.75,-39 459.75,-59.75"/>
<text xml:space="preserve" text-anchor="middle" x="398.12" y="-46.25" font-family="Helvetica,sans-Serif" font-size="10.00">kest_button_delete_ui</text>
</a>
</g>
</g>
<!-- Node7&#45;&gt;Node8 -->
<g id="edge6_Node000007_Node000008" class="edge">
<title>Node7&#45;&gt;Node8</title>
<g id="a_edge6_Node000007_Node000008"><a xlink:title=" ">
<path fill="none" stroke="#63b8ff" d="M300.94,-49.38C308.78,-49.38 316.81,-49.38 324.72,-49.38"/>
<polygon fill="#63b8ff" stroke="#63b8ff" points="324.69,-52.88 334.69,-49.38 324.69,-45.88 324.69,-52.88"/>
</a>
</g>
</g>
<!-- Node9 -->
<g id="Node000009" class="node">
<title>Node9</title>
<g id="a_Node000009"><a xlink:href="kest__alloc_8c.html#a294af5728a94aa316fcf65304d388d48" target="_top" xlink:title=" ">
<polygon fill="white" stroke="#666666" points="428.62,-20.75 367.62,-20.75 367.62,0 428.62,0 428.62,-20.75"/>
<text xml:space="preserve" text-anchor="middle" x="398.12" y="-7.25" font-family="Helvetica,sans-Serif" font-size="10.00">kest_free</text>
</a>
</g>
</g>
<!-- Node7&#45;&gt;Node9 -->
<g id="edge8_Node000007_Node000009" class="edge">
<title>Node7&#45;&gt;Node9</title>
<g id="a_edge8_Node000007_Node000009"><a xlink:title=" ">
<path fill="none" stroke="#63b8ff" d="M280.16,-38.51C304.16,-32.74 333.41,-25.7 356.66,-20.11"/>
<polygon fill="#63b8ff" stroke="#63b8ff" points="357.16,-23.59 366.07,-17.85 355.53,-16.78 357.16,-23.59"/>
</a>
</g>
</g>
<!-- Node8&#45;&gt;Node8 -->
<g id="edge7_Node000008_Node000008" class="edge">
<title>Node8&#45;&gt;Node8</title>
<g id="a_edge7_Node000008_Node000008"><a xlink:title=" ">
<path fill="none" stroke="#63b8ff" d="M371.68,-60.15C361.1,-68.81 369.92,-77.75 398.12,-77.75 413.55,-77.75 423.18,-75.08 427.01,-71.24"/>
<polygon fill="#63b8ff" stroke="#63b8ff" points="430.46,-70.64 424.9,-61.63 423.62,-72.14 430.46,-70.64"/>
</a>
</g>
</g>
</g>
</svg>
