<?xml version="1.0" encoding="UTF-8" standalone="no"?>
<!DOCTYPE svg PUBLIC "-//W3C//DTD SVG 1.1//EN"
 "http://www.w3.org/Graphics/SVG/1.1/DTD/svg11.dtd">
<!-- Generated by graphviz version 13.1.2 (20250808.2320)
 -->
<!-- Title: tokenizer_policy Pages: 1 -->
<svg width="391pt" height="172pt"
 viewBox="0.00 0.00 391.00 172.00" xmlns="http://www.w3.org/2000/svg" xmlns:xlink="http://www.w3.org/1999/xlink">
<g id="graph0" class="graph" transform="scale(1 1) rotate(0) translate(4 167.75)">
<title>tokenizer_policy</title>
<!-- Node1 -->
<g id="Node000001" class="node">
<title>Node1</title>
<g id="a_Node000001"><a xlink:title=" ">
<polygon fill="#999999" stroke="#666666" points="95.5,-97.75 0,-97.75 0,-77 95.5,-77 95.5,-97.75"/>
<text xml:space="preserve" text-anchor="middle" x="47.75" y="-84.25" font-family="Helvetica,sans-Serif" font-size="10.00">tokenizer_policy</text>
</a>
</g>
</g>
<!-- Node2 -->
<g id="Node000002" class="node">
<title>Node2</title>
<g id="a_Node000002"><a xlink:href="kest__tokenizer_8c.html#a9bdbd5c492f459bc081a49ec4932e2ab" target="_top" xlink:title=" ">
<polygon fill="white" stroke="#666666" points="254,-135.75 131.5,-135.75 131.5,-115 254,-115 254,-135.75"/>
<text xml:space="preserve" text-anchor="middle" x="192.75" y="-122.25" font-family="Helvetica,sans-Serif" font-size="10.00">char_is_alphanumeric</text>
</a>
</g>
</g>
<!-- Node1&#45;&gt;Node2 -->
<g id="edge1_Node000001_Node000002" class="edge">
<title>Node1&#45;&gt;Node2</title>
<g id="a_edge1_Node000001_Node000002"><a xlink:title=" ">
<path fill="none" stroke="#63b8ff" d="M89.35,-98.16C105.2,-102.37 123.55,-107.25 140.31,-111.71"/>
<polygon fill="#63b8ff" stroke="#63b8ff" points="139.03,-114.99 149.59,-114.17 140.82,-108.22 139.03,-114.99"/>
</a>
</g>
</g>
<!-- Node3 -->
<g id="Node000003" class="node">
<title>Node3</title>
<g id="a_Node000003"><a xlink:href="kest__tokenizer_8c.html#ae3e094675b7f6c398787acd25603e724" target="_top" xlink:title=" ">
<polygon fill="white" stroke="#666666" points="377.62,-163.75 295.62,-163.75 295.62,-143 377.62,-143 377.62,-163.75"/>
<text xml:space="preserve" text-anchor="middle" x="336.62" y="-150.25" font-family="Helvetica,sans-Serif" font-size="10.00">char_is_letter</text>
</a>
</g>
</g>
<!-- Node1&#45;&gt;Node3 -->
<g id="edge6_Node000001_Node000003" class="edge">
<title>Node1&#45;&gt;Node3</title>
<g id="a_edge6_Node000001_Node000003"><a xlink:title=" ">
<path fill="none" stroke="#63b8ff" d="M59.92,-98.2C74.84,-111.86 102.72,-134.72 131.5,-144.38 181.3,-161.08 241.79,-161.47 283.93,-158.83"/>
<polygon fill="#63b8ff" stroke="#63b8ff" points="284.07,-162.33 293.8,-158.13 283.57,-155.35 284.07,-162.33"/>
</a>
</g>
</g>
<!-- Node4 -->
<g id="Node000004" class="node">
<title>Node4</title>
<g id="a_Node000004"><a xlink:href="kest__tokenizer_8c.html#a69053f707d3b257c2a4fbbab04855ce4" target="_top" xlink:title=" ">
<polygon fill="white" stroke="#666666" points="383.25,-115.75 290,-115.75 290,-95 383.25,-95 383.25,-115.75"/>
<text xml:space="preserve" text-anchor="middle" x="336.62" y="-102.25" font-family="Helvetica,sans-Serif" font-size="10.00">char_is_number</text>
</a>
</g>
</g>
<!-- Node1&#45;&gt;Node4 -->
<g id="edge7_Node000001_Node000004" class="edge">
<title>Node1&#45;&gt;Node4</title>
<g id="a_edge7_Node000001_Node000004"><a xlink:title=" ">
<path fill="none" stroke="#63b8ff" d="M95.8,-90.33C145.85,-93.47 225.06,-98.44 278.62,-101.8"/>
<polygon fill="#63b8ff" stroke="#63b8ff" points="278.26,-105.28 288.46,-102.42 278.7,-98.3 278.26,-105.28"/>
</a>
</g>
</g>
<!-- Node5 -->
<g id="Node000005" class="node">
<title>Node5</title>
<g id="a_Node000005"><a xlink:href="kest__tokenizer_8c.html#a4a8f9e9e9653561f5238a01da8fd06ca" target="_top" xlink:title=" ">
<polygon fill="white" stroke="#666666" points="238.62,-59.75 146.88,-59.75 146.88,-39 238.62,-39 238.62,-59.75"/>
<text xml:space="preserve" text-anchor="middle" x="192.75" y="-46.25" font-family="Helvetica,sans-Serif" font-size="10.00">char_is_bracket</text>
</a>
</g>
</g>
<!-- Node1&#45;&gt;Node5 -->
<g id="edge4_Node000001_Node000005" class="edge">
<title>Node1&#45;&gt;Node5</title>
<g id="a_edge4_Node000001_Node000005"><a xlink:title=" ">
<path fill="none" stroke="#63b8ff" d="M89.35,-76.59C105.2,-72.38 123.55,-67.5 140.31,-63.04"/>
<polygon fill="#63b8ff" stroke="#63b8ff" points="140.82,-66.53 149.59,-60.58 139.03,-59.76 140.82,-66.53"/>
</a>
</g>
</g>
<!-- Node6 -->
<g id="Node000006" class="node">
<title>Node6</title>
<g id="a_Node000006"><a xlink:href="kest__tokenizer_8c.html#a197e3a6f3bdb468b3baecf25f4ebd76b" target="_top" xlink:title=" ">
<polygon fill="white" stroke="#666666" points="241.62,-20.75 143.88,-20.75 143.88,0 241.62,0 241.62,-20.75"/>
<text xml:space="preserve" text-anchor="middle" x="192.75" y="-7.25" font-family="Helvetica,sans-Serif" font-size="10.00">char_is_in_string</text>
</a>
</g>
</g>
<!-- Node1&#45;&gt;Node6 -->
<g id="edge5_Node000001_Node000006" class="edge">
<title>Node1&#45;&gt;Node6</title>
<g id="a_edge5_Node000001_Node000006"><a xlink:title=" ">
<path fill="none" stroke="#63b8ff" d="M61.78,-76.65C77.5,-64.15 105.11,-43.51 131.5,-30.38 135.22,-28.52 139.15,-26.78 143.16,-25.16"/>
<polygon fill="#63b8ff" stroke="#63b8ff" points="144.27,-28.48 152.39,-21.68 141.8,-21.93 144.27,-28.48"/>
</a>
</g>
</g>
<!-- Node2&#45;&gt;Node3 -->
<g id="edge2_Node000002_Node000003" class="edge">
<title>Node2&#45;&gt;Node3</title>
<g id="a_edge2_Node000002_Node000003"><a xlink:title=" ">
<path fill="none" stroke="#63b8ff" d="M248.6,-136.2C260.3,-138.51 272.61,-140.94 284.17,-143.22"/>
<polygon fill="#63b8ff" stroke="#63b8ff" points="283.46,-146.65 293.95,-145.15 284.82,-139.78 283.46,-146.65"/>
</a>
</g>
</g>
<!-- Node2&#45;&gt;Node4 -->
<g id="edge3_Node000002_Node000004" class="edge">
<title>Node2&#45;&gt;Node4</title>
<g id="a_edge3_Node000002_Node000004"><a xlink:title=" ">
<path fill="none" stroke="#63b8ff" d="M254.33,-116.84C262.42,-115.7 270.69,-114.53 278.71,-113.4"/>
<polygon fill="#63b8ff" stroke="#63b8ff" points="278.93,-116.9 288.34,-112.04 277.95,-109.97 278.93,-116.9"/>
</a>
</g>
</g>
</g>
</svg>
