<?xml version="1.0" encoding="UTF-8" standalone="no"?>
<!DOCTYPE svg PUBLIC "-//W3C//DTD SVG 1.1//EN"
 "http://www.w3.org/Graphics/SVG/1.1/DTD/svg11.dtd">
<!-- Generated by graphviz version 13.1.2 (20250808.2320)
 -->
<!-- Title: kest_bump_arena_alloc Pages: 1 -->
<!--zoomable 725 -->

<svg id="main" version="1.1" xmlns="http://www.w3.org/2000/svg" xmlns:xlink="http://www.w3.org/1999/xlink" xml:space="preserve" onload="init(evt)">

<style type="text/css"><![CDATA[
.node, .edge {opacity: 0.7;}
.node.selected, .edge.selected {opacity: 1;}
.edge:hover path { stroke: red; }
.edge:hover polygon { stroke: red; fill: red; }
]]></style>

<defs>
  <circle id="rim" cx="0" cy="0" r="7"/>
  <circle id="rim2" cx="0" cy="0" r="3.5"/>
  <g id="zoomPlus">
    <use xlink:href="#rim" fill="#404040"><set attributeName="fill" to="#808080" begin="zoomplus.mouseover" end="zoomplus.mouseout"/></use>
    <path d="M-4,0h8M0,-4v8" fill="none" stroke="white" stroke-width="1.5" pointer-events="none"/>
  </g>
  <g id="zoomMin">
    <use xlink:href="#rim" fill="#404040"><set attributeName="fill" to="#808080" begin="zoomminus.mouseover" end="zoomminus.mouseout"/></use>
    <path d="M-4,0h8" fill="none" stroke="white" stroke-width="1.5" pointer-events="none"/>
  </g>
  <g id="arrowUp" transform="translate(30 24)">
    <use xlink:href="#rim"/>
    <path pointer-events="none" fill="none" stroke="white" stroke-width="1.5" d="M0,-3.0v7 M-2.5,-0.5L0,-3.0L2.5,-0.5"/>
  </g>
  <g id="arrowRight" transform="rotate(90) translate(36 -43)">
    <use xlink:href="#rim"/>
    <path pointer-events="none" fill="none" stroke="white" stroke-width="1.5" d="M0,-3.0v7 M-2.5,-0.5L0,-3.0L2.5,-0.5"/>
  </g>
  <g id="arrowDown" transform="rotate(180) translate(-30 -48)">
    <use xlink:href="#rim"/>
    <path pointer-events="none" fill="none" stroke="white" stroke-width="1.5" d="M0,-3.0v7 M-2.5,-0.5L0,-3.0L2.5,-0.5"/>
  </g>
  <g id="arrowLeft" transform="rotate(270) translate(-36 17)">
    <use xlink:href="#rim"/>
    <path pointer-events="none" fill="none" stroke="white" stroke-width="1.5" d="M0,-3.0v7 M-2.5,-0.5L0,-3.0L2.5,-0.5"/>
  </g>
  <g id="resetDef">
    <use xlink:href="#rim2" fill="#404040"><set attributeName="fill" to="#808080" begin="reset.mouseover" end="reset.mouseout"/></use>
  </g>
</defs>
<script type="application/ecmascript">
var viewWidth = 1263;
var viewHeight = 725;
var sectionId = 'dynsection-0';
</script>
<script type="application/ecmascript" xlink:href="svg.min.js"/>
<svg id="graph" class="graph">
<g id="viewport">
<title>kest_bump_arena_alloc</title>
<!-- Node1 -->
<g id="Node000001" class="node">
<title>Node1</title>
<g id="a_Node000001"><a xlink:title=" ">
<polygon fill="#999999" stroke="#666666" points="1254.5,-498.12 1123.75,-498.12 1123.75,-477.38 1254.5,-477.38 1254.5,-498.12"/>
<text xml:space="preserve" text-anchor="middle" x="1189.12" y="-484.62" font-family="Helvetica,sans-Serif" font-size="10.00">kest_bump_arena_alloc</text>
</a>
</g>
</g>
<!-- Node2 -->
<g id="Node000002" class="node">
<title>Node2</title>
<g id="a_Node000002"><a xlink:href="kest__bump__arena_8c.html#a9cbb6801dccaf1b52c34f180e74e1029" target="_top" xlink:title=" ">
<polygon fill="white" stroke="#666666" points="1087.75,-518.12 947.25,-518.12 947.25,-497.38 1087.75,-497.38 1087.75,-518.12"/>
<text xml:space="preserve" text-anchor="middle" x="1017.5" y="-504.62" font-family="Helvetica,sans-Serif" font-size="10.00">kest_bump_arena_realloc</text>
</a>
</g>
</g>
<!-- Node1&#45;&gt;Node2 -->
<g id="edge1_Node000001_Node000002" class="edge">
<title>Node1&#45;&gt;Node2</title>
<g id="a_edge1_Node000001_Node000002"><a xlink:title=" ">
<path fill="none" stroke="#63b8ff" d="M1112.22,-496.7C1104.16,-497.65 1096,-498.61 1088.02,-499.55"/>
<polygon fill="#63b8ff" stroke="#63b8ff" points="1112.49,-500.19 1122.01,-495.55 1111.67,-493.24 1112.49,-500.19"/>
</a>
</g>
</g>
<!-- Node3 -->
<g id="Node000003" class="node">
<title>Node3</title>
<g id="a_Node000003"><a xlink:href="kest__eff__parser_8c.html#ae0a87c76dcbf2248bb57755c7e76c08d" target="_top" xlink:title=" ">
<polygon fill="white" stroke="#666666" points="1067.88,-479.12 967.12,-479.12 967.12,-458.38 1067.88,-458.38 1067.88,-479.12"/>
<text xml:space="preserve" text-anchor="middle" x="1017.5" y="-465.62" font-family="Helvetica,sans-Serif" font-size="10.00">kest_parser_alloc</text>
</a>
</g>
</g>
<!-- Node1&#45;&gt;Node3 -->
<g id="edge2_Node000001_Node000003" class="edge">
<title>Node1&#45;&gt;Node3</title>
<g id="a_edge2_Node000001_Node000003"><a xlink:title=" ">
<path fill="none" stroke="#63b8ff" d="M1112.2,-479.25C1097.26,-477.57 1081.96,-475.86 1068.16,-474.31"/>
<polygon fill="#63b8ff" stroke="#63b8ff" points="1111.68,-482.71 1122.01,-480.34 1112.46,-475.75 1111.68,-482.71"/>
</a>
</g>
</g>
<!-- Node4 -->
<g id="Node000004" class="node">
<title>Node4</title>
<g id="a_Node000004"><a xlink:href="kest__dictionary_8c.html#acd9014ad851b1e82c27acf4d4b4bd13e" target="_top" xlink:title=" ">
<polygon fill="white" stroke="#666666" points="911.25,-241.5 783.5,-241.5 783.5,-208 911.25,-208 911.25,-241.5"/>
<text xml:space="preserve" text-anchor="start" x="791.5" y="-228" font-family="Helvetica,sans-Serif" font-size="10.00">kest_dictionary_bucket</text>
<text xml:space="preserve" text-anchor="middle" x="847.38" y="-215.25" font-family="Helvetica,sans-Serif" font-size="10.00">_ensure_capacity</text>
</a>
</g>
</g>
<!-- Node3&#45;&gt;Node4 -->
<g id="edge3_Node000003_Node000004" class="edge">
<title>Node3&#45;&gt;Node4</title>
<g id="a_edge3_Node000003_Node000004"><a xlink:title=" ">
<path fill="none" stroke="#63b8ff" d="M1002.57,-448.53C970.2,-401.55 890.36,-285.68 860.18,-241.88"/>
<polygon fill="#63b8ff" stroke="#63b8ff" points="999.64,-450.46 1008.2,-456.7 1005.41,-446.48 999.64,-450.46"/>
</a>
</g>
</g>
<!-- Node7 -->
<g id="Node000007" class="node">
<title>Node7</title>
<g id="a_Node000007"><a xlink:href="kest__dictionary_8c.html#a8db4f9c511b00d7240052135e9c1ed67" target="_top" xlink:title=" ">
<polygon fill="white" stroke="#666666" points="422.25,-434.12 310.25,-434.12 310.25,-413.38 422.25,-413.38 422.25,-434.12"/>
<text xml:space="preserve" text-anchor="middle" x="366.25" y="-420.62" font-family="Helvetica,sans-Serif" font-size="10.00">kest_parse_dict_list</text>
</a>
</g>
</g>
<!-- Node3&#45;&gt;Node7 -->
<g id="edge33_Node000003_Node000007" class="edge">
<title>Node3&#45;&gt;Node7</title>
<g id="a_edge33_Node000003_Node000007"><a xlink:title=" ">
<path fill="none" stroke="#63b8ff" d="M1001.21,-449.16C982.68,-427.18 949.17,-392.75 911.25,-378.75 845.29,-354.39 605.49,-386.71 458.25,-406.75 445.99,-408.42 432.87,-410.62 420.52,-412.89"/>
<polygon fill="#63b8ff" stroke="#63b8ff" points="998.43,-451.29 1007.47,-456.83 1003.86,-446.87 998.43,-451.29"/>
</a>
</g>
</g>
<!-- Node27 -->
<g id="Node000027" class="node">
<title>Node27</title>
<g id="a_Node000027"><a xlink:href="kest__dictionary_8c.html#ab04009ad2902fc35ca82579760556eb5" target="_top" xlink:title=" ">
<polygon fill="white" stroke="#666666" points="747.5,-137.5 619,-137.5 619,-104 747.5,-104 747.5,-137.5"/>
<text xml:space="preserve" text-anchor="start" x="627" y="-124" font-family="Helvetica,sans-Serif" font-size="10.00">kest_dictionary_ensure</text>
<text xml:space="preserve" text-anchor="middle" x="683.25" y="-111.25" font-family="Helvetica,sans-Serif" font-size="10.00">_capacity</text>
</a>
</g>
</g>
<!-- Node3&#45;&gt;Node27 -->
<g id="edge22_Node000003_Node000027" class="edge">
<title>Node3&#45;&gt;Node27</title>
<g id="a_edge22_Node000003_Node000027"><a xlink:title=" ">
<path fill="none" stroke="#63b8ff" d="M1014.16,-446.74C1007.58,-395.83 984.35,-268.93 911.25,-198.75 866.84,-156.11 798.08,-136.71 747.87,-127.92"/>
<polygon fill="#63b8ff" stroke="#63b8ff" points="1010.66,-446.95 1015.31,-456.46 1017.61,-446.12 1010.66,-446.95"/>
</a>
</g>
</g>
<!-- Node28 -->
<g id="Node000028" class="node">
<title>Node28</title>
<g id="a_Node000028"><a xlink:href="kest__dictionary_8c.html#aa3d79179f434138316e0d3a4c7315ace" target="_top" xlink:title=" ">
<polygon fill="white" stroke="#666666" points="274.25,-708.12 158.5,-708.12 158.5,-687.38 274.25,-687.38 274.25,-708.12"/>
<text xml:space="preserve" text-anchor="middle" x="216.38" y="-694.62" font-family="Helvetica,sans-Serif" font-size="10.00">kest_new_dictionary</text>
</a>
</g>
</g>
<!-- Node3&#45;&gt;Node28 -->
<g id="edge29_Node000003_Node000028" class="edge">
<title>Node3&#45;&gt;Node28</title>
<g id="a_edge29_Node000003_Node000028"><a xlink:title=" ">
<path fill="none" stroke="#63b8ff" d="M956.55,-481.23C953.16,-483.36 950.01,-485.85 947.25,-488.75 899.11,-539.37 958.43,-590.23 911.25,-641.75 839.5,-720.11 790.5,-716.75 684.25,-716.75 684.25,-716.75 684.25,-716.75 519.62,-716.75 434.19,-716.75 335.43,-709.09 274.69,-703.5"/>
<polygon fill="#63b8ff" stroke="#63b8ff" points="957.98,-484.43 965.33,-476.8 954.83,-478.18 957.98,-484.43"/>
</a>
</g>
</g>
<!-- Node29 -->
<g id="Node000029" class="node">
<title>Node29</title>
<g id="a_Node000029"><a xlink:href="kest__asm__parser_8c.html#a8a0d633256a85b35706b7a9ef1add7f0" target="_top" xlink:title=" ">
<polygon fill="white" stroke="#666666" points="579.62,-689.12 461.62,-689.12 461.62,-668.38 579.62,-668.38 579.62,-689.12"/>
<text xml:space="preserve" text-anchor="middle" x="520.62" y="-675.62" font-family="Helvetica,sans-Serif" font-size="10.00">kest_parse_asm_line</text>
</a>
</g>
</g>
<!-- Node3&#45;&gt;Node29 -->
<g id="edge31_Node000003_Node000029" class="edge">
<title>Node3&#45;&gt;Node29</title>
<g id="a_edge31_Node000003_Node000029"><a xlink:title=" ">
<path fill="none" stroke="#63b8ff" d="M956.7,-481.64C953.29,-483.68 950.1,-486.03 947.25,-488.75 911.26,-523.11 948.4,-561.65 911.25,-594.75 818.39,-677.5 663.84,-685.46 580.02,-682.86"/>
<polygon fill="#63b8ff" stroke="#63b8ff" points="957.98,-484.91 965.42,-477.37 954.9,-478.63 957.98,-484.91"/>
</a>
</g>
</g>
<!-- Node11 -->
<g id="Node000011" class="node">
<title>Node11</title>
<g id="a_Node000011"><a xlink:href="kest__eff__parser_8c.html#a73ef6962d1925857ec3e4b12d1aad834" target="_top" xlink:title=" ">
<polygon fill="white" stroke="#666666" points="573.62,-498.12 467.62,-498.12 467.62,-477.38 573.62,-477.38 573.62,-498.12"/>
<text xml:space="preserve" text-anchor="middle" x="520.62" y="-484.62" font-family="Helvetica,sans-Serif" font-size="10.00">kest_parse_tokens</text>
</a>
</g>
</g>
<!-- Node3&#45;&gt;Node11 -->
<g id="edge34_Node000003_Node000011" class="edge">
<title>Node3&#45;&gt;Node11</title>
<g id="a_edge34_Node000003_Node000011"><a xlink:title=" ">
<path fill="none" stroke="#63b8ff" d="M955.28,-471.1C857.1,-474.87 666.1,-482.2 573.91,-485.74"/>
<polygon fill="#63b8ff" stroke="#63b8ff" points="955.41,-474.6 965.27,-470.72 955.14,-467.6 955.41,-474.6"/>
</a>
</g>
</g>
<!-- Node12 -->
<g id="Node000012" class="node">
<title>Node12</title>
<g id="a_Node000012"><a xlink:href="kest__eff__parser_8c.html#ae4618958c44389928c260fdb0e170761" target="_top" xlink:title=" ">
<polygon fill="#fff0f0" stroke="red" points="421.12,-504.5 311.38,-504.5 311.38,-471 421.12,-471 421.12,-504.5"/>
<text xml:space="preserve" text-anchor="start" x="319.38" y="-491" font-family="Helvetica,sans-Serif" font-size="10.00">kest_read_eff_desc</text>
<text xml:space="preserve" text-anchor="middle" x="366.25" y="-478.25" font-family="Helvetica,sans-Serif" font-size="10.00">_from_file</text>
</a>
</g>
</g>
<!-- Node3&#45;&gt;Node12 -->
<g id="edge46_Node000003_Node000012" class="edge">
<title>Node3&#45;&gt;Node12</title>
<g id="a_edge46_Node000003_Node000012"><a xlink:title=" ">
<path fill="none" stroke="#63b8ff" d="M955.26,-464.65C852.29,-458.67 638.1,-450.17 458.25,-468.75 446.21,-469.99 433.41,-472.14 421.34,-474.55"/>
<polygon fill="#63b8ff" stroke="#63b8ff" points="954.96,-468.14 965.15,-465.24 955.37,-461.15 954.96,-468.14"/>
</a>
</g>
</g>
<!-- Node32 -->
<g id="Node000032" class="node">
<title>Node32</title>
<g id="a_Node000032"><a xlink:href="kest__eff__parser_8c.html#a265d95f1e4d31d04442cef44e98cb943" target="_top" xlink:title=" ">
<polygon fill="white" stroke="#666666" points="902.25,-421.5 792.5,-421.5 792.5,-388 902.25,-388 902.25,-421.5"/>
<text xml:space="preserve" text-anchor="start" x="800.5" y="-408" font-family="Helvetica,sans-Serif" font-size="10.00">kest_parser_lineize</text>
<text xml:space="preserve" text-anchor="middle" x="847.38" y="-395.25" font-family="Helvetica,sans-Serif" font-size="10.00">_content</text>
</a>
</g>
</g>
<!-- Node3&#45;&gt;Node32 -->
<g id="edge36_Node000003_Node000032" class="edge">
<title>Node3&#45;&gt;Node32</title>
<g id="a_edge36_Node000003_Node000032"><a xlink:title=" ">
<path fill="none" stroke="#63b8ff" d="M977.39,-453.86C952.33,-444.32 919.7,-431.9 893.53,-421.94"/>
<polygon fill="#63b8ff" stroke="#63b8ff" points="975.97,-457.07 986.57,-457.35 978.46,-450.53 975.97,-457.07"/>
</a>
</g>
</g>
<!-- Node33 -->
<g id="Node000033" class="node">
<title>Node33</title>
<g id="a_Node000033"><a xlink:href="kest__eff__parser_8c.html#a06afc65a973778a4d6bd160064e72253" target="_top" xlink:title=" ">
<polygon fill="white" stroke="#666666" points="740.38,-612.12 626.12,-612.12 626.12,-591.38 740.38,-591.38 740.38,-612.12"/>
<text xml:space="preserve" text-anchor="middle" x="683.25" y="-598.62" font-family="Helvetica,sans-Serif" font-size="10.00">kest_parser_strndup</text>
</a>
</g>
</g>
<!-- Node3&#45;&gt;Node33 -->
<g id="edge38_Node000003_Node000033" class="edge">
<title>Node3&#45;&gt;Node33</title>
<g id="a_edge38_Node000003_Node000033"><a xlink:title=" ">
<path fill="none" stroke="#63b8ff" d="M956.49,-482.51C953.21,-484.33 950.1,-486.4 947.25,-488.75 920.23,-510.98 939.28,-537.82 911.25,-558.75 861.92,-595.59 790.13,-603.71 740.56,-604.31"/>
<polygon fill="#63b8ff" stroke="#63b8ff" points="957.77,-485.77 965.35,-478.36 954.81,-479.43 957.77,-485.77"/>
</a>
</g>
</g>
<!-- Node35 -->
<g id="Node000035" class="node">
<title>Node35</title>
<g id="a_Node000035"><a xlink:href="kest__tokenizer_8c.html#a142be5695a3b349820b5aaf3718583dc" target="_top" xlink:title=" ">
<polygon fill="white" stroke="#666666" points="900.38,-549.5 794.38,-549.5 794.38,-516 900.38,-516 900.38,-549.5"/>
<text xml:space="preserve" text-anchor="start" x="802.38" y="-536" font-family="Helvetica,sans-Serif" font-size="10.00">kest_token_ll_safe</text>
<text xml:space="preserve" text-anchor="middle" x="847.38" y="-523.25" font-family="Helvetica,sans-Serif" font-size="10.00">_aappend</text>
</a>
</g>
</g>
<!-- Node3&#45;&gt;Node35 -->
<g id="edge47_Node000003_Node000035" class="edge">
<title>Node3&#45;&gt;Node35</title>
<g id="a_edge47_Node000003_Node000035"><a xlink:title=" ">
<path fill="none" stroke="#63b8ff" d="M964.86,-482.81C958.88,-484.69 952.91,-486.69 947.25,-488.75 925.72,-496.61 902.25,-506.97 883.59,-515.66"/>
<polygon fill="#63b8ff" stroke="#63b8ff" points="965.55,-486.26 974.1,-480 963.52,-479.56 965.55,-486.26"/>
</a>
</g>
</g>
<!-- Node5 -->
<g id="Node000005" class="node">
<title>Node5</title>
<g id="a_Node000005"><a xlink:href="kest__dictionary_8c.html#a674edf8d06b6583a366c336ec755c20e" target="_top" xlink:title=" ">
<polygon fill="white" stroke="#666666" points="747.12,-345.5 619.38,-345.5 619.38,-312 747.12,-312 747.12,-345.5"/>
<text xml:space="preserve" text-anchor="start" x="627.38" y="-332" font-family="Helvetica,sans-Serif" font-size="10.00">kest_dictionary_bucket</text>
<text xml:space="preserve" text-anchor="middle" x="683.25" y="-319.25" font-family="Helvetica,sans-Serif" font-size="10.00">_add_entry</text>
</a>
</g>
</g>
<!-- Node4&#45;&gt;Node5 -->
<g id="edge4_Node000004_Node000005" class="edge">
<title>Node4&#45;&gt;Node5</title>
<g id="a_edge4_Node000004_Node000005"><a xlink:title=" ">
<path fill="none" stroke="#63b8ff" d="M819.37,-249.44C800.29,-266.01 773.57,-287.51 747.5,-302.75 742.07,-305.93 736.17,-308.9 730.24,-311.62"/>
<polygon fill="#63b8ff" stroke="#63b8ff" points="821.51,-252.22 826.7,-242.98 816.88,-246.97 821.51,-252.22"/>
</a>
</g>
</g>
<!-- Node17 -->
<g id="Node000017" class="node">
<title>Node17</title>
<g id="a_Node000017"><a xlink:href="kest__dictionary_8c.html#a85cee4d8833bf8638209bd8266415afa" target="_top" xlink:title=" ">
<polygon fill="white" stroke="#666666" points="747.12,-241.5 619.38,-241.5 619.38,-208 747.12,-208 747.12,-241.5"/>
<text xml:space="preserve" text-anchor="start" x="627.38" y="-228" font-family="Helvetica,sans-Serif" font-size="10.00">kest_dictionary_bucket</text>
<text xml:space="preserve" text-anchor="middle" x="683.25" y="-215.25" font-family="Helvetica,sans-Serif" font-size="10.00">_add_entry_dict</text>
</a>
</g>
</g>
<!-- Node4&#45;&gt;Node17 -->
<g id="edge12_Node000004_Node000017" class="edge">
<title>Node4&#45;&gt;Node17</title>
<g id="a_edge12_Node000004_Node000017"><a xlink:title=" ">
<path fill="none" stroke="#63b8ff" d="M771.82,-224.75C763.69,-224.75 755.47,-224.75 747.49,-224.75"/>
<polygon fill="#63b8ff" stroke="#63b8ff" points="771.72,-228.25 781.72,-224.75 771.72,-221.25 771.72,-228.25"/>
</a>
</g>
</g>
<!-- Node19 -->
<g id="Node000019" class="node">
<title>Node19</title>
<g id="a_Node000019"><a xlink:href="kest__dictionary_8c.html#ad72136b7d725caf736b0c94caea9fb06" target="_top" xlink:title=" ">
<polygon fill="white" stroke="#666666" points="747.12,-189.5 619.38,-189.5 619.38,-156 747.12,-156 747.12,-189.5"/>
<text xml:space="preserve" text-anchor="start" x="627.38" y="-176" font-family="Helvetica,sans-Serif" font-size="10.00">kest_dictionary_bucket</text>
<text xml:space="preserve" text-anchor="middle" x="683.25" y="-163.25" font-family="Helvetica,sans-Serif" font-size="10.00">_add_entry_expr</text>
</a>
</g>
</g>
<!-- Node4&#45;&gt;Node19 -->
<g id="edge14_Node000004_Node000019" class="edge">
<title>Node4&#45;&gt;Node19</title>
<g id="a_edge14_Node000004_Node000019"><a xlink:title=" ">
<path fill="none" stroke="#63b8ff" d="M781.89,-204.07C767.35,-199.4 752.06,-194.5 738.01,-189.99"/>
<polygon fill="#63b8ff" stroke="#63b8ff" points="780.81,-207.4 791.4,-207.12 782.95,-200.73 780.81,-207.4"/>
</a>
</g>
</g>
<!-- Node21 -->
<g id="Node000021" class="node">
<title>Node21</title>
<g id="a_Node000021"><a xlink:href="kest__dictionary_8c.html#a2f387c15a12220e5b1a670dba0f3b511" target="_top" xlink:title=" ">
<polygon fill="white" stroke="#666666" points="747.12,-85.5 619.38,-85.5 619.38,-52 747.12,-52 747.12,-85.5"/>
<text xml:space="preserve" text-anchor="start" x="627.38" y="-72" font-family="Helvetica,sans-Serif" font-size="10.00">kest_dictionary_bucket</text>
<text xml:space="preserve" text-anchor="middle" x="683.25" y="-59.25" font-family="Helvetica,sans-Serif" font-size="10.00">_add_entry_float</text>
</a>
</g>
</g>
<!-- Node4&#45;&gt;Node21 -->
<g id="edge16_Node000004_Node000021" class="edge">
<title>Node4&#45;&gt;Node21</title>
<g id="a_edge16_Node000004_Node000021"><a xlink:title=" ">
<path fill="none" stroke="#63b8ff" d="M831.77,-197.83C814.86,-168.89 784.54,-123.22 747.5,-94.75 743.26,-91.49 738.56,-88.58 733.69,-85.99"/>
<polygon fill="#63b8ff" stroke="#63b8ff" points="828.63,-199.4 836.63,-206.36 834.72,-195.94 828.63,-199.4"/>
</a>
</g>
</g>
<!-- Node23 -->
<g id="Node000023" class="node">
<title>Node23</title>
<g id="a_Node000023"><a xlink:href="kest__dictionary_8c.html#a23ddb4ebb9a94e0cf954530b444a4963" target="_top" xlink:title=" ">
<polygon fill="white" stroke="#666666" points="747.12,-33.5 619.38,-33.5 619.38,0 747.12,0 747.12,-33.5"/>
<text xml:space="preserve" text-anchor="start" x="627.38" y="-20" font-family="Helvetica,sans-Serif" font-size="10.00">kest_dictionary_bucket</text>
<text xml:space="preserve" text-anchor="middle" x="683.25" y="-7.25" font-family="Helvetica,sans-Serif" font-size="10.00">_add_entry_int</text>
</a>
</g>
</g>
<!-- Node4&#45;&gt;Node23 -->
<g id="edge18_Node000004_Node000023" class="edge">
<title>Node4&#45;&gt;Node23</title>
<g id="a_edge18_Node000004_Node000023"><a xlink:title=" ">
<path fill="none" stroke="#63b8ff" d="M837.9,-196.87C824.63,-157.53 795.37,-85.73 747.5,-42.75 743.79,-39.42 739.59,-36.48 735.17,-33.9"/>
<polygon fill="#63b8ff" stroke="#63b8ff" points="834.55,-197.88 840.97,-206.31 841.2,-195.71 834.55,-197.88"/>
</a>
</g>
</g>
<!-- Node25 -->
<g id="Node000025" class="node">
<title>Node25</title>
<g id="a_Node000025"><a xlink:href="kest__dictionary_8c.html#a3aaeba83bcb3cce911e04218ac103f51" target="_top" xlink:title=" ">
<polygon fill="white" stroke="#666666" points="747.12,-293.5 619.38,-293.5 619.38,-260 747.12,-260 747.12,-293.5"/>
<text xml:space="preserve" text-anchor="start" x="627.38" y="-280" font-family="Helvetica,sans-Serif" font-size="10.00">kest_dictionary_bucket</text>
<text xml:space="preserve" text-anchor="middle" x="683.25" y="-267.25" font-family="Helvetica,sans-Serif" font-size="10.00">_add_entry_str</text>
</a>
</g>
</g>
<!-- Node4&#45;&gt;Node25 -->
<g id="edge20_Node000004_Node000025" class="edge">
<title>Node4&#45;&gt;Node25</title>
<g id="a_edge20_Node000004_Node000025"><a xlink:title=" ">
<path fill="none" stroke="#63b8ff" d="M781.89,-245.43C767.35,-250.1 752.06,-255 738.01,-259.51"/>
<polygon fill="#63b8ff" stroke="#63b8ff" points="782.95,-248.77 791.4,-242.38 780.81,-242.1 782.95,-248.77"/>
</a>
</g>
</g>
<!-- Node6 -->
<g id="Node000006" class="node">
<title>Node6</title>
<g id="a_Node000006"><a xlink:href="kest__dictionary_8c.html#acc0b5644c510feefba50797abb9f3d87" target="_top" xlink:title=" ">
<polygon fill="white" stroke="#666666" points="577.38,-345.5 463.88,-345.5 463.88,-312 577.38,-312 577.38,-345.5"/>
<text xml:space="preserve" text-anchor="start" x="471.88" y="-332" font-family="Helvetica,sans-Serif" font-size="10.00">kest_dictionary_add</text>
<text xml:space="preserve" text-anchor="middle" x="520.62" y="-319.25" font-family="Helvetica,sans-Serif" font-size="10.00">_entry</text>
</a>
</g>
</g>
<!-- Node5&#45;&gt;Node6 -->
<g id="edge5_Node000005_Node000006" class="edge">
<title>Node5&#45;&gt;Node6</title>
<g id="a_edge5_Node000005_Node000006"><a xlink:title=" ">
<path fill="none" stroke="#63b8ff" d="M607.86,-328.75C597.71,-328.75 587.43,-328.75 577.68,-328.75"/>
<polygon fill="#63b8ff" stroke="#63b8ff" points="607.71,-332.25 617.71,-328.75 607.71,-325.25 607.71,-332.25"/>
</a>
</g>
</g>
<!-- Node6&#45;&gt;Node7 -->
<g id="edge6_Node000006_Node000007" class="edge">
<title>Node6&#45;&gt;Node7</title>
<g id="a_edge6_Node000006_Node000007"><a xlink:title=" ">
<path fill="none" stroke="#63b8ff" d="M473.49,-351.13C468.29,-353.93 463.12,-356.83 458.25,-359.75 429.93,-376.74 398.84,-399.59 381.32,-412.89"/>
<polygon fill="#63b8ff" stroke="#63b8ff" points="474.87,-354.36 482.11,-346.62 471.63,-348.16 474.87,-354.36"/>
</a>
</g>
</g>
<!-- Node9 -->
<g id="Node000009" class="node">
<title>Node9</title>
<g id="a_Node000009"><a xlink:href="kest__dictionary_8c.html#aae3fbdeba250be8f6dd3dfa686eb24a8" target="_top" xlink:title=" ">
<polygon fill="#fff0f0" stroke="red" points="122.5,-524.12 0,-524.12 0,-503.38 122.5,-503.38 122.5,-524.12"/>
<text xml:space="preserve" text-anchor="middle" x="61.25" y="-510.62" font-family="Helvetica,sans-Serif" font-size="10.00">kest_parse_dictionary</text>
</a>
</g>
</g>
<!-- Node6&#45;&gt;Node9 -->
<g id="edge11_Node000006_Node000009" class="edge">
<title>Node6&#45;&gt;Node9</title>
<g id="a_edge11_Node000006_Node000009"><a xlink:title=" ">
<path fill="none" stroke="#63b8ff" d="M458.74,-349.66C416.75,-364.37 359.78,-384.9 310.25,-404.75 226.43,-438.34 128.84,-482.86 85.28,-503.02"/>
<polygon fill="#63b8ff" stroke="#63b8ff" points="459.64,-353.05 467.93,-346.45 457.33,-346.44 459.64,-353.05"/>
</a>
</g>
</g>
<!-- Node8 -->
<g id="Node000008" class="node">
<title>Node8</title>
<g id="a_Node000008"><a xlink:href="kest__dictionary_8c.html#af0aceaa93cba06fd44ad4bc50f2418e4" target="_top" xlink:title=" ">
<polygon fill="white" stroke="#666666" points="272.38,-524.12 160.38,-524.12 160.38,-503.38 272.38,-503.38 272.38,-524.12"/>
<text xml:space="preserve" text-anchor="middle" x="216.38" y="-510.62" font-family="Helvetica,sans-Serif" font-size="10.00">kest_parse_dict_val</text>
</a>
</g>
</g>
<!-- Node7&#45;&gt;Node8 -->
<g id="edge7_Node000007_Node000008" class="edge">
<title>Node7&#45;&gt;Node8</title>
<g id="a_edge7_Node000007_Node000008"><a xlink:title=" ">
<path fill="none" stroke="#63b8ff" d="M329.13,-439.84C296.41,-458.13 250.16,-486.96 228.89,-502.91"/>
<polygon fill="#63b8ff" stroke="#63b8ff" points="330.4,-443.13 337.49,-435.25 327.04,-437 330.4,-443.13"/>
</a>
</g>
</g>
<!-- Node8&#45;&gt;Node7 -->
<g id="edge8_Node000008_Node000007" class="edge">
<title>Node8&#45;&gt;Node7</title>
<g id="a_edge8_Node000008_Node000007"><a xlink:title=" ">
<path fill="none" stroke="#63b8ff" d="M253.59,-497.61C286.52,-479.2 333.07,-450.15 354.14,-434.29"/>
<polygon fill="#63b8ff" stroke="#63b8ff" points="252.26,-494.35 245.18,-502.23 255.63,-500.48 252.26,-494.35"/>
</a>
</g>
</g>
<!-- Node8&#45;&gt;Node9 -->
<g id="edge9_Node000008_Node000009" class="edge">
<title>Node8&#45;&gt;Node9</title>
<g id="a_edge9_Node000008_Node000009"><a xlink:title=" ">
<path fill="none" stroke="#63b8ff" d="M148.59,-507.05C140.04,-506.96 131.33,-506.99 122.89,-507.13"/>
<polygon fill="#63b8ff" stroke="#63b8ff" points="148.52,-510.55 158.58,-507.21 148.64,-503.55 148.52,-510.55"/>
</a>
</g>
</g>
<!-- Node9&#45;&gt;Node8 -->
<g id="edge10_Node000009_Node000008" class="edge">
<title>Node9&#45;&gt;Node8</title>
<g id="a_edge10_Node000009_Node000008"><a xlink:title=" ">
<path fill="none" stroke="#63b8ff" d="M134.23,-520.49C142.93,-520.53 151.69,-520.45 160.09,-520.26"/>
<polygon fill="#63b8ff" stroke="#63b8ff" points="134.44,-516.99 124.41,-520.38 134.37,-523.99 134.44,-516.99"/>
</a>
</g>
</g>
<!-- Node18 -->
<g id="Node000018" class="node">
<title>Node18</title>
<g id="a_Node000018"><a xlink:href="kest__dictionary_8c.html#ac422a4715e6e2b8919cec34b25074488" target="_top" xlink:title=" ">
<polygon fill="white" stroke="#666666" points="577.38,-236.5 463.88,-236.5 463.88,-203 577.38,-203 577.38,-236.5"/>
<text xml:space="preserve" text-anchor="start" x="471.88" y="-223" font-family="Helvetica,sans-Serif" font-size="10.00">kest_dictionary_add</text>
<text xml:space="preserve" text-anchor="middle" x="520.62" y="-210.25" font-family="Helvetica,sans-Serif" font-size="10.00">_entry_dict</text>
</a>
</g>
</g>
<!-- Node17&#45;&gt;Node18 -->
<g id="edge13_Node000017_Node000018" class="edge">
<title>Node17&#45;&gt;Node18</title>
<g id="a_edge13_Node000017_Node000018"><a xlink:title=" ">
<path fill="none" stroke="#63b8ff" d="M607.86,-222.43C597.71,-222.12 587.43,-221.8 577.68,-221.49"/>
<polygon fill="#63b8ff" stroke="#63b8ff" points="607.61,-225.93 617.71,-222.74 607.83,-218.93 607.61,-225.93"/>
</a>
</g>
</g>
<!-- Node20 -->
<g id="Node000020" class="node">
<title>Node20</title>
<g id="a_Node000020"><a xlink:href="kest__dictionary_8c.html#af3a2314e489cbe9344dbabff75d8981c" target="_top" xlink:title=" ">
<polygon fill="white" stroke="#666666" points="577.38,-178.5 463.88,-178.5 463.88,-145 577.38,-145 577.38,-178.5"/>
<text xml:space="preserve" text-anchor="start" x="471.88" y="-165" font-family="Helvetica,sans-Serif" font-size="10.00">kest_dictionary_add</text>
<text xml:space="preserve" text-anchor="middle" x="520.62" y="-152.25" font-family="Helvetica,sans-Serif" font-size="10.00">_entry_expr</text>
</a>
</g>
</g>
<!-- Node19&#45;&gt;Node20 -->
<g id="edge15_Node000019_Node000020" class="edge">
<title>Node19&#45;&gt;Node20</title>
<g id="a_edge15_Node000019_Node000020"><a xlink:title=" ">
<path fill="none" stroke="#63b8ff" d="M607.86,-167.66C597.71,-166.96 587.43,-166.26 577.68,-165.59"/>
<polygon fill="#63b8ff" stroke="#63b8ff" points="607.5,-171.14 617.72,-168.33 607.98,-164.16 607.5,-171.14"/>
</a>
</g>
</g>
<!-- Node22 -->
<g id="Node000022" class="node">
<title>Node22</title>
<g id="a_Node000022"><a xlink:href="kest__dictionary_8c.html#a6ed116ee21579913604cb74f565ef5e2" target="_top" xlink:title=" ">
<polygon fill="white" stroke="#666666" points="577.38,-113.5 463.88,-113.5 463.88,-80 577.38,-80 577.38,-113.5"/>
<text xml:space="preserve" text-anchor="start" x="471.88" y="-100" font-family="Helvetica,sans-Serif" font-size="10.00">kest_dictionary_add</text>
<text xml:space="preserve" text-anchor="middle" x="520.62" y="-87.25" font-family="Helvetica,sans-Serif" font-size="10.00">_entry_float</text>
</a>
</g>
</g>
<!-- Node21&#45;&gt;Node22 -->
<g id="edge17_Node000021_Node000022" class="edge">
<title>Node21&#45;&gt;Node22</title>
<g id="a_edge17_Node000021_Node000022"><a xlink:title=" ">
<path fill="none" stroke="#63b8ff" d="M608.18,-81.66C597.93,-83.45 587.54,-85.26 577.68,-86.98"/>
<polygon fill="#63b8ff" stroke="#63b8ff" points="608.49,-85.16 617.74,-80 607.28,-78.27 608.49,-85.16"/>
</a>
</g>
</g>
<!-- Node24 -->
<g id="Node000024" class="node">
<title>Node24</title>
<g id="a_Node000024"><a xlink:href="kest__dictionary_8c.html#af8a494be3d85c680f409f92d95b467ba" target="_top" xlink:title=" ">
<polygon fill="white" stroke="#666666" points="577.38,-35.5 463.88,-35.5 463.88,-2 577.38,-2 577.38,-35.5"/>
<text xml:space="preserve" text-anchor="start" x="471.88" y="-22" font-family="Helvetica,sans-Serif" font-size="10.00">kest_dictionary_add</text>
<text xml:space="preserve" text-anchor="middle" x="520.62" y="-9.25" font-family="Helvetica,sans-Serif" font-size="10.00">_entry_int</text>
</a>
</g>
</g>
<!-- Node23&#45;&gt;Node24 -->
<g id="edge19_Node000023_Node000024" class="edge">
<title>Node23&#45;&gt;Node24</title>
<g id="a_edge19_Node000023_Node000024"><a xlink:title=" ">
<path fill="none" stroke="#63b8ff" d="M607.86,-17.68C597.71,-17.8 587.43,-17.93 577.68,-18.05"/>
<polygon fill="#63b8ff" stroke="#63b8ff" points="607.76,-21.18 617.71,-17.55 607.67,-14.18 607.76,-21.18"/>
</a>
</g>
</g>
<!-- Node26 -->
<g id="Node000026" class="node">
<title>Node26</title>
<g id="a_Node000026"><a xlink:href="kest__dictionary_8c.html#af733edc9e1f9f10bb82f76a7d6ff3fbd" target="_top" xlink:title=" ">
<polygon fill="white" stroke="#666666" points="577.38,-291.5 463.88,-291.5 463.88,-258 577.38,-258 577.38,-291.5"/>
<text xml:space="preserve" text-anchor="start" x="471.88" y="-278" font-family="Helvetica,sans-Serif" font-size="10.00">kest_dictionary_add</text>
<text xml:space="preserve" text-anchor="middle" x="520.62" y="-265.25" font-family="Helvetica,sans-Serif" font-size="10.00">_entry_str</text>
</a>
</g>
</g>
<!-- Node25&#45;&gt;Node26 -->
<g id="edge21_Node000025_Node000026" class="edge">
<title>Node25&#45;&gt;Node26</title>
<g id="a_edge21_Node000025_Node000026"><a xlink:title=" ">
<path fill="none" stroke="#63b8ff" d="M607.86,-275.82C597.71,-275.7 587.43,-275.57 577.68,-275.45"/>
<polygon fill="#63b8ff" stroke="#63b8ff" points="607.67,-279.32 617.71,-275.95 607.76,-272.32 607.67,-279.32"/>
</a>
</g>
</g>
<!-- Node27&#45;&gt;Node6 -->
<g id="edge23_Node000027_Node000006" class="edge">
<title>Node27&#45;&gt;Node6</title>
<g id="a_edge23_Node000027_Node000006"><a xlink:title=" ">
<path fill="none" stroke="#63b8ff" d="M620.37,-145.21C619.9,-145.72 619.44,-146.23 619,-146.75 573.44,-200.27 627.54,-246.37 583,-300.75 579.59,-304.92 575.42,-308.49 570.88,-311.55"/>
<polygon fill="#63b8ff" stroke="#63b8ff" points="622.39,-148.1 627.69,-138.92 617.82,-142.79 622.39,-148.1"/>
</a>
</g>
</g>
<!-- Node27&#45;&gt;Node18 -->
<g id="edge24_Node000027_Node000018" class="edge">
<title>Node27&#45;&gt;Node18</title>
<g id="a_edge24_Node000027_Node000018"><a xlink:title=" ">
<path fill="none" stroke="#63b8ff" d="M623.83,-143.52C622.18,-144.56 620.56,-145.64 619,-146.75 599.27,-160.84 602.08,-172.78 583,-187.75 576,-193.24 567.93,-198.23 559.97,-202.55"/>
<polygon fill="#63b8ff" stroke="#63b8ff" points="625.38,-146.66 632.37,-138.7 621.94,-140.56 625.38,-146.66"/>
</a>
</g>
</g>
<!-- Node27&#45;&gt;Node20 -->
<g id="edge25_Node000027_Node000020" class="edge">
<title>Node27&#45;&gt;Node20</title>
<g id="a_edge25_Node000027_Node000020"><a xlink:title=" ">
<path fill="none" stroke="#63b8ff" d="M607.82,-139.75C597.67,-142.34 587.38,-144.97 577.62,-147.46"/>
<polygon fill="#63b8ff" stroke="#63b8ff" points="608.48,-143.19 617.3,-137.33 606.75,-136.41 608.48,-143.19"/>
</a>
</g>
</g>
<!-- Node27&#45;&gt;Node22 -->
<g id="edge26_Node000027_Node000022" class="edge">
<title>Node27&#45;&gt;Node22</title>
<g id="a_edge26_Node000027_Node000022"><a xlink:title=" ">
<path fill="none" stroke="#63b8ff" d="M607.5,-109.58C597.45,-108.08 587.28,-106.56 577.62,-105.12"/>
<polygon fill="#63b8ff" stroke="#63b8ff" points="606.86,-113.02 617.27,-111.04 607.9,-106.1 606.86,-113.02"/>
</a>
</g>
</g>
<!-- Node27&#45;&gt;Node24 -->
<g id="edge27_Node000027_Node000024" class="edge">
<title>Node27&#45;&gt;Node24</title>
<g id="a_edge27_Node000027_Node000024"><a xlink:title=" ">
<path fill="none" stroke="#63b8ff" d="M626.1,-98.64C623.67,-97.38 621.3,-96.08 619,-94.75 589.52,-77.62 559.1,-52.45 540.27,-35.84"/>
<polygon fill="#63b8ff" stroke="#63b8ff" points="624.39,-101.7 634.91,-102.93 627.45,-95.41 624.39,-101.7"/>
</a>
</g>
</g>
<!-- Node27&#45;&gt;Node26 -->
<g id="edge28_Node000027_Node000026" class="edge">
<title>Node27&#45;&gt;Node26</title>
<g id="a_edge28_Node000027_Node000026"><a xlink:title=" ">
<path fill="none" stroke="#63b8ff" d="M620.85,-144.91C620.22,-145.51 619.6,-146.12 619,-146.75 586.58,-180.53 614.54,-211.15 583,-245.75 578.79,-250.37 573.7,-254.31 568.26,-257.67"/>
<polygon fill="#63b8ff" stroke="#63b8ff" points="622.92,-147.74 628.67,-138.85 618.62,-142.21 622.92,-147.74"/>
</a>
</g>
</g>
<!-- Node28&#45;&gt;Node9 -->
<g id="edge30_Node000028_Node000009" class="edge">
<title>Node28&#45;&gt;Node9</title>
<g id="a_edge30_Node000028_Node000009"><a xlink:title=" ">
<path fill="none" stroke="#63b8ff" d="M189.03,-680.57C178.88,-673.27 167.56,-664.26 158.5,-654.75 117.41,-611.62 81.51,-549.29 67.98,-524.51"/>
<polygon fill="#63b8ff" stroke="#63b8ff" points="186.83,-683.3 197.04,-686.13 190.83,-677.55 186.83,-683.3"/>
</a>
</g>
</g>
<!-- Node30 -->
<g id="Node000030" class="node">
<title>Node30</title>
<g id="a_Node000030"><a xlink:href="kest__asm__parser_8c.html#a1b7e03dd7589f652dec13b4b2c6d0a5c" target="_top" xlink:title=" ">
<polygon fill="#fff0f0" stroke="red" points="413.62,-689.12 318.88,-689.12 318.88,-668.38 413.62,-668.38 413.62,-689.12"/>
<text xml:space="preserve" text-anchor="middle" x="366.25" y="-675.62" font-family="Helvetica,sans-Serif" font-size="10.00">kest_parse_asm</text>
</a>
</g>
</g>
<!-- Node29&#45;&gt;Node30 -->
<g id="edge32_Node000029_Node000030" class="edge">
<title>Node29&#45;&gt;Node30</title>
<g id="a_edge32_Node000029_Node000030"><a xlink:title=" ">
<path fill="none" stroke="#63b8ff" d="M449.66,-678.75C437.57,-678.75 425.27,-678.75 413.99,-678.75"/>
<polygon fill="#63b8ff" stroke="#63b8ff" points="449.64,-682.25 459.64,-678.75 449.64,-675.25 449.64,-682.25"/>
</a>
</g>
</g>
<!-- Node11&#45;&gt;Node12 -->
<g id="edge35_Node000011_Node000012" class="edge">
<title>Node11&#45;&gt;Node12</title>
<g id="a_edge35_Node000011_Node000012"><a xlink:title=" ">
<path fill="none" stroke="#63b8ff" d="M455.94,-487.75C444.52,-487.75 432.72,-487.75 421.6,-487.75"/>
<polygon fill="#63b8ff" stroke="#63b8ff" points="455.67,-491.25 465.67,-487.75 455.67,-484.25 455.67,-491.25"/>
</a>
</g>
</g>
<!-- Node32&#45;&gt;Node12 -->
<g id="edge37_Node000032_Node000012" class="edge">
<title>Node32&#45;&gt;Node12</title>
<g id="a_edge37_Node000032_Node000012"><a xlink:title=" ">
<path fill="none" stroke="#63b8ff" d="M781.1,-401.41C702.63,-399.32 567.83,-401.92 458.25,-435.75 433.56,-443.37 408.26,-458.54 390.63,-470.53"/>
<polygon fill="#63b8ff" stroke="#63b8ff" points="780.64,-404.89 790.74,-401.7 780.86,-397.9 780.64,-404.89"/>
</a>
</g>
</g>
<!-- Node33&#45;&gt;Node8 -->
<g id="edge40_Node000033_Node000008" class="edge">
<title>Node33&#45;&gt;Node8</title>
<g id="a_edge40_Node000033_Node000008"><a xlink:title=" ">
<path fill="none" stroke="#63b8ff" d="M614.44,-597.64C569.8,-594.24 510.23,-588.37 458.25,-578.75 382.86,-564.8 296.57,-539.07 250.5,-524.51"/>
<polygon fill="#63b8ff" stroke="#63b8ff" points="614,-601.12 624.23,-598.37 614.51,-594.14 614,-601.12"/>
</a>
</g>
</g>
<!-- Node33&#45;&gt;Node9 -->
<g id="edge41_Node000033_Node000009" class="edge">
<title>Node33&#45;&gt;Node9</title>
<g id="a_edge41_Node000033_Node000009"><a xlink:title=" ">
<path fill="none" stroke="#63b8ff" d="M614.66,-604.88C570.11,-606.09 510.56,-606.12 458.25,-600.75 323.46,-586.92 167.47,-544.7 98.38,-524.6"/>
<polygon fill="#63b8ff" stroke="#63b8ff" points="614.53,-608.38 624.42,-604.58 614.32,-601.38 614.53,-608.38"/>
</a>
</g>
</g>
<!-- Node33&#45;&gt;Node29 -->
<g id="edge39_Node000033_Node000029" class="edge">
<title>Node33&#45;&gt;Node29</title>
<g id="a_edge39_Node000033_Node000029"><a xlink:title=" ">
<path fill="none" stroke="#63b8ff" d="M653.74,-618.13C634.15,-629.1 607.36,-643.53 583,-654.75 572.82,-659.44 561.43,-664.06 551.27,-667.97"/>
<polygon fill="#63b8ff" stroke="#63b8ff" points="655.25,-621.29 662.24,-613.33 651.81,-615.2 655.25,-621.29"/>
</a>
</g>
</g>
<!-- Node33&#45;&gt;Node11 -->
<g id="edge42_Node000033_Node000011" class="edge">
<title>Node33&#45;&gt;Node11</title>
<g id="a_edge42_Node000033_Node000011"><a xlink:title=" ">
<path fill="none" stroke="#63b8ff" d="M661.53,-583.69C649.03,-572.65 632.88,-558.11 619,-544.75 602.47,-528.84 602.48,-519.88 583,-507.75 577.2,-504.14 570.68,-501.11 564.11,-498.59"/>
<polygon fill="#63b8ff" stroke="#63b8ff" points="658.95,-586.08 668.77,-590.06 663.57,-580.83 658.95,-586.08"/>
</a>
</g>
</g>
<!-- Node33&#45;&gt;Node12 -->
<g id="edge43_Node000033_Node000012" class="edge">
<title>Node33&#45;&gt;Node12</title>
<g id="a_edge43_Node000033_Node000012"><a xlink:title=" ">
<path fill="none" stroke="#63b8ff" d="M614.64,-590.75C569.21,-581.94 508.66,-567.43 458.25,-545.75 433.3,-535.02 407.42,-517.83 389.66,-504.95"/>
<polygon fill="#63b8ff" stroke="#63b8ff" points="613.89,-594.16 624.37,-592.58 615.19,-587.29 613.89,-594.16"/>
</a>
</g>
</g>
<!-- Node34 -->
<g id="Node000034" class="node">
<title>Node34</title>
<g id="a_Node000034"><a xlink:href="kest__tokenizer_8c.html#abfb9dd70524b2bf471b98caa15f1d764" target="_top" xlink:title=" ">
<polygon fill="white" stroke="#666666" points="583,-537.12 458.25,-537.12 458.25,-516.38 583,-516.38 583,-537.12"/>
<text xml:space="preserve" text-anchor="middle" x="520.62" y="-523.62" font-family="Helvetica,sans-Serif" font-size="10.00">kest_tokenize_content</text>
</a>
</g>
</g>
<!-- Node33&#45;&gt;Node34 -->
<g id="edge44_Node000033_Node000034" class="edge">
<title>Node33&#45;&gt;Node34</title>
<g id="a_edge44_Node000033_Node000034"><a xlink:title=" ">
<path fill="none" stroke="#63b8ff" d="M638.34,-586.93C631.72,-584.17 625.08,-581.09 619,-577.75 601.48,-568.11 600.47,-560.48 583,-550.75 574,-545.74 563.75,-541.29 554.23,-537.62"/>
<polygon fill="#63b8ff" stroke="#63b8ff" points="636.64,-590.02 647.23,-590.44 639.21,-583.51 636.64,-590.02"/>
</a>
</g>
</g>
<!-- Node34&#45;&gt;Node12 -->
<g id="edge45_Node000034_Node000012" class="edge">
<title>Node34&#45;&gt;Node12</title>
<g id="a_edge45_Node000034_Node000012"><a xlink:title=" ">
<path fill="none" stroke="#63b8ff" d="M466.34,-513.11C451.81,-509.39 436.05,-505.36 421.46,-501.63"/>
<polygon fill="#63b8ff" stroke="#63b8ff" points="465.16,-516.42 475.71,-515.51 466.89,-509.64 465.16,-516.42"/>
</a>
</g>
</g>
<!-- Node35&#45;&gt;Node34 -->
<g id="edge50_Node000035_Node000034" class="edge">
<title>Node35&#45;&gt;Node34</title>
<g id="a_edge50_Node000035_Node000034"><a xlink:title=" ">
<path fill="none" stroke="#63b8ff" d="M782.45,-541.65C770.84,-542.94 758.83,-544.07 747.5,-544.75 690.49,-548.2 675.87,-549.96 619,-544.75 603.08,-543.29 585.87,-540.52 570.42,-537.57"/>
<polygon fill="#63b8ff" stroke="#63b8ff" points="782.86,-545.13 792.38,-540.49 782.04,-538.18 782.86,-545.13"/>
</a>
</g>
</g>
<!-- Node36 -->
<g id="Node000036" class="node">
<title>Node36</title>
<g id="a_Node000036"><a xlink:href="kest__tokenizer_8c.html#ad63de1503ca72cafc49d724daf631b8c" target="_top" xlink:title=" ">
<polygon fill="white" stroke="#666666" points="744.88,-536.12 621.62,-536.12 621.62,-515.38 744.88,-515.38 744.88,-536.12"/>
<text xml:space="preserve" text-anchor="middle" x="683.25" y="-522.62" font-family="Helvetica,sans-Serif" font-size="10.00">kest_token_span_to_ll</text>
</a>
</g>
</g>
<!-- Node35&#45;&gt;Node36 -->
<g id="edge48_Node000035_Node000036" class="edge">
<title>Node35&#45;&gt;Node36</title>
<g id="a_edge48_Node000035_Node000036"><a xlink:title=" ">
<path fill="none" stroke="#63b8ff" d="M782.95,-530.01C770.5,-529.47 757.46,-528.91 745.1,-528.38"/>
<polygon fill="#63b8ff" stroke="#63b8ff" points="782.53,-533.5 792.67,-530.43 782.83,-526.5 782.53,-533.5"/>
</a>
</g>
</g>
<!-- Node36&#45;&gt;Node11 -->
<g id="edge49_Node000036_Node000011" class="edge">
<title>Node36&#45;&gt;Node11</title>
<g id="a_edge49_Node000036_Node000011"><a xlink:title=" ">
<path fill="none" stroke="#63b8ff" d="M625.67,-512.36C606.56,-507.84 585.49,-502.86 567.34,-498.56"/>
<polygon fill="#63b8ff" stroke="#63b8ff" points="624.64,-515.72 635.18,-514.61 626.25,-508.91 624.64,-515.72"/>
</a>
</g>
</g>
</g>
</svg>

<g id="navigator" transform="translate(0 0)" fill="#404254">
  <rect fill="#f2f5e9" fill-opacity="0.5" stroke="#606060" stroke-width=".5" x="0" y="0" width="60" height="60"/>
  <use id="zoomplus" xlink:href="#zoomPlus" x="17" y="9" onmousedown="handleZoom(evt,'in')"/>
  <use id="zoomminus" xlink:href="#zoomMin" x="42" y="9" onmousedown="handleZoom(evt,'out')"/>
  <use id="reset" xlink:href="#resetDef" x="30" y="36" onmousedown="handleReset()"/>
   <use id="arrowup" xlink:href="#arrowUp" x="0" y="0" onmousedown="handlePan(0,-1)"/>
  <use id="arrowright" xlink:href="#arrowRight" x="0" y="0" onmousedown="handlePan(1,0)"/>
  <use id="arrowdown" xlink:href="#arrowDown" x="0" y="0" onmousedown="handlePan(0,1)"/>
  <use id="arrowleft" xlink:href="#arrowLeft" x="0" y="0" onmousedown="handlePan(-1,0)"/>
</g>
<svg viewBox="0 0 15 15" width="100%" height="30px" preserveAspectRatio="xMaxYMin meet">
 <g id="arrow_out" transform="scale(0.3 0.3)">
  <a xlink:href="kest__bump__arena_8c_aa9b5996d0711c6fb7360361b5d93510a_icgraph_org.svg" target="_base">
   <rect id="button" ry="5" rx="5" y="6" x="6" height="38" width="38"
        fill="#f2f5e9" fill-opacity="0.5" stroke="#606060" stroke-width="1.0"/>
   <path id="arrow"
     d="M 11.500037,31.436501 C 11.940474,20.09759 22.043105,11.32322 32.158766,21.979434 L 37.068811,17.246167 C 37.068811,17.246167 37.088388,32 37.088388,32 L 22.160133,31.978069 C 22.160133,31.978069 26.997745,27.140456 26.997745,27.140456 C 18.528582,18.264221 13.291696,25.230495 11.500037,31.436501 z"
     style="fill:#404040;"/>
  </a>
 </g>
</svg>

<style type='text/css'>
<![CDATA[
[data-mouse-over-selected='false'] { opacity: 0.7; }
[data-mouse-over-selected='true']  { opacity: 1.0; }
]]>
</style>
<script type="application/ecmascript"><![CDATA[
document.addEventListener('DOMContentLoaded', (event) => {
  highlightEdges();
  highlightAdjacentNodes();
});
]]></script>
</svg>
