<?xml version="1.0" encoding="UTF-8" standalone="no"?>
<!DOCTYPE svg PUBLIC "-//W3C//DTD SVG 1.1//EN"
 "http://www.w3.org/Graphics/SVG/1.1/DTD/svg11.dtd">
<!-- Generated by graphviz version 13.1.2 (20250808.2320)
 -->
<!-- Title: kest_dictionary_bucket_init Pages: 1 -->
<svg width="626pt" height="80pt"
 viewBox="0.00 0.00 626.00 80.00" xmlns="http://www.w3.org/2000/svg" xmlns:xlink="http://www.w3.org/1999/xlink">
<g id="graph0" class="graph" transform="scale(1 1) rotate(0) translate(4 76.12)">
<title>kest_dictionary_bucket_init</title>
<!-- Node1 -->
<g id="Node000001" class="node">
<title>Node1</title>
<g id="a_Node000001"><a xlink:title=" ">
<polygon fill="#999999" stroke="#666666" points="617.5,-72.12 468.75,-72.12 468.75,-51.38 617.5,-51.38 617.5,-72.12"/>
<text xml:space="preserve" text-anchor="middle" x="543.12" y="-58.62" font-family="Helvetica,sans-Serif" font-size="10.00">kest_dictionary_bucket_init</text>
</a>
</g>
</g>
<!-- Node2 -->
<g id="Node000002" class="node">
<title>Node2</title>
<g id="a_Node000002"><a xlink:href="kest__dictionary_8c.html#aa3d79179f434138316e0d3a4c7315ace" target="_top" xlink:title=" ">
<polygon fill="white" stroke="#666666" points="432.75,-72.12 317,-72.12 317,-51.38 432.75,-51.38 432.75,-72.12"/>
<text xml:space="preserve" text-anchor="middle" x="374.88" y="-58.62" font-family="Helvetica,sans-Serif" font-size="10.00">kest_new_dictionary</text>
</a>
</g>
</g>
<!-- Node1&#45;&gt;Node2 -->
<g id="edge1_Node000001_Node000002" class="edge">
<title>Node1&#45;&gt;Node2</title>
<g id="a_edge1_Node000001_Node000002"><a xlink:title=" ">
<path fill="none" stroke="#63b8ff" d="M457.22,-61.75C449.07,-61.75 440.95,-61.75 433.16,-61.75"/>
<polygon fill="#63b8ff" stroke="#63b8ff" points="457.21,-65.25 467.21,-61.75 457.21,-58.25 457.21,-65.25"/>
</a>
</g>
</g>
<!-- Node3 -->
<g id="Node000003" class="node">
<title>Node3</title>
<g id="a_Node000003"><a xlink:href="kest__dictionary_8c.html#aae3fbdeba250be8f6dd3dfa686eb24a8" target="_top" xlink:title=" ">
<polygon fill="white" stroke="#666666" points="281,-72.12 158.5,-72.12 158.5,-51.38 281,-51.38 281,-72.12"/>
<text xml:space="preserve" text-anchor="middle" x="219.75" y="-58.62" font-family="Helvetica,sans-Serif" font-size="10.00">kest_parse_dictionary</text>
</a>
</g>
</g>
<!-- Node2&#45;&gt;Node3 -->
<g id="edge2_Node000002_Node000003" class="edge">
<title>Node2&#45;&gt;Node3</title>
<g id="a_edge2_Node000002_Node000003"><a xlink:title=" ">
<path fill="none" stroke="#63b8ff" d="M305.59,-61.75C297.53,-61.75 289.35,-61.75 281.41,-61.75"/>
<polygon fill="#63b8ff" stroke="#63b8ff" points="305.34,-65.25 315.34,-61.75 305.34,-58.25 305.34,-65.25"/>
</a>
</g>
</g>
<!-- Node4 -->
<g id="Node000004" class="node">
<title>Node4</title>
<g id="a_Node000004"><a xlink:href="kest__dictionary_8c.html#af0aceaa93cba06fd44ad4bc50f2418e4" target="_top" xlink:title=" ">
<polygon fill="#fff0f0" stroke="red" points="117.25,-72.12 5.25,-72.12 5.25,-51.38 117.25,-51.38 117.25,-72.12"/>
<text xml:space="preserve" text-anchor="middle" x="61.25" y="-58.62" font-family="Helvetica,sans-Serif" font-size="10.00">kest_parse_dict_val</text>
</a>
</g>
</g>
<!-- Node3&#45;&gt;Node4 -->
<g id="edge3_Node000003_Node000004" class="edge">
<title>Node3&#45;&gt;Node4</title>
<g id="a_edge3_Node000003_Node000004"><a xlink:title=" ">
<path fill="none" stroke="#63b8ff" d="M146.86,-55.02C137.08,-54.96 127.16,-55.04 117.73,-55.26"/>
<polygon fill="#63b8ff" stroke="#63b8ff" points="146.69,-58.52 156.73,-55.14 146.77,-51.52 146.69,-58.52"/>
</a>
</g>
</g>
<!-- Node6 -->
<g id="Node000006" class="node">
<title>Node6</title>
<g id="a_Node000006"><a xlink:href="kest__eff__section_8c.html#a4de28fb64398c9194136a2ced71e2795" target="_top" xlink:title=" ">
<polygon fill="#fff0f0" stroke="red" points="122.5,-33.5 0,-33.5 0,0 122.5,0 122.5,-33.5"/>
<text xml:space="preserve" text-anchor="start" x="8" y="-20" font-family="Helvetica,sans-Serif" font-size="10.00">kest_parse_dictionary</text>
<text xml:space="preserve" text-anchor="middle" x="61.25" y="-7.25" font-family="Helvetica,sans-Serif" font-size="10.00">_section</text>
</a>
</g>
</g>
<!-- Node3&#45;&gt;Node6 -->
<g id="edge5_Node000003_Node000006" class="edge">
<title>Node3&#45;&gt;Node6</title>
<g id="a_edge5_Node000003_Node000006"><a xlink:title=" ">
<path fill="none" stroke="#63b8ff" d="M170.48,-47.87C155.17,-43.47 138.06,-38.55 122.04,-33.94"/>
<polygon fill="#63b8ff" stroke="#63b8ff" points="169.23,-51.15 179.81,-50.55 171.17,-44.43 169.23,-51.15"/>
</a>
</g>
</g>
<!-- Node4&#45;&gt;Node3 -->
<g id="edge4_Node000004_Node000003" class="edge">
<title>Node4&#45;&gt;Node3</title>
<g id="a_edge4_Node000004_Node000003"><a xlink:title=" ">
<path fill="none" stroke="#63b8ff" d="M128.99,-68.43C138.7,-68.55 148.66,-68.52 158.24,-68.34"/>
<polygon fill="#63b8ff" stroke="#63b8ff" points="129.3,-64.94 119.24,-68.27 129.18,-71.94 129.3,-64.94"/>
</a>
</g>
</g>
</g>
</svg>
