<?xml version="1.0" encoding="UTF-8" standalone="no"?>
<!DOCTYPE svg PUBLIC "-//W3C//DTD SVG 1.1//EN"
 "http://www.w3.org/Graphics/SVG/1.1/DTD/svg11.dtd">
<!-- Generated by graphviz version 13.1.2 (20250808.2320)
 -->
<!-- Title: configure_sequence_list Pages: 1 -->
<svg width="548pt" height="68pt"
 viewBox="0.00 0.00 548.00 68.00" xmlns="http://www.w3.org/2000/svg" xmlns:xlink="http://www.w3.org/1999/xlink">
<g id="graph0" class="graph" transform="scale(1 1) rotate(0) translate(4 63.75)">
<title>configure_sequence_list</title>
<!-- Node1 -->
<g id="Node000001" class="node">
<title>Node1</title>
<g id="a_Node000001"><a xlink:title=" ">
<polygon fill="#999999" stroke="#666666" points="539.5,-39.75 405.75,-39.75 405.75,-19 539.5,-19 539.5,-39.75"/>
<text xml:space="preserve" text-anchor="middle" x="472.62" y="-26.25" font-family="Helvetica,sans-Serif" font-size="10.00">configure_sequence_list</text>
</a>
</g>
</g>
<!-- Node2 -->
<g id="Node000002" class="node">
<title>Node2</title>
<g id="a_Node000002"><a xlink:href="kest__sequence__list_8c.html#a0e869118af43741e3d4db628d5c414fe" target="_top" xlink:title=" ">
<polygon fill="white" stroke="#666666" points="369.75,-58.75 266,-58.75 266,-38 369.75,-38 369.75,-58.75"/>
<text xml:space="preserve" text-anchor="middle" x="317.88" y="-45.25" font-family="Helvetica,sans-Serif" font-size="10.00">init_sequence_list</text>
</a>
</g>
</g>
<!-- Node1&#45;&gt;Node2 -->
<g id="edge1_Node000001_Node000002" class="edge">
<title>Node1&#45;&gt;Node2</title>
<g id="a_edge1_Node000001_Node000002"><a xlink:title=" ">
<path fill="none" stroke="#63b8ff" d="M394.26,-39C385.99,-40.03 377.74,-41.05 369.89,-42.03"/>
<polygon fill="#63b8ff" stroke="#63b8ff" points="394.52,-42.49 404.01,-37.79 393.66,-35.55 394.52,-42.49"/>
</a>
</g>
</g>
<!-- Node7 -->
<g id="Node000007" class="node">
<title>Node7</title>
<g id="a_Node000007"><a xlink:href="kest__ui_8c.html#ac4b49754b0a8d3df4343e742d6899872" target="_top" xlink:title=" ">
<polygon fill="white" stroke="#666666" points="209.75,-20.75 123.25,-20.75 123.25,0 209.75,0 209.75,-20.75"/>
<text xml:space="preserve" text-anchor="middle" x="166.5" y="-7.25" font-family="Helvetica,sans-Serif" font-size="10.00">kest_create_ui</text>
</a>
</g>
</g>
<!-- Node1&#45;&gt;Node7 -->
<g id="edge5_Node000001_Node000007" class="edge">
<title>Node1&#45;&gt;Node7</title>
<g id="a_edge5_Node000001_Node000007"><a xlink:title=" ">
<path fill="none" stroke="#63b8ff" d="M393.83,-24.51C335.3,-20.86 257.32,-15.99 209.85,-13.02"/>
<polygon fill="#63b8ff" stroke="#63b8ff" points="393.55,-28 403.75,-25.13 393.99,-21.02 393.55,-28"/>
</a>
</g>
</g>
<!-- Node3 -->
<g id="Node000003" class="node">
<title>Node3</title>
<g id="a_Node000003"><a xlink:href="kest__ui_8c.html#ab1be7d2981c922ebe8d714f9af0f600d" target="_top" xlink:title=" ">
<polygon fill="white" stroke="#666666" points="230,-59.75 103,-59.75 103,-39 230,-39 230,-59.75"/>
<text xml:space="preserve" text-anchor="middle" x="166.5" y="-46.25" font-family="Helvetica,sans-Serif" font-size="10.00">kest_init_global_pages</text>
</a>
</g>
</g>
<!-- Node2&#45;&gt;Node3 -->
<g id="edge2_Node000002_Node000003" class="edge">
<title>Node2&#45;&gt;Node3</title>
<g id="a_edge2_Node000002_Node000003"><a xlink:title=" ">
<path fill="none" stroke="#63b8ff" d="M254.43,-48.79C246.49,-48.85 238.36,-48.9 230.41,-48.95"/>
<polygon fill="#63b8ff" stroke="#63b8ff" points="254.4,-52.29 264.37,-48.73 254.35,-45.29 254.4,-52.29"/>
</a>
</g>
</g>
<!-- Node4 -->
<g id="Node000004" class="node">
<title>Node4</title>
<g id="a_Node000004"><a xlink:href="kest__int_8c.html#abce06be17fc37d675118a678a8100a36" target="_top" xlink:title=" ">
<polygon fill="white" stroke="#666666" points="65.5,-59.75 1.5,-59.75 1.5,-39 65.5,-39 65.5,-59.75"/>
<text xml:space="preserve" text-anchor="middle" x="33.5" y="-46.25" font-family="Helvetica,sans-Serif" font-size="10.00">app_main</text>
</a>
</g>
</g>
<!-- Node3&#45;&gt;Node4 -->
<g id="edge3_Node000003_Node000004" class="edge">
<title>Node3&#45;&gt;Node4</title>
<g id="a_edge3_Node000003_Node000004"><a xlink:title=" ">
<path fill="none" stroke="#63b8ff" d="M91.35,-49.38C82.46,-49.38 73.78,-49.38 65.99,-49.38"/>
<polygon fill="#63b8ff" stroke="#63b8ff" points="91.17,-52.88 101.17,-49.38 91.17,-45.88 91.17,-52.88"/>
</a>
</g>
</g>
<!-- Node5 -->
<g id="Node000005" class="node">
<title>Node5</title>
<g id="a_Node000005"><a xlink:href="kest__desktop_8c.html#ab499a4f71ef4cfc807b60d8739750c3e" target="_top" xlink:title=" ">
<polygon fill="#fff0f0" stroke="red" points="67,-20.75 0,-20.75 0,0 67,0 67,-20.75"/>
<text xml:space="preserve" text-anchor="middle" x="33.5" y="-7.25" font-family="Helvetica,sans-Serif" font-size="10.00">main_task</text>
</a>
</g>
</g>
<!-- Node3&#45;&gt;Node5 -->
<g id="edge4_Node000003_Node000005" class="edge">
<title>Node3&#45;&gt;Node5</title>
<g id="a_edge4_Node000003_Node000005"><a xlink:title=" ">
<path fill="none" stroke="#63b8ff" d="M118.2,-35.29C101.29,-30.26 82.63,-24.7 67.22,-20.12"/>
<polygon fill="#63b8ff" stroke="#63b8ff" points="116.98,-38.58 127.56,-38.08 118.97,-31.87 116.98,-38.58"/>
</a>
</g>
</g>
<!-- Node7&#45;&gt;Node4 -->
<g id="edge6_Node000007_Node000004" class="edge">
<title>Node7&#45;&gt;Node4</title>
<g id="a_edge6_Node000007_Node000004"><a xlink:title=" ">
<path fill="none" stroke="#63b8ff" d="M118.44,-24.39C100.98,-29.58 81.63,-35.34 65.91,-40.03"/>
<polygon fill="#63b8ff" stroke="#63b8ff" points="118.97,-27.88 127.56,-21.67 116.98,-21.17 118.97,-27.88"/>
</a>
</g>
</g>
<!-- Node7&#45;&gt;Node5 -->
<g id="edge7_Node000007_Node000005" class="edge">
<title>Node7&#45;&gt;Node5</title>
<g id="a_edge7_Node000007_Node000005"><a xlink:title=" ">
<path fill="none" stroke="#63b8ff" d="M111.67,-10.38C96.62,-10.38 80.71,-10.38 67.28,-10.38"/>
<polygon fill="#63b8ff" stroke="#63b8ff" points="111.45,-13.88 121.45,-10.38 111.45,-6.88 111.45,-13.88"/>
</a>
</g>
</g>
</g>
</svg>
