<?xml version="1.0" encoding="UTF-8" standalone="no"?>
<!DOCTYPE svg PUBLIC "-//W3C//DTD SVG 1.1//EN"
 "http://www.w3.org/Graphics/SVG/1.1/DTD/svg11.dtd">
<!-- Generated by graphviz version 13.1.2 (20250808.2320)
 -->
<!-- Title: profile_view_save_name Pages: 1 -->
<svg width="452pt" height="197pt"
 viewBox="0.00 0.00 452.00 197.00" xmlns="http://www.w3.org/2000/svg" xmlns:xlink="http://www.w3.org/1999/xlink">

<svg id="main" version="1.1" xmlns="http://www.w3.org/2000/svg" xmlns:xlink="http://www.w3.org/1999/xlink" xml:space="preserve">

<style type="text/css"><![CDATA[
.node, .edge {opacity: 0.7;}
.node.selected, .edge.selected {opacity: 1;}
.edge:hover path { stroke: red; }
.edge:hover polygon { stroke: red; fill: red; }
]]></style>
<script type="application/ecmascript" xlink:href="svg.min.js"/>
<svg id="graph" class="graph">
<g id="graph0" class="graph" transform="scale(1 1) rotate(0) translate(4 192.75)">
<title>profile_view_save_name</title>
<!-- Node1 -->
<g id="Node000001" class="node">
<title>Node1</title>
<g id="a_Node000001"><a xlink:title=" ">
<polygon fill="#999999" stroke="#666666" points="137.5,-110.75 0,-110.75 0,-90 137.5,-90 137.5,-110.75"/>
<text xml:space="preserve" text-anchor="middle" x="68.75" y="-97.25" font-family="Helvetica,sans-Serif" font-size="10.00">profile_view_save_name</text>
</a>
</g>
</g>
<!-- Node2 -->
<g id="Node000002" class="node">
<title>Node2</title>
<g id="a_Node000002"><a xlink:href="kest__ui_8c.html#a449db99602c8ef93fb805362fec7fb1d" target="_top" xlink:title=" ">
<polygon fill="white" stroke="#666666" points="273.12,-188.75 185.88,-188.75 185.88,-168 273.12,-168 273.12,-188.75"/>
<text xml:space="preserve" text-anchor="middle" x="229.5" y="-175.25" font-family="Helvetica,sans-Serif" font-size="10.00">hide_keyboard</text>
</a>
</g>
</g>
<!-- Node1&#45;&gt;Node2 -->
<g id="edge1_Node000001_Node000002" class="edge">
<title>Node1&#45;&gt;Node2</title>
<g id="a_edge1_Node000001_Node000002"><a xlink:title=" ">
<path fill="none" stroke="#63b8ff" d="M86.93,-111.11C107.15,-123.48 141.98,-143.95 173.5,-158.38 177.33,-160.13 181.36,-161.84 185.42,-163.47"/>
<polygon fill="#63b8ff" stroke="#63b8ff" points="184.16,-166.73 194.75,-167.05 186.67,-160.2 184.16,-166.73"/>
</a>
</g>
</g>
<!-- Node3 -->
<g id="Node000003" class="node">
<title>Node3</title>
<g id="a_Node000003"><a xlink:href="kest__button_8c.html#a8d5acc76176bf3f5ec7fdd6b31139830" target="_top" xlink:title=" ">
<polygon fill="white" stroke="#666666" points="285.12,-149.75 173.88,-149.75 173.88,-129 285.12,-129 285.12,-149.75"/>
<text xml:space="preserve" text-anchor="middle" x="229.5" y="-136.25" font-family="Helvetica,sans-Serif" font-size="10.00">kest_button_enable</text>
</a>
</g>
</g>
<!-- Node1&#45;&gt;Node3 -->
<g id="edge2_Node000001_Node000003" class="edge">
<title>Node1&#45;&gt;Node3</title>
<g id="a_edge2_Node000001_Node000003"><a xlink:title=" ">
<path fill="none" stroke="#63b8ff" d="M113.97,-111.24C132.3,-115.74 153.76,-121.01 173.12,-125.77"/>
<polygon fill="#63b8ff" stroke="#63b8ff" points="172.23,-129.15 182.77,-128.14 173.9,-122.36 172.23,-129.15"/>
</a>
</g>
</g>
<!-- Node4 -->
<g id="Node000004" class="node">
<title>Node4</title>
<g id="a_Node000004"><a xlink:href="kest__alloc_8c.html#a294af5728a94aa316fcf65304d388d48" target="_top" xlink:title=" ">
<polygon fill="white" stroke="#666666" points="260,-110.75 199,-110.75 199,-90 260,-90 260,-110.75"/>
<text xml:space="preserve" text-anchor="middle" x="229.5" y="-97.25" font-family="Helvetica,sans-Serif" font-size="10.00">kest_free</text>
</a>
</g>
</g>
<!-- Node1&#45;&gt;Node4 -->
<g id="edge3_Node000001_Node000004" class="edge">
<title>Node1&#45;&gt;Node4</title>
<g id="a_edge3_Node000001_Node000004"><a xlink:title=" ">
<path fill="none" stroke="#63b8ff" d="M138,-100.38C154.71,-100.38 172.09,-100.38 187.1,-100.38"/>
<polygon fill="#63b8ff" stroke="#63b8ff" points="187.06,-103.88 197.06,-100.38 187.06,-96.88 187.06,-103.88"/>
</a>
</g>
</g>
<!-- Node5 -->
<g id="Node000005" class="node">
<title>Node5</title>
<g id="a_Node000005"><a xlink:href="kest__profile_8c.html#a8b1594e9e88b6298e1ce4d93641b1e4d" target="_top" xlink:title=" ">
<polygon fill="white" stroke="#666666" points="285.5,-72.12 173.5,-72.12 173.5,-38.62 285.5,-38.62 285.5,-72.12"/>
<text xml:space="preserve" text-anchor="start" x="181.5" y="-58.62" font-family="Helvetica,sans-Serif" font-size="10.00">kest_profile_update</text>
<text xml:space="preserve" text-anchor="middle" x="229.5" y="-45.88" font-family="Helvetica,sans-Serif" font-size="10.00">_representations</text>
</a>
</g>
</g>
<!-- Node1&#45;&gt;Node5 -->
<g id="edge4_Node000001_Node000005" class="edge">
<title>Node1&#45;&gt;Node5</title>
<g id="a_edge4_Node000001_Node000005"><a xlink:title=" ">
<path fill="none" stroke="#63b8ff" d="M107.77,-89.6C124.03,-84.99 143.5,-79.47 162,-74.22"/>
<polygon fill="#63b8ff" stroke="#63b8ff" points="162.94,-77.6 171.61,-71.5 161.03,-70.86 162.94,-77.6"/>
</a>
</g>
</g>
<!-- Node7 -->
<g id="Node000007" class="node">
<title>Node7</title>
<g id="a_Node000007"><a xlink:href="kest__alloc_8c.html#aed9ede1276c1ab3b4042c264ce64a3d2" target="_top" xlink:title=" ">
<polygon fill="white" stroke="#666666" points="268.62,-20.75 190.38,-20.75 190.38,0 268.62,0 268.62,-20.75"/>
<text xml:space="preserve" text-anchor="middle" x="229.5" y="-7.25" font-family="Helvetica,sans-Serif" font-size="10.00">kest_strndup</text>
</a>
</g>
</g>
<!-- Node1&#45;&gt;Node7 -->
<g id="edge6_Node000001_Node000007" class="edge">
<title>Node1&#45;&gt;Node7</title>
<g id="a_edge6_Node000001_Node000007"><a xlink:title=" ">
<path fill="none" stroke="#63b8ff" d="M82.79,-89.74C101.78,-74.66 138.6,-46.94 173.5,-29.38 176.24,-28 179.1,-26.68 182.02,-25.42"/>
<polygon fill="#63b8ff" stroke="#63b8ff" points="183.31,-28.68 191.31,-21.73 180.72,-22.17 183.31,-28.68"/>
</a>
</g>
</g>
<!-- Node6 -->
<g id="Node000006" class="node">
<title>Node6</title>
<g id="a_Node000006"><a xlink:href="kest__representation_8c.html#a7a4a0f32b72f47d90e3d0f5932fbe58f" target="_top" xlink:title=" ">
<polygon fill="white" stroke="#666666" points="444,-72.12 321.5,-72.12 321.5,-38.62 444,-38.62 444,-72.12"/>
<text xml:space="preserve" text-anchor="start" x="329.5" y="-58.62" font-family="Helvetica,sans-Serif" font-size="10.00">queue_representation</text>
<text xml:space="preserve" text-anchor="middle" x="382.75" y="-45.88" font-family="Helvetica,sans-Serif" font-size="10.00">_list_update</text>
</a>
</g>
</g>
<!-- Node5&#45;&gt;Node6 -->
<g id="edge5_Node000005_Node000006" class="edge">
<title>Node5&#45;&gt;Node6</title>
<g id="a_edge5_Node000005_Node000006"><a xlink:title=" ">
<path fill="none" stroke="#63b8ff" d="M285.96,-55.38C293.75,-55.38 301.86,-55.38 309.9,-55.38"/>
<polygon fill="#63b8ff" stroke="#63b8ff" points="309.68,-58.88 319.68,-55.38 309.68,-51.88 309.68,-58.88"/>
</a>
</g>
</g>
<!-- Node8 -->
<g id="Node000008" class="node">
<title>Node8</title>
<g id="a_Node000008"><a xlink:href="kest__alloc_8c.html#a849755c5dc5b35e712ffcdb602e50fb4" target="_top" xlink:title=" ">
<polygon fill="white" stroke="#666666" points="415.12,-20.75 350.38,-20.75 350.38,0 415.12,0 415.12,-20.75"/>
<text xml:space="preserve" text-anchor="middle" x="382.75" y="-7.25" font-family="Helvetica,sans-Serif" font-size="10.00">kest_alloc</text>
</a>
</g>
</g>
<!-- Node7&#45;&gt;Node8 -->
<g id="edge7_Node000007_Node000008" class="edge">
<title>Node7&#45;&gt;Node8</title>
<g id="a_edge7_Node000007_Node000008"><a xlink:title=" ">
<path fill="none" stroke="#63b8ff" d="M269.06,-10.38C290.28,-10.38 316.67,-10.38 338.57,-10.38"/>
<polygon fill="#63b8ff" stroke="#63b8ff" points="338.38,-13.88 348.38,-10.38 338.38,-6.88 338.38,-13.88"/>
</a>
</g>
</g>
</g>
</svg>
</svg>

<style type='text/css'>
<![CDATA[
[data-mouse-over-selected='false'] { opacity: 0.7; }
[data-mouse-over-selected='true']  { opacity: 1.0; }
]]>
</style>
<script type="application/ecmascript"><![CDATA[
document.addEventListener('DOMContentLoaded', (event) => {
  highlightEdges();
  highlightAdjacentNodes();
});
]]></script>
</svg>
