<?xml version="1.0" encoding="UTF-8" standalone="no"?>
<!DOCTYPE svg PUBLIC "-//W3C//DTD SVG 1.1//EN"
 "http://www.w3.org/Graphics/SVG/1.1/DTD/svg11.dtd">
<!-- Generated by graphviz version 13.1.2 (20250808.2320)
 -->
<!-- Title: kest_parse_asm Pages: 1 -->
<svg width="809pt" height="543pt"
 viewBox="0.00 0.00 809.00 543.00" xmlns="http://www.w3.org/2000/svg" xmlns:xlink="http://www.w3.org/1999/xlink">
<g id="graph0" class="graph" transform="scale(1 1) rotate(0) translate(4 538.75)">
<title>kest_parse_asm</title>
<!-- Node1 -->
<g id="Node000001" class="node">
<title>Node1</title>
<g id="a_Node000001"><a xlink:title=" ">
<polygon fill="#999999" stroke="#666666" points="94.75,-219.75 0,-219.75 0,-199 94.75,-199 94.75,-219.75"/>
<text xml:space="preserve" text-anchor="middle" x="47.38" y="-206.25" font-family="Helvetica,sans-Serif" font-size="10.00">kest_parse_asm</text>
</a>
</g>
</g>
<!-- Node2 -->
<g id="Node000002" class="node">
<title>Node2</title>
<g id="a_Node000002"><a xlink:href="kest__error__codes_8c.html#a0f4c77127bc0b77264a21104979c576a" target="_top" xlink:title=" ">
<polygon fill="white" stroke="#666666" points="246.88,-271.12 138.62,-271.12 138.62,-237.62 246.88,-237.62 246.88,-271.12"/>
<text xml:space="preserve" text-anchor="start" x="146.62" y="-257.62" font-family="Helvetica,sans-Serif" font-size="10.00">kest_error_code_to</text>
<text xml:space="preserve" text-anchor="middle" x="192.75" y="-244.88" font-family="Helvetica,sans-Serif" font-size="10.00">_string</text>
</a>
</g>
</g>
<!-- Node1&#45;&gt;Node2 -->
<g id="edge1_Node000001_Node000002" class="edge">
<title>Node1&#45;&gt;Node2</title>
<g id="a_edge1_Node000001_Node000002"><a xlink:title=" ">
<path fill="none" stroke="#63b8ff" d="M82.72,-220.15C96.25,-224.4 112.24,-229.42 127.74,-234.29"/>
<polygon fill="#63b8ff" stroke="#63b8ff" points="126.33,-237.51 136.92,-237.17 128.43,-230.83 126.33,-237.51"/>
</a>
</g>
</g>
<!-- Node3 -->
<g id="Node000003" class="node">
<title>Node3</title>
<g id="a_Node000003"><a xlink:href="kest__asm__parser_8c.html#a8a0d633256a85b35706b7a9ef1add7f0" target="_top" xlink:title=" ">
<polygon fill="white" stroke="#666666" points="251.75,-219.75 133.75,-219.75 133.75,-199 251.75,-199 251.75,-219.75"/>
<text xml:space="preserve" text-anchor="middle" x="192.75" y="-206.25" font-family="Helvetica,sans-Serif" font-size="10.00">kest_parse_asm_line</text>
</a>
</g>
</g>
<!-- Node1&#45;&gt;Node3 -->
<g id="edge2_Node000001_Node000003" class="edge">
<title>Node1&#45;&gt;Node3</title>
<g id="a_edge2_Node000001_Node000003"><a xlink:title=" ">
<path fill="none" stroke="#63b8ff" d="M94.92,-209.38C103.55,-209.38 112.73,-209.38 121.87,-209.38"/>
<polygon fill="#63b8ff" stroke="#63b8ff" points="121.87,-212.88 131.87,-209.38 121.87,-205.88 121.87,-212.88"/>
</a>
</g>
</g>
<!-- Node46 -->
<g id="Node000046" class="node">
<title>Node46</title>
<g id="a_Node000046"><a xlink:href="kest__tokenizer_8c.html#ac5a6cd7c57f40df38ad2abd938b8b200" target="_top" xlink:title=" ">
<polygon fill="white" stroke="#666666" points="254.75,-180.75 130.75,-180.75 130.75,-160 254.75,-160 254.75,-180.75"/>
<text xml:space="preserve" text-anchor="middle" x="192.75" y="-167.25" font-family="Helvetica,sans-Serif" font-size="10.00">kest_token_ll_skip_ws</text>
</a>
</g>
</g>
<!-- Node1&#45;&gt;Node46 -->
<g id="edge29_Node000001_Node000046" class="edge">
<title>Node1&#45;&gt;Node46</title>
<g id="a_edge29_Node000001_Node000046"><a xlink:title=" ">
<path fill="none" stroke="#63b8ff" d="M88.31,-198.51C104.63,-194.07 123.69,-188.89 140.97,-184.19"/>
<polygon fill="#63b8ff" stroke="#63b8ff" points="141.84,-187.58 150.57,-181.58 140,-180.83 141.84,-187.58"/>
</a>
</g>
</g>
<!-- Node4 -->
<g id="Node000004" class="node">
<title>Node4</title>
<g id="a_Node000004"><a xlink:href="kest__asm__parser_8c.html#ababf53ab1d4fd01c0eadac07018adcb8" target="_top" xlink:title=" ">
<polygon fill="white" stroke="#666666" points="403.88,-534.75 323.38,-534.75 323.38,-514 403.88,-514 403.88,-534.75"/>
<text xml:space="preserve" text-anchor="middle" x="363.62" y="-521.25" font-family="Helvetica,sans-Serif" font-size="10.00">is_valid_instr</text>
</a>
</g>
</g>
<!-- Node3&#45;&gt;Node4 -->
<g id="edge3_Node000003_Node000004" class="edge">
<title>Node3&#45;&gt;Node4</title>
<g id="a_edge3_Node000003_Node000004"><a xlink:title=" ">
<path fill="none" stroke="#63b8ff" d="M245.21,-220.23C248.78,-222.47 252.03,-225.15 254.75,-228.38 333.33,-321.63 213.12,-406.33 290.75,-500.38 296.4,-507.22 304.07,-512.13 312.3,-515.64"/>
<polygon fill="#63b8ff" stroke="#63b8ff" points="310.89,-518.85 321.49,-518.88 313.22,-512.25 310.89,-518.85"/>
</a>
</g>
</g>
<!-- Node5 -->
<g id="Node000005" class="node">
<title>Node5</title>
<g id="a_Node000005"><a xlink:href="kest__alloc_8c.html#a849755c5dc5b35e712ffcdb602e50fb4" target="_top" xlink:title=" ">
<polygon fill="white" stroke="#666666" points="767.75,-458.75 703,-458.75 703,-438 767.75,-438 767.75,-458.75"/>
<text xml:space="preserve" text-anchor="middle" x="735.38" y="-445.25" font-family="Helvetica,sans-Serif" font-size="10.00">kest_alloc</text>
</a>
</g>
</g>
<!-- Node3&#45;&gt;Node5 -->
<g id="edge4_Node000003_Node000005" class="edge">
<title>Node3&#45;&gt;Node5</title>
<g id="a_edge4_Node000003_Node000005"><a xlink:title=" ">
<path fill="none" stroke="#63b8ff" d="M243.8,-220.21C247.82,-222.45 251.56,-225.14 254.75,-228.38 294.42,-268.65 256.86,-305.13 290.75,-350.38 348.34,-427.26 380.33,-440.27 472.5,-467.38 547.26,-489.36 638.96,-473.51 691.63,-460.55"/>
<polygon fill="#63b8ff" stroke="#63b8ff" points="692.28,-464 701.1,-458.14 690.55,-457.21 692.28,-464"/>
</a>
</g>
</g>
<!-- Node6 -->
<g id="Node000006" class="node">
<title>Node6</title>
<g id="a_Node000006"><a xlink:href="kest__expression_8c.html#aadf2a6a074cb1ad7b45893704cbd71c3" target="_top" xlink:title=" ">
<polygon fill="white" stroke="#666666" points="418.5,-226.12 308.75,-226.12 308.75,-192.62 418.5,-192.62 418.5,-226.12"/>
<text xml:space="preserve" text-anchor="start" x="316.75" y="-212.62" font-family="Helvetica,sans-Serif" font-size="10.00">kest_expression_to</text>
<text xml:space="preserve" text-anchor="middle" x="363.62" y="-199.88" font-family="Helvetica,sans-Serif" font-size="10.00">_string</text>
</a>
</g>
</g>
<!-- Node3&#45;&gt;Node6 -->
<g id="edge5_Node000003_Node000006" class="edge">
<title>Node3&#45;&gt;Node6</title>
<g id="a_edge5_Node000003_Node000006"><a xlink:title=" ">
<path fill="none" stroke="#63b8ff" d="M251.87,-209.38C266.46,-209.38 282.23,-209.38 297.16,-209.38"/>
<polygon fill="#63b8ff" stroke="#63b8ff" points="296.87,-212.88 306.87,-209.38 296.87,-205.88 296.87,-212.88"/>
</a>
</g>
</g>
<!-- Node11 -->
<g id="Node000011" class="node">
<title>Node11</title>
<g id="a_Node000011"><a xlink:href="kest__asm__parser_8c.html#a975cb5ec55968124f930a9a35fe564c5" target="_top" xlink:title=" ">
<polygon fill="white" stroke="#666666" points="421.5,-302.75 305.75,-302.75 305.75,-282 421.5,-282 421.5,-302.75"/>
<text xml:space="preserve" text-anchor="middle" x="363.62" y="-289.25" font-family="Helvetica,sans-Serif" font-size="10.00">kest_parse_asm_arg</text>
</a>
</g>
</g>
<!-- Node3&#45;&gt;Node11 -->
<g id="edge8_Node000003_Node000011" class="edge">
<title>Node3&#45;&gt;Node11</title>
<g id="a_edge8_Node000003_Node000011"><a xlink:title=" ">
<path fill="none" stroke="#63b8ff" d="M238.33,-220.16C244.08,-222.43 249.71,-225.14 254.75,-228.38 274.89,-241.28 270.75,-255.27 290.75,-268.38 296.11,-271.89 302.03,-274.93 308.1,-277.56"/>
<polygon fill="#63b8ff" stroke="#63b8ff" points="306.4,-280.65 316.99,-281.04 308.95,-274.13 306.4,-280.65"/>
</a>
</g>
</g>
<!-- Node22 -->
<g id="Node000022" class="node">
<title>Node22</title>
<g id="a_Node000022"><a xlink:href="kest__eff__parser_8c.html#aee5c1435aac9ead9b0c5c692c7c621ec" target="_top" xlink:title=" ">
<polygon fill="#fff0f0" stroke="red" points="611.12,-263.75 495.38,-263.75 495.38,-243 611.12,-243 611.12,-263.75"/>
<text xml:space="preserve" text-anchor="middle" x="553.25" y="-250.25" font-family="Helvetica,sans-Serif" font-size="10.00">kest_parser_error_at</text>
</a>
</g>
</g>
<!-- Node3&#45;&gt;Node22 -->
<g id="edge23_Node000003_Node000022" class="edge">
<title>Node3&#45;&gt;Node22</title>
<g id="a_edge23_Node000003_Node000022"><a xlink:title=" ">
<path fill="none" stroke="#63b8ff" d="M227.51,-220.15C246,-225.61 269.43,-231.82 290.75,-235.38 355.67,-246.21 430.71,-250.54 483.71,-252.27"/>
<polygon fill="#63b8ff" stroke="#63b8ff" points="483.39,-255.76 493.49,-252.56 483.6,-248.76 483.39,-255.76"/>
</a>
</g>
</g>
<!-- Node39 -->
<g id="Node000039" class="node">
<title>Node39</title>
<g id="a_Node000039"><a xlink:href="kest__asm__parser_8c.html#a93fe9789a6b0162607601862f5fa9c8c" target="_top" xlink:title=" ">
<polygon fill="white" stroke="#666666" points="427.12,-341.75 300.12,-341.75 300.12,-321 427.12,-321 427.12,-341.75"/>
<text xml:space="preserve" text-anchor="middle" x="363.62" y="-328.25" font-family="Helvetica,sans-Serif" font-size="10.00">kest_parse_asm_arg_2</text>
</a>
</g>
</g>
<!-- Node3&#45;&gt;Node39 -->
<g id="edge12_Node000003_Node000039" class="edge">
<title>Node3&#45;&gt;Node39</title>
<g id="a_edge12_Node000003_Node000039"><a xlink:title=" ">
<path fill="none" stroke="#63b8ff" d="M242.49,-220.17C246.93,-222.41 251.12,-225.11 254.75,-228.38 284.67,-255.24 260.43,-284.97 290.75,-311.38 292.23,-312.66 293.78,-313.87 295.4,-314.99"/>
<polygon fill="#63b8ff" stroke="#63b8ff" points="293.51,-317.94 303.92,-319.89 296.99,-311.87 293.51,-317.94"/>
</a>
</g>
</g>
<!-- Node40 -->
<g id="Node000040" class="node">
<title>Node40</title>
<g id="a_Node000040"><a xlink:href="kest__eff__parser_8c.html#ae0a87c76dcbf2248bb57755c7e76c08d" target="_top" xlink:title=" ">
<polygon fill="white" stroke="#666666" points="603.62,-152.75 502.88,-152.75 502.88,-132 603.62,-132 603.62,-152.75"/>
<text xml:space="preserve" text-anchor="middle" x="553.25" y="-139.25" font-family="Helvetica,sans-Serif" font-size="10.00">kest_parser_alloc</text>
</a>
</g>
</g>
<!-- Node3&#45;&gt;Node40 -->
<g id="edge21_Node000003_Node000040" class="edge">
<title>Node3&#45;&gt;Node40</title>
<g id="a_edge21_Node000003_Node000040"><a xlink:title=" ">
<path fill="none" stroke="#63b8ff" d="M237.21,-198.55C243.37,-196.06 249.42,-193.03 254.75,-189.38 275.59,-175.09 267.98,-156.33 290.75,-145.38 355.12,-114.42 439.12,-120.38 494.32,-129.57"/>
<polygon fill="#63b8ff" stroke="#63b8ff" points="493.7,-133.01 504.16,-131.3 494.92,-126.12 493.7,-133.01"/>
</a>
</g>
</g>
<!-- Node42 -->
<g id="Node000042" class="node">
<title>Node42</title>
<g id="a_Node000042"><a xlink:href="kest__eff__parser_8c.html#a06afc65a973778a4d6bd160064e72253" target="_top" xlink:title=" ">
<polygon fill="white" stroke="#666666" points="420.75,-174.75 306.5,-174.75 306.5,-154 420.75,-154 420.75,-174.75"/>
<text xml:space="preserve" text-anchor="middle" x="363.62" y="-161.25" font-family="Helvetica,sans-Serif" font-size="10.00">kest_parser_strndup</text>
</a>
</g>
</g>
<!-- Node3&#45;&gt;Node42 -->
<g id="edge24_Node000003_Node000042" class="edge">
<title>Node3&#45;&gt;Node42</title>
<g id="a_edge24_Node000003_Node000042"><a xlink:title=" ">
<path fill="none" stroke="#63b8ff" d="M233.86,-198.59C251.33,-193.9 272.05,-188.35 290.75,-183.38 297.14,-181.67 303.86,-179.89 310.51,-178.13"/>
<polygon fill="#63b8ff" stroke="#63b8ff" points="311.33,-181.53 320.11,-175.59 309.54,-174.76 311.33,-181.53"/>
</a>
</g>
</g>
<!-- Node43 -->
<g id="Node000043" class="node">
<title>Node43</title>
<g id="a_Node000043"><a xlink:href="kest__block_8c.html#acf843c33332a666018bf6982d4a3f424" target="_top" xlink:title=" ">
<polygon fill="white" stroke="#666666" points="436.5,-98.75 290.75,-98.75 290.75,-78 436.5,-78 436.5,-98.75"/>
<text xml:space="preserve" text-anchor="middle" x="363.62" y="-85.25" font-family="Helvetica,sans-Serif" font-size="10.00">operand_const_minus_one</text>
</a>
</g>
</g>
<!-- Node3&#45;&gt;Node43 -->
<g id="edge26_Node000003_Node000043" class="edge">
<title>Node3&#45;&gt;Node43</title>
<g id="a_edge26_Node000003_Node000043"><a xlink:title=" ">
<path fill="none" stroke="#63b8ff" d="M240.58,-198.55C245.71,-196.09 250.58,-193.07 254.75,-189.38 283.02,-164.32 262.55,-137.51 290.75,-112.38 294.29,-109.22 298.25,-106.49 302.45,-104.1"/>
<polygon fill="#63b8ff" stroke="#63b8ff" points="303.76,-107.36 311.23,-99.83 300.7,-101.06 303.76,-107.36"/>
</a>
</g>
</g>
<!-- Node44 -->
<g id="Node000044" class="node">
<title>Node44</title>
<g id="a_Node000044"><a xlink:href="kest__block_8c.html#a0abe86a6e458577f0b06c8567db06e90" target="_top" xlink:title=" ">
<polygon fill="white" stroke="#666666" points="418.88,-59.75 308.38,-59.75 308.38,-39 418.88,-39 418.88,-59.75"/>
<text xml:space="preserve" text-anchor="middle" x="363.62" y="-46.25" font-family="Helvetica,sans-Serif" font-size="10.00">operand_const_one</text>
</a>
</g>
</g>
<!-- Node3&#45;&gt;Node44 -->
<g id="edge27_Node000003_Node000044" class="edge">
<title>Node3&#45;&gt;Node44</title>
<g id="a_edge27_Node000003_Node000044"><a xlink:title=" ">
<path fill="none" stroke="#63b8ff" d="M242.02,-198.65C246.72,-196.17 251.09,-193.13 254.75,-189.38 293.62,-149.51 250.98,-108.35 290.75,-69.38 292.97,-67.2 295.41,-65.25 298,-63.52"/>
<polygon fill="#63b8ff" stroke="#63b8ff" points="299.52,-66.67 306.64,-58.82 296.18,-60.52 299.52,-66.67"/>
</a>
</g>
</g>
<!-- Node45 -->
<g id="Node000045" class="node">
<title>Node45</title>
<g id="a_Node000045"><a xlink:href="kest__block_8c.html#af0864eedf184e1c9cadd6c7322a4fa59" target="_top" xlink:title=" ">
<polygon fill="white" stroke="#666666" points="420.38,-20.75 306.88,-20.75 306.88,0 420.38,0 420.38,-20.75"/>
<text xml:space="preserve" text-anchor="middle" x="363.62" y="-7.25" font-family="Helvetica,sans-Serif" font-size="10.00">operand_const_zero</text>
</a>
</g>
</g>
<!-- Node3&#45;&gt;Node45 -->
<g id="edge28_Node000003_Node000045" class="edge">
<title>Node3&#45;&gt;Node45</title>
<g id="a_edge28_Node000003_Node000045"><a xlink:title=" ">
<path fill="none" stroke="#63b8ff" d="M242.88,-198.57C247.3,-196.11 251.37,-193.08 254.75,-189.38 303.52,-135.79 240.78,-82.84 290.75,-30.38 292.7,-28.32 294.85,-26.48 297.14,-24.81"/>
<polygon fill="#63b8ff" stroke="#63b8ff" points="298.42,-28.12 305.28,-20.04 294.88,-22.08 298.42,-28.12"/>
</a>
</g>
</g>
<!-- Node7 -->
<g id="Node000007" class="node">
<title>Node7</title>
<g id="a_Node000007"><a xlink:href="kest__expression_8c.html#a767b50b7ddfa94dc61810dfdcc8feaf0" target="_top" xlink:title=" ">
<polygon fill="#fff0f0" stroke="red" points="624.62,-206.75 481.88,-206.75 481.88,-186 624.62,-186 624.62,-206.75"/>
<text xml:space="preserve" text-anchor="middle" x="553.25" y="-193.25" font-family="Helvetica,sans-Serif" font-size="10.00">kest_expression_print_rec</text>
</a>
</g>
</g>
<!-- Node6&#45;&gt;Node7 -->
<g id="edge6_Node000006_Node000007" class="edge">
<title>Node6&#45;&gt;Node7</title>
<g id="a_edge6_Node000006_Node000007"><a xlink:title=" ">
<path fill="none" stroke="#63b8ff" d="M418.89,-205.61C434.96,-204.5 452.93,-203.26 470.34,-202.05"/>
<polygon fill="#63b8ff" stroke="#63b8ff" points="470.43,-205.55 480.16,-201.37 469.94,-198.57 470.43,-205.55"/>
</a>
</g>
</g>
<!-- Node7&#45;&gt;Node7 -->
<g id="edge7_Node000007_Node000007" class="edge">
<title>Node7&#45;&gt;Node7</title>
<g id="a_edge7_Node000007_Node000007"><a xlink:title=" ">
<path fill="none" stroke="#63b8ff" d="M523.9,-207.15C512.17,-215.81 521.95,-224.75 553.25,-224.75 570.37,-224.75 581.05,-222.08 585.3,-218.24"/>
<polygon fill="#63b8ff" stroke="#63b8ff" points="588.72,-217.51 582.95,-208.62 581.92,-219.16 588.72,-217.51"/>
</a>
</g>
</g>
<!-- Node12 -->
<g id="Node000012" class="node">
<title>Node12</title>
<g id="a_Node000012"><a xlink:href="kest__expr__parser_8c.html#a7caaee6c8b0c14b3ff08fba98d837ead" target="_top" xlink:title=" ">
<polygon fill="#fff0f0" stroke="red" points="616.75,-302.75 489.75,-302.75 489.75,-282 616.75,-282 616.75,-302.75"/>
<text xml:space="preserve" text-anchor="middle" x="553.25" y="-289.25" font-family="Helvetica,sans-Serif" font-size="10.00">kest_parse_expression</text>
</a>
</g>
</g>
<!-- Node11&#45;&gt;Node12 -->
<g id="edge9_Node000011_Node000012" class="edge">
<title>Node11&#45;&gt;Node12</title>
<g id="a_edge9_Node000011_Node000012"><a xlink:title=" ">
<path fill="none" stroke="#63b8ff" d="M421.94,-292.38C439.61,-292.38 459.33,-292.38 477.97,-292.38"/>
<polygon fill="#63b8ff" stroke="#63b8ff" points="477.89,-295.88 487.89,-292.38 477.89,-288.88 477.89,-295.88"/>
</a>
</g>
</g>
<!-- Node11&#45;&gt;Node22 -->
<g id="edge10_Node000011_Node000022" class="edge">
<title>Node11&#45;&gt;Node22</title>
<g id="a_edge10_Node000011_Node000022"><a xlink:title=" ">
<path fill="none" stroke="#63b8ff" d="M416.89,-281.51C439.16,-276.88 465.35,-271.44 488.72,-266.58"/>
<polygon fill="#63b8ff" stroke="#63b8ff" points="489.38,-270.02 498.46,-264.56 487.96,-263.16 489.38,-270.02"/>
</a>
</g>
</g>
<!-- Node38 -->
<g id="Node000038" class="node">
<title>Node38</title>
<g id="a_Node000038"><a xlink:href="kest__tokenizer_8c.html#a2ec9c97a1ac58583e2731a0e3d533af6" target="_top" xlink:title=" ">
<polygon fill="white" stroke="#666666" points="590.5,-341.75 516,-341.75 516,-321 590.5,-321 590.5,-341.75"/>
<text xml:space="preserve" text-anchor="middle" x="553.25" y="-328.25" font-family="Helvetica,sans-Serif" font-size="10.00">token_is_int</text>
</a>
</g>
</g>
<!-- Node11&#45;&gt;Node38 -->
<g id="edge11_Node000011_Node000038" class="edge">
<title>Node11&#45;&gt;Node38</title>
<g id="a_edge11_Node000011_Node000038"><a xlink:title=" ">
<path fill="none" stroke="#63b8ff" d="M416.89,-303.24C444.4,-308.96 477.89,-315.92 504.68,-321.49"/>
<polygon fill="#63b8ff" stroke="#63b8ff" points="503.72,-324.86 514.23,-323.47 505.15,-318.01 503.72,-324.86"/>
</a>
</g>
</g>
<!-- Node39&#45;&gt;Node12 -->
<g id="edge13_Node000039_Node000012" class="edge">
<title>Node39&#45;&gt;Node12</title>
<g id="a_edge13_Node000039_Node000012"><a xlink:title=" ">
<path fill="none" stroke="#63b8ff" d="M416.89,-320.51C439.16,-315.88 465.35,-310.44 488.72,-305.58"/>
<polygon fill="#63b8ff" stroke="#63b8ff" points="489.38,-309.02 498.46,-303.56 487.96,-302.16 489.38,-309.02"/>
</a>
</g>
</g>
<!-- Node39&#45;&gt;Node22 -->
<g id="edge14_Node000039_Node000022" class="edge">
<title>Node39&#45;&gt;Node22</title>
<g id="a_edge14_Node000039_Node000022"><a xlink:title=" ">
<path fill="none" stroke="#63b8ff" d="M416.69,-320.54C423.6,-318.07 430.4,-315.05 436.5,-311.38 456.43,-299.38 452.42,-285.12 472.5,-273.38 476.27,-271.17 480.29,-269.2 484.43,-267.45"/>
<polygon fill="#63b8ff" stroke="#63b8ff" points="485.35,-270.84 493.5,-264.06 482.9,-264.29 485.35,-270.84"/>
</a>
</g>
</g>
<!-- Node39&#45;&gt;Node38 -->
<g id="edge19_Node000039_Node000038" class="edge">
<title>Node39&#45;&gt;Node38</title>
<g id="a_edge19_Node000039_Node000038"><a xlink:title=" ">
<path fill="none" stroke="#63b8ff" d="M427.62,-331.38C452.67,-331.38 481.01,-331.38 504.33,-331.38"/>
<polygon fill="#63b8ff" stroke="#63b8ff" points="504.17,-334.88 514.17,-331.38 504.17,-327.88 504.17,-334.88"/>
</a>
</g>
</g>
<!-- Node26 -->
<g id="Node000026" class="node">
<title>Node26</title>
<g id="a_Node000026"><a xlink:href="kest__expression_8c.html#a5b047584af9003a45d12bb689067007b" target="_top" xlink:title=" ">
<polygon fill="#fff0f0" stroke="red" points="623.88,-458.75 482.62,-458.75 482.62,-438 623.88,-438 623.88,-458.75"/>
<text xml:space="preserve" text-anchor="middle" x="553.25" y="-445.25" font-family="Helvetica,sans-Serif" font-size="10.00">new_m_expression_const</text>
</a>
</g>
</g>
<!-- Node39&#45;&gt;Node26 -->
<g id="edge15_Node000039_Node000026" class="edge">
<title>Node39&#45;&gt;Node26</title>
<g id="a_edge15_Node000039_Node000026"><a xlink:title=" ">
<path fill="none" stroke="#63b8ff" d="M373.21,-341.96C390.07,-362 429.59,-405.54 472.5,-428.38 476.18,-430.33 480.06,-432.11 484.05,-433.71"/>
<polygon fill="#63b8ff" stroke="#63b8ff" points="482.76,-436.97 493.35,-437.06 485.13,-430.38 482.76,-436.97"/>
</a>
</g>
</g>
<!-- Node28 -->
<g id="Node000028" class="node">
<title>Node28</title>
<g id="a_Node000028"><a xlink:href="kest__expression_8c.html#a58d39794d89b01ca4b68e02c7fdc11c3" target="_top" xlink:title=" ">
<polygon fill="#fff0f0" stroke="red" points="634,-419.75 472.5,-419.75 472.5,-399 634,-399 634,-419.75"/>
<text xml:space="preserve" text-anchor="middle" x="553.25" y="-406.25" font-family="Helvetica,sans-Serif" font-size="10.00">new_m_expression_reference</text>
</a>
</g>
</g>
<!-- Node39&#45;&gt;Node28 -->
<g id="edge17_Node000039_Node000028" class="edge">
<title>Node39&#45;&gt;Node28</title>
<g id="a_edge17_Node000039_Node000028"><a xlink:title=" ">
<path fill="none" stroke="#63b8ff" d="M381.56,-342.19C402.28,-355.03 438.79,-376.32 472.5,-389.38 478.16,-391.57 484.13,-393.58 490.17,-395.42"/>
<polygon fill="#63b8ff" stroke="#63b8ff" points="489,-398.72 499.58,-398.11 490.93,-392 489,-398.72"/>
</a>
</g>
</g>
<!-- Node36 -->
<g id="Node000036" class="node">
<title>Node36</title>
<g id="a_Node000036"><a xlink:href="kest__tokenizer_8c.html#a6ca78d248f8970c62c3a5cfc32ee0bb6" target="_top" xlink:title=" ">
<polygon fill="#fff0f0" stroke="red" points="596.12,-380.75 510.38,-380.75 510.38,-360 596.12,-360 596.12,-380.75"/>
<text xml:space="preserve" text-anchor="middle" x="553.25" y="-367.25" font-family="Helvetica,sans-Serif" font-size="10.00">token_to_float</text>
</a>
</g>
</g>
<!-- Node39&#45;&gt;Node36 -->
<g id="edge20_Node000039_Node000036" class="edge">
<title>Node39&#45;&gt;Node36</title>
<g id="a_edge20_Node000039_Node000036"><a xlink:title=" ">
<path fill="none" stroke="#63b8ff" d="M416.89,-342.24C442.49,-347.56 473.25,-353.95 498.98,-359.3"/>
<polygon fill="#63b8ff" stroke="#63b8ff" points="498.06,-362.69 508.56,-361.29 499.48,-355.83 498.06,-362.69"/>
</a>
</g>
</g>
<!-- Node26&#45;&gt;Node5 -->
<g id="edge16_Node000026_Node000005" class="edge">
<title>Node26&#45;&gt;Node5</title>
<g id="a_edge16_Node000026_Node000005"><a xlink:title=" ">
<path fill="none" stroke="#63b8ff" d="M624.15,-448.38C646.8,-448.38 671.24,-448.38 691.34,-448.38"/>
<polygon fill="#63b8ff" stroke="#63b8ff" points="691.12,-451.88 701.12,-448.38 691.12,-444.88 691.12,-451.88"/>
</a>
</g>
</g>
<!-- Node28&#45;&gt;Node5 -->
<g id="edge18_Node000028_Node000005" class="edge">
<title>Node28&#45;&gt;Node5</title>
<g id="a_edge18_Node000028_Node000005"><a xlink:title=" ">
<path fill="none" stroke="#63b8ff" d="M604.42,-420.24C631.81,-426.17 665.36,-433.43 691.51,-439.09"/>
<polygon fill="#63b8ff" stroke="#63b8ff" points="690.6,-442.48 701.11,-441.17 692.08,-435.64 690.6,-442.48"/>
</a>
</g>
</g>
<!-- Node41 -->
<g id="Node000041" class="node">
<title>Node41</title>
<g id="a_Node000041"><a xlink:href="kest__bump__arena_8c.html#aa9b5996d0711c6fb7360361b5d93510a" target="_top" xlink:title=" ">
<polygon fill="white" stroke="#666666" points="800.75,-152.75 670,-152.75 670,-132 800.75,-132 800.75,-152.75"/>
<text xml:space="preserve" text-anchor="middle" x="735.38" y="-139.25" font-family="Helvetica,sans-Serif" font-size="10.00">kest_bump_arena_alloc</text>
</a>
</g>
</g>
<!-- Node40&#45;&gt;Node41 -->
<g id="edge22_Node000040_Node000041" class="edge">
<title>Node40&#45;&gt;Node41</title>
<g id="a_edge22_Node000040_Node000041"><a xlink:title=" ">
<path fill="none" stroke="#63b8ff" d="M603.95,-142.38C620.76,-142.38 639.95,-142.38 658.33,-142.38"/>
<polygon fill="#63b8ff" stroke="#63b8ff" points="658.13,-145.88 668.13,-142.38 658.13,-138.88 658.13,-145.88"/>
</a>
</g>
</g>
<!-- Node42&#45;&gt;Node40 -->
<g id="edge25_Node000042_Node000040" class="edge">
<title>Node42&#45;&gt;Node40</title>
<g id="a_edge25_Node000042_Node000040"><a xlink:title=" ">
<path fill="none" stroke="#63b8ff" d="M421.17,-157.74C443.33,-155.15 468.79,-152.16 491.35,-149.52"/>
<polygon fill="#63b8ff" stroke="#63b8ff" points="491.47,-153.03 501,-148.38 490.66,-146.07 491.47,-153.03"/>
</a>
</g>
</g>
</g>
</svg>
