<?xml version="1.0" encoding="UTF-8" standalone="no"?>
<!DOCTYPE svg PUBLIC "-//W3C//DTD SVG 1.1//EN"
 "http://www.w3.org/Graphics/SVG/1.1/DTD/svg11.dtd">
<!-- Generated by graphviz version 13.1.2 (20250808.2320)
 -->
<!-- Title: sw_field_save_cb Pages: 1 -->
<svg width="774pt" height="236pt"
 viewBox="0.00 0.00 774.00 236.00" xmlns="http://www.w3.org/2000/svg" xmlns:xlink="http://www.w3.org/1999/xlink">
<g id="graph0" class="graph" transform="scale(1 1) rotate(0) translate(4 231.75)">
<title>sw_field_save_cb</title>
<!-- Node1 -->
<g id="Node000001" class="node">
<title>Node1</title>
<g id="a_Node000001"><a xlink:title=" ">
<polygon fill="#999999" stroke="#666666" points="101.5,-126.75 0,-126.75 0,-106 101.5,-106 101.5,-126.75"/>
<text xml:space="preserve" text-anchor="middle" x="50.75" y="-113.25" font-family="Helvetica,sans-Serif" font-size="10.00">sw_field_save_cb</text>
</a>
</g>
</g>
<!-- Node2 -->
<g id="Node000002" class="node">
<title>Node2</title>
<g id="a_Node000002"><a xlink:href="kest__context_8c.html#a8a0da058a66a81e046c9dbe0394cb1b8" target="_top" xlink:title=" ">
<polygon fill="white" stroke="#666666" points="257.75,-227.75 137.5,-227.75 137.5,-207 257.75,-207 257.75,-227.75"/>
<text xml:space="preserve" text-anchor="middle" x="197.62" y="-214.25" font-family="Helvetica,sans-Serif" font-size="10.00">cxt_get_profile_by_id</text>
</a>
</g>
</g>
<!-- Node1&#45;&gt;Node2 -->
<g id="edge1_Node000001_Node000002" class="edge">
<title>Node1&#45;&gt;Node2</title>
<g id="a_edge1_Node000001_Node000002"><a xlink:title=" ">
<path fill="none" stroke="#63b8ff" d="M60.39,-127.1C74.71,-144.24 105.04,-177.85 137.5,-197.38 140.29,-199.05 143.23,-200.61 146.26,-202.05"/>
<polygon fill="#63b8ff" stroke="#63b8ff" points="144.8,-205.24 155.37,-205.94 147.55,-198.8 144.8,-205.24"/>
</a>
</g>
</g>
<!-- Node3 -->
<g id="Node000003" class="node">
<title>Node3</title>
<g id="a_Node000003"><a xlink:href="kest__ui_8c.html#a449db99602c8ef93fb805362fec7fb1d" target="_top" xlink:title=" ">
<polygon fill="white" stroke="#666666" points="241.25,-188.75 154,-188.75 154,-168 241.25,-168 241.25,-188.75"/>
<text xml:space="preserve" text-anchor="middle" x="197.62" y="-175.25" font-family="Helvetica,sans-Serif" font-size="10.00">hide_keyboard</text>
</a>
</g>
</g>
<!-- Node1&#45;&gt;Node3 -->
<g id="edge2_Node000001_Node000003" class="edge">
<title>Node1&#45;&gt;Node3</title>
<g id="a_edge2_Node000001_Node000003"><a xlink:title=" ">
<path fill="none" stroke="#63b8ff" d="M71.86,-127.14C89.02,-136.11 114.51,-148.9 137.5,-158.38 142.08,-160.26 146.9,-162.11 151.74,-163.88"/>
<polygon fill="#63b8ff" stroke="#63b8ff" points="150.25,-167.06 160.84,-167.09 152.57,-160.46 150.25,-167.06"/>
</a>
</g>
</g>
<!-- Node4 -->
<g id="Node000004" class="node">
<title>Node4</title>
<g id="a_Node000004"><a xlink:href="kest__alloc_8c.html#a294af5728a94aa316fcf65304d388d48" target="_top" xlink:title=" ">
<polygon fill="white" stroke="#666666" points="228.12,-149.75 167.12,-149.75 167.12,-129 228.12,-129 228.12,-149.75"/>
<text xml:space="preserve" text-anchor="middle" x="197.62" y="-136.25" font-family="Helvetica,sans-Serif" font-size="10.00">kest_free</text>
</a>
</g>
</g>
<!-- Node1&#45;&gt;Node4 -->
<g id="edge3_Node000001_Node000004" class="edge">
<title>Node1&#45;&gt;Node4</title>
<g id="a_edge3_Node000001_Node000004"><a xlink:title=" ">
<path fill="none" stroke="#63b8ff" d="M101.61,-124.29C119.3,-127.1 138.98,-130.22 155.83,-132.9"/>
<polygon fill="#63b8ff" stroke="#63b8ff" points="155.06,-136.32 165.48,-134.43 156.15,-129.41 155.06,-136.32"/>
</a>
</g>
</g>
<!-- Node5 -->
<g id="Node000005" class="node">
<title>Node5</title>
<g id="a_Node000005"><a xlink:href="kest__profile_8c.html#a1943b8bd24ec344d5f80fcb7fb4ca297" target="_top" xlink:title=" ">
<polygon fill="white" stroke="#666666" points="257.75,-111.12 137.5,-111.12 137.5,-77.62 257.75,-77.62 257.75,-111.12"/>
<text xml:space="preserve" text-anchor="start" x="145.5" y="-97.62" font-family="Helvetica,sans-Serif" font-size="10.00">kest_profile_if_active</text>
<text xml:space="preserve" text-anchor="middle" x="197.62" y="-84.88" font-family="Helvetica,sans-Serif" font-size="10.00">_update_fpga</text>
</a>
</g>
</g>
<!-- Node1&#45;&gt;Node5 -->
<g id="edge4_Node000001_Node000005" class="edge">
<title>Node1&#45;&gt;Node5</title>
<g id="a_edge4_Node000001_Node000005"><a xlink:title=" ">
<path fill="none" stroke="#63b8ff" d="M101.61,-108.8C109.49,-107.61 117.76,-106.35 126,-105.1"/>
<polygon fill="#63b8ff" stroke="#63b8ff" points="126.33,-108.59 135.69,-103.63 125.27,-101.67 126.33,-108.59"/>
</a>
</g>
</g>
<!-- Node38 -->
<g id="Node000038" class="node">
<title>Node38</title>
<g id="a_Node000038"><a xlink:href="kest__alloc_8c.html#aed9ede1276c1ab3b4042c264ce64a3d2" target="_top" xlink:title=" ">
<polygon fill="white" stroke="#666666" points="236.75,-59.75 158.5,-59.75 158.5,-39 236.75,-39 236.75,-59.75"/>
<text xml:space="preserve" text-anchor="middle" x="197.62" y="-46.25" font-family="Helvetica,sans-Serif" font-size="10.00">kest_strndup</text>
</a>
</g>
</g>
<!-- Node1&#45;&gt;Node38 -->
<g id="edge10_Node000001_Node000038" class="edge">
<title>Node1&#45;&gt;Node38</title>
<g id="a_edge10_Node000001_Node000038"><a xlink:title=" ">
<path fill="none" stroke="#63b8ff" d="M68.64,-105.59C85.57,-95.1 112.63,-79.2 137.5,-68.38 141.02,-66.84 144.7,-65.37 148.43,-63.97"/>
<polygon fill="#63b8ff" stroke="#63b8ff" points="149.31,-67.37 157.56,-60.73 146.97,-60.78 149.31,-67.37"/>
</a>
</g>
</g>
<!-- Node39 -->
<g id="Node000039" class="node">
<title>Node39</title>
<g id="a_Node000039"><a xlink:href="kest__parameter__widget_8c.html#a24b55362ed912007f19d66a3e9784e3a" target="_top" xlink:title=" ">
<polygon fill="white" stroke="#666666" points="242.38,-20.75 152.88,-20.75 152.88,0 242.38,0 242.38,-20.75"/>
<text xml:space="preserve" text-anchor="middle" x="197.62" y="-7.25" font-family="Helvetica,sans-Serif" font-size="10.00">sw_field_reject</text>
</a>
</g>
</g>
<!-- Node1&#45;&gt;Node39 -->
<g id="edge12_Node000001_Node000039" class="edge">
<title>Node1&#45;&gt;Node39</title>
<g id="a_edge12_Node000001_Node000039"><a xlink:title=" ">
<path fill="none" stroke="#63b8ff" d="M59.78,-105.54C73.7,-87.49 104.02,-51.2 137.5,-30.38 140.22,-28.68 143.09,-27.12 146.06,-25.67"/>
<polygon fill="#63b8ff" stroke="#63b8ff" points="147.2,-28.99 154.98,-21.79 144.41,-22.57 147.2,-28.99"/>
</a>
</g>
</g>
<!-- Node6 -->
<g id="Node000006" class="node">
<title>Node6</title>
<g id="a_Node000006"><a xlink:href="kest__profile_8c.html#a23cd63c025729fe28dbd76f64ce43f0d" target="_top" xlink:title=" ">
<polygon fill="white" stroke="#666666" points="440.25,-104.75 293.75,-104.75 293.75,-84 440.25,-84 440.25,-104.75"/>
<text xml:space="preserve" text-anchor="middle" x="367" y="-91.25" font-family="Helvetica,sans-Serif" font-size="10.00">kest_profile_program_fpga</text>
</a>
</g>
</g>
<!-- Node5&#45;&gt;Node6 -->
<g id="edge5_Node000005_Node000006" class="edge">
<title>Node5&#45;&gt;Node6</title>
<g id="a_edge5_Node000005_Node000006"><a xlink:title=" ">
<path fill="none" stroke="#63b8ff" d="M258.11,-94.38C265.9,-94.38 274,-94.38 282.1,-94.38"/>
<polygon fill="#63b8ff" stroke="#63b8ff" points="282.01,-97.88 292.01,-94.38 282,-90.88 282.01,-97.88"/>
</a>
</g>
</g>
<!-- Node7 -->
<g id="Node000007" class="node">
<title>Node7</title>
<g id="a_Node000007"><a xlink:href="kest__error__codes_8c.html#a0f4c77127bc0b77264a21104979c576a" target="_top" xlink:title=" ">
<polygon fill="white" stroke="#666666" points="765.5,-107.12 657.25,-107.12 657.25,-73.62 765.5,-73.62 765.5,-107.12"/>
<text xml:space="preserve" text-anchor="start" x="665.25" y="-93.62" font-family="Helvetica,sans-Serif" font-size="10.00">kest_error_code_to</text>
<text xml:space="preserve" text-anchor="middle" x="711.38" y="-80.88" font-family="Helvetica,sans-Serif" font-size="10.00">_string</text>
</a>
</g>
</g>
<!-- Node6&#45;&gt;Node7 -->
<g id="edge6_Node000006_Node000007" class="edge">
<title>Node6&#45;&gt;Node7</title>
<g id="a_edge6_Node000006_Node000007"><a xlink:title=" ">
<path fill="none" stroke="#63b8ff" d="M403.7,-105.19C424.62,-110.97 451.68,-117.47 476.25,-120.38 540.25,-127.95 557.65,-130.79 621.25,-120.38 633.34,-118.4 646,-115 657.85,-111.19"/>
<polygon fill="#63b8ff" stroke="#63b8ff" points="658.69,-114.6 667.04,-108.08 656.45,-107.97 658.69,-114.6"/>
</a>
</g>
</g>
<!-- Node8 -->
<g id="Node000008" class="node">
<title>Node8</title>
<g id="a_Node000008"><a xlink:href="kest__fpga__comms_8c.html#aa3f94ee1fcafa0fcdc27ce70021c0f8b" target="_top" xlink:title=" ">
<polygon fill="white" stroke="#666666" points="621.25,-111.12 476.25,-111.12 476.25,-77.62 621.25,-77.62 621.25,-111.12"/>
<text xml:space="preserve" text-anchor="start" x="484.25" y="-97.62" font-family="Helvetica,sans-Serif" font-size="10.00">kest_fpga_queue_program</text>
<text xml:space="preserve" text-anchor="middle" x="548.75" y="-84.88" font-family="Helvetica,sans-Serif" font-size="10.00">_batch</text>
</a>
</g>
</g>
<!-- Node6&#45;&gt;Node8 -->
<g id="edge7_Node000006_Node000008" class="edge">
<title>Node6&#45;&gt;Node8</title>
<g id="a_edge7_Node000006_Node000008"><a xlink:title=" ">
<path fill="none" stroke="#63b8ff" d="M440.59,-94.38C448.38,-94.38 456.35,-94.38 464.26,-94.38"/>
<polygon fill="#63b8ff" stroke="#63b8ff" points="464.25,-97.88 474.25,-94.38 464.25,-90.88 464.25,-97.88"/>
</a>
</g>
</g>
<!-- Node9 -->
<g id="Node000009" class="node">
<title>Node9</title>
<g id="a_Node000009"><a xlink:href="kest__pipeline_8c.html#a7bb8f92d379766cce5cdc4b68d11818f" target="_top" xlink:title=" ">
<polygon fill="#fff0f0" stroke="red" points="608.12,-59.12 489.38,-59.12 489.38,-25.62 608.12,-25.62 608.12,-59.12"/>
<text xml:space="preserve" text-anchor="start" x="497.38" y="-45.62" font-family="Helvetica,sans-Serif" font-size="10.00">kest_pipeline_create</text>
<text xml:space="preserve" text-anchor="middle" x="548.75" y="-32.88" font-family="Helvetica,sans-Serif" font-size="10.00">_fpga_transfer_batch</text>
</a>
</g>
</g>
<!-- Node6&#45;&gt;Node9 -->
<g id="edge8_Node000006_Node000009" class="edge">
<title>Node6&#45;&gt;Node9</title>
<g id="a_edge8_Node000006_Node000009"><a xlink:title=" ">
<path fill="none" stroke="#63b8ff" d="M405.24,-83.6C426.29,-77.51 453.29,-69.7 478.12,-62.52"/>
<polygon fill="#63b8ff" stroke="#63b8ff" points="478.88,-65.94 487.52,-59.8 476.94,-59.22 478.88,-65.94"/>
</a>
</g>
</g>
<!-- Node9&#45;&gt;Node7 -->
<g id="edge9_Node000009_Node000007" class="edge">
<title>Node9&#45;&gt;Node7</title>
<g id="a_edge9_Node000009_Node000007"><a xlink:title=" ">
<path fill="none" stroke="#63b8ff" d="M607.29,-59.57C619.94,-63.35 633.43,-67.38 646.32,-71.23"/>
<polygon fill="#63b8ff" stroke="#63b8ff" points="644.96,-74.48 655.54,-73.99 646.96,-67.77 644.96,-74.48"/>
</a>
</g>
</g>
<!-- Node13 -->
<g id="Node000013" class="node">
<title>Node13</title>
<g id="a_Node000013"><a xlink:href="kest__alloc_8c.html#a849755c5dc5b35e712ffcdb602e50fb4" target="_top" xlink:title=" ">
<polygon fill="white" stroke="#666666" points="399.38,-59.75 334.62,-59.75 334.62,-39 399.38,-39 399.38,-59.75"/>
<text xml:space="preserve" text-anchor="middle" x="367" y="-46.25" font-family="Helvetica,sans-Serif" font-size="10.00">kest_alloc</text>
</a>
</g>
</g>
<!-- Node38&#45;&gt;Node13 -->
<g id="edge11_Node000038_Node000013" class="edge">
<title>Node38&#45;&gt;Node13</title>
<g id="a_edge11_Node000038_Node000013"><a xlink:title=" ">
<path fill="none" stroke="#63b8ff" d="M237.02,-49.38C262.67,-49.38 296.43,-49.38 322.97,-49.38"/>
<polygon fill="#63b8ff" stroke="#63b8ff" points="322.72,-52.88 332.72,-49.38 322.72,-45.88 322.72,-52.88"/>
</a>
</g>
</g>
</g>
</svg>
