<?xml version="1.0" encoding="UTF-8" standalone="no"?>
<!DOCTYPE svg PUBLIC "-//W3C//DTD SVG 1.1//EN"
 "http://www.w3.org/Graphics/SVG/1.1/DTD/svg11.dtd">
<!-- Generated by graphviz version 13.1.2 (20250808.2320)
 -->
<!-- Title: char_is_number Pages: 1 -->
<svg width="744pt" height="155pt"
 viewBox="0.00 0.00 744.00 155.00" xmlns="http://www.w3.org/2000/svg" xmlns:xlink="http://www.w3.org/1999/xlink">
<g id="graph0" class="graph" transform="scale(1 1) rotate(0) translate(4 151.12)">
<title>char_is_number</title>
<!-- Node1 -->
<g id="Node000001" class="node">
<title>Node1</title>
<g id="a_Node000001"><a xlink:title=" ">
<polygon fill="#999999" stroke="#666666" points="736.25,-109.12 643,-109.12 643,-88.38 736.25,-88.38 736.25,-109.12"/>
<text xml:space="preserve" text-anchor="middle" x="689.62" y="-95.62" font-family="Helvetica,sans-Serif" font-size="10.00">char_is_number</text>
</a>
</g>
</g>
<!-- Node2 -->
<g id="Node000002" class="node">
<title>Node2</title>
<g id="a_Node000002"><a xlink:href="kest__tokenizer_8c.html#a9bdbd5c492f459bc081a49ec4932e2ab" target="_top" xlink:title=" ">
<polygon fill="white" stroke="#666666" points="607,-147.12 484.5,-147.12 484.5,-126.38 607,-126.38 607,-147.12"/>
<text xml:space="preserve" text-anchor="middle" x="545.75" y="-133.62" font-family="Helvetica,sans-Serif" font-size="10.00">char_is_alphanumeric</text>
</a>
</g>
</g>
<!-- Node1&#45;&gt;Node2 -->
<g id="edge1_Node000001_Node000002" class="edge">
<title>Node1&#45;&gt;Node2</title>
<g id="a_edge1_Node000001_Node000002"><a xlink:title=" ">
<path fill="none" stroke="#63b8ff" d="M637.7,-112.39C621.08,-116.84 602.86,-121.72 587.13,-125.94"/>
<polygon fill="#63b8ff" stroke="#63b8ff" points="638.13,-115.9 646.89,-109.93 636.32,-109.14 638.13,-115.9"/>
</a>
</g>
</g>
<!-- Node3 -->
<g id="Node000003" class="node">
<title>Node3</title>
<g id="a_Node000003"><a xlink:href="kest__tokenizer_8c.html#ac05ce1dc9f6b52a7427a40caaa5cd67d" target="_top" xlink:title=" ">
<polygon fill="white" stroke="#666666" points="432.75,-128.12 337.25,-128.12 337.25,-107.38 432.75,-107.38 432.75,-128.12"/>
<text xml:space="preserve" text-anchor="middle" x="385" y="-114.62" font-family="Helvetica,sans-Serif" font-size="10.00">tokenizer_policy</text>
</a>
</g>
</g>
<!-- Node1&#45;&gt;Node3 -->
<g id="edge13_Node000001_Node000003" class="edge">
<title>Node1&#45;&gt;Node3</title>
<g id="a_edge13_Node000001_Node000003"><a xlink:title=" ">
<path fill="none" stroke="#63b8ff" d="M631.25,-102.35C573.85,-105.96 486.63,-111.43 433.14,-114.79"/>
<polygon fill="#63b8ff" stroke="#63b8ff" points="631.39,-105.85 641.15,-101.73 630.95,-98.86 631.39,-105.85"/>
</a>
</g>
</g>
<!-- Node10 -->
<g id="Node000010" class="node">
<title>Node10</title>
<g id="a_Node000010"><a xlink:href="kest__tokenizer_8c.html#a713c477a645ef8a6abfd4cb4e257b53c" target="_top" xlink:title=" ">
<polygon fill="white" stroke="#666666" points="590.5,-71.12 501,-71.12 501,-50.38 590.5,-50.38 590.5,-71.12"/>
<text xml:space="preserve" text-anchor="middle" x="545.75" y="-57.62" font-family="Helvetica,sans-Serif" font-size="10.00">token_is_name</text>
</a>
</g>
</g>
<!-- Node1&#45;&gt;Node10 -->
<g id="edge4_Node000001_Node000010" class="edge">
<title>Node1&#45;&gt;Node10</title>
<g id="a_edge4_Node000001_Node000010"><a xlink:title=" ">
<path fill="none" stroke="#63b8ff" d="M637.7,-85.11C621.08,-80.66 602.86,-75.78 587.13,-71.56"/>
<polygon fill="#63b8ff" stroke="#63b8ff" points="636.32,-88.36 646.89,-87.57 638.13,-81.6 636.32,-88.36"/>
</a>
</g>
</g>
<!-- Node2&#45;&gt;Node3 -->
<g id="edge2_Node000002_Node000003" class="edge">
<title>Node2&#45;&gt;Node3</title>
<g id="a_edge2_Node000002_Node000003"><a xlink:title=" ">
<path fill="none" stroke="#63b8ff" d="M472.98,-128.16C459.41,-126.54 445.54,-124.88 432.97,-123.37"/>
<polygon fill="#63b8ff" stroke="#63b8ff" points="472.43,-131.62 482.78,-129.33 473.26,-124.67 472.43,-131.62"/>
</a>
</g>
</g>
<!-- Node4 -->
<g id="Node000004" class="node">
<title>Node4</title>
<g id="a_Node000004"><a xlink:href="kest__tokenizer_8c.html#abfb9dd70524b2bf471b98caa15f1d764" target="_top" xlink:title=" ">
<polygon fill="#fff0f0" stroke="red" points="284.38,-128.12 159.62,-128.12 159.62,-107.38 284.38,-107.38 284.38,-128.12"/>
<text xml:space="preserve" text-anchor="middle" x="222" y="-114.62" font-family="Helvetica,sans-Serif" font-size="10.00">kest_tokenize_content</text>
</a>
</g>
</g>
<!-- Node3&#45;&gt;Node4 -->
<g id="edge3_Node000003_Node000004" class="edge">
<title>Node3&#45;&gt;Node4</title>
<g id="a_edge3_Node000003_Node000004"><a xlink:title=" ">
<path fill="none" stroke="#63b8ff" d="M325.59,-117.75C312.31,-117.75 298.16,-117.75 284.74,-117.75"/>
<polygon fill="#63b8ff" stroke="#63b8ff" points="325.49,-121.25 335.49,-117.75 325.49,-114.25 325.49,-121.25"/>
</a>
</g>
</g>
<!-- Node11 -->
<g id="Node000011" class="node">
<title>Node11</title>
<g id="a_Node000011"><a xlink:href="kest__dictionary_8c.html#aae3fbdeba250be8f6dd3dfa686eb24a8" target="_top" xlink:title=" ">
<polygon fill="white" stroke="#666666" points="283.25,-83.12 160.75,-83.12 160.75,-62.38 283.25,-62.38 283.25,-83.12"/>
<text xml:space="preserve" text-anchor="middle" x="222" y="-69.62" font-family="Helvetica,sans-Serif" font-size="10.00">kest_parse_dictionary</text>
</a>
</g>
</g>
<!-- Node10&#45;&gt;Node11 -->
<g id="edge5_Node000010_Node000011" class="edge">
<title>Node10&#45;&gt;Node11</title>
<g id="a_edge5_Node000010_Node000011"><a xlink:title=" ">
<path fill="none" stroke="#63b8ff" d="M489.31,-62.82C431.96,-64.96 342.67,-68.29 283.52,-70.49"/>
<polygon fill="#63b8ff" stroke="#63b8ff" points="489.31,-66.32 499.17,-62.45 489.05,-59.33 489.31,-66.32"/>
</a>
</g>
</g>
<!-- Node16 -->
<g id="Node000016" class="node">
<title>Node16</title>
<g id="a_Node000016"><a xlink:href="kest__expr__parser_8c.html#adf0188b23902aff2ddacb388e811412e" target="_top" xlink:title=" ">
<polygon fill="white" stroke="#666666" points="448.5,-33.5 321.5,-33.5 321.5,0 448.5,0 448.5,-33.5"/>
<text xml:space="preserve" text-anchor="start" x="329.5" y="-20" font-family="Helvetica,sans-Serif" font-size="10.00">kest_parse_expression</text>
<text xml:space="preserve" text-anchor="middle" x="385" y="-7.25" font-family="Helvetica,sans-Serif" font-size="10.00">_rec_pratt</text>
</a>
</g>
</g>
<!-- Node10&#45;&gt;Node16 -->
<g id="edge9_Node000010_Node000016" class="edge">
<title>Node10&#45;&gt;Node16</title>
<g id="a_edge9_Node000010_Node000016"><a xlink:title=" ">
<path fill="none" stroke="#63b8ff" d="M494.89,-46.93C480,-42.8 463.5,-38.23 447.94,-33.92"/>
<polygon fill="#63b8ff" stroke="#63b8ff" points="493.89,-50.28 504.46,-49.58 495.75,-43.54 493.89,-50.28"/>
</a>
</g>
</g>
<!-- Node12 -->
<g id="Node000012" class="node">
<title>Node12</title>
<g id="a_Node000012"><a xlink:href="kest__dictionary_8c.html#af0aceaa93cba06fd44ad4bc50f2418e4" target="_top" xlink:title=" ">
<polygon fill="#fff0f0" stroke="red" points="117.25,-52.12 5.25,-52.12 5.25,-31.38 117.25,-31.38 117.25,-52.12"/>
<text xml:space="preserve" text-anchor="middle" x="61.25" y="-38.62" font-family="Helvetica,sans-Serif" font-size="10.00">kest_parse_dict_val</text>
</a>
</g>
</g>
<!-- Node11&#45;&gt;Node12 -->
<g id="edge6_Node000011_Node000012" class="edge">
<title>Node11&#45;&gt;Node12</title>
<g id="a_edge6_Node000011_Node000012"><a xlink:title=" ">
<path fill="none" stroke="#63b8ff" d="M181.52,-59.11C162.24,-54.48 138.73,-49.71 117.68,-46.11"/>
<polygon fill="#63b8ff" stroke="#63b8ff" points="180.6,-62.49 191.15,-61.52 182.3,-55.7 180.6,-62.49"/>
</a>
</g>
</g>
<!-- Node14 -->
<g id="Node000014" class="node">
<title>Node14</title>
<g id="a_Node000014"><a xlink:href="kest__eff__section_8c.html#a4de28fb64398c9194136a2ced71e2795" target="_top" xlink:title=" ">
<polygon fill="#fff0f0" stroke="red" points="122.5,-103.5 0,-103.5 0,-70 122.5,-70 122.5,-103.5"/>
<text xml:space="preserve" text-anchor="start" x="8" y="-90" font-family="Helvetica,sans-Serif" font-size="10.00">kest_parse_dictionary</text>
<text xml:space="preserve" text-anchor="middle" x="61.25" y="-77.25" font-family="Helvetica,sans-Serif" font-size="10.00">_section</text>
</a>
</g>
</g>
<!-- Node11&#45;&gt;Node14 -->
<g id="edge8_Node000011_Node000014" class="edge">
<title>Node11&#45;&gt;Node14</title>
<g id="a_edge8_Node000011_Node000014"><a xlink:title=" ">
<path fill="none" stroke="#63b8ff" d="M149.09,-79.09C140.31,-79.87 131.41,-80.65 122.81,-81.41"/>
<polygon fill="#63b8ff" stroke="#63b8ff" points="149.37,-82.58 159.02,-78.22 148.75,-75.61 149.37,-82.58"/>
</a>
</g>
</g>
<!-- Node12&#45;&gt;Node11 -->
<g id="edge7_Node000012_Node000011" class="edge">
<title>Node12&#45;&gt;Node11</title>
<g id="a_edge7_Node000012_Node000011"><a xlink:title=" ">
<path fill="none" stroke="#63b8ff" d="M101.74,-55.39C119.49,-59.66 140.84,-64.04 160.53,-67.52"/>
<polygon fill="#63b8ff" stroke="#63b8ff" points="102.67,-52.01 92.12,-52.98 100.97,-58.8 102.67,-52.01"/>
</a>
</g>
</g>
<!-- Node16&#45;&gt;Node16 -->
<g id="edge12_Node000016_Node000016" class="edge">
<title>Node16&#45;&gt;Node16</title>
<g id="a_edge12_Node000016_Node000016"><a xlink:title=" ">
<path fill="none" stroke="#63b8ff" d="M411.99,-44.89C407.6,-48.85 398.6,-51.5 385,-51.5 360.82,-51.5 351.19,-43.12 356.1,-33.91"/>
<polygon fill="#63b8ff" stroke="#63b8ff" points="415.38,-45.86 413.64,-35.41 408.48,-44.66 415.38,-45.86"/>
</a>
</g>
</g>
<!-- Node17 -->
<g id="Node000017" class="node">
<title>Node17</title>
<g id="a_Node000017"><a xlink:href="kest__expr__parser_8c.html#a7caaee6c8b0c14b3ff08fba98d837ead" target="_top" xlink:title=" ">
<polygon fill="#fff0f0" stroke="red" points="285.5,-33.12 158.5,-33.12 158.5,-12.38 285.5,-12.38 285.5,-33.12"/>
<text xml:space="preserve" text-anchor="middle" x="222" y="-19.62" font-family="Helvetica,sans-Serif" font-size="10.00">kest_parse_expression</text>
</a>
</g>
</g>
<!-- Node16&#45;&gt;Node17 -->
<g id="edge10_Node000016_Node000017" class="edge">
<title>Node16&#45;&gt;Node17</title>
<g id="a_edge10_Node000016_Node000017"><a xlink:title=" ">
<path fill="none" stroke="#63b8ff" d="M309.97,-19.51C301.89,-19.81 293.72,-20.11 285.8,-20.41"/>
<polygon fill="#63b8ff" stroke="#63b8ff" points="309.92,-23.01 319.78,-19.14 309.66,-16.02 309.92,-23.01"/>
</a>
</g>
</g>
<!-- Node17&#45;&gt;Node12 -->
<g id="edge11_Node000017_Node000012" class="edge">
<title>Node17&#45;&gt;Node12</title>
<g id="a_edge11_Node000017_Node000012"><a xlink:title=" ">
<path fill="none" stroke="#63b8ff" d="M147.12,-31.59C137.19,-32.78 127.14,-33.98 117.6,-35.13"/>
<polygon fill="#63b8ff" stroke="#63b8ff" points="147.24,-35.1 156.75,-30.44 146.41,-28.15 147.24,-35.1"/>
</a>
</g>
</g>
</g>
</svg>
