<?xml version="1.0" encoding="UTF-8" standalone="no"?>
<!DOCTYPE svg PUBLIC "-//W3C//DTD SVG 1.1//EN"
 "http://www.w3.org/Graphics/SVG/1.1/DTD/svg11.dtd">
<!-- Generated by graphviz version 13.1.2 (20250808.2320)
 -->
<!-- Title: enter_ui_page_backwards_cb Pages: 1 -->
<svg width="661pt" height="42pt"
 viewBox="0.00 0.00 661.00 42.00" xmlns="http://www.w3.org/2000/svg" xmlns:xlink="http://www.w3.org/1999/xlink">
<g id="graph0" class="graph" transform="scale(1 1) rotate(0) translate(4 37.5)">
<title>enter_ui_page_backwards_cb</title>
<!-- Node1 -->
<g id="Node000001" class="node">
<title>Node1</title>
<g id="a_Node000001"><a xlink:title=" ">
<polygon fill="#999999" stroke="#666666" points="159.25,-27.12 0,-27.12 0,-6.38 159.25,-6.38 159.25,-27.12"/>
<text xml:space="preserve" text-anchor="middle" x="79.62" y="-13.62" font-family="Helvetica,sans-Serif" font-size="10.00">enter_ui_page_backwards_cb</text>
</a>
</g>
</g>
<!-- Node2 -->
<g id="Node000002" class="node">
<title>Node2</title>
<g id="a_Node000002"><a xlink:href="kest__ui_8c.html#a8e18610dded037df6bd96330d349f186" target="_top" xlink:title=" ">
<polygon fill="white" stroke="#666666" points="338,-27.12 195.25,-27.12 195.25,-6.38 338,-6.38 338,-27.12"/>
<text xml:space="preserve" text-anchor="middle" x="266.62" y="-13.62" font-family="Helvetica,sans-Serif" font-size="10.00">enter_ui_page_backwards</text>
</a>
</g>
</g>
<!-- Node1&#45;&gt;Node2 -->
<g id="edge1_Node000001_Node000002" class="edge">
<title>Node1&#45;&gt;Node2</title>
<g id="a_edge1_Node000001_Node000002"><a xlink:title=" ">
<path fill="none" stroke="#63b8ff" d="M159.62,-16.75C167.47,-16.75 175.46,-16.75 183.34,-16.75"/>
<polygon fill="#63b8ff" stroke="#63b8ff" points="183.28,-20.25 193.28,-16.75 183.28,-13.25 183.28,-20.25"/>
</a>
</g>
</g>
<!-- Node3 -->
<g id="Node000003" class="node">
<title>Node3</title>
<g id="a_Node000003"><a xlink:href="kest__context_8c.html#a6292c7a2d7f0502ea5a59bbe9b552791" target="_top" xlink:title=" ">
<polygon fill="white" stroke="#666666" points="494.25,-33.5 374,-33.5 374,0 494.25,0 494.25,-33.5"/>
<text xml:space="preserve" text-anchor="start" x="382" y="-20" font-family="Helvetica,sans-Serif" font-size="10.00">kest_cxt_queue_save</text>
<text xml:space="preserve" text-anchor="middle" x="434.12" y="-7.25" font-family="Helvetica,sans-Serif" font-size="10.00">_state</text>
</a>
</g>
</g>
<!-- Node2&#45;&gt;Node3 -->
<g id="edge2_Node000002_Node000003" class="edge">
<title>Node2&#45;&gt;Node3</title>
<g id="a_edge2_Node000002_Node000003"><a xlink:title=" ">
<path fill="none" stroke="#63b8ff" d="M338.29,-16.75C346.2,-16.75 354.26,-16.75 362.18,-16.75"/>
<polygon fill="#63b8ff" stroke="#63b8ff" points="362.12,-20.25 372.12,-16.75 362.12,-13.25 362.12,-20.25"/>
</a>
</g>
</g>
<!-- Node4 -->
<g id="Node000004" class="node">
<title>Node4</title>
<g id="a_Node000004"><a xlink:href="kest__representation_8c.html#a7a4a0f32b72f47d90e3d0f5932fbe58f" target="_top" xlink:title=" ">
<polygon fill="white" stroke="#666666" points="652.75,-33.5 530.25,-33.5 530.25,0 652.75,0 652.75,-33.5"/>
<text xml:space="preserve" text-anchor="start" x="538.25" y="-20" font-family="Helvetica,sans-Serif" font-size="10.00">queue_representation</text>
<text xml:space="preserve" text-anchor="middle" x="591.5" y="-7.25" font-family="Helvetica,sans-Serif" font-size="10.00">_list_update</text>
</a>
</g>
</g>
<!-- Node3&#45;&gt;Node4 -->
<g id="edge3_Node000003_Node000004" class="edge">
<title>Node3&#45;&gt;Node4</title>
<g id="a_edge3_Node000003_Node000004"><a xlink:title=" ">
<path fill="none" stroke="#63b8ff" d="M494.31,-16.75C502.24,-16.75 510.44,-16.75 518.55,-16.75"/>
<polygon fill="#63b8ff" stroke="#63b8ff" points="518.42,-20.25 528.42,-16.75 518.42,-13.25 518.42,-20.25"/>
</a>
</g>
</g>
</g>
</svg>
