<?xml version="1.0" encoding="UTF-8" standalone="no"?>
<!DOCTYPE svg PUBLIC "-//W3C//DTD SVG 1.1//EN"
 "http://www.w3.org/Graphics/SVG/1.1/DTD/svg11.dtd">
<!-- Generated by graphviz version 13.1.2 (20250808.2320)
 -->
<!-- Title: save_profile Pages: 1 -->
<!--zoomable 318 -->

<svg id="main" version="1.1" xmlns="http://www.w3.org/2000/svg" xmlns:xlink="http://www.w3.org/1999/xlink" xml:space="preserve" onload="init(evt)">

<style type="text/css"><![CDATA[
.node, .edge {opacity: 0.7;}
.node.selected, .edge.selected {opacity: 1;}
.edge:hover path { stroke: red; }
.edge:hover polygon { stroke: red; fill: red; }
]]></style>

<defs>
  <circle id="rim" cx="0" cy="0" r="7"/>
  <circle id="rim2" cx="0" cy="0" r="3.5"/>
  <g id="zoomPlus">
    <use xlink:href="#rim" fill="#404040"><set attributeName="fill" to="#808080" begin="zoomplus.mouseover" end="zoomplus.mouseout"/></use>
    <path d="M-4,0h8M0,-4v8" fill="none" stroke="white" stroke-width="1.5" pointer-events="none"/>
  </g>
  <g id="zoomMin">
    <use xlink:href="#rim" fill="#404040"><set attributeName="fill" to="#808080" begin="zoomminus.mouseover" end="zoomminus.mouseout"/></use>
    <path d="M-4,0h8" fill="none" stroke="white" stroke-width="1.5" pointer-events="none"/>
  </g>
  <g id="arrowUp" transform="translate(30 24)">
    <use xlink:href="#rim"/>
    <path pointer-events="none" fill="none" stroke="white" stroke-width="1.5" d="M0,-3.0v7 M-2.5,-0.5L0,-3.0L2.5,-0.5"/>
  </g>
  <g id="arrowRight" transform="rotate(90) translate(36 -43)">
    <use xlink:href="#rim"/>
    <path pointer-events="none" fill="none" stroke="white" stroke-width="1.5" d="M0,-3.0v7 M-2.5,-0.5L0,-3.0L2.5,-0.5"/>
  </g>
  <g id="arrowDown" transform="rotate(180) translate(-30 -48)">
    <use xlink:href="#rim"/>
    <path pointer-events="none" fill="none" stroke="white" stroke-width="1.5" d="M0,-3.0v7 M-2.5,-0.5L0,-3.0L2.5,-0.5"/>
  </g>
  <g id="arrowLeft" transform="rotate(270) translate(-36 17)">
    <use xlink:href="#rim"/>
    <path pointer-events="none" fill="none" stroke="white" stroke-width="1.5" d="M0,-3.0v7 M-2.5,-0.5L0,-3.0L2.5,-0.5"/>
  </g>
  <g id="resetDef">
    <use xlink:href="#rim2" fill="#404040"><set attributeName="fill" to="#808080" begin="reset.mouseover" end="reset.mouseout"/></use>
  </g>
</defs>
<script type="application/ecmascript">
var viewWidth = 595;
var viewHeight = 318;
var sectionId = 'dynsection-28';
</script>
<script type="application/ecmascript" xlink:href="svg.min.js"/>
<svg id="graph" class="graph">
<g id="viewport">
<title>save_profile</title>
<!-- Node1 -->
<g id="Node000001" class="node">
<title>Node1</title>
<g id="a_Node000001"><a xlink:title=" ">
<polygon fill="#999999" stroke="#666666" points="586.75,-111.12 510.75,-111.12 510.75,-90.38 586.75,-90.38 586.75,-111.12"/>
<text xml:space="preserve" text-anchor="middle" x="548.75" y="-97.62" font-family="Helvetica,sans-Serif" font-size="10.00">save_profile</text>
</a>
</g>
</g>
<!-- Node2 -->
<g id="Node000002" class="node">
<title>Node2</title>
<g id="a_Node000002"><a xlink:href="kest__effect_8c.html#abd8eb2f7c5fa3c26690cddd429257881" target="_top" xlink:title=" ">
<polygon fill="white" stroke="#666666" points="463.88,-245.5 357.12,-245.5 357.12,-212 463.88,-212 463.88,-245.5"/>
<text xml:space="preserve" text-anchor="start" x="365.12" y="-232" font-family="Helvetica,sans-Serif" font-size="10.00">kest_effect_profile</text>
<text xml:space="preserve" text-anchor="middle" x="410.5" y="-219.25" font-family="Helvetica,sans-Serif" font-size="10.00">_rep_update</text>
</a>
</g>
</g>
<!-- Node1&#45;&gt;Node2 -->
<g id="edge1_Node000001_Node000002" class="edge">
<title>Node1&#45;&gt;Node2</title>
<g id="a_edge1_Node000001_Node000002"><a xlink:title=" ">
<path fill="none" stroke="#63b8ff" d="M529.17,-119.2C514.53,-133.65 493.52,-154.17 474.75,-171.75 460.18,-185.39 443.39,-200.49 430.77,-211.73"/>
<polygon fill="#63b8ff" stroke="#63b8ff" points="531.27,-122.05 535.91,-112.53 526.34,-117.07 531.27,-122.05"/>
</a>
</g>
</g>
<!-- Node20 -->
<g id="Node000020" class="node">
<title>Node20</title>
<g id="a_Node000020"><a xlink:href="kest__profile_8c.html#a291f067c2dd357a9bbe0a3bd156013a3" target="_top" xlink:title=" ">
<polygon fill="white" stroke="#666666" points="468,-162.5 353,-162.5 353,-129 468,-129 468,-162.5"/>
<text xml:space="preserve" text-anchor="start" x="361" y="-149" font-family="Helvetica,sans-Serif" font-size="10.00">kest_profile_file_rep</text>
<text xml:space="preserve" text-anchor="middle" x="410.5" y="-136.25" font-family="Helvetica,sans-Serif" font-size="10.00">_update</text>
</a>
</g>
</g>
<!-- Node1&#45;&gt;Node20 -->
<g id="edge6_Node000001_Node000020" class="edge">
<title>Node1&#45;&gt;Node20</title>
<g id="a_edge6_Node000001_Node000020"><a xlink:title=" ">
<path fill="none" stroke="#63b8ff" d="M504.56,-115.02C491.53,-119.32 477.09,-124.09 463.55,-128.56"/>
<polygon fill="#63b8ff" stroke="#63b8ff" points="505.28,-118.46 513.68,-112 503.08,-111.82 505.28,-118.46"/>
</a>
</g>
</g>
<!-- Node25 -->
<g id="Node000025" class="node">
<title>Node25</title>
<g id="a_Node000025"><a xlink:href="kest__profile_8c.html#a683c1e3c748f22e8a573d3a767fbd3e3" target="_top" xlink:title=" ">
<polygon fill="white" stroke="#666666" points="461.25,-111.12 359.75,-111.12 359.75,-90.38 461.25,-90.38 461.25,-111.12"/>
<text xml:space="preserve" text-anchor="middle" x="410.5" y="-97.62" font-family="Helvetica,sans-Serif" font-size="10.00">kest_profile_save</text>
</a>
</g>
</g>
<!-- Node1&#45;&gt;Node25 -->
<g id="edge11_Node000001_Node000025" class="edge">
<title>Node1&#45;&gt;Node25</title>
<g id="a_edge11_Node000001_Node000025"><a xlink:title=" ">
<path fill="none" stroke="#63b8ff" d="M499.19,-100.75C487.03,-100.75 473.96,-100.75 461.71,-100.75"/>
<polygon fill="#63b8ff" stroke="#63b8ff" points="499.01,-104.25 509.01,-100.75 499.01,-97.25 499.01,-104.25"/>
</a>
</g>
</g>
<!-- Node41 -->
<g id="Node000041" class="node">
<title>Node41</title>
<g id="a_Node000041"><a xlink:href="kest__profile__settings_8c.html#a7d269d1811d33f56b80a170b969cb6fb" target="_top" xlink:title=" ">
<polygon fill="white" stroke="#666666" points="470.62,-72.5 350.38,-72.5 350.38,-39 470.62,-39 470.62,-72.5"/>
<text xml:space="preserve" text-anchor="start" x="358.38" y="-59" font-family="Helvetica,sans-Serif" font-size="10.00">profile_settings_save</text>
<text xml:space="preserve" text-anchor="middle" x="410.5" y="-46.25" font-family="Helvetica,sans-Serif" font-size="10.00">_button_cb</text>
</a>
</g>
</g>
<!-- Node1&#45;&gt;Node41 -->
<g id="edge14_Node000001_Node000041" class="edge">
<title>Node1&#45;&gt;Node41</title>
<g id="a_edge14_Node000001_Node000041"><a xlink:title=" ">
<path fill="none" stroke="#63b8ff" d="M504.56,-86.48C491.53,-82.18 477.09,-77.41 463.55,-72.94"/>
<polygon fill="#63b8ff" stroke="#63b8ff" points="503.08,-89.68 513.68,-89.5 505.28,-83.04 503.08,-89.68"/>
</a>
</g>
</g>
<!-- Node42 -->
<g id="Node000042" class="node">
<title>Node42</title>
<g id="a_Node000042"><a xlink:href="kest__files_8c.html#a00c64a8e626a8a982c9a7ced88c5f90d" target="_top" xlink:title=" ">
<polygon fill="white" stroke="#666666" points="474.75,-21.12 346.25,-21.12 346.25,-0.38 474.75,-0.38 474.75,-21.12"/>
<text xml:space="preserve" text-anchor="middle" x="410.5" y="-7.62" font-family="Helvetica,sans-Serif" font-size="10.00">save_sequence_as_file</text>
</a>
</g>
</g>
<!-- Node1&#45;&gt;Node42 -->
<g id="edge15_Node000001_Node000042" class="edge">
<title>Node1&#45;&gt;Node42</title>
<g id="a_edge15_Node000001_Node000042"><a xlink:title=" ">
<path fill="none" stroke="#63b8ff" d="M532.45,-81.38C518.87,-65.4 497.68,-43.24 474.75,-29.75 469.31,-26.55 463.29,-23.85 457.19,-21.58"/>
<polygon fill="#63b8ff" stroke="#63b8ff" points="529.5,-83.3 538.56,-88.79 534.9,-78.85 529.5,-83.3"/>
</a>
</g>
</g>
<!-- Node3 -->
<g id="Node000003" class="node">
<title>Node3</title>
<g id="a_Node000003"><a xlink:href="kest__effect_8c.html#a6d9927f6d82c964bd07bef5c77879010" target="_top" xlink:title=" ">
<polygon fill="white" stroke="#666666" points="283.62,-251.12 218.12,-251.12 218.12,-230.38 283.62,-230.38 283.62,-251.12"/>
<text xml:space="preserve" text-anchor="middle" x="250.88" y="-237.62" font-family="Helvetica,sans-Serif" font-size="10.00">init_effect</text>
</a>
</g>
</g>
<!-- Node2&#45;&gt;Node3 -->
<g id="edge2_Node000002_Node000003" class="edge">
<title>Node2&#45;&gt;Node3</title>
<g id="a_edge2_Node000002_Node000003"><a xlink:title=" ">
<path fill="none" stroke="#63b8ff" d="M345.74,-233.6C324.49,-235.22 301.72,-236.96 283.93,-238.31"/>
<polygon fill="#63b8ff" stroke="#63b8ff" points="345.8,-237.11 355.5,-232.86 345.27,-230.13 345.8,-237.11"/>
</a>
</g>
</g>
<!-- Node4 -->
<g id="Node000004" class="node">
<title>Node4</title>
<g id="a_Node000004"><a xlink:href="kest__effect_8c.html#a935977843051ad81db1a153f2956658e" target="_top" xlink:title=" ">
<polygon fill="#fff0f0" stroke="red" points="115.75,-310.12 39.75,-310.12 39.75,-289.38 115.75,-289.38 115.75,-310.12"/>
<text xml:space="preserve" text-anchor="middle" x="77.75" y="-296.62" font-family="Helvetica,sans-Serif" font-size="10.00">clone_effect</text>
</a>
</g>
</g>
<!-- Node3&#45;&gt;Node4 -->
<g id="edge3_Node000003_Node000004" class="edge">
<title>Node3&#45;&gt;Node4</title>
<g id="a_edge3_Node000003_Node000004"><a xlink:title=" ">
<path fill="none" stroke="#63b8ff" d="M215.75,-256.18C198,-263.86 175.82,-272.94 155.5,-279.75 142.84,-283.99 128.75,-287.89 116.14,-291.1"/>
<polygon fill="#63b8ff" stroke="#63b8ff" points="217.03,-259.44 224.78,-252.22 214.22,-253.03 217.03,-259.44"/>
</a>
</g>
</g>
<!-- Node7 -->
<g id="Node000007" class="node">
<title>Node7</title>
<g id="a_Node000007"><a xlink:href="kest__effect_8c.html#a85b25e44e2629962673634f965ffe304" target="_top" xlink:title=" ">
<polygon fill="#fff0f0" stroke="red" points="155.5,-271.12 0,-271.12 0,-250.38 155.5,-250.38 155.5,-271.12"/>
<text xml:space="preserve" text-anchor="middle" x="77.75" y="-257.62" font-family="Helvetica,sans-Serif" font-size="10.00">init_effect_from_effect_desc</text>
</a>
</g>
</g>
<!-- Node3&#45;&gt;Node7 -->
<g id="edge4_Node000003_Node000007" class="edge">
<title>Node3&#45;&gt;Node7</title>
<g id="a_edge4_Node000003_Node000007"><a xlink:title=" ">
<path fill="none" stroke="#63b8ff" d="M206.44,-245.83C191.05,-247.62 173.25,-249.71 155.9,-251.73"/>
<polygon fill="#63b8ff" stroke="#63b8ff" points="206.66,-249.32 216.18,-244.69 205.85,-242.37 206.66,-249.32"/>
</a>
</g>
</g>
<!-- Node19 -->
<g id="Node000019" class="node">
<title>Node19</title>
<g id="a_Node000019"><a xlink:href="kest__effect__init_8c.html#a2e48b19e5588065e64b5003fe8f25f04" target="_top" xlink:title=" ">
<polygon fill="white" stroke="#666666" points="131.5,-232.12 24,-232.12 24,-211.38 131.5,-211.38 131.5,-232.12"/>
<text xml:space="preserve" text-anchor="middle" x="77.75" y="-218.62" font-family="Helvetica,sans-Serif" font-size="10.00">init_effect_of_type</text>
</a>
</g>
</g>
<!-- Node3&#45;&gt;Node19 -->
<g id="edge5_Node000003_Node000019" class="edge">
<title>Node3&#45;&gt;Node19</title>
<g id="a_edge5_Node000003_Node000019"><a xlink:title=" ">
<path fill="none" stroke="#63b8ff" d="M206.38,-235.92C183.75,-233.41 155.89,-230.32 131.98,-227.66"/>
<polygon fill="#63b8ff" stroke="#63b8ff" points="205.86,-239.38 216.18,-237.01 206.63,-232.43 205.86,-239.38"/>
</a>
</g>
</g>
<!-- Node21 -->
<g id="Node000021" class="node">
<title>Node21</title>
<g id="a_Node000021"><a xlink:href="kest__profile_8c.html#a417513ac62c9729d2ade560580ca6618" target="_top" xlink:title=" ">
<polygon fill="white" stroke="#666666" points="292.62,-155.12 209.12,-155.12 209.12,-134.38 292.62,-134.38 292.62,-155.12"/>
<text xml:space="preserve" text-anchor="middle" x="250.88" y="-141.62" font-family="Helvetica,sans-Serif" font-size="10.00">init_m_profile</text>
</a>
</g>
</g>
<!-- Node20&#45;&gt;Node21 -->
<g id="edge7_Node000020_Node000021" class="edge">
<title>Node20&#45;&gt;Node21</title>
<g id="a_edge7_Node000020_Node000021"><a xlink:title=" ">
<path fill="none" stroke="#63b8ff" d="M341.31,-145.32C324.81,-145.21 307.68,-145.1 292.88,-145.01"/>
<polygon fill="#63b8ff" stroke="#63b8ff" points="341.06,-148.82 351.08,-145.38 341.1,-141.82 341.06,-148.82"/>
</a>
</g>
</g>
<!-- Node22 -->
<g id="Node000022" class="node">
<title>Node22</title>
<g id="a_Node000022"><a xlink:href="kest__context_8c.html#a197c4a2d342fa09268805b00cdcfaff0" target="_top" xlink:title=" ">
<polygon fill="white" stroke="#666666" points="146.88,-193.12 8.62,-193.12 8.62,-172.38 146.88,-172.38 146.88,-193.12"/>
<text xml:space="preserve" text-anchor="middle" x="77.75" y="-179.62" font-family="Helvetica,sans-Serif" font-size="10.00">kest_context_add_profile</text>
</a>
</g>
</g>
<!-- Node21&#45;&gt;Node22 -->
<g id="edge8_Node000021_Node000022" class="edge">
<title>Node21&#45;&gt;Node22</title>
<g id="a_edge8_Node000021_Node000022"><a xlink:title=" ">
<path fill="none" stroke="#63b8ff" d="M197.91,-156.29C175.57,-161.25 149.6,-167.02 127.62,-171.9"/>
<polygon fill="#63b8ff" stroke="#63b8ff" points="198.41,-159.76 207.41,-154.18 196.89,-152.93 198.41,-159.76"/>
</a>
</g>
</g>
<!-- Node23 -->
<g id="Node000023" class="node">
<title>Node23</title>
<g id="a_Node000023"><a xlink:href="kest__context_8c.html#a6940c938261204306d9a9b789bee846f" target="_top" xlink:title=" ">
<polygon fill="#fff0f0" stroke="red" points="154.38,-154.12 1.12,-154.12 1.12,-133.38 154.38,-133.38 154.38,-154.12"/>
<text xml:space="preserve" text-anchor="middle" x="77.75" y="-140.62" font-family="Helvetica,sans-Serif" font-size="10.00">kest_context_add_profile_rp</text>
</a>
</g>
</g>
<!-- Node21&#45;&gt;Node23 -->
<g id="edge9_Node000021_Node000023" class="edge">
<title>Node21&#45;&gt;Node23</title>
<g id="a_edge9_Node000021_Node000023"><a xlink:title=" ">
<path fill="none" stroke="#63b8ff" d="M197.38,-144.44C183.85,-144.36 169.02,-144.28 154.57,-144.19"/>
<polygon fill="#63b8ff" stroke="#63b8ff" points="197.35,-147.94 207.37,-144.5 197.39,-140.94 197.35,-147.94"/>
</a>
</g>
</g>
<!-- Node18 -->
<g id="Node000018" class="node">
<title>Node18</title>
<g id="a_Node000018"><a xlink:href="kest__files_8c.html#a9a8521ad7db2dd3514b6ece8c4d6d787" target="_top" xlink:title=" ">
<polygon fill="#fff0f0" stroke="red" points="134.5,-115.12 21,-115.12 21,-94.38 134.5,-94.38 134.5,-115.12"/>
<text xml:space="preserve" text-anchor="middle" x="77.75" y="-101.62" font-family="Helvetica,sans-Serif" font-size="10.00">load_saved_profiles</text>
</a>
</g>
</g>
<!-- Node21&#45;&gt;Node18 -->
<g id="edge10_Node000021_Node000018" class="edge">
<title>Node21&#45;&gt;Node18</title>
<g id="a_edge10_Node000021_Node000018"><a xlink:title=" ">
<path fill="none" stroke="#63b8ff" d="M197.86,-132.59C174.69,-127.18 147.62,-120.85 125.14,-115.59"/>
<polygon fill="#63b8ff" stroke="#63b8ff" points="196.88,-135.96 207.41,-134.82 198.47,-129.14 196.88,-135.96"/>
</a>
</g>
</g>
<!-- Node26 -->
<g id="Node000026" class="node">
<title>Node26</title>
<g id="a_Node000026"><a xlink:href="kest__context_8c.html#a289cc99b6fb44e0004339528497070f1" target="_top" xlink:title=" ">
<polygon fill="white" stroke="#666666" points="310.25,-93.12 191.5,-93.12 191.5,-72.38 310.25,-72.38 310.25,-93.12"/>
<text xml:space="preserve" text-anchor="middle" x="250.88" y="-79.62" font-family="Helvetica,sans-Serif" font-size="10.00">cxt_save_all_profiles</text>
</a>
</g>
</g>
<!-- Node25&#45;&gt;Node26 -->
<g id="edge12_Node000025_Node000026" class="edge">
<title>Node25&#45;&gt;Node26</title>
<g id="a_edge12_Node000025_Node000026"><a xlink:title=" ">
<path fill="none" stroke="#63b8ff" d="M348.4,-93.77C335.95,-92.35 322.88,-90.86 310.51,-89.45"/>
<polygon fill="#63b8ff" stroke="#63b8ff" points="347.79,-97.23 358.12,-94.88 348.58,-90.27 347.79,-97.23"/>
</a>
</g>
</g>
<!-- Node27 -->
<g id="Node000027" class="node">
<title>Node27</title>
<g id="a_Node000027"><a xlink:href="kest__sequence__view_8c.html#a48d14522bbc105d8b61111d5dc6a7c8f" target="_top" xlink:title=" ">
<polygon fill="#fff0f0" stroke="red" points="116.88,-75.12 38.62,-75.12 38.62,-54.38 116.88,-54.38 116.88,-75.12"/>
<text xml:space="preserve" text-anchor="middle" x="77.75" y="-61.62" font-family="Helvetica,sans-Serif" font-size="10.00">seq_save_cb</text>
</a>
</g>
</g>
<!-- Node26&#45;&gt;Node27 -->
<g id="edge13_Node000026_Node000027" class="edge">
<title>Node26&#45;&gt;Node27</title>
<g id="a_edge13_Node000026_Node000027"><a xlink:title=" ">
<path fill="none" stroke="#63b8ff" d="M180.07,-75.41C158.63,-73.15 135.83,-70.75 117.29,-68.8"/>
<polygon fill="#63b8ff" stroke="#63b8ff" points="179.65,-78.88 189.96,-76.45 180.38,-71.92 179.65,-78.88"/>
</a>
</g>
</g>
<!-- Node43 -->
<g id="Node000043" class="node">
<title>Node43</title>
<g id="a_Node000043"><a xlink:href="kest__files_8c.html#af53689e3600e69611b9c05f11971d23e" target="_top" xlink:title=" ">
<polygon fill="white" stroke="#666666" points="296.38,-27.12 205.38,-27.12 205.38,-6.38 296.38,-6.38 296.38,-27.12"/>
<text xml:space="preserve" text-anchor="middle" x="250.88" y="-13.62" font-family="Helvetica,sans-Serif" font-size="10.00">save_sequence</text>
</a>
</g>
</g>
<!-- Node42&#45;&gt;Node43 -->
<g id="edge16_Node000042_Node000043" class="edge">
<title>Node42&#45;&gt;Node43</title>
<g id="a_edge16_Node000042_Node000043"><a xlink:title=" ">
<path fill="none" stroke="#63b8ff" d="M334.47,-13.61C321.44,-14.1 308.28,-14.6 296.41,-15.05"/>
<polygon fill="#63b8ff" stroke="#63b8ff" points="334.47,-17.11 344.33,-13.23 334.2,-10.11 334.47,-17.11"/>
</a>
</g>
</g>
<!-- Node43&#45;&gt;Node27 -->
<g id="edge18_Node000043_Node000027" class="edge">
<title>Node43&#45;&gt;Node27</title>
<g id="a_edge18_Node000043_Node000027"><a xlink:title=" ">
<path fill="none" stroke="#63b8ff" d="M200.52,-30.6C174.05,-38.02 141.93,-47.03 117.32,-53.93"/>
<polygon fill="#63b8ff" stroke="#63b8ff" points="201.33,-34 210.01,-27.93 199.44,-27.26 201.33,-34"/>
</a>
</g>
</g>
<!-- Node44 -->
<g id="Node000044" class="node">
<title>Node44</title>
<g id="a_Node000044"><a xlink:href="kest__sequence_8c.html#aade8512fa274f7f5aba28d373fd2e6d9" target="_top" xlink:title=" ">
<polygon fill="#fff0f0" stroke="red" points="132.25,-33.5 23.25,-33.5 23.25,0 132.25,0 132.25,-33.5"/>
<text xml:space="preserve" text-anchor="start" x="31.25" y="-20" font-family="Helvetica,sans-Serif" font-size="10.00">kest_sequence_file</text>
<text xml:space="preserve" text-anchor="middle" x="77.75" y="-7.25" font-family="Helvetica,sans-Serif" font-size="10.00">_rep_update</text>
</a>
</g>
</g>
<!-- Node43&#45;&gt;Node44 -->
<g id="edge17_Node000043_Node000044" class="edge">
<title>Node43&#45;&gt;Node44</title>
<g id="a_edge17_Node000043_Node000044"><a xlink:title=" ">
<path fill="none" stroke="#63b8ff" d="M193.65,-16.75C174,-16.75 151.99,-16.75 132.54,-16.75"/>
<polygon fill="#63b8ff" stroke="#63b8ff" points="193.4,-20.25 203.4,-16.75 193.4,-13.25 193.4,-20.25"/>
</a>
</g>
</g>
</g>
</svg>

<g id="navigator" transform="translate(0 0)" fill="#404254">
  <rect fill="#f2f5e9" fill-opacity="0.5" stroke="#606060" stroke-width=".5" x="0" y="0" width="60" height="60"/>
  <use id="zoomplus" xlink:href="#zoomPlus" x="17" y="9" onmousedown="handleZoom(evt,'in')"/>
  <use id="zoomminus" xlink:href="#zoomMin" x="42" y="9" onmousedown="handleZoom(evt,'out')"/>
  <use id="reset" xlink:href="#resetDef" x="30" y="36" onmousedown="handleReset()"/>
   <use id="arrowup" xlink:href="#arrowUp" x="0" y="0" onmousedown="handlePan(0,-1)"/>
  <use id="arrowright" xlink:href="#arrowRight" x="0" y="0" onmousedown="handlePan(1,0)"/>
  <use id="arrowdown" xlink:href="#arrowDown" x="0" y="0" onmousedown="handlePan(0,1)"/>
  <use id="arrowleft" xlink:href="#arrowLeft" x="0" y="0" onmousedown="handlePan(-1,0)"/>
</g>
<svg viewBox="0 0 15 15" width="100%" height="30px" preserveAspectRatio="xMaxYMin meet">
 <g id="arrow_out" transform="scale(0.3 0.3)">
  <a xlink:href="kest__files_8c_ab39f3c0d9f0a16ccb7d076a22fc4ca22_icgraph_org.svg" target="_base">
   <rect id="button" ry="5" rx="5" y="6" x="6" height="38" width="38"
        fill="#f2f5e9" fill-opacity="0.5" stroke="#606060" stroke-width="1.0"/>
   <path id="arrow"
     d="M 11.500037,31.436501 C 11.940474,20.09759 22.043105,11.32322 32.158766,21.979434 L 37.068811,17.246167 C 37.068811,17.246167 37.088388,32 37.088388,32 L 22.160133,31.978069 C 22.160133,31.978069 26.997745,27.140456 26.997745,27.140456 C 18.528582,18.264221 13.291696,25.230495 11.500037,31.436501 z"
     style="fill:#404040;"/>
  </a>
 </g>
</svg>

<style type='text/css'>
<![CDATA[
[data-mouse-over-selected='false'] { opacity: 0.7; }
[data-mouse-over-selected='true']  { opacity: 1.0; }
]]>
</style>
<script type="application/ecmascript"><![CDATA[
document.addEventListener('DOMContentLoaded', (event) => {
  highlightEdges();
  highlightAdjacentNodes();
});
]]></script>
</svg>
