<?xml version="1.0" encoding="UTF-8" standalone="no"?>
<!DOCTYPE svg PUBLIC "-//W3C//DTD SVG 1.1//EN"
 "http://www.w3.org/Graphics/SVG/1.1/DTD/svg11.dtd">
<!-- Generated by graphviz version 13.1.2 (20250808.2320)
 -->
<!-- Title: kest_fpga_read_byte Pages: 1 -->
<svg width="472pt" height="68pt"
 viewBox="0.00 0.00 472.00 68.00" xmlns="http://www.w3.org/2000/svg" xmlns:xlink="http://www.w3.org/1999/xlink">
<g id="graph0" class="graph" transform="scale(1 1) rotate(0) translate(4 63.75)">
<title>kest_fpga_read_byte</title>
<!-- Node1 -->
<g id="Node000001" class="node">
<title>Node1</title>
<g id="a_Node000001"><a xlink:title=" ">
<polygon fill="#999999" stroke="#666666" points="463.75,-39.75 346.5,-39.75 346.5,-19 463.75,-19 463.75,-39.75"/>
<text xml:space="preserve" text-anchor="middle" x="405.12" y="-26.25" font-family="Helvetica,sans-Serif" font-size="10.00">kest_fpga_read_byte</text>
</a>
</g>
</g>
<!-- Node2 -->
<g id="Node000002" class="node">
<title>Node2</title>
<g id="a_Node000002"><a xlink:href="kest__fpga__comms_8c.html#a8f850777494bb4c4d61df3efbf31ca7c" target="_top" xlink:title=" ">
<polygon fill="white" stroke="#666666" points="310.5,-39.75 179.75,-39.75 179.75,-19 310.5,-19 310.5,-39.75"/>
<text xml:space="preserve" text-anchor="middle" x="245.12" y="-26.25" font-family="Helvetica,sans-Serif" font-size="10.00">kest_fpga_comms_task</text>
</a>
</g>
</g>
<!-- Node1&#45;&gt;Node2 -->
<g id="edge1_Node000001_Node000002" class="edge">
<title>Node1&#45;&gt;Node2</title>
<g id="a_edge1_Node000001_Node000002"><a xlink:title=" ">
<path fill="none" stroke="#63b8ff" d="M334.75,-29.38C326.85,-29.38 318.83,-29.38 310.99,-29.38"/>
<polygon fill="#63b8ff" stroke="#63b8ff" points="334.68,-32.88 344.68,-29.38 334.68,-25.88 334.68,-32.88"/>
</a>
</g>
</g>
<!-- Node3 -->
<g id="Node000003" class="node">
<title>Node3</title>
<g id="a_Node000003"><a xlink:href="kest__int_8c.html#abce06be17fc37d675118a678a8100a36" target="_top" xlink:title=" ">
<polygon fill="white" stroke="#666666" points="142.25,-59.75 78.25,-59.75 78.25,-39 142.25,-39 142.25,-59.75"/>
<text xml:space="preserve" text-anchor="middle" x="110.25" y="-46.25" font-family="Helvetica,sans-Serif" font-size="10.00">app_main</text>
</a>
</g>
</g>
<!-- Node2&#45;&gt;Node3 -->
<g id="edge2_Node000002_Node000003" class="edge">
<title>Node2&#45;&gt;Node3</title>
<g id="a_edge2_Node000002_Node000003"><a xlink:title=" ">
<path fill="none" stroke="#63b8ff" d="M168.42,-40.77C159.28,-42.15 150.38,-43.48 142.43,-44.68"/>
<polygon fill="#63b8ff" stroke="#63b8ff" points="168.77,-44.26 178.14,-39.31 167.73,-37.33 168.77,-44.26"/>
</a>
</g>
</g>
<!-- Node4 -->
<g id="Node000004" class="node">
<title>Node4</title>
<g id="a_Node000004"><a xlink:href="kest__desktop_8c.html#ab499a4f71ef4cfc807b60d8739750c3e" target="_top" xlink:title=" ">
<polygon fill="white" stroke="#666666" points="143.75,-20.75 76.75,-20.75 76.75,0 143.75,0 143.75,-20.75"/>
<text xml:space="preserve" text-anchor="middle" x="110.25" y="-7.25" font-family="Helvetica,sans-Serif" font-size="10.00">main_task</text>
</a>
</g>
</g>
<!-- Node2&#45;&gt;Node4 -->
<g id="edge3_Node000002_Node000004" class="edge">
<title>Node2&#45;&gt;Node4</title>
<g id="a_edge3_Node000002_Node000004"><a xlink:title=" ">
<path fill="none" stroke="#63b8ff" d="M168.41,-18.55C159.93,-17.34 151.66,-16.15 144.16,-15.08"/>
<polygon fill="#63b8ff" stroke="#63b8ff" points="167.74,-21.99 178.14,-19.94 168.73,-15.06 167.74,-21.99"/>
</a>
</g>
</g>
<!-- Node5 -->
<g id="Node000005" class="node">
<title>Node5</title>
<g id="a_Node000005"><a xlink:href="kest__desktop_8c.html#a3c04138a5bfe5d72780bb7e82a18e627" target="_top" xlink:title=" ">
<polygon fill="white" stroke="#666666" points="40.75,-20.75 0,-20.75 0,0 40.75,0 40.75,-20.75"/>
<text xml:space="preserve" text-anchor="middle" x="20.38" y="-7.25" font-family="Helvetica,sans-Serif" font-size="10.00">main</text>
</a>
</g>
</g>
<!-- Node4&#45;&gt;Node5 -->
<g id="edge4_Node000004_Node000005" class="edge">
<title>Node4&#45;&gt;Node5</title>
<g id="a_edge4_Node000004_Node000005"><a xlink:title=" ">
<path fill="none" stroke="#63b8ff" d="M65.01,-10.38C56.68,-10.38 48.35,-10.38 41.24,-10.38"/>
<polygon fill="#63b8ff" stroke="#63b8ff" points="64.77,-13.88 74.77,-10.38 64.77,-6.88 64.77,-13.88"/>
</a>
</g>
</g>
</g>
</svg>
