<?xml version="1.0" encoding="UTF-8" standalone="no"?>
<!DOCTYPE svg PUBLIC "-//W3C//DTD SVG 1.1//EN"
 "http://www.w3.org/Graphics/SVG/1.1/DTD/svg11.dtd">
<!-- Generated by graphviz version 13.1.2 (20250808.2320)
 -->
<!-- Title: kest_profile_add_representation Pages: 1 -->
<svg width="975pt" height="157pt"
 viewBox="0.00 0.00 975.00 157.00" xmlns="http://www.w3.org/2000/svg" xmlns:xlink="http://www.w3.org/1999/xlink">
<g id="graph0" class="graph" transform="scale(1 1) rotate(0) translate(4 153.12)">
<title>kest_profile_add_representation</title>
<!-- Node1 -->
<g id="Node000001" class="node">
<title>Node1</title>
<g id="a_Node000001"><a xlink:title=" ">
<polygon fill="#999999" stroke="#666666" points="966.75,-40.75 794,-40.75 794,-20 966.75,-20 966.75,-40.75"/>
<text xml:space="preserve" text-anchor="middle" x="880.38" y="-27.25" font-family="Helvetica,sans-Serif" font-size="10.00">kest_profile_add_representation</text>
</a>
</g>
</g>
<!-- Node2 -->
<g id="Node000002" class="node">
<title>Node2</title>
<g id="a_Node000002"><a xlink:href="kest__profile__view_8c.html#a9f9505132871c2ea372958fd06ecf10f" target="_top" xlink:title=" ">
<polygon fill="white" stroke="#666666" points="758,-59.75 631,-59.75 631,-39 758,-39 758,-59.75"/>
<text xml:space="preserve" text-anchor="middle" x="694.5" y="-46.25" font-family="Helvetica,sans-Serif" font-size="10.00">configure_profile_view</text>
</a>
</g>
</g>
<!-- Node1&#45;&gt;Node2 -->
<g id="edge1_Node000001_Node000002" class="edge">
<title>Node1&#45;&gt;Node2</title>
<g id="a_edge1_Node000001_Node000002"><a xlink:title=" ">
<path fill="none" stroke="#63b8ff" d="M782.19,-40.42C774.1,-41.25 766.07,-42.08 758.34,-42.88"/>
<polygon fill="#63b8ff" stroke="#63b8ff" points="782.54,-43.9 792.12,-39.39 781.82,-36.94 782.54,-43.9"/>
</a>
</g>
</g>
<!-- Node24 -->
<g id="Node000024" class="node">
<title>Node24</title>
<g id="a_Node000024"><a xlink:href="kest__sequence__view_8c.html#a83d1a352af6a3932ce4d08e01f7d8d8a" target="_top" xlink:title=" ">
<polygon fill="white" stroke="#666666" points="584.12,-20.75 508.88,-20.75 508.88,0 584.12,0 584.12,-20.75"/>
<text xml:space="preserve" text-anchor="middle" x="546.5" y="-7.25" font-family="Helvetica,sans-Serif" font-size="10.00">seq_plus_cb</text>
</a>
</g>
</g>
<!-- Node1&#45;&gt;Node24 -->
<g id="edge9_Node000001_Node000024" class="edge">
<title>Node1&#45;&gt;Node24</title>
<g id="a_edge9_Node000001_Node000024"><a xlink:title=" ">
<path fill="none" stroke="#63b8ff" d="M782.58,-24.54C716.24,-20.54 631.92,-15.46 584.42,-12.6"/>
<polygon fill="#63b8ff" stroke="#63b8ff" points="782.21,-28.03 792.4,-25.13 782.63,-21.04 782.21,-28.03"/>
</a>
</g>
</g>
<!-- Node3 -->
<g id="Node000003" class="node">
<title>Node3</title>
<g id="a_Node000003"><a xlink:href="kest__profile__view_8c.html#a8a76cb40ff26bbde55ba56a4f25094d1" target="_top" xlink:title=" ">
<polygon fill="white" stroke="#666666" points="462,-97.75 331.25,-97.75 331.25,-77 462,-77 462,-97.75"/>
<text xml:space="preserve" text-anchor="middle" x="396.62" y="-84.25" font-family="Helvetica,sans-Serif" font-size="10.00">create_profile_view_for</text>
</a>
</g>
</g>
<!-- Node2&#45;&gt;Node3 -->
<g id="edge2_Node000002_Node000003" class="edge">
<title>Node2&#45;&gt;Node3</title>
<g id="a_edge2_Node000002_Node000003"><a xlink:title=" ">
<path fill="none" stroke="#63b8ff" d="M631.03,-62.35C619.1,-64.56 606.69,-66.69 595,-68.38 550.88,-74.74 500.89,-79.53 462.26,-82.7"/>
<polygon fill="#63b8ff" stroke="#63b8ff" points="631.62,-65.8 640.79,-60.49 630.31,-58.92 631.62,-65.8"/>
</a>
</g>
</g>
<!-- Node23 -->
<g id="Node000023" class="node">
<title>Node23</title>
<g id="a_Node000023"><a xlink:href="kest__profile__view_8c.html#abfe2cf72961d0ab0b70f858cf1281a38" target="_top" xlink:title=" ">
<polygon fill="white" stroke="#666666" points="595,-59.75 498,-59.75 498,-39 595,-39 595,-59.75"/>
<text xml:space="preserve" text-anchor="middle" x="546.5" y="-46.25" font-family="Helvetica,sans-Serif" font-size="10.00">init_profile_view</text>
</a>
</g>
</g>
<!-- Node2&#45;&gt;Node23 -->
<g id="edge7_Node000002_Node000023" class="edge">
<title>Node2&#45;&gt;Node23</title>
<g id="a_edge7_Node000002_Node000023"><a xlink:title=" ">
<path fill="none" stroke="#63b8ff" d="M619.23,-49.38C611.07,-49.38 602.93,-49.38 595.22,-49.38"/>
<polygon fill="#63b8ff" stroke="#63b8ff" points="619.22,-52.88 629.22,-49.38 619.22,-45.88 619.22,-52.88"/>
</a>
</g>
</g>
<!-- Node4 -->
<g id="Node000004" class="node">
<title>Node4</title>
<g id="a_Node000004"><a xlink:href="kest__profile_8c.html#a9222b6f2a0efa93ce0168e1bb530d733" target="_top" xlink:title=" ">
<polygon fill="white" stroke="#666666" points="291.12,-149.12 182.12,-149.12 182.12,-115.62 291.12,-115.62 291.12,-149.12"/>
<text xml:space="preserve" text-anchor="start" x="190.12" y="-135.62" font-family="Helvetica,sans-Serif" font-size="10.00">create_new_profile</text>
<text xml:space="preserve" text-anchor="middle" x="236.62" y="-122.88" font-family="Helvetica,sans-Serif" font-size="10.00">_with_teensy</text>
</a>
</g>
</g>
<!-- Node3&#45;&gt;Node4 -->
<g id="edge3_Node000003_Node000004" class="edge">
<title>Node3&#45;&gt;Node4</title>
<g id="a_edge3_Node000003_Node000004"><a xlink:title=" ">
<path fill="none" stroke="#63b8ff" d="M347.18,-101.17C329.6,-106.18 309.63,-111.87 291.59,-117"/>
<polygon fill="#63b8ff" stroke="#63b8ff" points="347.67,-104.67 356.32,-98.57 345.75,-97.94 347.67,-104.67"/>
</a>
</g>
</g>
<!-- Node5 -->
<g id="Node000005" class="node">
<title>Node5</title>
<g id="a_Node000005"><a xlink:href="kest__files_8c.html#a9a8521ad7db2dd3514b6ece8c4d6d787" target="_top" xlink:title=" ">
<polygon fill="#fff0f0" stroke="red" points="293.38,-97.75 179.88,-97.75 179.88,-77 293.38,-77 293.38,-97.75"/>
<text xml:space="preserve" text-anchor="middle" x="236.62" y="-84.25" font-family="Helvetica,sans-Serif" font-size="10.00">load_saved_profiles</text>
</a>
</g>
</g>
<!-- Node3&#45;&gt;Node5 -->
<g id="edge4_Node000003_Node000005" class="edge">
<title>Node3&#45;&gt;Node5</title>
<g id="a_edge4_Node000003_Node000005"><a xlink:title=" ">
<path fill="none" stroke="#63b8ff" d="M319.43,-87.38C310.66,-87.38 301.83,-87.38 293.4,-87.38"/>
<polygon fill="#63b8ff" stroke="#63b8ff" points="319.39,-90.88 329.39,-87.38 319.39,-83.88 319.39,-90.88"/>
</a>
</g>
</g>
<!-- Node9 -->
<g id="Node000009" class="node">
<title>Node9</title>
<g id="a_Node000009"><a xlink:href="kest__sequence__view_8c.html#abc9a54120c4bc7c4fe6a4632764e5e91" target="_top" xlink:title=" ">
<polygon fill="#fff0f0" stroke="red" points="295.25,-58.75 178,-58.75 178,-38 295.25,-38 295.25,-58.75"/>
<text xml:space="preserve" text-anchor="middle" x="236.62" y="-45.25" font-family="Helvetica,sans-Serif" font-size="10.00">seq_view_clicked_cb</text>
</a>
</g>
</g>
<!-- Node3&#45;&gt;Node9 -->
<g id="edge5_Node000003_Node000009" class="edge">
<title>Node3&#45;&gt;Node9</title>
<g id="a_edge5_Node000003_Node000009"><a xlink:title=" ">
<path fill="none" stroke="#63b8ff" d="M340.55,-73.78C321.28,-69.03 299.92,-63.75 281.67,-59.25"/>
<polygon fill="#63b8ff" stroke="#63b8ff" points="339.6,-77.15 350.14,-76.15 341.27,-70.35 339.6,-77.15"/>
</a>
</g>
</g>
<!-- Node10 -->
<g id="Node000010" class="node">
<title>Node10</title>
<g id="a_Node000010"><a xlink:href="kest__sequence__view_8c.html#ac871b24a7c875a7b6e707a3d2691a2a9" target="_top" xlink:title=" ">
<polygon fill="#fff0f0" stroke="red" points="142,-39.75 0,-39.75 0,-19 142,-19 142,-39.75"/>
<text xml:space="preserve" text-anchor="middle" x="71" y="-26.25" font-family="Helvetica,sans-Serif" font-size="10.00">configure_sequence_view</text>
</a>
</g>
</g>
<!-- Node9&#45;&gt;Node10 -->
<g id="edge6_Node000009_Node000010" class="edge">
<title>Node9&#45;&gt;Node10</title>
<g id="a_edge6_Node000009_Node000010"><a xlink:title=" ">
<path fill="none" stroke="#63b8ff" d="M166.7,-40.37C158.65,-39.44 150.43,-38.48 142.36,-37.55"/>
<polygon fill="#63b8ff" stroke="#63b8ff" points="166.1,-43.82 176.43,-41.5 166.9,-36.87 166.1,-43.82"/>
</a>
</g>
</g>
<!-- Node23&#45;&gt;Node3 -->
<g id="edge8_Node000023_Node000003" class="edge">
<title>Node23&#45;&gt;Node3</title>
<g id="a_edge8_Node000023_Node000003"><a xlink:title=" ">
<path fill="none" stroke="#63b8ff" d="M492.42,-63.01C475.1,-67.47 456.11,-72.35 439.71,-76.56"/>
<polygon fill="#63b8ff" stroke="#63b8ff" points="493.24,-66.42 502.05,-60.54 491.5,-59.64 493.24,-66.42"/>
</a>
</g>
</g>
<!-- Node24&#45;&gt;Node10 -->
<g id="edge10_Node000024_Node000010" class="edge">
<title>Node24&#45;&gt;Node10</title>
<g id="a_edge10_Node000024_Node000010"><a xlink:title=" ">
<path fill="none" stroke="#63b8ff" d="M497.25,-12.31C413.21,-15.68 239.64,-22.65 142.24,-26.56"/>
<polygon fill="#63b8ff" stroke="#63b8ff" points="497.38,-15.81 507.23,-11.91 497.09,-8.81 497.38,-15.81"/>
</a>
</g>
</g>
</g>
</svg>
