<?xml version="1.0" encoding="UTF-8" standalone="no"?>
<!DOCTYPE svg PUBLIC "-//W3C//DTD SVG 1.1//EN"
 "http://www.w3.org/Graphics/SVG/1.1/DTD/svg11.dtd">
<!-- Generated by graphviz version 13.1.2 (20250808.2320)
 -->
<!-- Title: kest_extract_filter_from_dict Pages: 1 -->
<svg width="1008pt" height="421pt"
 viewBox="0.00 0.00 1008.00 421.00" xmlns="http://www.w3.org/2000/svg" xmlns:xlink="http://www.w3.org/1999/xlink">
<g id="graph0" class="graph" transform="scale(1 1) rotate(0) translate(4 417.12)">
<title>kest_extract_filter_from_dict</title>
<!-- Node1 -->
<g id="Node000001" class="node">
<title>Node1</title>
<g id="a_Node000001"><a xlink:title=" ">
<polygon fill="#999999" stroke="#666666" points="104.5,-246.12 0,-246.12 0,-212.62 104.5,-212.62 104.5,-246.12"/>
<text xml:space="preserve" text-anchor="start" x="8" y="-232.62" font-family="Helvetica,sans-Serif" font-size="10.00">kest_extract_filter</text>
<text xml:space="preserve" text-anchor="middle" x="52.25" y="-219.88" font-family="Helvetica,sans-Serif" font-size="10.00">_from_dict</text>
</a>
</g>
</g>
<!-- Node2 -->
<g id="Node000002" class="node">
<title>Node2</title>
<g id="a_Node000002"><a xlink:href="kest__dictionary_8c.html#aa5e01745c3975da2999b57cc7f51fba7" target="_top" xlink:title=" ">
<polygon fill="white" stroke="#666666" points="296,-409.75 140.5,-409.75 140.5,-389 296,-389 296,-409.75"/>
<text xml:space="preserve" text-anchor="middle" x="218.25" y="-396.25" font-family="Helvetica,sans-Serif" font-size="10.00">kest_dictionary_lookup_expr</text>
</a>
</g>
</g>
<!-- Node1&#45;&gt;Node2 -->
<g id="edge1_Node000001_Node000002" class="edge">
<title>Node1&#45;&gt;Node2</title>
<g id="a_edge1_Node000001_Node000002"><a xlink:title=" ">
<path fill="none" stroke="#63b8ff" d="M58.87,-246.56C69.72,-277.04 96.44,-340.64 140.5,-375.38 144.73,-378.71 149.43,-381.59 154.36,-384.06"/>
<polygon fill="#63b8ff" stroke="#63b8ff" points="152.78,-387.19 163.35,-388.01 155.59,-380.78 152.78,-387.19"/>
</a>
</g>
</g>
<!-- Node5 -->
<g id="Node000005" class="node">
<title>Node5</title>
<g id="a_Node000005"><a xlink:href="kest__expression_8c.html#acf37e49d77d8bcdaa88727bd67c146fa" target="_top" xlink:title=" ">
<polygon fill="white" stroke="#666666" points="289.62,-122.75 146.88,-122.75 146.88,-102 289.62,-102 289.62,-122.75"/>
<text xml:space="preserve" text-anchor="middle" x="218.25" y="-109.25" font-family="Helvetica,sans-Serif" font-size="10.00">kest_expression_evaluate</text>
</a>
</g>
</g>
<!-- Node1&#45;&gt;Node5 -->
<g id="edge4_Node000001_Node000005" class="edge">
<title>Node1&#45;&gt;Node5</title>
<g id="a_edge4_Node000001_Node000005"><a xlink:title=" ">
<path fill="none" stroke="#63b8ff" d="M64.85,-212.44C79.94,-191.63 108.24,-156.61 140.5,-136.38 146.11,-132.86 152.27,-129.82 158.59,-127.21"/>
<polygon fill="#63b8ff" stroke="#63b8ff" points="159.75,-130.51 167.88,-123.73 157.29,-123.95 159.75,-130.51"/>
</a>
</g>
</g>
<!-- Node6 -->
<g id="Node000006" class="node">
<title>Node6</title>
<g id="a_Node000006"><a xlink:href="kest__expression_8c.html#aadf2a6a074cb1ad7b45893704cbd71c3" target="_top" xlink:title=" ">
<polygon fill="white" stroke="#666666" points="635.88,-346.12 526.12,-346.12 526.12,-312.62 635.88,-312.62 635.88,-346.12"/>
<text xml:space="preserve" text-anchor="start" x="534.12" y="-332.62" font-family="Helvetica,sans-Serif" font-size="10.00">kest_expression_to</text>
<text xml:space="preserve" text-anchor="middle" x="581" y="-319.88" font-family="Helvetica,sans-Serif" font-size="10.00">_string</text>
</a>
</g>
</g>
<!-- Node1&#45;&gt;Node6 -->
<g id="edge5_Node000001_Node000006" class="edge">
<title>Node1&#45;&gt;Node6</title>
<g id="a_edge5_Node000001_Node000006"><a xlink:title=" ">
<path fill="none" stroke="#63b8ff" d="M77.94,-246.6C94.94,-257.89 118.38,-272.37 140.5,-282.38 221.77,-319.13 243.83,-328.89 332,-342.38 393.48,-351.78 464.43,-346.46 514.64,-340.02"/>
<polygon fill="#63b8ff" stroke="#63b8ff" points="515.04,-343.5 524.49,-338.7 514.11,-336.56 515.04,-343.5"/>
</a>
</g>
</g>
<!-- Node11 -->
<g id="Node000011" class="node">
<title>Node11</title>
<g id="a_Node000011"><a xlink:href="kest__dict__extract_8c.html#ac9cee86a595df863e15b7693b86635b7" target="_top" xlink:title=" ">
<polygon fill="white" stroke="#666666" points="270.5,-212.12 166,-212.12 166,-178.62 270.5,-178.62 270.5,-212.12"/>
<text xml:space="preserve" text-anchor="start" x="174" y="-198.62" font-family="Helvetica,sans-Serif" font-size="10.00">kest_extract_filter</text>
<text xml:space="preserve" text-anchor="middle" x="218.25" y="-185.88" font-family="Helvetica,sans-Serif" font-size="10.00">_coefs_from_dict</text>
</a>
</g>
</g>
<!-- Node1&#45;&gt;Node11 -->
<g id="edge11_Node000001_Node000011" class="edge">
<title>Node1&#45;&gt;Node11</title>
<g id="a_edge11_Node000001_Node000011"><a xlink:title=" ">
<path fill="none" stroke="#63b8ff" d="M104.69,-218.71C120.49,-215.44 138.05,-211.79 154.52,-208.38"/>
<polygon fill="#63b8ff" stroke="#63b8ff" points="155.15,-211.82 164.23,-206.37 153.73,-204.97 155.15,-211.82"/>
</a>
</g>
</g>
<!-- Node24 -->
<g id="Node000024" class="node">
<title>Node24</title>
<g id="a_Node000024"><a xlink:href="kest__eff__parser_8c.html#a9c89af02214b349048ed0f85274af710" target="_top" xlink:title=" ">
<polygon fill="white" stroke="#666666" points="478.88,-20.75 333.88,-20.75 333.88,0 478.88,0 478.88,-20.75"/>
<text xml:space="preserve" text-anchor="middle" x="406.38" y="-7.25" font-family="Helvetica,sans-Serif" font-size="10.00">kest_parser_error_at_node</text>
</a>
</g>
</g>
<!-- Node1&#45;&gt;Node24 -->
<g id="edge32_Node000001_Node000024" class="edge">
<title>Node1&#45;&gt;Node24</title>
<g id="a_edge32_Node000001_Node000024"><a xlink:title=" ">
<path fill="none" stroke="#63b8ff" d="M73.48,-212.29C90.39,-198.81 115.67,-180.5 140.5,-169.38 205.43,-140.3 243.18,-179.03 296,-131.38 331.38,-99.45 297.04,-62.76 332,-30.38 333.24,-29.23 334.54,-28.14 335.89,-27.12"/>
<polygon fill="#63b8ff" stroke="#63b8ff" points="337.49,-30.24 344.16,-22.01 333.81,-24.29 337.49,-30.24"/>
</a>
</g>
</g>
<!-- Node26 -->
<g id="Node000026" class="node">
<title>Node26</title>
<g id="a_Node000026"><a xlink:href="kest__resource_8c.html#adb005fd5423242a5fb393a1ec10feb9d" target="_top" xlink:title=" ">
<polygon fill="white" stroke="#666666" points="268.62,-273.75 167.88,-273.75 167.88,-253 268.62,-253 268.62,-273.75"/>
<text xml:space="preserve" text-anchor="middle" x="218.25" y="-260.25" font-family="Helvetica,sans-Serif" font-size="10.00">kest_filter_create</text>
</a>
</g>
</g>
<!-- Node1&#45;&gt;Node26 -->
<g id="edge30_Node000001_Node000026" class="edge">
<title>Node1&#45;&gt;Node26</title>
<g id="a_edge30_Node000001_Node000026"><a xlink:title=" ">
<path fill="none" stroke="#63b8ff" d="M104.69,-240.04C121.1,-243.44 139.42,-247.24 156.44,-250.77"/>
<polygon fill="#63b8ff" stroke="#63b8ff" points="155.41,-254.13 165.91,-252.73 156.83,-247.27 155.41,-254.13"/>
</a>
</g>
</g>
<!-- Node3 -->
<g id="Node000003" class="node">
<title>Node3</title>
<g id="a_Node000003"><a xlink:href="kest__dictionary_8c.html#ac32514fb9876c48a7b489fa4686fbdbd" target="_top" xlink:title=" ">
<polygon fill="white" stroke="#666666" points="645.25,-406.75 516.75,-406.75 516.75,-386 645.25,-386 645.25,-406.75"/>
<text xml:space="preserve" text-anchor="middle" x="581" y="-393.25" font-family="Helvetica,sans-Serif" font-size="10.00">kest_dictionary_lookup</text>
</a>
</g>
</g>
<!-- Node2&#45;&gt;Node3 -->
<g id="edge2_Node000002_Node000003" class="edge">
<title>Node2&#45;&gt;Node3</title>
<g id="a_edge2_Node000002_Node000003"><a xlink:title=" ">
<path fill="none" stroke="#63b8ff" d="M296.2,-398.74C357.82,-398.22 443.78,-397.51 504.91,-397"/>
<polygon fill="#63b8ff" stroke="#63b8ff" points="504.92,-400.5 514.89,-396.92 504.86,-393.5 504.92,-400.5"/>
</a>
</g>
</g>
<!-- Node4 -->
<g id="Node000004" class="node">
<title>Node4</title>
<g id="a_Node000004"><a xlink:href="kest__dictionary_8c.html#aed95d5d56052a9f450a8fca4a415cb1e" target="_top" xlink:title=" ">
<polygon fill="white" stroke="#666666" points="816.5,-413.12 688.75,-413.12 688.75,-379.62 816.5,-379.62 816.5,-413.12"/>
<text xml:space="preserve" text-anchor="start" x="696.75" y="-399.62" font-family="Helvetica,sans-Serif" font-size="10.00">kest_dictionary_bucket</text>
<text xml:space="preserve" text-anchor="middle" x="752.62" y="-386.88" font-family="Helvetica,sans-Serif" font-size="10.00">_lookup</text>
</a>
</g>
</g>
<!-- Node3&#45;&gt;Node4 -->
<g id="edge3_Node000003_Node000004" class="edge">
<title>Node3&#45;&gt;Node4</title>
<g id="a_edge3_Node000003_Node000004"><a xlink:title=" ">
<path fill="none" stroke="#63b8ff" d="M645.64,-396.38C655.93,-396.38 666.66,-396.38 677.18,-396.38"/>
<polygon fill="#63b8ff" stroke="#63b8ff" points="676.96,-399.88 686.96,-396.38 676.96,-392.88 676.96,-399.88"/>
</a>
</g>
</g>
<!-- Node7 -->
<g id="Node000007" class="node">
<title>Node7</title>
<g id="a_Node000007"><a xlink:href="kest__expression_8c.html#a767b50b7ddfa94dc61810dfdcc8feaf0" target="_top" xlink:title=" ">
<polygon fill="white" stroke="#666666" points="824,-339.75 681.25,-339.75 681.25,-319 824,-319 824,-339.75"/>
<text xml:space="preserve" text-anchor="middle" x="752.62" y="-326.25" font-family="Helvetica,sans-Serif" font-size="10.00">kest_expression_print_rec</text>
</a>
</g>
</g>
<!-- Node6&#45;&gt;Node7 -->
<g id="edge6_Node000006_Node000007" class="edge">
<title>Node6&#45;&gt;Node7</title>
<g id="a_edge6_Node000006_Node000007"><a xlink:title=" ">
<path fill="none" stroke="#63b8ff" d="M636.14,-329.38C646.83,-329.38 658.27,-329.38 669.64,-329.38"/>
<polygon fill="#63b8ff" stroke="#63b8ff" points="669.45,-332.88 679.45,-329.38 669.45,-325.88 669.45,-332.88"/>
</a>
</g>
</g>
<!-- Node7&#45;&gt;Node7 -->
<g id="edge10_Node000007_Node000007" class="edge">
<title>Node7&#45;&gt;Node7</title>
<g id="a_edge10_Node000007_Node000007"><a xlink:title=" ">
<path fill="none" stroke="#63b8ff" d="M724.97,-340.15C713.91,-348.81 723.13,-357.75 752.62,-357.75 768.76,-357.75 778.82,-355.08 782.82,-351.24"/>
<polygon fill="#63b8ff" stroke="#63b8ff" points="786.27,-350.59 780.62,-341.62 779.44,-352.15 786.27,-350.59"/>
</a>
</g>
</g>
<!-- Node8 -->
<g id="Node000008" class="node">
<title>Node8</title>
<g id="a_Node000008"><a xlink:href="kest__expression_8c.html#a2f21e4932bce8c87ec0bfc508588b761" target="_top" xlink:title=" ">
<polygon fill="white" stroke="#666666" points="991.5,-384.75 868.25,-384.75 868.25,-364 991.5,-364 991.5,-384.75"/>
<text xml:space="preserve" text-anchor="middle" x="929.88" y="-371.25" font-family="Helvetica,sans-Serif" font-size="10.00">kest_expression_form</text>
</a>
</g>
</g>
<!-- Node7&#45;&gt;Node8 -->
<g id="edge7_Node000007_Node000008" class="edge">
<title>Node7&#45;&gt;Node8</title>
<g id="a_edge7_Node000007_Node000008"><a xlink:title=" ">
<path fill="none" stroke="#63b8ff" d="M795.6,-340.15C819.59,-346.31 849.92,-354.1 875.58,-360.69"/>
<polygon fill="#63b8ff" stroke="#63b8ff" points="874.61,-364.05 885.17,-363.15 876.35,-357.27 874.61,-364.05"/>
</a>
</g>
</g>
<!-- Node9 -->
<g id="Node000009" class="node">
<title>Node9</title>
<g id="a_Node000009"><a xlink:href="kest__expression_8c.html#a81b490a2837a170e18e8cdae730d0d9b" target="_top" xlink:title=" ">
<polygon fill="white" stroke="#666666" points="999.75,-346.12 860,-346.12 860,-312.62 999.75,-312.62 999.75,-346.12"/>
<text xml:space="preserve" text-anchor="start" x="868" y="-332.62" font-family="Helvetica,sans-Serif" font-size="10.00">kest_expression_function</text>
<text xml:space="preserve" text-anchor="middle" x="929.88" y="-319.88" font-family="Helvetica,sans-Serif" font-size="10.00">_string</text>
</a>
</g>
</g>
<!-- Node7&#45;&gt;Node9 -->
<g id="edge8_Node000007_Node000009" class="edge">
<title>Node7&#45;&gt;Node9</title>
<g id="a_edge8_Node000007_Node000009"><a xlink:title=" ">
<path fill="none" stroke="#63b8ff" d="M824.4,-329.38C832.19,-329.38 840.16,-329.38 848.06,-329.38"/>
<polygon fill="#63b8ff" stroke="#63b8ff" points="848.03,-332.88 858.03,-329.38 848.03,-325.88 848.03,-332.88"/>
</a>
</g>
</g>
<!-- Node10 -->
<g id="Node000010" class="node">
<title>Node10</title>
<g id="a_Node000010"><a xlink:href="kest__expression_8c.html#a1a3a0bc9ed6726fb24e6a40803741b43" target="_top" xlink:title=" ">
<polygon fill="white" stroke="#666666" points="990.75,-294.12 869,-294.12 869,-260.62 990.75,-260.62 990.75,-294.12"/>
<text xml:space="preserve" text-anchor="start" x="877" y="-280.62" font-family="Helvetica,sans-Serif" font-size="10.00">kest_expression_infix</text>
<text xml:space="preserve" text-anchor="middle" x="929.88" y="-267.88" font-family="Helvetica,sans-Serif" font-size="10.00">_operator_string</text>
</a>
</g>
</g>
<!-- Node7&#45;&gt;Node10 -->
<g id="edge9_Node000007_Node000010" class="edge">
<title>Node7&#45;&gt;Node10</title>
<g id="a_edge9_Node000007_Node000010"><a xlink:title=" ">
<path fill="none" stroke="#63b8ff" d="M789.94,-318.6C810.19,-312.59 836.1,-304.9 860.04,-297.8"/>
<polygon fill="#63b8ff" stroke="#63b8ff" points="860.84,-301.21 869.43,-295.01 858.85,-294.5 860.84,-301.21"/>
</a>
</g>
</g>
<!-- Node12 -->
<g id="Node000012" class="node">
<title>Node12</title>
<g id="a_Node000012"><a xlink:href="kest__dictionary_8c.html#a298bc3ea15bffee0e485de36aea099c2" target="_top" xlink:title=" ">
<polygon fill="white" stroke="#666666" points="459,-149.12 353.75,-149.12 353.75,-115.62 459,-115.62 459,-149.12"/>
<text xml:space="preserve" text-anchor="start" x="361.75" y="-135.62" font-family="Helvetica,sans-Serif" font-size="10.00">kest_dict_entry_to</text>
<text xml:space="preserve" text-anchor="middle" x="406.38" y="-122.88" font-family="Helvetica,sans-Serif" font-size="10.00">_string</text>
</a>
</g>
</g>
<!-- Node11&#45;&gt;Node12 -->
<g id="edge12_Node000011_Node000012" class="edge">
<title>Node11&#45;&gt;Node12</title>
<g id="a_edge12_Node000011_Node000012"><a xlink:title=" ">
<path fill="none" stroke="#63b8ff" d="M270.11,-178.16C292.88,-170.45 319.94,-161.29 343.84,-153.2"/>
<polygon fill="#63b8ff" stroke="#63b8ff" points="344.79,-156.58 353.14,-150.05 342.55,-149.95 344.79,-156.58"/>
</a>
</g>
</g>
<!-- Node19 -->
<g id="Node000019" class="node">
<title>Node19</title>
<g id="a_Node000019"><a xlink:href="kest__string_8c.html#ad346e7c1a0b506f7eca9423a05b47f11" target="_top" xlink:title=" ">
<polygon fill="white" stroke="#666666" points="636.62,-97.75 525.38,-97.75 525.38,-77 636.62,-77 636.62,-97.75"/>
<text xml:space="preserve" text-anchor="middle" x="581" y="-84.25" font-family="Helvetica,sans-Serif" font-size="10.00">kest_string_destroy</text>
</a>
</g>
</g>
<!-- Node11&#45;&gt;Node19 -->
<g id="edge27_Node000011_Node000019" class="edge">
<title>Node11&#45;&gt;Node19</title>
<g id="a_edge27_Node000011_Node000019"><a xlink:title=" ">
<path fill="none" stroke="#63b8ff" d="M270.93,-179.77C279.87,-175.65 288.63,-170.57 296,-164.38 319.21,-144.84 306.07,-122.13 332,-106.38 386.5,-73.27 460.64,-72.03 513.63,-76.92"/>
<polygon fill="#63b8ff" stroke="#63b8ff" points="513.13,-80.38 523.43,-77.93 513.84,-73.42 513.13,-80.38"/>
</a>
</g>
</g>
<!-- Node21 -->
<g id="Node000021" class="node">
<title>Node21</title>
<g id="a_Node000021"><a xlink:href="kest__dictionary_8c.html#abaef2273aade2095c1ba537a60e71450" target="_top" xlink:title=" ">
<polygon fill="white" stroke="#666666" points="465,-257.12 347.75,-257.12 347.75,-223.62 465,-223.62 465,-257.12"/>
<text xml:space="preserve" text-anchor="start" x="355.75" y="-243.62" font-family="Helvetica,sans-Serif" font-size="10.00">kest_dict_entry_type</text>
<text xml:space="preserve" text-anchor="middle" x="406.38" y="-230.88" font-family="Helvetica,sans-Serif" font-size="10.00">_to_string_nice</text>
</a>
</g>
</g>
<!-- Node11&#45;&gt;Node21 -->
<g id="edge22_Node000011_Node000021" class="edge">
<title>Node11&#45;&gt;Node21</title>
<g id="a_edge22_Node000011_Node000021"><a xlink:title=" ">
<path fill="none" stroke="#63b8ff" d="M270.6,-207.79C290.85,-212.69 314.42,-218.39 336.14,-223.64"/>
<polygon fill="#63b8ff" stroke="#63b8ff" points="335.29,-227.03 345.83,-225.98 336.93,-220.23 335.29,-227.03"/>
</a>
</g>
</g>
<!-- Node22 -->
<g id="Node000022" class="node">
<title>Node22</title>
<g id="a_Node000022"><a xlink:href="kest__dictionary_8c.html#a21526e898fbbfcc30e54dc674406d435" target="_top" xlink:title=" ">
<polygon fill="white" stroke="#666666" points="480.75,-333.75 332,-333.75 332,-313 480.75,-313 480.75,-333.75"/>
<text xml:space="preserve" text-anchor="middle" x="406.38" y="-320.25" font-family="Helvetica,sans-Serif" font-size="10.00">kest_dictionary_lookup_list</text>
</a>
</g>
</g>
<!-- Node11&#45;&gt;Node22 -->
<g id="edge23_Node000011_Node000022" class="edge">
<title>Node11&#45;&gt;Node22</title>
<g id="a_edge23_Node000011_Node000022"><a xlink:title=" ">
<path fill="none" stroke="#63b8ff" d="M246.85,-212.46C261.57,-221.71 279.92,-233.45 296,-244.38 326.07,-264.81 359.89,-289.51 381.85,-305.79"/>
<polygon fill="#63b8ff" stroke="#63b8ff" points="379.73,-308.57 389.84,-311.73 383.9,-302.95 379.73,-308.57"/>
</a>
</g>
</g>
<!-- Node23 -->
<g id="Node000023" class="node">
<title>Node23</title>
<g id="a_Node000023"><a xlink:href="kest__alloc_8c.html#a294af5728a94aa316fcf65304d388d48" target="_top" xlink:title=" ">
<polygon fill="white" stroke="#666666" points="436.88,-205.75 375.88,-205.75 375.88,-185 436.88,-185 436.88,-205.75"/>
<text xml:space="preserve" text-anchor="middle" x="406.38" y="-192.25" font-family="Helvetica,sans-Serif" font-size="10.00">kest_free</text>
</a>
</g>
</g>
<!-- Node11&#45;&gt;Node23 -->
<g id="edge25_Node000011_Node000023" class="edge">
<title>Node11&#45;&gt;Node23</title>
<g id="a_edge25_Node000011_Node000023"><a xlink:title=" ">
<path fill="none" stroke="#63b8ff" d="M270.6,-195.38C300.07,-195.38 336.58,-195.38 364.16,-195.38"/>
<polygon fill="#63b8ff" stroke="#63b8ff" points="363.87,-198.88 373.87,-195.38 363.87,-191.88 363.87,-198.88"/>
</a>
</g>
</g>
<!-- Node11&#45;&gt;Node24 -->
<g id="edge26_Node000011_Node000024" class="edge">
<title>Node11&#45;&gt;Node24</title>
<g id="a_edge26_Node000011_Node000024"><a xlink:title=" ">
<path fill="none" stroke="#63b8ff" d="M270.97,-182.17C280.32,-177.8 289.24,-172.01 296,-164.38 336.88,-118.2 288.47,-74.06 332,-30.38 333.05,-29.32 334.15,-28.32 335.29,-27.38"/>
<polygon fill="#63b8ff" stroke="#63b8ff" points="337.12,-30.36 343.52,-21.91 333.25,-24.53 337.12,-30.36"/>
</a>
</g>
</g>
<!-- Node25 -->
<g id="Node000025" class="node">
<title>Node25</title>
<g id="a_Node000025"><a xlink:href="kest__string_8c.html#a476a3ace857a6df4b94057b078a5bcb3" target="_top" xlink:title=" ">
<polygon fill="white" stroke="#666666" points="466.5,-59.75 346.25,-59.75 346.25,-39 466.5,-39 466.5,-59.75"/>
<text xml:space="preserve" text-anchor="middle" x="406.38" y="-46.25" font-family="Helvetica,sans-Serif" font-size="10.00">kest_string_to_native</text>
</a>
</g>
</g>
<!-- Node11&#45;&gt;Node25 -->
<g id="edge28_Node000011_Node000025" class="edge">
<title>Node11&#45;&gt;Node25</title>
<g id="a_edge28_Node000011_Node000025"><a xlink:title=" ">
<path fill="none" stroke="#63b8ff" d="M270.7,-181.37C279.96,-177.07 288.91,-171.51 296,-164.38 326.64,-133.51 300.33,-103.18 332,-73.38 335.26,-70.31 338.91,-67.64 342.8,-65.31"/>
<polygon fill="#63b8ff" stroke="#63b8ff" points="344.2,-68.52 351.53,-60.87 341.03,-62.28 344.2,-68.52"/>
</a>
</g>
</g>
<!-- Node12&#45;&gt;Node6 -->
<g id="edge16_Node000012_Node000006" class="edge">
<title>Node12&#45;&gt;Node6</title>
<g id="a_edge16_Node000012_Node000006"><a xlink:title=" ">
<path fill="none" stroke="#63b8ff" d="M447.73,-149.42C459.83,-156.25 472.15,-165.19 480.75,-176.38 515.99,-222.21 478.75,-257.8 516.75,-301.38 518,-302.81 519.33,-304.17 520.74,-305.46"/>
<polygon fill="#63b8ff" stroke="#63b8ff" points="518.21,-307.93 528.27,-311.24 522.47,-302.38 518.21,-307.93"/>
</a>
</g>
</g>
<!-- Node12&#45;&gt;Node12 -->
<g id="edge15_Node000012_Node000012" class="edge">
<title>Node12&#45;&gt;Node12</title>
<g id="a_edge15_Node000012_Node000012"><a xlink:title=" ">
<path fill="none" stroke="#63b8ff" d="M374.98,-149.54C369.65,-158.74 380.11,-167.12 406.38,-167.12 421.15,-167.12 430.92,-164.47 435.7,-160.51"/>
<polygon fill="#63b8ff" stroke="#63b8ff" points="439.07,-161.5 437.49,-151.03 432.19,-160.2 439.07,-161.5"/>
</a>
</g>
</g>
<!-- Node13 -->
<g id="Node000013" class="node">
<title>Node13</title>
<g id="a_Node000013"><a xlink:href="kest__alloc_8c.html#a4bb52284828149d9a740bac0c9706ecd" target="_top" xlink:title=" ">
<polygon fill="white" stroke="#666666" points="637.38,-292.75 524.62,-292.75 524.62,-272 637.38,-272 637.38,-292.75"/>
<text xml:space="preserve" text-anchor="middle" x="581" y="-279.25" font-family="Helvetica,sans-Serif" font-size="10.00">kest_allocator_alloc</text>
</a>
</g>
</g>
<!-- Node12&#45;&gt;Node13 -->
<g id="edge13_Node000012_Node000013" class="edge">
<title>Node12&#45;&gt;Node13</title>
<g id="a_edge13_Node000012_Node000013"><a xlink:title=" ">
<path fill="none" stroke="#63b8ff" d="M446.22,-149.6C458.5,-156.53 471.32,-165.48 480.75,-176.38 507.87,-207.7 486.16,-234.43 516.75,-262.38 518.15,-263.66 519.64,-264.86 521.19,-265.98"/>
<polygon fill="#63b8ff" stroke="#63b8ff" points="518.98,-268.74 529.37,-270.83 522.55,-262.72 518.98,-268.74"/>
</a>
</g>
</g>
<!-- Node15 -->
<g id="Node000015" class="node">
<title>Node15</title>
<g id="a_Node000015"><a xlink:href="kest__string_8c.html#a2f2e64515d872efab6ae1974554b5d5c" target="_top" xlink:title=" ">
<polygon fill="white" stroke="#666666" points="636.25,-214.75 525.75,-214.75 525.75,-194 636.25,-194 636.25,-214.75"/>
<text xml:space="preserve" text-anchor="middle" x="581" y="-201.25" font-family="Helvetica,sans-Serif" font-size="10.00">kest_string_append</text>
</a>
</g>
</g>
<!-- Node12&#45;&gt;Node15 -->
<g id="edge17_Node000012_Node000015" class="edge">
<title>Node12&#45;&gt;Node15</title>
<g id="a_edge17_Node000012_Node000015"><a xlink:title=" ">
<path fill="none" stroke="#63b8ff" d="M440.36,-149.52C461.8,-160.29 490.53,-174.05 516.75,-184.38 521.71,-186.33 526.95,-188.23 532.2,-190.03"/>
<polygon fill="#63b8ff" stroke="#63b8ff" points="530.88,-193.28 541.47,-193.11 533.08,-186.64 530.88,-193.28"/>
</a>
</g>
</g>
<!-- Node16 -->
<g id="Node000016" class="node">
<title>Node16</title>
<g id="a_Node000016"><a xlink:href="kest__string_8c.html#a5e8184b1f070fc74a7d1d2f08c4d9658" target="_top" xlink:title=" ">
<polygon fill="#fff0f0" stroke="red" points="638.12,-175.75 523.88,-175.75 523.88,-155 638.12,-155 638.12,-175.75"/>
<text xml:space="preserve" text-anchor="middle" x="581" y="-162.25" font-family="Helvetica,sans-Serif" font-size="10.00">kest_string_appendf</text>
</a>
</g>
</g>
<!-- Node12&#45;&gt;Node16 -->
<g id="edge18_Node000012_Node000016" class="edge">
<title>Node12&#45;&gt;Node16</title>
<g id="a_edge18_Node000012_Node000016"><a xlink:title=" ">
<path fill="none" stroke="#63b8ff" d="M459.17,-142.28C475.87,-145.47 494.63,-149.05 512.3,-152.43"/>
<polygon fill="#63b8ff" stroke="#63b8ff" points="511.46,-155.84 521.94,-154.28 512.77,-148.96 511.46,-155.84"/>
</a>
</g>
</g>
<!-- Node18 -->
<g id="Node000018" class="node">
<title>Node18</title>
<g id="a_Node000018"><a xlink:href="kest__string_8c.html#a0b1566bbaac339c306b950a97f9e81fc" target="_top" xlink:title=" ">
<polygon fill="white" stroke="#666666" points="634.38,-136.75 527.62,-136.75 527.62,-116 634.38,-116 634.38,-136.75"/>
<text xml:space="preserve" text-anchor="middle" x="581" y="-123.25" font-family="Helvetica,sans-Serif" font-size="10.00">kest_string_concat</text>
</a>
</g>
</g>
<!-- Node12&#45;&gt;Node18 -->
<g id="edge19_Node000012_Node000018" class="edge">
<title>Node12&#45;&gt;Node18</title>
<g id="a_edge19_Node000012_Node000018"><a xlink:title=" ">
<path fill="none" stroke="#63b8ff" d="M459.17,-130.57C477.01,-129.95 497.22,-129.25 515.93,-128.6"/>
<polygon fill="#63b8ff" stroke="#63b8ff" points="515.96,-132.1 525.84,-128.26 515.72,-125.11 515.96,-132.1"/>
</a>
</g>
</g>
<!-- Node12&#45;&gt;Node19 -->
<g id="edge20_Node000012_Node000019" class="edge">
<title>Node12&#45;&gt;Node19</title>
<g id="a_edge20_Node000012_Node000019"><a xlink:title=" ">
<path fill="none" stroke="#63b8ff" d="M459.17,-118.87C480.73,-113.25 505.74,-106.73 527.39,-101.09"/>
<polygon fill="#63b8ff" stroke="#63b8ff" points="528.11,-104.52 536.91,-98.61 526.35,-97.74 528.11,-104.52"/>
</a>
</g>
</g>
<!-- Node20 -->
<g id="Node000020" class="node">
<title>Node20</title>
<g id="a_Node000020"><a xlink:href="kest__string_8c.html#ab74edc9a2be32d899a92ef58edb16286" target="_top" xlink:title=" ">
<polygon fill="white" stroke="#666666" points="626.12,-253.75 535.88,-253.75 535.88,-233 626.12,-233 626.12,-253.75"/>
<text xml:space="preserve" text-anchor="middle" x="581" y="-240.25" font-family="Helvetica,sans-Serif" font-size="10.00">kest_string_init</text>
</a>
</g>
</g>
<!-- Node12&#45;&gt;Node20 -->
<g id="edge21_Node000012_Node000020" class="edge">
<title>Node12&#45;&gt;Node20</title>
<g id="a_edge21_Node000012_Node000020"><a xlink:title=" ">
<path fill="none" stroke="#63b8ff" d="M442.07,-149.61C454.95,-156.9 469.23,-166.09 480.75,-176.38 500.38,-193.9 495.21,-208.26 516.75,-223.38 519.4,-225.24 522.23,-226.93 525.18,-228.47"/>
<polygon fill="#63b8ff" stroke="#63b8ff" points="523.56,-231.58 534.11,-232.51 526.44,-225.2 523.56,-231.58"/>
</a>
</g>
</g>
<!-- Node14 -->
<g id="Node000014" class="node">
<title>Node14</title>
<g id="a_Node000014"><a xlink:href="kest__alloc_8c.html#a849755c5dc5b35e712ffcdb602e50fb4" target="_top" xlink:title=" ">
<polygon fill="white" stroke="#666666" points="785,-176.75 720.25,-176.75 720.25,-156 785,-156 785,-176.75"/>
<text xml:space="preserve" text-anchor="middle" x="752.62" y="-163.25" font-family="Helvetica,sans-Serif" font-size="10.00">kest_alloc</text>
</a>
</g>
</g>
<!-- Node13&#45;&gt;Node14 -->
<g id="edge14_Node000013_Node000014" class="edge">
<title>Node13&#45;&gt;Node14</title>
<g id="a_edge14_Node000013_Node000014"><a xlink:title=" ">
<path fill="none" stroke="#63b8ff" d="M624.91,-271.56C631.93,-269.02 638.95,-265.98 645.25,-262.38 681.32,-241.71 715.63,-207.11 735.11,-185.58"/>
<polygon fill="#63b8ff" stroke="#63b8ff" points="737.49,-188.17 741.5,-178.36 732.25,-183.53 737.49,-188.17"/>
</a>
</g>
</g>
<!-- Node22&#45;&gt;Node3 -->
<g id="edge24_Node000022_Node000003" class="edge">
<title>Node22&#45;&gt;Node3</title>
<g id="a_edge24_Node000022_Node000003"><a xlink:title=" ">
<path fill="none" stroke="#63b8ff" d="M432.85,-334.15C462.3,-346.6 510.97,-367.19 544.22,-381.24"/>
<polygon fill="#63b8ff" stroke="#63b8ff" points="542.46,-384.3 553.03,-384.97 545.18,-377.85 542.46,-384.3"/>
</a>
</g>
</g>
<!-- Node25&#45;&gt;Node14 -->
<g id="edge29_Node000025_Node000014" class="edge">
<title>Node25&#45;&gt;Node14</title>
<g id="a_edge29_Node000025_Node000014"><a xlink:title=" ">
<path fill="none" stroke="#63b8ff" d="M466.66,-43.65C516.43,-41.24 588.31,-43.49 645.25,-68.38 684.51,-85.53 718.69,-123.35 737.12,-146.67"/>
<polygon fill="#63b8ff" stroke="#63b8ff" points="734.24,-148.67 743.11,-154.47 739.8,-144.41 734.24,-148.67"/>
</a>
</g>
</g>
<!-- Node26&#45;&gt;Node13 -->
<g id="edge31_Node000026_Node000013" class="edge">
<title>Node26&#45;&gt;Node13</title>
<g id="a_edge31_Node000026_Node000013"><a xlink:title=" ">
<path fill="none" stroke="#63b8ff" d="M269.03,-266C332.38,-269.33 442.06,-275.11 512.79,-278.83"/>
<polygon fill="#63b8ff" stroke="#63b8ff" points="512.54,-282.33 522.71,-279.36 512.91,-275.34 512.54,-282.33"/>
</a>
</g>
</g>
</g>
</svg>
