<?xml version="1.0" encoding="UTF-8" standalone="no"?>
<!DOCTYPE svg PUBLIC "-//W3C//DTD SVG 1.1//EN"
 "http://www.w3.org/Graphics/SVG/1.1/DTD/svg11.dtd">
<!-- Generated by graphviz version 13.1.2 (20250808.2320)
 -->
<!-- Title: init_flanger Pages: 1 -->
<svg width="544pt" height="152pt"
 viewBox="0.00 0.00 544.00 152.00" xmlns="http://www.w3.org/2000/svg" xmlns:xlink="http://www.w3.org/1999/xlink">
<g id="graph0" class="graph" transform="scale(1 1) rotate(0) translate(4 148.12)">
<title>init_flanger</title>
<!-- Node1 -->
<g id="Node000001" class="node">
<title>Node1</title>
<g id="a_Node000001"><a xlink:title=" ">
<polygon fill="#999999" stroke="#666666" points="71.5,-59.75 0,-59.75 0,-39 71.5,-39 71.5,-59.75"/>
<text xml:space="preserve" text-anchor="middle" x="35.75" y="-46.25" font-family="Helvetica,sans-Serif" font-size="10.00">init_flanger</text>
</a>
</g>
</g>
<!-- Node2 -->
<g id="Node000002" class="node">
<title>Node2</title>
<g id="a_Node000002"><a xlink:href="kest__effect_8c.html#a8dc8fceab7f835d960ea95e4f21fe327" target="_top" xlink:title=" ">
<polygon fill="white" stroke="#666666" points="231.5,-98.75 107.5,-98.75 107.5,-78 231.5,-78 231.5,-98.75"/>
<text xml:space="preserve" text-anchor="middle" x="169.5" y="-85.25" font-family="Helvetica,sans-Serif" font-size="10.00">effect_add_parameter</text>
</a>
</g>
</g>
<!-- Node1&#45;&gt;Node2 -->
<g id="edge1_Node000001_Node000002" class="edge">
<title>Node1&#45;&gt;Node2</title>
<g id="a_edge1_Node000001_Node000002"><a xlink:title=" ">
<path fill="none" stroke="#63b8ff" d="M71.71,-59.72C86.82,-64.2 104.74,-69.5 121.03,-74.32"/>
<polygon fill="#63b8ff" stroke="#63b8ff" points="119.96,-77.66 130.54,-77.14 121.95,-70.94 119.96,-77.66"/>
</a>
</g>
</g>
<!-- Node7 -->
<g id="Node000007" class="node">
<title>Node7</title>
<g id="a_Node000007"><a xlink:href="kest__alloc_8c.html#a849755c5dc5b35e712ffcdb602e50fb4" target="_top" xlink:title=" ">
<polygon fill="white" stroke="#666666" points="352.88,-20.75 288.12,-20.75 288.12,0 352.88,0 352.88,-20.75"/>
<text xml:space="preserve" text-anchor="middle" x="320.5" y="-7.25" font-family="Helvetica,sans-Serif" font-size="10.00">kest_alloc</text>
</a>
</g>
</g>
<!-- Node1&#45;&gt;Node7 -->
<g id="edge11_Node000001_Node000007" class="edge">
<title>Node1&#45;&gt;Node7</title>
<g id="a_edge11_Node000001_Node000007"><a xlink:title=" ">
<path fill="none" stroke="#63b8ff" d="M71.75,-38.72C83.07,-35.62 95.73,-32.49 107.5,-30.38 165.37,-19.95 233.16,-14.76 276.21,-12.32"/>
<polygon fill="#63b8ff" stroke="#63b8ff" points="276.36,-15.82 286.16,-11.79 275.98,-8.83 276.36,-15.82"/>
</a>
</g>
</g>
<!-- Node9 -->
<g id="Node000009" class="node">
<title>Node9</title>
<g id="a_Node000009"><a xlink:href="kest__effect_8c.html#abf12c30daf8ca1ac113eca5f22723cf7" target="_top" xlink:title=" ">
<polygon fill="white" stroke="#666666" points="222.88,-59.75 116.12,-59.75 116.12,-39 222.88,-39 222.88,-59.75"/>
<text xml:space="preserve" text-anchor="middle" x="169.5" y="-46.25" font-family="Helvetica,sans-Serif" font-size="10.00">effect_add_setting</text>
</a>
</g>
</g>
<!-- Node1&#45;&gt;Node9 -->
<g id="edge6_Node000001_Node000009" class="edge">
<title>Node1&#45;&gt;Node9</title>
<g id="a_edge6_Node000001_Node000009"><a xlink:title=" ">
<path fill="none" stroke="#63b8ff" d="M71.71,-49.38C81.83,-49.38 93.21,-49.38 104.51,-49.38"/>
<polygon fill="#63b8ff" stroke="#63b8ff" points="104.23,-52.88 114.23,-49.38 104.23,-45.88 104.23,-52.88"/>
</a>
</g>
</g>
<!-- Node3 -->
<g id="Node000003" class="node">
<title>Node3</title>
<g id="a_Node000003"><a xlink:href="kest__parameter_8c.html#a41fafa04c21a8ab5916a8ceb5442d99a" target="_top" xlink:title=" ">
<polygon fill="white" stroke="#666666" points="373.5,-137.75 267.5,-137.75 267.5,-117 373.5,-117 373.5,-137.75"/>
<text xml:space="preserve" text-anchor="middle" x="320.5" y="-124.25" font-family="Helvetica,sans-Serif" font-size="10.00">init_parameter_str</text>
</a>
</g>
</g>
<!-- Node2&#45;&gt;Node3 -->
<g id="edge2_Node000002_Node000003" class="edge">
<title>Node2&#45;&gt;Node3</title>
<g id="a_edge2_Node000002_Node000003"><a xlink:title=" ">
<path fill="none" stroke="#63b8ff" d="M212,-99.24C229.05,-103.7 248.98,-108.92 267.02,-113.64"/>
<polygon fill="#63b8ff" stroke="#63b8ff" points="265.94,-116.97 276.5,-116.12 267.71,-110.2 265.94,-116.97"/>
</a>
</g>
</g>
<!-- Node2&#45;&gt;Node7 -->
<g id="edge4_Node000002_Node000007" class="edge">
<title>Node2&#45;&gt;Node7</title>
<g id="a_edge4_Node000002_Node000007"><a xlink:title=" ">
<path fill="none" stroke="#63b8ff" d="M212.76,-77.57C219.29,-75.05 225.76,-72.01 231.5,-68.38 251.15,-55.93 248.17,-43.31 267.5,-30.38 270.59,-28.3 273.93,-26.4 277.38,-24.67"/>
<polygon fill="#63b8ff" stroke="#63b8ff" points="278.79,-27.87 286.48,-20.58 275.92,-21.48 278.79,-27.87"/>
</a>
</g>
</g>
<!-- Node8 -->
<g id="Node000008" class="node">
<title>Node8</title>
<g id="a_Node000008"><a xlink:href="kest__alloc_8c.html#a294af5728a94aa316fcf65304d388d48" target="_top" xlink:title=" ">
<polygon fill="white" stroke="#666666" points="351,-98.75 290,-98.75 290,-78 351,-78 351,-98.75"/>
<text xml:space="preserve" text-anchor="middle" x="320.5" y="-85.25" font-family="Helvetica,sans-Serif" font-size="10.00">kest_free</text>
</a>
</g>
</g>
<!-- Node2&#45;&gt;Node8 -->
<g id="edge5_Node000002_Node000008" class="edge">
<title>Node2&#45;&gt;Node8</title>
<g id="a_edge5_Node000002_Node000008"><a xlink:title=" ">
<path fill="none" stroke="#63b8ff" d="M231.96,-88.38C247.5,-88.38 263.81,-88.38 278.09,-88.38"/>
<polygon fill="#63b8ff" stroke="#63b8ff" points="278.02,-91.88 288.02,-88.38 278.02,-84.88 278.02,-91.88"/>
</a>
</g>
</g>
<!-- Node4 -->
<g id="Node000004" class="node">
<title>Node4</title>
<g id="a_Node000004"><a xlink:href="kest__parameter_8c.html#abff5b0dd3ed907207191aa6079c514eb" target="_top" xlink:title=" ">
<polygon fill="#fff0f0" stroke="red" points="535.75,-144.12 409.5,-144.12 409.5,-110.62 535.75,-110.62 535.75,-144.12"/>
<text xml:space="preserve" text-anchor="start" x="417.5" y="-130.62" font-family="Helvetica,sans-Serif" font-size="10.00">kest_parameter_effect</text>
<text xml:space="preserve" text-anchor="middle" x="472.62" y="-117.88" font-family="Helvetica,sans-Serif" font-size="10.00">_rep_update</text>
</a>
</g>
</g>
<!-- Node3&#45;&gt;Node4 -->
<g id="edge3_Node000003_Node000004" class="edge">
<title>Node3&#45;&gt;Node4</title>
<g id="a_edge3_Node000003_Node000004"><a xlink:title=" ">
<path fill="none" stroke="#63b8ff" d="M373.59,-127.38C381.36,-127.38 389.49,-127.38 397.61,-127.38"/>
<polygon fill="#63b8ff" stroke="#63b8ff" points="397.52,-130.88 407.52,-127.38 397.52,-123.88 397.52,-130.88"/>
</a>
</g>
</g>
<!-- Node9&#45;&gt;Node7 -->
<g id="edge9_Node000009_Node000007" class="edge">
<title>Node9&#45;&gt;Node7</title>
<g id="a_edge9_Node000009_Node000007"><a xlink:title=" ">
<path fill="none" stroke="#63b8ff" d="M212,-38.51C232.2,-33.22 256.46,-26.88 276.81,-21.55"/>
<polygon fill="#63b8ff" stroke="#63b8ff" points="277.41,-25.01 286.2,-19.09 275.64,-18.24 277.41,-25.01"/>
</a>
</g>
</g>
<!-- Node9&#45;&gt;Node8 -->
<g id="edge10_Node000009_Node000008" class="edge">
<title>Node9&#45;&gt;Node8</title>
<g id="a_edge10_Node000009_Node000008"><a xlink:title=" ">
<path fill="none" stroke="#63b8ff" d="M212,-60.24C232.78,-65.68 257.85,-72.24 278.56,-77.66"/>
<polygon fill="#63b8ff" stroke="#63b8ff" points="277.53,-81.01 288.09,-80.15 279.3,-74.23 277.53,-81.01"/>
</a>
</g>
</g>
<!-- Node10 -->
<g id="Node000010" class="node">
<title>Node10</title>
<g id="a_Node000010"><a xlink:href="kest__parameter_8c.html#a7c270a293ab879d0d3e757625c7c7dda" target="_top" xlink:title=" ">
<polygon fill="white" stroke="#666666" points="364.88,-59.75 276.12,-59.75 276.12,-39 364.88,-39 364.88,-59.75"/>
<text xml:space="preserve" text-anchor="middle" x="320.5" y="-46.25" font-family="Helvetica,sans-Serif" font-size="10.00">init_setting_str</text>
</a>
</g>
</g>
<!-- Node9&#45;&gt;Node10 -->
<g id="edge7_Node000009_Node000010" class="edge">
<title>Node9&#45;&gt;Node10</title>
<g id="a_edge7_Node000009_Node000010"><a xlink:title=" ">
<path fill="none" stroke="#63b8ff" d="M223.03,-49.38C236.52,-49.38 251.05,-49.38 264.65,-49.38"/>
<polygon fill="#63b8ff" stroke="#63b8ff" points="264.3,-52.88 274.3,-49.38 264.3,-45.88 264.3,-52.88"/>
</a>
</g>
</g>
<!-- Node11 -->
<g id="Node000011" class="node">
<title>Node11</title>
<g id="a_Node000011"><a xlink:href="kest__parameter_8c.html#a3c9f839cffc5f0a9b0630682ce8e9b9c" target="_top" xlink:title=" ">
<polygon fill="#fff0f0" stroke="red" points="527.12,-66.12 418.12,-66.12 418.12,-32.62 527.12,-32.62 527.12,-66.12"/>
<text xml:space="preserve" text-anchor="start" x="426.12" y="-52.62" font-family="Helvetica,sans-Serif" font-size="10.00">kest_setting_effect</text>
<text xml:space="preserve" text-anchor="middle" x="472.62" y="-39.88" font-family="Helvetica,sans-Serif" font-size="10.00">_rep_update</text>
</a>
</g>
</g>
<!-- Node10&#45;&gt;Node11 -->
<g id="edge8_Node000010_Node000011" class="edge">
<title>Node10&#45;&gt;Node11</title>
<g id="a_edge8_Node000010_Node000011"><a xlink:title=" ">
<path fill="none" stroke="#63b8ff" d="M365.33,-49.38C378.17,-49.38 392.5,-49.38 406.38,-49.38"/>
<polygon fill="#63b8ff" stroke="#63b8ff" points="406.38,-52.88 416.37,-49.38 406.37,-45.88 406.38,-52.88"/>
</a>
</g>
</g>
</g>
</svg>
