<?xml version="1.0" encoding="UTF-8" standalone="no"?>
<!DOCTYPE svg PUBLIC "-//W3C//DTD SVG 1.1//EN"
 "http://www.w3.org/Graphics/SVG/1.1/DTD/svg11.dtd">
<!-- Generated by graphviz version 13.1.2 (20250808.2320)
 -->
<!-- Title: kest_active_button_glide_cb Pages: 1 -->
<!--zoomable 146 -->

<svg id="main" version="1.1" xmlns="http://www.w3.org/2000/svg" xmlns:xlink="http://www.w3.org/1999/xlink" xml:space="preserve" onload="init(evt)">

<style type="text/css"><![CDATA[
.node, .edge {opacity: 0.7;}
.node.selected, .edge.selected {opacity: 1;}
.edge:hover path { stroke: red; }
.edge:hover polygon { stroke: red; fill: red; }
]]></style>

<defs>
  <circle id="rim" cx="0" cy="0" r="7"/>
  <circle id="rim2" cx="0" cy="0" r="3.5"/>
  <g id="zoomPlus">
    <use xlink:href="#rim" fill="#404040"><set attributeName="fill" to="#808080" begin="zoomplus.mouseover" end="zoomplus.mouseout"/></use>
    <path d="M-4,0h8M0,-4v8" fill="none" stroke="white" stroke-width="1.5" pointer-events="none"/>
  </g>
  <g id="zoomMin">
    <use xlink:href="#rim" fill="#404040"><set attributeName="fill" to="#808080" begin="zoomminus.mouseover" end="zoomminus.mouseout"/></use>
    <path d="M-4,0h8" fill="none" stroke="white" stroke-width="1.5" pointer-events="none"/>
  </g>
  <g id="arrowUp" transform="translate(30 24)">
    <use xlink:href="#rim"/>
    <path pointer-events="none" fill="none" stroke="white" stroke-width="1.5" d="M0,-3.0v7 M-2.5,-0.5L0,-3.0L2.5,-0.5"/>
  </g>
  <g id="arrowRight" transform="rotate(90) translate(36 -43)">
    <use xlink:href="#rim"/>
    <path pointer-events="none" fill="none" stroke="white" stroke-width="1.5" d="M0,-3.0v7 M-2.5,-0.5L0,-3.0L2.5,-0.5"/>
  </g>
  <g id="arrowDown" transform="rotate(180) translate(-30 -48)">
    <use xlink:href="#rim"/>
    <path pointer-events="none" fill="none" stroke="white" stroke-width="1.5" d="M0,-3.0v7 M-2.5,-0.5L0,-3.0L2.5,-0.5"/>
  </g>
  <g id="arrowLeft" transform="rotate(270) translate(-36 17)">
    <use xlink:href="#rim"/>
    <path pointer-events="none" fill="none" stroke="white" stroke-width="1.5" d="M0,-3.0v7 M-2.5,-0.5L0,-3.0L2.5,-0.5"/>
  </g>
  <g id="resetDef">
    <use xlink:href="#rim2" fill="#404040"><set attributeName="fill" to="#808080" begin="reset.mouseover" end="reset.mouseout"/></use>
  </g>
</defs>
<script type="application/ecmascript">
var viewWidth = 554;
var viewHeight = 146;
var sectionId = 'dynsection-47';
</script>
<script type="application/ecmascript" xlink:href="svg.min.js"/>
<svg id="graph" class="graph">
<g id="viewport">
<title>kest_active_button_glide_cb</title>
<!-- Node1 -->
<g id="Node000001" class="node">
<title>Node1</title>
<g id="a_Node000001"><a xlink:title=" ">
<polygon fill="#999999" stroke="#666666" points="545.5,-111.5 437.25,-111.5 437.25,-78 545.5,-78 545.5,-111.5"/>
<text xml:space="preserve" text-anchor="start" x="445.25" y="-98" font-family="Helvetica,sans-Serif" font-size="10.00">kest_active_button</text>
<text xml:space="preserve" text-anchor="middle" x="491.38" y="-85.25" font-family="Helvetica,sans-Serif" font-size="10.00">_glide_cb</text>
</a>
</g>
</g>
<!-- Node2 -->
<g id="Node000002" class="node">
<title>Node2</title>
<g id="a_Node000002"><a xlink:href="kest__button_8c.html#a84592332a7993043a8ad256687eebf22" target="_top" xlink:title=" ">
<polygon fill="white" stroke="#666666" points="401.25,-111.5 288.5,-111.5 288.5,-78 401.25,-78 401.25,-111.5"/>
<text xml:space="preserve" text-anchor="start" x="296.5" y="-98" font-family="Helvetica,sans-Serif" font-size="10.00">kest_active_button</text>
<text xml:space="preserve" text-anchor="middle" x="344.88" y="-85.25" font-family="Helvetica,sans-Serif" font-size="10.00">_trigger_glide_anim</text>
</a>
</g>
</g>
<!-- Node1&#45;&gt;Node2 -->
<g id="edge1_Node000001_Node000002" class="edge">
<title>Node1&#45;&gt;Node2</title>
<g id="a_edge1_Node000001_Node000002"><a xlink:title=" ">
<path fill="none" stroke="#63b8ff" d="M425.68,-94.75C417.6,-94.75 409.4,-94.75 401.47,-94.75"/>
<polygon fill="#63b8ff" stroke="#63b8ff" points="425.47,-98.25 435.47,-94.75 425.47,-91.25 425.47,-98.25"/>
</a>
</g>
</g>
<!-- Node3 -->
<g id="Node000003" class="node">
<title>Node3</title>
<g id="a_Node000003"><a xlink:href="kest__button_8c.html#a3fb7060eaac68b92b53a175e004f0281" target="_top" xlink:title=" ">
<polygon fill="white" stroke="#666666" points="252.5,-137.5 144.25,-137.5 144.25,-104 252.5,-104 252.5,-137.5"/>
<text xml:space="preserve" text-anchor="start" x="152.25" y="-124" font-family="Helvetica,sans-Serif" font-size="10.00">kest_active_button</text>
<text xml:space="preserve" text-anchor="middle" x="198.38" y="-111.25" font-family="Helvetica,sans-Serif" font-size="10.00">_force_index</text>
</a>
</g>
</g>
<!-- Node2&#45;&gt;Node3 -->
<g id="edge2_Node000002_Node000003" class="edge">
<title>Node2&#45;&gt;Node3</title>
<g id="a_edge2_Node000002_Node000003"><a xlink:title=" ">
<path fill="none" stroke="#63b8ff" d="M276.72,-106.83C268.67,-108.28 260.54,-109.74 252.72,-111.15"/>
<polygon fill="#63b8ff" stroke="#63b8ff" points="277.3,-110.29 286.52,-105.07 276.06,-103.4 277.3,-110.29"/>
</a>
</g>
</g>
<!-- Node36 -->
<g id="Node000036" class="node">
<title>Node36</title>
<g id="a_Node000036"><a xlink:href="kest__button_8c.html#a69c55e9f6142d27a7c4c7cd257041efa" target="_top" xlink:title=" ">
<polygon fill="white" stroke="#666666" points="252.5,-85.5 144.25,-85.5 144.25,-52 252.5,-52 252.5,-85.5"/>
<text xml:space="preserve" text-anchor="start" x="152.25" y="-72" font-family="Helvetica,sans-Serif" font-size="10.00">kest_active_button</text>
<text xml:space="preserve" text-anchor="middle" x="198.38" y="-59.25" font-family="Helvetica,sans-Serif" font-size="10.00">_set_index</text>
</a>
</g>
</g>
<!-- Node2&#45;&gt;Node36 -->
<g id="edge4_Node000002_Node000036" class="edge">
<title>Node2&#45;&gt;Node36</title>
<g id="a_edge4_Node000002_Node000036"><a xlink:title=" ">
<path fill="none" stroke="#63b8ff" d="M276.72,-82.67C268.67,-81.22 260.54,-79.76 252.72,-78.35"/>
<polygon fill="#63b8ff" stroke="#63b8ff" points="276.06,-86.1 286.52,-84.43 277.3,-79.21 276.06,-86.1"/>
</a>
</g>
</g>
<!-- Node4 -->
<g id="Node000004" class="node">
<title>Node4</title>
<g id="a_Node000004"><a xlink:href="kest__button_8c.html#abd7f68ebcde411086bd7fa11eb96564b" target="_top" xlink:title=" ">
<polygon fill="#fff0f0" stroke="red" points="108.25,-137.5 0,-137.5 0,-104 108.25,-104 108.25,-137.5"/>
<text xml:space="preserve" text-anchor="start" x="8" y="-124" font-family="Helvetica,sans-Serif" font-size="10.00">kest_active_button</text>
<text xml:space="preserve" text-anchor="middle" x="54.12" y="-111.25" font-family="Helvetica,sans-Serif" font-size="10.00">_release_cb</text>
</a>
</g>
</g>
<!-- Node3&#45;&gt;Node4 -->
<g id="edge3_Node000003_Node000004" class="edge">
<title>Node3&#45;&gt;Node4</title>
<g id="a_edge3_Node000003_Node000004"><a xlink:title=" ">
<path fill="none" stroke="#63b8ff" d="M132.63,-120.75C124.49,-120.75 116.25,-120.75 108.32,-120.75"/>
<polygon fill="#63b8ff" stroke="#63b8ff" points="132.49,-124.25 142.49,-120.75 132.49,-117.25 132.49,-124.25"/>
</a>
</g>
</g>
<!-- Node37 -->
<g id="Node000037" class="node">
<title>Node37</title>
<g id="a_Node000037"><a xlink:href="kest__button_8c.html#afeb80361807e202da0343dedeff8aa66" target="_top" xlink:title=" ">
<polygon fill="#fff0f0" stroke="red" points="108.25,-85.5 0,-85.5 0,-52 108.25,-52 108.25,-85.5"/>
<text xml:space="preserve" text-anchor="start" x="8" y="-72" font-family="Helvetica,sans-Serif" font-size="10.00">kest_active_button</text>
<text xml:space="preserve" text-anchor="middle" x="54.12" y="-59.25" font-family="Helvetica,sans-Serif" font-size="10.00">_array_remove</text>
</a>
</g>
</g>
<!-- Node36&#45;&gt;Node37 -->
<g id="edge5_Node000036_Node000037" class="edge">
<title>Node36&#45;&gt;Node37</title>
<g id="a_edge5_Node000036_Node000037"><a xlink:title=" ">
<path fill="none" stroke="#63b8ff" d="M132.63,-68.75C124.49,-68.75 116.25,-68.75 108.32,-68.75"/>
<polygon fill="#63b8ff" stroke="#63b8ff" points="132.49,-72.25 142.49,-68.75 132.49,-65.25 132.49,-72.25"/>
</a>
</g>
</g>
<!-- Node42 -->
<g id="Node000042" class="node">
<title>Node42</title>
<g id="a_Node000042"><a xlink:href="kest__button_8c.html#a5e8684adc8c5fbe7944b7cc188cd7b2c" target="_top" xlink:title=" ">
<polygon fill="#fff0f0" stroke="red" points="108.25,-33.5 0,-33.5 0,0 108.25,0 108.25,-33.5"/>
<text xml:space="preserve" text-anchor="start" x="8" y="-20" font-family="Helvetica,sans-Serif" font-size="10.00">kest_active_button</text>
<text xml:space="preserve" text-anchor="middle" x="54.12" y="-7.25" font-family="Helvetica,sans-Serif" font-size="10.00">_pressing_cb</text>
</a>
</g>
</g>
<!-- Node36&#45;&gt;Node42 -->
<g id="edge6_Node000036_Node000042" class="edge">
<title>Node36&#45;&gt;Node42</title>
<g id="a_edge6_Node000036_Node000042"><a xlink:title=" ">
<path fill="none" stroke="#63b8ff" d="M139.61,-47.64C127.12,-43.07 114.06,-38.29 102.05,-33.9"/>
<polygon fill="#63b8ff" stroke="#63b8ff" points="138.39,-50.91 148.98,-51.06 140.79,-44.34 138.39,-50.91"/>
</a>
</g>
</g>
</g>
</svg>

<g id="navigator" transform="translate(0 0)" fill="#404254">
  <rect fill="#f2f5e9" fill-opacity="0.5" stroke="#606060" stroke-width=".5" x="0" y="0" width="60" height="60"/>
  <use id="zoomplus" xlink:href="#zoomPlus" x="17" y="9" onmousedown="handleZoom(evt,'in')"/>
  <use id="zoomminus" xlink:href="#zoomMin" x="42" y="9" onmousedown="handleZoom(evt,'out')"/>
  <use id="reset" xlink:href="#resetDef" x="30" y="36" onmousedown="handleReset()"/>
   <use id="arrowup" xlink:href="#arrowUp" x="0" y="0" onmousedown="handlePan(0,-1)"/>
  <use id="arrowright" xlink:href="#arrowRight" x="0" y="0" onmousedown="handlePan(1,0)"/>
  <use id="arrowdown" xlink:href="#arrowDown" x="0" y="0" onmousedown="handlePan(0,1)"/>
  <use id="arrowleft" xlink:href="#arrowLeft" x="0" y="0" onmousedown="handlePan(-1,0)"/>
</g>
<svg viewBox="0 0 15 15" width="100%" height="30px" preserveAspectRatio="xMaxYMin meet">
 <g id="arrow_out" transform="scale(0.3 0.3)">
  <a xlink:href="kest__button_8c_aae2ed0f7571e54b9c3e1a7c75a22c6d9_icgraph_org.svg" target="_base">
   <rect id="button" ry="5" rx="5" y="6" x="6" height="38" width="38"
        fill="#f2f5e9" fill-opacity="0.5" stroke="#606060" stroke-width="1.0"/>
   <path id="arrow"
     d="M 11.500037,31.436501 C 11.940474,20.09759 22.043105,11.32322 32.158766,21.979434 L 37.068811,17.246167 C 37.068811,17.246167 37.088388,32 37.088388,32 L 22.160133,31.978069 C 22.160133,31.978069 26.997745,27.140456 26.997745,27.140456 C 18.528582,18.264221 13.291696,25.230495 11.500037,31.436501 z"
     style="fill:#404040;"/>
  </a>
 </g>
</svg>

<style type='text/css'>
<![CDATA[
[data-mouse-over-selected='false'] { opacity: 0.7; }
[data-mouse-over-selected='true']  { opacity: 1.0; }
]]>
</style>
<script type="application/ecmascript"><![CDATA[
document.addEventListener('DOMContentLoaded', (event) => {
  highlightEdges();
  highlightAdjacentNodes();
});
]]></script>
</svg>
