<?xml version="1.0" encoding="UTF-8" standalone="no"?>
<!DOCTYPE svg PUBLIC "-//W3C//DTD SVG 1.1//EN"
 "http://www.w3.org/Graphics/SVG/1.1/DTD/svg11.dtd">
<!-- Generated by graphviz version 13.1.2 (20250808.2320)
 -->
<!-- Title: parameter_widget_update_value Pages: 1 -->
<svg width="894pt" height="432pt"
 viewBox="0.00 0.00 894.00 432.00" xmlns="http://www.w3.org/2000/svg" xmlns:xlink="http://www.w3.org/1999/xlink">
<g id="graph0" class="graph" transform="scale(1 1) rotate(0) translate(4 428.12)">
<title>parameter_widget_update_value</title>
<!-- Node1 -->
<g id="Node000001" class="node">
<title>Node1</title>
<g id="a_Node000001"><a xlink:title=" ">
<polygon fill="#999999" stroke="#666666" points="885.5,-225.5 741.25,-225.5 741.25,-192 885.5,-192 885.5,-225.5"/>
<text xml:space="preserve" text-anchor="start" x="749.25" y="-212" font-family="Helvetica,sans-Serif" font-size="10.00">parameter_widget_update</text>
<text xml:space="preserve" text-anchor="middle" x="813.38" y="-199.25" font-family="Helvetica,sans-Serif" font-size="10.00">_value</text>
</a>
</g>
</g>
<!-- Node2 -->
<g id="Node000002" class="node">
<title>Node2</title>
<g id="a_Node000002"><a xlink:href="kest__parameter__widget_8c.html#a1590cd4e080ed869e0372fef1a233085" target="_top" xlink:title=" ">
<polygon fill="white" stroke="#666666" points="697.38,-302.12 551.62,-302.12 551.62,-281.38 697.38,-281.38 697.38,-302.12"/>
<text xml:space="preserve" text-anchor="middle" x="624.5" y="-288.62" font-family="Helvetica,sans-Serif" font-size="10.00">param_widget_rep_update</text>
</a>
</g>
</g>
<!-- Node1&#45;&gt;Node2 -->
<g id="edge1_Node000001_Node000002" class="edge">
<title>Node1&#45;&gt;Node2</title>
<g id="a_edge1_Node000001_Node000002"><a xlink:title=" ">
<path fill="none" stroke="#63b8ff" d="M763.22,-230.58C726.74,-246.78 678.55,-268.19 649.91,-280.91"/>
<polygon fill="#63b8ff" stroke="#63b8ff" points="764.55,-233.82 772.27,-226.56 761.71,-227.42 764.55,-233.82"/>
</a>
</g>
</g>
<!-- Node15 -->
<g id="Node000015" class="node">
<title>Node15</title>
<g id="a_Node000015"><a xlink:href="kest__parameter__widget_8c.html#a275a44ab81e73412a3c3da5597906fcc" target="_top" xlink:title=" ">
<polygon fill="white" stroke="#666666" points="695.12,-225.5 553.88,-225.5 553.88,-192 695.12,-192 695.12,-225.5"/>
<text xml:space="preserve" text-anchor="start" x="561.88" y="-212" font-family="Helvetica,sans-Serif" font-size="10.00">parameter_widget_create</text>
<text xml:space="preserve" text-anchor="middle" x="624.5" y="-199.25" font-family="Helvetica,sans-Serif" font-size="10.00">_ui_no_callback</text>
</a>
</g>
</g>
<!-- Node1&#45;&gt;Node15 -->
<g id="edge7_Node000001_Node000015" class="edge">
<title>Node1&#45;&gt;Node15</title>
<g id="a_edge7_Node000001_Node000015"><a xlink:title=" ">
<path fill="none" stroke="#63b8ff" d="M729.6,-208.75C718.17,-208.75 706.53,-208.75 695.37,-208.75"/>
<polygon fill="#63b8ff" stroke="#63b8ff" points="729.41,-212.25 739.41,-208.75 729.41,-205.25 729.41,-212.25"/>
</a>
</g>
</g>
<!-- Node43 -->
<g id="Node000043" class="node">
<title>Node43</title>
<g id="a_Node000043"><a xlink:href="kest__parameter__widget_8c.html#ac55937f74509696b892e16cd9148a0c4" target="_top" xlink:title=" ">
<polygon fill="white" stroke="#666666" points="705.25,-174.12 543.75,-174.12 543.75,-153.38 705.25,-153.38 705.25,-174.12"/>
<text xml:space="preserve" text-anchor="middle" x="624.5" y="-160.62" font-family="Helvetica,sans-Serif" font-size="10.00">parameter_widget_refresh_cb</text>
</a>
</g>
</g>
<!-- Node1&#45;&gt;Node43 -->
<g id="edge19_Node000001_Node000043" class="edge">
<title>Node1&#45;&gt;Node43</title>
<g id="a_edge19_Node000001_Node000043"><a xlink:title=" ">
<path fill="none" stroke="#63b8ff" d="M730.39,-188.81C721.9,-186.76 713.4,-184.71 705.25,-182.75 694.18,-180.09 682.24,-177.23 671.06,-174.57"/>
<polygon fill="#63b8ff" stroke="#63b8ff" points="729.49,-192.2 740.04,-191.15 731.14,-185.39 729.49,-192.2"/>
</a>
</g>
</g>
<!-- Node3 -->
<g id="Node000003" class="node">
<title>Node3</title>
<g id="a_Node000003"><a xlink:href="kest__parameter__widget_8c.html#a89863fab24827de020d29878a86c1b60" target="_top" xlink:title=" ">
<polygon fill="white" stroke="#666666" points="500.62,-340.12 359.38,-340.12 359.38,-319.38 500.62,-319.38 500.62,-340.12"/>
<text xml:space="preserve" text-anchor="middle" x="430" y="-326.62" font-family="Helvetica,sans-Serif" font-size="10.00">nullify_parameter_widget</text>
</a>
</g>
</g>
<!-- Node2&#45;&gt;Node3 -->
<g id="edge2_Node000002_Node000003" class="edge">
<title>Node2&#45;&gt;Node3</title>
<g id="a_edge2_Node000002_Node000003"><a xlink:title=" ">
<path fill="none" stroke="#63b8ff" d="M557.41,-304.8C534.13,-309.39 508.24,-314.5 485.98,-318.9"/>
<polygon fill="#63b8ff" stroke="#63b8ff" points="557.98,-308.25 567.11,-302.88 556.62,-301.38 557.98,-308.25"/>
</a>
</g>
</g>
<!-- Node4 -->
<g id="Node000004" class="node">
<title>Node4</title>
<g id="a_Node000004"><a xlink:href="kest__effect__view_8c.html#ae392eef44a5a025bad43a7a8969ab5b0" target="_top" xlink:title=" ">
<polygon fill="#fff0f0" stroke="red" points="307.62,-424.12 183.62,-424.12 183.62,-403.38 307.62,-403.38 307.62,-424.12"/>
<text xml:space="preserve" text-anchor="middle" x="245.62" y="-410.62" font-family="Helvetica,sans-Serif" font-size="10.00">configure_effect_view</text>
</a>
</g>
</g>
<!-- Node3&#45;&gt;Node4 -->
<g id="edge3_Node000003_Node000004" class="edge">
<title>Node3&#45;&gt;Node4</title>
<g id="a_edge3_Node000003_Node000004"><a xlink:title=" ">
<path fill="none" stroke="#63b8ff" d="M403.42,-346.6C381.13,-360.71 347.56,-380.59 316.25,-393.75 308.02,-397.21 299,-400.29 290.26,-402.93"/>
<polygon fill="#63b8ff" stroke="#63b8ff" points="405.02,-349.73 411.55,-341.39 401.24,-343.84 405.02,-349.73"/>
</a>
</g>
</g>
<!-- Node7 -->
<g id="Node000007" class="node">
<title>Node7</title>
<g id="a_Node000007"><a xlink:href="kest__menu_8c.html#a86c6c0acd2dfb8a62bd96bbfd739e687" target="_top" xlink:title=" ">
<polygon fill="#fff0f0" stroke="red" points="308,-385.12 183.25,-385.12 183.25,-364.38 308,-364.38 308,-385.12"/>
<text xml:space="preserve" text-anchor="middle" x="245.62" y="-371.62" font-family="Helvetica,sans-Serif" font-size="10.00">configure_main_menu</text>
</a>
</g>
</g>
<!-- Node3&#45;&gt;Node7 -->
<g id="edge4_Node000003_Node000007" class="edge">
<title>Node3&#45;&gt;Node7</title>
<g id="a_edge4_Node000003_Node000007"><a xlink:title=" ">
<path fill="none" stroke="#63b8ff" d="M374.19,-343.27C347.45,-349.87 315.71,-357.7 290.58,-363.9"/>
<polygon fill="#63b8ff" stroke="#63b8ff" points="374.98,-346.68 383.85,-340.89 373.3,-339.89 374.98,-346.68"/>
</a>
</g>
</g>
<!-- Node13 -->
<g id="Node000013" class="node">
<title>Node13</title>
<g id="a_Node000013"><a xlink:href="kest__menu_8c.html#a022467860beb31712a6580996ac1527e" target="_top" xlink:title=" ">
<polygon fill="white" stroke="#666666" points="316.25,-346.5 175,-346.5 175,-313 316.25,-313 316.25,-346.5"/>
<text xml:space="preserve" text-anchor="start" x="183" y="-333" font-family="Helvetica,sans-Serif" font-size="10.00">create_parameter_widget</text>
<text xml:space="preserve" text-anchor="middle" x="245.62" y="-320.25" font-family="Helvetica,sans-Serif" font-size="10.00">_menu_item</text>
</a>
</g>
</g>
<!-- Node3&#45;&gt;Node13 -->
<g id="edge5_Node000003_Node000013" class="edge">
<title>Node3&#45;&gt;Node13</title>
<g id="a_edge5_Node000003_Node000013"><a xlink:title=" ">
<path fill="none" stroke="#63b8ff" d="M347.51,-329.75C337.24,-329.75 326.8,-329.75 316.73,-329.75"/>
<polygon fill="#63b8ff" stroke="#63b8ff" points="347.5,-333.25 357.5,-329.75 347.5,-326.25 347.5,-333.25"/>
</a>
</g>
</g>
<!-- Node14 -->
<g id="Node000014" class="node">
<title>Node14</title>
<g id="a_Node000014"><a xlink:href="kest__effect__settings_8c.html#ab8bf2accabc08beecb97a54915abc488" target="_top" xlink:title=" ">
<polygon fill="#fff0f0" stroke="red" points="139,-176.12 0,-176.12 0,-155.38 139,-155.38 139,-176.12"/>
<text xml:space="preserve" text-anchor="middle" x="69.5" y="-162.62" font-family="Helvetica,sans-Serif" font-size="10.00">init_effect_settings_page</text>
</a>
</g>
</g>
<!-- Node3&#45;&gt;Node14 -->
<g id="edge6_Node000003_Node000014" class="edge">
<title>Node3&#45;&gt;Node14</title>
<g id="a_edge6_Node000003_Node000014"><a xlink:title=" ">
<path fill="none" stroke="#63b8ff" d="M372.17,-316.21C300,-298.9 183.74,-270.58 175,-265.75 132.37,-242.18 94.34,-196.9 78.42,-176.36"/>
<polygon fill="#63b8ff" stroke="#63b8ff" points="371.34,-319.61 381.88,-318.53 372.97,-312.8 371.34,-319.61"/>
</a>
</g>
</g>
<!-- Node16 -->
<g id="Node000016" class="node">
<title>Node16</title>
<g id="a_Node000016"><a xlink:href="kest__menu_8c.html#aa44b42640611d3ca75f6b55206ebd08e" target="_top" xlink:title=" ">
<polygon fill="white" stroke="#666666" points="490.88,-219.12 369.12,-219.12 369.12,-198.38 490.88,-198.38 490.88,-219.12"/>
<text xml:space="preserve" text-anchor="middle" x="430" y="-205.62" font-family="Helvetica,sans-Serif" font-size="10.00">create_menu_item_ui</text>
</a>
</g>
</g>
<!-- Node15&#45;&gt;Node16 -->
<g id="edge8_Node000015_Node000016" class="edge">
<title>Node15&#45;&gt;Node16</title>
<g id="a_edge8_Node000015_Node000016"><a xlink:title=" ">
<path fill="none" stroke="#63b8ff" d="M542.31,-208.75C525.16,-208.75 507.35,-208.75 491.15,-208.75"/>
<polygon fill="#63b8ff" stroke="#63b8ff" points="541.95,-212.25 551.94,-208.75 541.94,-205.25 541.95,-212.25"/>
</a>
</g>
</g>
<!-- Node23 -->
<g id="Node000023" class="node">
<title>Node23</title>
<g id="a_Node000023"><a xlink:href="kest__parameter__widget_8c.html#adbadb9573fa4f9b812f8d270c78053e4" target="_top" xlink:title=" ">
<polygon fill="white" stroke="#666666" points="507.75,-110.12 352.25,-110.12 352.25,-89.38 507.75,-89.38 507.75,-110.12"/>
<text xml:space="preserve" text-anchor="middle" x="430" y="-96.62" font-family="Helvetica,sans-Serif" font-size="10.00">parameter_widget_create_ui</text>
</a>
</g>
</g>
<!-- Node15&#45;&gt;Node23 -->
<g id="edge12_Node000015_Node000023" class="edge">
<title>Node15&#45;&gt;Node23</title>
<g id="a_edge12_Node000015_Node000023"><a xlink:title=" ">
<path fill="none" stroke="#63b8ff" d="M553.27,-187.28C550.01,-185.84 546.82,-184.33 543.75,-182.75 503.76,-162.19 462.69,-128 442.98,-110.62"/>
<polygon fill="#63b8ff" stroke="#63b8ff" points="551.87,-190.49 562.45,-191.07 554.54,-184.02 551.87,-190.49"/>
</a>
</g>
</g>
<!-- Node17 -->
<g id="Node000017" class="node">
<title>Node17</title>
<g id="a_Node000017"><a xlink:href="kest__menu_8c.html#a6775c89241a45f6fa04a6d8111139cb5" target="_top" xlink:title=" ">
<polygon fill="#fff0f0" stroke="red" points="307.25,-239.12 184,-239.12 184,-218.38 307.25,-218.38 307.25,-239.12"/>
<text xml:space="preserve" text-anchor="middle" x="245.62" y="-225.62" font-family="Helvetica,sans-Serif" font-size="10.00">create_menu_page_ui</text>
</a>
</g>
</g>
<!-- Node16&#45;&gt;Node17 -->
<g id="edge9_Node000016_Node000017" class="edge">
<title>Node16&#45;&gt;Node17</title>
<g id="a_edge9_Node000016_Node000017"><a xlink:title=" ">
<path fill="none" stroke="#63b8ff" d="M357.55,-216.59C341.08,-218.39 323.7,-220.3 307.72,-222.05"/>
<polygon fill="#63b8ff" stroke="#63b8ff" points="357.71,-220.09 367.27,-215.52 356.95,-213.13 357.71,-220.09"/>
</a>
</g>
</g>
<!-- Node20 -->
<g id="Node000020" class="node">
<title>Node20</title>
<g id="a_Node000020"><a xlink:href="kest__sequence__list_8c.html#ac9d222d7405758d9f4edfeabe4c6200e" target="_top" xlink:title=" ">
<polygon fill="#fff0f0" stroke="red" points="306.88,-200.12 184.38,-200.12 184.38,-179.38 306.88,-179.38 306.88,-200.12"/>
<text xml:space="preserve" text-anchor="middle" x="245.62" y="-186.62" font-family="Helvetica,sans-Serif" font-size="10.00">sequence_list_add_cb</text>
</a>
</g>
</g>
<!-- Node16&#45;&gt;Node20 -->
<g id="edge11_Node000016_Node000020" class="edge">
<title>Node16&#45;&gt;Node20</title>
<g id="a_edge11_Node000016_Node000020"><a xlink:title=" ">
<path fill="none" stroke="#63b8ff" d="M357.43,-201.29C340.78,-199.56 323.21,-197.73 307.09,-196.05"/>
<polygon fill="#63b8ff" stroke="#63b8ff" points="356.96,-204.76 367.27,-202.32 357.69,-197.8 356.96,-204.76"/>
</a>
</g>
</g>
<!-- Node17&#45;&gt;Node17 -->
<g id="edge10_Node000017_Node000017" class="edge">
<title>Node17&#45;&gt;Node17</title>
<g id="a_edge10_Node000017_Node000017"><a xlink:title=" ">
<path fill="none" stroke="#63b8ff" d="M276.62,-250.61C272.51,-254.45 262.18,-257.12 245.62,-257.12 215.35,-257.12 205.89,-248.18 217.25,-239.52"/>
<polygon fill="#63b8ff" stroke="#63b8ff" points="280.05,-249.93 274.35,-241 273.24,-251.53 280.05,-249.93"/>
</a>
</g>
</g>
<!-- Node24 -->
<g id="Node000024" class="node">
<title>Node24</title>
<g id="a_Node000024"><a xlink:href="kest__effect__settings_8c.html#ad39e071d5cf7cd7e4fc67d41f14d48e8" target="_top" xlink:title=" ">
<polygon fill="white" stroke="#666666" points="308,-161.5 183.25,-161.5 183.25,-128 308,-128 308,-161.5"/>
<text xml:space="preserve" text-anchor="start" x="191.25" y="-148" font-family="Helvetica,sans-Serif" font-size="10.00">create_effect_settings</text>
<text xml:space="preserve" text-anchor="middle" x="245.62" y="-135.25" font-family="Helvetica,sans-Serif" font-size="10.00">_page_ui</text>
</a>
</g>
</g>
<!-- Node23&#45;&gt;Node24 -->
<g id="edge13_Node000023_Node000024" class="edge">
<title>Node23&#45;&gt;Node24</title>
<g id="a_edge13_Node000023_Node000024"><a xlink:title=" ">
<path fill="none" stroke="#63b8ff" d="M374.41,-113.22C353.57,-118.36 329.67,-124.26 308.23,-129.55"/>
<polygon fill="#63b8ff" stroke="#63b8ff" points="374.98,-116.68 383.85,-110.89 373.3,-109.89 374.98,-116.68"/>
</a>
</g>
</g>
<!-- Node25 -->
<g id="Node000025" class="node">
<title>Node25</title>
<g id="a_Node000025"><a xlink:href="kest__effect__view_8c.html#a7d15ffb969bcf677cf4a1622e2666f8e" target="_top" xlink:title=" ">
<polygon fill="#fff0f0" stroke="red" points="131.12,-134.12 7.88,-134.12 7.88,-113.38 131.12,-113.38 131.12,-134.12"/>
<text xml:space="preserve" text-anchor="middle" x="69.5" y="-120.62" font-family="Helvetica,sans-Serif" font-size="10.00">create_effect_view_ui</text>
</a>
</g>
</g>
<!-- Node23&#45;&gt;Node25 -->
<g id="edge16_Node000023_Node000025" class="edge">
<title>Node23&#45;&gt;Node25</title>
<g id="a_edge16_Node000023_Node000025"><a xlink:title=" ">
<path fill="none" stroke="#63b8ff" d="M340.63,-105.67C275.64,-110.02 188.98,-115.82 131.54,-119.66"/>
<polygon fill="#63b8ff" stroke="#63b8ff" points="340.84,-109.16 350.58,-105 340.37,-102.18 340.84,-109.16"/>
</a>
</g>
</g>
<!-- Node30 -->
<g id="Node000030" class="node">
<title>Node30</title>
<g id="a_Node000030"><a xlink:href="kest__menu_8c.html#ad08fcb7356b59af639c394da31d8f446" target="_top" xlink:title=" ">
<polygon fill="#fff0f0" stroke="red" points="307.62,-72.12 183.62,-72.12 183.62,-51.38 307.62,-51.38 307.62,-72.12"/>
<text xml:space="preserve" text-anchor="middle" x="245.62" y="-58.62" font-family="Helvetica,sans-Serif" font-size="10.00">create_main_menu_ui</text>
</a>
</g>
</g>
<!-- Node23&#45;&gt;Node30 -->
<g id="edge17_Node000023_Node000030" class="edge">
<title>Node23&#45;&gt;Node30</title>
<g id="a_edge17_Node000023_Node000030"><a xlink:title=" ">
<path fill="none" stroke="#63b8ff" d="M365.97,-86.62C343.96,-82.03 319.53,-76.94 298.53,-72.56"/>
<polygon fill="#63b8ff" stroke="#63b8ff" points="365.24,-90.04 375.74,-88.65 366.67,-83.19 365.24,-90.04"/>
</a>
</g>
</g>
<!-- Node31 -->
<g id="Node000031" class="node">
<title>Node31</title>
<g id="a_Node000031"><a xlink:href="kest__profile__settings_8c.html#ab05371cb50924acc78762340a22cc585" target="_top" xlink:title=" ">
<polygon fill="#fff0f0" stroke="red" points="309.5,-33.5 181.75,-33.5 181.75,0 309.5,0 309.5,-33.5"/>
<text xml:space="preserve" text-anchor="start" x="189.75" y="-20" font-family="Helvetica,sans-Serif" font-size="10.00">create_profile_settings</text>
<text xml:space="preserve" text-anchor="middle" x="245.62" y="-7.25" font-family="Helvetica,sans-Serif" font-size="10.00">_page_ui</text>
</a>
</g>
</g>
<!-- Node23&#45;&gt;Node31 -->
<g id="edge18_Node000023_Node000031" class="edge">
<title>Node23&#45;&gt;Node31</title>
<g id="a_edge18_Node000023_Node000031"><a xlink:title=" ">
<path fill="none" stroke="#63b8ff" d="M399.43,-83.67C376.93,-71.71 345.04,-55.36 316.25,-42.75 309.39,-39.75 302.07,-36.77 294.85,-33.96"/>
<polygon fill="#63b8ff" stroke="#63b8ff" points="397.56,-86.64 408.02,-88.27 400.86,-80.46 397.56,-86.64"/>
</a>
</g>
</g>
<!-- Node24&#45;&gt;Node14 -->
<g id="edge15_Node000024_Node000014" class="edge">
<title>Node24&#45;&gt;Node14</title>
<g id="a_edge15_Node000024_Node000014"><a xlink:title=" ">
<path fill="none" stroke="#63b8ff" d="M172.08,-153.5C161.25,-154.81 150.1,-156.15 139.35,-157.45"/>
<polygon fill="#63b8ff" stroke="#63b8ff" points="172.22,-157.01 181.73,-152.34 171.39,-150.06 172.22,-157.01"/>
</a>
</g>
</g>
<!-- Node24&#45;&gt;Node25 -->
<g id="edge14_Node000024_Node000025" class="edge">
<title>Node24&#45;&gt;Node25</title>
<g id="a_edge14_Node000024_Node000025"><a xlink:title=" ">
<path fill="none" stroke="#63b8ff" d="M172.01,-135.99C158.48,-134.36 144.47,-132.67 131.34,-131.09"/>
<polygon fill="#63b8ff" stroke="#63b8ff" points="171.39,-139.44 181.73,-137.16 172.22,-132.49 171.39,-139.44"/>
</a>
</g>
</g>
</g>
</svg>
