<?xml version="1.0" encoding="UTF-8" standalone="no"?>
<!DOCTYPE svg PUBLIC "-//W3C//DTD SVG 1.1//EN"
 "http://www.w3.org/Graphics/SVG/1.1/DTD/svg11.dtd">
<!-- Generated by graphviz version 13.1.2 (20250808.2320)
 -->
<!-- Title: save_sequence_as_file Pages: 1 -->
<svg width="398pt" height="158pt"
 viewBox="0.00 0.00 398.00 158.00" xmlns="http://www.w3.org/2000/svg" xmlns:xlink="http://www.w3.org/1999/xlink">
<g id="graph0" class="graph" transform="scale(1 1) rotate(0) translate(4 153.75)">
<title>save_sequence_as_file</title>
<!-- Node1 -->
<g id="Node000001" class="node">
<title>Node1</title>
<g id="a_Node000001"><a xlink:title=" ">
<polygon fill="#999999" stroke="#666666" points="128.5,-129.75 0,-129.75 0,-109 128.5,-109 128.5,-129.75"/>
<text xml:space="preserve" text-anchor="middle" x="64.25" y="-116.25" font-family="Helvetica,sans-Serif" font-size="10.00">save_sequence_as_file</text>
</a>
</g>
</g>
<!-- Node2 -->
<g id="Node000002" class="node">
<title>Node2</title>
<g id="a_Node000002"><a xlink:href="kest__files_8c.html#ab79d861306c25eab9284239e73d0cc07" target="_top" xlink:title=" ">
<polygon fill="white" stroke="#666666" points="389.25,-149.75 277.25,-149.75 277.25,-129 389.25,-129 389.25,-149.75"/>
<text xml:space="preserve" text-anchor="middle" x="333.25" y="-136.25" font-family="Helvetica,sans-Serif" font-size="10.00">dump_file_contents</text>
</a>
</g>
</g>
<!-- Node1&#45;&gt;Node2 -->
<g id="edge1_Node000001_Node000002" class="edge">
<title>Node1&#45;&gt;Node2</title>
<g id="a_edge1_Node000001_Node000002"><a xlink:title=" ">
<path fill="none" stroke="#63b8ff" d="M128.86,-124.14C170.03,-127.22 223.55,-131.23 265.35,-134.36"/>
<polygon fill="#63b8ff" stroke="#63b8ff" points="265.07,-137.85 275.3,-135.11 265.59,-130.87 265.07,-137.85"/>
</a>
</g>
</g>
<!-- Node3 -->
<g id="Node000003" class="node">
<title>Node3</title>
<g id="a_Node000003"><a xlink:href="kest__files_8c.html#ab39f3c0d9f0a16ccb7d076a22fc4ca22" target="_top" xlink:title=" ">
<polygon fill="white" stroke="#666666" points="240.5,-110.75 164.5,-110.75 164.5,-90 240.5,-90 240.5,-110.75"/>
<text xml:space="preserve" text-anchor="middle" x="202.5" y="-97.25" font-family="Helvetica,sans-Serif" font-size="10.00">save_profile</text>
</a>
</g>
</g>
<!-- Node1&#45;&gt;Node3 -->
<g id="edge2_Node000001_Node000003" class="edge">
<title>Node1&#45;&gt;Node3</title>
<g id="a_edge2_Node000001_Node000003"><a xlink:title=" ">
<path fill="none" stroke="#63b8ff" d="M128.99,-110.49C136.99,-109.37 145.07,-108.24 152.79,-107.17"/>
<polygon fill="#63b8ff" stroke="#63b8ff" points="153.26,-110.64 162.68,-105.79 152.29,-103.7 153.26,-110.64"/>
</a>
</g>
</g>
<!-- Node3&#45;&gt;Node2 -->
<g id="edge3_Node000003_Node000002" class="edge">
<title>Node3&#45;&gt;Node2</title>
<g id="a_edge3_Node000003_Node000002"><a xlink:title=" ">
<path fill="none" stroke="#63b8ff" d="M239.36,-111.24C253.73,-115.59 270.48,-120.66 285.76,-125.29"/>
<polygon fill="#63b8ff" stroke="#63b8ff" points="284.54,-128.58 295.13,-128.13 286.57,-121.88 284.54,-128.58"/>
</a>
</g>
</g>
<!-- Node4 -->
<g id="Node000004" class="node">
<title>Node4</title>
<g id="a_Node000004"><a xlink:href="kest__files_8c.html#aa81649890323b78baf99fbbad53ab5ff" target="_top" xlink:title=" ">
<polygon fill="white" stroke="#666666" points="387.38,-110.75 279.12,-110.75 279.12,-90 387.38,-90 387.38,-110.75"/>
<text xml:space="preserve" text-anchor="middle" x="333.25" y="-97.25" font-family="Helvetica,sans-Serif" font-size="10.00">generate_filename</text>
</a>
</g>
</g>
<!-- Node3&#45;&gt;Node4 -->
<g id="edge4_Node000003_Node000004" class="edge">
<title>Node3&#45;&gt;Node4</title>
<g id="a_edge4_Node000003_Node000004"><a xlink:title=" ">
<path fill="none" stroke="#63b8ff" d="M240.74,-100.38C249.09,-100.38 258.2,-100.38 267.31,-100.38"/>
<polygon fill="#63b8ff" stroke="#63b8ff" points="267.3,-103.88 277.3,-100.38 267.3,-96.88 267.3,-103.88"/>
</a>
</g>
</g>
<!-- Node5 -->
<g id="Node000005" class="node">
<title>Node5</title>
<g id="a_Node000005"><a xlink:href="kest__error__codes_8c.html#a0f4c77127bc0b77264a21104979c576a" target="_top" xlink:title=" ">
<polygon fill="white" stroke="#666666" points="387.38,-72.12 279.12,-72.12 279.12,-38.62 387.38,-38.62 387.38,-72.12"/>
<text xml:space="preserve" text-anchor="start" x="287.12" y="-58.62" font-family="Helvetica,sans-Serif" font-size="10.00">kest_error_code_to</text>
<text xml:space="preserve" text-anchor="middle" x="333.25" y="-45.88" font-family="Helvetica,sans-Serif" font-size="10.00">_string</text>
</a>
</g>
</g>
<!-- Node3&#45;&gt;Node5 -->
<g id="edge5_Node000003_Node000005" class="edge">
<title>Node3&#45;&gt;Node5</title>
<g id="a_edge5_Node000003_Node000005"><a xlink:title=" ">
<path fill="none" stroke="#63b8ff" d="M234.34,-89.6C245.84,-85.58 259.33,-80.86 272.56,-76.24"/>
<polygon fill="#63b8ff" stroke="#63b8ff" points="273.35,-79.67 281.63,-73.07 271.04,-73.06 273.35,-79.67"/>
</a>
</g>
</g>
<!-- Node6 -->
<g id="Node000006" class="node">
<title>Node6</title>
<g id="a_Node000006"><a xlink:href="kest__files_8c.html#acdd9a1fdb8fef8888d540a275ecfa86a" target="_top" xlink:title=" ">
<polygon fill="white" stroke="#666666" points="390,-20.75 276.5,-20.75 276.5,0 390,0 390,-20.75"/>
<text xml:space="preserve" text-anchor="middle" x="333.25" y="-7.25" font-family="Helvetica,sans-Serif" font-size="10.00">save_profile_as_file</text>
</a>
</g>
</g>
<!-- Node3&#45;&gt;Node6 -->
<g id="edge6_Node000003_Node000006" class="edge">
<title>Node3&#45;&gt;Node6</title>
<g id="a_edge6_Node000003_Node000006"><a xlink:title=" ">
<path fill="none" stroke="#63b8ff" d="M211.81,-89.72C224.3,-74.35 249.37,-46.01 276.5,-29.38 278.51,-28.14 280.61,-26.98 282.77,-25.88"/>
<polygon fill="#63b8ff" stroke="#63b8ff" points="284.09,-29.12 291.78,-21.83 281.22,-22.74 284.09,-29.12"/>
</a>
</g>
</g>
</g>
</svg>
