<?xml version="1.0" encoding="UTF-8" standalone="no"?>
<!DOCTYPE svg PUBLIC "-//W3C//DTD SVG 1.1//EN"
 "http://www.w3.org/Graphics/SVG/1.1/DTD/svg11.dtd">
<!-- Generated by graphviz version 13.1.2 (20250808.2320)
 -->
<!-- Title: kest_new_expr_scope_entry_expr Pages: 1 -->
<svg width="684pt" height="80pt"
 viewBox="0.00 0.00 684.00 80.00" xmlns="http://www.w3.org/2000/svg" xmlns:xlink="http://www.w3.org/1999/xlink">
<g id="graph0" class="graph" transform="scale(1 1) rotate(0) translate(4 76.12)">
<title>kest_new_expr_scope_entry_expr</title>
<!-- Node1 -->
<g id="Node000001" class="node">
<title>Node1</title>
<g id="a_Node000001"><a xlink:title=" ">
<polygon fill="#999999" stroke="#666666" points="676,-55.5 553.5,-55.5 553.5,-22 676,-22 676,-55.5"/>
<text xml:space="preserve" text-anchor="start" x="561.5" y="-42" font-family="Helvetica,sans-Serif" font-size="10.00">kest_new_expr_scope</text>
<text xml:space="preserve" text-anchor="middle" x="614.75" y="-29.25" font-family="Helvetica,sans-Serif" font-size="10.00">_entry_expr</text>
</a>
</g>
</g>
<!-- Node2 -->
<g id="Node000002" class="node">
<title>Node2</title>
<g id="a_Node000002"><a xlink:href="kest__expr__scope_8c.html#ae63f9dde8aedf61f742ee600c18f4f6a" target="_top" xlink:title=" ">
<polygon fill="white" stroke="#666666" points="517.5,-49.12 370.25,-49.12 370.25,-28.38 517.5,-28.38 517.5,-49.12"/>
<text xml:space="preserve" text-anchor="middle" x="443.88" y="-35.62" font-family="Helvetica,sans-Serif" font-size="10.00">kest_expr_scope_add_expr</text>
</a>
</g>
</g>
<!-- Node1&#45;&gt;Node2 -->
<g id="edge1_Node000001_Node000002" class="edge">
<title>Node1&#45;&gt;Node2</title>
<g id="a_edge1_Node000001_Node000002"><a xlink:title=" ">
<path fill="none" stroke="#63b8ff" d="M541.81,-38.75C533.9,-38.75 525.85,-38.75 517.92,-38.75"/>
<polygon fill="#63b8ff" stroke="#63b8ff" points="541.75,-42.25 551.75,-38.75 541.75,-35.25 541.75,-42.25"/>
</a>
</g>
</g>
<!-- Node3 -->
<g id="Node000003" class="node">
<title>Node3</title>
<g id="a_Node000003"><a xlink:href="kest__eff__section_8c.html#ae8e0f8831e8737c2ec64cb62d900942f" target="_top" xlink:title=" ">
<polygon fill="white" stroke="#666666" points="334.25,-72.12 191.5,-72.12 191.5,-51.38 334.25,-51.38 334.25,-72.12"/>
<text xml:space="preserve" text-anchor="middle" x="262.88" y="-58.62" font-family="Helvetica,sans-Serif" font-size="10.00">kest_defs_section_extract</text>
</a>
</g>
</g>
<!-- Node2&#45;&gt;Node3 -->
<g id="edge2_Node000002_Node000003" class="edge">
<title>Node2&#45;&gt;Node3</title>
<g id="a_edge2_Node000002_Node000003"><a xlink:title=" ">
<path fill="none" stroke="#63b8ff" d="M358.57,-49.58C350.58,-50.61 342.53,-51.64 334.68,-52.65"/>
<polygon fill="#63b8ff" stroke="#63b8ff" points="358.84,-53.08 368.31,-48.33 357.94,-46.13 358.84,-53.08"/>
</a>
</g>
</g>
<!-- Node10 -->
<g id="Node000010" class="node">
<title>Node10</title>
<g id="a_Node000010"><a xlink:href="kest__effect_8c.html#ad36244b2279575200cc5265d2e25dfdd" target="_top" xlink:title=" ">
<polygon fill="white" stroke="#666666" points="315.88,-33.5 209.88,-33.5 209.88,0 315.88,0 315.88,-33.5"/>
<text xml:space="preserve" text-anchor="start" x="217.88" y="-20" font-family="Helvetica,sans-Serif" font-size="10.00">kest_effect_create</text>
<text xml:space="preserve" text-anchor="middle" x="262.88" y="-7.25" font-family="Helvetica,sans-Serif" font-size="10.00">_scope</text>
</a>
</g>
</g>
<!-- Node2&#45;&gt;Node10 -->
<g id="edge4_Node000002_Node000010" class="edge">
<title>Node2&#45;&gt;Node10</title>
<g id="a_edge4_Node000002_Node000010"><a xlink:title=" ">
<path fill="none" stroke="#63b8ff" d="M358.77,-28.41C344.24,-26.63 329.53,-24.82 316.16,-23.18"/>
<polygon fill="#63b8ff" stroke="#63b8ff" points="357.96,-31.84 368.31,-29.59 358.81,-24.89 357.96,-31.84"/>
</a>
</g>
</g>
<!-- Node4 -->
<g id="Node000004" class="node">
<title>Node4</title>
<g id="a_Node000004"><a xlink:href="kest__eff__parser_8c.html#a73ef6962d1925857ec3e4b12d1aad834" target="_top" xlink:title=" ">
<polygon fill="#fff0f0" stroke="red" points="130.75,-72.12 24.75,-72.12 24.75,-51.38 130.75,-51.38 130.75,-72.12"/>
<text xml:space="preserve" text-anchor="middle" x="77.75" y="-58.62" font-family="Helvetica,sans-Serif" font-size="10.00">kest_parse_tokens</text>
</a>
</g>
</g>
<!-- Node3&#45;&gt;Node4 -->
<g id="edge3_Node000003_Node000004" class="edge">
<title>Node3&#45;&gt;Node4</title>
<g id="a_edge3_Node000003_Node000004"><a xlink:title=" ">
<path fill="none" stroke="#63b8ff" d="M179.75,-61.75C163.25,-61.75 146.34,-61.75 131.19,-61.75"/>
<polygon fill="#63b8ff" stroke="#63b8ff" points="179.56,-65.25 189.56,-61.75 179.56,-58.25 179.56,-65.25"/>
</a>
</g>
</g>
<!-- Node11 -->
<g id="Node000011" class="node">
<title>Node11</title>
<g id="a_Node000011"><a xlink:href="kest__effect_8c.html#a85b25e44e2629962673634f965ffe304" target="_top" xlink:title=" ">
<polygon fill="#fff0f0" stroke="red" points="155.5,-27.12 0,-27.12 0,-6.38 155.5,-6.38 155.5,-27.12"/>
<text xml:space="preserve" text-anchor="middle" x="77.75" y="-13.62" font-family="Helvetica,sans-Serif" font-size="10.00">init_effect_from_effect_desc</text>
</a>
</g>
</g>
<!-- Node10&#45;&gt;Node11 -->
<g id="edge5_Node000010_Node000011" class="edge">
<title>Node10&#45;&gt;Node11</title>
<g id="a_edge5_Node000010_Node000011"><a xlink:title=" ">
<path fill="none" stroke="#63b8ff" d="M198.16,-16.75C184.5,-16.75 169.91,-16.75 155.8,-16.75"/>
<polygon fill="#63b8ff" stroke="#63b8ff" points="197.89,-20.25 207.89,-16.75 197.89,-13.25 197.89,-20.25"/>
</a>
</g>
</g>
</g>
</svg>
