<?xml version="1.0" encoding="UTF-8" standalone="no"?>
<!DOCTYPE svg PUBLIC "-//W3C//DTD SVG 1.1//EN"
 "http://www.w3.org/Graphics/SVG/1.1/DTD/svg11.dtd">
<!-- Generated by graphviz version 13.1.2 (20250808.2320)
 -->
<!-- Title: free_effect Pages: 1 -->
<svg width="494pt" height="257pt"
 viewBox="0.00 0.00 494.00 257.00" xmlns="http://www.w3.org/2000/svg" xmlns:xlink="http://www.w3.org/1999/xlink">
<g id="graph0" class="graph" transform="scale(1 1) rotate(0) translate(4 252.75)">
<title>free_effect</title>
<!-- Node1 -->
<g id="Node000001" class="node">
<title>Node1</title>
<g id="a_Node000001"><a xlink:title=" ">
<polygon fill="#999999" stroke="#666666" points="69.25,-153.75 0,-153.75 0,-133 69.25,-133 69.25,-153.75"/>
<text xml:space="preserve" text-anchor="middle" x="34.62" y="-140.25" font-family="Helvetica,sans-Serif" font-size="10.00">free_effect</text>
</a>
</g>
</g>
<!-- Node2 -->
<g id="Node000002" class="node">
<title>Node2</title>
<g id="a_Node000002"><a xlink:href="kest__effect__view_8c.html#ac64b0341f8283e6aabdd27c42e9a55b0" target="_top" xlink:title=" ">
<polygon fill="white" stroke="#666666" points="212.75,-210.75 115,-210.75 115,-190 212.75,-190 212.75,-210.75"/>
<text xml:space="preserve" text-anchor="middle" x="163.88" y="-197.25" font-family="Helvetica,sans-Serif" font-size="10.00">free_effect_view</text>
</a>
</g>
</g>
<!-- Node1&#45;&gt;Node2 -->
<g id="edge1_Node000001_Node000002" class="edge">
<title>Node1&#45;&gt;Node2</title>
<g id="a_edge1_Node000001_Node000002"><a xlink:title=" ">
<path fill="none" stroke="#63b8ff" d="M57.76,-154.2C71.38,-160.78 89.24,-169.25 105.25,-176.38 111.81,-179.29 118.84,-182.31 125.65,-185.18"/>
<polygon fill="#63b8ff" stroke="#63b8ff" points="124.11,-188.33 134.68,-188.95 126.8,-181.87 124.11,-188.33"/>
</a>
</g>
</g>
<!-- Node4 -->
<g id="Node000004" class="node">
<title>Node4</title>
<g id="a_Node000004"><a xlink:href="kest__alloc_8c.html#a294af5728a94aa316fcf65304d388d48" target="_top" xlink:title=" ">
<polygon fill="white" stroke="#666666" points="485.5,-153.75 424.5,-153.75 424.5,-133 485.5,-133 485.5,-153.75"/>
<text xml:space="preserve" text-anchor="middle" x="455" y="-140.25" font-family="Helvetica,sans-Serif" font-size="10.00">kest_free</text>
</a>
</g>
</g>
<!-- Node1&#45;&gt;Node4 -->
<g id="edge5_Node000001_Node000004" class="edge">
<title>Node1&#45;&gt;Node4</title>
<g id="a_edge5_Node000001_Node000004"><a xlink:title=" ">
<path fill="none" stroke="#63b8ff" d="M69.7,-145.04C132.69,-147.85 271.56,-152.83 388.5,-148.38 396.31,-148.08 404.63,-147.58 412.63,-147.01"/>
<polygon fill="#63b8ff" stroke="#63b8ff" points="412.81,-150.51 422.52,-146.26 412.28,-143.53 412.81,-150.51"/>
</a>
</g>
</g>
<!-- Node5 -->
<g id="Node000005" class="node">
<title>Node5</title>
<g id="a_Node000005"><a xlink:href="kest__parameter_8c.html#a8232528422c7dd2a19b2f3cc4c1a25c0" target="_top" xlink:title=" ">
<polygon fill="white" stroke="#666666" points="222.5,-134.75 105.25,-134.75 105.25,-114 222.5,-114 222.5,-134.75"/>
<text xml:space="preserve" text-anchor="middle" x="163.88" y="-121.25" font-family="Helvetica,sans-Serif" font-size="10.00">kest_parameter_free</text>
</a>
</g>
</g>
<!-- Node1&#45;&gt;Node5 -->
<g id="edge6_Node000001_Node000005" class="edge">
<title>Node1&#45;&gt;Node5</title>
<g id="a_edge6_Node000001_Node000005"><a xlink:title=" ">
<path fill="none" stroke="#63b8ff" d="M69.73,-138.28C77.22,-137.16 85.41,-135.94 93.73,-134.7"/>
<polygon fill="#63b8ff" stroke="#63b8ff" points="94.23,-138.16 103.6,-133.23 93.19,-131.24 94.23,-138.16"/>
</a>
</g>
</g>
<!-- Node7 -->
<g id="Node000007" class="node">
<title>Node7</title>
<g id="a_Node000007"><a xlink:href="kest__parameter_8c.html#a6426ab9815dd11cad99a9dd9283423b0" target="_top" xlink:title=" ">
<polygon fill="white" stroke="#666666" points="213.88,-58.75 113.88,-58.75 113.88,-38 213.88,-38 213.88,-58.75"/>
<text xml:space="preserve" text-anchor="middle" x="163.88" y="-45.25" font-family="Helvetica,sans-Serif" font-size="10.00">kest_setting_free</text>
</a>
</g>
</g>
<!-- Node1&#45;&gt;Node7 -->
<g id="edge9_Node000001_Node000007" class="edge">
<title>Node1&#45;&gt;Node7</title>
<g id="a_edge9_Node000001_Node000007"><a xlink:title=" ">
<path fill="none" stroke="#63b8ff" d="M49.73,-132.85C71.4,-116.67 113.12,-85.52 139.4,-65.9"/>
<polygon fill="#63b8ff" stroke="#63b8ff" points="141.18,-68.94 147.1,-60.15 137,-63.33 141.18,-68.94"/>
</a>
</g>
</g>
<!-- Node3 -->
<g id="Node000003" class="node">
<title>Node3</title>
<g id="a_Node000003"><a xlink:href="kest__parameter__widget_8c.html#ac18cc7427373a289f2677b33112e4851" target="_top" xlink:title=" ">
<polygon fill="white" stroke="#666666" points="388.5,-248.75 258.5,-248.75 258.5,-228 388.5,-228 388.5,-248.75"/>
<text xml:space="preserve" text-anchor="middle" x="323.5" y="-235.25" font-family="Helvetica,sans-Serif" font-size="10.00">free_parameter_widget</text>
</a>
</g>
</g>
<!-- Node2&#45;&gt;Node3 -->
<g id="edge2_Node000002_Node000003" class="edge">
<title>Node2&#45;&gt;Node3</title>
<g id="a_edge2_Node000002_Node000003"><a xlink:title=" ">
<path fill="none" stroke="#63b8ff" d="M209.62,-211.16C227.34,-215.43 247.91,-220.39 266.59,-224.9"/>
<polygon fill="#63b8ff" stroke="#63b8ff" points="265.63,-228.26 276.17,-227.21 267.27,-221.46 265.63,-228.26"/>
</a>
</g>
</g>
<!-- Node2&#45;&gt;Node4 -->
<g id="edge4_Node000002_Node000004" class="edge">
<title>Node2&#45;&gt;Node4</title>
<g id="a_edge4_Node000002_Node000004"><a xlink:title=" ">
<path fill="none" stroke="#63b8ff" d="M212.96,-200.16C258.91,-198.81 329.7,-193.72 388.5,-176.38 401.78,-172.46 415.59,-165.92 427.09,-159.69"/>
<polygon fill="#63b8ff" stroke="#63b8ff" points="428.61,-162.85 435.6,-154.88 425.17,-156.75 428.61,-162.85"/>
</a>
</g>
</g>
<!-- Node3&#45;&gt;Node4 -->
<g id="edge3_Node000003_Node000004" class="edge">
<title>Node3&#45;&gt;Node4</title>
<g id="a_edge3_Node000003_Node000004"><a xlink:title=" ">
<path fill="none" stroke="#63b8ff" d="M362.15,-227.58C371.19,-224.11 380.52,-219.74 388.5,-214.38 409.13,-200.5 427.83,-178.89 439.92,-163.15"/>
<polygon fill="#63b8ff" stroke="#63b8ff" points="442.49,-165.56 445.64,-155.45 436.87,-161.38 442.49,-165.56"/>
</a>
</g>
</g>
<!-- Node5&#45;&gt;Node4 -->
<g id="edge8_Node000005_Node000004" class="edge">
<title>Node5&#45;&gt;Node4</title>
<g id="a_edge8_Node000005_Node000004"><a xlink:title=" ">
<path fill="none" stroke="#63b8ff" d="M222.69,-128.17C278.98,-131.87 363.13,-137.4 412.9,-140.67"/>
<polygon fill="#63b8ff" stroke="#63b8ff" points="412.46,-144.15 422.67,-141.32 412.92,-137.17 412.46,-144.15"/>
</a>
</g>
</g>
<!-- Node6 -->
<g id="Node000006" class="node">
<title>Node6</title>
<g id="a_Node000006"><a xlink:href="kest__parameter_8c.html#aba1de2a97c113a2fc9e06799c71dd5b5" target="_top" xlink:title=" ">
<polygon fill="white" stroke="#666666" points="367.5,-96.75 279.5,-96.75 279.5,-76 367.5,-76 367.5,-96.75"/>
<text xml:space="preserve" text-anchor="middle" x="323.5" y="-83.25" font-family="Helvetica,sans-Serif" font-size="10.00">gut_parameter</text>
</a>
</g>
</g>
<!-- Node5&#45;&gt;Node6 -->
<g id="edge7_Node000005_Node000006" class="edge">
<title>Node5&#45;&gt;Node6</title>
<g id="a_edge7_Node000005_Node000006"><a xlink:title=" ">
<path fill="none" stroke="#63b8ff" d="M209.62,-113.59C227.81,-109.2 248.99,-104.1 268.06,-99.5"/>
<polygon fill="#63b8ff" stroke="#63b8ff" points="268.63,-102.96 277.53,-97.22 266.99,-96.16 268.63,-102.96"/>
</a>
</g>
</g>
<!-- Node7&#45;&gt;Node4 -->
<g id="edge12_Node000007_Node000004" class="edge">
<title>Node7&#45;&gt;Node4</title>
<g id="a_edge12_Node000007_Node000004"><a xlink:title=" ">
<path fill="none" stroke="#63b8ff" d="M213.99,-42.29C261.34,-38.7 333.67,-39.38 388.5,-67.38 412.51,-79.63 431.43,-104.85 442.63,-122.87"/>
<polygon fill="#63b8ff" stroke="#63b8ff" points="439.59,-124.6 447.69,-131.44 445.62,-121.05 439.59,-124.6"/>
</a>
</g>
</g>
<!-- Node8 -->
<g id="Node000008" class="node">
<title>Node8</title>
<g id="a_Node000008"><a xlink:href="kest__parameter_8c.html#a5c2bab51c10fbcb32e9e050d246b0880" target="_top" xlink:title=" ">
<polygon fill="white" stroke="#666666" points="358.88,-20.75 288.12,-20.75 288.12,0 358.88,0 358.88,-20.75"/>
<text xml:space="preserve" text-anchor="middle" x="323.5" y="-7.25" font-family="Helvetica,sans-Serif" font-size="10.00">gut_setting</text>
</a>
</g>
</g>
<!-- Node7&#45;&gt;Node8 -->
<g id="edge10_Node000007_Node000008" class="edge">
<title>Node7&#45;&gt;Node8</title>
<g id="a_edge10_Node000007_Node000008"><a xlink:title=" ">
<path fill="none" stroke="#63b8ff" d="M209.62,-37.59C230.61,-32.53 255.58,-26.51 276.7,-21.42"/>
<polygon fill="#63b8ff" stroke="#63b8ff" points="277.29,-24.87 286.19,-19.13 275.65,-18.07 277.29,-24.87"/>
</a>
</g>
</g>
<!-- Node8&#45;&gt;Node4 -->
<g id="edge11_Node000008_Node000004" class="edge">
<title>Node8&#45;&gt;Node4</title>
<g id="a_edge11_Node000008_Node000004"><a xlink:title=" ">
<path fill="none" stroke="#63b8ff" d="M359.31,-18.7C369.48,-22.33 380.11,-27.39 388.5,-34.38 417.08,-58.17 436.41,-97.84 446.28,-122.19"/>
<polygon fill="#63b8ff" stroke="#63b8ff" points="442.96,-123.3 449.83,-131.37 449.49,-120.78 442.96,-123.3"/>
</a>
</g>
</g>
</g>
</svg>
