<?xml version="1.0" encoding="UTF-8" standalone="no"?>
<!DOCTYPE svg PUBLIC "-//W3C//DTD SVG 1.1//EN"
 "http://www.w3.org/Graphics/SVG/1.1/DTD/svg11.dtd">
<!-- Generated by graphviz version 13.1.2 (20250808.2320)
 -->
<!-- Title: create_effect_settings_page_ui Pages: 1 -->
<!--zoomable 532 -->

<svg id="main" version="1.1" xmlns="http://www.w3.org/2000/svg" xmlns:xlink="http://www.w3.org/1999/xlink" xml:space="preserve" onload="init(evt)">

<style type="text/css"><![CDATA[
.node, .edge {opacity: 0.7;}
.node.selected, .edge.selected {opacity: 1;}
.edge:hover path { stroke: red; }
.edge:hover polygon { stroke: red; fill: red; }
]]></style>

<defs>
  <circle id="rim" cx="0" cy="0" r="7"/>
  <circle id="rim2" cx="0" cy="0" r="3.5"/>
  <g id="zoomPlus">
    <use xlink:href="#rim" fill="#404040"><set attributeName="fill" to="#808080" begin="zoomplus.mouseover" end="zoomplus.mouseout"/></use>
    <path d="M-4,0h8M0,-4v8" fill="none" stroke="white" stroke-width="1.5" pointer-events="none"/>
  </g>
  <g id="zoomMin">
    <use xlink:href="#rim" fill="#404040"><set attributeName="fill" to="#808080" begin="zoomminus.mouseover" end="zoomminus.mouseout"/></use>
    <path d="M-4,0h8" fill="none" stroke="white" stroke-width="1.5" pointer-events="none"/>
  </g>
  <g id="arrowUp" transform="translate(30 24)">
    <use xlink:href="#rim"/>
    <path pointer-events="none" fill="none" stroke="white" stroke-width="1.5" d="M0,-3.0v7 M-2.5,-0.5L0,-3.0L2.5,-0.5"/>
  </g>
  <g id="arrowRight" transform="rotate(90) translate(36 -43)">
    <use xlink:href="#rim"/>
    <path pointer-events="none" fill="none" stroke="white" stroke-width="1.5" d="M0,-3.0v7 M-2.5,-0.5L0,-3.0L2.5,-0.5"/>
  </g>
  <g id="arrowDown" transform="rotate(180) translate(-30 -48)">
    <use xlink:href="#rim"/>
    <path pointer-events="none" fill="none" stroke="white" stroke-width="1.5" d="M0,-3.0v7 M-2.5,-0.5L0,-3.0L2.5,-0.5"/>
  </g>
  <g id="arrowLeft" transform="rotate(270) translate(-36 17)">
    <use xlink:href="#rim"/>
    <path pointer-events="none" fill="none" stroke="white" stroke-width="1.5" d="M0,-3.0v7 M-2.5,-0.5L0,-3.0L2.5,-0.5"/>
  </g>
  <g id="resetDef">
    <use xlink:href="#rim2" fill="#404040"><set attributeName="fill" to="#808080" begin="reset.mouseover" end="reset.mouseout"/></use>
  </g>
</defs>
<script type="application/ecmascript">
var viewWidth = 725;
var viewHeight = 532;
var sectionId = 'dynsection-3';
</script>
<script type="application/ecmascript" xlink:href="svg.min.js"/>
<svg id="graph" class="graph">
<g id="viewport">
<title>create_effect_settings_page_ui</title>
<!-- Node1 -->
<g id="Node000001" class="node">
<title>Node1</title>
<g id="a_Node000001"><a xlink:title=" ">
<polygon fill="#999999" stroke="#666666" points="124.75,-427.5 0,-427.5 0,-394 124.75,-394 124.75,-427.5"/>
<text xml:space="preserve" text-anchor="start" x="8" y="-414" font-family="Helvetica,sans-Serif" font-size="10.00">create_effect_settings</text>
<text xml:space="preserve" text-anchor="middle" x="62.38" y="-401.25" font-family="Helvetica,sans-Serif" font-size="10.00">_page_ui</text>
</a>
</g>
</g>
<!-- Node2 -->
<g id="Node000002" class="node">
<title>Node2</title>
<g id="a_Node000002"><a xlink:href="kest__effect__settings_8c.html#a70d66998be0b9c55aee8c71e5c08b3bd" target="_top" xlink:title=" ">
<polygon fill="white" stroke="#666666" points="294.12,-515.5 182.88,-515.5 182.88,-482 294.12,-482 294.12,-515.5"/>
<text xml:space="preserve" text-anchor="start" x="190.88" y="-502" font-family="Helvetica,sans-Serif" font-size="10.00">band_control_value</text>
<text xml:space="preserve" text-anchor="middle" x="238.5" y="-489.25" font-family="Helvetica,sans-Serif" font-size="10.00">_changed_cb</text>
</a>
</g>
</g>
<!-- Node1&#45;&gt;Node2 -->
<g id="edge1_Node000001_Node000002" class="edge">
<title>Node1&#45;&gt;Node2</title>
<g id="a_edge1_Node000001_Node000002"><a xlink:title=" ">
<path fill="none" stroke="#63b8ff" d="M91.91,-427.95C111.09,-439.24 137.09,-454.02 160.75,-465.75 168.43,-469.56 176.66,-473.36 184.76,-476.97"/>
<polygon fill="#63b8ff" stroke="#63b8ff" points="183.35,-480.17 193.91,-480.97 186.15,-473.76 183.35,-480.17"/>
</a>
</g>
</g>
<!-- Node3 -->
<g id="Node000003" class="node">
<title>Node3</title>
<g id="a_Node000003"><a xlink:href="kest__effect__settings_8c.html#af299f810b2c813a39803ad397fa4eeb4" target="_top" xlink:title=" ">
<polygon fill="white" stroke="#666666" points="512.25,-510.12 354.5,-510.12 354.5,-489.38 512.25,-489.38 512.25,-510.12"/>
<text xml:space="preserve" text-anchor="middle" x="433.38" y="-496.62" font-family="Helvetica,sans-Serif" font-size="10.00">refresh_effect_settings_page</text>
</a>
</g>
</g>
<!-- Node1&#45;&gt;Node3 -->
<g id="edge9_Node000001_Node000003" class="edge">
<title>Node1&#45;&gt;Node3</title>
<g id="a_edge9_Node000001_Node000003"><a xlink:title=" ">
<path fill="none" stroke="#63b8ff" d="M125.06,-425.79C183.53,-440.03 273.84,-461.95 352.25,-480.75 359.81,-482.56 367.77,-484.46 375.63,-486.33"/>
<polygon fill="#63b8ff" stroke="#63b8ff" points="374.59,-489.68 385.13,-488.59 376.21,-482.87 374.59,-489.68"/>
</a>
</g>
</g>
<!-- Node4 -->
<g id="Node000004" class="node">
<title>Node4</title>
<g id="a_Node000004"><a xlink:href="kest__parameter__widget_8c.html#adbadb9573fa4f9b812f8d270c78053e4" target="_top" xlink:title=" ">
<polygon fill="white" stroke="#666666" points="316.25,-421.12 160.75,-421.12 160.75,-400.38 316.25,-400.38 316.25,-421.12"/>
<text xml:space="preserve" text-anchor="middle" x="238.5" y="-407.62" font-family="Helvetica,sans-Serif" font-size="10.00">parameter_widget_create_ui</text>
</a>
</g>
</g>
<!-- Node1&#45;&gt;Node4 -->
<g id="edge3_Node000001_Node000004" class="edge">
<title>Node1&#45;&gt;Node4</title>
<g id="a_edge3_Node000001_Node000004"><a xlink:title=" ">
<path fill="none" stroke="#63b8ff" d="M124.76,-410.75C132.71,-410.75 140.96,-410.75 149.24,-410.75"/>
<polygon fill="#63b8ff" stroke="#63b8ff" points="148.98,-414.25 158.98,-410.75 148.98,-407.25 148.98,-414.25"/>
</a>
</g>
</g>
<!-- Node15 -->
<g id="Node000015" class="node">
<title>Node15</title>
<g id="a_Node000015"><a xlink:href="kest__parameter__widget_8c.html#a15c4ba0b3ffa376f951b0fa56aa1c264" target="_top" xlink:title=" ">
<polygon fill="white" stroke="#666666" points="300.5,-382.5 176.5,-382.5 176.5,-349 300.5,-349 300.5,-382.5"/>
<text xml:space="preserve" text-anchor="start" x="184.5" y="-369" font-family="Helvetica,sans-Serif" font-size="10.00">setting_widget_create</text>
<text xml:space="preserve" text-anchor="middle" x="238.5" y="-356.25" font-family="Helvetica,sans-Serif" font-size="10.00">_ui_no_callback</text>
</a>
</g>
</g>
<!-- Node1&#45;&gt;Node15 -->
<g id="edge10_Node000001_Node000015" class="edge">
<title>Node1&#45;&gt;Node15</title>
<g id="a_edge10_Node000001_Node000015"><a xlink:title=" ">
<path fill="none" stroke="#63b8ff" d="M124.76,-394.88C137.77,-391.52 151.61,-387.95 164.98,-384.49"/>
<polygon fill="#63b8ff" stroke="#63b8ff" points="165.81,-387.89 174.61,-382 164.05,-381.12 165.81,-387.89"/>
</a>
</g>
</g>
<!-- Node17 -->
<g id="Node000017" class="node">
<title>Node17</title>
<g id="a_Node000017"><a xlink:href="kest__ui_8c.html#a58a68a436917a32cc3daab2e0d4b3245" target="_top" xlink:title=" ">
<polygon fill="white" stroke="#666666" points="305,-308.12 172,-308.12 172,-287.38 305,-287.38 305,-308.12"/>
<text xml:space="preserve" text-anchor="middle" x="238.5" y="-294.62" font-family="Helvetica,sans-Serif" font-size="10.00">ui_page_create_base_ui</text>
</a>
</g>
</g>
<!-- Node1&#45;&gt;Node17 -->
<g id="edge12_Node000001_Node000017" class="edge">
<title>Node1&#45;&gt;Node17</title>
<g id="a_edge12_Node000001_Node000017"><a xlink:title=" ">
<path fill="none" stroke="#63b8ff" d="M85.23,-393.55C104.6,-378.62 133.9,-356.79 160.75,-339.75 175.16,-330.61 191.71,-321.4 205.74,-313.94"/>
<polygon fill="#63b8ff" stroke="#63b8ff" points="207.33,-317.06 214.56,-309.32 204.08,-310.86 207.33,-317.06"/>
</a>
</g>
</g>
<!-- Node2&#45;&gt;Node3 -->
<g id="edge2_Node000002_Node000003" class="edge">
<title>Node2&#45;&gt;Node3</title>
<g id="a_edge2_Node000002_Node000003"><a xlink:title=" ">
<path fill="none" stroke="#63b8ff" d="M294.51,-499.04C309.62,-499.11 326.4,-499.2 342.91,-499.29"/>
<polygon fill="#63b8ff" stroke="#63b8ff" points="342.74,-502.79 352.76,-499.34 342.78,-495.79 342.74,-502.79"/>
</a>
</g>
</g>
<!-- Node5 -->
<g id="Node000005" class="node">
<title>Node5</title>
<g id="a_Node000005"><a xlink:href="kest__parameter__widget_8c.html#aacedf3a01b62f8fba28c7521a2b64735" target="_top" xlink:title=" ">
<polygon fill="white" stroke="#666666" points="514.5,-420.12 352.25,-420.12 352.25,-399.38 514.5,-399.38 514.5,-420.12"/>
<text xml:space="preserve" text-anchor="middle" x="433.38" y="-406.62" font-family="Helvetica,sans-Serif" font-size="10.00">parameter_widget_change_cb</text>
</a>
</g>
</g>
<!-- Node4&#45;&gt;Node5 -->
<g id="edge4_Node000004_Node000005" class="edge">
<title>Node4&#45;&gt;Node5</title>
<g id="a_edge4_Node000004_Node000005"><a xlink:title=" ">
<path fill="none" stroke="#63b8ff" d="M316.56,-410.35C324.48,-410.31 332.58,-410.27 340.63,-410.23"/>
<polygon fill="#63b8ff" stroke="#63b8ff" points="340.47,-413.73 350.45,-410.17 340.43,-406.73 340.47,-413.73"/>
</a>
</g>
</g>
<!-- Node11 -->
<g id="Node000011" class="node">
<title>Node11</title>
<g id="a_Node000011"><a xlink:href="kest__parameter__widget_8c.html#a275a44ab81e73412a3c3da5597906fcc" target="_top" xlink:title=" ">
<polygon fill="white" stroke="#666666" points="504,-471.5 362.75,-471.5 362.75,-438 504,-438 504,-471.5"/>
<text xml:space="preserve" text-anchor="start" x="370.75" y="-458" font-family="Helvetica,sans-Serif" font-size="10.00">parameter_widget_create</text>
<text xml:space="preserve" text-anchor="middle" x="433.38" y="-445.25" font-family="Helvetica,sans-Serif" font-size="10.00">_ui_no_callback</text>
</a>
</g>
</g>
<!-- Node4&#45;&gt;Node11 -->
<g id="edge6_Node000004_Node000011" class="edge">
<title>Node4&#45;&gt;Node11</title>
<g id="a_edge6_Node000004_Node000011"><a xlink:title=" ">
<path fill="none" stroke="#63b8ff" d="M286.68,-421.51C306.15,-425.95 329.27,-431.23 351.29,-436.25"/>
<polygon fill="#63b8ff" stroke="#63b8ff" points="350.33,-439.62 360.86,-438.44 351.89,-432.8 350.33,-439.62"/>
</a>
</g>
</g>
<!-- Node6 -->
<g id="Node000006" class="node">
<title>Node6</title>
<g id="a_Node000006"><a xlink:href="kest__parameter__widget_8c.html#af94dfc8bbb394e3264533d794d147e95" target="_top" xlink:title=" ">
<polygon fill="#fff0f0" stroke="red" points="706.75,-419.5 561,-419.5 561,-386 706.75,-386 706.75,-419.5"/>
<text xml:space="preserve" text-anchor="start" x="569" y="-406" font-family="Helvetica,sans-Serif" font-size="10.00">parameter_widget_change</text>
<text xml:space="preserve" text-anchor="middle" x="633.88" y="-393.25" font-family="Helvetica,sans-Serif" font-size="10.00">_cb_inner</text>
</a>
</g>
</g>
<!-- Node5&#45;&gt;Node6 -->
<g id="edge5_Node000005_Node000006" class="edge">
<title>Node5&#45;&gt;Node6</title>
<g id="a_edge5_Node000005_Node000006"><a xlink:title=" ">
<path fill="none" stroke="#63b8ff" d="M514.83,-406.91C526.19,-406.51 537.9,-406.1 549.32,-405.7"/>
<polygon fill="#63b8ff" stroke="#63b8ff" points="549.24,-409.2 559.11,-405.35 548.99,-402.21 549.24,-409.2"/>
</a>
</g>
</g>
<!-- Node12 -->
<g id="Node000012" class="node">
<title>Node12</title>
<g id="a_Node000012"><a xlink:href="kest__parameter__widget_8c.html#abad910124e9bf706a008ab86f8bf70e6" target="_top" xlink:title=" ">
<polygon fill="white" stroke="#666666" points="706,-471.5 561.75,-471.5 561.75,-438 706,-438 706,-471.5"/>
<text xml:space="preserve" text-anchor="start" x="569.75" y="-458" font-family="Helvetica,sans-Serif" font-size="10.00">parameter_widget_update</text>
<text xml:space="preserve" text-anchor="middle" x="633.88" y="-445.25" font-family="Helvetica,sans-Serif" font-size="10.00">_value</text>
</a>
</g>
</g>
<!-- Node11&#45;&gt;Node12 -->
<g id="edge7_Node000011_Node000012" class="edge">
<title>Node11&#45;&gt;Node12</title>
<g id="a_edge7_Node000011_Node000012"><a xlink:title=" ">
<path fill="none" stroke="#63b8ff" d="M504.36,-454.75C519.12,-454.75 534.84,-454.75 550.03,-454.75"/>
<polygon fill="#63b8ff" stroke="#63b8ff" points="550,-458.25 560,-454.75 550,-451.25 550,-458.25"/>
</a>
</g>
</g>
<!-- Node13 -->
<g id="Node000013" class="node">
<title>Node13</title>
<g id="a_Node000013"><a xlink:href="kest__parameter__widget_8c.html#af345b51066bd1985326c50809d992fab" target="_top" xlink:title=" ">
<polygon fill="#fff0f0" stroke="red" points="706,-523.5 561.75,-523.5 561.75,-490 706,-490 706,-523.5"/>
<text xml:space="preserve" text-anchor="start" x="569.75" y="-510" font-family="Helvetica,sans-Serif" font-size="10.00">parameter_widget_update</text>
<text xml:space="preserve" text-anchor="middle" x="633.88" y="-497.25" font-family="Helvetica,sans-Serif" font-size="10.00">_value_label</text>
</a>
</g>
</g>
<!-- Node11&#45;&gt;Node13 -->
<g id="edge8_Node000011_Node000013" class="edge">
<title>Node11&#45;&gt;Node13</title>
<g id="a_edge8_Node000011_Node000013"><a xlink:title=" ">
<path fill="none" stroke="#63b8ff" d="M500.2,-471.99C518.13,-476.69 537.71,-481.82 556.2,-486.66"/>
<polygon fill="#63b8ff" stroke="#63b8ff" points="555.21,-490.02 565.77,-489.17 556.98,-483.25 555.21,-490.02"/>
</a>
</g>
</g>
<!-- Node16 -->
<g id="Node000016" class="node">
<title>Node16</title>
<g id="a_Node000016"><a xlink:href="kest__parameter__widget_8c.html#a97d6d97190503c60d5a816f44054c173" target="_top" xlink:title=" ">
<polygon fill="white" stroke="#666666" points="496.88,-381.5 369.88,-381.5 369.88,-348 496.88,-348 496.88,-381.5"/>
<text xml:space="preserve" text-anchor="start" x="377.88" y="-368" font-family="Helvetica,sans-Serif" font-size="10.00">setting_widget_update</text>
<text xml:space="preserve" text-anchor="middle" x="433.38" y="-355.25" font-family="Helvetica,sans-Serif" font-size="10.00">_value</text>
</a>
</g>
</g>
<!-- Node15&#45;&gt;Node16 -->
<g id="edge11_Node000015_Node000016" class="edge">
<title>Node15&#45;&gt;Node16</title>
<g id="a_edge11_Node000015_Node000016"><a xlink:title=" ">
<path fill="none" stroke="#63b8ff" d="M300.79,-365.43C319.06,-365.34 339.27,-365.23 358.26,-365.13"/>
<polygon fill="#63b8ff" stroke="#63b8ff" points="358.09,-368.64 368.07,-365.08 358.05,-361.64 358.09,-368.64"/>
</a>
</g>
</g>
<!-- Node18 -->
<g id="Node000018" class="node">
<title>Node18</title>
<g id="a_Node000018"><a xlink:href="kest__ui_8c.html#ab4d0521ac8d644d34daf9fde74ce1781" target="_top" xlink:title=" ">
<polygon fill="white" stroke="#666666" points="498.75,-291.5 368,-291.5 368,-258 498.75,-258 498.75,-291.5"/>
<text xml:space="preserve" text-anchor="start" x="376" y="-278" font-family="Helvetica,sans-Serif" font-size="10.00">ui_page_create_bottom</text>
<text xml:space="preserve" text-anchor="middle" x="433.38" y="-265.25" font-family="Helvetica,sans-Serif" font-size="10.00">_buttons</text>
</a>
</g>
</g>
<!-- Node17&#45;&gt;Node18 -->
<g id="edge13_Node000017_Node000018" class="edge">
<title>Node17&#45;&gt;Node18</title>
<g id="a_edge13_Node000017_Node000018"><a xlink:title=" ">
<path fill="none" stroke="#63b8ff" d="M305.34,-289.9C321.9,-287.92 339.8,-285.79 356.8,-283.76"/>
<polygon fill="#63b8ff" stroke="#63b8ff" points="356.8,-287.29 366.31,-282.63 355.97,-280.34 356.8,-287.29"/>
</a>
</g>
</g>
<!-- Node20 -->
<g id="Node000020" class="node">
<title>Node20</title>
<g id="a_Node000020"><a xlink:href="kest__ui_8c.html#a1d4879268198647d06d247db21e13f1b" target="_top" xlink:title=" ">
<polygon fill="white" stroke="#666666" points="504,-169.12 362.75,-169.12 362.75,-148.38 504,-148.38 504,-169.12"/>
<text xml:space="preserve" text-anchor="middle" x="433.38" y="-155.62" font-family="Helvetica,sans-Serif" font-size="10.00">ui_page_create_container</text>
</a>
</g>
</g>
<!-- Node17&#45;&gt;Node20 -->
<g id="edge16_Node000017_Node000020" class="edge">
<title>Node17&#45;&gt;Node20</title>
<g id="a_edge16_Node000017_Node000020"><a xlink:title=" ">
<path fill="none" stroke="#63b8ff" d="M254.31,-287.07C287.48,-263.17 367.96,-205.17 408.38,-176.04"/>
<polygon fill="#63b8ff" stroke="#63b8ff" points="410.22,-179.03 416.28,-170.35 406.12,-173.35 410.22,-179.03"/>
</a>
</g>
</g>
<!-- Node27 -->
<g id="Node000027" class="node">
<title>Node27</title>
<g id="a_Node000027"><a xlink:href="kest__ui_8c.html#ab16753d26193cafda5dd736999b6880c" target="_top" xlink:title=" ">
<polygon fill="white" stroke="#666666" points="501.75,-330.12 365,-330.12 365,-309.38 501.75,-309.38 501.75,-330.12"/>
<text xml:space="preserve" text-anchor="middle" x="433.38" y="-316.62" font-family="Helvetica,sans-Serif" font-size="10.00">ui_page_create_panel_ui</text>
</a>
</g>
</g>
<!-- Node17&#45;&gt;Node27 -->
<g id="edge23_Node000017_Node000027" class="edge">
<title>Node17&#45;&gt;Node27</title>
<g id="a_edge23_Node000017_Node000027"><a xlink:title=" ">
<path fill="none" stroke="#63b8ff" d="M305.34,-305.26C320.7,-307.01 337.23,-308.9 353.11,-310.71"/>
<polygon fill="#63b8ff" stroke="#63b8ff" points="352.7,-314.18 363.03,-311.84 353.49,-307.23 352.7,-314.18"/>
</a>
</g>
</g>
<!-- Node19 -->
<g id="Node000019" class="node">
<title>Node19</title>
<g id="a_Node000019"><a xlink:href="kest__button_8c.html#a42c4bb920da57000dbde4fa1fa26868c" target="_top" xlink:title=" ">
<polygon fill="white" stroke="#666666" points="682.75,-292.12 585,-292.12 585,-271.38 682.75,-271.38 682.75,-292.12"/>
<text xml:space="preserve" text-anchor="middle" x="633.88" y="-278.62" font-family="Helvetica,sans-Serif" font-size="10.00">create_button_ui</text>
</a>
</g>
</g>
<!-- Node18&#45;&gt;Node19 -->
<g id="edge14_Node000018_Node000019" class="edge">
<title>Node18&#45;&gt;Node19</title>
<g id="a_edge14_Node000018_Node000019"><a xlink:title=" ">
<path fill="none" stroke="#63b8ff" d="M499.1,-277.03C523.01,-277.88 549.99,-278.83 573.42,-279.65"/>
<polygon fill="#63b8ff" stroke="#63b8ff" points="572.98,-283.14 583.09,-279.99 573.22,-276.14 572.98,-283.14"/>
</a>
</g>
</g>
<!-- Node19&#45;&gt;Node19 -->
<g id="edge15_Node000019_Node000019" class="edge">
<title>Node19&#45;&gt;Node19</title>
<g id="a_edge15_Node000019_Node000019"><a xlink:title=" ">
<path fill="none" stroke="#63b8ff" d="M601.57,-292.52C588.65,-301.18 599.41,-310.12 633.88,-310.12 652.72,-310.12 664.48,-307.45 669.16,-303.61"/>
<polygon fill="#63b8ff" stroke="#63b8ff" points="672.54,-302.74 666.57,-293.98 665.78,-304.55 672.54,-302.74"/>
</a>
</g>
</g>
<!-- Node21 -->
<g id="Node000021" class="node">
<title>Node21</title>
<g id="a_Node000021"><a xlink:href="kest__ui_8c.html#abbbe680f4aa51c0ca17cd2a5e1bda3bf" target="_top" xlink:title=" ">
<polygon fill="white" stroke="#666666" points="709.75,-72.12 558,-72.12 558,-51.38 709.75,-51.38 709.75,-72.12"/>
<text xml:space="preserve" text-anchor="middle" x="633.88" y="-58.62" font-family="Helvetica,sans-Serif" font-size="10.00">create_standard_button_list</text>
</a>
</g>
</g>
<!-- Node20&#45;&gt;Node21 -->
<g id="edge17_Node000020_Node000021" class="edge">
<title>Node20&#45;&gt;Node21</title>
<g id="a_edge17_Node000020_Node000021"><a xlink:title=" ">
<path fill="none" stroke="#63b8ff" d="M447.04,-147.93C467.45,-131.04 509.5,-98.52 550.5,-80.75 554.55,-78.99 558.79,-77.39 563.11,-75.92"/>
<polygon fill="#63b8ff" stroke="#63b8ff" points="564.01,-79.31 572.52,-73.01 561.94,-72.62 564.01,-79.31"/>
</a>
</g>
</g>
<!-- Node22 -->
<g id="Node000022" class="node">
<title>Node22</title>
<g id="a_Node000022"><a xlink:href="kest__ui_8c.html#a62738946a4bf88f4f13024860a34c7f1" target="_top" xlink:title=" ">
<polygon fill="white" stroke="#666666" points="699.62,-33.5 568.12,-33.5 568.12,0 699.62,0 699.62,-33.5"/>
<text xml:space="preserve" text-anchor="start" x="576.12" y="-20" font-family="Helvetica,sans-Serif" font-size="10.00">create_standard_button</text>
<text xml:space="preserve" text-anchor="middle" x="633.88" y="-7.25" font-family="Helvetica,sans-Serif" font-size="10.00">_list_tall</text>
</a>
</g>
</g>
<!-- Node20&#45;&gt;Node22 -->
<g id="edge18_Node000020_Node000022" class="edge">
<title>Node20&#45;&gt;Node22</title>
<g id="a_edge18_Node000020_Node000022"><a xlink:title=" ">
<path fill="none" stroke="#63b8ff" d="M442.13,-148.09C459.17,-125.4 502.26,-72.01 550.5,-42.75 552.91,-41.29 555.41,-39.9 557.98,-38.58"/>
<polygon fill="#63b8ff" stroke="#63b8ff" points="559.18,-41.88 566.77,-34.49 556.23,-35.54 559.18,-41.88"/>
</a>
</g>
</g>
<!-- Node23 -->
<g id="Node000023" class="node">
<title>Node23</title>
<g id="a_Node000023"><a xlink:href="kest__ui_8c.html#ad803666a4c57c1c8a0ecf5e508311f21" target="_top" xlink:title=" ">
<polygon fill="white" stroke="#666666" points="706.75,-253.12 561,-253.12 561,-232.38 706.75,-232.38 706.75,-253.12"/>
<text xml:space="preserve" text-anchor="middle" x="633.88" y="-239.62" font-family="Helvetica,sans-Serif" font-size="10.00">create_standard_container</text>
</a>
</g>
</g>
<!-- Node20&#45;&gt;Node23 -->
<g id="edge19_Node000020_Node000023" class="edge">
<title>Node20&#45;&gt;Node23</title>
<g id="a_edge19_Node000020_Node000023"><a xlink:title=" ">
<path fill="none" stroke="#63b8ff" d="M450.62,-169.53C472.48,-183.6 512.96,-208.15 550.5,-222.75 556.24,-224.98 562.31,-227.02 568.45,-228.87"/>
<polygon fill="#63b8ff" stroke="#63b8ff" points="567.47,-232.23 578.04,-231.58 569.37,-225.49 567.47,-232.23"/>
</a>
</g>
</g>
<!-- Node24 -->
<g id="Node000024" class="node">
<title>Node24</title>
<g id="a_Node000024"><a xlink:href="kest__ui_8c.html#a5b2e6069c686a61991fd838b5181c552" target="_top" xlink:title=" ">
<polygon fill="white" stroke="#666666" points="717.25,-214.12 550.5,-214.12 550.5,-193.38 717.25,-193.38 717.25,-214.12"/>
<text xml:space="preserve" text-anchor="middle" x="633.88" y="-200.62" font-family="Helvetica,sans-Serif" font-size="10.00">create_standard_container_tall</text>
</a>
</g>
</g>
<!-- Node20&#45;&gt;Node24 -->
<g id="edge20_Node000020_Node000024" class="edge">
<title>Node20&#45;&gt;Node24</title>
<g id="a_edge20_Node000020_Node000024"><a xlink:title=" ">
<path fill="none" stroke="#63b8ff" d="M482.17,-169.59C509.84,-175.86 544.88,-183.8 574.21,-190.45"/>
<polygon fill="#63b8ff" stroke="#63b8ff" points="573.15,-193.8 583.67,-192.6 574.69,-186.97 573.15,-193.8"/>
</a>
</g>
</g>
<!-- Node25 -->
<g id="Node000025" class="node">
<title>Node25</title>
<g id="a_Node000025"><a xlink:href="kest__ui_8c.html#a5426d800351280ff7029cc7e5a791ead" target="_top" xlink:title=" ">
<polygon fill="white" stroke="#666666" points="697.75,-175.5 570,-175.5 570,-142 697.75,-142 697.75,-175.5"/>
<text xml:space="preserve" text-anchor="start" x="578" y="-162" font-family="Helvetica,sans-Serif" font-size="10.00">create_standard_menu</text>
<text xml:space="preserve" text-anchor="middle" x="633.88" y="-149.25" font-family="Helvetica,sans-Serif" font-size="10.00">_container</text>
</a>
</g>
</g>
<!-- Node20&#45;&gt;Node25 -->
<g id="edge21_Node000020_Node000025" class="edge">
<title>Node20&#45;&gt;Node25</title>
<g id="a_edge21_Node000020_Node000025"><a xlink:title=" ">
<path fill="none" stroke="#63b8ff" d="M504.36,-158.75C521.85,-158.75 540.67,-158.75 558.37,-158.75"/>
<polygon fill="#63b8ff" stroke="#63b8ff" points="558.3,-162.25 568.3,-158.75 558.3,-155.25 558.3,-162.25"/>
</a>
</g>
</g>
<!-- Node26 -->
<g id="Node000026" class="node">
<title>Node26</title>
<g id="a_Node000026"><a xlink:href="kest__ui_8c.html#a631a3fb795f47fc10a39f4415efe7866" target="_top" xlink:title=" ">
<polygon fill="white" stroke="#666666" points="697.75,-123.5 570,-123.5 570,-90 697.75,-90 697.75,-123.5"/>
<text xml:space="preserve" text-anchor="start" x="578" y="-110" font-family="Helvetica,sans-Serif" font-size="10.00">create_standard_menu</text>
<text xml:space="preserve" text-anchor="middle" x="633.88" y="-97.25" font-family="Helvetica,sans-Serif" font-size="10.00">_container_tall</text>
</a>
</g>
</g>
<!-- Node20&#45;&gt;Node26 -->
<g id="edge22_Node000020_Node000026" class="edge">
<title>Node20&#45;&gt;Node26</title>
<g id="a_edge22_Node000020_Node000026"><a xlink:title=" ">
<path fill="none" stroke="#63b8ff" d="M475.5,-147.98C499.46,-141.7 530.4,-133.59 558.5,-126.23"/>
<polygon fill="#63b8ff" stroke="#63b8ff" points="559.26,-129.65 568.05,-123.73 557.49,-122.88 559.26,-129.65"/>
</a>
</g>
</g>
<!-- Node27&#45;&gt;Node19 -->
<g id="edge24_Node000027_Node000019" class="edge">
<title>Node27&#45;&gt;Node19</title>
<g id="a_edge24_Node000027_Node000019"><a xlink:title=" ">
<path fill="none" stroke="#63b8ff" d="M490.99,-308.91C516.75,-303.98 547.23,-298.15 573.32,-293.15"/>
<polygon fill="#63b8ff" stroke="#63b8ff" points="573.94,-296.6 583.11,-291.28 572.63,-289.72 573.94,-296.6"/>
</a>
</g>
</g>
<!-- Node28 -->
<g id="Node000028" class="node">
<title>Node28</title>
<g id="a_Node000028"><a xlink:href="kest__ui_8c.html#a132086b067e78c3ba91effc5944ba435" target="_top" xlink:title=" ">
<polygon fill="white" stroke="#666666" points="689.5,-361.5 578.25,-361.5 578.25,-328 689.5,-328 689.5,-361.5"/>
<text xml:space="preserve" text-anchor="start" x="586.25" y="-348" font-family="Helvetica,sans-Serif" font-size="10.00">ui_page_init_create</text>
<text xml:space="preserve" text-anchor="middle" x="633.88" y="-335.25" font-family="Helvetica,sans-Serif" font-size="10.00">_panel_label</text>
</a>
</g>
</g>
<!-- Node27&#45;&gt;Node28 -->
<g id="edge25_Node000027_Node000028" class="edge">
<title>Node27&#45;&gt;Node28</title>
<g id="a_edge25_Node000027_Node000028"><a xlink:title=" ">
<path fill="none" stroke="#63b8ff" d="M502.13,-328.28C522.98,-330.91 545.9,-333.8 566.64,-336.41"/>
<polygon fill="#63b8ff" stroke="#63b8ff" points="566.05,-339.86 576.41,-337.64 566.93,-332.92 566.05,-339.86"/>
</a>
</g>
</g>
</g>
</svg>

<g id="navigator" transform="translate(0 0)" fill="#404254">
  <rect fill="#f2f5e9" fill-opacity="0.5" stroke="#606060" stroke-width=".5" x="0" y="0" width="60" height="60"/>
  <use id="zoomplus" xlink:href="#zoomPlus" x="17" y="9" onmousedown="handleZoom(evt,'in')"/>
  <use id="zoomminus" xlink:href="#zoomMin" x="42" y="9" onmousedown="handleZoom(evt,'out')"/>
  <use id="reset" xlink:href="#resetDef" x="30" y="36" onmousedown="handleReset()"/>
   <use id="arrowup" xlink:href="#arrowUp" x="0" y="0" onmousedown="handlePan(0,-1)"/>
  <use id="arrowright" xlink:href="#arrowRight" x="0" y="0" onmousedown="handlePan(1,0)"/>
  <use id="arrowdown" xlink:href="#arrowDown" x="0" y="0" onmousedown="handlePan(0,1)"/>
  <use id="arrowleft" xlink:href="#arrowLeft" x="0" y="0" onmousedown="handlePan(-1,0)"/>
</g>
<svg viewBox="0 0 15 15" width="100%" height="30px" preserveAspectRatio="xMaxYMin meet">
 <g id="arrow_out" transform="scale(0.3 0.3)">
  <a xlink:href="kest__effect__settings_8h_ad39e071d5cf7cd7e4fc67d41f14d48e8_cgraph_org.svg" target="_base">
   <rect id="button" ry="5" rx="5" y="6" x="6" height="38" width="38"
        fill="#f2f5e9" fill-opacity="0.5" stroke="#606060" stroke-width="1.0"/>
   <path id="arrow"
     d="M 11.500037,31.436501 C 11.940474,20.09759 22.043105,11.32322 32.158766,21.979434 L 37.068811,17.246167 C 37.068811,17.246167 37.088388,32 37.088388,32 L 22.160133,31.978069 C 22.160133,31.978069 26.997745,27.140456 26.997745,27.140456 C 18.528582,18.264221 13.291696,25.230495 11.500037,31.436501 z"
     style="fill:#404040;"/>
  </a>
 </g>
</svg>

<style type='text/css'>
<![CDATA[
[data-mouse-over-selected='false'] { opacity: 0.7; }
[data-mouse-over-selected='true']  { opacity: 1.0; }
]]>
</style>
<script type="application/ecmascript"><![CDATA[
document.addEventListener('DOMContentLoaded', (event) => {
  highlightEdges();
  highlightAdjacentNodes();
});
]]></script>
</svg>
