<?xml version="1.0" encoding="UTF-8" standalone="no"?>
<!DOCTYPE svg PUBLIC "-//W3C//DTD SVG 1.1//EN"
 "http://www.w3.org/Graphics/SVG/1.1/DTD/svg11.dtd">
<!-- Generated by graphviz version 13.1.2 (20250808.2320)
 -->
<!-- Title: kest_parse_asm_line Pages: 1 -->
<svg width="961pt" height="686pt"
 viewBox="0.00 0.00 961.00 686.00" xmlns="http://www.w3.org/2000/svg" xmlns:xlink="http://www.w3.org/1999/xlink">
<g id="graph0" class="graph" transform="scale(1 1) rotate(0) translate(4 681.75)">
<title>kest_parse_asm_line</title>
<!-- Node1 -->
<g id="Node000001" class="node">
<title>Node1</title>
<g id="a_Node000001"><a xlink:title=" ">
<polygon fill="#999999" stroke="#666666" points="118,-219.75 0,-219.75 0,-199 118,-199 118,-219.75"/>
<text xml:space="preserve" text-anchor="middle" x="59" y="-206.25" font-family="Helvetica,sans-Serif" font-size="10.00">kest_parse_asm_line</text>
</a>
</g>
</g>
<!-- Node2 -->
<g id="Node000002" class="node">
<title>Node2</title>
<g id="a_Node000002"><a xlink:href="kest__asm__parser_8c.html#ababf53ab1d4fd01c0eadac07018adcb8" target="_top" xlink:title=" ">
<polygon fill="white" stroke="#666666" points="267.12,-677.75 186.62,-677.75 186.62,-657 267.12,-657 267.12,-677.75"/>
<text xml:space="preserve" text-anchor="middle" x="226.88" y="-664.25" font-family="Helvetica,sans-Serif" font-size="10.00">is_valid_instr</text>
</a>
</g>
</g>
<!-- Node1&#45;&gt;Node2 -->
<g id="edge1_Node000001_Node000002" class="edge">
<title>Node1&#45;&gt;Node2</title>
<g id="a_edge1_Node000001_Node000002"><a xlink:title=" ">
<path fill="none" stroke="#63b8ff" d="M60.91,-220.25C66.23,-280.94 94.94,-577.51 154,-643.38 159.8,-649.85 167.39,-654.57 175.47,-658.03"/>
<polygon fill="#63b8ff" stroke="#63b8ff" points="174.23,-661.3 184.82,-661.37 176.58,-654.71 174.23,-661.3"/>
</a>
</g>
</g>
<!-- Node3 -->
<g id="Node000003" class="node">
<title>Node3</title>
<g id="a_Node000003"><a xlink:href="kest__alloc_8c.html#a849755c5dc5b35e712ffcdb602e50fb4" target="_top" xlink:title=" ">
<polygon fill="white" stroke="#666666" points="952.5,-601.75 887.75,-601.75 887.75,-581 952.5,-581 952.5,-601.75"/>
<text xml:space="preserve" text-anchor="middle" x="920.12" y="-588.25" font-family="Helvetica,sans-Serif" font-size="10.00">kest_alloc</text>
</a>
</g>
</g>
<!-- Node1&#45;&gt;Node3 -->
<g id="edge2_Node000001_Node000003" class="edge">
<title>Node1&#45;&gt;Node3</title>
<g id="a_edge2_Node000001_Node000003"><a xlink:title=" ">
<path fill="none" stroke="#63b8ff" d="M62.89,-220.18C81.21,-285.92 187.39,-629.38 406.12,-629.38 406.12,-629.38 406.12,-629.38 585.38,-629.38 704.06,-629.38 734.83,-630.81 851.75,-610.38 859.9,-608.95 868.48,-606.94 876.68,-604.76"/>
<polygon fill="#63b8ff" stroke="#63b8ff" points="877.41,-608.19 886.1,-602.12 875.53,-601.45 877.41,-608.19"/>
</a>
</g>
</g>
<!-- Node4 -->
<g id="Node000004" class="node">
<title>Node4</title>
<g id="a_Node000004"><a xlink:href="kest__expression_8c.html#aadf2a6a074cb1ad7b45893704cbd71c3" target="_top" xlink:title=" ">
<polygon fill="white" stroke="#666666" points="281.75,-226.12 172,-226.12 172,-192.62 281.75,-192.62 281.75,-226.12"/>
<text xml:space="preserve" text-anchor="start" x="180" y="-212.62" font-family="Helvetica,sans-Serif" font-size="10.00">kest_expression_to</text>
<text xml:space="preserve" text-anchor="middle" x="226.88" y="-199.88" font-family="Helvetica,sans-Serif" font-size="10.00">_string</text>
</a>
</g>
</g>
<!-- Node1&#45;&gt;Node4 -->
<g id="edge3_Node000001_Node000004" class="edge">
<title>Node1&#45;&gt;Node4</title>
<g id="a_edge3_Node000001_Node000004"><a xlink:title=" ">
<path fill="none" stroke="#63b8ff" d="M118.48,-209.38C131.96,-209.38 146.39,-209.38 160.16,-209.38"/>
<polygon fill="#63b8ff" stroke="#63b8ff" points="160.01,-212.88 170.01,-209.38 160.01,-205.88 160.01,-212.88"/>
</a>
</g>
</g>
<!-- Node9 -->
<g id="Node000009" class="node">
<title>Node9</title>
<g id="a_Node000009"><a xlink:href="kest__asm__parser_8c.html#a975cb5ec55968124f930a9a35fe564c5" target="_top" xlink:title=" ">
<polygon fill="white" stroke="#666666" points="284.75,-321.75 169,-321.75 169,-301 284.75,-301 284.75,-321.75"/>
<text xml:space="preserve" text-anchor="middle" x="226.88" y="-308.25" font-family="Helvetica,sans-Serif" font-size="10.00">kest_parse_asm_arg</text>
</a>
</g>
</g>
<!-- Node1&#45;&gt;Node9 -->
<g id="edge9_Node000001_Node000009" class="edge">
<title>Node1&#45;&gt;Node9</title>
<g id="a_edge9_Node000001_Node000009"><a xlink:title=" ">
<path fill="none" stroke="#63b8ff" d="M76.91,-220.14C95.68,-232.05 126.89,-251.76 154,-268.38 168.42,-277.22 184.58,-286.9 197.92,-294.84"/>
<polygon fill="#63b8ff" stroke="#63b8ff" points="195.81,-297.65 206.19,-299.75 199.38,-291.64 195.81,-297.65"/>
</a>
</g>
</g>
<!-- Node20 -->
<g id="Node000020" class="node">
<title>Node20</title>
<g id="a_Node000020"><a xlink:href="kest__eff__parser_8c.html#aee5c1435aac9ead9b0c5c692c7c621ec" target="_top" xlink:title=" ">
<polygon fill="#fff0f0" stroke="red" points="828.88,-381.75 713.12,-381.75 713.12,-361 828.88,-361 828.88,-381.75"/>
<text xml:space="preserve" text-anchor="middle" x="771" y="-368.25" font-family="Helvetica,sans-Serif" font-size="10.00">kest_parser_error_at</text>
</a>
</g>
</g>
<!-- Node1&#45;&gt;Node20 -->
<g id="edge31_Node000001_Node000020" class="edge">
<title>Node1&#45;&gt;Node20</title>
<g id="a_edge31_Node000001_Node000020"><a xlink:title=" ">
<path fill="none" stroke="#63b8ff" d="M94.06,-220.23C111.78,-225.51 133.88,-231.53 154,-235.38 373.66,-277.32 445.11,-210.19 654.25,-289.38 692.14,-303.72 729.13,-333.49 750.73,-352.93"/>
<polygon fill="#63b8ff" stroke="#63b8ff" points="748.17,-355.33 757.89,-359.54 752.91,-350.18 748.17,-355.33"/>
</a>
</g>
</g>
<!-- Node37 -->
<g id="Node000037" class="node">
<title>Node37</title>
<g id="a_Node000037"><a xlink:href="kest__asm__parser_8c.html#a93fe9789a6b0162607601862f5fa9c8c" target="_top" xlink:title=" ">
<polygon fill="white" stroke="#666666" points="290.38,-417.75 163.38,-417.75 163.38,-397 290.38,-397 290.38,-417.75"/>
<text xml:space="preserve" text-anchor="middle" x="226.88" y="-404.25" font-family="Helvetica,sans-Serif" font-size="10.00">kest_parse_asm_arg_2</text>
</a>
</g>
</g>
<!-- Node1&#45;&gt;Node37 -->
<g id="edge22_Node000001_Node000037" class="edge">
<title>Node1&#45;&gt;Node37</title>
<g id="a_edge22_Node000001_Node000037"><a xlink:title=" ">
<path fill="none" stroke="#63b8ff" d="M67.74,-219.99C83.43,-241.35 120.36,-290.89 154,-330.38 171.45,-350.85 192.58,-373.23 207.4,-388.55"/>
<polygon fill="#63b8ff" stroke="#63b8ff" points="204.78,-390.88 214.27,-395.61 209.8,-386 204.78,-390.88"/>
</a>
</g>
</g>
<!-- Node38 -->
<g id="Node000038" class="node">
<title>Node38</title>
<g id="a_Node000038"><a xlink:href="kest__eff__parser_8c.html#ae0a87c76dcbf2248bb57755c7e76c08d" target="_top" xlink:title=" ">
<polygon fill="white" stroke="#666666" points="457.5,-136.75 356.75,-136.75 356.75,-116 457.5,-116 457.5,-136.75"/>
<text xml:space="preserve" text-anchor="middle" x="407.12" y="-123.25" font-family="Helvetica,sans-Serif" font-size="10.00">kest_parser_alloc</text>
</a>
</g>
</g>
<!-- Node1&#45;&gt;Node38 -->
<g id="edge29_Node000001_Node000038" class="edge">
<title>Node1&#45;&gt;Node38</title>
<g id="a_edge29_Node000001_Node000038"><a xlink:title=" ">
<path fill="none" stroke="#63b8ff" d="M71.34,-198.65C87.98,-183.68 120.64,-157.04 154,-145.38 216.4,-123.55 292.65,-120.83 344.84,-122.29"/>
<polygon fill="#63b8ff" stroke="#63b8ff" points="344.63,-125.78 354.75,-122.63 344.87,-118.78 344.63,-125.78"/>
</a>
</g>
</g>
<!-- Node40 -->
<g id="Node000040" class="node">
<title>Node40</title>
<g id="a_Node000040"><a xlink:href="kest__eff__parser_8c.html#a06afc65a973778a4d6bd160064e72253" target="_top" xlink:title=" ">
<polygon fill="white" stroke="#666666" points="284,-174.75 169.75,-174.75 169.75,-154 284,-154 284,-174.75"/>
<text xml:space="preserve" text-anchor="middle" x="226.88" y="-161.25" font-family="Helvetica,sans-Serif" font-size="10.00">kest_parser_strndup</text>
</a>
</g>
</g>
<!-- Node1&#45;&gt;Node40 -->
<g id="edge32_Node000001_Node000040" class="edge">
<title>Node1&#45;&gt;Node40</title>
<g id="a_edge32_Node000001_Node000040"><a xlink:title=" ">
<path fill="none" stroke="#63b8ff" d="M98.85,-198.52C115.78,-193.82 135.86,-188.28 154,-183.38 160.31,-181.67 166.93,-179.9 173.49,-178.15"/>
<polygon fill="#63b8ff" stroke="#63b8ff" points="174.2,-181.58 182.96,-175.63 172.4,-174.82 174.2,-181.58"/>
</a>
</g>
</g>
<!-- Node41 -->
<g id="Node000041" class="node">
<title>Node41</title>
<g id="a_Node000041"><a xlink:href="kest__block_8c.html#acf843c33332a666018bf6982d4a3f424" target="_top" xlink:title=" ">
<polygon fill="white" stroke="#666666" points="299.75,-98.75 154,-98.75 154,-78 299.75,-78 299.75,-98.75"/>
<text xml:space="preserve" text-anchor="middle" x="226.88" y="-85.25" font-family="Helvetica,sans-Serif" font-size="10.00">operand_const_minus_one</text>
</a>
</g>
</g>
<!-- Node1&#45;&gt;Node41 -->
<g id="edge34_Node000001_Node000041" class="edge">
<title>Node1&#45;&gt;Node41</title>
<g id="a_edge34_Node000001_Node000041"><a xlink:title=" ">
<path fill="none" stroke="#63b8ff" d="M67.54,-198.72C82.07,-178.93 115.89,-136.36 154,-112.38 159.56,-108.87 165.69,-105.82 171.96,-103.19"/>
<polygon fill="#63b8ff" stroke="#63b8ff" points="173.05,-106.51 181.13,-99.66 170.54,-99.98 173.05,-106.51"/>
</a>
</g>
</g>
<!-- Node42 -->
<g id="Node000042" class="node">
<title>Node42</title>
<g id="a_Node000042"><a xlink:href="kest__block_8c.html#a0abe86a6e458577f0b06c8567db06e90" target="_top" xlink:title=" ">
<polygon fill="white" stroke="#666666" points="282.12,-59.75 171.62,-59.75 171.62,-39 282.12,-39 282.12,-59.75"/>
<text xml:space="preserve" text-anchor="middle" x="226.88" y="-46.25" font-family="Helvetica,sans-Serif" font-size="10.00">operand_const_one</text>
</a>
</g>
</g>
<!-- Node1&#45;&gt;Node42 -->
<g id="edge35_Node000001_Node000042" class="edge">
<title>Node1&#45;&gt;Node42</title>
<g id="a_edge35_Node000001_Node000042"><a xlink:title=" ">
<path fill="none" stroke="#63b8ff" d="M64.07,-198.72C74.64,-172.48 105.58,-104.34 154,-69.38 156.21,-67.78 158.55,-66.3 160.98,-64.95"/>
<polygon fill="#63b8ff" stroke="#63b8ff" points="162.46,-68.12 169.99,-60.67 159.45,-61.8 162.46,-68.12"/>
</a>
</g>
</g>
<!-- Node43 -->
<g id="Node000043" class="node">
<title>Node43</title>
<g id="a_Node000043"><a xlink:href="kest__block_8c.html#af0864eedf184e1c9cadd6c7322a4fa59" target="_top" xlink:title=" ">
<polygon fill="white" stroke="#666666" points="283.62,-20.75 170.12,-20.75 170.12,0 283.62,0 283.62,-20.75"/>
<text xml:space="preserve" text-anchor="middle" x="226.88" y="-7.25" font-family="Helvetica,sans-Serif" font-size="10.00">operand_const_zero</text>
</a>
</g>
</g>
<!-- Node1&#45;&gt;Node43 -->
<g id="edge36_Node000001_Node000043" class="edge">
<title>Node1&#45;&gt;Node43</title>
<g id="a_edge36_Node000001_Node000043"><a xlink:title=" ">
<path fill="none" stroke="#63b8ff" d="M62.46,-198.6C70.14,-167.47 96.65,-76.69 154,-30.38 155.92,-28.82 157.96,-27.39 160.08,-26.07"/>
<polygon fill="#63b8ff" stroke="#63b8ff" points="161.27,-29.39 168.51,-21.65 158.03,-23.19 161.27,-29.39"/>
</a>
</g>
</g>
<!-- Node5 -->
<g id="Node000005" class="node">
<title>Node5</title>
<g id="a_Node000005"><a xlink:href="kest__expression_8c.html#a767b50b7ddfa94dc61810dfdcc8feaf0" target="_top" xlink:title=" ">
<polygon fill="white" stroke="#666666" points="478.5,-195.75 335.75,-195.75 335.75,-175 478.5,-175 478.5,-195.75"/>
<text xml:space="preserve" text-anchor="middle" x="407.12" y="-182.25" font-family="Helvetica,sans-Serif" font-size="10.00">kest_expression_print_rec</text>
</a>
</g>
</g>
<!-- Node4&#45;&gt;Node5 -->
<g id="edge4_Node000004_Node000005" class="edge">
<title>Node4&#45;&gt;Node5</title>
<g id="a_edge4_Node000004_Node000005"><a xlink:title=" ">
<path fill="none" stroke="#63b8ff" d="M281.84,-202.11C295.31,-200.3 310.06,-198.31 324.54,-196.36"/>
<polygon fill="#63b8ff" stroke="#63b8ff" points="324.6,-199.88 334.04,-195.08 323.66,-192.95 324.6,-199.88"/>
</a>
</g>
</g>
<!-- Node5&#45;&gt;Node5 -->
<g id="edge8_Node000005_Node000005" class="edge">
<title>Node5&#45;&gt;Node5</title>
<g id="a_edge8_Node000005_Node000005"><a xlink:title=" ">
<path fill="none" stroke="#63b8ff" d="M378.56,-196.15C367.14,-204.81 376.66,-213.75 407.12,-213.75 423.79,-213.75 434.18,-211.08 438.31,-207.24"/>
<polygon fill="#63b8ff" stroke="#63b8ff" points="441.75,-206.54 436.03,-197.62 434.94,-208.16 441.75,-206.54"/>
</a>
</g>
</g>
<!-- Node6 -->
<g id="Node000006" class="node">
<title>Node6</title>
<g id="a_Node000006"><a xlink:href="kest__expression_8c.html#a2f21e4932bce8c87ec0bfc508588b761" target="_top" xlink:title=" ">
<polygon fill="white" stroke="#666666" points="646,-226.75 522.75,-226.75 522.75,-206 646,-206 646,-226.75"/>
<text xml:space="preserve" text-anchor="middle" x="584.38" y="-213.25" font-family="Helvetica,sans-Serif" font-size="10.00">kest_expression_form</text>
</a>
</g>
</g>
<!-- Node5&#45;&gt;Node6 -->
<g id="edge5_Node000005_Node000006" class="edge">
<title>Node5&#45;&gt;Node6</title>
<g id="a_edge5_Node000005_Node000006"><a xlink:title=" ">
<path fill="none" stroke="#63b8ff" d="M469.42,-196.22C482.97,-198.61 497.45,-201.18 511.38,-203.64"/>
<polygon fill="#63b8ff" stroke="#63b8ff" points="510.46,-207.03 520.92,-205.33 511.68,-200.14 510.46,-207.03"/>
</a>
</g>
</g>
<!-- Node7 -->
<g id="Node000007" class="node">
<title>Node7</title>
<g id="a_Node000007"><a xlink:href="kest__expression_8c.html#a81b490a2837a170e18e8cdae730d0d9b" target="_top" xlink:title=" ">
<polygon fill="white" stroke="#666666" points="654.25,-188.12 514.5,-188.12 514.5,-154.62 654.25,-154.62 654.25,-188.12"/>
<text xml:space="preserve" text-anchor="start" x="522.5" y="-174.62" font-family="Helvetica,sans-Serif" font-size="10.00">kest_expression_function</text>
<text xml:space="preserve" text-anchor="middle" x="584.38" y="-161.88" font-family="Helvetica,sans-Serif" font-size="10.00">_string</text>
</a>
</g>
</g>
<!-- Node5&#45;&gt;Node7 -->
<g id="edge6_Node000005_Node000007" class="edge">
<title>Node5&#45;&gt;Node7</title>
<g id="a_edge6_Node000005_Node000007"><a xlink:title=" ">
<path fill="none" stroke="#63b8ff" d="M478.9,-179.72C486.78,-179.09 494.84,-178.45 502.83,-177.81"/>
<polygon fill="#63b8ff" stroke="#63b8ff" points="502.84,-181.32 512.53,-177.03 502.29,-174.34 502.84,-181.32"/>
</a>
</g>
</g>
<!-- Node8 -->
<g id="Node000008" class="node">
<title>Node8</title>
<g id="a_Node000008"><a xlink:href="kest__expression_8c.html#a1a3a0bc9ed6726fb24e6a40803741b43" target="_top" xlink:title=" ">
<polygon fill="white" stroke="#666666" points="645.25,-136.12 523.5,-136.12 523.5,-102.62 645.25,-102.62 645.25,-136.12"/>
<text xml:space="preserve" text-anchor="start" x="531.5" y="-122.62" font-family="Helvetica,sans-Serif" font-size="10.00">kest_expression_infix</text>
<text xml:space="preserve" text-anchor="middle" x="584.38" y="-109.88" font-family="Helvetica,sans-Serif" font-size="10.00">_operator_string</text>
</a>
</g>
</g>
<!-- Node5&#45;&gt;Node8 -->
<g id="edge7_Node000005_Node000008" class="edge">
<title>Node5&#45;&gt;Node8</title>
<g id="a_edge7_Node000005_Node000008"><a xlink:title=" ">
<path fill="none" stroke="#63b8ff" d="M436.67,-174.62C461.14,-165.41 497.11,-151.86 527.31,-140.49"/>
<polygon fill="#63b8ff" stroke="#63b8ff" points="528.18,-143.9 536.3,-137.1 525.71,-137.35 528.18,-143.9"/>
</a>
</g>
</g>
<!-- Node10 -->
<g id="Node000010" class="node">
<title>Node10</title>
<g id="a_Node000010"><a xlink:href="kest__expr__parser_8c.html#a7caaee6c8b0c14b3ff08fba98d837ead" target="_top" xlink:title=" ">
<polygon fill="white" stroke="#666666" points="470.62,-340.75 343.62,-340.75 343.62,-320 470.62,-320 470.62,-340.75"/>
<text xml:space="preserve" text-anchor="middle" x="407.12" y="-327.25" font-family="Helvetica,sans-Serif" font-size="10.00">kest_parse_expression</text>
</a>
</g>
</g>
<!-- Node9&#45;&gt;Node10 -->
<g id="edge10_Node000009_Node000010" class="edge">
<title>Node9&#45;&gt;Node10</title>
<g id="a_edge10_Node000009_Node000010"><a xlink:title=" ">
<path fill="none" stroke="#63b8ff" d="M284.76,-317.44C299.77,-319.04 316.18,-320.79 331.95,-322.47"/>
<polygon fill="#63b8ff" stroke="#63b8ff" points="331.47,-325.94 341.78,-323.52 332.21,-318.98 331.47,-325.94"/>
</a>
</g>
</g>
<!-- Node9&#45;&gt;Node20 -->
<g id="edge20_Node000009_Node000020" class="edge">
<title>Node9&#45;&gt;Node20</title>
<g id="a_edge20_Node000009_Node000020"><a xlink:title=" ">
<path fill="none" stroke="#63b8ff" d="M285.11,-302.9C367.91,-292.53 525.34,-279.95 654.25,-311.38 688.19,-319.65 723.29,-339.76 745.8,-354.42"/>
<polygon fill="#63b8ff" stroke="#63b8ff" points="743.7,-357.23 753.95,-359.88 747.59,-351.41 743.7,-357.23"/>
</a>
</g>
</g>
<!-- Node36 -->
<g id="Node000036" class="node">
<title>Node36</title>
<g id="a_Node000036"><a xlink:href="kest__tokenizer_8c.html#a2ec9c97a1ac58583e2731a0e3d533af6" target="_top" xlink:title=" ">
<polygon fill="white" stroke="#666666" points="444.38,-379.75 369.88,-379.75 369.88,-359 444.38,-359 444.38,-379.75"/>
<text xml:space="preserve" text-anchor="middle" x="407.12" y="-366.25" font-family="Helvetica,sans-Serif" font-size="10.00">token_is_int</text>
</a>
</g>
</g>
<!-- Node9&#45;&gt;Node36 -->
<g id="edge21_Node000009_Node000036" class="edge">
<title>Node9&#45;&gt;Node36</title>
<g id="a_edge21_Node000009_Node000036"><a xlink:title=" ">
<path fill="none" stroke="#63b8ff" d="M257.01,-322.19C278.63,-330.08 308.88,-340.83 335.75,-349.38 343.07,-351.7 350.86,-354.05 358.48,-356.27"/>
<polygon fill="#63b8ff" stroke="#63b8ff" points="357.44,-359.61 368.02,-359 359.37,-352.88 357.44,-359.61"/>
</a>
</g>
</g>
<!-- Node11 -->
<g id="Node000011" class="node">
<title>Node11</title>
<g id="a_Node000011"><a xlink:href="kest__expression_8c.html#a10e88ee8970dd7501341b9d5ea0c3cba" target="_top" xlink:title=" ">
<polygon fill="#fff0f0" stroke="red" points="649.75,-354.12 519,-354.12 519,-320.62 649.75,-320.62 649.75,-354.12"/>
<text xml:space="preserve" text-anchor="start" x="527" y="-340.62" font-family="Helvetica,sans-Serif" font-size="10.00">kest_expression_detect</text>
<text xml:space="preserve" text-anchor="middle" x="584.38" y="-327.88" font-family="Helvetica,sans-Serif" font-size="10.00">_constants</text>
</a>
</g>
</g>
<!-- Node10&#45;&gt;Node11 -->
<g id="edge11_Node000010_Node000011" class="edge">
<title>Node10&#45;&gt;Node11</title>
<g id="a_edge11_Node000010_Node000011"><a xlink:title=" ">
<path fill="none" stroke="#63b8ff" d="M470.9,-332.88C482.66,-333.35 495.07,-333.85 507.18,-334.33"/>
<polygon fill="#63b8ff" stroke="#63b8ff" points="507.03,-337.83 517.16,-334.73 507.31,-330.83 507.03,-337.83"/>
</a>
</g>
</g>
<!-- Node15 -->
<g id="Node000015" class="node">
<title>Node15</title>
<g id="a_Node000015"><a xlink:href="kest__expr__parser_8c.html#adf0188b23902aff2ddacb388e811412e" target="_top" xlink:title=" ">
<polygon fill="#fff0f0" stroke="red" points="647.88,-507.12 520.88,-507.12 520.88,-473.62 647.88,-473.62 647.88,-507.12"/>
<text xml:space="preserve" text-anchor="start" x="528.88" y="-493.62" font-family="Helvetica,sans-Serif" font-size="10.00">kest_parse_expression</text>
<text xml:space="preserve" text-anchor="middle" x="584.38" y="-480.88" font-family="Helvetica,sans-Serif" font-size="10.00">_rec_pratt</text>
</a>
</g>
</g>
<!-- Node10&#45;&gt;Node15 -->
<g id="edge12_Node000010_Node000015" class="edge">
<title>Node10&#45;&gt;Node15</title>
<g id="a_edge12_Node000010_Node000015"><a xlink:title=" ">
<path fill="none" stroke="#63b8ff" d="M460.97,-341.25C467.16,-343.7 473.16,-346.7 478.5,-350.38 520.99,-379.59 553.26,-431.65 570.16,-463.39"/>
<polygon fill="#63b8ff" stroke="#63b8ff" points="566.9,-464.69 574.61,-471.96 573.12,-461.48 566.9,-464.69"/>
</a>
</g>
</g>
<!-- Node15&#45;&gt;Node15 -->
<g id="edge13_Node000015_Node000015" class="edge">
<title>Node15&#45;&gt;Node15</title>
<g id="a_edge13_Node000015_Node000015"><a xlink:title=" ">
<path fill="none" stroke="#63b8ff" d="M552.51,-507.54C547.1,-516.74 557.72,-525.12 584.38,-525.12 599.37,-525.12 609.29,-522.47 614.14,-518.51"/>
<polygon fill="#63b8ff" stroke="#63b8ff" points="617.51,-519.51 615.95,-509.03 610.64,-518.19 617.51,-519.51"/>
</a>
</g>
</g>
<!-- Node15&#45;&gt;Node20 -->
<g id="edge14_Node000015_Node000020" class="edge">
<title>Node15&#45;&gt;Node20</title>
<g id="a_edge14_Node000015_Node000020"><a xlink:title=" ">
<path fill="none" stroke="#63b8ff" d="M611.83,-473.33C647.04,-450.63 708.92,-410.74 743.94,-388.17"/>
<polygon fill="#63b8ff" stroke="#63b8ff" points="745.69,-391.21 752.2,-382.85 741.89,-385.33 745.69,-391.21"/>
</a>
</g>
</g>
<!-- Node24 -->
<g id="Node000024" class="node">
<title>Node24</title>
<g id="a_Node000024"><a xlink:href="kest__expression_8c.html#a5b047584af9003a45d12bb689067007b" target="_top" xlink:title=" ">
<polygon fill="#fff0f0" stroke="red" points="841.62,-601.75 700.38,-601.75 700.38,-581 841.62,-581 841.62,-601.75"/>
<text xml:space="preserve" text-anchor="middle" x="771" y="-588.25" font-family="Helvetica,sans-Serif" font-size="10.00">new_m_expression_const</text>
</a>
</g>
</g>
<!-- Node15&#45;&gt;Node24 -->
<g id="edge15_Node000015_Node000024" class="edge">
<title>Node15&#45;&gt;Node24</title>
<g id="a_edge15_Node000015_Node000024"><a xlink:title=" ">
<path fill="none" stroke="#63b8ff" d="M602.76,-507.52C622.4,-525.95 656.1,-554.81 690.25,-571.38 694.51,-573.44 699.01,-575.31 703.61,-577"/>
<polygon fill="#63b8ff" stroke="#63b8ff" points="702.44,-580.29 713.03,-580.13 704.64,-573.65 702.44,-580.29"/>
</a>
</g>
</g>
<!-- Node26 -->
<g id="Node000026" class="node">
<title>Node26</title>
<g id="a_Node000026"><a xlink:href="kest__expression_8c.html#a58d39794d89b01ca4b68e02c7fdc11c3" target="_top" xlink:title=" ">
<polygon fill="#fff0f0" stroke="red" points="851.75,-562.75 690.25,-562.75 690.25,-542 851.75,-542 851.75,-562.75"/>
<text xml:space="preserve" text-anchor="middle" x="771" y="-549.25" font-family="Helvetica,sans-Serif" font-size="10.00">new_m_expression_reference</text>
</a>
</g>
</g>
<!-- Node15&#45;&gt;Node26 -->
<g id="edge17_Node000015_Node000026" class="edge">
<title>Node15&#45;&gt;Node26</title>
<g id="a_edge17_Node000015_Node000026"><a xlink:title=" ">
<path fill="none" stroke="#63b8ff" d="M636.31,-507.48C664.83,-517.06 699.99,-528.87 727.1,-537.97"/>
<polygon fill="#63b8ff" stroke="#63b8ff" points="725.77,-541.21 736.37,-541.08 728,-534.58 725.77,-541.21"/>
</a>
</g>
</g>
<!-- Node34 -->
<g id="Node000034" class="node">
<title>Node34</title>
<g id="a_Node000034"><a xlink:href="kest__tokenizer_8c.html#a6ca78d248f8970c62c3a5cfc32ee0bb6" target="_top" xlink:title=" ">
<polygon fill="#fff0f0" stroke="red" points="813.88,-477.75 728.12,-477.75 728.12,-457 813.88,-457 813.88,-477.75"/>
<text xml:space="preserve" text-anchor="middle" x="771" y="-464.25" font-family="Helvetica,sans-Serif" font-size="10.00">token_to_float</text>
</a>
</g>
</g>
<!-- Node15&#45;&gt;Node34 -->
<g id="edge19_Node000015_Node000034" class="edge">
<title>Node15&#45;&gt;Node34</title>
<g id="a_edge19_Node000015_Node000034"><a xlink:title=" ">
<path fill="none" stroke="#63b8ff" d="M648.14,-482.56C670.38,-479.79 695.18,-476.7 716.57,-474.03"/>
<polygon fill="#63b8ff" stroke="#63b8ff" points="716.75,-477.54 726.24,-472.83 715.88,-470.59 716.75,-477.54"/>
</a>
</g>
</g>
<!-- Node24&#45;&gt;Node3 -->
<g id="edge16_Node000024_Node000003" class="edge">
<title>Node24&#45;&gt;Node3</title>
<g id="a_edge16_Node000024_Node000003"><a xlink:title=" ">
<path fill="none" stroke="#63b8ff" d="M842.12,-591.38C853.62,-591.38 865.24,-591.38 875.85,-591.38"/>
<polygon fill="#63b8ff" stroke="#63b8ff" points="875.81,-594.88 885.81,-591.38 875.81,-587.88 875.81,-594.88"/>
</a>
</g>
</g>
<!-- Node26&#45;&gt;Node3 -->
<g id="edge18_Node000026_Node000003" class="edge">
<title>Node26&#45;&gt;Node3</title>
<g id="a_edge18_Node000026_Node000003"><a xlink:title=" ">
<path fill="none" stroke="#63b8ff" d="M815.93,-563.15C827.59,-566.08 840.16,-569.29 851.75,-572.38 859.74,-574.5 868.25,-576.84 876.43,-579.13"/>
<polygon fill="#63b8ff" stroke="#63b8ff" points="875.27,-582.44 885.85,-581.79 877.17,-575.7 875.27,-582.44"/>
</a>
</g>
</g>
<!-- Node37&#45;&gt;Node10 -->
<g id="edge23_Node000037_Node000010" class="edge">
<title>Node37&#45;&gt;Node10</title>
<g id="a_edge23_Node000037_Node000010"><a xlink:title=" ">
<path fill="none" stroke="#63b8ff" d="M245.27,-396.72C266.16,-384.27 302.53,-363.7 335.75,-350.38 340.92,-348.3 346.39,-346.35 351.9,-344.54"/>
<polygon fill="#63b8ff" stroke="#63b8ff" points="352.52,-348.01 361.03,-341.69 350.44,-341.33 352.52,-348.01"/>
</a>
</g>
</g>
<!-- Node37&#45;&gt;Node20 -->
<g id="edge24_Node000037_Node000020" class="edge">
<title>Node37&#45;&gt;Node20</title>
<g id="a_edge24_Node000037_Node000020"><a xlink:title=" ">
<path fill="none" stroke="#63b8ff" d="M290.86,-403.19C393.43,-396.38 595.71,-382.95 701.64,-375.91"/>
<polygon fill="#63b8ff" stroke="#63b8ff" points="701.57,-379.43 711.32,-375.27 701.11,-372.44 701.57,-379.43"/>
</a>
</g>
</g>
<!-- Node37&#45;&gt;Node24 -->
<g id="edge25_Node000037_Node000024" class="edge">
<title>Node37&#45;&gt;Node24</title>
<g id="a_edge25_Node000037_Node000024"><a xlink:title=" ">
<path fill="none" stroke="#63b8ff" d="M236.11,-418.13C252.66,-438.98 292.11,-484.97 335.75,-509.38 447.17,-571.68 597.19,-587.63 688.57,-591.17"/>
<polygon fill="#63b8ff" stroke="#63b8ff" points="688.34,-594.66 698.46,-591.51 688.58,-587.67 688.34,-594.66"/>
</a>
</g>
</g>
<!-- Node37&#45;&gt;Node26 -->
<g id="edge26_Node000037_Node000026" class="edge">
<title>Node37&#45;&gt;Node26</title>
<g id="a_edge26_Node000037_Node000026"><a xlink:title=" ">
<path fill="none" stroke="#63b8ff" d="M246.18,-418.21C290.45,-443.79 407.54,-507.78 514.5,-534.38 567.85,-547.64 629.25,-552.29 678.49,-553.55"/>
<polygon fill="#63b8ff" stroke="#63b8ff" points="678.18,-557.05 688.25,-553.76 678.33,-550.05 678.18,-557.05"/>
</a>
</g>
</g>
<!-- Node37&#45;&gt;Node34 -->
<g id="edge28_Node000037_Node000034" class="edge">
<title>Node37&#45;&gt;Node34</title>
<g id="a_edge28_Node000037_Node000034"><a xlink:title=" ">
<path fill="none" stroke="#63b8ff" d="M290.86,-414.35C398.35,-426.24 615.35,-450.26 716.21,-461.42"/>
<polygon fill="#63b8ff" stroke="#63b8ff" points="715.8,-464.9 726.12,-462.52 716.57,-457.94 715.8,-464.9"/>
</a>
</g>
</g>
<!-- Node37&#45;&gt;Node36 -->
<g id="edge27_Node000037_Node000036" class="edge">
<title>Node37&#45;&gt;Node36</title>
<g id="a_edge27_Node000037_Node000036"><a xlink:title=" ">
<path fill="none" stroke="#63b8ff" d="M278.48,-396.59C303.65,-391.22 333.89,-384.77 358.63,-379.5"/>
<polygon fill="#63b8ff" stroke="#63b8ff" points="359.03,-382.99 368.08,-377.49 357.57,-376.15 359.03,-382.99"/>
</a>
</g>
</g>
<!-- Node39 -->
<g id="Node000039" class="node">
<title>Node39</title>
<g id="a_Node000039"><a xlink:href="kest__bump__arena_8c.html#aa9b5996d0711c6fb7360361b5d93510a" target="_top" xlink:title=" ">
<polygon fill="white" stroke="#666666" points="649.75,-84.75 519,-84.75 519,-64 649.75,-64 649.75,-84.75"/>
<text xml:space="preserve" text-anchor="middle" x="584.38" y="-71.25" font-family="Helvetica,sans-Serif" font-size="10.00">kest_bump_arena_alloc</text>
</a>
</g>
</g>
<!-- Node38&#45;&gt;Node39 -->
<g id="edge30_Node000038_Node000039" class="edge">
<title>Node38&#45;&gt;Node39</title>
<g id="a_edge30_Node000038_Node000039"><a xlink:title=" ">
<path fill="none" stroke="#63b8ff" d="M442.06,-115.55C462.91,-108.97 490.19,-100.5 514.5,-93.38 520.3,-91.67 526.39,-89.93 532.45,-88.23"/>
<polygon fill="#63b8ff" stroke="#63b8ff" points="533.1,-91.68 541.79,-85.62 531.22,-84.94 533.1,-91.68"/>
</a>
</g>
</g>
<!-- Node40&#45;&gt;Node38 -->
<g id="edge33_Node000040_Node000038" class="edge">
<title>Node40&#45;&gt;Node38</title>
<g id="a_edge33_Node000040_Node000038"><a xlink:title=" ">
<path fill="none" stroke="#63b8ff" d="M278.48,-153.59C299.25,-149.16 323.48,-143.99 345.21,-139.36"/>
<polygon fill="#63b8ff" stroke="#63b8ff" points="345.79,-142.82 354.84,-137.31 344.33,-135.97 345.79,-142.82"/>
</a>
</g>
</g>
</g>
</svg>
