<?xml version="1.0" encoding="UTF-8" standalone="no"?>
<!DOCTYPE svg PUBLIC "-//W3C//DTD SVG 1.1//EN"
 "http://www.w3.org/Graphics/SVG/1.1/DTD/svg11.dtd">
<!-- Generated by graphviz version 13.1.2 (20250808.2320)
 -->
<!-- Title: free_profile_view Pages: 1 -->
<!--zoomable 138 -->

<svg id="main" version="1.1" xmlns="http://www.w3.org/2000/svg" xmlns:xlink="http://www.w3.org/1999/xlink" xml:space="preserve" onload="init(evt)">

<style type="text/css"><![CDATA[
.node, .edge {opacity: 0.7;}
.node.selected, .edge.selected {opacity: 1;}
.edge:hover path { stroke: red; }
.edge:hover polygon { stroke: red; fill: red; }
]]></style>

<defs>
  <circle id="rim" cx="0" cy="0" r="7"/>
  <circle id="rim2" cx="0" cy="0" r="3.5"/>
  <g id="zoomPlus">
    <use xlink:href="#rim" fill="#404040"><set attributeName="fill" to="#808080" begin="zoomplus.mouseover" end="zoomplus.mouseout"/></use>
    <path d="M-4,0h8M0,-4v8" fill="none" stroke="white" stroke-width="1.5" pointer-events="none"/>
  </g>
  <g id="zoomMin">
    <use xlink:href="#rim" fill="#404040"><set attributeName="fill" to="#808080" begin="zoomminus.mouseover" end="zoomminus.mouseout"/></use>
    <path d="M-4,0h8" fill="none" stroke="white" stroke-width="1.5" pointer-events="none"/>
  </g>
  <g id="arrowUp" transform="translate(30 24)">
    <use xlink:href="#rim"/>
    <path pointer-events="none" fill="none" stroke="white" stroke-width="1.5" d="M0,-3.0v7 M-2.5,-0.5L0,-3.0L2.5,-0.5"/>
  </g>
  <g id="arrowRight" transform="rotate(90) translate(36 -43)">
    <use xlink:href="#rim"/>
    <path pointer-events="none" fill="none" stroke="white" stroke-width="1.5" d="M0,-3.0v7 M-2.5,-0.5L0,-3.0L2.5,-0.5"/>
  </g>
  <g id="arrowDown" transform="rotate(180) translate(-30 -48)">
    <use xlink:href="#rim"/>
    <path pointer-events="none" fill="none" stroke="white" stroke-width="1.5" d="M0,-3.0v7 M-2.5,-0.5L0,-3.0L2.5,-0.5"/>
  </g>
  <g id="arrowLeft" transform="rotate(270) translate(-36 17)">
    <use xlink:href="#rim"/>
    <path pointer-events="none" fill="none" stroke="white" stroke-width="1.5" d="M0,-3.0v7 M-2.5,-0.5L0,-3.0L2.5,-0.5"/>
  </g>
  <g id="resetDef">
    <use xlink:href="#rim2" fill="#404040"><set attributeName="fill" to="#808080" begin="reset.mouseover" end="reset.mouseout"/></use>
  </g>
</defs>
<script type="application/ecmascript">
var viewWidth = 888;
var viewHeight = 138;
var sectionId = 'dynsection-8';
</script>
<script type="application/ecmascript" xlink:href="svg.min.js"/>
<svg id="graph" class="graph">
<g id="viewport">
<title>free_profile_view</title>
<!-- Node1 -->
<g id="Node000001" class="node">
<title>Node1</title>
<g id="a_Node000001"><a xlink:title=" ">
<polygon fill="#999999" stroke="#666666" points="879.75,-78.75 779,-78.75 779,-58 879.75,-58 879.75,-78.75"/>
<text xml:space="preserve" text-anchor="middle" x="829.38" y="-65.25" font-family="Helvetica,sans-Serif" font-size="10.00">free_profile_view</text>
</a>
</g>
</g>
<!-- Node2 -->
<g id="Node000002" class="node">
<title>Node2</title>
<g id="a_Node000002"><a xlink:href="kest__profile__view_8c.html#a8a76cb40ff26bbde55ba56a4f25094d1" target="_top" xlink:title=" ">
<polygon fill="white" stroke="#666666" points="610,-78.75 479.25,-78.75 479.25,-58 610,-58 610,-78.75"/>
<text xml:space="preserve" text-anchor="middle" x="544.62" y="-65.25" font-family="Helvetica,sans-Serif" font-size="10.00">create_profile_view_for</text>
</a>
</g>
</g>
<!-- Node1&#45;&gt;Node2 -->
<g id="edge1_Node000001_Node000002" class="edge">
<title>Node1&#45;&gt;Node2</title>
<g id="a_edge1_Node000001_Node000002"><a xlink:title=" ">
<path fill="none" stroke="#63b8ff" d="M767.42,-68.38C721.11,-68.38 657.55,-68.38 610.34,-68.38"/>
<polygon fill="#63b8ff" stroke="#63b8ff" points="767.29,-71.88 777.29,-68.38 767.29,-64.88 767.29,-71.88"/>
</a>
</g>
</g>
<!-- Node22 -->
<g id="Node000022" class="node">
<title>Node22</title>
<g id="a_Node000022"><a xlink:href="kest__profile__view_8c.html#abfe2cf72961d0ab0b70f858cf1281a38" target="_top" xlink:title=" ">
<polygon fill="white" stroke="#666666" points="743,-59.75 646,-59.75 646,-39 743,-39 743,-59.75"/>
<text xml:space="preserve" text-anchor="middle" x="694.5" y="-46.25" font-family="Helvetica,sans-Serif" font-size="10.00">init_profile_view</text>
</a>
</g>
</g>
<!-- Node1&#45;&gt;Node22 -->
<g id="edge10_Node000001_Node000022" class="edge">
<title>Node1&#45;&gt;Node22</title>
<g id="a_edge10_Node000001_Node000022"><a xlink:title=" ">
<path fill="none" stroke="#63b8ff" d="M767.31,-59.64C759.3,-58.5 751.18,-57.34 743.43,-56.23"/>
<polygon fill="#63b8ff" stroke="#63b8ff" points="766.63,-63.08 777.02,-61.03 767.62,-56.15 766.63,-63.08"/>
</a>
</g>
</g>
<!-- Node3 -->
<g id="Node000003" class="node">
<title>Node3</title>
<g id="a_Node000003"><a xlink:href="kest__profile_8c.html#a9222b6f2a0efa93ce0168e1bb530d733" target="_top" xlink:title=" ">
<polygon fill="white" stroke="#666666" points="439.12,-130.12 330.12,-130.12 330.12,-96.62 439.12,-96.62 439.12,-130.12"/>
<text xml:space="preserve" text-anchor="start" x="338.12" y="-116.62" font-family="Helvetica,sans-Serif" font-size="10.00">create_new_profile</text>
<text xml:space="preserve" text-anchor="middle" x="384.62" y="-103.88" font-family="Helvetica,sans-Serif" font-size="10.00">_with_teensy</text>
</a>
</g>
</g>
<!-- Node2&#45;&gt;Node3 -->
<g id="edge2_Node000002_Node000003" class="edge">
<title>Node2&#45;&gt;Node3</title>
<g id="a_edge2_Node000002_Node000003"><a xlink:title=" ">
<path fill="none" stroke="#63b8ff" d="M495.18,-82.17C477.6,-87.18 457.63,-92.87 439.59,-98"/>
<polygon fill="#63b8ff" stroke="#63b8ff" points="495.67,-85.67 504.32,-79.57 493.75,-78.94 495.67,-85.67"/>
</a>
</g>
</g>
<!-- Node4 -->
<g id="Node000004" class="node">
<title>Node4</title>
<g id="a_Node000004"><a xlink:href="kest__files_8c.html#a9a8521ad7db2dd3514b6ece8c4d6d787" target="_top" xlink:title=" ">
<polygon fill="white" stroke="#666666" points="441.38,-78.75 327.88,-78.75 327.88,-58 441.38,-58 441.38,-78.75"/>
<text xml:space="preserve" text-anchor="middle" x="384.62" y="-65.25" font-family="Helvetica,sans-Serif" font-size="10.00">load_saved_profiles</text>
</a>
</g>
</g>
<!-- Node2&#45;&gt;Node4 -->
<g id="edge3_Node000002_Node000004" class="edge">
<title>Node2&#45;&gt;Node4</title>
<g id="a_edge3_Node000002_Node000004"><a xlink:title=" ">
<path fill="none" stroke="#63b8ff" d="M467.43,-68.38C458.66,-68.38 449.83,-68.38 441.4,-68.38"/>
<polygon fill="#63b8ff" stroke="#63b8ff" points="467.39,-71.88 477.39,-68.38 467.39,-64.88 467.39,-71.88"/>
</a>
</g>
</g>
<!-- Node8 -->
<g id="Node000008" class="node">
<title>Node8</title>
<g id="a_Node000008"><a xlink:href="kest__sequence__view_8c.html#abc9a54120c4bc7c4fe6a4632764e5e91" target="_top" xlink:title=" ">
<polygon fill="white" stroke="#666666" points="443.25,-39.75 326,-39.75 326,-19 443.25,-19 443.25,-39.75"/>
<text xml:space="preserve" text-anchor="middle" x="384.62" y="-26.25" font-family="Helvetica,sans-Serif" font-size="10.00">seq_view_clicked_cb</text>
</a>
</g>
</g>
<!-- Node2&#45;&gt;Node8 -->
<g id="edge6_Node000002_Node000008" class="edge">
<title>Node2&#45;&gt;Node8</title>
<g id="a_edge6_Node000002_Node000008"><a xlink:title=" ">
<path fill="none" stroke="#63b8ff" d="M488.55,-54.78C469.28,-50.03 447.92,-44.75 429.67,-40.25"/>
<polygon fill="#63b8ff" stroke="#63b8ff" points="487.6,-58.15 498.14,-57.15 489.27,-51.35 487.6,-58.15"/>
</a>
</g>
</g>
<!-- Node5 -->
<g id="Node000005" class="node">
<title>Node5</title>
<g id="a_Node000005"><a xlink:href="kest__int_8c.html#abce06be17fc37d675118a678a8100a36" target="_top" xlink:title=" ">
<polygon fill="white" stroke="#666666" points="251,-117.75 187,-117.75 187,-97 251,-97 251,-117.75"/>
<text xml:space="preserve" text-anchor="middle" x="219" y="-104.25" font-family="Helvetica,sans-Serif" font-size="10.00">app_main</text>
</a>
</g>
</g>
<!-- Node4&#45;&gt;Node5 -->
<g id="edge4_Node000004_Node000005" class="edge">
<title>Node4&#45;&gt;Node5</title>
<g id="a_edge4_Node000004_Node000005"><a xlink:title=" ">
<path fill="none" stroke="#63b8ff" d="M327.06,-81.86C301.7,-87.9 272.76,-94.8 251.36,-99.9"/>
<polygon fill="#63b8ff" stroke="#63b8ff" points="327.66,-85.31 336.57,-79.59 326.03,-78.5 327.66,-85.31"/>
</a>
</g>
</g>
<!-- Node6 -->
<g id="Node000006" class="node">
<title>Node6</title>
<g id="a_Node000006"><a xlink:href="kest__desktop_8c.html#ab499a4f71ef4cfc807b60d8739750c3e" target="_top" xlink:title=" ">
<polygon fill="#fff0f0" stroke="red" points="252.5,-78.75 185.5,-78.75 185.5,-58 252.5,-58 252.5,-78.75"/>
<text xml:space="preserve" text-anchor="middle" x="219" y="-65.25" font-family="Helvetica,sans-Serif" font-size="10.00">main_task</text>
</a>
</g>
</g>
<!-- Node4&#45;&gt;Node6 -->
<g id="edge5_Node000004_Node000006" class="edge">
<title>Node4&#45;&gt;Node6</title>
<g id="a_edge5_Node000004_Node000006"><a xlink:title=" ">
<path fill="none" stroke="#63b8ff" d="M316.44,-68.38C294.44,-68.38 270.99,-68.38 252.72,-68.38"/>
<polygon fill="#63b8ff" stroke="#63b8ff" points="316.26,-71.88 326.26,-68.38 316.26,-64.88 316.26,-71.88"/>
</a>
</g>
</g>
<!-- Node9 -->
<g id="Node000009" class="node">
<title>Node9</title>
<g id="a_Node000009"><a xlink:href="kest__sequence__view_8c.html#ac871b24a7c875a7b6e707a3d2691a2a9" target="_top" xlink:title=" ">
<polygon fill="#fff0f0" stroke="red" points="290,-39.75 148,-39.75 148,-19 290,-19 290,-39.75"/>
<text xml:space="preserve" text-anchor="middle" x="219" y="-26.25" font-family="Helvetica,sans-Serif" font-size="10.00">configure_sequence_view</text>
</a>
</g>
</g>
<!-- Node8&#45;&gt;Node9 -->
<g id="edge7_Node000008_Node000009" class="edge">
<title>Node8&#45;&gt;Node9</title>
<g id="a_edge7_Node000008_Node000009"><a xlink:title=" ">
<path fill="none" stroke="#63b8ff" d="M314.43,-29.38C306.47,-29.38 298.34,-29.38 290.36,-29.38"/>
<polygon fill="#63b8ff" stroke="#63b8ff" points="314.42,-32.88 324.42,-29.38 314.42,-25.88 314.42,-32.88"/>
</a>
</g>
</g>
<!-- Node21 -->
<g id="Node000021" class="node">
<title>Node21</title>
<g id="a_Node000021"><a xlink:href="kest__sequence__view_8c.html#aca115eba822b7486dc289cc9150562a7" target="_top" xlink:title=" ">
<polygon fill="#fff0f0" stroke="red" points="112,-20.75 0,-20.75 0,0 112,0 112,-20.75"/>
<text xml:space="preserve" text-anchor="middle" x="56" y="-7.25" font-family="Helvetica,sans-Serif" font-size="10.00">init_sequence_view</text>
</a>
</g>
</g>
<!-- Node8&#45;&gt;Node21 -->
<g id="edge9_Node000008_Node000021" class="edge">
<title>Node8&#45;&gt;Node21</title>
<g id="a_edge9_Node000008_Node000021"><a xlink:title=" ">
<path fill="none" stroke="#63b8ff" d="M328.36,-16.25C315.82,-13.81 302.51,-11.63 290,-10.38 229.43,-4.29 159.54,-5.36 112.24,-7.27"/>
<polygon fill="#63b8ff" stroke="#63b8ff" points="327.63,-19.68 338.13,-18.25 329.03,-12.82 327.63,-19.68"/>
</a>
</g>
</g>
<!-- Node9&#45;&gt;Node21 -->
<g id="edge8_Node000009_Node000021" class="edge">
<title>Node9&#45;&gt;Node21</title>
<g id="a_edge8_Node000009_Node000021"><a xlink:title=" ">
<path fill="none" stroke="#63b8ff" d="M136.67,-19.78C128.46,-18.81 120.25,-17.84 112.4,-16.91"/>
<polygon fill="#63b8ff" stroke="#63b8ff" points="136.01,-23.22 146.35,-20.92 136.83,-16.27 136.01,-23.22"/>
</a>
</g>
</g>
<!-- Node22&#45;&gt;Node2 -->
<g id="edge11_Node000022_Node000002" class="edge">
<title>Node22&#45;&gt;Node2</title>
<g id="a_edge11_Node000022_Node000002"><a xlink:title=" ">
<path fill="none" stroke="#63b8ff" d="M634.5,-56.96C626.57,-57.97 618.41,-59.02 610.39,-60.05"/>
<polygon fill="#63b8ff" stroke="#63b8ff" points="634.92,-60.43 644.4,-55.68 634.03,-53.49 634.92,-60.43"/>
</a>
</g>
</g>
</g>
</svg>

<g id="navigator" transform="translate(0 0)" fill="#404254">
  <rect fill="#f2f5e9" fill-opacity="0.5" stroke="#606060" stroke-width=".5" x="0" y="0" width="60" height="60"/>
  <use id="zoomplus" xlink:href="#zoomPlus" x="17" y="9" onmousedown="handleZoom(evt,'in')"/>
  <use id="zoomminus" xlink:href="#zoomMin" x="42" y="9" onmousedown="handleZoom(evt,'out')"/>
  <use id="reset" xlink:href="#resetDef" x="30" y="36" onmousedown="handleReset()"/>
   <use id="arrowup" xlink:href="#arrowUp" x="0" y="0" onmousedown="handlePan(0,-1)"/>
  <use id="arrowright" xlink:href="#arrowRight" x="0" y="0" onmousedown="handlePan(1,0)"/>
  <use id="arrowdown" xlink:href="#arrowDown" x="0" y="0" onmousedown="handlePan(0,1)"/>
  <use id="arrowleft" xlink:href="#arrowLeft" x="0" y="0" onmousedown="handlePan(-1,0)"/>
</g>
<svg viewBox="0 0 15 15" width="100%" height="30px" preserveAspectRatio="xMaxYMin meet">
 <g id="arrow_out" transform="scale(0.3 0.3)">
  <a xlink:href="kest__profile__view_8h_a6dce0ee803014127f1b83f16eceb96dd_icgraph_org.svg" target="_base">
   <rect id="button" ry="5" rx="5" y="6" x="6" height="38" width="38"
        fill="#f2f5e9" fill-opacity="0.5" stroke="#606060" stroke-width="1.0"/>
   <path id="arrow"
     d="M 11.500037,31.436501 C 11.940474,20.09759 22.043105,11.32322 32.158766,21.979434 L 37.068811,17.246167 C 37.068811,17.246167 37.088388,32 37.088388,32 L 22.160133,31.978069 C 22.160133,31.978069 26.997745,27.140456 26.997745,27.140456 C 18.528582,18.264221 13.291696,25.230495 11.500037,31.436501 z"
     style="fill:#404040;"/>
  </a>
 </g>
</svg>

<style type='text/css'>
<![CDATA[
[data-mouse-over-selected='false'] { opacity: 0.7; }
[data-mouse-over-selected='true']  { opacity: 1.0; }
]]>
</style>
<script type="application/ecmascript"><![CDATA[
document.addEventListener('DOMContentLoaded', (event) => {
  highlightEdges();
  highlightAdjacentNodes();
});
]]></script>
</svg>
