<?xml version="1.0" encoding="UTF-8" standalone="no"?>
<!DOCTYPE svg PUBLIC "-//W3C//DTD SVG 1.1//EN"
 "http://www.w3.org/Graphics/SVG/1.1/DTD/svg11.dtd">
<!-- Generated by graphviz version 13.1.2 (20250808.2320)
 -->
<!-- Title: kest_expression_references_param_rec Pages: 1 -->
<svg width="348pt" height="60pt"
 viewBox="0.00 0.00 348.00 60.00" xmlns="http://www.w3.org/2000/svg" xmlns:xlink="http://www.w3.org/1999/xlink">
<g id="graph0" class="graph" transform="scale(1 1) rotate(0) translate(4 55.5)">
<title>kest_expression_references_param_rec</title>
<!-- Node1 -->
<g id="Node000001" class="node">
<title>Node1</title>
<g id="a_Node000001"><a xlink:title=" ">
<polygon fill="#999999" stroke="#666666" points="339.5,-33.5 187.75,-33.5 187.75,0 339.5,0 339.5,-33.5"/>
<text xml:space="preserve" text-anchor="start" x="195.75" y="-20" font-family="Helvetica,sans-Serif" font-size="10.00">kest_expression_references</text>
<text xml:space="preserve" text-anchor="middle" x="263.62" y="-7.25" font-family="Helvetica,sans-Serif" font-size="10.00">_param_rec</text>
</a>
</g>
</g>
<!-- Node1&#45;&gt;Node1 -->
<g id="edge2_Node000001_Node000001" class="edge">
<title>Node1&#45;&gt;Node1</title>
<g id="a_edge2_Node000001_Node000001"><a xlink:title=" ">
<path fill="none" stroke="#63b8ff" d="M295.15,-44.89C290.02,-48.85 279.51,-51.5 263.62,-51.5 235.39,-51.5 224.14,-43.12 229.87,-33.91"/>
<polygon fill="#63b8ff" stroke="#63b8ff" points="298.52,-45.89 297.07,-35.4 291.66,-44.5 298.52,-45.89"/>
</a>
</g>
</g>
<!-- Node2 -->
<g id="Node000002" class="node">
<title>Node2</title>
<g id="a_Node000002"><a xlink:href="kest__expression_8c.html#a36532cb6ad5da45dd83c728134539363" target="_top" xlink:title=" ">
<polygon fill="white" stroke="#666666" points="151.75,-33.5 0,-33.5 0,0 151.75,0 151.75,-33.5"/>
<text xml:space="preserve" text-anchor="start" x="8" y="-20" font-family="Helvetica,sans-Serif" font-size="10.00">kest_expression_references</text>
<text xml:space="preserve" text-anchor="middle" x="75.88" y="-7.25" font-family="Helvetica,sans-Serif" font-size="10.00">_param</text>
</a>
</g>
</g>
<!-- Node1&#45;&gt;Node2 -->
<g id="edge1_Node000001_Node000002" class="edge">
<title>Node1&#45;&gt;Node2</title>
<g id="a_edge1_Node000001_Node000002"><a xlink:title=" ">
<path fill="none" stroke="#63b8ff" d="M176.04,-16.75C168,-16.75 159.89,-16.75 151.96,-16.75"/>
<polygon fill="#63b8ff" stroke="#63b8ff" points="175.83,-20.25 185.83,-16.75 175.83,-13.25 175.83,-20.25"/>
</a>
</g>
</g>
</g>
</svg>
