<?xml version="1.0" encoding="UTF-8" standalone="no"?>
<!DOCTYPE svg PUBLIC "-//W3C//DTD SVG 1.1//EN"
 "http://www.w3.org/Graphics/SVG/1.1/DTD/svg11.dtd">
<!-- Generated by graphviz version 13.1.2 (20250808.2320)
 -->
<!-- Title: kest_expression_type_to_str Pages: 1 -->
<svg width="614pt" height="42pt"
 viewBox="0.00 0.00 614.00 42.00" xmlns="http://www.w3.org/2000/svg" xmlns:xlink="http://www.w3.org/1999/xlink">
<g id="graph0" class="graph" transform="scale(1 1) rotate(0) translate(4 37.5)">
<title>kest_expression_type_to_str</title>
<!-- Node1 -->
<g id="Node000001" class="node">
<title>Node1</title>
<g id="a_Node000001"><a xlink:title=" ">
<polygon fill="#999999" stroke="#666666" points="606.25,-33.5 484.5,-33.5 484.5,0 606.25,0 606.25,-33.5"/>
<text xml:space="preserve" text-anchor="start" x="492.5" y="-20" font-family="Helvetica,sans-Serif" font-size="10.00">kest_expression_type</text>
<text xml:space="preserve" text-anchor="middle" x="545.38" y="-7.25" font-family="Helvetica,sans-Serif" font-size="10.00">_to_str</text>
</a>
</g>
</g>
<!-- Node2 -->
<g id="Node000002" class="node">
<title>Node2</title>
<g id="a_Node000002"><a xlink:href="kest__dict__extract_8c.html#aaf0af9bba0940d4cfe5a8286222f14be" target="_top" xlink:title=" ">
<polygon fill="white" stroke="#666666" points="448.5,-33.5 316.25,-33.5 316.25,0 448.5,0 448.5,-33.5"/>
<text xml:space="preserve" text-anchor="start" x="324.25" y="-20" font-family="Helvetica,sans-Serif" font-size="10.00">kest_extract_parameter</text>
<text xml:space="preserve" text-anchor="middle" x="382.38" y="-7.25" font-family="Helvetica,sans-Serif" font-size="10.00">_from_dict</text>
</a>
</g>
</g>
<!-- Node1&#45;&gt;Node2 -->
<g id="edge1_Node000001_Node000002" class="edge">
<title>Node1&#45;&gt;Node2</title>
<g id="a_edge1_Node000001_Node000002"><a xlink:title=" ">
<path fill="none" stroke="#63b8ff" d="M473.1,-16.75C465.01,-16.75 456.79,-16.75 448.78,-16.75"/>
<polygon fill="#63b8ff" stroke="#63b8ff" points="472.91,-20.25 482.91,-16.75 472.91,-13.25 472.91,-20.25"/>
</a>
</g>
</g>
<!-- Node3 -->
<g id="Node000003" class="node">
<title>Node3</title>
<g id="a_Node000003"><a xlink:href="kest__eff__section_8c.html#a5fe6d5cd354aa8f4322524ecc9b6af63" target="_top" xlink:title=" ">
<polygon fill="white" stroke="#666666" points="280.25,-33.5 142,-33.5 142,0 280.25,0 280.25,-33.5"/>
<text xml:space="preserve" text-anchor="start" x="150" y="-20" font-family="Helvetica,sans-Serif" font-size="10.00">kest_parameters_section</text>
<text xml:space="preserve" text-anchor="middle" x="211.12" y="-7.25" font-family="Helvetica,sans-Serif" font-size="10.00">_extract</text>
</a>
</g>
</g>
<!-- Node2&#45;&gt;Node3 -->
<g id="edge2_Node000002_Node000003" class="edge">
<title>Node2&#45;&gt;Node3</title>
<g id="a_edge2_Node000002_Node000003"><a xlink:title=" ">
<path fill="none" stroke="#63b8ff" d="M304.45,-16.75C296.55,-16.75 288.55,-16.75 280.75,-16.75"/>
<polygon fill="#63b8ff" stroke="#63b8ff" points="304.43,-20.25 314.42,-16.75 304.42,-13.25 304.43,-20.25"/>
</a>
</g>
</g>
<!-- Node4 -->
<g id="Node000004" class="node">
<title>Node4</title>
<g id="a_Node000004"><a xlink:href="kest__eff__parser_8c.html#a73ef6962d1925857ec3e4b12d1aad834" target="_top" xlink:title=" ">
<polygon fill="#fff0f0" stroke="red" points="106,-27.12 0,-27.12 0,-6.38 106,-6.38 106,-27.12"/>
<text xml:space="preserve" text-anchor="middle" x="53" y="-13.62" font-family="Helvetica,sans-Serif" font-size="10.00">kest_parse_tokens</text>
</a>
</g>
</g>
<!-- Node3&#45;&gt;Node4 -->
<g id="edge3_Node000003_Node000004" class="edge">
<title>Node3&#45;&gt;Node4</title>
<g id="a_edge3_Node000003_Node000004"><a xlink:title=" ">
<path fill="none" stroke="#63b8ff" d="M130.25,-16.75C122.18,-16.75 114.14,-16.75 106.46,-16.75"/>
<polygon fill="#63b8ff" stroke="#63b8ff" points="130.13,-20.25 140.13,-16.75 130.13,-13.25 130.13,-20.25"/>
</a>
</g>
</g>
</g>
</svg>
