<?xml version="1.0" encoding="UTF-8" standalone="no"?>
<!DOCTYPE svg PUBLIC "-//W3C//DTD SVG 1.1//EN"
 "http://www.w3.org/Graphics/SVG/1.1/DTD/svg11.dtd">
<!-- Generated by graphviz version 13.1.2 (20250808.2320)
 -->
<!-- Title: init_effect_selector_eff Pages: 1 -->
<!--zoomable 326 -->

<svg id="main" version="1.1" xmlns="http://www.w3.org/2000/svg" xmlns:xlink="http://www.w3.org/1999/xlink" xml:space="preserve" onload="init(evt)">

<style type="text/css"><![CDATA[
.node, .edge {opacity: 0.7;}
.node.selected, .edge.selected {opacity: 1;}
.edge:hover path { stroke: red; }
.edge:hover polygon { stroke: red; fill: red; }
]]></style>

<defs>
  <circle id="rim" cx="0" cy="0" r="7"/>
  <circle id="rim2" cx="0" cy="0" r="3.5"/>
  <g id="zoomPlus">
    <use xlink:href="#rim" fill="#404040"><set attributeName="fill" to="#808080" begin="zoomplus.mouseover" end="zoomplus.mouseout"/></use>
    <path d="M-4,0h8M0,-4v8" fill="none" stroke="white" stroke-width="1.5" pointer-events="none"/>
  </g>
  <g id="zoomMin">
    <use xlink:href="#rim" fill="#404040"><set attributeName="fill" to="#808080" begin="zoomminus.mouseover" end="zoomminus.mouseout"/></use>
    <path d="M-4,0h8" fill="none" stroke="white" stroke-width="1.5" pointer-events="none"/>
  </g>
  <g id="arrowUp" transform="translate(30 24)">
    <use xlink:href="#rim"/>
    <path pointer-events="none" fill="none" stroke="white" stroke-width="1.5" d="M0,-3.0v7 M-2.5,-0.5L0,-3.0L2.5,-0.5"/>
  </g>
  <g id="arrowRight" transform="rotate(90) translate(36 -43)">
    <use xlink:href="#rim"/>
    <path pointer-events="none" fill="none" stroke="white" stroke-width="1.5" d="M0,-3.0v7 M-2.5,-0.5L0,-3.0L2.5,-0.5"/>
  </g>
  <g id="arrowDown" transform="rotate(180) translate(-30 -48)">
    <use xlink:href="#rim"/>
    <path pointer-events="none" fill="none" stroke="white" stroke-width="1.5" d="M0,-3.0v7 M-2.5,-0.5L0,-3.0L2.5,-0.5"/>
  </g>
  <g id="arrowLeft" transform="rotate(270) translate(-36 17)">
    <use xlink:href="#rim"/>
    <path pointer-events="none" fill="none" stroke="white" stroke-width="1.5" d="M0,-3.0v7 M-2.5,-0.5L0,-3.0L2.5,-0.5"/>
  </g>
  <g id="resetDef">
    <use xlink:href="#rim2" fill="#404040"><set attributeName="fill" to="#808080" begin="reset.mouseover" end="reset.mouseout"/></use>
  </g>
</defs>
<script type="application/ecmascript">
var viewWidth = 651;
var viewHeight = 326;
var sectionId = 'dynsection-7';
</script>
<script type="application/ecmascript" xlink:href="svg.min.js"/>
<svg id="graph" class="graph">
<g id="viewport">
<title>init_effect_selector_eff</title>
<!-- Node1 -->
<g id="Node000001" class="node">
<title>Node1</title>
<g id="a_Node000001"><a xlink:title=" ">
<polygon fill="#999999" stroke="#666666" points="128.5,-104.75 0,-104.75 0,-84 128.5,-84 128.5,-104.75"/>
<text xml:space="preserve" text-anchor="middle" x="64.25" y="-91.25" font-family="Helvetica,sans-Serif" font-size="10.00">init_effect_selector_eff</text>
</a>
</g>
</g>
<!-- Node2 -->
<g id="Node000002" class="node">
<title>Node2</title>
<g id="a_Node000002"><a xlink:href="kest__effect__select_8c.html#af5e1f2ec64c8c42ed66a3bc39c7411eb" target="_top" xlink:title=" ">
<polygon fill="white" stroke="#666666" points="289.25,-201.12 164.5,-201.12 164.5,-167.62 289.25,-167.62 289.25,-201.12"/>
<text xml:space="preserve" text-anchor="start" x="172.5" y="-187.62" font-family="Helvetica,sans-Serif" font-size="10.00">create_effect_selector</text>
<text xml:space="preserve" text-anchor="middle" x="226.88" y="-174.88" font-family="Helvetica,sans-Serif" font-size="10.00">_ui_eff</text>
</a>
</g>
</g>
<!-- Node1&#45;&gt;Node2 -->
<g id="edge1_Node000001_Node000002" class="edge">
<title>Node1&#45;&gt;Node2</title>
<g id="a_edge1_Node000001_Node000002"><a xlink:title=" ">
<path fill="none" stroke="#63b8ff" d="M80.23,-105.2C99.24,-118.66 133.33,-141.88 164.5,-158.38 167.14,-159.77 169.88,-161.15 172.65,-162.51"/>
<polygon fill="#63b8ff" stroke="#63b8ff" points="170.93,-165.56 181.47,-166.62 173.89,-159.22 170.93,-165.56"/>
</a>
</g>
</g>
<!-- Node167 -->
<g id="Node000167" class="node">
<title>Node167</title>
<g id="a_Node000167"><a xlink:href="kest__effect__select_8c.html#a561886dfef79c8a41b80cf6da53887f6" target="_top" xlink:title=" ">
<polygon fill="white" stroke="#666666" points="286.62,-149.75 167.12,-149.75 167.12,-129 286.62,-129 286.62,-149.75"/>
<text xml:space="preserve" text-anchor="middle" x="226.88" y="-136.25" font-family="Helvetica,sans-Serif" font-size="10.00">enter_effect_selector</text>
</a>
</g>
</g>
<!-- Node1&#45;&gt;Node167 -->
<g id="edge10_Node000001_Node000167" class="edge">
<title>Node1&#45;&gt;Node167</title>
<g id="a_edge10_Node000001_Node000167"><a xlink:title=" ">
<path fill="none" stroke="#63b8ff" d="M103.72,-105.15C125.42,-111.23 152.76,-118.89 176.08,-125.42"/>
<polygon fill="#63b8ff" stroke="#63b8ff" points="175.13,-128.79 185.7,-128.12 177.02,-122.05 175.13,-128.79"/>
</a>
</g>
</g>
<!-- Node168 -->
<g id="Node000168" class="node">
<title>Node168</title>
<g id="a_Node000168"><a xlink:href="kest__effect__select_8c.html#acd02f7ed00bcc8462f330064ba42b495" target="_top" xlink:title=" ">
<polygon fill="white" stroke="#666666" points="284.38,-111.12 169.38,-111.12 169.38,-77.62 284.38,-77.62 284.38,-111.12"/>
<text xml:space="preserve" text-anchor="start" x="177.38" y="-97.62" font-family="Helvetica,sans-Serif" font-size="10.00">init_effect_selector</text>
<text xml:space="preserve" text-anchor="middle" x="226.88" y="-84.88" font-family="Helvetica,sans-Serif" font-size="10.00">_button_from_effect</text>
</a>
</g>
</g>
<!-- Node1&#45;&gt;Node168 -->
<g id="edge11_Node000001_Node000168" class="edge">
<title>Node1&#45;&gt;Node168</title>
<g id="a_edge11_Node000001_Node000168"><a xlink:title=" ">
<path fill="none" stroke="#63b8ff" d="M128.73,-94.38C138.31,-94.38 148.23,-94.38 157.9,-94.38"/>
<polygon fill="#63b8ff" stroke="#63b8ff" points="157.59,-97.88 167.59,-94.38 157.59,-90.88 157.59,-97.88"/>
</a>
</g>
</g>
<!-- Node169 -->
<g id="Node000169" class="node">
<title>Node169</title>
<g id="a_Node000169"><a xlink:href="kest__ui_8c.html#aa35b25eb0a8f315343a7ea5190b0163b" target="_top" xlink:title=" ">
<polygon fill="white" stroke="#666666" points="264.5,-59.75 189.25,-59.75 189.25,-39 264.5,-39 264.5,-59.75"/>
<text xml:space="preserve" text-anchor="middle" x="226.88" y="-46.25" font-family="Helvetica,sans-Serif" font-size="10.00">init_ui_page</text>
</a>
</g>
</g>
<!-- Node1&#45;&gt;Node169 -->
<g id="edge12_Node000001_Node000169" class="edge">
<title>Node1&#45;&gt;Node169</title>
<g id="a_edge12_Node000001_Node000169"><a xlink:title=" ">
<path fill="none" stroke="#63b8ff" d="M103.72,-83.6C126,-77.36 154.23,-69.45 177.94,-62.8"/>
<polygon fill="#63b8ff" stroke="#63b8ff" points="178.68,-66.23 187.36,-60.16 176.79,-59.49 178.68,-66.23"/>
</a>
</g>
</g>
<!-- Node38 -->
<g id="Node000038" class="node">
<title>Node38</title>
<g id="a_Node000038"><a xlink:href="kest__alloc_8c.html#a849755c5dc5b35e712ffcdb602e50fb4" target="_top" xlink:title=" ">
<polygon fill="white" stroke="#666666" points="259.25,-20.75 194.5,-20.75 194.5,0 259.25,0 259.25,-20.75"/>
<text xml:space="preserve" text-anchor="middle" x="226.88" y="-7.25" font-family="Helvetica,sans-Serif" font-size="10.00">kest_alloc</text>
</a>
</g>
</g>
<!-- Node1&#45;&gt;Node38 -->
<g id="edge13_Node000001_Node000038" class="edge">
<title>Node1&#45;&gt;Node38</title>
<g id="a_edge13_Node000001_Node000038"><a xlink:title=" ">
<path fill="none" stroke="#63b8ff" d="M79.36,-83.6C98.01,-69.76 132.28,-45.7 164.5,-30.38 170.46,-27.54 176.94,-24.95 183.37,-22.64"/>
<polygon fill="#63b8ff" stroke="#63b8ff" points="184.26,-26.03 192.61,-19.52 182.02,-19.4 184.26,-26.03"/>
</a>
</g>
</g>
<!-- Node3 -->
<g id="Node000003" class="node">
<title>Node3</title>
<g id="a_Node000003"><a xlink:href="kest__effect__select_8c.html#a46b6d3a353595e72c7a17e6352e5a7a0" target="_top" xlink:title=" ">
<polygon fill="white" stroke="#666666" points="454.5,-279.12 329.75,-279.12 329.75,-245.62 454.5,-245.62 454.5,-279.12"/>
<text xml:space="preserve" text-anchor="start" x="337.75" y="-265.62" font-family="Helvetica,sans-Serif" font-size="10.00">create_effect_selector</text>
<text xml:space="preserve" text-anchor="middle" x="392.12" y="-252.88" font-family="Helvetica,sans-Serif" font-size="10.00">_button_ui_eff</text>
</a>
</g>
</g>
<!-- Node2&#45;&gt;Node3 -->
<g id="edge2_Node000002_Node000003" class="edge">
<title>Node2&#45;&gt;Node3</title>
<g id="a_edge2_Node000002_Node000003"><a xlink:title=" ">
<path fill="none" stroke="#63b8ff" d="M257.69,-201.44C276.74,-212.06 302.12,-225.68 325.25,-236.38 328.39,-237.82 331.63,-239.27 334.91,-240.69"/>
<polygon fill="#63b8ff" stroke="#63b8ff" points="333.51,-243.9 344.08,-244.56 336.23,-237.45 333.51,-243.9"/>
</a>
</g>
</g>
<!-- Node160 -->
<g id="Node000160" class="node">
<title>Node160</title>
<g id="a_Node000160"><a xlink:href="kest__ui_8c.html#a7aea2c8df77b1c144c35271c2ab8241f" target="_top" xlink:title=" ">
<polygon fill="white" stroke="#666666" points="459,-227.12 325.25,-227.12 325.25,-193.62 459,-193.62 459,-227.12"/>
<text xml:space="preserve" text-anchor="start" x="333.25" y="-213.62" font-family="Helvetica,sans-Serif" font-size="10.00">create_panel_with_back</text>
<text xml:space="preserve" text-anchor="middle" x="392.12" y="-200.88" font-family="Helvetica,sans-Serif" font-size="10.00">_button</text>
</a>
</g>
</g>
<!-- Node2&#45;&gt;Node160 -->
<g id="edge5_Node000002_Node000160" class="edge">
<title>Node2&#45;&gt;Node160</title>
<g id="a_edge5_Node000002_Node000160"><a xlink:title=" ">
<path fill="none" stroke="#63b8ff" d="M289.59,-194.2C297.45,-195.46 305.57,-196.75 313.63,-198.03"/>
<polygon fill="#63b8ff" stroke="#63b8ff" points="313.04,-201.48 323.47,-199.6 314.14,-194.57 313.04,-201.48"/>
</a>
</g>
</g>
<!-- Node27 -->
<g id="Node000027" class="node">
<title>Node27</title>
<g id="a_Node000027"><a xlink:href="kest__ui_8c.html#a62738946a4bf88f4f13024860a34c7f1" target="_top" xlink:title=" ">
<polygon fill="white" stroke="#666666" points="457.88,-175.12 326.38,-175.12 326.38,-141.62 457.88,-141.62 457.88,-175.12"/>
<text xml:space="preserve" text-anchor="start" x="334.38" y="-161.62" font-family="Helvetica,sans-Serif" font-size="10.00">create_standard_button</text>
<text xml:space="preserve" text-anchor="middle" x="392.12" y="-148.88" font-family="Helvetica,sans-Serif" font-size="10.00">_list_tall</text>
</a>
</g>
</g>
<!-- Node2&#45;&gt;Node27 -->
<g id="edge8_Node000002_Node000027" class="edge">
<title>Node2&#45;&gt;Node27</title>
<g id="a_edge8_Node000002_Node000027"><a xlink:title=" ">
<path fill="none" stroke="#63b8ff" d="M289.59,-174.55C297.88,-173.23 306.46,-171.86 314.96,-170.51"/>
<polygon fill="#63b8ff" stroke="#63b8ff" points="315.23,-174.01 324.56,-168.98 314.13,-167.09 315.23,-174.01"/>
</a>
</g>
</g>
<!-- Node166 -->
<g id="Node000166" class="node">
<title>Node166</title>
<g id="a_Node000166"><a xlink:href="kest__ui_8c.html#a8d490b47e7d38b0c08a60f8e67596368" target="_top" xlink:title=" ">
<polygon fill="white" stroke="#666666" points="436.12,-123.75 348.12,-123.75 348.12,-103 436.12,-103 436.12,-123.75"/>
<text xml:space="preserve" text-anchor="middle" x="392.12" y="-110.25" font-family="Helvetica,sans-Serif" font-size="10.00">set_panel_text</text>
</a>
</g>
</g>
<!-- Node2&#45;&gt;Node166 -->
<g id="edge9_Node000002_Node000166" class="edge">
<title>Node2&#45;&gt;Node166</title>
<g id="a_edge9_Node000002_Node000166"><a xlink:title=" ">
<path fill="none" stroke="#63b8ff" d="M271.71,-167.24C277.71,-164.48 283.7,-161.5 289.25,-158.38 306.45,-148.69 307.51,-141.02 325.25,-132.38 329,-130.55 332.96,-128.86 337,-127.32"/>
<polygon fill="#63b8ff" stroke="#63b8ff" points="338.08,-130.65 346.37,-124.05 335.78,-124.04 338.08,-130.65"/>
</a>
</g>
</g>
<!-- Node4 -->
<g id="Node000004" class="node">
<title>Node4</title>
<g id="a_Node000004"><a xlink:href="kest__effect__select_8c.html#a0a0604d69c6fbeb09b31db2ebff0e901" target="_top" xlink:title=" ">
<polygon fill="#fff0f0" stroke="red" points="643,-317.75 495,-317.75 495,-297 643,-297 643,-317.75"/>
<text xml:space="preserve" text-anchor="middle" x="569" y="-304.25" font-family="Helvetica,sans-Serif" font-size="10.00">add_effect_from_menu_eff</text>
</a>
</g>
</g>
<!-- Node3&#45;&gt;Node4 -->
<g id="edge3_Node000003_Node000004" class="edge">
<title>Node3&#45;&gt;Node4</title>
<g id="a_edge3_Node000003_Node000004"><a xlink:title=" ">
<path fill="none" stroke="#63b8ff" d="M454.78,-278.24C474.33,-283.27 495.78,-288.79 514.69,-293.66"/>
<polygon fill="#63b8ff" stroke="#63b8ff" points="513.78,-297.04 524.34,-296.14 515.53,-290.26 513.78,-297.04"/>
</a>
</g>
</g>
<!-- Node159 -->
<g id="Node000159" class="node">
<title>Node159</title>
<g id="a_Node000159"><a xlink:href="kest__ui_8c.html#a3db1223191628ba0e7dd7ca3c2c8a529" target="_top" xlink:title=" ">
<polygon fill="white" stroke="#666666" points="634.75,-279.12 503.25,-279.12 503.25,-245.62 634.75,-245.62 634.75,-279.12"/>
<text xml:space="preserve" text-anchor="start" x="511.25" y="-265.62" font-family="Helvetica,sans-Serif" font-size="10.00">create_standard_button</text>
<text xml:space="preserve" text-anchor="middle" x="569" y="-252.88" font-family="Helvetica,sans-Serif" font-size="10.00">_click_short</text>
</a>
</g>
</g>
<!-- Node3&#45;&gt;Node159 -->
<g id="edge4_Node000003_Node000159" class="edge">
<title>Node3&#45;&gt;Node159</title>
<g id="a_edge4_Node000003_Node000159"><a xlink:title=" ">
<path fill="none" stroke="#63b8ff" d="M454.78,-262.38C466.67,-262.38 479.27,-262.38 491.57,-262.38"/>
<polygon fill="#63b8ff" stroke="#63b8ff" points="491.24,-265.88 501.24,-262.38 491.24,-258.88 491.24,-265.88"/>
</a>
</g>
</g>
<!-- Node161 -->
<g id="Node000161" class="node">
<title>Node161</title>
<g id="a_Node000161"><a xlink:href="kest__ui_8c.html#ab7288cd77dcc987b33a1c1be3a0a4ce0" target="_top" xlink:title=" ">
<polygon fill="#fff0f0" stroke="red" points="632.5,-227.12 505.5,-227.12 505.5,-193.62 632.5,-193.62 632.5,-227.12"/>
<text xml:space="preserve" text-anchor="start" x="513.5" y="-213.62" font-family="Helvetica,sans-Serif" font-size="10.00">create_panel_with_left</text>
<text xml:space="preserve" text-anchor="middle" x="569" y="-200.88" font-family="Helvetica,sans-Serif" font-size="10.00">_button</text>
</a>
</g>
</g>
<!-- Node160&#45;&gt;Node161 -->
<g id="edge6_Node000160_Node000161" class="edge">
<title>Node160&#45;&gt;Node161</title>
<g id="a_edge6_Node000160_Node000161"><a xlink:title=" ">
<path fill="none" stroke="#63b8ff" d="M459.24,-210.38C470.55,-210.38 482.38,-210.38 493.89,-210.38"/>
<polygon fill="#63b8ff" stroke="#63b8ff" points="493.75,-213.88 503.75,-210.38 493.75,-206.88 493.75,-213.88"/>
</a>
</g>
</g>
<!-- Node165 -->
<g id="Node000165" class="node">
<title>Node165</title>
<g id="a_Node000165"><a xlink:href="kest__ui_8c.html#af17d8912a520f607796e85d96467cc5a" target="_top" xlink:title=" ">
<polygon fill="#fff0f0" stroke="red" points="631,-175.75 507,-175.75 507,-155 631,-155 631,-175.75"/>
<text xml:space="preserve" text-anchor="middle" x="569" y="-162.25" font-family="Helvetica,sans-Serif" font-size="10.00">enter_parent_page_cb</text>
</a>
</g>
</g>
<!-- Node160&#45;&gt;Node165 -->
<g id="edge7_Node000160_Node000165" class="edge">
<title>Node160&#45;&gt;Node165</title>
<g id="a_edge7_Node000160_Node000165"><a xlink:title=" ">
<path fill="none" stroke="#63b8ff" d="M459.24,-193.36C477.57,-188.65 497.23,-183.59 514.72,-179.09"/>
<polygon fill="#63b8ff" stroke="#63b8ff" points="515.59,-182.48 524.4,-176.59 513.85,-175.7 515.59,-182.48"/>
</a>
</g>
</g>
</g>
</svg>

<g id="navigator" transform="translate(0 0)" fill="#404254">
  <rect fill="#f2f5e9" fill-opacity="0.5" stroke="#606060" stroke-width=".5" x="0" y="0" width="60" height="60"/>
  <use id="zoomplus" xlink:href="#zoomPlus" x="17" y="9" onmousedown="handleZoom(evt,'in')"/>
  <use id="zoomminus" xlink:href="#zoomMin" x="42" y="9" onmousedown="handleZoom(evt,'out')"/>
  <use id="reset" xlink:href="#resetDef" x="30" y="36" onmousedown="handleReset()"/>
   <use id="arrowup" xlink:href="#arrowUp" x="0" y="0" onmousedown="handlePan(0,-1)"/>
  <use id="arrowright" xlink:href="#arrowRight" x="0" y="0" onmousedown="handlePan(1,0)"/>
  <use id="arrowdown" xlink:href="#arrowDown" x="0" y="0" onmousedown="handlePan(0,1)"/>
  <use id="arrowleft" xlink:href="#arrowLeft" x="0" y="0" onmousedown="handlePan(-1,0)"/>
</g>
<svg viewBox="0 0 15 15" width="100%" height="30px" preserveAspectRatio="xMaxYMin meet">
 <g id="arrow_out" transform="scale(0.3 0.3)">
  <a xlink:href="kest__effect__select_8h_a4f784340d1e1e332c60be5a095244ba1_cgraph_org.svg" target="_base">
   <rect id="button" ry="5" rx="5" y="6" x="6" height="38" width="38"
        fill="#f2f5e9" fill-opacity="0.5" stroke="#606060" stroke-width="1.0"/>
   <path id="arrow"
     d="M 11.500037,31.436501 C 11.940474,20.09759 22.043105,11.32322 32.158766,21.979434 L 37.068811,17.246167 C 37.068811,17.246167 37.088388,32 37.088388,32 L 22.160133,31.978069 C 22.160133,31.978069 26.997745,27.140456 26.997745,27.140456 C 18.528582,18.264221 13.291696,25.230495 11.500037,31.436501 z"
     style="fill:#404040;"/>
  </a>
 </g>
</svg>

<style type='text/css'>
<![CDATA[
[data-mouse-over-selected='false'] { opacity: 0.7; }
[data-mouse-over-selected='true']  { opacity: 1.0; }
]]>
</style>
<script type="application/ecmascript"><![CDATA[
document.addEventListener('DOMContentLoaded', (event) => {
  highlightEdges();
  highlightAdjacentNodes();
});
]]></script>
</svg>
