<?xml version="1.0" encoding="UTF-8" standalone="no"?>
<!DOCTYPE svg PUBLIC "-//W3C//DTD SVG 1.1//EN"
 "http://www.w3.org/Graphics/SVG/1.1/DTD/svg11.dtd">
<!-- Generated by graphviz version 13.1.2 (20250808.2320)
 -->
<!-- Title: token_to_float Pages: 1 -->
<svg width="868pt" height="107pt"
 viewBox="0.00 0.00 868.00 107.00" xmlns="http://www.w3.org/2000/svg" xmlns:xlink="http://www.w3.org/1999/xlink">
<g id="graph0" class="graph" transform="scale(1 1) rotate(0) translate(4 102.75)">
<title>token_to_float</title>
<!-- Node1 -->
<g id="Node000001" class="node">
<title>Node1</title>
<g id="a_Node000001"><a xlink:title=" ">
<polygon fill="#999999" stroke="#666666" points="859.5,-72.75 773.75,-72.75 773.75,-52 859.5,-52 859.5,-72.75"/>
<text xml:space="preserve" text-anchor="middle" x="816.62" y="-59.25" font-family="Helvetica,sans-Serif" font-size="10.00">token_to_float</text>
</a>
</g>
</g>
<!-- Node2 -->
<g id="Node000002" class="node">
<title>Node2</title>
<g id="a_Node000002"><a xlink:href="kest__asm__parser_8c.html#a93fe9789a6b0162607601862f5fa9c8c" target="_top" xlink:title=" ">
<polygon fill="white" stroke="#666666" points="411.75,-98.75 284.75,-98.75 284.75,-78 411.75,-78 411.75,-98.75"/>
<text xml:space="preserve" text-anchor="middle" x="348.25" y="-85.25" font-family="Helvetica,sans-Serif" font-size="10.00">kest_parse_asm_arg_2</text>
</a>
</g>
</g>
<!-- Node1&#45;&gt;Node2 -->
<g id="edge1_Node000001_Node000002" class="edge">
<title>Node1&#45;&gt;Node2</title>
<g id="a_edge1_Node000001_Node000002"><a xlink:title=" ">
<path fill="none" stroke="#63b8ff" d="M762.03,-72.27C753.92,-73.5 745.63,-74.59 737.75,-75.38 623.26,-86.8 488.94,-88.77 412,-88.82"/>
<polygon fill="#63b8ff" stroke="#63b8ff" points="762.5,-75.74 771.83,-70.72 761.4,-68.83 762.5,-75.74"/>
</a>
</g>
</g>
<!-- Node12 -->
<g id="Node000012" class="node">
<title>Node12</title>
<g id="a_Node000012"><a xlink:href="kest__expr__parser_8c.html#adf0188b23902aff2ddacb388e811412e" target="_top" xlink:title=" ">
<polygon fill="white" stroke="#666666" points="737.75,-48.12 610.75,-48.12 610.75,-14.62 737.75,-14.62 737.75,-48.12"/>
<text xml:space="preserve" text-anchor="start" x="618.75" y="-34.62" font-family="Helvetica,sans-Serif" font-size="10.00">kest_parse_expression</text>
<text xml:space="preserve" text-anchor="middle" x="674.25" y="-21.88" font-family="Helvetica,sans-Serif" font-size="10.00">_rec_pratt</text>
</a>
</g>
</g>
<!-- Node1&#45;&gt;Node12 -->
<g id="edge4_Node000001_Node000012" class="edge">
<title>Node1&#45;&gt;Node12</title>
<g id="a_edge4_Node000001_Node000012"><a xlink:title=" ">
<path fill="none" stroke="#63b8ff" d="M762.5,-50.64C754.53,-48.88 746.25,-47.05 738.1,-45.25"/>
<polygon fill="#63b8ff" stroke="#63b8ff" points="761.51,-54.01 772.03,-52.75 763.02,-47.17 761.51,-54.01"/>
</a>
</g>
</g>
<!-- Node3 -->
<g id="Node000003" class="node">
<title>Node3</title>
<g id="a_Node000003"><a xlink:href="kest__asm__parser_8c.html#a8a0d633256a85b35706b7a9ef1add7f0" target="_top" xlink:title=" ">
<polygon fill="white" stroke="#666666" points="248.75,-78.75 130.75,-78.75 130.75,-58 248.75,-58 248.75,-78.75"/>
<text xml:space="preserve" text-anchor="middle" x="189.75" y="-65.25" font-family="Helvetica,sans-Serif" font-size="10.00">kest_parse_asm_line</text>
</a>
</g>
</g>
<!-- Node2&#45;&gt;Node3 -->
<g id="edge2_Node000002_Node000003" class="edge">
<title>Node2&#45;&gt;Node3</title>
<g id="a_edge2_Node000002_Node000003"><a xlink:title=" ">
<path fill="none" stroke="#63b8ff" d="M273.19,-78.91C265.14,-77.88 257.03,-76.85 249.2,-75.85"/>
<polygon fill="#63b8ff" stroke="#63b8ff" points="272.63,-82.37 283,-80.16 273.52,-75.42 272.63,-82.37"/>
</a>
</g>
</g>
<!-- Node4 -->
<g id="Node000004" class="node">
<title>Node4</title>
<g id="a_Node000004"><a xlink:href="kest__asm__parser_8c.html#a1b7e03dd7589f652dec13b4b2c6d0a5c" target="_top" xlink:title=" ">
<polygon fill="#fff0f0" stroke="red" points="94.75,-78.75 0,-78.75 0,-58 94.75,-58 94.75,-78.75"/>
<text xml:space="preserve" text-anchor="middle" x="47.38" y="-65.25" font-family="Helvetica,sans-Serif" font-size="10.00">kest_parse_asm</text>
</a>
</g>
</g>
<!-- Node3&#45;&gt;Node4 -->
<g id="edge3_Node000003_Node000004" class="edge">
<title>Node3&#45;&gt;Node4</title>
<g id="a_edge3_Node000003_Node000004"><a xlink:title=" ">
<path fill="none" stroke="#63b8ff" d="M119.05,-68.38C110.96,-68.38 102.86,-68.38 95.18,-68.38"/>
<polygon fill="#63b8ff" stroke="#63b8ff" points="118.92,-71.88 128.92,-68.38 118.92,-64.88 118.92,-71.88"/>
</a>
</g>
</g>
<!-- Node12&#45;&gt;Node12 -->
<g id="edge10_Node000012_Node000012" class="edge">
<title>Node12&#45;&gt;Node12</title>
<g id="a_edge10_Node000012_Node000012"><a xlink:title=" ">
<path fill="none" stroke="#63b8ff" d="M697.82,-59.84C693.82,-63.62 685.96,-66.12 674.25,-66.12 652.84,-66.12 644.31,-57.74 648.66,-48.54"/>
<polygon fill="#63b8ff" stroke="#63b8ff" points="701.26,-60.49 699.58,-50.03 694.37,-59.26 701.26,-60.49"/>
</a>
</g>
</g>
<!-- Node13 -->
<g id="Node000013" class="node">
<title>Node13</title>
<g id="a_Node000013"><a xlink:href="kest__expr__parser_8c.html#a7caaee6c8b0c14b3ff08fba98d837ead" target="_top" xlink:title=" ">
<polygon fill="white" stroke="#666666" points="574.75,-53.75 447.75,-53.75 447.75,-33 574.75,-33 574.75,-53.75"/>
<text xml:space="preserve" text-anchor="middle" x="511.25" y="-40.25" font-family="Helvetica,sans-Serif" font-size="10.00">kest_parse_expression</text>
</a>
</g>
</g>
<!-- Node12&#45;&gt;Node13 -->
<g id="edge5_Node000012_Node000013" class="edge">
<title>Node12&#45;&gt;Node13</title>
<g id="a_edge5_Node000012_Node000013"><a xlink:title=" ">
<path fill="none" stroke="#63b8ff" d="M599.22,-36.89C591.14,-37.5 582.97,-38.1 575.05,-38.69"/>
<polygon fill="#63b8ff" stroke="#63b8ff" points="599.32,-40.4 609.03,-36.16 598.8,-33.41 599.32,-40.4"/>
</a>
</g>
</g>
<!-- Node13&#45;&gt;Node2 -->
<g id="edge8_Node000013_Node000002" class="edge">
<title>Node13&#45;&gt;Node2</title>
<g id="a_edge8_Node000013_Node000002"><a xlink:title=" ">
<path fill="none" stroke="#63b8ff" d="M460.6,-57.25C437.26,-63.78 409.84,-71.44 388.06,-77.53"/>
<polygon fill="#63b8ff" stroke="#63b8ff" points="461.54,-60.62 470.23,-54.56 459.66,-53.88 461.54,-60.62"/>
</a>
</g>
</g>
<!-- Node14 -->
<g id="Node000014" class="node">
<title>Node14</title>
<g id="a_Node000014"><a xlink:href="kest__asm__parser_8c.html#a975cb5ec55968124f930a9a35fe564c5" target="_top" xlink:title=" ">
<polygon fill="white" stroke="#666666" points="406.12,-59.75 290.38,-59.75 290.38,-39 406.12,-39 406.12,-59.75"/>
<text xml:space="preserve" text-anchor="middle" x="348.25" y="-46.25" font-family="Helvetica,sans-Serif" font-size="10.00">kest_parse_asm_arg</text>
</a>
</g>
</g>
<!-- Node13&#45;&gt;Node14 -->
<g id="edge6_Node000013_Node000014" class="edge">
<title>Node13&#45;&gt;Node14</title>
<g id="a_edge6_Node000013_Node000014"><a xlink:title=" ">
<path fill="none" stroke="#63b8ff" d="M436.34,-46.13C426.33,-46.5 416.19,-46.88 406.53,-47.24"/>
<polygon fill="#63b8ff" stroke="#63b8ff" points="436.17,-49.64 446.03,-45.77 435.91,-42.64 436.17,-49.64"/>
</a>
</g>
</g>
<!-- Node15 -->
<g id="Node000015" class="node">
<title>Node15</title>
<g id="a_Node000015"><a xlink:href="kest__dictionary_8c.html#af0aceaa93cba06fd44ad4bc50f2418e4" target="_top" xlink:title=" ">
<polygon fill="#fff0f0" stroke="red" points="404.25,-20.75 292.25,-20.75 292.25,0 404.25,0 404.25,-20.75"/>
<text xml:space="preserve" text-anchor="middle" x="348.25" y="-7.25" font-family="Helvetica,sans-Serif" font-size="10.00">kest_parse_dict_val</text>
</a>
</g>
</g>
<!-- Node13&#45;&gt;Node15 -->
<g id="edge9_Node000013_Node000015" class="edge">
<title>Node13&#45;&gt;Node15</title>
<g id="a_edge9_Node000013_Node000015"><a xlink:title=" ">
<path fill="none" stroke="#63b8ff" d="M446.47,-30.3C431.76,-27.29 416.27,-24.11 402.09,-21.2"/>
<polygon fill="#63b8ff" stroke="#63b8ff" points="445.55,-33.69 456.05,-32.27 446.96,-26.83 445.55,-33.69"/>
</a>
</g>
</g>
<!-- Node14&#45;&gt;Node3 -->
<g id="edge7_Node000014_Node000003" class="edge">
<title>Node14&#45;&gt;Node3</title>
<g id="a_edge7_Node000014_Node000003"><a xlink:title=" ">
<path fill="none" stroke="#63b8ff" d="M279.17,-57.64C269.19,-58.85 258.99,-60.09 249.23,-61.28"/>
<polygon fill="#63b8ff" stroke="#63b8ff" points="279.3,-61.15 288.8,-56.47 278.46,-54.2 279.3,-61.15"/>
</a>
</g>
</g>
</g>
</svg>
