<?xml version="1.0" encoding="UTF-8" standalone="no"?>
<!DOCTYPE svg PUBLIC "-//W3C//DTD SVG 1.1//EN"
 "http://www.w3.org/Graphics/SVG/1.1/DTD/svg11.dtd">
<!-- Generated by graphviz version 13.1.2 (20250808.2320)
 -->
<!-- Title: create_panel_with_back_button_and_page_button Pages: 1 -->
<svg width="840pt" height="148pt"
 viewBox="0.00 0.00 840.00 148.00" xmlns="http://www.w3.org/2000/svg" xmlns:xlink="http://www.w3.org/1999/xlink">
<g id="graph0" class="graph" transform="scale(1 1) rotate(0) translate(4 143.75)">
<title>create_panel_with_back_button_and_page_button</title>
<!-- Node1 -->
<g id="Node000001" class="node">
<title>Node1</title>
<g id="a_Node000001"><a xlink:title=" ">
<polygon fill="#999999" stroke="#666666" points="142,-72.12 0,-72.12 0,-38.62 142,-38.62 142,-72.12"/>
<text xml:space="preserve" text-anchor="start" x="8" y="-58.62" font-family="Helvetica,sans-Serif" font-size="10.00">create_panel_with_back</text>
<text xml:space="preserve" text-anchor="middle" x="71" y="-45.88" font-family="Helvetica,sans-Serif" font-size="10.00">_button_and_page_button</text>
</a>
</g>
</g>
<!-- Node2 -->
<g id="Node000002" class="node">
<title>Node2</title>
<g id="a_Node000002"><a xlink:href="kest__ui_8c.html#ae6790450fef1809caaa97bb1cb0984a5" target="_top" xlink:title=" ">
<polygon fill="white" stroke="#666666" points="306.12,-124.12 199.38,-124.12 199.38,-90.62 306.12,-90.62 306.12,-124.12"/>
<text xml:space="preserve" text-anchor="start" x="207.38" y="-110.62" font-family="Helvetica,sans-Serif" font-size="10.00">create_panel_right</text>
<text xml:space="preserve" text-anchor="middle" x="252.75" y="-97.88" font-family="Helvetica,sans-Serif" font-size="10.00">_button</text>
</a>
</g>
</g>
<!-- Node1&#45;&gt;Node2 -->
<g id="edge1_Node000001_Node000002" class="edge">
<title>Node1&#45;&gt;Node2</title>
<g id="a_edge1_Node000001_Node000002"><a xlink:title=" ">
<path fill="none" stroke="#63b8ff" d="M131.36,-72.55C149.56,-77.81 169.67,-83.63 188.15,-88.98"/>
<polygon fill="#63b8ff" stroke="#63b8ff" points="187.08,-92.31 197.66,-91.73 189.02,-85.59 187.08,-92.31"/>
</a>
</g>
</g>
<!-- Node3 -->
<g id="Node000003" class="node">
<title>Node3</title>
<g id="a_Node000003"><a xlink:href="kest__ui_8c.html#a7aea2c8df77b1c144c35271c2ab8241f" target="_top" xlink:title=" ">
<polygon fill="white" stroke="#666666" points="319.62,-72.12 185.88,-72.12 185.88,-38.62 319.62,-38.62 319.62,-72.12"/>
<text xml:space="preserve" text-anchor="start" x="193.88" y="-58.62" font-family="Helvetica,sans-Serif" font-size="10.00">create_panel_with_back</text>
<text xml:space="preserve" text-anchor="middle" x="252.75" y="-45.88" font-family="Helvetica,sans-Serif" font-size="10.00">_button</text>
</a>
</g>
</g>
<!-- Node1&#45;&gt;Node3 -->
<g id="edge2_Node000001_Node000003" class="edge">
<title>Node1&#45;&gt;Node3</title>
<g id="a_edge2_Node000001_Node000003"><a xlink:title=" ">
<path fill="none" stroke="#63b8ff" d="M142.27,-55.38C152.75,-55.38 163.61,-55.38 174.24,-55.38"/>
<polygon fill="#63b8ff" stroke="#63b8ff" points="174.13,-58.88 184.13,-55.38 174.13,-51.88 174.13,-58.88"/>
</a>
</g>
</g>
<!-- Node13 -->
<g id="Node000013" class="node">
<title>Node13</title>
<g id="a_Node000013"><a xlink:href="kest__ui_8c.html#a8c61274edfd5c1adb98471432976c3b6" target="_top" xlink:title=" ">
<polygon fill="white" stroke="#666666" points="327.5,-20.75 178,-20.75 178,0 327.5,0 327.5,-20.75"/>
<text xml:space="preserve" text-anchor="middle" x="252.75" y="-7.25" font-family="Helvetica,sans-Serif" font-size="10.00">enter_ui_page_forwards_cb</text>
</a>
</g>
</g>
<!-- Node1&#45;&gt;Node13 -->
<g id="edge9_Node000001_Node000013" class="edge">
<title>Node1&#45;&gt;Node13</title>
<g id="a_edge9_Node000001_Node000013"><a xlink:title=" ">
<path fill="none" stroke="#63b8ff" d="M140.73,-38.17C159.51,-33.47 179.61,-28.44 197.47,-23.96"/>
<polygon fill="#63b8ff" stroke="#63b8ff" points="198.24,-27.38 207.09,-21.56 196.54,-20.59 198.24,-27.38"/>
</a>
</g>
</g>
<!-- Node4 -->
<g id="Node000004" class="node">
<title>Node4</title>
<g id="a_Node000004"><a xlink:href="kest__ui_8c.html#ab7288cd77dcc987b33a1c1be3a0a4ce0" target="_top" xlink:title=" ">
<polygon fill="white" stroke="#666666" points="493.5,-111.12 366.5,-111.12 366.5,-77.62 493.5,-77.62 493.5,-111.12"/>
<text xml:space="preserve" text-anchor="start" x="374.5" y="-97.62" font-family="Helvetica,sans-Serif" font-size="10.00">create_panel_with_left</text>
<text xml:space="preserve" text-anchor="middle" x="430" y="-84.88" font-family="Helvetica,sans-Serif" font-size="10.00">_button</text>
</a>
</g>
</g>
<!-- Node3&#45;&gt;Node4 -->
<g id="edge3_Node000003_Node000004" class="edge">
<title>Node3&#45;&gt;Node4</title>
<g id="a_edge3_Node000003_Node000004"><a xlink:title=" ">
<path fill="none" stroke="#63b8ff" d="M320,-70.12C331.46,-72.67 343.44,-75.33 355.09,-77.93"/>
<polygon fill="#63b8ff" stroke="#63b8ff" points="354.13,-81.3 364.65,-80.05 355.65,-74.47 354.13,-81.3"/>
</a>
</g>
</g>
<!-- Node9 -->
<g id="Node000009" class="node">
<title>Node9</title>
<g id="a_Node000009"><a xlink:href="kest__ui_8c.html#af17d8912a520f607796e85d96467cc5a" target="_top" xlink:title=" ">
<polygon fill="white" stroke="#666666" points="492,-59.75 368,-59.75 368,-39 492,-39 492,-59.75"/>
<text xml:space="preserve" text-anchor="middle" x="430" y="-46.25" font-family="Helvetica,sans-Serif" font-size="10.00">enter_parent_page_cb</text>
</a>
</g>
</g>
<!-- Node3&#45;&gt;Node9 -->
<g id="edge6_Node000003_Node000009" class="edge">
<title>Node3&#45;&gt;Node9</title>
<g id="a_edge6_Node000003_Node000009"><a xlink:title=" ">
<path fill="none" stroke="#63b8ff" d="M320,-53.11C331.83,-52.7 344.21,-52.28 356.21,-51.87"/>
<polygon fill="#63b8ff" stroke="#63b8ff" points="356.17,-55.37 366.05,-51.53 355.94,-48.37 356.17,-55.37"/>
</a>
</g>
</g>
<!-- Node5 -->
<g id="Node000005" class="node">
<title>Node5</title>
<g id="a_Node000005"><a xlink:href="kest__ui_8c.html#af27244753a655f48efb1d98e7588fcff" target="_top" xlink:title=" ">
<polygon fill="#fff0f0" stroke="red" points="643.38,-139.75 564.38,-139.75 564.38,-119 643.38,-119 643.38,-139.75"/>
<text xml:space="preserve" text-anchor="middle" x="603.88" y="-126.25" font-family="Helvetica,sans-Serif" font-size="10.00">create_panel</text>
</a>
</g>
</g>
<!-- Node4&#45;&gt;Node5 -->
<g id="edge4_Node000004_Node000005" class="edge">
<title>Node4&#45;&gt;Node5</title>
<g id="a_edge4_Node000004_Node000005"><a xlink:title=" ">
<path fill="none" stroke="#63b8ff" d="M493.54,-107.11C513.09,-111.09 534.39,-115.43 552.96,-119.21"/>
<polygon fill="#63b8ff" stroke="#63b8ff" points="552.14,-122.62 562.64,-121.18 553.54,-115.76 552.14,-122.62"/>
</a>
</g>
</g>
<!-- Node8 -->
<g id="Node000008" class="node">
<title>Node8</title>
<g id="a_Node000008"><a xlink:href="kest__ui_8c.html#a64c33366dff9758c7062f1e69daef220" target="_top" xlink:title=" ">
<polygon fill="white" stroke="#666666" points="672.62,-100.75 535.12,-100.75 535.12,-80 672.62,-80 672.62,-100.75"/>
<text xml:space="preserve" text-anchor="middle" x="603.88" y="-87.25" font-family="Helvetica,sans-Serif" font-size="10.00">create_panel_left_button</text>
</a>
</g>
</g>
<!-- Node4&#45;&gt;Node8 -->
<g id="edge5_Node000004_Node000008" class="edge">
<title>Node4&#45;&gt;Node8</title>
<g id="a_edge5_Node000004_Node000008"><a xlink:title=" ">
<path fill="none" stroke="#63b8ff" d="M493.54,-92.92C503.3,-92.69 513.5,-92.46 523.58,-92.22"/>
<polygon fill="#63b8ff" stroke="#63b8ff" points="523.44,-95.72 533.36,-91.99 523.28,-88.73 523.44,-95.72"/>
</a>
</g>
</g>
<!-- Node10 -->
<g id="Node000010" class="node">
<title>Node10</title>
<g id="a_Node000010"><a xlink:href="kest__ui_8c.html#a8e18610dded037df6bd96330d349f186" target="_top" xlink:title=" ">
<polygon fill="white" stroke="#666666" points="675.25,-58.75 532.5,-58.75 532.5,-38 675.25,-38 675.25,-58.75"/>
<text xml:space="preserve" text-anchor="middle" x="603.88" y="-45.25" font-family="Helvetica,sans-Serif" font-size="10.00">enter_ui_page_backwards</text>
</a>
</g>
</g>
<!-- Node9&#45;&gt;Node10 -->
<g id="edge7_Node000009_Node000010" class="edge">
<title>Node9&#45;&gt;Node10</title>
<g id="a_edge7_Node000009_Node000010"><a xlink:title=" ">
<path fill="none" stroke="#63b8ff" d="M492.08,-49.02C501.37,-48.97 511.09,-48.91 520.74,-48.85"/>
<polygon fill="#63b8ff" stroke="#63b8ff" points="520.52,-52.35 530.5,-48.8 520.48,-45.35 520.52,-52.35"/>
</a>
</g>
</g>
<!-- Node11 -->
<g id="Node000011" class="node">
<title>Node11</title>
<g id="a_Node000011"><a xlink:href="kest__context_8c.html#a6292c7a2d7f0502ea5a59bbe9b552791" target="_top" xlink:title=" ">
<polygon fill="#fff0f0" stroke="red" points="831.5,-46.12 711.25,-46.12 711.25,-12.62 831.5,-12.62 831.5,-46.12"/>
<text xml:space="preserve" text-anchor="start" x="719.25" y="-32.62" font-family="Helvetica,sans-Serif" font-size="10.00">kest_cxt_queue_save</text>
<text xml:space="preserve" text-anchor="middle" x="771.38" y="-19.88" font-family="Helvetica,sans-Serif" font-size="10.00">_state</text>
</a>
</g>
</g>
<!-- Node10&#45;&gt;Node11 -->
<g id="edge8_Node000010_Node000011" class="edge">
<title>Node10&#45;&gt;Node11</title>
<g id="a_edge8_Node000010_Node000011"><a xlink:title=" ">
<path fill="none" stroke="#63b8ff" d="M675.54,-40.26C683.54,-39.34 691.7,-38.41 699.7,-37.49"/>
<polygon fill="#63b8ff" stroke="#63b8ff" points="699.84,-41 709.38,-36.38 699.04,-34.04 699.84,-41"/>
</a>
</g>
</g>
<!-- Node14 -->
<g id="Node000014" class="node">
<title>Node14</title>
<g id="a_Node000014"><a xlink:href="kest__ui_8c.html#a2063cd4687cffa16c46c43deaa27642f" target="_top" xlink:title=" ">
<polygon fill="white" stroke="#666666" points="496.5,-20.75 363.5,-20.75 363.5,0 496.5,0 496.5,-20.75"/>
<text xml:space="preserve" text-anchor="middle" x="430" y="-7.25" font-family="Helvetica,sans-Serif" font-size="10.00">enter_ui_page_forwards</text>
</a>
</g>
</g>
<!-- Node13&#45;&gt;Node14 -->
<g id="edge10_Node000013_Node000014" class="edge">
<title>Node13&#45;&gt;Node14</title>
<g id="a_edge10_Node000013_Node000014"><a xlink:title=" ">
<path fill="none" stroke="#63b8ff" d="M327.82,-10.38C335.82,-10.38 343.97,-10.38 352.01,-10.38"/>
<polygon fill="#63b8ff" stroke="#63b8ff" points="351.74,-13.88 361.74,-10.38 351.74,-6.88 351.74,-13.88"/>
</a>
</g>
</g>
<!-- Node14&#45;&gt;Node11 -->
<g id="edge11_Node000014_Node000011" class="edge">
<title>Node14&#45;&gt;Node11</title>
<g id="a_edge11_Node000014_Node000011"><a xlink:title=" ">
<path fill="none" stroke="#63b8ff" d="M496.84,-14.06C555.15,-17.33 640.04,-22.08 699.75,-25.42"/>
<polygon fill="#63b8ff" stroke="#63b8ff" points="699.28,-28.9 709.46,-25.96 699.67,-21.91 699.28,-28.9"/>
</a>
</g>
</g>
</g>
</svg>
