<?xml version="1.0" encoding="UTF-8" standalone="no"?>
<!DOCTYPE svg PUBLIC "-//W3C//DTD SVG 1.1//EN"
 "http://www.w3.org/Graphics/SVG/1.1/DTD/svg11.dtd">
<!-- Generated by graphviz version 13.1.2 (20250808.2320)
 -->
<!-- Title: kest_filter_compute_format Pages: 1 -->
<svg width="535pt" height="42pt"
 viewBox="0.00 0.00 535.00 42.00" xmlns="http://www.w3.org/2000/svg" xmlns:xlink="http://www.w3.org/1999/xlink">
<g id="graph0" class="graph" transform="scale(1 1) rotate(0) translate(4 37.5)">
<title>kest_filter_compute_format</title>
<!-- Node1 -->
<g id="Node000001" class="node">
<title>Node1</title>
<g id="a_Node000001"><a xlink:title=" ">
<polygon fill="#999999" stroke="#666666" points="526.75,-33.5 414,-33.5 414,0 526.75,0 526.75,-33.5"/>
<text xml:space="preserve" text-anchor="start" x="422" y="-20" font-family="Helvetica,sans-Serif" font-size="10.00">kest_filter_compute</text>
<text xml:space="preserve" text-anchor="middle" x="470.38" y="-7.25" font-family="Helvetica,sans-Serif" font-size="10.00">_format</text>
</a>
</g>
</g>
<!-- Node2 -->
<g id="Node000002" class="node">
<title>Node2</title>
<g id="a_Node000002"><a xlink:href="kest__eff__parser_8c.html#a745050bced3ccd568a1223c9f6a416e0" target="_top" xlink:title=" ">
<polygon fill="white" stroke="#666666" points="378,-33.5 257.75,-33.5 257.75,0 378,0 378,-33.5"/>
<text xml:space="preserve" text-anchor="start" x="265.75" y="-20" font-family="Helvetica,sans-Serif" font-size="10.00">kest_parser_compute</text>
<text xml:space="preserve" text-anchor="middle" x="317.88" y="-7.25" font-family="Helvetica,sans-Serif" font-size="10.00">_formats</text>
</a>
</g>
</g>
<!-- Node1&#45;&gt;Node2 -->
<g id="edge1_Node000001_Node000002" class="edge">
<title>Node1&#45;&gt;Node2</title>
<g id="a_edge1_Node000001_Node000002"><a xlink:title=" ">
<path fill="none" stroke="#63b8ff" d="M402.49,-16.75C394.43,-16.75 386.24,-16.75 378.3,-16.75"/>
<polygon fill="#63b8ff" stroke="#63b8ff" points="402.25,-20.25 412.25,-16.75 402.25,-13.25 402.25,-20.25"/>
</a>
</g>
</g>
<!-- Node3 -->
<g id="Node000003" class="node">
<title>Node3</title>
<g id="a_Node000003"><a xlink:href="kest__eff__parser_8c.html#ae4618958c44389928c260fdb0e170761" target="_top" xlink:title=" ">
<polygon fill="white" stroke="#666666" points="221.75,-33.5 112,-33.5 112,0 221.75,0 221.75,-33.5"/>
<text xml:space="preserve" text-anchor="start" x="120" y="-20" font-family="Helvetica,sans-Serif" font-size="10.00">kest_read_eff_desc</text>
<text xml:space="preserve" text-anchor="middle" x="166.88" y="-7.25" font-family="Helvetica,sans-Serif" font-size="10.00">_from_file</text>
</a>
</g>
</g>
<!-- Node2&#45;&gt;Node3 -->
<g id="edge2_Node000002_Node000003" class="edge">
<title>Node2&#45;&gt;Node3</title>
<g id="a_edge2_Node000002_Node000003"><a xlink:title=" ">
<path fill="none" stroke="#63b8ff" d="M246.21,-16.75C238.12,-16.75 229.98,-16.75 222.15,-16.75"/>
<polygon fill="#63b8ff" stroke="#63b8ff" points="246.04,-20.25 256.04,-16.75 246.04,-13.25 246.04,-20.25"/>
</a>
</g>
</g>
<!-- Node4 -->
<g id="Node000004" class="node">
<title>Node4</title>
<g id="a_Node000004"><a xlink:href="kest__files_8c.html#abd963628acfd524509956fff3c5f498c" target="_top" xlink:title=" ">
<polygon fill="#fff0f0" stroke="red" points="76,-27.12 0,-27.12 0,-6.38 76,-6.38 76,-27.12"/>
<text xml:space="preserve" text-anchor="middle" x="38" y="-13.62" font-family="Helvetica,sans-Serif" font-size="10.00">load_effects</text>
</a>
</g>
</g>
<!-- Node3&#45;&gt;Node4 -->
<g id="edge3_Node000003_Node000004" class="edge">
<title>Node3&#45;&gt;Node4</title>
<g id="a_edge3_Node000003_Node000004"><a xlink:title=" ">
<path fill="none" stroke="#63b8ff" d="M100.38,-16.75C92.07,-16.75 83.79,-16.75 76.14,-16.75"/>
<polygon fill="#63b8ff" stroke="#63b8ff" points="100.19,-20.25 110.19,-16.75 100.19,-13.25 100.19,-20.25"/>
</a>
</g>
</g>
</g>
</svg>
