<?xml version="1.0" encoding="UTF-8" standalone="no"?>
<!DOCTYPE svg PUBLIC "-//W3C//DTD SVG 1.1//EN"
 "http://www.w3.org/Graphics/SVG/1.1/DTD/svg11.dtd">
<!-- Generated by graphviz version 13.1.2 (20250808.2320)
 -->
<!-- Title: cxt_save_all_profiles Pages: 1 -->
<svg width="571pt" height="209pt"
 viewBox="0.00 0.00 571.00 209.00" xmlns="http://www.w3.org/2000/svg" xmlns:xlink="http://www.w3.org/1999/xlink">
<g id="graph0" class="graph" transform="scale(1 1) rotate(0) translate(4 205.12)">
<title>cxt_save_all_profiles</title>
<!-- Node1 -->
<g id="Node000001" class="node">
<title>Node1</title>
<g id="a_Node000001"><a xlink:title=" ">
<polygon fill="#999999" stroke="#666666" points="118.75,-132.75 0,-132.75 0,-112 118.75,-112 118.75,-132.75"/>
<text xml:space="preserve" text-anchor="middle" x="59.38" y="-119.25" font-family="Helvetica,sans-Serif" font-size="10.00">cxt_save_all_profiles</text>
</a>
</g>
</g>
<!-- Node2 -->
<g id="Node000002" class="node">
<title>Node2</title>
<g id="a_Node000002"><a xlink:href="kest__profile_8c.html#a683c1e3c748f22e8a573d3a767fbd3e3" target="_top" xlink:title=" ">
<polygon fill="white" stroke="#666666" points="256.25,-132.75 154.75,-132.75 154.75,-112 256.25,-112 256.25,-132.75"/>
<text xml:space="preserve" text-anchor="middle" x="205.5" y="-119.25" font-family="Helvetica,sans-Serif" font-size="10.00">kest_profile_save</text>
</a>
</g>
</g>
<!-- Node1&#45;&gt;Node2 -->
<g id="edge1_Node000001_Node000002" class="edge">
<title>Node1&#45;&gt;Node2</title>
<g id="a_edge1_Node000001_Node000002"><a xlink:title=" ">
<path fill="none" stroke="#63b8ff" d="M119,-122.38C127.05,-122.38 135.33,-122.38 143.43,-122.38"/>
<polygon fill="#63b8ff" stroke="#63b8ff" points="143.19,-125.88 153.18,-122.38 143.18,-118.88 143.19,-125.88"/>
</a>
</g>
</g>
<!-- Node3 -->
<g id="Node000003" class="node">
<title>Node3</title>
<g id="a_Node000003"><a xlink:href="kest__profile_8c.html#a8b1594e9e88b6298e1ce4d93641b1e4d" target="_top" xlink:title=" ">
<polygon fill="white" stroke="#666666" points="404.25,-181.12 292.25,-181.12 292.25,-147.62 404.25,-147.62 404.25,-181.12"/>
<text xml:space="preserve" text-anchor="start" x="300.25" y="-167.62" font-family="Helvetica,sans-Serif" font-size="10.00">kest_profile_update</text>
<text xml:space="preserve" text-anchor="middle" x="348.25" y="-154.88" font-family="Helvetica,sans-Serif" font-size="10.00">_representations</text>
</a>
</g>
</g>
<!-- Node2&#45;&gt;Node3 -->
<g id="edge2_Node000002_Node000003" class="edge">
<title>Node2&#45;&gt;Node3</title>
<g id="a_edge2_Node000002_Node000003"><a xlink:title=" ">
<path fill="none" stroke="#63b8ff" d="M242.75,-133.19C254.46,-136.68 267.83,-140.68 281,-144.61"/>
<polygon fill="#63b8ff" stroke="#63b8ff" points="279.95,-147.95 290.54,-147.45 281.96,-141.24 279.95,-147.95"/>
</a>
</g>
</g>
<!-- Node5 -->
<g id="Node000005" class="node">
<title>Node5</title>
<g id="a_Node000005"><a xlink:href="kest__files_8c.html#ab39f3c0d9f0a16ccb7d076a22fc4ca22" target="_top" xlink:title=" ">
<polygon fill="white" stroke="#666666" points="386.25,-110.75 310.25,-110.75 310.25,-90 386.25,-90 386.25,-110.75"/>
<text xml:space="preserve" text-anchor="middle" x="348.25" y="-97.25" font-family="Helvetica,sans-Serif" font-size="10.00">save_profile</text>
</a>
</g>
</g>
<!-- Node2&#45;&gt;Node5 -->
<g id="edge4_Node000002_Node000005" class="edge">
<title>Node2&#45;&gt;Node5</title>
<g id="a_edge4_Node000002_Node000005"><a xlink:title=" ">
<path fill="none" stroke="#63b8ff" d="M256.52,-114.56C270.22,-112.41 285.05,-110.1 298.68,-107.97"/>
<polygon fill="#63b8ff" stroke="#63b8ff" points="298.95,-111.47 308.29,-106.47 297.87,-104.55 298.95,-111.47"/>
</a>
</g>
</g>
<!-- Node4 -->
<g id="Node000004" class="node">
<title>Node4</title>
<g id="a_Node000004"><a xlink:href="kest__representation_8c.html#a7a4a0f32b72f47d90e3d0f5932fbe58f" target="_top" xlink:title=" ">
<polygon fill="white" stroke="#666666" points="562.75,-201.12 440.25,-201.12 440.25,-167.62 562.75,-167.62 562.75,-201.12"/>
<text xml:space="preserve" text-anchor="start" x="448.25" y="-187.62" font-family="Helvetica,sans-Serif" font-size="10.00">queue_representation</text>
<text xml:space="preserve" text-anchor="middle" x="501.5" y="-174.88" font-family="Helvetica,sans-Serif" font-size="10.00">_list_update</text>
</a>
</g>
</g>
<!-- Node3&#45;&gt;Node4 -->
<g id="edge3_Node000003_Node000004" class="edge">
<title>Node3&#45;&gt;Node4</title>
<g id="a_edge3_Node000003_Node000004"><a xlink:title=" ">
<path fill="none" stroke="#63b8ff" d="M404.71,-171.71C412.5,-172.74 420.61,-173.81 428.65,-174.87"/>
<polygon fill="#63b8ff" stroke="#63b8ff" points="428.07,-178.33 438.45,-176.17 428.99,-171.39 428.07,-178.33"/>
</a>
</g>
</g>
<!-- Node6 -->
<g id="Node000006" class="node">
<title>Node6</title>
<g id="a_Node000006"><a xlink:href="kest__files_8c.html#ab79d861306c25eab9284239e73d0cc07" target="_top" xlink:title=" ">
<polygon fill="white" stroke="#666666" points="557.5,-149.75 445.5,-149.75 445.5,-129 557.5,-129 557.5,-149.75"/>
<text xml:space="preserve" text-anchor="middle" x="501.5" y="-136.25" font-family="Helvetica,sans-Serif" font-size="10.00">dump_file_contents</text>
</a>
</g>
</g>
<!-- Node5&#45;&gt;Node6 -->
<g id="edge5_Node000005_Node000006" class="edge">
<title>Node5&#45;&gt;Node6</title>
<g id="a_edge5_Node000005_Node000006"><a xlink:title=" ">
<path fill="none" stroke="#63b8ff" d="M386.64,-110.02C405.02,-114.75 427.48,-120.55 447.59,-125.73"/>
<polygon fill="#63b8ff" stroke="#63b8ff" points="446.45,-129.05 457.01,-128.16 448.2,-122.28 446.45,-129.05"/>
</a>
</g>
</g>
<!-- Node7 -->
<g id="Node000007" class="node">
<title>Node7</title>
<g id="a_Node000007"><a xlink:href="kest__files_8c.html#aa81649890323b78baf99fbbad53ab5ff" target="_top" xlink:title=" ">
<polygon fill="white" stroke="#666666" points="555.62,-110.75 447.38,-110.75 447.38,-90 555.62,-90 555.62,-110.75"/>
<text xml:space="preserve" text-anchor="middle" x="501.5" y="-97.25" font-family="Helvetica,sans-Serif" font-size="10.00">generate_filename</text>
</a>
</g>
</g>
<!-- Node5&#45;&gt;Node7 -->
<g id="edge6_Node000005_Node000007" class="edge">
<title>Node5&#45;&gt;Node7</title>
<g id="a_edge6_Node000005_Node000007"><a xlink:title=" ">
<path fill="none" stroke="#63b8ff" d="M386.64,-100.38C401.42,-100.38 418.85,-100.38 435.57,-100.38"/>
<polygon fill="#63b8ff" stroke="#63b8ff" points="435.48,-103.88 445.48,-100.38 435.48,-96.88 435.48,-103.88"/>
</a>
</g>
</g>
<!-- Node8 -->
<g id="Node000008" class="node">
<title>Node8</title>
<g id="a_Node000008"><a xlink:href="kest__error__codes_8c.html#a0f4c77127bc0b77264a21104979c576a" target="_top" xlink:title=" ">
<polygon fill="white" stroke="#666666" points="555.62,-72.12 447.38,-72.12 447.38,-38.62 555.62,-38.62 555.62,-72.12"/>
<text xml:space="preserve" text-anchor="start" x="455.38" y="-58.62" font-family="Helvetica,sans-Serif" font-size="10.00">kest_error_code_to</text>
<text xml:space="preserve" text-anchor="middle" x="501.5" y="-45.88" font-family="Helvetica,sans-Serif" font-size="10.00">_string</text>
</a>
</g>
</g>
<!-- Node5&#45;&gt;Node8 -->
<g id="edge7_Node000005_Node000008" class="edge">
<title>Node5&#45;&gt;Node8</title>
<g id="a_edge7_Node000005_Node000008"><a xlink:title=" ">
<path fill="none" stroke="#63b8ff" d="M385.48,-89.6C400.75,-85.05 418.99,-79.62 436.4,-74.45"/>
<polygon fill="#63b8ff" stroke="#63b8ff" points="437.06,-77.9 445.65,-71.69 435.07,-71.19 437.06,-77.9"/>
</a>
</g>
</g>
<!-- Node9 -->
<g id="Node000009" class="node">
<title>Node9</title>
<g id="a_Node000009"><a xlink:href="kest__files_8c.html#acdd9a1fdb8fef8888d540a275ecfa86a" target="_top" xlink:title=" ">
<polygon fill="white" stroke="#666666" points="558.25,-20.75 444.75,-20.75 444.75,0 558.25,0 558.25,-20.75"/>
<text xml:space="preserve" text-anchor="middle" x="501.5" y="-7.25" font-family="Helvetica,sans-Serif" font-size="10.00">save_profile_as_file</text>
</a>
</g>
</g>
<!-- Node5&#45;&gt;Node9 -->
<g id="edge8_Node000005_Node000009" class="edge">
<title>Node5&#45;&gt;Node9</title>
<g id="a_edge8_Node000005_Node000009"><a xlink:title=" ">
<path fill="none" stroke="#63b8ff" d="M360.11,-89.76C376.31,-74.44 408.32,-46.16 440.25,-29.38 442.93,-27.96 445.74,-26.64 448.61,-25.39"/>
<polygon fill="#63b8ff" stroke="#63b8ff" points="449.75,-28.7 457.78,-21.79 447.19,-22.19 449.75,-28.7"/>
</a>
</g>
</g>
</g>
</svg>
