<?xml version="1.0" encoding="UTF-8" standalone="no"?>
<!DOCTYPE svg PUBLIC "-//W3C//DTD SVG 1.1//EN"
 "http://www.w3.org/Graphics/SVG/1.1/DTD/svg11.dtd">
<!-- Generated by graphviz version 13.1.2 (20250808.2320)
 -->
<!-- Title: kest_pipeline_get_effect_by_id Pages: 1 -->
<svg width="647pt" height="42pt"
 viewBox="0.00 0.00 647.00 42.00" xmlns="http://www.w3.org/2000/svg" xmlns:xlink="http://www.w3.org/1999/xlink">
<g id="graph0" class="graph" transform="scale(1 1) rotate(0) translate(4 37.5)">
<title>kest_pipeline_get_effect_by_id</title>
<!-- Node1 -->
<g id="Node000001" class="node">
<title>Node1</title>
<g id="a_Node000001"><a xlink:title=" ">
<polygon fill="#999999" stroke="#666666" points="638.5,-33.5 503.25,-33.5 503.25,0 638.5,0 638.5,-33.5"/>
<text xml:space="preserve" text-anchor="start" x="511.25" y="-20" font-family="Helvetica,sans-Serif" font-size="10.00">kest_pipeline_get_effect</text>
<text xml:space="preserve" text-anchor="middle" x="570.88" y="-7.25" font-family="Helvetica,sans-Serif" font-size="10.00">_by_id</text>
</a>
</g>
</g>
<!-- Node2 -->
<g id="Node000002" class="node">
<title>Node2</title>
<g id="a_Node000002"><a xlink:href="kest__profile_8c.html#a29b790068e7677aa1e211a707409bcc4" target="_top" xlink:title=" ">
<polygon fill="white" stroke="#666666" points="467.25,-33.5 339.5,-33.5 339.5,0 467.25,0 467.25,-33.5"/>
<text xml:space="preserve" text-anchor="start" x="347.5" y="-20" font-family="Helvetica,sans-Serif" font-size="10.00">kest_profile_get_effect</text>
<text xml:space="preserve" text-anchor="middle" x="403.38" y="-7.25" font-family="Helvetica,sans-Serif" font-size="10.00">_by_id</text>
</a>
</g>
</g>
<!-- Node1&#45;&gt;Node2 -->
<g id="edge1_Node000001_Node000002" class="edge">
<title>Node1&#45;&gt;Node2</title>
<g id="a_edge1_Node000001_Node000002"><a xlink:title=" ">
<path fill="none" stroke="#63b8ff" d="M491.73,-16.75C483.68,-16.75 475.57,-16.75 467.71,-16.75"/>
<polygon fill="#63b8ff" stroke="#63b8ff" points="491.52,-20.25 501.52,-16.75 491.52,-13.25 491.52,-20.25"/>
</a>
</g>
</g>
<!-- Node3 -->
<g id="Node000003" class="node">
<title>Node3</title>
<g id="a_Node000003"><a xlink:href="kest__page__id_8c.html#a63b55de25f16c715b468429c78e79af0" target="_top" xlink:title=" ">
<polygon fill="white" stroke="#666666" points="303.5,-27.12 170.5,-27.12 170.5,-6.38 303.5,-6.38 303.5,-27.12"/>
<text xml:space="preserve" text-anchor="middle" x="237" y="-13.62" font-family="Helvetica,sans-Serif" font-size="10.00">kest_page_id_find_page</text>
</a>
</g>
</g>
<!-- Node2&#45;&gt;Node3 -->
<g id="edge2_Node000002_Node000003" class="edge">
<title>Node2&#45;&gt;Node3</title>
<g id="a_edge2_Node000002_Node000003"><a xlink:title=" ">
<path fill="none" stroke="#63b8ff" d="M328.02,-16.75C319.98,-16.75 311.84,-16.75 303.91,-16.75"/>
<polygon fill="#63b8ff" stroke="#63b8ff" points="327.78,-20.25 337.78,-16.75 327.78,-13.25 327.78,-20.25"/>
</a>
</g>
</g>
<!-- Node4 -->
<g id="Node000004" class="node">
<title>Node4</title>
<g id="a_Node000004"><a xlink:href="kest__state_8c.html#ad67167136a5f2e68f04622bc4f518b22" target="_top" xlink:title=" ">
<polygon fill="#fff0f0" stroke="red" points="134.5,-33.5 0,-33.5 0,0 134.5,0 134.5,-33.5"/>
<text xml:space="preserve" text-anchor="start" x="8" y="-20" font-family="Helvetica,sans-Serif" font-size="10.00">kest_cxt_enter_previous</text>
<text xml:space="preserve" text-anchor="middle" x="67.25" y="-7.25" font-family="Helvetica,sans-Serif" font-size="10.00">_current_page</text>
</a>
</g>
</g>
<!-- Node3&#45;&gt;Node4 -->
<g id="edge3_Node000003_Node000004" class="edge">
<title>Node3&#45;&gt;Node4</title>
<g id="a_edge3_Node000003_Node000004"><a xlink:title=" ">
<path fill="none" stroke="#63b8ff" d="M158.68,-16.75C150.76,-16.75 142.77,-16.75 134.98,-16.75"/>
<polygon fill="#63b8ff" stroke="#63b8ff" points="158.67,-20.25 168.67,-16.75 158.67,-13.25 158.67,-20.25"/>
</a>
</g>
</g>
</g>
</svg>
