<?xml version="1.0" encoding="UTF-8" standalone="no"?>
<!DOCTYPE svg PUBLIC "-//W3C//DTD SVG 1.1//EN"
 "http://www.w3.org/Graphics/SVG/1.1/DTD/svg11.dtd">
<!-- Generated by graphviz version 13.1.2 (20250808.2320)
 -->
<!-- Title: profile_settings_save_button_cb Pages: 1 -->
<svg width="390pt" height="158pt"
 viewBox="0.00 0.00 390.00 158.00" xmlns="http://www.w3.org/2000/svg" xmlns:xlink="http://www.w3.org/1999/xlink">
<g id="graph0" class="graph" transform="scale(1 1) rotate(0) translate(4 153.75)">
<title>profile_settings_save_button_cb</title>
<!-- Node1 -->
<g id="Node000001" class="node">
<title>Node1</title>
<g id="a_Node000001"><a xlink:title=" ">
<polygon fill="#999999" stroke="#666666" points="120.25,-94.12 0,-94.12 0,-60.62 120.25,-60.62 120.25,-94.12"/>
<text xml:space="preserve" text-anchor="start" x="8" y="-80.62" font-family="Helvetica,sans-Serif" font-size="10.00">profile_settings_save</text>
<text xml:space="preserve" text-anchor="middle" x="60.12" y="-67.88" font-family="Helvetica,sans-Serif" font-size="10.00">_button_cb</text>
</a>
</g>
</g>
<!-- Node2 -->
<g id="Node000002" class="node">
<title>Node2</title>
<g id="a_Node000002"><a xlink:href="kest__files_8c.html#ab39f3c0d9f0a16ccb7d076a22fc4ca22" target="_top" xlink:title=" ">
<polygon fill="white" stroke="#666666" points="232.25,-87.75 156.25,-87.75 156.25,-67 232.25,-67 232.25,-87.75"/>
<text xml:space="preserve" text-anchor="middle" x="194.25" y="-74.25" font-family="Helvetica,sans-Serif" font-size="10.00">save_profile</text>
</a>
</g>
</g>
<!-- Node1&#45;&gt;Node2 -->
<g id="edge1_Node000001_Node000002" class="edge">
<title>Node1&#45;&gt;Node2</title>
<g id="a_edge1_Node000001_Node000002"><a xlink:title=" ">
<path fill="none" stroke="#63b8ff" d="M120.62,-77.38C128.62,-77.38 136.76,-77.38 144.55,-77.38"/>
<polygon fill="#63b8ff" stroke="#63b8ff" points="144.53,-80.88 154.53,-77.38 144.53,-73.88 144.53,-80.88"/>
</a>
</g>
</g>
<!-- Node3 -->
<g id="Node000003" class="node">
<title>Node3</title>
<g id="a_Node000003"><a xlink:href="kest__files_8c.html#ab79d861306c25eab9284239e73d0cc07" target="_top" xlink:title=" ">
<polygon fill="white" stroke="#666666" points="381,-149.75 269,-149.75 269,-129 381,-129 381,-149.75"/>
<text xml:space="preserve" text-anchor="middle" x="325" y="-136.25" font-family="Helvetica,sans-Serif" font-size="10.00">dump_file_contents</text>
</a>
</g>
</g>
<!-- Node2&#45;&gt;Node3 -->
<g id="edge2_Node000002_Node000003" class="edge">
<title>Node2&#45;&gt;Node3</title>
<g id="a_edge2_Node000002_Node000003"><a xlink:title=" ">
<path fill="none" stroke="#63b8ff" d="M211.9,-88.1C226.41,-97.16 248.21,-110.11 268.25,-119.38 272.07,-121.14 276.09,-122.85 280.15,-124.48"/>
<polygon fill="#63b8ff" stroke="#63b8ff" points="278.88,-127.75 289.47,-128.05 281.38,-121.21 278.88,-127.75"/>
</a>
</g>
</g>
<!-- Node4 -->
<g id="Node000004" class="node">
<title>Node4</title>
<g id="a_Node000004"><a xlink:href="kest__files_8c.html#aa81649890323b78baf99fbbad53ab5ff" target="_top" xlink:title=" ">
<polygon fill="white" stroke="#666666" points="379.12,-110.75 270.88,-110.75 270.88,-90 379.12,-90 379.12,-110.75"/>
<text xml:space="preserve" text-anchor="middle" x="325" y="-97.25" font-family="Helvetica,sans-Serif" font-size="10.00">generate_filename</text>
</a>
</g>
</g>
<!-- Node2&#45;&gt;Node4 -->
<g id="edge3_Node000002_Node000004" class="edge">
<title>Node2&#45;&gt;Node4</title>
<g id="a_edge3_Node000002_Node000004"><a xlink:title=" ">
<path fill="none" stroke="#63b8ff" d="M232.49,-84.03C240.94,-85.54 250.15,-87.18 259.37,-88.83"/>
<polygon fill="#63b8ff" stroke="#63b8ff" points="258.61,-92.25 269.07,-90.56 259.84,-85.36 258.61,-92.25"/>
</a>
</g>
</g>
<!-- Node5 -->
<g id="Node000005" class="node">
<title>Node5</title>
<g id="a_Node000005"><a xlink:href="kest__error__codes_8c.html#a0f4c77127bc0b77264a21104979c576a" target="_top" xlink:title=" ">
<polygon fill="white" stroke="#666666" points="379.12,-72.12 270.88,-72.12 270.88,-38.62 379.12,-38.62 379.12,-72.12"/>
<text xml:space="preserve" text-anchor="start" x="278.88" y="-58.62" font-family="Helvetica,sans-Serif" font-size="10.00">kest_error_code_to</text>
<text xml:space="preserve" text-anchor="middle" x="325" y="-45.88" font-family="Helvetica,sans-Serif" font-size="10.00">_string</text>
</a>
</g>
</g>
<!-- Node2&#45;&gt;Node5 -->
<g id="edge4_Node000002_Node000005" class="edge">
<title>Node2&#45;&gt;Node5</title>
<g id="a_edge4_Node000002_Node000005"><a xlink:title=" ">
<path fill="none" stroke="#63b8ff" d="M232.49,-71.01C240.94,-69.57 250.15,-67.99 259.37,-66.42"/>
<polygon fill="#63b8ff" stroke="#63b8ff" points="259.8,-69.9 269.07,-64.76 258.62,-63 259.8,-69.9"/>
</a>
</g>
</g>
<!-- Node6 -->
<g id="Node000006" class="node">
<title>Node6</title>
<g id="a_Node000006"><a xlink:href="kest__files_8c.html#acdd9a1fdb8fef8888d540a275ecfa86a" target="_top" xlink:title=" ">
<polygon fill="white" stroke="#666666" points="381.75,-20.75 268.25,-20.75 268.25,0 381.75,0 381.75,-20.75"/>
<text xml:space="preserve" text-anchor="middle" x="325" y="-7.25" font-family="Helvetica,sans-Serif" font-size="10.00">save_profile_as_file</text>
</a>
</g>
</g>
<!-- Node2&#45;&gt;Node6 -->
<g id="edge5_Node000002_Node000006" class="edge">
<title>Node2&#45;&gt;Node6</title>
<g id="a_edge5_Node000002_Node000006"><a xlink:title=" ">
<path fill="none" stroke="#63b8ff" d="M209.15,-66.69C223.39,-56.12 246.45,-40.04 268.25,-29.38 271.13,-27.96 274.15,-26.61 277.22,-25.33"/>
<polygon fill="#63b8ff" stroke="#63b8ff" points="278.31,-28.66 286.36,-21.78 275.77,-22.14 278.31,-28.66"/>
</a>
</g>
</g>
</g>
</svg>
