<?xml version="1.0" encoding="UTF-8" standalone="no"?>
<!DOCTYPE svg PUBLIC "-//W3C//DTD SVG 1.1//EN"
 "http://www.w3.org/Graphics/SVG/1.1/DTD/svg11.dtd">
<!-- Generated by graphviz version 13.1.2 (20250808.2320)
 -->
<!-- Title: kest_danger_button_create_ui Pages: 1 -->
<svg width="574pt" height="42pt"
 viewBox="0.00 0.00 574.00 42.00" xmlns="http://www.w3.org/2000/svg" xmlns:xlink="http://www.w3.org/1999/xlink">
<g id="graph0" class="graph" transform="scale(1 1) rotate(0) translate(4 37.5)">
<title>kest_danger_button_create_ui</title>
<!-- Node1 -->
<g id="Node000001" class="node">
<title>Node1</title>
<g id="a_Node000001"><a xlink:title=" ">
<polygon fill="#999999" stroke="#666666" points="565.75,-33.5 453.75,-33.5 453.75,0 565.75,0 565.75,-33.5"/>
<text xml:space="preserve" text-anchor="start" x="461.75" y="-20" font-family="Helvetica,sans-Serif" font-size="10.00">kest_danger_button</text>
<text xml:space="preserve" text-anchor="middle" x="509.75" y="-7.25" font-family="Helvetica,sans-Serif" font-size="10.00">_create_ui</text>
</a>
</g>
</g>
<!-- Node2 -->
<g id="Node000002" class="node">
<title>Node2</title>
<g id="a_Node000002"><a xlink:href="kest__menu_8c.html#ad08fcb7356b59af639c394da31d8f446" target="_top" xlink:title=" ">
<polygon fill="white" stroke="#666666" points="417.75,-27.12 293.75,-27.12 293.75,-6.38 417.75,-6.38 417.75,-27.12"/>
<text xml:space="preserve" text-anchor="middle" x="355.75" y="-13.62" font-family="Helvetica,sans-Serif" font-size="10.00">create_main_menu_ui</text>
</a>
</g>
</g>
<!-- Node1&#45;&gt;Node2 -->
<g id="edge1_Node000001_Node000002" class="edge">
<title>Node1&#45;&gt;Node2</title>
<g id="a_edge1_Node000001_Node000002"><a xlink:title=" ">
<path fill="none" stroke="#63b8ff" d="M441.99,-16.75C434.07,-16.75 426.02,-16.75 418.18,-16.75"/>
<polygon fill="#63b8ff" stroke="#63b8ff" points="441.93,-20.25 451.93,-16.75 441.93,-13.25 441.93,-20.25"/>
</a>
</g>
</g>
<!-- Node3 -->
<g id="Node000003" class="node">
<title>Node3</title>
<g id="a_Node000003"><a xlink:href="kest__menu_8c.html#a6aa16fb3d12f098f021ae677605e683e" target="_top" xlink:title=" ">
<polygon fill="white" stroke="#666666" points="257.75,-27.12 163,-27.12 163,-6.38 257.75,-6.38 257.75,-27.12"/>
<text xml:space="preserve" text-anchor="middle" x="210.38" y="-13.62" font-family="Helvetica,sans-Serif" font-size="10.00">init_main_menu</text>
</a>
</g>
</g>
<!-- Node2&#45;&gt;Node3 -->
<g id="edge2_Node000002_Node000003" class="edge">
<title>Node2&#45;&gt;Node3</title>
<g id="a_edge2_Node000002_Node000003"><a xlink:title=" ">
<path fill="none" stroke="#63b8ff" d="M282.04,-16.75C273.9,-16.75 265.77,-16.75 258.08,-16.75"/>
<polygon fill="#63b8ff" stroke="#63b8ff" points="282.02,-20.25 292.02,-16.75 282.02,-13.25 282.02,-20.25"/>
</a>
</g>
</g>
<!-- Node4 -->
<g id="Node000004" class="node">
<title>Node4</title>
<g id="a_Node000004"><a xlink:href="kest__ui_8c.html#ab1be7d2981c922ebe8d714f9af0f600d" target="_top" xlink:title=" ">
<polygon fill="#fff0f0" stroke="red" points="127,-27.12 0,-27.12 0,-6.38 127,-6.38 127,-27.12"/>
<text xml:space="preserve" text-anchor="middle" x="63.5" y="-13.62" font-family="Helvetica,sans-Serif" font-size="10.00">kest_init_global_pages</text>
</a>
</g>
</g>
<!-- Node3&#45;&gt;Node4 -->
<g id="edge3_Node000003_Node000004" class="edge">
<title>Node3&#45;&gt;Node4</title>
<g id="a_edge3_Node000003_Node000004"><a xlink:title=" ">
<path fill="none" stroke="#63b8ff" d="M151.4,-16.75C143.52,-16.75 135.39,-16.75 127.43,-16.75"/>
<polygon fill="#63b8ff" stroke="#63b8ff" points="151.22,-20.25 161.22,-16.75 151.22,-13.25 151.22,-20.25"/>
</a>
</g>
</g>
</g>
</svg>
