<?xml version="1.0" encoding="UTF-8" standalone="no"?>
<!DOCTYPE svg PUBLIC "-//W3C//DTD SVG 1.1//EN"
 "http://www.w3.org/Graphics/SVG/1.1/DTD/svg11.dtd">
<!-- Generated by graphviz version 13.1.2 (20250808.2320)
 -->
<!-- Title: kest_active_button_del_button_remain_timer_cb Pages: 1 -->
<svg width="665pt" height="132pt"
 viewBox="0.00 0.00 665.00 132.00" xmlns="http://www.w3.org/2000/svg" xmlns:xlink="http://www.w3.org/1999/xlink">
<g id="graph0" class="graph" transform="scale(1 1) rotate(0) translate(4 128.12)">
<title>kest_active_button_del_button_remain_timer_cb</title>
<!-- Node1 -->
<g id="Node000001" class="node">
<title>Node1</title>
<g id="a_Node000001"><a xlink:title=" ">
<polygon fill="#999999" stroke="#666666" points="160.75,-72.12 0,-72.12 0,-38.62 160.75,-38.62 160.75,-72.12"/>
<text xml:space="preserve" text-anchor="start" x="8" y="-58.62" font-family="Helvetica,sans-Serif" font-size="10.00">kest_active_button</text>
<text xml:space="preserve" text-anchor="middle" x="80.38" y="-45.88" font-family="Helvetica,sans-Serif" font-size="10.00">_del_button_remain_timer_cb</text>
</a>
</g>
</g>
<!-- Node2 -->
<g id="Node000002" class="node">
<title>Node2</title>
<g id="a_Node000002"><a xlink:href="kest__button_8c.html#ad35b12aa3e8c0b17baaa2cffa7083fcc" target="_top" xlink:title=" ">
<polygon fill="white" stroke="#666666" points="307.25,-78.5 196.75,-78.5 196.75,-32.25 307.25,-32.25 307.25,-78.5"/>
<text xml:space="preserve" text-anchor="start" x="204.75" y="-65" font-family="Helvetica,sans-Serif" font-size="10.00">kest_active_button</text>
<text xml:space="preserve" text-anchor="start" x="204.75" y="-52.25" font-family="Helvetica,sans-Serif" font-size="10.00">_trigger_del_button</text>
<text xml:space="preserve" text-anchor="middle" x="252" y="-39.5" font-family="Helvetica,sans-Serif" font-size="10.00">_fade_out</text>
</a>
</g>
</g>
<!-- Node1&#45;&gt;Node2 -->
<g id="edge1_Node000001_Node000002" class="edge">
<title>Node1&#45;&gt;Node2</title>
<g id="a_edge1_Node000001_Node000002"><a xlink:title=" ">
<path fill="none" stroke="#63b8ff" d="M161.22,-55.38C169.1,-55.38 177.03,-55.38 184.74,-55.38"/>
<polygon fill="#63b8ff" stroke="#63b8ff" points="184.74,-58.88 194.74,-55.38 184.74,-51.88 184.74,-58.88"/>
</a>
</g>
</g>
<!-- Node3 -->
<g id="Node000003" class="node">
<title>Node3</title>
<g id="a_Node000003"><a xlink:href="kest__button_8c.html#acef3a5e0199ca168471154fc981f4931" target="_top" xlink:title=" ">
<polygon fill="white" stroke="#666666" points="473.25,-124.12 356.75,-124.12 356.75,-90.62 473.25,-90.62 473.25,-124.12"/>
<text xml:space="preserve" text-anchor="start" x="364.75" y="-110.62" font-family="Helvetica,sans-Serif" font-size="10.00">kest_active_button</text>
<text xml:space="preserve" text-anchor="middle" x="415" y="-97.88" font-family="Helvetica,sans-Serif" font-size="10.00">_del_button_fade_cb</text>
</a>
</g>
</g>
<!-- Node2&#45;&gt;Node3 -->
<g id="edge2_Node000002_Node000003" class="edge">
<title>Node2&#45;&gt;Node3</title>
<g id="a_edge2_Node000002_Node000003"><a xlink:title=" ">
<path fill="none" stroke="#63b8ff" d="M307.51,-72.98C321.17,-77.39 335.96,-82.17 350.04,-86.72"/>
<polygon fill="#63b8ff" stroke="#63b8ff" points="348.61,-89.93 359.2,-89.68 350.76,-83.27 348.61,-89.93"/>
</a>
</g>
</g>
<!-- Node5 -->
<g id="Node000005" class="node">
<title>Node5</title>
<g id="a_Node000005"><a xlink:href="kest__button_8c.html#aa7f216d53ef827ad4e53ac5253310976" target="_top" xlink:title=" ">
<polygon fill="white" stroke="#666666" points="486.75,-72.12 343.25,-72.12 343.25,-38.62 486.75,-38.62 486.75,-72.12"/>
<text xml:space="preserve" text-anchor="start" x="351.25" y="-58.62" font-family="Helvetica,sans-Serif" font-size="10.00">kest_active_button</text>
<text xml:space="preserve" text-anchor="middle" x="415" y="-45.88" font-family="Helvetica,sans-Serif" font-size="10.00">_del_button_faded_out_cb</text>
</a>
</g>
</g>
<!-- Node2&#45;&gt;Node5 -->
<g id="edge4_Node000002_Node000005" class="edge">
<title>Node2&#45;&gt;Node5</title>
<g id="a_edge4_Node000002_Node000005"><a xlink:title=" ">
<path fill="none" stroke="#63b8ff" d="M307.51,-55.38C315.26,-55.38 323.37,-55.38 331.51,-55.38"/>
<polygon fill="#63b8ff" stroke="#63b8ff" points="331.48,-58.88 341.48,-55.38 331.48,-51.88 331.48,-58.88"/>
</a>
</g>
</g>
<!-- Node7 -->
<g id="Node000007" class="node">
<title>Node7</title>
<g id="a_Node000007"><a xlink:href="kest__button_8c.html#ad55b50e8c238c6de40dd73aab058274a" target="_top" xlink:title=" ">
<polygon fill="white" stroke="#666666" points="470.62,-20.75 359.38,-20.75 359.38,0 470.62,0 470.62,-20.75"/>
<text xml:space="preserve" text-anchor="middle" x="415" y="-7.25" font-family="Helvetica,sans-Serif" font-size="10.00">kest_button_unhide</text>
</a>
</g>
</g>
<!-- Node2&#45;&gt;Node7 -->
<g id="edge6_Node000002_Node000007" class="edge">
<title>Node2&#45;&gt;Node7</title>
<g id="a_edge6_Node000002_Node000007"><a xlink:title=" ">
<path fill="none" stroke="#63b8ff" d="M307.36,-39.54C319.18,-36.15 331.63,-32.61 343.25,-29.38 349.45,-27.65 355.97,-25.86 362.43,-24.11"/>
<polygon fill="#63b8ff" stroke="#63b8ff" points="362.98,-27.58 371.72,-21.6 361.16,-20.83 362.98,-27.58"/>
</a>
</g>
</g>
<!-- Node4 -->
<g id="Node000004" class="node">
<title>Node4</title>
<g id="a_Node000004"><a xlink:href="kest__button_8c.html#a2835584385bb5d418a3ca596aa0ef5b1" target="_top" xlink:title=" ">
<polygon fill="white" stroke="#666666" points="657.25,-117.75 522.75,-117.75 522.75,-97 657.25,-97 657.25,-117.75"/>
<text xml:space="preserve" text-anchor="middle" x="590" y="-104.25" font-family="Helvetica,sans-Serif" font-size="10.00">kest_button_set_opacity</text>
</a>
</g>
</g>
<!-- Node3&#45;&gt;Node4 -->
<g id="edge3_Node000003_Node000004" class="edge">
<title>Node3&#45;&gt;Node4</title>
<g id="a_edge3_Node000003_Node000004"><a xlink:title=" ">
<path fill="none" stroke="#63b8ff" d="M473.61,-107.38C485.57,-107.38 498.37,-107.38 510.93,-107.38"/>
<polygon fill="#63b8ff" stroke="#63b8ff" points="510.85,-110.88 520.85,-107.38 510.85,-103.88 510.85,-110.88"/>
</a>
</g>
</g>
<!-- Node6 -->
<g id="Node000006" class="node">
<title>Node6</title>
<g id="a_Node000006"><a xlink:href="kest__button_8c.html#a247699a53218b0986f4149b42ecd3ae4" target="_top" xlink:title=" ">
<polygon fill="white" stroke="#666666" points="639.62,-65.75 540.38,-65.75 540.38,-45 639.62,-45 639.62,-65.75"/>
<text xml:space="preserve" text-anchor="middle" x="590" y="-52.25" font-family="Helvetica,sans-Serif" font-size="10.00">kest_button_hide</text>
</a>
</g>
</g>
<!-- Node5&#45;&gt;Node6 -->
<g id="edge5_Node000005_Node000006" class="edge">
<title>Node5&#45;&gt;Node6</title>
<g id="a_edge5_Node000005_Node000006"><a xlink:title=" ">
<path fill="none" stroke="#63b8ff" d="M486.86,-55.38C500.79,-55.38 515.27,-55.38 528.81,-55.38"/>
<polygon fill="#63b8ff" stroke="#63b8ff" points="528.4,-58.88 538.4,-55.38 528.4,-51.88 528.4,-58.88"/>
</a>
</g>
</g>
</g>
</svg>
