<?xml version="1.0" encoding="UTF-8" standalone="no"?>
<!DOCTYPE svg PUBLIC "-//W3C//DTD SVG 1.1//EN"
 "http://www.w3.org/Graphics/SVG/1.1/DTD/svg11.dtd">
<!-- Generated by graphviz version 13.1.2 (20250808.2320)
 -->
<!-- Title: token_is_int Pages: 1 -->
<svg width="530pt" height="68pt"
 viewBox="0.00 0.00 530.00 68.00" xmlns="http://www.w3.org/2000/svg" xmlns:xlink="http://www.w3.org/1999/xlink">
<g id="graph0" class="graph" transform="scale(1 1) rotate(0) translate(4 63.75)">
<title>token_is_int</title>
<!-- Node1 -->
<g id="Node000001" class="node">
<title>Node1</title>
<g id="a_Node000001"><a xlink:title=" ">
<polygon fill="#999999" stroke="#666666" points="522.25,-39.75 447.75,-39.75 447.75,-19 522.25,-19 522.25,-39.75"/>
<text xml:space="preserve" text-anchor="middle" x="485" y="-26.25" font-family="Helvetica,sans-Serif" font-size="10.00">token_is_int</text>
</a>
</g>
</g>
<!-- Node2 -->
<g id="Node000002" class="node">
<title>Node2</title>
<g id="a_Node000002"><a xlink:href="kest__asm__parser_8c.html#a975cb5ec55968124f930a9a35fe564c5" target="_top" xlink:title=" ">
<polygon fill="white" stroke="#666666" points="406.12,-59.75 290.38,-59.75 290.38,-39 406.12,-39 406.12,-59.75"/>
<text xml:space="preserve" text-anchor="middle" x="348.25" y="-46.25" font-family="Helvetica,sans-Serif" font-size="10.00">kest_parse_asm_arg</text>
</a>
</g>
</g>
<!-- Node1&#45;&gt;Node2 -->
<g id="edge1_Node000001_Node000002" class="edge">
<title>Node1&#45;&gt;Node2</title>
<g id="a_edge1_Node000001_Node000002"><a xlink:title=" ">
<path fill="none" stroke="#63b8ff" d="M436.18,-36.47C426.59,-37.9 416.42,-39.41 406.54,-40.87"/>
<polygon fill="#63b8ff" stroke="#63b8ff" points="436.66,-39.94 446.04,-35.01 435.63,-33.02 436.66,-39.94"/>
</a>
</g>
</g>
<!-- Node12 -->
<g id="Node000012" class="node">
<title>Node12</title>
<g id="a_Node000012"><a xlink:href="kest__asm__parser_8c.html#a93fe9789a6b0162607601862f5fa9c8c" target="_top" xlink:title=" ">
<polygon fill="white" stroke="#666666" points="411.75,-20.75 284.75,-20.75 284.75,0 411.75,0 411.75,-20.75"/>
<text xml:space="preserve" text-anchor="middle" x="348.25" y="-7.25" font-family="Helvetica,sans-Serif" font-size="10.00">kest_parse_asm_arg_2</text>
</a>
</g>
</g>
<!-- Node1&#45;&gt;Node12 -->
<g id="edge4_Node000001_Node000012" class="edge">
<title>Node1&#45;&gt;Node12</title>
<g id="a_edge4_Node000001_Node000012"><a xlink:title=" ">
<path fill="none" stroke="#63b8ff" d="M436.4,-22.66C428.58,-21.56 420.36,-20.4 412.23,-19.25"/>
<polygon fill="#63b8ff" stroke="#63b8ff" points="435.65,-26.09 446.04,-24.02 436.62,-19.16 435.65,-26.09"/>
</a>
</g>
</g>
<!-- Node3 -->
<g id="Node000003" class="node">
<title>Node3</title>
<g id="a_Node000003"><a xlink:href="kest__asm__parser_8c.html#a8a0d633256a85b35706b7a9ef1add7f0" target="_top" xlink:title=" ">
<polygon fill="white" stroke="#666666" points="248.75,-39.75 130.75,-39.75 130.75,-19 248.75,-19 248.75,-39.75"/>
<text xml:space="preserve" text-anchor="middle" x="189.75" y="-26.25" font-family="Helvetica,sans-Serif" font-size="10.00">kest_parse_asm_line</text>
</a>
</g>
</g>
<!-- Node2&#45;&gt;Node3 -->
<g id="edge2_Node000002_Node000003" class="edge">
<title>Node2&#45;&gt;Node3</title>
<g id="a_edge2_Node000002_Node000003"><a xlink:title=" ">
<path fill="none" stroke="#63b8ff" d="M279.17,-40.67C269.19,-39.4 258.99,-38.1 249.23,-36.85"/>
<polygon fill="#63b8ff" stroke="#63b8ff" points="278.44,-44.11 288.81,-41.91 279.33,-37.17 278.44,-44.11"/>
</a>
</g>
</g>
<!-- Node4 -->
<g id="Node000004" class="node">
<title>Node4</title>
<g id="a_Node000004"><a xlink:href="kest__asm__parser_8c.html#a1b7e03dd7589f652dec13b4b2c6d0a5c" target="_top" xlink:title=" ">
<polygon fill="#fff0f0" stroke="red" points="94.75,-39.75 0,-39.75 0,-19 94.75,-19 94.75,-39.75"/>
<text xml:space="preserve" text-anchor="middle" x="47.38" y="-26.25" font-family="Helvetica,sans-Serif" font-size="10.00">kest_parse_asm</text>
</a>
</g>
</g>
<!-- Node3&#45;&gt;Node4 -->
<g id="edge3_Node000003_Node000004" class="edge">
<title>Node3&#45;&gt;Node4</title>
<g id="a_edge3_Node000003_Node000004"><a xlink:title=" ">
<path fill="none" stroke="#63b8ff" d="M119.05,-29.38C110.96,-29.38 102.86,-29.38 95.18,-29.38"/>
<polygon fill="#63b8ff" stroke="#63b8ff" points="118.92,-32.88 128.92,-29.38 118.92,-25.88 118.92,-32.88"/>
</a>
</g>
</g>
<!-- Node12&#45;&gt;Node3 -->
<g id="edge5_Node000012_Node000003" class="edge">
<title>Node12&#45;&gt;Node3</title>
<g id="a_edge5_Node000012_Node000003"><a xlink:title=" ">
<path fill="none" stroke="#63b8ff" d="M273.19,-19.37C265.14,-20.34 257.03,-21.33 249.2,-22.28"/>
<polygon fill="#63b8ff" stroke="#63b8ff" points="273.49,-22.86 282.99,-18.18 272.65,-15.91 273.49,-22.86"/>
</a>
</g>
</g>
</g>
</svg>
