<?xml version="1.0" encoding="UTF-8" standalone="no"?>
<!DOCTYPE svg PUBLIC "-//W3C//DTD SVG 1.1//EN"
 "http://www.w3.org/Graphics/SVG/1.1/DTD/svg11.dtd">
<!-- Generated by graphviz version 13.1.2 (20250808.2320)
 -->
<!-- Title: char_is_alphanumeric Pages: 1 -->
<svg width="260pt" height="68pt"
 viewBox="0.00 0.00 260.00 68.00" xmlns="http://www.w3.org/2000/svg" xmlns:xlink="http://www.w3.org/1999/xlink">
<g id="graph0" class="graph" transform="scale(1 1) rotate(0) translate(4 63.75)">
<title>char_is_alphanumeric</title>
<!-- Node1 -->
<g id="Node000001" class="node">
<title>Node1</title>
<g id="a_Node000001"><a xlink:title=" ">
<polygon fill="#999999" stroke="#666666" points="122.5,-39.75 0,-39.75 0,-19 122.5,-19 122.5,-39.75"/>
<text xml:space="preserve" text-anchor="middle" x="61.25" y="-26.25" font-family="Helvetica,sans-Serif" font-size="10.00">char_is_alphanumeric</text>
</a>
</g>
</g>
<!-- Node2 -->
<g id="Node000002" class="node">
<title>Node2</title>
<g id="a_Node000002"><a xlink:href="kest__tokenizer_8c.html#ae3e094675b7f6c398787acd25603e724" target="_top" xlink:title=" ">
<polygon fill="white" stroke="#666666" points="246.12,-59.75 164.12,-59.75 164.12,-39 246.12,-39 246.12,-59.75"/>
<text xml:space="preserve" text-anchor="middle" x="205.12" y="-46.25" font-family="Helvetica,sans-Serif" font-size="10.00">char_is_letter</text>
</a>
</g>
</g>
<!-- Node1&#45;&gt;Node2 -->
<g id="edge1_Node000001_Node000002" class="edge">
<title>Node1&#45;&gt;Node2</title>
<g id="a_edge1_Node000001_Node000002"><a xlink:title=" ">
<path fill="none" stroke="#63b8ff" d="M122.83,-37.91C132.79,-39.32 143.03,-40.76 152.74,-42.13"/>
<polygon fill="#63b8ff" stroke="#63b8ff" points="151.95,-45.55 162.34,-43.49 152.93,-38.62 151.95,-45.55"/>
</a>
</g>
</g>
<!-- Node3 -->
<g id="Node000003" class="node">
<title>Node3</title>
<g id="a_Node000003"><a xlink:href="kest__tokenizer_8c.html#a69053f707d3b257c2a4fbbab04855ce4" target="_top" xlink:title=" ">
<polygon fill="white" stroke="#666666" points="251.75,-20.75 158.5,-20.75 158.5,0 251.75,0 251.75,-20.75"/>
<text xml:space="preserve" text-anchor="middle" x="205.12" y="-7.25" font-family="Helvetica,sans-Serif" font-size="10.00">char_is_number</text>
</a>
</g>
</g>
<!-- Node1&#45;&gt;Node3 -->
<g id="edge2_Node000001_Node000003" class="edge">
<title>Node1&#45;&gt;Node3</title>
<g id="a_edge2_Node000001_Node000003"><a xlink:title=" ">
<path fill="none" stroke="#63b8ff" d="M122.83,-21.26C130.82,-20.19 139,-19.1 146.93,-18.03"/>
<polygon fill="#63b8ff" stroke="#63b8ff" points="147.4,-21.5 156.84,-16.71 146.47,-14.57 147.4,-21.5"/>
</a>
</g>
</g>
</g>
</svg>
