<?xml version="1.0" encoding="UTF-8" standalone="no"?>
<!DOCTYPE svg PUBLIC "-//W3C//DTD SVG 1.1//EN"
 "http://www.w3.org/Graphics/SVG/1.1/DTD/svg11.dtd">
<!-- Generated by graphviz version 13.1.2 (20250808.2320)
 -->
<!-- Title: kest_expr_scope_add_param Pages: 1 -->
<svg width="634pt" height="146pt"
 viewBox="0.00 0.00 634.00 146.00" xmlns="http://www.w3.org/2000/svg" xmlns:xlink="http://www.w3.org/1999/xlink">
<g id="graph0" class="graph" transform="scale(1 1) rotate(0) translate(4 141.5)">
<title>kest_expr_scope_add_param</title>
<!-- Node1 -->
<g id="Node000001" class="node">
<title>Node1</title>
<g id="a_Node000001"><a xlink:title=" ">
<polygon fill="#999999" stroke="#666666" points="625.75,-85.5 505.5,-85.5 505.5,-52 625.75,-52 625.75,-85.5"/>
<text xml:space="preserve" text-anchor="start" x="513.5" y="-72" font-family="Helvetica,sans-Serif" font-size="10.00">kest_expr_scope_add</text>
<text xml:space="preserve" text-anchor="middle" x="565.62" y="-59.25" font-family="Helvetica,sans-Serif" font-size="10.00">_param</text>
</a>
</g>
</g>
<!-- Node2 -->
<g id="Node000002" class="node">
<title>Node2</title>
<g id="a_Node000002"><a xlink:href="kest__eff__desc_8c.html#aaf8a3f8e6d2ba98da34712a2a5f629f1" target="_top" xlink:title=" ">
<polygon fill="white" stroke="#666666" points="468.75,-137.5 350,-137.5 350,-104 468.75,-104 468.75,-137.5"/>
<text xml:space="preserve" text-anchor="start" x="358" y="-124" font-family="Helvetica,sans-Serif" font-size="10.00">kest_eff_desc_create</text>
<text xml:space="preserve" text-anchor="middle" x="409.38" y="-111.25" font-family="Helvetica,sans-Serif" font-size="10.00">_scope</text>
</a>
</g>
</g>
<!-- Node1&#45;&gt;Node2 -->
<g id="edge1_Node000001_Node000002" class="edge">
<title>Node1&#45;&gt;Node2</title>
<g id="a_edge1_Node000001_Node000002"><a xlink:title=" ">
<path fill="none" stroke="#63b8ff" d="M502.87,-89.57C489.15,-94.19 474.76,-99.05 461.52,-103.51"/>
<polygon fill="#63b8ff" stroke="#63b8ff" points="503.9,-92.92 512.26,-86.4 501.66,-86.28 503.9,-92.92"/>
</a>
</g>
</g>
<!-- Node3 -->
<g id="Node000003" class="node">
<title>Node3</title>
<g id="a_Node000003"><a xlink:href="kest__effect_8c.html#ad36244b2279575200cc5265d2e25dfdd" target="_top" xlink:title=" ">
<polygon fill="white" stroke="#666666" points="462.38,-85.5 356.38,-85.5 356.38,-52 462.38,-52 462.38,-85.5"/>
<text xml:space="preserve" text-anchor="start" x="364.38" y="-72" font-family="Helvetica,sans-Serif" font-size="10.00">kest_effect_create</text>
<text xml:space="preserve" text-anchor="middle" x="409.38" y="-59.25" font-family="Helvetica,sans-Serif" font-size="10.00">_scope</text>
</a>
</g>
</g>
<!-- Node1&#45;&gt;Node3 -->
<g id="edge2_Node000001_Node000003" class="edge">
<title>Node1&#45;&gt;Node3</title>
<g id="a_edge2_Node000001_Node000003"><a xlink:title=" ">
<path fill="none" stroke="#63b8ff" d="M494.05,-68.75C483.47,-68.75 472.72,-68.75 462.61,-68.75"/>
<polygon fill="#63b8ff" stroke="#63b8ff" points="493.92,-72.25 503.92,-68.75 493.92,-65.25 493.92,-72.25"/>
</a>
</g>
</g>
<!-- Node16 -->
<g id="Node000016" class="node">
<title>Node16</title>
<g id="a_Node000016"><a xlink:href="kest__expr__scope_8c.html#a34a014762db8866580f6b80231e441fe" target="_top" xlink:title=" ">
<polygon fill="white" stroke="#666666" points="469.5,-33.5 349.25,-33.5 349.25,0 469.5,0 469.5,-33.5"/>
<text xml:space="preserve" text-anchor="start" x="357.25" y="-20" font-family="Helvetica,sans-Serif" font-size="10.00">kest_expr_scope_add</text>
<text xml:space="preserve" text-anchor="middle" x="409.38" y="-7.25" font-family="Helvetica,sans-Serif" font-size="10.00">_params</text>
</a>
</g>
</g>
<!-- Node1&#45;&gt;Node16 -->
<g id="edge5_Node000001_Node000016" class="edge">
<title>Node1&#45;&gt;Node16</title>
<g id="a_edge5_Node000001_Node000016"><a xlink:title=" ">
<path fill="none" stroke="#63b8ff" d="M502.87,-47.93C489.15,-43.31 474.76,-38.45 461.52,-33.99"/>
<polygon fill="#63b8ff" stroke="#63b8ff" points="501.66,-51.22 512.26,-51.1 503.9,-44.58 501.66,-51.22"/>
</a>
</g>
</g>
<!-- Node4 -->
<g id="Node000004" class="node">
<title>Node4</title>
<g id="a_Node000004"><a xlink:href="kest__effect_8c.html#a85b25e44e2629962673634f965ffe304" target="_top" xlink:title=" ">
<polygon fill="white" stroke="#666666" points="313.25,-79.12 157.75,-79.12 157.75,-58.38 313.25,-58.38 313.25,-79.12"/>
<text xml:space="preserve" text-anchor="middle" x="235.5" y="-65.62" font-family="Helvetica,sans-Serif" font-size="10.00">init_effect_from_effect_desc</text>
</a>
</g>
</g>
<!-- Node3&#45;&gt;Node4 -->
<g id="edge3_Node000003_Node000004" class="edge">
<title>Node3&#45;&gt;Node4</title>
<g id="a_edge3_Node000003_Node000004"><a xlink:title=" ">
<path fill="none" stroke="#63b8ff" d="M345.06,-68.75C334.86,-68.75 324.2,-68.75 313.73,-68.75"/>
<polygon fill="#63b8ff" stroke="#63b8ff" points="344.83,-72.25 354.83,-68.75 344.83,-65.25 344.83,-72.25"/>
</a>
</g>
</g>
<!-- Node5 -->
<g id="Node000005" class="node">
<title>Node5</title>
<g id="a_Node000005"><a xlink:href="kest__pipeline_8c.html#a0eff55a4103a090993bbac228a981af6" target="_top" xlink:title=" ">
<polygon fill="#fff0f0" stroke="red" points="121.75,-85.5 0,-85.5 0,-52 121.75,-52 121.75,-85.5"/>
<text xml:space="preserve" text-anchor="start" x="8" y="-72" font-family="Helvetica,sans-Serif" font-size="10.00">kest_pipeline_append</text>
<text xml:space="preserve" text-anchor="middle" x="60.88" y="-59.25" font-family="Helvetica,sans-Serif" font-size="10.00">_effect_eff</text>
</a>
</g>
</g>
<!-- Node4&#45;&gt;Node5 -->
<g id="edge4_Node000004_Node000005" class="edge">
<title>Node4&#45;&gt;Node5</title>
<g id="a_edge4_Node000004_Node000005"><a xlink:title=" ">
<path fill="none" stroke="#63b8ff" d="M145.93,-68.75C137.9,-68.75 129.9,-68.75 122.2,-68.75"/>
<polygon fill="#63b8ff" stroke="#63b8ff" points="145.76,-72.25 155.76,-68.75 145.76,-65.25 145.76,-72.25"/>
</a>
</g>
</g>
<!-- Node17 -->
<g id="Node000017" class="node">
<title>Node17</title>
<g id="a_Node000017"><a xlink:href="kest__eff__parser_8c.html#a73ef6962d1925857ec3e4b12d1aad834" target="_top" xlink:title=" ">
<polygon fill="white" stroke="#666666" points="288.5,-27.12 182.5,-27.12 182.5,-6.38 288.5,-6.38 288.5,-27.12"/>
<text xml:space="preserve" text-anchor="middle" x="235.5" y="-13.62" font-family="Helvetica,sans-Serif" font-size="10.00">kest_parse_tokens</text>
</a>
</g>
</g>
<!-- Node16&#45;&gt;Node17 -->
<g id="edge6_Node000016_Node000017" class="edge">
<title>Node16&#45;&gt;Node17</title>
<g id="a_edge6_Node000016_Node000017"><a xlink:title=" ">
<path fill="none" stroke="#63b8ff" d="M338,-16.75C321.57,-16.75 304.35,-16.75 288.86,-16.75"/>
<polygon fill="#63b8ff" stroke="#63b8ff" points="337.71,-20.25 347.71,-16.75 337.71,-13.25 337.71,-20.25"/>
</a>
</g>
</g>
<!-- Node18 -->
<g id="Node000018" class="node">
<title>Node18</title>
<g id="a_Node000018"><a xlink:href="kest__eff__parser_8c.html#ae4618958c44389928c260fdb0e170761" target="_top" xlink:title=" ">
<polygon fill="#fff0f0" stroke="red" points="115.75,-33.5 6,-33.5 6,0 115.75,0 115.75,-33.5"/>
<text xml:space="preserve" text-anchor="start" x="14" y="-20" font-family="Helvetica,sans-Serif" font-size="10.00">kest_read_eff_desc</text>
<text xml:space="preserve" text-anchor="middle" x="60.88" y="-7.25" font-family="Helvetica,sans-Serif" font-size="10.00">_from_file</text>
</a>
</g>
</g>
<!-- Node17&#45;&gt;Node18 -->
<g id="edge7_Node000017_Node000018" class="edge">
<title>Node17&#45;&gt;Node18</title>
<g id="a_edge7_Node000017_Node000018"><a xlink:title=" ">
<path fill="none" stroke="#63b8ff" d="M170.94,-16.75C152.91,-16.75 133.46,-16.75 116.05,-16.75"/>
<polygon fill="#63b8ff" stroke="#63b8ff" points="170.72,-20.25 180.72,-16.75 170.72,-13.25 170.72,-20.25"/>
</a>
</g>
</g>
</g>
</svg>
