<?xml version="1.0" encoding="UTF-8" standalone="no"?>
<!DOCTYPE svg PUBLIC "-//W3C//DTD SVG 1.1//EN"
 "http://www.w3.org/Graphics/SVG/1.1/DTD/svg11.dtd">
<!-- Generated by graphviz version 13.1.2 (20250808.2320)
 -->
<!-- Title: enter_ui_page_indirect Pages: 1 -->
<svg width="571pt" height="42pt"
 viewBox="0.00 0.00 571.00 42.00" xmlns="http://www.w3.org/2000/svg" xmlns:xlink="http://www.w3.org/1999/xlink">
<g id="graph0" class="graph" transform="scale(1 1) rotate(0) translate(4 37.5)">
<title>enter_ui_page_indirect</title>
<!-- Node1 -->
<g id="Node000001" class="node">
<title>Node1</title>
<g id="a_Node000001"><a xlink:title=" ">
<polygon fill="#999999" stroke="#666666" points="127,-27.12 0,-27.12 0,-6.38 127,-6.38 127,-27.12"/>
<text xml:space="preserve" text-anchor="middle" x="63.5" y="-13.62" font-family="Helvetica,sans-Serif" font-size="10.00">enter_ui_page_indirect</text>
</a>
</g>
</g>
<!-- Node2 -->
<g id="Node000002" class="node">
<title>Node2</title>
<g id="a_Node000002"><a xlink:href="kest__ui_8c.html#aab9f2e82d67858edd53fd09370687007" target="_top" xlink:title=" ">
<polygon fill="white" stroke="#666666" points="248,-27.12 163,-27.12 163,-6.38 248,-6.38 248,-27.12"/>
<text xml:space="preserve" text-anchor="middle" x="205.5" y="-13.62" font-family="Helvetica,sans-Serif" font-size="10.00">enter_ui_page</text>
</a>
</g>
</g>
<!-- Node1&#45;&gt;Node2 -->
<g id="edge1_Node000001_Node000002" class="edge">
<title>Node1&#45;&gt;Node2</title>
<g id="a_edge1_Node000001_Node000002"><a xlink:title=" ">
<path fill="none" stroke="#63b8ff" d="M127.13,-16.75C135.25,-16.75 143.5,-16.75 151.45,-16.75"/>
<polygon fill="#63b8ff" stroke="#63b8ff" points="151.3,-20.25 161.3,-16.75 151.3,-13.25 151.3,-20.25"/>
</a>
</g>
</g>
<!-- Node3 -->
<g id="Node000003" class="node">
<title>Node3</title>
<g id="a_Node000003"><a xlink:href="kest__context_8c.html#a6292c7a2d7f0502ea5a59bbe9b552791" target="_top" xlink:title=" ">
<polygon fill="white" stroke="#666666" points="404.25,-33.5 284,-33.5 284,0 404.25,0 404.25,-33.5"/>
<text xml:space="preserve" text-anchor="start" x="292" y="-20" font-family="Helvetica,sans-Serif" font-size="10.00">kest_cxt_queue_save</text>
<text xml:space="preserve" text-anchor="middle" x="344.12" y="-7.25" font-family="Helvetica,sans-Serif" font-size="10.00">_state</text>
</a>
</g>
</g>
<!-- Node2&#45;&gt;Node3 -->
<g id="edge2_Node000002_Node000003" class="edge">
<title>Node2&#45;&gt;Node3</title>
<g id="a_edge2_Node000002_Node000003"><a xlink:title=" ">
<path fill="none" stroke="#63b8ff" d="M248.23,-16.75C255.81,-16.75 263.9,-16.75 272.04,-16.75"/>
<polygon fill="#63b8ff" stroke="#63b8ff" points="272.03,-20.25 282.03,-16.75 272.03,-13.25 272.03,-20.25"/>
</a>
</g>
</g>
<!-- Node4 -->
<g id="Node000004" class="node">
<title>Node4</title>
<g id="a_Node000004"><a xlink:href="kest__representation_8c.html#a7a4a0f32b72f47d90e3d0f5932fbe58f" target="_top" xlink:title=" ">
<polygon fill="white" stroke="#666666" points="562.75,-33.5 440.25,-33.5 440.25,0 562.75,0 562.75,-33.5"/>
<text xml:space="preserve" text-anchor="start" x="448.25" y="-20" font-family="Helvetica,sans-Serif" font-size="10.00">queue_representation</text>
<text xml:space="preserve" text-anchor="middle" x="501.5" y="-7.25" font-family="Helvetica,sans-Serif" font-size="10.00">_list_update</text>
</a>
</g>
</g>
<!-- Node3&#45;&gt;Node4 -->
<g id="edge3_Node000003_Node000004" class="edge">
<title>Node3&#45;&gt;Node4</title>
<g id="a_edge3_Node000003_Node000004"><a xlink:title=" ">
<path fill="none" stroke="#63b8ff" d="M404.31,-16.75C412.24,-16.75 420.44,-16.75 428.55,-16.75"/>
<polygon fill="#63b8ff" stroke="#63b8ff" points="428.42,-20.25 438.42,-16.75 428.42,-13.25 428.42,-20.25"/>
</a>
</g>
</g>
</g>
</svg>
