<?xml version="1.0" encoding="UTF-8" standalone="no"?>
<!DOCTYPE svg PUBLIC "-//W3C//DTD SVG 1.1//EN"
 "http://www.w3.org/Graphics/SVG/1.1/DTD/svg11.dtd">
<!-- Generated by graphviz version 13.1.2 (20250808.2320)
 -->
<!-- Title: kest_button_set_size Pages: 1 -->
<svg width="776pt" height="195pt"
 viewBox="0.00 0.00 776.00 195.00" xmlns="http://www.w3.org/2000/svg" xmlns:xlink="http://www.w3.org/1999/xlink">
<g id="graph0" class="graph" transform="scale(1 1) rotate(0) translate(4 190.75)">
<title>kest_button_set_size</title>
<!-- Node1 -->
<g id="Node000001" class="node">
<title>Node1</title>
<g id="a_Node000001"><a xlink:title=" ">
<polygon fill="#999999" stroke="#666666" points="767.75,-84.75 649.75,-84.75 649.75,-64 767.75,-64 767.75,-84.75"/>
<text xml:space="preserve" text-anchor="middle" x="708.75" y="-71.25" font-family="Helvetica,sans-Serif" font-size="10.00">kest_button_set_size</text>
</a>
</g>
</g>
<!-- Node2 -->
<g id="Node000002" class="node">
<title>Node2</title>
<g id="a_Node000002"><a xlink:href="kest__button_8c.html#a209511305dd2db40751857097e1e82c1" target="_top" xlink:title=" ">
<polygon fill="white" stroke="#666666" points="613.75,-143.12 505.5,-143.12 505.5,-109.62 613.75,-109.62 613.75,-143.12"/>
<text xml:space="preserve" text-anchor="start" x="513.5" y="-129.62" font-family="Helvetica,sans-Serif" font-size="10.00">kest_active_button</text>
<text xml:space="preserve" text-anchor="middle" x="559.62" y="-116.88" font-family="Helvetica,sans-Serif" font-size="10.00">_add_del_button</text>
</a>
</g>
</g>
<!-- Node1&#45;&gt;Node2 -->
<g id="edge1_Node000001_Node000002" class="edge">
<title>Node1&#45;&gt;Node2</title>
<g id="a_edge1_Node000001_Node000002"><a xlink:title=" ">
<path fill="none" stroke="#63b8ff" d="M666.64,-88.9C648.85,-95.19 627.88,-102.6 609.31,-109.17"/>
<polygon fill="#63b8ff" stroke="#63b8ff" points="667.58,-92.29 675.84,-85.65 665.24,-85.69 667.58,-92.29"/>
</a>
</g>
</g>
<!-- Node33 -->
<g id="Node000033" class="node">
<title>Node33</title>
<g id="a_Node000033"><a xlink:href="kest__button_8c.html#a591c84573c4b4dfefa4c6b1445fc290e" target="_top" xlink:title=" ">
<polygon fill="white" stroke="#666666" points="613.75,-91.12 505.5,-91.12 505.5,-57.62 613.75,-57.62 613.75,-91.12"/>
<text xml:space="preserve" text-anchor="start" x="513.5" y="-77.62" font-family="Helvetica,sans-Serif" font-size="10.00">kest_active_button</text>
<text xml:space="preserve" text-anchor="middle" x="559.62" y="-64.88" font-family="Helvetica,sans-Serif" font-size="10.00">_array_append</text>
</a>
</g>
</g>
<!-- Node1&#45;&gt;Node33 -->
<g id="edge9_Node000001_Node000033" class="edge">
<title>Node1&#45;&gt;Node33</title>
<g id="a_edge9_Node000001_Node000033"><a xlink:title=" ">
<path fill="none" stroke="#63b8ff" d="M638.21,-74.38C630.09,-74.38 621.9,-74.38 614.05,-74.38"/>
<polygon fill="#63b8ff" stroke="#63b8ff" points="638.09,-77.88 648.09,-74.38 638.09,-70.88 638.09,-77.88"/>
</a>
</g>
</g>
<!-- Node34 -->
<g id="Node000034" class="node">
<title>Node34</title>
<g id="a_Node000034"><a xlink:href="kest__button_8c.html#a5e6c97ec92e16eb87812836d0e1a5b37" target="_top" xlink:title=" ">
<polygon fill="white" stroke="#666666" points="613.75,-39.12 505.5,-39.12 505.5,-5.62 613.75,-5.62 613.75,-39.12"/>
<text xml:space="preserve" text-anchor="start" x="513.5" y="-25.62" font-family="Helvetica,sans-Serif" font-size="10.00">kest_active_button</text>
<text xml:space="preserve" text-anchor="middle" x="559.62" y="-12.88" font-family="Helvetica,sans-Serif" font-size="10.00">_set_dimensions</text>
</a>
</g>
</g>
<!-- Node1&#45;&gt;Node34 -->
<g id="edge11_Node000001_Node000034" class="edge">
<title>Node1&#45;&gt;Node34</title>
<g id="a_edge11_Node000001_Node000034"><a xlink:title=" ">
<path fill="none" stroke="#63b8ff" d="M666.64,-59.85C648.85,-53.56 627.88,-46.15 609.31,-39.58"/>
<polygon fill="#63b8ff" stroke="#63b8ff" points="665.24,-63.06 675.84,-63.1 667.58,-56.46 665.24,-63.06"/>
</a>
</g>
</g>
<!-- Node3 -->
<g id="Node000003" class="node">
<title>Node3</title>
<g id="a_Node000003"><a xlink:href="kest__button_8c.html#a760fe364ce4f5be2c972ff685e2f9825" target="_top" xlink:title=" ">
<polygon fill="white" stroke="#666666" points="462,-117.12 348.5,-117.12 348.5,-83.62 462,-83.62 462,-117.12"/>
<text xml:space="preserve" text-anchor="start" x="356.5" y="-103.62" font-family="Helvetica,sans-Serif" font-size="10.00">kest_active_button</text>
<text xml:space="preserve" text-anchor="middle" x="405.25" y="-90.88" font-family="Helvetica,sans-Serif" font-size="10.00">_array_append_new</text>
</a>
</g>
</g>
<!-- Node2&#45;&gt;Node3 -->
<g id="edge2_Node000002_Node000003" class="edge">
<title>Node2&#45;&gt;Node3</title>
<g id="a_edge2_Node000002_Node000003"><a xlink:title=" ">
<path fill="none" stroke="#63b8ff" d="M494.05,-115.36C483.52,-113.56 472.67,-111.71 462.36,-109.95"/>
<polygon fill="#63b8ff" stroke="#63b8ff" points="493.39,-118.79 503.84,-117.03 494.57,-111.89 493.39,-118.79"/>
</a>
</g>
</g>
<!-- Node4 -->
<g id="Node000004" class="node">
<title>Node4</title>
<g id="a_Node000004"><a xlink:href="kest__profile__view_8c.html#a9f9505132871c2ea372958fd06ecf10f" target="_top" xlink:title=" ">
<polygon fill="#fff0f0" stroke="red" points="305,-186.75 178,-186.75 178,-166 305,-166 305,-186.75"/>
<text xml:space="preserve" text-anchor="middle" x="241.5" y="-173.25" font-family="Helvetica,sans-Serif" font-size="10.00">configure_profile_view</text>
</a>
</g>
</g>
<!-- Node3&#45;&gt;Node4 -->
<g id="edge3_Node000003_Node000004" class="edge">
<title>Node3&#45;&gt;Node4</title>
<g id="a_edge3_Node000003_Node000004"><a xlink:title=" ">
<path fill="none" stroke="#63b8ff" d="M363.82,-122.92C346.02,-132.49 324.71,-143.47 305,-152.38 294.62,-157.07 283.03,-161.68 272.67,-165.6"/>
<polygon fill="#63b8ff" stroke="#63b8ff" points="365.41,-126.04 372.53,-118.19 362.07,-119.88 365.41,-126.04"/>
</a>
</g>
</g>
<!-- Node12 -->
<g id="Node000012" class="node">
<title>Node12</title>
<g id="a_Node000012"><a xlink:href="kest__sequence__view_8c.html#ac871b24a7c875a7b6e707a3d2691a2a9" target="_top" xlink:title=" ">
<polygon fill="#fff0f0" stroke="red" points="142,-84.75 0,-84.75 0,-64 142,-64 142,-84.75"/>
<text xml:space="preserve" text-anchor="middle" x="71" y="-71.25" font-family="Helvetica,sans-Serif" font-size="10.00">configure_sequence_view</text>
</a>
</g>
</g>
<!-- Node3&#45;&gt;Node12 -->
<g id="edge4_Node000003_Node000012" class="edge">
<title>Node3&#45;&gt;Node12</title>
<g id="a_edge4_Node000003_Node000012"><a xlink:title=" ">
<path fill="none" stroke="#63b8ff" d="M337.24,-115.87C291.9,-123.95 230.88,-130.13 178,-119.38 145.87,-112.84 111.4,-96.21 90.78,-85.1"/>
<polygon fill="#63b8ff" stroke="#63b8ff" points="337.74,-119.34 346.92,-114.06 336.45,-112.46 337.74,-119.34"/>
</a>
</g>
</g>
<!-- Node26 -->
<g id="Node000026" class="node">
<title>Node26</title>
<g id="a_Node000026"><a xlink:href="kest__ui_8c.html#a54f79f277b7d97da20f192e3bec8f3ec" target="_top" xlink:title=" ">
<polygon fill="white" stroke="#666666" points="284,-110.75 199,-110.75 199,-90 284,-90 284,-110.75"/>
<text xml:space="preserve" text-anchor="middle" x="241.5" y="-97.25" font-family="Helvetica,sans-Serif" font-size="10.00">init_test_page</text>
</a>
</g>
</g>
<!-- Node3&#45;&gt;Node26 -->
<g id="edge5_Node000003_Node000026" class="edge">
<title>Node3&#45;&gt;Node26</title>
<g id="a_edge5_Node000003_Node000026"><a xlink:title=" ">
<path fill="none" stroke="#63b8ff" d="M336.67,-100.38C318.98,-100.38 300.41,-100.38 284.49,-100.38"/>
<polygon fill="#63b8ff" stroke="#63b8ff" points="336.62,-103.88 346.62,-100.38 336.62,-96.88 336.62,-103.88"/>
</a>
</g>
</g>
<!-- Node27 -->
<g id="Node000027" class="node">
<title>Node27</title>
<g id="a_Node000027"><a xlink:href="kest__profile__view_8c.html#a9c3d5228a66c4f4546876fbc4c93b6ab" target="_top" xlink:title=" ">
<polygon fill="#fff0f0" stroke="red" points="300.12,-72.12 182.88,-72.12 182.88,-38.62 300.12,-38.62 300.12,-72.12"/>
<text xml:space="preserve" text-anchor="start" x="190.88" y="-58.62" font-family="Helvetica,sans-Serif" font-size="10.00">profile_view_append</text>
<text xml:space="preserve" text-anchor="middle" x="241.5" y="-45.88" font-family="Helvetica,sans-Serif" font-size="10.00">_effect</text>
</a>
</g>
</g>
<!-- Node3&#45;&gt;Node27 -->
<g id="edge6_Node000003_Node000027" class="edge">
<title>Node3&#45;&gt;Node27</title>
<g id="a_edge6_Node000003_Node000027"><a xlink:title=" ">
<path fill="none" stroke="#63b8ff" d="M337.1,-81.69C324.93,-78.31 312.32,-74.8 300.44,-71.49"/>
<polygon fill="#63b8ff" stroke="#63b8ff" points="336.1,-85.05 346.67,-84.36 337.98,-78.3 336.1,-85.05"/>
</a>
</g>
</g>
<!-- Node32 -->
<g id="Node000032" class="node">
<title>Node32</title>
<g id="a_Node000032"><a xlink:href="kest__sequence__view_8c.html#a83d1a352af6a3932ce4d08e01f7d8d8a" target="_top" xlink:title=" ">
<polygon fill="white" stroke="#666666" points="279.12,-20.75 203.88,-20.75 203.88,0 279.12,0 279.12,-20.75"/>
<text xml:space="preserve" text-anchor="middle" x="241.5" y="-7.25" font-family="Helvetica,sans-Serif" font-size="10.00">seq_plus_cb</text>
</a>
</g>
</g>
<!-- Node3&#45;&gt;Node32 -->
<g id="edge7_Node000003_Node000032" class="edge">
<title>Node3&#45;&gt;Node32</title>
<g id="a_edge7_Node000003_Node000032"><a xlink:title=" ">
<path fill="none" stroke="#63b8ff" d="M375.85,-76.23C356.82,-61.05 330.64,-42.01 305,-29.38 297.07,-25.46 288.16,-22.17 279.62,-19.48"/>
<polygon fill="#63b8ff" stroke="#63b8ff" points="373.44,-78.79 383.41,-82.38 377.86,-73.35 373.44,-78.79"/>
</a>
</g>
</g>
<!-- Node32&#45;&gt;Node12 -->
<g id="edge8_Node000032_Node000012" class="edge">
<title>Node32&#45;&gt;Node12</title>
<g id="a_edge8_Node000032_Node000012"><a xlink:title=" ">
<path fill="none" stroke="#63b8ff" d="M192.73,-24.32C187.73,-25.95 182.75,-27.65 178,-29.38 149.06,-39.88 116.58,-54.03 95.29,-63.64"/>
<polygon fill="#63b8ff" stroke="#63b8ff" points="193.68,-27.69 202.16,-21.34 191.57,-21.02 193.68,-27.69"/>
</a>
</g>
</g>
<!-- Node33&#45;&gt;Node3 -->
<g id="edge10_Node000033_Node000003" class="edge">
<title>Node33&#45;&gt;Node3</title>
<g id="a_edge10_Node000033_Node000003"><a xlink:title=" ">
<path fill="none" stroke="#63b8ff" d="M494.05,-85.39C483.52,-87.19 472.67,-89.04 462.36,-90.8"/>
<polygon fill="#63b8ff" stroke="#63b8ff" points="494.57,-88.86 503.84,-83.72 493.39,-81.96 494.57,-88.86"/>
</a>
</g>
</g>
<!-- Node35 -->
<g id="Node000035" class="node">
<title>Node35</title>
<g id="a_Node000035"><a xlink:href="kest__button_8c.html#a5daac1b4e601827b0ed7a9f66c72691c" target="_top" xlink:title=" ">
<polygon fill="white" stroke="#666666" points="469.5,-39.12 341,-39.12 341,-5.62 469.5,-5.62 469.5,-39.12"/>
<text xml:space="preserve" text-anchor="start" x="349" y="-25.62" font-family="Helvetica,sans-Serif" font-size="10.00">kest_active_button</text>
<text xml:space="preserve" text-anchor="middle" x="405.25" y="-12.88" font-family="Helvetica,sans-Serif" font-size="10.00">_array_set_dimensions</text>
</a>
</g>
</g>
<!-- Node34&#45;&gt;Node35 -->
<g id="edge12_Node000034_Node000035" class="edge">
<title>Node34&#45;&gt;Node35</title>
<g id="a_edge12_Node000034_Node000035"><a xlink:title=" ">
<path fill="none" stroke="#63b8ff" d="M493.89,-22.38C485.97,-22.38 477.89,-22.38 469.98,-22.38"/>
<polygon fill="#63b8ff" stroke="#63b8ff" points="493.82,-25.88 503.82,-22.38 493.82,-18.88 493.82,-25.88"/>
</a>
</g>
</g>
</g>
</svg>
