<?xml version="1.0" encoding="UTF-8" standalone="no"?>
<!DOCTYPE svg PUBLIC "-//W3C//DTD SVG 1.1//EN"
 "http://www.w3.org/Graphics/SVG/1.1/DTD/svg11.dtd">
<!-- Generated by graphviz version 13.1.2 (20250808.2320)
 -->
<!-- Title: add_effect_from_menu_eff Pages: 1 -->
<svg width="900pt" height="721pt"
 viewBox="0.00 0.00 900.00 721.00" xmlns="http://www.w3.org/2000/svg" xmlns:xlink="http://www.w3.org/1999/xlink">
<g id="graph0" class="graph" transform="scale(1 1) rotate(0) translate(4 717.12)">
<title>add_effect_from_menu_eff</title>
<!-- Node1 -->
<g id="Node000001" class="node">
<title>Node1</title>
<g id="a_Node000001"><a xlink:title=" ">
<polygon fill="#999999" stroke="#666666" points="148,-156.12 0,-156.12 0,-135.38 148,-135.38 148,-156.12"/>
<text xml:space="preserve" text-anchor="middle" x="74" y="-142.62" font-family="Helvetica,sans-Serif" font-size="10.00">add_effect_from_menu_eff</text>
</a>
</g>
</g>
<!-- Node2 -->
<g id="Node000002" class="node">
<title>Node2</title>
<g id="a_Node000002"><a xlink:href="kest__effect__view_8c.html#a7d15ffb969bcf677cf4a1622e2666f8e" target="_top" xlink:title=" ">
<polygon fill="white" stroke="#666666" points="320,-527.12 196.75,-527.12 196.75,-506.38 320,-506.38 320,-527.12"/>
<text xml:space="preserve" text-anchor="middle" x="258.38" y="-513.62" font-family="Helvetica,sans-Serif" font-size="10.00">create_effect_view_ui</text>
</a>
</g>
</g>
<!-- Node1&#45;&gt;Node2 -->
<g id="edge1_Node000001_Node000002" class="edge">
<title>Node1&#45;&gt;Node2</title>
<g id="a_edge1_Node000001_Node000002"><a xlink:title=" ">
<path fill="none" stroke="#63b8ff" d="M80.26,-156.45C105.38,-207.55 213.26,-427.01 247.15,-495.94"/>
<polygon fill="#63b8ff" stroke="#63b8ff" points="243.87,-497.21 251.42,-504.65 250.15,-494.13 243.87,-497.21"/>
</a>
</g>
</g>
<!-- Node79 -->
<g id="Node000079" class="node">
<title>Node79</title>
<g id="a_Node000079"><a xlink:href="kest__ui_8c.html#a8e18610dded037df6bd96330d349f186" target="_top" xlink:title=" ">
<polygon fill="white" stroke="#666666" points="329.75,-111.12 187,-111.12 187,-90.38 329.75,-90.38 329.75,-111.12"/>
<text xml:space="preserve" text-anchor="middle" x="258.38" y="-97.62" font-family="Helvetica,sans-Serif" font-size="10.00">enter_ui_page_backwards</text>
</a>
</g>
</g>
<!-- Node1&#45;&gt;Node79 -->
<g id="edge16_Node000001_Node000079" class="edge">
<title>Node1&#45;&gt;Node79</title>
<g id="a_edge16_Node000001_Node000079"><a xlink:title=" ">
<path fill="none" stroke="#63b8ff" d="M118.68,-134.97C143.76,-128.78 175.5,-120.95 202.28,-114.35"/>
<polygon fill="#63b8ff" stroke="#63b8ff" points="203.08,-117.75 211.95,-111.96 201.4,-110.96 203.08,-117.75"/>
</a>
</g>
</g>
<!-- Node82 -->
<g id="Node000082" class="node">
<title>Node82</title>
<g id="a_Node000082"><a xlink:href="kest__effect_8h.html#a262d6915b50a9a4daf4cd64e3b74b13f" target="_top" xlink:title=" ">
<polygon fill="white" stroke="#666666" points="332.75,-72.12 184,-72.12 184,-51.38 332.75,-51.38 332.75,-72.12"/>
<text xml:space="preserve" text-anchor="middle" x="258.38" y="-58.62" font-family="Helvetica,sans-Serif" font-size="10.00">kest_effect_init_view_page</text>
</a>
</g>
</g>
<!-- Node1&#45;&gt;Node82 -->
<g id="edge19_Node000001_Node000082" class="edge">
<title>Node1&#45;&gt;Node82</title>
<g id="a_edge19_Node000001_Node000082"><a xlink:title=" ">
<path fill="none" stroke="#63b8ff" d="M90.2,-135.06C110.67,-121.09 148.61,-96.65 184,-81.75 188.99,-79.65 194.25,-77.71 199.59,-75.93"/>
<polygon fill="#63b8ff" stroke="#63b8ff" points="200.61,-79.28 209.11,-72.97 198.53,-72.6 200.61,-79.28"/>
</a>
</g>
</g>
<!-- Node83 -->
<g id="Node000083" class="node">
<title>Node83</title>
<g id="a_Node000083"><a xlink:href="kest__profile_8c.html#ab6d55ea9738ce37aae141901562268d6" target="_top" xlink:title=" ">
<polygon fill="white" stroke="#666666" points="315.5,-214.5 201.25,-214.5 201.25,-181 315.5,-181 315.5,-214.5"/>
<text xml:space="preserve" text-anchor="start" x="209.25" y="-201" font-family="Helvetica,sans-Serif" font-size="10.00">kest_profile_append</text>
<text xml:space="preserve" text-anchor="middle" x="258.38" y="-188.25" font-family="Helvetica,sans-Serif" font-size="10.00">_effect_eff</text>
</a>
</g>
</g>
<!-- Node1&#45;&gt;Node83 -->
<g id="edge20_Node000001_Node000083" class="edge">
<title>Node1&#45;&gt;Node83</title>
<g id="a_edge20_Node000001_Node000083"><a xlink:title=" ">
<path fill="none" stroke="#63b8ff" d="M112.79,-156.52C135.06,-162.88 163.9,-171.1 189.96,-178.53"/>
<polygon fill="#63b8ff" stroke="#63b8ff" points="188.9,-181.86 199.47,-181.24 190.81,-175.13 188.9,-181.86"/>
</a>
</g>
</g>
<!-- Node43 -->
<g id="Node000043" class="node">
<title>Node43</title>
<g id="a_Node000043"><a xlink:href="kest__profile_8c.html#a1943b8bd24ec344d5f80fcb7fb4ca297" target="_top" xlink:title=" ">
<polygon fill="#fff0f0" stroke="red" points="318.5,-33.5 198.25,-33.5 198.25,0 318.5,0 318.5,-33.5"/>
<text xml:space="preserve" text-anchor="start" x="206.25" y="-20" font-family="Helvetica,sans-Serif" font-size="10.00">kest_profile_if_active</text>
<text xml:space="preserve" text-anchor="middle" x="258.38" y="-7.25" font-family="Helvetica,sans-Serif" font-size="10.00">_update_fpga</text>
</a>
</g>
</g>
<!-- Node1&#45;&gt;Node43 -->
<g id="edge25_Node000001_Node000043" class="edge">
<title>Node1&#45;&gt;Node43</title>
<g id="a_edge25_Node000001_Node000043"><a xlink:title=" ">
<path fill="none" stroke="#63b8ff" d="M83.5,-135.19C100.53,-114.66 140.91,-69.1 184,-42.75 186.15,-41.43 188.39,-40.17 190.67,-38.96"/>
<polygon fill="#63b8ff" stroke="#63b8ff" points="192.12,-42.15 199.6,-34.64 189.07,-35.84 192.12,-42.15"/>
</a>
</g>
</g>
<!-- Node112 -->
<g id="Node000112" class="node">
<title>Node112</title>
<g id="a_Node000112"><a xlink:href="kest__profile_8c.html#a8b1594e9e88b6298e1ce4d93641b1e4d" target="_top" xlink:title=" ">
<polygon fill="white" stroke="#666666" points="314.38,-162.5 202.38,-162.5 202.38,-129 314.38,-129 314.38,-162.5"/>
<text xml:space="preserve" text-anchor="start" x="210.38" y="-149" font-family="Helvetica,sans-Serif" font-size="10.00">kest_profile_update</text>
<text xml:space="preserve" text-anchor="middle" x="258.38" y="-136.25" font-family="Helvetica,sans-Serif" font-size="10.00">_representations</text>
</a>
</g>
</g>
<!-- Node1&#45;&gt;Node112 -->
<g id="edge26_Node000001_Node000112" class="edge">
<title>Node1&#45;&gt;Node112</title>
<g id="a_edge26_Node000001_Node000112"><a xlink:title=" ">
<path fill="none" stroke="#63b8ff" d="M148.39,-145.75C162.39,-145.75 176.97,-145.75 190.74,-145.75"/>
<polygon fill="#63b8ff" stroke="#63b8ff" points="190.57,-149.25 200.57,-145.75 190.57,-142.25 190.57,-149.25"/>
</a>
</g>
</g>
<!-- Node113 -->
<g id="Node000113" class="node">
<title>Node113</title>
<g id="a_Node000113"><a xlink:href="kest__profile__view_8c.html#a9c3d5228a66c4f4546876fbc4c93b6ab" target="_top" xlink:title=" ">
<polygon fill="white" stroke="#666666" points="317,-336.5 199.75,-336.5 199.75,-303 317,-303 317,-336.5"/>
<text xml:space="preserve" text-anchor="start" x="207.75" y="-323" font-family="Helvetica,sans-Serif" font-size="10.00">profile_view_append</text>
<text xml:space="preserve" text-anchor="middle" x="258.38" y="-310.25" font-family="Helvetica,sans-Serif" font-size="10.00">_effect</text>
</a>
</g>
</g>
<!-- Node1&#45;&gt;Node113 -->
<g id="edge28_Node000001_Node000113" class="edge">
<title>Node1&#45;&gt;Node113</title>
<g id="a_edge28_Node000001_Node000113"><a xlink:title=" ">
<path fill="none" stroke="#63b8ff" d="M86.13,-156.37C114.59,-183.53 190.61,-256.05 231.11,-294.69"/>
<polygon fill="#63b8ff" stroke="#63b8ff" points="228.67,-297.21 238.33,-301.58 233.51,-292.14 228.67,-297.21"/>
</a>
</g>
</g>
<!-- Node3 -->
<g id="Node000003" class="node">
<title>Node3</title>
<g id="a_Node000003"><a xlink:href="kest__effect__settings_8c.html#ad39e071d5cf7cd7e4fc67d41f14d48e8" target="_top" xlink:title=" ">
<polygon fill="white" stroke="#666666" points="500.25,-610.5 375.5,-610.5 375.5,-577 500.25,-577 500.25,-610.5"/>
<text xml:space="preserve" text-anchor="start" x="383.5" y="-597" font-family="Helvetica,sans-Serif" font-size="10.00">create_effect_settings</text>
<text xml:space="preserve" text-anchor="middle" x="437.88" y="-584.25" font-family="Helvetica,sans-Serif" font-size="10.00">_page_ui</text>
</a>
</g>
</g>
<!-- Node2&#45;&gt;Node3 -->
<g id="edge2_Node000002_Node000003" class="edge">
<title>Node2&#45;&gt;Node3</title>
<g id="a_edge2_Node000002_Node000003"><a xlink:title=" ">
<path fill="none" stroke="#63b8ff" d="M284.43,-527.62C310.9,-539.1 353.36,-557.52 386.75,-572"/>
<polygon fill="#63b8ff" stroke="#63b8ff" points="385.28,-575.18 395.85,-575.95 388.07,-568.76 385.28,-575.18"/>
</a>
</g>
</g>
<!-- Node6 -->
<g id="Node000006" class="node">
<title>Node6</title>
<g id="a_Node000006"><a xlink:href="kest__parameter__widget_8c.html#adbadb9573fa4f9b812f8d270c78053e4" target="_top" xlink:title=" ">
<polygon fill="#fff0f0" stroke="red" points="698.5,-585.12 543,-585.12 543,-564.38 698.5,-564.38 698.5,-585.12"/>
<text xml:space="preserve" text-anchor="middle" x="620.75" y="-571.62" font-family="Helvetica,sans-Serif" font-size="10.00">parameter_widget_create_ui</text>
</a>
</g>
</g>
<!-- Node2&#45;&gt;Node6 -->
<g id="edge10_Node000002_Node000006" class="edge">
<title>Node2&#45;&gt;Node6</title>
<g id="a_edge10_Node000002_Node000006"><a xlink:title=" ">
<path fill="none" stroke="#63b8ff" d="M320.1,-526.52C380.87,-536.3 474.65,-551.4 541.09,-562.09"/>
<polygon fill="#63b8ff" stroke="#63b8ff" points="540.41,-565.53 550.84,-563.66 541.52,-558.61 540.41,-565.53"/>
</a>
</g>
</g>
<!-- Node19 -->
<g id="Node000019" class="node">
<title>Node19</title>
<g id="a_Node000019"><a xlink:href="kest__ui_8c.html#a58a68a436917a32cc3daab2e0d4b3245" target="_top" xlink:title=" ">
<polygon fill="#fff0f0" stroke="red" points="687.25,-713.12 554.25,-713.12 554.25,-692.38 687.25,-692.38 687.25,-713.12"/>
<text xml:space="preserve" text-anchor="middle" x="620.75" y="-699.62" font-family="Helvetica,sans-Serif" font-size="10.00">ui_page_create_base_ui</text>
</a>
</g>
</g>
<!-- Node2&#45;&gt;Node19 -->
<g id="edge15_Node000002_Node000019" class="edge">
<title>Node2&#45;&gt;Node19</title>
<g id="a_edge15_Node000002_Node000019"><a xlink:title=" ">
<path fill="none" stroke="#63b8ff" d="M268.21,-527.58C285.51,-548.18 325.93,-593.28 368.75,-619.75 425.61,-654.9 499.01,-676.92 551.73,-689.37"/>
<polygon fill="#63b8ff" stroke="#63b8ff" points="550.65,-692.71 561.18,-691.54 552.22,-685.89 550.65,-692.71"/>
</a>
</g>
</g>
<!-- Node31 -->
<g id="Node000031" class="node">
<title>Node31</title>
<g id="a_Node000031"><a xlink:href="kest__effect_8c.html#a8f53e22436efdc0e494b297ea09db5eb" target="_top" xlink:title=" ">
<polygon fill="white" stroke="#666666" points="489.38,-447.12 386.38,-447.12 386.38,-426.38 489.38,-426.38 489.38,-447.12"/>
<text xml:space="preserve" text-anchor="middle" x="437.88" y="-433.62" font-family="Helvetica,sans-Serif" font-size="10.00">kest_effect_name</text>
</a>
</g>
</g>
<!-- Node2&#45;&gt;Node31 -->
<g id="edge9_Node000002_Node000031" class="edge">
<title>Node2&#45;&gt;Node31</title>
<g id="a_edge9_Node000002_Node000031"><a xlink:title=" ">
<path fill="none" stroke="#63b8ff" d="M283.31,-505.96C314.01,-492.12 367.47,-468.03 402.51,-452.24"/>
<polygon fill="#63b8ff" stroke="#63b8ff" points="403.69,-455.55 411.37,-448.25 400.81,-449.16 403.69,-455.55"/>
</a>
</g>
</g>
<!-- Node32 -->
<g id="Node000032" class="node">
<title>Node32</title>
<g id="a_Node000032"><a xlink:href="kest__parameter__widget_8c.html#a2074107eca4e8e2b3832c9f9f2e5f9f2" target="_top" xlink:title=" ">
<polygon fill="white" stroke="#666666" points="507,-506.12 368.75,-506.12 368.75,-485.38 507,-485.38 507,-506.12"/>
<text xml:space="preserve" text-anchor="middle" x="437.88" y="-492.62" font-family="Helvetica,sans-Serif" font-size="10.00">setting_widget_create_ui</text>
</a>
</g>
</g>
<!-- Node2&#45;&gt;Node32 -->
<g id="edge11_Node000002_Node000032" class="edge">
<title>Node2&#45;&gt;Node32</title>
<g id="a_edge11_Node000002_Node000032"><a xlink:title=" ">
<path fill="none" stroke="#63b8ff" d="M320.46,-509.52C332.28,-508.12 344.84,-506.64 357.15,-505.18"/>
<polygon fill="#63b8ff" stroke="#63b8ff" points="357.35,-508.68 366.87,-504.03 356.53,-501.73 357.35,-508.68"/>
</a>
</g>
</g>
<!-- Node4 -->
<g id="Node000004" class="node">
<title>Node4</title>
<g id="a_Node000004"><a xlink:href="kest__effect__settings_8c.html#a70d66998be0b9c55aee8c71e5c08b3bd" target="_top" xlink:title=" ">
<polygon fill="white" stroke="#666666" points="676.38,-674.5 565.12,-674.5 565.12,-641 676.38,-641 676.38,-674.5"/>
<text xml:space="preserve" text-anchor="start" x="573.12" y="-661" font-family="Helvetica,sans-Serif" font-size="10.00">band_control_value</text>
<text xml:space="preserve" text-anchor="middle" x="620.75" y="-648.25" font-family="Helvetica,sans-Serif" font-size="10.00">_changed_cb</text>
</a>
</g>
</g>
<!-- Node3&#45;&gt;Node4 -->
<g id="edge3_Node000003_Node000004" class="edge">
<title>Node3&#45;&gt;Node4</title>
<g id="a_edge3_Node000003_Node000004"><a xlink:title=" ">
<path fill="none" stroke="#63b8ff" d="M487.35,-610.9C509.85,-618.86 536.81,-628.4 560.51,-636.79"/>
<polygon fill="#63b8ff" stroke="#63b8ff" points="559.12,-640.01 569.72,-640.05 561.46,-633.41 559.12,-640.01"/>
</a>
</g>
</g>
<!-- Node5 -->
<g id="Node000005" class="node">
<title>Node5</title>
<g id="a_Node000005"><a xlink:href="kest__effect__settings_8c.html#af299f810b2c813a39803ad397fa4eeb4" target="_top" xlink:title=" ">
<polygon fill="white" stroke="#666666" points="892.25,-645.12 734.5,-645.12 734.5,-624.38 892.25,-624.38 892.25,-645.12"/>
<text xml:space="preserve" text-anchor="middle" x="813.38" y="-631.62" font-family="Helvetica,sans-Serif" font-size="10.00">refresh_effect_settings_page</text>
</a>
</g>
</g>
<!-- Node3&#45;&gt;Node5 -->
<g id="edge6_Node000003_Node000005" class="edge">
<title>Node3&#45;&gt;Node5</title>
<g id="a_edge6_Node000003_Node000005"><a xlink:title=" ">
<path fill="none" stroke="#63b8ff" d="M500.55,-600.52C561.1,-607.17 654.11,-617.38 722.81,-624.92"/>
<polygon fill="#63b8ff" stroke="#63b8ff" points="722.22,-628.37 732.54,-625.99 722.98,-621.42 722.22,-628.37"/>
</a>
</g>
</g>
<!-- Node3&#45;&gt;Node6 -->
<g id="edge5_Node000003_Node000006" class="edge">
<title>Node3&#45;&gt;Node6</title>
<g id="a_edge5_Node000003_Node000006"><a xlink:title=" ">
<path fill="none" stroke="#63b8ff" d="M500.62,-587.26C510.54,-586.22 520.97,-585.13 531.37,-584.03"/>
<polygon fill="#63b8ff" stroke="#63b8ff" points="531.53,-587.54 541.11,-583.01 530.8,-580.57 531.53,-587.54"/>
</a>
</g>
</g>
<!-- Node17 -->
<g id="Node000017" class="node">
<title>Node17</title>
<g id="a_Node000017"><a xlink:href="kest__parameter__widget_8c.html#a15c4ba0b3ffa376f951b0fa56aa1c264" target="_top" xlink:title=" ">
<polygon fill="#fff0f0" stroke="red" points="682.75,-546.5 558.75,-546.5 558.75,-513 682.75,-513 682.75,-546.5"/>
<text xml:space="preserve" text-anchor="start" x="566.75" y="-533" font-family="Helvetica,sans-Serif" font-size="10.00">setting_widget_create</text>
<text xml:space="preserve" text-anchor="middle" x="620.75" y="-520.25" font-family="Helvetica,sans-Serif" font-size="10.00">_ui_no_callback</text>
</a>
</g>
</g>
<!-- Node3&#45;&gt;Node17 -->
<g id="edge7_Node000003_Node000017" class="edge">
<title>Node3&#45;&gt;Node17</title>
<g id="a_edge7_Node000003_Node000017"><a xlink:title=" ">
<path fill="none" stroke="#63b8ff" d="M485.18,-576.59C503.2,-569.98 524.03,-562.42 543,-555.75 547.76,-554.08 552.69,-552.36 557.65,-550.65"/>
<polygon fill="#63b8ff" stroke="#63b8ff" points="558.75,-553.97 567.07,-547.42 556.47,-547.35 558.75,-553.97"/>
</a>
</g>
</g>
<!-- Node3&#45;&gt;Node19 -->
<g id="edge8_Node000003_Node000019" class="edge">
<title>Node3&#45;&gt;Node19</title>
<g id="a_edge8_Node000003_Node000019"><a xlink:title=" ">
<path fill="none" stroke="#63b8ff" d="M453.69,-610.71C472.45,-631.12 506.72,-664.96 543,-683.75 546.01,-685.31 549.16,-686.74 552.38,-688.06"/>
<polygon fill="#63b8ff" stroke="#63b8ff" points="550.87,-691.24 561.46,-691.38 553.27,-684.66 550.87,-691.24"/>
</a>
</g>
</g>
<!-- Node4&#45;&gt;Node5 -->
<g id="edge4_Node000004_Node000005" class="edge">
<title>Node4&#45;&gt;Node5</title>
<g id="a_edge4_Node000004_Node000005"><a xlink:title=" ">
<path fill="none" stroke="#63b8ff" d="M676.63,-651.13C691.06,-649.39 707,-647.46 722.74,-645.57"/>
<polygon fill="#63b8ff" stroke="#63b8ff" points="723.12,-649.04 732.63,-644.37 722.29,-642.09 723.12,-649.04"/>
</a>
</g>
</g>
<!-- Node32&#45;&gt;Node17 -->
<g id="edge14_Node000032_Node000017" class="edge">
<title>Node32&#45;&gt;Node17</title>
<g id="a_edge14_Node000032_Node000017"><a xlink:title=" ">
<path fill="none" stroke="#63b8ff" d="M496.6,-506.6C512.8,-509.65 530.62,-513 547.55,-516.18"/>
<polygon fill="#63b8ff" stroke="#63b8ff" points="546.55,-519.55 557.03,-517.96 547.85,-512.67 546.55,-519.55"/>
</a>
</g>
</g>
<!-- Node33 -->
<g id="Node000033" class="node">
<title>Node33</title>
<g id="a_Node000033"><a xlink:href="kest__parameter__widget_8c.html#a5a6ebded10138ba55624e195ae4f4309" target="_top" xlink:title=" ">
<polygon fill="#fff0f0" stroke="red" points="669.25,-495.12 572.25,-495.12 572.25,-474.38 669.25,-474.38 669.25,-495.12"/>
<text xml:space="preserve" text-anchor="middle" x="620.75" y="-481.62" font-family="Helvetica,sans-Serif" font-size="10.00">edit_sw_field_cb</text>
</a>
</g>
</g>
<!-- Node32&#45;&gt;Node33 -->
<g id="edge12_Node000032_Node000033" class="edge">
<title>Node32&#45;&gt;Node33</title>
<g id="a_edge12_Node000032_Node000033"><a xlink:title=" ">
<path fill="none" stroke="#63b8ff" d="M507.26,-491.59C524.73,-490.53 543.38,-489.39 560.36,-488.36"/>
<polygon fill="#63b8ff" stroke="#63b8ff" points="560.54,-491.86 570.31,-487.76 560.11,-484.87 560.54,-491.86"/>
</a>
</g>
</g>
<!-- Node76 -->
<g id="Node000076" class="node">
<title>Node76</title>
<g id="a_Node000076"><a xlink:href="kest__parameter__widget_8c.html#afd6c5489cb7579ee98a57340a3abcb80" target="_top" xlink:title=" ">
<polygon fill="#fff0f0" stroke="red" points="693.25,-456.12 548.25,-456.12 548.25,-435.38 693.25,-435.38 693.25,-456.12"/>
<text xml:space="preserve" text-anchor="middle" x="620.75" y="-442.62" font-family="Helvetica,sans-Serif" font-size="10.00">setting_widget_change_cb</text>
</a>
</g>
</g>
<!-- Node32&#45;&gt;Node76 -->
<g id="edge13_Node000032_Node000076" class="edge">
<title>Node32&#45;&gt;Node76</title>
<g id="a_edge13_Node000032_Node000076"><a xlink:title=" ">
<path fill="none" stroke="#63b8ff" d="M475.43,-484.97C495.37,-479.15 520.5,-471.92 543,-465.75 550.58,-463.67 558.6,-461.52 566.48,-459.44"/>
<polygon fill="#63b8ff" stroke="#63b8ff" points="567.22,-462.87 576.01,-456.94 565.45,-456.1 567.22,-462.87"/>
</a>
</g>
</g>
<!-- Node80 -->
<g id="Node000080" class="node">
<title>Node80</title>
<g id="a_Node000080"><a xlink:href="kest__context_8c.html#a6292c7a2d7f0502ea5a59bbe9b552791" target="_top" xlink:title=" ">
<polygon fill="white" stroke="#666666" points="498,-98.5 377.75,-98.5 377.75,-65 498,-65 498,-98.5"/>
<text xml:space="preserve" text-anchor="start" x="385.75" y="-85" font-family="Helvetica,sans-Serif" font-size="10.00">kest_cxt_queue_save</text>
<text xml:space="preserve" text-anchor="middle" x="437.88" y="-72.25" font-family="Helvetica,sans-Serif" font-size="10.00">_state</text>
</a>
</g>
</g>
<!-- Node79&#45;&gt;Node80 -->
<g id="edge17_Node000079_Node000080" class="edge">
<title>Node79&#45;&gt;Node80</title>
<g id="a_edge17_Node000079_Node000080"><a xlink:title=" ">
<path fill="none" stroke="#63b8ff" d="M330.04,-93.19C341.91,-91.92 354.23,-90.6 366.1,-89.33"/>
<polygon fill="#63b8ff" stroke="#63b8ff" points="366.24,-92.83 375.81,-88.29 365.49,-85.87 366.24,-92.83"/>
</a>
</g>
</g>
<!-- Node81 -->
<g id="Node000081" class="node">
<title>Node81</title>
<g id="a_Node000081"><a xlink:href="kest__representation_8c.html#a7a4a0f32b72f47d90e3d0f5932fbe58f" target="_top" xlink:title=" ">
<polygon fill="white" stroke="#666666" points="682,-101.5 559.5,-101.5 559.5,-68 682,-68 682,-101.5"/>
<text xml:space="preserve" text-anchor="start" x="567.5" y="-88" font-family="Helvetica,sans-Serif" font-size="10.00">queue_representation</text>
<text xml:space="preserve" text-anchor="middle" x="620.75" y="-75.25" font-family="Helvetica,sans-Serif" font-size="10.00">_list_update</text>
</a>
</g>
</g>
<!-- Node80&#45;&gt;Node81 -->
<g id="edge18_Node000080_Node000081" class="edge">
<title>Node80&#45;&gt;Node81</title>
<g id="a_edge18_Node000080_Node000081"><a xlink:title=" ">
<path fill="none" stroke="#63b8ff" d="M498.35,-82.74C514.25,-83 531.59,-83.29 548.07,-83.56"/>
<polygon fill="#63b8ff" stroke="#63b8ff" points="547.74,-87.06 557.8,-83.72 547.86,-80.06 547.74,-87.06"/>
</a>
</g>
</g>
<!-- Node84 -->
<g id="Node000084" class="node">
<title>Node84</title>
<g id="a_Node000084"><a xlink:href="kest__effect_8c.html#a45969080cfeedba828e766c3fe6670ab" target="_top" xlink:title=" ">
<polygon fill="white" stroke="#666666" points="506.62,-227.12 369.12,-227.12 369.12,-206.38 506.62,-206.38 506.62,-227.12"/>
<text xml:space="preserve" text-anchor="middle" x="437.88" y="-213.62" font-family="Helvetica,sans-Serif" font-size="10.00">effect_rectify_param_ids</text>
</a>
</g>
</g>
<!-- Node83&#45;&gt;Node84 -->
<g id="edge21_Node000083_Node000084" class="edge">
<title>Node83&#45;&gt;Node84</title>
<g id="a_edge21_Node000083_Node000084"><a xlink:title=" ">
<path fill="none" stroke="#63b8ff" d="M315.54,-203.76C328.84,-205.19 343.28,-206.73 357.4,-208.24"/>
<polygon fill="#63b8ff" stroke="#63b8ff" points="356.81,-211.7 367.12,-209.28 357.55,-204.74 356.81,-211.7"/>
</a>
</g>
</g>
<!-- Node85 -->
<g id="Node000085" class="node">
<title>Node85</title>
<g id="a_Node000085"><a xlink:href="kest__pipeline_8c.html#a0eff55a4103a090993bbac228a981af6" target="_top" xlink:title=" ">
<polygon fill="white" stroke="#666666" points="498.75,-188.5 377,-188.5 377,-155 498.75,-155 498.75,-188.5"/>
<text xml:space="preserve" text-anchor="start" x="385" y="-175" font-family="Helvetica,sans-Serif" font-size="10.00">kest_pipeline_append</text>
<text xml:space="preserve" text-anchor="middle" x="437.88" y="-162.25" font-family="Helvetica,sans-Serif" font-size="10.00">_effect_eff</text>
</a>
</g>
</g>
<!-- Node83&#45;&gt;Node85 -->
<g id="edge22_Node000083_Node000085" class="edge">
<title>Node83&#45;&gt;Node85</title>
<g id="a_edge22_Node000083_Node000085"><a xlink:title=" ">
<path fill="none" stroke="#63b8ff" d="M315.54,-189.52C331.38,-187.2 348.83,-184.65 365.45,-182.21"/>
<polygon fill="#63b8ff" stroke="#63b8ff" points="365.9,-185.68 375.28,-180.77 364.88,-178.76 365.9,-185.68"/>
</a>
</g>
</g>
<!-- Node86 -->
<g id="Node000086" class="node">
<title>Node86</title>
<g id="a_Node000086"><a xlink:href="kest__effect_8c.html#a85b25e44e2629962673634f965ffe304" target="_top" xlink:title=" ">
<polygon fill="#fff0f0" stroke="red" points="698.5,-141.12 543,-141.12 543,-120.38 698.5,-120.38 698.5,-141.12"/>
<text xml:space="preserve" text-anchor="middle" x="620.75" y="-127.62" font-family="Helvetica,sans-Serif" font-size="10.00">init_effect_from_effect_desc</text>
</a>
</g>
</g>
<!-- Node85&#45;&gt;Node86 -->
<g id="edge23_Node000085_Node000086" class="edge">
<title>Node85&#45;&gt;Node86</title>
<g id="a_edge23_Node000085_Node000086"><a xlink:title=" ">
<path fill="none" stroke="#63b8ff" d="M499.1,-158.1C518.95,-153.6 541,-148.6 560.76,-144.12"/>
<polygon fill="#63b8ff" stroke="#63b8ff" points="561.32,-147.58 570.3,-141.96 559.78,-140.76 561.32,-147.58"/>
</a>
</g>
</g>
<!-- Node35 -->
<g id="Node000035" class="node">
<title>Node35</title>
<g id="a_Node000035"><a xlink:href="kest__alloc_8c.html#a849755c5dc5b35e712ffcdb602e50fb4" target="_top" xlink:title=" ">
<polygon fill="white" stroke="#666666" points="653.12,-180.12 588.38,-180.12 588.38,-159.38 653.12,-159.38 653.12,-180.12"/>
<text xml:space="preserve" text-anchor="middle" x="620.75" y="-166.62" font-family="Helvetica,sans-Serif" font-size="10.00">kest_alloc</text>
</a>
</g>
</g>
<!-- Node85&#45;&gt;Node35 -->
<g id="edge24_Node000085_Node000035" class="edge">
<title>Node85&#45;&gt;Node35</title>
<g id="a_edge24_Node000085_Node000035"><a xlink:title=" ">
<path fill="none" stroke="#63b8ff" d="M499.1,-171.08C524.51,-170.8 553.51,-170.48 576.71,-170.23"/>
<polygon fill="#63b8ff" stroke="#63b8ff" points="576.45,-173.73 586.42,-170.12 576.38,-166.73 576.45,-173.73"/>
</a>
</g>
</g>
<!-- Node112&#45;&gt;Node81 -->
<g id="edge27_Node000112_Node000081" class="edge">
<title>Node112&#45;&gt;Node81</title>
<g id="a_edge27_Node000112_Node000081"><a xlink:title=" ">
<path fill="none" stroke="#63b8ff" d="M314.58,-138.07C364.85,-130.89 441.06,-119.53 507,-107.75 520.29,-105.38 534.42,-102.65 548.02,-99.93"/>
<polygon fill="#63b8ff" stroke="#63b8ff" points="548.7,-103.36 557.81,-97.95 547.31,-96.5 548.7,-103.36"/>
</a>
</g>
</g>
<!-- Node113&#45;&gt;Node31 -->
<g id="edge38_Node000113_Node000031" class="edge">
<title>Node113&#45;&gt;Node31</title>
<g id="a_edge38_Node000113_Node000031"><a xlink:title=" ">
<path fill="none" stroke="#63b8ff" d="M285.19,-336.76C318.82,-358.93 377.3,-397.48 410.98,-419.68"/>
<polygon fill="#63b8ff" stroke="#63b8ff" points="409.04,-422.59 419.32,-425.18 412.89,-416.75 409.04,-422.59"/>
</a>
</g>
</g>
<!-- Node114 -->
<g id="Node000114" class="node">
<title>Node114</title>
<g id="a_Node000114"><a xlink:href="kest__button_8c.html#a760fe364ce4f5be2c972ff685e2f9825" target="_top" xlink:title=" ">
<polygon fill="white" stroke="#666666" points="494.62,-296.5 381.12,-296.5 381.12,-263 494.62,-263 494.62,-296.5"/>
<text xml:space="preserve" text-anchor="start" x="389.12" y="-283" font-family="Helvetica,sans-Serif" font-size="10.00">kest_active_button</text>
<text xml:space="preserve" text-anchor="middle" x="437.88" y="-270.25" font-family="Helvetica,sans-Serif" font-size="10.00">_array_append_new</text>
</a>
</g>
</g>
<!-- Node113&#45;&gt;Node114 -->
<g id="edge29_Node000113_Node000114" class="edge">
<title>Node113&#45;&gt;Node114</title>
<g id="a_edge29_Node000113_Node000114"><a xlink:title=" ">
<path fill="none" stroke="#63b8ff" d="M317.5,-306.65C334.17,-302.9 352.48,-298.77 369.65,-294.9"/>
<polygon fill="#63b8ff" stroke="#63b8ff" points="370.28,-298.35 379.26,-292.73 368.74,-291.52 370.28,-298.35"/>
</a>
</g>
</g>
<!-- Node155 -->
<g id="Node000155" class="node">
<title>Node155</title>
<g id="a_Node000155"><a xlink:href="kest__button_8c.html#a5fdea311fb351ff8f9d27116813f35a8" target="_top" xlink:title=" ">
<polygon fill="white" stroke="#666666" points="492,-376.5 383.75,-376.5 383.75,-343 492,-343 492,-376.5"/>
<text xml:space="preserve" text-anchor="start" x="391.75" y="-363" font-family="Helvetica,sans-Serif" font-size="10.00">kest_active_button</text>
<text xml:space="preserve" text-anchor="middle" x="437.88" y="-350.25" font-family="Helvetica,sans-Serif" font-size="10.00">_create_ui</text>
</a>
</g>
</g>
<!-- Node113&#45;&gt;Node155 -->
<g id="edge35_Node000113_Node000155" class="edge">
<title>Node113&#45;&gt;Node155</title>
<g id="a_edge35_Node000113_Node000155"><a xlink:title=" ">
<path fill="none" stroke="#63b8ff" d="M317.5,-332.85C335,-336.79 354.31,-341.14 372.2,-345.18"/>
<polygon fill="#63b8ff" stroke="#63b8ff" points="371.43,-348.59 381.95,-347.37 372.97,-341.76 371.43,-348.59"/>
</a>
</g>
</g>
<!-- Node114&#45;&gt;Node35 -->
<g id="edge33_Node000114_Node000035" class="edge">
<title>Node114&#45;&gt;Node35</title>
<g id="a_edge33_Node000114_Node000035"><a xlink:title=" ">
<path fill="none" stroke="#63b8ff" d="M470.34,-262.56C482.47,-255.16 496.03,-245.87 507,-235.75 526.34,-217.9 520.99,-203.17 543,-188.75 553.09,-182.14 565.31,-177.83 576.99,-175.02"/>
<polygon fill="#63b8ff" stroke="#63b8ff" points="577.38,-178.51 586.46,-173.06 575.96,-171.65 577.38,-178.51"/>
</a>
</g>
</g>
<!-- Node115 -->
<g id="Node000115" class="node">
<title>Node115</title>
<g id="a_Node000115"><a xlink:href="kest__button_8c.html#a209511305dd2db40751857097e1e82c1" target="_top" xlink:title=" ">
<polygon fill="#fff0f0" stroke="red" points="674.88,-231.5 566.62,-231.5 566.62,-198 674.88,-198 674.88,-231.5"/>
<text xml:space="preserve" text-anchor="start" x="574.62" y="-218" font-family="Helvetica,sans-Serif" font-size="10.00">kest_active_button</text>
<text xml:space="preserve" text-anchor="middle" x="620.75" y="-205.25" font-family="Helvetica,sans-Serif" font-size="10.00">_add_del_button</text>
</a>
</g>
</g>
<!-- Node114&#45;&gt;Node115 -->
<g id="edge30_Node000114_Node000115" class="edge">
<title>Node114&#45;&gt;Node115</title>
<g id="a_edge30_Node000114_Node000115"><a xlink:title=" ">
<path fill="none" stroke="#63b8ff" d="M483.86,-262.54C502.16,-255.64 523.54,-247.69 543,-240.75 547.75,-239.06 552.67,-237.33 557.63,-235.61"/>
<polygon fill="#63b8ff" stroke="#63b8ff" points="558.73,-238.93 567.05,-232.36 556.45,-232.31 558.73,-238.93"/>
</a>
</g>
</g>
<!-- Node137 -->
<g id="Node000137" class="node">
<title>Node137</title>
<g id="a_Node000137"><a xlink:href="kest__button_8c.html#a591c84573c4b4dfefa4c6b1445fc290e" target="_top" xlink:title=" ">
<polygon fill="#fff0f0" stroke="red" points="674.88,-360.5 566.62,-360.5 566.62,-327 674.88,-327 674.88,-360.5"/>
<text xml:space="preserve" text-anchor="start" x="574.62" y="-347" font-family="Helvetica,sans-Serif" font-size="10.00">kest_active_button</text>
<text xml:space="preserve" text-anchor="middle" x="620.75" y="-334.25" font-family="Helvetica,sans-Serif" font-size="10.00">_array_append</text>
</a>
</g>
</g>
<!-- Node114&#45;&gt;Node137 -->
<g id="edge31_Node000114_Node000137" class="edge">
<title>Node114&#45;&gt;Node137</title>
<g id="a_edge31_Node000114_Node000137"><a xlink:title=" ">
<path fill="none" stroke="#63b8ff" d="M485.18,-296.91C503.2,-303.52 524.03,-311.08 543,-317.75 547.76,-319.42 552.69,-321.14 557.65,-322.85"/>
<polygon fill="#63b8ff" stroke="#63b8ff" points="556.47,-326.15 567.07,-326.08 558.75,-319.53 556.47,-326.15"/>
</a>
</g>
</g>
<!-- Node138 -->
<g id="Node000138" class="node">
<title>Node138</title>
<g id="a_Node000138"><a xlink:href="kest__button_8c.html#a9cc8b0c8114bbffc12e858af8589ff86" target="_top" xlink:title=" ">
<polygon fill="#fff0f0" stroke="red" points="685.38,-309.12 556.12,-309.12 556.12,-288.38 685.38,-288.38 685.38,-309.12"/>
<text xml:space="preserve" text-anchor="middle" x="620.75" y="-295.62" font-family="Helvetica,sans-Serif" font-size="10.00">kest_active_button_init</text>
</a>
</g>
</g>
<!-- Node114&#45;&gt;Node138 -->
<g id="edge32_Node000114_Node000138" class="edge">
<title>Node114&#45;&gt;Node138</title>
<g id="a_edge32_Node000114_Node000138"><a xlink:title=" ">
<path fill="none" stroke="#63b8ff" d="M495.11,-285.66C510.7,-287.3 527.88,-289.1 544.37,-290.83"/>
<polygon fill="#63b8ff" stroke="#63b8ff" points="543.83,-294.29 554.14,-291.86 544.56,-287.33 543.83,-294.29"/>
</a>
</g>
</g>
<!-- Node40 -->
<g id="Node000040" class="node">
<title>Node40</title>
<g id="a_Node000040"><a xlink:href="kest__alloc_8c.html#a294af5728a94aa316fcf65304d388d48" target="_top" xlink:title=" ">
<polygon fill="white" stroke="#666666" points="651.25,-270.12 590.25,-270.12 590.25,-249.38 651.25,-249.38 651.25,-270.12"/>
<text xml:space="preserve" text-anchor="middle" x="620.75" y="-256.62" font-family="Helvetica,sans-Serif" font-size="10.00">kest_free</text>
</a>
</g>
</g>
<!-- Node114&#45;&gt;Node40 -->
<g id="edge34_Node000114_Node000040" class="edge">
<title>Node114&#45;&gt;Node40</title>
<g id="a_edge34_Node000114_Node000040"><a xlink:title=" ">
<path fill="none" stroke="#63b8ff" d="M495.11,-273.53C522.15,-270.54 553.97,-267.02 578.69,-264.29"/>
<polygon fill="#63b8ff" stroke="#63b8ff" points="578.79,-267.8 588.35,-263.22 578.03,-260.84 578.79,-267.8"/>
</a>
</g>
</g>
<!-- Node21 -->
<g id="Node000021" class="node">
<title>Node21</title>
<g id="a_Node000021"><a xlink:href="kest__button_8c.html#a42c4bb920da57000dbde4fa1fa26868c" target="_top" xlink:title=" ">
<polygon fill="white" stroke="#666666" points="669.62,-399.12 571.88,-399.12 571.88,-378.38 669.62,-378.38 669.62,-399.12"/>
<text xml:space="preserve" text-anchor="middle" x="620.75" y="-385.62" font-family="Helvetica,sans-Serif" font-size="10.00">create_button_ui</text>
</a>
</g>
</g>
<!-- Node155&#45;&gt;Node21 -->
<g id="edge36_Node000155_Node000021" class="edge">
<title>Node155&#45;&gt;Node21</title>
<g id="a_edge36_Node000155_Node000021"><a xlink:title=" ">
<path fill="none" stroke="#63b8ff" d="M492.17,-368.29C513.55,-371.72 538.29,-375.69 560.26,-379.21"/>
<polygon fill="#63b8ff" stroke="#63b8ff" points="559.54,-382.64 569.97,-380.77 560.65,-375.73 559.54,-382.64"/>
</a>
</g>
</g>
<!-- Node21&#45;&gt;Node21 -->
<g id="edge37_Node000021_Node000021" class="edge">
<title>Node21&#45;&gt;Node21</title>
<g id="a_edge37_Node000021_Node000021"><a xlink:title=" ">
<path fill="none" stroke="#63b8ff" d="M591.28,-399.52C579.5,-408.18 589.32,-417.12 620.75,-417.12 637.94,-417.12 648.67,-414.45 652.93,-410.61"/>
<polygon fill="#63b8ff" stroke="#63b8ff" points="656.35,-409.87 650.58,-400.99 649.55,-411.54 656.35,-409.87"/>
</a>
</g>
</g>
</g>
</svg>
