<?xml version="1.0" encoding="UTF-8" standalone="no"?>
<!DOCTYPE svg PUBLIC "-//W3C//DTD SVG 1.1//EN"
 "http://www.w3.org/Graphics/SVG/1.1/DTD/svg11.dtd">
<!-- Generated by graphviz version 13.1.2 (20250808.2320)
 -->
<!-- Title: kest_pipeline_remove_effect Pages: 1 -->
<!--zoomable 308 -->

<svg id="main" version="1.1" xmlns="http://www.w3.org/2000/svg" xmlns:xlink="http://www.w3.org/1999/xlink" xml:space="preserve" onload="init(evt)">

<style type="text/css"><![CDATA[
.node, .edge {opacity: 0.7;}
.node.selected, .edge.selected {opacity: 1;}
.edge:hover path { stroke: red; }
.edge:hover polygon { stroke: red; fill: red; }
]]></style>

<defs>
  <circle id="rim" cx="0" cy="0" r="7"/>
  <circle id="rim2" cx="0" cy="0" r="3.5"/>
  <g id="zoomPlus">
    <use xlink:href="#rim" fill="#404040"><set attributeName="fill" to="#808080" begin="zoomplus.mouseover" end="zoomplus.mouseout"/></use>
    <path d="M-4,0h8M0,-4v8" fill="none" stroke="white" stroke-width="1.5" pointer-events="none"/>
  </g>
  <g id="zoomMin">
    <use xlink:href="#rim" fill="#404040"><set attributeName="fill" to="#808080" begin="zoomminus.mouseover" end="zoomminus.mouseout"/></use>
    <path d="M-4,0h8" fill="none" stroke="white" stroke-width="1.5" pointer-events="none"/>
  </g>
  <g id="arrowUp" transform="translate(30 24)">
    <use xlink:href="#rim"/>
    <path pointer-events="none" fill="none" stroke="white" stroke-width="1.5" d="M0,-3.0v7 M-2.5,-0.5L0,-3.0L2.5,-0.5"/>
  </g>
  <g id="arrowRight" transform="rotate(90) translate(36 -43)">
    <use xlink:href="#rim"/>
    <path pointer-events="none" fill="none" stroke="white" stroke-width="1.5" d="M0,-3.0v7 M-2.5,-0.5L0,-3.0L2.5,-0.5"/>
  </g>
  <g id="arrowDown" transform="rotate(180) translate(-30 -48)">
    <use xlink:href="#rim"/>
    <path pointer-events="none" fill="none" stroke="white" stroke-width="1.5" d="M0,-3.0v7 M-2.5,-0.5L0,-3.0L2.5,-0.5"/>
  </g>
  <g id="arrowLeft" transform="rotate(270) translate(-36 17)">
    <use xlink:href="#rim"/>
    <path pointer-events="none" fill="none" stroke="white" stroke-width="1.5" d="M0,-3.0v7 M-2.5,-0.5L0,-3.0L2.5,-0.5"/>
  </g>
  <g id="resetDef">
    <use xlink:href="#rim2" fill="#404040"><set attributeName="fill" to="#808080" begin="reset.mouseover" end="reset.mouseout"/></use>
  </g>
</defs>
<script type="application/ecmascript">
var viewWidth = 653;
var viewHeight = 308;
var sectionId = 'dynsection-11';
</script>
<script type="application/ecmascript" xlink:href="svg.min.js"/>
<svg id="graph" class="graph">
<g id="viewport">
<title>kest_pipeline_remove_effect</title>
<!-- Node1 -->
<g id="Node000001" class="node">
<title>Node1</title>
<g id="a_Node000001"><a xlink:title=" ">
<polygon fill="#999999" stroke="#666666" points="123.25,-97.67 0,-97.67 0,-64.17 123.25,-64.17 123.25,-97.67"/>
<text xml:space="preserve" text-anchor="start" x="8" y="-84.17" font-family="Helvetica,sans-Serif" font-size="10.00">kest_pipeline_remove</text>
<text xml:space="preserve" text-anchor="middle" x="61.62" y="-71.42" font-family="Helvetica,sans-Serif" font-size="10.00">_effect</text>
</a>
</g>
</g>
<!-- Node2 -->
<g id="Node000002" class="node">
<title>Node2</title>
<g id="a_Node000002"><a xlink:href="kest__effect_8c.html#a09f04708e6ffd20ecaba2c10460cb1eb" target="_top" xlink:title=" ">
<polygon fill="white" stroke="#666666" points="228.5,-167.29 159.25,-167.29 159.25,-146.54 228.5,-146.54 228.5,-167.29"/>
<text xml:space="preserve" text-anchor="middle" x="193.88" y="-153.79" font-family="Helvetica,sans-Serif" font-size="10.00">free_effect</text>
</a>
</g>
</g>
<!-- Node1&#45;&gt;Node2 -->
<g id="edge1_Node000001_Node000002" class="edge">
<title>Node1&#45;&gt;Node2</title>
<g id="a_edge1_Node000001_Node000002"><a xlink:title=" ">
<path fill="none" stroke="#63b8ff" d="M92.18,-98.16C113.85,-110.81 143.11,-127.88 164.5,-140.36"/>
<polygon fill="#63b8ff" stroke="#63b8ff" points="162.59,-143.3 172.99,-145.31 166.12,-137.25 162.59,-143.3"/>
</a>
</g>
</g>
<!-- Node5 -->
<g id="Node000005" class="node">
<title>Node5</title>
<g id="a_Node000005"><a xlink:href="kest__alloc_8c.html#a294af5728a94aa316fcf65304d388d48" target="_top" xlink:title=" ">
<polygon fill="white" stroke="#666666" points="644.75,-186.29 583.75,-186.29 583.75,-165.54 644.75,-165.54 644.75,-186.29"/>
<text xml:space="preserve" text-anchor="middle" x="614.25" y="-172.79" font-family="Helvetica,sans-Serif" font-size="10.00">kest_free</text>
</a>
</g>
</g>
<!-- Node1&#45;&gt;Node5 -->
<g id="edge14_Node000001_Node000005" class="edge">
<title>Node1&#45;&gt;Node5</title>
<g id="a_edge14_Node000001_Node000005"><a xlink:title=" ">
<path fill="none" stroke="#63b8ff" d="M100.86,-63.71C187.81,-27.43 403.93,46.57 547.75,-42.92 586.93,-67.3 603.36,-122.77 609.69,-153.82"/>
<polygon fill="#63b8ff" stroke="#63b8ff" points="606.24,-154.42 611.49,-163.63 613.12,-153.16 606.24,-154.42"/>
</a>
</g>
</g>
<!-- Node3 -->
<g id="Node000003" class="node">
<title>Node3</title>
<g id="a_Node000003"><a xlink:href="kest__effect__view_8c.html#ac64b0341f8283e6aabdd27c42e9a55b0" target="_top" xlink:title=" ">
<polygon fill="white" stroke="#666666" points="372,-262.29 274.25,-262.29 274.25,-241.54 372,-241.54 372,-262.29"/>
<text xml:space="preserve" text-anchor="middle" x="323.12" y="-248.79" font-family="Helvetica,sans-Serif" font-size="10.00">free_effect_view</text>
</a>
</g>
</g>
<!-- Node2&#45;&gt;Node3 -->
<g id="edge2_Node000002_Node000003" class="edge">
<title>Node2&#45;&gt;Node3</title>
<g id="a_edge2_Node000002_Node000003"><a xlink:title=" ">
<path fill="none" stroke="#63b8ff" d="M203.04,-167.62C215.06,-182.79 238.91,-210.6 264.5,-227.92 269.2,-231.1 274.4,-233.98 279.68,-236.56"/>
<polygon fill="#63b8ff" stroke="#63b8ff" points="277.92,-239.6 288.47,-240.51 280.78,-233.22 277.92,-239.6"/>
</a>
</g>
</g>
<!-- Node2&#45;&gt;Node5 -->
<g id="edge6_Node000002_Node000005" class="edge">
<title>Node2&#45;&gt;Node5</title>
<g id="a_edge6_Node000002_Node000005"><a xlink:title=" ">
<path fill="none" stroke="#63b8ff" d="M228.54,-167.76C239.85,-170.96 252.61,-174.09 264.5,-175.92 388.95,-195.08 421.96,-187.67 547.75,-181.92 555.57,-181.56 563.89,-180.96 571.9,-180.28"/>
<polygon fill="#63b8ff" stroke="#63b8ff" points="572.14,-183.77 581.78,-179.38 571.51,-176.8 572.14,-183.77"/>
</a>
</g>
</g>
<!-- Node6 -->
<g id="Node000006" class="node">
<title>Node6</title>
<g id="a_Node000006"><a xlink:href="kest__parameter_8c.html#a8232528422c7dd2a19b2f3cc4c1a25c0" target="_top" xlink:title=" ">
<polygon fill="white" stroke="#666666" points="381.75,-167.29 264.5,-167.29 264.5,-146.54 381.75,-146.54 381.75,-167.29"/>
<text xml:space="preserve" text-anchor="middle" x="323.12" y="-153.79" font-family="Helvetica,sans-Serif" font-size="10.00">kest_parameter_free</text>
</a>
</g>
</g>
<!-- Node2&#45;&gt;Node6 -->
<g id="edge7_Node000002_Node000006" class="edge">
<title>Node2&#45;&gt;Node6</title>
<g id="a_edge7_Node000002_Node000006"><a xlink:title=" ">
<path fill="none" stroke="#63b8ff" d="M228.98,-156.92C236.47,-156.92 244.66,-156.92 252.98,-156.92"/>
<polygon fill="#63b8ff" stroke="#63b8ff" points="252.83,-160.42 262.83,-156.92 252.83,-153.42 252.83,-160.42"/>
</a>
</g>
</g>
<!-- Node8 -->
<g id="Node000008" class="node">
<title>Node8</title>
<g id="a_Node000008"><a xlink:href="kest__parameter_8c.html#a6426ab9815dd11cad99a9dd9283423b0" target="_top" xlink:title=" ">
<polygon fill="white" stroke="#666666" points="373.12,-110.29 273.12,-110.29 273.12,-89.54 373.12,-89.54 373.12,-110.29"/>
<text xml:space="preserve" text-anchor="middle" x="323.12" y="-96.79" font-family="Helvetica,sans-Serif" font-size="10.00">kest_setting_free</text>
</a>
</g>
</g>
<!-- Node2&#45;&gt;Node8 -->
<g id="edge10_Node000002_Node000008" class="edge">
<title>Node2&#45;&gt;Node8</title>
<g id="a_edge10_Node000002_Node000008"><a xlink:title=" ">
<path fill="none" stroke="#63b8ff" d="M219.11,-146.06C238.48,-137.38 265.88,-125.11 287.55,-115.4"/>
<polygon fill="#63b8ff" stroke="#63b8ff" points="288.9,-118.63 296.6,-111.35 286.04,-112.24 288.9,-118.63"/>
</a>
</g>
</g>
<!-- Node4 -->
<g id="Node000004" class="node">
<title>Node4</title>
<g id="a_Node000004"><a xlink:href="kest__parameter__widget_8c.html#ac18cc7427373a289f2677b33112e4851" target="_top" xlink:title=" ">
<polygon fill="white" stroke="#666666" points="547.75,-300.29 417.75,-300.29 417.75,-279.54 547.75,-279.54 547.75,-300.29"/>
<text xml:space="preserve" text-anchor="middle" x="482.75" y="-286.79" font-family="Helvetica,sans-Serif" font-size="10.00">free_parameter_widget</text>
</a>
</g>
</g>
<!-- Node3&#45;&gt;Node4 -->
<g id="edge3_Node000003_Node000004" class="edge">
<title>Node3&#45;&gt;Node4</title>
<g id="a_edge3_Node000003_Node000004"><a xlink:title=" ">
<path fill="none" stroke="#63b8ff" d="M368.87,-262.7C386.59,-266.98 407.16,-271.93 425.84,-276.44"/>
<polygon fill="#63b8ff" stroke="#63b8ff" points="424.88,-279.81 435.42,-278.75 426.52,-273 424.88,-279.81"/>
</a>
</g>
</g>
<!-- Node3&#45;&gt;Node5 -->
<g id="edge5_Node000003_Node000005" class="edge">
<title>Node3&#45;&gt;Node5</title>
<g id="a_edge5_Node000003_Node000005"><a xlink:title=" ">
<path fill="none" stroke="#63b8ff" d="M372.25,-254.34C418.86,-254.97 490.66,-251.31 547.75,-227.92 566.13,-220.38 583.57,-206.05 595.83,-194.34"/>
<polygon fill="#63b8ff" stroke="#63b8ff" points="598.1,-197.02 602.7,-187.48 593.15,-192.06 598.1,-197.02"/>
</a>
</g>
</g>
<!-- Node4&#45;&gt;Node5 -->
<g id="edge4_Node000004_Node000005" class="edge">
<title>Node4&#45;&gt;Node5</title>
<g id="a_edge4_Node000004_Node000005"><a xlink:title=" ">
<path fill="none" stroke="#63b8ff" d="M523.53,-279.1C532.01,-275.71 540.57,-271.38 547.75,-265.92 572.28,-247.26 591.66,-216.92 602.8,-196.7"/>
<polygon fill="#63b8ff" stroke="#63b8ff" points="605.83,-198.45 607.41,-187.98 599.64,-195.18 605.83,-198.45"/>
</a>
</g>
</g>
<!-- Node6&#45;&gt;Node5 -->
<g id="edge9_Node000006_Node000005" class="edge">
<title>Node6&#45;&gt;Node5</title>
<g id="a_edge9_Node000006_Node000005"><a xlink:title=" ">
<path fill="none" stroke="#63b8ff" d="M381.94,-160.72C438.23,-164.41 522.38,-169.94 572.15,-173.22"/>
<polygon fill="#63b8ff" stroke="#63b8ff" points="571.71,-176.69 581.92,-173.86 572.17,-169.71 571.71,-176.69"/>
</a>
</g>
</g>
<!-- Node7 -->
<g id="Node000007" class="node">
<title>Node7</title>
<g id="a_Node000007"><a xlink:href="kest__parameter_8c.html#aba1de2a97c113a2fc9e06799c71dd5b5" target="_top" xlink:title=" ">
<polygon fill="white" stroke="#666666" points="526.75,-148.29 438.75,-148.29 438.75,-127.54 526.75,-127.54 526.75,-148.29"/>
<text xml:space="preserve" text-anchor="middle" x="482.75" y="-134.79" font-family="Helvetica,sans-Serif" font-size="10.00">gut_parameter</text>
</a>
</g>
</g>
<!-- Node6&#45;&gt;Node7 -->
<g id="edge8_Node000006_Node000007" class="edge">
<title>Node6&#45;&gt;Node7</title>
<g id="a_edge8_Node000006_Node000007"><a xlink:title=" ">
<path fill="none" stroke="#63b8ff" d="M381.92,-149.95C396.62,-148.18 412.37,-146.28 426.92,-144.53"/>
<polygon fill="#63b8ff" stroke="#63b8ff" points="427.27,-148.01 436.78,-143.34 426.43,-141.06 427.27,-148.01"/>
</a>
</g>
</g>
<!-- Node8&#45;&gt;Node5 -->
<g id="edge13_Node000008_Node000005" class="edge">
<title>Node8&#45;&gt;Node5</title>
<g id="a_edge13_Node000008_Node000005"><a xlink:title=" ">
<path fill="none" stroke="#63b8ff" d="M373.31,-95.54C420.07,-93.33 491.42,-95.07 547.75,-118.92 567.38,-127.22 585.3,-143.74 597.42,-156.86"/>
<polygon fill="#63b8ff" stroke="#63b8ff" points="594.59,-158.95 603.83,-164.13 599.84,-154.32 594.59,-158.95"/>
</a>
</g>
</g>
<!-- Node9 -->
<g id="Node000009" class="node">
<title>Node9</title>
<g id="a_Node000009"><a xlink:href="kest__parameter_8c.html#a5c2bab51c10fbcb32e9e050d246b0880" target="_top" xlink:title=" ">
<polygon fill="white" stroke="#666666" points="518.12,-72.29 447.38,-72.29 447.38,-51.54 518.12,-51.54 518.12,-72.29"/>
<text xml:space="preserve" text-anchor="middle" x="482.75" y="-58.79" font-family="Helvetica,sans-Serif" font-size="10.00">gut_setting</text>
</a>
</g>
</g>
<!-- Node8&#45;&gt;Node9 -->
<g id="edge11_Node000008_Node000009" class="edge">
<title>Node8&#45;&gt;Node9</title>
<g id="a_edge11_Node000008_Node000009"><a xlink:title=" ">
<path fill="none" stroke="#63b8ff" d="M368.87,-89.13C389.86,-84.07 414.83,-78.05 435.95,-72.96"/>
<polygon fill="#63b8ff" stroke="#63b8ff" points="436.54,-76.42 445.44,-70.67 434.9,-69.61 436.54,-76.42"/>
</a>
</g>
</g>
<!-- Node9&#45;&gt;Node5 -->
<g id="edge12_Node000009_Node000005" class="edge">
<title>Node9&#45;&gt;Node5</title>
<g id="a_edge12_Node000009_Node000005"><a xlink:title=" ">
<path fill="none" stroke="#63b8ff" d="M518.53,-70.83C528.58,-74.46 539.15,-79.38 547.75,-85.92 572.28,-104.57 591.66,-134.91 602.8,-155.13"/>
<polygon fill="#63b8ff" stroke="#63b8ff" points="599.64,-156.65 607.41,-163.85 605.83,-153.38 599.64,-156.65"/>
</a>
</g>
</g>
</g>
</svg>

<g id="navigator" transform="translate(0 0)" fill="#404254">
  <rect fill="#f2f5e9" fill-opacity="0.5" stroke="#606060" stroke-width=".5" x="0" y="0" width="60" height="60"/>
  <use id="zoomplus" xlink:href="#zoomPlus" x="17" y="9" onmousedown="handleZoom(evt,'in')"/>
  <use id="zoomminus" xlink:href="#zoomMin" x="42" y="9" onmousedown="handleZoom(evt,'out')"/>
  <use id="reset" xlink:href="#resetDef" x="30" y="36" onmousedown="handleReset()"/>
   <use id="arrowup" xlink:href="#arrowUp" x="0" y="0" onmousedown="handlePan(0,-1)"/>
  <use id="arrowright" xlink:href="#arrowRight" x="0" y="0" onmousedown="handlePan(1,0)"/>
  <use id="arrowdown" xlink:href="#arrowDown" x="0" y="0" onmousedown="handlePan(0,1)"/>
  <use id="arrowleft" xlink:href="#arrowLeft" x="0" y="0" onmousedown="handlePan(-1,0)"/>
</g>
<svg viewBox="0 0 15 15" width="100%" height="30px" preserveAspectRatio="xMaxYMin meet">
 <g id="arrow_out" transform="scale(0.3 0.3)">
  <a xlink:href="kest__pipeline_8h_a73cdb3a338dc34668b63859d87ba81b9_cgraph_org.svg" target="_base">
   <rect id="button" ry="5" rx="5" y="6" x="6" height="38" width="38"
        fill="#f2f5e9" fill-opacity="0.5" stroke="#606060" stroke-width="1.0"/>
   <path id="arrow"
     d="M 11.500037,31.436501 C 11.940474,20.09759 22.043105,11.32322 32.158766,21.979434 L 37.068811,17.246167 C 37.068811,17.246167 37.088388,32 37.088388,32 L 22.160133,31.978069 C 22.160133,31.978069 26.997745,27.140456 26.997745,27.140456 C 18.528582,18.264221 13.291696,25.230495 11.500037,31.436501 z"
     style="fill:#404040;"/>
  </a>
 </g>
</svg>

<style type='text/css'>
<![CDATA[
[data-mouse-over-selected='false'] { opacity: 0.7; }
[data-mouse-over-selected='true']  { opacity: 1.0; }
]]>
</style>
<script type="application/ecmascript"><![CDATA[
document.addEventListener('DOMContentLoaded', (event) => {
  highlightEdges();
  highlightAdjacentNodes();
});
]]></script>
</svg>
