<?xml version="1.0" encoding="UTF-8" standalone="no"?>
<!DOCTYPE svg PUBLIC "-//W3C//DTD SVG 1.1//EN"
 "http://www.w3.org/Graphics/SVG/1.1/DTD/svg11.dtd">
<!-- Generated by graphviz version 13.1.2 (20250808.2320)
 -->
<!-- Title: kest_fpga_batch_print Pages: 1 -->
<svg width="676pt" height="177pt"
 viewBox="0.00 0.00 676.00 177.00" xmlns="http://www.w3.org/2000/svg" xmlns:xlink="http://www.w3.org/1999/xlink">
<g id="graph0" class="graph" transform="scale(1 1) rotate(0) translate(4 172.75)">
<title>kest_fpga_batch_print</title>
<!-- Node1 -->
<g id="Node000001" class="node">
<title>Node1</title>
<g id="a_Node000001"><a xlink:title=" ">
<polygon fill="#999999" stroke="#666666" points="123.25,-106.75 0,-106.75 0,-86 123.25,-86 123.25,-106.75"/>
<text xml:space="preserve" text-anchor="middle" x="61.62" y="-93.25" font-family="Helvetica,sans-Serif" font-size="10.00">kest_fpga_batch_print</text>
</a>
</g>
</g>
<!-- Node2 -->
<g id="Node000002" class="node">
<title>Node2</title>
<g id="a_Node000002"><a xlink:href="kest__hfunc_8c.html#a3e848609eabc8d2389b0a9f4517a0a13" target="_top" xlink:title=" ">
<polygon fill="white" stroke="#666666" points="272.75,-168.75 181,-168.75 181,-148 272.75,-148 272.75,-168.75"/>
<text xml:space="preserve" text-anchor="middle" x="226.88" y="-155.25" font-family="Helvetica,sans-Serif" font-size="10.00">binary_print_16</text>
</a>
</g>
</g>
<!-- Node1&#45;&gt;Node2 -->
<g id="edge1_Node000001_Node000002" class="edge">
<title>Node1&#45;&gt;Node2</title>
<g id="a_edge1_Node000001_Node000002"><a xlink:title=" ">
<path fill="none" stroke="#63b8ff" d="M85.35,-107.16C104.74,-116.15 133.48,-128.95 159.25,-138.38 164.64,-140.35 170.33,-142.28 176.01,-144.11"/>
<polygon fill="#63b8ff" stroke="#63b8ff" points="174.83,-147.41 185.42,-147.06 176.92,-140.73 174.83,-147.41"/>
</a>
</g>
</g>
<!-- Node4 -->
<g id="Node000004" class="node">
<title>Node4</title>
<g id="a_Node000004"><a xlink:href="kest__hfunc_8c.html#ad1ec0738e9eb4d206d93d895c18185fb" target="_top" xlink:title=" ">
<polygon fill="white" stroke="#666666" points="272.75,-129.75 181,-129.75 181,-109 272.75,-109 272.75,-129.75"/>
<text xml:space="preserve" text-anchor="middle" x="226.88" y="-116.25" font-family="Helvetica,sans-Serif" font-size="10.00">binary_print_24</text>
</a>
</g>
</g>
<!-- Node1&#45;&gt;Node4 -->
<g id="edge3_Node000001_Node000004" class="edge">
<title>Node1&#45;&gt;Node4</title>
<g id="a_edge3_Node000001_Node000004"><a xlink:title=" ">
<path fill="none" stroke="#63b8ff" d="M123.41,-104.94C138.51,-107.07 154.63,-109.34 169.5,-111.43"/>
<polygon fill="#63b8ff" stroke="#63b8ff" points="168.71,-114.86 179.1,-112.79 169.69,-107.92 168.71,-114.86"/>
</a>
</g>
</g>
<!-- Node5 -->
<g id="Node000005" class="node">
<title>Node5</title>
<g id="a_Node000005"><a xlink:href="kest__fpga__encoding_8c.html#a8357836213e2592c0f36f83c83b1dcbd" target="_top" xlink:title=" ">
<polygon fill="white" stroke="#666666" points="294.5,-91.12 159.25,-91.12 159.25,-57.62 294.5,-57.62 294.5,-91.12"/>
<text xml:space="preserve" text-anchor="start" x="167.25" y="-77.62" font-family="Helvetica,sans-Serif" font-size="10.00">kest_fpga_block_opcode</text>
<text xml:space="preserve" text-anchor="middle" x="226.88" y="-64.88" font-family="Helvetica,sans-Serif" font-size="10.00">_format</text>
</a>
</g>
</g>
<!-- Node1&#45;&gt;Node5 -->
<g id="edge5_Node000001_Node000005" class="edge">
<title>Node1&#45;&gt;Node5</title>
<g id="a_edge5_Node000001_Node000005"><a xlink:title=" ">
<path fill="none" stroke="#63b8ff" d="M123.41,-88.18C131.39,-87.11 139.65,-85.99 147.87,-84.89"/>
<polygon fill="#63b8ff" stroke="#63b8ff" points="148.06,-88.39 157.5,-83.59 147.13,-81.46 148.06,-88.39"/>
</a>
</g>
</g>
<!-- Node6 -->
<g id="Node000006" class="node">
<title>Node6</title>
<g id="a_Node000006"><a xlink:href="kest__fpga__encoding_8c.html#a9f3d76916b565e27599aebdb6c624499" target="_top" xlink:title=" ">
<polygon fill="white" stroke="#666666" points="274.62,-39.75 179.12,-39.75 179.12,-19 274.62,-19 274.62,-39.75"/>
<text xml:space="preserve" text-anchor="middle" x="226.88" y="-26.25" font-family="Helvetica,sans-Serif" font-size="10.00">print_instruction</text>
</a>
</g>
</g>
<!-- Node1&#45;&gt;Node6 -->
<g id="edge6_Node000001_Node000006" class="edge">
<title>Node1&#45;&gt;Node6</title>
<g id="a_edge6_Node000001_Node000006"><a xlink:title=" ">
<path fill="none" stroke="#63b8ff" d="M81.77,-85.56C100.93,-75.04 131.48,-59.13 159.25,-48.38 163.6,-46.69 168.17,-45.08 172.78,-43.56"/>
<polygon fill="#63b8ff" stroke="#63b8ff" points="173.61,-46.97 182.11,-40.63 171.52,-40.29 173.61,-46.97"/>
</a>
</g>
</g>
<!-- Node3 -->
<g id="Node000003" class="node">
<title>Node3</title>
<g id="a_Node000003"><a xlink:href="kest__hfunc_8c.html#af8699cf7affbc403aa0e90ab78311cfe" target="_top" xlink:title=" ">
<polygon fill="white" stroke="#666666" points="445.88,-148.75 360.12,-148.75 360.12,-128 445.88,-128 445.88,-148.75"/>
<text xml:space="preserve" text-anchor="middle" x="403" y="-135.25" font-family="Helvetica,sans-Serif" font-size="10.00">binary_print_n</text>
</a>
</g>
</g>
<!-- Node2&#45;&gt;Node3 -->
<g id="edge2_Node000002_Node000003" class="edge">
<title>Node2&#45;&gt;Node3</title>
<g id="a_edge2_Node000002_Node000003"><a xlink:title=" ">
<path fill="none" stroke="#63b8ff" d="M273.17,-153.17C296.31,-150.51 324.61,-147.26 348.78,-144.49"/>
<polygon fill="#63b8ff" stroke="#63b8ff" points="348.88,-148 358.42,-143.38 348.08,-141.05 348.88,-148"/>
</a>
</g>
</g>
<!-- Node4&#45;&gt;Node3 -->
<g id="edge4_Node000004_Node000003" class="edge">
<title>Node4&#45;&gt;Node3</title>
<g id="a_edge4_Node000004_Node000003"><a xlink:title=" ">
<path fill="none" stroke="#63b8ff" d="M273.17,-124.32C296.31,-126.84 324.61,-129.93 348.78,-132.57"/>
<polygon fill="#63b8ff" stroke="#63b8ff" points="348.1,-136.01 358.42,-133.62 348.85,-129.06 348.1,-136.01"/>
</a>
</g>
</g>
<!-- Node7 -->
<g id="Node000007" class="node">
<title>Node7</title>
<g id="a_Node000007"><a xlink:href="kest__fpga__encoding_8c.html#a7ca2a1fbddc5d291e6f3196e060cd163" target="_top" xlink:title=" ">
<polygon fill="white" stroke="#666666" points="475.5,-59.75 330.5,-59.75 330.5,-39 475.5,-39 475.5,-59.75"/>
<text xml:space="preserve" text-anchor="middle" x="403" y="-46.25" font-family="Helvetica,sans-Serif" font-size="10.00">print_instruction_format_a</text>
</a>
</g>
</g>
<!-- Node6&#45;&gt;Node7 -->
<g id="edge7_Node000006_Node000007" class="edge">
<title>Node6&#45;&gt;Node7</title>
<g id="a_edge7_Node000006_Node000007"><a xlink:title=" ">
<path fill="none" stroke="#63b8ff" d="M275,-34.79C288.69,-36.36 304.07,-38.13 319.28,-39.87"/>
<polygon fill="#63b8ff" stroke="#63b8ff" points="318.45,-43.3 328.79,-40.97 319.25,-36.35 318.45,-43.3"/>
</a>
</g>
</g>
<!-- Node9 -->
<g id="Node000009" class="node">
<title>Node9</title>
<g id="a_Node000009"><a xlink:href="kest__fpga__encoding_8c.html#a742d286efbcdfcfb04471fac4282b318" target="_top" xlink:title=" ">
<polygon fill="white" stroke="#666666" points="475.5,-20.75 330.5,-20.75 330.5,0 475.5,0 475.5,-20.75"/>
<text xml:space="preserve" text-anchor="middle" x="403" y="-7.25" font-family="Helvetica,sans-Serif" font-size="10.00">print_instruction_format_b</text>
</a>
</g>
</g>
<!-- Node6&#45;&gt;Node9 -->
<g id="edge9_Node000006_Node000009" class="edge">
<title>Node6&#45;&gt;Node9</title>
<g id="a_edge9_Node000006_Node000009"><a xlink:title=" ">
<path fill="none" stroke="#63b8ff" d="M275,-24.23C288.69,-22.74 304.07,-21.06 319.28,-19.4"/>
<polygon fill="#63b8ff" stroke="#63b8ff" points="319.22,-22.93 328.79,-18.36 318.46,-15.97 319.22,-22.93"/>
</a>
</g>
</g>
<!-- Node8 -->
<g id="Node000008" class="node">
<title>Node8</title>
<g id="a_Node000008"><a xlink:href="kest__fpga__encoding_8c.html#a039fa960f21627306a112807eb973b8f" target="_top" xlink:title=" ">
<polygon fill="white" stroke="#666666" points="667.75,-39.75 511.5,-39.75 511.5,-19 667.75,-19 667.75,-39.75"/>
<text xml:space="preserve" text-anchor="middle" x="589.62" y="-26.25" font-family="Helvetica,sans-Serif" font-size="10.00">kest_block_opcode_to_name</text>
</a>
</g>
</g>
<!-- Node7&#45;&gt;Node8 -->
<g id="edge8_Node000007_Node000008" class="edge">
<title>Node7&#45;&gt;Node8</title>
<g id="a_edge8_Node000007_Node000008"><a xlink:title=" ">
<path fill="none" stroke="#63b8ff" d="M475.91,-41.59C483.75,-40.74 491.81,-39.86 499.82,-38.99"/>
<polygon fill="#63b8ff" stroke="#63b8ff" points="500.04,-42.49 509.6,-37.94 499.29,-35.53 500.04,-42.49"/>
</a>
</g>
</g>
<!-- Node9&#45;&gt;Node8 -->
<g id="edge10_Node000009_Node000008" class="edge">
<title>Node9&#45;&gt;Node8</title>
<g id="a_edge10_Node000009_Node000008"><a xlink:title=" ">
<path fill="none" stroke="#63b8ff" d="M475.91,-17.78C483.75,-18.58 491.81,-19.41 499.82,-20.24"/>
<polygon fill="#63b8ff" stroke="#63b8ff" points="499.3,-23.7 509.6,-21.24 500.01,-16.74 499.3,-23.7"/>
</a>
</g>
</g>
</g>
</svg>
