<?xml version="1.0" encoding="UTF-8" standalone="no"?>
<!DOCTYPE svg PUBLIC "-//W3C//DTD SVG 1.1//EN"
 "http://www.w3.org/Graphics/SVG/1.1/DTD/svg11.dtd">
<!-- Generated by graphviz version 13.1.2 (20250808.2320)
 -->
<!-- Title: ui_page_add_back_button Pages: 1 -->
<svg width="646pt" height="146pt"
 viewBox="0.00 0.00 646.00 146.00" xmlns="http://www.w3.org/2000/svg" xmlns:xlink="http://www.w3.org/1999/xlink">
<g id="graph0" class="graph" transform="scale(1 1) rotate(0) translate(4 141.75)">
<title>ui_page_add_back_button</title>
<!-- Node1 -->
<g id="Node000001" class="node">
<title>Node1</title>
<g id="a_Node000001"><a xlink:title=" ">
<polygon fill="#999999" stroke="#666666" points="142.75,-98.75 0,-98.75 0,-78 142.75,-78 142.75,-98.75"/>
<text xml:space="preserve" text-anchor="middle" x="71.38" y="-85.25" font-family="Helvetica,sans-Serif" font-size="10.00">ui_page_add_back_button</text>
</a>
</g>
</g>
<!-- Node2 -->
<g id="Node000002" class="node">
<title>Node2</title>
<g id="a_Node000002"><a xlink:href="kest__button_8c.html#aa59f296fa9f9744c9753f81484085a15" target="_top" xlink:title=" ">
<polygon fill="white" stroke="#666666" points="302.38,-137.75 179.12,-137.75 179.12,-117 302.38,-117 302.38,-137.75"/>
<text xml:space="preserve" text-anchor="middle" x="240.75" y="-124.25" font-family="Helvetica,sans-Serif" font-size="10.00">button_set_clicked_cb</text>
</a>
</g>
</g>
<!-- Node1&#45;&gt;Node2 -->
<g id="edge1_Node000001_Node000002" class="edge">
<title>Node1&#45;&gt;Node2</title>
<g id="a_edge1_Node000001_Node000002"><a xlink:title=" ">
<path fill="none" stroke="#63b8ff" d="M119,-99.24C138.5,-103.78 161.38,-109.11 181.94,-113.9"/>
<polygon fill="#63b8ff" stroke="#63b8ff" points="181.08,-117.3 191.61,-116.16 182.67,-110.48 181.08,-117.3"/>
</a>
</g>
</g>
<!-- Node3 -->
<g id="Node000003" class="node">
<title>Node3</title>
<g id="a_Node000003"><a xlink:href="kest__ui_8c.html#af17d8912a520f607796e85d96467cc5a" target="_top" xlink:title=" ">
<polygon fill="white" stroke="#666666" points="302.75,-98.75 178.75,-98.75 178.75,-78 302.75,-78 302.75,-98.75"/>
<text xml:space="preserve" text-anchor="middle" x="240.75" y="-85.25" font-family="Helvetica,sans-Serif" font-size="10.00">enter_parent_page_cb</text>
</a>
</g>
</g>
<!-- Node1&#45;&gt;Node3 -->
<g id="edge2_Node000001_Node000003" class="edge">
<title>Node1&#45;&gt;Node3</title>
<g id="a_edge2_Node000001_Node000003"><a xlink:title=" ">
<path fill="none" stroke="#63b8ff" d="M142.87,-88.38C150.89,-88.38 159.07,-88.38 167.11,-88.38"/>
<polygon fill="#63b8ff" stroke="#63b8ff" points="166.84,-91.88 176.84,-88.38 166.84,-84.88 166.84,-91.88"/>
</a>
</g>
</g>
<!-- Node7 -->
<g id="Node000007" class="node">
<title>Node7</title>
<g id="a_Node000007"><a xlink:href="kest__button_8c.html#afd8846ca469218a65279da29ad72e29b" target="_top" xlink:title=" ">
<polygon fill="white" stroke="#666666" points="277.25,-59.75 204.25,-59.75 204.25,-39 277.25,-39 277.25,-59.75"/>
<text xml:space="preserve" text-anchor="middle" x="240.75" y="-46.25" font-family="Helvetica,sans-Serif" font-size="10.00">new_button</text>
</a>
</g>
</g>
<!-- Node1&#45;&gt;Node7 -->
<g id="edge5_Node000001_Node000007" class="edge">
<title>Node1&#45;&gt;Node7</title>
<g id="a_edge5_Node000001_Node000007"><a xlink:title=" ">
<path fill="none" stroke="#63b8ff" d="M119,-77.51C142.11,-72.13 169.94,-65.64 193.06,-60.25"/>
<polygon fill="#63b8ff" stroke="#63b8ff" points="193.57,-63.73 202.51,-58.05 191.98,-56.91 193.57,-63.73"/>
</a>
</g>
</g>
<!-- Node4 -->
<g id="Node000004" class="node">
<title>Node4</title>
<g id="a_Node000004"><a xlink:href="kest__ui_8c.html#a8e18610dded037df6bd96330d349f186" target="_top" xlink:title=" ">
<polygon fill="white" stroke="#666666" points="481.5,-98.75 338.75,-98.75 338.75,-78 481.5,-78 481.5,-98.75"/>
<text xml:space="preserve" text-anchor="middle" x="410.12" y="-85.25" font-family="Helvetica,sans-Serif" font-size="10.00">enter_ui_page_backwards</text>
</a>
</g>
</g>
<!-- Node3&#45;&gt;Node4 -->
<g id="edge3_Node000003_Node000004" class="edge">
<title>Node3&#45;&gt;Node4</title>
<g id="a_edge3_Node000003_Node000004"><a xlink:title=" ">
<path fill="none" stroke="#63b8ff" d="M303.12,-88.38C310.92,-88.38 319,-88.38 327.06,-88.38"/>
<polygon fill="#63b8ff" stroke="#63b8ff" points="326.9,-91.88 336.9,-88.38 326.9,-84.88 326.9,-91.88"/>
</a>
</g>
</g>
<!-- Node5 -->
<g id="Node000005" class="node">
<title>Node5</title>
<g id="a_Node000005"><a xlink:href="kest__context_8c.html#a6292c7a2d7f0502ea5a59bbe9b552791" target="_top" xlink:title=" ">
<polygon fill="#fff0f0" stroke="red" points="637.75,-105.12 517.5,-105.12 517.5,-71.62 637.75,-71.62 637.75,-105.12"/>
<text xml:space="preserve" text-anchor="start" x="525.5" y="-91.62" font-family="Helvetica,sans-Serif" font-size="10.00">kest_cxt_queue_save</text>
<text xml:space="preserve" text-anchor="middle" x="577.62" y="-78.88" font-family="Helvetica,sans-Serif" font-size="10.00">_state</text>
</a>
</g>
</g>
<!-- Node4&#45;&gt;Node5 -->
<g id="edge4_Node000004_Node000005" class="edge">
<title>Node4&#45;&gt;Node5</title>
<g id="a_edge4_Node000004_Node000005"><a xlink:title=" ">
<path fill="none" stroke="#63b8ff" d="M481.79,-88.38C489.7,-88.38 497.76,-88.38 505.68,-88.38"/>
<polygon fill="#63b8ff" stroke="#63b8ff" points="505.62,-91.88 515.62,-88.38 505.62,-84.88 505.62,-91.88"/>
</a>
</g>
</g>
<!-- Node8 -->
<g id="Node000008" class="node">
<title>Node8</title>
<g id="a_Node000008"><a xlink:href="kest__button_8c.html#a20604a0eb74819a9747753ccfdb24e6c" target="_top" xlink:title=" ">
<polygon fill="white" stroke="#666666" points="444.38,-59.75 375.88,-59.75 375.88,-39 444.38,-39 444.38,-59.75"/>
<text xml:space="preserve" text-anchor="middle" x="410.12" y="-46.25" font-family="Helvetica,sans-Serif" font-size="10.00">init_button</text>
</a>
</g>
</g>
<!-- Node7&#45;&gt;Node8 -->
<g id="edge6_Node000007_Node000008" class="edge">
<title>Node7&#45;&gt;Node8</title>
<g id="a_edge6_Node000007_Node000008"><a xlink:title=" ">
<path fill="none" stroke="#63b8ff" d="M277.66,-49.38C303.04,-49.38 337.24,-49.38 364.4,-49.38"/>
<polygon fill="#63b8ff" stroke="#63b8ff" points="364.04,-52.88 374.04,-49.38 364.04,-45.88 364.04,-52.88"/>
</a>
</g>
</g>
<!-- Node9 -->
<g id="Node000009" class="node">
<title>Node9</title>
<g id="a_Node000009"><a xlink:href="kest__alloc_8c.html#a849755c5dc5b35e712ffcdb602e50fb4" target="_top" xlink:title=" ">
<polygon fill="white" stroke="#666666" points="442.5,-20.75 377.75,-20.75 377.75,0 442.5,0 442.5,-20.75"/>
<text xml:space="preserve" text-anchor="middle" x="410.12" y="-7.25" font-family="Helvetica,sans-Serif" font-size="10.00">kest_alloc</text>
</a>
</g>
</g>
<!-- Node7&#45;&gt;Node9 -->
<g id="edge7_Node000007_Node000009" class="edge">
<title>Node7&#45;&gt;Node9</title>
<g id="a_edge7_Node000007_Node000009"><a xlink:title=" ">
<path fill="none" stroke="#63b8ff" d="M277.66,-41.01C303.74,-34.93 339.15,-26.68 366.64,-20.27"/>
<polygon fill="#63b8ff" stroke="#63b8ff" points="367.09,-23.76 376.04,-18.09 365.5,-16.95 367.09,-23.76"/>
</a>
</g>
</g>
</g>
</svg>
