<?xml version="1.0" encoding="UTF-8" standalone="no"?>
<!DOCTYPE svg PUBLIC "-//W3C//DTD SVG 1.1//EN"
 "http://www.w3.org/Graphics/SVG/1.1/DTD/svg11.dtd">
<!-- Generated by graphviz version 13.1.2 (20250808.2320)
 -->
<!-- Title: kest_active_button_trigger_del_button_fade_in Pages: 1 -->
<svg width="442pt" height="80pt"
 viewBox="0.00 0.00 442.00 80.00" xmlns="http://www.w3.org/2000/svg" xmlns:xlink="http://www.w3.org/1999/xlink">
<g id="graph0" class="graph" transform="scale(1 1) rotate(0) translate(4 76.12)">
<title>kest_active_button_trigger_del_button_fade_in</title>
<!-- Node1 -->
<g id="Node000001" class="node">
<title>Node1</title>
<g id="a_Node000001"><a xlink:title=" ">
<polygon fill="#999999" stroke="#666666" points="110.5,-55.5 0,-55.5 0,-9.25 110.5,-9.25 110.5,-55.5"/>
<text xml:space="preserve" text-anchor="start" x="8" y="-42" font-family="Helvetica,sans-Serif" font-size="10.00">kest_active_button</text>
<text xml:space="preserve" text-anchor="start" x="8" y="-29.25" font-family="Helvetica,sans-Serif" font-size="10.00">_trigger_del_button</text>
<text xml:space="preserve" text-anchor="middle" x="55.25" y="-16.5" font-family="Helvetica,sans-Serif" font-size="10.00">_fade_in</text>
</a>
</g>
</g>
<!-- Node2 -->
<g id="Node000002" class="node">
<title>Node2</title>
<g id="a_Node000002"><a xlink:href="kest__button_8c.html#acef3a5e0199ca168471154fc981f4931" target="_top" xlink:title=" ">
<polygon fill="white" stroke="#666666" points="263,-72.12 146.5,-72.12 146.5,-38.62 263,-38.62 263,-72.12"/>
<text xml:space="preserve" text-anchor="start" x="154.5" y="-58.62" font-family="Helvetica,sans-Serif" font-size="10.00">kest_active_button</text>
<text xml:space="preserve" text-anchor="middle" x="204.75" y="-45.88" font-family="Helvetica,sans-Serif" font-size="10.00">_del_button_fade_cb</text>
</a>
</g>
</g>
<!-- Node1&#45;&gt;Node2 -->
<g id="edge1_Node000001_Node000002" class="edge">
<title>Node1&#45;&gt;Node2</title>
<g id="a_edge1_Node000001_Node000002"><a xlink:title=" ">
<path fill="none" stroke="#63b8ff" d="M110.75,-40.87C118.56,-42.09 126.68,-43.36 134.73,-44.61"/>
<polygon fill="#63b8ff" stroke="#63b8ff" points="134.09,-48.06 144.51,-46.14 135.17,-41.14 134.09,-48.06"/>
</a>
</g>
</g>
<!-- Node4 -->
<g id="Node000004" class="node">
<title>Node4</title>
<g id="a_Node000004"><a xlink:href="kest__button_8c.html#ad55b50e8c238c6de40dd73aab058274a" target="_top" xlink:title=" ">
<polygon fill="white" stroke="#666666" points="260.38,-20.75 149.12,-20.75 149.12,0 260.38,0 260.38,-20.75"/>
<text xml:space="preserve" text-anchor="middle" x="204.75" y="-7.25" font-family="Helvetica,sans-Serif" font-size="10.00">kest_button_unhide</text>
</a>
</g>
</g>
<!-- Node1&#45;&gt;Node4 -->
<g id="edge3_Node000001_Node000004" class="edge">
<title>Node1&#45;&gt;Node4</title>
<g id="a_edge3_Node000001_Node000004"><a xlink:title=" ">
<path fill="none" stroke="#63b8ff" d="M110.75,-24.25C119.53,-22.94 128.69,-21.57 137.69,-20.23"/>
<polygon fill="#63b8ff" stroke="#63b8ff" points="138.11,-23.7 147.48,-18.77 137.07,-16.78 138.11,-23.7"/>
</a>
</g>
</g>
<!-- Node3 -->
<g id="Node000003" class="node">
<title>Node3</title>
<g id="a_Node000003"><a xlink:href="kest__button_8c.html#a2835584385bb5d418a3ca596aa0ef5b1" target="_top" xlink:title=" ">
<polygon fill="white" stroke="#666666" points="433.5,-65.75 299,-65.75 299,-45 433.5,-45 433.5,-65.75"/>
<text xml:space="preserve" text-anchor="middle" x="366.25" y="-52.25" font-family="Helvetica,sans-Serif" font-size="10.00">kest_button_set_opacity</text>
</a>
</g>
</g>
<!-- Node2&#45;&gt;Node3 -->
<g id="edge2_Node000002_Node000003" class="edge">
<title>Node2&#45;&gt;Node3</title>
<g id="a_edge2_Node000002_Node000003"><a xlink:title=" ">
<path fill="none" stroke="#63b8ff" d="M263.33,-55.38C271.1,-55.38 279.16,-55.38 287.21,-55.38"/>
<polygon fill="#63b8ff" stroke="#63b8ff" points="287.02,-58.88 297.02,-55.38 287.02,-51.88 287.02,-58.88"/>
</a>
</g>
</g>
</g>
</svg>
