<?xml version="1.0" encoding="UTF-8" standalone="no"?>
<!DOCTYPE svg PUBLIC "-//W3C//DTD SVG 1.1//EN"
 "http://www.w3.org/Graphics/SVG/1.1/DTD/svg11.dtd">
<!-- Generated by graphviz version 13.1.2 (20250808.2320)
 -->
<!-- Title: kest_string_append Pages: 1 -->
<!--zoomable 184 -->

<svg id="main" version="1.1" xmlns="http://www.w3.org/2000/svg" xmlns:xlink="http://www.w3.org/1999/xlink" xml:space="preserve" onload="init(evt)">

<style type="text/css"><![CDATA[
.node, .edge {opacity: 0.7;}
.node.selected, .edge.selected {opacity: 1;}
.edge:hover path { stroke: red; }
.edge:hover polygon { stroke: red; fill: red; }
]]></style>

<defs>
  <circle id="rim" cx="0" cy="0" r="7"/>
  <circle id="rim2" cx="0" cy="0" r="3.5"/>
  <g id="zoomPlus">
    <use xlink:href="#rim" fill="#404040"><set attributeName="fill" to="#808080" begin="zoomplus.mouseover" end="zoomplus.mouseout"/></use>
    <path d="M-4,0h8M0,-4v8" fill="none" stroke="white" stroke-width="1.5" pointer-events="none"/>
  </g>
  <g id="zoomMin">
    <use xlink:href="#rim" fill="#404040"><set attributeName="fill" to="#808080" begin="zoomminus.mouseover" end="zoomminus.mouseout"/></use>
    <path d="M-4,0h8" fill="none" stroke="white" stroke-width="1.5" pointer-events="none"/>
  </g>
  <g id="arrowUp" transform="translate(30 24)">
    <use xlink:href="#rim"/>
    <path pointer-events="none" fill="none" stroke="white" stroke-width="1.5" d="M0,-3.0v7 M-2.5,-0.5L0,-3.0L2.5,-0.5"/>
  </g>
  <g id="arrowRight" transform="rotate(90) translate(36 -43)">
    <use xlink:href="#rim"/>
    <path pointer-events="none" fill="none" stroke="white" stroke-width="1.5" d="M0,-3.0v7 M-2.5,-0.5L0,-3.0L2.5,-0.5"/>
  </g>
  <g id="arrowDown" transform="rotate(180) translate(-30 -48)">
    <use xlink:href="#rim"/>
    <path pointer-events="none" fill="none" stroke="white" stroke-width="1.5" d="M0,-3.0v7 M-2.5,-0.5L0,-3.0L2.5,-0.5"/>
  </g>
  <g id="arrowLeft" transform="rotate(270) translate(-36 17)">
    <use xlink:href="#rim"/>
    <path pointer-events="none" fill="none" stroke="white" stroke-width="1.5" d="M0,-3.0v7 M-2.5,-0.5L0,-3.0L2.5,-0.5"/>
  </g>
  <g id="resetDef">
    <use xlink:href="#rim2" fill="#404040"><set attributeName="fill" to="#808080" begin="reset.mouseover" end="reset.mouseout"/></use>
  </g>
</defs>
<script type="application/ecmascript">
var viewWidth = 566;
var viewHeight = 184;
var sectionId = 'dynsection-1';
</script>
<script type="application/ecmascript" xlink:href="svg.min.js"/>
<svg id="graph" class="graph">
<g id="viewport">
<title>kest_string_append</title>
<!-- Node1 -->
<g id="Node000001" class="node">
<title>Node1</title>
<g id="a_Node000001"><a xlink:title=" ">
<polygon fill="#999999" stroke="#666666" points="558.25,-98.12 447.75,-98.12 447.75,-77.38 558.25,-77.38 558.25,-98.12"/>
<text xml:space="preserve" text-anchor="middle" x="503" y="-84.62" font-family="Helvetica,sans-Serif" font-size="10.00">kest_string_append</text>
</a>
</g>
</g>
<!-- Node2 -->
<g id="Node000002" class="node">
<title>Node2</title>
<g id="a_Node000002"><a xlink:href="kest__dictionary_8c.html#a298bc3ea15bffee0e485de36aea099c2" target="_top" xlink:title=" ">
<polygon fill="white" stroke="#666666" points="411.75,-104.5 306.5,-104.5 306.5,-71 411.75,-71 411.75,-104.5"/>
<text xml:space="preserve" text-anchor="start" x="314.5" y="-91" font-family="Helvetica,sans-Serif" font-size="10.00">kest_dict_entry_to</text>
<text xml:space="preserve" text-anchor="middle" x="359.12" y="-78.25" font-family="Helvetica,sans-Serif" font-size="10.00">_string</text>
</a>
</g>
</g>
<!-- Node1&#45;&gt;Node2 -->
<g id="edge1_Node000001_Node000002" class="edge">
<title>Node1&#45;&gt;Node2</title>
<g id="a_edge1_Node000001_Node000002"><a xlink:title=" ">
<path fill="none" stroke="#63b8ff" d="M436.14,-87.75C427.99,-87.75 419.75,-87.75 411.86,-87.75"/>
<polygon fill="#63b8ff" stroke="#63b8ff" points="436.04,-91.25 446.04,-87.75 436.04,-84.25 436.04,-91.25"/>
</a>
</g>
</g>
<!-- Node14 -->
<g id="Node000014" class="node">
<title>Node14</title>
<g id="a_Node000014"><a xlink:href="kest__dictionary_8c.html#a8db4f9c511b00d7240052135e9c1ed67" target="_top" xlink:title=" ">
<polygon fill="white" stroke="#666666" points="270.5,-176.12 158.5,-176.12 158.5,-155.38 270.5,-155.38 270.5,-176.12"/>
<text xml:space="preserve" text-anchor="middle" x="214.5" y="-162.62" font-family="Helvetica,sans-Serif" font-size="10.00">kest_parse_dict_list</text>
</a>
</g>
</g>
<!-- Node1&#45;&gt;Node14 -->
<g id="edge12_Node000001_Node000014" class="edge">
<title>Node1&#45;&gt;Node14</title>
<g id="a_edge12_Node000001_Node000014"><a xlink:title=" ">
<path fill="none" stroke="#63b8ff" d="M473.94,-103.99C456.55,-113.4 433.45,-124.74 411.75,-131.75 365.36,-146.74 310.53,-155.53 270.64,-160.41"/>
<polygon fill="#63b8ff" stroke="#63b8ff" points="475.59,-107.07 482.65,-99.17 472.2,-100.95 475.59,-107.07"/>
</a>
</g>
</g>
<!-- Node18 -->
<g id="Node000018" class="node">
<title>Node18</title>
<g id="a_Node000018"><a xlink:href="kest__dictionary_8c.html#a2a60847422026db5eab8103cd8ea1dc5" target="_top" xlink:title=" ">
<polygon fill="white" stroke="#666666" points="245.38,-48.12 183.62,-48.12 183.62,-27.38 245.38,-27.38 245.38,-48.12"/>
<text xml:space="preserve" text-anchor="middle" x="214.5" y="-34.62" font-family="Helvetica,sans-Serif" font-size="10.00">print_dict</text>
</a>
</g>
</g>
<!-- Node1&#45;&gt;Node18 -->
<g id="edge13_Node000001_Node000018" class="edge">
<title>Node1&#45;&gt;Node18</title>
<g id="a_edge13_Node000001_Node000018"><a xlink:title=" ">
<path fill="none" stroke="#63b8ff" d="M458.47,-73.7C443.76,-69.35 427.16,-64.89 411.75,-61.75 353.56,-49.89 284.4,-43.1 245.66,-39.94"/>
<polygon fill="#63b8ff" stroke="#63b8ff" points="457.27,-76.99 467.86,-76.53 459.3,-70.29 457.27,-76.99"/>
</a>
</g>
</g>
<!-- Node2&#45;&gt;Node2 -->
<g id="edge2_Node000002_Node000002" class="edge">
<title>Node2&#45;&gt;Node2</title>
<g id="a_edge2_Node000002_Node000002"><a xlink:title=" ">
<path fill="none" stroke="#63b8ff" d="M382.95,-116.22C378.9,-119.99 370.96,-122.5 359.12,-122.5 337.49,-122.5 328.87,-114.12 333.26,-104.91"/>
<polygon fill="#63b8ff" stroke="#63b8ff" points="386.38,-116.87 384.72,-106.4 379.5,-115.62 386.38,-116.87"/>
</a>
</g>
</g>
<!-- Node3 -->
<g id="Node000003" class="node">
<title>Node3</title>
<g id="a_Node000003"><a xlink:href="kest__dict__extract_8c.html#ac9cee86a595df863e15b7693b86635b7" target="_top" xlink:title=" ">
<polygon fill="white" stroke="#666666" points="266.75,-99.5 162.25,-99.5 162.25,-66 266.75,-66 266.75,-99.5"/>
<text xml:space="preserve" text-anchor="start" x="170.25" y="-86" font-family="Helvetica,sans-Serif" font-size="10.00">kest_extract_filter</text>
<text xml:space="preserve" text-anchor="middle" x="214.5" y="-73.25" font-family="Helvetica,sans-Serif" font-size="10.00">_coefs_from_dict</text>
</a>
</g>
</g>
<!-- Node2&#45;&gt;Node3 -->
<g id="edge3_Node000002_Node000003" class="edge">
<title>Node2&#45;&gt;Node3</title>
<g id="a_edge3_Node000002_Node000003"><a xlink:title=" ">
<path fill="none" stroke="#63b8ff" d="M295,-85.54C285.68,-85.21 276.17,-84.88 267.12,-84.56"/>
<polygon fill="#63b8ff" stroke="#63b8ff" points="294.6,-89.03 304.72,-85.88 294.85,-82.03 294.6,-89.03"/>
</a>
</g>
</g>
<!-- Node2&#45;&gt;Node14 -->
<g id="edge6_Node000002_Node000014" class="edge">
<title>Node2&#45;&gt;Node14</title>
<g id="a_edge6_Node000002_Node000014"><a xlink:title=" ">
<path fill="none" stroke="#63b8ff" d="M323.24,-110.81C307.44,-120.85 288.33,-132.42 270.5,-141.75 261.55,-146.43 251.48,-151.01 242.43,-154.9"/>
<polygon fill="#63b8ff" stroke="#63b8ff" points="324.81,-113.96 331.34,-105.62 321.03,-108.07 324.81,-113.96"/>
</a>
</g>
</g>
<!-- Node15 -->
<g id="Node000015" class="node">
<title>Node15</title>
<g id="a_Node000015"><a xlink:href="kest__dictionary_8c.html#af0aceaa93cba06fd44ad4bc50f2418e4" target="_top" xlink:title=" ">
<polygon fill="#fff0f0" stroke="red" points="117.25,-176.12 5.25,-176.12 5.25,-155.38 117.25,-155.38 117.25,-176.12"/>
<text xml:space="preserve" text-anchor="middle" x="61.25" y="-162.62" font-family="Helvetica,sans-Serif" font-size="10.00">kest_parse_dict_val</text>
</a>
</g>
</g>
<!-- Node2&#45;&gt;Node15 -->
<g id="edge9_Node000002_Node000015" class="edge">
<title>Node2&#45;&gt;Node15</title>
<g id="a_edge9_Node000002_Node000015"><a xlink:title=" ">
<path fill="none" stroke="#63b8ff" d="M295.38,-104.29C237.37,-119.58 152.84,-141.87 103.11,-154.98"/>
<polygon fill="#63b8ff" stroke="#63b8ff" points="296.01,-107.75 304.79,-101.81 294.22,-100.98 296.01,-107.75"/>
</a>
</g>
</g>
<!-- Node2&#45;&gt;Node18 -->
<g id="edge10_Node000002_Node000018" class="edge">
<title>Node2&#45;&gt;Node18</title>
<g id="a_edge10_Node000002_Node000018"><a xlink:title=" ">
<path fill="none" stroke="#63b8ff" d="M299.24,-66.85C289.64,-63.46 279.8,-60 270.5,-56.75 262.49,-53.95 253.81,-50.94 245.77,-48.16"/>
<polygon fill="#63b8ff" stroke="#63b8ff" points="297.92,-70.09 308.51,-70.13 300.25,-63.49 297.92,-70.09"/>
</a>
</g>
</g>
<!-- Node4 -->
<g id="Node000004" class="node">
<title>Node4</title>
<g id="a_Node000004"><a xlink:href="kest__dict__extract_8c.html#ab7acbd0287c39e5bbb08575fa2a61291" target="_top" xlink:title=" ">
<polygon fill="#fff0f0" stroke="red" points="118.38,-85.5 4.12,-85.5 4.12,-52 118.38,-52 118.38,-85.5"/>
<text xml:space="preserve" text-anchor="start" x="12.12" y="-72" font-family="Helvetica,sans-Serif" font-size="10.00">kest_extract_biquad</text>
<text xml:space="preserve" text-anchor="middle" x="61.25" y="-59.25" font-family="Helvetica,sans-Serif" font-size="10.00">_from_dict</text>
</a>
</g>
</g>
<!-- Node3&#45;&gt;Node4 -->
<g id="edge4_Node000003_Node000004" class="edge">
<title>Node3&#45;&gt;Node4</title>
<g id="a_edge4_Node000003_Node000004"><a xlink:title=" ">
<path fill="none" stroke="#63b8ff" d="M150.61,-76.93C140.07,-75.95 129.19,-74.95 118.83,-73.99"/>
<polygon fill="#63b8ff" stroke="#63b8ff" points="150.08,-80.39 160.36,-77.83 150.73,-73.42 150.08,-80.39"/>
</a>
</g>
</g>
<!-- Node13 -->
<g id="Node000013" class="node">
<title>Node13</title>
<g id="a_Node000013"><a xlink:href="kest__dict__extract_8c.html#a449de50461a34d20bba301a90a39ec05" target="_top" xlink:title=" ">
<polygon fill="#fff0f0" stroke="red" points="113.5,-137.5 9,-137.5 9,-104 113.5,-104 113.5,-137.5"/>
<text xml:space="preserve" text-anchor="start" x="17" y="-124" font-family="Helvetica,sans-Serif" font-size="10.00">kest_extract_filter</text>
<text xml:space="preserve" text-anchor="middle" x="61.25" y="-111.25" font-family="Helvetica,sans-Serif" font-size="10.00">_from_dict</text>
</a>
</g>
</g>
<!-- Node3&#45;&gt;Node13 -->
<g id="edge5_Node000003_Node000013" class="edge">
<title>Node3&#45;&gt;Node13</title>
<g id="a_edge5_Node000003_Node000013"><a xlink:title=" ">
<path fill="none" stroke="#63b8ff" d="M150.77,-98.51C138.5,-101.59 125.76,-104.79 113.9,-107.77"/>
<polygon fill="#63b8ff" stroke="#63b8ff" points="151.56,-101.92 160.4,-96.09 149.85,-95.13 151.56,-101.92"/>
</a>
</g>
</g>
<!-- Node14&#45;&gt;Node15 -->
<g id="edge7_Node000014_Node000015" class="edge">
<title>Node14&#45;&gt;Node15</title>
<g id="a_edge7_Node000014_Node000015"><a xlink:title=" ">
<path fill="none" stroke="#63b8ff" d="M146.77,-159.04C137.06,-158.95 127.16,-159.01 117.7,-159.22"/>
<polygon fill="#63b8ff" stroke="#63b8ff" points="146.47,-162.54 156.53,-159.19 146.58,-155.54 146.47,-162.54"/>
</a>
</g>
</g>
<!-- Node15&#45;&gt;Node14 -->
<g id="edge8_Node000015_Node000014" class="edge">
<title>Node15&#45;&gt;Node14</title>
<g id="a_edge8_Node000015_Node000014"><a xlink:title=" ">
<path fill="none" stroke="#63b8ff" d="M128.97,-172.46C138.68,-172.55 148.59,-172.49 158.04,-172.28"/>
<polygon fill="#63b8ff" stroke="#63b8ff" points="129.27,-168.96 119.22,-172.31 129.16,-175.96 129.27,-168.96"/>
</a>
</g>
</g>
<!-- Node17 -->
<g id="Node000017" class="node">
<title>Node17</title>
<g id="a_Node000017"><a xlink:href="kest__eff__section_8c.html#a4de28fb64398c9194136a2ced71e2795" target="_top" xlink:title=" ">
<polygon fill="#fff0f0" stroke="red" points="122.5,-33.5 0,-33.5 0,0 122.5,0 122.5,-33.5"/>
<text xml:space="preserve" text-anchor="start" x="8" y="-20" font-family="Helvetica,sans-Serif" font-size="10.00">kest_parse_dictionary</text>
<text xml:space="preserve" text-anchor="middle" x="61.25" y="-7.25" font-family="Helvetica,sans-Serif" font-size="10.00">_section</text>
</a>
</g>
</g>
<!-- Node18&#45;&gt;Node17 -->
<g id="edge11_Node000018_Node000017" class="edge">
<title>Node18&#45;&gt;Node17</title>
<g id="a_edge11_Node000018_Node000017"><a xlink:title=" ">
<path fill="none" stroke="#63b8ff" d="M172.13,-32.01C156.9,-29.89 139.33,-27.45 122.77,-25.15"/>
<polygon fill="#63b8ff" stroke="#63b8ff" points="171.37,-35.43 181.76,-33.34 172.33,-28.5 171.37,-35.43"/>
</a>
</g>
</g>
</g>
</svg>

<g id="navigator" transform="translate(0 0)" fill="#404254">
  <rect fill="#f2f5e9" fill-opacity="0.5" stroke="#606060" stroke-width=".5" x="0" y="0" width="60" height="60"/>
  <use id="zoomplus" xlink:href="#zoomPlus" x="17" y="9" onmousedown="handleZoom(evt,'in')"/>
  <use id="zoomminus" xlink:href="#zoomMin" x="42" y="9" onmousedown="handleZoom(evt,'out')"/>
  <use id="reset" xlink:href="#resetDef" x="30" y="36" onmousedown="handleReset()"/>
   <use id="arrowup" xlink:href="#arrowUp" x="0" y="0" onmousedown="handlePan(0,-1)"/>
  <use id="arrowright" xlink:href="#arrowRight" x="0" y="0" onmousedown="handlePan(1,0)"/>
  <use id="arrowdown" xlink:href="#arrowDown" x="0" y="0" onmousedown="handlePan(0,1)"/>
  <use id="arrowleft" xlink:href="#arrowLeft" x="0" y="0" onmousedown="handlePan(-1,0)"/>
</g>
<svg viewBox="0 0 15 15" width="100%" height="30px" preserveAspectRatio="xMaxYMin meet">
 <g id="arrow_out" transform="scale(0.3 0.3)">
  <a xlink:href="kest__string_8h_a2f2e64515d872efab6ae1974554b5d5c_icgraph_org.svg" target="_base">
   <rect id="button" ry="5" rx="5" y="6" x="6" height="38" width="38"
        fill="#f2f5e9" fill-opacity="0.5" stroke="#606060" stroke-width="1.0"/>
   <path id="arrow"
     d="M 11.500037,31.436501 C 11.940474,20.09759 22.043105,11.32322 32.158766,21.979434 L 37.068811,17.246167 C 37.068811,17.246167 37.088388,32 37.088388,32 L 22.160133,31.978069 C 22.160133,31.978069 26.997745,27.140456 26.997745,27.140456 C 18.528582,18.264221 13.291696,25.230495 11.500037,31.436501 z"
     style="fill:#404040;"/>
  </a>
 </g>
</svg>

<style type='text/css'>
<![CDATA[
[data-mouse-over-selected='false'] { opacity: 0.7; }
[data-mouse-over-selected='true']  { opacity: 1.0; }
]]>
</style>
<script type="application/ecmascript"><![CDATA[
document.addEventListener('DOMContentLoaded', (event) => {
  highlightEdges();
  highlightAdjacentNodes();
});
]]></script>
</svg>
