<?xml version="1.0" encoding="UTF-8" standalone="no"?>
<!DOCTYPE svg PUBLIC "-//W3C//DTD SVG 1.1//EN"
 "http://www.w3.org/Graphics/SVG/1.1/DTD/svg11.dtd">
<!-- Generated by graphviz version 13.1.2 (20250808.2320)
 -->
<!-- Title: operand_const_one Pages: 1 -->
<svg width="626pt" height="80pt"
 viewBox="0.00 0.00 626.00 80.00" xmlns="http://www.w3.org/2000/svg" xmlns:xlink="http://www.w3.org/1999/xlink">
<g id="graph0" class="graph" transform="scale(1 1) rotate(0) translate(4 76.12)">
<title>operand_const_one</title>
<!-- Node1 -->
<g id="Node000001" class="node">
<title>Node1</title>
<g id="a_Node000001"><a xlink:title=" ">
<polygon fill="#999999" stroke="#666666" points="618.25,-49.12 507.75,-49.12 507.75,-28.38 618.25,-28.38 618.25,-49.12"/>
<text xml:space="preserve" text-anchor="middle" x="563" y="-35.62" font-family="Helvetica,sans-Serif" font-size="10.00">operand_const_one</text>
</a>
</g>
</g>
<!-- Node2 -->
<g id="Node000002" class="node">
<title>Node2</title>
<g id="a_Node000002"><a xlink:href="kest__asm__parser_8c.html#a8a0d633256a85b35706b7a9ef1add7f0" target="_top" xlink:title=" ">
<polygon fill="white" stroke="#666666" points="466.5,-69.12 348.5,-69.12 348.5,-48.38 466.5,-48.38 466.5,-69.12"/>
<text xml:space="preserve" text-anchor="middle" x="407.5" y="-55.62" font-family="Helvetica,sans-Serif" font-size="10.00">kest_parse_asm_line</text>
</a>
</g>
</g>
<!-- Node1&#45;&gt;Node2 -->
<g id="edge1_Node000001_Node000002" class="edge">
<title>Node1&#45;&gt;Node2</title>
<g id="a_edge1_Node000001_Node000002"><a xlink:title=" ">
<path fill="none" stroke="#63b8ff" d="M496.14,-47.33C486.37,-48.6 476.37,-49.91 466.78,-51.16"/>
<polygon fill="#63b8ff" stroke="#63b8ff" points="496.48,-50.82 505.95,-46.05 495.58,-43.87 496.48,-50.82"/>
</a>
</g>
</g>
<!-- Node11 -->
<g id="Node000011" class="node">
<title>Node11</title>
<g id="a_Node000011"><a xlink:href="kest__asm__parser_8c.html#a2631a3bf92814826b04c07694026a878" target="_top" xlink:title=" ">
<polygon fill="white" stroke="#666666" points="471.75,-30.12 343.25,-30.12 343.25,-9.38 471.75,-9.38 471.75,-30.12"/>
<text xml:space="preserve" text-anchor="middle" x="407.5" y="-16.62" font-family="Helvetica,sans-Serif" font-size="10.00">kest_process_asm_line</text>
</a>
</g>
</g>
<!-- Node1&#45;&gt;Node11 -->
<g id="edge4_Node000001_Node000011" class="edge">
<title>Node1&#45;&gt;Node11</title>
<g id="a_edge4_Node000001_Node000011"><a xlink:title=" ">
<path fill="none" stroke="#63b8ff" d="M496.25,-30.61C488.23,-29.62 480.04,-28.6 472.05,-27.62"/>
<polygon fill="#63b8ff" stroke="#63b8ff" points="495.59,-34.06 505.95,-31.81 496.45,-27.11 495.59,-34.06"/>
</a>
</g>
</g>
<!-- Node3 -->
<g id="Node000003" class="node">
<title>Node3</title>
<g id="a_Node000003"><a xlink:href="kest__asm__parser_8c.html#a1b7e03dd7589f652dec13b4b2c6d0a5c" target="_top" xlink:title=" ">
<polygon fill="white" stroke="#666666" points="287.75,-70.12 193,-70.12 193,-49.38 287.75,-49.38 287.75,-70.12"/>
<text xml:space="preserve" text-anchor="middle" x="240.38" y="-56.62" font-family="Helvetica,sans-Serif" font-size="10.00">kest_parse_asm</text>
</a>
</g>
</g>
<!-- Node2&#45;&gt;Node3 -->
<g id="edge2_Node000002_Node000003" class="edge">
<title>Node2&#45;&gt;Node3</title>
<g id="a_edge2_Node000002_Node000003"><a xlink:title=" ">
<path fill="none" stroke="#63b8ff" d="M337.03,-59.17C320.56,-59.27 303.38,-59.37 288.2,-59.47"/>
<polygon fill="#63b8ff" stroke="#63b8ff" points="336.79,-62.67 346.77,-59.11 336.75,-55.67 336.79,-62.67"/>
</a>
</g>
</g>
<!-- Node4 -->
<g id="Node000004" class="node">
<title>Node4</title>
<g id="a_Node000004"><a xlink:href="kest__eff__section_8c.html#a992e0c66572f5ffabca2203a018ea97c" target="_top" xlink:title=" ">
<polygon fill="#fff0f0" stroke="red" points="137.5,-72.12 0,-72.12 0,-51.38 137.5,-51.38 137.5,-72.12"/>
<text xml:space="preserve" text-anchor="middle" x="68.75" y="-58.62" font-family="Helvetica,sans-Serif" font-size="10.00">kest_parse_code_section</text>
</a>
</g>
</g>
<!-- Node3&#45;&gt;Node4 -->
<g id="edge3_Node000003_Node000004" class="edge">
<title>Node3&#45;&gt;Node4</title>
<g id="a_edge3_Node000003_Node000004"><a xlink:title=" ">
<path fill="none" stroke="#63b8ff" d="M181.18,-60.44C167.27,-60.6 152.3,-60.78 137.99,-60.95"/>
<polygon fill="#63b8ff" stroke="#63b8ff" points="181.1,-63.94 191.06,-60.32 181.02,-56.94 181.1,-63.94"/>
</a>
</g>
</g>
<!-- Node12 -->
<g id="Node000012" class="node">
<title>Node12</title>
<g id="a_Node000012"><a xlink:href="kest__asm__parser_8c.html#ae59ff30494de598aa24df2c421eff7f7" target="_top" xlink:title=" ">
<polygon fill="white" stroke="#666666" points="307.25,-30.12 173.5,-30.12 173.5,-9.38 307.25,-9.38 307.25,-30.12"/>
<text xml:space="preserve" text-anchor="middle" x="240.38" y="-16.62" font-family="Helvetica,sans-Serif" font-size="10.00">kest_process_asm_lines</text>
</a>
</g>
</g>
<!-- Node11&#45;&gt;Node12 -->
<g id="edge5_Node000011_Node000012" class="edge">
<title>Node11&#45;&gt;Node12</title>
<g id="a_edge5_Node000011_Node000012"><a xlink:title=" ">
<path fill="none" stroke="#63b8ff" d="M331.81,-19.75C323.73,-19.75 315.55,-19.75 307.59,-19.75"/>
<polygon fill="#63b8ff" stroke="#63b8ff" points="331.62,-23.25 341.62,-19.75 331.62,-16.25 331.62,-23.25"/>
</a>
</g>
</g>
<!-- Node6 -->
<g id="Node000006" class="node">
<title>Node6</title>
<g id="a_Node000006"><a xlink:href="kest__eff__parser_8c.html#ae4618958c44389928c260fdb0e170761" target="_top" xlink:title=" ">
<polygon fill="#fff0f0" stroke="red" points="123.62,-33.5 13.88,-33.5 13.88,0 123.62,0 123.62,-33.5"/>
<text xml:space="preserve" text-anchor="start" x="21.88" y="-20" font-family="Helvetica,sans-Serif" font-size="10.00">kest_read_eff_desc</text>
<text xml:space="preserve" text-anchor="middle" x="68.75" y="-7.25" font-family="Helvetica,sans-Serif" font-size="10.00">_from_file</text>
</a>
</g>
</g>
<!-- Node12&#45;&gt;Node6 -->
<g id="edge6_Node000012_Node000006" class="edge">
<title>Node12&#45;&gt;Node6</title>
<g id="a_edge6_Node000012_Node000006"><a xlink:title=" ">
<path fill="none" stroke="#63b8ff" d="M162.06,-18.38C149.16,-18.15 136.02,-17.92 123.86,-17.71"/>
<polygon fill="#63b8ff" stroke="#63b8ff" points="161.73,-21.88 171.79,-18.55 161.86,-14.88 161.73,-21.88"/>
</a>
</g>
</g>
</g>
</svg>
