<?xml version="1.0" encoding="UTF-8" standalone="no"?>
<!DOCTYPE svg PUBLIC "-//W3C//DTD SVG 1.1//EN"
 "http://www.w3.org/Graphics/SVG/1.1/DTD/svg11.dtd">
<!-- Generated by graphviz version 13.1.2 (20250808.2320)
 -->
<!-- Title: main_task Pages: 1 -->
<svg width="602pt" height="1087pt"
 viewBox="0.00 0.00 602.00 1087.00" xmlns="http://www.w3.org/2000/svg" xmlns:xlink="http://www.w3.org/1999/xlink">
<g id="graph0" class="graph" transform="scale(1 1) rotate(0) translate(4 1082.5)">
<title>main_task</title>
<!-- Node1 -->
<g id="Node000001" class="node">
<title>Node1</title>
<g id="a_Node000001"><a xlink:title=" ">
<polygon fill="#999999" stroke="#666666" points="67,-593.12 0,-593.12 0,-572.38 67,-572.38 67,-593.12"/>
<text xml:space="preserve" text-anchor="middle" x="33.5" y="-579.62" font-family="Helvetica,sans-Serif" font-size="10.00">main_task</text>
</a>
</g>
</g>
<!-- Node2 -->
<g id="Node000002" class="node">
<title>Node2</title>
<g id="a_Node000002"><a xlink:href="kest__effect__select_8c.html#a4f784340d1e1e332c60be5a095244ba1" target="_top" xlink:title=" ">
<polygon fill="white" stroke="#666666" points="243.88,-959.12 115.38,-959.12 115.38,-938.38 243.88,-938.38 243.88,-959.12"/>
<text xml:space="preserve" text-anchor="middle" x="179.62" y="-945.62" font-family="Helvetica,sans-Serif" font-size="10.00">init_effect_selector_eff</text>
</a>
</g>
</g>
<!-- Node1&#45;&gt;Node2 -->
<g id="edge1_Node000001_Node000002" class="edge">
<title>Node1&#45;&gt;Node2</title>
<g id="a_edge1_Node000001_Node000002"><a xlink:title=" ">
<path fill="none" stroke="#63b8ff" d="M35.58,-593.56C40.78,-643.87 64.58,-854.72 103,-906.75 111.29,-917.98 123.54,-926.59 135.77,-933.01"/>
<polygon fill="#63b8ff" stroke="#63b8ff" points="134.06,-936.07 144.59,-937.24 137.08,-929.76 134.06,-936.07"/>
</a>
</g>
</g>
<!-- Node171 -->
<g id="Node000171" class="node">
<title>Node171</title>
<g id="a_Node000171"><a xlink:href="kest__context_8c.html#aa9e6615b96b5c047fe43c42046d5adc0" target="_top" xlink:title=" ">
<polygon fill="white" stroke="#666666" points="256.25,-781.12 103,-781.12 103,-760.38 256.25,-760.38 256.25,-781.12"/>
<text xml:space="preserve" text-anchor="middle" x="179.62" y="-767.62" font-family="Helvetica,sans-Serif" font-size="10.00">kest_context_init_effect_list</text>
</a>
</g>
</g>
<!-- Node1&#45;&gt;Node171 -->
<g id="edge7_Node000001_Node000171" class="edge">
<title>Node1&#45;&gt;Node171</title>
<g id="a_edge7_Node000001_Node000171"><a xlink:title=" ">
<path fill="none" stroke="#63b8ff" d="M35.58,-593.26C39.19,-622.82 53.56,-707.29 103,-750.75 104.44,-752.01 105.95,-753.2 107.51,-754.31"/>
<polygon fill="#63b8ff" stroke="#63b8ff" points="105.35,-757.1 115.74,-759.14 108.89,-751.06 105.35,-757.1"/>
</a>
</g>
</g>
<!-- Node172 -->
<g id="Node000172" class="node">
<title>Node172</title>
<g id="a_Node000172"><a xlink:href="kest__ui_8c.html#ac4b49754b0a8d3df4343e742d6899872" target="_top" xlink:title=" ">
<polygon fill="white" stroke="#666666" points="222.88,-742.12 136.38,-742.12 136.38,-721.38 222.88,-721.38 222.88,-742.12"/>
<text xml:space="preserve" text-anchor="middle" x="179.62" y="-728.62" font-family="Helvetica,sans-Serif" font-size="10.00">kest_create_ui</text>
</a>
</g>
</g>
<!-- Node1&#45;&gt;Node172 -->
<g id="edge8_Node000001_Node000172" class="edge">
<title>Node1&#45;&gt;Node172</title>
<g id="a_edge8_Node000001_Node000172"><a xlink:title=" ">
<path fill="none" stroke="#63b8ff" d="M43.28,-593.38C56.02,-608.67 80.57,-637.56 103,-660.75 121,-679.36 142.64,-699.46 158.15,-713.51"/>
<polygon fill="#63b8ff" stroke="#63b8ff" points="155.6,-715.92 165.37,-720.01 160.28,-710.72 155.6,-715.92"/>
</a>
</g>
</g>
<!-- Node298 -->
<g id="Node000298" class="node">
<title>Node298</title>
<g id="a_Node000298"><a xlink:href="kest__state_8c.html#ab26da214ed0f9d143d63e80a7012796b" target="_top" xlink:title=" ">
<polygon fill="white" stroke="#666666" points="242.75,-652.12 116.5,-652.12 116.5,-631.38 242.75,-631.38 242.75,-652.12"/>
<text xml:space="preserve" text-anchor="middle" x="179.62" y="-638.62" font-family="Helvetica,sans-Serif" font-size="10.00">kest_cxt_restore_state</text>
</a>
</g>
</g>
<!-- Node1&#45;&gt;Node298 -->
<g id="edge12_Node000001_Node000298" class="edge">
<title>Node1&#45;&gt;Node298</title>
<g id="a_edge12_Node000001_Node000298"><a xlink:title=" ">
<path fill="none" stroke="#63b8ff" d="M60.93,-593.57C83.59,-602.84 116.46,-616.3 141.71,-626.64"/>
<polygon fill="#63b8ff" stroke="#63b8ff" points="140.38,-629.87 150.96,-630.42 143.03,-623.4 140.38,-629.87"/>
</a>
</g>
</g>
<!-- Node49 -->
<g id="Node000049" class="node">
<title>Node49</title>
<g id="a_Node000049"><a xlink:href="kest__error__codes_8c.html#a0f4c77127bc0b77264a21104979c576a" target="_top" xlink:title=" ">
<polygon fill="white" stroke="#666666" points="419.62,-561.5 311.38,-561.5 311.38,-528 419.62,-528 419.62,-561.5"/>
<text xml:space="preserve" text-anchor="start" x="319.38" y="-548" font-family="Helvetica,sans-Serif" font-size="10.00">kest_error_code_to</text>
<text xml:space="preserve" text-anchor="middle" x="365.5" y="-535.25" font-family="Helvetica,sans-Serif" font-size="10.00">_string</text>
</a>
</g>
</g>
<!-- Node1&#45;&gt;Node49 -->
<g id="edge17_Node000001_Node000049" class="edge">
<title>Node1&#45;&gt;Node49</title>
<g id="a_edge17_Node000001_Node000049"><a xlink:title=" ">
<path fill="none" stroke="#63b8ff" d="M67.29,-580.85C110.65,-578.13 189.39,-572.46 256.25,-563.75 270.36,-561.91 285.43,-559.53 299.71,-557.08"/>
<polygon fill="#63b8ff" stroke="#63b8ff" points="300.22,-560.55 309.47,-555.37 299.01,-553.65 300.22,-560.55"/>
</a>
</g>
</g>
<!-- Node304 -->
<g id="Node000304" class="node">
<title>Node304</title>
<g id="a_Node000304"><a xlink:href="kest__fpga__comms_8c.html#a8f850777494bb4c4d61df3efbf31ca7c" target="_top" xlink:title=" ">
<polygon fill="white" stroke="#666666" points="245,-401.12 114.25,-401.12 114.25,-380.38 245,-380.38 245,-401.12"/>
<text xml:space="preserve" text-anchor="middle" x="179.62" y="-387.62" font-family="Helvetica,sans-Serif" font-size="10.00">kest_fpga_comms_task</text>
</a>
</g>
</g>
<!-- Node1&#45;&gt;Node304 -->
<g id="edge18_Node000001_Node000304" class="edge">
<title>Node1&#45;&gt;Node304</title>
<g id="a_edge18_Node000001_Node000304"><a xlink:title=" ">
<path fill="none" stroke="#63b8ff" d="M42.66,-571.88C66.05,-540.72 133.55,-450.8 163.73,-410.59"/>
<polygon fill="#63b8ff" stroke="#63b8ff" points="166.44,-412.81 169.64,-402.71 160.84,-408.61 166.44,-412.81"/>
</a>
</g>
</g>
<!-- Node321 -->
<g id="Node000321" class="node">
<title>Node321</title>
<g id="a_Node000321"><a xlink:href="kest__context_8c.html#a8d785a89178c048ac11ee14f2a659993" target="_top" xlink:title=" ">
<polygon fill="white" stroke="#666666" points="229.25,-362.12 130,-362.12 130,-341.38 229.25,-341.38 229.25,-362.12"/>
<text xml:space="preserve" text-anchor="middle" x="179.62" y="-348.62" font-family="Helvetica,sans-Serif" font-size="10.00">kest_init_context</text>
</a>
</g>
</g>
<!-- Node1&#45;&gt;Node321 -->
<g id="edge30_Node000001_Node000321" class="edge">
<title>Node1&#45;&gt;Node321</title>
<g id="a_edge30_Node000001_Node000321"><a xlink:title=" ">
<path fill="none" stroke="#63b8ff" d="M34.59,-572.15C35.49,-537.78 43.13,-428.39 103,-371.75 107.74,-367.27 113.36,-363.76 119.37,-361.02"/>
<polygon fill="#63b8ff" stroke="#63b8ff" points="120.23,-364.44 128.35,-357.64 117.76,-357.89 120.23,-364.44"/>
</a>
</g>
</g>
<!-- Node330 -->
<g id="Node000330" class="node">
<title>Node330</title>
<g id="a_Node000330"><a xlink:href="kest__files_8c.html#a7a95a25dc61dcf2a435f45a67fcd08c7" target="_top" xlink:title=" ">
<polygon fill="white" stroke="#666666" points="236.75,-323.12 122.5,-323.12 122.5,-302.38 236.75,-302.38 236.75,-323.12"/>
<text xml:space="preserve" text-anchor="middle" x="179.62" y="-309.62" font-family="Helvetica,sans-Serif" font-size="10.00">kest_init_directories</text>
</a>
</g>
</g>
<!-- Node1&#45;&gt;Node330 -->
<g id="edge34_Node000001_Node000330" class="edge">
<title>Node1&#45;&gt;Node330</title>
<g id="a_edge34_Node000001_Node000330"><a xlink:title=" ">
<path fill="none" stroke="#63b8ff" d="M33.96,-571.9C32.65,-533.33 33.64,-401.5 103,-332.75 105.7,-330.07 108.72,-327.74 111.94,-325.71"/>
<polygon fill="#63b8ff" stroke="#63b8ff" points="113.5,-328.85 120.82,-321.18 110.32,-322.61 113.5,-328.85"/>
</a>
</g>
</g>
<!-- Node331 -->
<g id="Node000331" class="node">
<title>Node331</title>
<g id="a_Node000331"><a xlink:href="kest__ui_8c.html#ab1be7d2981c922ebe8d714f9af0f600d" target="_top" xlink:title=" ">
<polygon fill="#fff0f0" stroke="red" points="243.12,-284.12 116.12,-284.12 116.12,-263.38 243.12,-263.38 243.12,-284.12"/>
<text xml:space="preserve" text-anchor="middle" x="179.62" y="-270.62" font-family="Helvetica,sans-Serif" font-size="10.00">kest_init_global_pages</text>
</a>
</g>
</g>
<!-- Node1&#45;&gt;Node331 -->
<g id="edge35_Node000001_Node000331" class="edge">
<title>Node1&#45;&gt;Node331</title>
<g id="a_edge35_Node000001_Node000331"><a xlink:title=" ">
<path fill="none" stroke="#63b8ff" d="M35.59,-571.95C40.58,-524.51 62.78,-335.02 103,-293.75 104.04,-292.68 105.13,-291.67 106.26,-290.71"/>
<polygon fill="#63b8ff" stroke="#63b8ff" points="108.13,-293.68 114.45,-285.17 104.2,-287.88 108.13,-293.68"/>
</a>
</g>
</g>
<!-- Node364 -->
<g id="Node000364" class="node">
<title>Node364</title>
<g id="a_Node000364"><a xlink:href="kest__param__update_8h.html#ac2a1db74cfea4a032b83a22f45e2a69f" target="_top" xlink:title=" ">
<polygon fill="white" stroke="#666666" points="248.75,-245.12 110.5,-245.12 110.5,-224.38 248.75,-224.38 248.75,-245.12"/>
<text xml:space="preserve" text-anchor="middle" x="179.62" y="-231.62" font-family="Helvetica,sans-Serif" font-size="10.00">kest_param_update_task</text>
</a>
</g>
</g>
<!-- Node1&#45;&gt;Node364 -->
<g id="edge36_Node000001_Node000364" class="edge">
<title>Node1&#45;&gt;Node364</title>
<g id="a_edge36_Node000001_Node000364"><a xlink:title=" ">
<path fill="none" stroke="#63b8ff" d="M35.26,-571.92C39.09,-520.59 57.86,-302.33 103,-254.75 103.86,-253.84 104.77,-252.97 105.7,-252.13"/>
<polygon fill="#63b8ff" stroke="#63b8ff" points="107.52,-255.14 113.64,-246.49 103.46,-249.43 107.52,-255.14"/>
</a>
</g>
</g>
<!-- Node365 -->
<g id="Node000365" class="node">
<title>Node365</title>
<g id="a_Node000365"><a xlink:href="kest__printf_8c.html#a745e9edc5a495f2fbd52a34a86d71c1b" target="_top" xlink:title=" ">
<polygon fill="white" stroke="#666666" points="224,-206.12 135.25,-206.12 135.25,-185.38 224,-185.38 224,-206.12"/>
<text xml:space="preserve" text-anchor="middle" x="179.62" y="-192.62" font-family="Helvetica,sans-Serif" font-size="10.00">kest_printf_init</text>
</a>
</g>
</g>
<!-- Node1&#45;&gt;Node365 -->
<g id="edge37_Node000001_Node000365" class="edge">
<title>Node1&#45;&gt;Node365</title>
<g id="a_edge37_Node000001_Node000365"><a xlink:title=" ">
<path fill="none" stroke="#63b8ff" d="M34.99,-572.13C37.73,-517.61 52.83,-269.78 103,-215.75 108.72,-209.59 116.09,-205.24 123.98,-202.19"/>
<polygon fill="#63b8ff" stroke="#63b8ff" points="125,-205.53 133.51,-199.22 122.93,-198.85 125,-205.53"/>
</a>
</g>
</g>
<!-- Node366 -->
<g id="Node000366" class="node">
<title>Node366</title>
<g id="a_Node000366"><a xlink:href="kest__files_8c.html#abd963628acfd524509956fff3c5f498c" target="_top" xlink:title=" ">
<polygon fill="#fff0f0" stroke="red" points="217.62,-555.12 141.62,-555.12 141.62,-534.38 217.62,-534.38 217.62,-555.12"/>
<text xml:space="preserve" text-anchor="middle" x="179.62" y="-541.62" font-family="Helvetica,sans-Serif" font-size="10.00">load_effects</text>
</a>
</g>
</g>
<!-- Node1&#45;&gt;Node366 -->
<g id="edge38_Node000001_Node000366" class="edge">
<title>Node1&#45;&gt;Node366</title>
<g id="a_edge38_Node000001_Node000366"><a xlink:title=" ">
<path fill="none" stroke="#63b8ff" d="M67.2,-574.13C85.86,-569.21 109.59,-562.95 130.36,-557.48"/>
<polygon fill="#63b8ff" stroke="#63b8ff" points="130.98,-560.93 139.75,-555 129.19,-554.16 130.98,-560.93"/>
</a>
</g>
</g>
<!-- Node511 -->
<g id="Node000511" class="node">
<title>Node511</title>
<g id="a_Node000511"><a xlink:href="kest__files_8c.html#a9a8521ad7db2dd3514b6ece8c4d6d787" target="_top" xlink:title=" ">
<polygon fill="#fff0f0" stroke="red" points="236.38,-898.12 122.88,-898.12 122.88,-877.38 236.38,-877.38 236.38,-898.12"/>
<text xml:space="preserve" text-anchor="middle" x="179.62" y="-884.62" font-family="Helvetica,sans-Serif" font-size="10.00">load_saved_profiles</text>
</a>
</g>
</g>
<!-- Node1&#45;&gt;Node511 -->
<g id="edge40_Node000001_Node000511" class="edge">
<title>Node1&#45;&gt;Node511</title>
<g id="a_edge40_Node000001_Node000511"><a xlink:title=" ">
<path fill="none" stroke="#63b8ff" d="M35.61,-593.4C40.69,-640.19 63.25,-827.09 103,-867.75 105.79,-870.6 108.94,-873.07 112.32,-875.19"/>
<polygon fill="#63b8ff" stroke="#63b8ff" points="110.54,-878.21 121.04,-879.63 113.72,-871.97 110.54,-878.21"/>
</a>
</g>
</g>
<!-- Node517 -->
<g id="Node000517" class="node">
<title>Node517</title>
<g id="a_Node000517"><a xlink:href="kest__files_8c.html#a2b0f0df900e064b3a42198050e150084" target="_top" xlink:title=" ">
<polygon fill="#fff0f0" stroke="red" points="243.88,-859.12 115.38,-859.12 115.38,-838.38 243.88,-838.38 243.88,-859.12"/>
<text xml:space="preserve" text-anchor="middle" x="179.62" y="-845.62" font-family="Helvetica,sans-Serif" font-size="10.00">load_saved_sequences</text>
</a>
</g>
</g>
<!-- Node1&#45;&gt;Node517 -->
<g id="edge42_Node000001_Node000517" class="edge">
<title>Node1&#45;&gt;Node517</title>
<g id="a_edge42_Node000001_Node000517"><a xlink:title=" ">
<path fill="none" stroke="#63b8ff" d="M34.02,-593.43C32.92,-631.4 34.53,-761.17 103,-828.75 104.06,-829.8 105.17,-830.79 106.32,-831.73"/>
<polygon fill="#63b8ff" stroke="#63b8ff" points="104.32,-834.61 114.59,-837.19 108.17,-828.76 104.32,-834.61"/>
</a>
</g>
</g>
<!-- Node521 -->
<g id="Node000521" class="node">
<title>Node521</title>
<g id="a_Node000521"><a xlink:href="kest__files_8c.html#a70d3333ed52be1c6b2967d18b2c09bfa" target="_top" xlink:title=" ">
<polygon fill="#fff0f0" stroke="red" points="237.88,-820.12 121.38,-820.12 121.38,-799.38 237.88,-799.38 237.88,-820.12"/>
<text xml:space="preserve" text-anchor="middle" x="179.62" y="-806.62" font-family="Helvetica,sans-Serif" font-size="10.00">load_state_from_file</text>
</a>
</g>
</g>
<!-- Node1&#45;&gt;Node521 -->
<g id="edge44_Node000001_Node000521" class="edge">
<title>Node1&#45;&gt;Node521</title>
<g id="a_edge44_Node000001_Node000521"><a xlink:title=" ">
<path fill="none" stroke="#63b8ff" d="M34.66,-593.15C35.77,-626.89 44,-734.24 103,-789.75 105.41,-792.02 108.05,-794.04 110.85,-795.83"/>
<polygon fill="#63b8ff" stroke="#63b8ff" points="109.07,-798.85 119.55,-800.4 112.33,-792.65 109.07,-798.85"/>
</a>
</g>
</g>
<!-- Node3 -->
<g id="Node000003" class="node">
<title>Node3</title>
<g id="a_Node000003"><a xlink:href="kest__effect__select_8c.html#af5e1f2ec64c8c42ed66a3bc39c7411eb" target="_top" xlink:title=" ">
<polygon fill="#fff0f0" stroke="red" points="427.88,-1078.5 303.12,-1078.5 303.12,-1045 427.88,-1045 427.88,-1078.5"/>
<text xml:space="preserve" text-anchor="start" x="311.12" y="-1065" font-family="Helvetica,sans-Serif" font-size="10.00">create_effect_selector</text>
<text xml:space="preserve" text-anchor="middle" x="365.5" y="-1052.25" font-family="Helvetica,sans-Serif" font-size="10.00">_ui_eff</text>
</a>
</g>
</g>
<!-- Node2&#45;&gt;Node3 -->
<g id="edge2_Node000002_Node000003" class="edge">
<title>Node2&#45;&gt;Node3</title>
<g id="a_edge2_Node000002_Node000003"><a xlink:title=" ">
<path fill="none" stroke="#63b8ff" d="M191.81,-959.47C211,-977.37 252.01,-1013.57 292.25,-1035.75 294.9,-1037.21 297.64,-1038.61 300.44,-1039.96"/>
<polygon fill="#63b8ff" stroke="#63b8ff" points="298.84,-1043.08 309.4,-1043.97 301.7,-1036.69 298.84,-1043.08"/>
</a>
</g>
</g>
<!-- Node168 -->
<g id="Node000168" class="node">
<title>Node168</title>
<g id="a_Node000168"><a xlink:href="kest__effect__select_8c.html#a561886dfef79c8a41b80cf6da53887f6" target="_top" xlink:title=" ">
<polygon fill="white" stroke="#666666" points="425.25,-1027.12 305.75,-1027.12 305.75,-1006.38 425.25,-1006.38 425.25,-1027.12"/>
<text xml:space="preserve" text-anchor="middle" x="365.5" y="-1013.62" font-family="Helvetica,sans-Serif" font-size="10.00">enter_effect_selector</text>
</a>
</g>
</g>
<!-- Node2&#45;&gt;Node168 -->
<g id="edge3_Node000002_Node000168" class="edge">
<title>Node2&#45;&gt;Node168</title>
<g id="a_edge3_Node000002_Node000168"><a xlink:title=" ">
<path fill="none" stroke="#63b8ff" d="M202.45,-959.55C224.66,-970.25 260.27,-986.6 292.25,-997.75 297.34,-999.52 302.68,-1001.22 308.06,-1002.82"/>
<polygon fill="#63b8ff" stroke="#63b8ff" points="307.05,-1006.18 317.62,-1005.55 308.97,-999.44 307.05,-1006.18"/>
</a>
</g>
</g>
<!-- Node169 -->
<g id="Node000169" class="node">
<title>Node169</title>
<g id="a_Node000169"><a xlink:href="kest__effect__select_8c.html#acd02f7ed00bcc8462f330064ba42b495" target="_top" xlink:title=" ">
<polygon fill="white" stroke="#666666" points="423,-988.5 308,-988.5 308,-955 423,-955 423,-988.5"/>
<text xml:space="preserve" text-anchor="start" x="316" y="-975" font-family="Helvetica,sans-Serif" font-size="10.00">init_effect_selector</text>
<text xml:space="preserve" text-anchor="middle" x="365.5" y="-962.25" font-family="Helvetica,sans-Serif" font-size="10.00">_button_from_effect</text>
</a>
</g>
</g>
<!-- Node2&#45;&gt;Node169 -->
<g id="edge4_Node000002_Node000169" class="edge">
<title>Node2&#45;&gt;Node169</title>
<g id="a_edge4_Node000002_Node000169"><a xlink:title=" ">
<path fill="none" stroke="#63b8ff" d="M244.16,-956.7C261.11,-958.82 279.48,-961.12 296.65,-963.26"/>
<polygon fill="#63b8ff" stroke="#63b8ff" points="295.87,-966.69 306.23,-964.46 296.74,-959.75 295.87,-966.69"/>
</a>
</g>
</g>
<!-- Node170 -->
<g id="Node000170" class="node">
<title>Node170</title>
<g id="a_Node000170"><a xlink:href="kest__ui_8c.html#aa35b25eb0a8f315343a7ea5190b0163b" target="_top" xlink:title=" ">
<polygon fill="white" stroke="#666666" points="403.12,-937.12 327.88,-937.12 327.88,-916.38 403.12,-916.38 403.12,-937.12"/>
<text xml:space="preserve" text-anchor="middle" x="365.5" y="-923.62" font-family="Helvetica,sans-Serif" font-size="10.00">init_ui_page</text>
</a>
</g>
</g>
<!-- Node2&#45;&gt;Node170 -->
<g id="edge5_Node000002_Node000170" class="edge">
<title>Node2&#45;&gt;Node170</title>
<g id="a_edge5_Node000002_Node000170"><a xlink:title=" ">
<path fill="none" stroke="#63b8ff" d="M244.16,-941.15C267.74,-938.33 294.09,-935.17 316.1,-932.54"/>
<polygon fill="#63b8ff" stroke="#63b8ff" points="316.5,-936.02 326.01,-931.36 315.67,-929.07 316.5,-936.02"/>
</a>
</g>
</g>
<!-- Node39 -->
<g id="Node000039" class="node">
<title>Node39</title>
<g id="a_Node000039"><a xlink:href="kest__alloc_8c.html#a849755c5dc5b35e712ffcdb602e50fb4" target="_top" xlink:title=" ">
<polygon fill="white" stroke="#666666" points="397.88,-898.12 333.12,-898.12 333.12,-877.38 397.88,-877.38 397.88,-898.12"/>
<text xml:space="preserve" text-anchor="middle" x="365.5" y="-884.62" font-family="Helvetica,sans-Serif" font-size="10.00">kest_alloc</text>
</a>
</g>
</g>
<!-- Node2&#45;&gt;Node39 -->
<g id="edge6_Node000002_Node000039" class="edge">
<title>Node2&#45;&gt;Node39</title>
<g id="a_edge6_Node000002_Node000039"><a xlink:title=" ">
<path fill="none" stroke="#63b8ff" d="M207.93,-938.01C230.4,-929.34 263.16,-917.1 292.25,-907.75 301.69,-904.72 311.91,-901.72 321.61,-899"/>
<polygon fill="#63b8ff" stroke="#63b8ff" points="322.51,-902.38 331.22,-896.36 320.65,-895.63 322.51,-902.38"/>
</a>
</g>
</g>
<!-- Node173 -->
<g id="Node000173" class="node">
<title>Node173</title>
<g id="a_Node000173"><a xlink:href="kest__sequence__list_8c.html#ae60870bb862edfc5b0a45344c20b152f" target="_top" xlink:title=" ">
<polygon fill="#fff0f0" stroke="red" points="432.38,-859.12 298.62,-859.12 298.62,-838.38 432.38,-838.38 432.38,-859.12"/>
<text xml:space="preserve" text-anchor="middle" x="365.5" y="-845.62" font-family="Helvetica,sans-Serif" font-size="10.00">configure_sequence_list</text>
</a>
</g>
</g>
<!-- Node172&#45;&gt;Node173 -->
<g id="edge9_Node000172_Node000173" class="edge">
<title>Node172&#45;&gt;Node173</title>
<g id="a_edge9_Node000172_Node000173"><a xlink:title=" ">
<path fill="none" stroke="#63b8ff" d="M223.34,-736.29C235.01,-739.22 246.97,-744 256.25,-751.75 285.24,-775.97 263.4,-804.36 292.25,-828.75 293.75,-830.02 295.33,-831.21 296.97,-832.33"/>
<polygon fill="#63b8ff" stroke="#63b8ff" points="295.17,-835.33 305.6,-837.18 298.6,-829.23 295.17,-835.33"/>
</a>
</g>
</g>
<!-- Node296 -->
<g id="Node000296" class="node">
<title>Node296</title>
<g id="a_Node000296"><a xlink:href="kest__ui_8c.html#afbe4096c7ee75eb4368161945403d399" target="_top" xlink:title=" ">
<polygon fill="white" stroke="#666666" points="418.12,-820.12 312.88,-820.12 312.88,-799.38 418.12,-799.38 418.12,-820.12"/>
<text xml:space="preserve" text-anchor="middle" x="365.5" y="-806.62" font-family="Helvetica,sans-Serif" font-size="10.00">configure_ui_page</text>
</a>
</g>
</g>
<!-- Node172&#45;&gt;Node296 -->
<g id="edge10_Node000172_Node000296" class="edge">
<title>Node172&#45;&gt;Node296</title>
<g id="a_edge10_Node000172_Node000296"><a xlink:title=" ">
<path fill="none" stroke="#63b8ff" d="M223.09,-738.61C234.37,-741.58 246.21,-745.79 256.25,-751.75 276.26,-763.62 272.31,-777.76 292.25,-789.75 295.37,-791.63 298.68,-793.33 302.09,-794.88"/>
<polygon fill="#63b8ff" stroke="#63b8ff" points="300.56,-798.04 311.14,-798.51 303.16,-791.54 300.56,-798.04"/>
</a>
</g>
</g>
<!-- Node297 -->
<g id="Node000297" class="node">
<title>Node297</title>
<g id="a_Node000297"><a xlink:href="kest__ui_8c.html#aab9f2e82d67858edd53fd09370687007" target="_top" xlink:title=" ">
<polygon fill="#fff0f0" stroke="red" points="408,-781.12 323,-781.12 323,-760.38 408,-760.38 408,-781.12"/>
<text xml:space="preserve" text-anchor="middle" x="365.5" y="-767.62" font-family="Helvetica,sans-Serif" font-size="10.00">enter_ui_page</text>
</a>
</g>
</g>
<!-- Node172&#45;&gt;Node297 -->
<g id="edge11_Node000172_Node000297" class="edge">
<title>Node172&#45;&gt;Node297</title>
<g id="a_edge11_Node000172_Node000297"><a xlink:title=" ">
<path fill="none" stroke="#63b8ff" d="M223.27,-740.8C249.57,-746.37 283.5,-753.57 311.51,-759.51"/>
<polygon fill="#63b8ff" stroke="#63b8ff" points="310.73,-762.92 321.24,-761.57 312.18,-756.08 310.73,-762.92"/>
</a>
</g>
</g>
<!-- Node299 -->
<g id="Node000299" class="node">
<title>Node299</title>
<g id="a_Node000299"><a xlink:href="kest__context_8c.html#a9eec45af3bef4cc85ead192e80d4a524" target="_top" xlink:title=" ">
<polygon fill="#fff0f0" stroke="red" points="418.5,-742.5 312.5,-742.5 312.5,-709 418.5,-709 418.5,-742.5"/>
<text xml:space="preserve" text-anchor="start" x="320.5" y="-729" font-family="Helvetica,sans-Serif" font-size="10.00">cxt_get_profile_by</text>
<text xml:space="preserve" text-anchor="middle" x="365.5" y="-716.25" font-family="Helvetica,sans-Serif" font-size="10.00">_fname</text>
</a>
</g>
</g>
<!-- Node298&#45;&gt;Node299 -->
<g id="edge13_Node000298_Node000299" class="edge">
<title>Node298&#45;&gt;Node299</title>
<g id="a_edge13_Node000298_Node000299"><a xlink:title=" ">
<path fill="none" stroke="#63b8ff" d="M199.6,-652.61C221.51,-664.91 258.83,-685.13 292.25,-699.75 295.84,-701.32 299.56,-702.87 303.33,-704.39"/>
<polygon fill="#63b8ff" stroke="#63b8ff" points="302.02,-707.64 312.61,-708.01 304.57,-701.12 302.02,-707.64"/>
</a>
</g>
</g>
<!-- Node302 -->
<g id="Node000302" class="node">
<title>Node302</title>
<g id="a_Node000302"><a xlink:href="kest__context_8c.html#a8552a503ff5b29bf2aae656e67cd915d" target="_top" xlink:title=" ">
<polygon fill="#fff0f0" stroke="red" points="432,-691.12 299,-691.12 299,-670.38 432,-670.38 432,-691.12"/>
<text xml:space="preserve" text-anchor="middle" x="365.5" y="-677.62" font-family="Helvetica,sans-Serif" font-size="10.00">kest_cxt_set_input_gain</text>
</a>
</g>
</g>
<!-- Node298&#45;&gt;Node302 -->
<g id="edge14_Node000298_Node000302" class="edge">
<title>Node298&#45;&gt;Node302</title>
<g id="a_edge14_Node000298_Node000302"><a xlink:title=" ">
<path fill="none" stroke="#63b8ff" d="M231.84,-652.61C253.67,-657.24 279.33,-662.69 302.24,-667.54"/>
<polygon fill="#63b8ff" stroke="#63b8ff" points="301.25,-670.91 311.76,-669.56 302.7,-664.06 301.25,-670.91"/>
</a>
</g>
</g>
<!-- Node303 -->
<g id="Node000303" class="node">
<title>Node303</title>
<g id="a_Node000303"><a xlink:href="kest__context_8c.html#a2175ea8951fe2164e187335ff19b8777" target="_top" xlink:title=" ">
<polygon fill="#fff0f0" stroke="red" points="435.38,-652.12 295.62,-652.12 295.62,-631.38 435.38,-631.38 435.38,-652.12"/>
<text xml:space="preserve" text-anchor="middle" x="365.5" y="-638.62" font-family="Helvetica,sans-Serif" font-size="10.00">kest_cxt_set_output_gain</text>
</a>
</g>
</g>
<!-- Node298&#45;&gt;Node303 -->
<g id="edge15_Node000298_Node000303" class="edge">
<title>Node298&#45;&gt;Node303</title>
<g id="a_edge15_Node000298_Node000303"><a xlink:title=" ">
<path fill="none" stroke="#63b8ff" d="M243.13,-641.75C256.23,-641.75 270.21,-641.75 283.86,-641.75"/>
<polygon fill="#63b8ff" stroke="#63b8ff" points="283.71,-645.25 293.71,-641.75 283.71,-638.25 283.71,-645.25"/>
</a>
</g>
</g>
<!-- Node198 -->
<g id="Node000198" class="node">
<title>Node198</title>
<g id="a_Node000198"><a xlink:href="kest__context_8c.html#a46a337c8aa1724024c73026c74d90a39" target="_top" xlink:title=" ">
<polygon fill="#fff0f0" stroke="red" points="417,-613.5 314,-613.5 314,-580 417,-580 417,-613.5"/>
<text xml:space="preserve" text-anchor="start" x="322" y="-600" font-family="Helvetica,sans-Serif" font-size="10.00">set_active_profile</text>
<text xml:space="preserve" text-anchor="middle" x="365.5" y="-587.25" font-family="Helvetica,sans-Serif" font-size="10.00">_from_sequence</text>
</a>
</g>
</g>
<!-- Node298&#45;&gt;Node198 -->
<g id="edge16_Node000298_Node000198" class="edge">
<title>Node298&#45;&gt;Node198</title>
<g id="a_edge16_Node000298_Node000198"><a xlink:title=" ">
<path fill="none" stroke="#63b8ff" d="M224.67,-630.97C247.99,-625.26 277.02,-618.16 302.57,-611.91"/>
<polygon fill="#63b8ff" stroke="#63b8ff" points="303.31,-615.33 312.19,-609.55 301.64,-608.53 303.31,-615.33"/>
</a>
</g>
</g>
<!-- Node305 -->
<g id="Node000305" class="node">
<title>Node305</title>
<g id="a_Node000305"><a xlink:href="kest__fpga__encoding_8c.html#a846915834c09759d6445b5dffc45b723" target="_top" xlink:title=" ">
<polygon fill="#fff0f0" stroke="red" points="427.12,-510.12 303.88,-510.12 303.88,-489.38 427.12,-489.38 427.12,-510.12"/>
<text xml:space="preserve" text-anchor="middle" x="365.5" y="-496.62" font-family="Helvetica,sans-Serif" font-size="10.00">kest_fpga_batch_print</text>
</a>
</g>
</g>
<!-- Node304&#45;&gt;Node305 -->
<g id="edge19_Node000304_Node000305" class="edge">
<title>Node304&#45;&gt;Node305</title>
<g id="a_edge19_Node000304_Node000305"><a xlink:title=" ">
<path fill="none" stroke="#63b8ff" d="M190.64,-401.36C208.99,-420.18 250.03,-459.42 292.25,-480.75 295.33,-482.31 298.56,-483.75 301.86,-485.08"/>
<polygon fill="#63b8ff" stroke="#63b8ff" points="300.58,-488.33 311.17,-488.44 302.96,-481.75 300.58,-488.33"/>
</a>
</g>
</g>
<!-- Node313 -->
<g id="Node000313" class="node">
<title>Node313</title>
<g id="a_Node000313"><a xlink:href="kest__fpga__io_8c.html#a1a1501e2223a5cddbecfb2b92c9d9705" target="_top" xlink:title=" ">
<polygon fill="white" stroke="#666666" points="431.62,-471.5 299.38,-471.5 299.38,-438 431.62,-438 431.62,-471.5"/>
<text xml:space="preserve" text-anchor="start" x="307.38" y="-458" font-family="Helvetica,sans-Serif" font-size="10.00">kest_fpga_command_to</text>
<text xml:space="preserve" text-anchor="middle" x="365.5" y="-445.25" font-family="Helvetica,sans-Serif" font-size="10.00">_string</text>
</a>
</g>
</g>
<!-- Node304&#45;&gt;Node313 -->
<g id="edge20_Node000304_Node000313" class="edge">
<title>Node304&#45;&gt;Node313</title>
<g id="a_edge20_Node000304_Node000313"><a xlink:title=" ">
<path fill="none" stroke="#63b8ff" d="M211.82,-401.61C237.11,-410.41 273.52,-423.08 304.43,-433.84"/>
<polygon fill="#63b8ff" stroke="#63b8ff" points="303.09,-437.08 313.68,-437.06 305.39,-430.47 303.09,-437.08"/>
</a>
</g>
</g>
<!-- Node314 -->
<g id="Node000314" class="node">
<title>Node314</title>
<g id="a_Node000314"><a xlink:href="kest__fpga__io_8c.html#ab908dedc52b0ca9107f52f74ab7860c6" target="_top" xlink:title=" ">
<polygon fill="#fff0f0" stroke="red" points="424.12,-420.12 306.88,-420.12 306.88,-399.38 424.12,-399.38 424.12,-420.12"/>
<text xml:space="preserve" text-anchor="middle" x="365.5" y="-406.62" font-family="Helvetica,sans-Serif" font-size="10.00">kest_fpga_read_byte</text>
</a>
</g>
</g>
<!-- Node304&#45;&gt;Node314 -->
<g id="edge21_Node000304_Node000314" class="edge">
<title>Node304&#45;&gt;Node314</title>
<g id="a_edge21_Node000304_Node000314"><a xlink:title=" ">
<path fill="none" stroke="#63b8ff" d="M245.45,-397.45C261.58,-399.12 278.93,-400.91 295.27,-402.6"/>
<polygon fill="#63b8ff" stroke="#63b8ff" points="294.57,-406.04 304.88,-403.59 295.29,-399.08 294.57,-406.04"/>
</a>
</g>
</g>
<!-- Node316 -->
<g id="Node000316" class="node">
<title>Node316</title>
<g id="a_Node000316"><a xlink:href="kest__fpga__io_8c.html#a5151b31faf4c75059d9d8bd1d27fa5f9" target="_top" xlink:title=" ">
<polygon fill="#fff0f0" stroke="red" points="593.5,-344.12 474.75,-344.12 474.75,-323.38 593.5,-323.38 593.5,-344.12"/>
<text xml:space="preserve" text-anchor="middle" x="534.12" y="-330.62" font-family="Helvetica,sans-Serif" font-size="10.00">kest_fpga_send_byte</text>
</a>
</g>
</g>
<!-- Node304&#45;&gt;Node316 -->
<g id="edge22_Node000304_Node000316" class="edge">
<title>Node304&#45;&gt;Node316</title>
<g id="a_edge22_Node000304_Node000316"><a xlink:title=" ">
<path fill="none" stroke="#63b8ff" d="M245.49,-382.16C297.78,-375.01 373.15,-364.17 438.75,-352.75 449.14,-350.94 460.14,-348.87 470.81,-346.78"/>
<polygon fill="#63b8ff" stroke="#63b8ff" points="471.18,-350.27 480.3,-344.89 469.81,-343.41 471.18,-350.27"/>
</a>
</g>
</g>
<!-- Node317 -->
<g id="Node000317" class="node">
<title>Node317</title>
<g id="a_Node000317"><a xlink:href="kest__fpga__io_8c.html#a0e6e4e058cfd8f3ec79208acb0f71aa6" target="_top" xlink:title=" ">
<polygon fill="#fff0f0" stroke="red" points="435.38,-344.12 295.62,-344.12 295.62,-323.38 435.38,-323.38 435.38,-344.12"/>
<text xml:space="preserve" text-anchor="middle" x="365.5" y="-330.62" font-family="Helvetica,sans-Serif" font-size="10.00">kest_fpga_set_input_gain</text>
</a>
</g>
</g>
<!-- Node304&#45;&gt;Node317 -->
<g id="edge23_Node000304_Node000317" class="edge">
<title>Node304&#45;&gt;Node317</title>
<g id="a_edge23_Node000304_Node000317"><a xlink:title=" ">
<path fill="none" stroke="#63b8ff" d="M224,-379.98C234.6,-377.15 245.88,-373.99 256.25,-370.75 272.49,-365.68 276.18,-363.32 292.25,-357.75 301.41,-354.58 311.24,-351.25 320.62,-348.12"/>
<polygon fill="#63b8ff" stroke="#63b8ff" points="321.52,-351.51 329.91,-345.04 319.32,-344.87 321.52,-351.51"/>
</a>
</g>
</g>
<!-- Node318 -->
<g id="Node000318" class="node">
<title>Node318</title>
<g id="a_Node000318"><a xlink:href="kest__fpga__io_8c.html#a6569f6bf656d72080dd355179ac2c4e9" target="_top" xlink:title=" ">
<polygon fill="#fff0f0" stroke="red" points="438.75,-305.12 292.25,-305.12 292.25,-284.38 438.75,-284.38 438.75,-305.12"/>
<text xml:space="preserve" text-anchor="middle" x="365.5" y="-291.62" font-family="Helvetica,sans-Serif" font-size="10.00">kest_fpga_set_output_gain</text>
</a>
</g>
</g>
<!-- Node304&#45;&gt;Node318 -->
<g id="edge25_Node000304_Node000318" class="edge">
<title>Node304&#45;&gt;Node318</title>
<g id="a_edge25_Node000304_Node000318"><a xlink:title=" ">
<path fill="none" stroke="#63b8ff" d="M239.22,-380.03C245.27,-377.56 251.09,-374.51 256.25,-370.75 280.18,-353.34 268.43,-332.3 292.25,-314.75 294.29,-313.25 296.45,-311.85 298.68,-310.57"/>
<polygon fill="#63b8ff" stroke="#63b8ff" points="300.08,-313.78 307.52,-306.23 297,-307.49 300.08,-313.78"/>
</a>
</g>
</g>
<!-- Node319 -->
<g id="Node000319" class="node">
<title>Node319</title>
<g id="a_Node000319"><a xlink:href="kest__fpga__io_8c.html#a8b41ed8feb0e991733a9af1a8f8acc20" target="_top" xlink:title=" ">
<polygon fill="white" stroke="#666666" points="417.38,-266.12 313.62,-266.12 313.62,-245.38 417.38,-245.38 417.38,-266.12"/>
<text xml:space="preserve" text-anchor="middle" x="365.5" y="-252.62" font-family="Helvetica,sans-Serif" font-size="10.00">kest_fpga_spi_init</text>
</a>
</g>
</g>
<!-- Node304&#45;&gt;Node319 -->
<g id="edge27_Node000304_Node000319" class="edge">
<title>Node304&#45;&gt;Node319</title>
<g id="a_edge27_Node000304_Node000319"><a xlink:title=" ">
<path fill="none" stroke="#63b8ff" d="M242.3,-380.01C247.36,-377.52 252.11,-374.48 256.25,-370.75 289.79,-340.52 258.89,-306.17 292.25,-275.75 295.42,-272.86 298.97,-270.39 302.75,-268.26"/>
<polygon fill="#63b8ff" stroke="#63b8ff" points="304.21,-271.44 311.81,-264.07 301.26,-265.09 304.21,-271.44"/>
</a>
</g>
</g>
<!-- Node320 -->
<g id="Node000320" class="node">
<title>Node320</title>
<g id="a_Node000320"><a xlink:href="kest__fpga__io_8c.html#ae911bef59743e59043a283dac1be0761" target="_top" xlink:title=" ">
<polygon fill="#fff0f0" stroke="red" points="418.88,-227.5 312.12,-227.5 312.12,-194 418.88,-194 418.88,-227.5"/>
<text xml:space="preserve" text-anchor="start" x="320.12" y="-214" font-family="Helvetica,sans-Serif" font-size="10.00">kest_fpga_transfer</text>
<text xml:space="preserve" text-anchor="middle" x="365.5" y="-201.25" font-family="Helvetica,sans-Serif" font-size="10.00">_batch_send</text>
</a>
</g>
</g>
<!-- Node304&#45;&gt;Node320 -->
<g id="edge28_Node000304_Node000320" class="edge">
<title>Node304&#45;&gt;Node320</title>
<g id="a_edge28_Node000304_Node000320"><a xlink:title=" ">
<path fill="none" stroke="#63b8ff" d="M243.43,-380.06C248.13,-377.55 252.5,-374.49 256.25,-370.75 299.94,-327.23 250.49,-282.13 292.25,-236.75 295.13,-233.62 298.41,-230.87 301.95,-228.45"/>
<polygon fill="#63b8ff" stroke="#63b8ff" points="303.58,-231.55 310.51,-223.54 300.09,-225.48 303.58,-231.55"/>
</a>
</g>
</g>
<!-- Node77 -->
<g id="Node000077" class="node">
<title>Node77</title>
<g id="a_Node000077"><a xlink:href="kest__fpga__io_8c.html#aa1e89a33f9427932bc0d8e62bbfed3cb" target="_top" xlink:title=" ">
<polygon fill="#fff0f0" stroke="red" points="431.25,-175.5 299.75,-175.5 299.75,-142 431.25,-142 431.25,-175.5"/>
<text xml:space="preserve" text-anchor="start" x="307.75" y="-162" font-family="Helvetica,sans-Serif" font-size="10.00">kest_free_fpga_transfer</text>
<text xml:space="preserve" text-anchor="middle" x="365.5" y="-149.25" font-family="Helvetica,sans-Serif" font-size="10.00">_batch</text>
</a>
</g>
</g>
<!-- Node304&#45;&gt;Node77 -->
<g id="edge29_Node000304_Node000077" class="edge">
<title>Node304&#45;&gt;Node77</title>
<g id="a_edge29_Node000304_Node000077"><a xlink:title=" ">
<path fill="none" stroke="#63b8ff" d="M244.43,-379.94C248.8,-377.45 252.82,-374.42 256.25,-370.75 313.75,-309.24 237.48,-248.7 292.25,-184.75 292.7,-184.23 293.16,-183.72 293.62,-183.22"/>
<polygon fill="#63b8ff" stroke="#63b8ff" points="295.61,-186.12 300.91,-176.95 291.05,-180.82 295.61,-186.12"/>
</a>
</g>
</g>
<!-- Node317&#45;&gt;Node316 -->
<g id="edge24_Node000317_Node000316" class="edge">
<title>Node317&#45;&gt;Node316</title>
<g id="a_edge24_Node000317_Node000316"><a xlink:title=" ">
<path fill="none" stroke="#63b8ff" d="M435.72,-333.75C444.77,-333.75 454.05,-333.75 463.12,-333.75"/>
<polygon fill="#63b8ff" stroke="#63b8ff" points="462.94,-337.25 472.94,-333.75 462.94,-330.25 462.94,-337.25"/>
</a>
</g>
</g>
<!-- Node318&#45;&gt;Node316 -->
<g id="edge26_Node000318_Node000316" class="edge">
<title>Node318&#45;&gt;Node316</title>
<g id="a_edge26_Node000318_Node000316"><a xlink:title=" ">
<path fill="none" stroke="#63b8ff" d="M412.91,-305.61C432.33,-310.16 455.1,-315.49 475.57,-320.28"/>
<polygon fill="#63b8ff" stroke="#63b8ff" points="474.66,-323.66 485.2,-322.53 476.26,-316.85 474.66,-323.66"/>
</a>
</g>
</g>
<!-- Node92 -->
<g id="Node000092" class="node">
<title>Node92</title>
<g id="a_Node000092"><a xlink:href="kest__parameter_8c.html#a2b94ddb1588d1a5af4311970bb068122" target="_top" xlink:title=" ">
<polygon fill="#fff0f0" stroke="red" points="409.5,-124.12 321.5,-124.12 321.5,-103.38 409.5,-103.38 409.5,-124.12"/>
<text xml:space="preserve" text-anchor="middle" x="365.5" y="-110.62" font-family="Helvetica,sans-Serif" font-size="10.00">init_parameter</text>
</a>
</g>
</g>
<!-- Node321&#45;&gt;Node92 -->
<g id="edge31_Node000321_Node000092" class="edge">
<title>Node321&#45;&gt;Node92</title>
<g id="a_edge31_Node000321_Node000092"><a xlink:title=" ">
<path fill="none" stroke="#63b8ff" d="M229.44,-347.36C239.49,-344.3 249.16,-339.43 256.25,-331.75 317.23,-265.72 231.23,-198.74 292.25,-132.75 297.34,-127.25 303.81,-123.26 310.78,-120.39"/>
<polygon fill="#63b8ff" stroke="#63b8ff" points="311.42,-123.86 319.81,-117.4 309.22,-117.22 311.42,-123.86"/>
</a>
</g>
</g>
<!-- Node322 -->
<g id="Node000322" class="node">
<title>Node322</title>
<g id="a_Node000322"><a xlink:href="kest__context_8c.html#ac93ad47b7b693a17e3416824b4c416ad" target="_top" xlink:title=" ">
<polygon fill="#fff0f0" stroke="red" points="430.12,-85.5 300.88,-85.5 300.88,-52 430.12,-52 430.12,-85.5"/>
<text xml:space="preserve" text-anchor="start" x="308.88" y="-72" font-family="Helvetica,sans-Serif" font-size="10.00">kest_context_init_main</text>
<text xml:space="preserve" text-anchor="middle" x="365.5" y="-59.25" font-family="Helvetica,sans-Serif" font-size="10.00">_sequence</text>
</a>
</g>
</g>
<!-- Node321&#45;&gt;Node322 -->
<g id="edge32_Node000321_Node000322" class="edge">
<title>Node321&#45;&gt;Node322</title>
<g id="a_edge32_Node000321_Node000322"><a xlink:title=" ">
<path fill="none" stroke="#63b8ff" d="M229.6,-347.5C239.64,-344.44 249.26,-339.53 256.25,-331.75 327.42,-252.46 224.59,-177.05 292.25,-94.75 292.6,-94.33 292.96,-93.91 293.32,-93.5"/>
<polygon fill="#63b8ff" stroke="#63b8ff" points="295.65,-96.11 300.77,-86.84 290.98,-90.89 295.65,-96.11"/>
</a>
</g>
</g>
<!-- Node323 -->
<g id="Node000323" class="node">
<title>Node323</title>
<g id="a_Node000323"><a xlink:href="kest__state_8c.html#a2c43a0057886626aaebb61a5d017da31" target="_top" xlink:title=" ">
<polygon fill="#fff0f0" stroke="red" points="436.88,-33.5 294.12,-33.5 294.12,0 436.88,0 436.88,-33.5"/>
<text xml:space="preserve" text-anchor="start" x="302.12" y="-20" font-family="Helvetica,sans-Serif" font-size="10.00">kest_state_representation</text>
<text xml:space="preserve" text-anchor="middle" x="365.5" y="-7.25" font-family="Helvetica,sans-Serif" font-size="10.00">_update</text>
</a>
</g>
</g>
<!-- Node321&#45;&gt;Node323 -->
<g id="edge33_Node000321_Node000323" class="edge">
<title>Node321&#45;&gt;Node323</title>
<g id="a_edge33_Node000321_Node000323"><a xlink:title=" ">
<path fill="none" stroke="#63b8ff" d="M229.75,-347.64C239.79,-344.57 249.37,-339.62 256.25,-331.75 341.41,-234.28 211.4,-143.83 292.25,-42.75 292.58,-42.33 292.92,-41.92 293.27,-41.52"/>
<polygon fill="#63b8ff" stroke="#63b8ff" points="295.37,-44.35 300.36,-35.01 290.63,-39.19 295.37,-44.35"/>
</a>
</g>
</g>
<!-- Node366&#45;&gt;Node49 -->
<g id="edge39_Node000366_Node000049" class="edge">
<title>Node366&#45;&gt;Node49</title>
<g id="a_edge39_Node000366_Node000049"><a xlink:title=" ">
<path fill="none" stroke="#63b8ff" d="M217.83,-544.75C241.25,-544.75 272.11,-544.75 299.48,-544.75"/>
<polygon fill="#63b8ff" stroke="#63b8ff" points="299.45,-548.25 309.45,-544.75 299.45,-541.25 299.45,-548.25"/>
</a>
</g>
</g>
<!-- Node511&#45;&gt;Node39 -->
<g id="edge41_Node000511_Node000039" class="edge">
<title>Node511&#45;&gt;Node39</title>
<g id="a_edge41_Node000511_Node000039"><a xlink:title=" ">
<path fill="none" stroke="#63b8ff" d="M236.79,-887.75C263.96,-887.75 296.07,-887.75 321.29,-887.75"/>
<polygon fill="#63b8ff" stroke="#63b8ff" points="321.2,-891.25 331.2,-887.75 321.2,-884.25 321.2,-891.25"/>
</a>
</g>
</g>
<!-- Node517&#45;&gt;Node39 -->
<g id="edge43_Node000517_Node000039" class="edge">
<title>Node517&#45;&gt;Node39</title>
<g id="a_edge43_Node000517_Node000039"><a xlink:title=" ">
<path fill="none" stroke="#63b8ff" d="M231.84,-859.61C260.2,-865.63 295.04,-873.02 321.9,-878.71"/>
<polygon fill="#63b8ff" stroke="#63b8ff" points="320.89,-882.08 331.4,-880.73 322.34,-875.23 320.89,-882.08"/>
</a>
</g>
</g>
<!-- Node521&#45;&gt;Node39 -->
<g id="edge45_Node000521_Node000039" class="edge">
<title>Node521&#45;&gt;Node39</title>
<g id="a_edge45_Node000521_Node000039"><a xlink:title=" ">
<path fill="none" stroke="#63b8ff" d="M236.19,-820.61C243.19,-823.07 250.06,-826.08 256.25,-829.75 276.26,-841.62 272.31,-855.76 292.25,-867.75 301.17,-873.11 311.56,-877.07 321.63,-879.99"/>
<polygon fill="#63b8ff" stroke="#63b8ff" points="320.76,-883.38 331.31,-882.47 322.5,-876.6 320.76,-883.38"/>
</a>
</g>
</g>
</g>
</svg>
