<?xml version="1.0" encoding="UTF-8" standalone="no"?>
<!DOCTYPE svg PUBLIC "-//W3C//DTD SVG 1.1//EN"
 "http://www.w3.org/Graphics/SVG/1.1/DTD/svg11.dtd">
<!-- Generated by graphviz version 13.1.2 (20250808.2320)
 -->
<!-- Title: kest_expression_detect_constants_rec Pages: 1 -->
<svg width="303pt" height="82pt"
 viewBox="0.00 0.00 303.00 82.00" xmlns="http://www.w3.org/2000/svg" xmlns:xlink="http://www.w3.org/1999/xlink">
<g id="graph0" class="graph" transform="scale(1 1) rotate(0) translate(4 77.5)">
<title>kest_expression_detect_constants_rec</title>
<!-- Node1 -->
<g id="Node000001" class="node">
<title>Node1</title>
<g id="a_Node000001"><a xlink:title=" ">
<polygon fill="#999999" stroke="#666666" points="130.75,-55.5 0,-55.5 0,-22 130.75,-22 130.75,-55.5"/>
<text xml:space="preserve" text-anchor="start" x="8" y="-42" font-family="Helvetica,sans-Serif" font-size="10.00">kest_expression_detect</text>
<text xml:space="preserve" text-anchor="middle" x="65.38" y="-29.25" font-family="Helvetica,sans-Serif" font-size="10.00">_constants_rec</text>
</a>
</g>
</g>
<!-- Node1&#45;&gt;Node1 -->
<g id="edge2_Node000001_Node000001" class="edge">
<title>Node1&#45;&gt;Node1</title>
<g id="a_edge2_Node000001_Node000001"><a xlink:title=" ">
<path fill="none" stroke="#63b8ff" d="M35.6,-55.91C30.54,-65.12 40.47,-73.5 65.38,-73.5 79.39,-73.5 88.66,-70.85 93.18,-66.89"/>
<polygon fill="#63b8ff" stroke="#63b8ff" points="96.57,-67.86 94.88,-57.4 89.68,-66.63 96.57,-67.86"/>
</a>
</g>
</g>
<!-- Node2 -->
<g id="Node000002" class="node">
<title>Node2</title>
<g id="a_Node000002"><a xlink:href="kest__expression_8c.html#a835e180e79c6b6d2e4377a528949d7a0" target="_top" xlink:title=" ">
<polygon fill="white" stroke="#666666" points="292.25,-72.12 169.75,-72.12 169.75,-51.38 292.25,-51.38 292.25,-72.12"/>
<text xml:space="preserve" text-anchor="middle" x="231" y="-58.62" font-family="Helvetica,sans-Serif" font-size="10.00">kest_expression_arity</text>
</a>
</g>
</g>
<!-- Node1&#45;&gt;Node2 -->
<g id="edge1_Node000001_Node000002" class="edge">
<title>Node1&#45;&gt;Node2</title>
<g id="a_edge1_Node000001_Node000002"><a xlink:title=" ">
<path fill="none" stroke="#63b8ff" d="M131.04,-47.84C139.9,-49.09 149.04,-50.37 158.01,-51.63"/>
<polygon fill="#63b8ff" stroke="#63b8ff" points="157.38,-55.08 167.77,-53 158.35,-48.14 157.38,-55.08"/>
</a>
</g>
</g>
<!-- Node3 -->
<g id="Node000003" class="node">
<title>Node3</title>
<g id="a_Node000003"><a xlink:href="kest__expression_8c.html#af12e3464d3e6c4a6e573736af368fd91" target="_top" xlink:title=" ">
<polygon fill="white" stroke="#666666" points="295.25,-33.5 166.75,-33.5 166.75,0 295.25,0 295.25,-33.5"/>
<text xml:space="preserve" text-anchor="start" x="174.75" y="-20" font-family="Helvetica,sans-Serif" font-size="10.00">kest_expression_refers</text>
<text xml:space="preserve" text-anchor="middle" x="231" y="-7.25" font-family="Helvetica,sans-Serif" font-size="10.00">_constant</text>
</a>
</g>
</g>
<!-- Node1&#45;&gt;Node3 -->
<g id="edge3_Node000001_Node000003" class="edge">
<title>Node1&#45;&gt;Node3</title>
<g id="a_edge3_Node000001_Node000003"><a xlink:title=" ">
<path fill="none" stroke="#63b8ff" d="M131.04,-30.06C138.94,-28.99 147.05,-27.9 155.08,-26.82"/>
<polygon fill="#63b8ff" stroke="#63b8ff" points="155.39,-30.31 164.84,-25.51 154.46,-23.38 155.39,-30.31"/>
</a>
</g>
</g>
</g>
</svg>
