<?xml version="1.0" encoding="UTF-8" standalone="no"?>
<!DOCTYPE svg PUBLIC "-//W3C//DTD SVG 1.1//EN"
 "http://www.w3.org/Graphics/SVG/1.1/DTD/svg11.dtd">
<!-- Generated by graphviz version 13.1.2 (20250808.2320)
 -->
<!-- Title: kest_new_expr_scope Pages: 1 -->
<svg width="635pt" height="94pt"
 viewBox="0.00 0.00 635.00 94.00" xmlns="http://www.w3.org/2000/svg" xmlns:xlink="http://www.w3.org/1999/xlink">
<g id="graph0" class="graph" transform="scale(1 1) rotate(0) translate(4 89.5)">
<title>kest_new_expr_scope</title>
<!-- Node1 -->
<g id="Node000001" class="node">
<title>Node1</title>
<g id="a_Node000001"><a xlink:title=" ">
<polygon fill="#999999" stroke="#666666" points="626.5,-53.12 504,-53.12 504,-32.38 626.5,-32.38 626.5,-53.12"/>
<text xml:space="preserve" text-anchor="middle" x="565.25" y="-39.62" font-family="Helvetica,sans-Serif" font-size="10.00">kest_new_expr_scope</text>
</a>
</g>
</g>
<!-- Node2 -->
<g id="Node000002" class="node">
<title>Node2</title>
<g id="a_Node000002"><a xlink:href="kest__eff__desc_8c.html#aaf8a3f8e6d2ba98da34712a2a5f629f1" target="_top" xlink:title=" ">
<polygon fill="white" stroke="#666666" points="468,-85.5 349.25,-85.5 349.25,-52 468,-52 468,-85.5"/>
<text xml:space="preserve" text-anchor="start" x="357.25" y="-72" font-family="Helvetica,sans-Serif" font-size="10.00">kest_eff_desc_create</text>
<text xml:space="preserve" text-anchor="middle" x="408.62" y="-59.25" font-family="Helvetica,sans-Serif" font-size="10.00">_scope</text>
</a>
</g>
</g>
<!-- Node1&#45;&gt;Node2 -->
<g id="edge1_Node000001_Node000002" class="edge">
<title>Node1&#45;&gt;Node2</title>
<g id="a_edge1_Node000001_Node000002"><a xlink:title=" ">
<path fill="none" stroke="#63b8ff" d="M492.32,-54.85C484.29,-56.2 476.18,-57.56 468.35,-58.88"/>
<polygon fill="#63b8ff" stroke="#63b8ff" points="492.81,-58.31 502.09,-53.2 491.65,-51.41 492.81,-58.31"/>
</a>
</g>
</g>
<!-- Node3 -->
<g id="Node000003" class="node">
<title>Node3</title>
<g id="a_Node000003"><a xlink:href="kest__effect_8c.html#ad36244b2279575200cc5265d2e25dfdd" target="_top" xlink:title=" ">
<polygon fill="white" stroke="#666666" points="461.62,-33.5 355.62,-33.5 355.62,0 461.62,0 461.62,-33.5"/>
<text xml:space="preserve" text-anchor="start" x="363.62" y="-20" font-family="Helvetica,sans-Serif" font-size="10.00">kest_effect_create</text>
<text xml:space="preserve" text-anchor="middle" x="408.62" y="-7.25" font-family="Helvetica,sans-Serif" font-size="10.00">_scope</text>
</a>
</g>
</g>
<!-- Node1&#45;&gt;Node3 -->
<g id="edge2_Node000001_Node000003" class="edge">
<title>Node1&#45;&gt;Node3</title>
<g id="a_edge2_Node000001_Node000003"><a xlink:title=" ">
<path fill="none" stroke="#63b8ff" d="M492.54,-30.69C482.28,-28.97 471.89,-27.22 462.1,-25.57"/>
<polygon fill="#63b8ff" stroke="#63b8ff" points="491.65,-34.09 502.09,-32.3 492.81,-27.19 491.65,-34.09"/>
</a>
</g>
</g>
<!-- Node4 -->
<g id="Node000004" class="node">
<title>Node4</title>
<g id="a_Node000004"><a xlink:href="kest__effect_8c.html#a85b25e44e2629962673634f965ffe304" target="_top" xlink:title=" ">
<polygon fill="white" stroke="#666666" points="313.25,-27.12 157.75,-27.12 157.75,-6.38 313.25,-6.38 313.25,-27.12"/>
<text xml:space="preserve" text-anchor="middle" x="235.5" y="-13.62" font-family="Helvetica,sans-Serif" font-size="10.00">init_effect_from_effect_desc</text>
</a>
</g>
</g>
<!-- Node3&#45;&gt;Node4 -->
<g id="edge3_Node000003_Node000004" class="edge">
<title>Node3&#45;&gt;Node4</title>
<g id="a_edge3_Node000003_Node000004"><a xlink:title=" ">
<path fill="none" stroke="#63b8ff" d="M343.98,-16.75C334.1,-16.75 323.79,-16.75 313.65,-16.75"/>
<polygon fill="#63b8ff" stroke="#63b8ff" points="343.84,-20.25 353.84,-16.75 343.84,-13.25 343.84,-20.25"/>
</a>
</g>
</g>
<!-- Node5 -->
<g id="Node000005" class="node">
<title>Node5</title>
<g id="a_Node000005"><a xlink:href="kest__pipeline_8c.html#a0eff55a4103a090993bbac228a981af6" target="_top" xlink:title=" ">
<polygon fill="#fff0f0" stroke="red" points="121.75,-33.5 0,-33.5 0,0 121.75,0 121.75,-33.5"/>
<text xml:space="preserve" text-anchor="start" x="8" y="-20" font-family="Helvetica,sans-Serif" font-size="10.00">kest_pipeline_append</text>
<text xml:space="preserve" text-anchor="middle" x="60.88" y="-7.25" font-family="Helvetica,sans-Serif" font-size="10.00">_effect_eff</text>
</a>
</g>
</g>
<!-- Node4&#45;&gt;Node5 -->
<g id="edge4_Node000004_Node000005" class="edge">
<title>Node4&#45;&gt;Node5</title>
<g id="a_edge4_Node000004_Node000005"><a xlink:title=" ">
<path fill="none" stroke="#63b8ff" d="M145.93,-16.75C137.9,-16.75 129.9,-16.75 122.2,-16.75"/>
<polygon fill="#63b8ff" stroke="#63b8ff" points="145.76,-20.25 155.76,-16.75 145.76,-13.25 145.76,-20.25"/>
</a>
</g>
</g>
</g>
</svg>
