<?xml version="1.0" encoding="UTF-8" standalone="no"?>
<!DOCTYPE svg PUBLIC "-//W3C//DTD SVG 1.1//EN"
 "http://www.w3.org/Graphics/SVG/1.1/DTD/svg11.dtd">
<!-- Generated by graphviz version 13.1.2 (20250808.2320)
 -->
<!-- Title: create_sequence_view_ui Pages: 1 -->
<!--zoomable 410 -->

<svg id="main" version="1.1" xmlns="http://www.w3.org/2000/svg" xmlns:xlink="http://www.w3.org/1999/xlink" xml:space="preserve" onload="init(evt)">

<style type="text/css"><![CDATA[
.node, .edge {opacity: 0.7;}
.node.selected, .edge.selected {opacity: 1;}
.edge:hover path { stroke: red; }
.edge:hover polygon { stroke: red; fill: red; }
]]></style>

<defs>
  <circle id="rim" cx="0" cy="0" r="7"/>
  <circle id="rim2" cx="0" cy="0" r="3.5"/>
  <g id="zoomPlus">
    <use xlink:href="#rim" fill="#404040"><set attributeName="fill" to="#808080" begin="zoomplus.mouseover" end="zoomplus.mouseout"/></use>
    <path d="M-4,0h8M0,-4v8" fill="none" stroke="white" stroke-width="1.5" pointer-events="none"/>
  </g>
  <g id="zoomMin">
    <use xlink:href="#rim" fill="#404040"><set attributeName="fill" to="#808080" begin="zoomminus.mouseover" end="zoomminus.mouseout"/></use>
    <path d="M-4,0h8" fill="none" stroke="white" stroke-width="1.5" pointer-events="none"/>
  </g>
  <g id="arrowUp" transform="translate(30 24)">
    <use xlink:href="#rim"/>
    <path pointer-events="none" fill="none" stroke="white" stroke-width="1.5" d="M0,-3.0v7 M-2.5,-0.5L0,-3.0L2.5,-0.5"/>
  </g>
  <g id="arrowRight" transform="rotate(90) translate(36 -43)">
    <use xlink:href="#rim"/>
    <path pointer-events="none" fill="none" stroke="white" stroke-width="1.5" d="M0,-3.0v7 M-2.5,-0.5L0,-3.0L2.5,-0.5"/>
  </g>
  <g id="arrowDown" transform="rotate(180) translate(-30 -48)">
    <use xlink:href="#rim"/>
    <path pointer-events="none" fill="none" stroke="white" stroke-width="1.5" d="M0,-3.0v7 M-2.5,-0.5L0,-3.0L2.5,-0.5"/>
  </g>
  <g id="arrowLeft" transform="rotate(270) translate(-36 17)">
    <use xlink:href="#rim"/>
    <path pointer-events="none" fill="none" stroke="white" stroke-width="1.5" d="M0,-3.0v7 M-2.5,-0.5L0,-3.0L2.5,-0.5"/>
  </g>
  <g id="resetDef">
    <use xlink:href="#rim2" fill="#404040"><set attributeName="fill" to="#808080" begin="reset.mouseover" end="reset.mouseout"/></use>
  </g>
</defs>
<script type="application/ecmascript">
var viewWidth = 698;
var viewHeight = 410;
var sectionId = 'dynsection-4';
</script>
<script type="application/ecmascript" xlink:href="svg.min.js"/>
<svg id="graph" class="graph">
<g id="viewport">
<title>create_sequence_view_ui</title>
<!-- Node1 -->
<g id="Node000001" class="node">
<title>Node1</title>
<g id="a_Node000001"><a xlink:title=" ">
<polygon fill="#999999" stroke="#666666" points="141.25,-346.12 0,-346.12 0,-325.38 141.25,-325.38 141.25,-346.12"/>
<text xml:space="preserve" text-anchor="middle" x="70.62" y="-332.62" font-family="Helvetica,sans-Serif" font-size="10.00">create_sequence_view_ui</text>
</a>
</g>
</g>
<!-- Node2 -->
<g id="Node000002" class="node">
<title>Node2</title>
<g id="a_Node000002"><a xlink:href="kest__button_8c.html#a8b6854cbb240ab5cdc4babc281322278" target="_top" xlink:title=" ">
<polygon fill="white" stroke="#666666" points="297.88,-399.5 189.62,-399.5 189.62,-366 297.88,-366 297.88,-399.5"/>
<text xml:space="preserve" text-anchor="start" x="197.62" y="-386" font-family="Helvetica,sans-Serif" font-size="10.00">kest_active_button</text>
<text xml:space="preserve" text-anchor="middle" x="243.75" y="-373.25" font-family="Helvetica,sans-Serif" font-size="10.00">_array_create_ui</text>
</a>
</g>
</g>
<!-- Node1&#45;&gt;Node2 -->
<g id="edge1_Node000001_Node000002" class="edge">
<title>Node1&#45;&gt;Node2</title>
<g id="a_edge1_Node000001_Node000002"><a xlink:title=" ">
<path fill="none" stroke="#63b8ff" d="M110.88,-346.53C130.9,-352.03 155.75,-358.85 178.46,-365.09"/>
<polygon fill="#63b8ff" stroke="#63b8ff" points="177.38,-368.43 187.95,-367.7 179.23,-361.67 177.38,-368.43"/>
</a>
</g>
</g>
<!-- Node5 -->
<g id="Node000005" class="node">
<title>Node5</title>
<g id="a_Node000005"><a xlink:href="kest__button_8c.html#a21a7b8dcd7ffa25a3e7d230fa6a7d985" target="_top" xlink:title=" ">
<polygon fill="white" stroke="#666666" points="300.5,-346.12 187,-346.12 187,-325.38 300.5,-325.38 300.5,-346.12"/>
<text xml:space="preserve" text-anchor="middle" x="243.75" y="-332.62" font-family="Helvetica,sans-Serif" font-size="10.00">kest_button_disable</text>
</a>
</g>
</g>
<!-- Node1&#45;&gt;Node5 -->
<g id="edge5_Node000001_Node000005" class="edge">
<title>Node1&#45;&gt;Node5</title>
<g id="a_edge5_Node000001_Node000005"><a xlink:title=" ">
<path fill="none" stroke="#63b8ff" d="M141.72,-335.75C152.82,-335.75 164.28,-335.75 175.31,-335.75"/>
<polygon fill="#63b8ff" stroke="#63b8ff" points="175.11,-339.25 185.11,-335.75 175.11,-332.25 175.11,-339.25"/>
</a>
</g>
</g>
<!-- Node6 -->
<g id="Node000006" class="node">
<title>Node6</title>
<g id="a_Node000006"><a xlink:href="kest__ui_8c.html#a58a68a436917a32cc3daab2e0d4b3245" target="_top" xlink:title=" ">
<polygon fill="white" stroke="#666666" points="310.25,-304.12 177.25,-304.12 177.25,-283.38 310.25,-283.38 310.25,-304.12"/>
<text xml:space="preserve" text-anchor="middle" x="243.75" y="-290.62" font-family="Helvetica,sans-Serif" font-size="10.00">ui_page_create_base_ui</text>
</a>
</g>
</g>
<!-- Node1&#45;&gt;Node6 -->
<g id="edge6_Node000001_Node000006" class="edge">
<title>Node1&#45;&gt;Node6</title>
<g id="a_edge6_Node000001_Node000006"><a xlink:title=" ">
<path fill="none" stroke="#63b8ff" d="M115.69,-324.93C137.57,-319.57 164.21,-313.03 187.44,-307.33"/>
<polygon fill="#63b8ff" stroke="#63b8ff" points="188.19,-310.75 197.06,-304.96 186.52,-303.95 188.19,-310.75"/>
</a>
</g>
</g>
<!-- Node3 -->
<g id="Node000003" class="node">
<title>Node3</title>
<g id="a_Node000003"><a xlink:href="kest__button_8c.html#a5fdea311fb351ff8f9d27116813f35a8" target="_top" xlink:title=" ">
<polygon fill="white" stroke="#666666" points="471,-401.5 362.75,-401.5 362.75,-368 471,-368 471,-401.5"/>
<text xml:space="preserve" text-anchor="start" x="370.75" y="-388" font-family="Helvetica,sans-Serif" font-size="10.00">kest_active_button</text>
<text xml:space="preserve" text-anchor="middle" x="416.88" y="-375.25" font-family="Helvetica,sans-Serif" font-size="10.00">_create_ui</text>
</a>
</g>
</g>
<!-- Node2&#45;&gt;Node3 -->
<g id="edge2_Node000002_Node000003" class="edge">
<title>Node2&#45;&gt;Node3</title>
<g id="a_edge2_Node000002_Node000003"><a xlink:title=" ">
<path fill="none" stroke="#63b8ff" d="M297.96,-383.37C314.78,-383.57 333.56,-383.79 351.09,-383.99"/>
<polygon fill="#63b8ff" stroke="#63b8ff" points="350.85,-387.49 360.89,-384.11 350.93,-380.49 350.85,-387.49"/>
</a>
</g>
</g>
<!-- Node4 -->
<g id="Node000004" class="node">
<title>Node4</title>
<g id="a_Node000004"><a xlink:href="kest__button_8c.html#a42c4bb920da57000dbde4fa1fa26868c" target="_top" xlink:title=" ">
<polygon fill="white" stroke="#666666" points="655.75,-343.12 558,-343.12 558,-322.38 655.75,-322.38 655.75,-343.12"/>
<text xml:space="preserve" text-anchor="middle" x="606.88" y="-329.62" font-family="Helvetica,sans-Serif" font-size="10.00">create_button_ui</text>
</a>
</g>
</g>
<!-- Node3&#45;&gt;Node4 -->
<g id="edge3_Node000003_Node000004" class="edge">
<title>Node3&#45;&gt;Node4</title>
<g id="a_edge3_Node000003_Node000004"><a xlink:title=" ">
<path fill="none" stroke="#63b8ff" d="M471.5,-369.92C498.09,-362.56 530,-353.74 556.05,-346.53"/>
<polygon fill="#63b8ff" stroke="#63b8ff" points="556.66,-349.99 565.37,-343.95 554.8,-343.25 556.66,-349.99"/>
</a>
</g>
</g>
<!-- Node4&#45;&gt;Node4 -->
<g id="edge4_Node000004_Node000004" class="edge">
<title>Node4&#45;&gt;Node4</title>
<g id="a_edge4_Node000004_Node000004"><a xlink:title=" ">
<path fill="none" stroke="#63b8ff" d="M576.26,-343.52C564.01,-352.18 574.22,-361.12 606.88,-361.12 624.73,-361.12 635.88,-358.45 640.31,-354.61"/>
<polygon fill="#63b8ff" stroke="#63b8ff" points="643.72,-353.82 637.86,-344.99 636.93,-355.54 643.72,-353.82"/>
</a>
</g>
</g>
<!-- Node7 -->
<g id="Node000007" class="node">
<title>Node7</title>
<g id="a_Node000007"><a xlink:href="kest__ui_8c.html#ab4d0521ac8d644d34daf9fde74ce1781" target="_top" xlink:title=" ">
<polygon fill="white" stroke="#666666" points="482.25,-349.5 351.5,-349.5 351.5,-316 482.25,-316 482.25,-349.5"/>
<text xml:space="preserve" text-anchor="start" x="359.5" y="-336" font-family="Helvetica,sans-Serif" font-size="10.00">ui_page_create_bottom</text>
<text xml:space="preserve" text-anchor="middle" x="416.88" y="-323.25" font-family="Helvetica,sans-Serif" font-size="10.00">_buttons</text>
</a>
</g>
</g>
<!-- Node6&#45;&gt;Node7 -->
<g id="edge7_Node000006_Node000007" class="edge">
<title>Node6&#45;&gt;Node7</title>
<g id="a_edge7_Node000006_Node000007"><a xlink:title=" ">
<path fill="none" stroke="#63b8ff" d="M292.42,-304.61C307.2,-307.98 323.88,-311.78 340.08,-315.48"/>
<polygon fill="#63b8ff" stroke="#63b8ff" points="339.19,-318.86 349.72,-317.67 340.75,-312.04 339.19,-318.86"/>
</a>
</g>
</g>
<!-- Node8 -->
<g id="Node000008" class="node">
<title>Node8</title>
<g id="a_Node000008"><a xlink:href="kest__ui_8c.html#a1d4879268198647d06d247db21e13f1b" target="_top" xlink:title=" ">
<polygon fill="white" stroke="#666666" points="487.5,-156.12 346.25,-156.12 346.25,-135.38 487.5,-135.38 487.5,-156.12"/>
<text xml:space="preserve" text-anchor="middle" x="416.88" y="-142.62" font-family="Helvetica,sans-Serif" font-size="10.00">ui_page_create_container</text>
</a>
</g>
</g>
<!-- Node6&#45;&gt;Node8 -->
<g id="edge9_Node000006_Node000008" class="edge">
<title>Node6&#45;&gt;Node8</title>
<g id="a_edge9_Node000006_Node000008"><a xlink:title=" ">
<path fill="none" stroke="#63b8ff" d="M257.06,-283.11C286.16,-257.93 359.48,-194.52 395.4,-163.46"/>
<polygon fill="#63b8ff" stroke="#63b8ff" points="397.26,-166.48 402.53,-157.29 392.68,-161.18 397.26,-166.48"/>
</a>
</g>
</g>
<!-- Node15 -->
<g id="Node000015" class="node">
<title>Node15</title>
<g id="a_Node000015"><a xlink:href="kest__ui_8c.html#ab16753d26193cafda5dd736999b6880c" target="_top" xlink:title=" ">
<polygon fill="white" stroke="#666666" points="485.25,-298.12 348.5,-298.12 348.5,-277.38 485.25,-277.38 485.25,-298.12"/>
<text xml:space="preserve" text-anchor="middle" x="416.88" y="-284.62" font-family="Helvetica,sans-Serif" font-size="10.00">ui_page_create_panel_ui</text>
</a>
</g>
</g>
<!-- Node6&#45;&gt;Node15 -->
<g id="edge16_Node000006_Node000015" class="edge">
<title>Node6&#45;&gt;Node15</title>
<g id="a_edge16_Node000006_Node000015"><a xlink:title=" ">
<path fill="none" stroke="#63b8ff" d="M310.42,-291.45C319.01,-291.15 327.88,-290.84 336.65,-290.53"/>
<polygon fill="#63b8ff" stroke="#63b8ff" points="336.73,-294.03 346.6,-290.18 336.48,-287.03 336.73,-294.03"/>
</a>
</g>
</g>
<!-- Node7&#45;&gt;Node4 -->
<g id="edge8_Node000007_Node000004" class="edge">
<title>Node7&#45;&gt;Node4</title>
<g id="a_edge8_Node000007_Node000004"><a xlink:title=" ">
<path fill="none" stroke="#63b8ff" d="M482.57,-332.75C503.27,-332.75 526.07,-332.75 546.38,-332.75"/>
<polygon fill="#63b8ff" stroke="#63b8ff" points="546.18,-336.25 556.18,-332.75 546.18,-329.25 546.18,-336.25"/>
</a>
</g>
</g>
<!-- Node9 -->
<g id="Node000009" class="node">
<title>Node9</title>
<g id="a_Node000009"><a xlink:href="kest__ui_8c.html#abbbe680f4aa51c0ca17cd2a5e1bda3bf" target="_top" xlink:title=" ">
<polygon fill="white" stroke="#666666" points="682.75,-201.12 531,-201.12 531,-180.38 682.75,-180.38 682.75,-201.12"/>
<text xml:space="preserve" text-anchor="middle" x="606.88" y="-187.62" font-family="Helvetica,sans-Serif" font-size="10.00">create_standard_button_list</text>
</a>
</g>
</g>
<!-- Node8&#45;&gt;Node9 -->
<g id="edge10_Node000008_Node000009" class="edge">
<title>Node8&#45;&gt;Node9</title>
<g id="a_edge10_Node000008_Node000009"><a xlink:title=" ">
<path fill="none" stroke="#63b8ff" d="M461.26,-156.58C480.34,-161.31 503.02,-166.87 523.5,-171.75 531.17,-173.58 539.24,-175.47 547.21,-177.33"/>
<polygon fill="#63b8ff" stroke="#63b8ff" points="546.36,-180.73 556.89,-179.58 547.94,-173.91 546.36,-180.73"/>
</a>
</g>
</g>
<!-- Node10 -->
<g id="Node000010" class="node">
<title>Node10</title>
<g id="a_Node000010"><a xlink:href="kest__ui_8c.html#a62738946a4bf88f4f13024860a34c7f1" target="_top" xlink:title=" ">
<polygon fill="white" stroke="#666666" points="672.62,-162.5 541.12,-162.5 541.12,-129 672.62,-129 672.62,-162.5"/>
<text xml:space="preserve" text-anchor="start" x="549.12" y="-149" font-family="Helvetica,sans-Serif" font-size="10.00">create_standard_button</text>
<text xml:space="preserve" text-anchor="middle" x="606.88" y="-136.25" font-family="Helvetica,sans-Serif" font-size="10.00">_list_tall</text>
</a>
</g>
</g>
<!-- Node8&#45;&gt;Node10 -->
<g id="edge11_Node000008_Node000010" class="edge">
<title>Node8&#45;&gt;Node10</title>
<g id="a_edge11_Node000008_Node000010"><a xlink:title=" ">
<path fill="none" stroke="#63b8ff" d="M487.88,-145.75C501.42,-145.75 515.67,-145.75 529.4,-145.75"/>
<polygon fill="#63b8ff" stroke="#63b8ff" points="529.28,-149.25 539.28,-145.75 529.28,-142.25 529.28,-149.25"/>
</a>
</g>
</g>
<!-- Node11 -->
<g id="Node000011" class="node">
<title>Node11</title>
<g id="a_Node000011"><a xlink:href="kest__ui_8c.html#ad803666a4c57c1c8a0ecf5e508311f21" target="_top" xlink:title=" ">
<polygon fill="white" stroke="#666666" points="679.75,-111.12 534,-111.12 534,-90.38 679.75,-90.38 679.75,-111.12"/>
<text xml:space="preserve" text-anchor="middle" x="606.88" y="-97.62" font-family="Helvetica,sans-Serif" font-size="10.00">create_standard_container</text>
</a>
</g>
</g>
<!-- Node8&#45;&gt;Node11 -->
<g id="edge12_Node000008_Node000011" class="edge">
<title>Node8&#45;&gt;Node11</title>
<g id="a_edge12_Node000008_Node000011"><a xlink:title=" ">
<path fill="none" stroke="#63b8ff" d="M461.26,-134.92C480.34,-130.19 503.02,-124.63 523.5,-119.75 531.17,-117.92 539.24,-116.03 547.21,-114.17"/>
<polygon fill="#63b8ff" stroke="#63b8ff" points="547.94,-117.59 556.89,-111.92 546.36,-110.77 547.94,-117.59"/>
</a>
</g>
</g>
<!-- Node12 -->
<g id="Node000012" class="node">
<title>Node12</title>
<g id="a_Node000012"><a xlink:href="kest__ui_8c.html#a5b2e6069c686a61991fd838b5181c552" target="_top" xlink:title=" ">
<polygon fill="white" stroke="#666666" points="690.25,-72.12 523.5,-72.12 523.5,-51.38 690.25,-51.38 690.25,-72.12"/>
<text xml:space="preserve" text-anchor="middle" x="606.88" y="-58.62" font-family="Helvetica,sans-Serif" font-size="10.00">create_standard_container_tall</text>
</a>
</g>
</g>
<!-- Node8&#45;&gt;Node12 -->
<g id="edge13_Node000008_Node000012" class="edge">
<title>Node8&#45;&gt;Node12</title>
<g id="a_edge13_Node000008_Node000012"><a xlink:title=" ">
<path fill="none" stroke="#63b8ff" d="M432.49,-134.88C452.19,-120.72 488.82,-96.07 523.5,-81.75 528.81,-79.56 534.41,-77.57 540.09,-75.78"/>
<polygon fill="#63b8ff" stroke="#63b8ff" points="541,-79.16 549.61,-72.99 539.03,-72.44 541,-79.16"/>
</a>
</g>
</g>
<!-- Node13 -->
<g id="Node000013" class="node">
<title>Node13</title>
<g id="a_Node000013"><a xlink:href="kest__ui_8c.html#a5426d800351280ff7029cc7e5a791ead" target="_top" xlink:title=" ">
<polygon fill="white" stroke="#666666" points="670.75,-33.5 543,-33.5 543,0 670.75,0 670.75,-33.5"/>
<text xml:space="preserve" text-anchor="start" x="551" y="-20" font-family="Helvetica,sans-Serif" font-size="10.00">create_standard_menu</text>
<text xml:space="preserve" text-anchor="middle" x="606.88" y="-7.25" font-family="Helvetica,sans-Serif" font-size="10.00">_container</text>
</a>
</g>
</g>
<!-- Node8&#45;&gt;Node13 -->
<g id="edge14_Node000008_Node000013" class="edge">
<title>Node8&#45;&gt;Node13</title>
<g id="a_edge14_Node000008_Node000013"><a xlink:title=" ">
<path fill="none" stroke="#63b8ff" d="M425.96,-135.04C442.19,-114.26 480.86,-68.27 523.5,-42.75 526.43,-41 529.49,-39.35 532.63,-37.8"/>
<polygon fill="#63b8ff" stroke="#63b8ff" points="533.83,-41.11 541.52,-33.82 530.97,-34.72 533.83,-41.11"/>
</a>
</g>
</g>
<!-- Node14 -->
<g id="Node000014" class="node">
<title>Node14</title>
<g id="a_Node000014"><a xlink:href="kest__ui_8c.html#a631a3fb795f47fc10a39f4415efe7866" target="_top" xlink:title=" ">
<polygon fill="white" stroke="#666666" points="670.75,-252.5 543,-252.5 543,-219 670.75,-219 670.75,-252.5"/>
<text xml:space="preserve" text-anchor="start" x="551" y="-239" font-family="Helvetica,sans-Serif" font-size="10.00">create_standard_menu</text>
<text xml:space="preserve" text-anchor="middle" x="606.88" y="-226.25" font-family="Helvetica,sans-Serif" font-size="10.00">_container_tall</text>
</a>
</g>
</g>
<!-- Node8&#45;&gt;Node14 -->
<g id="edge15_Node000008_Node000014" class="edge">
<title>Node8&#45;&gt;Node14</title>
<g id="a_edge15_Node000008_Node000014"><a xlink:title=" ">
<path fill="none" stroke="#63b8ff" d="M432.98,-156.51C452.93,-170.32 489.51,-194.36 523.5,-209.75 527.2,-211.43 531.04,-213.04 534.95,-214.58"/>
<polygon fill="#63b8ff" stroke="#63b8ff" points="533.4,-217.74 543.99,-217.97 535.86,-211.18 533.4,-217.74"/>
</a>
</g>
</g>
<!-- Node15&#45;&gt;Node4 -->
<g id="edge17_Node000015_Node000004" class="edge">
<title>Node15&#45;&gt;Node4</title>
<g id="a_edge17_Node000015_Node000004"><a xlink:title=" ">
<path fill="none" stroke="#63b8ff" d="M461.26,-298.58C480.34,-303.31 503.02,-308.87 523.5,-313.75 531.17,-315.58 539.24,-317.47 547.21,-319.33"/>
<polygon fill="#63b8ff" stroke="#63b8ff" points="546.36,-322.73 556.89,-321.58 547.94,-315.91 546.36,-322.73"/>
</a>
</g>
</g>
<!-- Node16 -->
<g id="Node000016" class="node">
<title>Node16</title>
<g id="a_Node000016"><a xlink:href="kest__ui_8c.html#a132086b067e78c3ba91effc5944ba435" target="_top" xlink:title=" ">
<polygon fill="white" stroke="#666666" points="662.5,-304.5 551.25,-304.5 551.25,-271 662.5,-271 662.5,-304.5"/>
<text xml:space="preserve" text-anchor="start" x="559.25" y="-291" font-family="Helvetica,sans-Serif" font-size="10.00">ui_page_init_create</text>
<text xml:space="preserve" text-anchor="middle" x="606.88" y="-278.25" font-family="Helvetica,sans-Serif" font-size="10.00">_panel_label</text>
</a>
</g>
</g>
<!-- Node15&#45;&gt;Node16 -->
<g id="edge18_Node000015_Node000016" class="edge">
<title>Node15&#45;&gt;Node16</title>
<g id="a_edge18_Node000015_Node000016"><a xlink:title=" ">
<path fill="none" stroke="#63b8ff" d="M485.75,-287.75C503.26,-287.75 522.09,-287.75 539.53,-287.75"/>
<polygon fill="#63b8ff" stroke="#63b8ff" points="539.24,-291.25 549.24,-287.75 539.24,-284.25 539.24,-291.25"/>
</a>
</g>
</g>
</g>
</svg>

<g id="navigator" transform="translate(0 0)" fill="#404254">
  <rect fill="#f2f5e9" fill-opacity="0.5" stroke="#606060" stroke-width=".5" x="0" y="0" width="60" height="60"/>
  <use id="zoomplus" xlink:href="#zoomPlus" x="17" y="9" onmousedown="handleZoom(evt,'in')"/>
  <use id="zoomminus" xlink:href="#zoomMin" x="42" y="9" onmousedown="handleZoom(evt,'out')"/>
  <use id="reset" xlink:href="#resetDef" x="30" y="36" onmousedown="handleReset()"/>
   <use id="arrowup" xlink:href="#arrowUp" x="0" y="0" onmousedown="handlePan(0,-1)"/>
  <use id="arrowright" xlink:href="#arrowRight" x="0" y="0" onmousedown="handlePan(1,0)"/>
  <use id="arrowdown" xlink:href="#arrowDown" x="0" y="0" onmousedown="handlePan(0,1)"/>
  <use id="arrowleft" xlink:href="#arrowLeft" x="0" y="0" onmousedown="handlePan(-1,0)"/>
</g>
<svg viewBox="0 0 15 15" width="100%" height="30px" preserveAspectRatio="xMaxYMin meet">
 <g id="arrow_out" transform="scale(0.3 0.3)">
  <a xlink:href="kest__sequence__view_8c_a96499d9c3b8dc1327fa9141c44bafe2d_cgraph_org.svg" target="_base">
   <rect id="button" ry="5" rx="5" y="6" x="6" height="38" width="38"
        fill="#f2f5e9" fill-opacity="0.5" stroke="#606060" stroke-width="1.0"/>
   <path id="arrow"
     d="M 11.500037,31.436501 C 11.940474,20.09759 22.043105,11.32322 32.158766,21.979434 L 37.068811,17.246167 C 37.068811,17.246167 37.088388,32 37.088388,32 L 22.160133,31.978069 C 22.160133,31.978069 26.997745,27.140456 26.997745,27.140456 C 18.528582,18.264221 13.291696,25.230495 11.500037,31.436501 z"
     style="fill:#404040;"/>
  </a>
 </g>
</svg>

<style type='text/css'>
<![CDATA[
[data-mouse-over-selected='false'] { opacity: 0.7; }
[data-mouse-over-selected='true']  { opacity: 1.0; }
]]>
</style>
<script type="application/ecmascript"><![CDATA[
document.addEventListener('DOMContentLoaded', (event) => {
  highlightEdges();
  highlightAdjacentNodes();
});
]]></script>
</svg>
