<?xml version="1.0" encoding="UTF-8" standalone="no"?>
<!DOCTYPE svg PUBLIC "-//W3C//DTD SVG 1.1//EN"
 "http://www.w3.org/Graphics/SVG/1.1/DTD/svg11.dtd">
<!-- Generated by graphviz version 13.1.2 (20250808.2320)
 -->
<!-- Title: init_menu_item Pages: 1 -->
<!--zoomable 338 -->

<svg id="main" version="1.1" xmlns="http://www.w3.org/2000/svg" xmlns:xlink="http://www.w3.org/1999/xlink" xml:space="preserve" onload="init(evt)">

<style type="text/css"><![CDATA[
.node, .edge {opacity: 0.7;}
.node.selected, .edge.selected {opacity: 1;}
.edge:hover path { stroke: red; }
.edge:hover polygon { stroke: red; fill: red; }
]]></style>

<defs>
  <circle id="rim" cx="0" cy="0" r="7"/>
  <circle id="rim2" cx="0" cy="0" r="3.5"/>
  <g id="zoomPlus">
    <use xlink:href="#rim" fill="#404040"><set attributeName="fill" to="#808080" begin="zoomplus.mouseover" end="zoomplus.mouseout"/></use>
    <path d="M-4,0h8M0,-4v8" fill="none" stroke="white" stroke-width="1.5" pointer-events="none"/>
  </g>
  <g id="zoomMin">
    <use xlink:href="#rim" fill="#404040"><set attributeName="fill" to="#808080" begin="zoomminus.mouseover" end="zoomminus.mouseout"/></use>
    <path d="M-4,0h8" fill="none" stroke="white" stroke-width="1.5" pointer-events="none"/>
  </g>
  <g id="arrowUp" transform="translate(30 24)">
    <use xlink:href="#rim"/>
    <path pointer-events="none" fill="none" stroke="white" stroke-width="1.5" d="M0,-3.0v7 M-2.5,-0.5L0,-3.0L2.5,-0.5"/>
  </g>
  <g id="arrowRight" transform="rotate(90) translate(36 -43)">
    <use xlink:href="#rim"/>
    <path pointer-events="none" fill="none" stroke="white" stroke-width="1.5" d="M0,-3.0v7 M-2.5,-0.5L0,-3.0L2.5,-0.5"/>
  </g>
  <g id="arrowDown" transform="rotate(180) translate(-30 -48)">
    <use xlink:href="#rim"/>
    <path pointer-events="none" fill="none" stroke="white" stroke-width="1.5" d="M0,-3.0v7 M-2.5,-0.5L0,-3.0L2.5,-0.5"/>
  </g>
  <g id="arrowLeft" transform="rotate(270) translate(-36 17)">
    <use xlink:href="#rim"/>
    <path pointer-events="none" fill="none" stroke="white" stroke-width="1.5" d="M0,-3.0v7 M-2.5,-0.5L0,-3.0L2.5,-0.5"/>
  </g>
  <g id="resetDef">
    <use xlink:href="#rim2" fill="#404040"><set attributeName="fill" to="#808080" begin="reset.mouseover" end="reset.mouseout"/></use>
  </g>
</defs>
<script type="application/ecmascript">
var viewWidth = 765;
var viewHeight = 338;
var sectionId = 'dynsection-30';
</script>
<script type="application/ecmascript" xlink:href="svg.min.js"/>
<svg id="graph" class="graph">
<g id="viewport">
<title>init_menu_item</title>
<!-- Node1 -->
<g id="Node000001" class="node">
<title>Node1</title>
<g id="a_Node000001"><a xlink:title=" ">
<polygon fill="#999999" stroke="#666666" points="756.5,-188.75 664,-188.75 664,-168 756.5,-168 756.5,-188.75"/>
<text xml:space="preserve" text-anchor="middle" x="710.25" y="-175.25" font-family="Helvetica,sans-Serif" font-size="10.00">init_menu_item</text>
</a>
</g>
</g>
<!-- Node2 -->
<g id="Node000002" class="node">
<title>Node2</title>
<g id="a_Node000002"><a xlink:href="kest__menu_8c.html#afe12f075b294aa70cb687e8130d1c84b" target="_top" xlink:title=" ">
<polygon fill="white" stroke="#666666" points="609.25,-330.12 486.75,-330.12 486.75,-296.62 609.25,-296.62 609.25,-330.12"/>
<text xml:space="preserve" text-anchor="start" x="494.75" y="-316.62" font-family="Helvetica,sans-Serif" font-size="10.00">create_danger_button</text>
<text xml:space="preserve" text-anchor="middle" x="548" y="-303.88" font-family="Helvetica,sans-Serif" font-size="10.00">_menu_item</text>
</a>
</g>
</g>
<!-- Node1&#45;&gt;Node2 -->
<g id="edge1_Node000001_Node000002" class="edge">
<title>Node1&#45;&gt;Node2</title>
<g id="a_edge1_Node000001_Node000002"><a xlink:title=" ">
<path fill="none" stroke="#63b8ff" d="M698.92,-199.09C685.7,-223.57 660.55,-263.93 628,-287.38 622.38,-291.43 616.08,-294.87 609.57,-297.8"/>
<polygon fill="#63b8ff" stroke="#63b8ff" points="701.92,-200.9 703.44,-190.42 695.71,-197.67 701.92,-200.9"/>
</a>
</g>
</g>
<!-- Node3 -->
<g id="Node000003" class="node">
<title>Node3</title>
<g id="a_Node000003"><a xlink:href="kest__menu_8c.html#acd099bfb783c15a2f59091f3fa261701" target="_top" xlink:title=" ">
<polygon fill="white" stroke="#666666" points="613.38,-278.75 482.62,-278.75 482.62,-258 613.38,-258 613.38,-278.75"/>
<text xml:space="preserve" text-anchor="middle" x="548" y="-265.25" font-family="Helvetica,sans-Serif" font-size="10.00">create_pad_menu_item</text>
</a>
</g>
</g>
<!-- Node1&#45;&gt;Node3 -->
<g id="edge2_Node000001_Node000003" class="edge">
<title>Node1&#45;&gt;Node3</title>
<g id="a_edge2_Node000001_Node000003"><a xlink:title=" ">
<path fill="none" stroke="#63b8ff" d="M692.66,-197.3C677.42,-213.51 653.41,-236.24 628,-249.38 621.73,-252.61 614.9,-255.31 607.97,-257.56"/>
<polygon fill="#63b8ff" stroke="#63b8ff" points="694.99,-199.94 699.15,-190.19 689.82,-195.22 694.99,-199.94"/>
</a>
</g>
</g>
<!-- Node4 -->
<g id="Node000004" class="node">
<title>Node4</title>
<g id="a_Node000004"><a xlink:href="kest__menu_8c.html#a77f08d294a66a7eb3b65a2ef747c7067" target="_top" xlink:title=" ">
<polygon fill="white" stroke="#666666" points="613,-240.12 483,-240.12 483,-206.62 613,-206.62 613,-240.12"/>
<text xml:space="preserve" text-anchor="start" x="491" y="-226.62" font-family="Helvetica,sans-Serif" font-size="10.00">create_page_linindirect</text>
<text xml:space="preserve" text-anchor="middle" x="548" y="-213.88" font-family="Helvetica,sans-Serif" font-size="10.00">_k_menu_item</text>
</a>
</g>
</g>
<!-- Node1&#45;&gt;Node4 -->
<g id="edge3_Node000001_Node000004" class="edge">
<title>Node1&#45;&gt;Node4</title>
<g id="a_edge3_Node000001_Node000004"><a xlink:title=" ">
<path fill="none" stroke="#63b8ff" d="M659.82,-192.26C644.15,-196.66 626.62,-201.58 610.22,-206.18"/>
<polygon fill="#63b8ff" stroke="#63b8ff" points="660.73,-195.64 669.41,-189.56 658.84,-188.9 660.73,-195.64"/>
</a>
</g>
</g>
<!-- Node5 -->
<g id="Node000005" class="node">
<title>Node5</title>
<g id="a_Node000005"><a xlink:href="kest__menu_8c.html#a20805fb831de29dc4c963f59dee1d0b2" target="_top" xlink:title=" ">
<polygon fill="white" stroke="#666666" points="628,-188.75 468,-188.75 468,-168 628,-168 628,-188.75"/>
<text xml:space="preserve" text-anchor="middle" x="548" y="-175.25" font-family="Helvetica,sans-Serif" font-size="10.00">create_page_link_menu_item</text>
</a>
</g>
</g>
<!-- Node1&#45;&gt;Node5 -->
<g id="edge4_Node000001_Node000005" class="edge">
<title>Node1&#45;&gt;Node5</title>
<g id="a_edge4_Node000001_Node000005"><a xlink:title=" ">
<path fill="none" stroke="#63b8ff" d="M652.51,-178.38C644.65,-178.38 636.46,-178.38 628.27,-178.38"/>
<polygon fill="#63b8ff" stroke="#63b8ff" points="652.24,-181.88 662.24,-178.38 652.24,-174.88 652.24,-181.88"/>
</a>
</g>
</g>
<!-- Node6 -->
<g id="Node000006" class="node">
<title>Node6</title>
<g id="a_Node000006"><a xlink:href="kest__menu_8c.html#a022467860beb31712a6580996ac1527e" target="_top" xlink:title=" ">
<polygon fill="white" stroke="#666666" points="618.62,-150.12 477.38,-150.12 477.38,-116.62 618.62,-116.62 618.62,-150.12"/>
<text xml:space="preserve" text-anchor="start" x="485.38" y="-136.62" font-family="Helvetica,sans-Serif" font-size="10.00">create_parameter_widget</text>
<text xml:space="preserve" text-anchor="middle" x="548" y="-123.88" font-family="Helvetica,sans-Serif" font-size="10.00">_menu_item</text>
</a>
</g>
</g>
<!-- Node1&#45;&gt;Node6 -->
<g id="edge5_Node000001_Node000006" class="edge">
<title>Node1&#45;&gt;Node6</title>
<g id="a_edge5_Node000001_Node000006"><a xlink:title=" ">
<path fill="none" stroke="#63b8ff" d="M659.82,-164.49C644.15,-160.09 626.62,-155.17 610.22,-150.57"/>
<polygon fill="#63b8ff" stroke="#63b8ff" points="658.84,-167.85 669.41,-167.19 660.73,-161.11 658.84,-167.85"/>
</a>
</g>
</g>
<!-- Node7 -->
<g id="Node000007" class="node">
<title>Node7</title>
<g id="a_Node000007"><a xlink:href="kest__menu_8c.html#a0b1bf911148f36023d4bce3e3ded21b9" target="_top" xlink:title=" ">
<polygon fill="white" stroke="#666666" points="607.38,-98.12 488.62,-98.12 488.62,-64.62 607.38,-64.62 607.38,-98.12"/>
<text xml:space="preserve" text-anchor="start" x="496.62" y="-84.62" font-family="Helvetica,sans-Serif" font-size="10.00">create_profile_listing</text>
<text xml:space="preserve" text-anchor="middle" x="548" y="-71.88" font-family="Helvetica,sans-Serif" font-size="10.00">_menu_item</text>
</a>
</g>
</g>
<!-- Node1&#45;&gt;Node7 -->
<g id="edge6_Node000001_Node000007" class="edge">
<title>Node1&#45;&gt;Node7</title>
<g id="a_edge6_Node000001_Node000007"><a xlink:title=" ">
<path fill="none" stroke="#63b8ff" d="M692.13,-159.68C676.7,-143.82 652.72,-121.46 628,-107.38 621.6,-103.73 614.62,-100.5 607.54,-97.68"/>
<polygon fill="#63b8ff" stroke="#63b8ff" points="689.3,-161.79 698.72,-166.63 694.38,-156.97 689.3,-161.79"/>
</a>
</g>
</g>
<!-- Node8 -->
<g id="Node000008" class="node">
<title>Node8</title>
<g id="a_Node000008"><a xlink:href="kest__sequence__list_8c.html#a0350526aca07d7cc68e8325cf0b1f02c" target="_top" xlink:title=" ">
<polygon fill="white" stroke="#666666" points="614.88,-46.12 481.12,-46.12 481.12,-12.62 614.88,-12.62 614.88,-46.12"/>
<text xml:space="preserve" text-anchor="start" x="489.12" y="-32.62" font-family="Helvetica,sans-Serif" font-size="10.00">create_sequence_listing</text>
<text xml:space="preserve" text-anchor="middle" x="548" y="-19.88" font-family="Helvetica,sans-Serif" font-size="10.00">_menu_item</text>
</a>
</g>
</g>
<!-- Node1&#45;&gt;Node8 -->
<g id="edge7_Node000001_Node000008" class="edge">
<title>Node1&#45;&gt;Node8</title>
<g id="a_edge7_Node000001_Node000008"><a xlink:title=" ">
<path fill="none" stroke="#63b8ff" d="M700.68,-157.39C688.49,-130.06 663.59,-82.57 628,-55.38 623.64,-52.04 618.83,-49.13 613.81,-46.58"/>
<polygon fill="#63b8ff" stroke="#63b8ff" points="697.37,-158.55 704.53,-166.36 703.81,-155.79 697.37,-158.55"/>
</a>
</g>
</g>
<!-- Node9 -->
<g id="Node000009" class="node">
<title>Node9</title>
<g id="a_Node000009"><a xlink:href="kest__sequence__list_8c.html#ae60870bb862edfc5b0a45344c20b152f" target="_top" xlink:title=" ">
<polygon fill="white" stroke="#666666" points="273.5,-39.75 139.75,-39.75 139.75,-19 273.5,-19 273.5,-39.75"/>
<text xml:space="preserve" text-anchor="middle" x="206.62" y="-26.25" font-family="Helvetica,sans-Serif" font-size="10.00">configure_sequence_list</text>
</a>
</g>
</g>
<!-- Node8&#45;&gt;Node9 -->
<g id="edge8_Node000008_Node000009" class="edge">
<title>Node8&#45;&gt;Node9</title>
<g id="a_edge8_Node000008_Node000009"><a xlink:title=" ">
<path fill="none" stroke="#63b8ff" d="M469.25,-29.38C410.25,-29.38 329.99,-29.38 273.99,-29.38"/>
<polygon fill="#63b8ff" stroke="#63b8ff" points="469.25,-32.88 479.25,-29.38 469.25,-25.88 469.25,-32.88"/>
</a>
</g>
</g>
<!-- Node16 -->
<g id="Node000016" class="node">
<title>Node16</title>
<g id="a_Node000016"><a xlink:href="kest__sequence__list_8c.html#ac9d222d7405758d9f4edfeabe4c6200e" target="_top" xlink:title=" ">
<polygon fill="white" stroke="#666666" points="432,-20.75 309.5,-20.75 309.5,0 432,0 432,-20.75"/>
<text xml:space="preserve" text-anchor="middle" x="370.75" y="-7.25" font-family="Helvetica,sans-Serif" font-size="10.00">sequence_list_add_cb</text>
</a>
</g>
</g>
<!-- Node8&#45;&gt;Node16 -->
<g id="edge11_Node000008_Node000016" class="edge">
<title>Node8&#45;&gt;Node16</title>
<g id="a_edge11_Node000008_Node000016"><a xlink:title=" ">
<path fill="none" stroke="#63b8ff" d="M469.43,-20.97C457,-19.62 444.29,-18.24 432.33,-16.94"/>
<polygon fill="#63b8ff" stroke="#63b8ff" points="468.92,-24.43 479.24,-22.03 469.68,-17.47 468.92,-24.43"/>
</a>
</g>
</g>
<!-- Node10 -->
<g id="Node000010" class="node">
<title>Node10</title>
<g id="a_Node000010"><a xlink:href="kest__sequence__list_8c.html#a0e869118af43741e3d4db628d5c414fe" target="_top" xlink:title=" ">
<polygon fill="#fff0f0" stroke="red" points="103.75,-59.75 0,-59.75 0,-39 103.75,-39 103.75,-59.75"/>
<text xml:space="preserve" text-anchor="middle" x="51.88" y="-46.25" font-family="Helvetica,sans-Serif" font-size="10.00">init_sequence_list</text>
</a>
</g>
</g>
<!-- Node9&#45;&gt;Node10 -->
<g id="edge9_Node000009_Node000010" class="edge">
<title>Node9&#45;&gt;Node10</title>
<g id="a_edge9_Node000009_Node000010"><a xlink:title=" ">
<path fill="none" stroke="#63b8ff" d="M128.26,-39.5C119.99,-40.59 111.74,-41.67 103.89,-42.7"/>
<polygon fill="#63b8ff" stroke="#63b8ff" points="128.55,-43 138.01,-38.23 127.64,-36.06 128.55,-43"/>
</a>
</g>
</g>
<!-- Node15 -->
<g id="Node000015" class="node">
<title>Node15</title>
<g id="a_Node000015"><a xlink:href="kest__ui_8c.html#ac4b49754b0a8d3df4343e742d6899872" target="_top" xlink:title=" ">
<polygon fill="#fff0f0" stroke="red" points="95.12,-20.75 8.62,-20.75 8.62,0 95.12,0 95.12,-20.75"/>
<text xml:space="preserve" text-anchor="middle" x="51.88" y="-7.25" font-family="Helvetica,sans-Serif" font-size="10.00">kest_create_ui</text>
</a>
</g>
</g>
<!-- Node9&#45;&gt;Node15 -->
<g id="edge10_Node000009_Node000015" class="edge">
<title>Node9&#45;&gt;Node15</title>
<g id="a_edge10_Node000009_Node000015"><a xlink:title=" ">
<path fill="none" stroke="#63b8ff" d="M128.2,-19.74C116.86,-18.33 105.56,-16.93 95.28,-15.65"/>
<polygon fill="#63b8ff" stroke="#63b8ff" points="127.66,-23.2 138.01,-20.96 128.52,-16.26 127.66,-23.2"/>
</a>
</g>
</g>
<!-- Node16&#45;&gt;Node9 -->
<g id="edge12_Node000016_Node000009" class="edge">
<title>Node16&#45;&gt;Node9</title>
<g id="a_edge12_Node000016_Node000009"><a xlink:title=" ">
<path fill="none" stroke="#63b8ff" d="M298.07,-18.78C289.98,-19.72 281.77,-20.69 273.76,-21.62"/>
<polygon fill="#63b8ff" stroke="#63b8ff" points="298.35,-22.27 307.88,-17.63 297.54,-15.31 298.35,-22.27"/>
</a>
</g>
</g>
</g>
</svg>

<g id="navigator" transform="translate(0 0)" fill="#404254">
  <rect fill="#f2f5e9" fill-opacity="0.5" stroke="#606060" stroke-width=".5" x="0" y="0" width="60" height="60"/>
  <use id="zoomplus" xlink:href="#zoomPlus" x="17" y="9" onmousedown="handleZoom(evt,'in')"/>
  <use id="zoomminus" xlink:href="#zoomMin" x="42" y="9" onmousedown="handleZoom(evt,'out')"/>
  <use id="reset" xlink:href="#resetDef" x="30" y="36" onmousedown="handleReset()"/>
   <use id="arrowup" xlink:href="#arrowUp" x="0" y="0" onmousedown="handlePan(0,-1)"/>
  <use id="arrowright" xlink:href="#arrowRight" x="0" y="0" onmousedown="handlePan(1,0)"/>
  <use id="arrowdown" xlink:href="#arrowDown" x="0" y="0" onmousedown="handlePan(0,1)"/>
  <use id="arrowleft" xlink:href="#arrowLeft" x="0" y="0" onmousedown="handlePan(-1,0)"/>
</g>
<svg viewBox="0 0 15 15" width="100%" height="30px" preserveAspectRatio="xMaxYMin meet">
 <g id="arrow_out" transform="scale(0.3 0.3)">
  <a xlink:href="kest__menu_8c_a1449503a7d3ba86031fa4c9f7b70649e_icgraph_org.svg" target="_base">
   <rect id="button" ry="5" rx="5" y="6" x="6" height="38" width="38"
        fill="#f2f5e9" fill-opacity="0.5" stroke="#606060" stroke-width="1.0"/>
   <path id="arrow"
     d="M 11.500037,31.436501 C 11.940474,20.09759 22.043105,11.32322 32.158766,21.979434 L 37.068811,17.246167 C 37.068811,17.246167 37.088388,32 37.088388,32 L 22.160133,31.978069 C 22.160133,31.978069 26.997745,27.140456 26.997745,27.140456 C 18.528582,18.264221 13.291696,25.230495 11.500037,31.436501 z"
     style="fill:#404040;"/>
  </a>
 </g>
</svg>

<style type='text/css'>
<![CDATA[
[data-mouse-over-selected='false'] { opacity: 0.7; }
[data-mouse-over-selected='true']  { opacity: 1.0; }
]]>
</style>
<script type="application/ecmascript"><![CDATA[
document.addEventListener('DOMContentLoaded', (event) => {
  highlightEdges();
  highlightAdjacentNodes();
});
]]></script>
</svg>
