<?xml version="1.0" encoding="UTF-8" standalone="no"?>
<!DOCTYPE svg PUBLIC "-//W3C//DTD SVG 1.1//EN"
 "http://www.w3.org/Graphics/SVG/1.1/DTD/svg11.dtd">
<!-- Generated by graphviz version 13.1.2 (20250808.2320)
 -->
<!-- Title: char_is_letter Pages: 1 -->
<svg width="745pt" height="260pt"
 viewBox="0.00 0.00 745.00 260.00" xmlns="http://www.w3.org/2000/svg" xmlns:xlink="http://www.w3.org/1999/xlink">
<g id="graph0" class="graph" transform="scale(1 1) rotate(0) translate(4 256.12)">
<title>char_is_letter</title>
<!-- Node1 -->
<g id="Node000001" class="node">
<title>Node1</title>
<g id="a_Node000001"><a xlink:title=" ">
<polygon fill="#999999" stroke="#666666" points="737,-185.12 655,-185.12 655,-164.38 737,-164.38 737,-185.12"/>
<text xml:space="preserve" text-anchor="middle" x="696" y="-171.62" font-family="Helvetica,sans-Serif" font-size="10.00">char_is_letter</text>
</a>
</g>
</g>
<!-- Node2 -->
<g id="Node000002" class="node">
<title>Node2</title>
<g id="a_Node000002"><a xlink:href="kest__tokenizer_8c.html#a9bdbd5c492f459bc081a49ec4932e2ab" target="_top" xlink:title=" ">
<polygon fill="white" stroke="#666666" points="619,-242.12 496.5,-242.12 496.5,-221.38 619,-221.38 619,-242.12"/>
<text xml:space="preserve" text-anchor="middle" x="557.75" y="-228.62" font-family="Helvetica,sans-Serif" font-size="10.00">char_is_alphanumeric</text>
</a>
</g>
</g>
<!-- Node1&#45;&gt;Node2 -->
<g id="edge1_Node000001_Node000002" class="edge">
<title>Node1&#45;&gt;Node2</title>
<g id="a_edge1_Node000001_Node000002"><a xlink:title=" ">
<path fill="none" stroke="#63b8ff" d="M660.42,-190.03C647.46,-195.69 632.59,-202.09 619,-207.75 608.4,-212.16 596.68,-216.87 586.42,-220.93"/>
<polygon fill="#63b8ff" stroke="#63b8ff" points="661.64,-193.32 669.39,-186.1 658.83,-186.91 661.64,-193.32"/>
</a>
</g>
</g>
<!-- Node3 -->
<g id="Node000003" class="node">
<title>Node3</title>
<g id="a_Node000003"><a xlink:href="kest__tokenizer_8c.html#ac05ce1dc9f6b52a7427a40caaa5cd67d" target="_top" xlink:title=" ">
<polygon fill="white" stroke="#666666" points="444.75,-242.12 349.25,-242.12 349.25,-221.38 444.75,-221.38 444.75,-242.12"/>
<text xml:space="preserve" text-anchor="middle" x="397" y="-228.62" font-family="Helvetica,sans-Serif" font-size="10.00">tokenizer_policy</text>
</a>
</g>
</g>
<!-- Node1&#45;&gt;Node3 -->
<g id="edge20_Node000001_Node000003" class="edge">
<title>Node1&#45;&gt;Node3</title>
<g id="a_edge20_Node000001_Node000003"><a xlink:title=" ">
<path fill="none" stroke="#63b8ff" d="M643.61,-184.57C603.53,-192.23 546.47,-203.15 496.5,-212.75 479.74,-215.97 461.38,-219.51 445.09,-222.65"/>
<polygon fill="#63b8ff" stroke="#63b8ff" points="644.05,-188.05 653.21,-182.73 642.73,-181.17 644.05,-188.05"/>
</a>
</g>
</g>
<!-- Node10 -->
<g id="Node000010" class="node">
<title>Node10</title>
<g id="a_Node000010"><a xlink:href="kest__files_8c.html#a8bcff3a826c8132661386cd8098594a2" target="_top" xlink:title=" ">
<polygon fill="white" stroke="#666666" points="600.62,-166.12 514.88,-166.12 514.88,-145.38 600.62,-145.38 600.62,-166.12"/>
<text xml:space="preserve" text-anchor="middle" x="557.75" y="-152.62" font-family="Helvetica,sans-Serif" font-size="10.00">fnames_agree</text>
</a>
</g>
</g>
<!-- Node1&#45;&gt;Node10 -->
<g id="edge4_Node000001_Node000010" class="edge">
<title>Node1&#45;&gt;Node10</title>
<g id="a_edge4_Node000001_Node000010"><a xlink:title=" ">
<path fill="none" stroke="#63b8ff" d="M643.8,-167.61C629.68,-165.64 614.53,-163.53 600.97,-161.64"/>
<polygon fill="#63b8ff" stroke="#63b8ff" points="642.97,-171.03 653.36,-168.94 643.94,-164.1 642.97,-171.03"/>
</a>
</g>
</g>
<!-- Node18 -->
<g id="Node000018" class="node">
<title>Node18</title>
<g id="a_Node000018"><a xlink:href="kest__tokenizer_8c.html#a713c477a645ef8a6abfd4cb4e257b53c" target="_top" xlink:title=" ">
<polygon fill="white" stroke="#666666" points="602.5,-90.12 513,-90.12 513,-69.38 602.5,-69.38 602.5,-90.12"/>
<text xml:space="preserve" text-anchor="middle" x="557.75" y="-76.62" font-family="Helvetica,sans-Serif" font-size="10.00">token_is_name</text>
</a>
</g>
</g>
<!-- Node1&#45;&gt;Node18 -->
<g id="edge11_Node000001_Node000018" class="edge">
<title>Node1&#45;&gt;Node18</title>
<g id="a_edge11_Node000001_Node000018"><a xlink:title=" ">
<path fill="none" stroke="#63b8ff" d="M670.53,-157.69C642.6,-138.21 597.77,-106.96 574.27,-90.57"/>
<polygon fill="#63b8ff" stroke="#63b8ff" points="668.19,-160.32 678.39,-163.17 672.19,-154.58 668.19,-160.32"/>
</a>
</g>
</g>
<!-- Node2&#45;&gt;Node3 -->
<g id="edge2_Node000002_Node000003" class="edge">
<title>Node2&#45;&gt;Node3</title>
<g id="a_edge2_Node000002_Node000003"><a xlink:title=" ">
<path fill="none" stroke="#63b8ff" d="M484.98,-231.75C471.41,-231.75 457.54,-231.75 444.97,-231.75"/>
<polygon fill="#63b8ff" stroke="#63b8ff" points="484.77,-235.25 494.77,-231.75 484.77,-228.25 484.77,-235.25"/>
</a>
</g>
</g>
<!-- Node4 -->
<g id="Node000004" class="node">
<title>Node4</title>
<g id="a_Node000004"><a xlink:href="kest__tokenizer_8c.html#abfb9dd70524b2bf471b98caa15f1d764" target="_top" xlink:title=" ">
<polygon fill="#fff0f0" stroke="red" points="290.38,-252.12 165.62,-252.12 165.62,-231.38 290.38,-231.38 290.38,-252.12"/>
<text xml:space="preserve" text-anchor="middle" x="228" y="-238.62" font-family="Helvetica,sans-Serif" font-size="10.00">kest_tokenize_content</text>
</a>
</g>
</g>
<!-- Node3&#45;&gt;Node4 -->
<g id="edge3_Node000003_Node000004" class="edge">
<title>Node3&#45;&gt;Node4</title>
<g id="a_edge3_Node000003_Node000004"><a xlink:title=" ">
<path fill="none" stroke="#63b8ff" d="M337.67,-235.24C322.44,-236.15 305.97,-237.14 290.58,-238.06"/>
<polygon fill="#63b8ff" stroke="#63b8ff" points="337.75,-238.74 347.53,-234.65 337.33,-231.76 337.75,-238.74"/>
</a>
</g>
</g>
<!-- Node11 -->
<g id="Node000011" class="node">
<title>Node11</title>
<g id="a_Node000011"><a xlink:href="kest__context_8c.html#a9eec45af3bef4cc85ead192e80d4a524" target="_top" xlink:title=" ">
<polygon fill="white" stroke="#666666" points="450,-193.5 344,-193.5 344,-160 450,-160 450,-193.5"/>
<text xml:space="preserve" text-anchor="start" x="352" y="-180" font-family="Helvetica,sans-Serif" font-size="10.00">cxt_get_profile_by</text>
<text xml:space="preserve" text-anchor="middle" x="397" y="-167.25" font-family="Helvetica,sans-Serif" font-size="10.00">_fname</text>
</a>
</g>
</g>
<!-- Node10&#45;&gt;Node11 -->
<g id="edge5_Node000010_Node000011" class="edge">
<title>Node10&#45;&gt;Node11</title>
<g id="a_edge5_Node000010_Node000011"><a xlink:title=" ">
<path fill="none" stroke="#63b8ff" d="M503.63,-162.78C486.44,-165.05 467.4,-167.57 450.27,-169.84"/>
<polygon fill="#63b8ff" stroke="#63b8ff" points="503.67,-166.3 513.12,-161.52 502.75,-159.36 503.67,-166.3"/>
</a>
</g>
</g>
<!-- Node17 -->
<g id="Node000017" class="node">
<title>Node17</title>
<g id="a_Node000017"><a xlink:href="kest__context_8c.html#a4474b9a7ebb9f0c2bd9fd3773bc81d7f" target="_top" xlink:title=" ">
<polygon fill="white" stroke="#666666" points="457.5,-141.5 336.5,-141.5 336.5,-108 457.5,-108 457.5,-141.5"/>
<text xml:space="preserve" text-anchor="start" x="344.5" y="-128" font-family="Helvetica,sans-Serif" font-size="10.00">cxt_get_sequence_by</text>
<text xml:space="preserve" text-anchor="middle" x="397" y="-115.25" font-family="Helvetica,sans-Serif" font-size="10.00">_fname</text>
</a>
</g>
</g>
<!-- Node10&#45;&gt;Node17 -->
<g id="edge9_Node000010_Node000017" class="edge">
<title>Node10&#45;&gt;Node17</title>
<g id="a_edge9_Node000010_Node000017"><a xlink:title=" ">
<path fill="none" stroke="#63b8ff" d="M503.7,-145.39C489.03,-142.53 472.99,-139.39 457.95,-136.46"/>
<polygon fill="#63b8ff" stroke="#63b8ff" points="502.65,-148.75 513.14,-147.23 504,-141.88 502.65,-148.75"/>
</a>
</g>
</g>
<!-- Node12 -->
<g id="Node000012" class="node">
<title>Node12</title>
<g id="a_Node000012"><a xlink:href="kest__state_8c.html#ab26da214ed0f9d143d63e80a7012796b" target="_top" xlink:title=" ">
<polygon fill="#fff0f0" stroke="red" points="291.12,-213.12 164.88,-213.12 164.88,-192.38 291.12,-192.38 291.12,-213.12"/>
<text xml:space="preserve" text-anchor="middle" x="228" y="-199.62" font-family="Helvetica,sans-Serif" font-size="10.00">kest_cxt_restore_state</text>
</a>
</g>
</g>
<!-- Node11&#45;&gt;Node12 -->
<g id="edge6_Node000011_Node000012" class="edge">
<title>Node11&#45;&gt;Node12</title>
<g id="a_edge6_Node000011_Node000012"><a xlink:title=" ">
<path fill="none" stroke="#63b8ff" d="M332.52,-186.63C319.06,-188.73 304.86,-190.94 291.44,-193.03"/>
<polygon fill="#63b8ff" stroke="#63b8ff" points="332.78,-190.13 342.12,-185.14 331.7,-183.22 332.78,-190.13"/>
</a>
</g>
</g>
<!-- Node13 -->
<g id="Node000013" class="node">
<title>Node13</title>
<g id="a_Node000013"><a xlink:href="kest__page__id_8c.html#a63b55de25f16c715b468429c78e79af0" target="_top" xlink:title=" ">
<polygon fill="#fff0f0" stroke="red" points="294.5,-135.12 161.5,-135.12 161.5,-114.38 294.5,-114.38 294.5,-135.12"/>
<text xml:space="preserve" text-anchor="middle" x="228" y="-121.62" font-family="Helvetica,sans-Serif" font-size="10.00">kest_page_id_find_page</text>
</a>
</g>
</g>
<!-- Node11&#45;&gt;Node13 -->
<g id="edge7_Node000011_Node000013" class="edge">
<title>Node11&#45;&gt;Node13</title>
<g id="a_edge7_Node000011_Node000013"><a xlink:title=" ">
<path fill="none" stroke="#63b8ff" d="M333.23,-156.05C321.38,-152.23 309.08,-148.32 297.5,-144.75 287.56,-141.68 276.76,-138.48 266.75,-135.55"/>
<polygon fill="#63b8ff" stroke="#63b8ff" points="331.92,-159.3 342.51,-159.05 334.08,-152.64 331.92,-159.3"/>
</a>
</g>
</g>
<!-- Node15 -->
<g id="Node000015" class="node">
<title>Node15</title>
<g id="a_Node000015"><a xlink:href="kest__files_8c.html#adecfc697f2f60941218706b2cd77f00c" target="_top" xlink:title=" ">
<polygon fill="#fff0f0" stroke="red" points="297.5,-174.12 158.5,-174.12 158.5,-153.38 297.5,-153.38 297.5,-174.12"/>
<text xml:space="preserve" text-anchor="middle" x="228" y="-160.62" font-family="Helvetica,sans-Serif" font-size="10.00">read_sequence_from_file</text>
</a>
</g>
</g>
<!-- Node11&#45;&gt;Node15 -->
<g id="edge8_Node000011_Node000015" class="edge">
<title>Node11&#45;&gt;Node15</title>
<g id="a_edge8_Node000011_Node000015"><a xlink:title=" ">
<path fill="none" stroke="#63b8ff" d="M332.47,-171.8C321.12,-170.92 309.24,-170 297.75,-169.1"/>
<polygon fill="#63b8ff" stroke="#63b8ff" points="331.87,-175.27 342.11,-172.55 332.41,-168.29 331.87,-175.27"/>
</a>
</g>
</g>
<!-- Node17&#45;&gt;Node13 -->
<g id="edge10_Node000017_Node000013" class="edge">
<title>Node17&#45;&gt;Node13</title>
<g id="a_edge10_Node000017_Node000013"><a xlink:title=" ">
<path fill="none" stroke="#63b8ff" d="M324.71,-124.75C314.82,-124.75 304.7,-124.75 294.91,-124.75"/>
<polygon fill="#63b8ff" stroke="#63b8ff" points="324.67,-128.25 334.67,-124.75 324.67,-121.25 324.67,-128.25"/>
</a>
</g>
</g>
<!-- Node19 -->
<g id="Node000019" class="node">
<title>Node19</title>
<g id="a_Node000019"><a xlink:href="kest__dictionary_8c.html#aae3fbdeba250be8f6dd3dfa686eb24a8" target="_top" xlink:title=" ">
<polygon fill="white" stroke="#666666" points="289.25,-84.12 166.75,-84.12 166.75,-63.38 289.25,-63.38 289.25,-84.12"/>
<text xml:space="preserve" text-anchor="middle" x="228" y="-70.62" font-family="Helvetica,sans-Serif" font-size="10.00">kest_parse_dictionary</text>
</a>
</g>
</g>
<!-- Node18&#45;&gt;Node19 -->
<g id="edge12_Node000018_Node000019" class="edge">
<title>Node18&#45;&gt;Node19</title>
<g id="a_edge12_Node000018_Node000019"><a xlink:title=" ">
<path fill="none" stroke="#63b8ff" d="M501.28,-78.73C442.62,-77.66 350.34,-75.97 289.74,-74.86"/>
<polygon fill="#63b8ff" stroke="#63b8ff" points="500.97,-82.23 511.03,-78.91 501.1,-75.23 500.97,-82.23"/>
</a>
</g>
</g>
<!-- Node24 -->
<g id="Node000024" class="node">
<title>Node24</title>
<g id="a_Node000024"><a xlink:href="kest__expr__parser_8c.html#adf0188b23902aff2ddacb388e811412e" target="_top" xlink:title=" ">
<polygon fill="white" stroke="#666666" points="460.5,-33.5 333.5,-33.5 333.5,0 460.5,0 460.5,-33.5"/>
<text xml:space="preserve" text-anchor="start" x="341.5" y="-20" font-family="Helvetica,sans-Serif" font-size="10.00">kest_parse_expression</text>
<text xml:space="preserve" text-anchor="middle" x="397" y="-7.25" font-family="Helvetica,sans-Serif" font-size="10.00">_rec_pratt</text>
</a>
</g>
</g>
<!-- Node18&#45;&gt;Node24 -->
<g id="edge16_Node000018_Node000024" class="edge">
<title>Node18&#45;&gt;Node24</title>
<g id="a_edge16_Node000018_Node000024"><a xlink:title=" ">
<path fill="none" stroke="#63b8ff" d="M518.93,-64.74C495.62,-55.49 465.65,-43.6 441.37,-33.96"/>
<polygon fill="#63b8ff" stroke="#63b8ff" points="517.47,-67.93 528.05,-68.36 520.05,-61.42 517.47,-67.93"/>
</a>
</g>
</g>
<!-- Node20 -->
<g id="Node000020" class="node">
<title>Node20</title>
<g id="a_Node000020"><a xlink:href="kest__dictionary_8c.html#af0aceaa93cba06fd44ad4bc50f2418e4" target="_top" xlink:title=" ">
<polygon fill="#fff0f0" stroke="red" points="117.25,-52.12 5.25,-52.12 5.25,-31.38 117.25,-31.38 117.25,-52.12"/>
<text xml:space="preserve" text-anchor="middle" x="61.25" y="-38.62" font-family="Helvetica,sans-Serif" font-size="10.00">kest_parse_dict_val</text>
</a>
</g>
</g>
<!-- Node19&#45;&gt;Node20 -->
<g id="edge13_Node000019_Node000020" class="edge">
<title>Node19&#45;&gt;Node20</title>
<g id="a_edge13_Node000019_Node000020"><a xlink:title=" ">
<path fill="none" stroke="#63b8ff" d="M187.26,-60.16C166.36,-55.15 140.41,-49.93 117.57,-46.08"/>
<polygon fill="#63b8ff" stroke="#63b8ff" points="186.28,-63.52 196.83,-62.54 187.98,-56.73 186.28,-63.52"/>
</a>
</g>
</g>
<!-- Node22 -->
<g id="Node000022" class="node">
<title>Node22</title>
<g id="a_Node000022"><a xlink:href="kest__eff__section_8c.html#a4de28fb64398c9194136a2ced71e2795" target="_top" xlink:title=" ">
<polygon fill="#fff0f0" stroke="red" points="122.5,-103.5 0,-103.5 0,-70 122.5,-70 122.5,-103.5"/>
<text xml:space="preserve" text-anchor="start" x="8" y="-90" font-family="Helvetica,sans-Serif" font-size="10.00">kest_parse_dictionary</text>
<text xml:space="preserve" text-anchor="middle" x="61.25" y="-77.25" font-family="Helvetica,sans-Serif" font-size="10.00">_section</text>
</a>
</g>
</g>
<!-- Node19&#45;&gt;Node22 -->
<g id="edge15_Node000019_Node000022" class="edge">
<title>Node19&#45;&gt;Node22</title>
<g id="a_edge15_Node000019_Node000022"><a xlink:title=" ">
<path fill="none" stroke="#63b8ff" d="M155.42,-79.4C144.59,-80.25 133.5,-81.13 122.93,-81.96"/>
<polygon fill="#63b8ff" stroke="#63b8ff" points="155.39,-82.91 165.08,-78.64 154.84,-75.93 155.39,-82.91"/>
</a>
</g>
</g>
<!-- Node20&#45;&gt;Node19 -->
<g id="edge14_Node000020_Node000019" class="edge">
<title>Node20&#45;&gt;Node19</title>
<g id="a_edge14_Node000020_Node000019"><a xlink:title=" ">
<path fill="none" stroke="#63b8ff" d="M101.96,-55.33C121.33,-59.97 145.04,-64.8 166.59,-68.55"/>
<polygon fill="#63b8ff" stroke="#63b8ff" points="102.84,-51.95 92.29,-52.92 101.15,-58.74 102.84,-51.95"/>
</a>
</g>
</g>
<!-- Node24&#45;&gt;Node24 -->
<g id="edge19_Node000024_Node000024" class="edge">
<title>Node24&#45;&gt;Node24</title>
<g id="a_edge19_Node000024_Node000024"><a xlink:title=" ">
<path fill="none" stroke="#63b8ff" d="M423.99,-44.89C419.6,-48.85 410.6,-51.5 397,-51.5 372.82,-51.5 363.19,-43.12 368.1,-33.91"/>
<polygon fill="#63b8ff" stroke="#63b8ff" points="427.38,-45.86 425.64,-35.41 420.48,-44.66 427.38,-45.86"/>
</a>
</g>
</g>
<!-- Node25 -->
<g id="Node000025" class="node">
<title>Node25</title>
<g id="a_Node000025"><a xlink:href="kest__expr__parser_8c.html#a7caaee6c8b0c14b3ff08fba98d837ead" target="_top" xlink:title=" ">
<polygon fill="#fff0f0" stroke="red" points="291.5,-33.12 164.5,-33.12 164.5,-12.38 291.5,-12.38 291.5,-33.12"/>
<text xml:space="preserve" text-anchor="middle" x="228" y="-19.62" font-family="Helvetica,sans-Serif" font-size="10.00">kest_parse_expression</text>
</a>
</g>
</g>
<!-- Node24&#45;&gt;Node25 -->
<g id="edge17_Node000024_Node000025" class="edge">
<title>Node24&#45;&gt;Node25</title>
<g id="a_edge17_Node000024_Node000025"><a xlink:title=" ">
<path fill="none" stroke="#63b8ff" d="M322.03,-19.41C311.92,-19.77 301.62,-20.14 291.73,-20.5"/>
<polygon fill="#63b8ff" stroke="#63b8ff" points="321.96,-22.91 331.83,-19.06 321.71,-15.92 321.96,-22.91"/>
</a>
</g>
</g>
<!-- Node25&#45;&gt;Node20 -->
<g id="edge18_Node000025_Node000020" class="edge">
<title>Node25&#45;&gt;Node20</title>
<g id="a_edge18_Node000025_Node000020"><a xlink:title=" ">
<path fill="none" stroke="#63b8ff" d="M152.94,-31.29C141.04,-32.66 128.91,-34.06 117.55,-35.37"/>
<polygon fill="#63b8ff" stroke="#63b8ff" points="153.21,-34.78 162.74,-30.16 152.41,-27.83 153.21,-34.78"/>
</a>
</g>
</g>
</g>
</svg>
