<?xml version="1.0" encoding="UTF-8" standalone="no"?>
<!DOCTYPE svg PUBLIC "-//W3C//DTD SVG 1.1//EN"
 "http://www.w3.org/Graphics/SVG/1.1/DTD/svg11.dtd">
<!-- Generated by graphviz version 13.1.2 (20250808.2320)
 -->
<!-- Title: kest_button_create_label_ui Pages: 1 -->
<svg width="895pt" height="249pt"
 viewBox="0.00 0.00 895.00 249.00" xmlns="http://www.w3.org/2000/svg" xmlns:xlink="http://www.w3.org/1999/xlink">
<g id="graph0" class="graph" transform="scale(1 1) rotate(0) translate(4 244.5)">
<title>kest_button_create_label_ui</title>
<!-- Node1 -->
<g id="Node000001" class="node">
<title>Node1</title>
<g id="a_Node000001"><a xlink:title=" ">
<polygon fill="#999999" stroke="#666666" points="887.25,-176.12 778.25,-176.12 778.25,-142.62 887.25,-142.62 887.25,-176.12"/>
<text xml:space="preserve" text-anchor="start" x="786.25" y="-162.62" font-family="Helvetica,sans-Serif" font-size="10.00">kest_button_create</text>
<text xml:space="preserve" text-anchor="middle" x="832.75" y="-149.88" font-family="Helvetica,sans-Serif" font-size="10.00">_label_ui</text>
</a>
</g>
</g>
<!-- Node2 -->
<g id="Node000002" class="node">
<title>Node2</title>
<g id="a_Node000002"><a xlink:href="kest__button_8c.html#ab3d484ae52f7d01018eba300e3fe4e1f" target="_top" xlink:title=" ">
<polygon fill="white" stroke="#666666" points="572.5,-176.12 464.25,-176.12 464.25,-142.62 572.5,-142.62 572.5,-176.12"/>
<text xml:space="preserve" text-anchor="start" x="472.25" y="-162.62" font-family="Helvetica,sans-Serif" font-size="10.00">kest_active_button</text>
<text xml:space="preserve" text-anchor="middle" x="518.38" y="-149.88" font-family="Helvetica,sans-Serif" font-size="10.00">_reset_del_button</text>
</a>
</g>
</g>
<!-- Node1&#45;&gt;Node2 -->
<g id="edge1_Node000001_Node000002" class="edge">
<title>Node1&#45;&gt;Node2</title>
<g id="a_edge1_Node000001_Node000002"><a xlink:title=" ">
<path fill="none" stroke="#63b8ff" d="M766.56,-159.38C709.14,-159.38 626.52,-159.38 572.9,-159.38"/>
<polygon fill="#63b8ff" stroke="#63b8ff" points="766.54,-162.88 776.54,-159.38 766.54,-155.88 766.54,-162.88"/>
</a>
</g>
</g>
<!-- Node21 -->
<g id="Node000021" class="node">
<title>Node21</title>
<g id="a_Node000021"><a xlink:href="kest__button_8c.html#ab59ebaba4ff87ed51677e73ba4aac2ef" target="_top" xlink:title=" ">
<polygon fill="white" stroke="#666666" points="583.75,-240.5 453,-240.5 453,-194.25 583.75,-194.25 583.75,-240.5"/>
<text xml:space="preserve" text-anchor="start" x="461" y="-227" font-family="Helvetica,sans-Serif" font-size="10.00">kest_active_button</text>
<text xml:space="preserve" text-anchor="start" x="461" y="-214.25" font-family="Helvetica,sans-Serif" font-size="10.00">_swap_del_button_for</text>
<text xml:space="preserve" text-anchor="middle" x="518.38" y="-201.5" font-family="Helvetica,sans-Serif" font-size="10.00">_persistent_unclickable</text>
</a>
</g>
</g>
<!-- Node1&#45;&gt;Node21 -->
<g id="edge6_Node000001_Node000021" class="edge">
<title>Node1&#45;&gt;Node21</title>
<g id="a_edge6_Node000001_Node000021"><a xlink:title=" ">
<path fill="none" stroke="#63b8ff" d="M766.96,-171.4C713.34,-181.36 637.55,-195.43 583.98,-205.38"/>
<polygon fill="#63b8ff" stroke="#63b8ff" points="767.37,-174.89 776.56,-169.62 766.09,-168.01 767.37,-174.89"/>
</a>
</g>
</g>
<!-- Node22 -->
<g id="Node000022" class="node">
<title>Node22</title>
<g id="a_Node000022"><a xlink:href="kest__button_8c.html#ac24f7930db96a5006a81ec8255ad0e6c" target="_top" xlink:title=" ">
<polygon fill="white" stroke="#666666" points="742.25,-124.75 619.75,-124.75 619.75,-104 742.25,-104 742.25,-124.75"/>
<text xml:space="preserve" text-anchor="middle" x="681" y="-111.25" font-family="Helvetica,sans-Serif" font-size="10.00">kest_button_set_label</text>
</a>
</g>
</g>
<!-- Node1&#45;&gt;Node22 -->
<g id="edge8_Node000001_Node000022" class="edge">
<title>Node1&#45;&gt;Node22</title>
<g id="a_edge8_Node000001_Node000022"><a xlink:title=" ">
<path fill="none" stroke="#63b8ff" d="M767.17,-139.97C750.3,-134.9 732.73,-129.62 717.95,-125.18"/>
<polygon fill="#63b8ff" stroke="#63b8ff" points="766.08,-143.29 776.66,-142.82 768.09,-136.59 766.08,-143.29"/>
</a>
</g>
</g>
<!-- Node3 -->
<g id="Node000003" class="node">
<title>Node3</title>
<g id="a_Node000003"><a xlink:href="kest__sequence__view_8c.html#aa97e3f2de03cf8443b11f65520f6b387" target="_top" xlink:title=" ">
<polygon fill="white" stroke="#666666" points="417,-162.12 289.25,-162.12 289.25,-128.62 417,-128.62 417,-162.12"/>
<text xml:space="preserve" text-anchor="start" x="297.25" y="-148.62" font-family="Helvetica,sans-Serif" font-size="10.00">sequence_view_profile</text>
<text xml:space="preserve" text-anchor="middle" x="353.12" y="-135.88" font-family="Helvetica,sans-Serif" font-size="10.00">_button_rep_update</text>
</a>
</g>
</g>
<!-- Node2&#45;&gt;Node3 -->
<g id="edge2_Node000002_Node000003" class="edge">
<title>Node2&#45;&gt;Node3</title>
<g id="a_edge2_Node000002_Node000003"><a xlink:title=" ">
<path fill="none" stroke="#63b8ff" d="M452.53,-153.81C440.95,-152.82 428.9,-151.79 417.36,-150.8"/>
<polygon fill="#63b8ff" stroke="#63b8ff" points="452.15,-157.29 462.41,-154.66 452.75,-150.32 452.15,-157.29"/>
</a>
</g>
</g>
<!-- Node4 -->
<g id="Node000004" class="node">
<title>Node4</title>
<g id="a_Node000004"><a xlink:href="kest__sequence__view_8c.html#ac871b24a7c875a7b6e707a3d2691a2a9" target="_top" xlink:title=" ">
<polygon fill="#fff0f0" stroke="red" points="142,-117.75 0,-117.75 0,-97 142,-97 142,-117.75"/>
<text xml:space="preserve" text-anchor="middle" x="71" y="-104.25" font-family="Helvetica,sans-Serif" font-size="10.00">configure_sequence_view</text>
</a>
</g>
</g>
<!-- Node3&#45;&gt;Node4 -->
<g id="edge3_Node000003_Node000004" class="edge">
<title>Node3&#45;&gt;Node4</title>
<g id="a_edge3_Node000003_Node000004"><a xlink:title=" ">
<path fill="none" stroke="#63b8ff" d="M277.98,-138.42C247.02,-135.22 210.7,-131.08 178,-126.38 161.81,-124.04 144.3,-121.09 128.27,-118.2"/>
<polygon fill="#63b8ff" stroke="#63b8ff" points="277.32,-141.87 287.62,-139.4 278.03,-134.91 277.32,-141.87"/>
</a>
</g>
</g>
<!-- Node20 -->
<g id="Node000020" class="node">
<title>Node20</title>
<g id="a_Node000020"><a xlink:href="kest__sequence__view_8c.html#a83d1a352af6a3932ce4d08e01f7d8d8a" target="_top" xlink:title=" ">
<polygon fill="white" stroke="#666666" points="253.25,-117.75 178,-117.75 178,-97 253.25,-97 253.25,-117.75"/>
<text xml:space="preserve" text-anchor="middle" x="215.62" y="-104.25" font-family="Helvetica,sans-Serif" font-size="10.00">seq_plus_cb</text>
</a>
</g>
</g>
<!-- Node3&#45;&gt;Node20 -->
<g id="edge4_Node000003_Node000020" class="edge">
<title>Node3&#45;&gt;Node20</title>
<g id="a_edge4_Node000003_Node000020"><a xlink:title=" ">
<path fill="none" stroke="#63b8ff" d="M279.64,-125.05C270.56,-122.5 261.6,-119.99 253.4,-117.69"/>
<polygon fill="#63b8ff" stroke="#63b8ff" points="278.69,-128.41 289.26,-127.75 280.58,-121.67 278.69,-128.41"/>
</a>
</g>
</g>
<!-- Node20&#45;&gt;Node4 -->
<g id="edge5_Node000020_Node000004" class="edge">
<title>Node20&#45;&gt;Node4</title>
<g id="a_edge5_Node000020_Node000004"><a xlink:title=" ">
<path fill="none" stroke="#63b8ff" d="M166.22,-107.38C158.53,-107.38 150.44,-107.38 142.37,-107.38"/>
<polygon fill="#63b8ff" stroke="#63b8ff" points="166.01,-110.88 176.01,-107.38 166.01,-103.88 166.01,-110.88"/>
</a>
</g>
</g>
<!-- Node21&#45;&gt;Node3 -->
<g id="edge7_Node000021_Node000003" class="edge">
<title>Node21&#45;&gt;Node3</title>
<g id="a_edge7_Node000021_Node000003"><a xlink:title=" ">
<path fill="none" stroke="#63b8ff" d="M453.45,-189.18C433.11,-180.21 411.24,-170.56 393.2,-162.61"/>
<polygon fill="#63b8ff" stroke="#63b8ff" points="451.97,-192.36 462.54,-193.19 454.8,-185.95 451.97,-192.36"/>
</a>
</g>
</g>
<!-- Node22&#45;&gt;Node2 -->
<g id="edge17_Node000022_Node000002" class="edge">
<title>Node22&#45;&gt;Node2</title>
<g id="a_edge17_Node000022_Node000002"><a xlink:title=" ">
<path fill="none" stroke="#63b8ff" d="M630.49,-128.24C612.18,-133.37 591.35,-139.21 572.72,-144.43"/>
<polygon fill="#63b8ff" stroke="#63b8ff" points="631.38,-131.63 640.07,-125.56 629.5,-124.89 631.38,-131.63"/>
</a>
</g>
</g>
<!-- Node22&#45;&gt;Node21 -->
<g id="edge18_Node000022_Node000021" class="edge">
<title>Node22&#45;&gt;Node21</title>
<g id="a_edge18_Node000022_Node000021"><a xlink:title=" ">
<path fill="none" stroke="#63b8ff" d="M658.37,-132.03C639.34,-147.14 610.58,-168.98 583.75,-185.38 579.06,-188.24 574.09,-191.06 569.06,-193.78"/>
<polygon fill="#63b8ff" stroke="#63b8ff" points="660.33,-134.95 665.94,-125.96 655.95,-129.49 660.33,-134.95"/>
</a>
</g>
</g>
<!-- Node23 -->
<g id="Node000023" class="node">
<title>Node23</title>
<g id="a_Node000023"><a xlink:href="kest__menu_8c.html#a86c6c0acd2dfb8a62bd96bbfd739e687" target="_top" xlink:title=" ">
<polygon fill="white" stroke="#666666" points="580.75,-20.75 456,-20.75 456,0 580.75,0 580.75,-20.75"/>
<text xml:space="preserve" text-anchor="middle" x="518.38" y="-7.25" font-family="Helvetica,sans-Serif" font-size="10.00">configure_main_menu</text>
</a>
</g>
</g>
<!-- Node22&#45;&gt;Node23 -->
<g id="edge9_Node000022_Node000023" class="edge">
<title>Node22&#45;&gt;Node23</title>
<g id="a_edge9_Node000022_Node000023"><a xlink:title=" ">
<path fill="none" stroke="#63b8ff" d="M663.19,-95.28C645.29,-76.04 615.24,-46.79 583.75,-29.38 577.94,-26.16 571.52,-23.44 565.06,-21.14"/>
<polygon fill="#63b8ff" stroke="#63b8ff" points="660.41,-97.41 669.72,-102.46 665.58,-92.7 660.41,-97.41"/>
</a>
</g>
</g>
<!-- Node25 -->
<g id="Node000025" class="node">
<title>Node25</title>
<g id="a_Node000025"><a xlink:href="kest__button_8c.html#a209511305dd2db40751857097e1e82c1" target="_top" xlink:title=" ">
<polygon fill="white" stroke="#666666" points="572.5,-72.12 464.25,-72.12 464.25,-38.62 572.5,-38.62 572.5,-72.12"/>
<text xml:space="preserve" text-anchor="start" x="472.25" y="-58.62" font-family="Helvetica,sans-Serif" font-size="10.00">kest_active_button</text>
<text xml:space="preserve" text-anchor="middle" x="518.38" y="-45.88" font-family="Helvetica,sans-Serif" font-size="10.00">_add_del_button</text>
</a>
</g>
</g>
<!-- Node22&#45;&gt;Node25 -->
<g id="edge11_Node000022_Node000025" class="edge">
<title>Node22&#45;&gt;Node25</title>
<g id="a_edge11_Node000022_Node000025"><a xlink:title=" ">
<path fill="none" stroke="#63b8ff" d="M639.76,-99.59C617.45,-91.4 589.6,-81.17 566.31,-72.61"/>
<polygon fill="#63b8ff" stroke="#63b8ff" points="638.52,-102.87 649.12,-103.03 640.94,-96.3 638.52,-102.87"/>
</a>
</g>
</g>
<!-- Node39 -->
<g id="Node000039" class="node">
<title>Node39</title>
<g id="a_Node000039"><a xlink:href="kest__button_8c.html#a9899cf8789d635db3bb8b1d4c514e140" target="_top" xlink:title=" ">
<polygon fill="white" stroke="#666666" points="572.5,-124.12 464.25,-124.12 464.25,-90.62 572.5,-90.62 572.5,-124.12"/>
<text xml:space="preserve" text-anchor="start" x="472.25" y="-110.62" font-family="Helvetica,sans-Serif" font-size="10.00">kest_active_button</text>
<text xml:space="preserve" text-anchor="middle" x="518.38" y="-97.88" font-family="Helvetica,sans-Serif" font-size="10.00">_change_label</text>
</a>
</g>
</g>
<!-- Node22&#45;&gt;Node39 -->
<g id="edge15_Node000022_Node000039" class="edge">
<title>Node22&#45;&gt;Node39</title>
<g id="a_edge15_Node000022_Node000039"><a xlink:title=" ">
<path fill="none" stroke="#63b8ff" d="M608.03,-111.24C596.19,-110.72 584.1,-110.2 572.81,-109.7"/>
<polygon fill="#63b8ff" stroke="#63b8ff" points="607.62,-114.72 617.76,-111.66 607.92,-107.73 607.62,-114.72"/>
</a>
</g>
</g>
<!-- Node24 -->
<g id="Node000024" class="node">
<title>Node24</title>
<g id="a_Node000024"><a xlink:href="kest__menu_8c.html#a6aa16fb3d12f098f021ae677605e683e" target="_top" xlink:title=" ">
<polygon fill="#fff0f0" stroke="red" points="400.5,-20.75 305.75,-20.75 305.75,0 400.5,0 400.5,-20.75"/>
<text xml:space="preserve" text-anchor="middle" x="353.12" y="-7.25" font-family="Helvetica,sans-Serif" font-size="10.00">init_main_menu</text>
</a>
</g>
</g>
<!-- Node23&#45;&gt;Node24 -->
<g id="edge10_Node000023_Node000024" class="edge">
<title>Node23&#45;&gt;Node24</title>
<g id="a_edge10_Node000023_Node000024"><a xlink:title=" ">
<path fill="none" stroke="#63b8ff" d="M444.46,-10.38C429.67,-10.38 414.5,-10.38 400.91,-10.38"/>
<polygon fill="#63b8ff" stroke="#63b8ff" points="444.14,-13.88 454.14,-10.38 444.14,-6.88 444.14,-13.88"/>
</a>
</g>
</g>
<!-- Node26 -->
<g id="Node000026" class="node">
<title>Node26</title>
<g id="a_Node000026"><a xlink:href="kest__button_8c.html#a760fe364ce4f5be2c972ff685e2f9825" target="_top" xlink:title=" ">
<polygon fill="#fff0f0" stroke="red" points="409.88,-86.12 296.38,-86.12 296.38,-52.62 409.88,-52.62 409.88,-86.12"/>
<text xml:space="preserve" text-anchor="start" x="304.38" y="-72.62" font-family="Helvetica,sans-Serif" font-size="10.00">kest_active_button</text>
<text xml:space="preserve" text-anchor="middle" x="353.12" y="-59.88" font-family="Helvetica,sans-Serif" font-size="10.00">_array_append_new</text>
</a>
</g>
</g>
<!-- Node25&#45;&gt;Node26 -->
<g id="edge12_Node000025_Node000026" class="edge">
<title>Node25&#45;&gt;Node26</title>
<g id="a_edge12_Node000025_Node000026"><a xlink:title=" ">
<path fill="none" stroke="#63b8ff" d="M452.81,-60.91C438.73,-62.12 423.94,-63.39 410.22,-64.56"/>
<polygon fill="#63b8ff" stroke="#63b8ff" points="452.75,-64.43 462.41,-60.09 452.15,-57.46 452.75,-64.43"/>
</a>
</g>
</g>
<!-- Node26&#45;&gt;Node4 -->
<g id="edge13_Node000026_Node000004" class="edge">
<title>Node26&#45;&gt;Node4</title>
<g id="a_edge13_Node000026_Node000004"><a xlink:title=" ">
<path fill="none" stroke="#63b8ff" d="M284.79,-75.63C252.44,-78.92 213.14,-83.32 178,-88.38 161.81,-90.71 144.3,-93.66 128.27,-96.55"/>
<polygon fill="#63b8ff" stroke="#63b8ff" points="284.83,-79.15 294.43,-74.67 284.13,-72.18 284.83,-79.15"/>
</a>
</g>
</g>
<!-- Node26&#45;&gt;Node20 -->
<g id="edge14_Node000026_Node000020" class="edge">
<title>Node26&#45;&gt;Node20</title>
<g id="a_edge14_Node000026_Node000020"><a xlink:title=" ">
<path fill="none" stroke="#63b8ff" d="M285.31,-88.11C274.33,-91.19 263.32,-94.28 253.44,-97.05"/>
<polygon fill="#63b8ff" stroke="#63b8ff" points="286.09,-91.53 294.77,-85.46 284.2,-84.79 286.09,-91.53"/>
</a>
</g>
</g>
<!-- Node39&#45;&gt;Node3 -->
<g id="edge16_Node000039_Node000003" class="edge">
<title>Node39&#45;&gt;Node3</title>
<g id="a_edge16_Node000039_Node000003"><a xlink:title=" ">
<path fill="none" stroke="#63b8ff" d="M452.89,-122.38C441.2,-125.11 429.02,-127.94 417.36,-130.66"/>
<polygon fill="#63b8ff" stroke="#63b8ff" points="453.5,-125.84 462.45,-120.16 451.91,-119.02 453.5,-125.84"/>
</a>
</g>
</g>
</g>
</svg>
