<?xml version="1.0" encoding="UTF-8" standalone="no"?>
<!DOCTYPE svg PUBLIC "-//W3C//DTD SVG 1.1//EN"
 "http://www.w3.org/Graphics/SVG/1.1/DTD/svg11.dtd">
<!-- Generated by graphviz version 13.1.2 (20250808.2320)
 -->
<!-- Title: kest_block_opcode_to_name Pages: 1 -->
<svg width="636pt" height="68pt"
 viewBox="0.00 0.00 636.00 68.00" xmlns="http://www.w3.org/2000/svg" xmlns:xlink="http://www.w3.org/1999/xlink">
<g id="graph0" class="graph" transform="scale(1 1) rotate(0) translate(4 63.75)">
<title>kest_block_opcode_to_name</title>
<!-- Node1 -->
<g id="Node000001" class="node">
<title>Node1</title>
<g id="a_Node000001"><a xlink:title=" ">
<polygon fill="#999999" stroke="#666666" points="628,-39.75 471.75,-39.75 471.75,-19 628,-19 628,-39.75"/>
<text xml:space="preserve" text-anchor="middle" x="549.88" y="-26.25" font-family="Helvetica,sans-Serif" font-size="10.00">kest_block_opcode_to_name</text>
</a>
</g>
</g>
<!-- Node2 -->
<g id="Node000002" class="node">
<title>Node2</title>
<g id="a_Node000002"><a xlink:href="kest__fpga__encoding_8c.html#a7ca2a1fbddc5d291e6f3196e060cd163" target="_top" xlink:title=" ">
<polygon fill="white" stroke="#666666" points="435.75,-59.75 290.75,-59.75 290.75,-39 435.75,-39 435.75,-59.75"/>
<text xml:space="preserve" text-anchor="middle" x="363.25" y="-46.25" font-family="Helvetica,sans-Serif" font-size="10.00">print_instruction_format_a</text>
</a>
</g>
</g>
<!-- Node1&#45;&gt;Node2 -->
<g id="edge1_Node000001_Node000002" class="edge">
<title>Node1&#45;&gt;Node2</title>
<g id="a_edge1_Node000001_Node000002"><a xlink:title=" ">
<path fill="none" stroke="#63b8ff" d="M460.12,-38.99C452.11,-39.86 444.08,-40.73 436.25,-41.58"/>
<polygon fill="#63b8ff" stroke="#63b8ff" points="460.31,-42.49 469.88,-37.93 459.56,-35.53 460.31,-42.49"/>
</a>
</g>
</g>
<!-- Node9 -->
<g id="Node000009" class="node">
<title>Node9</title>
<g id="a_Node000009"><a xlink:href="kest__fpga__encoding_8c.html#a742d286efbcdfcfb04471fac4282b318" target="_top" xlink:title=" ">
<polygon fill="white" stroke="#666666" points="435.75,-20.75 290.75,-20.75 290.75,0 435.75,0 435.75,-20.75"/>
<text xml:space="preserve" text-anchor="middle" x="363.25" y="-7.25" font-family="Helvetica,sans-Serif" font-size="10.00">print_instruction_format_b</text>
</a>
</g>
</g>
<!-- Node1&#45;&gt;Node9 -->
<g id="edge4_Node000001_Node000009" class="edge">
<title>Node1&#45;&gt;Node9</title>
<g id="a_edge4_Node000001_Node000009"><a xlink:title=" ">
<path fill="none" stroke="#63b8ff" d="M460.12,-20.24C452.11,-19.42 444.08,-18.59 436.25,-17.78"/>
<polygon fill="#63b8ff" stroke="#63b8ff" points="459.57,-23.7 469.87,-21.24 460.29,-16.74 459.57,-23.7"/>
</a>
</g>
</g>
<!-- Node3 -->
<g id="Node000003" class="node">
<title>Node3</title>
<g id="a_Node000003"><a xlink:href="kest__fpga__encoding_8c.html#a9f3d76916b565e27599aebdb6c624499" target="_top" xlink:title=" ">
<polygon fill="white" stroke="#666666" points="254.75,-39.75 159.25,-39.75 159.25,-19 254.75,-19 254.75,-39.75"/>
<text xml:space="preserve" text-anchor="middle" x="207" y="-26.25" font-family="Helvetica,sans-Serif" font-size="10.00">print_instruction</text>
</a>
</g>
</g>
<!-- Node2&#45;&gt;Node3 -->
<g id="edge2_Node000002_Node000003" class="edge">
<title>Node2&#45;&gt;Node3</title>
<g id="a_edge2_Node000002_Node000003"><a xlink:title=" ">
<path fill="none" stroke="#63b8ff" d="M279.17,-38.6C270.84,-37.52 262.61,-36.46 254.86,-35.45"/>
<polygon fill="#63b8ff" stroke="#63b8ff" points="278.68,-42.07 289.04,-39.88 279.58,-35.13 278.68,-42.07"/>
</a>
</g>
</g>
<!-- Node4 -->
<g id="Node000004" class="node">
<title>Node4</title>
<g id="a_Node000004"><a xlink:href="kest__fpga__encoding_8c.html#a846915834c09759d6445b5dffc45b723" target="_top" xlink:title=" ">
<polygon fill="#fff0f0" stroke="red" points="123.25,-39.75 0,-39.75 0,-19 123.25,-19 123.25,-39.75"/>
<text xml:space="preserve" text-anchor="middle" x="61.62" y="-26.25" font-family="Helvetica,sans-Serif" font-size="10.00">kest_fpga_batch_print</text>
</a>
</g>
</g>
<!-- Node3&#45;&gt;Node4 -->
<g id="edge3_Node000003_Node000004" class="edge">
<title>Node3&#45;&gt;Node4</title>
<g id="a_edge3_Node000003_Node000004"><a xlink:title=" ">
<path fill="none" stroke="#63b8ff" d="M147.62,-29.38C139.68,-29.38 131.51,-29.38 123.52,-29.38"/>
<polygon fill="#63b8ff" stroke="#63b8ff" points="147.54,-32.88 157.54,-29.38 147.54,-25.88 147.54,-32.88"/>
</a>
</g>
</g>
<!-- Node9&#45;&gt;Node3 -->
<g id="edge5_Node000009_Node000003" class="edge">
<title>Node9&#45;&gt;Node3</title>
<g id="a_edge5_Node000009_Node000003"><a xlink:title=" ">
<path fill="none" stroke="#63b8ff" d="M279.17,-20.61C270.84,-21.63 262.61,-22.65 254.86,-23.6"/>
<polygon fill="#63b8ff" stroke="#63b8ff" points="279.54,-24.09 289.04,-19.39 278.69,-17.14 279.54,-24.09"/>
</a>
</g>
</g>
</g>
</svg>
