<?xml version="1.0" encoding="UTF-8" standalone="no"?>
<!DOCTYPE svg PUBLIC "-//W3C//DTD SVG 1.1//EN"
 "http://www.w3.org/Graphics/SVG/1.1/DTD/svg11.dtd">
<!-- Generated by graphviz version 13.1.2 (20250808.2320)
 -->
<!-- Title: kest_expression_compute_range_rec Pages: 1 -->
<svg width="684pt" height="327pt"
 viewBox="0.00 0.00 684.00 327.00" xmlns="http://www.w3.org/2000/svg" xmlns:xlink="http://www.w3.org/1999/xlink">
<g id="graph0" class="graph" transform="scale(1 1) rotate(0) translate(4 322.75)">
<title>kest_expression_compute_range_rec</title>
<!-- Node1 -->
<g id="Node000001" class="node">
<title>Node1</title>
<g id="a_Node000001"><a xlink:title=" ">
<polygon fill="#999999" stroke="#666666" points="142.75,-176.12 0,-176.12 0,-142.62 142.75,-142.62 142.75,-176.12"/>
<text xml:space="preserve" text-anchor="start" x="8" y="-162.62" font-family="Helvetica,sans-Serif" font-size="10.00">kest_expression_compute</text>
<text xml:space="preserve" text-anchor="middle" x="71.38" y="-149.88" font-family="Helvetica,sans-Serif" font-size="10.00">_range_rec</text>
</a>
</g>
</g>
<!-- Node1&#45;&gt;Node1 -->
<g id="edge3_Node000001_Node000001" class="edge">
<title>Node1&#45;&gt;Node1</title>
<g id="a_edge3_Node000001_Node000001"><a xlink:title=" ">
<path fill="none" stroke="#63b8ff" d="M39.24,-176.54C33.78,-185.74 44.49,-194.12 71.38,-194.12 86.5,-194.12 96.5,-191.47 101.39,-187.51"/>
<polygon fill="#63b8ff" stroke="#63b8ff" points="104.76,-188.51 103.22,-178.03 97.89,-187.18 104.76,-188.51"/>
</a>
</g>
</g>
<!-- Node2 -->
<g id="Node000002" class="node">
<title>Node2</title>
<g id="a_Node000002"><a xlink:href="kest__expr__scope_8c.html#a8077a19bd328bbd93fcbf80d8591cb5c" target="_top" xlink:title=" ">
<polygon fill="white" stroke="#666666" points="313.62,-318.75 186.62,-318.75 186.62,-298 313.62,-298 313.62,-318.75"/>
<text xml:space="preserve" text-anchor="middle" x="250.12" y="-305.25" font-family="Helvetica,sans-Serif" font-size="10.00">kest_expr_scope_fetch</text>
</a>
</g>
</g>
<!-- Node1&#45;&gt;Node2 -->
<g id="edge1_Node000001_Node000002" class="edge">
<title>Node1&#45;&gt;Node2</title>
<g id="a_edge1_Node000001_Node000002"><a xlink:title=" ">
<path fill="none" stroke="#63b8ff" d="M81.75,-176.41C97.88,-204.12 133.56,-258.83 178.75,-288.38 181.3,-290.04 184,-291.58 186.78,-292.98"/>
<polygon fill="#63b8ff" stroke="#63b8ff" points="185.23,-296.12 195.79,-296.93 188.04,-289.71 185.23,-296.12"/>
</a>
</g>
</g>
<!-- Node3 -->
<g id="Node000003" class="node">
<title>Node3</title>
<g id="a_Node000003"><a xlink:href="kest__expression_8c.html#a835e180e79c6b6d2e4377a528949d7a0" target="_top" xlink:title=" ">
<polygon fill="white" stroke="#666666" points="311.38,-279.75 188.88,-279.75 188.88,-259 311.38,-259 311.38,-279.75"/>
<text xml:space="preserve" text-anchor="middle" x="250.12" y="-266.25" font-family="Helvetica,sans-Serif" font-size="10.00">kest_expression_arity</text>
</a>
</g>
</g>
<!-- Node1&#45;&gt;Node3 -->
<g id="edge2_Node000001_Node000003" class="edge">
<title>Node1&#45;&gt;Node3</title>
<g id="a_edge2_Node000001_Node000003"><a xlink:title=" ">
<path fill="none" stroke="#63b8ff" d="M88.04,-176.47C107.46,-196.69 142.46,-230.04 178.75,-249.38 182.38,-251.31 186.22,-253.08 190.16,-254.68"/>
<polygon fill="#63b8ff" stroke="#63b8ff" points="188.72,-257.88 199.32,-258.06 191.14,-251.32 188.72,-257.88"/>
</a>
</g>
</g>
<!-- Node4 -->
<g id="Node000004" class="node">
<title>Node4</title>
<g id="a_Node000004"><a xlink:href="kest__expression_8c.html#acf37e49d77d8bcdaa88727bd67c146fa" target="_top" xlink:title=" ">
<polygon fill="white" stroke="#666666" points="321.5,-240.75 178.75,-240.75 178.75,-220 321.5,-220 321.5,-240.75"/>
<text xml:space="preserve" text-anchor="middle" x="250.12" y="-227.25" font-family="Helvetica,sans-Serif" font-size="10.00">kest_expression_evaluate</text>
</a>
</g>
</g>
<!-- Node1&#45;&gt;Node4 -->
<g id="edge4_Node000001_Node000004" class="edge">
<title>Node1&#45;&gt;Node4</title>
<g id="a_edge4_Node000001_Node000004"><a xlink:title=" ">
<path fill="none" stroke="#63b8ff" d="M103.33,-176.46C124.19,-187.49 152.58,-201.55 178.75,-211.38 183.41,-213.12 188.29,-214.78 193.23,-216.34"/>
<polygon fill="#63b8ff" stroke="#63b8ff" points="192.01,-219.63 202.59,-219.14 194.02,-212.92 192.01,-219.63"/>
</a>
</g>
</g>
<!-- Node5 -->
<g id="Node000005" class="node">
<title>Node5</title>
<g id="a_Node000005"><a xlink:href="kest__expression_8c.html#af12e3464d3e6c4a6e573736af368fd91" target="_top" xlink:title=" ">
<polygon fill="white" stroke="#666666" points="314.38,-202.12 185.88,-202.12 185.88,-168.62 314.38,-168.62 314.38,-202.12"/>
<text xml:space="preserve" text-anchor="start" x="193.88" y="-188.62" font-family="Helvetica,sans-Serif" font-size="10.00">kest_expression_refers</text>
<text xml:space="preserve" text-anchor="middle" x="250.12" y="-175.88" font-family="Helvetica,sans-Serif" font-size="10.00">_constant</text>
</a>
</g>
</g>
<!-- Node1&#45;&gt;Node5 -->
<g id="edge5_Node000001_Node000005" class="edge">
<title>Node1&#45;&gt;Node5</title>
<g id="a_edge5_Node000001_Node000005"><a xlink:title=" ">
<path fill="none" stroke="#63b8ff" d="M143.25,-169.8C153.37,-171.29 163.8,-172.82 174,-174.32"/>
<polygon fill="#63b8ff" stroke="#63b8ff" points="173.48,-177.78 183.88,-175.78 174.5,-170.86 173.48,-177.78"/>
</a>
</g>
</g>
<!-- Node6 -->
<g id="Node000006" class="node">
<title>Node6</title>
<g id="a_Node000006"><a xlink:href="kest__expression_8c.html#aadf2a6a074cb1ad7b45893704cbd71c3" target="_top" xlink:title=" ">
<polygon fill="white" stroke="#666666" points="305,-150.12 195.25,-150.12 195.25,-116.62 305,-116.62 305,-150.12"/>
<text xml:space="preserve" text-anchor="start" x="203.25" y="-136.62" font-family="Helvetica,sans-Serif" font-size="10.00">kest_expression_to</text>
<text xml:space="preserve" text-anchor="middle" x="250.12" y="-123.88" font-family="Helvetica,sans-Serif" font-size="10.00">_string</text>
</a>
</g>
</g>
<!-- Node1&#45;&gt;Node6 -->
<g id="edge6_Node000001_Node000006" class="edge">
<title>Node1&#45;&gt;Node6</title>
<g id="a_edge6_Node000001_Node000006"><a xlink:title=" ">
<path fill="none" stroke="#63b8ff" d="M143.25,-148.95C156.54,-146.99 170.39,-144.96 183.52,-143.03"/>
<polygon fill="#63b8ff" stroke="#63b8ff" points="183.96,-146.5 193.34,-141.58 182.94,-139.57 183.96,-146.5"/>
</a>
</g>
</g>
<!-- Node11 -->
<g id="Node000011" class="node">
<title>Node11</title>
<g id="a_Node000011"><a xlink:href="kest__expression_8c.html#ae162d4eb0d35fa2b80788054a533387e" target="_top" xlink:title=" ">
<polygon fill="white" stroke="#666666" points="298.25,-98.75 202,-98.75 202,-78 298.25,-78 298.25,-98.75"/>
<text xml:space="preserve" text-anchor="middle" x="250.12" y="-85.25" font-family="Helvetica,sans-Serif" font-size="10.00">kest_interval_ab</text>
</a>
</g>
</g>
<!-- Node1&#45;&gt;Node11 -->
<g id="edge12_Node000001_Node000011" class="edge">
<title>Node1&#45;&gt;Node11</title>
<g id="a_edge12_Node000001_Node000011"><a xlink:title=" ">
<path fill="none" stroke="#63b8ff" d="M103.33,-142.29C124.19,-131.26 152.58,-117.2 178.75,-107.38 183.41,-105.63 188.29,-103.97 193.23,-102.41"/>
<polygon fill="#63b8ff" stroke="#63b8ff" points="194.02,-105.83 202.59,-99.61 192.01,-99.12 194.02,-105.83"/>
</a>
</g>
</g>
<!-- Node12 -->
<g id="Node000012" class="node">
<title>Node12</title>
<g id="a_Node000012"><a xlink:href="kest__expression_8c.html#a8831b010403eeba4bddedca70a446ce1" target="_top" xlink:title=" ">
<polygon fill="white" stroke="#666666" points="313.25,-59.75 187,-59.75 187,-39 313.25,-39 313.25,-59.75"/>
<text xml:space="preserve" text-anchor="middle" x="250.12" y="-46.25" font-family="Helvetica,sans-Serif" font-size="10.00">kest_interval_real_line</text>
</a>
</g>
</g>
<!-- Node1&#45;&gt;Node12 -->
<g id="edge13_Node000001_Node000012" class="edge">
<title>Node1&#45;&gt;Node12</title>
<g id="a_edge13_Node000001_Node000012"><a xlink:title=" ">
<path fill="none" stroke="#63b8ff" d="M88.04,-142.28C107.46,-122.06 142.46,-88.71 178.75,-69.38 182.38,-67.44 186.22,-65.67 190.16,-64.07"/>
<polygon fill="#63b8ff" stroke="#63b8ff" points="191.14,-67.43 199.32,-60.69 188.72,-60.87 191.14,-67.43"/>
</a>
</g>
</g>
<!-- Node13 -->
<g id="Node000013" class="node">
<title>Node13</title>
<g id="a_Node000013"><a xlink:href="kest__expression_8c.html#ade33a48e7785ee7d93728cdf56474be7" target="_top" xlink:title=" ">
<polygon fill="white" stroke="#666666" points="314.75,-20.75 185.5,-20.75 185.5,0 314.75,0 314.75,-20.75"/>
<text xml:space="preserve" text-anchor="middle" x="250.12" y="-7.25" font-family="Helvetica,sans-Serif" font-size="10.00">kest_interval_singleton</text>
</a>
</g>
</g>
<!-- Node1&#45;&gt;Node13 -->
<g id="edge14_Node000001_Node000013" class="edge">
<title>Node1&#45;&gt;Node13</title>
<g id="a_edge14_Node000001_Node000013"><a xlink:title=" ">
<path fill="none" stroke="#63b8ff" d="M81.75,-142.34C97.88,-114.63 133.56,-59.92 178.75,-30.38 181.3,-28.71 184,-27.17 186.78,-25.77"/>
<polygon fill="#63b8ff" stroke="#63b8ff" points="188.04,-29.04 195.79,-21.82 185.23,-22.63 188.04,-29.04"/>
</a>
</g>
</g>
<!-- Node7 -->
<g id="Node000007" class="node">
<title>Node7</title>
<g id="a_Node000007"><a xlink:href="kest__expression_8c.html#a767b50b7ddfa94dc61810dfdcc8feaf0" target="_top" xlink:title=" ">
<polygon fill="white" stroke="#666666" points="500.25,-143.75 357.5,-143.75 357.5,-123 500.25,-123 500.25,-143.75"/>
<text xml:space="preserve" text-anchor="middle" x="428.88" y="-130.25" font-family="Helvetica,sans-Serif" font-size="10.00">kest_expression_print_rec</text>
</a>
</g>
</g>
<!-- Node6&#45;&gt;Node7 -->
<g id="edge7_Node000006_Node000007" class="edge">
<title>Node6&#45;&gt;Node7</title>
<g id="a_edge7_Node000006_Node000007"><a xlink:title=" ">
<path fill="none" stroke="#63b8ff" d="M305.12,-133.38C317.97,-133.38 331.96,-133.38 345.76,-133.38"/>
<polygon fill="#63b8ff" stroke="#63b8ff" points="345.75,-136.88 355.75,-133.38 345.75,-129.88 345.75,-136.88"/>
</a>
</g>
</g>
<!-- Node7&#45;&gt;Node7 -->
<g id="edge11_Node000007_Node000007" class="edge">
<title>Node7&#45;&gt;Node7</title>
<g id="a_edge11_Node000007_Node000007"><a xlink:title=" ">
<path fill="none" stroke="#63b8ff" d="M400.31,-144.15C388.89,-152.81 398.41,-161.75 428.88,-161.75 445.54,-161.75 455.93,-159.08 460.06,-155.24"/>
<polygon fill="#63b8ff" stroke="#63b8ff" points="463.5,-154.54 457.78,-145.62 456.69,-156.16 463.5,-154.54"/>
</a>
</g>
</g>
<!-- Node8 -->
<g id="Node000008" class="node">
<title>Node8</title>
<g id="a_Node000008"><a xlink:href="kest__expression_8c.html#a2f21e4932bce8c87ec0bfc508588b761" target="_top" xlink:title=" ">
<polygon fill="white" stroke="#666666" points="667.75,-188.75 544.5,-188.75 544.5,-168 667.75,-168 667.75,-188.75"/>
<text xml:space="preserve" text-anchor="middle" x="606.12" y="-175.25" font-family="Helvetica,sans-Serif" font-size="10.00">kest_expression_form</text>
</a>
</g>
</g>
<!-- Node7&#45;&gt;Node8 -->
<g id="edge8_Node000007_Node000008" class="edge">
<title>Node7&#45;&gt;Node8</title>
<g id="a_edge8_Node000007_Node000008"><a xlink:title=" ">
<path fill="none" stroke="#63b8ff" d="M471.85,-144.15C495.84,-150.31 526.17,-158.1 551.83,-164.69"/>
<polygon fill="#63b8ff" stroke="#63b8ff" points="550.86,-168.05 561.42,-167.15 552.6,-161.27 550.86,-168.05"/>
</a>
</g>
</g>
<!-- Node9 -->
<g id="Node000009" class="node">
<title>Node9</title>
<g id="a_Node000009"><a xlink:href="kest__expression_8c.html#a81b490a2837a170e18e8cdae730d0d9b" target="_top" xlink:title=" ">
<polygon fill="white" stroke="#666666" points="676,-150.12 536.25,-150.12 536.25,-116.62 676,-116.62 676,-150.12"/>
<text xml:space="preserve" text-anchor="start" x="544.25" y="-136.62" font-family="Helvetica,sans-Serif" font-size="10.00">kest_expression_function</text>
<text xml:space="preserve" text-anchor="middle" x="606.12" y="-123.88" font-family="Helvetica,sans-Serif" font-size="10.00">_string</text>
</a>
</g>
</g>
<!-- Node7&#45;&gt;Node9 -->
<g id="edge9_Node000007_Node000009" class="edge">
<title>Node7&#45;&gt;Node9</title>
<g id="a_edge9_Node000007_Node000009"><a xlink:title=" ">
<path fill="none" stroke="#63b8ff" d="M500.65,-133.38C508.44,-133.38 516.41,-133.38 524.31,-133.38"/>
<polygon fill="#63b8ff" stroke="#63b8ff" points="524.28,-136.88 534.28,-133.38 524.28,-129.88 524.28,-136.88"/>
</a>
</g>
</g>
<!-- Node10 -->
<g id="Node000010" class="node">
<title>Node10</title>
<g id="a_Node000010"><a xlink:href="kest__expression_8c.html#a1a3a0bc9ed6726fb24e6a40803741b43" target="_top" xlink:title=" ">
<polygon fill="white" stroke="#666666" points="667,-98.12 545.25,-98.12 545.25,-64.62 667,-64.62 667,-98.12"/>
<text xml:space="preserve" text-anchor="start" x="553.25" y="-84.62" font-family="Helvetica,sans-Serif" font-size="10.00">kest_expression_infix</text>
<text xml:space="preserve" text-anchor="middle" x="606.12" y="-71.88" font-family="Helvetica,sans-Serif" font-size="10.00">_operator_string</text>
</a>
</g>
</g>
<!-- Node7&#45;&gt;Node10 -->
<g id="edge10_Node000007_Node000010" class="edge">
<title>Node7&#45;&gt;Node10</title>
<g id="a_edge10_Node000007_Node000010"><a xlink:title=" ">
<path fill="none" stroke="#63b8ff" d="M466.19,-122.6C486.44,-116.59 512.35,-108.9 536.29,-101.8"/>
<polygon fill="#63b8ff" stroke="#63b8ff" points="537.09,-105.21 545.68,-99.01 535.1,-98.5 537.09,-105.21"/>
</a>
</g>
</g>
</g>
</svg>
