<?xml version="1.0" encoding="UTF-8" standalone="no"?>
<!DOCTYPE svg PUBLIC "-//W3C//DTD SVG 1.1//EN"
 "http://www.w3.org/Graphics/SVG/1.1/DTD/svg11.dtd">
<!-- Generated by graphviz version 13.1.2 (20250808.2320)
 -->
<!-- Title: create_profile_view_ui Pages: 1 -->
<!--zoomable 491 -->

<svg id="main" version="1.1" xmlns="http://www.w3.org/2000/svg" xmlns:xlink="http://www.w3.org/1999/xlink" xml:space="preserve" onload="init(evt)">

<style type="text/css"><![CDATA[
.node, .edge {opacity: 0.7;}
.node.selected, .edge.selected {opacity: 1;}
.edge:hover path { stroke: red; }
.edge:hover polygon { stroke: red; fill: red; }
]]></style>

<defs>
  <circle id="rim" cx="0" cy="0" r="7"/>
  <circle id="rim2" cx="0" cy="0" r="3.5"/>
  <g id="zoomPlus">
    <use xlink:href="#rim" fill="#404040"><set attributeName="fill" to="#808080" begin="zoomplus.mouseover" end="zoomplus.mouseout"/></use>
    <path d="M-4,0h8M0,-4v8" fill="none" stroke="white" stroke-width="1.5" pointer-events="none"/>
  </g>
  <g id="zoomMin">
    <use xlink:href="#rim" fill="#404040"><set attributeName="fill" to="#808080" begin="zoomminus.mouseover" end="zoomminus.mouseout"/></use>
    <path d="M-4,0h8" fill="none" stroke="white" stroke-width="1.5" pointer-events="none"/>
  </g>
  <g id="arrowUp" transform="translate(30 24)">
    <use xlink:href="#rim"/>
    <path pointer-events="none" fill="none" stroke="white" stroke-width="1.5" d="M0,-3.0v7 M-2.5,-0.5L0,-3.0L2.5,-0.5"/>
  </g>
  <g id="arrowRight" transform="rotate(90) translate(36 -43)">
    <use xlink:href="#rim"/>
    <path pointer-events="none" fill="none" stroke="white" stroke-width="1.5" d="M0,-3.0v7 M-2.5,-0.5L0,-3.0L2.5,-0.5"/>
  </g>
  <g id="arrowDown" transform="rotate(180) translate(-30 -48)">
    <use xlink:href="#rim"/>
    <path pointer-events="none" fill="none" stroke="white" stroke-width="1.5" d="M0,-3.0v7 M-2.5,-0.5L0,-3.0L2.5,-0.5"/>
  </g>
  <g id="arrowLeft" transform="rotate(270) translate(-36 17)">
    <use xlink:href="#rim"/>
    <path pointer-events="none" fill="none" stroke="white" stroke-width="1.5" d="M0,-3.0v7 M-2.5,-0.5L0,-3.0L2.5,-0.5"/>
  </g>
  <g id="resetDef">
    <use xlink:href="#rim2" fill="#404040"><set attributeName="fill" to="#808080" begin="reset.mouseover" end="reset.mouseout"/></use>
  </g>
</defs>
<script type="application/ecmascript">
var viewWidth = 683;
var viewHeight = 491;
var sectionId = 'dynsection-4';
</script>
<script type="application/ecmascript" xlink:href="svg.min.js"/>
<svg id="graph" class="graph">
<g id="viewport">
<title>create_profile_view_ui</title>
<!-- Node1 -->
<g id="Node000001" class="node">
<title>Node1</title>
<g id="a_Node000001"><a xlink:title=" ">
<polygon fill="#999999" stroke="#666666" points="126.25,-408.75 0,-408.75 0,-388 126.25,-388 126.25,-408.75"/>
<text xml:space="preserve" text-anchor="middle" x="63.12" y="-395.25" font-family="Helvetica,sans-Serif" font-size="10.00">create_profile_view_ui</text>
</a>
</g>
</g>
<!-- Node2 -->
<g id="Node000002" class="node">
<title>Node2</title>
<g id="a_Node000002"><a xlink:href="kest__button_8c.html#a8b6854cbb240ab5cdc4babc281322278" target="_top" xlink:title=" ">
<polygon fill="white" stroke="#666666" points="282.88,-483.12 174.62,-483.12 174.62,-449.62 282.88,-449.62 282.88,-483.12"/>
<text xml:space="preserve" text-anchor="start" x="182.62" y="-469.62" font-family="Helvetica,sans-Serif" font-size="10.00">kest_active_button</text>
<text xml:space="preserve" text-anchor="middle" x="228.75" y="-456.88" font-family="Helvetica,sans-Serif" font-size="10.00">_array_create_ui</text>
</a>
</g>
</g>
<!-- Node1&#45;&gt;Node2 -->
<g id="edge1_Node000001_Node000002" class="edge">
<title>Node1&#45;&gt;Node2</title>
<g id="a_edge1_Node000001_Node000002"><a xlink:title=" ">
<path fill="none" stroke="#63b8ff" d="M88.65,-409.09C108.45,-417.68 137.07,-429.99 162.25,-440.38 165.87,-441.87 169.6,-443.39 173.37,-444.92"/>
<polygon fill="#63b8ff" stroke="#63b8ff" points="172.01,-448.14 182.59,-448.63 174.62,-441.65 172.01,-448.14"/>
</a>
</g>
</g>
<!-- Node5 -->
<g id="Node000005" class="node">
<title>Node5</title>
<g id="a_Node000005"><a xlink:href="kest__button_8c.html#a21a7b8dcd7ffa25a3e7d230fa6a7d985" target="_top" xlink:title=" ">
<polygon fill="white" stroke="#666666" points="285.5,-431.75 172,-431.75 172,-411 285.5,-411 285.5,-431.75"/>
<text xml:space="preserve" text-anchor="middle" x="228.75" y="-418.25" font-family="Helvetica,sans-Serif" font-size="10.00">kest_button_disable</text>
</a>
</g>
</g>
<!-- Node1&#45;&gt;Node5 -->
<g id="edge5_Node000001_Node000005" class="edge">
<title>Node1&#45;&gt;Node5</title>
<g id="a_edge5_Node000001_Node000005"><a xlink:title=" ">
<path fill="none" stroke="#63b8ff" d="M126.45,-407.14C137.56,-408.7 149.18,-410.33 160.42,-411.91"/>
<polygon fill="#63b8ff" stroke="#63b8ff" points="159.61,-415.33 170,-413.26 160.59,-408.4 159.61,-415.33"/>
</a>
</g>
</g>
<!-- Node6 -->
<g id="Node000006" class="node">
<title>Node6</title>
<g id="a_Node000006"><a xlink:href="kest__profile_8c.html#aff585ba9940aeb40f695a68deb4094e5" target="_top" xlink:title=" ">
<polygon fill="white" stroke="#666666" points="295.25,-393.12 162.25,-393.12 162.25,-359.62 295.25,-359.62 295.25,-393.12"/>
<text xml:space="preserve" text-anchor="start" x="170.25" y="-379.62" font-family="Helvetica,sans-Serif" font-size="10.00">kest_profile_set_default</text>
<text xml:space="preserve" text-anchor="middle" x="228.75" y="-366.88" font-family="Helvetica,sans-Serif" font-size="10.00">_name_from_id</text>
</a>
</g>
</g>
<!-- Node1&#45;&gt;Node6 -->
<g id="edge6_Node000001_Node000006" class="edge">
<title>Node1&#45;&gt;Node6</title>
<g id="a_edge6_Node000001_Node000006"><a xlink:title=" ">
<path fill="none" stroke="#63b8ff" d="M126.45,-389.99C134.31,-388.94 142.42,-387.85 150.47,-386.77"/>
<polygon fill="#63b8ff" stroke="#63b8ff" points="150.84,-390.25 160.29,-385.45 149.91,-383.31 150.84,-390.25"/>
</a>
</g>
</g>
<!-- Node9 -->
<g id="Node000009" class="node">
<title>Node9</title>
<g id="a_Node000009"><a xlink:href="kest__ui_8c.html#a58a68a436917a32cc3daab2e0d4b3245" target="_top" xlink:title=" ">
<polygon fill="white" stroke="#666666" points="295.25,-322.75 162.25,-322.75 162.25,-302 295.25,-302 295.25,-322.75"/>
<text xml:space="preserve" text-anchor="middle" x="228.75" y="-309.25" font-family="Helvetica,sans-Serif" font-size="10.00">ui_page_create_base_ui</text>
</a>
</g>
</g>
<!-- Node1&#45;&gt;Node9 -->
<g id="edge9_Node000001_Node000009" class="edge">
<title>Node1&#45;&gt;Node9</title>
<g id="a_edge9_Node000001_Node000009"><a xlink:title=" ">
<path fill="none" stroke="#63b8ff" d="M84.52,-387.66C112.81,-372.79 164.2,-345.78 197.12,-328.48"/>
<polygon fill="#63b8ff" stroke="#63b8ff" points="198.54,-331.68 205.76,-323.93 195.28,-325.49 198.54,-331.68"/>
</a>
</g>
</g>
<!-- Node3 -->
<g id="Node000003" class="node">
<title>Node3</title>
<g id="a_Node000003"><a xlink:href="kest__button_8c.html#a5fdea311fb351ff8f9d27116813f35a8" target="_top" xlink:title=" ">
<polygon fill="white" stroke="#666666" points="456,-482.12 347.75,-482.12 347.75,-448.62 456,-448.62 456,-482.12"/>
<text xml:space="preserve" text-anchor="start" x="355.75" y="-468.62" font-family="Helvetica,sans-Serif" font-size="10.00">kest_active_button</text>
<text xml:space="preserve" text-anchor="middle" x="401.88" y="-455.88" font-family="Helvetica,sans-Serif" font-size="10.00">_create_ui</text>
</a>
</g>
</g>
<!-- Node2&#45;&gt;Node3 -->
<g id="edge2_Node000002_Node000003" class="edge">
<title>Node2&#45;&gt;Node3</title>
<g id="a_edge2_Node000002_Node000003"><a xlink:title=" ">
<path fill="none" stroke="#63b8ff" d="M282.96,-466.06C299.78,-465.97 318.56,-465.86 336.09,-465.75"/>
<polygon fill="#63b8ff" stroke="#63b8ff" points="335.91,-469.25 345.89,-465.7 335.87,-462.25 335.91,-469.25"/>
</a>
</g>
</g>
<!-- Node4 -->
<g id="Node000004" class="node">
<title>Node4</title>
<g id="a_Node000004"><a xlink:href="kest__button_8c.html#a42c4bb920da57000dbde4fa1fa26868c" target="_top" xlink:title=" ">
<polygon fill="white" stroke="#666666" points="640.75,-343.75 543,-343.75 543,-323 640.75,-323 640.75,-343.75"/>
<text xml:space="preserve" text-anchor="middle" x="591.88" y="-330.25" font-family="Helvetica,sans-Serif" font-size="10.00">create_button_ui</text>
</a>
</g>
</g>
<!-- Node3&#45;&gt;Node4 -->
<g id="edge3_Node000003_Node000004" class="edge">
<title>Node3&#45;&gt;Node4</title>
<g id="a_edge3_Node000003_Node000004"><a xlink:title=" ">
<path fill="none" stroke="#63b8ff" d="M449.97,-448.2C457.71,-444.69 465.49,-440.72 472.5,-436.38 511.94,-411.9 551.32,-374.38 573.24,-352.02"/>
<polygon fill="#63b8ff" stroke="#63b8ff" points="575.53,-354.69 579.96,-345.07 570.49,-349.83 575.53,-354.69"/>
</a>
</g>
</g>
<!-- Node4&#45;&gt;Node4 -->
<g id="edge4_Node000004_Node000004" class="edge">
<title>Node4&#45;&gt;Node4</title>
<g id="a_edge4_Node000004_Node000004"><a xlink:title=" ">
<path fill="none" stroke="#63b8ff" d="M561.26,-344.15C549.01,-352.81 559.22,-361.75 591.88,-361.75 609.73,-361.75 620.88,-359.08 625.31,-355.24"/>
<polygon fill="#63b8ff" stroke="#63b8ff" points="628.72,-354.44 622.86,-345.61 621.93,-356.17 628.72,-354.44"/>
</a>
</g>
</g>
<!-- Node7 -->
<g id="Node000007" class="node">
<title>Node7</title>
<g id="a_Node000007"><a xlink:href="kest__alloc_8c.html#a849755c5dc5b35e712ffcdb602e50fb4" target="_top" xlink:title=" ">
<polygon fill="white" stroke="#666666" points="434.25,-427.75 369.5,-427.75 369.5,-407 434.25,-407 434.25,-427.75"/>
<text xml:space="preserve" text-anchor="middle" x="401.88" y="-414.25" font-family="Helvetica,sans-Serif" font-size="10.00">kest_alloc</text>
</a>
</g>
</g>
<!-- Node6&#45;&gt;Node7 -->
<g id="edge7_Node000006_Node000007" class="edge">
<title>Node6&#45;&gt;Node7</title>
<g id="a_edge7_Node000006_Node000007"><a xlink:title=" ">
<path fill="none" stroke="#63b8ff" d="M295.42,-392.11C316.44,-397.14 339.15,-402.59 358.1,-407.13"/>
<polygon fill="#63b8ff" stroke="#63b8ff" points="357.05,-410.47 367.59,-409.4 358.68,-403.67 357.05,-410.47"/>
</a>
</g>
</g>
<!-- Node8 -->
<g id="Node000008" class="node">
<title>Node8</title>
<g id="a_Node000008"><a xlink:href="kest__alloc_8c.html#a294af5728a94aa316fcf65304d388d48" target="_top" xlink:title=" ">
<polygon fill="white" stroke="#666666" points="432.38,-388.75 371.38,-388.75 371.38,-368 432.38,-368 432.38,-388.75"/>
<text xml:space="preserve" text-anchor="middle" x="401.88" y="-375.25" font-family="Helvetica,sans-Serif" font-size="10.00">kest_free</text>
</a>
</g>
</g>
<!-- Node6&#45;&gt;Node8 -->
<g id="edge8_Node000006_Node000008" class="edge">
<title>Node6&#45;&gt;Node8</title>
<g id="a_edge8_Node000006_Node000008"><a xlink:title=" ">
<path fill="none" stroke="#63b8ff" d="M295.42,-377.14C316.96,-377.39 340.29,-377.67 359.51,-377.89"/>
<polygon fill="#63b8ff" stroke="#63b8ff" points="359.34,-381.39 369.38,-378.01 359.42,-374.39 359.34,-381.39"/>
</a>
</g>
</g>
<!-- Node10 -->
<g id="Node000010" class="node">
<title>Node10</title>
<g id="a_Node000010"><a xlink:href="kest__ui_8c.html#ab4d0521ac8d644d34daf9fde74ce1781" target="_top" xlink:title=" ">
<polygon fill="white" stroke="#666666" points="467.25,-350.12 336.5,-350.12 336.5,-316.62 467.25,-316.62 467.25,-350.12"/>
<text xml:space="preserve" text-anchor="start" x="344.5" y="-336.62" font-family="Helvetica,sans-Serif" font-size="10.00">ui_page_create_bottom</text>
<text xml:space="preserve" text-anchor="middle" x="401.88" y="-323.88" font-family="Helvetica,sans-Serif" font-size="10.00">_buttons</text>
</a>
</g>
</g>
<!-- Node9&#45;&gt;Node10 -->
<g id="edge10_Node000009_Node000010" class="edge">
<title>Node9&#45;&gt;Node10</title>
<g id="a_edge10_Node000009_Node000010"><a xlink:title=" ">
<path fill="none" stroke="#63b8ff" d="M295.42,-320.43C305.04,-321.61 315.02,-322.84 324.82,-324.04"/>
<polygon fill="#63b8ff" stroke="#63b8ff" points="324.37,-327.51 334.72,-325.26 325.22,-320.56 324.37,-327.51"/>
</a>
</g>
</g>
<!-- Node11 -->
<g id="Node000011" class="node">
<title>Node11</title>
<g id="a_Node000011"><a xlink:href="kest__ui_8c.html#a1d4879268198647d06d247db21e13f1b" target="_top" xlink:title=" ">
<polygon fill="white" stroke="#666666" points="472.5,-149.75 331.25,-149.75 331.25,-129 472.5,-129 472.5,-149.75"/>
<text xml:space="preserve" text-anchor="middle" x="401.88" y="-136.25" font-family="Helvetica,sans-Serif" font-size="10.00">ui_page_create_container</text>
</a>
</g>
</g>
<!-- Node9&#45;&gt;Node11 -->
<g id="edge12_Node000009_Node000011" class="edge">
<title>Node9&#45;&gt;Node11</title>
<g id="a_edge12_Node000009_Node000011"><a xlink:title=" ">
<path fill="none" stroke="#63b8ff" d="M240.45,-301.55C268.91,-272.79 346.66,-194.18 382.43,-158.02"/>
<polygon fill="#63b8ff" stroke="#63b8ff" points="384.57,-160.84 389.11,-151.27 379.59,-155.92 384.57,-160.84"/>
</a>
</g>
</g>
<!-- Node18 -->
<g id="Node000018" class="node">
<title>Node18</title>
<g id="a_Node000018"><a xlink:href="kest__ui_8c.html#ab16753d26193cafda5dd736999b6880c" target="_top" xlink:title=" ">
<polygon fill="white" stroke="#666666" points="470.25,-298.75 333.5,-298.75 333.5,-278 470.25,-278 470.25,-298.75"/>
<text xml:space="preserve" text-anchor="middle" x="401.88" y="-285.25" font-family="Helvetica,sans-Serif" font-size="10.00">ui_page_create_panel_ui</text>
</a>
</g>
</g>
<!-- Node9&#45;&gt;Node18 -->
<g id="edge19_Node000009_Node000018" class="edge">
<title>Node9&#45;&gt;Node18</title>
<g id="a_edge19_Node000009_Node000018"><a xlink:title=" ">
<path fill="none" stroke="#63b8ff" d="M295.42,-303.16C304.1,-301.95 313.07,-300.69 321.95,-299.44"/>
<polygon fill="#63b8ff" stroke="#63b8ff" points="322.2,-302.94 331.61,-298.09 321.22,-296.01 322.2,-302.94"/>
</a>
</g>
</g>
<!-- Node10&#45;&gt;Node4 -->
<g id="edge11_Node000010_Node000004" class="edge">
<title>Node10&#45;&gt;Node4</title>
<g id="a_edge11_Node000010_Node000004"><a xlink:title=" ">
<path fill="none" stroke="#63b8ff" d="M467.57,-333.38C488.27,-333.38 511.07,-333.38 531.38,-333.38"/>
<polygon fill="#63b8ff" stroke="#63b8ff" points="531.18,-336.88 541.18,-333.38 531.18,-329.88 531.18,-336.88"/>
</a>
</g>
</g>
<!-- Node12 -->
<g id="Node000012" class="node">
<title>Node12</title>
<g id="a_Node000012"><a xlink:href="kest__ui_8c.html#abbbe680f4aa51c0ca17cd2a5e1bda3bf" target="_top" xlink:title=" ">
<polygon fill="white" stroke="#666666" points="667.75,-149.75 516,-149.75 516,-129 667.75,-129 667.75,-149.75"/>
<text xml:space="preserve" text-anchor="middle" x="591.88" y="-136.25" font-family="Helvetica,sans-Serif" font-size="10.00">create_standard_button_list</text>
</a>
</g>
</g>
<!-- Node11&#45;&gt;Node12 -->
<g id="edge13_Node000011_Node000012" class="edge">
<title>Node11&#45;&gt;Node12</title>
<g id="a_edge13_Node000011_Node000012"><a xlink:title=" ">
<path fill="none" stroke="#63b8ff" d="M472.88,-139.38C483.15,-139.38 493.84,-139.38 504.39,-139.38"/>
<polygon fill="#63b8ff" stroke="#63b8ff" points="504.26,-142.88 514.26,-139.38 504.26,-135.88 504.26,-142.88"/>
</a>
</g>
</g>
<!-- Node13 -->
<g id="Node000013" class="node">
<title>Node13</title>
<g id="a_Node000013"><a xlink:href="kest__ui_8c.html#a62738946a4bf88f4f13024860a34c7f1" target="_top" xlink:title=" ">
<polygon fill="white" stroke="#666666" points="657.62,-111.12 526.12,-111.12 526.12,-77.62 657.62,-77.62 657.62,-111.12"/>
<text xml:space="preserve" text-anchor="start" x="534.12" y="-97.62" font-family="Helvetica,sans-Serif" font-size="10.00">create_standard_button</text>
<text xml:space="preserve" text-anchor="middle" x="591.88" y="-84.88" font-family="Helvetica,sans-Serif" font-size="10.00">_list_tall</text>
</a>
</g>
</g>
<!-- Node11&#45;&gt;Node13 -->
<g id="edge14_Node000011_Node000013" class="edge">
<title>Node11&#45;&gt;Node13</title>
<g id="a_edge14_Node000011_Node000013"><a xlink:title=" ">
<path fill="none" stroke="#63b8ff" d="M447.91,-128.6C467.98,-123.79 492.18,-118 514.92,-112.56"/>
<polygon fill="#63b8ff" stroke="#63b8ff" points="515.56,-116 524.47,-110.27 513.93,-109.19 515.56,-116"/>
</a>
</g>
</g>
<!-- Node14 -->
<g id="Node000014" class="node">
<title>Node14</title>
<g id="a_Node000014"><a xlink:href="kest__ui_8c.html#ad803666a4c57c1c8a0ecf5e508311f21" target="_top" xlink:title=" ">
<polygon fill="white" stroke="#666666" points="664.75,-59.75 519,-59.75 519,-39 664.75,-39 664.75,-59.75"/>
<text xml:space="preserve" text-anchor="middle" x="591.88" y="-46.25" font-family="Helvetica,sans-Serif" font-size="10.00">create_standard_container</text>
</a>
</g>
</g>
<!-- Node11&#45;&gt;Node14 -->
<g id="edge15_Node000011_Node000014" class="edge">
<title>Node11&#45;&gt;Node14</title>
<g id="a_edge15_Node000011_Node000014"><a xlink:title=" ">
<path fill="none" stroke="#63b8ff" d="M415.63,-128.5C434.62,-112.87 472.01,-84.2 508.5,-68.38 512.55,-66.62 516.79,-65.01 521.11,-63.55"/>
<polygon fill="#63b8ff" stroke="#63b8ff" points="522.01,-66.93 530.52,-60.63 519.94,-60.24 522.01,-66.93"/>
</a>
</g>
</g>
<!-- Node15 -->
<g id="Node000015" class="node">
<title>Node15</title>
<g id="a_Node000015"><a xlink:href="kest__ui_8c.html#a5b2e6069c686a61991fd838b5181c552" target="_top" xlink:title=" ">
<polygon fill="white" stroke="#666666" points="675.25,-20.75 508.5,-20.75 508.5,0 675.25,0 675.25,-20.75"/>
<text xml:space="preserve" text-anchor="middle" x="591.88" y="-7.25" font-family="Helvetica,sans-Serif" font-size="10.00">create_standard_container_tall</text>
</a>
</g>
</g>
<!-- Node11&#45;&gt;Node15 -->
<g id="edge16_Node000011_Node000015" class="edge">
<title>Node11&#45;&gt;Node15</title>
<g id="a_edge16_Node000011_Node000015"><a xlink:title=" ">
<path fill="none" stroke="#63b8ff" d="M409.94,-128.78C425.18,-106.8 463.44,-56.15 508.5,-30.38 511.86,-28.45 515.4,-26.72 519.04,-25.14"/>
<polygon fill="#63b8ff" stroke="#63b8ff" points="520.03,-28.51 528.12,-21.68 517.53,-21.97 520.03,-28.51"/>
</a>
</g>
</g>
<!-- Node16 -->
<g id="Node000016" class="node">
<title>Node16</title>
<g id="a_Node000016"><a xlink:href="kest__ui_8c.html#a5426d800351280ff7029cc7e5a791ead" target="_top" xlink:title=" ">
<polygon fill="white" stroke="#666666" points="655.75,-253.12 528,-253.12 528,-219.62 655.75,-219.62 655.75,-253.12"/>
<text xml:space="preserve" text-anchor="start" x="536" y="-239.62" font-family="Helvetica,sans-Serif" font-size="10.00">create_standard_menu</text>
<text xml:space="preserve" text-anchor="middle" x="591.88" y="-226.88" font-family="Helvetica,sans-Serif" font-size="10.00">_container</text>
</a>
</g>
</g>
<!-- Node11&#45;&gt;Node16 -->
<g id="edge17_Node000011_Node000016" class="edge">
<title>Node11&#45;&gt;Node16</title>
<g id="a_edge17_Node000011_Node000016"><a xlink:title=" ">
<path fill="none" stroke="#63b8ff" d="M416.12,-150.12C435.42,-165.34 472.87,-193.22 508.5,-210.38 511.98,-212.05 515.6,-213.66 519.29,-215.18"/>
<polygon fill="#63b8ff" stroke="#63b8ff" points="517.82,-218.37 528.41,-218.73 520.36,-211.84 517.82,-218.37"/>
</a>
</g>
</g>
<!-- Node17 -->
<g id="Node000017" class="node">
<title>Node17</title>
<g id="a_Node000017"><a xlink:href="kest__ui_8c.html#a631a3fb795f47fc10a39f4415efe7866" target="_top" xlink:title=" ">
<polygon fill="white" stroke="#666666" points="655.75,-201.12 528,-201.12 528,-167.62 655.75,-167.62 655.75,-201.12"/>
<text xml:space="preserve" text-anchor="start" x="536" y="-187.62" font-family="Helvetica,sans-Serif" font-size="10.00">create_standard_menu</text>
<text xml:space="preserve" text-anchor="middle" x="591.88" y="-174.88" font-family="Helvetica,sans-Serif" font-size="10.00">_container_tall</text>
</a>
</g>
</g>
<!-- Node11&#45;&gt;Node17 -->
<g id="edge18_Node000011_Node000017" class="edge">
<title>Node11&#45;&gt;Node17</title>
<g id="a_edge18_Node000011_Node000017"><a xlink:title=" ">
<path fill="none" stroke="#63b8ff" d="M447.91,-150.15C468.54,-155.09 493.53,-161.08 516.82,-166.65"/>
<polygon fill="#63b8ff" stroke="#63b8ff" points="515.72,-169.98 526.26,-168.91 517.35,-163.18 515.72,-169.98"/>
</a>
</g>
</g>
<!-- Node18&#45;&gt;Node4 -->
<g id="edge20_Node000018_Node000004" class="edge">
<title>Node18&#45;&gt;Node4</title>
<g id="a_edge20_Node000018_Node000004"><a xlink:title=" ">
<path fill="none" stroke="#63b8ff" d="M446.26,-299.21C465.34,-303.93 488.02,-309.49 508.5,-314.38 516.17,-316.2 524.24,-318.1 532.21,-319.96"/>
<polygon fill="#63b8ff" stroke="#63b8ff" points="531.36,-323.35 541.89,-322.2 532.94,-316.53 531.36,-323.35"/>
</a>
</g>
</g>
<!-- Node19 -->
<g id="Node000019" class="node">
<title>Node19</title>
<g id="a_Node000019"><a xlink:href="kest__ui_8c.html#a132086b067e78c3ba91effc5944ba435" target="_top" xlink:title=" ">
<polygon fill="white" stroke="#666666" points="647.5,-305.12 536.25,-305.12 536.25,-271.62 647.5,-271.62 647.5,-305.12"/>
<text xml:space="preserve" text-anchor="start" x="544.25" y="-291.62" font-family="Helvetica,sans-Serif" font-size="10.00">ui_page_init_create</text>
<text xml:space="preserve" text-anchor="middle" x="591.88" y="-278.88" font-family="Helvetica,sans-Serif" font-size="10.00">_panel_label</text>
</a>
</g>
</g>
<!-- Node18&#45;&gt;Node19 -->
<g id="edge21_Node000018_Node000019" class="edge">
<title>Node18&#45;&gt;Node19</title>
<g id="a_edge21_Node000018_Node000019"><a xlink:title=" ">
<path fill="none" stroke="#63b8ff" d="M470.75,-288.38C488.26,-288.38 507.09,-288.38 524.53,-288.38"/>
<polygon fill="#63b8ff" stroke="#63b8ff" points="524.24,-291.88 534.24,-288.38 524.24,-284.88 524.24,-291.88"/>
</a>
</g>
</g>
</g>
</svg>

<g id="navigator" transform="translate(0 0)" fill="#404254">
  <rect fill="#f2f5e9" fill-opacity="0.5" stroke="#606060" stroke-width=".5" x="0" y="0" width="60" height="60"/>
  <use id="zoomplus" xlink:href="#zoomPlus" x="17" y="9" onmousedown="handleZoom(evt,'in')"/>
  <use id="zoomminus" xlink:href="#zoomMin" x="42" y="9" onmousedown="handleZoom(evt,'out')"/>
  <use id="reset" xlink:href="#resetDef" x="30" y="36" onmousedown="handleReset()"/>
   <use id="arrowup" xlink:href="#arrowUp" x="0" y="0" onmousedown="handlePan(0,-1)"/>
  <use id="arrowright" xlink:href="#arrowRight" x="0" y="0" onmousedown="handlePan(1,0)"/>
  <use id="arrowdown" xlink:href="#arrowDown" x="0" y="0" onmousedown="handlePan(0,1)"/>
  <use id="arrowleft" xlink:href="#arrowLeft" x="0" y="0" onmousedown="handlePan(-1,0)"/>
</g>
<svg viewBox="0 0 15 15" width="100%" height="30px" preserveAspectRatio="xMaxYMin meet">
 <g id="arrow_out" transform="scale(0.3 0.3)">
  <a xlink:href="kest__profile__view_8c_a384beb6a193abc4367c013b9e43f0da9_cgraph_org.svg" target="_base">
   <rect id="button" ry="5" rx="5" y="6" x="6" height="38" width="38"
        fill="#f2f5e9" fill-opacity="0.5" stroke="#606060" stroke-width="1.0"/>
   <path id="arrow"
     d="M 11.500037,31.436501 C 11.940474,20.09759 22.043105,11.32322 32.158766,21.979434 L 37.068811,17.246167 C 37.068811,17.246167 37.088388,32 37.088388,32 L 22.160133,31.978069 C 22.160133,31.978069 26.997745,27.140456 26.997745,27.140456 C 18.528582,18.264221 13.291696,25.230495 11.500037,31.436501 z"
     style="fill:#404040;"/>
  </a>
 </g>
</svg>

<style type='text/css'>
<![CDATA[
[data-mouse-over-selected='false'] { opacity: 0.7; }
[data-mouse-over-selected='true']  { opacity: 1.0; }
]]>
</style>
<script type="application/ecmascript"><![CDATA[
document.addEventListener('DOMContentLoaded', (event) => {
  highlightEdges();
  highlightAdjacentNodes();
});
]]></script>
</svg>
