<?xml version="1.0" encoding="UTF-8" standalone="no"?>
<!DOCTYPE svg PUBLIC "-//W3C//DTD SVG 1.1//EN"
 "http://www.w3.org/Graphics/SVG/1.1/DTD/svg11.dtd">
<!-- Generated by graphviz version 13.1.2 (20250808.2320)
 -->
<!-- Title: fnames_agree Pages: 1 -->
<!--zoomable 122 -->

<svg id="main" version="1.1" xmlns="http://www.w3.org/2000/svg" xmlns:xlink="http://www.w3.org/1999/xlink" xml:space="preserve" onload="init(evt)">

<style type="text/css"><![CDATA[
.node, .edge {opacity: 0.7;}
.node.selected, .edge.selected {opacity: 1;}
.edge:hover path { stroke: red; }
.edge:hover polygon { stroke: red; fill: red; }
]]></style>

<defs>
  <circle id="rim" cx="0" cy="0" r="7"/>
  <circle id="rim2" cx="0" cy="0" r="3.5"/>
  <g id="zoomPlus">
    <use xlink:href="#rim" fill="#404040"><set attributeName="fill" to="#808080" begin="zoomplus.mouseover" end="zoomplus.mouseout"/></use>
    <path d="M-4,0h8M0,-4v8" fill="none" stroke="white" stroke-width="1.5" pointer-events="none"/>
  </g>
  <g id="zoomMin">
    <use xlink:href="#rim" fill="#404040"><set attributeName="fill" to="#808080" begin="zoomminus.mouseover" end="zoomminus.mouseout"/></use>
    <path d="M-4,0h8" fill="none" stroke="white" stroke-width="1.5" pointer-events="none"/>
  </g>
  <g id="arrowUp" transform="translate(30 24)">
    <use xlink:href="#rim"/>
    <path pointer-events="none" fill="none" stroke="white" stroke-width="1.5" d="M0,-3.0v7 M-2.5,-0.5L0,-3.0L2.5,-0.5"/>
  </g>
  <g id="arrowRight" transform="rotate(90) translate(36 -43)">
    <use xlink:href="#rim"/>
    <path pointer-events="none" fill="none" stroke="white" stroke-width="1.5" d="M0,-3.0v7 M-2.5,-0.5L0,-3.0L2.5,-0.5"/>
  </g>
  <g id="arrowDown" transform="rotate(180) translate(-30 -48)">
    <use xlink:href="#rim"/>
    <path pointer-events="none" fill="none" stroke="white" stroke-width="1.5" d="M0,-3.0v7 M-2.5,-0.5L0,-3.0L2.5,-0.5"/>
  </g>
  <g id="arrowLeft" transform="rotate(270) translate(-36 17)">
    <use xlink:href="#rim"/>
    <path pointer-events="none" fill="none" stroke="white" stroke-width="1.5" d="M0,-3.0v7 M-2.5,-0.5L0,-3.0L2.5,-0.5"/>
  </g>
  <g id="resetDef">
    <use xlink:href="#rim2" fill="#404040"><set attributeName="fill" to="#808080" begin="reset.mouseover" end="reset.mouseout"/></use>
  </g>
</defs>
<script type="application/ecmascript">
var viewWidth = 699;
var viewHeight = 122;
var sectionId = 'dynsection-9';
</script>
<script type="application/ecmascript" xlink:href="svg.min.js"/>
<svg id="graph" class="graph">
<g id="viewport">
<title>fnames_agree</title>
<!-- Node1 -->
<g id="Node000001" class="node">
<title>Node1</title>
<g id="a_Node000001"><a xlink:title=" ">
<polygon fill="#999999" stroke="#666666" points="691.25,-53.12 605.5,-53.12 605.5,-32.38 691.25,-32.38 691.25,-53.12"/>
<text xml:space="preserve" text-anchor="middle" x="648.38" y="-39.62" font-family="Helvetica,sans-Serif" font-size="10.00">fnames_agree</text>
</a>
</g>
</g>
<!-- Node2 -->
<g id="Node000002" class="node">
<title>Node2</title>
<g id="a_Node000002"><a xlink:href="kest__context_8c.html#a9eec45af3bef4cc85ead192e80d4a524" target="_top" xlink:title=" ">
<polygon fill="white" stroke="#666666" points="562,-85.5 456,-85.5 456,-52 562,-52 562,-85.5"/>
<text xml:space="preserve" text-anchor="start" x="464" y="-72" font-family="Helvetica,sans-Serif" font-size="10.00">cxt_get_profile_by</text>
<text xml:space="preserve" text-anchor="middle" x="509" y="-59.25" font-family="Helvetica,sans-Serif" font-size="10.00">_fname</text>
</a>
</g>
</g>
<!-- Node1&#45;&gt;Node2 -->
<g id="edge1_Node000001_Node000002" class="edge">
<title>Node1&#45;&gt;Node2</title>
<g id="a_edge1_Node000001_Node000002"><a xlink:title=" ">
<path fill="none" stroke="#63b8ff" d="M593.94,-52.86C583.49,-54.84 572.54,-56.91 562.13,-58.88"/>
<polygon fill="#63b8ff" stroke="#63b8ff" points="594.38,-56.34 603.55,-51.04 593.07,-49.47 594.38,-56.34"/>
</a>
</g>
</g>
<!-- Node11 -->
<g id="Node000011" class="node">
<title>Node11</title>
<g id="a_Node000011"><a xlink:href="kest__context_8c.html#a4474b9a7ebb9f0c2bd9fd3773bc81d7f" target="_top" xlink:title=" ">
<polygon fill="white" stroke="#666666" points="569.5,-33.5 448.5,-33.5 448.5,0 569.5,0 569.5,-33.5"/>
<text xml:space="preserve" text-anchor="start" x="456.5" y="-20" font-family="Helvetica,sans-Serif" font-size="10.00">cxt_get_sequence_by</text>
<text xml:space="preserve" text-anchor="middle" x="509" y="-7.25" font-family="Helvetica,sans-Serif" font-size="10.00">_fname</text>
</a>
</g>
</g>
<!-- Node1&#45;&gt;Node11 -->
<g id="edge12_Node000001_Node000011" class="edge">
<title>Node1&#45;&gt;Node11</title>
<g id="a_edge12_Node000001_Node000011"><a xlink:title=" ">
<path fill="none" stroke="#63b8ff" d="M593.8,-32.61C585.95,-31.12 577.83,-29.59 569.87,-28.08"/>
<polygon fill="#63b8ff" stroke="#63b8ff" points="593.07,-36.03 603.55,-34.46 594.38,-29.16 593.07,-36.03"/>
</a>
</g>
</g>
<!-- Node3 -->
<g id="Node000003" class="node">
<title>Node3</title>
<g id="a_Node000003"><a xlink:href="kest__state_8c.html#ab26da214ed0f9d143d63e80a7012796b" target="_top" xlink:title=" ">
<polygon fill="white" stroke="#666666" points="233.38,-114.12 107.12,-114.12 107.12,-93.38 233.38,-93.38 233.38,-114.12"/>
<text xml:space="preserve" text-anchor="middle" x="170.25" y="-100.62" font-family="Helvetica,sans-Serif" font-size="10.00">kest_cxt_restore_state</text>
</a>
</g>
</g>
<!-- Node2&#45;&gt;Node3 -->
<g id="edge2_Node000002_Node000003" class="edge">
<title>Node2&#45;&gt;Node3</title>
<g id="a_edge2_Node000002_Node000003"><a xlink:title=" ">
<path fill="none" stroke="#63b8ff" d="M444.23,-79.43C433.65,-81.01 422.78,-82.52 412.5,-83.75 351.99,-91 282.63,-96.45 233.86,-99.82"/>
<polygon fill="#63b8ff" stroke="#63b8ff" points="444.7,-82.9 454.06,-77.92 443.64,-75.98 444.7,-82.9"/>
</a>
</g>
</g>
<!-- Node7 -->
<g id="Node000007" class="node">
<title>Node7</title>
<g id="a_Node000007"><a xlink:href="kest__page__id_8c.html#a63b55de25f16c715b468429c78e79af0" target="_top" xlink:title=" ">
<polygon fill="white" stroke="#666666" points="409.5,-30.12 276.5,-30.12 276.5,-9.38 409.5,-9.38 409.5,-30.12"/>
<text xml:space="preserve" text-anchor="middle" x="343" y="-16.62" font-family="Helvetica,sans-Serif" font-size="10.00">kest_page_id_find_page</text>
</a>
</g>
</g>
<!-- Node2&#45;&gt;Node7 -->
<g id="edge5_Node000002_Node000007" class="edge">
<title>Node2&#45;&gt;Node7</title>
<g id="a_edge5_Node000002_Node000007"><a xlink:title=" ">
<path fill="none" stroke="#63b8ff" d="M444.78,-49.86C422.95,-43.34 399.24,-36.25 380.3,-30.6"/>
<polygon fill="#63b8ff" stroke="#63b8ff" points="443.62,-53.17 454.21,-52.68 445.63,-46.46 443.62,-53.17"/>
</a>
</g>
</g>
<!-- Node9 -->
<g id="Node000009" class="node">
<title>Node9</title>
<g id="a_Node000009"><a xlink:href="kest__files_8c.html#adecfc697f2f60941218706b2cd77f00c" target="_top" xlink:title=" ">
<polygon fill="white" stroke="#666666" points="412.5,-75.12 273.5,-75.12 273.5,-54.38 412.5,-54.38 412.5,-75.12"/>
<text xml:space="preserve" text-anchor="middle" x="343" y="-61.62" font-family="Helvetica,sans-Serif" font-size="10.00">read_sequence_from_file</text>
</a>
</g>
</g>
<!-- Node2&#45;&gt;Node9 -->
<g id="edge8_Node000002_Node000009" class="edge">
<title>Node2&#45;&gt;Node9</title>
<g id="a_edge8_Node000002_Node000009"><a xlink:title=" ">
<path fill="none" stroke="#63b8ff" d="M444.26,-67.2C433.99,-66.94 423.31,-66.68 412.91,-66.43"/>
<polygon fill="#63b8ff" stroke="#63b8ff" points="444.06,-70.69 454.15,-67.44 444.23,-63.69 444.06,-70.69"/>
</a>
</g>
</g>
<!-- Node4 -->
<g id="Node000004" class="node">
<title>Node4</title>
<g id="a_Node000004"><a xlink:href="kest__int_8c.html#abce06be17fc37d675118a678a8100a36" target="_top" xlink:title=" ">
<polygon fill="white" stroke="#666666" points="65.5,-75.12 1.5,-75.12 1.5,-54.38 65.5,-54.38 65.5,-75.12"/>
<text xml:space="preserve" text-anchor="middle" x="33.5" y="-61.62" font-family="Helvetica,sans-Serif" font-size="10.00">app_main</text>
</a>
</g>
</g>
<!-- Node3&#45;&gt;Node4 -->
<g id="edge3_Node000003_Node000004" class="edge">
<title>Node3&#45;&gt;Node4</title>
<g id="a_edge3_Node000003_Node000004"><a xlink:title=" ">
<path fill="none" stroke="#63b8ff" d="M120.67,-89.69C102.43,-84.41 82.19,-78.55 65.91,-73.84"/>
<polygon fill="#63b8ff" stroke="#63b8ff" points="119.68,-93.05 130.26,-92.47 121.63,-86.32 119.68,-93.05"/>
</a>
</g>
</g>
<!-- Node5 -->
<g id="Node000005" class="node">
<title>Node5</title>
<g id="a_Node000005"><a xlink:href="kest__desktop_8c.html#ab499a4f71ef4cfc807b60d8739750c3e" target="_top" xlink:title=" ">
<polygon fill="#fff0f0" stroke="red" points="67,-114.12 0,-114.12 0,-93.38 67,-93.38 67,-114.12"/>
<text xml:space="preserve" text-anchor="middle" x="33.5" y="-100.62" font-family="Helvetica,sans-Serif" font-size="10.00">main_task</text>
</a>
</g>
</g>
<!-- Node3&#45;&gt;Node5 -->
<g id="edge4_Node000003_Node000005" class="edge">
<title>Node3&#45;&gt;Node5</title>
<g id="a_edge4_Node000003_Node000005"><a xlink:title=" ">
<path fill="none" stroke="#63b8ff" d="M95.79,-103.75C85.88,-103.75 76.14,-103.75 67.45,-103.75"/>
<polygon fill="#63b8ff" stroke="#63b8ff" points="95.49,-107.25 105.49,-103.75 95.49,-100.25 95.49,-107.25"/>
</a>
</g>
</g>
<!-- Node8 -->
<g id="Node000008" class="node">
<title>Node8</title>
<g id="a_Node000008"><a xlink:href="kest__state_8c.html#ad67167136a5f2e68f04622bc4f518b22" target="_top" xlink:title=" ">
<polygon fill="white" stroke="#666666" points="237.5,-36.5 103,-36.5 103,-3 237.5,-3 237.5,-36.5"/>
<text xml:space="preserve" text-anchor="start" x="111" y="-23" font-family="Helvetica,sans-Serif" font-size="10.00">kest_cxt_enter_previous</text>
<text xml:space="preserve" text-anchor="middle" x="170.25" y="-10.25" font-family="Helvetica,sans-Serif" font-size="10.00">_current_page</text>
</a>
</g>
</g>
<!-- Node7&#45;&gt;Node8 -->
<g id="edge6_Node000007_Node000008" class="edge">
<title>Node7&#45;&gt;Node8</title>
<g id="a_edge6_Node000007_Node000008"><a xlink:title=" ">
<path fill="none" stroke="#63b8ff" d="M265.03,-19.75C255.92,-19.75 246.68,-19.75 237.73,-19.75"/>
<polygon fill="#63b8ff" stroke="#63b8ff" points="264.96,-23.25 274.96,-19.75 264.96,-16.25 264.96,-23.25"/>
</a>
</g>
</g>
<!-- Node8&#45;&gt;Node4 -->
<g id="edge7_Node000008_Node000004" class="edge">
<title>Node8&#45;&gt;Node4</title>
<g id="a_edge7_Node000008_Node000004"><a xlink:title=" ">
<path fill="none" stroke="#63b8ff" d="M107.08,-40.51C92.76,-45.29 78.13,-50.18 65.79,-54.3"/>
<polygon fill="#63b8ff" stroke="#63b8ff" points="108.11,-43.86 116.49,-37.37 105.89,-37.22 108.11,-43.86"/>
</a>
</g>
</g>
<!-- Node10 -->
<g id="Node000010" class="node">
<title>Node10</title>
<g id="a_Node000010"><a xlink:href="kest__files_8c.html#a2b0f0df900e064b3a42198050e150084" target="_top" xlink:title=" ">
<polygon fill="white" stroke="#666666" points="234.5,-75.12 106,-75.12 106,-54.38 234.5,-54.38 234.5,-75.12"/>
<text xml:space="preserve" text-anchor="middle" x="170.25" y="-61.62" font-family="Helvetica,sans-Serif" font-size="10.00">load_saved_sequences</text>
</a>
</g>
</g>
<!-- Node9&#45;&gt;Node10 -->
<g id="edge9_Node000009_Node000010" class="edge">
<title>Node9&#45;&gt;Node10</title>
<g id="a_edge9_Node000009_Node000010"><a xlink:title=" ">
<path fill="none" stroke="#63b8ff" d="M261.73,-64.75C252.74,-64.75 243.68,-64.75 234.94,-64.75"/>
<polygon fill="#63b8ff" stroke="#63b8ff" points="261.53,-68.25 271.53,-64.75 261.53,-61.25 261.53,-68.25"/>
</a>
</g>
</g>
<!-- Node10&#45;&gt;Node4 -->
<g id="edge10_Node000010_Node000004" class="edge">
<title>Node10&#45;&gt;Node4</title>
<g id="a_edge10_Node000010_Node000004"><a xlink:title=" ">
<path fill="none" stroke="#63b8ff" d="M94.4,-64.75C84.32,-64.75 74.47,-64.75 65.76,-64.75"/>
<polygon fill="#63b8ff" stroke="#63b8ff" points="94.31,-68.25 104.31,-64.75 94.31,-61.25 94.31,-68.25"/>
</a>
</g>
</g>
<!-- Node10&#45;&gt;Node5 -->
<g id="edge11_Node000010_Node000005" class="edge">
<title>Node10&#45;&gt;Node5</title>
<g id="a_edge11_Node000010_Node000005"><a xlink:title=" ">
<path fill="none" stroke="#63b8ff" d="M120.67,-78.81C102.93,-83.95 83.29,-89.63 67.25,-94.27"/>
<polygon fill="#63b8ff" stroke="#63b8ff" points="121.63,-82.18 130.26,-76.03 119.68,-75.45 121.63,-82.18"/>
</a>
</g>
</g>
<!-- Node11&#45;&gt;Node7 -->
<g id="edge13_Node000011_Node000007" class="edge">
<title>Node11&#45;&gt;Node7</title>
<g id="a_edge13_Node000011_Node000007"><a xlink:title=" ">
<path fill="none" stroke="#63b8ff" d="M436.99,-18.05C427.93,-18.21 418.69,-18.38 409.72,-18.55"/>
<polygon fill="#63b8ff" stroke="#63b8ff" points="436.88,-21.55 446.82,-17.87 436.75,-14.55 436.88,-21.55"/>
</a>
</g>
</g>
</g>
</svg>

<g id="navigator" transform="translate(0 0)" fill="#404254">
  <rect fill="#f2f5e9" fill-opacity="0.5" stroke="#606060" stroke-width=".5" x="0" y="0" width="60" height="60"/>
  <use id="zoomplus" xlink:href="#zoomPlus" x="17" y="9" onmousedown="handleZoom(evt,'in')"/>
  <use id="zoomminus" xlink:href="#zoomMin" x="42" y="9" onmousedown="handleZoom(evt,'out')"/>
  <use id="reset" xlink:href="#resetDef" x="30" y="36" onmousedown="handleReset()"/>
   <use id="arrowup" xlink:href="#arrowUp" x="0" y="0" onmousedown="handlePan(0,-1)"/>
  <use id="arrowright" xlink:href="#arrowRight" x="0" y="0" onmousedown="handlePan(1,0)"/>
  <use id="arrowdown" xlink:href="#arrowDown" x="0" y="0" onmousedown="handlePan(0,1)"/>
  <use id="arrowleft" xlink:href="#arrowLeft" x="0" y="0" onmousedown="handlePan(-1,0)"/>
</g>
<svg viewBox="0 0 15 15" width="100%" height="30px" preserveAspectRatio="xMaxYMin meet">
 <g id="arrow_out" transform="scale(0.3 0.3)">
  <a xlink:href="kest__files_8c_a8bcff3a826c8132661386cd8098594a2_icgraph_org.svg" target="_base">
   <rect id="button" ry="5" rx="5" y="6" x="6" height="38" width="38"
        fill="#f2f5e9" fill-opacity="0.5" stroke="#606060" stroke-width="1.0"/>
   <path id="arrow"
     d="M 11.500037,31.436501 C 11.940474,20.09759 22.043105,11.32322 32.158766,21.979434 L 37.068811,17.246167 C 37.068811,17.246167 37.088388,32 37.088388,32 L 22.160133,31.978069 C 22.160133,31.978069 26.997745,27.140456 26.997745,27.140456 C 18.528582,18.264221 13.291696,25.230495 11.500037,31.436501 z"
     style="fill:#404040;"/>
  </a>
 </g>
</svg>

<style type='text/css'>
<![CDATA[
[data-mouse-over-selected='false'] { opacity: 0.7; }
[data-mouse-over-selected='true']  { opacity: 1.0; }
]]>
</style>
<script type="application/ecmascript"><![CDATA[
document.addEventListener('DOMContentLoaded', (event) => {
  highlightEdges();
  highlightAdjacentNodes();
});
]]></script>
</svg>
