<?xml version="1.0" encoding="UTF-8" standalone="no"?>
<!DOCTYPE svg PUBLIC "-//W3C//DTD SVG 1.1//EN"
 "http://www.w3.org/Graphics/SVG/1.1/DTD/svg11.dtd">
<!-- Generated by graphviz version 13.1.2 (20250808.2320)
 -->
<!-- Title: init_test_page Pages: 1 -->
<svg width="707pt" height="1229pt"
 viewBox="0.00 0.00 707.00 1229.00" xmlns="http://www.w3.org/2000/svg" xmlns:xlink="http://www.w3.org/1999/xlink">
<g id="graph0" class="graph" transform="scale(1 1) rotate(0) translate(4 1224.5)">
<title>init_test_page</title>
<!-- Node1 -->
<g id="Node000001" class="node">
<title>Node1</title>
<g id="a_Node000001"><a xlink:title=" ">
<polygon fill="#999999" stroke="#666666" points="85,-338.12 0,-338.12 0,-317.38 85,-317.38 85,-338.12"/>
<text xml:space="preserve" text-anchor="middle" x="42.5" y="-324.62" font-family="Helvetica,sans-Serif" font-size="10.00">init_test_page</text>
</a>
</g>
</g>
<!-- Node2 -->
<g id="Node000002" class="node">
<title>Node2</title>
<g id="a_Node000002"><a xlink:href="kest__ui_8c.html#a1cc4b2ebf73c32f9c6089e25a8e67c4a" target="_top" xlink:title=" ">
<polygon fill="white" stroke="#666666" points="235.25,-1117.12 121,-1117.12 121,-1096.38 235.25,-1096.38 235.25,-1117.12"/>
<text xml:space="preserve" text-anchor="middle" x="178.12" y="-1103.62" font-family="Helvetica,sans-Serif" font-size="10.00">create_test_page_ui</text>
</a>
</g>
</g>
<!-- Node1&#45;&gt;Node2 -->
<g id="edge1_Node000001_Node000002" class="edge">
<title>Node1&#45;&gt;Node2</title>
<g id="a_edge1_Node000001_Node000002"><a xlink:title=" ">
<path fill="none" stroke="#63b8ff" d="M45.34,-338.47C59.66,-421.96 153.36,-968.19 173.37,-1084.85"/>
<polygon fill="#63b8ff" stroke="#63b8ff" points="169.9,-1085.36 175.04,-1094.62 176.8,-1084.17 169.9,-1085.36"/>
</a>
</g>
</g>
<!-- Node17 -->
<g id="Node000017" class="node">
<title>Node17</title>
<g id="a_Node000017"><a xlink:href="kest__ui_8c.html#aa35b25eb0a8f315343a7ea5190b0163b" target="_top" xlink:title=" ">
<polygon fill="white" stroke="#666666" points="215.75,-563.12 140.5,-563.12 140.5,-542.38 215.75,-542.38 215.75,-563.12"/>
<text xml:space="preserve" text-anchor="middle" x="178.12" y="-549.62" font-family="Helvetica,sans-Serif" font-size="10.00">init_ui_page</text>
</a>
</g>
</g>
<!-- Node1&#45;&gt;Node17 -->
<g id="edge8_Node000001_Node000017" class="edge">
<title>Node1&#45;&gt;Node17</title>
<g id="a_edge8_Node000001_Node000017"><a xlink:title=" ">
<path fill="none" stroke="#63b8ff" d="M44.7,-338.46C48.93,-371.29 65.96,-471.68 121,-528.75 123.73,-531.58 126.85,-534.1 130.19,-536.33"/>
<polygon fill="#63b8ff" stroke="#63b8ff" points="128.29,-539.27 138.71,-541.14 131.73,-533.18 128.29,-539.27"/>
</a>
</g>
</g>
<!-- Node18 -->
<g id="Node000018" class="node">
<title>Node18</title>
<g id="a_Node000018"><a xlink:href="kest__button_8c.html#a760fe364ce4f5be2c972ff685e2f9825" target="_top" xlink:title=" ">
<polygon fill="white" stroke="#666666" points="234.88,-486.5 121.38,-486.5 121.38,-453 234.88,-453 234.88,-486.5"/>
<text xml:space="preserve" text-anchor="start" x="129.38" y="-473" font-family="Helvetica,sans-Serif" font-size="10.00">kest_active_button</text>
<text xml:space="preserve" text-anchor="middle" x="178.12" y="-460.25" font-family="Helvetica,sans-Serif" font-size="10.00">_array_append_new</text>
</a>
</g>
</g>
<!-- Node1&#45;&gt;Node18 -->
<g id="edge9_Node000001_Node000018" class="edge">
<title>Node1&#45;&gt;Node18</title>
<g id="a_edge9_Node000001_Node000018"><a xlink:title=" ">
<path fill="none" stroke="#63b8ff" d="M53.54,-338.42C74.63,-360.83 123.98,-413.27 153.54,-444.69"/>
<polygon fill="#63b8ff" stroke="#63b8ff" points="150.88,-446.97 160.28,-451.85 155.98,-442.17 150.88,-446.97"/>
</a>
</g>
</g>
<!-- Node42 -->
<g id="Node000042" class="node">
<title>Node42</title>
<g id="a_Node000042"><a xlink:href="kest__alloc_8c.html#a849755c5dc5b35e712ffcdb602e50fb4" target="_top" xlink:title=" ">
<polygon fill="white" stroke="#666666" points="696.88,-196.12 632.12,-196.12 632.12,-175.38 696.88,-175.38 696.88,-196.12"/>
<text xml:space="preserve" text-anchor="middle" x="664.5" y="-182.62" font-family="Helvetica,sans-Serif" font-size="10.00">kest_alloc</text>
</a>
</g>
</g>
<!-- Node1&#45;&gt;Node42 -->
<g id="edge43_Node000001_Node000042" class="edge">
<title>Node1&#45;&gt;Node42</title>
<g id="a_edge43_Node000001_Node000042"><a xlink:title=" ">
<path fill="none" stroke="#63b8ff" d="M80.43,-316.91C150.26,-296.67 306.61,-252.58 440.25,-223.75 502.65,-210.29 575.7,-198.62 620.79,-191.88"/>
<polygon fill="#63b8ff" stroke="#63b8ff" points="621.03,-195.38 630.41,-190.46 620.01,-188.46 621.03,-195.38"/>
</a>
</g>
</g>
<!-- Node61 -->
<g id="Node000061" class="node">
<title>Node61</title>
<g id="a_Node000061"><a xlink:href="kest__button_8c.html#aa8b7e33df0eaac17a63df490fcdadc60" target="_top" xlink:title=" ">
<polygon fill="white" stroke="#666666" points="232.25,-176.5 124,-176.5 124,-143 232.25,-143 232.25,-176.5"/>
<text xml:space="preserve" text-anchor="start" x="132" y="-163" font-family="Helvetica,sans-Serif" font-size="10.00">kest_active_button</text>
<text xml:space="preserve" text-anchor="middle" x="178.12" y="-150.25" font-family="Helvetica,sans-Serif" font-size="10.00">_array_new</text>
</a>
</g>
</g>
<!-- Node1&#45;&gt;Node61 -->
<g id="edge38_Node000001_Node000061" class="edge">
<title>Node1&#45;&gt;Node61</title>
<g id="a_edge38_Node000001_Node000061"><a xlink:title=" ">
<path fill="none" stroke="#63b8ff" d="M47.15,-317.22C56.2,-292.43 81.77,-229.58 121,-190.75 123.73,-188.04 126.75,-185.5 129.93,-183.14"/>
<polygon fill="#63b8ff" stroke="#63b8ff" points="131.58,-186.24 137.93,-177.76 127.68,-180.43 131.58,-186.24"/>
</a>
</g>
</g>
<!-- Node63 -->
<g id="Node000063" class="node">
<title>Node63</title>
<g id="a_Node000063"><a xlink:href="kest__button_8c.html#a95418b04a55bd08c5da1f31e035bec0b" target="_top" xlink:title=" ">
<polygon fill="white" stroke="#666666" points="232.25,-33.5 124,-33.5 124,0 232.25,0 232.25,-33.5"/>
<text xml:space="preserve" text-anchor="start" x="132" y="-20" font-family="Helvetica,sans-Serif" font-size="10.00">kest_active_button</text>
<text xml:space="preserve" text-anchor="middle" x="178.12" y="-7.25" font-family="Helvetica,sans-Serif" font-size="10.00">_array_set_length</text>
</a>
</g>
</g>
<!-- Node1&#45;&gt;Node63 -->
<g id="edge41_Node000001_Node000063" class="edge">
<title>Node1&#45;&gt;Node63</title>
<g id="a_edge41_Node000001_Node000063"><a xlink:title=" ">
<path fill="none" stroke="#63b8ff" d="M44.13,-316.9C46.85,-278.18 60.4,-144.51 121,-57.75 125.41,-51.44 131.11,-45.72 137.18,-40.7"/>
<polygon fill="#63b8ff" stroke="#63b8ff" points="139.17,-43.59 145.03,-34.76 134.95,-38 139.17,-43.59"/>
</a>
</g>
</g>
<!-- Node64 -->
<g id="Node000064" class="node">
<title>Node64</title>
<g id="a_Node000064"><a xlink:href="kest__ui_8c.html#a01360963fabe989a816b58c78cbc041b" target="_top" xlink:title=" ">
<polygon fill="white" stroke="#666666" points="212.38,-87.12 143.88,-87.12 143.88,-66.38 212.38,-66.38 212.38,-87.12"/>
<text xml:space="preserve" text-anchor="middle" x="178.12" y="-73.62" font-family="Helvetica,sans-Serif" font-size="10.00">new_panel</text>
</a>
</g>
</g>
<!-- Node1&#45;&gt;Node64 -->
<g id="edge44_Node000001_Node000064" class="edge">
<title>Node1&#45;&gt;Node64</title>
<g id="a_edge44_Node000001_Node000064"><a xlink:title=" ">
<path fill="none" stroke="#63b8ff" d="M46.18,-316.95C54.12,-286.35 79.53,-197.2 121,-133.75 130.47,-119.26 144.03,-105.36 155.45,-94.92"/>
<polygon fill="#63b8ff" stroke="#63b8ff" points="157.71,-97.59 162.89,-88.34 153.08,-92.34 157.71,-97.59"/>
</a>
</g>
</g>
<!-- Node66 -->
<g id="Node000066" class="node">
<title>Node66</title>
<g id="a_Node000066"><a xlink:href="kest__ui_8c.html#a446fd8da13243be96d2ce6a5ff1f1f7b" target="_top" xlink:title=" ">
<polygon fill="white" stroke="#666666" points="396.75,-666.5 278.75,-666.5 278.75,-633 396.75,-633 396.75,-666.5"/>
<text xml:space="preserve" text-anchor="start" x="286.75" y="-653" font-family="Helvetica,sans-Serif" font-size="10.00">ui_page_add_bottom</text>
<text xml:space="preserve" text-anchor="middle" x="337.75" y="-640.25" font-family="Helvetica,sans-Serif" font-size="10.00">_button</text>
</a>
</g>
</g>
<!-- Node1&#45;&gt;Node66 -->
<g id="edge47_Node000001_Node000066" class="edge">
<title>Node1&#45;&gt;Node66</title>
<g id="a_edge47_Node000001_Node000066"><a xlink:title=" ">
<path fill="none" stroke="#63b8ff" d="M45.4,-338.56C51.17,-368.14 71.21,-451.2 121,-495.75 160.88,-531.43 195.94,-497.44 235.25,-533.75 265.39,-561.58 242.85,-589.15 271.25,-618.75 273.94,-621.56 276.94,-624.14 280.14,-626.51"/>
<polygon fill="#63b8ff" stroke="#63b8ff" points="277.99,-629.29 288.28,-631.81 281.81,-623.42 277.99,-629.29"/>
</a>
</g>
</g>
<!-- Node3 -->
<g id="Node000003" class="node">
<title>Node3</title>
<g id="a_Node000003"><a xlink:href="kest__button_8c.html#a8b6854cbb240ab5cdc4babc281322278" target="_top" xlink:title=" ">
<polygon fill="white" stroke="#666666" points="391.88,-1194.5 283.62,-1194.5 283.62,-1161 391.88,-1161 391.88,-1194.5"/>
<text xml:space="preserve" text-anchor="start" x="291.62" y="-1181" font-family="Helvetica,sans-Serif" font-size="10.00">kest_active_button</text>
<text xml:space="preserve" text-anchor="middle" x="337.75" y="-1168.25" font-family="Helvetica,sans-Serif" font-size="10.00">_array_create_ui</text>
</a>
</g>
</g>
<!-- Node2&#45;&gt;Node3 -->
<g id="edge2_Node000002_Node000003" class="edge">
<title>Node2&#45;&gt;Node3</title>
<g id="a_edge2_Node000002_Node000003"><a xlink:title=" ">
<path fill="none" stroke="#63b8ff" d="M203.06,-1117.53C225.59,-1127.68 260,-1143.18 288.26,-1155.91"/>
<polygon fill="#63b8ff" stroke="#63b8ff" points="286.82,-1159.1 297.38,-1160.01 289.69,-1152.72 286.82,-1159.1"/>
</a>
</g>
</g>
<!-- Node6 -->
<g id="Node000006" class="node">
<title>Node6</title>
<g id="a_Node000006"><a xlink:href="kest__ui_8c.html#a58a68a436917a32cc3daab2e0d4b3245" target="_top" xlink:title=" ">
<polygon fill="white" stroke="#666666" points="404.25,-1117.12 271.25,-1117.12 271.25,-1096.38 404.25,-1096.38 404.25,-1117.12"/>
<text xml:space="preserve" text-anchor="middle" x="337.75" y="-1103.62" font-family="Helvetica,sans-Serif" font-size="10.00">ui_page_create_base_ui</text>
</a>
</g>
</g>
<!-- Node2&#45;&gt;Node6 -->
<g id="edge4_Node000002_Node000006" class="edge">
<title>Node2&#45;&gt;Node6</title>
<g id="a_edge4_Node000002_Node000006"><a xlink:title=" ">
<path fill="none" stroke="#63b8ff" d="M235.59,-1106.75C243.39,-1106.75 251.52,-1106.75 259.62,-1106.75"/>
<polygon fill="#63b8ff" stroke="#63b8ff" points="259.5,-1110.25 269.5,-1106.75 259.5,-1103.25 259.5,-1110.25"/>
</a>
</g>
</g>
<!-- Node4 -->
<g id="Node000004" class="node">
<title>Node4</title>
<g id="a_Node000004"><a xlink:href="kest__button_8c.html#a5fdea311fb351ff8f9d27116813f35a8" target="_top" xlink:title=" ">
<polygon fill="#fff0f0" stroke="red" points="571.38,-1220.5 463.12,-1220.5 463.12,-1187 571.38,-1187 571.38,-1220.5"/>
<text xml:space="preserve" text-anchor="start" x="471.12" y="-1207" font-family="Helvetica,sans-Serif" font-size="10.00">kest_active_button</text>
<text xml:space="preserve" text-anchor="middle" x="517.25" y="-1194.25" font-family="Helvetica,sans-Serif" font-size="10.00">_create_ui</text>
</a>
</g>
</g>
<!-- Node3&#45;&gt;Node4 -->
<g id="edge3_Node000003_Node000004" class="edge">
<title>Node3&#45;&gt;Node4</title>
<g id="a_edge3_Node000003_Node000004"><a xlink:title=" ">
<path fill="none" stroke="#63b8ff" d="M392.01,-1185.55C410.7,-1188.29 431.91,-1191.4 451.45,-1194.26"/>
<polygon fill="#63b8ff" stroke="#63b8ff" points="450.83,-1197.7 461.23,-1195.69 451.84,-1190.78 450.83,-1197.7"/>
</a>
</g>
</g>
<!-- Node7 -->
<g id="Node000007" class="node">
<title>Node7</title>
<g id="a_Node000007"><a xlink:href="kest__ui_8c.html#ab4d0521ac8d644d34daf9fde74ce1781" target="_top" xlink:title=" ">
<polygon fill="#fff0f0" stroke="red" points="582.62,-1168.5 451.88,-1168.5 451.88,-1135 582.62,-1135 582.62,-1168.5"/>
<text xml:space="preserve" text-anchor="start" x="459.88" y="-1155" font-family="Helvetica,sans-Serif" font-size="10.00">ui_page_create_bottom</text>
<text xml:space="preserve" text-anchor="middle" x="517.25" y="-1142.25" font-family="Helvetica,sans-Serif" font-size="10.00">_buttons</text>
</a>
</g>
</g>
<!-- Node6&#45;&gt;Node7 -->
<g id="edge5_Node000006_Node000007" class="edge">
<title>Node6&#45;&gt;Node7</title>
<g id="a_edge5_Node000006_Node000007"><a xlink:title=" ">
<path fill="none" stroke="#63b8ff" d="M381.27,-1117.53C399.01,-1122.03 420.17,-1127.39 440.41,-1132.52"/>
<polygon fill="#63b8ff" stroke="#63b8ff" points="439.51,-1135.91 450.07,-1134.97 441.23,-1129.12 439.51,-1135.91"/>
</a>
</g>
</g>
<!-- Node8 -->
<g id="Node000008" class="node">
<title>Node8</title>
<g id="a_Node000008"><a xlink:href="kest__ui_8c.html#a1d4879268198647d06d247db21e13f1b" target="_top" xlink:title=" ">
<polygon fill="#fff0f0" stroke="red" points="587.88,-1117.12 446.62,-1117.12 446.62,-1096.38 587.88,-1096.38 587.88,-1117.12"/>
<text xml:space="preserve" text-anchor="middle" x="517.25" y="-1103.62" font-family="Helvetica,sans-Serif" font-size="10.00">ui_page_create_container</text>
</a>
</g>
</g>
<!-- Node6&#45;&gt;Node8 -->
<g id="edge6_Node000006_Node000008" class="edge">
<title>Node6&#45;&gt;Node8</title>
<g id="a_edge6_Node000006_Node000008"><a xlink:title=" ">
<path fill="none" stroke="#63b8ff" d="M404.59,-1106.75C414.48,-1106.75 424.78,-1106.75 434.95,-1106.75"/>
<polygon fill="#63b8ff" stroke="#63b8ff" points="434.84,-1110.25 444.84,-1106.75 434.84,-1103.25 434.84,-1110.25"/>
</a>
</g>
</g>
<!-- Node15 -->
<g id="Node000015" class="node">
<title>Node15</title>
<g id="a_Node000015"><a xlink:href="kest__ui_8c.html#ab16753d26193cafda5dd736999b6880c" target="_top" xlink:title=" ">
<polygon fill="#fff0f0" stroke="red" points="585.62,-1078.12 448.88,-1078.12 448.88,-1057.38 585.62,-1057.38 585.62,-1078.12"/>
<text xml:space="preserve" text-anchor="middle" x="517.25" y="-1064.62" font-family="Helvetica,sans-Serif" font-size="10.00">ui_page_create_panel_ui</text>
</a>
</g>
</g>
<!-- Node6&#45;&gt;Node15 -->
<g id="edge7_Node000006_Node000015" class="edge">
<title>Node6&#45;&gt;Node15</title>
<g id="a_edge7_Node000006_Node000015"><a xlink:title=" ">
<path fill="none" stroke="#63b8ff" d="M388.19,-1095.89C409.07,-1091.3 433.58,-1085.91 455.55,-1081.09"/>
<polygon fill="#63b8ff" stroke="#63b8ff" points="456.27,-1084.51 465.29,-1078.95 454.77,-1077.68 456.27,-1084.51"/>
</a>
</g>
</g>
<!-- Node19 -->
<g id="Node000019" class="node">
<title>Node19</title>
<g id="a_Node000019"><a xlink:href="kest__button_8c.html#a209511305dd2db40751857097e1e82c1" target="_top" xlink:title=" ">
<polygon fill="white" stroke="#666666" points="391.88,-807.5 283.62,-807.5 283.62,-774 391.88,-774 391.88,-807.5"/>
<text xml:space="preserve" text-anchor="start" x="291.62" y="-794" font-family="Helvetica,sans-Serif" font-size="10.00">kest_active_button</text>
<text xml:space="preserve" text-anchor="middle" x="337.75" y="-781.25" font-family="Helvetica,sans-Serif" font-size="10.00">_add_del_button</text>
</a>
</g>
</g>
<!-- Node18&#45;&gt;Node19 -->
<g id="edge10_Node000018_Node000019" class="edge">
<title>Node18&#45;&gt;Node19</title>
<g id="a_edge10_Node000018_Node000019"><a xlink:title=" ">
<path fill="none" stroke="#63b8ff" d="M198.12,-486.76C210.42,-498.76 225.83,-515.83 235.25,-533.75 265.55,-591.38 246.92,-615.36 271.25,-675.75 284.06,-707.54 304.18,-741.32 318.74,-763.99"/>
<polygon fill="#63b8ff" stroke="#63b8ff" points="315.77,-765.84 324.16,-772.3 321.63,-762.02 315.77,-765.84"/>
</a>
</g>
</g>
<!-- Node18&#45;&gt;Node42 -->
<g id="edge36_Node000018_Node000042" class="edge">
<title>Node18&#45;&gt;Node42</title>
<g id="a_edge36_Node000018_Node000042"><a xlink:title=" ">
<path fill="none" stroke="#63b8ff" d="M224.42,-486.94C320.02,-521.87 538.23,-594.07 594.25,-547.75 647.17,-504 660.03,-279.19 662.8,-207.64"/>
<polygon fill="#63b8ff" stroke="#63b8ff" points="666.29,-208.12 663.15,-198 659.29,-207.87 666.29,-208.12"/>
</a>
</g>
</g>
<!-- Node43 -->
<g id="Node000043" class="node">
<title>Node43</title>
<g id="a_Node000043"><a xlink:href="kest__button_8c.html#a591c84573c4b4dfefa4c6b1445fc290e" target="_top" xlink:title=" ">
<polygon fill="white" stroke="#666666" points="391.88,-974.5 283.62,-974.5 283.62,-941 391.88,-941 391.88,-974.5"/>
<text xml:space="preserve" text-anchor="start" x="291.62" y="-961" font-family="Helvetica,sans-Serif" font-size="10.00">kest_active_button</text>
<text xml:space="preserve" text-anchor="middle" x="337.75" y="-948.25" font-family="Helvetica,sans-Serif" font-size="10.00">_array_append</text>
</a>
</g>
</g>
<!-- Node18&#45;&gt;Node43 -->
<g id="edge22_Node000018_Node000043" class="edge">
<title>Node18&#45;&gt;Node43</title>
<g id="a_edge22_Node000018_Node000043"><a xlink:title=" ">
<path fill="none" stroke="#63b8ff" d="M199.4,-486.94C211.9,-498.76 227.06,-515.56 235.25,-533.75 287.32,-649.35 236.12,-694.92 271.25,-816.75 283.25,-858.37 305.95,-903.23 321.21,-930.9"/>
<polygon fill="#63b8ff" stroke="#63b8ff" points="317.98,-932.29 325.92,-939.3 324.09,-928.87 317.98,-932.29"/>
</a>
</g>
</g>
<!-- Node44 -->
<g id="Node000044" class="node">
<title>Node44</title>
<g id="a_Node000044"><a xlink:href="kest__button_8c.html#a9cc8b0c8114bbffc12e858af8589ff86" target="_top" xlink:title=" ">
<polygon fill="white" stroke="#666666" points="402.38,-480.12 273.12,-480.12 273.12,-459.38 402.38,-459.38 402.38,-480.12"/>
<text xml:space="preserve" text-anchor="middle" x="337.75" y="-466.62" font-family="Helvetica,sans-Serif" font-size="10.00">kest_active_button_init</text>
</a>
</g>
</g>
<!-- Node18&#45;&gt;Node44 -->
<g id="edge26_Node000018_Node000044" class="edge">
<title>Node18&#45;&gt;Node44</title>
<g id="a_edge26_Node000018_Node000044"><a xlink:title=" ">
<path fill="none" stroke="#63b8ff" d="M235.14,-469.75C243.73,-469.75 252.71,-469.75 261.63,-469.75"/>
<polygon fill="#63b8ff" stroke="#63b8ff" points="261.34,-473.25 271.34,-469.75 261.34,-466.25 261.34,-473.25"/>
</a>
</g>
</g>
<!-- Node34 -->
<g id="Node000034" class="node">
<title>Node34</title>
<g id="a_Node000034"><a xlink:href="kest__alloc_8c.html#a294af5728a94aa316fcf65304d388d48" target="_top" xlink:title=" ">
<polygon fill="white" stroke="#666666" points="368.25,-441.12 307.25,-441.12 307.25,-420.38 368.25,-420.38 368.25,-441.12"/>
<text xml:space="preserve" text-anchor="middle" x="337.75" y="-427.62" font-family="Helvetica,sans-Serif" font-size="10.00">kest_free</text>
</a>
</g>
</g>
<!-- Node18&#45;&gt;Node34 -->
<g id="edge37_Node000018_Node000034" class="edge">
<title>Node18&#45;&gt;Node34</title>
<g id="a_edge37_Node000018_Node000034"><a xlink:title=" ">
<path fill="none" stroke="#63b8ff" d="M235.14,-455.89C255.22,-450.92 277.46,-445.42 296,-440.83"/>
<polygon fill="#63b8ff" stroke="#63b8ff" points="296.68,-444.27 305.54,-438.47 295,-437.48 296.68,-444.27"/>
</a>
</g>
</g>
<!-- Node20 -->
<g id="Node000020" class="node">
<title>Node20</title>
<g id="a_Node000020"><a xlink:href="kest__button_8c.html#aa59f296fa9f9744c9753f81484085a15" target="_top" xlink:title=" ">
<polygon fill="white" stroke="#666666" points="578.88,-653.12 455.62,-653.12 455.62,-632.38 578.88,-632.38 578.88,-653.12"/>
<text xml:space="preserve" text-anchor="middle" x="517.25" y="-639.62" font-family="Helvetica,sans-Serif" font-size="10.00">button_set_clicked_cb</text>
</a>
</g>
</g>
<!-- Node19&#45;&gt;Node20 -->
<g id="edge11_Node000019_Node000020" class="edge">
<title>Node19&#45;&gt;Node20</title>
<g id="a_edge11_Node000019_Node000020"><a xlink:title=" ">
<path fill="none" stroke="#63b8ff" d="M347.46,-773.75C362.52,-746.1 396.09,-691.61 440.25,-662.75 442.84,-661.06 445.56,-659.51 448.38,-658.09"/>
<polygon fill="#63b8ff" stroke="#63b8ff" points="449.75,-661.31 457.52,-654.11 446.95,-654.9 449.75,-661.31"/>
</a>
</g>
</g>
<!-- Node21 -->
<g id="Node000021" class="node">
<title>Node21</title>
<g id="a_Node000021"><a xlink:href="kest__button_8c.html#a20604a0eb74819a9747753ccfdb24e6c" target="_top" xlink:title=" ">
<polygon fill="white" stroke="#666666" points="698.75,-692.12 630.25,-692.12 630.25,-671.38 698.75,-671.38 698.75,-692.12"/>
<text xml:space="preserve" text-anchor="middle" x="664.5" y="-678.62" font-family="Helvetica,sans-Serif" font-size="10.00">init_button</text>
</a>
</g>
</g>
<!-- Node19&#45;&gt;Node21 -->
<g id="edge12_Node000019_Node000021" class="edge">
<title>Node19&#45;&gt;Node21</title>
<g id="a_edge12_Node000019_Node000021"><a xlink:title=" ">
<path fill="none" stroke="#63b8ff" d="M369.82,-807.95C420.86,-833.66 523.83,-874.55 594.25,-829.75 638.38,-801.68 654.86,-737.28 660.63,-703.44"/>
<polygon fill="#63b8ff" stroke="#63b8ff" points="664.03,-704.39 662.08,-693.97 657.11,-703.33 664.03,-704.39"/>
</a>
</g>
</g>
<!-- Node22 -->
<g id="Node000022" class="node">
<title>Node22</title>
<g id="a_Node000022"><a xlink:href="kest__button_8c.html#a79dee973d84b2c6abad7440f41145062" target="_top" xlink:title=" ">
<polygon fill="#fff0f0" stroke="red" points="571.38,-910.5 463.12,-910.5 463.12,-877 571.38,-877 571.38,-910.5"/>
<text xml:space="preserve" text-anchor="start" x="471.12" y="-897" font-family="Helvetica,sans-Serif" font-size="10.00">kest_active_button</text>
<text xml:space="preserve" text-anchor="middle" x="517.25" y="-884.25" font-family="Helvetica,sans-Serif" font-size="10.00">_del_cb</text>
</a>
</g>
</g>
<!-- Node19&#45;&gt;Node22 -->
<g id="edge13_Node000019_Node000022" class="edge">
<title>Node19&#45;&gt;Node22</title>
<g id="a_edge13_Node000019_Node000022"><a xlink:title=" ">
<path fill="none" stroke="#63b8ff" d="M359.59,-807.7C379.48,-823.34 410.71,-846.53 440.25,-862.75 446.23,-866.04 452.64,-869.18 459.1,-872.11"/>
<polygon fill="#63b8ff" stroke="#63b8ff" points="457.29,-875.14 467.86,-875.94 460.1,-868.73 457.29,-875.14"/>
</a>
</g>
</g>
<!-- Node35 -->
<g id="Node000035" class="node">
<title>Node35</title>
<g id="a_Node000035"><a xlink:href="kest__button_8c.html#abe862422fc2d6cb221112645f26e29bd" target="_top" xlink:title=" ">
<polygon fill="white" stroke="#666666" points="576.62,-743.5 457.88,-743.5 457.88,-710 576.62,-710 576.62,-743.5"/>
<text xml:space="preserve" text-anchor="start" x="465.88" y="-730" font-family="Helvetica,sans-Serif" font-size="10.00">kest_button_add_sub</text>
<text xml:space="preserve" text-anchor="middle" x="517.25" y="-717.25" font-family="Helvetica,sans-Serif" font-size="10.00">_button</text>
</a>
</g>
</g>
<!-- Node19&#45;&gt;Node35 -->
<g id="edge14_Node000019_Node000035" class="edge">
<title>Node19&#45;&gt;Node35</title>
<g id="a_edge14_Node000019_Node000035"><a xlink:title=" ">
<path fill="none" stroke="#63b8ff" d="M383.87,-773.54C401.43,-766.93 421.74,-759.38 440.25,-752.75 444.96,-751.06 449.83,-749.34 454.74,-747.62"/>
<polygon fill="#63b8ff" stroke="#63b8ff" points="455.76,-750.98 464.06,-744.39 453.46,-744.36 455.76,-750.98"/>
</a>
</g>
</g>
<!-- Node36 -->
<g id="Node000036" class="node">
<title>Node36</title>
<g id="a_Node000036"><a xlink:href="kest__button_8c.html#a247699a53218b0986f4149b42ecd3ae4" target="_top" xlink:title=" ">
<polygon fill="white" stroke="#666666" points="566.88,-821.12 467.62,-821.12 467.62,-800.38 566.88,-800.38 566.88,-821.12"/>
<text xml:space="preserve" text-anchor="middle" x="517.25" y="-807.62" font-family="Helvetica,sans-Serif" font-size="10.00">kest_button_hide</text>
</a>
</g>
</g>
<!-- Node19&#45;&gt;Node36 -->
<g id="edge15_Node000019_Node000036" class="edge">
<title>Node19&#45;&gt;Node36</title>
<g id="a_edge15_Node000019_Node000036"><a xlink:title=" ">
<path fill="none" stroke="#63b8ff" d="M392.01,-796.75C412.17,-799.02 435.26,-801.62 456.01,-803.96"/>
<polygon fill="#63b8ff" stroke="#63b8ff" points="455.44,-807.42 465.77,-805.06 456.22,-800.46 455.44,-807.42"/>
</a>
</g>
</g>
<!-- Node37 -->
<g id="Node000037" class="node">
<title>Node37</title>
<g id="a_Node000037"><a xlink:href="kest__button_8c.html#a8fdf6d6ae9b23100afda9fc1b7c9c985" target="_top" xlink:title=" ">
<polygon fill="white" stroke="#666666" points="591.25,-988.12 443.25,-988.12 443.25,-967.38 591.25,-967.38 591.25,-988.12"/>
<text xml:space="preserve" text-anchor="middle" x="517.25" y="-974.62" font-family="Helvetica,sans-Serif" font-size="10.00">kest_button_set_alignment</text>
</a>
</g>
</g>
<!-- Node19&#45;&gt;Node37 -->
<g id="edge16_Node000019_Node000037" class="edge">
<title>Node19&#45;&gt;Node37</title>
<g id="a_edge16_Node000019_Node000037"><a xlink:title=" ">
<path fill="none" stroke="#63b8ff" d="M344.26,-807.94C356.09,-842 387.22,-918.19 440.25,-957.75 442.29,-959.27 444.44,-960.68 446.67,-961.98"/>
<polygon fill="#63b8ff" stroke="#63b8ff" points="445.01,-965.07 455.53,-966.36 448.11,-958.79 445.01,-965.07"/>
</a>
</g>
</g>
<!-- Node38 -->
<g id="Node000038" class="node">
<title>Node38</title>
<g id="a_Node000038"><a xlink:href="kest__button_8c.html#ac24f7930db96a5006a81ec8255ad0e6c" target="_top" xlink:title=" ">
<polygon fill="#fff0f0" stroke="red" points="578.5,-782.12 456,-782.12 456,-761.38 578.5,-761.38 578.5,-782.12"/>
<text xml:space="preserve" text-anchor="middle" x="517.25" y="-768.62" font-family="Helvetica,sans-Serif" font-size="10.00">kest_button_set_label</text>
</a>
</g>
</g>
<!-- Node19&#45;&gt;Node38 -->
<g id="edge17_Node000019_Node000038" class="edge">
<title>Node19&#45;&gt;Node38</title>
<g id="a_edge17_Node000019_Node000038"><a xlink:title=" ">
<path fill="none" stroke="#63b8ff" d="M392.01,-785.05C408.42,-783.29 426.78,-781.33 444.24,-779.46"/>
<polygon fill="#63b8ff" stroke="#63b8ff" points="444.48,-782.95 454.06,-778.41 443.74,-775.99 444.48,-782.95"/>
</a>
</g>
</g>
<!-- Node40 -->
<g id="Node000040" class="node">
<title>Node40</title>
<g id="a_Node000040"><a xlink:href="kest__button_8c.html#acb9de2f6034f6759c09358b5444db480" target="_top" xlink:title=" ">
<polygon fill="white" stroke="#666666" points="576.25,-949.12 458.25,-949.12 458.25,-928.38 576.25,-928.38 576.25,-949.12"/>
<text xml:space="preserve" text-anchor="middle" x="517.25" y="-935.62" font-family="Helvetica,sans-Serif" font-size="10.00">kest_button_set_size</text>
</a>
</g>
</g>
<!-- Node19&#45;&gt;Node40 -->
<g id="edge18_Node000019_Node000040" class="edge">
<title>Node19&#45;&gt;Node40</title>
<g id="a_edge18_Node000019_Node000040"><a xlink:title=" ">
<path fill="none" stroke="#63b8ff" d="M347.39,-807.95C362.34,-835.9 395.76,-890.94 440.25,-919.75 442.65,-921.3 445.16,-922.73 447.76,-924.04"/>
<polygon fill="#63b8ff" stroke="#63b8ff" points="446.16,-927.16 456.73,-927.93 448.95,-920.74 446.16,-927.16"/>
</a>
</g>
</g>
<!-- Node41 -->
<g id="Node000041" class="node">
<title>Node41</title>
<g id="a_Node000041"><a xlink:href="kest__button_8c.html#afd8846ca469218a65279da29ad72e29b" target="_top" xlink:title=" ">
<polygon fill="white" stroke="#666666" points="553.75,-692.12 480.75,-692.12 480.75,-671.38 553.75,-671.38 553.75,-692.12"/>
<text xml:space="preserve" text-anchor="middle" x="517.25" y="-678.62" font-family="Helvetica,sans-Serif" font-size="10.00">new_button</text>
</a>
</g>
</g>
<!-- Node19&#45;&gt;Node41 -->
<g id="edge19_Node000019_Node000041" class="edge">
<title>Node19&#45;&gt;Node41</title>
<g id="a_edge19_Node000019_Node000041"><a xlink:title=" ">
<path fill="none" stroke="#63b8ff" d="M353.11,-773.78C371.31,-753.38 404.63,-719.53 440.25,-700.75 449.25,-696 459.49,-692.41 469.46,-689.7"/>
<polygon fill="#63b8ff" stroke="#63b8ff" points="470.18,-693.12 479.07,-687.36 468.52,-686.32 470.18,-693.12"/>
</a>
</g>
</g>
<!-- Node41&#45;&gt;Node21 -->
<g id="edge20_Node000041_Node000021" class="edge">
<title>Node41&#45;&gt;Node21</title>
<g id="a_edge20_Node000041_Node000021"><a xlink:title=" ">
<path fill="none" stroke="#63b8ff" d="M554.15,-681.75C573.63,-681.75 597.88,-681.75 618.59,-681.75"/>
<polygon fill="#63b8ff" stroke="#63b8ff" points="618.49,-685.25 628.49,-681.75 618.49,-678.25 618.49,-685.25"/>
</a>
</g>
</g>
<!-- Node41&#45;&gt;Node42 -->
<g id="edge21_Node000041_Node000042" class="edge">
<title>Node41&#45;&gt;Node42</title>
<g id="a_edge21_Node000041_Node000042"><a xlink:title=" ">
<path fill="none" stroke="#63b8ff" d="M554.07,-680.64C568.53,-678.31 584.16,-673.05 594.25,-661.75 655.3,-593.39 662.57,-292.33 663.4,-207.86"/>
<polygon fill="#63b8ff" stroke="#63b8ff" points="666.9,-207.96 663.47,-197.94 659.9,-207.91 666.9,-207.96"/>
</a>
</g>
</g>
<!-- Node43&#45;&gt;Node37 -->
<g id="edge24_Node000043_Node000037" class="edge">
<title>Node43&#45;&gt;Node37</title>
<g id="a_edge24_Node000043_Node000037"><a xlink:title=" ">
<path fill="none" stroke="#63b8ff" d="M392.01,-963.75C404.53,-965.16 418.19,-966.7 431.71,-968.22"/>
<polygon fill="#63b8ff" stroke="#63b8ff" points="431.18,-971.69 441.51,-969.33 431.96,-964.73 431.18,-971.69"/>
</a>
</g>
</g>
<!-- Node43&#45;&gt;Node40 -->
<g id="edge25_Node000043_Node000040" class="edge">
<title>Node43&#45;&gt;Node40</title>
<g id="a_edge25_Node000043_Node000040"><a xlink:title=" ">
<path fill="none" stroke="#63b8ff" d="M392.01,-952.05C409.09,-950.22 428.28,-948.17 446.37,-946.23"/>
<polygon fill="#63b8ff" stroke="#63b8ff" points="446.69,-949.72 456.26,-945.17 445.94,-942.76 446.69,-949.72"/>
</a>
</g>
</g>
<!-- Node29 -->
<g id="Node000029" class="node">
<title>Node29</title>
<g id="a_Node000029"><a xlink:href="kest__button_8c.html#ab7fe55b3f96297fce8392af5ccfe1ae4" target="_top" xlink:title=" ">
<polygon fill="white" stroke="#666666" points="584.5,-1039.5 450,-1039.5 450,-1006 584.5,-1006 584.5,-1039.5"/>
<text xml:space="preserve" text-anchor="start" x="458" y="-1026" font-family="Helvetica,sans-Serif" font-size="10.00">kest_active_button</text>
<text xml:space="preserve" text-anchor="middle" x="517.25" y="-1013.25" font-family="Helvetica,sans-Serif" font-size="10.00">_array_index_y_position</text>
</a>
</g>
</g>
<!-- Node43&#45;&gt;Node29 -->
<g id="edge23_Node000043_Node000029" class="edge">
<title>Node43&#45;&gt;Node29</title>
<g id="a_edge23_Node000043_Node000029"><a xlink:title=" ">
<path fill="none" stroke="#63b8ff" d="M382.33,-974.9C400.22,-981.84 421.17,-989.83 440.25,-996.75 444.87,-998.43 449.66,-1000.14 454.49,-1001.84"/>
<polygon fill="#63b8ff" stroke="#63b8ff" points="453.03,-1005.04 463.63,-1005.03 455.34,-998.43 453.03,-1005.04"/>
</a>
</g>
</g>
<!-- Node44&#45;&gt;Node20 -->
<g id="edge27_Node000044_Node000020" class="edge">
<title>Node44&#45;&gt;Node20</title>
<g id="a_edge27_Node000044_Node000020"><a xlink:title=" ">
<path fill="none" stroke="#63b8ff" d="M347.51,-480.32C364.53,-500.62 403.62,-546.13 440.25,-580.75 457.06,-596.63 477.42,-613.12 492.84,-625.09"/>
<polygon fill="#63b8ff" stroke="#63b8ff" points="490.46,-627.67 500.52,-630.99 494.73,-622.12 490.46,-627.67"/>
</a>
</g>
</g>
<!-- Node44&#45;&gt;Node21 -->
<g id="edge31_Node000044_Node000021" class="edge">
<title>Node44&#45;&gt;Node21</title>
<g id="a_edge31_Node000044_Node000021"><a xlink:title=" ">
<path fill="none" stroke="#63b8ff" d="M350.99,-480.44C369.5,-496.3 406.1,-526.49 440.25,-547.75 505.05,-588.09 530.32,-582.06 594.25,-623.75 612.18,-635.44 630.68,-651.16 644.04,-663.28"/>
<polygon fill="#63b8ff" stroke="#63b8ff" points="641.57,-665.76 651.29,-669.98 646.32,-660.62 641.57,-665.76"/>
</a>
</g>
</g>
<!-- Node45 -->
<g id="Node000045" class="node">
<title>Node45</title>
<g id="a_Node000045"><a xlink:href="kest__button_8c.html#a83cf55aa097bd9144aa25c7296221deb" target="_top" xlink:title=" ">
<polygon fill="white" stroke="#666666" points="594.25,-539.12 440.25,-539.12 440.25,-518.38 594.25,-518.38 594.25,-539.12"/>
<text xml:space="preserve" text-anchor="middle" x="517.25" y="-525.62" font-family="Helvetica,sans-Serif" font-size="10.00">button_set_long_pressed_cb</text>
</a>
</g>
</g>
<!-- Node44&#45;&gt;Node45 -->
<g id="edge28_Node000044_Node000045" class="edge">
<title>Node44&#45;&gt;Node45</title>
<g id="a_edge28_Node000044_Node000045"><a xlink:title=" ">
<path fill="none" stroke="#63b8ff" d="M364.34,-480.48C384.7,-488.79 414.02,-500.29 440.25,-508.75 446.9,-510.89 453.92,-512.98 460.91,-514.95"/>
<polygon fill="#63b8ff" stroke="#63b8ff" points="459.78,-518.26 470.35,-517.53 461.63,-511.51 459.78,-518.26"/>
</a>
</g>
</g>
<!-- Node46 -->
<g id="Node000046" class="node">
<title>Node46</title>
<g id="a_Node000046"><a xlink:href="kest__button_8c.html#af00d79cf42f9b296fbb6027daacc8fb9" target="_top" xlink:title=" ">
<polygon fill="white" stroke="#666666" points="582.62,-500.12 451.88,-500.12 451.88,-479.38 582.62,-479.38 582.62,-500.12"/>
<text xml:space="preserve" text-anchor="middle" x="517.25" y="-486.62" font-family="Helvetica,sans-Serif" font-size="10.00">button_set_pressing_cb</text>
</a>
</g>
</g>
<!-- Node44&#45;&gt;Node46 -->
<g id="edge29_Node000044_Node000046" class="edge">
<title>Node44&#45;&gt;Node46</title>
<g id="a_edge29_Node000044_Node000046"><a xlink:title=" ">
<path fill="none" stroke="#63b8ff" d="M402.83,-476.97C415,-478.34 427.83,-479.79 440.32,-481.19"/>
<polygon fill="#63b8ff" stroke="#63b8ff" points="439.83,-484.66 450.16,-482.3 440.62,-477.71 439.83,-484.66"/>
</a>
</g>
</g>
<!-- Node47 -->
<g id="Node000047" class="node">
<title>Node47</title>
<g id="a_Node000047"><a xlink:href="kest__button_8c.html#a88c9b098c88d8bd3adc510cc34130a67" target="_top" xlink:title=" ">
<polygon fill="white" stroke="#666666" points="583,-461.12 451.5,-461.12 451.5,-440.38 583,-440.38 583,-461.12"/>
<text xml:space="preserve" text-anchor="middle" x="517.25" y="-447.62" font-family="Helvetica,sans-Serif" font-size="10.00">button_set_released_cb</text>
</a>
</g>
</g>
<!-- Node44&#45;&gt;Node47 -->
<g id="edge30_Node000044_Node000047" class="edge">
<title>Node44&#45;&gt;Node47</title>
<g id="a_edge30_Node000044_Node000047"><a xlink:title=" ">
<path fill="none" stroke="#63b8ff" d="M402.83,-462.89C414.84,-461.6 427.51,-460.25 439.85,-458.93"/>
<polygon fill="#63b8ff" stroke="#63b8ff" points="439.99,-462.43 449.56,-457.89 439.25,-455.47 439.99,-462.43"/>
</a>
</g>
</g>
<!-- Node48 -->
<g id="Node000048" class="node">
<title>Node48</title>
<g id="a_Node000048"><a xlink:href="kest__button_8c.html#a29023886dc241d5e52af656d2e8f7077" target="_top" xlink:title=" ">
<polygon fill="white" stroke="#666666" points="571.38,-422.5 463.12,-422.5 463.12,-389 571.38,-389 571.38,-422.5"/>
<text xml:space="preserve" text-anchor="start" x="471.12" y="-409" font-family="Helvetica,sans-Serif" font-size="10.00">kest_active_button</text>
<text xml:space="preserve" text-anchor="middle" x="517.25" y="-396.25" font-family="Helvetica,sans-Serif" font-size="10.00">_clicked_cb</text>
</a>
</g>
</g>
<!-- Node44&#45;&gt;Node48 -->
<g id="edge32_Node000044_Node000048" class="edge">
<title>Node44&#45;&gt;Node48</title>
<g id="a_edge32_Node000044_Node000048"><a xlink:title=" ">
<path fill="none" stroke="#63b8ff" d="M377.91,-458.96C386.68,-456.23 395.86,-453.1 404.25,-449.75 420.86,-443.11 423.75,-438.66 440.25,-431.75 444.26,-430.07 448.42,-428.41 452.63,-426.8"/>
<polygon fill="#63b8ff" stroke="#63b8ff" points="453.59,-430.18 461.75,-423.42 451.15,-423.62 453.59,-430.18"/>
</a>
</g>
</g>
<!-- Node49 -->
<g id="Node000049" class="node">
<title>Node49</title>
<g id="a_Node000049"><a xlink:href="kest__button_8c.html#af4a8a2f9042aae51caf39056d3ae1972" target="_top" xlink:title=" ">
<polygon fill="#fff0f0" stroke="red" points="571.38,-370.5 463.12,-370.5 463.12,-337 571.38,-337 571.38,-370.5"/>
<text xml:space="preserve" text-anchor="start" x="471.12" y="-357" font-family="Helvetica,sans-Serif" font-size="10.00">kest_active_button</text>
<text xml:space="preserve" text-anchor="middle" x="517.25" y="-344.25" font-family="Helvetica,sans-Serif" font-size="10.00">_long_pressed_cb</text>
</a>
</g>
</g>
<!-- Node44&#45;&gt;Node49 -->
<g id="edge33_Node000044_Node000049" class="edge">
<title>Node44&#45;&gt;Node49</title>
<g id="a_edge33_Node000044_Node000049"><a xlink:title=" ">
<path fill="none" stroke="#63b8ff" d="M389.2,-459C394.62,-456.52 399.78,-453.49 404.25,-449.75 431.1,-427.32 413.78,-402.63 440.25,-379.75 444.03,-376.48 448.24,-373.62 452.69,-371.11"/>
<polygon fill="#63b8ff" stroke="#63b8ff" points="453.95,-374.4 461.38,-366.84 450.86,-368.11 453.95,-374.4"/>
</a>
</g>
</g>
<!-- Node55 -->
<g id="Node000055" class="node">
<title>Node55</title>
<g id="a_Node000055"><a xlink:href="kest__button_8c.html#a5e8684adc8c5fbe7944b7cc188cd7b2c" target="_top" xlink:title=" ">
<polygon fill="#fff0f0" stroke="red" points="571.38,-318.5 463.12,-318.5 463.12,-285 571.38,-285 571.38,-318.5"/>
<text xml:space="preserve" text-anchor="start" x="471.12" y="-305" font-family="Helvetica,sans-Serif" font-size="10.00">kest_active_button</text>
<text xml:space="preserve" text-anchor="middle" x="517.25" y="-292.25" font-family="Helvetica,sans-Serif" font-size="10.00">_pressing_cb</text>
</a>
</g>
</g>
<!-- Node44&#45;&gt;Node55 -->
<g id="edge34_Node000044_Node000055" class="edge">
<title>Node44&#45;&gt;Node55</title>
<g id="a_edge34_Node000044_Node000055"><a xlink:title=" ">
<path fill="none" stroke="#63b8ff" d="M391.54,-458.97C396.22,-456.5 400.57,-453.47 404.25,-449.75 444.04,-409.59 401.14,-368.57 440.25,-327.75 443.97,-323.86 448.3,-320.56 452.97,-317.75"/>
<polygon fill="#63b8ff" stroke="#63b8ff" points="454.28,-321.01 461.59,-313.33 451.09,-314.78 454.28,-321.01"/>
</a>
</g>
</g>
<!-- Node56 -->
<g id="Node000056" class="node">
<title>Node56</title>
<g id="a_Node000056"><a xlink:href="kest__button_8c.html#abd7f68ebcde411086bd7fa11eb96564b" target="_top" xlink:title=" ">
<polygon fill="#fff0f0" stroke="red" points="571.38,-266.5 463.12,-266.5 463.12,-233 571.38,-233 571.38,-266.5"/>
<text xml:space="preserve" text-anchor="start" x="471.12" y="-253" font-family="Helvetica,sans-Serif" font-size="10.00">kest_active_button</text>
<text xml:space="preserve" text-anchor="middle" x="517.25" y="-240.25" font-family="Helvetica,sans-Serif" font-size="10.00">_release_cb</text>
</a>
</g>
</g>
<!-- Node44&#45;&gt;Node56 -->
<g id="edge35_Node000044_Node000056" class="edge">
<title>Node44&#45;&gt;Node56</title>
<g id="a_edge35_Node000044_Node000056"><a xlink:title=" ">
<path fill="none" stroke="#63b8ff" d="M392.49,-458.92C396.86,-456.46 400.89,-453.44 404.25,-449.75 457.45,-391.39 388.02,-334.99 440.25,-275.75 443.86,-271.65 448.15,-268.2 452.82,-265.29"/>
<polygon fill="#63b8ff" stroke="#63b8ff" points="454.27,-268.48 461.52,-260.75 451.03,-262.28 454.27,-268.48"/>
</a>
</g>
</g>
<!-- Node61&#45;&gt;Node42 -->
<g id="edge40_Node000061_Node000042" class="edge">
<title>Node61&#45;&gt;Node42</title>
<g id="a_edge40_Node000061_Node000042"><a xlink:title=" ">
<path fill="none" stroke="#63b8ff" d="M232.35,-162.61C329.03,-167.8 531.7,-178.68 620.39,-183.44"/>
<polygon fill="#63b8ff" stroke="#63b8ff" points="620.19,-186.93 630.36,-183.97 620.57,-179.94 620.19,-186.93"/>
</a>
</g>
</g>
<!-- Node62 -->
<g id="Node000062" class="node">
<title>Node62</title>
<g id="a_Node000062"><a xlink:href="kest__button_8c.html#a1f41f5f6d9ef43d2850007fa3b6de612" target="_top" xlink:title=" ">
<polygon fill="white" stroke="#666666" points="391.88,-138.5 283.62,-138.5 283.62,-105 391.88,-105 391.88,-138.5"/>
<text xml:space="preserve" text-anchor="start" x="291.62" y="-125" font-family="Helvetica,sans-Serif" font-size="10.00">kest_active_button</text>
<text xml:space="preserve" text-anchor="middle" x="337.75" y="-112.25" font-family="Helvetica,sans-Serif" font-size="10.00">_array_init</text>
</a>
</g>
</g>
<!-- Node61&#45;&gt;Node62 -->
<g id="edge39_Node000061_Node000062" class="edge">
<title>Node61&#45;&gt;Node62</title>
<g id="a_edge39_Node000061_Node000062"><a xlink:title=" ">
<path fill="none" stroke="#63b8ff" d="M232.49,-146.88C245.26,-143.81 259.03,-140.49 272.24,-137.3"/>
<polygon fill="#63b8ff" stroke="#63b8ff" points="272.8,-140.77 281.7,-135.02 271.16,-133.96 272.8,-140.77"/>
</a>
</g>
</g>
<!-- Node63&#45;&gt;Node42 -->
<g id="edge42_Node000063_Node000042" class="edge">
<title>Node63&#45;&gt;Node42</title>
<g id="a_edge42_Node000063_Node000042"><a xlink:title=" ">
<path fill="none" stroke="#63b8ff" d="M232.53,-11.69C278.55,-8.7 346.5,-7.55 404.25,-19.75 494.07,-38.72 520.9,-45.56 594.25,-100.75 618.01,-118.63 638.56,-146.34 650.97,-165.22"/>
<polygon fill="#63b8ff" stroke="#63b8ff" points="648.01,-167.1 656.33,-173.66 653.92,-163.34 648.01,-167.1"/>
</a>
</g>
</g>
<!-- Node64&#45;&gt;Node42 -->
<g id="edge46_Node000064_Node000042" class="edge">
<title>Node64&#45;&gt;Node42</title>
<g id="a_edge46_Node000064_Node000042"><a xlink:title=" ">
<path fill="none" stroke="#63b8ff" d="M212.69,-76.98C257.02,-77.87 337.3,-81.54 404.25,-95.75 487.01,-113.32 579.69,-149.82 628.71,-170.53"/>
<polygon fill="#63b8ff" stroke="#63b8ff" points="627.1,-173.65 637.67,-174.35 629.85,-167.21 627.1,-173.65"/>
</a>
</g>
</g>
<!-- Node65 -->
<g id="Node000065" class="node">
<title>Node65</title>
<g id="a_Node000065"><a xlink:href="kest__ui_8c.html#a574d886c7fb2ce9bcf04b4a1e94576ac" target="_top" xlink:title=" ">
<polygon fill="white" stroke="#666666" points="369.75,-49.12 305.75,-49.12 305.75,-28.38 369.75,-28.38 369.75,-49.12"/>
<text xml:space="preserve" text-anchor="middle" x="337.75" y="-35.62" font-family="Helvetica,sans-Serif" font-size="10.00">init_panel</text>
</a>
</g>
</g>
<!-- Node64&#45;&gt;Node65 -->
<g id="edge45_Node000064_Node000065" class="edge">
<title>Node64&#45;&gt;Node65</title>
<g id="a_edge45_Node000064_Node000065"><a xlink:title=" ">
<path fill="none" stroke="#63b8ff" d="M212.55,-68.69C236.48,-62.92 268.88,-55.11 294.59,-48.91"/>
<polygon fill="#63b8ff" stroke="#63b8ff" points="295.14,-52.38 304.04,-46.64 293.5,-45.58 295.14,-52.38"/>
</a>
</g>
</g>
<!-- Node66&#45;&gt;Node20 -->
<g id="edge48_Node000066_Node000020" class="edge">
<title>Node66&#45;&gt;Node20</title>
<g id="a_edge48_Node000066_Node000020"><a xlink:title=" ">
<path fill="none" stroke="#63b8ff" d="M396.87,-647.46C411.92,-646.86 428.31,-646.22 443.99,-645.6"/>
<polygon fill="#63b8ff" stroke="#63b8ff" points="443.89,-649.11 453.74,-645.22 443.61,-642.11 443.89,-649.11"/>
</a>
</g>
</g>
<!-- Node66&#45;&gt;Node41 -->
<g id="edge49_Node000066_Node000041" class="edge">
<title>Node66&#45;&gt;Node41</title>
<g id="a_edge49_Node000066_Node000041"><a xlink:title=" ">
<path fill="none" stroke="#63b8ff" d="M396.87,-660.23C420.29,-664.45 446.95,-669.26 469.13,-673.25"/>
<polygon fill="#63b8ff" stroke="#63b8ff" points="468.32,-676.67 478.79,-675 469.57,-669.78 468.32,-676.67"/>
</a>
</g>
</g>
</g>
</svg>
