<?xml version="1.0" encoding="UTF-8" standalone="no"?>
<!DOCTYPE svg PUBLIC "-//W3C//DTD SVG 1.1//EN"
 "http://www.w3.org/Graphics/SVG/1.1/DTD/svg11.dtd">
<!-- Generated by graphviz version 13.1.2 (20250808.2320)
 -->
<!-- Title: seq_play_cb Pages: 1 -->
<svg width="577pt" height="122pt"
 viewBox="0.00 0.00 577.00 122.00" xmlns="http://www.w3.org/2000/svg" xmlns:xlink="http://www.w3.org/1999/xlink">
<g id="graph0" class="graph" transform="scale(1 1) rotate(0) translate(4 118.12)">
<title>seq_play_cb</title>
<!-- Node1 -->
<g id="Node000001" class="node">
<title>Node1</title>
<g id="a_Node000001"><a xlink:title=" ">
<polygon fill="#999999" stroke="#666666" points="76,-81.75 0,-81.75 0,-61 76,-61 76,-81.75"/>
<text xml:space="preserve" text-anchor="middle" x="38" y="-68.25" font-family="Helvetica,sans-Serif" font-size="10.00">seq_play_cb</text>
</a>
</g>
</g>
<!-- Node2 -->
<g id="Node000002" class="node">
<title>Node2</title>
<g id="a_Node000002"><a xlink:href="kest__sequence_8c.html#adf2bc7c26b0bead2b6bd85fcd9bc6248" target="_top" xlink:title=" ">
<polygon fill="white" stroke="#666666" points="232.25,-81.75 112,-81.75 112,-61 232.25,-61 232.25,-81.75"/>
<text xml:space="preserve" text-anchor="middle" x="172.12" y="-68.25" font-family="Helvetica,sans-Serif" font-size="10.00">kest_sequence_begin</text>
</a>
</g>
</g>
<!-- Node1&#45;&gt;Node2 -->
<g id="edge1_Node000001_Node000002" class="edge">
<title>Node1&#45;&gt;Node2</title>
<g id="a_edge1_Node000001_Node000002"><a xlink:title=" ">
<path fill="none" stroke="#63b8ff" d="M76.16,-71.38C83.71,-71.38 91.9,-71.38 100.18,-71.38"/>
<polygon fill="#63b8ff" stroke="#63b8ff" points="99.99,-74.88 109.99,-71.38 99.99,-67.88 99.99,-74.88"/>
</a>
</g>
</g>
<!-- Node3 -->
<g id="Node000003" class="node">
<title>Node3</title>
<g id="a_Node000003"><a xlink:href="kest__sequence_8c.html#abb62e308c5b4830b09a802084718cb2d" target="_top" xlink:title=" ">
<polygon fill="white" stroke="#666666" points="395.25,-114.12 268.25,-114.12 268.25,-80.62 395.25,-80.62 395.25,-114.12"/>
<text xml:space="preserve" text-anchor="start" x="276.25" y="-100.62" font-family="Helvetica,sans-Serif" font-size="10.00">kest_sequence_update</text>
<text xml:space="preserve" text-anchor="middle" x="331.75" y="-87.88" font-family="Helvetica,sans-Serif" font-size="10.00">_representations</text>
</a>
</g>
</g>
<!-- Node2&#45;&gt;Node3 -->
<g id="edge2_Node000002_Node000003" class="edge">
<title>Node2&#45;&gt;Node3</title>
<g id="a_edge2_Node000002_Node000003"><a xlink:title=" ">
<path fill="none" stroke="#63b8ff" d="M232.72,-81.2C240.54,-82.49 248.63,-83.83 256.65,-85.15"/>
<polygon fill="#63b8ff" stroke="#63b8ff" points="255.99,-88.59 266.43,-86.77 257.13,-81.68 255.99,-88.59"/>
</a>
</g>
</g>
<!-- Node5 -->
<g id="Node000005" class="node">
<title>Node5</title>
<g id="a_Node000005"><a xlink:href="kest__context_8c.html#a46a337c8aa1724024c73026c74d90a39" target="_top" xlink:title=" ">
<polygon fill="white" stroke="#666666" points="383.25,-62.12 280.25,-62.12 280.25,-28.62 383.25,-28.62 383.25,-62.12"/>
<text xml:space="preserve" text-anchor="start" x="288.25" y="-48.62" font-family="Helvetica,sans-Serif" font-size="10.00">set_active_profile</text>
<text xml:space="preserve" text-anchor="middle" x="331.75" y="-35.88" font-family="Helvetica,sans-Serif" font-size="10.00">_from_sequence</text>
</a>
</g>
</g>
<!-- Node2&#45;&gt;Node5 -->
<g id="edge4_Node000002_Node000005" class="edge">
<title>Node2&#45;&gt;Node5</title>
<g id="a_edge4_Node000002_Node000005"><a xlink:title=" ">
<path fill="none" stroke="#63b8ff" d="M232.72,-61.55C244.48,-59.61 256.84,-57.57 268.68,-55.61"/>
<polygon fill="#63b8ff" stroke="#63b8ff" points="269.05,-59.1 278.34,-54.02 267.91,-52.19 269.05,-59.1"/>
</a>
</g>
</g>
<!-- Node4 -->
<g id="Node000004" class="node">
<title>Node4</title>
<g id="a_Node000004"><a xlink:href="kest__representation_8c.html#a7a4a0f32b72f47d90e3d0f5932fbe58f" target="_top" xlink:title=" ">
<polygon fill="white" stroke="#666666" points="561.25,-114.12 438.75,-114.12 438.75,-80.62 561.25,-80.62 561.25,-114.12"/>
<text xml:space="preserve" text-anchor="start" x="446.75" y="-100.62" font-family="Helvetica,sans-Serif" font-size="10.00">queue_representation</text>
<text xml:space="preserve" text-anchor="middle" x="500" y="-87.88" font-family="Helvetica,sans-Serif" font-size="10.00">_list_update</text>
</a>
</g>
</g>
<!-- Node3&#45;&gt;Node4 -->
<g id="edge3_Node000003_Node000004" class="edge">
<title>Node3&#45;&gt;Node4</title>
<g id="a_edge3_Node000003_Node000004"><a xlink:title=" ">
<path fill="none" stroke="#63b8ff" d="M395.6,-97.38C405.87,-97.38 416.57,-97.38 427.03,-97.38"/>
<polygon fill="#63b8ff" stroke="#63b8ff" points="426.75,-100.88 436.75,-97.38 426.75,-93.88 426.75,-100.88"/>
</a>
</g>
</g>
<!-- Node6 -->
<g id="Node000006" class="node">
<title>Node6</title>
<g id="a_Node000006"><a xlink:href="kest__profile_8c.html#a9103db076a4ce8ae9b06c8e30480cbe3" target="_top" xlink:title=" ">
<polygon fill="#fff0f0" stroke="red" points="564.25,-59.75 435.75,-59.75 435.75,-39 564.25,-39 564.25,-59.75"/>
<text xml:space="preserve" text-anchor="middle" x="500" y="-46.25" font-family="Helvetica,sans-Serif" font-size="10.00">kest_profile_set_active</text>
</a>
</g>
</g>
<!-- Node5&#45;&gt;Node6 -->
<g id="edge5_Node000005_Node000006" class="edge">
<title>Node5&#45;&gt;Node6</title>
<g id="a_edge5_Node000005_Node000006"><a xlink:title=" ">
<path fill="none" stroke="#63b8ff" d="M383.53,-46.6C396.29,-46.9 410.25,-47.24 423.92,-47.57"/>
<polygon fill="#63b8ff" stroke="#63b8ff" points="423.7,-51.06 433.79,-47.81 423.87,-44.07 423.7,-51.06"/>
</a>
</g>
</g>
<!-- Node41 -->
<g id="Node000041" class="node">
<title>Node41</title>
<g id="a_Node000041"><a xlink:href="kest__profile_8c.html#a9485112eae167967c5ffd2a1c5018df1" target="_top" xlink:title=" ">
<polygon fill="#fff0f0" stroke="red" points="568.75,-20.75 431.25,-20.75 431.25,0 568.75,0 568.75,-20.75"/>
<text xml:space="preserve" text-anchor="middle" x="500" y="-7.25" font-family="Helvetica,sans-Serif" font-size="10.00">kest_profile_set_inactive</text>
</a>
</g>
</g>
<!-- Node5&#45;&gt;Node41 -->
<g id="edge6_Node000005_Node000041" class="edge">
<title>Node5&#45;&gt;Node41</title>
<g id="a_edge6_Node000005_Node000041"><a xlink:title=" ">
<path fill="none" stroke="#63b8ff" d="M383.53,-34.68C400.14,-31.19 418.79,-27.26 436.17,-23.6"/>
<polygon fill="#63b8ff" stroke="#63b8ff" points="436.83,-27.04 445.9,-21.55 435.39,-20.19 436.83,-27.04"/>
</a>
</g>
</g>
</g>
</svg>
