<?xml version="1.0" encoding="UTF-8" standalone="no"?>
<!DOCTYPE svg PUBLIC "-//W3C//DTD SVG 1.1//EN"
 "http://www.w3.org/Graphics/SVG/1.1/DTD/svg11.dtd">
<!-- Generated by graphviz version 13.1.2 (20250808.2320)
 -->
<!-- Title: kest_expression_print_rec Pages: 1 -->
<svg width="327pt" height="132pt"
 viewBox="0.00 0.00 327.00 132.00" xmlns="http://www.w3.org/2000/svg" xmlns:xlink="http://www.w3.org/1999/xlink">
<g id="graph0" class="graph" transform="scale(1 1) rotate(0) translate(4 128.12)">
<title>kest_expression_print_rec</title>
<!-- Node1 -->
<g id="Node000001" class="node">
<title>Node1</title>
<g id="a_Node000001"><a xlink:title=" ">
<polygon fill="#999999" stroke="#666666" points="142.75,-79.12 0,-79.12 0,-58.38 142.75,-58.38 142.75,-79.12"/>
<text xml:space="preserve" text-anchor="middle" x="71.38" y="-65.62" font-family="Helvetica,sans-Serif" font-size="10.00">kest_expression_print_rec</text>
</a>
</g>
</g>
<!-- Node1&#45;&gt;Node1 -->
<g id="edge4_Node000001_Node000001" class="edge">
<title>Node1&#45;&gt;Node1</title>
<g id="a_edge4_Node000001_Node000001"><a xlink:title=" ">
<path fill="none" stroke="#63b8ff" d="M42.81,-79.52C31.39,-88.18 40.91,-97.12 71.38,-97.12 88.04,-97.12 98.43,-94.45 102.56,-90.61"/>
<polygon fill="#63b8ff" stroke="#63b8ff" points="106,-89.92 100.28,-80.99 99.19,-91.53 106,-89.92"/>
</a>
</g>
</g>
<!-- Node2 -->
<g id="Node000002" class="node">
<title>Node2</title>
<g id="a_Node000002"><a xlink:href="kest__expression_8c.html#a2f21e4932bce8c87ec0bfc508588b761" target="_top" xlink:title=" ">
<polygon fill="white" stroke="#666666" points="310.25,-124.12 187,-124.12 187,-103.38 310.25,-103.38 310.25,-124.12"/>
<text xml:space="preserve" text-anchor="middle" x="248.62" y="-110.62" font-family="Helvetica,sans-Serif" font-size="10.00">kest_expression_form</text>
</a>
</g>
</g>
<!-- Node1&#45;&gt;Node2 -->
<g id="edge1_Node000001_Node000002" class="edge">
<title>Node1&#45;&gt;Node2</title>
<g id="a_edge1_Node000001_Node000002"><a xlink:title=" ">
<path fill="none" stroke="#63b8ff" d="M114.35,-79.53C138.34,-85.69 168.67,-93.48 194.33,-100.07"/>
<polygon fill="#63b8ff" stroke="#63b8ff" points="193.36,-103.43 203.92,-102.53 195.1,-96.65 193.36,-103.43"/>
</a>
</g>
</g>
<!-- Node3 -->
<g id="Node000003" class="node">
<title>Node3</title>
<g id="a_Node000003"><a xlink:href="kest__expression_8c.html#a81b490a2837a170e18e8cdae730d0d9b" target="_top" xlink:title=" ">
<polygon fill="white" stroke="#666666" points="318.5,-85.5 178.75,-85.5 178.75,-52 318.5,-52 318.5,-85.5"/>
<text xml:space="preserve" text-anchor="start" x="186.75" y="-72" font-family="Helvetica,sans-Serif" font-size="10.00">kest_expression_function</text>
<text xml:space="preserve" text-anchor="middle" x="248.62" y="-59.25" font-family="Helvetica,sans-Serif" font-size="10.00">_string</text>
</a>
</g>
</g>
<!-- Node1&#45;&gt;Node3 -->
<g id="edge2_Node000001_Node000003" class="edge">
<title>Node1&#45;&gt;Node3</title>
<g id="a_edge2_Node000001_Node000003"><a xlink:title=" ">
<path fill="none" stroke="#63b8ff" d="M143.15,-68.75C150.94,-68.75 158.91,-68.75 166.81,-68.75"/>
<polygon fill="#63b8ff" stroke="#63b8ff" points="166.78,-72.25 176.78,-68.75 166.78,-65.25 166.78,-72.25"/>
</a>
</g>
</g>
<!-- Node4 -->
<g id="Node000004" class="node">
<title>Node4</title>
<g id="a_Node000004"><a xlink:href="kest__expression_8c.html#a1a3a0bc9ed6726fb24e6a40803741b43" target="_top" xlink:title=" ">
<polygon fill="white" stroke="#666666" points="309.5,-33.5 187.75,-33.5 187.75,0 309.5,0 309.5,-33.5"/>
<text xml:space="preserve" text-anchor="start" x="195.75" y="-20" font-family="Helvetica,sans-Serif" font-size="10.00">kest_expression_infix</text>
<text xml:space="preserve" text-anchor="middle" x="248.62" y="-7.25" font-family="Helvetica,sans-Serif" font-size="10.00">_operator_string</text>
</a>
</g>
</g>
<!-- Node1&#45;&gt;Node4 -->
<g id="edge3_Node000001_Node000004" class="edge">
<title>Node1&#45;&gt;Node4</title>
<g id="a_edge3_Node000001_Node000004"><a xlink:title=" ">
<path fill="none" stroke="#63b8ff" d="M108.69,-57.98C128.94,-51.96 154.85,-44.28 178.79,-37.17"/>
<polygon fill="#63b8ff" stroke="#63b8ff" points="179.59,-40.59 188.18,-34.39 177.6,-33.88 179.59,-40.59"/>
</a>
</g>
</g>
</g>
</svg>
