<?xml version="1.0" encoding="UTF-8" standalone="no"?>
<!DOCTYPE svg PUBLIC "-//W3C//DTD SVG 1.1//EN"
 "http://www.w3.org/Graphics/SVG/1.1/DTD/svg11.dtd">
<!-- Generated by graphviz version 13.1.2 (20250808.2320)
 -->
<!-- Title: kest_sequence_move_profile Pages: 1 -->
<svg width="790pt" height="67pt"
 viewBox="0.00 0.00 790.00 67.00" xmlns="http://www.w3.org/2000/svg" xmlns:xlink="http://www.w3.org/1999/xlink">
<g id="graph0" class="graph" transform="scale(1 1) rotate(0) translate(4 62.75)">
<title>kest_sequence_move_profile</title>
<!-- Node1 -->
<g id="Node000001" class="node">
<title>Node1</title>
<g id="a_Node000001"><a xlink:title=" ">
<polygon fill="#999999" stroke="#666666" points="782,-46.12 661,-46.12 661,-12.62 782,-12.62 782,-46.12"/>
<text xml:space="preserve" text-anchor="start" x="669" y="-32.62" font-family="Helvetica,sans-Serif" font-size="10.00">kest_sequence_move</text>
<text xml:space="preserve" text-anchor="middle" x="721.5" y="-19.88" font-family="Helvetica,sans-Serif" font-size="10.00">_profile</text>
</a>
</g>
</g>
<!-- Node2 -->
<g id="Node000002" class="node">
<title>Node2</title>
<g id="a_Node000002"><a xlink:href="kest__sequence__view_8c.html#a781781f2f55b9caaa4c9a9db94b566f5" target="_top" xlink:title=" ">
<polygon fill="white" stroke="#666666" points="625,-39.75 507.75,-39.75 507.75,-19 625,-19 625,-39.75"/>
<text xml:space="preserve" text-anchor="middle" x="566.38" y="-26.25" font-family="Helvetica,sans-Serif" font-size="10.00">seq_view_moved_cb</text>
</a>
</g>
</g>
<!-- Node1&#45;&gt;Node2 -->
<g id="edge1_Node000001_Node000002" class="edge">
<title>Node1&#45;&gt;Node2</title>
<g id="a_edge1_Node000001_Node000002"><a xlink:title=" ">
<path fill="none" stroke="#63b8ff" d="M649.51,-29.38C641.42,-29.38 633.24,-29.38 625.35,-29.38"/>
<polygon fill="#63b8ff" stroke="#63b8ff" points="649.35,-32.88 659.35,-29.38 649.35,-25.88 649.35,-32.88"/>
</a>
</g>
</g>
<!-- Node3 -->
<g id="Node000003" class="node">
<title>Node3</title>
<g id="a_Node000003"><a xlink:href="kest__sequence__view_8c.html#ac871b24a7c875a7b6e707a3d2691a2a9" target="_top" xlink:title=" ">
<polygon fill="white" stroke="#666666" points="471.75,-58.75 329.75,-58.75 329.75,-38 471.75,-38 471.75,-58.75"/>
<text xml:space="preserve" text-anchor="middle" x="400.75" y="-45.25" font-family="Helvetica,sans-Serif" font-size="10.00">configure_sequence_view</text>
</a>
</g>
</g>
<!-- Node2&#45;&gt;Node3 -->
<g id="edge2_Node000002_Node000003" class="edge">
<title>Node2&#45;&gt;Node3</title>
<g id="a_edge2_Node000002_Node000003"><a xlink:title=" ">
<path fill="none" stroke="#63b8ff" d="M496.45,-37.38C488.4,-38.31 480.18,-39.27 472.11,-40.2"/>
<polygon fill="#63b8ff" stroke="#63b8ff" points="496.65,-40.88 506.18,-36.25 495.85,-33.93 496.65,-40.88"/>
</a>
</g>
</g>
<!-- Node18 -->
<g id="Node000018" class="node">
<title>Node18</title>
<g id="a_Node000018"><a xlink:href="kest__sequence__view_8c.html#aca115eba822b7486dc289cc9150562a7" target="_top" xlink:title=" ">
<polygon fill="#fff0f0" stroke="red" points="293.75,-20.75 181.75,-20.75 181.75,0 293.75,0 293.75,-20.75"/>
<text xml:space="preserve" text-anchor="middle" x="237.75" y="-7.25" font-family="Helvetica,sans-Serif" font-size="10.00">init_sequence_view</text>
</a>
</g>
</g>
<!-- Node2&#45;&gt;Node18 -->
<g id="edge6_Node000002_Node000018" class="edge">
<title>Node2&#45;&gt;Node18</title>
<g id="a_edge6_Node000002_Node000018"><a xlink:title=" ">
<path fill="none" stroke="#63b8ff" d="M496.05,-25.34C435.82,-21.84 349.74,-16.83 294.05,-13.59"/>
<polygon fill="#63b8ff" stroke="#63b8ff" points="495.66,-28.83 505.85,-25.91 496.07,-21.84 495.66,-28.83"/>
</a>
</g>
</g>
<!-- Node4 -->
<g id="Node000004" class="node">
<title>Node4</title>
<g id="a_Node000004"><a xlink:href="kest__sequence__view_8c.html#a6dd883651c2a7ff92c5ad28755953e91" target="_top" xlink:title=" ">
<polygon fill="#fff0f0" stroke="red" points="145.75,-39.75 0,-39.75 0,-19 145.75,-19 145.75,-39.75"/>
<text xml:space="preserve" text-anchor="middle" x="72.88" y="-26.25" font-family="Helvetica,sans-Serif" font-size="10.00">create_sequence_view_for</text>
</a>
</g>
</g>
<!-- Node3&#45;&gt;Node4 -->
<g id="edge3_Node000003_Node000004" class="edge">
<title>Node3&#45;&gt;Node4</title>
<g id="a_edge3_Node000003_Node000004"><a xlink:title=" ">
<path fill="none" stroke="#63b8ff" d="M318.06,-43.61C265.17,-40.53 196.92,-36.55 146.03,-33.58"/>
<polygon fill="#63b8ff" stroke="#63b8ff" points="317.74,-47.1 327.93,-44.19 318.15,-40.11 317.74,-47.1"/>
</a>
</g>
</g>
<!-- Node3&#45;&gt;Node18 -->
<g id="edge4_Node000003_Node000018" class="edge">
<title>Node3&#45;&gt;Node18</title>
<g id="a_edge4_Node000003_Node000018"><a xlink:title=" ">
<path fill="none" stroke="#63b8ff" d="M343.04,-34.99C323.89,-30.47 302.77,-25.48 284.57,-21.19"/>
<polygon fill="#63b8ff" stroke="#63b8ff" points="342.03,-38.35 352.57,-37.24 343.64,-31.54 342.03,-38.35"/>
</a>
</g>
</g>
<!-- Node18&#45;&gt;Node4 -->
<g id="edge5_Node000018_Node000004" class="edge">
<title>Node18&#45;&gt;Node4</title>
<g id="a_edge5_Node000018_Node000004"><a xlink:title=" ">
<path fill="none" stroke="#63b8ff" d="M170.41,-18.11C162.36,-19.05 154.12,-20.01 146,-20.96"/>
<polygon fill="#63b8ff" stroke="#63b8ff" points="170.58,-21.62 180.1,-16.98 169.77,-14.67 170.58,-21.62"/>
</a>
</g>
</g>
</g>
</svg>
