<?xml version="1.0" encoding="UTF-8" standalone="no"?>
<!DOCTYPE svg PUBLIC "-//W3C//DTD SVG 1.1//EN"
 "http://www.w3.org/Graphics/SVG/1.1/DTD/svg11.dtd">
<!-- Generated by graphviz version 13.1.2 (20250808.2320)
 -->
<!-- Title: create_panel_with_back_button Pages: 1 -->
<svg width="593pt" height="158pt"
 viewBox="0.00 0.00 593.00 158.00" xmlns="http://www.w3.org/2000/svg" xmlns:xlink="http://www.w3.org/1999/xlink">
<g id="graph0" class="graph" transform="scale(1 1) rotate(0) translate(4 154.12)">
<title>create_panel_with_back_button</title>
<!-- Node1 -->
<g id="Node000001" class="node">
<title>Node1</title>
<g id="a_Node000001"><a xlink:title=" ">
<polygon fill="#999999" stroke="#666666" points="584.5,-85.5 450.75,-85.5 450.75,-52 584.5,-52 584.5,-85.5"/>
<text xml:space="preserve" text-anchor="start" x="458.75" y="-72" font-family="Helvetica,sans-Serif" font-size="10.00">create_panel_with_back</text>
<text xml:space="preserve" text-anchor="middle" x="517.62" y="-59.25" font-family="Helvetica,sans-Serif" font-size="10.00">_button</text>
</a>
</g>
</g>
<!-- Node2 -->
<g id="Node000002" class="node">
<title>Node2</title>
<g id="a_Node000002"><a xlink:href="kest__effect__select_8c.html#af5e1f2ec64c8c42ed66a3bc39c7411eb" target="_top" xlink:title=" ">
<polygon fill="white" stroke="#666666" points="406.12,-137.5 281.38,-137.5 281.38,-104 406.12,-104 406.12,-137.5"/>
<text xml:space="preserve" text-anchor="start" x="289.38" y="-124" font-family="Helvetica,sans-Serif" font-size="10.00">create_effect_selector</text>
<text xml:space="preserve" text-anchor="middle" x="343.75" y="-111.25" font-family="Helvetica,sans-Serif" font-size="10.00">_ui_eff</text>
</a>
</g>
</g>
<!-- Node1&#45;&gt;Node2 -->
<g id="edge1_Node000001_Node000002" class="edge">
<title>Node1&#45;&gt;Node2</title>
<g id="a_edge1_Node000001_Node000002"><a xlink:title=" ">
<path fill="none" stroke="#63b8ff" d="M449.17,-89.16C433.48,-93.9 416.93,-98.91 401.74,-103.51"/>
<polygon fill="#63b8ff" stroke="#63b8ff" points="449.86,-92.61 458.42,-86.36 447.84,-85.91 449.86,-92.61"/>
</a>
</g>
</g>
<!-- Node7 -->
<g id="Node000007" class="node">
<title>Node7</title>
<g id="a_Node000007"><a xlink:href="kest__ui_8c.html#a91cbeba99527e75576d1690162018ef5" target="_top" xlink:title=" ">
<polygon fill="white" stroke="#666666" points="414.75,-85.5 272.75,-85.5 272.75,-52 414.75,-52 414.75,-85.5"/>
<text xml:space="preserve" text-anchor="start" x="280.75" y="-72" font-family="Helvetica,sans-Serif" font-size="10.00">create_panel_with_back</text>
<text xml:space="preserve" text-anchor="middle" x="343.75" y="-59.25" font-family="Helvetica,sans-Serif" font-size="10.00">_button_and_page_button</text>
</a>
</g>
</g>
<!-- Node1&#45;&gt;Node7 -->
<g id="edge5_Node000001_Node000007" class="edge">
<title>Node1&#45;&gt;Node7</title>
<g id="a_edge5_Node000001_Node000007"><a xlink:title=" ">
<path fill="none" stroke="#63b8ff" d="M439.35,-68.75C431.27,-68.75 423.09,-68.75 415.1,-68.75"/>
<polygon fill="#63b8ff" stroke="#63b8ff" points="439.15,-72.25 449.15,-68.75 439.15,-65.25 439.15,-72.25"/>
</a>
</g>
</g>
<!-- Node9 -->
<g id="Node000009" class="node">
<title>Node9</title>
<g id="a_Node000009"><a xlink:href="kest__ui_8c.html#a62156348a1dfc799541fc93d3dd20b6e" target="_top" xlink:title=" ">
<polygon fill="white" stroke="#666666" points="410.25,-33.5 277.25,-33.5 277.25,0 410.25,0 410.25,-33.5"/>
<text xml:space="preserve" text-anchor="start" x="285.25" y="-20" font-family="Helvetica,sans-Serif" font-size="10.00">create_panel_with_right</text>
<text xml:space="preserve" text-anchor="middle" x="343.75" y="-7.25" font-family="Helvetica,sans-Serif" font-size="10.00">_button</text>
</a>
</g>
</g>
<!-- Node1&#45;&gt;Node9 -->
<g id="edge7_Node000001_Node000009" class="edge">
<title>Node1&#45;&gt;Node9</title>
<g id="a_edge7_Node000001_Node000009"><a xlink:title=" ">
<path fill="none" stroke="#63b8ff" d="M449.17,-48.34C433.48,-43.6 416.93,-38.59 401.74,-33.99"/>
<polygon fill="#63b8ff" stroke="#63b8ff" points="447.84,-51.59 458.42,-51.14 449.86,-44.89 447.84,-51.59"/>
</a>
</g>
</g>
<!-- Node3 -->
<g id="Node000003" class="node">
<title>Node3</title>
<g id="a_Node000003"><a xlink:href="kest__effect__select_8c.html#a4f784340d1e1e332c60be5a095244ba1" target="_top" xlink:title=" ">
<polygon fill="white" stroke="#666666" points="234.12,-131.12 105.62,-131.12 105.62,-110.38 234.12,-110.38 234.12,-131.12"/>
<text xml:space="preserve" text-anchor="middle" x="169.88" y="-117.62" font-family="Helvetica,sans-Serif" font-size="10.00">init_effect_selector_eff</text>
</a>
</g>
</g>
<!-- Node2&#45;&gt;Node3 -->
<g id="edge2_Node000002_Node000003" class="edge">
<title>Node2&#45;&gt;Node3</title>
<g id="a_edge2_Node000002_Node000003"><a xlink:title=" ">
<path fill="none" stroke="#63b8ff" d="M270.03,-120.75C258.26,-120.75 246.15,-120.75 234.62,-120.75"/>
<polygon fill="#63b8ff" stroke="#63b8ff" points="269.67,-124.25 279.67,-120.75 269.67,-117.25 269.67,-124.25"/>
</a>
</g>
</g>
<!-- Node4 -->
<g id="Node000004" class="node">
<title>Node4</title>
<g id="a_Node000004"><a xlink:href="kest__int_8c.html#abce06be17fc37d675118a678a8100a36" target="_top" xlink:title=" ">
<polygon fill="white" stroke="#666666" points="65.5,-150.12 1.5,-150.12 1.5,-129.38 65.5,-129.38 65.5,-150.12"/>
<text xml:space="preserve" text-anchor="middle" x="33.5" y="-136.62" font-family="Helvetica,sans-Serif" font-size="10.00">app_main</text>
</a>
</g>
</g>
<!-- Node3&#45;&gt;Node4 -->
<g id="edge3_Node000003_Node000004" class="edge">
<title>Node3&#45;&gt;Node4</title>
<g id="a_edge3_Node000003_Node000004"><a xlink:title=" ">
<path fill="none" stroke="#63b8ff" d="M93.99,-131.34C84.08,-132.74 74.4,-134.11 65.82,-135.32"/>
<polygon fill="#63b8ff" stroke="#63b8ff" points="94.32,-134.83 103.73,-129.96 93.34,-127.9 94.32,-134.83"/>
</a>
</g>
</g>
<!-- Node5 -->
<g id="Node000005" class="node">
<title>Node5</title>
<g id="a_Node000005"><a xlink:href="kest__desktop_8c.html#ab499a4f71ef4cfc807b60d8739750c3e" target="_top" xlink:title=" ">
<polygon fill="#fff0f0" stroke="red" points="67,-111.12 0,-111.12 0,-90.38 67,-90.38 67,-111.12"/>
<text xml:space="preserve" text-anchor="middle" x="33.5" y="-97.62" font-family="Helvetica,sans-Serif" font-size="10.00">main_task</text>
</a>
</g>
</g>
<!-- Node3&#45;&gt;Node5 -->
<g id="edge4_Node000003_Node000005" class="edge">
<title>Node3&#45;&gt;Node5</title>
<g id="a_edge4_Node000003_Node000005"><a xlink:title=" ">
<path fill="none" stroke="#63b8ff" d="M94.13,-109.62C84.71,-108.22 75.49,-106.85 67.23,-105.62"/>
<polygon fill="#63b8ff" stroke="#63b8ff" points="93.33,-113.04 103.73,-111.05 94.36,-106.12 93.33,-113.04"/>
</a>
</g>
</g>
<!-- Node8 -->
<g id="Node000008" class="node">
<title>Node8</title>
<g id="a_Node000008"><a xlink:href="kest__ui_8c.html#a56d00dcd05509dc9999a3c25122f4851" target="_top" xlink:title=" ">
<polygon fill="white" stroke="#666666" points="236.75,-85.5 103,-85.5 103,-52 236.75,-52 236.75,-85.5"/>
<text xml:space="preserve" text-anchor="start" x="111" y="-72" font-family="Helvetica,sans-Serif" font-size="10.00">create_panel_with_back</text>
<text xml:space="preserve" text-anchor="middle" x="169.88" y="-59.25" font-family="Helvetica,sans-Serif" font-size="10.00">_and_settings_buttons</text>
</a>
</g>
</g>
<!-- Node7&#45;&gt;Node8 -->
<g id="edge6_Node000007_Node000008" class="edge">
<title>Node7&#45;&gt;Node8</title>
<g id="a_edge6_Node000007_Node000008"><a xlink:title=" ">
<path fill="none" stroke="#63b8ff" d="M261.03,-68.75C252.98,-68.75 244.88,-68.75 237.02,-68.75"/>
<polygon fill="#63b8ff" stroke="#63b8ff" points="260.83,-72.25 270.83,-68.75 260.83,-65.25 260.83,-72.25"/>
</a>
</g>
</g>
</g>
</svg>
