<?xml version="1.0" encoding="UTF-8" standalone="no"?>
<!DOCTYPE svg PUBLIC "-//W3C//DTD SVG 1.1//EN"
 "http://www.w3.org/Graphics/SVG/1.1/DTD/svg11.dtd">
<!-- Generated by graphviz version 13.1.2 (20250808.2320)
 -->
<!-- Title: token_is_char Pages: 1 -->
<svg width="546pt" height="68pt"
 viewBox="0.00 0.00 546.00 68.00" xmlns="http://www.w3.org/2000/svg" xmlns:xlink="http://www.w3.org/1999/xlink">
<g id="graph0" class="graph" transform="scale(1 1) rotate(0) translate(4 63.75)">
<title>token_is_char</title>
<!-- Node1 -->
<g id="Node000001" class="node">
<title>Node1</title>
<g id="a_Node000001"><a xlink:title=" ">
<polygon fill="#999999" stroke="#666666" points="538,-39.75 455.25,-39.75 455.25,-19 538,-19 538,-39.75"/>
<text xml:space="preserve" text-anchor="middle" x="496.62" y="-26.25" font-family="Helvetica,sans-Serif" font-size="10.00">token_is_char</text>
</a>
</g>
</g>
<!-- Node2 -->
<g id="Node000002" class="node">
<title>Node2</title>
<g id="a_Node000002"><a xlink:href="kest__eff__section_8c.html#afb268a3dbcedc0c867e0e57a01e9a01d" target="_top" xlink:title=" ">
<polygon fill="white" stroke="#666666" points="419.25,-59.75 287.75,-59.75 287.75,-39 419.25,-39 419.25,-59.75"/>
<text xml:space="preserve" text-anchor="middle" x="353.5" y="-46.25" font-family="Helvetica,sans-Serif" font-size="10.00">get_section_start_score</text>
</a>
</g>
</g>
<!-- Node1&#45;&gt;Node2 -->
<g id="edge1_Node000001_Node000002" class="edge">
<title>Node1&#45;&gt;Node2</title>
<g id="a_edge1_Node000001_Node000002"><a xlink:title=" ">
<path fill="none" stroke="#63b8ff" d="M443.66,-36.74C435.85,-37.85 427.72,-39 419.69,-40.14"/>
<polygon fill="#63b8ff" stroke="#63b8ff" points="443.9,-40.24 453.31,-35.37 442.92,-33.31 443.9,-40.24"/>
</a>
</g>
</g>
<!-- Node9 -->
<g id="Node000009" class="node">
<title>Node9</title>
<g id="a_Node000009"><a xlink:href="kest__tokenizer_8c.html#a2540b7c9295c3812bbd02fab9679e098" target="_top" xlink:title=" ">
<polygon fill="white" stroke="#666666" points="403.5,-20.75 303.5,-20.75 303.5,0 403.5,0 403.5,-20.75"/>
<text xml:space="preserve" text-anchor="middle" x="353.5" y="-7.25" font-family="Helvetica,sans-Serif" font-size="10.00">token_is_newline</text>
</a>
</g>
</g>
<!-- Node1&#45;&gt;Node9 -->
<g id="edge4_Node000001_Node000009" class="edge">
<title>Node1&#45;&gt;Node9</title>
<g id="a_edge4_Node000001_Node000009"><a xlink:title=" ">
<path fill="none" stroke="#63b8ff" d="M443.69,-22.38C430.71,-20.64 416.84,-18.77 403.98,-17.04"/>
<polygon fill="#63b8ff" stroke="#63b8ff" points="442.93,-25.81 453.31,-23.68 443.86,-18.87 442.93,-25.81"/>
</a>
</g>
</g>
<!-- Node3 -->
<g id="Node000003" class="node">
<title>Node3</title>
<g id="a_Node000003"><a xlink:href="kest__eff__parser_8c.html#a73ef6962d1925857ec3e4b12d1aad834" target="_top" xlink:title=" ">
<polygon fill="white" stroke="#666666" points="251.75,-39.75 145.75,-39.75 145.75,-19 251.75,-19 251.75,-39.75"/>
<text xml:space="preserve" text-anchor="middle" x="198.75" y="-26.25" font-family="Helvetica,sans-Serif" font-size="10.00">kest_parse_tokens</text>
</a>
</g>
</g>
<!-- Node2&#45;&gt;Node3 -->
<g id="edge2_Node000002_Node000003" class="edge">
<title>Node2&#45;&gt;Node3</title>
<g id="a_edge2_Node000002_Node000003"><a xlink:title=" ">
<path fill="none" stroke="#63b8ff" d="M276.11,-39.37C267.89,-38.3 259.67,-37.22 251.84,-36.19"/>
<polygon fill="#63b8ff" stroke="#63b8ff" points="275.41,-42.81 285.78,-40.64 276.32,-35.87 275.41,-42.81"/>
</a>
</g>
</g>
<!-- Node4 -->
<g id="Node000004" class="node">
<title>Node4</title>
<g id="a_Node000004"><a xlink:href="kest__eff__parser_8c.html#ae4618958c44389928c260fdb0e170761" target="_top" xlink:title=" ">
<polygon fill="#fff0f0" stroke="red" points="109.75,-46.12 0,-46.12 0,-12.62 109.75,-12.62 109.75,-46.12"/>
<text xml:space="preserve" text-anchor="start" x="8" y="-32.62" font-family="Helvetica,sans-Serif" font-size="10.00">kest_read_eff_desc</text>
<text xml:space="preserve" text-anchor="middle" x="54.88" y="-19.88" font-family="Helvetica,sans-Serif" font-size="10.00">_from_file</text>
</a>
</g>
</g>
<!-- Node3&#45;&gt;Node4 -->
<g id="edge3_Node000003_Node000004" class="edge">
<title>Node3&#45;&gt;Node4</title>
<g id="a_edge3_Node000003_Node000004"><a xlink:title=" ">
<path fill="none" stroke="#63b8ff" d="M134.08,-29.38C126.03,-29.38 117.86,-29.38 109.98,-29.38"/>
<polygon fill="#63b8ff" stroke="#63b8ff" points="133.81,-32.88 143.81,-29.38 133.81,-25.88 133.81,-32.88"/>
</a>
</g>
</g>
<!-- Node9&#45;&gt;Node3 -->
<g id="edge5_Node000009_Node000003" class="edge">
<title>Node9&#45;&gt;Node3</title>
<g id="a_edge5_Node000009_Node000003"><a xlink:title=" ">
<path fill="none" stroke="#63b8ff" d="M291.93,-17.91C278.72,-19.55 264.85,-21.28 251.99,-22.88"/>
<polygon fill="#63b8ff" stroke="#63b8ff" points="292.33,-21.39 301.83,-16.68 291.47,-14.44 292.33,-21.39"/>
</a>
</g>
</g>
</g>
</svg>
