<?xml version="1.0" encoding="UTF-8" standalone="no"?>
<!DOCTYPE svg PUBLIC "-//W3C//DTD SVG 1.1//EN"
 "http://www.w3.org/Graphics/SVG/1.1/DTD/svg11.dtd">
<!-- Generated by graphviz version 13.1.2 (20250808.2320)
 -->
<!-- Title: configure_parameter_widget Pages: 1 -->
<svg width="833pt" height="157pt"
 viewBox="0.00 0.00 833.00 157.00" xmlns="http://www.w3.org/2000/svg" xmlns:xlink="http://www.w3.org/1999/xlink">
<g id="graph0" class="graph" transform="scale(1 1) rotate(0) translate(4 153.12)">
<title>configure_parameter_widget</title>
<!-- Node1 -->
<g id="Node000001" class="node">
<title>Node1</title>
<g id="a_Node000001"><a xlink:title=" ">
<polygon fill="#999999" stroke="#666666" points="824.75,-97.5 706.75,-97.5 706.75,-64 824.75,-64 824.75,-97.5"/>
<text xml:space="preserve" text-anchor="start" x="714.75" y="-84" font-family="Helvetica,sans-Serif" font-size="10.00">configure_parameter</text>
<text xml:space="preserve" text-anchor="middle" x="765.75" y="-71.25" font-family="Helvetica,sans-Serif" font-size="10.00">_widget</text>
</a>
</g>
</g>
<!-- Node2 -->
<g id="Node000002" class="node">
<title>Node2</title>
<g id="a_Node000002"><a xlink:href="kest__effect__settings_8c.html#ab738a7e4abecdaf8e9e7788ace97d8b5" target="_top" xlink:title=" ">
<polygon fill="white" stroke="#666666" points="670.75,-111.12 501.75,-111.12 501.75,-90.38 670.75,-90.38 670.75,-111.12"/>
<text xml:space="preserve" text-anchor="middle" x="586.25" y="-97.62" font-family="Helvetica,sans-Serif" font-size="10.00">configure_effect_settings_page</text>
</a>
</g>
</g>
<!-- Node1&#45;&gt;Node2 -->
<g id="edge1_Node000001_Node000002" class="edge">
<title>Node1&#45;&gt;Node2</title>
<g id="a_edge1_Node000001_Node000002"><a xlink:title=" ">
<path fill="none" stroke="#63b8ff" d="M695.44,-88.56C687.4,-89.47 679.14,-90.4 670.94,-91.32"/>
<polygon fill="#63b8ff" stroke="#63b8ff" points="695.58,-92.07 705.13,-87.47 694.8,-85.11 695.58,-92.07"/>
</a>
</g>
</g>
<!-- Node3 -->
<g id="Node000003" class="node">
<title>Node3</title>
<g id="a_Node000003"><a xlink:href="kest__effect__view_8c.html#ae392eef44a5a025bad43a7a8969ab5b0" target="_top" xlink:title=" ">
<polygon fill="white" stroke="#666666" points="458.25,-149.12 334.25,-149.12 334.25,-128.38 458.25,-128.38 458.25,-149.12"/>
<text xml:space="preserve" text-anchor="middle" x="396.25" y="-135.62" font-family="Helvetica,sans-Serif" font-size="10.00">configure_effect_view</text>
</a>
</g>
</g>
<!-- Node1&#45;&gt;Node3 -->
<g id="edge8_Node000001_Node000003" class="edge">
<title>Node1&#45;&gt;Node3</title>
<g id="a_edge8_Node000001_Node000003"><a xlink:title=" ">
<path fill="none" stroke="#63b8ff" d="M720.55,-102.55C705.15,-109.2 687.52,-115.8 670.75,-119.75 599.29,-136.58 514.65,-140.03 458.65,-140.11"/>
<polygon fill="#63b8ff" stroke="#63b8ff" points="721.74,-105.85 729.44,-98.58 718.88,-99.46 721.74,-105.85"/>
</a>
</g>
</g>
<!-- Node7 -->
<g id="Node000007" class="node">
<title>Node7</title>
<g id="a_Node000007"><a xlink:href="kest__menu_8c.html#a86c6c0acd2dfb8a62bd96bbfd739e687" target="_top" xlink:title=" ">
<polygon fill="white" stroke="#666666" points="648.62,-72.12 523.88,-72.12 523.88,-51.38 648.62,-51.38 648.62,-72.12"/>
<text xml:space="preserve" text-anchor="middle" x="586.25" y="-58.62" font-family="Helvetica,sans-Serif" font-size="10.00">configure_main_menu</text>
</a>
</g>
</g>
<!-- Node1&#45;&gt;Node7 -->
<g id="edge9_Node000001_Node000007" class="edge">
<title>Node1&#45;&gt;Node7</title>
<g id="a_edge9_Node000001_Node000007"><a xlink:title=" ">
<path fill="none" stroke="#63b8ff" d="M695.59,-73.35C680.18,-71.7 663.94,-69.96 648.86,-68.34"/>
<polygon fill="#63b8ff" stroke="#63b8ff" points="694.81,-76.78 705.12,-74.37 695.55,-69.82 694.81,-76.78"/>
</a>
</g>
</g>
<!-- Node13 -->
<g id="Node000013" class="node">
<title>Node13</title>
<g id="a_Node000013"><a xlink:href="kest__menu_8c.html#a022467860beb31712a6580996ac1527e" target="_top" xlink:title=" ">
<polygon fill="white" stroke="#666666" points="656.88,-33.5 515.62,-33.5 515.62,0 656.88,0 656.88,-33.5"/>
<text xml:space="preserve" text-anchor="start" x="523.62" y="-20" font-family="Helvetica,sans-Serif" font-size="10.00">create_parameter_widget</text>
<text xml:space="preserve" text-anchor="middle" x="586.25" y="-7.25" font-family="Helvetica,sans-Serif" font-size="10.00">_menu_item</text>
</a>
</g>
</g>
<!-- Node1&#45;&gt;Node13 -->
<g id="edge12_Node000001_Node000013" class="edge">
<title>Node1&#45;&gt;Node13</title>
<g id="a_edge12_Node000001_Node000013"><a xlink:title=" ">
<path fill="none" stroke="#63b8ff" d="M713.95,-59.32C700.03,-53.7 684.88,-47.8 670.75,-42.75 662.31,-39.74 653.33,-36.73 644.5,-33.89"/>
<polygon fill="#63b8ff" stroke="#63b8ff" points="712.33,-62.44 722.91,-62.98 714.98,-55.96 712.33,-62.44"/>
</a>
</g>
</g>
<!-- Node2&#45;&gt;Node3 -->
<g id="edge2_Node000002_Node000003" class="edge">
<title>Node2&#45;&gt;Node3</title>
<g id="a_edge2_Node000002_Node000003"><a xlink:title=" ">
<path fill="none" stroke="#63b8ff" d="M520.39,-113.86C497.74,-118.44 472.58,-123.52 450.94,-127.9"/>
<polygon fill="#63b8ff" stroke="#63b8ff" points="521.04,-117.3 530.14,-111.89 519.65,-110.44 521.04,-117.3"/>
</a>
</g>
</g>
<!-- Node6 -->
<g id="Node000006" class="node">
<title>Node6</title>
<g id="a_Node000006"><a xlink:href="kest__effect__settings_8c.html#ab8bf2accabc08beecb97a54915abc488" target="_top" xlink:title=" ">
<polygon fill="white" stroke="#666666" points="465.75,-110.12 326.75,-110.12 326.75,-89.38 465.75,-89.38 465.75,-110.12"/>
<text xml:space="preserve" text-anchor="middle" x="396.25" y="-96.62" font-family="Helvetica,sans-Serif" font-size="10.00">init_effect_settings_page</text>
</a>
</g>
</g>
<!-- Node2&#45;&gt;Node6 -->
<g id="edge6_Node000002_Node000006" class="edge">
<title>Node2&#45;&gt;Node6</title>
<g id="a_edge6_Node000002_Node000006"><a xlink:title=" ">
<path fill="none" stroke="#63b8ff" d="M489.99,-100.24C481.9,-100.2 473.82,-100.16 465.99,-100.12"/>
<polygon fill="#63b8ff" stroke="#63b8ff" points="489.89,-103.74 499.91,-100.3 489.93,-96.74 489.89,-103.74"/>
</a>
</g>
</g>
<!-- Node4 -->
<g id="Node000004" class="node">
<title>Node4</title>
<g id="a_Node000004"><a xlink:href="kest__effect__view_8c.html#abb65b28dc293fd68d3b384f48210130e" target="_top" xlink:title=" ">
<polygon fill="white" stroke="#666666" points="127.75,-130.12 0,-130.12 0,-109.38 127.75,-109.38 127.75,-130.12"/>
<text xml:space="preserve" text-anchor="middle" x="63.88" y="-116.62" font-family="Helvetica,sans-Serif" font-size="10.00">create_effect_view_for</text>
</a>
</g>
</g>
<!-- Node3&#45;&gt;Node4 -->
<g id="edge3_Node000003_Node000004" class="edge">
<title>Node3&#45;&gt;Node4</title>
<g id="a_edge3_Node000003_Node000004"><a xlink:title=" ">
<path fill="none" stroke="#63b8ff" d="M322.57,-134.57C264.41,-131.23 183.69,-126.58 128.16,-123.39"/>
<polygon fill="#63b8ff" stroke="#63b8ff" points="322.19,-138.05 332.37,-135.13 322.59,-131.07 322.19,-138.05"/>
</a>
</g>
</g>
<!-- Node5 -->
<g id="Node000005" class="node">
<title>Node5</title>
<g id="a_Node000005"><a xlink:href="kest__effect__view_8c.html#a7b9803e86d71b10b167f0babf088fe08" target="_top" xlink:title=" ">
<polygon fill="white" stroke="#666666" points="274.25,-111.12 180.25,-111.12 180.25,-90.38 274.25,-90.38 274.25,-111.12"/>
<text xml:space="preserve" text-anchor="middle" x="227.25" y="-97.62" font-family="Helvetica,sans-Serif" font-size="10.00">init_effect_view</text>
</a>
</g>
</g>
<!-- Node3&#45;&gt;Node5 -->
<g id="edge4_Node000003_Node000005" class="edge">
<title>Node3&#45;&gt;Node5</title>
<g id="a_edge4_Node000003_Node000005"><a xlink:title=" ">
<path fill="none" stroke="#63b8ff" d="M336.79,-125.45C316.42,-120.81 293.87,-115.68 274.62,-111.3"/>
<polygon fill="#63b8ff" stroke="#63b8ff" points="335.84,-128.82 346.37,-127.63 337.39,-121.99 335.84,-128.82"/>
</a>
</g>
</g>
<!-- Node5&#45;&gt;Node4 -->
<g id="edge5_Node000005_Node000004" class="edge">
<title>Node5&#45;&gt;Node4</title>
<g id="a_edge5_Node000005_Node000004"><a xlink:title=" ">
<path fill="none" stroke="#63b8ff" d="M168.68,-107.53C155.48,-109.08 141.38,-110.74 127.97,-112.32"/>
<polygon fill="#63b8ff" stroke="#63b8ff" points="168.98,-111.02 178.5,-106.37 168.16,-104.07 168.98,-111.02"/>
</a>
</g>
</g>
<!-- Node6&#45;&gt;Node5 -->
<g id="edge7_Node000006_Node000005" class="edge">
<title>Node6&#45;&gt;Node5</title>
<g id="a_edge7_Node000006_Node000005"><a xlink:title=" ">
<path fill="none" stroke="#63b8ff" d="M315.24,-100.23C301.31,-100.31 287.24,-100.4 274.61,-100.47"/>
<polygon fill="#63b8ff" stroke="#63b8ff" points="314.87,-103.73 324.85,-100.17 314.83,-96.73 314.87,-103.73"/>
</a>
</g>
</g>
<!-- Node8 -->
<g id="Node000008" class="node">
<title>Node8</title>
<g id="a_Node000008"><a xlink:href="kest__menu_8c.html#a6aa16fb3d12f098f021ae677605e683e" target="_top" xlink:title=" ">
<polygon fill="white" stroke="#666666" points="443.62,-71.12 348.88,-71.12 348.88,-50.38 443.62,-50.38 443.62,-71.12"/>
<text xml:space="preserve" text-anchor="middle" x="396.25" y="-57.62" font-family="Helvetica,sans-Serif" font-size="10.00">init_main_menu</text>
</a>
</g>
</g>
<!-- Node7&#45;&gt;Node8 -->
<g id="edge10_Node000007_Node000008" class="edge">
<title>Node7&#45;&gt;Node8</title>
<g id="a_edge10_Node000007_Node000008"><a xlink:title=" ">
<path fill="none" stroke="#63b8ff" d="M512,-61.36C489.09,-61.24 464.45,-61.11 443.9,-61"/>
<polygon fill="#63b8ff" stroke="#63b8ff" points="511.9,-64.86 521.92,-61.41 511.94,-57.86 511.9,-64.86"/>
</a>
</g>
</g>
<!-- Node9 -->
<g id="Node000009" class="node">
<title>Node9</title>
<g id="a_Node000009"><a xlink:href="kest__ui_8c.html#ab1be7d2981c922ebe8d714f9af0f600d" target="_top" xlink:title=" ">
<polygon fill="#fff0f0" stroke="red" points="290.75,-71.12 163.75,-71.12 163.75,-50.38 290.75,-50.38 290.75,-71.12"/>
<text xml:space="preserve" text-anchor="middle" x="227.25" y="-57.62" font-family="Helvetica,sans-Serif" font-size="10.00">kest_init_global_pages</text>
</a>
</g>
</g>
<!-- Node8&#45;&gt;Node9 -->
<g id="edge11_Node000008_Node000009" class="edge">
<title>Node8&#45;&gt;Node9</title>
<g id="a_edge11_Node000008_Node000009"><a xlink:title=" ">
<path fill="none" stroke="#63b8ff" d="M337.54,-60.75C322.54,-60.75 306.31,-60.75 291.06,-60.75"/>
<polygon fill="#63b8ff" stroke="#63b8ff" points="337.22,-64.25 347.22,-60.75 337.22,-57.25 337.22,-64.25"/>
</a>
</g>
</g>
</g>
</svg>
