<?xml version="1.0" encoding="UTF-8" standalone="no"?>
<!DOCTYPE svg PUBLIC "-//W3C//DTD SVG 1.1//EN"
 "http://www.w3.org/Graphics/SVG/1.1/DTD/svg11.dtd">
<!-- Generated by graphviz version 13.1.2 (20250808.2320)
 -->
<!-- Title: digit_to_float Pages: 1 -->
<svg width="853pt" height="73pt"
 viewBox="0.00 0.00 853.00 73.00" xmlns="http://www.w3.org/2000/svg" xmlns:xlink="http://www.w3.org/1999/xlink">
<g id="graph0" class="graph" transform="scale(1 1) rotate(0) translate(4 69.25)">
<title>digit_to_float</title>
<!-- Node1 -->
<g id="Node000001" class="node">
<title>Node1</title>
<g id="a_Node000001"><a xlink:title=" ">
<polygon fill="#999999" stroke="#666666" points="845.25,-58.12 764.75,-58.12 764.75,-37.38 845.25,-37.38 845.25,-58.12"/>
<text xml:space="preserve" text-anchor="middle" x="805" y="-44.62" font-family="Helvetica,sans-Serif" font-size="10.00">digit_to_float</text>
</a>
</g>
</g>
<!-- Node2 -->
<g id="Node000002" class="node">
<title>Node2</title>
<g id="a_Node000002"><a xlink:href="kest__tokenizer_8c.html#a6ca78d248f8970c62c3a5cfc32ee0bb6" target="_top" xlink:title=" ">
<polygon fill="white" stroke="#666666" points="728.75,-58.12 643,-58.12 643,-37.38 728.75,-37.38 728.75,-58.12"/>
<text xml:space="preserve" text-anchor="middle" x="685.88" y="-44.62" font-family="Helvetica,sans-Serif" font-size="10.00">token_to_float</text>
</a>
</g>
</g>
<!-- Node1&#45;&gt;Node2 -->
<g id="edge1_Node000001_Node000002" class="edge">
<title>Node1&#45;&gt;Node2</title>
<g id="a_edge1_Node000001_Node000002"><a xlink:title=" ">
<path fill="none" stroke="#63b8ff" d="M752.83,-47.75C744.84,-47.75 736.65,-47.75 728.89,-47.75"/>
<polygon fill="#63b8ff" stroke="#63b8ff" points="752.83,-51.25 762.83,-47.75 752.83,-44.25 752.83,-51.25"/>
</a>
</g>
</g>
<!-- Node3 -->
<g id="Node000003" class="node">
<title>Node3</title>
<g id="a_Node000003"><a xlink:href="kest__asm__parser_8c.html#a93fe9789a6b0162607601862f5fa9c8c" target="_top" xlink:title=" ">
<polygon fill="white" stroke="#666666" points="281,-59.12 154,-59.12 154,-38.38 281,-38.38 281,-59.12"/>
<text xml:space="preserve" text-anchor="middle" x="217.5" y="-45.62" font-family="Helvetica,sans-Serif" font-size="10.00">kest_parse_asm_arg_2</text>
</a>
</g>
</g>
<!-- Node2&#45;&gt;Node3 -->
<g id="edge2_Node000002_Node000003" class="edge">
<title>Node2&#45;&gt;Node3</title>
<g id="a_edge2_Node000002_Node000003"><a xlink:title=" ">
<path fill="none" stroke="#63b8ff" d="M631.3,-57.89C623.19,-59.07 614.89,-60.1 607,-60.75 492.34,-70.25 358.08,-61.78 281.19,-55.05"/>
<polygon fill="#63b8ff" stroke="#63b8ff" points="631.77,-61.36 641.1,-56.35 630.68,-54.44 631.77,-61.36"/>
</a>
</g>
</g>
<!-- Node13 -->
<g id="Node000013" class="node">
<title>Node13</title>
<g id="a_Node000013"><a xlink:href="kest__expr__parser_8c.html#adf0188b23902aff2ddacb388e811412e" target="_top" xlink:title=" ">
<polygon fill="white" stroke="#666666" points="607,-33.5 480,-33.5 480,0 607,0 607,-33.5"/>
<text xml:space="preserve" text-anchor="start" x="488" y="-20" font-family="Helvetica,sans-Serif" font-size="10.00">kest_parse_expression</text>
<text xml:space="preserve" text-anchor="middle" x="543.5" y="-7.25" font-family="Helvetica,sans-Serif" font-size="10.00">_rec_pratt</text>
</a>
</g>
</g>
<!-- Node2&#45;&gt;Node13 -->
<g id="edge4_Node000002_Node000013" class="edge">
<title>Node2&#45;&gt;Node13</title>
<g id="a_edge4_Node000002_Node000013"><a xlink:title=" ">
<path fill="none" stroke="#63b8ff" d="M631.75,-36.02C623.78,-34.26 615.5,-32.43 607.35,-30.63"/>
<polygon fill="#63b8ff" stroke="#63b8ff" points="630.76,-39.38 641.28,-38.12 632.27,-32.55 630.76,-39.38"/>
</a>
</g>
</g>
<!-- Node4 -->
<g id="Node000004" class="node">
<title>Node4</title>
<g id="a_Node000004"><a xlink:href="kest__asm__parser_8c.html#a8a0d633256a85b35706b7a9ef1add7f0" target="_top" xlink:title=" ">
<polygon fill="#fff0f0" stroke="red" points="118,-59.12 0,-59.12 0,-38.38 118,-38.38 118,-59.12"/>
<text xml:space="preserve" text-anchor="middle" x="59" y="-45.62" font-family="Helvetica,sans-Serif" font-size="10.00">kest_parse_asm_line</text>
</a>
</g>
</g>
<!-- Node3&#45;&gt;Node4 -->
<g id="edge3_Node000003_Node000004" class="edge">
<title>Node3&#45;&gt;Node4</title>
<g id="a_edge3_Node000003_Node000004"><a xlink:title=" ">
<path fill="none" stroke="#63b8ff" d="M142.44,-48.75C134.39,-48.75 126.28,-48.75 118.45,-48.75"/>
<polygon fill="#63b8ff" stroke="#63b8ff" points="142.23,-52.25 152.23,-48.75 142.23,-45.25 142.23,-52.25"/>
</a>
</g>
</g>
<!-- Node13&#45;&gt;Node13 -->
<g id="edge7_Node000013_Node000013" class="edge">
<title>Node13&#45;&gt;Node13</title>
<g id="a_edge7_Node000013_Node000013"><a xlink:title=" ">
<path fill="none" stroke="#63b8ff" d="M567.07,-45.22C563.07,-48.99 555.21,-51.5 543.5,-51.5 522.09,-51.5 513.56,-43.12 517.91,-33.91"/>
<polygon fill="#63b8ff" stroke="#63b8ff" points="570.51,-45.86 568.83,-35.4 563.62,-44.63 570.51,-45.86"/>
</a>
</g>
</g>
<!-- Node14 -->
<g id="Node000014" class="node">
<title>Node14</title>
<g id="a_Node000014"><a xlink:href="kest__expr__parser_8c.html#a7caaee6c8b0c14b3ff08fba98d837ead" target="_top" xlink:title=" ">
<polygon fill="#fff0f0" stroke="red" points="444,-40.12 317,-40.12 317,-19.38 444,-19.38 444,-40.12"/>
<text xml:space="preserve" text-anchor="middle" x="380.5" y="-26.62" font-family="Helvetica,sans-Serif" font-size="10.00">kest_parse_expression</text>
</a>
</g>
</g>
<!-- Node13&#45;&gt;Node14 -->
<g id="edge5_Node000013_Node000014" class="edge">
<title>Node13&#45;&gt;Node14</title>
<g id="a_edge5_Node000013_Node000014"><a xlink:title=" ">
<path fill="none" stroke="#63b8ff" d="M468.47,-22.73C460.39,-23.38 452.22,-24.04 444.3,-24.68"/>
<polygon fill="#63b8ff" stroke="#63b8ff" points="468.6,-26.23 478.28,-21.94 468.03,-19.25 468.6,-26.23"/>
</a>
</g>
</g>
<!-- Node14&#45;&gt;Node3 -->
<g id="edge6_Node000014_Node000003" class="edge">
<title>Node14&#45;&gt;Node3</title>
<g id="a_edge6_Node000014_Node000003"><a xlink:title=" ">
<path fill="none" stroke="#63b8ff" d="M305.47,-38.49C297.39,-39.44 289.22,-40.4 281.3,-41.34"/>
<polygon fill="#63b8ff" stroke="#63b8ff" points="305.77,-41.98 315.29,-37.33 304.95,-35.02 305.77,-41.98"/>
</a>
</g>
</g>
</g>
</svg>
