<?xml version="1.0" encoding="UTF-8" standalone="no"?>
<!DOCTYPE svg PUBLIC "-//W3C//DTD SVG 1.1//EN"
 "http://www.w3.org/Graphics/SVG/1.1/DTD/svg11.dtd">
<!-- Generated by graphviz version 13.1.2 (20250808.2320)
 -->
<!-- Title: sequence_append_profile_rp Pages: 1 -->
<svg width="783pt" height="48pt"
 viewBox="0.00 0.00 783.00 48.00" xmlns="http://www.w3.org/2000/svg" xmlns:xlink="http://www.w3.org/1999/xlink">
<g id="graph0" class="graph" transform="scale(1 1) rotate(0) translate(4 43.75)">
<title>sequence_append_profile_rp</title>
<!-- Node1 -->
<g id="Node000001" class="node">
<title>Node1</title>
<g id="a_Node000001"><a xlink:title=" ">
<polygon fill="#999999" stroke="#666666" points="774.5,-39.75 619,-39.75 619,-19 774.5,-19 774.5,-39.75"/>
<text xml:space="preserve" text-anchor="middle" x="696.75" y="-26.25" font-family="Helvetica,sans-Serif" font-size="10.00">sequence_append_profile_rp</text>
</a>
</g>
</g>
<!-- Node2 -->
<g id="Node000002" class="node">
<title>Node2</title>
<g id="a_Node000002"><a xlink:href="kest__sequence__view_8c.html#a83d1a352af6a3932ce4d08e01f7d8d8a" target="_top" xlink:title=" ">
<polygon fill="white" stroke="#666666" points="583,-39.75 507.75,-39.75 507.75,-19 583,-19 583,-39.75"/>
<text xml:space="preserve" text-anchor="middle" x="545.38" y="-26.25" font-family="Helvetica,sans-Serif" font-size="10.00">seq_plus_cb</text>
</a>
</g>
</g>
<!-- Node1&#45;&gt;Node2 -->
<g id="edge1_Node000001_Node000002" class="edge">
<title>Node1&#45;&gt;Node2</title>
<g id="a_edge1_Node000001_Node000002"><a xlink:title=" ">
<path fill="none" stroke="#63b8ff" d="M607.57,-29.38C599.04,-29.38 590.76,-29.38 583.18,-29.38"/>
<polygon fill="#63b8ff" stroke="#63b8ff" points="607.36,-32.88 617.36,-29.38 607.36,-25.88 607.36,-32.88"/>
</a>
</g>
</g>
<!-- Node3 -->
<g id="Node000003" class="node">
<title>Node3</title>
<g id="a_Node000003"><a xlink:href="kest__sequence__view_8c.html#ac871b24a7c875a7b6e707a3d2691a2a9" target="_top" xlink:title=" ">
<polygon fill="white" stroke="#666666" points="471.75,-39.75 329.75,-39.75 329.75,-19 471.75,-19 471.75,-39.75"/>
<text xml:space="preserve" text-anchor="middle" x="400.75" y="-26.25" font-family="Helvetica,sans-Serif" font-size="10.00">configure_sequence_view</text>
</a>
</g>
</g>
<!-- Node2&#45;&gt;Node3 -->
<g id="edge2_Node000002_Node000003" class="edge">
<title>Node2&#45;&gt;Node3</title>
<g id="a_edge2_Node000002_Node000003"><a xlink:title=" ">
<path fill="none" stroke="#63b8ff" d="M495.97,-29.38C488.28,-29.38 480.19,-29.38 472.12,-29.38"/>
<polygon fill="#63b8ff" stroke="#63b8ff" points="495.76,-32.88 505.76,-29.38 495.76,-25.88 495.76,-32.88"/>
</a>
</g>
</g>
<!-- Node4 -->
<g id="Node000004" class="node">
<title>Node4</title>
<g id="a_Node000004"><a xlink:href="kest__sequence__view_8c.html#a6dd883651c2a7ff92c5ad28755953e91" target="_top" xlink:title=" ">
<polygon fill="#fff0f0" stroke="red" points="145.75,-39.75 0,-39.75 0,-19 145.75,-19 145.75,-39.75"/>
<text xml:space="preserve" text-anchor="middle" x="72.88" y="-26.25" font-family="Helvetica,sans-Serif" font-size="10.00">create_sequence_view_for</text>
</a>
</g>
</g>
<!-- Node3&#45;&gt;Node4 -->
<g id="edge3_Node000003_Node000004" class="edge">
<title>Node3&#45;&gt;Node4</title>
<g id="a_edge3_Node000003_Node000004"><a xlink:title=" ">
<path fill="none" stroke="#63b8ff" d="M318.06,-29.38C265.17,-29.38 196.92,-29.38 146.03,-29.38"/>
<polygon fill="#63b8ff" stroke="#63b8ff" points="317.93,-32.88 327.93,-29.38 317.93,-25.88 317.93,-32.88"/>
</a>
</g>
</g>
<!-- Node18 -->
<g id="Node000018" class="node">
<title>Node18</title>
<g id="a_Node000018"><a xlink:href="kest__sequence__view_8c.html#aca115eba822b7486dc289cc9150562a7" target="_top" xlink:title=" ">
<polygon fill="#fff0f0" stroke="red" points="293.75,-20.75 181.75,-20.75 181.75,0 293.75,0 293.75,-20.75"/>
<text xml:space="preserve" text-anchor="middle" x="237.75" y="-7.25" font-family="Helvetica,sans-Serif" font-size="10.00">init_sequence_view</text>
</a>
</g>
</g>
<!-- Node3&#45;&gt;Node18 -->
<g id="edge4_Node000003_Node000018" class="edge">
<title>Node3&#45;&gt;Node18</title>
<g id="a_edge4_Node000003_Node000018"><a xlink:title=" ">
<path fill="none" stroke="#63b8ff" d="M318.42,-19.78C310.21,-18.81 302,-17.84 294.15,-16.91"/>
<polygon fill="#63b8ff" stroke="#63b8ff" points="317.76,-23.22 328.1,-20.92 318.58,-16.27 317.76,-23.22"/>
</a>
</g>
</g>
<!-- Node18&#45;&gt;Node4 -->
<g id="edge5_Node000018_Node000004" class="edge">
<title>Node18&#45;&gt;Node4</title>
<g id="a_edge5_Node000018_Node000004"><a xlink:title=" ">
<path fill="none" stroke="#63b8ff" d="M170.41,-18.11C162.36,-19.05 154.12,-20.01 146,-20.96"/>
<polygon fill="#63b8ff" stroke="#63b8ff" points="170.58,-21.62 180.1,-16.98 169.77,-14.67 170.58,-21.62"/>
</a>
</g>
</g>
</g>
</svg>
