<?xml version="1.0" encoding="UTF-8" standalone="no"?>
<!DOCTYPE svg PUBLIC "-//W3C//DTD SVG 1.1//EN"
 "http://www.w3.org/Graphics/SVG/1.1/DTD/svg11.dtd">
<!-- Generated by graphviz version 13.1.2 (20250808.2320)
 -->
<!-- Title: enter_ui_page_forwards Pages: 1 -->
<svg width="1019pt" height="508pt"
 viewBox="0.00 0.00 1019.00 508.00" xmlns="http://www.w3.org/2000/svg" xmlns:xlink="http://www.w3.org/1999/xlink">
<g id="graph0" class="graph" transform="scale(1 1) rotate(0) translate(4 503.96)">
<title>enter_ui_page_forwards</title>
<!-- Node1 -->
<g id="Node000001" class="node">
<title>Node1</title>
<g id="a_Node000001"><a xlink:title=" ">
<polygon fill="#999999" stroke="#666666" points="1011,-269.96 878,-269.96 878,-249.21 1011,-249.21 1011,-269.96"/>
<text xml:space="preserve" text-anchor="middle" x="944.5" y="-256.46" font-family="Helvetica,sans-Serif" font-size="10.00">enter_ui_page_forwards</text>
</a>
</g>
</g>
<!-- Node2 -->
<g id="Node000002" class="node">
<title>Node2</title>
<g id="a_Node000002"><a xlink:href="kest__effect__view_8c.html#a3caa3eac8bae1af062f1c8b509d81bd2" target="_top" xlink:title=" ">
<polygon fill="white" stroke="#666666" points="842,-480.96 677.5,-480.96 677.5,-460.21 842,-460.21 842,-480.96"/>
<text xml:space="preserve" text-anchor="middle" x="759.75" y="-467.46" font-family="Helvetica,sans-Serif" font-size="10.00">effect_view_enter_settings_cb</text>
</a>
</g>
</g>
<!-- Node1&#45;&gt;Node2 -->
<g id="edge1_Node000001_Node000002" class="edge">
<title>Node1&#45;&gt;Node2</title>
<g id="a_edge1_Node000001_Node000002"><a xlink:title=" ">
<path fill="none" stroke="#63b8ff" d="M937.69,-281.42C926.16,-320.48 896.67,-402.34 842,-446.59 835.03,-452.23 826.76,-456.55 818.22,-459.85"/>
<polygon fill="#63b8ff" stroke="#63b8ff" points="941.06,-282.38 940.4,-271.8 934.32,-280.48 941.06,-282.38"/>
</a>
</g>
</g>
<!-- Node6 -->
<g id="Node000006" class="node">
<title>Node6</title>
<g id="a_Node000006"><a xlink:href="kest__effect__select_8c.html#acd3eb99039d7b3531035a87718ae6948" target="_top" xlink:title=" ">
<polygon fill="white" stroke="#666666" points="827.75,-359.96 691.75,-359.96 691.75,-339.21 827.75,-339.21 827.75,-359.96"/>
<text xml:space="preserve" text-anchor="middle" x="759.75" y="-346.46" font-family="Helvetica,sans-Serif" font-size="10.00">enter_effect_selector_cb</text>
</a>
</g>
</g>
<!-- Node1&#45;&gt;Node6 -->
<g id="edge6_Node000001_Node000006" class="edge">
<title>Node1&#45;&gt;Node6</title>
<g id="a_edge6_Node000001_Node000006"><a xlink:title=" ">
<path fill="none" stroke="#63b8ff" d="M922.99,-277.5C903.44,-293.67 872.54,-316.95 842,-330.59 834.86,-333.78 827.11,-336.47 819.34,-338.73"/>
<polygon fill="#63b8ff" stroke="#63b8ff" points="925.08,-280.32 930.46,-271.19 920.57,-274.97 925.08,-280.32"/>
</a>
</g>
</g>
<!-- Node14 -->
<g id="Node000014" class="node">
<title>Node14</title>
<g id="a_Node000014"><a xlink:href="kest__sequence__view_8c.html#abc9a54120c4bc7c4fe6a4632764e5e91" target="_top" xlink:title=" ">
<polygon fill="#fff0f0" stroke="red" points="117.25,-378.96 0,-378.96 0,-358.21 117.25,-358.21 117.25,-378.96"/>
<text xml:space="preserve" text-anchor="middle" x="58.62" y="-365.46" font-family="Helvetica,sans-Serif" font-size="10.00">seq_view_clicked_cb</text>
</a>
</g>
</g>
<!-- Node1&#45;&gt;Node14 -->
<g id="edge30_Node000001_Node000014" class="edge">
<title>Node1&#45;&gt;Node14</title>
<g id="a_edge30_Node000001_Node000014"><a xlink:title=" ">
<path fill="none" stroke="#63b8ff" d="M935.92,-280.61C922.65,-314.02 891.77,-378.42 842,-407.59 735.97,-469.72 689.52,-432.59 566.62,-432.59 566.62,-432.59 566.62,-432.59 385.88,-432.59 276.78,-432.59 150.95,-397.7 92.55,-379.44"/>
<polygon fill="#63b8ff" stroke="#63b8ff" points="939.06,-282.2 939.35,-271.61 932.52,-279.71 939.06,-282.2"/>
</a>
</g>
</g>
<!-- Node29 -->
<g id="Node000029" class="node">
<title>Node29</title>
<g id="a_Node000029"><a xlink:href="kest__ui_8c.html#a8c61274edfd5c1adb98471432976c3b6" target="_top" xlink:title=" ">
<polygon fill="white" stroke="#666666" points="834.5,-398.96 685,-398.96 685,-378.21 834.5,-378.21 834.5,-398.96"/>
<text xml:space="preserve" text-anchor="middle" x="759.75" y="-385.46" font-family="Helvetica,sans-Serif" font-size="10.00">enter_ui_page_forwards_cb</text>
</a>
</g>
</g>
<!-- Node1&#45;&gt;Node29 -->
<g id="edge12_Node000001_Node000029" class="edge">
<title>Node1&#45;&gt;Node29</title>
<g id="a_edge12_Node000001_Node000029"><a xlink:title=" ">
<path fill="none" stroke="#63b8ff" d="M930.39,-279.65C913.13,-304.42 880.43,-346.01 842,-368.59 835.74,-372.27 828.82,-375.27 821.75,-377.73"/>
<polygon fill="#63b8ff" stroke="#63b8ff" points="933.25,-281.67 935.96,-271.43 927.45,-277.74 933.25,-281.67"/>
</a>
</g>
</g>
<!-- Node34 -->
<g id="Node000034" class="node">
<title>Node34</title>
<g id="a_Node000034"><a xlink:href="kest__ui_8c.html#a6cc33fc0b802073df734a4fa9e0490ad" target="_top" xlink:title=" ">
<polygon fill="white" stroke="#666666" points="823.25,-231.34 696.25,-231.34 696.25,-197.84 823.25,-197.84 823.25,-231.34"/>
<text xml:space="preserve" text-anchor="start" x="704.25" y="-217.84" font-family="Helvetica,sans-Serif" font-size="10.00">enter_ui_page_indirect</text>
<text xml:space="preserve" text-anchor="middle" x="759.75" y="-205.09" font-family="Helvetica,sans-Serif" font-size="10.00">_forwards</text>
</a>
</g>
</g>
<!-- Node1&#45;&gt;Node34 -->
<g id="edge17_Node000001_Node000034" class="edge">
<title>Node1&#45;&gt;Node34</title>
<g id="a_edge17_Node000001_Node000034"><a xlink:title=" ">
<path fill="none" stroke="#63b8ff" d="M888.67,-246.09C868.15,-241.03 844.7,-235.26 823.52,-230.05"/>
<polygon fill="#63b8ff" stroke="#63b8ff" points="887.71,-249.46 898.26,-248.45 889.38,-242.66 887.71,-249.46"/>
</a>
</g>
</g>
<!-- Node35 -->
<g id="Node000035" class="node">
<title>Node35</title>
<g id="a_Node000035"><a xlink:href="kest__menu_8c.html#a7b561ce007bc70c05d37e79e0354d4ab" target="_top" xlink:title=" ">
<polygon fill="white" stroke="#666666" points="641.5,-186.96 489.75,-186.96 489.75,-166.21 641.5,-166.21 641.5,-186.96"/>
<text xml:space="preserve" text-anchor="middle" x="565.62" y="-173.46" font-family="Helvetica,sans-Serif" font-size="10.00">menu_page_link_clicked_cb</text>
</a>
</g>
</g>
<!-- Node1&#45;&gt;Node35 -->
<g id="edge25_Node000001_Node000035" class="edge">
<title>Node1&#45;&gt;Node35</title>
<g id="a_edge25_Node000001_Node000035"><a xlink:title=" ">
<path fill="none" stroke="#63b8ff" d="M924.46,-241.18C905.35,-224.03 874.2,-199.51 842,-188.59 776.97,-166.53 698.32,-165.43 641.75,-168.73"/>
<polygon fill="#63b8ff" stroke="#63b8ff" points="921.99,-243.67 931.71,-247.89 926.75,-238.53 921.99,-243.67"/>
</a>
</g>
</g>
<!-- Node24 -->
<g id="Node000024" class="node">
<title>Node24</title>
<g id="a_Node000024"><a xlink:href="kest__sequence__list_8c.html#ac9d222d7405758d9f4edfeabe4c6200e" target="_top" xlink:title=" ">
<polygon fill="#fff0f0" stroke="red" points="279.88,-85.96 157.38,-85.96 157.38,-65.21 279.88,-65.21 279.88,-85.96"/>
<text xml:space="preserve" text-anchor="middle" x="218.62" y="-72.46" font-family="Helvetica,sans-Serif" font-size="10.00">sequence_list_add_cb</text>
</a>
</g>
</g>
<!-- Node1&#45;&gt;Node24 -->
<g id="edge31_Node000001_Node000024" class="edge">
<title>Node1&#45;&gt;Node24</title>
<g id="a_edge31_Node000001_Node000024"><a xlink:title=" ">
<path fill="none" stroke="#63b8ff" d="M939.91,-237.65C931.57,-194.66 906.42,-100.04 842,-60.59 644.76,60.22 342.37,-31.43 248.46,-64.75"/>
<polygon fill="#63b8ff" stroke="#63b8ff" points="936.43,-238.07 941.65,-247.29 943.32,-236.83 936.43,-238.07"/>
</a>
</g>
</g>
<!-- Node36 -->
<g id="Node000036" class="node">
<title>Node36</title>
<g id="a_Node000036"><a xlink:href="kest__menu_8c.html#a22605bcd410421039465332b6c5fd407" target="_top" xlink:title=" ">
<polygon fill="white" stroke="#666666" points="637.38,-148.34 493.88,-148.34 493.88,-114.84 637.38,-114.84 637.38,-148.34"/>
<text xml:space="preserve" text-anchor="start" x="501.88" y="-134.84" font-family="Helvetica,sans-Serif" font-size="10.00">menu_item_profile_listing</text>
<text xml:space="preserve" text-anchor="middle" x="565.62" y="-122.09" font-family="Helvetica,sans-Serif" font-size="10.00">_released_cb</text>
</a>
</g>
</g>
<!-- Node1&#45;&gt;Node36 -->
<g id="edge21_Node000001_Node000036" class="edge">
<title>Node1&#45;&gt;Node36</title>
<g id="a_edge21_Node000001_Node000036"><a xlink:title=" ">
<path fill="none" stroke="#63b8ff" d="M929.17,-239.86C911.48,-217.2 879.14,-180.92 842,-163.59 777.45,-133.47 695.5,-127.48 637.84,-127.79"/>
<polygon fill="#63b8ff" stroke="#63b8ff" points="926.29,-241.86 935.11,-247.72 931.87,-237.63 926.29,-241.86"/>
</a>
</g>
</g>
<!-- Node18 -->
<g id="Node000018" class="node">
<title>Node18</title>
<g id="a_Node000018"><a xlink:href="kest__sequence__list_8c.html#a0788bbcb1aa9c85a904e084c2abd48ad" target="_top" xlink:title=" ">
<polygon fill="white" stroke="#666666" points="821.38,-103.34 698.12,-103.34 698.12,-69.84 821.38,-69.84 821.38,-103.34"/>
<text xml:space="preserve" text-anchor="start" x="706.12" y="-89.84" font-family="Helvetica,sans-Serif" font-size="10.00">menu_item_sequence</text>
<text xml:space="preserve" text-anchor="middle" x="759.75" y="-77.09" font-family="Helvetica,sans-Serif" font-size="10.00">_listing_released_cb</text>
</a>
</g>
</g>
<!-- Node1&#45;&gt;Node18 -->
<g id="edge23_Node000001_Node000018" class="edge">
<title>Node1&#45;&gt;Node18</title>
<g id="a_edge23_Node000001_Node000018"><a xlink:title=" ">
<path fill="none" stroke="#63b8ff" d="M933.62,-238.74C918.14,-208.14 885.39,-151.08 842,-117.59 834.95,-112.15 826.83,-107.56 818.52,-103.74"/>
<polygon fill="#63b8ff" stroke="#63b8ff" points="930.48,-240.28 938.03,-247.71 936.76,-237.19 930.48,-240.28"/>
</a>
</g>
</g>
<!-- Node37 -->
<g id="Node000037" class="node">
<title>Node37</title>
<g id="a_Node000037"><a xlink:href="kest__profile__view_8c.html#afdf7a635701897423b668de3c09d9383" target="_top" xlink:title=" ">
<polygon fill="white" stroke="#666666" points="620.5,-276.34 510.75,-276.34 510.75,-242.84 620.5,-242.84 620.5,-276.34"/>
<text xml:space="preserve" text-anchor="start" x="518.75" y="-262.84" font-family="Helvetica,sans-Serif" font-size="10.00">profile_view_effect</text>
<text xml:space="preserve" text-anchor="middle" x="565.62" y="-250.09" font-family="Helvetica,sans-Serif" font-size="10.00">_click_cb</text>
</a>
</g>
</g>
<!-- Node1&#45;&gt;Node37 -->
<g id="edge26_Node000001_Node000037" class="edge">
<title>Node1&#45;&gt;Node37</title>
<g id="a_edge26_Node000001_Node000037"><a xlink:title=" ">
<path fill="none" stroke="#63b8ff" d="M866.43,-259.59C793.31,-259.59 685.29,-259.59 620.84,-259.59"/>
<polygon fill="#63b8ff" stroke="#63b8ff" points="866.34,-263.09 876.34,-259.59 866.34,-256.09 866.34,-263.09"/>
</a>
</g>
</g>
<!-- Node38 -->
<g id="Node000038" class="node">
<title>Node38</title>
<g id="a_Node000038"><a xlink:href="kest__profile__view_8c.html#a7fc7c03f230ebab9875f55534b681355" target="_top" xlink:title=" ">
<polygon fill="white" stroke="#666666" points="813.12,-321.34 706.38,-321.34 706.38,-287.84 813.12,-287.84 813.12,-321.34"/>
<text xml:space="preserve" text-anchor="start" x="714.38" y="-307.84" font-family="Helvetica,sans-Serif" font-size="10.00">profile_view_enter</text>
<text xml:space="preserve" text-anchor="middle" x="759.75" y="-295.09" font-family="Helvetica,sans-Serif" font-size="10.00">_settings_page_cb</text>
</a>
</g>
</g>
<!-- Node1&#45;&gt;Node38 -->
<g id="edge28_Node000001_Node000038" class="edge">
<title>Node1&#45;&gt;Node38</title>
<g id="a_edge28_Node000001_Node000038"><a xlink:title=" ">
<path fill="none" stroke="#63b8ff" d="M888.75,-273.07C864.96,-278.93 837.19,-285.77 813.61,-291.57"/>
<polygon fill="#63b8ff" stroke="#63b8ff" points="889.38,-276.52 898.26,-270.73 887.71,-269.72 889.38,-276.52"/>
</a>
</g>
</g>
<!-- Node3 -->
<g id="Node000003" class="node">
<title>Node3</title>
<g id="a_Node000003"><a xlink:href="kest__effect__view_8c.html#ae392eef44a5a025bad43a7a8969ab5b0" target="_top" xlink:title=" ">
<polygon fill="white" stroke="#666666" points="627.62,-480.96 503.62,-480.96 503.62,-460.21 627.62,-460.21 627.62,-480.96"/>
<text xml:space="preserve" text-anchor="middle" x="565.62" y="-467.46" font-family="Helvetica,sans-Serif" font-size="10.00">configure_effect_view</text>
</a>
</g>
</g>
<!-- Node2&#45;&gt;Node3 -->
<g id="edge2_Node000002_Node000003" class="edge">
<title>Node2&#45;&gt;Node3</title>
<g id="a_edge2_Node000002_Node000003"><a xlink:title=" ">
<path fill="none" stroke="#63b8ff" d="M666.01,-470.59C653.15,-470.59 640.21,-470.59 628.11,-470.59"/>
<polygon fill="#63b8ff" stroke="#63b8ff" points="665.76,-474.09 675.76,-470.59 665.76,-467.09 665.76,-474.09"/>
</a>
</g>
</g>
<!-- Node4 -->
<g id="Node000004" class="node">
<title>Node4</title>
<g id="a_Node000004"><a xlink:href="kest__effect__view_8c.html#abb65b28dc293fd68d3b384f48210130e" target="_top" xlink:title=" ">
<polygon fill="white" stroke="#666666" points="282.5,-499.96 154.75,-499.96 154.75,-479.21 282.5,-479.21 282.5,-499.96"/>
<text xml:space="preserve" text-anchor="middle" x="218.62" y="-486.46" font-family="Helvetica,sans-Serif" font-size="10.00">create_effect_view_for</text>
</a>
</g>
</g>
<!-- Node3&#45;&gt;Node4 -->
<g id="edge3_Node000003_Node000004" class="edge">
<title>Node3&#45;&gt;Node4</title>
<g id="a_edge3_Node000003_Node000004"><a xlink:title=" ">
<path fill="none" stroke="#63b8ff" d="M501.11,-483.38C485.68,-485.96 469.17,-488.28 453.75,-489.59 396.04,-494.5 330.03,-493.94 282.85,-492.48"/>
<polygon fill="#63b8ff" stroke="#63b8ff" points="501.38,-486.88 510.64,-481.72 500.18,-479.98 501.38,-486.88"/>
</a>
</g>
</g>
<!-- Node5 -->
<g id="Node000005" class="node">
<title>Node5</title>
<g id="a_Node000005"><a xlink:href="kest__effect__view_8c.html#a7b9803e86d71b10b167f0babf088fe08" target="_top" xlink:title=" ">
<polygon fill="white" stroke="#666666" points="433.88,-480.96 339.88,-480.96 339.88,-460.21 433.88,-460.21 433.88,-480.96"/>
<text xml:space="preserve" text-anchor="middle" x="386.88" y="-467.46" font-family="Helvetica,sans-Serif" font-size="10.00">init_effect_view</text>
</a>
</g>
</g>
<!-- Node3&#45;&gt;Node5 -->
<g id="edge4_Node000003_Node000005" class="edge">
<title>Node3&#45;&gt;Node5</title>
<g id="a_edge4_Node000003_Node000005"><a xlink:title=" ">
<path fill="none" stroke="#63b8ff" d="M491.98,-470.59C472.49,-470.59 451.95,-470.59 434.31,-470.59"/>
<polygon fill="#63b8ff" stroke="#63b8ff" points="491.79,-474.09 501.79,-470.59 491.79,-467.09 491.79,-474.09"/>
</a>
</g>
</g>
<!-- Node5&#45;&gt;Node4 -->
<g id="edge5_Node000005_Node000004" class="edge">
<title>Node5&#45;&gt;Node4</title>
<g id="a_edge5_Node000005_Node000004"><a xlink:title=" ">
<path fill="none" stroke="#63b8ff" d="M328.55,-477.14C313.78,-478.83 297.81,-480.65 282.77,-482.37"/>
<polygon fill="#63b8ff" stroke="#63b8ff" points="328.52,-480.67 338.06,-476.05 327.73,-473.71 328.52,-480.67"/>
</a>
</g>
</g>
<!-- Node7 -->
<g id="Node000007" class="node">
<title>Node7</title>
<g id="a_Node000007"><a xlink:href="kest__profile__view_8c.html#a9f9505132871c2ea372958fd06ecf10f" target="_top" xlink:title=" ">
<polygon fill="white" stroke="#666666" points="629.12,-314.96 502.12,-314.96 502.12,-294.21 629.12,-294.21 629.12,-314.96"/>
<text xml:space="preserve" text-anchor="middle" x="565.62" y="-301.46" font-family="Helvetica,sans-Serif" font-size="10.00">configure_profile_view</text>
</a>
</g>
</g>
<!-- Node6&#45;&gt;Node7 -->
<g id="edge7_Node000006_Node000007" class="edge">
<title>Node6&#45;&gt;Node7</title>
<g id="a_edge7_Node000006_Node000007"><a xlink:title=" ">
<path fill="none" stroke="#63b8ff" d="M701.21,-336.14C693.25,-334.27 685.17,-332.38 677.5,-330.59 656.23,-325.61 632.66,-320.08 612.75,-315.41"/>
<polygon fill="#63b8ff" stroke="#63b8ff" points="700.34,-339.53 710.87,-338.4 701.93,-332.71 700.34,-339.53"/>
</a>
</g>
</g>
<!-- Node8 -->
<g id="Node000008" class="node">
<title>Node8</title>
<g id="a_Node000008"><a xlink:href="kest__profile__view_8c.html#a8a76cb40ff26bbde55ba56a4f25094d1" target="_top" xlink:title=" ">
<polygon fill="#fff0f0" stroke="red" points="284,-314.96 153.25,-314.96 153.25,-294.21 284,-294.21 284,-314.96"/>
<text xml:space="preserve" text-anchor="middle" x="218.62" y="-301.46" font-family="Helvetica,sans-Serif" font-size="10.00">create_profile_view_for</text>
</a>
</g>
</g>
<!-- Node7&#45;&gt;Node8 -->
<g id="edge8_Node000007_Node000008" class="edge">
<title>Node7&#45;&gt;Node8</title>
<g id="a_edge8_Node000007_Node000008"><a xlink:title=" ">
<path fill="none" stroke="#63b8ff" d="M490.6,-304.59C429.29,-304.59 343.02,-304.59 284.41,-304.59"/>
<polygon fill="#63b8ff" stroke="#63b8ff" points="490.23,-308.09 500.23,-304.59 490.23,-301.09 490.23,-308.09"/>
</a>
</g>
</g>
<!-- Node28 -->
<g id="Node000028" class="node">
<title>Node28</title>
<g id="a_Node000028"><a xlink:href="kest__profile__view_8c.html#abfe2cf72961d0ab0b70f858cf1281a38" target="_top" xlink:title=" ">
<polygon fill="white" stroke="#666666" points="435.38,-276.96 338.38,-276.96 338.38,-256.21 435.38,-256.21 435.38,-276.96"/>
<text xml:space="preserve" text-anchor="middle" x="386.88" y="-263.46" font-family="Helvetica,sans-Serif" font-size="10.00">init_profile_view</text>
</a>
</g>
</g>
<!-- Node7&#45;&gt;Node28 -->
<g id="edge10_Node000007_Node000028" class="edge">
<title>Node7&#45;&gt;Node28</title>
<g id="a_edge10_Node000007_Node000028"><a xlink:title=" ">
<path fill="none" stroke="#63b8ff" d="M503.46,-291.44C481.3,-286.67 456.6,-281.36 435.74,-276.88"/>
<polygon fill="#63b8ff" stroke="#63b8ff" points="502.46,-294.8 512.97,-293.48 503.93,-287.96 502.46,-294.8"/>
</a>
</g>
</g>
<!-- Node8&#45;&gt;Node14 -->
<g id="edge9_Node000008_Node000014" class="edge">
<title>Node8&#45;&gt;Node14</title>
<g id="a_edge9_Node000008_Node000014"><a xlink:title=" ">
<path fill="none" stroke="#63b8ff" d="M180.31,-319.7C151.41,-331.41 112.09,-347.34 86.29,-357.79"/>
<polygon fill="#63b8ff" stroke="#63b8ff" points="181.47,-323.01 189.42,-316.01 178.84,-316.52 181.47,-323.01"/>
</a>
</g>
</g>
<!-- Node28&#45;&gt;Node8 -->
<g id="edge11_Node000028_Node000008" class="edge">
<title>Node28&#45;&gt;Node8</title>
<g id="a_edge11_Node000028_Node000008"><a xlink:title=" ">
<path fill="none" stroke="#63b8ff" d="M327.59,-279.91C307.74,-284.45 285.82,-289.46 266.94,-293.77"/>
<polygon fill="#63b8ff" stroke="#63b8ff" points="328.23,-283.35 337.2,-277.71 326.68,-276.53 328.23,-283.35"/>
</a>
</g>
</g>
<!-- Node30 -->
<g id="Node000030" class="node">
<title>Node30</title>
<g id="a_Node000030"><a xlink:href="kest__menu_8c.html#a86c6c0acd2dfb8a62bd96bbfd739e687" target="_top" xlink:title=" ">
<polygon fill="white" stroke="#666666" points="628,-404.96 503.25,-404.96 503.25,-384.21 628,-384.21 628,-404.96"/>
<text xml:space="preserve" text-anchor="middle" x="565.62" y="-391.46" font-family="Helvetica,sans-Serif" font-size="10.00">configure_main_menu</text>
</a>
</g>
</g>
<!-- Node29&#45;&gt;Node30 -->
<g id="edge13_Node000029_Node000030" class="edge">
<title>Node29&#45;&gt;Node30</title>
<g id="a_edge13_Node000029_Node000030"><a xlink:title=" ">
<path fill="none" stroke="#63b8ff" d="M673.29,-391.26C658.18,-391.73 642.72,-392.21 628.43,-392.66"/>
<polygon fill="#63b8ff" stroke="#63b8ff" points="673.35,-394.76 683.23,-390.95 673.13,-387.76 673.35,-394.76"/>
</a>
</g>
</g>
<!-- Node32 -->
<g id="Node000032" class="node">
<title>Node32</title>
<g id="a_Node000032"><a xlink:href="kest__ui_8c.html#a91cbeba99527e75576d1690162018ef5" target="_top" xlink:title=" ">
<polygon fill="white" stroke="#666666" points="636.62,-366.34 494.62,-366.34 494.62,-332.84 636.62,-332.84 636.62,-366.34"/>
<text xml:space="preserve" text-anchor="start" x="502.62" y="-352.84" font-family="Helvetica,sans-Serif" font-size="10.00">create_panel_with_back</text>
<text xml:space="preserve" text-anchor="middle" x="565.62" y="-340.09" font-family="Helvetica,sans-Serif" font-size="10.00">_button_and_page_button</text>
</a>
</g>
</g>
<!-- Node29&#45;&gt;Node32 -->
<g id="edge15_Node000029_Node000032" class="edge">
<title>Node29&#45;&gt;Node32</title>
<g id="a_edge15_Node000029_Node000032"><a xlink:title=" ">
<path fill="none" stroke="#63b8ff" d="M694.08,-375.46C675.77,-371.74 655.74,-367.68 637.1,-363.89"/>
<polygon fill="#63b8ff" stroke="#63b8ff" points="693.25,-378.86 703.75,-377.42 694.65,-372 693.25,-378.86"/>
</a>
</g>
</g>
<!-- Node31 -->
<g id="Node000031" class="node">
<title>Node31</title>
<g id="a_Node000031"><a xlink:href="kest__menu_8c.html#a6aa16fb3d12f098f021ae677605e683e" target="_top" xlink:title=" ">
<polygon fill="#fff0f0" stroke="red" points="434.25,-404.96 339.5,-404.96 339.5,-384.21 434.25,-384.21 434.25,-404.96"/>
<text xml:space="preserve" text-anchor="middle" x="386.88" y="-391.46" font-family="Helvetica,sans-Serif" font-size="10.00">init_main_menu</text>
</a>
</g>
</g>
<!-- Node30&#45;&gt;Node31 -->
<g id="edge14_Node000030_Node000031" class="edge">
<title>Node30&#45;&gt;Node31</title>
<g id="a_edge14_Node000030_Node000031"><a xlink:title=" ">
<path fill="none" stroke="#63b8ff" d="M491.34,-394.59C472.15,-394.59 451.99,-394.59 434.61,-394.59"/>
<polygon fill="#63b8ff" stroke="#63b8ff" points="491.29,-398.09 501.29,-394.59 491.29,-391.09 491.29,-398.09"/>
</a>
</g>
</g>
<!-- Node33 -->
<g id="Node000033" class="node">
<title>Node33</title>
<g id="a_Node000033"><a xlink:href="kest__ui_8c.html#a56d00dcd05509dc9999a3c25122f4851" target="_top" xlink:title=" ">
<polygon fill="white" stroke="#666666" points="453.75,-366.34 320,-366.34 320,-332.84 453.75,-332.84 453.75,-366.34"/>
<text xml:space="preserve" text-anchor="start" x="328" y="-352.84" font-family="Helvetica,sans-Serif" font-size="10.00">create_panel_with_back</text>
<text xml:space="preserve" text-anchor="middle" x="386.88" y="-340.09" font-family="Helvetica,sans-Serif" font-size="10.00">_and_settings_buttons</text>
</a>
</g>
</g>
<!-- Node32&#45;&gt;Node33 -->
<g id="edge16_Node000032_Node000033" class="edge">
<title>Node32&#45;&gt;Node33</title>
<g id="a_edge16_Node000032_Node000033"><a xlink:title=" ">
<path fill="none" stroke="#63b8ff" d="M482.95,-349.59C473.24,-349.59 463.43,-349.59 453.97,-349.59"/>
<polygon fill="#63b8ff" stroke="#63b8ff" points="482.75,-353.09 492.75,-349.59 482.75,-346.09 482.75,-353.09"/>
</a>
</g>
</g>
<!-- Node34&#45;&gt;Node35 -->
<g id="edge18_Node000034_Node000035" class="edge">
<title>Node34&#45;&gt;Node35</title>
<g id="a_edge18_Node000034_Node000035"><a xlink:title=" ">
<path fill="none" stroke="#63b8ff" d="M684.69,-199.94C663.71,-195.79 641.24,-191.35 621.6,-187.46"/>
<polygon fill="#63b8ff" stroke="#63b8ff" points="683.87,-203.34 694.36,-201.85 685.23,-196.48 683.87,-203.34"/>
</a>
</g>
</g>
<!-- Node19 -->
<g id="Node000019" class="node">
<title>Node19</title>
<g id="a_Node000019"><a xlink:href="kest__menu_8c.html#aa44b42640611d3ca75f6b55206ebd08e" target="_top" xlink:title=" ">
<polygon fill="#fff0f0" stroke="red" points="447.75,-118.96 326,-118.96 326,-98.21 447.75,-98.21 447.75,-118.96"/>
<text xml:space="preserve" text-anchor="middle" x="386.88" y="-105.46" font-family="Helvetica,sans-Serif" font-size="10.00">create_menu_item_ui</text>
</a>
</g>
</g>
<!-- Node35&#45;&gt;Node19 -->
<g id="edge19_Node000035_Node000019" class="edge">
<title>Node35&#45;&gt;Node19</title>
<g id="a_edge19_Node000035_Node000019"><a xlink:title=" ">
<path fill="none" stroke="#63b8ff" d="M505.11,-162.65C499.87,-161.07 494.69,-159.38 489.75,-157.59 460.05,-146.8 427.41,-130.2 407.28,-119.37"/>
<polygon fill="#63b8ff" stroke="#63b8ff" points="503.83,-165.92 514.41,-165.3 505.75,-159.19 503.83,-165.92"/>
</a>
</g>
</g>
<!-- Node19&#45;&gt;Node24 -->
<g id="edge20_Node000019_Node000024" class="edge">
<title>Node19&#45;&gt;Node24</title>
<g id="a_edge20_Node000019_Node000024"><a xlink:title=" ">
<path fill="none" stroke="#63b8ff" d="M320.46,-95.6C305.14,-92.56 288.97,-89.35 274.18,-86.42"/>
<polygon fill="#63b8ff" stroke="#63b8ff" points="319.46,-98.97 329.95,-97.49 320.83,-92.11 319.46,-98.97"/>
</a>
</g>
</g>
<!-- Node36&#45;&gt;Node19 -->
<g id="edge22_Node000036_Node000019" class="edge">
<title>Node36&#45;&gt;Node19</title>
<g id="a_edge22_Node000036_Node000019"><a xlink:title=" ">
<path fill="none" stroke="#63b8ff" d="M482.1,-120.85C470.63,-119.36 459.03,-117.85 448.07,-116.42"/>
<polygon fill="#63b8ff" stroke="#63b8ff" points="481.63,-124.32 492,-122.14 482.53,-117.38 481.63,-124.32"/>
</a>
</g>
</g>
<!-- Node18&#45;&gt;Node19 -->
<g id="edge24_Node000018_Node000019" class="edge">
<title>Node18&#45;&gt;Node19</title>
<g id="a_edge24_Node000018_Node000019"><a xlink:title=" ">
<path fill="none" stroke="#63b8ff" d="M686.65,-90.86C617.19,-94.99 513.3,-101.15 448.12,-105.01"/>
<polygon fill="#63b8ff" stroke="#63b8ff" points="686.64,-94.37 696.41,-90.29 686.22,-87.38 686.64,-94.37"/>
</a>
</g>
</g>
<!-- Node37&#45;&gt;Node28 -->
<g id="edge27_Node000037_Node000028" class="edge">
<title>Node37&#45;&gt;Node28</title>
<g id="a_edge27_Node000037_Node000028"><a xlink:title=" ">
<path fill="none" stroke="#63b8ff" d="M499.19,-262.18C478.2,-263.01 455.35,-263.92 435.84,-264.69"/>
<polygon fill="#63b8ff" stroke="#63b8ff" points="499.27,-265.68 509.12,-261.79 498.99,-258.68 499.27,-265.68"/>
</a>
</g>
</g>
<!-- Node38&#45;&gt;Node7 -->
<g id="edge29_Node000038_Node000007" class="edge">
<title>Node38&#45;&gt;Node7</title>
<g id="a_edge29_Node000038_Node000007"><a xlink:title=" ">
<path fill="none" stroke="#63b8ff" d="M694.61,-304.59C673.64,-304.59 650.37,-304.59 629.49,-304.59"/>
<polygon fill="#63b8ff" stroke="#63b8ff" points="694.48,-308.09 704.48,-304.59 694.48,-301.09 694.48,-308.09"/>
</a>
</g>
</g>
</g>
</svg>
