<?xml version="1.0" encoding="UTF-8" standalone="no"?>
<!DOCTYPE svg PUBLIC "-//W3C//DTD SVG 1.1//EN"
 "http://www.w3.org/Graphics/SVG/1.1/DTD/svg11.dtd">
<!-- Generated by graphviz version 13.1.2 (20250808.2320)
 -->
<!-- Title: kest_fpga_batch_print Pages: 1 -->
<!--zoomable 177 -->

<svg id="main" version="1.1" xmlns="http://www.w3.org/2000/svg" xmlns:xlink="http://www.w3.org/1999/xlink" xml:space="preserve" onload="init(evt)">

<style type="text/css"><![CDATA[
.node, .edge {opacity: 0.7;}
.node.selected, .edge.selected {opacity: 1;}
.edge:hover path { stroke: red; }
.edge:hover polygon { stroke: red; fill: red; }
]]></style>

<defs>
  <circle id="rim" cx="0" cy="0" r="7"/>
  <circle id="rim2" cx="0" cy="0" r="3.5"/>
  <g id="zoomPlus">
    <use xlink:href="#rim" fill="#404040"><set attributeName="fill" to="#808080" begin="zoomplus.mouseover" end="zoomplus.mouseout"/></use>
    <path d="M-4,0h8M0,-4v8" fill="none" stroke="white" stroke-width="1.5" pointer-events="none"/>
  </g>
  <g id="zoomMin">
    <use xlink:href="#rim" fill="#404040"><set attributeName="fill" to="#808080" begin="zoomminus.mouseover" end="zoomminus.mouseout"/></use>
    <path d="M-4,0h8" fill="none" stroke="white" stroke-width="1.5" pointer-events="none"/>
  </g>
  <g id="arrowUp" transform="translate(30 24)">
    <use xlink:href="#rim"/>
    <path pointer-events="none" fill="none" stroke="white" stroke-width="1.5" d="M0,-3.0v7 M-2.5,-0.5L0,-3.0L2.5,-0.5"/>
  </g>
  <g id="arrowRight" transform="rotate(90) translate(36 -43)">
    <use xlink:href="#rim"/>
    <path pointer-events="none" fill="none" stroke="white" stroke-width="1.5" d="M0,-3.0v7 M-2.5,-0.5L0,-3.0L2.5,-0.5"/>
  </g>
  <g id="arrowDown" transform="rotate(180) translate(-30 -48)">
    <use xlink:href="#rim"/>
    <path pointer-events="none" fill="none" stroke="white" stroke-width="1.5" d="M0,-3.0v7 M-2.5,-0.5L0,-3.0L2.5,-0.5"/>
  </g>
  <g id="arrowLeft" transform="rotate(270) translate(-36 17)">
    <use xlink:href="#rim"/>
    <path pointer-events="none" fill="none" stroke="white" stroke-width="1.5" d="M0,-3.0v7 M-2.5,-0.5L0,-3.0L2.5,-0.5"/>
  </g>
  <g id="resetDef">
    <use xlink:href="#rim2" fill="#404040"><set attributeName="fill" to="#808080" begin="reset.mouseover" end="reset.mouseout"/></use>
  </g>
</defs>
<script type="application/ecmascript">
var viewWidth = 676;
var viewHeight = 177;
var sectionId = 'dynsection-9';
</script>
<script type="application/ecmascript" xlink:href="svg.min.js"/>
<svg id="graph" class="graph">
<g id="viewport">
<title>kest_fpga_batch_print</title>
<!-- Node1 -->
<g id="Node000001" class="node">
<title>Node1</title>
<g id="a_Node000001"><a xlink:title=" ">
<polygon fill="#999999" stroke="#666666" points="123.25,-106.75 0,-106.75 0,-86 123.25,-86 123.25,-106.75"/>
<text xml:space="preserve" text-anchor="middle" x="61.62" y="-93.25" font-family="Helvetica,sans-Serif" font-size="10.00">kest_fpga_batch_print</text>
</a>
</g>
</g>
<!-- Node2 -->
<g id="Node000002" class="node">
<title>Node2</title>
<g id="a_Node000002"><a xlink:href="kest__hfunc_8c.html#a3e848609eabc8d2389b0a9f4517a0a13" target="_top" xlink:title=" ">
<polygon fill="white" stroke="#666666" points="272.75,-168.75 181,-168.75 181,-148 272.75,-148 272.75,-168.75"/>
<text xml:space="preserve" text-anchor="middle" x="226.88" y="-155.25" font-family="Helvetica,sans-Serif" font-size="10.00">binary_print_16</text>
</a>
</g>
</g>
<!-- Node1&#45;&gt;Node2 -->
<g id="edge1_Node000001_Node000002" class="edge">
<title>Node1&#45;&gt;Node2</title>
<g id="a_edge1_Node000001_Node000002"><a xlink:title=" ">
<path fill="none" stroke="#63b8ff" d="M85.35,-107.16C104.74,-116.15 133.48,-128.95 159.25,-138.38 164.64,-140.35 170.33,-142.28 176.01,-144.11"/>
<polygon fill="#63b8ff" stroke="#63b8ff" points="174.83,-147.41 185.42,-147.06 176.92,-140.73 174.83,-147.41"/>
</a>
</g>
</g>
<!-- Node4 -->
<g id="Node000004" class="node">
<title>Node4</title>
<g id="a_Node000004"><a xlink:href="kest__hfunc_8c.html#ad1ec0738e9eb4d206d93d895c18185fb" target="_top" xlink:title=" ">
<polygon fill="white" stroke="#666666" points="272.75,-129.75 181,-129.75 181,-109 272.75,-109 272.75,-129.75"/>
<text xml:space="preserve" text-anchor="middle" x="226.88" y="-116.25" font-family="Helvetica,sans-Serif" font-size="10.00">binary_print_24</text>
</a>
</g>
</g>
<!-- Node1&#45;&gt;Node4 -->
<g id="edge3_Node000001_Node000004" class="edge">
<title>Node1&#45;&gt;Node4</title>
<g id="a_edge3_Node000001_Node000004"><a xlink:title=" ">
<path fill="none" stroke="#63b8ff" d="M123.41,-104.94C138.51,-107.07 154.63,-109.34 169.5,-111.43"/>
<polygon fill="#63b8ff" stroke="#63b8ff" points="168.71,-114.86 179.1,-112.79 169.69,-107.92 168.71,-114.86"/>
</a>
</g>
</g>
<!-- Node5 -->
<g id="Node000005" class="node">
<title>Node5</title>
<g id="a_Node000005"><a xlink:href="kest__fpga__encoding_8c.html#a8357836213e2592c0f36f83c83b1dcbd" target="_top" xlink:title=" ">
<polygon fill="white" stroke="#666666" points="294.5,-91.12 159.25,-91.12 159.25,-57.62 294.5,-57.62 294.5,-91.12"/>
<text xml:space="preserve" text-anchor="start" x="167.25" y="-77.62" font-family="Helvetica,sans-Serif" font-size="10.00">kest_fpga_block_opcode</text>
<text xml:space="preserve" text-anchor="middle" x="226.88" y="-64.88" font-family="Helvetica,sans-Serif" font-size="10.00">_format</text>
</a>
</g>
</g>
<!-- Node1&#45;&gt;Node5 -->
<g id="edge5_Node000001_Node000005" class="edge">
<title>Node1&#45;&gt;Node5</title>
<g id="a_edge5_Node000001_Node000005"><a xlink:title=" ">
<path fill="none" stroke="#63b8ff" d="M123.41,-88.18C131.39,-87.11 139.65,-85.99 147.87,-84.89"/>
<polygon fill="#63b8ff" stroke="#63b8ff" points="148.06,-88.39 157.5,-83.59 147.13,-81.46 148.06,-88.39"/>
</a>
</g>
</g>
<!-- Node6 -->
<g id="Node000006" class="node">
<title>Node6</title>
<g id="a_Node000006"><a xlink:href="kest__fpga__encoding_8c.html#a9f3d76916b565e27599aebdb6c624499" target="_top" xlink:title=" ">
<polygon fill="white" stroke="#666666" points="274.62,-39.75 179.12,-39.75 179.12,-19 274.62,-19 274.62,-39.75"/>
<text xml:space="preserve" text-anchor="middle" x="226.88" y="-26.25" font-family="Helvetica,sans-Serif" font-size="10.00">print_instruction</text>
</a>
</g>
</g>
<!-- Node1&#45;&gt;Node6 -->
<g id="edge6_Node000001_Node000006" class="edge">
<title>Node1&#45;&gt;Node6</title>
<g id="a_edge6_Node000001_Node000006"><a xlink:title=" ">
<path fill="none" stroke="#63b8ff" d="M81.77,-85.56C100.93,-75.04 131.48,-59.13 159.25,-48.38 163.6,-46.69 168.17,-45.08 172.78,-43.56"/>
<polygon fill="#63b8ff" stroke="#63b8ff" points="173.61,-46.97 182.11,-40.63 171.52,-40.29 173.61,-46.97"/>
</a>
</g>
</g>
<!-- Node3 -->
<g id="Node000003" class="node">
<title>Node3</title>
<g id="a_Node000003"><a xlink:href="kest__hfunc_8c.html#af8699cf7affbc403aa0e90ab78311cfe" target="_top" xlink:title=" ">
<polygon fill="white" stroke="#666666" points="445.88,-148.75 360.12,-148.75 360.12,-128 445.88,-128 445.88,-148.75"/>
<text xml:space="preserve" text-anchor="middle" x="403" y="-135.25" font-family="Helvetica,sans-Serif" font-size="10.00">binary_print_n</text>
</a>
</g>
</g>
<!-- Node2&#45;&gt;Node3 -->
<g id="edge2_Node000002_Node000003" class="edge">
<title>Node2&#45;&gt;Node3</title>
<g id="a_edge2_Node000002_Node000003"><a xlink:title=" ">
<path fill="none" stroke="#63b8ff" d="M273.17,-153.17C296.31,-150.51 324.61,-147.26 348.78,-144.49"/>
<polygon fill="#63b8ff" stroke="#63b8ff" points="348.88,-148 358.42,-143.38 348.08,-141.05 348.88,-148"/>
</a>
</g>
</g>
<!-- Node4&#45;&gt;Node3 -->
<g id="edge4_Node000004_Node000003" class="edge">
<title>Node4&#45;&gt;Node3</title>
<g id="a_edge4_Node000004_Node000003"><a xlink:title=" ">
<path fill="none" stroke="#63b8ff" d="M273.17,-124.32C296.31,-126.84 324.61,-129.93 348.78,-132.57"/>
<polygon fill="#63b8ff" stroke="#63b8ff" points="348.1,-136.01 358.42,-133.62 348.85,-129.06 348.1,-136.01"/>
</a>
</g>
</g>
<!-- Node7 -->
<g id="Node000007" class="node">
<title>Node7</title>
<g id="a_Node000007"><a xlink:href="kest__fpga__encoding_8c.html#a7ca2a1fbddc5d291e6f3196e060cd163" target="_top" xlink:title=" ">
<polygon fill="white" stroke="#666666" points="475.5,-59.75 330.5,-59.75 330.5,-39 475.5,-39 475.5,-59.75"/>
<text xml:space="preserve" text-anchor="middle" x="403" y="-46.25" font-family="Helvetica,sans-Serif" font-size="10.00">print_instruction_format_a</text>
</a>
</g>
</g>
<!-- Node6&#45;&gt;Node7 -->
<g id="edge7_Node000006_Node000007" class="edge">
<title>Node6&#45;&gt;Node7</title>
<g id="a_edge7_Node000006_Node000007"><a xlink:title=" ">
<path fill="none" stroke="#63b8ff" d="M275,-34.79C288.69,-36.36 304.07,-38.13 319.28,-39.87"/>
<polygon fill="#63b8ff" stroke="#63b8ff" points="318.45,-43.3 328.79,-40.97 319.25,-36.35 318.45,-43.3"/>
</a>
</g>
</g>
<!-- Node9 -->
<g id="Node000009" class="node">
<title>Node9</title>
<g id="a_Node000009"><a xlink:href="kest__fpga__encoding_8c.html#a742d286efbcdfcfb04471fac4282b318" target="_top" xlink:title=" ">
<polygon fill="white" stroke="#666666" points="475.5,-20.75 330.5,-20.75 330.5,0 475.5,0 475.5,-20.75"/>
<text xml:space="preserve" text-anchor="middle" x="403" y="-7.25" font-family="Helvetica,sans-Serif" font-size="10.00">print_instruction_format_b</text>
</a>
</g>
</g>
<!-- Node6&#45;&gt;Node9 -->
<g id="edge9_Node000006_Node000009" class="edge">
<title>Node6&#45;&gt;Node9</title>
<g id="a_edge9_Node000006_Node000009"><a xlink:title=" ">
<path fill="none" stroke="#63b8ff" d="M275,-24.23C288.69,-22.74 304.07,-21.06 319.28,-19.4"/>
<polygon fill="#63b8ff" stroke="#63b8ff" points="319.22,-22.93 328.79,-18.36 318.46,-15.97 319.22,-22.93"/>
</a>
</g>
</g>
<!-- Node8 -->
<g id="Node000008" class="node">
<title>Node8</title>
<g id="a_Node000008"><a xlink:href="kest__fpga__encoding_8c.html#a039fa960f21627306a112807eb973b8f" target="_top" xlink:title=" ">
<polygon fill="white" stroke="#666666" points="667.75,-39.75 511.5,-39.75 511.5,-19 667.75,-19 667.75,-39.75"/>
<text xml:space="preserve" text-anchor="middle" x="589.62" y="-26.25" font-family="Helvetica,sans-Serif" font-size="10.00">kest_block_opcode_to_name</text>
</a>
</g>
</g>
<!-- Node7&#45;&gt;Node8 -->
<g id="edge8_Node000007_Node000008" class="edge">
<title>Node7&#45;&gt;Node8</title>
<g id="a_edge8_Node000007_Node000008"><a xlink:title=" ">
<path fill="none" stroke="#63b8ff" d="M475.91,-41.59C483.75,-40.74 491.81,-39.86 499.82,-38.99"/>
<polygon fill="#63b8ff" stroke="#63b8ff" points="500.04,-42.49 509.6,-37.94 499.29,-35.53 500.04,-42.49"/>
</a>
</g>
</g>
<!-- Node9&#45;&gt;Node8 -->
<g id="edge10_Node000009_Node000008" class="edge">
<title>Node9&#45;&gt;Node8</title>
<g id="a_edge10_Node000009_Node000008"><a xlink:title=" ">
<path fill="none" stroke="#63b8ff" d="M475.91,-17.78C483.75,-18.58 491.81,-19.41 499.82,-20.24"/>
<polygon fill="#63b8ff" stroke="#63b8ff" points="499.3,-23.7 509.6,-21.24 500.01,-16.74 499.3,-23.7"/>
</a>
</g>
</g>
</g>
</svg>

<g id="navigator" transform="translate(0 0)" fill="#404254">
  <rect fill="#f2f5e9" fill-opacity="0.5" stroke="#606060" stroke-width=".5" x="0" y="0" width="60" height="60"/>
  <use id="zoomplus" xlink:href="#zoomPlus" x="17" y="9" onmousedown="handleZoom(evt,'in')"/>
  <use id="zoomminus" xlink:href="#zoomMin" x="42" y="9" onmousedown="handleZoom(evt,'out')"/>
  <use id="reset" xlink:href="#resetDef" x="30" y="36" onmousedown="handleReset()"/>
   <use id="arrowup" xlink:href="#arrowUp" x="0" y="0" onmousedown="handlePan(0,-1)"/>
  <use id="arrowright" xlink:href="#arrowRight" x="0" y="0" onmousedown="handlePan(1,0)"/>
  <use id="arrowdown" xlink:href="#arrowDown" x="0" y="0" onmousedown="handlePan(0,1)"/>
  <use id="arrowleft" xlink:href="#arrowLeft" x="0" y="0" onmousedown="handlePan(-1,0)"/>
</g>
<svg viewBox="0 0 15 15" width="100%" height="30px" preserveAspectRatio="xMaxYMin meet">
 <g id="arrow_out" transform="scale(0.3 0.3)">
  <a xlink:href="kest__fpga__encoding_8h_a846915834c09759d6445b5dffc45b723_cgraph_org.svg" target="_base">
   <rect id="button" ry="5" rx="5" y="6" x="6" height="38" width="38"
        fill="#f2f5e9" fill-opacity="0.5" stroke="#606060" stroke-width="1.0"/>
   <path id="arrow"
     d="M 11.500037,31.436501 C 11.940474,20.09759 22.043105,11.32322 32.158766,21.979434 L 37.068811,17.246167 C 37.068811,17.246167 37.088388,32 37.088388,32 L 22.160133,31.978069 C 22.160133,31.978069 26.997745,27.140456 26.997745,27.140456 C 18.528582,18.264221 13.291696,25.230495 11.500037,31.436501 z"
     style="fill:#404040;"/>
  </a>
 </g>
</svg>

<style type='text/css'>
<![CDATA[
[data-mouse-over-selected='false'] { opacity: 0.7; }
[data-mouse-over-selected='true']  { opacity: 1.0; }
]]>
</style>
<script type="application/ecmascript"><![CDATA[
document.addEventListener('DOMContentLoaded', (event) => {
  highlightEdges();
  highlightAdjacentNodes();
});
]]></script>
</svg>
