<?xml version="1.0" encoding="UTF-8" standalone="no"?>
<!DOCTYPE svg PUBLIC "-//W3C//DTD SVG 1.1//EN"
 "http://www.w3.org/Graphics/SVG/1.1/DTD/svg11.dtd">
<!-- Generated by graphviz version 13.1.2 (20250808.2320)
 -->
<!-- Title: kest_interval_real_line Pages: 1 -->
<svg width="671pt" height="60pt"
 viewBox="0.00 0.00 671.00 60.00" xmlns="http://www.w3.org/2000/svg" xmlns:xlink="http://www.w3.org/1999/xlink">
<g id="graph0" class="graph" transform="scale(1 1) rotate(0) translate(4 55.5)">
<title>kest_interval_real_line</title>
<!-- Node1 -->
<g id="Node000001" class="node">
<title>Node1</title>
<g id="a_Node000001"><a xlink:title=" ">
<polygon fill="#999999" stroke="#666666" points="662.5,-27.12 536.25,-27.12 536.25,-6.38 662.5,-6.38 662.5,-27.12"/>
<text xml:space="preserve" text-anchor="middle" x="599.38" y="-13.62" font-family="Helvetica,sans-Serif" font-size="10.00">kest_interval_real_line</text>
</a>
</g>
</g>
<!-- Node2 -->
<g id="Node000002" class="node">
<title>Node2</title>
<g id="a_Node000002"><a xlink:href="kest__expression_8c.html#a12b486853cdfbc5ca334e74f9a90de2b" target="_top" xlink:title=" ">
<polygon fill="white" stroke="#666666" points="500.25,-33.5 357.5,-33.5 357.5,0 500.25,0 500.25,-33.5"/>
<text xml:space="preserve" text-anchor="start" x="365.5" y="-20" font-family="Helvetica,sans-Serif" font-size="10.00">kest_expression_compute</text>
<text xml:space="preserve" text-anchor="middle" x="428.88" y="-7.25" font-family="Helvetica,sans-Serif" font-size="10.00">_range_rec</text>
</a>
</g>
</g>
<!-- Node1&#45;&gt;Node2 -->
<g id="edge1_Node000001_Node000002" class="edge">
<title>Node1&#45;&gt;Node2</title>
<g id="a_edge1_Node000001_Node000002"><a xlink:title=" ">
<path fill="none" stroke="#63b8ff" d="M524.6,-16.75C516.66,-16.75 508.6,-16.75 500.69,-16.75"/>
<polygon fill="#63b8ff" stroke="#63b8ff" points="524.6,-20.25 534.6,-16.75 524.6,-13.25 524.6,-20.25"/>
</a>
</g>
</g>
<!-- Node2&#45;&gt;Node2 -->
<g id="edge4_Node000002_Node000002" class="edge">
<title>Node2&#45;&gt;Node2</title>
<g id="a_edge4_Node000002_Node000002"><a xlink:title=" ">
<path fill="none" stroke="#63b8ff" d="M457.5,-44.89C452.84,-48.85 443.3,-51.5 428.88,-51.5 403.23,-51.5 393.02,-43.12 398.23,-33.91"/>
<polygon fill="#63b8ff" stroke="#63b8ff" points="460.88,-45.87 459.25,-35.4 454,-44.6 460.88,-45.87"/>
</a>
</g>
</g>
<!-- Node3 -->
<g id="Node000003" class="node">
<title>Node3</title>
<g id="a_Node000003"><a xlink:href="kest__expression_8c.html#a5f48e88077ddcd3c3de79b597094a3ef" target="_top" xlink:title=" ">
<polygon fill="white" stroke="#666666" points="321.5,-33.5 178.75,-33.5 178.75,0 321.5,0 321.5,-33.5"/>
<text xml:space="preserve" text-anchor="start" x="186.75" y="-20" font-family="Helvetica,sans-Serif" font-size="10.00">kest_expression_compute</text>
<text xml:space="preserve" text-anchor="middle" x="250.12" y="-7.25" font-family="Helvetica,sans-Serif" font-size="10.00">_range</text>
</a>
</g>
</g>
<!-- Node2&#45;&gt;Node3 -->
<g id="edge2_Node000002_Node000003" class="edge">
<title>Node2&#45;&gt;Node3</title>
<g id="a_edge2_Node000002_Node000003"><a xlink:title=" ">
<path fill="none" stroke="#63b8ff" d="M345.73,-16.75C337.71,-16.75 329.62,-16.75 321.73,-16.75"/>
<polygon fill="#63b8ff" stroke="#63b8ff" points="345.49,-20.25 355.49,-16.75 345.49,-13.25 345.49,-20.25"/>
</a>
</g>
</g>
<!-- Node4 -->
<g id="Node000004" class="node">
<title>Node4</title>
<g id="a_Node000004"><a xlink:href="kest__fixed__point_8c.html#ac5145d24cb0e25a237f9c8d30b8fc0d2" target="_top" xlink:title=" ">
<polygon fill="#fff0f0" stroke="red" points="142.75,-33.5 0,-33.5 0,0 142.75,0 142.75,-33.5"/>
<text xml:space="preserve" text-anchor="start" x="8" y="-20" font-family="Helvetica,sans-Serif" font-size="10.00">kest_expression_compute</text>
<text xml:space="preserve" text-anchor="middle" x="71.38" y="-7.25" font-family="Helvetica,sans-Serif" font-size="10.00">_format</text>
</a>
</g>
</g>
<!-- Node3&#45;&gt;Node4 -->
<g id="edge3_Node000003_Node000004" class="edge">
<title>Node3&#45;&gt;Node4</title>
<g id="a_edge3_Node000003_Node000004"><a xlink:title=" ">
<path fill="none" stroke="#63b8ff" d="M166.98,-16.75C158.96,-16.75 150.87,-16.75 142.98,-16.75"/>
<polygon fill="#63b8ff" stroke="#63b8ff" points="166.74,-20.25 176.74,-16.75 166.74,-13.25 166.74,-20.25"/>
</a>
</g>
</g>
</g>
</svg>
