<?xml version="1.0" encoding="UTF-8" standalone="no"?>
<!DOCTYPE svg PUBLIC "-//W3C//DTD SVG 1.1//EN"
 "http://www.w3.org/Graphics/SVG/1.1/DTD/svg11.dtd">
<!-- Generated by graphviz version 13.1.2 (20250808.2320)
 -->
<!-- Title: save_profile Pages: 1 -->
<svg width="234pt" height="158pt"
 viewBox="0.00 0.00 234.00 158.00" xmlns="http://www.w3.org/2000/svg" xmlns:xlink="http://www.w3.org/1999/xlink">
<g id="graph0" class="graph" transform="scale(1 1) rotate(0) translate(4 153.75)">
<title>save_profile</title>
<!-- Node1 -->
<g id="Node000001" class="node">
<title>Node1</title>
<g id="a_Node000001"><a xlink:title=" ">
<polygon fill="#999999" stroke="#666666" points="76,-87.75 0,-87.75 0,-67 76,-67 76,-87.75"/>
<text xml:space="preserve" text-anchor="middle" x="38" y="-74.25" font-family="Helvetica,sans-Serif" font-size="10.00">save_profile</text>
</a>
</g>
</g>
<!-- Node2 -->
<g id="Node000002" class="node">
<title>Node2</title>
<g id="a_Node000002"><a xlink:href="kest__files_8c.html#ab79d861306c25eab9284239e73d0cc07" target="_top" xlink:title=" ">
<polygon fill="white" stroke="#666666" points="224.75,-149.75 112.75,-149.75 112.75,-129 224.75,-129 224.75,-149.75"/>
<text xml:space="preserve" text-anchor="middle" x="168.75" y="-136.25" font-family="Helvetica,sans-Serif" font-size="10.00">dump_file_contents</text>
</a>
</g>
</g>
<!-- Node1&#45;&gt;Node2 -->
<g id="edge1_Node000001_Node000002" class="edge">
<title>Node1&#45;&gt;Node2</title>
<g id="a_edge1_Node000001_Node000002"><a xlink:title=" ">
<path fill="none" stroke="#63b8ff" d="M55.65,-88.1C70.16,-97.16 91.96,-110.11 112,-119.38 115.82,-121.14 119.84,-122.85 123.9,-124.48"/>
<polygon fill="#63b8ff" stroke="#63b8ff" points="122.63,-127.75 133.22,-128.05 125.13,-121.21 122.63,-127.75"/>
</a>
</g>
</g>
<!-- Node3 -->
<g id="Node000003" class="node">
<title>Node3</title>
<g id="a_Node000003"><a xlink:href="kest__files_8c.html#aa81649890323b78baf99fbbad53ab5ff" target="_top" xlink:title=" ">
<polygon fill="white" stroke="#666666" points="222.88,-110.75 114.62,-110.75 114.62,-90 222.88,-90 222.88,-110.75"/>
<text xml:space="preserve" text-anchor="middle" x="168.75" y="-97.25" font-family="Helvetica,sans-Serif" font-size="10.00">generate_filename</text>
</a>
</g>
</g>
<!-- Node1&#45;&gt;Node3 -->
<g id="edge2_Node000001_Node000003" class="edge">
<title>Node1&#45;&gt;Node3</title>
<g id="a_edge2_Node000001_Node000003"><a xlink:title=" ">
<path fill="none" stroke="#63b8ff" d="M76.24,-84.03C84.69,-85.54 93.9,-87.18 103.12,-88.83"/>
<polygon fill="#63b8ff" stroke="#63b8ff" points="102.36,-92.25 112.82,-90.56 103.59,-85.36 102.36,-92.25"/>
</a>
</g>
</g>
<!-- Node4 -->
<g id="Node000004" class="node">
<title>Node4</title>
<g id="a_Node000004"><a xlink:href="kest__error__codes_8c.html#a0f4c77127bc0b77264a21104979c576a" target="_top" xlink:title=" ">
<polygon fill="white" stroke="#666666" points="222.88,-72.12 114.62,-72.12 114.62,-38.62 222.88,-38.62 222.88,-72.12"/>
<text xml:space="preserve" text-anchor="start" x="122.62" y="-58.62" font-family="Helvetica,sans-Serif" font-size="10.00">kest_error_code_to</text>
<text xml:space="preserve" text-anchor="middle" x="168.75" y="-45.88" font-family="Helvetica,sans-Serif" font-size="10.00">_string</text>
</a>
</g>
</g>
<!-- Node1&#45;&gt;Node4 -->
<g id="edge3_Node000001_Node000004" class="edge">
<title>Node1&#45;&gt;Node4</title>
<g id="a_edge3_Node000001_Node000004"><a xlink:title=" ">
<path fill="none" stroke="#63b8ff" d="M76.24,-71.01C84.69,-69.57 93.9,-67.99 103.12,-66.42"/>
<polygon fill="#63b8ff" stroke="#63b8ff" points="103.55,-69.9 112.82,-64.76 102.37,-63 103.55,-69.9"/>
</a>
</g>
</g>
<!-- Node5 -->
<g id="Node000005" class="node">
<title>Node5</title>
<g id="a_Node000005"><a xlink:href="kest__files_8c.html#acdd9a1fdb8fef8888d540a275ecfa86a" target="_top" xlink:title=" ">
<polygon fill="white" stroke="#666666" points="225.5,-20.75 112,-20.75 112,0 225.5,0 225.5,-20.75"/>
<text xml:space="preserve" text-anchor="middle" x="168.75" y="-7.25" font-family="Helvetica,sans-Serif" font-size="10.00">save_profile_as_file</text>
</a>
</g>
</g>
<!-- Node1&#45;&gt;Node5 -->
<g id="edge4_Node000001_Node000005" class="edge">
<title>Node1&#45;&gt;Node5</title>
<g id="a_edge4_Node000001_Node000005"><a xlink:title=" ">
<path fill="none" stroke="#63b8ff" d="M52.9,-66.69C67.14,-56.12 90.2,-40.04 112,-29.38 114.88,-27.96 117.9,-26.61 120.97,-25.33"/>
<polygon fill="#63b8ff" stroke="#63b8ff" points="122.06,-28.66 130.11,-21.78 119.52,-22.14 122.06,-28.66"/>
</a>
</g>
</g>
</g>
</svg>
