<?xml version="1.0" encoding="UTF-8" standalone="no"?>
<!DOCTYPE svg PUBLIC "-//W3C//DTD SVG 1.1//EN"
 "http://www.w3.org/Graphics/SVG/1.1/DTD/svg11.dtd">
<!-- Generated by graphviz version 13.1.2 (20250808.2320)
 -->
<!-- Title: init_profile_settings_page Pages: 1 -->
<svg width="849pt" height="562pt"
 viewBox="0.00 0.00 849.00 562.00" xmlns="http://www.w3.org/2000/svg" xmlns:xlink="http://www.w3.org/1999/xlink">
<g id="graph0" class="graph" transform="scale(1 1) rotate(0) translate(4 558.46)">
<title>init_profile_settings_page</title>
<!-- Node1 -->
<g id="Node000001" class="node">
<title>Node1</title>
<g id="a_Node000001"><a xlink:title=" ">
<polygon fill="#999999" stroke="#666666" points="142,-149.75 0,-149.75 0,-129 142,-129 142,-149.75"/>
<text xml:space="preserve" text-anchor="middle" x="71" y="-136.25" font-family="Helvetica,sans-Serif" font-size="10.00">init_profile_settings_page</text>
</a>
</g>
</g>
<!-- Node2 -->
<g id="Node000002" class="node">
<title>Node2</title>
<g id="a_Node000002"><a xlink:href="kest__profile__settings_8c.html#ac5120bad91f723143bd3cf720e860fa5" target="_top" xlink:title=" ">
<polygon fill="white" stroke="#666666" points="350,-435.75 178,-435.75 178,-415 350,-415 350,-435.75"/>
<text xml:space="preserve" text-anchor="middle" x="264" y="-422.25" font-family="Helvetica,sans-Serif" font-size="10.00">configure_profile_settings_page</text>
</a>
</g>
</g>
<!-- Node1&#45;&gt;Node2 -->
<g id="edge1_Node000001_Node000002" class="edge">
<title>Node1&#45;&gt;Node2</title>
<g id="a_edge1_Node000001_Node000002"><a xlink:title=" ">
<path fill="none" stroke="#63b8ff" d="M79.25,-150.24C107.74,-192.89 212.18,-349.27 249.57,-405.26"/>
<polygon fill="#63b8ff" stroke="#63b8ff" points="246.43,-406.87 254.9,-413.24 252.25,-402.98 246.43,-406.87"/>
</a>
</g>
</g>
<!-- Node15 -->
<g id="Node000015" class="node">
<title>Node15</title>
<g id="a_Node000015"><a xlink:href="kest__profile__settings_8c.html#ab05371cb50924acc78762340a22cc585" target="_top" xlink:title=" ">
<polygon fill="white" stroke="#666666" points="327.88,-253.12 200.12,-253.12 200.12,-219.62 327.88,-219.62 327.88,-253.12"/>
<text xml:space="preserve" text-anchor="start" x="208.12" y="-239.62" font-family="Helvetica,sans-Serif" font-size="10.00">create_profile_settings</text>
<text xml:space="preserve" text-anchor="middle" x="264" y="-226.88" font-family="Helvetica,sans-Serif" font-size="10.00">_page_ui</text>
</a>
</g>
</g>
<!-- Node1&#45;&gt;Node15 -->
<g id="edge12_Node000001_Node000015" class="edge">
<title>Node1&#45;&gt;Node15</title>
<g id="a_edge12_Node000001_Node000015"><a xlink:title=" ">
<path fill="none" stroke="#63b8ff" d="M85.28,-150.16C104.63,-165.43 142.19,-193.36 178,-210.38 181.7,-212.13 185.55,-213.81 189.48,-215.4"/>
<polygon fill="#63b8ff" stroke="#63b8ff" points="187.99,-218.58 198.58,-218.86 190.48,-212.03 187.99,-218.58"/>
</a>
</g>
</g>
<!-- Node39 -->
<g id="Node000039" class="node">
<title>Node39</title>
<g id="a_Node000039"><a xlink:href="kest__profile__settings_8c.html#ab28d808a872374950421fb04ae91618b" target="_top" xlink:title=" ">
<polygon fill="white" stroke="#666666" points="322.25,-201.12 205.75,-201.12 205.75,-167.62 322.25,-167.62 322.25,-201.12"/>
<text xml:space="preserve" text-anchor="start" x="213.75" y="-187.62" font-family="Helvetica,sans-Serif" font-size="10.00">free_profile_settings</text>
<text xml:space="preserve" text-anchor="middle" x="264" y="-174.88" font-family="Helvetica,sans-Serif" font-size="10.00">_page_ui</text>
</a>
</g>
</g>
<!-- Node1&#45;&gt;Node39 -->
<g id="edge20_Node000001_Node000039" class="edge">
<title>Node1&#45;&gt;Node39</title>
<g id="a_edge20_Node000001_Node000039"><a xlink:title=" ">
<path fill="none" stroke="#63b8ff" d="M117.75,-150.15C140.63,-155.54 168.8,-162.18 194.22,-168.17"/>
<polygon fill="#63b8ff" stroke="#63b8ff" points="193.29,-171.55 203.82,-170.43 194.89,-164.73 193.29,-171.55"/>
</a>
</g>
</g>
<!-- Node40 -->
<g id="Node000040" class="node">
<title>Node40</title>
<g id="a_Node000040"><a xlink:href="kest__ui_8c.html#aa35b25eb0a8f315343a7ea5190b0163b" target="_top" xlink:title=" ">
<polygon fill="white" stroke="#666666" points="301.62,-149.75 226.38,-149.75 226.38,-129 301.62,-129 301.62,-149.75"/>
<text xml:space="preserve" text-anchor="middle" x="264" y="-136.25" font-family="Helvetica,sans-Serif" font-size="10.00">init_ui_page</text>
</a>
</g>
</g>
<!-- Node1&#45;&gt;Node40 -->
<g id="edge21_Node000001_Node000040" class="edge">
<title>Node1&#45;&gt;Node40</title>
<g id="a_edge21_Node000001_Node000040"><a xlink:title=" ">
<path fill="none" stroke="#63b8ff" d="M142.31,-139.38C166.38,-139.38 192.76,-139.38 214.69,-139.38"/>
<polygon fill="#63b8ff" stroke="#63b8ff" points="214.54,-142.88 224.54,-139.38 214.54,-135.88 214.54,-142.88"/>
</a>
</g>
</g>
<!-- Node41 -->
<g id="Node000041" class="node">
<title>Node41</title>
<g id="a_Node000041"><a xlink:href="kest__ui_8c.html#a01360963fabe989a816b58c78cbc041b" target="_top" xlink:title=" ">
<polygon fill="white" stroke="#666666" points="298.25,-110.75 229.75,-110.75 229.75,-90 298.25,-90 298.25,-110.75"/>
<text xml:space="preserve" text-anchor="middle" x="264" y="-97.25" font-family="Helvetica,sans-Serif" font-size="10.00">new_panel</text>
</a>
</g>
</g>
<!-- Node1&#45;&gt;Node41 -->
<g id="edge22_Node000001_Node000041" class="edge">
<title>Node1&#45;&gt;Node41</title>
<g id="a_edge22_Node000001_Node000041"><a xlink:title=" ">
<path fill="none" stroke="#63b8ff" d="M125.2,-128.51C154.5,-122.53 190.46,-115.19 218.29,-109.5"/>
<polygon fill="#63b8ff" stroke="#63b8ff" points="218.72,-112.99 227.81,-107.56 217.32,-106.13 218.72,-112.99"/>
</a>
</g>
</g>
<!-- Node43 -->
<g id="Node000043" class="node">
<title>Node43</title>
<g id="a_Node000043"><a xlink:href="kest__profile__settings_8c.html#ac43c0a3b55f375eebcf9a2190debf78e" target="_top" xlink:title=" ">
<polygon fill="white" stroke="#666666" points="324.5,-72.12 203.5,-72.12 203.5,-38.62 324.5,-38.62 324.5,-72.12"/>
<text xml:space="preserve" text-anchor="start" x="211.5" y="-58.62" font-family="Helvetica,sans-Serif" font-size="10.00">profile_settings_page</text>
<text xml:space="preserve" text-anchor="middle" x="264" y="-45.88" font-family="Helvetica,sans-Serif" font-size="10.00">_free_all</text>
</a>
</g>
</g>
<!-- Node1&#45;&gt;Node43 -->
<g id="edge25_Node000001_Node000043" class="edge">
<title>Node1&#45;&gt;Node43</title>
<g id="a_edge25_Node000001_Node000043"><a xlink:title=" ">
<path fill="none" stroke="#63b8ff" d="M89.09,-128.6C109.6,-116.01 145.33,-95.14 178,-81.38 182.6,-79.44 187.4,-77.57 192.27,-75.79"/>
<polygon fill="#63b8ff" stroke="#63b8ff" points="193.29,-79.14 201.58,-72.54 190.98,-72.54 193.29,-79.14"/>
</a>
</g>
</g>
<!-- Node44 -->
<g id="Node000044" class="node">
<title>Node44</title>
<g id="a_Node000044"><a xlink:href="kest__profile__settings_8c.html#aa2fe38fff5ba9c6df18b388f22408a5d" target="_top" xlink:title=" ">
<polygon fill="white" stroke="#666666" points="344.38,-20.75 183.62,-20.75 183.62,0 344.38,0 344.38,-20.75"/>
<text xml:space="preserve" text-anchor="middle" x="264" y="-7.25" font-family="Helvetica,sans-Serif" font-size="10.00">refresh_profile_settings_page</text>
</a>
</g>
</g>
<!-- Node1&#45;&gt;Node44 -->
<g id="edge26_Node000001_Node000044" class="edge">
<title>Node1&#45;&gt;Node44</title>
<g id="a_edge26_Node000001_Node000044"><a xlink:title=" ">
<path fill="none" stroke="#63b8ff" d="M79.04,-128.62C94.23,-106.31 132.45,-54.97 178,-29.38 180.63,-27.9 183.36,-26.54 186.17,-25.28"/>
<polygon fill="#63b8ff" stroke="#63b8ff" points="187.17,-28.65 195.19,-21.73 184.61,-22.13 187.17,-28.65"/>
</a>
</g>
</g>
<!-- Node3 -->
<g id="Node000003" class="node">
<title>Node3</title>
<g id="a_Node000003"><a xlink:href="kest__profile_8c.html#aff585ba9940aeb40f695a68deb4094e5" target="_top" xlink:title=" ">
<polygon fill="white" stroke="#666666" points="530.25,-529.12 397.25,-529.12 397.25,-495.62 530.25,-495.62 530.25,-529.12"/>
<text xml:space="preserve" text-anchor="start" x="405.25" y="-515.62" font-family="Helvetica,sans-Serif" font-size="10.00">kest_profile_set_default</text>
<text xml:space="preserve" text-anchor="middle" x="463.75" y="-502.88" font-family="Helvetica,sans-Serif" font-size="10.00">_name_from_id</text>
</a>
</g>
</g>
<!-- Node2&#45;&gt;Node3 -->
<g id="edge2_Node000002_Node000003" class="edge">
<title>Node2&#45;&gt;Node3</title>
<g id="a_edge2_Node000002_Node000003"><a xlink:title=" ">
<path fill="none" stroke="#63b8ff" d="M289.65,-436.22C320.47,-449.78 373.97,-473.32 413.36,-490.65"/>
<polygon fill="#63b8ff" stroke="#63b8ff" points="411.86,-493.81 422.42,-494.63 414.68,-487.4 411.86,-493.81"/>
</a>
</g>
</g>
<!-- Node6 -->
<g id="Node000006" class="node">
<title>Node6</title>
<g id="a_Node000006"><a xlink:href="kest__alloc_8c.html#aed9ede1276c1ab3b4042c264ce64a3d2" target="_top" xlink:title=" ">
<polygon fill="white" stroke="#666666" points="502.88,-462.75 424.62,-462.75 424.62,-442 502.88,-442 502.88,-462.75"/>
<text xml:space="preserve" text-anchor="middle" x="463.75" y="-449.25" font-family="Helvetica,sans-Serif" font-size="10.00">kest_strndup</text>
</a>
</g>
</g>
<!-- Node2&#45;&gt;Node6 -->
<g id="edge5_Node000002_Node000006" class="edge">
<title>Node2&#45;&gt;Node6</title>
<g id="a_edge5_Node000002_Node000006"><a xlink:title=" ">
<path fill="none" stroke="#63b8ff" d="M344.58,-436.24C367.65,-439.39 392.19,-442.74 412.88,-445.57"/>
<polygon fill="#63b8ff" stroke="#63b8ff" points="412.39,-449.03 422.77,-446.92 413.34,-442.1 412.39,-449.03"/>
</a>
</g>
</g>
<!-- Node7 -->
<g id="Node000007" class="node">
<title>Node7</title>
<g id="a_Node000007"><a xlink:href="kest__ui_8c.html#a349acdb394f97d782e6b5828af856b05" target="_top" xlink:title=" ">
<polygon fill="white" stroke="#666666" points="535.12,-415.75 392.38,-415.75 392.38,-395 535.12,-395 535.12,-415.75"/>
<text xml:space="preserve" text-anchor="middle" x="463.75" y="-402.25" font-family="Helvetica,sans-Serif" font-size="10.00">ui_page_add_back_button</text>
</a>
</g>
</g>
<!-- Node2&#45;&gt;Node7 -->
<g id="edge7_Node000002_Node000007" class="edge">
<title>Node2&#45;&gt;Node7</title>
<g id="a_edge7_Node000002_Node000007"><a xlink:title=" ">
<path fill="none" stroke="#63b8ff" d="M350.3,-416.75C360.4,-415.73 370.69,-414.69 380.75,-413.67"/>
<polygon fill="#63b8ff" stroke="#63b8ff" points="380.87,-417.17 390.47,-412.69 380.17,-410.21 380.87,-417.17"/>
</a>
</g>
</g>
<!-- Node4 -->
<g id="Node000004" class="node">
<title>Node4</title>
<g id="a_Node000004"><a xlink:href="kest__alloc_8c.html#a849755c5dc5b35e712ffcdb602e50fb4" target="_top" xlink:title=" ">
<polygon fill="white" stroke="#666666" points="840.5,-426.75 775.75,-426.75 775.75,-406 840.5,-406 840.5,-426.75"/>
<text xml:space="preserve" text-anchor="middle" x="808.12" y="-413.25" font-family="Helvetica,sans-Serif" font-size="10.00">kest_alloc</text>
</a>
</g>
</g>
<!-- Node3&#45;&gt;Node4 -->
<g id="edge3_Node000003_Node000004" class="edge">
<title>Node3&#45;&gt;Node4</title>
<g id="a_edge3_Node000003_Node000004"><a xlink:title=" ">
<path fill="none" stroke="#63b8ff" d="M508.59,-529.55C565.84,-548.99 667.3,-572.9 739.75,-531.38 774.73,-511.33 793.3,-465.31 801.6,-437.95"/>
<polygon fill="#63b8ff" stroke="#63b8ff" points="804.88,-439.2 804.22,-428.63 798.14,-437.31 804.88,-439.2"/>
</a>
</g>
</g>
<!-- Node5 -->
<g id="Node000005" class="node">
<title>Node5</title>
<g id="a_Node000005"><a xlink:href="kest__alloc_8c.html#a294af5728a94aa316fcf65304d388d48" target="_top" xlink:title=" ">
<polygon fill="white" stroke="#666666" points="689.12,-522.75 628.12,-522.75 628.12,-502 689.12,-502 689.12,-522.75"/>
<text xml:space="preserve" text-anchor="middle" x="658.62" y="-509.25" font-family="Helvetica,sans-Serif" font-size="10.00">kest_free</text>
</a>
</g>
</g>
<!-- Node3&#45;&gt;Node5 -->
<g id="edge4_Node000003_Node000005" class="edge">
<title>Node3&#45;&gt;Node5</title>
<g id="a_edge4_Node000003_Node000005"><a xlink:title=" ">
<path fill="none" stroke="#63b8ff" d="M530.59,-512.38C559.04,-512.38 591.45,-512.38 616.42,-512.38"/>
<polygon fill="#63b8ff" stroke="#63b8ff" points="616.16,-515.88 626.16,-512.38 616.16,-508.88 616.16,-515.88"/>
</a>
</g>
</g>
<!-- Node6&#45;&gt;Node4 -->
<g id="edge6_Node000006_Node000004" class="edge">
<title>Node6&#45;&gt;Node4</title>
<g id="a_edge6_Node000006_Node000004"><a xlink:title=" ">
<path fill="none" stroke="#63b8ff" d="M502.92,-459.18C556.78,-467.36 657.67,-477.42 739.75,-455.38 755.82,-451.06 772.01,-441.88 784.49,-433.51"/>
<polygon fill="#63b8ff" stroke="#63b8ff" points="786.23,-436.56 792.4,-427.95 782.21,-430.84 786.23,-436.56"/>
</a>
</g>
</g>
<!-- Node8 -->
<g id="Node000008" class="node">
<title>Node8</title>
<g id="a_Node000008"><a xlink:href="kest__button_8c.html#aa59f296fa9f9744c9753f81484085a15" target="_top" xlink:title=" ">
<polygon fill="white" stroke="#666666" points="720.25,-446.75 597,-446.75 597,-426 720.25,-426 720.25,-446.75"/>
<text xml:space="preserve" text-anchor="middle" x="658.62" y="-433.25" font-family="Helvetica,sans-Serif" font-size="10.00">button_set_clicked_cb</text>
</a>
</g>
</g>
<!-- Node7&#45;&gt;Node8 -->
<g id="edge8_Node000007_Node000008" class="edge">
<title>Node7&#45;&gt;Node8</title>
<g id="a_edge8_Node000007_Node000008"><a xlink:title=" ">
<path fill="none" stroke="#63b8ff" d="M532.21,-416.22C549.41,-418.98 567.96,-421.96 585.39,-424.76"/>
<polygon fill="#63b8ff" stroke="#63b8ff" points="584.73,-428.2 595.16,-426.33 585.84,-421.29 584.73,-428.2"/>
</a>
</g>
</g>
<!-- Node9 -->
<g id="Node000009" class="node">
<title>Node9</title>
<g id="a_Node000009"><a xlink:href="kest__ui_8c.html#af17d8912a520f607796e85d96467cc5a" target="_top" xlink:title=" ">
<polygon fill="#fff0f0" stroke="red" points="720.62,-407.75 596.62,-407.75 596.62,-387 720.62,-387 720.62,-407.75"/>
<text xml:space="preserve" text-anchor="middle" x="658.62" y="-394.25" font-family="Helvetica,sans-Serif" font-size="10.00">enter_parent_page_cb</text>
</a>
</g>
</g>
<!-- Node7&#45;&gt;Node9 -->
<g id="edge9_Node000007_Node000009" class="edge">
<title>Node7&#45;&gt;Node9</title>
<g id="a_edge9_Node000007_Node000009"><a xlink:title=" ">
<path fill="none" stroke="#63b8ff" d="M535.47,-402.44C551.63,-401.77 568.83,-401.06 585.07,-400.38"/>
<polygon fill="#63b8ff" stroke="#63b8ff" points="584.77,-403.9 594.62,-399.99 584.48,-396.91 584.77,-403.9"/>
</a>
</g>
</g>
<!-- Node13 -->
<g id="Node000013" class="node">
<title>Node13</title>
<g id="a_Node000013"><a xlink:href="kest__button_8c.html#afd8846ca469218a65279da29ad72e29b" target="_top" xlink:title=" ">
<polygon fill="#fff0f0" stroke="red" points="695.12,-368.75 622.12,-368.75 622.12,-348 695.12,-348 695.12,-368.75"/>
<text xml:space="preserve" text-anchor="middle" x="658.62" y="-355.25" font-family="Helvetica,sans-Serif" font-size="10.00">new_button</text>
</a>
</g>
</g>
<!-- Node7&#45;&gt;Node13 -->
<g id="edge10_Node000007_Node000013" class="edge">
<title>Node7&#45;&gt;Node13</title>
<g id="a_edge10_Node000007_Node000013"><a xlink:title=" ">
<path fill="none" stroke="#63b8ff" d="M509,-394.59C539.41,-387.18 579.72,-377.36 610.69,-369.81"/>
<polygon fill="#63b8ff" stroke="#63b8ff" points="611.29,-373.27 620.18,-367.5 609.63,-366.47 611.29,-373.27"/>
</a>
</g>
</g>
<!-- Node13&#45;&gt;Node4 -->
<g id="edge11_Node000013_Node000004" class="edge">
<title>Node13&#45;&gt;Node4</title>
<g id="a_edge11_Node000013_Node000004"><a xlink:title=" ">
<path fill="none" stroke="#63b8ff" d="M695.37,-365.14C709.47,-368.36 725.63,-372.75 739.75,-378.38 754.08,-384.08 769.11,-392.32 781.33,-399.66"/>
<polygon fill="#63b8ff" stroke="#63b8ff" points="779.22,-402.47 789.57,-404.75 782.9,-396.52 779.22,-402.47"/>
</a>
</g>
</g>
<!-- Node16 -->
<g id="Node000016" class="node">
<title>Node16</title>
<g id="a_Node000016"><a xlink:href="kest__parameter__widget_8c.html#adbadb9573fa4f9b812f8d270c78053e4" target="_top" xlink:title=" ">
<polygon fill="white" stroke="#666666" points="541.5,-284.75 386,-284.75 386,-264 541.5,-264 541.5,-284.75"/>
<text xml:space="preserve" text-anchor="middle" x="463.75" y="-271.25" font-family="Helvetica,sans-Serif" font-size="10.00">parameter_widget_create_ui</text>
</a>
</g>
</g>
<!-- Node15&#45;&gt;Node16 -->
<g id="edge13_Node000015_Node000016" class="edge">
<title>Node15&#45;&gt;Node16</title>
<g id="a_edge13_Node000015_Node000016"><a xlink:title=" ">
<path fill="none" stroke="#63b8ff" d="M328.11,-248.5C349.48,-252.61 373.43,-257.21 395.13,-261.38"/>
<polygon fill="#63b8ff" stroke="#63b8ff" points="394.28,-264.78 404.76,-263.23 395.6,-257.91 394.28,-264.78"/>
</a>
</g>
</g>
<!-- Node27 -->
<g id="Node000027" class="node">
<title>Node27</title>
<g id="a_Node000027"><a xlink:href="kest__ui_8c.html#a58a68a436917a32cc3daab2e0d4b3245" target="_top" xlink:title=" ">
<polygon fill="white" stroke="#666666" points="530.25,-209.75 397.25,-209.75 397.25,-189 530.25,-189 530.25,-209.75"/>
<text xml:space="preserve" text-anchor="middle" x="463.75" y="-196.25" font-family="Helvetica,sans-Serif" font-size="10.00">ui_page_create_base_ui</text>
</a>
</g>
</g>
<!-- Node15&#45;&gt;Node27 -->
<g id="edge16_Node000015_Node000027" class="edge">
<title>Node15&#45;&gt;Node27</title>
<g id="a_edge16_Node000015_Node000027"><a xlink:title=" ">
<path fill="none" stroke="#63b8ff" d="M328.11,-224.57C349,-220.66 372.35,-216.29 393.66,-212.3"/>
<polygon fill="#63b8ff" stroke="#63b8ff" points="394.25,-215.75 403.44,-210.47 392.97,-208.87 394.25,-215.75"/>
</a>
</g>
</g>
<!-- Node17 -->
<g id="Node000017" class="node">
<title>Node17</title>
<g id="a_Node000017"><a xlink:href="kest__parameter__widget_8c.html#aacedf3a01b62f8fba28c7521a2b64735" target="_top" xlink:title=" ">
<polygon fill="#fff0f0" stroke="red" points="739.75,-329.75 577.5,-329.75 577.5,-309 739.75,-309 739.75,-329.75"/>
<text xml:space="preserve" text-anchor="middle" x="658.62" y="-316.25" font-family="Helvetica,sans-Serif" font-size="10.00">parameter_widget_change_cb</text>
</a>
</g>
</g>
<!-- Node16&#45;&gt;Node17 -->
<g id="edge14_Node000016_Node000017" class="edge">
<title>Node16&#45;&gt;Node17</title>
<g id="a_edge14_Node000016_Node000017"><a xlink:title=" ">
<path fill="none" stroke="#63b8ff" d="M510.95,-285.15C537.71,-291.4 571.63,-299.31 600.11,-305.96"/>
<polygon fill="#63b8ff" stroke="#63b8ff" points="599.13,-309.32 609.66,-308.18 600.72,-302.5 599.13,-309.32"/>
</a>
</g>
</g>
<!-- Node23 -->
<g id="Node000023" class="node">
<title>Node23</title>
<g id="a_Node000023"><a xlink:href="kest__parameter__widget_8c.html#a275a44ab81e73412a3c3da5597906fcc" target="_top" xlink:title=" ">
<polygon fill="#fff0f0" stroke="red" points="729.25,-291.12 588,-291.12 588,-257.62 729.25,-257.62 729.25,-291.12"/>
<text xml:space="preserve" text-anchor="start" x="596" y="-277.62" font-family="Helvetica,sans-Serif" font-size="10.00">parameter_widget_create</text>
<text xml:space="preserve" text-anchor="middle" x="658.62" y="-264.88" font-family="Helvetica,sans-Serif" font-size="10.00">_ui_no_callback</text>
</a>
</g>
</g>
<!-- Node16&#45;&gt;Node23 -->
<g id="edge15_Node000016_Node000023" class="edge">
<title>Node16&#45;&gt;Node23</title>
<g id="a_edge15_Node000016_Node000023"><a xlink:title=" ">
<path fill="none" stroke="#63b8ff" d="M541.81,-274.38C553.14,-274.38 564.85,-274.38 576.26,-274.38"/>
<polygon fill="#63b8ff" stroke="#63b8ff" points="576.04,-277.88 586.04,-274.38 576.04,-270.88 576.04,-277.88"/>
</a>
</g>
</g>
<!-- Node28 -->
<g id="Node000028" class="node">
<title>Node28</title>
<g id="a_Node000028"><a xlink:href="kest__ui_8c.html#ab4d0521ac8d644d34daf9fde74ce1781" target="_top" xlink:title=" ">
<polygon fill="#fff0f0" stroke="red" points="724,-239.12 593.25,-239.12 593.25,-205.62 724,-205.62 724,-239.12"/>
<text xml:space="preserve" text-anchor="start" x="601.25" y="-225.62" font-family="Helvetica,sans-Serif" font-size="10.00">ui_page_create_bottom</text>
<text xml:space="preserve" text-anchor="middle" x="658.62" y="-212.88" font-family="Helvetica,sans-Serif" font-size="10.00">_buttons</text>
</a>
</g>
</g>
<!-- Node27&#45;&gt;Node28 -->
<g id="edge17_Node000027_Node000028" class="edge">
<title>Node27&#45;&gt;Node28</title>
<g id="a_edge17_Node000027_Node000028"><a xlink:title=" ">
<path fill="none" stroke="#63b8ff" d="M530.59,-207.23C547.15,-209.2 565.05,-211.34 582.05,-213.36"/>
<polygon fill="#63b8ff" stroke="#63b8ff" points="581.22,-216.79 591.56,-214.5 582.05,-209.84 581.22,-216.79"/>
</a>
</g>
</g>
<!-- Node30 -->
<g id="Node000030" class="node">
<title>Node30</title>
<g id="a_Node000030"><a xlink:href="kest__ui_8c.html#a1d4879268198647d06d247db21e13f1b" target="_top" xlink:title=" ">
<polygon fill="#fff0f0" stroke="red" points="729.25,-187.75 588,-187.75 588,-167 729.25,-167 729.25,-187.75"/>
<text xml:space="preserve" text-anchor="middle" x="658.62" y="-174.25" font-family="Helvetica,sans-Serif" font-size="10.00">ui_page_create_container</text>
</a>
</g>
</g>
<!-- Node27&#45;&gt;Node30 -->
<g id="edge18_Node000027_Node000030" class="edge">
<title>Node27&#45;&gt;Node30</title>
<g id="a_edge18_Node000027_Node000030"><a xlink:title=" ">
<path fill="none" stroke="#63b8ff" d="M530.59,-191.87C545.43,-190.17 561.35,-188.36 576.73,-186.6"/>
<polygon fill="#63b8ff" stroke="#63b8ff" points="576.76,-190.12 586.3,-185.51 575.97,-183.17 576.76,-190.12"/>
</a>
</g>
</g>
<!-- Node37 -->
<g id="Node000037" class="node">
<title>Node37</title>
<g id="a_Node000037"><a xlink:href="kest__ui_8c.html#ab16753d26193cafda5dd736999b6880c" target="_top" xlink:title=" ">
<polygon fill="#fff0f0" stroke="red" points="727,-148.75 590.25,-148.75 590.25,-128 727,-128 727,-148.75"/>
<text xml:space="preserve" text-anchor="middle" x="658.62" y="-135.25" font-family="Helvetica,sans-Serif" font-size="10.00">ui_page_create_panel_ui</text>
</a>
</g>
</g>
<!-- Node27&#45;&gt;Node37 -->
<g id="edge19_Node000027_Node000037" class="edge">
<title>Node27&#45;&gt;Node37</title>
<g id="a_edge19_Node000027_Node000037"><a xlink:title=" ">
<path fill="none" stroke="#63b8ff" d="M491.82,-188.63C514.5,-179.85 547.82,-167.45 577.5,-158.38 584.69,-156.18 592.29,-154.04 599.83,-152.04"/>
<polygon fill="#63b8ff" stroke="#63b8ff" points="600.53,-155.47 609.33,-149.57 598.77,-148.7 600.53,-155.47"/>
</a>
</g>
</g>
<!-- Node41&#45;&gt;Node4 -->
<g id="edge24_Node000041_Node000004" class="edge">
<title>Node41&#45;&gt;Node4</title>
<g id="a_edge24_Node000041_Node000004"><a xlink:title=" ">
<path fill="none" stroke="#63b8ff" d="M298.68,-96.67C395.7,-86.74 673.08,-63.92 739.75,-119.38 782.44,-154.88 800.43,-332.04 805.52,-394.52"/>
<polygon fill="#63b8ff" stroke="#63b8ff" points="802.01,-394.51 806.27,-404.21 808.98,-393.96 802.01,-394.51"/>
</a>
</g>
</g>
<!-- Node42 -->
<g id="Node000042" class="node">
<title>Node42</title>
<g id="a_Node000042"><a xlink:href="kest__ui_8c.html#a574d886c7fb2ce9bcf04b4a1e94576ac" target="_top" xlink:title=" ">
<polygon fill="white" stroke="#666666" points="495.75,-72.75 431.75,-72.75 431.75,-52 495.75,-52 495.75,-72.75"/>
<text xml:space="preserve" text-anchor="middle" x="463.75" y="-59.25" font-family="Helvetica,sans-Serif" font-size="10.00">init_panel</text>
</a>
</g>
</g>
<!-- Node41&#45;&gt;Node42 -->
<g id="edge23_Node000041_Node000042" class="edge">
<title>Node41&#45;&gt;Node42</title>
<g id="a_edge23_Node000041_Node000042"><a xlink:title=" ">
<path fill="none" stroke="#63b8ff" d="M298.55,-93.93C332.05,-87.49 383.68,-77.57 420.09,-70.57"/>
<polygon fill="#63b8ff" stroke="#63b8ff" points="420.68,-74.02 429.84,-68.7 419.36,-67.15 420.68,-74.02"/>
</a>
</g>
</g>
</g>
</svg>
