<?xml version="1.0" encoding="UTF-8" standalone="no"?>
<!DOCTYPE svg PUBLIC "-//W3C//DTD SVG 1.1//EN"
 "http://www.w3.org/Graphics/SVG/1.1/DTD/svg11.dtd">
<!-- Generated by graphviz version 13.1.2 (20250808.2320)
 -->
<!-- Title: cxt_remove_effect Pages: 1 -->
<!--zoomable 149 -->

<svg id="main" version="1.1" xmlns="http://www.w3.org/2000/svg" xmlns:xlink="http://www.w3.org/1999/xlink" xml:space="preserve" onload="init(evt)">

<style type="text/css"><![CDATA[
.node, .edge {opacity: 0.7;}
.node.selected, .edge.selected {opacity: 1;}
.edge:hover path { stroke: red; }
.edge:hover polygon { stroke: red; fill: red; }
]]></style>

<defs>
  <circle id="rim" cx="0" cy="0" r="7"/>
  <circle id="rim2" cx="0" cy="0" r="3.5"/>
  <g id="zoomPlus">
    <use xlink:href="#rim" fill="#404040"><set attributeName="fill" to="#808080" begin="zoomplus.mouseover" end="zoomplus.mouseout"/></use>
    <path d="M-4,0h8M0,-4v8" fill="none" stroke="white" stroke-width="1.5" pointer-events="none"/>
  </g>
  <g id="zoomMin">
    <use xlink:href="#rim" fill="#404040"><set attributeName="fill" to="#808080" begin="zoomminus.mouseover" end="zoomminus.mouseout"/></use>
    <path d="M-4,0h8" fill="none" stroke="white" stroke-width="1.5" pointer-events="none"/>
  </g>
  <g id="arrowUp" transform="translate(30 24)">
    <use xlink:href="#rim"/>
    <path pointer-events="none" fill="none" stroke="white" stroke-width="1.5" d="M0,-3.0v7 M-2.5,-0.5L0,-3.0L2.5,-0.5"/>
  </g>
  <g id="arrowRight" transform="rotate(90) translate(36 -43)">
    <use xlink:href="#rim"/>
    <path pointer-events="none" fill="none" stroke="white" stroke-width="1.5" d="M0,-3.0v7 M-2.5,-0.5L0,-3.0L2.5,-0.5"/>
  </g>
  <g id="arrowDown" transform="rotate(180) translate(-30 -48)">
    <use xlink:href="#rim"/>
    <path pointer-events="none" fill="none" stroke="white" stroke-width="1.5" d="M0,-3.0v7 M-2.5,-0.5L0,-3.0L2.5,-0.5"/>
  </g>
  <g id="arrowLeft" transform="rotate(270) translate(-36 17)">
    <use xlink:href="#rim"/>
    <path pointer-events="none" fill="none" stroke="white" stroke-width="1.5" d="M0,-3.0v7 M-2.5,-0.5L0,-3.0L2.5,-0.5"/>
  </g>
  <g id="resetDef">
    <use xlink:href="#rim2" fill="#404040"><set attributeName="fill" to="#808080" begin="reset.mouseover" end="reset.mouseout"/></use>
  </g>
</defs>
<script type="application/ecmascript">
var viewWidth = 758;
var viewHeight = 149;
var sectionId = 'dynsection-17';
</script>
<script type="application/ecmascript" xlink:href="svg.min.js"/>
<svg id="graph" class="graph">
<g id="viewport">
<title>cxt_remove_effect</title>
<!-- Node1 -->
<g id="Node000001" class="node">
<title>Node1</title>
<g id="a_Node000001"><a xlink:title=" ">
<polygon fill="#999999" stroke="#666666" points="107.5,-117.75 0,-117.75 0,-97 107.5,-97 107.5,-117.75"/>
<text xml:space="preserve" text-anchor="middle" x="53.75" y="-104.25" font-family="Helvetica,sans-Serif" font-size="10.00">cxt_remove_effect</text>
</a>
</g>
</g>
<!-- Node2 -->
<g id="Node000002" class="node">
<title>Node2</title>
<g id="a_Node000002"><a xlink:href="kest__context_8c.html#a8a0da058a66a81e046c9dbe0394cb1b8" target="_top" xlink:title=" ">
<polygon fill="white" stroke="#666666" points="263.75,-140.75 143.5,-140.75 143.5,-120 263.75,-120 263.75,-140.75"/>
<text xml:space="preserve" text-anchor="middle" x="203.62" y="-127.25" font-family="Helvetica,sans-Serif" font-size="10.00">cxt_get_profile_by_id</text>
</a>
</g>
</g>
<!-- Node1&#45;&gt;Node2 -->
<g id="edge1_Node000001_Node000002" class="edge">
<title>Node1&#45;&gt;Node2</title>
<g id="a_edge1_Node000001_Node000002"><a xlink:title=" ">
<path fill="none" stroke="#63b8ff" d="M107.72,-115.61C115.64,-116.85 123.91,-118.13 132.12,-119.41"/>
<polygon fill="#63b8ff" stroke="#63b8ff" points="131.33,-122.83 141.75,-120.91 132.41,-115.91 131.33,-122.83"/>
</a>
</g>
</g>
<!-- Node3 -->
<g id="Node000003" class="node">
<title>Node3</title>
<g id="a_Node000003"><a xlink:href="kest__profile_8c.html#a25cea119219eee39a50e7433a8b914d6" target="_top" xlink:title=" ">
<polygon fill="white" stroke="#666666" points="261.5,-102.12 145.75,-102.12 145.75,-68.62 261.5,-68.62 261.5,-102.12"/>
<text xml:space="preserve" text-anchor="start" x="153.75" y="-88.62" font-family="Helvetica,sans-Serif" font-size="10.00">kest_profile_remove</text>
<text xml:space="preserve" text-anchor="middle" x="203.62" y="-75.88" font-family="Helvetica,sans-Serif" font-size="10.00">_effect</text>
</a>
</g>
</g>
<!-- Node1&#45;&gt;Node3 -->
<g id="edge2_Node000001_Node000003" class="edge">
<title>Node1&#45;&gt;Node3</title>
<g id="a_edge2_Node000001_Node000003"><a xlink:title=" ">
<path fill="none" stroke="#63b8ff" d="M107.72,-99.49C116.28,-98.22 125.26,-96.89 134.13,-95.57"/>
<polygon fill="#63b8ff" stroke="#63b8ff" points="134.4,-99.06 143.77,-94.13 133.37,-92.14 134.4,-99.06"/>
</a>
</g>
</g>
<!-- Node4 -->
<g id="Node000004" class="node">
<title>Node4</title>
<g id="a_Node000004"><a xlink:href="kest__error__codes_8c.html#a0f4c77127bc0b77264a21104979c576a" target="_top" xlink:title=" ">
<polygon fill="white" stroke="#666666" points="749.75,-116.12 641.5,-116.12 641.5,-82.62 749.75,-82.62 749.75,-116.12"/>
<text xml:space="preserve" text-anchor="start" x="649.5" y="-102.62" font-family="Helvetica,sans-Serif" font-size="10.00">kest_error_code_to</text>
<text xml:space="preserve" text-anchor="middle" x="695.62" y="-89.88" font-family="Helvetica,sans-Serif" font-size="10.00">_string</text>
</a>
</g>
</g>
<!-- Node3&#45;&gt;Node4 -->
<g id="edge3_Node000003_Node000004" class="edge">
<title>Node3&#45;&gt;Node4</title>
<g id="a_edge3_Node000003_Node000004"><a xlink:title=" ">
<path fill="none" stroke="#63b8ff" d="M257.44,-102.49C271.08,-106.17 285.84,-109.51 299.75,-111.38 415.24,-126.87 551.35,-116.52 629.85,-107.79"/>
<polygon fill="#63b8ff" stroke="#63b8ff" points="629.97,-111.3 639.51,-106.69 629.17,-104.35 629.97,-111.3"/>
</a>
</g>
</g>
<!-- Node5 -->
<g id="Node000005" class="node">
<title>Node5</title>
<g id="a_Node000005"><a xlink:href="kest__pipeline_8c.html#a73cdb3a338dc34668b63859d87ba81b9" target="_top" xlink:title=" ">
<polygon fill="white" stroke="#666666" points="423,-50.12 299.75,-50.12 299.75,-16.62 423,-16.62 423,-50.12"/>
<text xml:space="preserve" text-anchor="start" x="307.75" y="-36.62" font-family="Helvetica,sans-Serif" font-size="10.00">kest_pipeline_remove</text>
<text xml:space="preserve" text-anchor="middle" x="361.38" y="-23.88" font-family="Helvetica,sans-Serif" font-size="10.00">_effect</text>
</a>
</g>
</g>
<!-- Node3&#45;&gt;Node5 -->
<g id="edge4_Node000003_Node000005" class="edge">
<title>Node3&#45;&gt;Node5</title>
<g id="a_edge4_Node000003_Node000005"><a xlink:title=" ">
<path fill="none" stroke="#63b8ff" d="M256.06,-68.2C269.54,-63.7 284.23,-58.8 298.21,-54.13"/>
<polygon fill="#63b8ff" stroke="#63b8ff" points="298.92,-57.58 307.3,-51.1 296.7,-50.94 298.92,-57.58"/>
</a>
</g>
</g>
<!-- Node14 -->
<g id="Node000014" class="node">
<title>Node14</title>
<g id="a_Node000014"><a xlink:href="kest__profile_8c.html#a1943b8bd24ec344d5f80fcb7fb4ca297" target="_top" xlink:title=" ">
<polygon fill="white" stroke="#666666" points="421.5,-102.12 301.25,-102.12 301.25,-68.62 421.5,-68.62 421.5,-102.12"/>
<text xml:space="preserve" text-anchor="start" x="309.25" y="-88.62" font-family="Helvetica,sans-Serif" font-size="10.00">kest_profile_if_active</text>
<text xml:space="preserve" text-anchor="middle" x="361.38" y="-75.88" font-family="Helvetica,sans-Serif" font-size="10.00">_update_fpga</text>
</a>
</g>
</g>
<!-- Node3&#45;&gt;Node14 -->
<g id="edge8_Node000003_Node000014" class="edge">
<title>Node3&#45;&gt;Node14</title>
<g id="a_edge8_Node000003_Node000014"><a xlink:title=" ">
<path fill="none" stroke="#63b8ff" d="M261.74,-85.38C270.81,-85.38 280.29,-85.38 289.63,-85.38"/>
<polygon fill="#63b8ff" stroke="#63b8ff" points="289.4,-88.88 299.4,-85.38 289.4,-81.88 289.4,-88.88"/>
</a>
</g>
</g>
<!-- Node6 -->
<g id="Node000006" class="node">
<title>Node6</title>
<g id="a_Node000006"><a xlink:href="kest__effect_8c.html#a09f04708e6ffd20ecaba2c10460cb1eb" target="_top" xlink:title=" ">
<polygon fill="#fff0f0" stroke="red" points="566.88,-20.75 497.62,-20.75 497.62,0 566.88,0 566.88,-20.75"/>
<text xml:space="preserve" text-anchor="middle" x="532.25" y="-7.25" font-family="Helvetica,sans-Serif" font-size="10.00">free_effect</text>
</a>
</g>
</g>
<!-- Node5&#45;&gt;Node6 -->
<g id="edge5_Node000005_Node000006" class="edge">
<title>Node5&#45;&gt;Node6</title>
<g id="a_edge5_Node000005_Node000006"><a xlink:title=" ">
<path fill="none" stroke="#63b8ff" d="M423.34,-25.07C444.1,-22.25 466.9,-19.14 486.18,-16.51"/>
<polygon fill="#63b8ff" stroke="#63b8ff" points="486.44,-20.01 495.88,-15.19 485.5,-13.07 486.44,-20.01"/>
</a>
</g>
</g>
<!-- Node9 -->
<g id="Node000009" class="node">
<title>Node9</title>
<g id="a_Node000009"><a xlink:href="kest__alloc_8c.html#a294af5728a94aa316fcf65304d388d48" target="_top" xlink:title=" ">
<polygon fill="white" stroke="#666666" points="726.12,-47.75 665.12,-47.75 665.12,-27 726.12,-27 726.12,-47.75"/>
<text xml:space="preserve" text-anchor="middle" x="695.62" y="-34.25" font-family="Helvetica,sans-Serif" font-size="10.00">kest_free</text>
</a>
</g>
</g>
<!-- Node5&#45;&gt;Node9 -->
<g id="edge7_Node000005_Node000009" class="edge">
<title>Node5&#45;&gt;Node9</title>
<g id="a_edge7_Node000005_Node000009"><a xlink:title=" ">
<path fill="none" stroke="#63b8ff" d="M423.31,-34.11C490.27,-34.91 595.94,-36.19 653.66,-36.88"/>
<polygon fill="#63b8ff" stroke="#63b8ff" points="653.32,-40.38 663.36,-37 653.4,-33.38 653.32,-40.38"/>
</a>
</g>
</g>
<!-- Node6&#45;&gt;Node9 -->
<g id="edge6_Node000006_Node000009" class="edge">
<title>Node6&#45;&gt;Node9</title>
<g id="a_edge6_Node000006_Node000009"><a xlink:title=" ">
<path fill="none" stroke="#63b8ff" d="M567.08,-16.04C592.2,-20.24 626.59,-25.99 653.33,-30.47"/>
<polygon fill="#63b8ff" stroke="#63b8ff" points="652.71,-33.91 663.15,-32.11 653.87,-27.01 652.71,-33.91"/>
</a>
</g>
</g>
<!-- Node15 -->
<g id="Node000015" class="node">
<title>Node15</title>
<g id="a_Node000015"><a xlink:href="kest__profile_8c.html#a23cd63c025729fe28dbd76f64ce43f0d" target="_top" xlink:title=" ">
<polygon fill="#fff0f0" stroke="red" points="605.5,-99.75 459,-99.75 459,-79 605.5,-79 605.5,-99.75"/>
<text xml:space="preserve" text-anchor="middle" x="532.25" y="-86.25" font-family="Helvetica,sans-Serif" font-size="10.00">kest_profile_program_fpga</text>
</a>
</g>
</g>
<!-- Node14&#45;&gt;Node15 -->
<g id="edge9_Node000014_Node000015" class="edge">
<title>Node14&#45;&gt;Node15</title>
<g id="a_edge9_Node000014_Node000015"><a xlink:title=" ">
<path fill="none" stroke="#63b8ff" d="M421.91,-86.79C430.17,-86.98 438.77,-87.18 447.36,-87.39"/>
<polygon fill="#63b8ff" stroke="#63b8ff" points="447.03,-90.88 457.11,-87.62 447.2,-83.88 447.03,-90.88"/>
</a>
</g>
</g>
<!-- Node15&#45;&gt;Node4 -->
<g id="edge10_Node000015_Node000004" class="edge">
<title>Node15&#45;&gt;Node4</title>
<g id="a_edge10_Node000015_Node000004"><a xlink:title=" ">
<path fill="none" stroke="#63b8ff" d="M605.91,-93.88C613.89,-94.37 621.98,-94.87 629.86,-95.36"/>
<polygon fill="#63b8ff" stroke="#63b8ff" points="629.5,-98.85 639.7,-95.97 629.93,-91.86 629.5,-98.85"/>
</a>
</g>
</g>
</g>
</svg>

<g id="navigator" transform="translate(0 0)" fill="#404254">
  <rect fill="#f2f5e9" fill-opacity="0.5" stroke="#606060" stroke-width=".5" x="0" y="0" width="60" height="60"/>
  <use id="zoomplus" xlink:href="#zoomPlus" x="17" y="9" onmousedown="handleZoom(evt,'in')"/>
  <use id="zoomminus" xlink:href="#zoomMin" x="42" y="9" onmousedown="handleZoom(evt,'out')"/>
  <use id="reset" xlink:href="#resetDef" x="30" y="36" onmousedown="handleReset()"/>
   <use id="arrowup" xlink:href="#arrowUp" x="0" y="0" onmousedown="handlePan(0,-1)"/>
  <use id="arrowright" xlink:href="#arrowRight" x="0" y="0" onmousedown="handlePan(1,0)"/>
  <use id="arrowdown" xlink:href="#arrowDown" x="0" y="0" onmousedown="handlePan(0,1)"/>
  <use id="arrowleft" xlink:href="#arrowLeft" x="0" y="0" onmousedown="handlePan(-1,0)"/>
</g>
<svg viewBox="0 0 15 15" width="100%" height="30px" preserveAspectRatio="xMaxYMin meet">
 <g id="arrow_out" transform="scale(0.3 0.3)">
  <a xlink:href="kest__context_8h_a3dabfbe87edbacbacf5badc8db3fd629_cgraph_org.svg" target="_base">
   <rect id="button" ry="5" rx="5" y="6" x="6" height="38" width="38"
        fill="#f2f5e9" fill-opacity="0.5" stroke="#606060" stroke-width="1.0"/>
   <path id="arrow"
     d="M 11.500037,31.436501 C 11.940474,20.09759 22.043105,11.32322 32.158766,21.979434 L 37.068811,17.246167 C 37.068811,17.246167 37.088388,32 37.088388,32 L 22.160133,31.978069 C 22.160133,31.978069 26.997745,27.140456 26.997745,27.140456 C 18.528582,18.264221 13.291696,25.230495 11.500037,31.436501 z"
     style="fill:#404040;"/>
  </a>
 </g>
</svg>

<style type='text/css'>
<![CDATA[
[data-mouse-over-selected='false'] { opacity: 0.7; }
[data-mouse-over-selected='true']  { opacity: 1.0; }
]]>
</style>
<script type="application/ecmascript"><![CDATA[
document.addEventListener('DOMContentLoaded', (event) => {
  highlightEdges();
  highlightAdjacentNodes();
});
]]></script>
</svg>
