<?xml version="1.0" encoding="UTF-8" standalone="no"?>
<!DOCTYPE svg PUBLIC "-//W3C//DTD SVG 1.1//EN"
 "http://www.w3.org/Graphics/SVG/1.1/DTD/svg11.dtd">
<!-- Generated by graphviz version 13.1.2 (20250808.2320)
 -->
<!-- Title: kest_block_instr_format Pages: 1 -->
<svg width="658pt" height="42pt"
 viewBox="0.00 0.00 658.00 42.00" xmlns="http://www.w3.org/2000/svg" xmlns:xlink="http://www.w3.org/1999/xlink">
<g id="graph0" class="graph" transform="scale(1 1) rotate(0) translate(4 37.5)">
<title>kest_block_instr_format</title>
<!-- Node1 -->
<g id="Node000001" class="node">
<title>Node1</title>
<g id="a_Node000001"><a xlink:title=" ">
<polygon fill="#999999" stroke="#666666" points="649.75,-27.12 516.75,-27.12 516.75,-6.38 649.75,-6.38 649.75,-27.12"/>
<text xml:space="preserve" text-anchor="middle" x="583.25" y="-13.62" font-family="Helvetica,sans-Serif" font-size="10.00">kest_block_instr_format</text>
</a>
</g>
</g>
<!-- Node2 -->
<g id="Node000002" class="node">
<title>Node2</title>
<g id="a_Node000002"><a xlink:href="kest__fpga__encoding_8c.html#a2e8aa45bdd1fc75e8d054d63628dea8a" target="_top" xlink:title=" ">
<polygon fill="white" stroke="#666666" points="480.75,-33.5 345.5,-33.5 345.5,0 480.75,0 480.75,-33.5"/>
<text xml:space="preserve" text-anchor="start" x="353.5" y="-20" font-family="Helvetica,sans-Serif" font-size="10.00">kest_block_instr_encode</text>
<text xml:space="preserve" text-anchor="middle" x="413.12" y="-7.25" font-family="Helvetica,sans-Serif" font-size="10.00">_resource_aware</text>
</a>
</g>
</g>
<!-- Node1&#45;&gt;Node2 -->
<g id="edge1_Node000001_Node000002" class="edge">
<title>Node1&#45;&gt;Node2</title>
<g id="a_edge1_Node000001_Node000002"><a xlink:title=" ">
<path fill="none" stroke="#63b8ff" d="M505.03,-16.75C497.01,-16.75 488.9,-16.75 481,-16.75"/>
<polygon fill="#63b8ff" stroke="#63b8ff" points="504.77,-20.25 514.77,-16.75 504.77,-13.25 504.77,-20.25"/>
</a>
</g>
</g>
<!-- Node3 -->
<g id="Node000003" class="node">
<title>Node3</title>
<g id="a_Node000003"><a xlink:href="kest__fpga__encoding_8c.html#a1e92fe0ff4b72e00fa5d840ec96508c7" target="_top" xlink:title=" ">
<polygon fill="white" stroke="#666666" points="309.5,-33.5 172.75,-33.5 172.75,0 309.5,0 309.5,-33.5"/>
<text xml:space="preserve" text-anchor="start" x="180.75" y="-20" font-family="Helvetica,sans-Serif" font-size="10.00">kest_fpga_batch_append</text>
<text xml:space="preserve" text-anchor="middle" x="241.12" y="-7.25" font-family="Helvetica,sans-Serif" font-size="10.00">_block_instr</text>
</a>
</g>
</g>
<!-- Node2&#45;&gt;Node3 -->
<g id="edge2_Node000002_Node000003" class="edge">
<title>Node2&#45;&gt;Node3</title>
<g id="a_edge2_Node000002_Node000003"><a xlink:title=" ">
<path fill="none" stroke="#63b8ff" d="M334.04,-16.75C325.93,-16.75 317.73,-16.75 309.75,-16.75"/>
<polygon fill="#63b8ff" stroke="#63b8ff" points="333.91,-20.25 343.91,-16.75 333.91,-13.25 333.91,-20.25"/>
</a>
</g>
</g>
<!-- Node4 -->
<g id="Node000004" class="node">
<title>Node4</title>
<g id="a_Node000004"><a xlink:href="kest__fpga__encoding_8c.html#a793b1841a47fcdbddc9d0aa5b6eec343" target="_top" xlink:title=" ">
<polygon fill="#fff0f0" stroke="red" points="136.75,-33.5 0,-33.5 0,0 136.75,0 136.75,-33.5"/>
<text xml:space="preserve" text-anchor="start" x="8" y="-20" font-family="Helvetica,sans-Serif" font-size="10.00">kest_fpga_batch_append</text>
<text xml:space="preserve" text-anchor="middle" x="68.38" y="-7.25" font-family="Helvetica,sans-Serif" font-size="10.00">_block</text>
</a>
</g>
</g>
<!-- Node3&#45;&gt;Node4 -->
<g id="edge3_Node000003_Node000004" class="edge">
<title>Node3&#45;&gt;Node4</title>
<g id="a_edge3_Node000003_Node000004"><a xlink:title=" ">
<path fill="none" stroke="#63b8ff" d="M161.33,-16.75C153.27,-16.75 145.13,-16.75 137.21,-16.75"/>
<polygon fill="#63b8ff" stroke="#63b8ff" points="161.13,-20.25 171.13,-16.75 161.13,-13.25 161.13,-20.25"/>
</a>
</g>
</g>
</g>
</svg>
