<?xml version="1.0" encoding="UTF-8" standalone="no"?>
<!DOCTYPE svg PUBLIC "-//W3C//DTD SVG 1.1//EN"
 "http://www.w3.org/Graphics/SVG/1.1/DTD/svg11.dtd">
<!-- Generated by graphviz version 13.1.2 (20250808.2320)
 -->
<!-- Title: seq_view_delete_cb Pages: 1 -->
<!--zoomable 118 -->

<svg id="main" version="1.1" xmlns="http://www.w3.org/2000/svg" xmlns:xlink="http://www.w3.org/1999/xlink" xml:space="preserve" onload="init(evt)">

<style type="text/css"><![CDATA[
.node, .edge {opacity: 0.7;}
.node.selected, .edge.selected {opacity: 1;}
.edge:hover path { stroke: red; }
.edge:hover polygon { stroke: red; fill: red; }
]]></style>

<defs>
  <circle id="rim" cx="0" cy="0" r="7"/>
  <circle id="rim2" cx="0" cy="0" r="3.5"/>
  <g id="zoomPlus">
    <use xlink:href="#rim" fill="#404040"><set attributeName="fill" to="#808080" begin="zoomplus.mouseover" end="zoomplus.mouseout"/></use>
    <path d="M-4,0h8M0,-4v8" fill="none" stroke="white" stroke-width="1.5" pointer-events="none"/>
  </g>
  <g id="zoomMin">
    <use xlink:href="#rim" fill="#404040"><set attributeName="fill" to="#808080" begin="zoomminus.mouseover" end="zoomminus.mouseout"/></use>
    <path d="M-4,0h8" fill="none" stroke="white" stroke-width="1.5" pointer-events="none"/>
  </g>
  <g id="arrowUp" transform="translate(30 24)">
    <use xlink:href="#rim"/>
    <path pointer-events="none" fill="none" stroke="white" stroke-width="1.5" d="M0,-3.0v7 M-2.5,-0.5L0,-3.0L2.5,-0.5"/>
  </g>
  <g id="arrowRight" transform="rotate(90) translate(36 -43)">
    <use xlink:href="#rim"/>
    <path pointer-events="none" fill="none" stroke="white" stroke-width="1.5" d="M0,-3.0v7 M-2.5,-0.5L0,-3.0L2.5,-0.5"/>
  </g>
  <g id="arrowDown" transform="rotate(180) translate(-30 -48)">
    <use xlink:href="#rim"/>
    <path pointer-events="none" fill="none" stroke="white" stroke-width="1.5" d="M0,-3.0v7 M-2.5,-0.5L0,-3.0L2.5,-0.5"/>
  </g>
  <g id="arrowLeft" transform="rotate(270) translate(-36 17)">
    <use xlink:href="#rim"/>
    <path pointer-events="none" fill="none" stroke="white" stroke-width="1.5" d="M0,-3.0v7 M-2.5,-0.5L0,-3.0L2.5,-0.5"/>
  </g>
  <g id="resetDef">
    <use xlink:href="#rim2" fill="#404040"><set attributeName="fill" to="#808080" begin="reset.mouseover" end="reset.mouseout"/></use>
  </g>
</defs>
<script type="application/ecmascript">
var viewWidth = 709;
var viewHeight = 118;
var sectionId = 'dynsection-16';
</script>
<script type="application/ecmascript" xlink:href="svg.min.js"/>
<svg id="graph" class="graph">
<g id="viewport">
<title>seq_view_delete_cb</title>
<!-- Node1 -->
<g id="Node000001" class="node">
<title>Node1</title>
<g id="a_Node000001"><a xlink:title=" ">
<polygon fill="#999999" stroke="#666666" points="114.25,-87.12 0,-87.12 0,-66.38 114.25,-66.38 114.25,-87.12"/>
<text xml:space="preserve" text-anchor="middle" x="57.12" y="-73.62" font-family="Helvetica,sans-Serif" font-size="10.00">seq_view_delete_cb</text>
</a>
</g>
</g>
<!-- Node2 -->
<g id="Node000002" class="node">
<title>Node2</title>
<g id="a_Node000002"><a xlink:href="kest__sequence_8c.html#a8e1bb657ea395200ce33bd762732bbdb" target="_top" xlink:title=" ">
<polygon fill="white" stroke="#666666" points="274.25,-93.5 150.25,-93.5 150.25,-60 274.25,-60 274.25,-93.5"/>
<text xml:space="preserve" text-anchor="start" x="158.25" y="-80" font-family="Helvetica,sans-Serif" font-size="10.00">kest_sequence_delete</text>
<text xml:space="preserve" text-anchor="middle" x="212.25" y="-67.25" font-family="Helvetica,sans-Serif" font-size="10.00">_profile</text>
</a>
</g>
</g>
<!-- Node1&#45;&gt;Node2 -->
<g id="edge1_Node000001_Node000002" class="edge">
<title>Node1&#45;&gt;Node2</title>
<g id="a_edge1_Node000001_Node000002"><a xlink:title=" ">
<path fill="none" stroke="#63b8ff" d="M114.71,-76.75C122.38,-76.75 130.34,-76.75 138.24,-76.75"/>
<polygon fill="#63b8ff" stroke="#63b8ff" points="138.24,-80.25 148.24,-76.75 138.24,-73.25 138.24,-80.25"/>
</a>
</g>
</g>
<!-- Node3 -->
<g id="Node000003" class="node">
<title>Node3</title>
<g id="a_Node000003"><a xlink:href="kest__profile_8c.html#ab38a025bc4dfed358b6a783cffbda73d" target="_top" xlink:title=" ">
<polygon fill="white" stroke="#666666" points="424.5,-110.12 326.75,-110.12 326.75,-89.38 424.5,-89.38 424.5,-110.12"/>
<text xml:space="preserve" text-anchor="middle" x="375.62" y="-96.62" font-family="Helvetica,sans-Serif" font-size="10.00">kest_free_profile</text>
</a>
</g>
</g>
<!-- Node2&#45;&gt;Node3 -->
<g id="edge2_Node000002_Node000003" class="edge">
<title>Node2&#45;&gt;Node3</title>
<g id="a_edge2_Node000002_Node000003"><a xlink:title=" ">
<path fill="none" stroke="#63b8ff" d="M274.72,-85.51C287.95,-87.4 301.91,-89.39 315.06,-91.26"/>
<polygon fill="#63b8ff" stroke="#63b8ff" points="314.48,-94.71 324.87,-92.66 315.47,-87.78 314.48,-94.71"/>
</a>
</g>
</g>
<!-- Node15 -->
<g id="Node000015" class="node">
<title>Node15</title>
<g id="a_Node000015"><a xlink:href="kest__sequence_8c.html#a48fa9a10b57d5305e1d65c8bbe179555" target="_top" xlink:title=" ">
<polygon fill="white" stroke="#666666" points="441,-71.5 310.25,-71.5 310.25,-38 441,-38 441,-71.5"/>
<text xml:space="preserve" text-anchor="start" x="318.25" y="-58" font-family="Helvetica,sans-Serif" font-size="10.00">kest_sequence_remove</text>
<text xml:space="preserve" text-anchor="middle" x="375.62" y="-45.25" font-family="Helvetica,sans-Serif" font-size="10.00">_profile</text>
</a>
</g>
</g>
<!-- Node2&#45;&gt;Node15 -->
<g id="edge5_Node000002_Node000015" class="edge">
<title>Node2&#45;&gt;Node15</title>
<g id="a_edge5_Node000002_Node000015"><a xlink:title=" ">
<path fill="none" stroke="#63b8ff" d="M274.72,-68.37C282.53,-67.31 290.59,-66.21 298.6,-65.11"/>
<polygon fill="#63b8ff" stroke="#63b8ff" points="298.9,-68.61 308.34,-63.79 297.96,-61.67 298.9,-68.61"/>
</a>
</g>
</g>
<!-- Node4 -->
<g id="Node000004" class="node">
<title>Node4</title>
<g id="a_Node000004"><a xlink:href="kest__profile_8c.html#a7b50c42b3345fa0351fae2af60150ab1" target="_top" xlink:title=" ">
<polygon fill="#fff0f0" stroke="red" points="576.62,-110.12 504.38,-110.12 504.38,-89.38 576.62,-89.38 576.62,-110.12"/>
<text xml:space="preserve" text-anchor="middle" x="540.5" y="-96.62" font-family="Helvetica,sans-Serif" font-size="10.00">free_profile</text>
</a>
</g>
</g>
<!-- Node3&#45;&gt;Node4 -->
<g id="edge3_Node000003_Node000004" class="edge">
<title>Node3&#45;&gt;Node4</title>
<g id="a_edge3_Node000003_Node000004"><a xlink:title=" ">
<path fill="none" stroke="#63b8ff" d="M424.61,-99.75C446.07,-99.75 471.27,-99.75 492.6,-99.75"/>
<polygon fill="#63b8ff" stroke="#63b8ff" points="492.49,-103.25 502.49,-99.75 492.49,-96.25 492.49,-103.25"/>
</a>
</g>
</g>
<!-- Node10 -->
<g id="Node000010" class="node">
<title>Node10</title>
<g id="a_Node000010"><a xlink:href="kest__alloc_8c.html#a294af5728a94aa316fcf65304d388d48" target="_top" xlink:title=" ">
<polygon fill="white" stroke="#666666" points="701,-91.12 640,-91.12 640,-70.38 701,-70.38 701,-91.12"/>
<text xml:space="preserve" text-anchor="middle" x="670.5" y="-77.62" font-family="Helvetica,sans-Serif" font-size="10.00">kest_free</text>
</a>
</g>
</g>
<!-- Node4&#45;&gt;Node10 -->
<g id="edge4_Node000004_Node000010" class="edge">
<title>Node4&#45;&gt;Node10</title>
<g id="a_edge4_Node000004_Node000010"><a xlink:title=" ">
<path fill="none" stroke="#63b8ff" d="M576.82,-94.51C592.81,-92.13 611.81,-89.31 628.44,-86.84"/>
<polygon fill="#63b8ff" stroke="#63b8ff" points="628.63,-90.36 638.01,-85.42 627.6,-83.43 628.63,-90.36"/>
</a>
</g>
</g>
<!-- Node15&#45;&gt;Node10 -->
<g id="edge6_Node000015_Node000010" class="edge">
<title>Node15&#45;&gt;Node10</title>
<g id="a_edge6_Node000015_Node000010"><a xlink:title=" ">
<path fill="none" stroke="#63b8ff" d="M441.26,-60.49C498.37,-65.56 579.93,-72.8 628.51,-77.11"/>
<polygon fill="#63b8ff" stroke="#63b8ff" points="628.05,-80.58 638.32,-77.98 628.67,-73.61 628.05,-80.58"/>
</a>
</g>
</g>
<!-- Node16 -->
<g id="Node000016" class="node">
<title>Node16</title>
<g id="a_Node000016"><a xlink:href="kest__sequence_8c.html#abb62e308c5b4830b09a802084718cb2d" target="_top" xlink:title=" ">
<polygon fill="#fff0f0" stroke="red" points="604,-33.5 477,-33.5 477,0 604,0 604,-33.5"/>
<text xml:space="preserve" text-anchor="start" x="485" y="-20" font-family="Helvetica,sans-Serif" font-size="10.00">kest_sequence_update</text>
<text xml:space="preserve" text-anchor="middle" x="540.5" y="-7.25" font-family="Helvetica,sans-Serif" font-size="10.00">_representations</text>
</a>
</g>
</g>
<!-- Node15&#45;&gt;Node16 -->
<g id="edge7_Node000015_Node000016" class="edge">
<title>Node15&#45;&gt;Node16</title>
<g id="a_edge7_Node000015_Node000016"><a xlink:title=" ">
<path fill="none" stroke="#63b8ff" d="M441.47,-39.62C449.46,-37.76 457.67,-35.84 465.78,-33.95"/>
<polygon fill="#63b8ff" stroke="#63b8ff" points="466.32,-37.42 475.27,-31.74 464.73,-30.6 466.32,-37.42"/>
</a>
</g>
</g>
</g>
</svg>

<g id="navigator" transform="translate(0 0)" fill="#404254">
  <rect fill="#f2f5e9" fill-opacity="0.5" stroke="#606060" stroke-width=".5" x="0" y="0" width="60" height="60"/>
  <use id="zoomplus" xlink:href="#zoomPlus" x="17" y="9" onmousedown="handleZoom(evt,'in')"/>
  <use id="zoomminus" xlink:href="#zoomMin" x="42" y="9" onmousedown="handleZoom(evt,'out')"/>
  <use id="reset" xlink:href="#resetDef" x="30" y="36" onmousedown="handleReset()"/>
   <use id="arrowup" xlink:href="#arrowUp" x="0" y="0" onmousedown="handlePan(0,-1)"/>
  <use id="arrowright" xlink:href="#arrowRight" x="0" y="0" onmousedown="handlePan(1,0)"/>
  <use id="arrowdown" xlink:href="#arrowDown" x="0" y="0" onmousedown="handlePan(0,1)"/>
  <use id="arrowleft" xlink:href="#arrowLeft" x="0" y="0" onmousedown="handlePan(-1,0)"/>
</g>
<svg viewBox="0 0 15 15" width="100%" height="30px" preserveAspectRatio="xMaxYMin meet">
 <g id="arrow_out" transform="scale(0.3 0.3)">
  <a xlink:href="kest__sequence__view_8c_aa3f0ce5b257c2a9a76df997c35718cbd_cgraph_org.svg" target="_base">
   <rect id="button" ry="5" rx="5" y="6" x="6" height="38" width="38"
        fill="#f2f5e9" fill-opacity="0.5" stroke="#606060" stroke-width="1.0"/>
   <path id="arrow"
     d="M 11.500037,31.436501 C 11.940474,20.09759 22.043105,11.32322 32.158766,21.979434 L 37.068811,17.246167 C 37.068811,17.246167 37.088388,32 37.088388,32 L 22.160133,31.978069 C 22.160133,31.978069 26.997745,27.140456 26.997745,27.140456 C 18.528582,18.264221 13.291696,25.230495 11.500037,31.436501 z"
     style="fill:#404040;"/>
  </a>
 </g>
</svg>

<style type='text/css'>
<![CDATA[
[data-mouse-over-selected='false'] { opacity: 0.7; }
[data-mouse-over-selected='true']  { opacity: 1.0; }
]]>
</style>
<script type="application/ecmascript"><![CDATA[
document.addEventListener('DOMContentLoaded', (event) => {
  highlightEdges();
  highlightAdjacentNodes();
});
]]></script>
</svg>
