<?xml version="1.0" encoding="UTF-8" standalone="no"?>
<!DOCTYPE svg PUBLIC "-//W3C//DTD SVG 1.1//EN"
 "http://www.w3.org/Graphics/SVG/1.1/DTD/svg11.dtd">
<!-- Generated by graphviz version 13.1.2 (20250808.2320)
 -->
<!-- Title: init_amplifier Pages: 1 -->
<svg width="554pt" height="152pt"
 viewBox="0.00 0.00 554.00 152.00" xmlns="http://www.w3.org/2000/svg" xmlns:xlink="http://www.w3.org/1999/xlink">
<g id="graph0" class="graph" transform="scale(1 1) rotate(0) translate(4 148.12)">
<title>init_amplifier</title>
<!-- Node1 -->
<g id="Node000001" class="node">
<title>Node1</title>
<g id="a_Node000001"><a xlink:title=" ">
<polygon fill="#999999" stroke="#666666" points="81.25,-59.75 0,-59.75 0,-39 81.25,-39 81.25,-59.75"/>
<text xml:space="preserve" text-anchor="middle" x="40.62" y="-46.25" font-family="Helvetica,sans-Serif" font-size="10.00">init_amplifier</text>
</a>
</g>
</g>
<!-- Node2 -->
<g id="Node000002" class="node">
<title>Node2</title>
<g id="a_Node000002"><a xlink:href="kest__effect_8c.html#a8dc8fceab7f835d960ea95e4f21fe327" target="_top" xlink:title=" ">
<polygon fill="white" stroke="#666666" points="241.25,-98.75 117.25,-98.75 117.25,-78 241.25,-78 241.25,-98.75"/>
<text xml:space="preserve" text-anchor="middle" x="179.25" y="-85.25" font-family="Helvetica,sans-Serif" font-size="10.00">effect_add_parameter</text>
</a>
</g>
</g>
<!-- Node1&#45;&gt;Node2 -->
<g id="edge1_Node000001_Node000002" class="edge">
<title>Node1&#45;&gt;Node2</title>
<g id="a_edge1_Node000001_Node000002"><a xlink:title=" ">
<path fill="none" stroke="#63b8ff" d="M79.68,-60.24C95.08,-64.63 113.05,-69.76 129.39,-74.43"/>
<polygon fill="#63b8ff" stroke="#63b8ff" points="128.36,-77.77 138.94,-77.15 130.29,-71.04 128.36,-77.77"/>
</a>
</g>
</g>
<!-- Node7 -->
<g id="Node000007" class="node">
<title>Node7</title>
<g id="a_Node000007"><a xlink:href="kest__alloc_8c.html#a849755c5dc5b35e712ffcdb602e50fb4" target="_top" xlink:title=" ">
<polygon fill="white" stroke="#666666" points="362.62,-20.75 297.88,-20.75 297.88,0 362.62,0 362.62,-20.75"/>
<text xml:space="preserve" text-anchor="middle" x="330.25" y="-7.25" font-family="Helvetica,sans-Serif" font-size="10.00">kest_alloc</text>
</a>
</g>
</g>
<!-- Node1&#45;&gt;Node7 -->
<g id="edge11_Node000001_Node000007" class="edge">
<title>Node1&#45;&gt;Node7</title>
<g id="a_edge11_Node000001_Node000007"><a xlink:title=" ">
<path fill="none" stroke="#63b8ff" d="M79.86,-38.57C91.76,-35.53 104.98,-32.48 117.25,-30.38 175.2,-20.42 242.97,-15.12 285.99,-12.53"/>
<polygon fill="#63b8ff" stroke="#63b8ff" points="286.15,-16.02 295.93,-11.95 285.75,-9.03 286.15,-16.02"/>
</a>
</g>
</g>
<!-- Node9 -->
<g id="Node000009" class="node">
<title>Node9</title>
<g id="a_Node000009"><a xlink:href="kest__effect_8c.html#abf12c30daf8ca1ac113eca5f22723cf7" target="_top" xlink:title=" ">
<polygon fill="white" stroke="#666666" points="232.62,-59.75 125.88,-59.75 125.88,-39 232.62,-39 232.62,-59.75"/>
<text xml:space="preserve" text-anchor="middle" x="179.25" y="-46.25" font-family="Helvetica,sans-Serif" font-size="10.00">effect_add_setting</text>
</a>
</g>
</g>
<!-- Node1&#45;&gt;Node9 -->
<g id="edge6_Node000001_Node000009" class="edge">
<title>Node1&#45;&gt;Node9</title>
<g id="a_edge6_Node000001_Node000009"><a xlink:title=" ">
<path fill="none" stroke="#63b8ff" d="M81.51,-49.38C91.74,-49.38 103.01,-49.38 114.12,-49.38"/>
<polygon fill="#63b8ff" stroke="#63b8ff" points="114.09,-52.88 124.09,-49.38 114.09,-45.88 114.09,-52.88"/>
</a>
</g>
</g>
<!-- Node3 -->
<g id="Node000003" class="node">
<title>Node3</title>
<g id="a_Node000003"><a xlink:href="kest__parameter_8c.html#a41fafa04c21a8ab5916a8ceb5442d99a" target="_top" xlink:title=" ">
<polygon fill="white" stroke="#666666" points="383.25,-137.75 277.25,-137.75 277.25,-117 383.25,-117 383.25,-137.75"/>
<text xml:space="preserve" text-anchor="middle" x="330.25" y="-124.25" font-family="Helvetica,sans-Serif" font-size="10.00">init_parameter_str</text>
</a>
</g>
</g>
<!-- Node2&#45;&gt;Node3 -->
<g id="edge2_Node000002_Node000003" class="edge">
<title>Node2&#45;&gt;Node3</title>
<g id="a_edge2_Node000002_Node000003"><a xlink:title=" ">
<path fill="none" stroke="#63b8ff" d="M221.75,-99.24C238.8,-103.7 258.73,-108.92 276.77,-113.64"/>
<polygon fill="#63b8ff" stroke="#63b8ff" points="275.69,-116.97 286.25,-116.12 277.46,-110.2 275.69,-116.97"/>
</a>
</g>
</g>
<!-- Node2&#45;&gt;Node7 -->
<g id="edge4_Node000002_Node000007" class="edge">
<title>Node2&#45;&gt;Node7</title>
<g id="a_edge4_Node000002_Node000007"><a xlink:title=" ">
<path fill="none" stroke="#63b8ff" d="M222.51,-77.57C229.04,-75.05 235.51,-72.01 241.25,-68.38 260.9,-55.93 257.92,-43.31 277.25,-30.38 280.34,-28.3 283.68,-26.4 287.13,-24.67"/>
<polygon fill="#63b8ff" stroke="#63b8ff" points="288.54,-27.87 296.23,-20.58 285.67,-21.48 288.54,-27.87"/>
</a>
</g>
</g>
<!-- Node8 -->
<g id="Node000008" class="node">
<title>Node8</title>
<g id="a_Node000008"><a xlink:href="kest__alloc_8c.html#a294af5728a94aa316fcf65304d388d48" target="_top" xlink:title=" ">
<polygon fill="white" stroke="#666666" points="360.75,-98.75 299.75,-98.75 299.75,-78 360.75,-78 360.75,-98.75"/>
<text xml:space="preserve" text-anchor="middle" x="330.25" y="-85.25" font-family="Helvetica,sans-Serif" font-size="10.00">kest_free</text>
</a>
</g>
</g>
<!-- Node2&#45;&gt;Node8 -->
<g id="edge5_Node000002_Node000008" class="edge">
<title>Node2&#45;&gt;Node8</title>
<g id="a_edge5_Node000002_Node000008"><a xlink:title=" ">
<path fill="none" stroke="#63b8ff" d="M241.71,-88.38C257.25,-88.38 273.56,-88.38 287.84,-88.38"/>
<polygon fill="#63b8ff" stroke="#63b8ff" points="287.77,-91.88 297.77,-88.38 287.77,-84.88 287.77,-91.88"/>
</a>
</g>
</g>
<!-- Node4 -->
<g id="Node000004" class="node">
<title>Node4</title>
<g id="a_Node000004"><a xlink:href="kest__parameter_8c.html#abff5b0dd3ed907207191aa6079c514eb" target="_top" xlink:title=" ">
<polygon fill="#fff0f0" stroke="red" points="545.5,-144.12 419.25,-144.12 419.25,-110.62 545.5,-110.62 545.5,-144.12"/>
<text xml:space="preserve" text-anchor="start" x="427.25" y="-130.62" font-family="Helvetica,sans-Serif" font-size="10.00">kest_parameter_effect</text>
<text xml:space="preserve" text-anchor="middle" x="482.38" y="-117.88" font-family="Helvetica,sans-Serif" font-size="10.00">_rep_update</text>
</a>
</g>
</g>
<!-- Node3&#45;&gt;Node4 -->
<g id="edge3_Node000003_Node000004" class="edge">
<title>Node3&#45;&gt;Node4</title>
<g id="a_edge3_Node000003_Node000004"><a xlink:title=" ">
<path fill="none" stroke="#63b8ff" d="M383.34,-127.38C391.11,-127.38 399.24,-127.38 407.36,-127.38"/>
<polygon fill="#63b8ff" stroke="#63b8ff" points="407.27,-130.88 417.27,-127.38 407.27,-123.88 407.27,-130.88"/>
</a>
</g>
</g>
<!-- Node9&#45;&gt;Node7 -->
<g id="edge9_Node000009_Node000007" class="edge">
<title>Node9&#45;&gt;Node7</title>
<g id="a_edge9_Node000009_Node000007"><a xlink:title=" ">
<path fill="none" stroke="#63b8ff" d="M221.75,-38.51C241.95,-33.22 266.21,-26.88 286.56,-21.55"/>
<polygon fill="#63b8ff" stroke="#63b8ff" points="287.16,-25.01 295.95,-19.09 285.39,-18.24 287.16,-25.01"/>
</a>
</g>
</g>
<!-- Node9&#45;&gt;Node8 -->
<g id="edge10_Node000009_Node000008" class="edge">
<title>Node9&#45;&gt;Node8</title>
<g id="a_edge10_Node000009_Node000008"><a xlink:title=" ">
<path fill="none" stroke="#63b8ff" d="M221.75,-60.24C242.53,-65.68 267.6,-72.24 288.31,-77.66"/>
<polygon fill="#63b8ff" stroke="#63b8ff" points="287.28,-81.01 297.84,-80.15 289.05,-74.23 287.28,-81.01"/>
</a>
</g>
</g>
<!-- Node10 -->
<g id="Node000010" class="node">
<title>Node10</title>
<g id="a_Node000010"><a xlink:href="kest__parameter_8c.html#a7c270a293ab879d0d3e757625c7c7dda" target="_top" xlink:title=" ">
<polygon fill="white" stroke="#666666" points="374.62,-59.75 285.88,-59.75 285.88,-39 374.62,-39 374.62,-59.75"/>
<text xml:space="preserve" text-anchor="middle" x="330.25" y="-46.25" font-family="Helvetica,sans-Serif" font-size="10.00">init_setting_str</text>
</a>
</g>
</g>
<!-- Node9&#45;&gt;Node10 -->
<g id="edge7_Node000009_Node000010" class="edge">
<title>Node9&#45;&gt;Node10</title>
<g id="a_edge7_Node000009_Node000010"><a xlink:title=" ">
<path fill="none" stroke="#63b8ff" d="M232.78,-49.38C246.27,-49.38 260.8,-49.38 274.4,-49.38"/>
<polygon fill="#63b8ff" stroke="#63b8ff" points="274.05,-52.88 284.05,-49.38 274.05,-45.88 274.05,-52.88"/>
</a>
</g>
</g>
<!-- Node11 -->
<g id="Node000011" class="node">
<title>Node11</title>
<g id="a_Node000011"><a xlink:href="kest__parameter_8c.html#a3c9f839cffc5f0a9b0630682ce8e9b9c" target="_top" xlink:title=" ">
<polygon fill="#fff0f0" stroke="red" points="536.88,-66.12 427.88,-66.12 427.88,-32.62 536.88,-32.62 536.88,-66.12"/>
<text xml:space="preserve" text-anchor="start" x="435.88" y="-52.62" font-family="Helvetica,sans-Serif" font-size="10.00">kest_setting_effect</text>
<text xml:space="preserve" text-anchor="middle" x="482.38" y="-39.88" font-family="Helvetica,sans-Serif" font-size="10.00">_rep_update</text>
</a>
</g>
</g>
<!-- Node10&#45;&gt;Node11 -->
<g id="edge8_Node000010_Node000011" class="edge">
<title>Node10&#45;&gt;Node11</title>
<g id="a_edge8_Node000010_Node000011"><a xlink:title=" ">
<path fill="none" stroke="#63b8ff" d="M375.08,-49.38C387.92,-49.38 402.25,-49.38 416.13,-49.38"/>
<polygon fill="#63b8ff" stroke="#63b8ff" points="416.13,-52.88 426.12,-49.38 416.12,-45.88 416.13,-52.88"/>
</a>
</g>
</g>
</g>
</svg>
