<?xml version="1.0" encoding="UTF-8" standalone="no"?>
<!DOCTYPE svg PUBLIC "-//W3C//DTD SVG 1.1//EN"
 "http://www.w3.org/Graphics/SVG/1.1/DTD/svg11.dtd">
<!-- Generated by graphviz version 13.1.2 (20250808.2320)
 -->
<!-- Title: create_panel_rw_title_and_left_button Pages: 1 -->
<svg width="464pt" height="126pt"
 viewBox="0.00 0.00 464.00 126.00" xmlns="http://www.w3.org/2000/svg" xmlns:xlink="http://www.w3.org/1999/xlink">
<g id="graph0" class="graph" transform="scale(1 1) rotate(0) translate(4 121.75)">
<title>create_panel_rw_title_and_left_button</title>
<!-- Node1 -->
<g id="Node000001" class="node">
<title>Node1</title>
<g id="a_Node000001"><a xlink:title=" ">
<polygon fill="#999999" stroke="#666666" points="121,-66.12 0,-66.12 0,-32.62 121,-32.62 121,-66.12"/>
<text xml:space="preserve" text-anchor="start" x="8" y="-52.62" font-family="Helvetica,sans-Serif" font-size="10.00">create_panel_rw_title</text>
<text xml:space="preserve" text-anchor="middle" x="60.5" y="-39.88" font-family="Helvetica,sans-Serif" font-size="10.00">_and_left_button</text>
</a>
</g>
</g>
<!-- Node2 -->
<g id="Node000002" class="node">
<title>Node2</title>
<g id="a_Node000002"><a xlink:href="kest__ui_8c.html#af27244753a655f48efb1d98e7588fcff" target="_top" xlink:title=" ">
<polygon fill="white" stroke="#666666" points="265.25,-98.75 186.25,-98.75 186.25,-78 265.25,-78 265.25,-98.75"/>
<text xml:space="preserve" text-anchor="middle" x="225.75" y="-85.25" font-family="Helvetica,sans-Serif" font-size="10.00">create_panel</text>
</a>
</g>
</g>
<!-- Node1&#45;&gt;Node2 -->
<g id="edge1_Node000001_Node000002" class="edge">
<title>Node1&#45;&gt;Node2</title>
<g id="a_edge1_Node000001_Node000002"><a xlink:title=" ">
<path fill="none" stroke="#63b8ff" d="M121.36,-63.68C139.13,-67.92 158.38,-72.52 175.4,-76.58"/>
<polygon fill="#63b8ff" stroke="#63b8ff" points="174.21,-79.9 184.75,-78.82 175.84,-73.09 174.21,-79.9"/>
</a>
</g>
</g>
<!-- Node5 -->
<g id="Node000005" class="node">
<title>Node5</title>
<g id="a_Node000005"><a xlink:href="kest__ui_8c.html#a64c33366dff9758c7062f1e69daef220" target="_top" xlink:title=" ">
<polygon fill="white" stroke="#666666" points="294.5,-59.75 157,-59.75 157,-39 294.5,-39 294.5,-59.75"/>
<text xml:space="preserve" text-anchor="middle" x="225.75" y="-46.25" font-family="Helvetica,sans-Serif" font-size="10.00">create_panel_left_button</text>
</a>
</g>
</g>
<!-- Node1&#45;&gt;Node5 -->
<g id="edge4_Node000001_Node000005" class="edge">
<title>Node1&#45;&gt;Node5</title>
<g id="a_edge4_Node000001_Node000005"><a xlink:title=" ">
<path fill="none" stroke="#63b8ff" d="M121.36,-49.38C129.15,-49.38 137.23,-49.38 145.28,-49.38"/>
<polygon fill="#63b8ff" stroke="#63b8ff" points="145.1,-52.88 155.1,-49.38 145.1,-45.88 145.1,-52.88"/>
</a>
</g>
</g>
<!-- Node6 -->
<g id="Node000006" class="node">
<title>Node6</title>
<g id="a_Node000006"><a xlink:href="kest__ui_8c.html#a76103fea6aabdd88da30c24a2cad8a10" target="_top" xlink:title=" ">
<polygon fill="white" stroke="#666666" points="278.38,-20.75 173.12,-20.75 173.12,0 278.38,0 278.38,-20.75"/>
<text xml:space="preserve" text-anchor="middle" x="225.75" y="-7.25" font-family="Helvetica,sans-Serif" font-size="10.00">set_panel_text_rw</text>
</a>
</g>
</g>
<!-- Node1&#45;&gt;Node6 -->
<g id="edge5_Node000001_Node000006" class="edge">
<title>Node1&#45;&gt;Node6</title>
<g id="a_edge5_Node000001_Node000006"><a xlink:title=" ">
<path fill="none" stroke="#63b8ff" d="M121.36,-35.07C136.81,-31.38 153.38,-27.42 168.64,-23.78"/>
<polygon fill="#63b8ff" stroke="#63b8ff" points="169.09,-27.27 178,-21.54 167.46,-20.46 169.09,-27.27"/>
</a>
</g>
</g>
<!-- Node3 -->
<g id="Node000003" class="node">
<title>Node3</title>
<g id="a_Node000003"><a xlink:href="kest__ui_8c.html#a2265ed92eb0f4a478fc442ef0457f832" target="_top" xlink:title=" ">
<polygon fill="white" stroke="#666666" points="456,-117.75 330.5,-117.75 330.5,-97 456,-97 456,-117.75"/>
<text xml:space="preserve" text-anchor="middle" x="393.25" y="-104.25" font-family="Helvetica,sans-Serif" font-size="10.00">init_ui_page_panel_str</text>
</a>
</g>
</g>
<!-- Node2&#45;&gt;Node3 -->
<g id="edge2_Node000002_Node000003" class="edge">
<title>Node2&#45;&gt;Node3</title>
<g id="a_edge2_Node000002_Node000003"><a xlink:title=" ">
<path fill="none" stroke="#63b8ff" d="M265.55,-92.83C281.46,-94.66 300.41,-96.83 318.75,-98.94"/>
<polygon fill="#63b8ff" stroke="#63b8ff" points="318.22,-102.4 328.55,-100.06 319.02,-95.44 318.22,-102.4"/>
</a>
</g>
</g>
<!-- Node4 -->
<g id="Node000004" class="node">
<title>Node4</title>
<g id="a_Node000004"><a xlink:href="kest__alloc_8c.html#a849755c5dc5b35e712ffcdb602e50fb4" target="_top" xlink:title=" ">
<polygon fill="white" stroke="#666666" points="425.62,-78.75 360.88,-78.75 360.88,-58 425.62,-58 425.62,-78.75"/>
<text xml:space="preserve" text-anchor="middle" x="393.25" y="-65.25" font-family="Helvetica,sans-Serif" font-size="10.00">kest_alloc</text>
</a>
</g>
</g>
<!-- Node2&#45;&gt;Node4 -->
<g id="edge3_Node000002_Node000004" class="edge">
<title>Node2&#45;&gt;Node4</title>
<g id="a_edge3_Node000002_Node000004"><a xlink:title=" ">
<path fill="none" stroke="#63b8ff" d="M265.55,-83.69C290.66,-80.65 323.36,-76.7 349.26,-73.57"/>
<polygon fill="#63b8ff" stroke="#63b8ff" points="349.61,-77.05 359.12,-72.38 348.77,-70.1 349.61,-77.05"/>
</a>
</g>
</g>
</g>
</svg>
