<?xml version="1.0" encoding="UTF-8" standalone="no"?>
<!DOCTYPE svg PUBLIC "-//W3C//DTD SVG 1.1//EN"
 "http://www.w3.org/Graphics/SVG/1.1/DTD/svg11.dtd">
<!-- Generated by graphviz version 13.1.2 (20250808.2320)
 -->
<!-- Title: create_effect_view_ui Pages: 1 -->
<svg width="810pt" height="505pt"
 viewBox="0.00 0.00 810.00 505.00" xmlns="http://www.w3.org/2000/svg" xmlns:xlink="http://www.w3.org/1999/xlink">
<g id="graph0" class="graph" transform="scale(1 1) rotate(0) translate(4 501.12)">
<title>create_effect_view_ui</title>
<!-- Node1 -->
<g id="Node000001" class="node">
<title>Node1</title>
<g id="a_Node000001"><a xlink:title=" ">
<polygon fill="#999999" stroke="#666666" points="123.25,-317.12 0,-317.12 0,-296.38 123.25,-296.38 123.25,-317.12"/>
<text xml:space="preserve" text-anchor="middle" x="61.62" y="-303.62" font-family="Helvetica,sans-Serif" font-size="10.00">create_effect_view_ui</text>
</a>
</g>
</g>
<!-- Node2 -->
<g id="Node000002" class="node">
<title>Node2</title>
<g id="a_Node000002"><a xlink:href="kest__effect__settings_8c.html#ad39e071d5cf7cd7e4fc67d41f14d48e8" target="_top" xlink:title=" ">
<polygon fill="white" stroke="#666666" points="290.75,-368.5 166,-368.5 166,-335 290.75,-335 290.75,-368.5"/>
<text xml:space="preserve" text-anchor="start" x="174" y="-355" font-family="Helvetica,sans-Serif" font-size="10.00">create_effect_settings</text>
<text xml:space="preserve" text-anchor="middle" x="228.38" y="-342.25" font-family="Helvetica,sans-Serif" font-size="10.00">_page_ui</text>
</a>
</g>
</g>
<!-- Node1&#45;&gt;Node2 -->
<g id="edge1_Node000001_Node000002" class="edge">
<title>Node1&#45;&gt;Node2</title>
<g id="a_edge1_Node000001_Node000002"><a xlink:title=" ">
<path fill="none" stroke="#63b8ff" d="M102.09,-317.53C117.93,-321.86 136.71,-326.98 154.84,-331.94"/>
<polygon fill="#63b8ff" stroke="#63b8ff" points="153.68,-335.25 164.25,-334.51 155.53,-328.5 153.68,-335.25"/>
</a>
</g>
</g>
<!-- Node5 -->
<g id="Node000005" class="node">
<title>Node5</title>
<g id="a_Node000005"><a xlink:href="kest__parameter__widget_8c.html#adbadb9573fa4f9b812f8d270c78053e4" target="_top" xlink:title=" ">
<polygon fill="white" stroke="#666666" points="489,-448.12 333.5,-448.12 333.5,-427.38 489,-427.38 489,-448.12"/>
<text xml:space="preserve" text-anchor="middle" x="411.25" y="-434.62" font-family="Helvetica,sans-Serif" font-size="10.00">parameter_widget_create_ui</text>
</a>
</g>
</g>
<!-- Node1&#45;&gt;Node5 -->
<g id="edge15_Node000001_Node000005" class="edge">
<title>Node1&#45;&gt;Node5</title>
<g id="a_edge15_Node000001_Node000005"><a xlink:title=" ">
<path fill="none" stroke="#63b8ff" d="M73.84,-317.38C90.92,-332.97 125.07,-361.9 159.25,-377.75 210.63,-401.57 272.46,-416.5 321.9,-425.5"/>
<polygon fill="#63b8ff" stroke="#63b8ff" points="321.27,-428.95 331.73,-427.24 322.49,-422.05 321.27,-428.95"/>
</a>
</g>
</g>
<!-- Node18 -->
<g id="Node000018" class="node">
<title>Node18</title>
<g id="a_Node000018"><a xlink:href="kest__ui_8c.html#a58a68a436917a32cc3daab2e0d4b3245" target="_top" xlink:title=" ">
<polygon fill="white" stroke="#666666" points="477.75,-317.12 344.75,-317.12 344.75,-296.38 477.75,-296.38 477.75,-317.12"/>
<text xml:space="preserve" text-anchor="middle" x="411.25" y="-303.62" font-family="Helvetica,sans-Serif" font-size="10.00">ui_page_create_base_ui</text>
</a>
</g>
</g>
<!-- Node1&#45;&gt;Node18 -->
<g id="edge26_Node000001_Node000018" class="edge">
<title>Node1&#45;&gt;Node18</title>
<g id="a_edge26_Node000001_Node000018"><a xlink:title=" ">
<path fill="none" stroke="#63b8ff" d="M123.57,-306.75C181.78,-306.75 269.72,-306.75 332.85,-306.75"/>
<polygon fill="#63b8ff" stroke="#63b8ff" points="332.82,-310.25 342.82,-306.75 332.82,-303.25 332.82,-310.25"/>
</a>
</g>
</g>
<!-- Node30 -->
<g id="Node000030" class="node">
<title>Node30</title>
<g id="a_Node000030"><a xlink:href="kest__effect_8c.html#a8f53e22436efdc0e494b297ea09db5eb" target="_top" xlink:title=" ">
<polygon fill="white" stroke="#666666" points="279.88,-214.12 176.88,-214.12 176.88,-193.38 279.88,-193.38 279.88,-214.12"/>
<text xml:space="preserve" text-anchor="middle" x="228.38" y="-200.62" font-family="Helvetica,sans-Serif" font-size="10.00">kest_effect_name</text>
</a>
</g>
</g>
<!-- Node1&#45;&gt;Node30 -->
<g id="edge14_Node000001_Node000030" class="edge">
<title>Node1&#45;&gt;Node30</title>
<g id="a_edge14_Node000001_Node000030"><a xlink:title=" ">
<path fill="none" stroke="#63b8ff" d="M72.24,-295.93C88.48,-278.3 123.11,-243.38 159.25,-223.75 162.71,-221.87 166.37,-220.15 170.13,-218.57"/>
<polygon fill="#63b8ff" stroke="#63b8ff" points="171.34,-221.86 179.46,-215.05 168.86,-215.31 171.34,-221.86"/>
</a>
</g>
</g>
<!-- Node31 -->
<g id="Node000031" class="node">
<title>Node31</title>
<g id="a_Node000031"><a xlink:href="kest__parameter__widget_8c.html#a2074107eca4e8e2b3832c9f9f2e5f9f2" target="_top" xlink:title=" ">
<polygon fill="white" stroke="#666666" points="297.5,-253.12 159.25,-253.12 159.25,-232.38 297.5,-232.38 297.5,-253.12"/>
<text xml:space="preserve" text-anchor="middle" x="228.38" y="-239.62" font-family="Helvetica,sans-Serif" font-size="10.00">setting_widget_create_ui</text>
</a>
</g>
</g>
<!-- Node1&#45;&gt;Node31 -->
<g id="edge16_Node000001_Node000031" class="edge">
<title>Node1&#45;&gt;Node31</title>
<g id="a_edge16_Node000001_Node000031"><a xlink:title=" ">
<path fill="none" stroke="#63b8ff" d="M90.57,-295.89C117.64,-285.38 158.89,-269.36 189.02,-257.65"/>
<polygon fill="#63b8ff" stroke="#63b8ff" points="190.1,-260.98 198.15,-254.1 187.57,-254.46 190.1,-260.98"/>
</a>
</g>
</g>
<!-- Node3 -->
<g id="Node000003" class="node">
<title>Node3</title>
<g id="a_Node000003"><a xlink:href="kest__effect__settings_8c.html#a70d66998be0b9c55aee8c71e5c08b3bd" target="_top" xlink:title=" ">
<polygon fill="white" stroke="#666666" points="466.88,-368.5 355.62,-368.5 355.62,-335 466.88,-335 466.88,-368.5"/>
<text xml:space="preserve" text-anchor="start" x="363.62" y="-355" font-family="Helvetica,sans-Serif" font-size="10.00">band_control_value</text>
<text xml:space="preserve" text-anchor="middle" x="411.25" y="-342.25" font-family="Helvetica,sans-Serif" font-size="10.00">_changed_cb</text>
</a>
</g>
</g>
<!-- Node2&#45;&gt;Node3 -->
<g id="edge2_Node000002_Node000003" class="edge">
<title>Node2&#45;&gt;Node3</title>
<g id="a_edge2_Node000002_Node000003"><a xlink:title=" ">
<path fill="none" stroke="#63b8ff" d="M291.12,-351.75C308.16,-351.75 326.72,-351.75 344,-351.75"/>
<polygon fill="#63b8ff" stroke="#63b8ff" points="343.64,-355.25 353.64,-351.75 343.64,-348.25 343.64,-355.25"/>
</a>
</g>
</g>
<!-- Node4 -->
<g id="Node000004" class="node">
<title>Node4</title>
<g id="a_Node000004"><a xlink:href="kest__effect__settings_8c.html#af299f810b2c813a39803ad397fa4eeb4" target="_top" xlink:title=" ">
<polygon fill="white" stroke="#666666" points="685,-407.12 527.25,-407.12 527.25,-386.38 685,-386.38 685,-407.12"/>
<text xml:space="preserve" text-anchor="middle" x="606.12" y="-393.62" font-family="Helvetica,sans-Serif" font-size="10.00">refresh_effect_settings_page</text>
</a>
</g>
</g>
<!-- Node2&#45;&gt;Node4 -->
<g id="edge7_Node000002_Node000004" class="edge">
<title>Node2&#45;&gt;Node4</title>
<g id="a_edge7_Node000002_Node000004"><a xlink:title=" ">
<path fill="none" stroke="#63b8ff" d="M290.67,-368.95C304.66,-372.34 319.51,-375.53 333.5,-377.75 393.74,-387.3 462.26,-392.05 515.41,-394.41"/>
<polygon fill="#63b8ff" stroke="#63b8ff" points="515.2,-397.91 525.34,-394.83 515.5,-390.92 515.2,-397.91"/>
</a>
</g>
</g>
<!-- Node2&#45;&gt;Node5 -->
<g id="edge4_Node000002_Node000005" class="edge">
<title>Node2&#45;&gt;Node5</title>
<g id="a_edge4_Node000002_Node000005"><a xlink:title=" ">
<path fill="none" stroke="#63b8ff" d="M256.52,-368.9C277.13,-381.48 306.45,-398.45 333.5,-410.75 343.42,-415.26 354.34,-419.51 364.75,-423.24"/>
<polygon fill="#63b8ff" stroke="#63b8ff" points="363.33,-426.45 373.92,-426.43 365.63,-419.84 363.33,-426.45"/>
</a>
</g>
</g>
<!-- Node16 -->
<g id="Node000016" class="node">
<title>Node16</title>
<g id="a_Node000016"><a xlink:href="kest__parameter__widget_8c.html#a15c4ba0b3ffa376f951b0fa56aa1c264" target="_top" xlink:title=" ">
<polygon fill="white" stroke="#666666" points="473.25,-259.5 349.25,-259.5 349.25,-226 473.25,-226 473.25,-259.5"/>
<text xml:space="preserve" text-anchor="start" x="357.25" y="-246" font-family="Helvetica,sans-Serif" font-size="10.00">setting_widget_create</text>
<text xml:space="preserve" text-anchor="middle" x="411.25" y="-233.25" font-family="Helvetica,sans-Serif" font-size="10.00">_ui_no_callback</text>
</a>
</g>
</g>
<!-- Node2&#45;&gt;Node16 -->
<g id="edge8_Node000002_Node000016" class="edge">
<title>Node2&#45;&gt;Node16</title>
<g id="a_edge8_Node000002_Node000016"><a xlink:title=" ">
<path fill="none" stroke="#63b8ff" d="M256.68,-334.75C277.63,-321.76 307.3,-303.48 333.5,-287.75 345.6,-280.48 358.85,-272.67 370.88,-265.62"/>
<polygon fill="#63b8ff" stroke="#63b8ff" points="372.47,-268.75 379.34,-260.68 368.94,-262.7 372.47,-268.75"/>
</a>
</g>
</g>
<!-- Node2&#45;&gt;Node18 -->
<g id="edge10_Node000002_Node000018" class="edge">
<title>Node2&#45;&gt;Node18</title>
<g id="a_edge10_Node000002_Node000018"><a xlink:title=" ">
<path fill="none" stroke="#63b8ff" d="M291.04,-336.33C305,-332.85 319.76,-329.17 333.5,-325.75 340.58,-323.99 348.02,-322.14 355.38,-320.32"/>
<polygon fill="#63b8ff" stroke="#63b8ff" points="356.08,-323.75 364.94,-317.95 354.39,-316.96 356.08,-323.75"/>
</a>
</g>
</g>
<!-- Node3&#45;&gt;Node4 -->
<g id="edge3_Node000003_Node000004" class="edge">
<title>Node3&#45;&gt;Node4</title>
<g id="a_edge3_Node000003_Node000004"><a xlink:title=" ">
<path fill="none" stroke="#63b8ff" d="M467.26,-364.58C492.38,-370.45 522.13,-377.39 547.56,-383.32"/>
<polygon fill="#63b8ff" stroke="#63b8ff" points="546.52,-386.67 557.06,-385.53 548.11,-379.85 546.52,-386.67"/>
</a>
</g>
</g>
<!-- Node6 -->
<g id="Node000006" class="node">
<title>Node6</title>
<g id="a_Node000006"><a xlink:href="kest__parameter__widget_8c.html#aacedf3a01b62f8fba28c7521a2b64735" target="_top" xlink:title=" ">
<polygon fill="#fff0f0" stroke="red" points="687.25,-497.12 525,-497.12 525,-476.38 687.25,-476.38 687.25,-497.12"/>
<text xml:space="preserve" text-anchor="middle" x="606.12" y="-483.62" font-family="Helvetica,sans-Serif" font-size="10.00">parameter_widget_change_cb</text>
</a>
</g>
</g>
<!-- Node5&#45;&gt;Node6 -->
<g id="edge5_Node000005_Node000006" class="edge">
<title>Node5&#45;&gt;Node6</title>
<g id="a_edge5_Node000005_Node000006"><a xlink:title=" ">
<path fill="none" stroke="#63b8ff" d="M451.84,-448.57C473.43,-454.39 500.64,-461.62 525,-467.75 532.27,-469.58 539.91,-471.45 547.49,-473.28"/>
<polygon fill="#63b8ff" stroke="#63b8ff" points="546.45,-476.63 557,-475.56 548.09,-469.83 546.45,-476.63"/>
</a>
</g>
</g>
<!-- Node12 -->
<g id="Node000012" class="node">
<title>Node12</title>
<g id="a_Node000012"><a xlink:href="kest__parameter__widget_8c.html#a275a44ab81e73412a3c3da5597906fcc" target="_top" xlink:title=" ">
<polygon fill="#fff0f0" stroke="red" points="676.75,-458.5 535.5,-458.5 535.5,-425 676.75,-425 676.75,-458.5"/>
<text xml:space="preserve" text-anchor="start" x="543.5" y="-445" font-family="Helvetica,sans-Serif" font-size="10.00">parameter_widget_create</text>
<text xml:space="preserve" text-anchor="middle" x="606.12" y="-432.25" font-family="Helvetica,sans-Serif" font-size="10.00">_ui_no_callback</text>
</a>
</g>
</g>
<!-- Node5&#45;&gt;Node12 -->
<g id="edge6_Node000005_Node000012" class="edge">
<title>Node5&#45;&gt;Node12</title>
<g id="a_edge6_Node000005_Node000012"><a xlink:title=" ">
<path fill="none" stroke="#63b8ff" d="M489.31,-439.35C500.64,-439.58 512.35,-439.83 523.76,-440.06"/>
<polygon fill="#63b8ff" stroke="#63b8ff" points="523.47,-443.56 533.54,-440.27 523.62,-436.56 523.47,-443.56"/>
</a>
</g>
</g>
<!-- Node17 -->
<g id="Node000017" class="node">
<title>Node17</title>
<g id="a_Node000017"><a xlink:href="kest__parameter__widget_8c.html#a97d6d97190503c60d5a816f44054c173" target="_top" xlink:title=" ">
<polygon fill="white" stroke="#666666" points="669.62,-239.5 542.62,-239.5 542.62,-206 669.62,-206 669.62,-239.5"/>
<text xml:space="preserve" text-anchor="start" x="550.62" y="-226" font-family="Helvetica,sans-Serif" font-size="10.00">setting_widget_update</text>
<text xml:space="preserve" text-anchor="middle" x="606.12" y="-213.25" font-family="Helvetica,sans-Serif" font-size="10.00">_value</text>
</a>
</g>
</g>
<!-- Node16&#45;&gt;Node17 -->
<g id="edge9_Node000016_Node000017" class="edge">
<title>Node16&#45;&gt;Node17</title>
<g id="a_edge9_Node000016_Node000017"><a xlink:title=" ">
<path fill="none" stroke="#63b8ff" d="M473.54,-236.39C491.81,-234.5 512.02,-232.4 531.01,-230.44"/>
<polygon fill="#63b8ff" stroke="#63b8ff" points="531.24,-233.93 540.83,-229.42 530.52,-226.97 531.24,-233.93"/>
</a>
</g>
</g>
<!-- Node19 -->
<g id="Node000019" class="node">
<title>Node19</title>
<g id="a_Node000019"><a xlink:href="kest__ui_8c.html#ab4d0521ac8d644d34daf9fde74ce1781" target="_top" xlink:title=" ">
<polygon fill="#fff0f0" stroke="red" points="671.5,-368.5 540.75,-368.5 540.75,-335 671.5,-335 671.5,-368.5"/>
<text xml:space="preserve" text-anchor="start" x="548.75" y="-355" font-family="Helvetica,sans-Serif" font-size="10.00">ui_page_create_bottom</text>
<text xml:space="preserve" text-anchor="middle" x="606.12" y="-342.25" font-family="Helvetica,sans-Serif" font-size="10.00">_buttons</text>
</a>
</g>
</g>
<!-- Node18&#45;&gt;Node19 -->
<g id="edge11_Node000018_Node000019" class="edge">
<title>Node18&#45;&gt;Node19</title>
<g id="a_edge11_Node000018_Node000019"><a xlink:title=" ">
<path fill="none" stroke="#63b8ff" d="M458.45,-317.53C479.61,-322.47 505.26,-328.45 529.15,-334.02"/>
<polygon fill="#63b8ff" stroke="#63b8ff" points="528.34,-337.43 538.87,-336.29 529.93,-330.61 528.34,-337.43"/>
</a>
</g>
</g>
<!-- Node21 -->
<g id="Node000021" class="node">
<title>Node21</title>
<g id="a_Node000021"><a xlink:href="kest__ui_8c.html#a1d4879268198647d06d247db21e13f1b" target="_top" xlink:title=" ">
<polygon fill="#fff0f0" stroke="red" points="676.75,-317.12 535.5,-317.12 535.5,-296.38 676.75,-296.38 676.75,-317.12"/>
<text xml:space="preserve" text-anchor="middle" x="606.12" y="-303.62" font-family="Helvetica,sans-Serif" font-size="10.00">ui_page_create_container</text>
</a>
</g>
</g>
<!-- Node18&#45;&gt;Node21 -->
<g id="edge12_Node000018_Node000021" class="edge">
<title>Node18&#45;&gt;Node21</title>
<g id="a_edge12_Node000018_Node000021"><a xlink:title=" ">
<path fill="none" stroke="#63b8ff" d="M478.09,-306.75C492.93,-306.75 508.85,-306.75 524.23,-306.75"/>
<polygon fill="#63b8ff" stroke="#63b8ff" points="523.79,-310.25 533.79,-306.75 523.79,-303.25 523.79,-310.25"/>
</a>
</g>
</g>
<!-- Node28 -->
<g id="Node000028" class="node">
<title>Node28</title>
<g id="a_Node000028"><a xlink:href="kest__ui_8c.html#ab16753d26193cafda5dd736999b6880c" target="_top" xlink:title=" ">
<polygon fill="#fff0f0" stroke="red" points="674.5,-278.12 537.75,-278.12 537.75,-257.38 674.5,-257.38 674.5,-278.12"/>
<text xml:space="preserve" text-anchor="middle" x="606.12" y="-264.62" font-family="Helvetica,sans-Serif" font-size="10.00">ui_page_create_panel_ui</text>
</a>
</g>
</g>
<!-- Node18&#45;&gt;Node28 -->
<g id="edge13_Node000018_Node000028" class="edge">
<title>Node18&#45;&gt;Node28</title>
<g id="a_edge13_Node000018_Node000028"><a xlink:title=" ">
<path fill="none" stroke="#63b8ff" d="M465.98,-295.89C488.97,-291.24 516.03,-285.76 540.15,-280.89"/>
<polygon fill="#63b8ff" stroke="#63b8ff" points="540.76,-284.34 549.87,-278.92 539.37,-277.47 540.76,-284.34"/>
</a>
</g>
</g>
<!-- Node31&#45;&gt;Node16 -->
<g id="edge25_Node000031_Node000016" class="edge">
<title>Node31&#45;&gt;Node16</title>
<g id="a_edge25_Node000031_Node000016"><a xlink:title=" ">
<path fill="none" stroke="#63b8ff" d="M297.76,-242.75C310.76,-242.75 324.4,-242.75 337.53,-242.75"/>
<polygon fill="#63b8ff" stroke="#63b8ff" points="337.39,-246.25 347.39,-242.75 337.39,-239.25 337.39,-246.25"/>
</a>
</g>
</g>
<!-- Node32 -->
<g id="Node000032" class="node">
<title>Node32</title>
<g id="a_Node000032"><a xlink:href="kest__parameter__widget_8c.html#a5a6ebded10138ba55624e195ae4f4309" target="_top" xlink:title=" ">
<polygon fill="white" stroke="#666666" points="459.75,-150.12 362.75,-150.12 362.75,-129.38 459.75,-129.38 459.75,-150.12"/>
<text xml:space="preserve" text-anchor="middle" x="411.25" y="-136.62" font-family="Helvetica,sans-Serif" font-size="10.00">edit_sw_field_cb</text>
</a>
</g>
</g>
<!-- Node31&#45;&gt;Node32 -->
<g id="edge17_Node000031_Node000032" class="edge">
<title>Node31&#45;&gt;Node32</title>
<g id="a_edge17_Node000031_Node000032"><a xlink:title=" ">
<path fill="none" stroke="#63b8ff" d="M274.57,-231.9C282.4,-229.35 290.32,-226.31 297.5,-222.75 332.79,-205.26 368.57,-176.66 390.09,-158.02"/>
<polygon fill="#63b8ff" stroke="#63b8ff" points="392.33,-160.71 397.52,-151.47 387.71,-155.46 392.33,-160.71"/>
</a>
</g>
</g>
<!-- Node75 -->
<g id="Node000075" class="node">
<title>Node75</title>
<g id="a_Node000075"><a xlink:href="kest__parameter__widget_8c.html#afd6c5489cb7579ee98a57340a3abcb80" target="_top" xlink:title=" ">
<polygon fill="white" stroke="#666666" points="483.75,-69.12 338.75,-69.12 338.75,-48.38 483.75,-48.38 483.75,-69.12"/>
<text xml:space="preserve" text-anchor="middle" x="411.25" y="-55.62" font-family="Helvetica,sans-Serif" font-size="10.00">setting_widget_change_cb</text>
</a>
</g>
</g>
<!-- Node31&#45;&gt;Node75 -->
<g id="edge23_Node000031_Node000075" class="edge">
<title>Node31&#45;&gt;Node75</title>
<g id="a_edge23_Node000031_Node000075"><a xlink:title=" ">
<path fill="none" stroke="#63b8ff" d="M284.06,-231.99C288.97,-229.52 293.56,-226.48 297.5,-222.75 332.39,-189.68 305.75,-160.01 333.5,-120.75 346.35,-102.56 365.95,-86.86 382.12,-75.8"/>
<polygon fill="#63b8ff" stroke="#63b8ff" points="383.95,-78.79 390.39,-70.37 380.11,-72.94 383.95,-78.79"/>
</a>
</g>
</g>
<!-- Node33 -->
<g id="Node000033" class="node">
<title>Node33</title>
<g id="a_Node000033"><a xlink:href="kest__alloc_8c.html#aed9ede1276c1ab3b4042c264ce64a3d2" target="_top" xlink:title=" ">
<polygon fill="#fff0f0" stroke="red" points="801.5,-169.12 723.25,-169.12 723.25,-148.38 801.5,-148.38 801.5,-169.12"/>
<text xml:space="preserve" text-anchor="middle" x="762.38" y="-155.62" font-family="Helvetica,sans-Serif" font-size="10.00">kest_strndup</text>
</a>
</g>
</g>
<!-- Node32&#45;&gt;Node33 -->
<g id="edge18_Node000032_Node000033" class="edge">
<title>Node32&#45;&gt;Node33</title>
<g id="a_edge18_Node000032_Node000033"><a xlink:title=" ">
<path fill="none" stroke="#63b8ff" d="M460.03,-149.62C480.01,-153.27 503.54,-156.95 525,-158.75 589.23,-164.12 663.61,-162.9 711.52,-161.16"/>
<polygon fill="#63b8ff" stroke="#63b8ff" points="711.44,-164.66 721.29,-160.78 711.17,-157.67 711.44,-164.66"/>
</a>
</g>
</g>
<!-- Node35 -->
<g id="Node000035" class="node">
<title>Node35</title>
<g id="a_Node000035"><a xlink:href="kest__ui_8c.html#a5f3db3c652369719e7f6de8456f09512" target="_top" xlink:title=" ">
<polygon fill="#fff0f0" stroke="red" points="682,-111.12 530.25,-111.12 530.25,-90.38 682,-90.38 682,-111.12"/>
<text xml:space="preserve" text-anchor="middle" x="606.12" y="-97.62" font-family="Helvetica,sans-Serif" font-size="10.00">spawn_numerical_keyboard</text>
</a>
</g>
</g>
<!-- Node32&#45;&gt;Node35 -->
<g id="edge19_Node000032_Node000035" class="edge">
<title>Node32&#45;&gt;Node35</title>
<g id="a_edge19_Node000032_Node000035"><a xlink:title=" ">
<path fill="none" stroke="#63b8ff" d="M459.93,-130.11C484.23,-125.2 514.14,-119.15 540.49,-113.82"/>
<polygon fill="#63b8ff" stroke="#63b8ff" points="540.95,-117.3 550.05,-111.89 539.56,-110.44 540.95,-117.3"/>
</a>
</g>
</g>
<!-- Node37 -->
<g id="Node000037" class="node">
<title>Node37</title>
<g id="a_Node000037"><a xlink:href="kest__parameter__widget_8c.html#a04db5fc0ed01be6d1f7b2233ea9094bb" target="_top" xlink:title=" ">
<polygon fill="#fff0f0" stroke="red" points="661,-72.12 551.25,-72.12 551.25,-51.38 661,-51.38 661,-72.12"/>
<text xml:space="preserve" text-anchor="middle" x="606.12" y="-58.62" font-family="Helvetica,sans-Serif" font-size="10.00">sw_field_cancel_cb</text>
</a>
</g>
</g>
<!-- Node32&#45;&gt;Node37 -->
<g id="edge20_Node000032_Node000037" class="edge">
<title>Node32&#45;&gt;Node37</title>
<g id="a_edge20_Node000032_Node000037"><a xlink:title=" ">
<path fill="none" stroke="#63b8ff" d="M430.02,-128.97C451.75,-116.18 489.98,-94.93 525,-81.75 530.93,-79.52 537.2,-77.46 543.52,-75.58"/>
<polygon fill="#63b8ff" stroke="#63b8ff" points="544.01,-79.08 552.69,-73.01 542.12,-72.34 544.01,-79.08"/>
</a>
</g>
</g>
<!-- Node40 -->
<g id="Node000040" class="node">
<title>Node40</title>
<g id="a_Node000040"><a xlink:href="kest__parameter__widget_8c.html#a22b7fa4ae5f9628f2da2155f58c2635c" target="_top" xlink:title=" ">
<polygon fill="#fff0f0" stroke="red" points="656.88,-150.12 555.38,-150.12 555.38,-129.38 656.88,-129.38 656.88,-150.12"/>
<text xml:space="preserve" text-anchor="middle" x="606.12" y="-136.62" font-family="Helvetica,sans-Serif" font-size="10.00">sw_field_save_cb</text>
</a>
</g>
</g>
<!-- Node32&#45;&gt;Node40 -->
<g id="edge21_Node000032_Node000040" class="edge">
<title>Node32&#45;&gt;Node40</title>
<g id="a_edge21_Node000032_Node000040"><a xlink:title=" ">
<path fill="none" stroke="#63b8ff" d="M459.93,-139.75C485.21,-139.75 516.56,-139.75 543.65,-139.75"/>
<polygon fill="#63b8ff" stroke="#63b8ff" points="543.45,-143.25 553.45,-139.75 543.45,-136.25 543.45,-143.25"/>
</a>
</g>
</g>
<!-- Node40&#45;&gt;Node33 -->
<g id="edge22_Node000040_Node000033" class="edge">
<title>Node40&#45;&gt;Node33</title>
<g id="a_edge22_Node000040_Node000033"><a xlink:title=" ">
<path fill="none" stroke="#63b8ff" d="M657.21,-145.92C674.67,-148.07 694.25,-150.48 711.68,-152.63"/>
<polygon fill="#63b8ff" stroke="#63b8ff" points="710.93,-156.06 721.28,-153.81 711.78,-149.11 710.93,-156.06"/>
</a>
</g>
</g>
<!-- Node76 -->
<g id="Node000076" class="node">
<title>Node76</title>
<g id="a_Node000076"><a xlink:href="kest__parameter__widget_8c.html#a9f3fb39848be08aec8f4f317aa8487b0" target="_top" xlink:title=" ">
<polygon fill="#fff0f0" stroke="red" points="670.38,-33.5 541.88,-33.5 541.88,0 670.38,0 670.38,-33.5"/>
<text xml:space="preserve" text-anchor="start" x="549.88" y="-20" font-family="Helvetica,sans-Serif" font-size="10.00">setting_widget_change</text>
<text xml:space="preserve" text-anchor="middle" x="606.12" y="-7.25" font-family="Helvetica,sans-Serif" font-size="10.00">_cb_inner</text>
</a>
</g>
</g>
<!-- Node75&#45;&gt;Node76 -->
<g id="edge24_Node000075_Node000076" class="edge">
<title>Node75&#45;&gt;Node76</title>
<g id="a_edge24_Node000075_Node000076"><a xlink:title=" ">
<path fill="none" stroke="#63b8ff" d="M462.17,-47.88C482.99,-43.35 507.6,-37.99 530.49,-33"/>
<polygon fill="#63b8ff" stroke="#63b8ff" points="531.06,-36.46 540.08,-30.91 529.57,-29.62 531.06,-36.46"/>
</a>
</g>
</g>
</g>
</svg>
