<?xml version="1.0" encoding="UTF-8" standalone="no"?>
<!DOCTYPE svg PUBLIC "-//W3C//DTD SVG 1.1//EN"
 "http://www.w3.org/Graphics/SVG/1.1/DTD/svg11.dtd">
<!-- Generated by graphviz version 13.1.2 (20250808.2320)
 -->
<!-- Title: kest_pipeline_create_fpga_transfer_batch Pages: 1 -->
<svg width="645pt" height="311pt"
 viewBox="0.00 0.00 645.00 311.00" xmlns="http://www.w3.org/2000/svg" xmlns:xlink="http://www.w3.org/1999/xlink">
<g id="graph0" class="graph" transform="scale(1 1) rotate(0) translate(4 306.5)">
<title>kest_pipeline_create_fpga_transfer_batch</title>
<!-- Node1 -->
<g id="Node000001" class="node">
<title>Node1</title>
<g id="a_Node000001"><a xlink:title=" ">
<polygon fill="#999999" stroke="#666666" points="118.75,-186.5 0,-186.5 0,-153 118.75,-153 118.75,-186.5"/>
<text xml:space="preserve" text-anchor="start" x="8" y="-173" font-family="Helvetica,sans-Serif" font-size="10.00">kest_pipeline_create</text>
<text xml:space="preserve" text-anchor="middle" x="59.38" y="-160.25" font-family="Helvetica,sans-Serif" font-size="10.00">_fpga_transfer_batch</text>
</a>
</g>
</g>
<!-- Node2 -->
<g id="Node000002" class="node">
<title>Node2</title>
<g id="a_Node000002"><a xlink:href="kest__resource_8c.html#a0dbd38376633e45652b4da3a7249c4b7" target="_top" xlink:title=" ">
<polygon fill="white" stroke="#666666" points="287.38,-302.5 158.88,-302.5 158.88,-269 287.38,-269 287.38,-302.5"/>
<text xml:space="preserve" text-anchor="start" x="166.88" y="-289" font-family="Helvetica,sans-Serif" font-size="10.00">empty_m_eff_resource</text>
<text xml:space="preserve" text-anchor="middle" x="223.12" y="-276.25" font-family="Helvetica,sans-Serif" font-size="10.00">_report</text>
</a>
</g>
</g>
<!-- Node1&#45;&gt;Node2 -->
<g id="edge1_Node000001_Node000002" class="edge">
<title>Node1&#45;&gt;Node2</title>
<g id="a_edge1_Node000001_Node000002"><a xlink:title=" ">
<path fill="none" stroke="#63b8ff" d="M74.47,-186.77C91.66,-206.6 122.43,-239.26 154.75,-259.75 156.74,-261.01 158.79,-262.22 160.9,-263.39"/>
<polygon fill="#63b8ff" stroke="#63b8ff" points="159.18,-266.45 169.68,-267.85 162.35,-260.2 159.18,-266.45"/>
</a>
</g>
</g>
<!-- Node3 -->
<g id="Node000003" class="node">
<title>Node3</title>
<g id="a_Node000003"><a xlink:href="kest__error__codes_8c.html#a0f4c77127bc0b77264a21104979c576a" target="_top" xlink:title=" ">
<polygon fill="white" stroke="#666666" points="277.25,-250.5 169,-250.5 169,-217 277.25,-217 277.25,-250.5"/>
<text xml:space="preserve" text-anchor="start" x="177" y="-237" font-family="Helvetica,sans-Serif" font-size="10.00">kest_error_code_to</text>
<text xml:space="preserve" text-anchor="middle" x="223.12" y="-224.25" font-family="Helvetica,sans-Serif" font-size="10.00">_string</text>
</a>
</g>
</g>
<!-- Node1&#45;&gt;Node3 -->
<g id="edge2_Node000001_Node000003" class="edge">
<title>Node1&#45;&gt;Node3</title>
<g id="a_edge2_Node000001_Node000003"><a xlink:title=" ">
<path fill="none" stroke="#63b8ff" d="M103.72,-186.9C123.48,-194.72 147.09,-204.06 168,-212.34"/>
<polygon fill="#63b8ff" stroke="#63b8ff" points="166.67,-215.57 177.25,-215.99 169.24,-209.06 166.67,-215.57"/>
</a>
</g>
</g>
<!-- Node4 -->
<g id="Node000004" class="node">
<title>Node4</title>
<g id="a_Node000004"><a xlink:href="kest__fpga__io_8c.html#a6900c9b759f1dccf1b3535cc76ad83e3" target="_top" xlink:title=" ">
<polygon fill="white" stroke="#666666" points="291.5,-161.12 154.75,-161.12 154.75,-140.38 291.5,-140.38 291.5,-161.12"/>
<text xml:space="preserve" text-anchor="middle" x="223.12" y="-147.62" font-family="Helvetica,sans-Serif" font-size="10.00">kest_fpga_batch_append</text>
</a>
</g>
</g>
<!-- Node1&#45;&gt;Node4 -->
<g id="edge3_Node000001_Node000004" class="edge">
<title>Node1&#45;&gt;Node4</title>
<g id="a_edge3_Node000001_Node000004"><a xlink:title=" ">
<path fill="none" stroke="#63b8ff" d="M119.23,-162.84C126.96,-161.93 134.99,-160.99 142.99,-160.05"/>
<polygon fill="#63b8ff" stroke="#63b8ff" points="143.24,-163.54 152.76,-158.9 142.42,-156.59 143.24,-163.54"/>
</a>
</g>
</g>
<!-- Node8 -->
<g id="Node000008" class="node">
<title>Node8</title>
<g id="a_Node000008"><a xlink:href="kest__fpga__encoding_8c.html#ad4ae765e4a682cbd9a71e3acceabf81d" target="_top" xlink:title=" ">
<polygon fill="white" stroke="#666666" points="291.5,-78.5 154.75,-78.5 154.75,-45 291.5,-45 291.5,-78.5"/>
<text xml:space="preserve" text-anchor="start" x="162.75" y="-65" font-family="Helvetica,sans-Serif" font-size="10.00">kest_fpga_batch_append</text>
<text xml:space="preserve" text-anchor="middle" x="223.12" y="-52.25" font-family="Helvetica,sans-Serif" font-size="10.00">_effects</text>
</a>
</g>
</g>
<!-- Node1&#45;&gt;Node8 -->
<g id="edge7_Node000001_Node000008" class="edge">
<title>Node1&#45;&gt;Node8</title>
<g id="a_edge7_Node000001_Node000008"><a xlink:title=" ">
<path fill="none" stroke="#63b8ff" d="M79.78,-152.67C98.29,-136.84 127.34,-113.17 154.75,-95.75 161.06,-91.74 167.92,-87.82 174.75,-84.16"/>
<polygon fill="#63b8ff" stroke="#63b8ff" points="176.08,-87.41 183.34,-79.7 172.85,-81.2 176.08,-87.41"/>
</a>
</g>
</g>
<!-- Node30 -->
<g id="Node000030" class="node">
<title>Node30</title>
<g id="a_Node000030"><a xlink:href="kest__fpga__io_8c.html#aa1e89a33f9427932bc0d8e62bbfed3cb" target="_top" xlink:title=" ">
<polygon fill="white" stroke="#666666" points="461.62,-214.5 330.12,-214.5 330.12,-181 461.62,-181 461.62,-214.5"/>
<text xml:space="preserve" text-anchor="start" x="338.12" y="-201" font-family="Helvetica,sans-Serif" font-size="10.00">kest_free_fpga_transfer</text>
<text xml:space="preserve" text-anchor="middle" x="395.88" y="-188.25" font-family="Helvetica,sans-Serif" font-size="10.00">_batch</text>
</a>
</g>
</g>
<!-- Node1&#45;&gt;Node30 -->
<g id="edge11_Node000001_Node000030" class="edge">
<title>Node1&#45;&gt;Node30</title>
<g id="a_edge11_Node000001_Node000030"><a xlink:title=" ">
<path fill="none" stroke="#63b8ff" d="M119.02,-174.66C174.38,-179.29 257.71,-186.27 318.29,-191.34"/>
<polygon fill="#63b8ff" stroke="#63b8ff" points="317.94,-194.82 328.2,-192.17 318.53,-187.85 317.94,-194.82"/>
</a>
</g>
</g>
<!-- Node31 -->
<g id="Node000031" class="node">
<title>Node31</title>
<g id="a_Node000031"><a xlink:href="kest__fpga__io_8c.html#adb086d525d9f47a4c077d7377110500b" target="_top" xlink:title=" ">
<polygon fill="white" stroke="#666666" points="462,-124.5 329.75,-124.5 329.75,-91 462,-91 462,-124.5"/>
<text xml:space="preserve" text-anchor="start" x="337.75" y="-111" font-family="Helvetica,sans-Serif" font-size="10.00">kest_new_fpga_transfer</text>
<text xml:space="preserve" text-anchor="middle" x="395.88" y="-98.25" font-family="Helvetica,sans-Serif" font-size="10.00">_batch</text>
</a>
</g>
</g>
<!-- Node1&#45;&gt;Node31 -->
<g id="edge13_Node000001_Node000031" class="edge">
<title>Node1&#45;&gt;Node31</title>
<g id="a_edge13_Node000001_Node000031"><a xlink:title=" ">
<path fill="none" stroke="#63b8ff" d="M95.88,-152.67C113.25,-145.05 134.68,-136.69 154.75,-131.75 208.31,-118.58 270.28,-112.6 317.85,-109.91"/>
<polygon fill="#63b8ff" stroke="#63b8ff" points="318,-113.41 327.8,-109.39 317.63,-106.42 318,-113.41"/>
</a>
</g>
</g>
<!-- Node5 -->
<g id="Node000005" class="node">
<title>Node5</title>
<g id="a_Node000005"><a xlink:href="kest__alloc_8c.html#ac3afebacd5118241e9f677df59a469b0" target="_top" xlink:title=" ">
<polygon fill="white" stroke="#666666" points="433.12,-163.12 358.62,-163.12 358.62,-142.38 433.12,-142.38 433.12,-163.12"/>
<text xml:space="preserve" text-anchor="middle" x="395.88" y="-149.62" font-family="Helvetica,sans-Serif" font-size="10.00">kest_realloc</text>
</a>
</g>
</g>
<!-- Node4&#45;&gt;Node5 -->
<g id="edge4_Node000004_Node000005" class="edge">
<title>Node4&#45;&gt;Node5</title>
<g id="a_edge4_Node000004_Node000005"><a xlink:title=" ">
<path fill="none" stroke="#63b8ff" d="M291.61,-151.54C310.09,-151.76 329.74,-151.99 346.89,-152.19"/>
<polygon fill="#63b8ff" stroke="#63b8ff" points="346.76,-155.69 356.8,-152.3 346.84,-148.69 346.76,-155.69"/>
</a>
</g>
</g>
<!-- Node6 -->
<g id="Node000006" class="node">
<title>Node6</title>
<g id="a_Node000006"><a xlink:href="kest__alloc_8c.html#a849755c5dc5b35e712ffcdb602e50fb4" target="_top" xlink:title=" ">
<polygon fill="white" stroke="#666666" points="601,-150.12 536.25,-150.12 536.25,-129.38 601,-129.38 601,-150.12"/>
<text xml:space="preserve" text-anchor="middle" x="568.62" y="-136.62" font-family="Helvetica,sans-Serif" font-size="10.00">kest_alloc</text>
</a>
</g>
</g>
<!-- Node5&#45;&gt;Node6 -->
<g id="edge5_Node000005_Node000006" class="edge">
<title>Node5&#45;&gt;Node6</title>
<g id="a_edge5_Node000005_Node000006"><a xlink:title=" ">
<path fill="none" stroke="#63b8ff" d="M433.51,-149.96C460.29,-147.92 496.7,-145.15 524.83,-143.01"/>
<polygon fill="#63b8ff" stroke="#63b8ff" points="524.72,-146.53 534.42,-142.28 524.19,-139.55 524.72,-146.53"/>
</a>
</g>
</g>
<!-- Node7 -->
<g id="Node000007" class="node">
<title>Node7</title>
<g id="a_Node000007"><a xlink:href="kest__alloc_8c.html#a294af5728a94aa316fcf65304d388d48" target="_top" xlink:title=" ">
<polygon fill="white" stroke="#666666" points="599.12,-192.12 538.12,-192.12 538.12,-171.38 599.12,-171.38 599.12,-192.12"/>
<text xml:space="preserve" text-anchor="middle" x="568.62" y="-178.62" font-family="Helvetica,sans-Serif" font-size="10.00">kest_free</text>
</a>
</g>
</g>
<!-- Node5&#45;&gt;Node7 -->
<g id="edge6_Node000005_Node000007" class="edge">
<title>Node5&#45;&gt;Node7</title>
<g id="a_edge6_Node000005_Node000007"><a xlink:title=" ">
<path fill="none" stroke="#63b8ff" d="M433.51,-158.97C460.89,-163.62 498.35,-169.98 526.71,-174.8"/>
<polygon fill="#63b8ff" stroke="#63b8ff" points="525.93,-178.22 536.38,-176.44 527.11,-171.32 525.93,-178.22"/>
</a>
</g>
</g>
<!-- Node9 -->
<g id="Node000009" class="node">
<title>Node9</title>
<g id="a_Node000009"><a xlink:href="kest__fpga__encoding_8c.html#a1d36760e33c68c0a5b22c8920f3a5a2b" target="_top" xlink:title=" ">
<polygon fill="white" stroke="#666666" points="464.25,-72.5 327.5,-72.5 327.5,-39 464.25,-39 464.25,-72.5"/>
<text xml:space="preserve" text-anchor="start" x="335.5" y="-59" font-family="Helvetica,sans-Serif" font-size="10.00">kest_fpga_batch_append</text>
<text xml:space="preserve" text-anchor="middle" x="395.88" y="-46.25" font-family="Helvetica,sans-Serif" font-size="10.00">_effect</text>
</a>
</g>
</g>
<!-- Node8&#45;&gt;Node9 -->
<g id="edge8_Node000008_Node000009" class="edge">
<title>Node8&#45;&gt;Node9</title>
<g id="a_edge8_Node000008_Node000009"><a xlink:title=" ">
<path fill="none" stroke="#63b8ff" d="M291.61,-59.38C299.53,-59.1 307.66,-58.81 315.73,-58.53"/>
<polygon fill="#63b8ff" stroke="#63b8ff" points="315.66,-62.04 325.53,-58.19 315.41,-55.04 315.66,-62.04"/>
</a>
</g>
</g>
<!-- Node10 -->
<g id="Node000010" class="node">
<title>Node10</title>
<g id="a_Node000010"><a xlink:href="kest__fpga__encoding_8c.html#a142858ad82d4b4214aa9191a2146454e" target="_top" xlink:title=" ">
<polygon fill="#fff0f0" stroke="red" points="637,-85.5 500.25,-85.5 500.25,-52 637,-52 637,-85.5"/>
<text xml:space="preserve" text-anchor="start" x="508.25" y="-72" font-family="Helvetica,sans-Serif" font-size="10.00">kest_fpga_batch_append</text>
<text xml:space="preserve" text-anchor="middle" x="568.62" y="-59.25" font-family="Helvetica,sans-Serif" font-size="10.00">_eff_desc</text>
</a>
</g>
</g>
<!-- Node9&#45;&gt;Node10 -->
<g id="edge9_Node000009_Node000010" class="edge">
<title>Node9&#45;&gt;Node10</title>
<g id="a_edge9_Node000009_Node000010"><a xlink:title=" ">
<path fill="none" stroke="#63b8ff" d="M464.36,-60.89C472.28,-61.49 480.41,-62.11 488.48,-62.72"/>
<polygon fill="#63b8ff" stroke="#63b8ff" points="488.05,-66.2 498.28,-63.47 488.58,-59.22 488.05,-66.2"/>
</a>
</g>
</g>
<!-- Node29 -->
<g id="Node000029" class="node">
<title>Node29</title>
<g id="a_Node000029"><a xlink:href="kest__resource_8c.html#ac1b5488b4cacbcd4eda84d86e2fcecb8" target="_top" xlink:title=" ">
<polygon fill="white" stroke="#666666" points="627.62,-33.5 509.62,-33.5 509.62,0 627.62,0 627.62,-33.5"/>
<text xml:space="preserve" text-anchor="start" x="517.62" y="-20" font-family="Helvetica,sans-Serif" font-size="10.00">kest_resource_report</text>
<text xml:space="preserve" text-anchor="middle" x="568.62" y="-7.25" font-family="Helvetica,sans-Serif" font-size="10.00">_integrate</text>
</a>
</g>
</g>
<!-- Node9&#45;&gt;Node29 -->
<g id="edge10_Node000009_Node000029" class="edge">
<title>Node9&#45;&gt;Node29</title>
<g id="a_edge10_Node000009_Node000029"><a xlink:title=" ">
<path fill="none" stroke="#63b8ff" d="M464.36,-40.34C475.48,-37.8 487.02,-35.16 498.18,-32.61"/>
<polygon fill="#63b8ff" stroke="#63b8ff" points="498.74,-36.07 507.71,-30.43 497.18,-29.25 498.74,-36.07"/>
</a>
</g>
</g>
<!-- Node30&#45;&gt;Node7 -->
<g id="edge12_Node000030_Node000007" class="edge">
<title>Node30&#45;&gt;Node7</title>
<g id="a_edge12_Node000030_Node000007"><a xlink:title=" ">
<path fill="none" stroke="#63b8ff" d="M461.92,-191.66C483.61,-189.62 507.17,-187.41 526.53,-185.6"/>
<polygon fill="#63b8ff" stroke="#63b8ff" points="526.85,-189.09 536.48,-184.67 526.19,-182.12 526.85,-189.09"/>
</a>
</g>
</g>
<!-- Node31&#45;&gt;Node6 -->
<g id="edge14_Node000031_Node000006" class="edge">
<title>Node31&#45;&gt;Node6</title>
<g id="a_edge14_Node000031_Node000006"><a xlink:title=" ">
<path fill="none" stroke="#63b8ff" d="M462.4,-120.03C483.28,-123.94 505.82,-128.17 524.67,-131.7"/>
<polygon fill="#63b8ff" stroke="#63b8ff" points="523.92,-135.12 534.4,-133.52 525.21,-128.24 523.92,-135.12"/>
</a>
</g>
</g>
</g>
</svg>
