<?xml version="1.0" encoding="UTF-8" standalone="no"?>
<!DOCTYPE svg PUBLIC "-//W3C//DTD SVG 1.1//EN"
 "http://www.w3.org/Graphics/SVG/1.1/DTD/svg11.dtd">
<!-- Generated by graphviz version 13.1.2 (20250808.2320)
 -->
<!-- Title: hide_keyboard Pages: 1 -->
<!--zoomable 223 -->

<svg id="main" version="1.1" xmlns="http://www.w3.org/2000/svg" xmlns:xlink="http://www.w3.org/1999/xlink" xml:space="preserve" onload="init(evt)">

<style type="text/css"><![CDATA[
.node, .edge {opacity: 0.7;}
.node.selected, .edge.selected {opacity: 1;}
.edge:hover path { stroke: red; }
.edge:hover polygon { stroke: red; fill: red; }
]]></style>

<defs>
  <circle id="rim" cx="0" cy="0" r="7"/>
  <circle id="rim2" cx="0" cy="0" r="3.5"/>
  <g id="zoomPlus">
    <use xlink:href="#rim" fill="#404040"><set attributeName="fill" to="#808080" begin="zoomplus.mouseover" end="zoomplus.mouseout"/></use>
    <path d="M-4,0h8M0,-4v8" fill="none" stroke="white" stroke-width="1.5" pointer-events="none"/>
  </g>
  <g id="zoomMin">
    <use xlink:href="#rim" fill="#404040"><set attributeName="fill" to="#808080" begin="zoomminus.mouseover" end="zoomminus.mouseout"/></use>
    <path d="M-4,0h8" fill="none" stroke="white" stroke-width="1.5" pointer-events="none"/>
  </g>
  <g id="arrowUp" transform="translate(30 24)">
    <use xlink:href="#rim"/>
    <path pointer-events="none" fill="none" stroke="white" stroke-width="1.5" d="M0,-3.0v7 M-2.5,-0.5L0,-3.0L2.5,-0.5"/>
  </g>
  <g id="arrowRight" transform="rotate(90) translate(36 -43)">
    <use xlink:href="#rim"/>
    <path pointer-events="none" fill="none" stroke="white" stroke-width="1.5" d="M0,-3.0v7 M-2.5,-0.5L0,-3.0L2.5,-0.5"/>
  </g>
  <g id="arrowDown" transform="rotate(180) translate(-30 -48)">
    <use xlink:href="#rim"/>
    <path pointer-events="none" fill="none" stroke="white" stroke-width="1.5" d="M0,-3.0v7 M-2.5,-0.5L0,-3.0L2.5,-0.5"/>
  </g>
  <g id="arrowLeft" transform="rotate(270) translate(-36 17)">
    <use xlink:href="#rim"/>
    <path pointer-events="none" fill="none" stroke="white" stroke-width="1.5" d="M0,-3.0v7 M-2.5,-0.5L0,-3.0L2.5,-0.5"/>
  </g>
  <g id="resetDef">
    <use xlink:href="#rim2" fill="#404040"><set attributeName="fill" to="#808080" begin="reset.mouseover" end="reset.mouseout"/></use>
  </g>
</defs>
<script type="application/ecmascript">
var viewWidth = 954;
var viewHeight = 223;
var sectionId = 'dynsection-42';
</script>
<script type="application/ecmascript" xlink:href="svg.min.js"/>
<svg id="graph" class="graph">
<g id="viewport">
<title>hide_keyboard</title>
<!-- Node1 -->
<g id="Node000001" class="node">
<title>Node1</title>
<g id="a_Node000001"><a xlink:title=" ">
<polygon fill="#999999" stroke="#666666" points="945.75,-117.75 858.5,-117.75 858.5,-97 945.75,-97 945.75,-117.75"/>
<text xml:space="preserve" text-anchor="middle" x="902.12" y="-104.25" font-family="Helvetica,sans-Serif" font-size="10.00">hide_keyboard</text>
</a>
</g>
</g>
<!-- Node2 -->
<g id="Node000002" class="node">
<title>Node2</title>
<g id="a_Node000002"><a xlink:href="kest__profile__view_8c.html#a43e0b701625c0a8717c09f33aaaa8aa2" target="_top" xlink:title=" ">
<polygon fill="white" stroke="#666666" points="622.75,-214.75 479.25,-214.75 479.25,-194 622.75,-194 622.75,-214.75"/>
<text xml:space="preserve" text-anchor="middle" x="551" y="-201.25" font-family="Helvetica,sans-Serif" font-size="10.00">profile_view_revert_name</text>
</a>
</g>
</g>
<!-- Node1&#45;&gt;Node2 -->
<g id="edge1_Node000001_Node000002" class="edge">
<title>Node1&#45;&gt;Node2</title>
<g id="a_edge1_Node000001_Node000002"><a xlink:title=" ">
<path fill="none" stroke="#63b8ff" d="M887.68,-127.22C873.78,-145.88 850.26,-172.79 822.5,-185.38 759.47,-213.96 679.64,-215.98 623.08,-212.52"/>
<polygon fill="#63b8ff" stroke="#63b8ff" points="890.36,-129.49 893.33,-119.31 884.66,-125.42 890.36,-129.49"/>
</a>
</g>
</g>
<!-- Node25 -->
<g id="Node000025" class="node">
<title>Node25</title>
<g id="a_Node000025"><a xlink:href="kest__profile__view_8c.html#a090890f54a5017e1baacd296da5dffde" target="_top" xlink:title=" ">
<polygon fill="white" stroke="#666666" points="812,-176.75 674.5,-176.75 674.5,-156 812,-156 812,-176.75"/>
<text xml:space="preserve" text-anchor="middle" x="743.25" y="-163.25" font-family="Helvetica,sans-Serif" font-size="10.00">profile_view_save_name</text>
</a>
</g>
</g>
<!-- Node1&#45;&gt;Node25 -->
<g id="edge6_Node000001_Node000025" class="edge">
<title>Node1&#45;&gt;Node25</title>
<g id="a_edge6_Node000001_Node000025"><a xlink:title=" ">
<path fill="none" stroke="#63b8ff" d="M872.31,-123.49C857.71,-131.18 839.51,-140.06 822.5,-146.38 813.17,-149.84 802.99,-152.92 793.16,-155.56"/>
<polygon fill="#63b8ff" stroke="#63b8ff" points="873.76,-126.69 880.91,-118.87 870.44,-120.52 873.76,-126.69"/>
</a>
</g>
</g>
<!-- Node27 -->
<g id="Node000027" class="node">
<title>Node27</title>
<g id="a_Node000027"><a xlink:href="kest__sequence__view_8c.html#a5da73a414e449a9425efa9c9d008323d" target="_top" xlink:title=" ">
<polygon fill="white" stroke="#666666" points="822.5,-137.75 664,-137.75 664,-117 822.5,-117 822.5,-137.75"/>
<text xml:space="preserve" text-anchor="middle" x="743.25" y="-124.25" font-family="Helvetica,sans-Serif" font-size="10.00">sequence_view_revert_name</text>
</a>
</g>
</g>
<!-- Node1&#45;&gt;Node27 -->
<g id="edge9_Node000001_Node000027" class="edge">
<title>Node1&#45;&gt;Node27</title>
<g id="a_edge9_Node000001_Node000027"><a xlink:title=" ">
<path fill="none" stroke="#63b8ff" d="M846.84,-114.3C839.11,-115.28 831.04,-116.31 822.96,-117.34"/>
<polygon fill="#63b8ff" stroke="#63b8ff" points="847.28,-117.77 856.76,-113.03 846.39,-110.82 847.28,-117.77"/>
</a>
</g>
</g>
<!-- Node28 -->
<g id="Node000028" class="node">
<title>Node28</title>
<g id="a_Node000028"><a xlink:href="kest__sequence__view_8c.html#a9a770d265f15421aca3cec3f9d758e30" target="_top" xlink:title=" ">
<polygon fill="white" stroke="#666666" points="815.38,-98.75 671.12,-98.75 671.12,-78 815.38,-78 815.38,-98.75"/>
<text xml:space="preserve" text-anchor="middle" x="743.25" y="-85.25" font-family="Helvetica,sans-Serif" font-size="10.00">sequence_view_set_name</text>
</a>
</g>
</g>
<!-- Node1&#45;&gt;Node28 -->
<g id="edge11_Node000001_Node000028" class="edge">
<title>Node1&#45;&gt;Node28</title>
<g id="a_edge11_Node000001_Node000028"><a xlink:title=" ">
<path fill="none" stroke="#63b8ff" d="M847.13,-100.84C837.01,-99.61 826.28,-98.31 815.73,-97.03"/>
<polygon fill="#63b8ff" stroke="#63b8ff" points="846.41,-104.27 856.76,-102 847.25,-97.32 846.41,-104.27"/>
</a>
</g>
</g>
<!-- Node29 -->
<g id="Node000029" class="node">
<title>Node29</title>
<g id="a_Node000029"><a xlink:href="kest__parameter__widget_8c.html#a04db5fc0ed01be6d1f7b2233ea9094bb" target="_top" xlink:title=" ">
<polygon fill="white" stroke="#666666" points="798.12,-59.75 688.38,-59.75 688.38,-39 798.12,-39 798.12,-59.75"/>
<text xml:space="preserve" text-anchor="middle" x="743.25" y="-46.25" font-family="Helvetica,sans-Serif" font-size="10.00">sw_field_cancel_cb</text>
</a>
</g>
</g>
<!-- Node1&#45;&gt;Node29 -->
<g id="edge13_Node000001_Node000029" class="edge">
<title>Node1&#45;&gt;Node29</title>
<g id="a_edge13_Node000001_Node000029"><a xlink:title=" ">
<path fill="none" stroke="#63b8ff" d="M871.67,-91.41C857.16,-83.99 839.23,-75.49 822.5,-69.38 813.02,-65.91 802.68,-62.81 792.72,-60.15"/>
<polygon fill="#63b8ff" stroke="#63b8ff" points="869.74,-94.34 880.22,-95.86 872.97,-88.14 869.74,-94.34"/>
</a>
</g>
</g>
<!-- Node39 -->
<g id="Node000039" class="node">
<title>Node39</title>
<g id="a_Node000039"><a xlink:href="kest__parameter__widget_8c.html#a22b7fa4ae5f9628f2da2155f58c2635c" target="_top" xlink:title=" ">
<polygon fill="white" stroke="#666666" points="794,-20.75 692.5,-20.75 692.5,0 794,0 794,-20.75"/>
<text xml:space="preserve" text-anchor="middle" x="743.25" y="-7.25" font-family="Helvetica,sans-Serif" font-size="10.00">sw_field_save_cb</text>
</a>
</g>
</g>
<!-- Node1&#45;&gt;Node39 -->
<g id="edge16_Node000001_Node000039" class="edge">
<title>Node1&#45;&gt;Node39</title>
<g id="a_edge16_Node000001_Node000039"><a xlink:title=" ">
<path fill="none" stroke="#63b8ff" d="M886.19,-87.74C871.76,-70.14 848.35,-44.92 822.5,-30.38 813.82,-25.49 803.94,-21.78 794.19,-18.96"/>
<polygon fill="#63b8ff" stroke="#63b8ff" points="883.34,-89.78 892.29,-95.43 888.82,-85.43 883.34,-89.78"/>
</a>
</g>
</g>
<!-- Node3 -->
<g id="Node000003" class="node">
<title>Node3</title>
<g id="a_Node000003"><a xlink:href="kest__profile__view_8c.html#a9f9505132871c2ea372958fd06ecf10f" target="_top" xlink:title=" ">
<polygon fill="white" stroke="#666666" points="432.38,-194.75 305.38,-194.75 305.38,-174 432.38,-174 432.38,-194.75"/>
<text xml:space="preserve" text-anchor="middle" x="368.88" y="-181.25" font-family="Helvetica,sans-Serif" font-size="10.00">configure_profile_view</text>
</a>
</g>
</g>
<!-- Node2&#45;&gt;Node3 -->
<g id="edge2_Node000002_Node000003" class="edge">
<title>Node2&#45;&gt;Node3</title>
<g id="a_edge2_Node000002_Node000003"><a xlink:title=" ">
<path fill="none" stroke="#63b8ff" d="M467.63,-195.23C455.88,-193.92 443.96,-192.6 432.67,-191.35"/>
<polygon fill="#63b8ff" stroke="#63b8ff" points="466.98,-198.68 477.31,-196.3 467.75,-191.72 466.98,-198.68"/>
</a>
</g>
</g>
<!-- Node4 -->
<g id="Node000004" class="node">
<title>Node4</title>
<g id="a_Node000004"><a xlink:href="kest__profile__view_8c.html#a8a76cb40ff26bbde55ba56a4f25094d1" target="_top" xlink:title=" ">
<polygon fill="#fff0f0" stroke="red" points="130.75,-194.75 0,-194.75 0,-174 130.75,-174 130.75,-194.75"/>
<text xml:space="preserve" text-anchor="middle" x="65.38" y="-181.25" font-family="Helvetica,sans-Serif" font-size="10.00">create_profile_view_for</text>
</a>
</g>
</g>
<!-- Node3&#45;&gt;Node4 -->
<g id="edge3_Node000003_Node000004" class="edge">
<title>Node3&#45;&gt;Node4</title>
<g id="a_edge3_Node000003_Node000004"><a xlink:title=" ">
<path fill="none" stroke="#63b8ff" d="M293.69,-184.38C243.9,-184.38 178.94,-184.38 131.21,-184.38"/>
<polygon fill="#63b8ff" stroke="#63b8ff" points="293.52,-187.88 303.52,-184.38 293.52,-180.88 293.52,-187.88"/>
</a>
</g>
</g>
<!-- Node24 -->
<g id="Node000024" class="node">
<title>Node24</title>
<g id="a_Node000024"><a xlink:href="kest__profile__view_8c.html#abfe2cf72961d0ab0b70f858cf1281a38" target="_top" xlink:title=" ">
<polygon fill="white" stroke="#666666" points="263.75,-175.75 166.75,-175.75 166.75,-155 263.75,-155 263.75,-175.75"/>
<text xml:space="preserve" text-anchor="middle" x="215.25" y="-162.25" font-family="Helvetica,sans-Serif" font-size="10.00">init_profile_view</text>
</a>
</g>
</g>
<!-- Node3&#45;&gt;Node24 -->
<g id="edge4_Node000003_Node000024" class="edge">
<title>Node3&#45;&gt;Node24</title>
<g id="a_edge4_Node000003_Node000024"><a xlink:title=" ">
<path fill="none" stroke="#63b8ff" d="M293.59,-175.07C283.53,-173.81 273.43,-172.54 264.01,-171.36"/>
<polygon fill="#63b8ff" stroke="#63b8ff" points="293.03,-178.52 303.39,-176.29 293.9,-171.58 293.03,-178.52"/>
</a>
</g>
</g>
<!-- Node24&#45;&gt;Node4 -->
<g id="edge5_Node000024_Node000004" class="edge">
<title>Node24&#45;&gt;Node4</title>
<g id="a_edge5_Node000024_Node000004"><a xlink:title=" ">
<path fill="none" stroke="#63b8ff" d="M155.25,-172.96C147.32,-173.97 139.16,-175.02 131.14,-176.05"/>
<polygon fill="#63b8ff" stroke="#63b8ff" points="155.67,-176.43 165.15,-171.68 154.78,-169.49 155.67,-176.43"/>
</a>
</g>
</g>
<!-- Node26 -->
<g id="Node000026" class="node">
<title>Node26</title>
<g id="a_Node000026"><a xlink:href="kest__profile__view_8c.html#a08c96dd43f7672a21827f83800181c89" target="_top" xlink:title=" ">
<polygon fill="white" stroke="#666666" points="628,-175.75 474,-175.75 474,-155 628,-155 628,-175.75"/>
<text xml:space="preserve" text-anchor="middle" x="551" y="-162.25" font-family="Helvetica,sans-Serif" font-size="10.00">profile_view_save_name_cb</text>
</a>
</g>
</g>
<!-- Node25&#45;&gt;Node26 -->
<g id="edge7_Node000025_Node000026" class="edge">
<title>Node25&#45;&gt;Node26</title>
<g id="a_edge7_Node000025_Node000026"><a xlink:title=" ">
<path fill="none" stroke="#63b8ff" d="M662.83,-165.96C651.44,-165.9 639.73,-165.84 628.39,-165.78"/>
<polygon fill="#63b8ff" stroke="#63b8ff" points="662.57,-169.46 672.59,-166.01 662.61,-162.46 662.57,-169.46"/>
</a>
</g>
</g>
<!-- Node26&#45;&gt;Node3 -->
<g id="edge8_Node000026_Node000003" class="edge">
<title>Node26&#45;&gt;Node3</title>
<g id="a_edge8_Node000026_Node000003"><a xlink:title=" ">
<path fill="none" stroke="#63b8ff" d="M462.37,-174.62C452.38,-175.67 442.35,-176.73 432.77,-177.74"/>
<polygon fill="#63b8ff" stroke="#63b8ff" points="462.53,-178.12 472.11,-173.59 461.79,-171.16 462.53,-178.12"/>
</a>
</g>
</g>
<!-- Node11 -->
<g id="Node000011" class="node">
<title>Node11</title>
<g id="a_Node000011"><a xlink:href="kest__sequence__view_8c.html#ac871b24a7c875a7b6e707a3d2691a2a9" target="_top" xlink:title=" ">
<polygon fill="#fff0f0" stroke="red" points="622,-117.75 480,-117.75 480,-97 622,-97 622,-117.75"/>
<text xml:space="preserve" text-anchor="middle" x="551" y="-104.25" font-family="Helvetica,sans-Serif" font-size="10.00">configure_sequence_view</text>
</a>
</g>
</g>
<!-- Node27&#45;&gt;Node11 -->
<g id="edge10_Node000027_Node000011" class="edge">
<title>Node27&#45;&gt;Node11</title>
<g id="a_edge10_Node000027_Node000011"><a xlink:title=" ">
<path fill="none" stroke="#63b8ff" d="M652.44,-117.93C642.35,-116.87 632.18,-115.8 622.38,-114.77"/>
<polygon fill="#63b8ff" stroke="#63b8ff" points="651.95,-121.4 662.26,-118.97 652.69,-114.44 651.95,-121.4"/>
</a>
</g>
</g>
<!-- Node28&#45;&gt;Node11 -->
<g id="edge12_Node000028_Node000011" class="edge">
<title>Node28&#45;&gt;Node11</title>
<g id="a_edge12_Node000028_Node000011"><a xlink:title=" ">
<path fill="none" stroke="#63b8ff" d="M659.54,-96.64C647.09,-97.88 634.36,-99.15 622.2,-100.36"/>
<polygon fill="#63b8ff" stroke="#63b8ff" points="659.76,-100.13 669.36,-95.65 659.06,-93.17 659.76,-100.13"/>
</a>
</g>
</g>
<!-- Node30 -->
<g id="Node000030" class="node">
<title>Node30</title>
<g id="a_Node000030"><a xlink:href="kest__parameter__widget_8c.html#a5a6ebded10138ba55624e195ae4f4309" target="_top" xlink:title=" ">
<polygon fill="white" stroke="#666666" points="599.5,-40.75 502.5,-40.75 502.5,-20 599.5,-20 599.5,-40.75"/>
<text xml:space="preserve" text-anchor="middle" x="551" y="-27.25" font-family="Helvetica,sans-Serif" font-size="10.00">edit_sw_field_cb</text>
</a>
</g>
</g>
<!-- Node29&#45;&gt;Node30 -->
<g id="edge14_Node000029_Node000030" class="edge">
<title>Node29&#45;&gt;Node30</title>
<g id="a_edge14_Node000029_Node000030"><a xlink:title=" ">
<path fill="none" stroke="#63b8ff" d="M676.64,-42.82C651.41,-40.3 623.11,-37.48 599.86,-35.15"/>
<polygon fill="#63b8ff" stroke="#63b8ff" points="676.18,-46.29 686.48,-43.81 676.88,-39.33 676.18,-46.29"/>
</a>
</g>
</g>
<!-- Node31 -->
<g id="Node000031" class="node">
<title>Node31</title>
<g id="a_Node000031"><a xlink:href="kest__parameter__widget_8c.html#a2074107eca4e8e2b3832c9f9f2e5f9f2" target="_top" xlink:title=" ">
<polygon fill="#fff0f0" stroke="red" points="438,-40.75 299.75,-40.75 299.75,-20 438,-20 438,-40.75"/>
<text xml:space="preserve" text-anchor="middle" x="368.88" y="-27.25" font-family="Helvetica,sans-Serif" font-size="10.00">setting_widget_create_ui</text>
</a>
</g>
</g>
<!-- Node30&#45;&gt;Node31 -->
<g id="edge15_Node000030_Node000031" class="edge">
<title>Node30&#45;&gt;Node31</title>
<g id="a_edge15_Node000030_Node000031"><a xlink:title=" ">
<path fill="none" stroke="#63b8ff" d="M490.85,-30.38C474.03,-30.38 455.56,-30.38 438.24,-30.38"/>
<polygon fill="#63b8ff" stroke="#63b8ff" points="490.69,-33.88 500.69,-30.38 490.69,-26.88 490.69,-33.88"/>
</a>
</g>
</g>
<!-- Node39&#45;&gt;Node30 -->
<g id="edge17_Node000039_Node000030" class="edge">
<title>Node39&#45;&gt;Node30</title>
<g id="a_edge17_Node000039_Node000030"><a xlink:title=" ">
<path fill="none" stroke="#63b8ff" d="M680.87,-16.83C654.55,-19.59 624.28,-22.78 599.69,-25.36"/>
<polygon fill="#63b8ff" stroke="#63b8ff" points="681.18,-20.31 690.76,-15.79 680.45,-13.35 681.18,-20.31"/>
</a>
</g>
</g>
</g>
</svg>

<g id="navigator" transform="translate(0 0)" fill="#404254">
  <rect fill="#f2f5e9" fill-opacity="0.5" stroke="#606060" stroke-width=".5" x="0" y="0" width="60" height="60"/>
  <use id="zoomplus" xlink:href="#zoomPlus" x="17" y="9" onmousedown="handleZoom(evt,'in')"/>
  <use id="zoomminus" xlink:href="#zoomMin" x="42" y="9" onmousedown="handleZoom(evt,'out')"/>
  <use id="reset" xlink:href="#resetDef" x="30" y="36" onmousedown="handleReset()"/>
   <use id="arrowup" xlink:href="#arrowUp" x="0" y="0" onmousedown="handlePan(0,-1)"/>
  <use id="arrowright" xlink:href="#arrowRight" x="0" y="0" onmousedown="handlePan(1,0)"/>
  <use id="arrowdown" xlink:href="#arrowDown" x="0" y="0" onmousedown="handlePan(0,1)"/>
  <use id="arrowleft" xlink:href="#arrowLeft" x="0" y="0" onmousedown="handlePan(-1,0)"/>
</g>
<svg viewBox="0 0 15 15" width="100%" height="30px" preserveAspectRatio="xMaxYMin meet">
 <g id="arrow_out" transform="scale(0.3 0.3)">
  <a xlink:href="kest__ui_8h_a449db99602c8ef93fb805362fec7fb1d_icgraph_org.svg" target="_base">
   <rect id="button" ry="5" rx="5" y="6" x="6" height="38" width="38"
        fill="#f2f5e9" fill-opacity="0.5" stroke="#606060" stroke-width="1.0"/>
   <path id="arrow"
     d="M 11.500037,31.436501 C 11.940474,20.09759 22.043105,11.32322 32.158766,21.979434 L 37.068811,17.246167 C 37.068811,17.246167 37.088388,32 37.088388,32 L 22.160133,31.978069 C 22.160133,31.978069 26.997745,27.140456 26.997745,27.140456 C 18.528582,18.264221 13.291696,25.230495 11.500037,31.436501 z"
     style="fill:#404040;"/>
  </a>
 </g>
</svg>

<style type='text/css'>
<![CDATA[
[data-mouse-over-selected='false'] { opacity: 0.7; }
[data-mouse-over-selected='true']  { opacity: 1.0; }
]]>
</style>
<script type="application/ecmascript"><![CDATA[
document.addEventListener('DOMContentLoaded', (event) => {
  highlightEdges();
  highlightAdjacentNodes();
});
]]></script>
</svg>
