<?xml version="1.0" encoding="UTF-8" standalone="no"?>
<!DOCTYPE svg PUBLIC "-//W3C//DTD SVG 1.1//EN"
 "http://www.w3.org/Graphics/SVG/1.1/DTD/svg11.dtd">
<!-- Generated by graphviz version 13.1.2 (20250808.2320)
 -->
<!-- Title: kest_expression_compute_range Pages: 1 -->
<svg width="687pt" height="327pt"
 viewBox="0.00 0.00 687.00 327.00" xmlns="http://www.w3.org/2000/svg" xmlns:xlink="http://www.w3.org/1999/xlink">
<g id="graph0" class="graph" transform="scale(1 1) rotate(0) translate(4 322.75)">
<title>kest_expression_compute_range</title>
<!-- Node1 -->
<g id="Node000001" class="node">
<title>Node1</title>
<g id="a_Node000001"><a xlink:title=" ">
<polygon fill="#999999" stroke="#666666" points="142.75,-176.12 0,-176.12 0,-142.62 142.75,-142.62 142.75,-176.12"/>
<text xml:space="preserve" text-anchor="start" x="8" y="-162.62" font-family="Helvetica,sans-Serif" font-size="10.00">kest_expression_compute</text>
<text xml:space="preserve" text-anchor="middle" x="71.38" y="-149.88" font-family="Helvetica,sans-Serif" font-size="10.00">_range</text>
</a>
</g>
</g>
<!-- Node2 -->
<g id="Node000002" class="node">
<title>Node2</title>
<g id="a_Node000002"><a xlink:href="kest__expression_8c.html#a12b486853cdfbc5ca334e74f9a90de2b" target="_top" xlink:title=" ">
<polygon fill="white" stroke="#666666" points="321.5,-176.12 178.75,-176.12 178.75,-142.62 321.5,-142.62 321.5,-176.12"/>
<text xml:space="preserve" text-anchor="start" x="186.75" y="-162.62" font-family="Helvetica,sans-Serif" font-size="10.00">kest_expression_compute</text>
<text xml:space="preserve" text-anchor="middle" x="250.12" y="-149.88" font-family="Helvetica,sans-Serif" font-size="10.00">_range_rec</text>
</a>
</g>
</g>
<!-- Node1&#45;&gt;Node2 -->
<g id="edge1_Node000001_Node000002" class="edge">
<title>Node1&#45;&gt;Node2</title>
<g id="a_edge1_Node000001_Node000002"><a xlink:title=" ">
<path fill="none" stroke="#63b8ff" d="M143.25,-159.38C151.15,-159.38 159.24,-159.38 167.26,-159.38"/>
<polygon fill="#63b8ff" stroke="#63b8ff" points="167.01,-162.88 177.01,-159.38 167.01,-155.88 167.01,-162.88"/>
</a>
</g>
</g>
<!-- Node2&#45;&gt;Node2 -->
<g id="edge4_Node000002_Node000002" class="edge">
<title>Node2&#45;&gt;Node2</title>
<g id="a_edge4_Node000002_Node000002"><a xlink:title=" ">
<path fill="none" stroke="#63b8ff" d="M217.99,-176.54C212.53,-185.74 223.24,-194.12 250.12,-194.12 265.25,-194.12 275.25,-191.47 280.14,-187.51"/>
<polygon fill="#63b8ff" stroke="#63b8ff" points="283.51,-188.51 281.97,-178.03 276.64,-187.18 283.51,-188.51"/>
</a>
</g>
</g>
<!-- Node3 -->
<g id="Node000003" class="node">
<title>Node3</title>
<g id="a_Node000003"><a xlink:href="kest__expr__scope_8c.html#a8077a19bd328bbd93fcbf80d8591cb5c" target="_top" xlink:title=" ">
<polygon fill="white" stroke="#666666" points="492.38,-318.75 365.38,-318.75 365.38,-298 492.38,-298 492.38,-318.75"/>
<text xml:space="preserve" text-anchor="middle" x="428.88" y="-305.25" font-family="Helvetica,sans-Serif" font-size="10.00">kest_expr_scope_fetch</text>
</a>
</g>
</g>
<!-- Node2&#45;&gt;Node3 -->
<g id="edge2_Node000002_Node000003" class="edge">
<title>Node2&#45;&gt;Node3</title>
<g id="a_edge2_Node000002_Node000003"><a xlink:title=" ">
<path fill="none" stroke="#63b8ff" d="M260.5,-176.41C276.63,-204.12 312.31,-258.83 357.5,-288.38 360.05,-290.04 362.75,-291.58 365.53,-292.98"/>
<polygon fill="#63b8ff" stroke="#63b8ff" points="363.98,-296.12 374.54,-296.93 366.79,-289.71 363.98,-296.12"/>
</a>
</g>
</g>
<!-- Node4 -->
<g id="Node000004" class="node">
<title>Node4</title>
<g id="a_Node000004"><a xlink:href="kest__expression_8c.html#a835e180e79c6b6d2e4377a528949d7a0" target="_top" xlink:title=" ">
<polygon fill="white" stroke="#666666" points="490.12,-279.75 367.62,-279.75 367.62,-259 490.12,-259 490.12,-279.75"/>
<text xml:space="preserve" text-anchor="middle" x="428.88" y="-266.25" font-family="Helvetica,sans-Serif" font-size="10.00">kest_expression_arity</text>
</a>
</g>
</g>
<!-- Node2&#45;&gt;Node4 -->
<g id="edge3_Node000002_Node000004" class="edge">
<title>Node2&#45;&gt;Node4</title>
<g id="a_edge3_Node000002_Node000004"><a xlink:title=" ">
<path fill="none" stroke="#63b8ff" d="M266.79,-176.47C286.21,-196.69 321.21,-230.04 357.5,-249.38 361.13,-251.31 364.97,-253.08 368.91,-254.68"/>
<polygon fill="#63b8ff" stroke="#63b8ff" points="367.47,-257.88 378.07,-258.06 369.89,-251.32 367.47,-257.88"/>
</a>
</g>
</g>
<!-- Node5 -->
<g id="Node000005" class="node">
<title>Node5</title>
<g id="a_Node000005"><a xlink:href="kest__expression_8c.html#acf37e49d77d8bcdaa88727bd67c146fa" target="_top" xlink:title=" ">
<polygon fill="white" stroke="#666666" points="500.25,-240.75 357.5,-240.75 357.5,-220 500.25,-220 500.25,-240.75"/>
<text xml:space="preserve" text-anchor="middle" x="428.88" y="-227.25" font-family="Helvetica,sans-Serif" font-size="10.00">kest_expression_evaluate</text>
</a>
</g>
</g>
<!-- Node2&#45;&gt;Node5 -->
<g id="edge5_Node000002_Node000005" class="edge">
<title>Node2&#45;&gt;Node5</title>
<g id="a_edge5_Node000002_Node000005"><a xlink:title=" ">
<path fill="none" stroke="#63b8ff" d="M282.08,-176.46C302.94,-187.49 331.33,-201.55 357.5,-211.38 362.16,-213.12 367.04,-214.78 371.98,-216.34"/>
<polygon fill="#63b8ff" stroke="#63b8ff" points="370.76,-219.63 381.34,-219.14 372.77,-212.92 370.76,-219.63"/>
</a>
</g>
</g>
<!-- Node6 -->
<g id="Node000006" class="node">
<title>Node6</title>
<g id="a_Node000006"><a xlink:href="kest__expression_8c.html#af12e3464d3e6c4a6e573736af368fd91" target="_top" xlink:title=" ">
<polygon fill="white" stroke="#666666" points="493.12,-202.12 364.62,-202.12 364.62,-168.62 493.12,-168.62 493.12,-202.12"/>
<text xml:space="preserve" text-anchor="start" x="372.62" y="-188.62" font-family="Helvetica,sans-Serif" font-size="10.00">kest_expression_refers</text>
<text xml:space="preserve" text-anchor="middle" x="428.88" y="-175.88" font-family="Helvetica,sans-Serif" font-size="10.00">_constant</text>
</a>
</g>
</g>
<!-- Node2&#45;&gt;Node6 -->
<g id="edge6_Node000002_Node000006" class="edge">
<title>Node2&#45;&gt;Node6</title>
<g id="a_edge6_Node000002_Node000006"><a xlink:title=" ">
<path fill="none" stroke="#63b8ff" d="M322,-169.8C332.12,-171.29 342.55,-172.82 352.75,-174.32"/>
<polygon fill="#63b8ff" stroke="#63b8ff" points="352.23,-177.78 362.63,-175.78 353.25,-170.86 352.23,-177.78"/>
</a>
</g>
</g>
<!-- Node7 -->
<g id="Node000007" class="node">
<title>Node7</title>
<g id="a_Node000007"><a xlink:href="kest__expression_8c.html#aadf2a6a074cb1ad7b45893704cbd71c3" target="_top" xlink:title=" ">
<polygon fill="white" stroke="#666666" points="483.75,-150.12 374,-150.12 374,-116.62 483.75,-116.62 483.75,-150.12"/>
<text xml:space="preserve" text-anchor="start" x="382" y="-136.62" font-family="Helvetica,sans-Serif" font-size="10.00">kest_expression_to</text>
<text xml:space="preserve" text-anchor="middle" x="428.88" y="-123.88" font-family="Helvetica,sans-Serif" font-size="10.00">_string</text>
</a>
</g>
</g>
<!-- Node2&#45;&gt;Node7 -->
<g id="edge7_Node000002_Node000007" class="edge">
<title>Node2&#45;&gt;Node7</title>
<g id="a_edge7_Node000002_Node000007"><a xlink:title=" ">
<path fill="none" stroke="#63b8ff" d="M322,-148.95C335.29,-146.99 349.14,-144.96 362.27,-143.03"/>
<polygon fill="#63b8ff" stroke="#63b8ff" points="362.71,-146.5 372.09,-141.58 361.69,-139.57 362.71,-146.5"/>
</a>
</g>
</g>
<!-- Node12 -->
<g id="Node000012" class="node">
<title>Node12</title>
<g id="a_Node000012"><a xlink:href="kest__expression_8c.html#ae162d4eb0d35fa2b80788054a533387e" target="_top" xlink:title=" ">
<polygon fill="white" stroke="#666666" points="477,-98.75 380.75,-98.75 380.75,-78 477,-78 477,-98.75"/>
<text xml:space="preserve" text-anchor="middle" x="428.88" y="-85.25" font-family="Helvetica,sans-Serif" font-size="10.00">kest_interval_ab</text>
</a>
</g>
</g>
<!-- Node2&#45;&gt;Node12 -->
<g id="edge10_Node000002_Node000012" class="edge">
<title>Node2&#45;&gt;Node12</title>
<g id="a_edge10_Node000002_Node000012"><a xlink:title=" ">
<path fill="none" stroke="#63b8ff" d="M282.08,-142.29C302.94,-131.26 331.33,-117.2 357.5,-107.38 362.16,-105.63 367.04,-103.97 371.98,-102.41"/>
<polygon fill="#63b8ff" stroke="#63b8ff" points="372.77,-105.83 381.34,-99.61 370.76,-99.12 372.77,-105.83"/>
</a>
</g>
</g>
<!-- Node13 -->
<g id="Node000013" class="node">
<title>Node13</title>
<g id="a_Node000013"><a xlink:href="kest__expression_8c.html#a8831b010403eeba4bddedca70a446ce1" target="_top" xlink:title=" ">
<polygon fill="white" stroke="#666666" points="492,-59.75 365.75,-59.75 365.75,-39 492,-39 492,-59.75"/>
<text xml:space="preserve" text-anchor="middle" x="428.88" y="-46.25" font-family="Helvetica,sans-Serif" font-size="10.00">kest_interval_real_line</text>
</a>
</g>
</g>
<!-- Node2&#45;&gt;Node13 -->
<g id="edge11_Node000002_Node000013" class="edge">
<title>Node2&#45;&gt;Node13</title>
<g id="a_edge11_Node000002_Node000013"><a xlink:title=" ">
<path fill="none" stroke="#63b8ff" d="M266.79,-142.28C286.21,-122.06 321.21,-88.71 357.5,-69.38 361.13,-67.44 364.97,-65.67 368.91,-64.07"/>
<polygon fill="#63b8ff" stroke="#63b8ff" points="369.89,-67.43 378.07,-60.69 367.47,-60.87 369.89,-67.43"/>
</a>
</g>
</g>
<!-- Node14 -->
<g id="Node000014" class="node">
<title>Node14</title>
<g id="a_Node000014"><a xlink:href="kest__expression_8c.html#ade33a48e7785ee7d93728cdf56474be7" target="_top" xlink:title=" ">
<polygon fill="white" stroke="#666666" points="493.5,-20.75 364.25,-20.75 364.25,0 493.5,0 493.5,-20.75"/>
<text xml:space="preserve" text-anchor="middle" x="428.88" y="-7.25" font-family="Helvetica,sans-Serif" font-size="10.00">kest_interval_singleton</text>
</a>
</g>
</g>
<!-- Node2&#45;&gt;Node14 -->
<g id="edge12_Node000002_Node000014" class="edge">
<title>Node2&#45;&gt;Node14</title>
<g id="a_edge12_Node000002_Node000014"><a xlink:title=" ">
<path fill="none" stroke="#63b8ff" d="M260.5,-142.34C276.63,-114.63 312.31,-59.92 357.5,-30.38 360.05,-28.71 362.75,-27.17 365.53,-25.77"/>
<polygon fill="#63b8ff" stroke="#63b8ff" points="366.79,-29.04 374.54,-21.82 363.98,-22.63 366.79,-29.04"/>
</a>
</g>
</g>
<!-- Node8 -->
<g id="Node000008" class="node">
<title>Node8</title>
<g id="a_Node000008"><a xlink:href="kest__expression_8c.html#a767b50b7ddfa94dc61810dfdcc8feaf0" target="_top" xlink:title=" ">
<polygon fill="#fff0f0" stroke="red" points="679,-143.75 536.25,-143.75 536.25,-123 679,-123 679,-143.75"/>
<text xml:space="preserve" text-anchor="middle" x="607.62" y="-130.25" font-family="Helvetica,sans-Serif" font-size="10.00">kest_expression_print_rec</text>
</a>
</g>
</g>
<!-- Node7&#45;&gt;Node8 -->
<g id="edge8_Node000007_Node000008" class="edge">
<title>Node7&#45;&gt;Node8</title>
<g id="a_edge8_Node000007_Node000008"><a xlink:title=" ">
<path fill="none" stroke="#63b8ff" d="M483.87,-133.38C496.72,-133.38 510.71,-133.38 524.51,-133.38"/>
<polygon fill="#63b8ff" stroke="#63b8ff" points="524.5,-136.88 534.5,-133.38 524.5,-129.88 524.5,-136.88"/>
</a>
</g>
</g>
<!-- Node8&#45;&gt;Node8 -->
<g id="edge9_Node000008_Node000008" class="edge">
<title>Node8&#45;&gt;Node8</title>
<g id="a_edge9_Node000008_Node000008"><a xlink:title=" ">
<path fill="none" stroke="#63b8ff" d="M578.82,-144.15C567.3,-152.81 576.9,-161.75 607.62,-161.75 624.43,-161.75 634.91,-159.08 639.08,-155.24"/>
<polygon fill="#63b8ff" stroke="#63b8ff" points="642.51,-154.53 636.78,-145.62 635.7,-156.16 642.51,-154.53"/>
</a>
</g>
</g>
</g>
</svg>
