<?xml version="1.0" encoding="UTF-8" standalone="no"?>
<!DOCTYPE svg PUBLIC "-//W3C//DTD SVG 1.1//EN"
 "http://www.w3.org/Graphics/SVG/1.1/DTD/svg11.dtd">
<!-- Generated by graphviz version 13.1.2 (20250808.2320)
 -->
<!-- Title: kest_cxt_clone_state Pages: 1 -->
<svg width="543pt" height="68pt"
 viewBox="0.00 0.00 543.00 68.00" xmlns="http://www.w3.org/2000/svg" xmlns:xlink="http://www.w3.org/1999/xlink">
<g id="graph0" class="graph" transform="scale(1 1) rotate(0) translate(4 63.75)">
<title>kest_cxt_clone_state</title>
<!-- Node1 -->
<g id="Node000001" class="node">
<title>Node1</title>
<g id="a_Node000001"><a xlink:title=" ">
<polygon fill="#999999" stroke="#666666" points="535,-39.75 417,-39.75 417,-19 535,-19 535,-39.75"/>
<text xml:space="preserve" text-anchor="middle" x="476" y="-26.25" font-family="Helvetica,sans-Serif" font-size="10.00">kest_cxt_clone_state</text>
</a>
</g>
</g>
<!-- Node2 -->
<g id="Node000002" class="node">
<title>Node2</title>
<g id="a_Node000002"><a xlink:href="kest__state_8c.html#a2c43a0057886626aaebb61a5d017da31" target="_top" xlink:title=" ">
<polygon fill="white" stroke="#666666" points="381,-46.12 238.25,-46.12 238.25,-12.62 381,-12.62 381,-46.12"/>
<text xml:space="preserve" text-anchor="start" x="246.25" y="-32.62" font-family="Helvetica,sans-Serif" font-size="10.00">kest_state_representation</text>
<text xml:space="preserve" text-anchor="middle" x="309.62" y="-19.88" font-family="Helvetica,sans-Serif" font-size="10.00">_update</text>
</a>
</g>
</g>
<!-- Node1&#45;&gt;Node2 -->
<g id="edge1_Node000001_Node000002" class="edge">
<title>Node1&#45;&gt;Node2</title>
<g id="a_edge1_Node000001_Node000002"><a xlink:title=" ">
<path fill="none" stroke="#63b8ff" d="M405.14,-29.38C397.23,-29.38 389.16,-29.38 381.24,-29.38"/>
<polygon fill="#63b8ff" stroke="#63b8ff" points="405.07,-32.88 415.07,-29.38 405.07,-25.88 405.07,-32.88"/>
</a>
</g>
</g>
<!-- Node3 -->
<g id="Node000003" class="node">
<title>Node3</title>
<g id="a_Node000003"><a xlink:href="kest__context_8c.html#a8d785a89178c048ac11ee14f2a659993" target="_top" xlink:title=" ">
<polygon fill="white" stroke="#666666" points="202.25,-39.75 103,-39.75 103,-19 202.25,-19 202.25,-39.75"/>
<text xml:space="preserve" text-anchor="middle" x="152.62" y="-26.25" font-family="Helvetica,sans-Serif" font-size="10.00">kest_init_context</text>
</a>
</g>
</g>
<!-- Node2&#45;&gt;Node3 -->
<g id="edge2_Node000002_Node000003" class="edge">
<title>Node2&#45;&gt;Node3</title>
<g id="a_edge2_Node000002_Node000003"><a xlink:title=" ">
<path fill="none" stroke="#63b8ff" d="M226.67,-29.38C218.42,-29.38 210.24,-29.38 202.5,-29.38"/>
<polygon fill="#63b8ff" stroke="#63b8ff" points="226.42,-32.88 236.42,-29.38 226.42,-25.88 226.42,-32.88"/>
</a>
</g>
</g>
<!-- Node4 -->
<g id="Node000004" class="node">
<title>Node4</title>
<g id="a_Node000004"><a xlink:href="kest__int_8c.html#abce06be17fc37d675118a678a8100a36" target="_top" xlink:title=" ">
<polygon fill="white" stroke="#666666" points="65.5,-59.75 1.5,-59.75 1.5,-39 65.5,-39 65.5,-59.75"/>
<text xml:space="preserve" text-anchor="middle" x="33.5" y="-46.25" font-family="Helvetica,sans-Serif" font-size="10.00">app_main</text>
</a>
</g>
</g>
<!-- Node3&#45;&gt;Node4 -->
<g id="edge3_Node000003_Node000004" class="edge">
<title>Node3&#45;&gt;Node4</title>
<g id="a_edge3_Node000003_Node000004"><a xlink:title=" ">
<path fill="none" stroke="#63b8ff" d="M91.48,-39.64C82.65,-41.15 73.87,-42.65 65.94,-44.01"/>
<polygon fill="#63b8ff" stroke="#63b8ff" points="91.87,-43.13 101.14,-38 90.69,-36.23 91.87,-43.13"/>
</a>
</g>
</g>
<!-- Node5 -->
<g id="Node000005" class="node">
<title>Node5</title>
<g id="a_Node000005"><a xlink:href="kest__desktop_8c.html#ab499a4f71ef4cfc807b60d8739750c3e" target="_top" xlink:title=" ">
<polygon fill="#fff0f0" stroke="red" points="67,-20.75 0,-20.75 0,0 67,0 67,-20.75"/>
<text xml:space="preserve" text-anchor="middle" x="33.5" y="-7.25" font-family="Helvetica,sans-Serif" font-size="10.00">main_task</text>
</a>
</g>
</g>
<!-- Node3&#45;&gt;Node5 -->
<g id="edge4_Node000003_Node000005" class="edge">
<title>Node3&#45;&gt;Node5</title>
<g id="a_edge4_Node000003_Node000005"><a xlink:title=" ">
<path fill="none" stroke="#63b8ff" d="M91.37,-19.6C83.09,-18.26 74.85,-16.92 67.32,-15.7"/>
<polygon fill="#63b8ff" stroke="#63b8ff" points="90.71,-23.04 101.14,-21.19 91.83,-16.13 90.71,-23.04"/>
</a>
</g>
</g>
</g>
</svg>
