<?xml version="1.0" encoding="UTF-8" standalone="no"?>
<!DOCTYPE svg PUBLIC "-//W3C//DTD SVG 1.1//EN"
 "http://www.w3.org/Graphics/SVG/1.1/DTD/svg11.dtd">
<!-- Generated by graphviz version 13.1.2 (20250808.2320)
 -->
<!-- Title: kest_button_reset_state Pages: 1 -->
<svg width="761pt" height="106pt"
 viewBox="0.00 0.00 761.00 106.00" xmlns="http://www.w3.org/2000/svg" xmlns:xlink="http://www.w3.org/1999/xlink">
<g id="graph0" class="graph" transform="scale(1 1) rotate(0) translate(4 101.88)">
<title>kest_button_reset_state</title>
<!-- Node1 -->
<g id="Node000001" class="node">
<title>Node1</title>
<g id="a_Node000001"><a xlink:title=" ">
<polygon fill="#999999" stroke="#666666" points="752.75,-62.5 619.75,-62.5 619.75,-41.75 752.75,-41.75 752.75,-62.5"/>
<text xml:space="preserve" text-anchor="middle" x="686.25" y="-49" font-family="Helvetica,sans-Serif" font-size="10.00">kest_button_reset_state</text>
</a>
</g>
</g>
<!-- Node2 -->
<g id="Node000002" class="node">
<title>Node2</title>
<g id="a_Node000002"><a xlink:href="kest__button_8c.html#ab3d484ae52f7d01018eba300e3fe4e1f" target="_top" xlink:title=" ">
<polygon fill="white" stroke="#666666" points="572.5,-97.88 464.25,-97.88 464.25,-64.38 572.5,-64.38 572.5,-97.88"/>
<text xml:space="preserve" text-anchor="start" x="472.25" y="-84.38" font-family="Helvetica,sans-Serif" font-size="10.00">kest_active_button</text>
<text xml:space="preserve" text-anchor="middle" x="518.38" y="-71.62" font-family="Helvetica,sans-Serif" font-size="10.00">_reset_del_button</text>
</a>
</g>
</g>
<!-- Node1&#45;&gt;Node2 -->
<g id="edge1_Node000001_Node000002" class="edge">
<title>Node1&#45;&gt;Node2</title>
<g id="a_edge1_Node000001_Node000002"><a xlink:title=" ">
<path fill="none" stroke="#63b8ff" d="M612.4,-64.86C599.07,-67.19 585.38,-69.59 572.75,-71.79"/>
<polygon fill="#63b8ff" stroke="#63b8ff" points="612.75,-68.35 621.99,-63.18 611.54,-61.46 612.75,-68.35"/>
</a>
</g>
</g>
<!-- Node21 -->
<g id="Node000021" class="node">
<title>Node21</title>
<g id="a_Node000021"><a xlink:href="kest__button_8c.html#ab59ebaba4ff87ed51677e73ba4aac2ef" target="_top" xlink:title=" ">
<polygon fill="white" stroke="#666666" points="583.75,-46.25 453,-46.25 453,0 583.75,0 583.75,-46.25"/>
<text xml:space="preserve" text-anchor="start" x="461" y="-32.75" font-family="Helvetica,sans-Serif" font-size="10.00">kest_active_button</text>
<text xml:space="preserve" text-anchor="start" x="461" y="-20" font-family="Helvetica,sans-Serif" font-size="10.00">_swap_del_button_for</text>
<text xml:space="preserve" text-anchor="middle" x="518.38" y="-7.25" font-family="Helvetica,sans-Serif" font-size="10.00">_persistent_unclickable</text>
</a>
</g>
</g>
<!-- Node1&#45;&gt;Node21 -->
<g id="edge6_Node000001_Node000021" class="edge">
<title>Node1&#45;&gt;Node21</title>
<g id="a_edge6_Node000001_Node000021"><a xlink:title=" ">
<path fill="none" stroke="#63b8ff" d="M612.23,-39.36C602.91,-37.73 593.42,-36.07 584.25,-34.47"/>
<polygon fill="#63b8ff" stroke="#63b8ff" points="611.54,-42.79 621.99,-41.07 612.75,-35.9 611.54,-42.79"/>
</a>
</g>
</g>
<!-- Node3 -->
<g id="Node000003" class="node">
<title>Node3</title>
<g id="a_Node000003"><a xlink:href="kest__sequence__view_8c.html#aa97e3f2de03cf8443b11f65520f6b387" target="_top" xlink:title=" ">
<polygon fill="white" stroke="#666666" points="417,-68.88 289.25,-68.88 289.25,-35.38 417,-35.38 417,-68.88"/>
<text xml:space="preserve" text-anchor="start" x="297.25" y="-55.38" font-family="Helvetica,sans-Serif" font-size="10.00">sequence_view_profile</text>
<text xml:space="preserve" text-anchor="middle" x="353.12" y="-42.62" font-family="Helvetica,sans-Serif" font-size="10.00">_button_rep_update</text>
</a>
</g>
</g>
<!-- Node2&#45;&gt;Node3 -->
<g id="edge2_Node000002_Node000003" class="edge">
<title>Node2&#45;&gt;Node3</title>
<g id="a_edge2_Node000002_Node000003"><a xlink:title=" ">
<path fill="none" stroke="#63b8ff" d="M452.89,-69.67C441.2,-67.59 429.02,-65.43 417.36,-63.36"/>
<polygon fill="#63b8ff" stroke="#63b8ff" points="451.97,-73.06 462.43,-71.36 453.2,-66.17 451.97,-73.06"/>
</a>
</g>
</g>
<!-- Node4 -->
<g id="Node000004" class="node">
<title>Node4</title>
<g id="a_Node000004"><a xlink:href="kest__sequence__view_8c.html#ac871b24a7c875a7b6e707a3d2691a2a9" target="_top" xlink:title=" ">
<polygon fill="#fff0f0" stroke="red" points="142,-62.5 0,-62.5 0,-41.75 142,-41.75 142,-62.5"/>
<text xml:space="preserve" text-anchor="middle" x="71" y="-49" font-family="Helvetica,sans-Serif" font-size="10.00">configure_sequence_view</text>
</a>
</g>
</g>
<!-- Node3&#45;&gt;Node4 -->
<g id="edge3_Node000003_Node000004" class="edge">
<title>Node3&#45;&gt;Node4</title>
<g id="a_edge3_Node000003_Node000004"><a xlink:title=" ">
<path fill="none" stroke="#63b8ff" d="M277.64,-52.12C235.7,-52.12 183.62,-52.12 142.37,-52.12"/>
<polygon fill="#63b8ff" stroke="#63b8ff" points="277.4,-55.63 287.4,-52.13 277.4,-48.63 277.4,-55.63"/>
</a>
</g>
</g>
<!-- Node20 -->
<g id="Node000020" class="node">
<title>Node20</title>
<g id="a_Node000020"><a xlink:href="kest__sequence__view_8c.html#a83d1a352af6a3932ce4d08e01f7d8d8a" target="_top" xlink:title=" ">
<polygon fill="white" stroke="#666666" points="253.25,-43.5 178,-43.5 178,-22.75 253.25,-22.75 253.25,-43.5"/>
<text xml:space="preserve" text-anchor="middle" x="215.62" y="-30" font-family="Helvetica,sans-Serif" font-size="10.00">seq_plus_cb</text>
</a>
</g>
</g>
<!-- Node3&#45;&gt;Node20 -->
<g id="edge4_Node000003_Node000020" class="edge">
<title>Node3&#45;&gt;Node20</title>
<g id="a_edge4_Node000003_Node000020"><a xlink:title=" ">
<path fill="none" stroke="#63b8ff" d="M278,-41.73C269.56,-40.55 261.25,-39.38 253.61,-38.31"/>
<polygon fill="#63b8ff" stroke="#63b8ff" points="277.25,-45.16 287.64,-43.08 278.22,-38.23 277.25,-45.16"/>
</a>
</g>
</g>
<!-- Node20&#45;&gt;Node4 -->
<g id="edge5_Node000020_Node000004" class="edge">
<title>Node20&#45;&gt;Node4</title>
<g id="a_edge5_Node000020_Node000004"><a xlink:title=" ">
<path fill="none" stroke="#63b8ff" d="M166.22,-39.57C158.53,-40.6 150.44,-41.68 142.37,-42.75"/>
<polygon fill="#63b8ff" stroke="#63b8ff" points="166.57,-43.06 176.02,-38.27 165.65,-36.12 166.57,-43.06"/>
</a>
</g>
</g>
<!-- Node21&#45;&gt;Node3 -->
<g id="edge7_Node000021_Node000003" class="edge">
<title>Node21&#45;&gt;Node3</title>
<g id="a_edge7_Node000021_Node000003"><a xlink:title=" ">
<path fill="none" stroke="#63b8ff" d="M441.8,-36.55C433.63,-38 425.38,-39.47 417.38,-40.89"/>
<polygon fill="#63b8ff" stroke="#63b8ff" points="442.13,-40.05 451.36,-34.85 440.91,-33.15 442.13,-40.05"/>
</a>
</g>
</g>
</g>
</svg>
