<?xml version="1.0" encoding="UTF-8" standalone="no"?>
<!DOCTYPE svg PUBLIC "-//W3C//DTD SVG 1.1//EN"
 "http://www.w3.org/Graphics/SVG/1.1/DTD/svg11.dtd">
<!-- Generated by graphviz version 13.1.2 (20250808.2320)
 -->
<!-- Title: kest_profile_if_active_update_fpga Pages: 1 -->
<svg width="665pt" height="288pt"
 viewBox="0.00 0.00 665.00 288.00" xmlns="http://www.w3.org/2000/svg" xmlns:xlink="http://www.w3.org/1999/xlink">
<g id="graph0" class="graph" transform="scale(1 1) rotate(0) translate(4 283.5)">
<title>kest_profile_if_active_update_fpga</title>
<!-- Node1 -->
<g id="Node000001" class="node">
<title>Node1</title>
<g id="a_Node000001"><a xlink:title=" ">
<polygon fill="#999999" stroke="#666666" points="120.25,-234.5 0,-234.5 0,-201 120.25,-201 120.25,-234.5"/>
<text xml:space="preserve" text-anchor="start" x="8" y="-221" font-family="Helvetica,sans-Serif" font-size="10.00">kest_profile_if_active</text>
<text xml:space="preserve" text-anchor="middle" x="60.12" y="-208.25" font-family="Helvetica,sans-Serif" font-size="10.00">_update_fpga</text>
</a>
</g>
</g>
<!-- Node2 -->
<g id="Node000002" class="node">
<title>Node2</title>
<g id="a_Node000002"><a xlink:href="kest__profile_8c.html#a23cd63c025729fe28dbd76f64ce43f0d" target="_top" xlink:title=" ">
<polygon fill="white" stroke="#666666" points="302.75,-228.12 156.25,-228.12 156.25,-207.38 302.75,-207.38 302.75,-228.12"/>
<text xml:space="preserve" text-anchor="middle" x="229.5" y="-214.62" font-family="Helvetica,sans-Serif" font-size="10.00">kest_profile_program_fpga</text>
</a>
</g>
</g>
<!-- Node1&#45;&gt;Node2 -->
<g id="edge1_Node000001_Node000002" class="edge">
<title>Node1&#45;&gt;Node2</title>
<g id="a_edge1_Node000001_Node000002"><a xlink:title=" ">
<path fill="none" stroke="#63b8ff" d="M120.61,-217.75C128.4,-217.75 136.5,-217.75 144.6,-217.75"/>
<polygon fill="#63b8ff" stroke="#63b8ff" points="144.51,-221.25 154.51,-217.75 144.5,-214.25 144.51,-221.25"/>
</a>
</g>
</g>
<!-- Node3 -->
<g id="Node000003" class="node">
<title>Node3</title>
<g id="a_Node000003"><a xlink:href="kest__error__codes_8c.html#a0f4c77127bc0b77264a21104979c576a" target="_top" xlink:title=" ">
<polygon fill="white" stroke="#666666" points="642.25,-279.5 534,-279.5 534,-246 642.25,-246 642.25,-279.5"/>
<text xml:space="preserve" text-anchor="start" x="542" y="-266" font-family="Helvetica,sans-Serif" font-size="10.00">kest_error_code_to</text>
<text xml:space="preserve" text-anchor="middle" x="588.12" y="-253.25" font-family="Helvetica,sans-Serif" font-size="10.00">_string</text>
</a>
</g>
</g>
<!-- Node2&#45;&gt;Node3 -->
<g id="edge2_Node000002_Node000003" class="edge">
<title>Node2&#45;&gt;Node3</title>
<g id="a_edge2_Node000002_Node000003"><a xlink:title=" ">
<path fill="none" stroke="#63b8ff" d="M269.03,-228.59C289.57,-233.96 315.36,-240.07 338.75,-243.75 400.58,-253.48 471.88,-258.28 522.19,-260.61"/>
<polygon fill="#63b8ff" stroke="#63b8ff" points="521.89,-264.1 532.03,-261.05 522.2,-257.11 521.89,-264.1"/>
</a>
</g>
</g>
<!-- Node4 -->
<g id="Node000004" class="node">
<title>Node4</title>
<g id="a_Node000004"><a xlink:href="kest__fpga__comms_8c.html#aa3f94ee1fcafa0fcdc27ce70021c0f8b" target="_top" xlink:title=" ">
<polygon fill="white" stroke="#666666" points="483.75,-234.5 338.75,-234.5 338.75,-201 483.75,-201 483.75,-234.5"/>
<text xml:space="preserve" text-anchor="start" x="346.75" y="-221" font-family="Helvetica,sans-Serif" font-size="10.00">kest_fpga_queue_program</text>
<text xml:space="preserve" text-anchor="middle" x="411.25" y="-208.25" font-family="Helvetica,sans-Serif" font-size="10.00">_batch</text>
</a>
</g>
</g>
<!-- Node2&#45;&gt;Node4 -->
<g id="edge3_Node000002_Node000004" class="edge">
<title>Node2&#45;&gt;Node4</title>
<g id="a_edge3_Node000002_Node000004"><a xlink:title=" ">
<path fill="none" stroke="#63b8ff" d="M303.09,-217.75C310.88,-217.75 318.85,-217.75 326.76,-217.75"/>
<polygon fill="#63b8ff" stroke="#63b8ff" points="326.75,-221.25 336.75,-217.75 326.75,-214.25 326.75,-221.25"/>
</a>
</g>
</g>
<!-- Node5 -->
<g id="Node000005" class="node">
<title>Node5</title>
<g id="a_Node000005"><a xlink:href="kest__pipeline_8c.html#a7bb8f92d379766cce5cdc4b68d11818f" target="_top" xlink:title=" ">
<polygon fill="white" stroke="#666666" points="470.62,-182.5 351.88,-182.5 351.88,-149 470.62,-149 470.62,-182.5"/>
<text xml:space="preserve" text-anchor="start" x="359.88" y="-169" font-family="Helvetica,sans-Serif" font-size="10.00">kest_pipeline_create</text>
<text xml:space="preserve" text-anchor="middle" x="411.25" y="-156.25" font-family="Helvetica,sans-Serif" font-size="10.00">_fpga_transfer_batch</text>
</a>
</g>
</g>
<!-- Node2&#45;&gt;Node5 -->
<g id="edge4_Node000002_Node000005" class="edge">
<title>Node2&#45;&gt;Node5</title>
<g id="a_edge4_Node000002_Node000005"><a xlink:title=" ">
<path fill="none" stroke="#63b8ff" d="M267.74,-206.98C288.79,-200.89 315.79,-193.08 340.62,-185.89"/>
<polygon fill="#63b8ff" stroke="#63b8ff" points="341.38,-189.32 350.02,-183.18 339.44,-182.59 341.38,-189.32"/>
</a>
</g>
</g>
<!-- Node5&#45;&gt;Node3 -->
<g id="edge6_Node000005_Node000003" class="edge">
<title>Node5&#45;&gt;Node3</title>
<g id="a_edge6_Node000005_Node000003"><a xlink:title=" ">
<path fill="none" stroke="#63b8ff" d="M468.79,-182.92C474.05,-185.51 479.14,-188.44 483.75,-191.75 504.56,-206.68 499.09,-221.62 519.75,-236.75 521.31,-237.9 522.94,-239 524.6,-240.06"/>
<polygon fill="#63b8ff" stroke="#63b8ff" points="522.79,-243.06 533.22,-244.93 526.24,-236.96 522.79,-243.06"/>
</a>
</g>
</g>
<!-- Node6 -->
<g id="Node000006" class="node">
<title>Node6</title>
<g id="a_Node000006"><a xlink:href="kest__resource_8c.html#a0dbd38376633e45652b4da3a7249c4b7" target="_top" xlink:title=" ">
<polygon fill="white" stroke="#666666" points="652.38,-227.5 523.88,-227.5 523.88,-194 652.38,-194 652.38,-227.5"/>
<text xml:space="preserve" text-anchor="start" x="531.88" y="-214" font-family="Helvetica,sans-Serif" font-size="10.00">empty_m_eff_resource</text>
<text xml:space="preserve" text-anchor="middle" x="588.12" y="-201.25" font-family="Helvetica,sans-Serif" font-size="10.00">_report</text>
</a>
</g>
</g>
<!-- Node5&#45;&gt;Node6 -->
<g id="edge5_Node000005_Node000006" class="edge">
<title>Node5&#45;&gt;Node6</title>
<g id="a_edge5_Node000005_Node000006"><a xlink:title=" ">
<path fill="none" stroke="#63b8ff" d="M470.97,-180.86C484.28,-184.28 498.59,-187.97 512.46,-191.54"/>
<polygon fill="#63b8ff" stroke="#63b8ff" points="511.44,-194.89 521.99,-193.99 513.18,-188.11 511.44,-194.89"/>
</a>
</g>
</g>
<!-- Node7 -->
<g id="Node000007" class="node">
<title>Node7</title>
<g id="a_Node000007"><a xlink:href="kest__fpga__io_8c.html#a6900c9b759f1dccf1b3535cc76ad83e3" target="_top" xlink:title=" ">
<polygon fill="#fff0f0" stroke="red" points="656.5,-176.12 519.75,-176.12 519.75,-155.38 656.5,-155.38 656.5,-176.12"/>
<text xml:space="preserve" text-anchor="middle" x="588.12" y="-162.62" font-family="Helvetica,sans-Serif" font-size="10.00">kest_fpga_batch_append</text>
</a>
</g>
</g>
<!-- Node5&#45;&gt;Node7 -->
<g id="edge7_Node000005_Node000007" class="edge">
<title>Node5&#45;&gt;Node7</title>
<g id="a_edge7_Node000005_Node000007"><a xlink:title=" ">
<path fill="none" stroke="#63b8ff" d="M470.97,-165.75C482.89,-165.75 495.62,-165.75 508.12,-165.75"/>
<polygon fill="#63b8ff" stroke="#63b8ff" points="507.99,-169.25 517.99,-165.75 507.99,-162.25 507.99,-169.25"/>
</a>
</g>
</g>
<!-- Node11 -->
<g id="Node000011" class="node">
<title>Node11</title>
<g id="a_Node000011"><a xlink:href="kest__fpga__encoding_8c.html#ad4ae765e4a682cbd9a71e3acceabf81d" target="_top" xlink:title=" ">
<polygon fill="#fff0f0" stroke="red" points="656.5,-137.5 519.75,-137.5 519.75,-104 656.5,-104 656.5,-137.5"/>
<text xml:space="preserve" text-anchor="start" x="527.75" y="-124" font-family="Helvetica,sans-Serif" font-size="10.00">kest_fpga_batch_append</text>
<text xml:space="preserve" text-anchor="middle" x="588.12" y="-111.25" font-family="Helvetica,sans-Serif" font-size="10.00">_effects</text>
</a>
</g>
</g>
<!-- Node5&#45;&gt;Node11 -->
<g id="edge8_Node000005_Node000011" class="edge">
<title>Node5&#45;&gt;Node11</title>
<g id="a_edge8_Node000005_Node000011"><a xlink:title=" ">
<path fill="none" stroke="#63b8ff" d="M470.97,-150.64C483.17,-147.5 496.21,-144.14 508.99,-140.86"/>
<polygon fill="#63b8ff" stroke="#63b8ff" points="509.84,-144.25 518.65,-138.37 508.09,-137.47 509.84,-144.25"/>
</a>
</g>
</g>
<!-- Node33 -->
<g id="Node000033" class="node">
<title>Node33</title>
<g id="a_Node000033"><a xlink:href="kest__fpga__io_8c.html#aa1e89a33f9427932bc0d8e62bbfed3cb" target="_top" xlink:title=" ">
<polygon fill="#fff0f0" stroke="red" points="653.88,-85.5 522.38,-85.5 522.38,-52 653.88,-52 653.88,-85.5"/>
<text xml:space="preserve" text-anchor="start" x="530.38" y="-72" font-family="Helvetica,sans-Serif" font-size="10.00">kest_free_fpga_transfer</text>
<text xml:space="preserve" text-anchor="middle" x="588.12" y="-59.25" font-family="Helvetica,sans-Serif" font-size="10.00">_batch</text>
</a>
</g>
</g>
<!-- Node5&#45;&gt;Node33 -->
<g id="edge9_Node000005_Node000033" class="edge">
<title>Node5&#45;&gt;Node33</title>
<g id="a_edge9_Node000005_Node000033"><a xlink:title=" ">
<path fill="none" stroke="#63b8ff" d="M434.86,-148.73C456.03,-133.31 488.94,-110.64 519.75,-94.75 522.57,-93.3 525.49,-91.87 528.47,-90.5"/>
<polygon fill="#63b8ff" stroke="#63b8ff" points="529.6,-93.82 537.33,-86.58 526.77,-87.42 529.6,-93.82"/>
</a>
</g>
</g>
<!-- Node34 -->
<g id="Node000034" class="node">
<title>Node34</title>
<g id="a_Node000034"><a xlink:href="kest__fpga__io_8c.html#adb086d525d9f47a4c077d7377110500b" target="_top" xlink:title=" ">
<polygon fill="#fff0f0" stroke="red" points="654.25,-33.5 522,-33.5 522,0 654.25,0 654.25,-33.5"/>
<text xml:space="preserve" text-anchor="start" x="530" y="-20" font-family="Helvetica,sans-Serif" font-size="10.00">kest_new_fpga_transfer</text>
<text xml:space="preserve" text-anchor="middle" x="588.12" y="-7.25" font-family="Helvetica,sans-Serif" font-size="10.00">_batch</text>
</a>
</g>
</g>
<!-- Node5&#45;&gt;Node34 -->
<g id="edge10_Node000005_Node000034" class="edge">
<title>Node5&#45;&gt;Node34</title>
<g id="a_edge10_Node000005_Node000034"><a xlink:title=" ">
<path fill="none" stroke="#63b8ff" d="M423.11,-148.71C440.56,-122.57 477.22,-72.5 519.75,-42.75 521.52,-41.51 523.36,-40.32 525.25,-39.18"/>
<polygon fill="#63b8ff" stroke="#63b8ff" points="526.59,-42.43 533.7,-34.58 523.25,-36.28 526.59,-42.43"/>
</a>
</g>
</g>
</g>
</svg>
