<?xml version="1.0" encoding="UTF-8" standalone="no"?>
<!DOCTYPE svg PUBLIC "-//W3C//DTD SVG 1.1//EN"
 "http://www.w3.org/Graphics/SVG/1.1/DTD/svg11.dtd">
<!-- Generated by graphviz version 13.1.2 (20250808.2320)
 -->
<!-- Title: create_menu_item_ui Pages: 1 -->
<!--zoomable 786 -->

<svg id="main" version="1.1" xmlns="http://www.w3.org/2000/svg" xmlns:xlink="http://www.w3.org/1999/xlink" xml:space="preserve" onload="init(evt)">

<style type="text/css"><![CDATA[
.node, .edge {opacity: 0.7;}
.node.selected, .edge.selected {opacity: 1;}
.edge:hover path { stroke: red; }
.edge:hover polygon { stroke: red; fill: red; }
]]></style>

<defs>
  <circle id="rim" cx="0" cy="0" r="7"/>
  <circle id="rim2" cx="0" cy="0" r="3.5"/>
  <g id="zoomPlus">
    <use xlink:href="#rim" fill="#404040"><set attributeName="fill" to="#808080" begin="zoomplus.mouseover" end="zoomplus.mouseout"/></use>
    <path d="M-4,0h8M0,-4v8" fill="none" stroke="white" stroke-width="1.5" pointer-events="none"/>
  </g>
  <g id="zoomMin">
    <use xlink:href="#rim" fill="#404040"><set attributeName="fill" to="#808080" begin="zoomminus.mouseover" end="zoomminus.mouseout"/></use>
    <path d="M-4,0h8" fill="none" stroke="white" stroke-width="1.5" pointer-events="none"/>
  </g>
  <g id="arrowUp" transform="translate(30 24)">
    <use xlink:href="#rim"/>
    <path pointer-events="none" fill="none" stroke="white" stroke-width="1.5" d="M0,-3.0v7 M-2.5,-0.5L0,-3.0L2.5,-0.5"/>
  </g>
  <g id="arrowRight" transform="rotate(90) translate(36 -43)">
    <use xlink:href="#rim"/>
    <path pointer-events="none" fill="none" stroke="white" stroke-width="1.5" d="M0,-3.0v7 M-2.5,-0.5L0,-3.0L2.5,-0.5"/>
  </g>
  <g id="arrowDown" transform="rotate(180) translate(-30 -48)">
    <use xlink:href="#rim"/>
    <path pointer-events="none" fill="none" stroke="white" stroke-width="1.5" d="M0,-3.0v7 M-2.5,-0.5L0,-3.0L2.5,-0.5"/>
  </g>
  <g id="arrowLeft" transform="rotate(270) translate(-36 17)">
    <use xlink:href="#rim"/>
    <path pointer-events="none" fill="none" stroke="white" stroke-width="1.5" d="M0,-3.0v7 M-2.5,-0.5L0,-3.0L2.5,-0.5"/>
  </g>
  <g id="resetDef">
    <use xlink:href="#rim2" fill="#404040"><set attributeName="fill" to="#808080" begin="reset.mouseover" end="reset.mouseout"/></use>
  </g>
</defs>
<script type="application/ecmascript">
var viewWidth = 846;
var viewHeight = 786;
var sectionId = 'dynsection-7';
</script>
<script type="application/ecmascript" xlink:href="svg.min.js"/>
<svg id="graph" class="graph">
<g id="viewport">
<title>create_menu_item_ui</title>
<!-- Node1 -->
<g id="Node000001" class="node">
<title>Node1</title>
<g id="a_Node000001"><a xlink:title=" ">
<polygon fill="#999999" stroke="#666666" points="121.75,-441.75 0,-441.75 0,-421 121.75,-421 121.75,-441.75"/>
<text xml:space="preserve" text-anchor="middle" x="60.88" y="-428.25" font-family="Helvetica,sans-Serif" font-size="10.00">create_menu_item_ui</text>
</a>
</g>
</g>
<!-- Node2 -->
<g id="Node000002" class="node">
<title>Node2</title>
<g id="a_Node000002"><a xlink:href="kest__ui_8c.html#aa1f5b3566872ce5240f8f4459efe1c23" target="_top" xlink:title=" ">
<polygon fill="white" stroke="#666666" points="299.38,-778.12 167.88,-778.12 167.88,-744.62 299.38,-744.62 299.38,-778.12"/>
<text xml:space="preserve" text-anchor="start" x="175.88" y="-764.62" font-family="Helvetica,sans-Serif" font-size="10.00">create_standard_button</text>
<text xml:space="preserve" text-anchor="middle" x="233.62" y="-751.88" font-family="Helvetica,sans-Serif" font-size="10.00">_click</text>
</a>
</g>
</g>
<!-- Node1&#45;&gt;Node2 -->
<g id="edge1_Node000001_Node000002" class="edge">
<title>Node1&#45;&gt;Node2</title>
<g id="a_edge1_Node000001_Node000002"><a xlink:title=" ">
<path fill="none" stroke="#63b8ff" d="M61.99,-442.24C63.04,-485.57 72.71,-647.86 157.75,-735.38 158.36,-736 158.99,-736.62 159.63,-737.22"/>
<polygon fill="#63b8ff" stroke="#63b8ff" points="157.45,-739.96 167.52,-743.28 161.72,-734.41 157.45,-739.96"/>
</a>
</g>
</g>
<!-- Node3 -->
<g id="Node000003" class="node">
<title>Node3</title>
<g id="a_Node000003"><a xlink:href="kest__ui_8c.html#ad374de505b9d51719f6aea221a650f0d" target="_top" xlink:title=" ">
<polygon fill="white" stroke="#666666" points="299.38,-726.12 167.88,-726.12 167.88,-692.62 299.38,-692.62 299.38,-726.12"/>
<text xml:space="preserve" text-anchor="start" x="175.88" y="-712.62" font-family="Helvetica,sans-Serif" font-size="10.00">create_standard_button</text>
<text xml:space="preserve" text-anchor="middle" x="233.62" y="-699.88" font-family="Helvetica,sans-Serif" font-size="10.00">_long_press_release</text>
</a>
</g>
</g>
<!-- Node1&#45;&gt;Node3 -->
<g id="edge2_Node000001_Node000003" class="edge">
<title>Node1&#45;&gt;Node3</title>
<g id="a_edge2_Node000001_Node000003"><a xlink:title=" ">
<path fill="none" stroke="#63b8ff" d="M62.8,-442.21C66.66,-480.75 84.88,-612.61 157.75,-683.38 158.51,-684.11 159.28,-684.82 160.08,-685.52"/>
<polygon fill="#63b8ff" stroke="#63b8ff" points="157.92,-688.27 168.07,-691.31 162.03,-682.61 157.92,-688.27"/>
</a>
</g>
</g>
<!-- Node4 -->
<g id="Node000004" class="node">
<title>Node4</title>
<g id="a_Node000004"><a xlink:href="kest__menu_8c.html#a15d832a992bd6837b88d98ee4ccce214" target="_top" xlink:title=" ">
<polygon fill="white" stroke="#666666" points="299.38,-674.12 167.88,-674.12 167.88,-640.62 299.38,-640.62 299.38,-674.12"/>
<text xml:space="preserve" text-anchor="start" x="175.88" y="-660.62" font-family="Helvetica,sans-Serif" font-size="10.00">danger_button_activate</text>
<text xml:space="preserve" text-anchor="middle" x="233.62" y="-647.88" font-family="Helvetica,sans-Serif" font-size="10.00">_popup_cb</text>
</a>
</g>
</g>
<!-- Node1&#45;&gt;Node4 -->
<g id="edge3_Node000001_Node000004" class="edge">
<title>Node1&#45;&gt;Node4</title>
<g id="a_edge3_Node000001_Node000004"><a xlink:title=" ">
<path fill="none" stroke="#63b8ff" d="M64.23,-441.83C71.94,-473.84 99.41,-571.67 157.75,-626.38 160.95,-629.37 164.48,-632.1 168.21,-634.58"/>
<polygon fill="#63b8ff" stroke="#63b8ff" points="166.14,-637.42 176.53,-639.48 169.69,-631.39 166.14,-637.42"/>
</a>
</g>
</g>
<!-- Node5 -->
<g id="Node000005" class="node">
<title>Node5</title>
<g id="a_Node000005"><a xlink:href="kest__alloc_8c.html#a849755c5dc5b35e712ffcdb602e50fb4" target="_top" xlink:title=" ">
<polygon fill="white" stroke="#666666" points="799.62,-616.75 734.88,-616.75 734.88,-596 799.62,-596 799.62,-616.75"/>
<text xml:space="preserve" text-anchor="middle" x="767.25" y="-603.25" font-family="Helvetica,sans-Serif" font-size="10.00">kest_alloc</text>
</a>
</g>
</g>
<!-- Node1&#45;&gt;Node5 -->
<g id="edge4_Node000001_Node000005" class="edge">
<title>Node1&#45;&gt;Node5</title>
<g id="a_edge4_Node000001_Node000005"><a xlink:title=" ">
<path fill="none" stroke="#63b8ff" d="M67.64,-442.1C80.73,-465.51 114.9,-521.72 157.75,-554.38 229.62,-609.15 256.89,-614.7 345.5,-632.38 481.52,-659.51 646.75,-632.22 723.38,-616.21"/>
<polygon fill="#63b8ff" stroke="#63b8ff" points="723.94,-619.67 732.99,-614.16 722.48,-612.83 723.94,-619.67"/>
</a>
</g>
</g>
<!-- Node6 -->
<g id="Node000006" class="node">
<title>Node6</title>
<g id="a_Node000006"><a xlink:href="kest__menu_8c.html#aa7e4ab7da169861ef6dff91b9052a6f7" target="_top" xlink:title=" ">
<polygon fill="white" stroke="#666666" points="305.38,-403.12 161.88,-403.12 161.88,-369.62 305.38,-369.62 305.38,-403.12"/>
<text xml:space="preserve" text-anchor="start" x="169.88" y="-389.62" font-family="Helvetica,sans-Serif" font-size="10.00">menu_item_profile_listing</text>
<text xml:space="preserve" text-anchor="middle" x="233.62" y="-376.88" font-family="Helvetica,sans-Serif" font-size="10.00">_long_pressed_cb</text>
</a>
</g>
</g>
<!-- Node1&#45;&gt;Node6 -->
<g id="edge5_Node000001_Node000006" class="edge">
<title>Node1&#45;&gt;Node6</title>
<g id="a_edge5_Node000001_Node000006"><a xlink:title=" ">
<path fill="none" stroke="#63b8ff" d="M102.77,-420.6C118.86,-416.36 137.88,-411.35 156.32,-406.48"/>
<polygon fill="#63b8ff" stroke="#63b8ff" points="157.15,-409.89 165.93,-403.95 155.37,-403.12 157.15,-409.89"/>
</a>
</g>
</g>
<!-- Node7 -->
<g id="Node000007" class="node">
<title>Node7</title>
<g id="a_Node000007"><a xlink:href="kest__menu_8c.html#a22605bcd410421039465332b6c5fd407" target="_top" xlink:title=" ">
<polygon fill="white" stroke="#666666" points="305.38,-545.12 161.88,-545.12 161.88,-511.62 305.38,-511.62 305.38,-545.12"/>
<text xml:space="preserve" text-anchor="start" x="169.88" y="-531.62" font-family="Helvetica,sans-Serif" font-size="10.00">menu_item_profile_listing</text>
<text xml:space="preserve" text-anchor="middle" x="233.62" y="-518.88" font-family="Helvetica,sans-Serif" font-size="10.00">_released_cb</text>
</a>
</g>
</g>
<!-- Node1&#45;&gt;Node7 -->
<g id="edge6_Node000001_Node000007" class="edge">
<title>Node1&#45;&gt;Node7</title>
<g id="a_edge6_Node000001_Node000007"><a xlink:title=" ">
<path fill="none" stroke="#63b8ff" d="M73.78,-442.08C91.15,-457.25 124.97,-485.06 157.75,-502.38 160.6,-503.88 163.56,-505.33 166.58,-506.72"/>
<polygon fill="#63b8ff" stroke="#63b8ff" points="165.06,-509.87 175.63,-510.61 167.82,-503.44 165.06,-509.87"/>
</a>
</g>
</g>
<!-- Node12 -->
<g id="Node000012" class="node">
<title>Node12</title>
<g id="a_Node000012"><a xlink:href="kest__sequence__list_8c.html#a4f60ae08975fdffa716fbd1b4ea3452c" target="_top" xlink:title=" ">
<polygon fill="white" stroke="#666666" points="302.38,-351.12 164.88,-351.12 164.88,-317.62 302.38,-317.62 302.38,-351.12"/>
<text xml:space="preserve" text-anchor="start" x="172.88" y="-337.62" font-family="Helvetica,sans-Serif" font-size="10.00">menu_item_sequence</text>
<text xml:space="preserve" text-anchor="middle" x="233.62" y="-324.88" font-family="Helvetica,sans-Serif" font-size="10.00">_listing_long_pressed_cb</text>
</a>
</g>
</g>
<!-- Node1&#45;&gt;Node12 -->
<g id="edge10_Node000001_Node000012" class="edge">
<title>Node1&#45;&gt;Node12</title>
<g id="a_edge10_Node000001_Node000012"><a xlink:title=" ">
<path fill="none" stroke="#63b8ff" d="M73.78,-420.67C91.15,-405.5 124.97,-377.69 157.75,-360.38 160.6,-358.87 163.56,-357.42 166.58,-356.03"/>
<polygon fill="#63b8ff" stroke="#63b8ff" points="167.82,-359.31 175.63,-352.14 165.06,-352.88 167.82,-359.31"/>
</a>
</g>
</g>
<!-- Node13 -->
<g id="Node000013" class="node">
<title>Node13</title>
<g id="a_Node000013"><a xlink:href="kest__sequence__list_8c.html#a0788bbcb1aa9c85a904e084c2abd48ad" target="_top" xlink:title=" ">
<polygon fill="white" stroke="#666666" points="295.25,-493.12 172,-493.12 172,-459.62 295.25,-459.62 295.25,-493.12"/>
<text xml:space="preserve" text-anchor="start" x="180" y="-479.62" font-family="Helvetica,sans-Serif" font-size="10.00">menu_item_sequence</text>
<text xml:space="preserve" text-anchor="middle" x="233.62" y="-466.88" font-family="Helvetica,sans-Serif" font-size="10.00">_listing_released_cb</text>
</a>
</g>
</g>
<!-- Node1&#45;&gt;Node13 -->
<g id="edge11_Node000001_Node000013" class="edge">
<title>Node1&#45;&gt;Node13</title>
<g id="a_edge11_Node000001_Node000013"><a xlink:title=" ">
<path fill="none" stroke="#63b8ff" d="M102.77,-442.15C120.17,-446.74 140.99,-452.23 160.81,-457.45"/>
<polygon fill="#63b8ff" stroke="#63b8ff" points="159.66,-460.77 170.22,-459.93 161.44,-454 159.66,-460.77"/>
</a>
</g>
</g>
<!-- Node216 -->
<g id="Node000216" class="node">
<title>Node216</title>
<g id="a_Node000216"><a xlink:href="kest__menu_8c.html#a7b561ce007bc70c05d37e79e0354d4ab" target="_top" xlink:title=" ">
<polygon fill="white" stroke="#666666" points="309.5,-441.75 157.75,-441.75 157.75,-421 309.5,-421 309.5,-441.75"/>
<text xml:space="preserve" text-anchor="middle" x="233.62" y="-428.25" font-family="Helvetica,sans-Serif" font-size="10.00">menu_page_link_clicked_cb</text>
</a>
</g>
</g>
<!-- Node1&#45;&gt;Node216 -->
<g id="edge21_Node000001_Node000216" class="edge">
<title>Node1&#45;&gt;Node216</title>
<g id="a_edge21_Node000001_Node000216"><a xlink:title=" ">
<path fill="none" stroke="#63b8ff" d="M122.08,-431.38C129.84,-431.38 137.91,-431.38 146,-431.38"/>
<polygon fill="#63b8ff" stroke="#63b8ff" points="145.9,-434.88 155.9,-431.38 145.9,-427.88 145.9,-434.88"/>
</a>
</g>
</g>
<!-- Node218 -->
<g id="Node000218" class="node">
<title>Node218</title>
<g id="a_Node000218"><a xlink:href="kest__menu_8c.html#a8edfbaa412cfceaa47690ee035de622c" target="_top" xlink:title=" ">
<polygon fill="white" stroke="#666666" points="306.5,-299.12 160.75,-299.12 160.75,-265.62 306.5,-265.62 306.5,-299.12"/>
<text xml:space="preserve" text-anchor="start" x="168.75" y="-285.62" font-family="Helvetica,sans-Serif" font-size="10.00">parameter_widget_change</text>
<text xml:space="preserve" text-anchor="middle" x="233.62" y="-272.88" font-family="Helvetica,sans-Serif" font-size="10.00">_cb_settings_wrapper</text>
</a>
</g>
</g>
<!-- Node1&#45;&gt;Node218 -->
<g id="edge25_Node000001_Node000218" class="edge">
<title>Node1&#45;&gt;Node218</title>
<g id="a_edge25_Node000001_Node000218"><a xlink:title=" ">
<path fill="none" stroke="#63b8ff" d="M67.31,-420.82C79.97,-397.24 113.72,-339.9 157.75,-308.38 159.51,-307.11 161.34,-305.91 163.22,-304.76"/>
<polygon fill="#63b8ff" stroke="#63b8ff" points="164.54,-308.02 171.66,-300.17 161.2,-301.87 164.54,-308.02"/>
</a>
</g>
</g>
<!-- Node173 -->
<g id="Node000173" class="node">
<title>Node173</title>
<g id="a_Node000173"><a xlink:href="kest__parameter__widget_8c.html#a275a44ab81e73412a3c3da5597906fcc" target="_top" xlink:title=" ">
<polygon fill="#fff0f0" stroke="red" points="304.25,-247.12 163,-247.12 163,-213.62 304.25,-213.62 304.25,-247.12"/>
<text xml:space="preserve" text-anchor="start" x="171" y="-233.62" font-family="Helvetica,sans-Serif" font-size="10.00">parameter_widget_create</text>
<text xml:space="preserve" text-anchor="middle" x="233.62" y="-220.88" font-family="Helvetica,sans-Serif" font-size="10.00">_ui_no_callback</text>
</a>
</g>
</g>
<!-- Node1&#45;&gt;Node173 -->
<g id="edge27_Node000001_Node000173" class="edge">
<title>Node1&#45;&gt;Node173</title>
<g id="a_edge27_Node000001_Node000173"><a xlink:title=" ">
<path fill="none" stroke="#63b8ff" d="M64.79,-420.57C73.55,-390.18 102.46,-303.12 157.75,-256.38 158.87,-255.43 160.03,-254.51 161.22,-253.63"/>
<polygon fill="#63b8ff" stroke="#63b8ff" points="163.06,-256.61 169.62,-248.29 159.3,-250.7 163.06,-256.61"/>
</a>
</g>
</g>
<!-- Node219 -->
<g id="Node000219" class="node">
<title>Node219</title>
<g id="a_Node000219"><a xlink:href="kest__menu_8c.html#a33b1b7cde7c97dfddede16dae1536481" target="_top" xlink:title=" ">
<polygon fill="white" stroke="#666666" points="293,-195.12 174.25,-195.12 174.25,-161.62 293,-161.62 293,-195.12"/>
<text xml:space="preserve" text-anchor="start" x="182.25" y="-181.62" font-family="Helvetica,sans-Serif" font-size="10.00">profile_listing_delete</text>
<text xml:space="preserve" text-anchor="middle" x="233.62" y="-168.88" font-family="Helvetica,sans-Serif" font-size="10.00">_button_cb</text>
</a>
</g>
</g>
<!-- Node1&#45;&gt;Node219 -->
<g id="edge28_Node000001_Node000219" class="edge">
<title>Node1&#45;&gt;Node219</title>
<g id="a_edge28_Node000001_Node000219"><a xlink:title=" ">
<path fill="none" stroke="#63b8ff" d="M63.3,-420.61C68.62,-384.63 90.62,-267.25 157.75,-204.38 159.82,-202.44 162.03,-200.65 164.36,-198.99"/>
<polygon fill="#63b8ff" stroke="#63b8ff" points="165.82,-202.2 172.54,-194.01 162.18,-196.22 165.82,-202.2"/>
</a>
</g>
</g>
<!-- Node224 -->
<g id="Node000224" class="node">
<title>Node224</title>
<g id="a_Node000224"><a xlink:href="kest__sequence__list_8c.html#a1982fe2baa22bbb76b3da523cfdda6da" target="_top" xlink:title=" ">
<polygon fill="white" stroke="#666666" points="300.5,-142.12 166.75,-142.12 166.75,-108.62 300.5,-108.62 300.5,-142.12"/>
<text xml:space="preserve" text-anchor="start" x="174.75" y="-128.62" font-family="Helvetica,sans-Serif" font-size="10.00">sequence_listing_delete</text>
<text xml:space="preserve" text-anchor="middle" x="233.62" y="-115.88" font-family="Helvetica,sans-Serif" font-size="10.00">_button_cb</text>
</a>
</g>
</g>
<!-- Node1&#45;&gt;Node224 -->
<g id="edge38_Node000001_Node000224" class="edge">
<title>Node1&#45;&gt;Node224</title>
<g id="a_edge38_Node000001_Node000224"><a xlink:title=" ">
<path fill="none" stroke="#63b8ff" d="M62.37,-420.58C64.83,-379.65 79.04,-232.29 157.75,-152.38 158.93,-151.18 160.17,-150.03 161.46,-148.93"/>
<polygon fill="#63b8ff" stroke="#63b8ff" points="163.25,-151.95 169.35,-143.29 159.18,-146.26 163.25,-151.95"/>
</a>
</g>
</g>
<!-- Node8 -->
<g id="Node000008" class="node">
<title>Node8</title>
<g id="a_Node000008"><a xlink:href="kest__menu_8c.html#a4c6b65d8403f36319f8d6b2ff9cd3b04" target="_top" xlink:title=" ">
<polygon fill="white" stroke="#666666" points="486.38,-623.12 350.38,-623.12 350.38,-589.62 486.38,-589.62 486.38,-623.12"/>
<text xml:space="preserve" text-anchor="start" x="358.38" y="-609.62" font-family="Helvetica,sans-Serif" font-size="10.00">disappear_profile_listing</text>
<text xml:space="preserve" text-anchor="middle" x="418.38" y="-596.88" font-family="Helvetica,sans-Serif" font-size="10.00">_delete_button</text>
</a>
</g>
</g>
<!-- Node7&#45;&gt;Node8 -->
<g id="edge7_Node000007_Node000008" class="edge">
<title>Node7&#45;&gt;Node8</title>
<g id="a_edge7_Node000007_Node000008"><a xlink:title=" ">
<path fill="none" stroke="#63b8ff" d="M269.22,-545.6C290.91,-556.14 319.57,-569.63 345.5,-580.38 349.34,-581.97 353.32,-583.56 357.35,-585.13"/>
<polygon fill="#63b8ff" stroke="#63b8ff" points="356.04,-588.37 366.63,-588.67 358.53,-581.83 356.04,-588.37"/>
</a>
</g>
</g>
<!-- Node9 -->
<g id="Node000009" class="node">
<title>Node9</title>
<g id="a_Node000009"><a xlink:href="kest__ui_8c.html#a2063cd4687cffa16c46c43deaa27642f" target="_top" xlink:title=" ">
<polygon fill="white" stroke="#666666" points="660.25,-372.75 527.25,-372.75 527.25,-352 660.25,-352 660.25,-372.75"/>
<text xml:space="preserve" text-anchor="middle" x="593.75" y="-359.25" font-family="Helvetica,sans-Serif" font-size="10.00">enter_ui_page_forwards</text>
</a>
</g>
</g>
<!-- Node7&#45;&gt;Node9 -->
<g id="edge8_Node000007_Node000009" class="edge">
<title>Node7&#45;&gt;Node9</title>
<g id="a_edge8_Node000007_Node000009"><a xlink:title=" ">
<path fill="none" stroke="#63b8ff" d="M305.8,-536.99C360.14,-540.12 435,-536.71 491.25,-504.38 539.45,-476.67 570.7,-415.74 584.53,-383.44"/>
<polygon fill="#63b8ff" stroke="#63b8ff" points="587.7,-384.93 588.27,-374.35 581.23,-382.27 587.7,-384.93"/>
</a>
</g>
</g>
<!-- Node10 -->
<g id="Node000010" class="node">
<title>Node10</title>
<g id="a_Node000010"><a xlink:href="kest__context_8c.html#a6292c7a2d7f0502ea5a59bbe9b552791" target="_top" xlink:title=" ">
<polygon fill="#fff0f0" stroke="red" points="827.38,-379.12 707.12,-379.12 707.12,-345.62 827.38,-345.62 827.38,-379.12"/>
<text xml:space="preserve" text-anchor="start" x="715.12" y="-365.62" font-family="Helvetica,sans-Serif" font-size="10.00">kest_cxt_queue_save</text>
<text xml:space="preserve" text-anchor="middle" x="767.25" y="-352.88" font-family="Helvetica,sans-Serif" font-size="10.00">_state</text>
</a>
</g>
</g>
<!-- Node9&#45;&gt;Node10 -->
<g id="edge9_Node000009_Node000010" class="edge">
<title>Node9&#45;&gt;Node10</title>
<g id="a_edge9_Node000009_Node000010"><a xlink:title=" ">
<path fill="none" stroke="#63b8ff" d="M660.57,-362.38C671.97,-362.38 683.88,-362.38 695.41,-362.38"/>
<polygon fill="#63b8ff" stroke="#63b8ff" points="695.27,-365.88 705.27,-362.38 695.27,-358.88 695.27,-365.88"/>
</a>
</g>
</g>
<!-- Node13&#45;&gt;Node9 -->
<g id="edge19_Node000013_Node000009" class="edge">
<title>Node13&#45;&gt;Node9</title>
<g id="a_edge19_Node000013_Node000009"><a xlink:title=" ">
<path fill="none" stroke="#63b8ff" d="M294.78,-459.3C299.98,-456.7 304.98,-453.75 309.5,-450.38 331.46,-434.01 322.15,-414.68 345.5,-400.38 373.39,-383.29 454.06,-373.15 515.74,-367.71"/>
<polygon fill="#63b8ff" stroke="#63b8ff" points="515.84,-371.21 525.51,-366.87 515.25,-364.23 515.84,-371.21"/>
</a>
</g>
</g>
<!-- Node14 -->
<g id="Node000014" class="node">
<title>Node14</title>
<g id="a_Node000014"><a xlink:href="kest__sequence__view_8c.html#a6dd883651c2a7ff92c5ad28755953e91" target="_top" xlink:title=" ">
<polygon fill="white" stroke="#666666" points="491.25,-571.75 345.5,-571.75 345.5,-551 491.25,-551 491.25,-571.75"/>
<text xml:space="preserve" text-anchor="middle" x="418.38" y="-558.25" font-family="Helvetica,sans-Serif" font-size="10.00">create_sequence_view_for</text>
</a>
</g>
</g>
<!-- Node13&#45;&gt;Node14 -->
<g id="edge12_Node000013_Node000014" class="edge">
<title>Node13&#45;&gt;Node14</title>
<g id="a_edge12_Node000013_Node000014"><a xlink:title=" ">
<path fill="none" stroke="#63b8ff" d="M287.82,-493.62C295.18,-496.36 302.58,-499.31 309.5,-502.38 337.84,-514.94 368.75,-532.24 390.18,-544.85"/>
<polygon fill="#63b8ff" stroke="#63b8ff" points="388.21,-547.75 398.59,-549.86 391.79,-541.74 388.21,-547.75"/>
</a>
</g>
</g>
<!-- Node215 -->
<g id="Node000215" class="node">
<title>Node215</title>
<g id="a_Node000215"><a xlink:href="kest__sequence__list_8c.html#a893899d6cfc3058960625f82f41d9c26" target="_top" xlink:title=" ">
<polygon fill="white" stroke="#666666" points="480.38,-495.12 356.38,-495.12 356.38,-461.62 480.38,-461.62 480.38,-495.12"/>
<text xml:space="preserve" text-anchor="start" x="364.38" y="-481.62" font-family="Helvetica,sans-Serif" font-size="10.00">disappear_sequence</text>
<text xml:space="preserve" text-anchor="middle" x="418.38" y="-468.88" font-family="Helvetica,sans-Serif" font-size="10.00">_listing_delete_button</text>
</a>
</g>
</g>
<!-- Node13&#45;&gt;Node215 -->
<g id="edge18_Node000013_Node000215" class="edge">
<title>Node13&#45;&gt;Node215</title>
<g id="a_edge18_Node000013_Node000215"><a xlink:title=" ">
<path fill="none" stroke="#63b8ff" d="M295.73,-477.04C311.5,-477.22 328.62,-477.4 344.9,-477.58"/>
<polygon fill="#63b8ff" stroke="#63b8ff" points="344.46,-481.08 354.5,-477.69 344.54,-474.08 344.46,-481.08"/>
</a>
</g>
</g>
<!-- Node68 -->
<g id="Node000068" class="node">
<title>Node68</title>
<g id="a_Node000068"><a xlink:href="kest__error__codes_8c.html#a0f4c77127bc0b77264a21104979c576a" target="_top" xlink:title=" ">
<polygon fill="white" stroke="#666666" points="472.5,-443.12 364.25,-443.12 364.25,-409.62 472.5,-409.62 472.5,-443.12"/>
<text xml:space="preserve" text-anchor="start" x="372.25" y="-429.62" font-family="Helvetica,sans-Serif" font-size="10.00">kest_error_code_to</text>
<text xml:space="preserve" text-anchor="middle" x="418.38" y="-416.88" font-family="Helvetica,sans-Serif" font-size="10.00">_string</text>
</a>
</g>
</g>
<!-- Node13&#45;&gt;Node68 -->
<g id="edge20_Node000013_Node000068" class="edge">
<title>Node13&#45;&gt;Node68</title>
<g id="a_edge20_Node000013_Node000068"><a xlink:title=" ">
<path fill="none" stroke="#63b8ff" d="M295.73,-459.66C314.12,-454.62 334.35,-449.09 352.95,-444"/>
<polygon fill="#63b8ff" stroke="#63b8ff" points="353.8,-447.4 362.53,-441.38 351.96,-440.64 353.8,-447.4"/>
</a>
</g>
</g>
<!-- Node14&#45;&gt;Node5 -->
<g id="edge17_Node000014_Node000005" class="edge">
<title>Node14&#45;&gt;Node5</title>
<g id="a_edge17_Node000014_Node000005"><a xlink:title=" ">
<path fill="none" stroke="#63b8ff" d="M457.77,-572.18C478.24,-577.55 503.94,-583.66 527.25,-587.38 595.27,-598.21 675.22,-602.97 723.25,-604.99"/>
<polygon fill="#63b8ff" stroke="#63b8ff" points="723.1,-608.49 733.23,-605.39 723.38,-601.49 723.1,-608.49"/>
</a>
</g>
</g>
<!-- Node15 -->
<g id="Node000015" class="node">
<title>Node15</title>
<g id="a_Node000015"><a xlink:href="kest__sequence__view_8c.html#ac871b24a7c875a7b6e707a3d2691a2a9" target="_top" xlink:title=" ">
<polygon fill="#fff0f0" stroke="red" points="838.25,-558.75 696.25,-558.75 696.25,-538 838.25,-538 838.25,-558.75"/>
<text xml:space="preserve" text-anchor="middle" x="767.25" y="-545.25" font-family="Helvetica,sans-Serif" font-size="10.00">configure_sequence_view</text>
</a>
</g>
</g>
<!-- Node14&#45;&gt;Node15 -->
<g id="edge13_Node000014_Node000015" class="edge">
<title>Node14&#45;&gt;Node15</title>
<g id="a_edge13_Node000014_Node000015"><a xlink:title=" ">
<path fill="none" stroke="#63b8ff" d="M491.53,-552.27C503.44,-551.08 515.68,-550.04 527.25,-549.38 579.47,-546.37 638.22,-546.08 684.4,-546.56"/>
<polygon fill="#63b8ff" stroke="#63b8ff" points="684.31,-550.06 694.35,-546.68 684.39,-543.06 684.31,-550.06"/>
</a>
</g>
</g>
<!-- Node212 -->
<g id="Node000212" class="node">
<title>Node212</title>
<g id="a_Node000212"><a xlink:href="kest__sequence__view_8c.html#aca115eba822b7486dc289cc9150562a7" target="_top" xlink:title=" ">
<polygon fill="#fff0f0" stroke="red" points="649.75,-578.75 537.75,-578.75 537.75,-558 649.75,-558 649.75,-578.75"/>
<text xml:space="preserve" text-anchor="middle" x="593.75" y="-565.25" font-family="Helvetica,sans-Serif" font-size="10.00">init_sequence_view</text>
</a>
</g>
</g>
<!-- Node14&#45;&gt;Node212 -->
<g id="edge14_Node000014_Node000212" class="edge">
<title>Node14&#45;&gt;Node212</title>
<g id="a_edge14_Node000014_Node000212"><a xlink:title=" ">
<path fill="none" stroke="#63b8ff" d="M491.65,-564.29C503.14,-564.76 514.99,-565.24 526.35,-565.69"/>
<polygon fill="#63b8ff" stroke="#63b8ff" points="525.86,-569.18 535.99,-566.08 526.14,-562.18 525.86,-569.18"/>
</a>
</g>
</g>
<!-- Node212&#45;&gt;Node5 -->
<g id="edge16_Node000212_Node000005" class="edge">
<title>Node212&#45;&gt;Node5</title>
<g id="a_edge16_Node000212_Node000005"><a xlink:title=" ">
<path fill="none" stroke="#63b8ff" d="M643.44,-579.16C668.66,-584.75 699.17,-591.51 723.48,-596.9"/>
<polygon fill="#63b8ff" stroke="#63b8ff" points="722.51,-600.27 733.03,-599.01 724.03,-593.43 722.51,-600.27"/>
</a>
</g>
</g>
<!-- Node212&#45;&gt;Node15 -->
<g id="edge15_Node000212_Node000015" class="edge">
<title>Node212&#45;&gt;Node15</title>
<g id="a_edge15_Node000212_Node000015"><a xlink:title=" ">
<path fill="none" stroke="#63b8ff" d="M649.96,-561.94C661.01,-560.65 672.85,-559.27 684.58,-557.9"/>
<polygon fill="#63b8ff" stroke="#63b8ff" points="684.74,-561.4 694.27,-556.77 683.93,-554.45 684.74,-561.4"/>
</a>
</g>
</g>
<!-- Node216&#45;&gt;Node9 -->
<g id="edge22_Node000216_Node000009" class="edge">
<title>Node216&#45;&gt;Node9</title>
<g id="a_edge22_Node000216_Node000009"><a xlink:title=" ">
<path fill="none" stroke="#63b8ff" d="M293.03,-420.59C298.82,-418.35 304.43,-415.64 309.5,-412.38 331.03,-398.5 322.53,-378.7 345.5,-367.38 403.8,-338.63 479.61,-342.13 531.84,-349.8"/>
<polygon fill="#63b8ff" stroke="#63b8ff" points="531.02,-353.21 541.44,-351.31 532.11,-346.3 531.02,-353.21"/>
</a>
</g>
</g>
<!-- Node217 -->
<g id="Node000217" class="node">
<title>Node217</title>
<g id="a_Node000217"><a xlink:href="kest__ui_8c.html#a6cc33fc0b802073df734a4fa9e0490ad" target="_top" xlink:title=" ">
<polygon fill="white" stroke="#666666" points="481.88,-315.12 354.88,-315.12 354.88,-281.62 481.88,-281.62 481.88,-315.12"/>
<text xml:space="preserve" text-anchor="start" x="362.88" y="-301.62" font-family="Helvetica,sans-Serif" font-size="10.00">enter_ui_page_indirect</text>
<text xml:space="preserve" text-anchor="middle" x="418.38" y="-288.88" font-family="Helvetica,sans-Serif" font-size="10.00">_forwards</text>
</a>
</g>
</g>
<!-- Node216&#45;&gt;Node217 -->
<g id="edge23_Node000216_Node000217" class="edge">
<title>Node216&#45;&gt;Node217</title>
<g id="a_edge23_Node000216_Node000217"><a xlink:title=" ">
<path fill="none" stroke="#63b8ff" d="M296.96,-420.51C301.47,-418.27 305.72,-415.59 309.5,-412.38 340.12,-386.32 317.04,-357.78 345.5,-329.38 348.33,-326.55 351.45,-323.97 354.77,-321.61"/>
<polygon fill="#63b8ff" stroke="#63b8ff" points="356.62,-324.58 363.26,-316.33 352.92,-318.64 356.62,-324.58"/>
</a>
</g>
</g>
<!-- Node217&#45;&gt;Node9 -->
<g id="edge24_Node000217_Node000009" class="edge">
<title>Node217&#45;&gt;Node9</title>
<g id="a_edge24_Node000217_Node000009"><a xlink:title=" ">
<path fill="none" stroke="#63b8ff" d="M465.84,-315.53C492.96,-325.54 526.82,-338.04 552.75,-347.61"/>
<polygon fill="#63b8ff" stroke="#63b8ff" points="551.32,-350.81 561.91,-350.99 553.75,-344.25 551.32,-350.81"/>
</a>
</g>
</g>
<!-- Node168 -->
<g id="Node000168" class="node">
<title>Node168</title>
<g id="a_Node000168"><a xlink:href="kest__parameter__widget_8c.html#af94dfc8bbb394e3264533d794d147e95" target="_top" xlink:title=" ">
<polygon fill="#fff0f0" stroke="red" points="491.25,-263.12 345.5,-263.12 345.5,-229.62 491.25,-229.62 491.25,-263.12"/>
<text xml:space="preserve" text-anchor="start" x="353.5" y="-249.62" font-family="Helvetica,sans-Serif" font-size="10.00">parameter_widget_change</text>
<text xml:space="preserve" text-anchor="middle" x="418.38" y="-236.88" font-family="Helvetica,sans-Serif" font-size="10.00">_cb_inner</text>
</a>
</g>
</g>
<!-- Node218&#45;&gt;Node168 -->
<g id="edge26_Node000218_Node000168" class="edge">
<title>Node218&#45;&gt;Node168</title>
<g id="a_edge26_Node000218_Node000168"><a xlink:title=" ">
<path fill="none" stroke="#63b8ff" d="M306.85,-268.15C315.79,-266.39 324.98,-264.58 334.07,-262.79"/>
<polygon fill="#63b8ff" stroke="#63b8ff" points="334.45,-266.28 343.59,-260.91 333.1,-259.41 334.45,-266.28"/>
</a>
</g>
</g>
<!-- Node220 -->
<g id="Node000220" class="node">
<title>Node220</title>
<g id="a_Node000220"><a xlink:href="kest__context_8c.html#ab19b648605d92ec27c6810d982218956" target="_top" xlink:title=" ">
<polygon fill="white" stroke="#666666" points="473.62,-211.75 363.12,-211.75 363.12,-191 473.62,-191 473.62,-211.75"/>
<text xml:space="preserve" text-anchor="middle" x="418.38" y="-198.25" font-family="Helvetica,sans-Serif" font-size="10.00">cxt_remove_profile</text>
</a>
</g>
</g>
<!-- Node219&#45;&gt;Node220 -->
<g id="edge29_Node000219_Node000220" class="edge">
<title>Node219&#45;&gt;Node220</title>
<g id="a_edge29_Node000219_Node000220"><a xlink:title=" ">
<path fill="none" stroke="#63b8ff" d="M293.45,-185.78C311.95,-188.11 332.48,-190.69 351.44,-193.08"/>
<polygon fill="#63b8ff" stroke="#63b8ff" points="350.83,-196.53 361.19,-194.3 351.7,-189.58 350.83,-196.53"/>
</a>
</g>
</g>
<!-- Node221 -->
<g id="Node000221" class="node">
<title>Node221</title>
<g id="a_Node000221"><a xlink:href="kest__menu_8c.html#a79f51bb10d3e6abf9e30a1577bf44bed" target="_top" xlink:title=" ">
<polygon fill="white" stroke="#666666" points="490.12,-135.75 346.62,-135.75 346.62,-115 490.12,-115 490.12,-135.75"/>
<text xml:space="preserve" text-anchor="middle" x="418.38" y="-122.25" font-family="Helvetica,sans-Serif" font-size="10.00">menu_page_remove_item</text>
</a>
</g>
</g>
<!-- Node219&#45;&gt;Node221 -->
<g id="edge33_Node000219_Node000221" class="edge">
<title>Node219&#45;&gt;Node221</title>
<g id="a_edge33_Node000219_Node000221"><a xlink:title=" ">
<path fill="none" stroke="#63b8ff" d="M293.45,-161.31C317.84,-154.24 345.79,-146.13 368.97,-139.41"/>
<polygon fill="#63b8ff" stroke="#63b8ff" points="369.84,-142.8 378.47,-136.66 367.89,-136.08 369.84,-142.8"/>
</a>
</g>
</g>
<!-- Node204 -->
<g id="Node000204" class="node">
<title>Node204</title>
<g id="a_Node000204"><a xlink:href="kest__profile_8c.html#a7b50c42b3345fa0351fae2af60150ab1" target="_top" xlink:title=" ">
<polygon fill="#fff0f0" stroke="red" points="629.88,-212.75 557.62,-212.75 557.62,-192 629.88,-192 629.88,-212.75"/>
<text xml:space="preserve" text-anchor="middle" x="593.75" y="-199.25" font-family="Helvetica,sans-Serif" font-size="10.00">free_profile</text>
</a>
</g>
</g>
<!-- Node220&#45;&gt;Node204 -->
<g id="edge30_Node000220_Node000204" class="edge">
<title>Node220&#45;&gt;Node204</title>
<g id="a_edge30_Node000220_Node000204"><a xlink:title=" ">
<path fill="none" stroke="#63b8ff" d="M473.76,-201.69C496.82,-201.82 523.45,-201.98 545.66,-202.1"/>
<polygon fill="#63b8ff" stroke="#63b8ff" points="545.62,-205.6 555.64,-202.16 545.66,-198.6 545.62,-205.6"/>
</a>
</g>
</g>
<!-- Node32 -->
<g id="Node000032" class="node">
<title>Node32</title>
<g id="a_Node000032"><a xlink:href="kest__alloc_8c.html#a294af5728a94aa316fcf65304d388d48" target="_top" xlink:title=" ">
<polygon fill="white" stroke="#666666" points="797.75,-173.75 736.75,-173.75 736.75,-153 797.75,-153 797.75,-173.75"/>
<text xml:space="preserve" text-anchor="middle" x="767.25" y="-160.25" font-family="Helvetica,sans-Serif" font-size="10.00">kest_free</text>
</a>
</g>
</g>
<!-- Node220&#45;&gt;Node32 -->
<g id="edge32_Node000220_Node000032" class="edge">
<title>Node220&#45;&gt;Node32</title>
<g id="a_edge32_Node000220_Node000032"><a xlink:title=" ">
<path fill="none" stroke="#63b8ff" d="M457.57,-212.2C505.63,-224.08 590.32,-239.25 660.25,-221.38 690.99,-213.51 722.41,-194.7 742.97,-180.61"/>
<polygon fill="#63b8ff" stroke="#63b8ff" points="744.75,-183.64 750.91,-175.02 740.72,-177.92 744.75,-183.64"/>
</a>
</g>
</g>
<!-- Node204&#45;&gt;Node32 -->
<g id="edge31_Node000204_Node000032" class="edge">
<title>Node204&#45;&gt;Node32</title>
<g id="a_edge31_Node000204_Node000032"><a xlink:title=" ">
<path fill="none" stroke="#63b8ff" d="M630.28,-194.29C658,-187.99 696.53,-179.23 725.49,-172.64"/>
<polygon fill="#63b8ff" stroke="#63b8ff" points="726.02,-176.11 735,-170.48 724.47,-169.29 726.02,-176.11"/>
</a>
</g>
</g>
<!-- Node221&#45;&gt;Node32 -->
<g id="edge37_Node000221_Node000032" class="edge">
<title>Node221&#45;&gt;Node32</title>
<g id="a_edge37_Node000221_Node000032"><a xlink:title=" ">
<path fill="none" stroke="#63b8ff" d="M457.57,-114.55C505.63,-102.67 590.32,-87.5 660.25,-105.38 690.99,-113.24 722.41,-132.05 742.97,-146.14"/>
<polygon fill="#63b8ff" stroke="#63b8ff" points="740.72,-148.83 750.91,-151.73 744.75,-143.11 740.72,-148.83"/>
</a>
</g>
</g>
<!-- Node222 -->
<g id="Node000222" class="node">
<title>Node222</title>
<g id="a_Node000222"><a xlink:href="kest__menu_8c.html#a75dd55efbef5c8ee5374ce453388536b" target="_top" xlink:title=" ">
<polygon fill="white" stroke="#666666" points="654.62,-134.75 532.88,-134.75 532.88,-114 654.62,-114 654.62,-134.75"/>
<text xml:space="preserve" text-anchor="middle" x="593.75" y="-121.25" font-family="Helvetica,sans-Serif" font-size="10.00">delete_menu_item_ui</text>
</a>
</g>
</g>
<!-- Node221&#45;&gt;Node222 -->
<g id="edge34_Node000221_Node000222" class="edge">
<title>Node221&#45;&gt;Node222</title>
<g id="a_edge34_Node000221_Node000222"><a xlink:title=" ">
<path fill="none" stroke="#63b8ff" d="M490.39,-124.97C500.59,-124.91 511.08,-124.85 521.28,-124.79"/>
<polygon fill="#63b8ff" stroke="#63b8ff" points="521.15,-128.29 531.12,-124.73 521.1,-121.29 521.15,-128.29"/>
</a>
</g>
</g>
<!-- Node223 -->
<g id="Node000223" class="node">
<title>Node223</title>
<g id="a_Node000223"><a xlink:href="kest__menu_8c.html#aebe40b8ddcc4ba16b20772010ad1f97c" target="_top" xlink:title=" ">
<polygon fill="white" stroke="#666666" points="641.88,-173.75 545.62,-173.75 545.62,-153 641.88,-153 641.88,-173.75"/>
<text xml:space="preserve" text-anchor="middle" x="593.75" y="-160.25" font-family="Helvetica,sans-Serif" font-size="10.00">free_menu_item</text>
</a>
</g>
</g>
<!-- Node221&#45;&gt;Node223 -->
<g id="edge35_Node000221_Node000223" class="edge">
<title>Node221&#45;&gt;Node223</title>
<g id="a_edge35_Node000221_Node000223"><a xlink:title=" ">
<path fill="none" stroke="#63b8ff" d="M468.59,-136.16C488.96,-140.63 512.74,-145.84 534.01,-150.5"/>
<polygon fill="#63b8ff" stroke="#63b8ff" points="533.21,-153.91 543.72,-152.63 534.71,-147.07 533.21,-153.91"/>
</a>
</g>
</g>
<!-- Node223&#45;&gt;Node32 -->
<g id="edge36_Node000223_Node000032" class="edge">
<title>Node223&#45;&gt;Node32</title>
<g id="a_edge36_Node000223_Node000032"><a xlink:title=" ">
<path fill="none" stroke="#63b8ff" d="M642.07,-163.38C668.09,-163.38 700.06,-163.38 725.05,-163.38"/>
<polygon fill="#63b8ff" stroke="#63b8ff" points="724.83,-166.88 734.83,-163.38 724.83,-159.88 724.83,-166.88"/>
</a>
</g>
</g>
<!-- Node224&#45;&gt;Node221 -->
<g id="edge42_Node000224_Node000221" class="edge">
<title>Node224&#45;&gt;Node221</title>
<g id="a_edge42_Node000224_Node000221"><a xlink:title=" ">
<path fill="none" stroke="#63b8ff" d="M300.86,-125.38C311.97,-125.38 323.62,-125.38 335.07,-125.38"/>
<polygon fill="#63b8ff" stroke="#63b8ff" points="334.92,-128.88 344.92,-125.38 334.92,-121.88 334.92,-128.88"/>
</a>
</g>
</g>
<!-- Node225 -->
<g id="Node000225" class="node">
<title>Node225</title>
<g id="a_Node000225"><a xlink:href="kest__context_8c.html#a89a9a7d285986c386193190edd9a5e00" target="_top" xlink:title=" ">
<polygon fill="white" stroke="#666666" points="481.12,-58.75 355.62,-58.75 355.62,-38 481.12,-38 481.12,-58.75"/>
<text xml:space="preserve" text-anchor="middle" x="418.38" y="-45.25" font-family="Helvetica,sans-Serif" font-size="10.00">cxt_remove_sequence</text>
</a>
</g>
</g>
<!-- Node224&#45;&gt;Node225 -->
<g id="edge39_Node000224_Node000225" class="edge">
<title>Node224&#45;&gt;Node225</title>
<g id="a_edge39_Node000224_Node000225"><a xlink:title=" ">
<path fill="none" stroke="#63b8ff" d="M275.18,-108.29C306.98,-94.89 350.81,-76.42 381.37,-63.55"/>
<polygon fill="#63b8ff" stroke="#63b8ff" points="382.33,-66.94 390.19,-59.83 379.62,-60.49 382.33,-66.94"/>
</a>
</g>
</g>
<!-- Node225&#45;&gt;Node32 -->
<g id="edge41_Node000225_Node000032" class="edge">
<title>Node225&#45;&gt;Node32</title>
<g id="a_edge41_Node000225_Node000032"><a xlink:title=" ">
<path fill="none" stroke="#63b8ff" d="M481.41,-53.13C531.21,-58.54 602.17,-69.9 660.25,-93.38 692.2,-106.29 724.64,-129.52 745.06,-145.66"/>
<polygon fill="#63b8ff" stroke="#63b8ff" points="742.66,-148.21 752.64,-151.77 747.06,-142.77 742.66,-148.21"/>
</a>
</g>
</g>
<!-- Node226 -->
<g id="Node000226" class="node">
<title>Node226</title>
<g id="a_Node000226"><a xlink:href="kest__sequence_8c.html#a6ff162921ceb28cfb5cb208e746ccea2" target="_top" xlink:title=" ">
<polygon fill="white" stroke="#666666" points="637.38,-20.75 550.12,-20.75 550.12,0 637.38,0 637.38,-20.75"/>
<text xml:space="preserve" text-anchor="middle" x="593.75" y="-7.25" font-family="Helvetica,sans-Serif" font-size="10.00">free_sequence</text>
</a>
</g>
</g>
<!-- Node225&#45;&gt;Node226 -->
<g id="edge40_Node000225_Node000226" class="edge">
<title>Node225&#45;&gt;Node226</title>
<g id="a_edge40_Node000225_Node000226"><a xlink:title=" ">
<path fill="none" stroke="#63b8ff" d="M468.59,-37.59C490.52,-32.78 516.4,-27.11 538.85,-22.19"/>
<polygon fill="#63b8ff" stroke="#63b8ff" points="539.4,-25.65 548.41,-20.09 537.9,-18.81 539.4,-25.65"/>
</a>
</g>
</g>
</g>
</svg>

<g id="navigator" transform="translate(0 0)" fill="#404254">
  <rect fill="#f2f5e9" fill-opacity="0.5" stroke="#606060" stroke-width=".5" x="0" y="0" width="60" height="60"/>
  <use id="zoomplus" xlink:href="#zoomPlus" x="17" y="9" onmousedown="handleZoom(evt,'in')"/>
  <use id="zoomminus" xlink:href="#zoomMin" x="42" y="9" onmousedown="handleZoom(evt,'out')"/>
  <use id="reset" xlink:href="#resetDef" x="30" y="36" onmousedown="handleReset()"/>
   <use id="arrowup" xlink:href="#arrowUp" x="0" y="0" onmousedown="handlePan(0,-1)"/>
  <use id="arrowright" xlink:href="#arrowRight" x="0" y="0" onmousedown="handlePan(1,0)"/>
  <use id="arrowdown" xlink:href="#arrowDown" x="0" y="0" onmousedown="handlePan(0,1)"/>
  <use id="arrowleft" xlink:href="#arrowLeft" x="0" y="0" onmousedown="handlePan(-1,0)"/>
</g>
<svg viewBox="0 0 15 15" width="100%" height="30px" preserveAspectRatio="xMaxYMin meet">
 <g id="arrow_out" transform="scale(0.3 0.3)">
  <a xlink:href="kest__menu_8h_aa44b42640611d3ca75f6b55206ebd08e_cgraph_org.svg" target="_base">
   <rect id="button" ry="5" rx="5" y="6" x="6" height="38" width="38"
        fill="#f2f5e9" fill-opacity="0.5" stroke="#606060" stroke-width="1.0"/>
   <path id="arrow"
     d="M 11.500037,31.436501 C 11.940474,20.09759 22.043105,11.32322 32.158766,21.979434 L 37.068811,17.246167 C 37.068811,17.246167 37.088388,32 37.088388,32 L 22.160133,31.978069 C 22.160133,31.978069 26.997745,27.140456 26.997745,27.140456 C 18.528582,18.264221 13.291696,25.230495 11.500037,31.436501 z"
     style="fill:#404040;"/>
  </a>
 </g>
</svg>

<style type='text/css'>
<![CDATA[
[data-mouse-over-selected='false'] { opacity: 0.7; }
[data-mouse-over-selected='true']  { opacity: 1.0; }
]]>
</style>
<script type="application/ecmascript"><![CDATA[
document.addEventListener('DOMContentLoaded', (event) => {
  highlightEdges();
  highlightAdjacentNodes();
});
]]></script>
</svg>
