<?xml version="1.0" encoding="UTF-8" standalone="no"?>
<!DOCTYPE svg PUBLIC "-//W3C//DTD SVG 1.1//EN"
 "http://www.w3.org/Graphics/SVG/1.1/DTD/svg11.dtd">
<!-- Generated by graphviz version 13.1.2 (20250808.2320)
 -->
<!-- Title: cxt_remove_profile Pages: 1 -->
<svg width="443pt" height="86pt"
 viewBox="0.00 0.00 443.00 86.00" xmlns="http://www.w3.org/2000/svg" xmlns:xlink="http://www.w3.org/1999/xlink">

<svg id="main" version="1.1" xmlns="http://www.w3.org/2000/svg" xmlns:xlink="http://www.w3.org/1999/xlink" xml:space="preserve">

<style type="text/css"><![CDATA[
.node, .edge {opacity: 0.7;}
.node.selected, .edge.selected {opacity: 1;}
.edge:hover path { stroke: red; }
.edge:hover polygon { stroke: red; fill: red; }
]]></style>
<script type="application/ecmascript" xlink:href="svg.min.js"/>
<svg id="graph" class="graph">
<g id="graph0" class="graph" transform="scale(1 1) rotate(0) translate(4 81.75)">
<title>cxt_remove_profile</title>
<!-- Node1 -->
<g id="Node000001" class="node">
<title>Node1</title>
<g id="a_Node000001"><a xlink:title=" ">
<polygon fill="#999999" stroke="#666666" points="110.5,-20.75 0,-20.75 0,0 110.5,0 110.5,-20.75"/>
<text xml:space="preserve" text-anchor="middle" x="55.25" y="-7.25" font-family="Helvetica,sans-Serif" font-size="10.00">cxt_remove_profile</text>
</a>
</g>
</g>
<!-- Node2 -->
<g id="Node000002" class="node">
<title>Node2</title>
<g id="a_Node000002"><a xlink:href="kest__profile_8c.html#a7b50c42b3345fa0351fae2af60150ab1" target="_top" xlink:title=" ">
<polygon fill="white" stroke="#666666" points="218.75,-39.75 146.5,-39.75 146.5,-19 218.75,-19 218.75,-39.75"/>
<text xml:space="preserve" text-anchor="middle" x="182.62" y="-26.25" font-family="Helvetica,sans-Serif" font-size="10.00">free_profile</text>
</a>
</g>
</g>
<!-- Node1&#45;&gt;Node2 -->
<g id="edge1_Node000001_Node000002" class="edge">
<title>Node1&#45;&gt;Node2</title>
<g id="a_edge1_Node000001_Node000002"><a xlink:title=" ">
<path fill="none" stroke="#63b8ff" d="M110.88,-18.65C118.95,-19.88 127.2,-21.13 135.08,-22.32"/>
<polygon fill="#63b8ff" stroke="#63b8ff" points="134.4,-25.76 144.81,-23.8 135.45,-18.84 134.4,-25.76"/>
</a>
</g>
</g>
<!-- Node8 -->
<g id="Node000008" class="node">
<title>Node8</title>
<g id="a_Node000008"><a xlink:href="kest__alloc_8c.html#a294af5728a94aa316fcf65304d388d48" target="_top" xlink:title=" ">
<polygon fill="white" stroke="#666666" points="427.75,-38.75 366.75,-38.75 366.75,-18 427.75,-18 427.75,-38.75"/>
<text xml:space="preserve" text-anchor="middle" x="397.25" y="-25.25" font-family="Helvetica,sans-Serif" font-size="10.00">kest_free</text>
</a>
</g>
</g>
<!-- Node1&#45;&gt;Node8 -->
<g id="edge6_Node000001_Node000008" class="edge">
<title>Node1&#45;&gt;Node8</title>
<g id="a_edge6_Node000001_Node000008"><a xlink:title=" ">
<path fill="none" stroke="#63b8ff" d="M110.82,-9C142.38,-8.55 182.83,-8.56 218.75,-10.38 265.78,-12.75 319.56,-18.66 355.48,-23.06"/>
<polygon fill="#63b8ff" stroke="#63b8ff" points="354.63,-26.48 364.98,-24.24 355.49,-19.53 354.63,-26.48"/>
</a>
</g>
</g>
<!-- Node3 -->
<g id="Node000003" class="node">
<title>Node3</title>
<g id="a_Node000003"><a xlink:href="kest__profile_8c.html#a98628f676eab8e760f52eec1b9dd7281" target="_top" xlink:title=" ">
<polygon fill="white" stroke="#666666" points="323.25,-77.75 254.75,-77.75 254.75,-57 323.25,-57 323.25,-77.75"/>
<text xml:space="preserve" text-anchor="middle" x="289" y="-64.25" font-family="Helvetica,sans-Serif" font-size="10.00">gut_profile</text>
</a>
</g>
</g>
<!-- Node2&#45;&gt;Node3 -->
<g id="edge2_Node000002_Node000003" class="edge">
<title>Node2&#45;&gt;Node3</title>
<g id="a_edge2_Node000002_Node000003"><a xlink:title=" ">
<path fill="none" stroke="#63b8ff" d="M213.26,-40.16C223.94,-44.05 236.19,-48.51 247.64,-52.68"/>
<polygon fill="#63b8ff" stroke="#63b8ff" points="246.28,-55.91 256.87,-56.04 248.67,-49.33 246.28,-55.91"/>
</a>
</g>
</g>
<!-- Node2&#45;&gt;Node8 -->
<g id="edge5_Node000002_Node000008" class="edge">
<title>Node2&#45;&gt;Node8</title>
<g id="a_edge5_Node000002_Node000008"><a xlink:title=" ">
<path fill="none" stroke="#63b8ff" d="M219.21,-29.21C256.69,-29.03 315.61,-28.75 355.07,-28.57"/>
<polygon fill="#63b8ff" stroke="#63b8ff" points="354.89,-32.07 364.88,-28.52 354.86,-25.07 354.89,-32.07"/>
</a>
</g>
</g>
<!-- Node4 -->
<g id="Node000004" class="node">
<title>Node4</title>
<g id="a_Node000004"><a xlink:href="kest__pipeline_8c.html#a840a0f31f2703ff6040d47245cc56c7a" target="_top" xlink:title=" ">
<polygon fill="#fff0f0" stroke="red" points="435.25,-77.75 359.25,-77.75 359.25,-57 435.25,-57 435.25,-77.75"/>
<text xml:space="preserve" text-anchor="middle" x="397.25" y="-64.25" font-family="Helvetica,sans-Serif" font-size="10.00">gut_pipeline</text>
</a>
</g>
</g>
<!-- Node3&#45;&gt;Node4 -->
<g id="edge3_Node000003_Node000004" class="edge">
<title>Node3&#45;&gt;Node4</title>
<g id="a_edge3_Node000003_Node000004"><a xlink:title=" ">
<path fill="none" stroke="#63b8ff" d="M323.62,-67.38C331.22,-67.38 339.44,-67.38 347.53,-67.38"/>
<polygon fill="#63b8ff" stroke="#63b8ff" points="347.28,-70.88 357.28,-67.38 347.28,-63.88 347.28,-70.88"/>
</a>
</g>
</g>
<!-- Node3&#45;&gt;Node8 -->
<g id="edge4_Node000003_Node000008" class="edge">
<title>Node3&#45;&gt;Node8</title>
<g id="a_edge4_Node000003_Node000008"><a xlink:title=" ">
<path fill="none" stroke="#63b8ff" d="M319.6,-56.51C330.88,-52.37 343.94,-47.58 356.04,-43.13"/>
<polygon fill="#63b8ff" stroke="#63b8ff" points="357.21,-46.43 365.39,-39.7 354.8,-39.86 357.21,-46.43"/>
</a>
</g>
</g>
</g>
</svg>
</svg>

<style type='text/css'>
<![CDATA[
[data-mouse-over-selected='false'] { opacity: 0.7; }
[data-mouse-over-selected='true']  { opacity: 1.0; }
]]>
</style>
<script type="application/ecmascript"><![CDATA[
document.addEventListener('DOMContentLoaded', (event) => {
  highlightEdges();
  highlightAdjacentNodes();
});
]]></script>
</svg>
