<?xml version="1.0" encoding="UTF-8" standalone="no"?>
<!DOCTYPE svg PUBLIC "-//W3C//DTD SVG 1.1//EN"
 "http://www.w3.org/Graphics/SVG/1.1/DTD/svg11.dtd">
<!-- Generated by graphviz version 13.1.2 (20250808.2320)
 -->
<!-- Title: kest_dict_entry_type_to_string_nice Pages: 1 -->
<!--zoomable 94 -->

<svg id="main" version="1.1" xmlns="http://www.w3.org/2000/svg" xmlns:xlink="http://www.w3.org/1999/xlink" xml:space="preserve" onload="init(evt)">

<style type="text/css"><![CDATA[
.node, .edge {opacity: 0.7;}
.node.selected, .edge.selected {opacity: 1;}
.edge:hover path { stroke: red; }
.edge:hover polygon { stroke: red; fill: red; }
]]></style>

<defs>
  <circle id="rim" cx="0" cy="0" r="7"/>
  <circle id="rim2" cx="0" cy="0" r="3.5"/>
  <g id="zoomPlus">
    <use xlink:href="#rim" fill="#404040"><set attributeName="fill" to="#808080" begin="zoomplus.mouseover" end="zoomplus.mouseout"/></use>
    <path d="M-4,0h8M0,-4v8" fill="none" stroke="white" stroke-width="1.5" pointer-events="none"/>
  </g>
  <g id="zoomMin">
    <use xlink:href="#rim" fill="#404040"><set attributeName="fill" to="#808080" begin="zoomminus.mouseover" end="zoomminus.mouseout"/></use>
    <path d="M-4,0h8" fill="none" stroke="white" stroke-width="1.5" pointer-events="none"/>
  </g>
  <g id="arrowUp" transform="translate(30 24)">
    <use xlink:href="#rim"/>
    <path pointer-events="none" fill="none" stroke="white" stroke-width="1.5" d="M0,-3.0v7 M-2.5,-0.5L0,-3.0L2.5,-0.5"/>
  </g>
  <g id="arrowRight" transform="rotate(90) translate(36 -43)">
    <use xlink:href="#rim"/>
    <path pointer-events="none" fill="none" stroke="white" stroke-width="1.5" d="M0,-3.0v7 M-2.5,-0.5L0,-3.0L2.5,-0.5"/>
  </g>
  <g id="arrowDown" transform="rotate(180) translate(-30 -48)">
    <use xlink:href="#rim"/>
    <path pointer-events="none" fill="none" stroke="white" stroke-width="1.5" d="M0,-3.0v7 M-2.5,-0.5L0,-3.0L2.5,-0.5"/>
  </g>
  <g id="arrowLeft" transform="rotate(270) translate(-36 17)">
    <use xlink:href="#rim"/>
    <path pointer-events="none" fill="none" stroke="white" stroke-width="1.5" d="M0,-3.0v7 M-2.5,-0.5L0,-3.0L2.5,-0.5"/>
  </g>
  <g id="resetDef">
    <use xlink:href="#rim2" fill="#404040"><set attributeName="fill" to="#808080" begin="reset.mouseover" end="reset.mouseout"/></use>
  </g>
</defs>
<script type="application/ecmascript">
var viewWidth = 575;
var viewHeight = 94;
var sectionId = 'dynsection-4';
</script>
<script type="application/ecmascript" xlink:href="svg.min.js"/>
<svg id="graph" class="graph">
<g id="viewport">
<title>kest_dict_entry_type_to_string_nice</title>
<!-- Node1 -->
<g id="Node000001" class="node">
<title>Node1</title>
<g id="a_Node000001"><a xlink:title=" ">
<polygon fill="#999999" stroke="#666666" points="567.25,-59.5 450,-59.5 450,-26 567.25,-26 567.25,-59.5"/>
<text xml:space="preserve" text-anchor="start" x="458" y="-46" font-family="Helvetica,sans-Serif" font-size="10.00">kest_dict_entry_type</text>
<text xml:space="preserve" text-anchor="middle" x="508.62" y="-33.25" font-family="Helvetica,sans-Serif" font-size="10.00">_to_string_nice</text>
</a>
</g>
</g>
<!-- Node2 -->
<g id="Node000002" class="node">
<title>Node2</title>
<g id="a_Node000002"><a xlink:href="kest__dict__extract_8c.html#ac9cee86a595df863e15b7693b86635b7" target="_top" xlink:title=" ">
<polygon fill="white" stroke="#666666" points="414,-59.5 309.5,-59.5 309.5,-26 414,-26 414,-59.5"/>
<text xml:space="preserve" text-anchor="start" x="317.5" y="-46" font-family="Helvetica,sans-Serif" font-size="10.00">kest_extract_filter</text>
<text xml:space="preserve" text-anchor="middle" x="361.75" y="-33.25" font-family="Helvetica,sans-Serif" font-size="10.00">_coefs_from_dict</text>
</a>
</g>
</g>
<!-- Node1&#45;&gt;Node2 -->
<g id="edge1_Node000001_Node000002" class="edge">
<title>Node1&#45;&gt;Node2</title>
<g id="a_edge1_Node000001_Node000002"><a xlink:title=" ">
<path fill="none" stroke="#63b8ff" d="M438.22,-42.75C430.17,-42.75 422.06,-42.75 414.31,-42.75"/>
<polygon fill="#63b8ff" stroke="#63b8ff" points="438.02,-46.25 448.02,-42.75 438.02,-39.25 438.02,-46.25"/>
</a>
</g>
</g>
<!-- Node3 -->
<g id="Node000003" class="node">
<title>Node3</title>
<g id="a_Node000003"><a xlink:href="kest__dict__extract_8c.html#ab7acbd0287c39e5bbb08575fa2a61291" target="_top" xlink:title=" ">
<polygon fill="white" stroke="#666666" points="273.5,-85.5 159.25,-85.5 159.25,-52 273.5,-52 273.5,-85.5"/>
<text xml:space="preserve" text-anchor="start" x="167.25" y="-72" font-family="Helvetica,sans-Serif" font-size="10.00">kest_extract_biquad</text>
<text xml:space="preserve" text-anchor="middle" x="216.38" y="-59.25" font-family="Helvetica,sans-Serif" font-size="10.00">_from_dict</text>
</a>
</g>
</g>
<!-- Node2&#45;&gt;Node3 -->
<g id="edge2_Node000002_Node000003" class="edge">
<title>Node2&#45;&gt;Node3</title>
<g id="a_edge2_Node000002_Node000003"><a xlink:title=" ">
<path fill="none" stroke="#63b8ff" d="M298.08,-54.11C289.98,-55.58 281.71,-57.08 273.72,-58.53"/>
<polygon fill="#63b8ff" stroke="#63b8ff" points="298.69,-57.56 307.9,-52.33 297.44,-50.67 298.69,-57.56"/>
</a>
</g>
</g>
<!-- Node12 -->
<g id="Node000012" class="node">
<title>Node12</title>
<g id="a_Node000012"><a xlink:href="kest__dict__extract_8c.html#a449de50461a34d20bba301a90a39ec05" target="_top" xlink:title=" ">
<polygon fill="white" stroke="#666666" points="268.62,-33.5 164.12,-33.5 164.12,0 268.62,0 268.62,-33.5"/>
<text xml:space="preserve" text-anchor="start" x="172.12" y="-20" font-family="Helvetica,sans-Serif" font-size="10.00">kest_extract_filter</text>
<text xml:space="preserve" text-anchor="middle" x="216.38" y="-7.25" font-family="Helvetica,sans-Serif" font-size="10.00">_from_dict</text>
</a>
</g>
</g>
<!-- Node2&#45;&gt;Node12 -->
<g id="edge4_Node000002_Node000012" class="edge">
<title>Node2&#45;&gt;Node12</title>
<g id="a_edge4_Node000002_Node000012"><a xlink:title=" ">
<path fill="none" stroke="#63b8ff" d="M298.08,-31.39C288.32,-29.62 278.33,-27.8 268.86,-26.09"/>
<polygon fill="#63b8ff" stroke="#63b8ff" points="297.44,-34.83 307.9,-33.17 298.69,-27.94 297.44,-34.83"/>
</a>
</g>
</g>
<!-- Node4 -->
<g id="Node000004" class="node">
<title>Node4</title>
<g id="a_Node000004"><a xlink:href="kest__dict__extract_8c.html#ad78dabb9f962180138c9dfc2bf1731e3" target="_top" xlink:title=" ">
<polygon fill="#fff0f0" stroke="red" points="123.25,-59.5 0,-59.5 0,-26 123.25,-26 123.25,-59.5"/>
<text xml:space="preserve" text-anchor="start" x="8" y="-46" font-family="Helvetica,sans-Serif" font-size="10.00">kest_extract_resource</text>
<text xml:space="preserve" text-anchor="middle" x="61.62" y="-33.25" font-family="Helvetica,sans-Serif" font-size="10.00">_from_dict</text>
</a>
</g>
</g>
<!-- Node3&#45;&gt;Node4 -->
<g id="edge3_Node000003_Node000004" class="edge">
<title>Node3&#45;&gt;Node4</title>
<g id="a_edge3_Node000003_Node000004"><a xlink:title=" ">
<path fill="none" stroke="#63b8ff" d="M147.74,-57.24C139.74,-55.88 131.62,-54.49 123.71,-53.15"/>
<polygon fill="#63b8ff" stroke="#63b8ff" points="146.99,-60.66 157.44,-58.89 148.17,-53.76 146.99,-60.66"/>
</a>
</g>
</g>
<!-- Node12&#45;&gt;Node4 -->
<g id="edge5_Node000012_Node000004" class="edge">
<title>Node12&#45;&gt;Node4</title>
<g id="a_edge5_Node000012_Node000004"><a xlink:title=" ">
<path fill="none" stroke="#63b8ff" d="M152.57,-27.44C142.97,-29.07 133.08,-30.76 123.52,-32.38"/>
<polygon fill="#63b8ff" stroke="#63b8ff" points="152.9,-30.93 162.17,-25.81 151.72,-24.03 152.9,-30.93"/>
</a>
</g>
</g>
</g>
</svg>

<g id="navigator" transform="translate(0 0)" fill="#404254">
  <rect fill="#f2f5e9" fill-opacity="0.5" stroke="#606060" stroke-width=".5" x="0" y="0" width="60" height="60"/>
  <use id="zoomplus" xlink:href="#zoomPlus" x="17" y="9" onmousedown="handleZoom(evt,'in')"/>
  <use id="zoomminus" xlink:href="#zoomMin" x="42" y="9" onmousedown="handleZoom(evt,'out')"/>
  <use id="reset" xlink:href="#resetDef" x="30" y="36" onmousedown="handleReset()"/>
   <use id="arrowup" xlink:href="#arrowUp" x="0" y="0" onmousedown="handlePan(0,-1)"/>
  <use id="arrowright" xlink:href="#arrowRight" x="0" y="0" onmousedown="handlePan(1,0)"/>
  <use id="arrowdown" xlink:href="#arrowDown" x="0" y="0" onmousedown="handlePan(0,1)"/>
  <use id="arrowleft" xlink:href="#arrowLeft" x="0" y="0" onmousedown="handlePan(-1,0)"/>
</g>
<svg viewBox="0 0 15 15" width="100%" height="30px" preserveAspectRatio="xMaxYMin meet">
 <g id="arrow_out" transform="scale(0.3 0.3)">
  <a xlink:href="kest__dictionary_8h_abaef2273aade2095c1ba537a60e71450_icgraph_org.svg" target="_base">
   <rect id="button" ry="5" rx="5" y="6" x="6" height="38" width="38"
        fill="#f2f5e9" fill-opacity="0.5" stroke="#606060" stroke-width="1.0"/>
   <path id="arrow"
     d="M 11.500037,31.436501 C 11.940474,20.09759 22.043105,11.32322 32.158766,21.979434 L 37.068811,17.246167 C 37.068811,17.246167 37.088388,32 37.088388,32 L 22.160133,31.978069 C 22.160133,31.978069 26.997745,27.140456 26.997745,27.140456 C 18.528582,18.264221 13.291696,25.230495 11.500037,31.436501 z"
     style="fill:#404040;"/>
  </a>
 </g>
</svg>

<style type='text/css'>
<![CDATA[
[data-mouse-over-selected='false'] { opacity: 0.7; }
[data-mouse-over-selected='true']  { opacity: 1.0; }
]]>
</style>
<script type="application/ecmascript"><![CDATA[
document.addEventListener('DOMContentLoaded', (event) => {
  highlightEdges();
  highlightAdjacentNodes();
});
]]></script>
</svg>
