<?xml version="1.0" encoding="UTF-8" standalone="no"?>
<!DOCTYPE svg PUBLIC "-//W3C//DTD SVG 1.1//EN"
 "http://www.w3.org/Graphics/SVG/1.1/DTD/svg11.dtd">
<!-- Generated by graphviz version 13.1.2 (20250808.2320)
 -->
<!-- Title: parameter_widget_update_value_label_v Pages: 1 -->
<svg width="724pt" height="80pt"
 viewBox="0.00 0.00 724.00 80.00" xmlns="http://www.w3.org/2000/svg" xmlns:xlink="http://www.w3.org/1999/xlink">
<g id="graph0" class="graph" transform="scale(1 1) rotate(0) translate(4 76.12)">
<title>parameter_widget_update_value_label_v</title>
<!-- Node1 -->
<g id="Node000001" class="node">
<title>Node1</title>
<g id="a_Node000001"><a xlink:title=" ">
<polygon fill="#999999" stroke="#666666" points="715.75,-55.5 571.5,-55.5 571.5,-22 715.75,-22 715.75,-55.5"/>
<text xml:space="preserve" text-anchor="start" x="579.5" y="-42" font-family="Helvetica,sans-Serif" font-size="10.00">parameter_widget_update</text>
<text xml:space="preserve" text-anchor="middle" x="643.62" y="-29.25" font-family="Helvetica,sans-Serif" font-size="10.00">_value_label_v</text>
</a>
</g>
</g>
<!-- Node2 -->
<g id="Node000002" class="node">
<title>Node2</title>
<g id="a_Node000002"><a xlink:href="kest__parameter__widget_8c.html#af94dfc8bbb394e3264533d794d147e95" target="_top" xlink:title=" ">
<polygon fill="white" stroke="#666666" points="535.5,-55.5 389.75,-55.5 389.75,-22 535.5,-22 535.5,-55.5"/>
<text xml:space="preserve" text-anchor="start" x="397.75" y="-42" font-family="Helvetica,sans-Serif" font-size="10.00">parameter_widget_change</text>
<text xml:space="preserve" text-anchor="middle" x="462.62" y="-29.25" font-family="Helvetica,sans-Serif" font-size="10.00">_cb_inner</text>
</a>
</g>
</g>
<!-- Node1&#45;&gt;Node2 -->
<g id="edge1_Node000001_Node000002" class="edge">
<title>Node1&#45;&gt;Node2</title>
<g id="a_edge1_Node000001_Node000002"><a xlink:title=" ">
<path fill="none" stroke="#63b8ff" d="M559.87,-38.75C551.87,-38.75 543.79,-38.75 535.91,-38.75"/>
<polygon fill="#63b8ff" stroke="#63b8ff" points="559.59,-42.25 569.59,-38.75 559.59,-35.25 559.59,-42.25"/>
</a>
</g>
</g>
<!-- Node3 -->
<g id="Node000003" class="node">
<title>Node3</title>
<g id="a_Node000003"><a xlink:href="kest__parameter__widget_8c.html#aacedf3a01b62f8fba28c7521a2b64735" target="_top" xlink:title=" ">
<polygon fill="white" stroke="#666666" points="353.75,-72.12 191.5,-72.12 191.5,-51.38 353.75,-51.38 353.75,-72.12"/>
<text xml:space="preserve" text-anchor="middle" x="272.62" y="-58.62" font-family="Helvetica,sans-Serif" font-size="10.00">parameter_widget_change_cb</text>
</a>
</g>
</g>
<!-- Node2&#45;&gt;Node3 -->
<g id="edge2_Node000002_Node000003" class="edge">
<title>Node2&#45;&gt;Node3</title>
<g id="a_edge2_Node000002_Node000003"><a xlink:title=" ">
<path fill="none" stroke="#63b8ff" d="M378.21,-48.95C370.18,-49.94 362.04,-50.93 354.04,-51.91"/>
<polygon fill="#63b8ff" stroke="#63b8ff" points="378.47,-52.45 387.97,-47.76 377.62,-45.5 378.47,-52.45"/>
</a>
</g>
</g>
<!-- Node39 -->
<g id="Node000039" class="node">
<title>Node39</title>
<g id="a_Node000039"><a xlink:href="kest__menu_8c.html#a8edfbaa412cfceaa47690ee035de622c" target="_top" xlink:title=" ">
<polygon fill="white" stroke="#666666" points="345.5,-33.5 199.75,-33.5 199.75,0 345.5,0 345.5,-33.5"/>
<text xml:space="preserve" text-anchor="start" x="207.75" y="-20" font-family="Helvetica,sans-Serif" font-size="10.00">parameter_widget_change</text>
<text xml:space="preserve" text-anchor="middle" x="272.62" y="-7.25" font-family="Helvetica,sans-Serif" font-size="10.00">_cb_settings_wrapper</text>
</a>
</g>
</g>
<!-- Node2&#45;&gt;Node39 -->
<g id="edge4_Node000002_Node000039" class="edge">
<title>Node2&#45;&gt;Node39</title>
<g id="a_edge4_Node000002_Node000039"><a xlink:title=" ">
<path fill="none" stroke="#63b8ff" d="M378.31,-29C367.5,-27.74 356.5,-26.45 345.89,-25.21"/>
<polygon fill="#63b8ff" stroke="#63b8ff" points="377.63,-32.45 387.97,-30.13 378.45,-25.49 377.63,-32.45"/>
</a>
</g>
</g>
<!-- Node4 -->
<g id="Node000004" class="node">
<title>Node4</title>
<g id="a_Node000004"><a xlink:href="kest__parameter__widget_8c.html#adbadb9573fa4f9b812f8d270c78053e4" target="_top" xlink:title=" ">
<polygon fill="#fff0f0" stroke="red" points="155.5,-72.12 0,-72.12 0,-51.38 155.5,-51.38 155.5,-72.12"/>
<text xml:space="preserve" text-anchor="middle" x="77.75" y="-58.62" font-family="Helvetica,sans-Serif" font-size="10.00">parameter_widget_create_ui</text>
</a>
</g>
</g>
<!-- Node3&#45;&gt;Node4 -->
<g id="edge3_Node000003_Node000004" class="edge">
<title>Node3&#45;&gt;Node4</title>
<g id="a_edge3_Node000003_Node000004"><a xlink:title=" ">
<path fill="none" stroke="#63b8ff" d="M179.93,-61.75C171.9,-61.75 163.82,-61.75 155.93,-61.75"/>
<polygon fill="#63b8ff" stroke="#63b8ff" points="179.71,-65.25 189.71,-61.75 179.71,-58.25 179.71,-65.25"/>
</a>
</g>
</g>
<!-- Node31 -->
<g id="Node000031" class="node">
<title>Node31</title>
<g id="a_Node000031"><a xlink:href="kest__menu_8c.html#aa44b42640611d3ca75f6b55206ebd08e" target="_top" xlink:title=" ">
<polygon fill="#fff0f0" stroke="red" points="138.62,-27.12 16.88,-27.12 16.88,-6.38 138.62,-6.38 138.62,-27.12"/>
<text xml:space="preserve" text-anchor="middle" x="77.75" y="-13.62" font-family="Helvetica,sans-Serif" font-size="10.00">create_menu_item_ui</text>
</a>
</g>
</g>
<!-- Node39&#45;&gt;Node31 -->
<g id="edge5_Node000039_Node000031" class="edge">
<title>Node39&#45;&gt;Node31</title>
<g id="a_edge5_Node000039_Node000031"><a xlink:title=" ">
<path fill="none" stroke="#63b8ff" d="M187.94,-16.75C171.45,-16.75 154.45,-16.75 138.92,-16.75"/>
<polygon fill="#63b8ff" stroke="#63b8ff" points="187.74,-20.25 197.74,-16.75 187.74,-13.25 187.74,-20.25"/>
</a>
</g>
</g>
</g>
</svg>
