<?xml version="1.0" encoding="UTF-8" standalone="no"?>
<!DOCTYPE svg PUBLIC "-//W3C//DTD SVG 1.1//EN"
 "http://www.w3.org/Graphics/SVG/1.1/DTD/svg11.dtd">
<!-- Generated by graphviz version 13.1.2 (20250808.2320)
 -->
<!-- Title: kest_fpga_block_opcode_format Pages: 1 -->
<!--zoomable 119 -->

<svg id="main" version="1.1" xmlns="http://www.w3.org/2000/svg" xmlns:xlink="http://www.w3.org/1999/xlink" xml:space="preserve" onload="init(evt)">

<style type="text/css"><![CDATA[
.node, .edge {opacity: 0.7;}
.node.selected, .edge.selected {opacity: 1;}
.edge:hover path { stroke: red; }
.edge:hover polygon { stroke: red; fill: red; }
]]></style>

<defs>
  <circle id="rim" cx="0" cy="0" r="7"/>
  <circle id="rim2" cx="0" cy="0" r="3.5"/>
  <g id="zoomPlus">
    <use xlink:href="#rim" fill="#404040"><set attributeName="fill" to="#808080" begin="zoomplus.mouseover" end="zoomplus.mouseout"/></use>
    <path d="M-4,0h8M0,-4v8" fill="none" stroke="white" stroke-width="1.5" pointer-events="none"/>
  </g>
  <g id="zoomMin">
    <use xlink:href="#rim" fill="#404040"><set attributeName="fill" to="#808080" begin="zoomminus.mouseover" end="zoomminus.mouseout"/></use>
    <path d="M-4,0h8" fill="none" stroke="white" stroke-width="1.5" pointer-events="none"/>
  </g>
  <g id="arrowUp" transform="translate(30 24)">
    <use xlink:href="#rim"/>
    <path pointer-events="none" fill="none" stroke="white" stroke-width="1.5" d="M0,-3.0v7 M-2.5,-0.5L0,-3.0L2.5,-0.5"/>
  </g>
  <g id="arrowRight" transform="rotate(90) translate(36 -43)">
    <use xlink:href="#rim"/>
    <path pointer-events="none" fill="none" stroke="white" stroke-width="1.5" d="M0,-3.0v7 M-2.5,-0.5L0,-3.0L2.5,-0.5"/>
  </g>
  <g id="arrowDown" transform="rotate(180) translate(-30 -48)">
    <use xlink:href="#rim"/>
    <path pointer-events="none" fill="none" stroke="white" stroke-width="1.5" d="M0,-3.0v7 M-2.5,-0.5L0,-3.0L2.5,-0.5"/>
  </g>
  <g id="arrowLeft" transform="rotate(270) translate(-36 17)">
    <use xlink:href="#rim"/>
    <path pointer-events="none" fill="none" stroke="white" stroke-width="1.5" d="M0,-3.0v7 M-2.5,-0.5L0,-3.0L2.5,-0.5"/>
  </g>
  <g id="resetDef">
    <use xlink:href="#rim2" fill="#404040"><set attributeName="fill" to="#808080" begin="reset.mouseover" end="reset.mouseout"/></use>
  </g>
</defs>
<script type="application/ecmascript">
var viewWidth = 656;
var viewHeight = 119;
var sectionId = 'dynsection-31';
</script>
<script type="application/ecmascript" xlink:href="svg.min.js"/>
<svg id="graph" class="graph">
<g id="viewport">
<title>kest_fpga_block_opcode_format</title>
<!-- Node1 -->
<g id="Node000001" class="node">
<title>Node1</title>
<g id="a_Node000001"><a xlink:title=" ">
<polygon fill="#999999" stroke="#666666" points="648.25,-88.12 513,-88.12 513,-54.62 648.25,-54.62 648.25,-88.12"/>
<text xml:space="preserve" text-anchor="start" x="521" y="-74.62" font-family="Helvetica,sans-Serif" font-size="10.00">kest_fpga_block_opcode</text>
<text xml:space="preserve" text-anchor="middle" x="580.62" y="-61.88" font-family="Helvetica,sans-Serif" font-size="10.00">_format</text>
</a>
</g>
</g>
<!-- Node2 -->
<g id="Node000002" class="node">
<title>Node2</title>
<g id="a_Node000002"><a xlink:href="kest__fpga__encoding_8c.html#a87169a4f3a076c88525f4e753a313806" target="_top" xlink:title=" ">
<polygon fill="white" stroke="#666666" points="477,-102.75 344,-102.75 344,-82 477,-82 477,-102.75"/>
<text xml:space="preserve" text-anchor="middle" x="410.5" y="-89.25" font-family="Helvetica,sans-Serif" font-size="10.00">kest_block_instr_format</text>
</a>
</g>
</g>
<!-- Node1&#45;&gt;Node2 -->
<g id="edge1_Node000001_Node000002" class="edge">
<title>Node1&#45;&gt;Node2</title>
<g id="a_edge1_Node000001_Node000002"><a xlink:title=" ">
<path fill="none" stroke="#63b8ff" d="M501.41,-81.14C493.37,-82.15 485.26,-83.16 477.38,-84.15"/>
<polygon fill="#63b8ff" stroke="#63b8ff" points="501.7,-84.64 511.19,-79.92 500.84,-77.69 501.7,-84.64"/>
</a>
</g>
</g>
<!-- Node65 -->
<g id="Node000065" class="node">
<title>Node65</title>
<g id="a_Node000065"><a xlink:href="kest__fpga__encoding_8c.html#a846915834c09759d6445b5dffc45b723" target="_top" xlink:title=" ">
<polygon fill="white" stroke="#666666" points="472.12,-62.75 348.88,-62.75 348.88,-42 472.12,-42 472.12,-62.75"/>
<text xml:space="preserve" text-anchor="middle" x="410.5" y="-49.25" font-family="Helvetica,sans-Serif" font-size="10.00">kest_fpga_batch_print</text>
</a>
</g>
</g>
<!-- Node1&#45;&gt;Node65 -->
<g id="edge4_Node000001_Node000065" class="edge">
<title>Node1&#45;&gt;Node65</title>
<g id="a_edge4_Node000001_Node000065"><a xlink:title=" ">
<path fill="none" stroke="#63b8ff" d="M501.38,-62.53C491.68,-61.44 481.87,-60.33 472.48,-59.27"/>
<polygon fill="#63b8ff" stroke="#63b8ff" points="500.86,-66 511.19,-63.64 501.65,-59.04 500.86,-66"/>
</a>
</g>
</g>
<!-- Node3 -->
<g id="Node000003" class="node">
<title>Node3</title>
<g id="a_Node000003"><a xlink:href="kest__fpga__encoding_8c.html#a2e8aa45bdd1fc75e8d054d63628dea8a" target="_top" xlink:title=" ">
<polygon fill="white" stroke="#666666" points="308,-111.12 172.75,-111.12 172.75,-77.62 308,-77.62 308,-111.12"/>
<text xml:space="preserve" text-anchor="start" x="180.75" y="-97.62" font-family="Helvetica,sans-Serif" font-size="10.00">kest_block_instr_encode</text>
<text xml:space="preserve" text-anchor="middle" x="240.38" y="-84.88" font-family="Helvetica,sans-Serif" font-size="10.00">_resource_aware</text>
</a>
</g>
</g>
<!-- Node2&#45;&gt;Node3 -->
<g id="edge2_Node000002_Node000003" class="edge">
<title>Node2&#45;&gt;Node3</title>
<g id="a_edge2_Node000002_Node000003"><a xlink:title=" ">
<path fill="none" stroke="#63b8ff" d="M332.28,-93.29C324.26,-93.39 316.15,-93.49 308.25,-93.58"/>
<polygon fill="#63b8ff" stroke="#63b8ff" points="332.06,-96.8 342.02,-93.18 331.98,-89.8 332.06,-96.8"/>
</a>
</g>
</g>
<!-- Node4 -->
<g id="Node000004" class="node">
<title>Node4</title>
<g id="a_Node000004"><a xlink:href="kest__fpga__encoding_8c.html#a1e92fe0ff4b72e00fa5d840ec96508c7" target="_top" xlink:title=" ">
<polygon fill="#fff0f0" stroke="red" points="136.75,-111.12 0,-111.12 0,-77.62 136.75,-77.62 136.75,-111.12"/>
<text xml:space="preserve" text-anchor="start" x="8" y="-97.62" font-family="Helvetica,sans-Serif" font-size="10.00">kest_fpga_batch_append</text>
<text xml:space="preserve" text-anchor="middle" x="68.38" y="-84.88" font-family="Helvetica,sans-Serif" font-size="10.00">_block_instr</text>
</a>
</g>
</g>
<!-- Node3&#45;&gt;Node4 -->
<g id="edge3_Node000003_Node000004" class="edge">
<title>Node3&#45;&gt;Node4</title>
<g id="a_edge3_Node000003_Node000004"><a xlink:title=" ">
<path fill="none" stroke="#63b8ff" d="M161.29,-94.38C153.18,-94.38 144.98,-94.38 137,-94.38"/>
<polygon fill="#63b8ff" stroke="#63b8ff" points="161.16,-97.88 171.16,-94.38 161.16,-90.88 161.16,-97.88"/>
</a>
</g>
</g>
<!-- Node66 -->
<g id="Node000066" class="node">
<title>Node66</title>
<g id="a_Node000066"><a xlink:href="kest__fpga__comms_8c.html#a8f850777494bb4c4d61df3efbf31ca7c" target="_top" xlink:title=" ">
<polygon fill="white" stroke="#666666" points="305.75,-59.75 175,-59.75 175,-39 305.75,-39 305.75,-59.75"/>
<text xml:space="preserve" text-anchor="middle" x="240.38" y="-46.25" font-family="Helvetica,sans-Serif" font-size="10.00">kest_fpga_comms_task</text>
</a>
</g>
</g>
<!-- Node65&#45;&gt;Node66 -->
<g id="edge5_Node000065_Node000066" class="edge">
<title>Node65&#45;&gt;Node66</title>
<g id="a_edge5_Node000065_Node000066"><a xlink:title=" ">
<path fill="none" stroke="#63b8ff" d="M337.62,-51.09C327.2,-50.91 316.52,-50.72 306.24,-50.53"/>
<polygon fill="#63b8ff" stroke="#63b8ff" points="337.23,-54.59 347.29,-51.26 337.35,-47.59 337.23,-54.59"/>
</a>
</g>
</g>
<!-- Node18 -->
<g id="Node000018" class="node">
<title>Node18</title>
<g id="a_Node000018"><a xlink:href="kest__int_8c.html#abce06be17fc37d675118a678a8100a36" target="_top" xlink:title=" ">
<polygon fill="white" stroke="#666666" points="100.38,-59.75 36.38,-59.75 36.38,-39 100.38,-39 100.38,-59.75"/>
<text xml:space="preserve" text-anchor="middle" x="68.38" y="-46.25" font-family="Helvetica,sans-Serif" font-size="10.00">app_main</text>
</a>
</g>
</g>
<!-- Node66&#45;&gt;Node18 -->
<g id="edge6_Node000066_Node000018" class="edge">
<title>Node66&#45;&gt;Node18</title>
<g id="a_edge6_Node000066_Node000018"><a xlink:title=" ">
<path fill="none" stroke="#63b8ff" d="M163.2,-49.38C141.17,-49.38 118.33,-49.38 100.71,-49.38"/>
<polygon fill="#63b8ff" stroke="#63b8ff" points="163.11,-52.88 173.11,-49.38 163.11,-45.88 163.11,-52.88"/>
</a>
</g>
</g>
<!-- Node19 -->
<g id="Node000019" class="node">
<title>Node19</title>
<g id="a_Node000019"><a xlink:href="kest__desktop_8c.html#ab499a4f71ef4cfc807b60d8739750c3e" target="_top" xlink:title=" ">
<polygon fill="#fff0f0" stroke="red" points="101.88,-20.75 34.88,-20.75 34.88,0 101.88,0 101.88,-20.75"/>
<text xml:space="preserve" text-anchor="middle" x="68.38" y="-7.25" font-family="Helvetica,sans-Serif" font-size="10.00">main_task</text>
</a>
</g>
</g>
<!-- Node66&#45;&gt;Node19 -->
<g id="edge7_Node000066_Node000019" class="edge">
<title>Node66&#45;&gt;Node19</title>
<g id="a_edge7_Node000066_Node000019"><a xlink:title=" ">
<path fill="none" stroke="#63b8ff" d="M181,-35.98C154.66,-29.94 124.53,-23.03 102.22,-17.91"/>
<polygon fill="#63b8ff" stroke="#63b8ff" points="180.02,-39.35 190.55,-38.17 181.58,-32.53 180.02,-39.35"/>
</a>
</g>
</g>
</g>
</svg>

<g id="navigator" transform="translate(0 0)" fill="#404254">
  <rect fill="#f2f5e9" fill-opacity="0.5" stroke="#606060" stroke-width=".5" x="0" y="0" width="60" height="60"/>
  <use id="zoomplus" xlink:href="#zoomPlus" x="17" y="9" onmousedown="handleZoom(evt,'in')"/>
  <use id="zoomminus" xlink:href="#zoomMin" x="42" y="9" onmousedown="handleZoom(evt,'out')"/>
  <use id="reset" xlink:href="#resetDef" x="30" y="36" onmousedown="handleReset()"/>
   <use id="arrowup" xlink:href="#arrowUp" x="0" y="0" onmousedown="handlePan(0,-1)"/>
  <use id="arrowright" xlink:href="#arrowRight" x="0" y="0" onmousedown="handlePan(1,0)"/>
  <use id="arrowdown" xlink:href="#arrowDown" x="0" y="0" onmousedown="handlePan(0,1)"/>
  <use id="arrowleft" xlink:href="#arrowLeft" x="0" y="0" onmousedown="handlePan(-1,0)"/>
</g>
<svg viewBox="0 0 15 15" width="100%" height="30px" preserveAspectRatio="xMaxYMin meet">
 <g id="arrow_out" transform="scale(0.3 0.3)">
  <a xlink:href="kest__fpga__encoding_8c_a8357836213e2592c0f36f83c83b1dcbd_icgraph_org.svg" target="_base">
   <rect id="button" ry="5" rx="5" y="6" x="6" height="38" width="38"
        fill="#f2f5e9" fill-opacity="0.5" stroke="#606060" stroke-width="1.0"/>
   <path id="arrow"
     d="M 11.500037,31.436501 C 11.940474,20.09759 22.043105,11.32322 32.158766,21.979434 L 37.068811,17.246167 C 37.068811,17.246167 37.088388,32 37.088388,32 L 22.160133,31.978069 C 22.160133,31.978069 26.997745,27.140456 26.997745,27.140456 C 18.528582,18.264221 13.291696,25.230495 11.500037,31.436501 z"
     style="fill:#404040;"/>
  </a>
 </g>
</svg>

<style type='text/css'>
<![CDATA[
[data-mouse-over-selected='false'] { opacity: 0.7; }
[data-mouse-over-selected='true']  { opacity: 1.0; }
]]>
</style>
<script type="application/ecmascript"><![CDATA[
document.addEventListener('DOMContentLoaded', (event) => {
  highlightEdges();
  highlightAdjacentNodes();
});
]]></script>
</svg>
