<?xml version="1.0" encoding="UTF-8" standalone="no"?>
<!DOCTYPE svg PUBLIC "-//W3C//DTD SVG 1.1//EN"
 "http://www.w3.org/Graphics/SVG/1.1/DTD/svg11.dtd">
<!-- Generated by graphviz version 13.1.2 (20250808.2320)
 -->
<!-- Title: set_active_profile Pages: 1 -->
<!--zoomable 162 -->

<svg id="main" version="1.1" xmlns="http://www.w3.org/2000/svg" xmlns:xlink="http://www.w3.org/1999/xlink" xml:space="preserve" onload="init(evt)">

<style type="text/css"><![CDATA[
.node, .edge {opacity: 0.7;}
.node.selected, .edge.selected {opacity: 1;}
.edge:hover path { stroke: red; }
.edge:hover polygon { stroke: red; fill: red; }
]]></style>

<defs>
  <circle id="rim" cx="0" cy="0" r="7"/>
  <circle id="rim2" cx="0" cy="0" r="3.5"/>
  <g id="zoomPlus">
    <use xlink:href="#rim" fill="#404040"><set attributeName="fill" to="#808080" begin="zoomplus.mouseover" end="zoomplus.mouseout"/></use>
    <path d="M-4,0h8M0,-4v8" fill="none" stroke="white" stroke-width="1.5" pointer-events="none"/>
  </g>
  <g id="zoomMin">
    <use xlink:href="#rim" fill="#404040"><set attributeName="fill" to="#808080" begin="zoomminus.mouseover" end="zoomminus.mouseout"/></use>
    <path d="M-4,0h8" fill="none" stroke="white" stroke-width="1.5" pointer-events="none"/>
  </g>
  <g id="arrowUp" transform="translate(30 24)">
    <use xlink:href="#rim"/>
    <path pointer-events="none" fill="none" stroke="white" stroke-width="1.5" d="M0,-3.0v7 M-2.5,-0.5L0,-3.0L2.5,-0.5"/>
  </g>
  <g id="arrowRight" transform="rotate(90) translate(36 -43)">
    <use xlink:href="#rim"/>
    <path pointer-events="none" fill="none" stroke="white" stroke-width="1.5" d="M0,-3.0v7 M-2.5,-0.5L0,-3.0L2.5,-0.5"/>
  </g>
  <g id="arrowDown" transform="rotate(180) translate(-30 -48)">
    <use xlink:href="#rim"/>
    <path pointer-events="none" fill="none" stroke="white" stroke-width="1.5" d="M0,-3.0v7 M-2.5,-0.5L0,-3.0L2.5,-0.5"/>
  </g>
  <g id="arrowLeft" transform="rotate(270) translate(-36 17)">
    <use xlink:href="#rim"/>
    <path pointer-events="none" fill="none" stroke="white" stroke-width="1.5" d="M0,-3.0v7 M-2.5,-0.5L0,-3.0L2.5,-0.5"/>
  </g>
  <g id="resetDef">
    <use xlink:href="#rim2" fill="#404040"><set attributeName="fill" to="#808080" begin="reset.mouseover" end="reset.mouseout"/></use>
  </g>
</defs>
<script type="application/ecmascript">
var viewWidth = 803;
var viewHeight = 162;
var sectionId = 'dynsection-43';
</script>
<script type="application/ecmascript" xlink:href="svg.min.js"/>
<svg id="graph" class="graph">
<g id="viewport">
<title>set_active_profile</title>
<!-- Node1 -->
<g id="Node000001" class="node">
<title>Node1</title>
<g id="a_Node000001"><a xlink:title=" ">
<polygon fill="#999999" stroke="#666666" points="103,-75.12 0,-75.12 0,-54.38 103,-54.38 103,-75.12"/>
<text xml:space="preserve" text-anchor="middle" x="51.5" y="-61.62" font-family="Helvetica,sans-Serif" font-size="10.00">set_active_profile</text>
</a>
</g>
</g>
<!-- Node2 -->
<g id="Node000002" class="node">
<title>Node2</title>
<g id="a_Node000002"><a xlink:href="kest__profile_8c.html#a9103db076a4ce8ae9b06c8e30480cbe3" target="_top" xlink:title=" ">
<polygon fill="white" stroke="#666666" points="277.25,-114.12 148.75,-114.12 148.75,-93.38 277.25,-93.38 277.25,-114.12"/>
<text xml:space="preserve" text-anchor="middle" x="213" y="-100.62" font-family="Helvetica,sans-Serif" font-size="10.00">kest_profile_set_active</text>
</a>
</g>
</g>
<!-- Node1&#45;&gt;Node2 -->
<g id="edge1_Node000001_Node000002" class="edge">
<title>Node1&#45;&gt;Node2</title>
<g id="a_edge1_Node000001_Node000002"><a xlink:title=" ">
<path fill="none" stroke="#63b8ff" d="M96.93,-75.61C115.35,-80.12 136.91,-85.39 156.36,-90.15"/>
<polygon fill="#63b8ff" stroke="#63b8ff" points="155.52,-93.54 166.06,-92.52 157.18,-86.74 155.52,-93.54"/>
</a>
</g>
</g>
<!-- Node38 -->
<g id="Node000038" class="node">
<title>Node38</title>
<g id="a_Node000038"><a xlink:href="kest__profile_8c.html#a9485112eae167967c5ffd2a1c5018df1" target="_top" xlink:title=" ">
<polygon fill="white" stroke="#666666" points="281.75,-75.12 144.25,-75.12 144.25,-54.38 281.75,-54.38 281.75,-75.12"/>
<text xml:space="preserve" text-anchor="middle" x="213" y="-61.62" font-family="Helvetica,sans-Serif" font-size="10.00">kest_profile_set_inactive</text>
</a>
</g>
</g>
<!-- Node1&#45;&gt;Node38 -->
<g id="edge9_Node000001_Node000038" class="edge">
<title>Node1&#45;&gt;Node38</title>
<g id="a_edge9_Node000001_Node000038"><a xlink:title=" ">
<path fill="none" stroke="#63b8ff" d="M103.41,-64.75C112.64,-64.75 122.48,-64.75 132.32,-64.75"/>
<polygon fill="#63b8ff" stroke="#63b8ff" points="132.31,-68.25 142.31,-64.75 132.31,-61.25 132.31,-68.25"/>
</a>
</g>
</g>
<!-- Node39 -->
<g id="Node000039" class="node">
<title>Node39</title>
<g id="a_Node000039"><a xlink:href="kest__sequence_8c.html#a202811eda2c1fde6c1ba99aba433bc1b" target="_top" xlink:title=" ">
<polygon fill="white" stroke="#666666" points="287,-33.12 139,-33.12 139,-12.38 287,-12.38 287,-33.12"/>
<text xml:space="preserve" text-anchor="middle" x="213" y="-19.62" font-family="Helvetica,sans-Serif" font-size="10.00">kest_sequence_activate_at</text>
</a>
</g>
</g>
<!-- Node1&#45;&gt;Node39 -->
<g id="edge11_Node000001_Node000039" class="edge">
<title>Node1&#45;&gt;Node39</title>
<g id="a_edge11_Node000001_Node000039"><a xlink:title=" ">
<path fill="none" stroke="#63b8ff" d="M93.58,-53.93C113.78,-48.61 138.34,-42.15 159.86,-36.48"/>
<polygon fill="#63b8ff" stroke="#63b8ff" points="160.54,-39.92 169.32,-33.99 158.76,-33.15 160.54,-39.92"/>
</a>
</g>
</g>
<!-- Node3 -->
<g id="Node000003" class="node">
<title>Node3</title>
<g id="a_Node000003"><a xlink:href="kest__profile_8c.html#a23cd63c025729fe28dbd76f64ce43f0d" target="_top" xlink:title=" ">
<polygon fill="white" stroke="#666666" points="469.5,-127.12 323,-127.12 323,-106.38 469.5,-106.38 469.5,-127.12"/>
<text xml:space="preserve" text-anchor="middle" x="396.25" y="-113.62" font-family="Helvetica,sans-Serif" font-size="10.00">kest_profile_program_fpga</text>
</a>
</g>
</g>
<!-- Node2&#45;&gt;Node3 -->
<g id="edge2_Node000002_Node000003" class="edge">
<title>Node2&#45;&gt;Node3</title>
<g id="a_edge2_Node000002_Node000003"><a xlink:title=" ">
<path fill="none" stroke="#63b8ff" d="M277.65,-108.32C288.59,-109.1 300.1,-109.93 311.48,-110.74"/>
<polygon fill="#63b8ff" stroke="#63b8ff" points="311.04,-114.22 321.26,-111.44 311.54,-107.24 311.04,-114.22"/>
</a>
</g>
</g>
<!-- Node36 -->
<g id="Node000036" class="node">
<title>Node36</title>
<g id="a_Node000036"><a xlink:href="kest__profile_8c.html#a8b1594e9e88b6298e1ce4d93641b1e4d" target="_top" xlink:title=" ">
<polygon fill="white" stroke="#666666" points="452.25,-85.5 340.25,-85.5 340.25,-52 452.25,-52 452.25,-85.5"/>
<text xml:space="preserve" text-anchor="start" x="348.25" y="-72" font-family="Helvetica,sans-Serif" font-size="10.00">kest_profile_update</text>
<text xml:space="preserve" text-anchor="middle" x="396.25" y="-59.25" font-family="Helvetica,sans-Serif" font-size="10.00">_representations</text>
</a>
</g>
</g>
<!-- Node2&#45;&gt;Node36 -->
<g id="edge7_Node000002_Node000036" class="edge">
<title>Node2&#45;&gt;Node36</title>
<g id="a_edge7_Node000002_Node000036"><a xlink:title=" ">
<path fill="none" stroke="#63b8ff" d="M269.86,-92.96C288.47,-89.37 309.38,-85.33 328.71,-81.6"/>
<polygon fill="#63b8ff" stroke="#63b8ff" points="329.25,-85.06 338.4,-79.73 327.92,-78.19 329.25,-85.06"/>
</a>
</g>
</g>
<!-- Node4 -->
<g id="Node000004" class="node">
<title>Node4</title>
<g id="a_Node000004"><a xlink:href="kest__error__codes_8c.html#a0f4c77127bc0b77264a21104979c576a" target="_top" xlink:title=" ">
<polygon fill="white" stroke="#666666" points="794.75,-133.5 686.5,-133.5 686.5,-100 794.75,-100 794.75,-133.5"/>
<text xml:space="preserve" text-anchor="start" x="694.5" y="-120" font-family="Helvetica,sans-Serif" font-size="10.00">kest_error_code_to</text>
<text xml:space="preserve" text-anchor="middle" x="740.62" y="-107.25" font-family="Helvetica,sans-Serif" font-size="10.00">_string</text>
</a>
</g>
</g>
<!-- Node3&#45;&gt;Node4 -->
<g id="edge3_Node000003_Node000004" class="edge">
<title>Node3&#45;&gt;Node4</title>
<g id="a_edge3_Node000003_Node000004"><a xlink:title=" ">
<path fill="none" stroke="#63b8ff" d="M427.58,-127.53C449.03,-134.57 478.64,-143.1 505.5,-146.75 569.36,-155.43 586.9,-157.17 650.5,-146.75 662.59,-144.77 675.25,-141.37 687.1,-137.56"/>
<polygon fill="#63b8ff" stroke="#63b8ff" points="687.94,-140.97 696.29,-134.46 685.7,-134.34 687.94,-140.97"/>
</a>
</g>
</g>
<!-- Node5 -->
<g id="Node000005" class="node">
<title>Node5</title>
<g id="a_Node000005"><a xlink:href="kest__fpga__comms_8c.html#aa3f94ee1fcafa0fcdc27ce70021c0f8b" target="_top" xlink:title=" ">
<polygon fill="white" stroke="#666666" points="650.5,-137.5 505.5,-137.5 505.5,-104 650.5,-104 650.5,-137.5"/>
<text xml:space="preserve" text-anchor="start" x="513.5" y="-124" font-family="Helvetica,sans-Serif" font-size="10.00">kest_fpga_queue_program</text>
<text xml:space="preserve" text-anchor="middle" x="578" y="-111.25" font-family="Helvetica,sans-Serif" font-size="10.00">_batch</text>
</a>
</g>
</g>
<!-- Node3&#45;&gt;Node5 -->
<g id="edge4_Node000003_Node000005" class="edge">
<title>Node3&#45;&gt;Node5</title>
<g id="a_edge4_Node000003_Node000005"><a xlink:title=" ">
<path fill="none" stroke="#63b8ff" d="M469.84,-118.37C477.63,-118.54 485.6,-118.72 493.51,-118.89"/>
<polygon fill="#63b8ff" stroke="#63b8ff" points="493.42,-122.39 503.5,-119.11 493.58,-115.39 493.42,-122.39"/>
</a>
</g>
</g>
<!-- Node6 -->
<g id="Node000006" class="node">
<title>Node6</title>
<g id="a_Node000006"><a xlink:href="kest__pipeline_8c.html#a7bb8f92d379766cce5cdc4b68d11818f" target="_top" xlink:title=" ">
<polygon fill="#fff0f0" stroke="red" points="637.38,-85.5 518.62,-85.5 518.62,-52 637.38,-52 637.38,-85.5"/>
<text xml:space="preserve" text-anchor="start" x="526.62" y="-72" font-family="Helvetica,sans-Serif" font-size="10.00">kest_pipeline_create</text>
<text xml:space="preserve" text-anchor="middle" x="578" y="-59.25" font-family="Helvetica,sans-Serif" font-size="10.00">_fpga_transfer_batch</text>
</a>
</g>
</g>
<!-- Node3&#45;&gt;Node6 -->
<g id="edge5_Node000003_Node000006" class="edge">
<title>Node3&#45;&gt;Node6</title>
<g id="a_edge5_Node000003_Node000006"><a xlink:title=" ">
<path fill="none" stroke="#63b8ff" d="M437.59,-105.98C458.14,-100.49 483.72,-93.66 507.33,-87.35"/>
<polygon fill="#63b8ff" stroke="#63b8ff" points="508.16,-90.76 516.92,-84.79 506.35,-83.99 508.16,-90.76"/>
</a>
</g>
</g>
<!-- Node6&#45;&gt;Node4 -->
<g id="edge6_Node000006_Node000004" class="edge">
<title>Node6&#45;&gt;Node4</title>
<g id="a_edge6_Node000006_Node000004"><a xlink:title=" ">
<path fill="none" stroke="#63b8ff" d="M636.54,-85.94C649.19,-89.73 662.68,-93.76 675.57,-97.61"/>
<polygon fill="#63b8ff" stroke="#63b8ff" points="674.21,-100.85 684.79,-100.36 676.21,-94.15 674.21,-100.85"/>
</a>
</g>
</g>
<!-- Node37 -->
<g id="Node000037" class="node">
<title>Node37</title>
<g id="a_Node000037"><a xlink:href="kest__representation_8c.html#a7a4a0f32b72f47d90e3d0f5932fbe58f" target="_top" xlink:title=" ">
<polygon fill="white" stroke="#666666" points="639.25,-33.5 516.75,-33.5 516.75,0 639.25,0 639.25,-33.5"/>
<text xml:space="preserve" text-anchor="start" x="524.75" y="-20" font-family="Helvetica,sans-Serif" font-size="10.00">queue_representation</text>
<text xml:space="preserve" text-anchor="middle" x="578" y="-7.25" font-family="Helvetica,sans-Serif" font-size="10.00">_list_update</text>
</a>
</g>
</g>
<!-- Node36&#45;&gt;Node37 -->
<g id="edge8_Node000036_Node000037" class="edge">
<title>Node36&#45;&gt;Node37</title>
<g id="a_edge8_Node000036_Node000037"><a xlink:title=" ">
<path fill="none" stroke="#63b8ff" d="M452.65,-52.72C469.65,-47.81 488.59,-42.33 506.46,-37.16"/>
<polygon fill="#63b8ff" stroke="#63b8ff" points="507.33,-40.55 515.96,-34.41 505.38,-33.82 507.33,-40.55"/>
</a>
</g>
</g>
<!-- Node38&#45;&gt;Node36 -->
<g id="edge10_Node000038_Node000036" class="edge">
<title>Node38&#45;&gt;Node36</title>
<g id="a_edge10_Node000038_Node000036"><a xlink:title=" ">
<path fill="none" stroke="#63b8ff" d="M282.01,-66.25C297.22,-66.59 313.33,-66.94 328.49,-67.28"/>
<polygon fill="#63b8ff" stroke="#63b8ff" points="328.27,-70.77 338.35,-67.49 328.43,-63.77 328.27,-70.77"/>
</a>
</g>
</g>
<!-- Node40 -->
<g id="Node000040" class="node">
<title>Node40</title>
<g id="a_Node000040"><a xlink:href="kest__sequence_8c.html#abb62e308c5b4830b09a802084718cb2d" target="_top" xlink:title=" ">
<polygon fill="white" stroke="#666666" points="459.75,-33.5 332.75,-33.5 332.75,0 459.75,0 459.75,-33.5"/>
<text xml:space="preserve" text-anchor="start" x="340.75" y="-20" font-family="Helvetica,sans-Serif" font-size="10.00">kest_sequence_update</text>
<text xml:space="preserve" text-anchor="middle" x="396.25" y="-7.25" font-family="Helvetica,sans-Serif" font-size="10.00">_representations</text>
</a>
</g>
</g>
<!-- Node39&#45;&gt;Node40 -->
<g id="edge12_Node000039_Node000040" class="edge">
<title>Node39&#45;&gt;Node40</title>
<g id="a_edge12_Node000039_Node000040"><a xlink:title=" ">
<path fill="none" stroke="#63b8ff" d="M287.46,-20.32C298.53,-19.95 309.96,-19.57 321.04,-19.21"/>
<polygon fill="#63b8ff" stroke="#63b8ff" points="321.05,-22.71 330.93,-18.88 320.82,-15.71 321.05,-22.71"/>
</a>
</g>
</g>
<!-- Node40&#45;&gt;Node37 -->
<g id="edge13_Node000040_Node000037" class="edge">
<title>Node40&#45;&gt;Node37</title>
<g id="a_edge13_Node000040_Node000037"><a xlink:title=" ">
<path fill="none" stroke="#63b8ff" d="M460.12,-16.75C474.64,-16.75 490.2,-16.75 505.07,-16.75"/>
<polygon fill="#63b8ff" stroke="#63b8ff" points="504.77,-20.25 514.77,-16.75 504.77,-13.25 504.77,-20.25"/>
</a>
</g>
</g>
</g>
</svg>

<g id="navigator" transform="translate(0 0)" fill="#404254">
  <rect fill="#f2f5e9" fill-opacity="0.5" stroke="#606060" stroke-width=".5" x="0" y="0" width="60" height="60"/>
  <use id="zoomplus" xlink:href="#zoomPlus" x="17" y="9" onmousedown="handleZoom(evt,'in')"/>
  <use id="zoomminus" xlink:href="#zoomMin" x="42" y="9" onmousedown="handleZoom(evt,'out')"/>
  <use id="reset" xlink:href="#resetDef" x="30" y="36" onmousedown="handleReset()"/>
   <use id="arrowup" xlink:href="#arrowUp" x="0" y="0" onmousedown="handlePan(0,-1)"/>
  <use id="arrowright" xlink:href="#arrowRight" x="0" y="0" onmousedown="handlePan(1,0)"/>
  <use id="arrowdown" xlink:href="#arrowDown" x="0" y="0" onmousedown="handlePan(0,1)"/>
  <use id="arrowleft" xlink:href="#arrowLeft" x="0" y="0" onmousedown="handlePan(-1,0)"/>
</g>
<svg viewBox="0 0 15 15" width="100%" height="30px" preserveAspectRatio="xMaxYMin meet">
 <g id="arrow_out" transform="scale(0.3 0.3)">
  <a xlink:href="kest__context_8h_a38c024b5edfeaccd111fd83b9276503e_cgraph_org.svg" target="_base">
   <rect id="button" ry="5" rx="5" y="6" x="6" height="38" width="38"
        fill="#f2f5e9" fill-opacity="0.5" stroke="#606060" stroke-width="1.0"/>
   <path id="arrow"
     d="M 11.500037,31.436501 C 11.940474,20.09759 22.043105,11.32322 32.158766,21.979434 L 37.068811,17.246167 C 37.068811,17.246167 37.088388,32 37.088388,32 L 22.160133,31.978069 C 22.160133,31.978069 26.997745,27.140456 26.997745,27.140456 C 18.528582,18.264221 13.291696,25.230495 11.500037,31.436501 z"
     style="fill:#404040;"/>
  </a>
 </g>
</svg>

<style type='text/css'>
<![CDATA[
[data-mouse-over-selected='false'] { opacity: 0.7; }
[data-mouse-over-selected='true']  { opacity: 1.0; }
]]>
</style>
<script type="application/ecmascript"><![CDATA[
document.addEventListener('DOMContentLoaded', (event) => {
  highlightEdges();
  highlightAdjacentNodes();
});
]]></script>
</svg>
