<?xml version="1.0" encoding="UTF-8" standalone="no"?>
<!DOCTYPE svg PUBLIC "-//W3C//DTD SVG 1.1//EN"
 "http://www.w3.org/Graphics/SVG/1.1/DTD/svg11.dtd">
<!-- Generated by graphviz version 13.1.2 (20250808.2320)
 -->
<!-- Title: kest_parser_error Pages: 1 -->
<svg width="720pt" height="144pt"
 viewBox="0.00 0.00 720.00 144.00" xmlns="http://www.w3.org/2000/svg" xmlns:xlink="http://www.w3.org/1999/xlink">
<g id="graph0" class="graph" transform="scale(1 1) rotate(0) translate(4 140.12)">
<title>kest_parser_error</title>
<!-- Node1 -->
<g id="Node000001" class="node">
<title>Node1</title>
<g id="a_Node000001"><a xlink:title=" ">
<polygon fill="#999999" stroke="#666666" points="711.5,-46.12 610.75,-46.12 610.75,-25.38 711.5,-25.38 711.5,-46.12"/>
<text xml:space="preserve" text-anchor="middle" x="661.12" y="-32.62" font-family="Helvetica,sans-Serif" font-size="10.00">kest_parser_error</text>
</a>
</g>
</g>
<!-- Node2 -->
<g id="Node000002" class="node">
<title>Node2</title>
<g id="a_Node000002"><a xlink:href="kest__dictionary_8c.html#aae3fbdeba250be8f6dd3dfa686eb24a8" target="_top" xlink:title=" ">
<polygon fill="white" stroke="#666666" points="574.75,-113.12 452.25,-113.12 452.25,-92.38 574.75,-92.38 574.75,-113.12"/>
<text xml:space="preserve" text-anchor="middle" x="513.5" y="-99.62" font-family="Helvetica,sans-Serif" font-size="10.00">kest_parse_dictionary</text>
</a>
</g>
</g>
<!-- Node1&#45;&gt;Node2 -->
<g id="edge1_Node000001_Node000002" class="edge">
<title>Node1&#45;&gt;Node2</title>
<g id="a_edge1_Node000001_Node000002"><a xlink:title=" ">
<path fill="none" stroke="#63b8ff" d="M626.51,-51.21C599.35,-63.71 561.81,-80.98 537.84,-92.01"/>
<polygon fill="#63b8ff" stroke="#63b8ff" points="627.73,-54.51 635.35,-47.15 624.81,-48.15 627.73,-54.51"/>
</a>
</g>
</g>
<!-- Node6 -->
<g id="Node000006" class="node">
<title>Node6</title>
<g id="a_Node000006"><a xlink:href="kest__eff__parser_8c.html#a73ef6962d1925857ec3e4b12d1aad834" target="_top" xlink:title=" ">
<polygon fill="white" stroke="#666666" points="254.75,-46.12 148.75,-46.12 148.75,-25.38 254.75,-25.38 254.75,-46.12"/>
<text xml:space="preserve" text-anchor="middle" x="201.75" y="-32.62" font-family="Helvetica,sans-Serif" font-size="10.00">kest_parse_tokens</text>
</a>
</g>
</g>
<!-- Node1&#45;&gt;Node6 -->
<g id="edge9_Node000001_Node000006" class="edge">
<title>Node1&#45;&gt;Node6</title>
<g id="a_edge9_Node000001_Node000006"><a xlink:title=" ">
<path fill="none" stroke="#63b8ff" d="M598.85,-35.75C508.23,-35.75 340.06,-35.75 254.96,-35.75"/>
<polygon fill="#63b8ff" stroke="#63b8ff" points="598.79,-39.25 608.79,-35.75 598.79,-32.25 598.79,-39.25"/>
</a>
</g>
</g>
<!-- Node7 -->
<g id="Node000007" class="node">
<title>Node7</title>
<g id="a_Node000007"><a xlink:href="kest__eff__parser_8c.html#ae4618958c44389928c260fdb0e170761" target="_top" xlink:title=" ">
<polygon fill="#fff0f0" stroke="red" points="109.75,-33.5 0,-33.5 0,0 109.75,0 109.75,-33.5"/>
<text xml:space="preserve" text-anchor="start" x="8" y="-20" font-family="Helvetica,sans-Serif" font-size="10.00">kest_read_eff_desc</text>
<text xml:space="preserve" text-anchor="middle" x="54.88" y="-7.25" font-family="Helvetica,sans-Serif" font-size="10.00">_from_file</text>
</a>
</g>
</g>
<!-- Node1&#45;&gt;Node7 -->
<g id="edge10_Node000001_Node000007" class="edge">
<title>Node1&#45;&gt;Node7</title>
<g id="a_edge10_Node000001_Node000007"><a xlink:title=" ">
<path fill="none" stroke="#63b8ff" d="M599.12,-31.97C520.31,-27.3 378.86,-19.61 257.75,-16.75 207.65,-15.57 150.53,-15.71 109.86,-16.06"/>
<polygon fill="#63b8ff" stroke="#63b8ff" points="598.58,-35.45 608.77,-32.55 599,-28.46 598.58,-35.45"/>
</a>
</g>
</g>
<!-- Node3 -->
<g id="Node000003" class="node">
<title>Node3</title>
<g id="a_Node000003"><a xlink:href="kest__dictionary_8c.html#af0aceaa93cba06fd44ad4bc50f2418e4" target="_top" xlink:title=" ">
<polygon fill="white" stroke="#666666" points="411,-136.12 299,-136.12 299,-115.38 411,-115.38 411,-136.12"/>
<text xml:space="preserve" text-anchor="middle" x="355" y="-122.62" font-family="Helvetica,sans-Serif" font-size="10.00">kest_parse_dict_val</text>
</a>
</g>
</g>
<!-- Node2&#45;&gt;Node3 -->
<g id="edge2_Node000002_Node000003" class="edge">
<title>Node2&#45;&gt;Node3</title>
<g id="a_edge2_Node000002_Node000003"><a xlink:title=" ">
<path fill="none" stroke="#63b8ff" d="M440.64,-106.58C423.21,-109.03 405.35,-112 390.56,-114.96"/>
<polygon fill="#63b8ff" stroke="#63b8ff" points="441.05,-110.06 450.49,-105.25 440.11,-103.12 441.05,-110.06"/>
</a>
</g>
</g>
<!-- Node5 -->
<g id="Node000005" class="node">
<title>Node5</title>
<g id="a_Node000005"><a xlink:href="kest__eff__section_8c.html#a4de28fb64398c9194136a2ced71e2795" target="_top" xlink:title=" ">
<polygon fill="white" stroke="#666666" points="416.25,-97.5 293.75,-97.5 293.75,-64 416.25,-64 416.25,-97.5"/>
<text xml:space="preserve" text-anchor="start" x="301.75" y="-84" font-family="Helvetica,sans-Serif" font-size="10.00">kest_parse_dictionary</text>
<text xml:space="preserve" text-anchor="middle" x="355" y="-71.25" font-family="Helvetica,sans-Serif" font-size="10.00">_section</text>
</a>
</g>
</g>
<!-- Node2&#45;&gt;Node5 -->
<g id="edge6_Node000002_Node000005" class="edge">
<title>Node2&#45;&gt;Node5</title>
<g id="a_edge6_Node000002_Node000005"><a xlink:title=" ">
<path fill="none" stroke="#63b8ff" d="M440.7,-92.66C432.65,-91.52 424.5,-90.38 416.6,-89.27"/>
<polygon fill="#63b8ff" stroke="#63b8ff" points="440.1,-96.11 450.49,-94.03 441.08,-89.18 440.1,-96.11"/>
</a>
</g>
</g>
<!-- Node3&#45;&gt;Node2 -->
<g id="edge5_Node000003_Node000002" class="edge">
<title>Node3&#45;&gt;Node2</title>
<g id="a_edge5_Node000003_Node000002"><a xlink:title=" ">
<path fill="none" stroke="#63b8ff" d="M422.58,-122.65C441.57,-120.08 461.51,-116.83 477.77,-113.57"/>
<polygon fill="#63b8ff" stroke="#63b8ff" points="422.2,-119.17 412.73,-123.92 423.1,-126.11 422.2,-119.17"/>
</a>
</g>
</g>
<!-- Node4 -->
<g id="Node000004" class="node">
<title>Node4</title>
<g id="a_Node000004"><a xlink:href="kest__dictionary_8c.html#a8db4f9c511b00d7240052135e9c1ed67" target="_top" xlink:title=" ">
<polygon fill="white" stroke="#666666" points="257.75,-136.12 145.75,-136.12 145.75,-115.38 257.75,-115.38 257.75,-136.12"/>
<text xml:space="preserve" text-anchor="middle" x="201.75" y="-122.62" font-family="Helvetica,sans-Serif" font-size="10.00">kest_parse_dict_list</text>
</a>
</g>
</g>
<!-- Node3&#45;&gt;Node4 -->
<g id="edge3_Node000003_Node000004" class="edge">
<title>Node3&#45;&gt;Node4</title>
<g id="a_edge3_Node000003_Node000004"><a xlink:title=" ">
<path fill="none" stroke="#63b8ff" d="M287.27,-119.04C277.56,-118.95 267.66,-119.01 258.2,-119.22"/>
<polygon fill="#63b8ff" stroke="#63b8ff" points="286.97,-122.54 297.03,-119.19 287.08,-115.54 286.97,-122.54"/>
</a>
</g>
</g>
<!-- Node4&#45;&gt;Node3 -->
<g id="edge4_Node000004_Node000003" class="edge">
<title>Node4&#45;&gt;Node3</title>
<g id="a_edge4_Node000004_Node000003"><a xlink:title=" ">
<path fill="none" stroke="#63b8ff" d="M269.47,-132.46C279.18,-132.55 289.09,-132.49 298.54,-132.28"/>
<polygon fill="#63b8ff" stroke="#63b8ff" points="269.77,-128.96 259.72,-132.31 269.66,-135.96 269.77,-128.96"/>
</a>
</g>
</g>
<!-- Node5&#45;&gt;Node6 -->
<g id="edge7_Node000005_Node000006" class="edge">
<title>Node5&#45;&gt;Node6</title>
<g id="a_edge7_Node000005_Node000006"><a xlink:title=" ">
<path fill="none" stroke="#63b8ff" d="M285.45,-60.35C269.5,-55.61 253.13,-50.74 239.2,-46.6"/>
<polygon fill="#63b8ff" stroke="#63b8ff" points="284.35,-63.68 294.94,-63.18 286.35,-56.97 284.35,-63.68"/>
</a>
</g>
</g>
<!-- Node6&#45;&gt;Node7 -->
<g id="edge8_Node000006_Node000007" class="edge">
<title>Node6&#45;&gt;Node7</title>
<g id="a_edge8_Node000006_Node000007"><a xlink:title=" ">
<path fill="none" stroke="#63b8ff" d="M137.14,-27.41C128.11,-26.22 118.89,-25.01 110.05,-23.86"/>
<polygon fill="#63b8ff" stroke="#63b8ff" points="136.58,-30.86 146.95,-28.69 137.49,-23.92 136.58,-30.86"/>
</a>
</g>
</g>
</g>
</svg>
