<?xml version="1.0" encoding="UTF-8" standalone="no"?>
<!DOCTYPE svg PUBLIC "-//W3C//DTD SVG 1.1//EN"
 "http://www.w3.org/Graphics/SVG/1.1/DTD/svg11.dtd">
<!-- Generated by graphviz version 13.1.2 (20250808.2320)
 -->
<!-- Title: kest_profile_program_fpga Pages: 1 -->
<!--zoomable 272 -->

<svg id="main" version="1.1" xmlns="http://www.w3.org/2000/svg" xmlns:xlink="http://www.w3.org/1999/xlink" xml:space="preserve" onload="init(evt)">

<style type="text/css"><![CDATA[
.node, .edge {opacity: 0.7;}
.node.selected, .edge.selected {opacity: 1;}
.edge:hover path { stroke: red; }
.edge:hover polygon { stroke: red; fill: red; }
]]></style>

<defs>
  <circle id="rim" cx="0" cy="0" r="7"/>
  <circle id="rim2" cx="0" cy="0" r="3.5"/>
  <g id="zoomPlus">
    <use xlink:href="#rim" fill="#404040"><set attributeName="fill" to="#808080" begin="zoomplus.mouseover" end="zoomplus.mouseout"/></use>
    <path d="M-4,0h8M0,-4v8" fill="none" stroke="white" stroke-width="1.5" pointer-events="none"/>
  </g>
  <g id="zoomMin">
    <use xlink:href="#rim" fill="#404040"><set attributeName="fill" to="#808080" begin="zoomminus.mouseover" end="zoomminus.mouseout"/></use>
    <path d="M-4,0h8" fill="none" stroke="white" stroke-width="1.5" pointer-events="none"/>
  </g>
  <g id="arrowUp" transform="translate(30 24)">
    <use xlink:href="#rim"/>
    <path pointer-events="none" fill="none" stroke="white" stroke-width="1.5" d="M0,-3.0v7 M-2.5,-0.5L0,-3.0L2.5,-0.5"/>
  </g>
  <g id="arrowRight" transform="rotate(90) translate(36 -43)">
    <use xlink:href="#rim"/>
    <path pointer-events="none" fill="none" stroke="white" stroke-width="1.5" d="M0,-3.0v7 M-2.5,-0.5L0,-3.0L2.5,-0.5"/>
  </g>
  <g id="arrowDown" transform="rotate(180) translate(-30 -48)">
    <use xlink:href="#rim"/>
    <path pointer-events="none" fill="none" stroke="white" stroke-width="1.5" d="M0,-3.0v7 M-2.5,-0.5L0,-3.0L2.5,-0.5"/>
  </g>
  <g id="arrowLeft" transform="rotate(270) translate(-36 17)">
    <use xlink:href="#rim"/>
    <path pointer-events="none" fill="none" stroke="white" stroke-width="1.5" d="M0,-3.0v7 M-2.5,-0.5L0,-3.0L2.5,-0.5"/>
  </g>
  <g id="resetDef">
    <use xlink:href="#rim2" fill="#404040"><set attributeName="fill" to="#808080" begin="reset.mouseover" end="reset.mouseout"/></use>
  </g>
</defs>
<script type="application/ecmascript">
var viewWidth = 782;
var viewHeight = 272;
var sectionId = 'dynsection-23';
</script>
<script type="application/ecmascript" xlink:href="svg.min.js"/>
<svg id="graph" class="graph">
<g id="viewport">
<title>kest_profile_program_fpga</title>
<!-- Node1 -->
<g id="Node000001" class="node">
<title>Node1</title>
<g id="a_Node000001"><a xlink:title=" ">
<polygon fill="#999999" stroke="#666666" points="146.5,-212.12 0,-212.12 0,-191.38 146.5,-191.38 146.5,-212.12"/>
<text xml:space="preserve" text-anchor="middle" x="73.25" y="-198.62" font-family="Helvetica,sans-Serif" font-size="10.00">kest_profile_program_fpga</text>
</a>
</g>
</g>
<!-- Node2 -->
<g id="Node000002" class="node">
<title>Node2</title>
<g id="a_Node000002"><a xlink:href="kest__error__codes_8c.html#a0f4c77127bc0b77264a21104979c576a" target="_top" xlink:title=" ">
<polygon fill="white" stroke="#666666" points="486,-263.5 377.75,-263.5 377.75,-230 486,-230 486,-263.5"/>
<text xml:space="preserve" text-anchor="start" x="385.75" y="-250" font-family="Helvetica,sans-Serif" font-size="10.00">kest_error_code_to</text>
<text xml:space="preserve" text-anchor="middle" x="431.88" y="-237.25" font-family="Helvetica,sans-Serif" font-size="10.00">_string</text>
</a>
</g>
</g>
<!-- Node1&#45;&gt;Node2 -->
<g id="edge1_Node000001_Node000002" class="edge">
<title>Node1&#45;&gt;Node2</title>
<g id="a_edge1_Node000001_Node000002"><a xlink:title=" ">
<path fill="none" stroke="#63b8ff" d="M112.78,-212.59C133.32,-217.96 159.11,-224.07 182.5,-227.75 244.33,-237.48 315.63,-242.28 365.94,-244.61"/>
<polygon fill="#63b8ff" stroke="#63b8ff" points="365.64,-248.1 375.78,-245.05 365.95,-241.11 365.64,-248.1"/>
</a>
</g>
</g>
<!-- Node3 -->
<g id="Node000003" class="node">
<title>Node3</title>
<g id="a_Node000003"><a xlink:href="kest__fpga__comms_8c.html#aa3f94ee1fcafa0fcdc27ce70021c0f8b" target="_top" xlink:title=" ">
<polygon fill="white" stroke="#666666" points="327.5,-218.5 182.5,-218.5 182.5,-185 327.5,-185 327.5,-218.5"/>
<text xml:space="preserve" text-anchor="start" x="190.5" y="-205" font-family="Helvetica,sans-Serif" font-size="10.00">kest_fpga_queue_program</text>
<text xml:space="preserve" text-anchor="middle" x="255" y="-192.25" font-family="Helvetica,sans-Serif" font-size="10.00">_batch</text>
</a>
</g>
</g>
<!-- Node1&#45;&gt;Node3 -->
<g id="edge2_Node000001_Node000003" class="edge">
<title>Node1&#45;&gt;Node3</title>
<g id="a_edge2_Node000001_Node000003"><a xlink:title=" ">
<path fill="none" stroke="#63b8ff" d="M146.84,-201.75C154.63,-201.75 162.6,-201.75 170.51,-201.75"/>
<polygon fill="#63b8ff" stroke="#63b8ff" points="170.5,-205.25 180.5,-201.75 170.5,-198.25 170.5,-205.25"/>
</a>
</g>
</g>
<!-- Node4 -->
<g id="Node000004" class="node">
<title>Node4</title>
<g id="a_Node000004"><a xlink:href="kest__pipeline_8c.html#a7bb8f92d379766cce5cdc4b68d11818f" target="_top" xlink:title=" ">
<polygon fill="white" stroke="#666666" points="314.38,-166.5 195.62,-166.5 195.62,-133 314.38,-133 314.38,-166.5"/>
<text xml:space="preserve" text-anchor="start" x="203.62" y="-153" font-family="Helvetica,sans-Serif" font-size="10.00">kest_pipeline_create</text>
<text xml:space="preserve" text-anchor="middle" x="255" y="-140.25" font-family="Helvetica,sans-Serif" font-size="10.00">_fpga_transfer_batch</text>
</a>
</g>
</g>
<!-- Node1&#45;&gt;Node4 -->
<g id="edge3_Node000001_Node000004" class="edge">
<title>Node1&#45;&gt;Node4</title>
<g id="a_edge3_Node000001_Node000004"><a xlink:title=" ">
<path fill="none" stroke="#63b8ff" d="M111.49,-190.98C132.54,-184.89 159.54,-177.08 184.37,-169.89"/>
<polygon fill="#63b8ff" stroke="#63b8ff" points="185.13,-173.32 193.77,-167.18 183.19,-166.59 185.13,-173.32"/>
</a>
</g>
</g>
<!-- Node4&#45;&gt;Node2 -->
<g id="edge5_Node000004_Node000002" class="edge">
<title>Node4&#45;&gt;Node2</title>
<g id="a_edge5_Node000004_Node000002"><a xlink:title=" ">
<path fill="none" stroke="#63b8ff" d="M311.61,-166.85C317.17,-169.47 322.57,-172.43 327.5,-175.75 347.33,-189.12 344.24,-201.57 363.5,-215.75 367.58,-218.75 371.99,-221.56 376.54,-224.17"/>
<polygon fill="#63b8ff" stroke="#63b8ff" points="374.84,-227.23 385.31,-228.84 378.13,-221.05 374.84,-227.23"/>
</a>
</g>
</g>
<!-- Node5 -->
<g id="Node000005" class="node">
<title>Node5</title>
<g id="a_Node000005"><a xlink:href="kest__resource_8c.html#a0dbd38376633e45652b4da3a7249c4b7" target="_top" xlink:title=" ">
<polygon fill="white" stroke="#666666" points="496.12,-173.5 367.62,-173.5 367.62,-140 496.12,-140 496.12,-173.5"/>
<text xml:space="preserve" text-anchor="start" x="375.62" y="-160" font-family="Helvetica,sans-Serif" font-size="10.00">empty_m_eff_resource</text>
<text xml:space="preserve" text-anchor="middle" x="431.88" y="-147.25" font-family="Helvetica,sans-Serif" font-size="10.00">_report</text>
</a>
</g>
</g>
<!-- Node4&#45;&gt;Node5 -->
<g id="edge4_Node000004_Node000005" class="edge">
<title>Node4&#45;&gt;Node5</title>
<g id="a_edge4_Node000004_Node000005"><a xlink:title=" ">
<path fill="none" stroke="#63b8ff" d="M314.72,-152.1C327.9,-152.63 342.05,-153.19 355.79,-153.74"/>
<polygon fill="#63b8ff" stroke="#63b8ff" points="355.57,-157.24 365.7,-154.14 355.85,-150.24 355.57,-157.24"/>
</a>
</g>
</g>
<!-- Node6 -->
<g id="Node000006" class="node">
<title>Node6</title>
<g id="a_Node000006"><a xlink:href="kest__fpga__io_8c.html#a6900c9b759f1dccf1b3535cc76ad83e3" target="_top" xlink:title=" ">
<polygon fill="white" stroke="#666666" points="500.25,-122.12 363.5,-122.12 363.5,-101.38 500.25,-101.38 500.25,-122.12"/>
<text xml:space="preserve" text-anchor="middle" x="431.88" y="-108.62" font-family="Helvetica,sans-Serif" font-size="10.00">kest_fpga_batch_append</text>
</a>
</g>
</g>
<!-- Node4&#45;&gt;Node6 -->
<g id="edge6_Node000004_Node000006" class="edge">
<title>Node4&#45;&gt;Node6</title>
<g id="a_edge6_Node000004_Node000006"><a xlink:title=" ">
<path fill="none" stroke="#63b8ff" d="M314.72,-136.99C332.46,-133.13 351.99,-128.89 369.88,-125"/>
<polygon fill="#63b8ff" stroke="#63b8ff" points="370.56,-128.44 379.59,-122.89 369.08,-121.6 370.56,-128.44"/>
</a>
</g>
</g>
<!-- Node10 -->
<g id="Node000010" class="node">
<title>Node10</title>
<g id="a_Node000010"><a xlink:href="kest__fpga__encoding_8c.html#ad4ae765e4a682cbd9a71e3acceabf81d" target="_top" xlink:title=" ">
<polygon fill="white" stroke="#666666" points="500.25,-83.5 363.5,-83.5 363.5,-50 500.25,-50 500.25,-83.5"/>
<text xml:space="preserve" text-anchor="start" x="371.5" y="-70" font-family="Helvetica,sans-Serif" font-size="10.00">kest_fpga_batch_append</text>
<text xml:space="preserve" text-anchor="middle" x="431.88" y="-57.25" font-family="Helvetica,sans-Serif" font-size="10.00">_effects</text>
</a>
</g>
</g>
<!-- Node4&#45;&gt;Node10 -->
<g id="edge10_Node000004_Node000010" class="edge">
<title>Node4&#45;&gt;Node10</title>
<g id="a_edge10_Node000004_Node000010"><a xlink:title=" ">
<path fill="none" stroke="#63b8ff" d="M286.1,-132.55C307.39,-120.69 336.78,-104.93 363.5,-92.75 366.81,-91.24 370.23,-89.74 373.7,-88.27"/>
<polygon fill="#63b8ff" stroke="#63b8ff" points="374.88,-91.57 382.78,-84.51 372.2,-85.1 374.88,-91.57"/>
</a>
</g>
</g>
<!-- Node32 -->
<g id="Node000032" class="node">
<title>Node32</title>
<g id="a_Node000032"><a xlink:href="kest__fpga__io_8c.html#aa1e89a33f9427932bc0d8e62bbfed3cb" target="_top" xlink:title=" ">
<polygon fill="white" stroke="#666666" points="670.38,-33.5 538.88,-33.5 538.88,0 670.38,0 670.38,-33.5"/>
<text xml:space="preserve" text-anchor="start" x="546.88" y="-20" font-family="Helvetica,sans-Serif" font-size="10.00">kest_free_fpga_transfer</text>
<text xml:space="preserve" text-anchor="middle" x="604.62" y="-7.25" font-family="Helvetica,sans-Serif" font-size="10.00">_batch</text>
</a>
</g>
</g>
<!-- Node4&#45;&gt;Node32 -->
<g id="edge12_Node000004_Node000032" class="edge">
<title>Node4&#45;&gt;Node32</title>
<g id="a_edge12_Node000004_Node000032"><a xlink:title=" ">
<path fill="none" stroke="#63b8ff" d="M267.1,-132.51C284.33,-107.4 320.1,-61.5 363.5,-40.75 414.33,-16.45 478.01,-11.06 527.02,-11.41"/>
<polygon fill="#63b8ff" stroke="#63b8ff" points="526.94,-14.91 537,-11.58 527.06,-7.91 526.94,-14.91"/>
</a>
</g>
</g>
<!-- Node33 -->
<g id="Node000033" class="node">
<title>Node33</title>
<g id="a_Node000033"><a xlink:href="kest__fpga__io_8c.html#adb086d525d9f47a4c077d7377110500b" target="_top" xlink:title=" ">
<polygon fill="white" stroke="#666666" points="670.75,-196.5 538.5,-196.5 538.5,-163 670.75,-163 670.75,-196.5"/>
<text xml:space="preserve" text-anchor="start" x="546.5" y="-183" font-family="Helvetica,sans-Serif" font-size="10.00">kest_new_fpga_transfer</text>
<text xml:space="preserve" text-anchor="middle" x="604.62" y="-170.25" font-family="Helvetica,sans-Serif" font-size="10.00">_batch</text>
</a>
</g>
</g>
<!-- Node4&#45;&gt;Node33 -->
<g id="edge14_Node000004_Node000033" class="edge">
<title>Node4&#45;&gt;Node33</title>
<g id="a_edge14_Node000004_Node000033"><a xlink:title=" ">
<path fill="none" stroke="#63b8ff" d="M301.34,-166.95C320.26,-173.26 342.65,-179.62 363.5,-182.75 417.59,-190.86 479.3,-189.88 526.61,-186.98"/>
<polygon fill="#63b8ff" stroke="#63b8ff" points="526.75,-190.48 536.5,-186.33 526.29,-183.49 526.75,-190.48"/>
</a>
</g>
</g>
<!-- Node7 -->
<g id="Node000007" class="node">
<title>Node7</title>
<g id="a_Node000007"><a xlink:href="kest__alloc_8c.html#ac3afebacd5118241e9f677df59a469b0" target="_top" xlink:title=" ">
<polygon fill="white" stroke="#666666" points="641.88,-124.12 567.38,-124.12 567.38,-103.38 641.88,-103.38 641.88,-124.12"/>
<text xml:space="preserve" text-anchor="middle" x="604.62" y="-110.62" font-family="Helvetica,sans-Serif" font-size="10.00">kest_realloc</text>
</a>
</g>
</g>
<!-- Node6&#45;&gt;Node7 -->
<g id="edge7_Node000006_Node000007" class="edge">
<title>Node6&#45;&gt;Node7</title>
<g id="a_edge7_Node000006_Node000007"><a xlink:title=" ">
<path fill="none" stroke="#63b8ff" d="M500.36,-112.54C518.84,-112.76 538.49,-112.99 555.64,-113.19"/>
<polygon fill="#63b8ff" stroke="#63b8ff" points="555.51,-116.69 565.55,-113.3 555.59,-109.69 555.51,-116.69"/>
</a>
</g>
</g>
<!-- Node8 -->
<g id="Node000008" class="node">
<title>Node8</title>
<g id="a_Node000008"><a xlink:href="kest__alloc_8c.html#a849755c5dc5b35e712ffcdb602e50fb4" target="_top" xlink:title=" ">
<polygon fill="white" stroke="#666666" points="773.75,-157.12 709,-157.12 709,-136.38 773.75,-136.38 773.75,-157.12"/>
<text xml:space="preserve" text-anchor="middle" x="741.38" y="-143.62" font-family="Helvetica,sans-Serif" font-size="10.00">kest_alloc</text>
</a>
</g>
</g>
<!-- Node7&#45;&gt;Node8 -->
<g id="edge8_Node000007_Node000008" class="edge">
<title>Node7&#45;&gt;Node8</title>
<g id="a_edge8_Node000007_Node000008"><a xlink:title=" ">
<path fill="none" stroke="#63b8ff" d="M642.09,-122.68C659.31,-126.9 679.96,-131.95 697.88,-136.34"/>
<polygon fill="#63b8ff" stroke="#63b8ff" points="696.9,-139.71 707.45,-138.69 698.57,-132.91 696.9,-139.71"/>
</a>
</g>
</g>
<!-- Node9 -->
<g id="Node000009" class="node">
<title>Node9</title>
<g id="a_Node000009"><a xlink:href="kest__alloc_8c.html#a294af5728a94aa316fcf65304d388d48" target="_top" xlink:title=" ">
<polygon fill="white" stroke="#666666" points="771.88,-89.12 710.88,-89.12 710.88,-68.38 771.88,-68.38 771.88,-89.12"/>
<text xml:space="preserve" text-anchor="middle" x="741.38" y="-75.62" font-family="Helvetica,sans-Serif" font-size="10.00">kest_free</text>
</a>
</g>
</g>
<!-- Node7&#45;&gt;Node9 -->
<g id="edge9_Node000007_Node000009" class="edge">
<title>Node7&#45;&gt;Node9</title>
<g id="a_edge9_Node000007_Node000009"><a xlink:title=" ">
<path fill="none" stroke="#63b8ff" d="M642.09,-104.28C659.91,-99.65 681.4,-94.07 699.74,-89.3"/>
<polygon fill="#63b8ff" stroke="#63b8ff" points="700.43,-92.74 709.23,-86.84 698.67,-85.97 700.43,-92.74"/>
</a>
</g>
</g>
<!-- Node11 -->
<g id="Node000011" class="node">
<title>Node11</title>
<g id="a_Node000011"><a xlink:href="kest__fpga__encoding_8c.html#a1d36760e33c68c0a5b22c8920f3a5a2b" target="_top" xlink:title=" ">
<polygon fill="#fff0f0" stroke="red" points="673,-85.5 536.25,-85.5 536.25,-52 673,-52 673,-85.5"/>
<text xml:space="preserve" text-anchor="start" x="544.25" y="-72" font-family="Helvetica,sans-Serif" font-size="10.00">kest_fpga_batch_append</text>
<text xml:space="preserve" text-anchor="middle" x="604.62" y="-59.25" font-family="Helvetica,sans-Serif" font-size="10.00">_effect</text>
</a>
</g>
</g>
<!-- Node10&#45;&gt;Node11 -->
<g id="edge11_Node000010_Node000011" class="edge">
<title>Node10&#45;&gt;Node11</title>
<g id="a_edge11_Node000010_Node000011"><a xlink:title=" ">
<path fill="none" stroke="#63b8ff" d="M500.36,-67.54C508.28,-67.63 516.41,-67.73 524.48,-67.82"/>
<polygon fill="#63b8ff" stroke="#63b8ff" points="524.24,-71.32 534.28,-67.94 524.32,-64.32 524.24,-71.32"/>
</a>
</g>
</g>
<!-- Node32&#45;&gt;Node9 -->
<g id="edge13_Node000032_Node000009" class="edge">
<title>Node32&#45;&gt;Node9</title>
<g id="a_edge13_Node000032_Node000009"><a xlink:title=" ">
<path fill="none" stroke="#63b8ff" d="M652.33,-33.92C659.31,-36.73 666.39,-39.72 673,-42.75 686.06,-48.73 700.12,-56.09 712.01,-62.6"/>
<polygon fill="#63b8ff" stroke="#63b8ff" points="710.04,-65.51 720.49,-67.3 713.44,-59.39 710.04,-65.51"/>
</a>
</g>
</g>
<!-- Node33&#45;&gt;Node8 -->
<g id="edge15_Node000033_Node000008" class="edge">
<title>Node33&#45;&gt;Node8</title>
<g id="a_edge15_Node000033_Node000008"><a xlink:title=" ">
<path fill="none" stroke="#63b8ff" d="M671.03,-163.73C680.06,-161.52 689.15,-159.3 697.62,-157.22"/>
<polygon fill="#63b8ff" stroke="#63b8ff" points="698.4,-160.63 707.28,-154.85 696.74,-153.83 698.4,-160.63"/>
</a>
</g>
</g>
</g>
</svg>

<g id="navigator" transform="translate(0 0)" fill="#404254">
  <rect fill="#f2f5e9" fill-opacity="0.5" stroke="#606060" stroke-width=".5" x="0" y="0" width="60" height="60"/>
  <use id="zoomplus" xlink:href="#zoomPlus" x="17" y="9" onmousedown="handleZoom(evt,'in')"/>
  <use id="zoomminus" xlink:href="#zoomMin" x="42" y="9" onmousedown="handleZoom(evt,'out')"/>
  <use id="reset" xlink:href="#resetDef" x="30" y="36" onmousedown="handleReset()"/>
   <use id="arrowup" xlink:href="#arrowUp" x="0" y="0" onmousedown="handlePan(0,-1)"/>
  <use id="arrowright" xlink:href="#arrowRight" x="0" y="0" onmousedown="handlePan(1,0)"/>
  <use id="arrowdown" xlink:href="#arrowDown" x="0" y="0" onmousedown="handlePan(0,1)"/>
  <use id="arrowleft" xlink:href="#arrowLeft" x="0" y="0" onmousedown="handlePan(-1,0)"/>
</g>
<svg viewBox="0 0 15 15" width="100%" height="30px" preserveAspectRatio="xMaxYMin meet">
 <g id="arrow_out" transform="scale(0.3 0.3)">
  <a xlink:href="kest__profile_8h_a23cd63c025729fe28dbd76f64ce43f0d_cgraph_org.svg" target="_base">
   <rect id="button" ry="5" rx="5" y="6" x="6" height="38" width="38"
        fill="#f2f5e9" fill-opacity="0.5" stroke="#606060" stroke-width="1.0"/>
   <path id="arrow"
     d="M 11.500037,31.436501 C 11.940474,20.09759 22.043105,11.32322 32.158766,21.979434 L 37.068811,17.246167 C 37.068811,17.246167 37.088388,32 37.088388,32 L 22.160133,31.978069 C 22.160133,31.978069 26.997745,27.140456 26.997745,27.140456 C 18.528582,18.264221 13.291696,25.230495 11.500037,31.436501 z"
     style="fill:#404040;"/>
  </a>
 </g>
</svg>

<style type='text/css'>
<![CDATA[
[data-mouse-over-selected='false'] { opacity: 0.7; }
[data-mouse-over-selected='true']  { opacity: 1.0; }
]]>
</style>
<script type="application/ecmascript"><![CDATA[
document.addEventListener('DOMContentLoaded', (event) => {
  highlightEdges();
  highlightAdjacentNodes();
});
]]></script>
</svg>
