<?xml version="1.0" encoding="UTF-8" standalone="no"?>
<!DOCTYPE svg PUBLIC "-//W3C//DTD SVG 1.1//EN"
 "http://www.w3.org/Graphics/SVG/1.1/DTD/svg11.dtd">
<!-- Generated by graphviz version 13.1.2 (20250808.2320)
 -->
<!-- Title: create_effect_view_for Pages: 1 -->
<!--zoomable 927 -->

<svg id="main" version="1.1" xmlns="http://www.w3.org/2000/svg" xmlns:xlink="http://www.w3.org/1999/xlink" xml:space="preserve" onload="init(evt)">

<style type="text/css"><![CDATA[
.node, .edge {opacity: 0.7;}
.node.selected, .edge.selected {opacity: 1;}
.edge:hover path { stroke: red; }
.edge:hover polygon { stroke: red; fill: red; }
]]></style>

<defs>
  <circle id="rim" cx="0" cy="0" r="7"/>
  <circle id="rim2" cx="0" cy="0" r="3.5"/>
  <g id="zoomPlus">
    <use xlink:href="#rim" fill="#404040"><set attributeName="fill" to="#808080" begin="zoomplus.mouseover" end="zoomplus.mouseout"/></use>
    <path d="M-4,0h8M0,-4v8" fill="none" stroke="white" stroke-width="1.5" pointer-events="none"/>
  </g>
  <g id="zoomMin">
    <use xlink:href="#rim" fill="#404040"><set attributeName="fill" to="#808080" begin="zoomminus.mouseover" end="zoomminus.mouseout"/></use>
    <path d="M-4,0h8" fill="none" stroke="white" stroke-width="1.5" pointer-events="none"/>
  </g>
  <g id="arrowUp" transform="translate(30 24)">
    <use xlink:href="#rim"/>
    <path pointer-events="none" fill="none" stroke="white" stroke-width="1.5" d="M0,-3.0v7 M-2.5,-0.5L0,-3.0L2.5,-0.5"/>
  </g>
  <g id="arrowRight" transform="rotate(90) translate(36 -43)">
    <use xlink:href="#rim"/>
    <path pointer-events="none" fill="none" stroke="white" stroke-width="1.5" d="M0,-3.0v7 M-2.5,-0.5L0,-3.0L2.5,-0.5"/>
  </g>
  <g id="arrowDown" transform="rotate(180) translate(-30 -48)">
    <use xlink:href="#rim"/>
    <path pointer-events="none" fill="none" stroke="white" stroke-width="1.5" d="M0,-3.0v7 M-2.5,-0.5L0,-3.0L2.5,-0.5"/>
  </g>
  <g id="arrowLeft" transform="rotate(270) translate(-36 17)">
    <use xlink:href="#rim"/>
    <path pointer-events="none" fill="none" stroke="white" stroke-width="1.5" d="M0,-3.0v7 M-2.5,-0.5L0,-3.0L2.5,-0.5"/>
  </g>
  <g id="resetDef">
    <use xlink:href="#rim2" fill="#404040"><set attributeName="fill" to="#808080" begin="reset.mouseover" end="reset.mouseout"/></use>
  </g>
</defs>
<script type="application/ecmascript">
var viewWidth = 1102;
var viewHeight = 927;
var sectionId = 'dynsection-3';
</script>
<script type="application/ecmascript" xlink:href="svg.min.js"/>
<svg id="graph" class="graph">
<g id="viewport">
<title>create_effect_view_for</title>
<!-- Node1 -->
<g id="Node000001" class="node">
<title>Node1</title>
<g id="a_Node000001"><a xlink:title=" ">
<polygon fill="#999999" stroke="#666666" points="127.75,-346.75 0,-346.75 0,-326 127.75,-326 127.75,-346.75"/>
<text xml:space="preserve" text-anchor="middle" x="63.88" y="-333.25" font-family="Helvetica,sans-Serif" font-size="10.00">create_effect_view_for</text>
</a>
</g>
</g>
<!-- Node2 -->
<g id="Node000002" class="node">
<title>Node2</title>
<g id="a_Node000002"><a xlink:href="kest__effect__view_8c.html#ae392eef44a5a025bad43a7a8969ab5b0" target="_top" xlink:title=" ">
<polygon fill="white" stroke="#666666" points="429,-601.75 305,-601.75 305,-581 429,-581 429,-601.75"/>
<text xml:space="preserve" text-anchor="middle" x="367" y="-588.25" font-family="Helvetica,sans-Serif" font-size="10.00">configure_effect_view</text>
</a>
</g>
</g>
<!-- Node1&#45;&gt;Node2 -->
<g id="edge1_Node000001_Node000002" class="edge">
<title>Node1&#45;&gt;Node2</title>
<g id="a_edge1_Node000001_Node000002"><a xlink:title=" ">
<path fill="none" stroke="#63b8ff" d="M77.43,-347.01C123.92,-386.38 286.58,-524.12 344.95,-573.55"/>
<polygon fill="#63b8ff" stroke="#63b8ff" points="342.34,-575.93 352.24,-579.72 346.87,-570.59 342.34,-575.93"/>
</a>
</g>
</g>
<!-- Node9 -->
<g id="Node000009" class="node">
<title>Node9</title>
<g id="a_Node000009"><a xlink:href="kest__alloc_8c.html#a849755c5dc5b35e712ffcdb602e50fb4" target="_top" xlink:title=" ">
<polygon fill="white" stroke="#666666" points="1093.75,-582.75 1029,-582.75 1029,-562 1093.75,-562 1093.75,-582.75"/>
<text xml:space="preserve" text-anchor="middle" x="1061.38" y="-569.25" font-family="Helvetica,sans-Serif" font-size="10.00">kest_alloc</text>
</a>
</g>
</g>
<!-- Node1&#45;&gt;Node9 -->
<g id="edge59_Node000001_Node000009" class="edge">
<title>Node1&#45;&gt;Node9</title>
<g id="a_edge59_Node000001_Node000009"><a xlink:title=" ">
<path fill="none" stroke="#63b8ff" d="M65.21,-347.24C68.27,-427.05 98.01,-919.38 366,-919.38 366,-919.38 366,-919.38 756.25,-919.38 873.42,-919.38 921.64,-896.31 993,-803.38 1042.78,-738.54 1055.83,-637.85 1059.21,-594"/>
<polygon fill="#63b8ff" stroke="#63b8ff" points="1062.68,-594.49 1059.85,-584.28 1055.7,-594.03 1062.68,-594.49"/>
</a>
</g>
</g>
<!-- Node30 -->
<g id="Node000030" class="node">
<title>Node30</title>
<g id="a_Node000030"><a xlink:href="kest__effect__view_8c.html#ac64b0341f8283e6aabdd27c42e9a55b0" target="_top" xlink:title=" ">
<polygon fill="white" stroke="#666666" points="261.5,-58.75 163.75,-58.75 163.75,-38 261.5,-38 261.5,-58.75"/>
<text xml:space="preserve" text-anchor="middle" x="212.62" y="-45.25" font-family="Helvetica,sans-Serif" font-size="10.00">free_effect_view</text>
</a>
</g>
</g>
<!-- Node1&#45;&gt;Node30 -->
<g id="edge30_Node000001_Node000030" class="edge">
<title>Node1&#45;&gt;Node30</title>
<g id="a_edge30_Node000001_Node000030"><a xlink:title=" ">
<path fill="none" stroke="#63b8ff" d="M67.63,-325.53C76.94,-290.14 109.75,-175.69 163.75,-95.38 170.87,-84.79 180.65,-74.66 189.53,-66.54"/>
<polygon fill="#63b8ff" stroke="#63b8ff" points="191.61,-69.36 196.82,-60.13 187,-64.1 191.61,-69.36"/>
</a>
</g>
</g>
<!-- Node33 -->
<g id="Node000033" class="node">
<title>Node33</title>
<g id="a_Node000033"><a xlink:href="kest__effect__view_8c.html#a7b9803e86d71b10b167f0babf088fe08" target="_top" xlink:title=" ">
<polygon fill="white" stroke="#666666" points="259.62,-346.75 165.62,-346.75 165.62,-326 259.62,-326 259.62,-346.75"/>
<text xml:space="preserve" text-anchor="middle" x="212.62" y="-333.25" font-family="Helvetica,sans-Serif" font-size="10.00">init_effect_view</text>
</a>
</g>
</g>
<!-- Node1&#45;&gt;Node33 -->
<g id="edge34_Node000001_Node000033" class="edge">
<title>Node1&#45;&gt;Node33</title>
<g id="a_edge34_Node000001_Node000033"><a xlink:title=" ">
<path fill="none" stroke="#63b8ff" d="M127.96,-336.38C136.61,-336.38 145.46,-336.38 154.01,-336.38"/>
<polygon fill="#63b8ff" stroke="#63b8ff" points="153.92,-339.88 163.92,-336.38 153.92,-332.88 153.92,-339.88"/>
</a>
</g>
</g>
<!-- Node105 -->
<g id="Node000105" class="node">
<title>Node105</title>
<g id="a_Node000105"><a xlink:href="kest__ui_8c.html#aa35b25eb0a8f315343a7ea5190b0163b" target="_top" xlink:title=" ">
<polygon fill="white" stroke="#666666" points="594.62,-59.75 519.38,-59.75 519.38,-39 594.62,-39 594.62,-59.75"/>
<text xml:space="preserve" text-anchor="middle" x="557" y="-46.25" font-family="Helvetica,sans-Serif" font-size="10.00">init_ui_page</text>
</a>
</g>
</g>
<!-- Node1&#45;&gt;Node105 -->
<g id="edge58_Node000001_Node000105" class="edge">
<title>Node1&#45;&gt;Node105</title>
<g id="a_edge58_Node000001_Node000105"><a xlink:title=" ">
<path fill="none" stroke="#63b8ff" d="M73.35,-325.68C101.39,-290.99 195.23,-180.59 297.5,-123.38 365.25,-85.47 454.06,-65.59 507.98,-56.3"/>
<polygon fill="#63b8ff" stroke="#63b8ff" points="508.48,-59.77 517.77,-54.68 507.33,-52.86 508.48,-59.77"/>
</a>
</g>
</g>
<!-- Node3 -->
<g id="Node000003" class="node">
<title>Node3</title>
<g id="a_Node000003"><a xlink:href="kest__effect__settings_8c.html#ab738a7e4abecdaf8e9e7788ace97d8b5" target="_top" xlink:title=" ">
<polygon fill="white" stroke="#666666" points="641.5,-620.75 472.5,-620.75 472.5,-600 641.5,-600 641.5,-620.75"/>
<text xml:space="preserve" text-anchor="middle" x="557" y="-607.25" font-family="Helvetica,sans-Serif" font-size="10.00">configure_effect_settings_page</text>
</a>
</g>
</g>
<!-- Node2&#45;&gt;Node3 -->
<g id="edge2_Node000002_Node000003" class="edge">
<title>Node2&#45;&gt;Node3</title>
<g id="a_edge2_Node000002_Node000003"><a xlink:title=" ">
<path fill="none" stroke="#63b8ff" d="M429.3,-597.57C439.48,-598.6 450.24,-599.69 461.02,-600.78"/>
<polygon fill="#63b8ff" stroke="#63b8ff" points="460.43,-604.23 470.73,-601.76 461.14,-597.27 460.43,-604.23"/>
</a>
</g>
</g>
<!-- Node4 -->
<g id="Node000004" class="node">
<title>Node4</title>
<g id="a_Node000004"><a xlink:href="kest__parameter__widget_8c.html#a3af686d17ed62653e1dd680cd85a2d6f" target="_top" xlink:title=" ">
<polygon fill="#fff0f0" stroke="red" points="814.25,-749.12 696.25,-749.12 696.25,-715.62 814.25,-715.62 814.25,-749.12"/>
<text xml:space="preserve" text-anchor="start" x="704.25" y="-735.62" font-family="Helvetica,sans-Serif" font-size="10.00">configure_parameter</text>
<text xml:space="preserve" text-anchor="middle" x="755.25" y="-722.88" font-family="Helvetica,sans-Serif" font-size="10.00">_widget</text>
</a>
</g>
</g>
<!-- Node2&#45;&gt;Node4 -->
<g id="edge13_Node000002_Node000004" class="edge">
<title>Node2&#45;&gt;Node4</title>
<g id="a_edge13_Node000002_Node000004"><a xlink:title=" ">
<path fill="none" stroke="#63b8ff" d="M380.63,-602.17C399.43,-617.71 436.45,-646.27 472.5,-662.38 541.42,-693.17 626.13,-711.89 684.57,-722.12"/>
<polygon fill="#63b8ff" stroke="#63b8ff" points="683.95,-725.57 694.4,-723.8 685.13,-718.67 683.95,-725.57"/>
</a>
</g>
</g>
<!-- Node6 -->
<g id="Node000006" class="node">
<title>Node6</title>
<g id="a_Node000006"><a xlink:href="kest__parameter__widget_8c.html#a176b521d377c720364a74ae1b1a7ea53" target="_top" xlink:title=" ">
<polygon fill="white" stroke="#666666" points="824.75,-697.75 685.75,-697.75 685.75,-677 824.75,-677 824.75,-697.75"/>
<text xml:space="preserve" text-anchor="middle" x="755.25" y="-684.25" font-family="Helvetica,sans-Serif" font-size="10.00">configure_setting_widget</text>
</a>
</g>
</g>
<!-- Node2&#45;&gt;Node6 -->
<g id="edge14_Node000002_Node000006" class="edge">
<title>Node2&#45;&gt;Node6</title>
<g id="a_edge14_Node000002_Node000006"><a xlink:title=" ">
<path fill="none" stroke="#63b8ff" d="M394.28,-602.14C415.21,-610.42 445.38,-621.7 472.5,-629.38 540.64,-648.67 619.73,-664.38 676.74,-674.56"/>
<polygon fill="#63b8ff" stroke="#63b8ff" points="675.89,-677.97 686.35,-676.26 677.11,-671.07 675.89,-677.97"/>
</a>
</g>
</g>
<!-- Node7 -->
<g id="Node000007" class="node">
<title>Node7</title>
<g id="a_Node000007"><a xlink:href="kest__effect_8c.html#a8f53e22436efdc0e494b297ea09db5eb" target="_top" xlink:title=" ">
<polygon fill="white" stroke="#666666" points="806.75,-544.75 703.75,-544.75 703.75,-524 806.75,-524 806.75,-544.75"/>
<text xml:space="preserve" text-anchor="middle" x="755.25" y="-531.25" font-family="Helvetica,sans-Serif" font-size="10.00">kest_effect_name</text>
</a>
</g>
</g>
<!-- Node2&#45;&gt;Node7 -->
<g id="edge18_Node000002_Node000007" class="edge">
<title>Node2&#45;&gt;Node7</title>
<g id="a_edge18_Node000002_Node000007"><a xlink:title=" ">
<path fill="none" stroke="#63b8ff" d="M396.39,-580.53C417.16,-573.07 446.18,-563.58 472.5,-558.38 547.06,-543.61 634.5,-537.93 691.96,-535.74"/>
<polygon fill="#63b8ff" stroke="#63b8ff" points="692.01,-539.24 701.88,-535.39 691.76,-532.25 692.01,-539.24"/>
</a>
</g>
</g>
<!-- Node2&#45;&gt;Node9 -->
<g id="edge17_Node000002_Node000009" class="edge">
<title>Node2&#45;&gt;Node9</title>
<g id="a_edge17_Node000002_Node000009"><a xlink:title=" ">
<path fill="none" stroke="#63b8ff" d="M429.44,-589.69C567.35,-585.9 898.68,-576.81 1017.26,-573.56"/>
<polygon fill="#63b8ff" stroke="#63b8ff" points="1017.3,-577.06 1027.2,-573.29 1017.1,-570.06 1017.3,-577.06"/>
</a>
</g>
</g>
<!-- Node18 -->
<g id="Node000018" class="node">
<title>Node18</title>
<g id="a_Node000018"><a xlink:href="kest__effect__view_8c.html#a3caa3eac8bae1af062f1c8b509d81bd2" target="_top" xlink:title=" ">
<polygon fill="white" stroke="#666666" points="639.25,-881.75 474.75,-881.75 474.75,-861 639.25,-861 639.25,-881.75"/>
<text xml:space="preserve" text-anchor="middle" x="557" y="-868.25" font-family="Helvetica,sans-Serif" font-size="10.00">effect_view_enter_settings_cb</text>
</a>
</g>
</g>
<!-- Node2&#45;&gt;Node18 -->
<g id="edge15_Node000002_Node000018" class="edge">
<title>Node2&#45;&gt;Node18</title>
<g id="a_edge15_Node000002_Node000018"><a xlink:title=" ">
<path fill="none" stroke="#63b8ff" d="M369.62,-602.03C375.85,-639.37 401.49,-765.8 472.5,-836.38 480.95,-844.77 491.71,-851.26 502.68,-856.24"/>
<polygon fill="#63b8ff" stroke="#63b8ff" points="501.21,-859.42 511.79,-859.99 503.87,-852.95 501.21,-859.42"/>
</a>
</g>
</g>
<!-- Node20 -->
<g id="Node000020" class="node">
<title>Node20</title>
<g id="a_Node000020"><a xlink:href="kest__parameter__widget_8c.html#a89863fab24827de020d29878a86c1b60" target="_top" xlink:title=" ">
<polygon fill="white" stroke="#666666" points="627.62,-506.75 486.38,-506.75 486.38,-486 627.62,-486 627.62,-506.75"/>
<text xml:space="preserve" text-anchor="middle" x="557" y="-493.25" font-family="Helvetica,sans-Serif" font-size="10.00">nullify_parameter_widget</text>
</a>
</g>
</g>
<!-- Node2&#45;&gt;Node20 -->
<g id="edge19_Node000002_Node000020" class="edge">
<title>Node2&#45;&gt;Node20</title>
<g id="a_edge19_Node000002_Node000020"><a xlink:title=" ">
<path fill="none" stroke="#63b8ff" d="M380.71,-580.75C399.61,-565.43 436.75,-537.13 472.5,-520.38 480.47,-516.64 489.15,-513.36 497.79,-510.52"/>
<polygon fill="#63b8ff" stroke="#63b8ff" points="498.7,-513.9 507.22,-507.61 496.64,-507.21 498.7,-513.9"/>
</a>
</g>
</g>
<!-- Node25 -->
<g id="Node000025" class="node">
<title>Node25</title>
<g id="a_Node000025"><a xlink:href="kest__parameter__widget_8c.html#a27b31c4d068e26ed6a97e194b3274ca5" target="_top" xlink:title=" ">
<polygon fill="white" stroke="#666666" points="619,-467.75 495,-467.75 495,-447 619,-447 619,-467.75"/>
<text xml:space="preserve" text-anchor="middle" x="557" y="-454.25" font-family="Helvetica,sans-Serif" font-size="10.00">nullify_setting_widget</text>
</a>
</g>
</g>
<!-- Node2&#45;&gt;Node25 -->
<g id="edge21_Node000002_Node000025" class="edge">
<title>Node2&#45;&gt;Node25</title>
<g id="a_edge21_Node000002_Node000025"><a xlink:title=" ">
<path fill="none" stroke="#63b8ff" d="M374.61,-580.62C389.23,-557.79 426.69,-504.34 472.5,-477.38 476.12,-475.25 479.95,-473.34 483.9,-471.64"/>
<polygon fill="#63b8ff" stroke="#63b8ff" points="485.07,-474.95 493.18,-468.13 482.59,-468.4 485.07,-474.95"/>
</a>
</g>
</g>
<!-- Node28 -->
<g id="Node000028" class="node">
<title>Node28</title>
<g id="a_Node000028"><a xlink:href="kest__ui_8c.html#af1279a2281df951462cffadc74e0a5f7" target="_top" xlink:title=" ">
<polygon fill="white" stroke="#666666" points="812.38,-801.12 698.12,-801.12 698.12,-767.62 812.38,-767.62 812.38,-801.12"/>
<text xml:space="preserve" text-anchor="start" x="706.12" y="-787.62" font-family="Helvetica,sans-Serif" font-size="10.00">ui_page_add_parent</text>
<text xml:space="preserve" text-anchor="middle" x="755.25" y="-774.88" font-family="Helvetica,sans-Serif" font-size="10.00">_button</text>
</a>
</g>
</g>
<!-- Node2&#45;&gt;Node28 -->
<g id="edge23_Node000002_Node000028" class="edge">
<title>Node2&#45;&gt;Node28</title>
<g id="a_edge23_Node000002_Node000028"><a xlink:title=" ">
<path fill="none" stroke="#63b8ff" d="M375.27,-602.23C390.6,-624.27 428.45,-674.44 472.5,-701.38 539.12,-742.11 626.85,-763.81 686.6,-774.67"/>
<polygon fill="#63b8ff" stroke="#63b8ff" points="685.85,-778.09 696.3,-776.38 687.06,-771.2 685.85,-778.09"/>
</a>
</g>
</g>
<!-- Node29 -->
<g id="Node000029" class="node">
<title>Node29</title>
<g id="a_Node000029"><a xlink:href="kest__ui_8c.html#ac03024eff746f181b01136d6bfe4c7d5" target="_top" xlink:title=" ">
<polygon fill="white" stroke="#666666" points="824,-853.12 686.5,-853.12 686.5,-819.62 824,-819.62 824,-853.12"/>
<text xml:space="preserve" text-anchor="start" x="694.5" y="-839.62" font-family="Helvetica,sans-Serif" font-size="10.00">ui_page_add_right_panel</text>
<text xml:space="preserve" text-anchor="middle" x="755.25" y="-826.88" font-family="Helvetica,sans-Serif" font-size="10.00">_button</text>
</a>
</g>
</g>
<!-- Node2&#45;&gt;Node29 -->
<g id="edge27_Node000002_Node000029" class="edge">
<title>Node2&#45;&gt;Node29</title>
<g id="a_edge27_Node000002_Node000029"><a xlink:title=" ">
<path fill="none" stroke="#63b8ff" d="M372.09,-601.88C383.51,-629.88 418.51,-706.9 472.5,-747.38 532.1,-792.06 614.74,-814.68 675.11,-825.9"/>
<polygon fill="#63b8ff" stroke="#63b8ff" points="674.16,-829.29 684.62,-827.6 675.39,-822.4 674.16,-829.29"/>
</a>
</g>
</g>
<!-- Node3&#45;&gt;Node4 -->
<g id="edge3_Node000003_Node000004" class="edge">
<title>Node3&#45;&gt;Node4</title>
<g id="a_edge3_Node000003_Node000004"><a xlink:title=" ">
<path fill="none" stroke="#63b8ff" d="M568.58,-621.07C588.35,-640.52 632.94,-681.93 677.5,-706.38 680.18,-707.85 682.96,-709.26 685.81,-710.6"/>
<polygon fill="#63b8ff" stroke="#63b8ff" points="684.36,-713.79 694.92,-714.6 687.17,-707.38 684.36,-713.79"/>
</a>
</g>
</g>
<!-- Node3&#45;&gt;Node6 -->
<g id="edge4_Node000003_Node000006" class="edge">
<title>Node3&#45;&gt;Node6</title>
<g id="a_edge4_Node000003_Node000006"><a xlink:title=" ">
<path fill="none" stroke="#63b8ff" d="M577.38,-621.03C600.62,-633.48 641.01,-654.06 677.5,-667.38 683.55,-669.58 689.95,-671.65 696.37,-673.56"/>
<polygon fill="#63b8ff" stroke="#63b8ff" points="695.11,-676.84 705.68,-676.2 697.02,-670.1 695.11,-676.84"/>
</a>
</g>
</g>
<!-- Node3&#45;&gt;Node7 -->
<g id="edge5_Node000003_Node000007" class="edge">
<title>Node3&#45;&gt;Node7</title>
<g id="a_edge5_Node000003_Node000007"><a xlink:title=" ">
<path fill="none" stroke="#63b8ff" d="M585.7,-599.65C619.65,-586.5 677.36,-564.15 715.64,-549.33"/>
<polygon fill="#63b8ff" stroke="#63b8ff" points="716.9,-552.59 724.96,-545.72 714.37,-546.07 716.9,-552.59"/>
</a>
</g>
</g>
<!-- Node8 -->
<g id="Node000008" class="node">
<title>Node8</title>
<g id="a_Node000008"><a xlink:href="kest__alloc_8c.html#aed9ede1276c1ab3b4042c264ce64a3d2" target="_top" xlink:title=" ">
<polygon fill="white" stroke="#666666" points="970.12,-620.75 891.88,-620.75 891.88,-600 970.12,-600 970.12,-620.75"/>
<text xml:space="preserve" text-anchor="middle" x="931" y="-607.25" font-family="Helvetica,sans-Serif" font-size="10.00">kest_strndup</text>
</a>
</g>
</g>
<!-- Node3&#45;&gt;Node8 -->
<g id="edge6_Node000003_Node000008" class="edge">
<title>Node3&#45;&gt;Node8</title>
<g id="a_edge6_Node000003_Node000008"><a xlink:title=" ">
<path fill="none" stroke="#63b8ff" d="M641.95,-610.38C715.43,-610.38 819.69,-610.38 880.54,-610.38"/>
<polygon fill="#63b8ff" stroke="#63b8ff" points="880.23,-613.88 890.23,-610.38 880.23,-606.88 880.23,-613.88"/>
</a>
</g>
</g>
<!-- Node10 -->
<g id="Node000010" class="node">
<title>Node10</title>
<g id="a_Node000010"><a xlink:href="kest__ui_8c.html#a349acdb394f97d782e6b5828af856b05" target="_top" xlink:title=" ">
<polygon fill="white" stroke="#666666" points="826.62,-658.75 683.88,-658.75 683.88,-638 826.62,-638 826.62,-658.75"/>
<text xml:space="preserve" text-anchor="middle" x="755.25" y="-645.25" font-family="Helvetica,sans-Serif" font-size="10.00">ui_page_add_back_button</text>
</a>
</g>
</g>
<!-- Node3&#45;&gt;Node10 -->
<g id="edge8_Node000003_Node000010" class="edge">
<title>Node3&#45;&gt;Node10</title>
<g id="a_edge8_Node000003_Node000010"><a xlink:title=" ">
<path fill="none" stroke="#63b8ff" d="M613.97,-621.21C636.76,-625.63 663.3,-630.76 687.11,-635.38"/>
<polygon fill="#63b8ff" stroke="#63b8ff" points="686.23,-638.77 696.71,-637.23 687.56,-631.9 686.23,-638.77"/>
</a>
</g>
</g>
<!-- Node8&#45;&gt;Node9 -->
<g id="edge7_Node000008_Node000009" class="edge">
<title>Node8&#45;&gt;Node9</title>
<g id="a_edge7_Node000008_Node000009"><a xlink:title=" ">
<path fill="none" stroke="#63b8ff" d="M968.44,-599.59C983.86,-595.02 1001.93,-589.68 1017.94,-584.94"/>
<polygon fill="#63b8ff" stroke="#63b8ff" points="1018.6,-588.39 1027.19,-582.2 1016.61,-581.68 1018.6,-588.39"/>
</a>
</g>
</g>
<!-- Node11 -->
<g id="Node000011" class="node">
<title>Node11</title>
<g id="a_Node000011"><a xlink:href="kest__button_8c.html#aa59f296fa9f9744c9753f81484085a15" target="_top" xlink:title=" ">
<polygon fill="white" stroke="#666666" points="992.62,-794.75 869.38,-794.75 869.38,-774 992.62,-774 992.62,-794.75"/>
<text xml:space="preserve" text-anchor="middle" x="931" y="-781.25" font-family="Helvetica,sans-Serif" font-size="10.00">button_set_clicked_cb</text>
</a>
</g>
</g>
<!-- Node10&#45;&gt;Node11 -->
<g id="edge9_Node000010_Node000011" class="edge">
<title>Node10&#45;&gt;Node11</title>
<g id="a_edge9_Node000010_Node000011"><a xlink:title=" ">
<path fill="none" stroke="#63b8ff" d="M818.63,-659.25C823.82,-661.71 828.7,-664.71 833,-668.38 863.29,-694.2 842.22,-720.93 869,-750.38 875.44,-757.45 883.7,-763.4 892.06,-768.24"/>
<polygon fill="#63b8ff" stroke="#63b8ff" points="890.36,-771.3 900.84,-772.88 893.63,-765.11 890.36,-771.3"/>
</a>
</g>
</g>
<!-- Node12 -->
<g id="Node000012" class="node">
<title>Node12</title>
<g id="a_Node000012"><a xlink:href="kest__ui_8c.html#af17d8912a520f607796e85d96467cc5a" target="_top" xlink:title=" ">
<polygon fill="#fff0f0" stroke="red" points="993,-674.75 869,-674.75 869,-654 993,-654 993,-674.75"/>
<text xml:space="preserve" text-anchor="middle" x="931" y="-661.25" font-family="Helvetica,sans-Serif" font-size="10.00">enter_parent_page_cb</text>
</a>
</g>
</g>
<!-- Node10&#45;&gt;Node12 -->
<g id="edge10_Node000010_Node000012" class="edge">
<title>Node10&#45;&gt;Node12</title>
<g id="a_edge10_Node000010_Node000012"><a xlink:title=" ">
<path fill="none" stroke="#63b8ff" d="M826.92,-654.88C836.96,-655.81 847.29,-656.76 857.36,-657.69"/>
<polygon fill="#63b8ff" stroke="#63b8ff" points="856.8,-661.15 867.08,-658.58 857.45,-654.18 856.8,-661.15"/>
</a>
</g>
</g>
<!-- Node16 -->
<g id="Node000016" class="node">
<title>Node16</title>
<g id="a_Node000016"><a xlink:href="kest__button_8c.html#afd8846ca469218a65279da29ad72e29b" target="_top" xlink:title=" ">
<polygon fill="#fff0f0" stroke="red" points="967.5,-741.75 894.5,-741.75 894.5,-721 967.5,-721 967.5,-741.75"/>
<text xml:space="preserve" text-anchor="middle" x="931" y="-728.25" font-family="Helvetica,sans-Serif" font-size="10.00">new_button</text>
</a>
</g>
</g>
<!-- Node10&#45;&gt;Node16 -->
<g id="edge11_Node000010_Node000016" class="edge">
<title>Node10&#45;&gt;Node16</title>
<g id="a_edge11_Node000010_Node000016"><a xlink:title=" ">
<path fill="none" stroke="#63b8ff" d="M807.4,-659.25C816.11,-661.79 824.94,-664.82 833,-668.38 860.38,-680.45 888.75,-699.82 907.68,-713.89"/>
<polygon fill="#63b8ff" stroke="#63b8ff" points="905.38,-716.54 915.46,-719.79 909.61,-710.96 905.38,-716.54"/>
</a>
</g>
</g>
<!-- Node16&#45;&gt;Node9 -->
<g id="edge12_Node000016_Node000009" class="edge">
<title>Node16&#45;&gt;Node9</title>
<g id="a_edge12_Node000016_Node000009"><a xlink:title=" ">
<path fill="none" stroke="#63b8ff" d="M948.88,-720.56C961.95,-711.64 979.96,-698.1 993,-683.38 1017.92,-655.24 1038.96,-616.67 1050.6,-593.19"/>
<polygon fill="#63b8ff" stroke="#63b8ff" points="1053.67,-594.88 1054.88,-584.35 1047.37,-591.83 1053.67,-594.88"/>
</a>
</g>
</g>
<!-- Node19 -->
<g id="Node000019" class="node">
<title>Node19</title>
<g id="a_Node000019"><a xlink:href="kest__ui_8c.html#a2063cd4687cffa16c46c43deaa27642f" target="_top" xlink:title=" ">
<polygon fill="#fff0f0" stroke="red" points="821.75,-891.75 688.75,-891.75 688.75,-871 821.75,-871 821.75,-891.75"/>
<text xml:space="preserve" text-anchor="middle" x="755.25" y="-878.25" font-family="Helvetica,sans-Serif" font-size="10.00">enter_ui_page_forwards</text>
</a>
</g>
</g>
<!-- Node18&#45;&gt;Node19 -->
<g id="edge16_Node000018_Node000019" class="edge">
<title>Node18&#45;&gt;Node19</title>
<g id="a_edge16_Node000018_Node000019"><a xlink:title=" ">
<path fill="none" stroke="#63b8ff" d="M639.52,-875.53C652.02,-876.17 664.89,-876.82 677.28,-877.45"/>
<polygon fill="#63b8ff" stroke="#63b8ff" points="676.83,-880.93 687,-877.95 677.19,-873.94 676.83,-880.93"/>
</a>
</g>
</g>
<!-- Node21 -->
<g id="Node000021" class="node">
<title>Node21</title>
<g id="a_Node000021"><a xlink:href="kest__parameter__widget_8c.html#a1590cd4e080ed869e0372fef1a233085" target="_top" xlink:title=" ">
<polygon fill="#fff0f0" stroke="red" points="828.12,-505.75 682.38,-505.75 682.38,-485 828.12,-485 828.12,-505.75"/>
<text xml:space="preserve" text-anchor="middle" x="755.25" y="-492.25" font-family="Helvetica,sans-Serif" font-size="10.00">param_widget_rep_update</text>
</a>
</g>
</g>
<!-- Node20&#45;&gt;Node21 -->
<g id="edge20_Node000020_Node000021" class="edge">
<title>Node20&#45;&gt;Node21</title>
<g id="a_edge20_Node000020_Node000021"><a xlink:title=" ">
<path fill="none" stroke="#63b8ff" d="M628.02,-496.02C641.83,-495.95 656.45,-495.87 670.66,-495.8"/>
<polygon fill="#63b8ff" stroke="#63b8ff" points="670.44,-499.3 680.43,-495.75 670.41,-492.3 670.44,-499.3"/>
</a>
</g>
</g>
<!-- Node26 -->
<g id="Node000026" class="node">
<title>Node26</title>
<g id="a_Node000026"><a xlink:href="kest__parameter__widget_8c.html#a13ad52ebda248fd084b9f5bd4c571d42" target="_top" xlink:title=" ">
<polygon fill="#fff0f0" stroke="red" points="809.75,-467.12 700.75,-467.12 700.75,-433.62 809.75,-433.62 809.75,-467.12"/>
<text xml:space="preserve" text-anchor="start" x="708.75" y="-453.62" font-family="Helvetica,sans-Serif" font-size="10.00">setting_widget_rep</text>
<text xml:space="preserve" text-anchor="middle" x="755.25" y="-440.88" font-family="Helvetica,sans-Serif" font-size="10.00">_update</text>
</a>
</g>
</g>
<!-- Node25&#45;&gt;Node26 -->
<g id="edge22_Node000025_Node000026" class="edge">
<title>Node25&#45;&gt;Node26</title>
<g id="a_edge22_Node000025_Node000026"><a xlink:title=" ">
<path fill="none" stroke="#63b8ff" d="M619.29,-455.19C641.41,-454.4 666.46,-453.51 688.91,-452.71"/>
<polygon fill="#63b8ff" stroke="#63b8ff" points="689.01,-456.2 698.88,-452.35 688.76,-449.21 689.01,-456.2"/>
</a>
</g>
</g>
<!-- Node28&#45;&gt;Node11 -->
<g id="edge24_Node000028_Node000011" class="edge">
<title>Node28&#45;&gt;Node11</title>
<g id="a_edge24_Node000028_Node000011"><a xlink:title=" ">
<path fill="none" stroke="#63b8ff" d="M812.66,-784.38C827.03,-784.38 842.68,-784.38 857.72,-784.38"/>
<polygon fill="#63b8ff" stroke="#63b8ff" points="857.56,-787.88 867.56,-784.38 857.56,-780.88 857.56,-787.88"/>
</a>
</g>
</g>
<!-- Node28&#45;&gt;Node12 -->
<g id="edge25_Node000028_Node000012" class="edge">
<title>Node28&#45;&gt;Node12</title>
<g id="a_edge25_Node000028_Node000012"><a xlink:title=" ">
<path fill="none" stroke="#63b8ff" d="M812.62,-769.56C819.8,-766.47 826.8,-762.77 833,-758.38 854.18,-743.36 850.67,-730.76 869,-712.38 880.08,-701.27 893.69,-690.34 905.25,-681.72"/>
<polygon fill="#63b8ff" stroke="#63b8ff" points="907.13,-684.68 913.15,-675.96 903,-679.02 907.13,-684.68"/>
</a>
</g>
</g>
<!-- Node28&#45;&gt;Node16 -->
<g id="edge26_Node000028_Node000016" class="edge">
<title>Node28&#45;&gt;Node16</title>
<g id="a_edge26_Node000028_Node000016"><a xlink:title=" ">
<path fill="none" stroke="#63b8ff" d="M812.66,-767.17C835.61,-760.17 861.81,-752.17 883.62,-745.52"/>
<polygon fill="#63b8ff" stroke="#63b8ff" points="884.6,-748.88 893.14,-742.62 882.56,-742.19 884.6,-748.88"/>
</a>
</g>
</g>
<!-- Node29&#45;&gt;Node11 -->
<g id="edge28_Node000029_Node000011" class="edge">
<title>Node29&#45;&gt;Node11</title>
<g id="a_edge28_Node000029_Node000011"><a xlink:title=" ">
<path fill="none" stroke="#63b8ff" d="M813.62,-819.2C836.1,-812.48 861.56,-804.86 882.93,-798.46"/>
<polygon fill="#63b8ff" stroke="#63b8ff" points="883.66,-801.9 892.24,-795.68 881.66,-795.19 883.66,-801.9"/>
</a>
</g>
</g>
<!-- Node29&#45;&gt;Node16 -->
<g id="edge29_Node000029_Node000016" class="edge">
<title>Node29&#45;&gt;Node16</title>
<g id="a_edge29_Node000029_Node000016"><a xlink:title=" ">
<path fill="none" stroke="#63b8ff" d="M817.73,-819.17C823.1,-816.6 828.28,-813.69 833,-810.38 853.97,-795.67 849.45,-781.92 869,-765.38 877,-758.6 886.56,-752.53 895.7,-747.45"/>
<polygon fill="#63b8ff" stroke="#63b8ff" points="897.2,-750.62 904.41,-742.86 893.93,-744.43 897.2,-750.62"/>
</a>
</g>
</g>
<!-- Node31 -->
<g id="Node000031" class="node">
<title>Node31</title>
<g id="a_Node000031"><a xlink:href="kest__parameter__widget_8c.html#ac18cc7427373a289f2677b33112e4851" target="_top" xlink:title=" ">
<polygon fill="white" stroke="#666666" points="432,-20.75 302,-20.75 302,0 432,0 432,-20.75"/>
<text xml:space="preserve" text-anchor="middle" x="367" y="-7.25" font-family="Helvetica,sans-Serif" font-size="10.00">free_parameter_widget</text>
</a>
</g>
</g>
<!-- Node30&#45;&gt;Node31 -->
<g id="edge31_Node000030_Node000031" class="edge">
<title>Node30&#45;&gt;Node31</title>
<g id="a_edge31_Node000030_Node000031"><a xlink:title=" ">
<path fill="none" stroke="#63b8ff" d="M256.88,-37.59C273.93,-33.34 293.71,-28.4 311.7,-23.92"/>
<polygon fill="#63b8ff" stroke="#63b8ff" points="312.31,-27.37 321.17,-21.56 310.62,-20.58 312.31,-27.37"/>
</a>
</g>
</g>
<!-- Node32 -->
<g id="Node000032" class="node">
<title>Node32</title>
<g id="a_Node000032"><a xlink:href="kest__alloc_8c.html#a294af5728a94aa316fcf65304d388d48" target="_top" xlink:title=" ">
<polygon fill="white" stroke="#666666" points="587.5,-20.75 526.5,-20.75 526.5,0 587.5,0 587.5,-20.75"/>
<text xml:space="preserve" text-anchor="middle" x="557" y="-7.25" font-family="Helvetica,sans-Serif" font-size="10.00">kest_free</text>
</a>
</g>
</g>
<!-- Node30&#45;&gt;Node32 -->
<g id="edge33_Node000030_Node000032" class="edge">
<title>Node30&#45;&gt;Node32</title>
<g id="a_edge33_Node000030_Node000032"><a xlink:title=" ">
<path fill="none" stroke="#63b8ff" d="M261.99,-45.27C307.2,-42.13 376.56,-36.69 436.5,-29.38 462.72,-26.18 492.02,-21.54 515.04,-17.64"/>
<polygon fill="#63b8ff" stroke="#63b8ff" points="515.37,-21.14 524.64,-16 514.19,-14.24 515.37,-21.14"/>
</a>
</g>
</g>
<!-- Node31&#45;&gt;Node32 -->
<g id="edge32_Node000031_Node000032" class="edge">
<title>Node31&#45;&gt;Node32</title>
<g id="a_edge32_Node000031_Node000032"><a xlink:title=" ">
<path fill="none" stroke="#63b8ff" d="M432.44,-10.38C459.75,-10.38 490.77,-10.38 514.9,-10.38"/>
<polygon fill="#63b8ff" stroke="#63b8ff" points="514.63,-13.88 524.63,-10.38 514.63,-6.88 514.63,-13.88"/>
</a>
</g>
</g>
<!-- Node33&#45;&gt;Node2 -->
<g id="edge35_Node000033_Node000002" class="edge">
<title>Node33&#45;&gt;Node2</title>
<g id="a_edge35_Node000033_Node000002"><a xlink:title=" ">
<path fill="none" stroke="#63b8ff" d="M219.98,-347.01C243.12,-385.73 323.12,-519.62 353.85,-571.04"/>
<polygon fill="#63b8ff" stroke="#63b8ff" points="350.71,-572.61 358.84,-579.4 356.72,-569.02 350.71,-572.61"/>
</a>
</g>
</g>
<!-- Node33&#45;&gt;Node9 -->
<g id="edge56_Node000033_Node000009" class="edge">
<title>Node33&#45;&gt;Node9</title>
<g id="a_edge56_Node000033_Node000009"><a xlink:title=" ">
<path fill="none" stroke="#63b8ff" d="M239.74,-325.52C296.32,-303.03 434.9,-253.38 556,-253.38 556,-253.38 556,-253.38 756.25,-253.38 871.72,-253.38 916.25,-274.1 993,-360.38 1042.55,-416.07 1055.68,-508.31 1059.14,-550.32"/>
<polygon fill="#63b8ff" stroke="#63b8ff" points="1055.64,-550.4 1059.83,-560.13 1062.62,-549.91 1055.64,-550.4"/>
</a>
</g>
</g>
<!-- Node34 -->
<g id="Node000034" class="node">
<title>Node34</title>
<g id="a_Node000034"><a xlink:href="kest__effect__view_8c.html#a7d15ffb969bcf677cf4a1622e2666f8e" target="_top" xlink:title=" ">
<polygon fill="white" stroke="#666666" points="428.62,-195.75 305.38,-195.75 305.38,-175 428.62,-175 428.62,-195.75"/>
<text xml:space="preserve" text-anchor="middle" x="367" y="-182.25" font-family="Helvetica,sans-Serif" font-size="10.00">create_effect_view_ui</text>
</a>
</g>
</g>
<!-- Node33&#45;&gt;Node34 -->
<g id="edge36_Node000033_Node000034" class="edge">
<title>Node33&#45;&gt;Node34</title>
<g id="a_edge36_Node000033_Node000034"><a xlink:title=" ">
<path fill="none" stroke="#63b8ff" d="M221.83,-325.6C236.19,-307.05 267.24,-268.29 297.5,-239.38 311.24,-226.24 327.98,-213 341.47,-202.92"/>
<polygon fill="#63b8ff" stroke="#63b8ff" points="343.43,-205.83 349.41,-197.08 339.28,-200.19 343.43,-205.83"/>
</a>
</g>
</g>
<!-- Node102 -->
<g id="Node000102" class="node">
<title>Node102</title>
<g id="a_Node000102"><a xlink:href="kest__effect__view_8c.html#ad30abeafbc06c0a22d991e7a76c63547" target="_top" xlink:title=" ">
<polygon fill="white" stroke="#666666" points="418.88,-346.75 315.12,-346.75 315.12,-326 418.88,-326 418.88,-346.75"/>
<text xml:space="preserve" text-anchor="middle" x="367" y="-333.25" font-family="Helvetica,sans-Serif" font-size="10.00">enter_effect_view</text>
</a>
</g>
</g>
<!-- Node33&#45;&gt;Node102 -->
<g id="edge44_Node000033_Node000102" class="edge">
<title>Node33&#45;&gt;Node102</title>
<g id="a_edge44_Node000033_Node000102"><a xlink:title=" ">
<path fill="none" stroke="#63b8ff" d="M259.76,-336.38C273.44,-336.38 288.67,-336.38 303.22,-336.38"/>
<polygon fill="#63b8ff" stroke="#63b8ff" points="303.19,-339.88 313.19,-336.38 303.19,-332.88 303.19,-339.88"/>
</a>
</g>
</g>
<!-- Node104 -->
<g id="Node000104" class="node">
<title>Node104</title>
<g id="a_Node000104"><a xlink:href="kest__effect__settings_8c.html#ab8bf2accabc08beecb97a54915abc488" target="_top" xlink:title=" ">
<polygon fill="white" stroke="#666666" points="436.5,-427.75 297.5,-427.75 297.5,-407 436.5,-407 436.5,-427.75"/>
<text xml:space="preserve" text-anchor="middle" x="367" y="-414.25" font-family="Helvetica,sans-Serif" font-size="10.00">init_effect_settings_page</text>
</a>
</g>
</g>
<!-- Node33&#45;&gt;Node104 -->
<g id="edge46_Node000033_Node000104" class="edge">
<title>Node33&#45;&gt;Node104</title>
<g id="a_edge46_Node000033_Node000104"><a xlink:title=" ">
<path fill="none" stroke="#63b8ff" d="M228.25,-347.05C244.58,-358.67 272.07,-377.34 297.5,-390.38 305.91,-394.69 315.18,-398.76 324.1,-402.37"/>
<polygon fill="#63b8ff" stroke="#63b8ff" points="322.74,-405.6 333.33,-405.99 325.3,-399.08 322.74,-405.6"/>
</a>
</g>
</g>
<!-- Node33&#45;&gt;Node105 -->
<g id="edge55_Node000033_Node000105" class="edge">
<title>Node33&#45;&gt;Node105</title>
<g id="a_edge55_Node000033_Node000105"><a xlink:title=" ">
<path fill="none" stroke="#63b8ff" d="M215.78,-325.8C222.38,-296.07 245.17,-211.01 297.5,-166.38 346.7,-124.41 377.65,-150.17 436.5,-123.38 471.67,-107.36 509.06,-82.84 532.46,-66.47"/>
<polygon fill="#63b8ff" stroke="#63b8ff" points="534.22,-69.51 540.36,-60.87 530.17,-63.8 534.22,-69.51"/>
</a>
</g>
</g>
<!-- Node106 -->
<g id="Node000106" class="node">
<title>Node106</title>
<g id="a_Node000106"><a xlink:href="kest__ui_8c.html#a01360963fabe989a816b58c78cbc041b" target="_top" xlink:title=" ">
<polygon fill="#fff0f0" stroke="red" points="591.25,-391.75 522.75,-391.75 522.75,-371 591.25,-371 591.25,-391.75"/>
<text xml:space="preserve" text-anchor="middle" x="557" y="-378.25" font-family="Helvetica,sans-Serif" font-size="10.00">new_panel</text>
</a>
</g>
</g>
<!-- Node33&#45;&gt;Node106 -->
<g id="edge57_Node000033_Node000106" class="edge">
<title>Node33&#45;&gt;Node106</title>
<g id="a_edge57_Node000033_Node000106"><a xlink:title=" ">
<path fill="none" stroke="#63b8ff" d="M256.53,-347.16C269.62,-350.16 284.09,-353.19 297.5,-355.38 371.84,-367.49 459.19,-374.86 510.94,-378.52"/>
<polygon fill="#63b8ff" stroke="#63b8ff" points="510.64,-382.01 520.86,-379.21 511.12,-375.03 510.64,-382.01"/>
</a>
</g>
</g>
<!-- Node34&#45;&gt;Node7 -->
<g id="edge40_Node000034_Node000007" class="edge">
<title>Node34&#45;&gt;Node7</title>
<g id="a_edge40_Node000034_Node000007"><a xlink:title=" ">
<path fill="none" stroke="#63b8ff" d="M390.78,-196.19C411.92,-206.18 444.28,-221.41 472.5,-234.38 547.34,-268.75 590.91,-245.39 641.5,-310.38 698.05,-383.03 615.06,-446.71 677.5,-514.38 681.93,-519.17 687.35,-522.88 693.24,-525.73"/>
<polygon fill="#63b8ff" stroke="#63b8ff" points="691.51,-528.82 702.1,-529.22 694.08,-522.3 691.51,-528.82"/>
</a>
</g>
</g>
<!-- Node35 -->
<g id="Node000035" class="node">
<title>Node35</title>
<g id="a_Node000035"><a xlink:href="kest__effect__settings_8c.html#ad39e071d5cf7cd7e4fc67d41f14d48e8" target="_top" xlink:title=" ">
<polygon fill="#fff0f0" stroke="red" points="619.38,-225.12 494.62,-225.12 494.62,-191.62 619.38,-191.62 619.38,-225.12"/>
<text xml:space="preserve" text-anchor="start" x="502.62" y="-211.62" font-family="Helvetica,sans-Serif" font-size="10.00">create_effect_settings</text>
<text xml:space="preserve" text-anchor="middle" x="557" y="-198.88" font-family="Helvetica,sans-Serif" font-size="10.00">_page_ui</text>
</a>
</g>
</g>
<!-- Node34&#45;&gt;Node35 -->
<g id="edge37_Node000034_Node000035" class="edge">
<title>Node34&#45;&gt;Node35</title>
<g id="a_edge37_Node000034_Node000035"><a xlink:title=" ">
<path fill="none" stroke="#63b8ff" d="M429.04,-192.84C446.27,-194.95 465.19,-197.27 483.05,-199.45"/>
<polygon fill="#63b8ff" stroke="#63b8ff" points="482.45,-202.9 492.8,-200.64 483.3,-195.95 482.45,-202.9"/>
</a>
</g>
</g>
<!-- Node38 -->
<g id="Node000038" class="node">
<title>Node38</title>
<g id="a_Node000038"><a xlink:href="kest__parameter__widget_8c.html#adbadb9573fa4f9b812f8d270c78053e4" target="_top" xlink:title=" ">
<polygon fill="#fff0f0" stroke="red" points="833,-138.75 677.5,-138.75 677.5,-118 833,-118 833,-138.75"/>
<text xml:space="preserve" text-anchor="middle" x="755.25" y="-125.25" font-family="Helvetica,sans-Serif" font-size="10.00">parameter_widget_create_ui</text>
</a>
</g>
</g>
<!-- Node34&#45;&gt;Node38 -->
<g id="edge41_Node000034_Node000038" class="edge">
<title>Node34&#45;&gt;Node38</title>
<g id="a_edge41_Node000034_Node000038"><a xlink:title=" ">
<path fill="none" stroke="#63b8ff" d="M407.22,-174.57C417.12,-171.07 427.49,-166.68 436.5,-161.38 454.95,-150.52 452.5,-137.02 472.5,-129.38 542.64,-102.56 629.98,-107.55 688.66,-115.84"/>
<polygon fill="#63b8ff" stroke="#63b8ff" points="688.1,-119.29 698.51,-117.31 689.14,-112.37 688.1,-119.29"/>
</a>
</g>
</g>
<!-- Node46 -->
<g id="Node000046" class="node">
<title>Node46</title>
<g id="a_Node000046"><a xlink:href="kest__ui_8c.html#a58a68a436917a32cc3daab2e0d4b3245" target="_top" xlink:title=" ">
<polygon fill="#fff0f0" stroke="red" points="821.75,-197.75 688.75,-197.75 688.75,-177 821.75,-177 821.75,-197.75"/>
<text xml:space="preserve" text-anchor="middle" x="755.25" y="-184.25" font-family="Helvetica,sans-Serif" font-size="10.00">ui_page_create_base_ui</text>
</a>
</g>
</g>
<!-- Node34&#45;&gt;Node46 -->
<g id="edge43_Node000034_Node000046" class="edge">
<title>Node34&#45;&gt;Node46</title>
<g id="a_edge43_Node000034_Node000046"><a xlink:title=" ">
<path fill="none" stroke="#63b8ff" d="M401.01,-174.59C412.36,-170.67 425.07,-166.06 436.5,-161.38 452.87,-154.66 455.23,-148.25 472.5,-144.38 545.79,-127.94 567.63,-130.77 641.5,-144.38 669.88,-149.6 700.36,-161.65 722.46,-171.67"/>
<polygon fill="#63b8ff" stroke="#63b8ff" points="720.98,-174.84 731.53,-175.89 723.94,-168.5 720.98,-174.84"/>
</a>
</g>
</g>
<!-- Node58 -->
<g id="Node000058" class="node">
<title>Node58</title>
<g id="a_Node000058"><a xlink:href="kest__parameter__widget_8c.html#a2074107eca4e8e2b3832c9f9f2e5f9f2" target="_top" xlink:title=" ">
<polygon fill="#fff0f0" stroke="red" points="626.12,-173.75 487.88,-173.75 487.88,-153 626.12,-153 626.12,-173.75"/>
<text xml:space="preserve" text-anchor="middle" x="557" y="-160.25" font-family="Helvetica,sans-Serif" font-size="10.00">setting_widget_create_ui</text>
</a>
</g>
</g>
<!-- Node34&#45;&gt;Node58 -->
<g id="edge42_Node000034_Node000058" class="edge">
<title>Node34&#45;&gt;Node58</title>
<g id="a_edge42_Node000034_Node000058"><a xlink:title=" ">
<path fill="none" stroke="#63b8ff" d="M429.04,-178.23C444.05,-176.48 460.35,-174.57 476.1,-172.72"/>
<polygon fill="#63b8ff" stroke="#63b8ff" points="476.42,-176.21 485.95,-171.57 475.61,-169.26 476.42,-176.21"/>
</a>
</g>
</g>
<!-- Node35&#45;&gt;Node38 -->
<g id="edge38_Node000035_Node000038" class="edge">
<title>Node35&#45;&gt;Node38</title>
<g id="a_edge38_Node000035_Node000038"><a xlink:title=" ">
<path fill="none" stroke="#63b8ff" d="M616.77,-191.25C625.14,-188.48 633.59,-185.48 641.5,-182.38 669.97,-171.19 701.27,-155.96 723.65,-144.52"/>
<polygon fill="#63b8ff" stroke="#63b8ff" points="725.24,-147.63 732.52,-139.94 722.03,-141.41 725.24,-147.63"/>
</a>
</g>
</g>
<!-- Node35&#45;&gt;Node46 -->
<g id="edge39_Node000035_Node000046" class="edge">
<title>Node35&#45;&gt;Node46</title>
<g id="a_edge39_Node000035_Node000046"><a xlink:title=" ">
<path fill="none" stroke="#63b8ff" d="M619.83,-201.76C637.96,-199.82 658.02,-197.67 676.99,-195.64"/>
<polygon fill="#63b8ff" stroke="#63b8ff" points="677.25,-199.13 686.82,-194.59 676.5,-192.17 677.25,-199.13"/>
</a>
</g>
</g>
<!-- Node103 -->
<g id="Node000103" class="node">
<title>Node103</title>
<g id="a_Node000103"><a xlink:href="kest__effect__view_8h.html#a04519f72c93e8a3acaeb71193e121047" target="_top" xlink:title=" ">
<polygon fill="white" stroke="#666666" points="614.5,-353.12 499.5,-353.12 499.5,-319.62 614.5,-319.62 614.5,-353.12"/>
<text xml:space="preserve" text-anchor="start" x="507.5" y="-339.62" font-family="Helvetica,sans-Serif" font-size="10.00">effect_view_request</text>
<text xml:space="preserve" text-anchor="middle" x="557" y="-326.88" font-family="Helvetica,sans-Serif" font-size="10.00">_parameter_values</text>
</a>
</g>
</g>
<!-- Node102&#45;&gt;Node103 -->
<g id="edge45_Node000102_Node000103" class="edge">
<title>Node102&#45;&gt;Node103</title>
<g id="a_edge45_Node000102_Node000103"><a xlink:title=" ">
<path fill="none" stroke="#63b8ff" d="M419.37,-336.38C440.48,-336.38 465.24,-336.38 487.83,-336.38"/>
<polygon fill="#63b8ff" stroke="#63b8ff" points="487.55,-339.88 497.55,-336.38 487.55,-332.88 487.55,-339.88"/>
</a>
</g>
</g>
<!-- Node104&#45;&gt;Node3 -->
<g id="edge47_Node000104_Node000003" class="edge">
<title>Node104&#45;&gt;Node3</title>
<g id="a_edge47_Node000104_Node000003"><a xlink:title=" ">
<path fill="none" stroke="#63b8ff" d="M378.38,-428.03C408.86,-459.32 498.47,-551.31 537.49,-591.37"/>
<polygon fill="#63b8ff" stroke="#63b8ff" points="534.88,-593.71 544.37,-598.43 539.9,-588.83 534.88,-593.71"/>
</a>
</g>
</g>
<!-- Node104&#45;&gt;Node9 -->
<g id="edge50_Node000104_Node000009" class="edge">
<title>Node104&#45;&gt;Node9</title>
<g id="a_edge50_Node000104_Node000009"><a xlink:title=" ">
<path fill="none" stroke="#63b8ff" d="M436.73,-413.77C547.68,-408.72 761.08,-402.44 833,-424.38 919.39,-450.72 1003.93,-520.63 1040.92,-554.07"/>
<polygon fill="#63b8ff" stroke="#63b8ff" points="1038.43,-556.53 1048.16,-560.71 1043.16,-551.37 1038.43,-556.53"/>
</a>
</g>
</g>
<!-- Node104&#45;&gt;Node20 -->
<g id="edge53_Node000104_Node000020" class="edge">
<title>Node104&#45;&gt;Node20</title>
<g id="a_edge53_Node000104_Node000020"><a xlink:title=" ">
<path fill="none" stroke="#63b8ff" d="M383.6,-428.03C403.44,-441.14 439.15,-463.27 472.5,-476.38 478.14,-478.59 484.09,-480.61 490.11,-482.43"/>
<polygon fill="#63b8ff" stroke="#63b8ff" points="488.94,-485.74 499.52,-485.1 490.85,-479 488.94,-485.74"/>
</a>
</g>
</g>
<!-- Node104&#45;&gt;Node25 -->
<g id="edge54_Node000104_Node000025" class="edge">
<title>Node104&#45;&gt;Node25</title>
<g id="a_edge54_Node000104_Node000025"><a xlink:title=" ">
<path fill="none" stroke="#63b8ff" d="M418.88,-428.2C442.07,-433.14 469.75,-439.02 494.14,-444.21"/>
<polygon fill="#63b8ff" stroke="#63b8ff" points="493.09,-447.57 503.6,-446.23 494.55,-440.72 493.09,-447.57"/>
</a>
</g>
</g>
<!-- Node104&#45;&gt;Node35 -->
<g id="edge48_Node000104_Node000035" class="edge">
<title>Node104&#45;&gt;Node35</title>
<g id="a_edge48_Node000104_Node000035"><a xlink:title=" ">
<path fill="none" stroke="#63b8ff" d="M381.2,-406.53C395.43,-394.59 418.47,-374.53 436.5,-355.38 454.05,-336.72 456.39,-330.28 472.5,-310.38 493.6,-284.3 517.91,-254.65 534.83,-234.07"/>
<polygon fill="#63b8ff" stroke="#63b8ff" points="537.44,-236.41 541.09,-226.46 532.04,-231.96 537.44,-236.41"/>
</a>
</g>
</g>
<!-- Node104&#45;&gt;Node105 -->
<g id="edge49_Node000104_Node000105" class="edge">
<title>Node104&#45;&gt;Node105</title>
<g id="a_edge49_Node000104_Node000105"><a xlink:title=" ">
<path fill="none" stroke="#63b8ff" d="M385.37,-406.63C401.36,-395.77 424.38,-377.45 436.5,-355.38 482.28,-271.98 431.55,-230.24 472.5,-144.38 487.19,-113.58 514.81,-85.17 534.25,-67.59"/>
<polygon fill="#63b8ff" stroke="#63b8ff" points="536.45,-70.32 541.65,-61.09 531.83,-65.06 536.45,-70.32"/>
</a>
</g>
</g>
<!-- Node104&#45;&gt;Node106 -->
<g id="edge51_Node000104_Node000106" class="edge">
<title>Node104&#45;&gt;Node106</title>
<g id="a_edge51_Node000104_Node000106"><a xlink:title=" ">
<path fill="none" stroke="#63b8ff" d="M424.66,-406.52C452.44,-401.2 485.42,-394.89 511.38,-389.92"/>
<polygon fill="#63b8ff" stroke="#63b8ff" points="511.76,-393.41 520.92,-388.09 510.44,-386.54 511.76,-393.41"/>
</a>
</g>
</g>
<!-- Node106&#45;&gt;Node9 -->
<g id="edge52_Node000106_Node000009" class="edge">
<title>Node106&#45;&gt;Node9</title>
<g id="a_edge52_Node000106_Node000009"><a xlink:title=" ">
<path fill="none" stroke="#63b8ff" d="M591.72,-377.46C682.43,-367.63 929.08,-345.86 993,-391.38 1045.14,-428.5 1056.98,-510.89 1059.64,-550.41"/>
<polygon fill="#63b8ff" stroke="#63b8ff" points="1056.14,-550.51 1060.14,-560.31 1063.13,-550.15 1056.14,-550.51"/>
</a>
</g>
</g>
</g>
</svg>

<g id="navigator" transform="translate(0 0)" fill="#404254">
  <rect fill="#f2f5e9" fill-opacity="0.5" stroke="#606060" stroke-width=".5" x="0" y="0" width="60" height="60"/>
  <use id="zoomplus" xlink:href="#zoomPlus" x="17" y="9" onmousedown="handleZoom(evt,'in')"/>
  <use id="zoomminus" xlink:href="#zoomMin" x="42" y="9" onmousedown="handleZoom(evt,'out')"/>
  <use id="reset" xlink:href="#resetDef" x="30" y="36" onmousedown="handleReset()"/>
   <use id="arrowup" xlink:href="#arrowUp" x="0" y="0" onmousedown="handlePan(0,-1)"/>
  <use id="arrowright" xlink:href="#arrowRight" x="0" y="0" onmousedown="handlePan(1,0)"/>
  <use id="arrowdown" xlink:href="#arrowDown" x="0" y="0" onmousedown="handlePan(0,1)"/>
  <use id="arrowleft" xlink:href="#arrowLeft" x="0" y="0" onmousedown="handlePan(-1,0)"/>
</g>
<svg viewBox="0 0 15 15" width="100%" height="30px" preserveAspectRatio="xMaxYMin meet">
 <g id="arrow_out" transform="scale(0.3 0.3)">
  <a xlink:href="kest__effect__view_8h_abb65b28dc293fd68d3b384f48210130e_cgraph_org.svg" target="_base">
   <rect id="button" ry="5" rx="5" y="6" x="6" height="38" width="38"
        fill="#f2f5e9" fill-opacity="0.5" stroke="#606060" stroke-width="1.0"/>
   <path id="arrow"
     d="M 11.500037,31.436501 C 11.940474,20.09759 22.043105,11.32322 32.158766,21.979434 L 37.068811,17.246167 C 37.068811,17.246167 37.088388,32 37.088388,32 L 22.160133,31.978069 C 22.160133,31.978069 26.997745,27.140456 26.997745,27.140456 C 18.528582,18.264221 13.291696,25.230495 11.500037,31.436501 z"
     style="fill:#404040;"/>
  </a>
 </g>
</svg>

<style type='text/css'>
<![CDATA[
[data-mouse-over-selected='false'] { opacity: 0.7; }
[data-mouse-over-selected='true']  { opacity: 1.0; }
]]>
</style>
<script type="application/ecmascript"><![CDATA[
document.addEventListener('DOMContentLoaded', (event) => {
  highlightEdges();
  highlightAdjacentNodes();
});
]]></script>
</svg>
