<?xml version="1.0" encoding="UTF-8" standalone="no"?>
<!DOCTYPE svg PUBLIC "-//W3C//DTD SVG 1.1//EN"
 "http://www.w3.org/Graphics/SVG/1.1/DTD/svg11.dtd">
<!-- Generated by graphviz version 13.1.2 (20250808.2320)
 -->
<!-- Title: kest_new_expr_scope_entry_setting Pages: 1 -->
<svg width="635pt" height="94pt"
 viewBox="0.00 0.00 635.00 94.00" xmlns="http://www.w3.org/2000/svg" xmlns:xlink="http://www.w3.org/1999/xlink">
<g id="graph0" class="graph" transform="scale(1 1) rotate(0) translate(4 89.5)">
<title>kest_new_expr_scope_entry_setting</title>
<!-- Node1 -->
<g id="Node000001" class="node">
<title>Node1</title>
<g id="a_Node000001"><a xlink:title=" ">
<polygon fill="#999999" stroke="#666666" points="626.5,-59.5 504,-59.5 504,-26 626.5,-26 626.5,-59.5"/>
<text xml:space="preserve" text-anchor="start" x="512" y="-46" font-family="Helvetica,sans-Serif" font-size="10.00">kest_new_expr_scope</text>
<text xml:space="preserve" text-anchor="middle" x="565.25" y="-33.25" font-family="Helvetica,sans-Serif" font-size="10.00">_entry_setting</text>
</a>
</g>
</g>
<!-- Node2 -->
<g id="Node000002" class="node">
<title>Node2</title>
<g id="a_Node000002"><a xlink:href="kest__expr__scope_8c.html#ae2edb95f7337c9dd84a5053c2379e514" target="_top" xlink:title=" ">
<polygon fill="white" stroke="#666666" points="468,-59.5 347.75,-59.5 347.75,-26 468,-26 468,-59.5"/>
<text xml:space="preserve" text-anchor="start" x="355.75" y="-46" font-family="Helvetica,sans-Serif" font-size="10.00">kest_expr_scope_add</text>
<text xml:space="preserve" text-anchor="middle" x="407.88" y="-33.25" font-family="Helvetica,sans-Serif" font-size="10.00">_setting</text>
</a>
</g>
</g>
<!-- Node1&#45;&gt;Node2 -->
<g id="edge1_Node000001_Node000002" class="edge">
<title>Node1&#45;&gt;Node2</title>
<g id="a_edge1_Node000001_Node000002"><a xlink:title=" ">
<path fill="none" stroke="#63b8ff" d="M492.47,-42.75C484.44,-42.75 476.32,-42.75 468.46,-42.75"/>
<polygon fill="#63b8ff" stroke="#63b8ff" points="492.22,-46.25 502.22,-42.75 492.22,-39.25 492.22,-46.25"/>
</a>
</g>
</g>
<!-- Node3 -->
<g id="Node000003" class="node">
<title>Node3</title>
<g id="a_Node000003"><a xlink:href="kest__effect_8c.html#ad36244b2279575200cc5265d2e25dfdd" target="_top" xlink:title=" ">
<polygon fill="white" stroke="#666666" points="304.62,-85.5 198.62,-85.5 198.62,-52 304.62,-52 304.62,-85.5"/>
<text xml:space="preserve" text-anchor="start" x="206.62" y="-72" font-family="Helvetica,sans-Serif" font-size="10.00">kest_effect_create</text>
<text xml:space="preserve" text-anchor="middle" x="251.62" y="-59.25" font-family="Helvetica,sans-Serif" font-size="10.00">_scope</text>
</a>
</g>
</g>
<!-- Node2&#45;&gt;Node3 -->
<g id="edge2_Node000002_Node000003" class="edge">
<title>Node2&#45;&gt;Node3</title>
<g id="a_edge2_Node000002_Node000003"><a xlink:title=" ">
<path fill="none" stroke="#63b8ff" d="M336.64,-54.59C325.95,-56.39 315.08,-58.22 304.86,-59.95"/>
<polygon fill="#63b8ff" stroke="#63b8ff" points="336.91,-58.09 346.19,-52.98 335.74,-51.19 336.91,-58.09"/>
</a>
</g>
</g>
<!-- Node16 -->
<g id="Node000016" class="node">
<title>Node16</title>
<g id="a_Node000016"><a xlink:href="kest__expr__scope_8c.html#a261adc6f9e28cca4ce9ceeb7d91a4334" target="_top" xlink:title=" ">
<polygon fill="white" stroke="#666666" points="311.75,-33.5 191.5,-33.5 191.5,0 311.75,0 311.75,-33.5"/>
<text xml:space="preserve" text-anchor="start" x="199.5" y="-20" font-family="Helvetica,sans-Serif" font-size="10.00">kest_expr_scope_add</text>
<text xml:space="preserve" text-anchor="middle" x="251.62" y="-7.25" font-family="Helvetica,sans-Serif" font-size="10.00">_settings</text>
</a>
</g>
</g>
<!-- Node2&#45;&gt;Node16 -->
<g id="edge4_Node000002_Node000016" class="edge">
<title>Node2&#45;&gt;Node16</title>
<g id="a_edge4_Node000002_Node000016"><a xlink:title=" ">
<path fill="none" stroke="#63b8ff" d="M336.35,-30.86C328.27,-29.5 320.09,-28.12 312.17,-26.79"/>
<polygon fill="#63b8ff" stroke="#63b8ff" points="335.74,-34.31 346.19,-32.52 336.91,-27.41 335.74,-34.31"/>
</a>
</g>
</g>
<!-- Node4 -->
<g id="Node000004" class="node">
<title>Node4</title>
<g id="a_Node000004"><a xlink:href="kest__effect_8c.html#a85b25e44e2629962673634f965ffe304" target="_top" xlink:title=" ">
<polygon fill="#fff0f0" stroke="red" points="155.5,-79.12 0,-79.12 0,-58.38 155.5,-58.38 155.5,-79.12"/>
<text xml:space="preserve" text-anchor="middle" x="77.75" y="-65.62" font-family="Helvetica,sans-Serif" font-size="10.00">init_effect_from_effect_desc</text>
</a>
</g>
</g>
<!-- Node3&#45;&gt;Node4 -->
<g id="edge3_Node000003_Node000004" class="edge">
<title>Node3&#45;&gt;Node4</title>
<g id="a_edge3_Node000003_Node000004"><a xlink:title=" ">
<path fill="none" stroke="#63b8ff" d="M187.31,-68.75C177.11,-68.75 166.45,-68.75 155.98,-68.75"/>
<polygon fill="#63b8ff" stroke="#63b8ff" points="187.08,-72.25 197.08,-68.75 187.08,-65.25 187.08,-72.25"/>
</a>
</g>
</g>
<!-- Node17 -->
<g id="Node000017" class="node">
<title>Node17</title>
<g id="a_Node000017"><a xlink:href="kest__eff__parser_8c.html#a73ef6962d1925857ec3e4b12d1aad834" target="_top" xlink:title=" ">
<polygon fill="#fff0f0" stroke="red" points="130.75,-27.12 24.75,-27.12 24.75,-6.38 130.75,-6.38 130.75,-27.12"/>
<text xml:space="preserve" text-anchor="middle" x="77.75" y="-13.62" font-family="Helvetica,sans-Serif" font-size="10.00">kest_parse_tokens</text>
</a>
</g>
</g>
<!-- Node16&#45;&gt;Node17 -->
<g id="edge5_Node000016_Node000017" class="edge">
<title>Node16&#45;&gt;Node17</title>
<g id="a_edge5_Node000016_Node000017"><a xlink:title=" ">
<path fill="none" stroke="#63b8ff" d="M180.25,-16.75C163.82,-16.75 146.6,-16.75 131.11,-16.75"/>
<polygon fill="#63b8ff" stroke="#63b8ff" points="179.96,-20.25 189.96,-16.75 179.96,-13.25 179.96,-20.25"/>
</a>
</g>
</g>
</g>
</svg>
