<?xml version="1.0" encoding="UTF-8" standalone="no"?>
<!DOCTYPE svg PUBLIC "-//W3C//DTD SVG 1.1//EN"
 "http://www.w3.org/Graphics/SVG/1.1/DTD/svg11.dtd">
<!-- Generated by graphviz version 13.1.2 (20250808.2320)
 -->
<!-- Title: kest_pipeline_append_effect_eff Pages: 1 -->
<svg width="625pt" height="80pt"
 viewBox="0.00 0.00 625.00 80.00" xmlns="http://www.w3.org/2000/svg" xmlns:xlink="http://www.w3.org/1999/xlink">
<g id="graph0" class="graph" transform="scale(1 1) rotate(0) translate(4 76.12)">
<title>kest_pipeline_append_effect_eff</title>
<!-- Node1 -->
<g id="Node000001" class="node">
<title>Node1</title>
<g id="a_Node000001"><a xlink:title=" ">
<polygon fill="#999999" stroke="#666666" points="616.75,-49.12 495,-49.12 495,-15.62 616.75,-15.62 616.75,-49.12"/>
<text xml:space="preserve" text-anchor="start" x="503" y="-35.62" font-family="Helvetica,sans-Serif" font-size="10.00">kest_pipeline_append</text>
<text xml:space="preserve" text-anchor="middle" x="555.88" y="-22.88" font-family="Helvetica,sans-Serif" font-size="10.00">_effect_eff</text>
</a>
</g>
</g>
<!-- Node2 -->
<g id="Node000002" class="node">
<title>Node2</title>
<g id="a_Node000002"><a xlink:href="kest__profile_8c.html#ab6d55ea9738ce37aae141901562268d6" target="_top" xlink:title=" ">
<polygon fill="white" stroke="#666666" points="459,-49.12 344.75,-49.12 344.75,-15.62 459,-15.62 459,-49.12"/>
<text xml:space="preserve" text-anchor="start" x="352.75" y="-35.62" font-family="Helvetica,sans-Serif" font-size="10.00">kest_profile_append</text>
<text xml:space="preserve" text-anchor="middle" x="401.88" y="-22.88" font-family="Helvetica,sans-Serif" font-size="10.00">_effect_eff</text>
</a>
</g>
</g>
<!-- Node1&#45;&gt;Node2 -->
<g id="edge1_Node000001_Node000002" class="edge">
<title>Node1&#45;&gt;Node2</title>
<g id="a_edge1_Node000001_Node000002"><a xlink:title=" ">
<path fill="none" stroke="#63b8ff" d="M483.35,-32.38C475.19,-32.38 466.97,-32.38 459.05,-32.38"/>
<polygon fill="#63b8ff" stroke="#63b8ff" points="483.29,-35.88 493.29,-32.38 483.29,-28.88 483.29,-35.88"/>
</a>
</g>
</g>
<!-- Node3 -->
<g id="Node000003" class="node">
<title>Node3</title>
<g id="a_Node000003"><a xlink:href="kest__effect__select_8c.html#a0a0604d69c6fbeb09b31db2ebff0e901" target="_top" xlink:title=" ">
<polygon fill="white" stroke="#666666" points="308.75,-63.75 160.75,-63.75 160.75,-43 308.75,-43 308.75,-63.75"/>
<text xml:space="preserve" text-anchor="middle" x="234.75" y="-50.25" font-family="Helvetica,sans-Serif" font-size="10.00">add_effect_from_menu_eff</text>
</a>
</g>
</g>
<!-- Node2&#45;&gt;Node3 -->
<g id="edge2_Node000002_Node000003" class="edge">
<title>Node2&#45;&gt;Node3</title>
<g id="a_edge2_Node000002_Node000003"><a xlink:title=" ">
<path fill="none" stroke="#63b8ff" d="M333.36,-40.96C325.36,-41.98 317.16,-43.02 309.09,-44.05"/>
<polygon fill="#63b8ff" stroke="#63b8ff" points="333.53,-44.47 343.01,-39.73 332.65,-37.52 333.53,-44.47"/>
</a>
</g>
</g>
<!-- Node10 -->
<g id="Node000010" class="node">
<title>Node10</title>
<g id="a_Node000010"><a xlink:href="kest__files_8c.html#ae1110c7660e66d69a41e0709aeea6052" target="_top" xlink:title=" ">
<polygon fill="white" stroke="#666666" points="296.75,-23.75 172.75,-23.75 172.75,-3 296.75,-3 296.75,-23.75"/>
<text xml:space="preserve" text-anchor="middle" x="234.75" y="-10.25" font-family="Helvetica,sans-Serif" font-size="10.00">read_profile_from_file</text>
</a>
</g>
</g>
<!-- Node2&#45;&gt;Node10 -->
<g id="edge4_Node000002_Node000010" class="edge">
<title>Node2&#45;&gt;Node10</title>
<g id="a_edge4_Node000002_Node000010"><a xlink:title=" ">
<path fill="none" stroke="#63b8ff" d="M333.25,-24.59C321.32,-23.22 308.97,-21.8 297.23,-20.45"/>
<polygon fill="#63b8ff" stroke="#63b8ff" points="332.67,-28.05 343.01,-25.72 333.47,-21.1 332.67,-28.05"/>
</a>
</g>
</g>
<!-- Node4 -->
<g id="Node000004" class="node">
<title>Node4</title>
<g id="a_Node000004"><a xlink:href="kest__effect__select_8c.html#a46b6d3a353595e72c7a17e6352e5a7a0" target="_top" xlink:title=" ">
<polygon fill="#fff0f0" stroke="red" points="124.75,-72.12 0,-72.12 0,-38.62 124.75,-38.62 124.75,-72.12"/>
<text xml:space="preserve" text-anchor="start" x="8" y="-58.62" font-family="Helvetica,sans-Serif" font-size="10.00">create_effect_selector</text>
<text xml:space="preserve" text-anchor="middle" x="62.38" y="-45.88" font-family="Helvetica,sans-Serif" font-size="10.00">_button_ui_eff</text>
</a>
</g>
</g>
<!-- Node3&#45;&gt;Node4 -->
<g id="edge3_Node000003_Node000004" class="edge">
<title>Node3&#45;&gt;Node4</title>
<g id="a_edge3_Node000003_Node000004"><a xlink:title=" ">
<path fill="none" stroke="#63b8ff" d="M149.09,-54.37C140.99,-54.46 132.88,-54.56 125.06,-54.65"/>
<polygon fill="#63b8ff" stroke="#63b8ff" points="149.04,-57.87 158.99,-54.25 148.95,-50.87 149.04,-57.87"/>
</a>
</g>
</g>
<!-- Node11 -->
<g id="Node000011" class="node">
<title>Node11</title>
<g id="a_Node000011"><a xlink:href="kest__files_8c.html#a9a8521ad7db2dd3514b6ece8c4d6d787" target="_top" xlink:title=" ">
<polygon fill="#fff0f0" stroke="red" points="119.12,-20.75 5.62,-20.75 5.62,0 119.12,0 119.12,-20.75"/>
<text xml:space="preserve" text-anchor="middle" x="62.38" y="-7.25" font-family="Helvetica,sans-Serif" font-size="10.00">load_saved_profiles</text>
</a>
</g>
</g>
<!-- Node10&#45;&gt;Node11 -->
<g id="edge5_Node000010_Node000011" class="edge">
<title>Node10&#45;&gt;Node11</title>
<g id="a_edge5_Node000010_Node000011"><a xlink:title=" ">
<path fill="none" stroke="#63b8ff" d="M161.56,-12.1C147.47,-11.86 132.9,-11.6 119.44,-11.36"/>
<polygon fill="#63b8ff" stroke="#63b8ff" points="161.15,-15.6 171.21,-12.27 161.27,-8.6 161.15,-15.6"/>
</a>
</g>
</g>
</g>
</svg>
