<?xml version="1.0" encoding="UTF-8" standalone="no"?>
<!DOCTYPE svg PUBLIC "-//W3C//DTD SVG 1.1//EN"
 "http://www.w3.org/Graphics/SVG/1.1/DTD/svg11.dtd">
<!-- Generated by graphviz version 13.1.2 (20250808.2320)
 -->
<!-- Title: set_active_profile_from_sequence Pages: 1 -->
<!--zoomable 253 -->

<svg id="main" version="1.1" xmlns="http://www.w3.org/2000/svg" xmlns:xlink="http://www.w3.org/1999/xlink" xml:space="preserve" onload="init(evt)">

<style type="text/css"><![CDATA[
.node, .edge {opacity: 0.7;}
.node.selected, .edge.selected {opacity: 1;}
.edge:hover path { stroke: red; }
.edge:hover polygon { stroke: red; fill: red; }
]]></style>

<defs>
  <circle id="rim" cx="0" cy="0" r="7"/>
  <circle id="rim2" cx="0" cy="0" r="3.5"/>
  <g id="zoomPlus">
    <use xlink:href="#rim" fill="#404040"><set attributeName="fill" to="#808080" begin="zoomplus.mouseover" end="zoomplus.mouseout"/></use>
    <path d="M-4,0h8M0,-4v8" fill="none" stroke="white" stroke-width="1.5" pointer-events="none"/>
  </g>
  <g id="zoomMin">
    <use xlink:href="#rim" fill="#404040"><set attributeName="fill" to="#808080" begin="zoomminus.mouseover" end="zoomminus.mouseout"/></use>
    <path d="M-4,0h8" fill="none" stroke="white" stroke-width="1.5" pointer-events="none"/>
  </g>
  <g id="arrowUp" transform="translate(30 24)">
    <use xlink:href="#rim"/>
    <path pointer-events="none" fill="none" stroke="white" stroke-width="1.5" d="M0,-3.0v7 M-2.5,-0.5L0,-3.0L2.5,-0.5"/>
  </g>
  <g id="arrowRight" transform="rotate(90) translate(36 -43)">
    <use xlink:href="#rim"/>
    <path pointer-events="none" fill="none" stroke="white" stroke-width="1.5" d="M0,-3.0v7 M-2.5,-0.5L0,-3.0L2.5,-0.5"/>
  </g>
  <g id="arrowDown" transform="rotate(180) translate(-30 -48)">
    <use xlink:href="#rim"/>
    <path pointer-events="none" fill="none" stroke="white" stroke-width="1.5" d="M0,-3.0v7 M-2.5,-0.5L0,-3.0L2.5,-0.5"/>
  </g>
  <g id="arrowLeft" transform="rotate(270) translate(-36 17)">
    <use xlink:href="#rim"/>
    <path pointer-events="none" fill="none" stroke="white" stroke-width="1.5" d="M0,-3.0v7 M-2.5,-0.5L0,-3.0L2.5,-0.5"/>
  </g>
  <g id="resetDef">
    <use xlink:href="#rim2" fill="#404040"><set attributeName="fill" to="#808080" begin="reset.mouseover" end="reset.mouseout"/></use>
  </g>
</defs>
<script type="application/ecmascript">
var viewWidth = 652;
var viewHeight = 253;
var sectionId = 'dynsection-46';
</script>
<script type="application/ecmascript" xlink:href="svg.min.js"/>
<svg id="graph" class="graph">
<g id="viewport">
<title>set_active_profile_from_sequence</title>
<!-- Node1 -->
<g id="Node000001" class="node">
<title>Node1</title>
<g id="a_Node000001"><a xlink:title=" ">
<polygon fill="#999999" stroke="#666666" points="643.75,-124.12 540.75,-124.12 540.75,-90.62 643.75,-90.62 643.75,-124.12"/>
<text xml:space="preserve" text-anchor="start" x="548.75" y="-110.62" font-family="Helvetica,sans-Serif" font-size="10.00">set_active_profile</text>
<text xml:space="preserve" text-anchor="middle" x="592.25" y="-97.88" font-family="Helvetica,sans-Serif" font-size="10.00">_from_sequence</text>
</a>
</g>
</g>
<!-- Node2 -->
<g id="Node000002" class="node">
<title>Node2</title>
<g id="a_Node000002"><a xlink:href="kest__state_8c.html#ab26da214ed0f9d143d63e80a7012796b" target="_top" xlink:title=" ">
<polygon fill="white" stroke="#666666" points="500.25,-215.75 374,-215.75 374,-195 500.25,-195 500.25,-215.75"/>
<text xml:space="preserve" text-anchor="middle" x="437.12" y="-202.25" font-family="Helvetica,sans-Serif" font-size="10.00">kest_cxt_restore_state</text>
</a>
</g>
</g>
<!-- Node1&#45;&gt;Node2 -->
<g id="edge1_Node000001_Node000002" class="edge">
<title>Node1&#45;&gt;Node2</title>
<g id="a_edge1_Node000001_Node000002"><a xlink:title=" ">
<path fill="none" stroke="#63b8ff" d="M568.84,-132.79C552.57,-149.84 529.21,-171.61 504.75,-185.38 498.33,-188.99 491.19,-192.02 484.03,-194.53"/>
<polygon fill="#63b8ff" stroke="#63b8ff" points="571.39,-135.19 575.64,-125.48 566.26,-130.42 571.39,-135.19"/>
</a>
</g>
</g>
<!-- Node6 -->
<g id="Node000006" class="node">
<title>Node6</title>
<g id="a_Node000006"><a xlink:href="kest__sequence_8c.html#a85f3248c9d10338f835e998245e44b30" target="_top" xlink:title=" ">
<polygon fill="white" stroke="#666666" points="504.38,-176.75 369.88,-176.75 369.88,-156 504.38,-156 504.38,-176.75"/>
<text xml:space="preserve" text-anchor="middle" x="437.12" y="-163.25" font-family="Helvetica,sans-Serif" font-size="10.00">kest_sequence_advance</text>
</a>
</g>
</g>
<!-- Node1&#45;&gt;Node6 -->
<g id="edge5_Node000001_Node000006" class="edge">
<title>Node1&#45;&gt;Node6</title>
<g id="a_edge5_Node000001_Node000006"><a xlink:title=" ">
<path fill="none" stroke="#63b8ff" d="M545.75,-129.25C532.66,-135.17 518.27,-141.32 504.75,-146.38 495.93,-149.67 486.29,-152.82 477.17,-155.6"/>
<polygon fill="#63b8ff" stroke="#63b8ff" points="546.92,-132.56 554.54,-125.21 544,-126.2 546.92,-132.56"/>
</a>
</g>
</g>
<!-- Node10 -->
<g id="Node000010" class="node">
<title>Node10</title>
<g id="a_Node000010"><a xlink:href="kest__sequence_8c.html#adf2bc7c26b0bead2b6bd85fcd9bc6248" target="_top" xlink:title=" ">
<polygon fill="white" stroke="#666666" points="497.25,-98.75 377,-98.75 377,-78 497.25,-78 497.25,-98.75"/>
<text xml:space="preserve" text-anchor="middle" x="437.12" y="-85.25" font-family="Helvetica,sans-Serif" font-size="10.00">kest_sequence_begin</text>
</a>
</g>
</g>
<!-- Node1&#45;&gt;Node10 -->
<g id="edge8_Node000001_Node000010" class="edge">
<title>Node1&#45;&gt;Node10</title>
<g id="a_edge8_Node000001_Node000010"><a xlink:title=" ">
<path fill="none" stroke="#63b8ff" d="M529.16,-99.67C518.75,-98.38 507.98,-97.04 497.64,-95.76"/>
<polygon fill="#63b8ff" stroke="#63b8ff" points="528.4,-103.1 538.76,-100.86 529.27,-96.16 528.4,-103.1"/>
</a>
</g>
</g>
<!-- Node25 -->
<g id="Node000025" class="node">
<title>Node25</title>
<g id="a_Node000025"><a xlink:href="kest__sequence_8c.html#a7598590e9434f17fad5ac037b0bb4164" target="_top" xlink:title=" ">
<polygon fill="white" stroke="#666666" points="504.75,-59.75 369.5,-59.75 369.5,-39 504.75,-39 504.75,-59.75"/>
<text xml:space="preserve" text-anchor="middle" x="437.12" y="-46.25" font-family="Helvetica,sans-Serif" font-size="10.00">kest_sequence_begin_at</text>
</a>
</g>
</g>
<!-- Node1&#45;&gt;Node25 -->
<g id="edge11_Node000001_Node000025" class="edge">
<title>Node1&#45;&gt;Node25</title>
<g id="a_edge11_Node000001_Node000025"><a xlink:title=" ">
<path fill="none" stroke="#63b8ff" d="M544.61,-85.64C531.82,-80.02 517.86,-74.2 504.75,-69.38 495.91,-66.12 486.27,-62.99 477.14,-60.22"/>
<polygon fill="#63b8ff" stroke="#63b8ff" points="543.1,-88.8 553.65,-89.67 545.94,-82.4 543.1,-88.8"/>
</a>
</g>
</g>
<!-- Node33 -->
<g id="Node000033" class="node">
<title>Node33</title>
<g id="a_Node000033"><a xlink:href="kest__sequence_8c.html#a0076ab743ce384590dc02431edb343c3" target="_top" xlink:title=" ">
<polygon fill="white" stroke="#666666" points="501.75,-137.75 372.5,-137.75 372.5,-117 501.75,-117 501.75,-137.75"/>
<text xml:space="preserve" text-anchor="middle" x="437.12" y="-124.25" font-family="Helvetica,sans-Serif" font-size="10.00">kest_sequence_regress</text>
</a>
</g>
</g>
<!-- Node1&#45;&gt;Node33 -->
<g id="edge14_Node000001_Node000033" class="edge">
<title>Node1&#45;&gt;Node33</title>
<g id="a_edge14_Node000001_Node000033"><a xlink:title=" ">
<path fill="none" stroke="#63b8ff" d="M528.9,-115.52C520.11,-116.67 511.06,-117.85 502.24,-119"/>
<polygon fill="#63b8ff" stroke="#63b8ff" points="529.3,-119 538.76,-114.23 528.39,-112.06 529.3,-119"/>
</a>
</g>
</g>
<!-- Node34 -->
<g id="Node000034" class="node">
<title>Node34</title>
<g id="a_Node000034"><a xlink:href="kest__sequence_8c.html#a3b2993ed35376e7c9a4fb0f4496b2757" target="_top" xlink:title=" ">
<polygon fill="white" stroke="#666666" points="494.25,-20.75 380,-20.75 380,0 494.25,0 494.25,-20.75"/>
<text xml:space="preserve" text-anchor="middle" x="437.12" y="-7.25" font-family="Helvetica,sans-Serif" font-size="10.00">kest_sequence_stop</text>
</a>
</g>
</g>
<!-- Node1&#45;&gt;Node34 -->
<g id="edge16_Node000001_Node000034" class="edge">
<title>Node1&#45;&gt;Node34</title>
<g id="a_edge16_Node000001_Node000034"><a xlink:title=" ">
<path fill="none" stroke="#63b8ff" d="M568.48,-81.99C552.2,-65.21 528.96,-43.9 504.75,-30.38 498.21,-26.72 490.94,-23.67 483.66,-21.13"/>
<polygon fill="#63b8ff" stroke="#63b8ff" points="565.87,-84.32 575.29,-89.18 570.96,-79.51 565.87,-84.32"/>
</a>
</g>
</g>
<!-- Node3 -->
<g id="Node000003" class="node">
<title>Node3</title>
<g id="a_Node000003"><a xlink:href="kest__int_8c.html#abce06be17fc37d675118a678a8100a36" target="_top" xlink:title=" ">
<polygon fill="white" stroke="#666666" points="287.75,-244.75 223.75,-244.75 223.75,-224 287.75,-224 287.75,-244.75"/>
<text xml:space="preserve" text-anchor="middle" x="255.75" y="-231.25" font-family="Helvetica,sans-Serif" font-size="10.00">app_main</text>
</a>
</g>
</g>
<!-- Node2&#45;&gt;Node3 -->
<g id="edge2_Node000002_Node000003" class="edge">
<title>Node2&#45;&gt;Node3</title>
<g id="a_edge2_Node000002_Node000003"><a xlink:title=" ">
<path fill="none" stroke="#63b8ff" d="M362.28,-217.31C336.35,-221.51 308.6,-225.99 288.07,-229.31"/>
<polygon fill="#63b8ff" stroke="#63b8ff" points="362.83,-220.77 372.15,-215.72 361.72,-213.86 362.83,-220.77"/>
</a>
</g>
</g>
<!-- Node4 -->
<g id="Node000004" class="node">
<title>Node4</title>
<g id="a_Node000004"><a xlink:href="kest__desktop_8c.html#ab499a4f71ef4cfc807b60d8739750c3e" target="_top" xlink:title=" ">
<polygon fill="white" stroke="#666666" points="289.25,-205.75 222.25,-205.75 222.25,-185 289.25,-185 289.25,-205.75"/>
<text xml:space="preserve" text-anchor="middle" x="255.75" y="-192.25" font-family="Helvetica,sans-Serif" font-size="10.00">main_task</text>
</a>
</g>
</g>
<!-- Node2&#45;&gt;Node4 -->
<g id="edge3_Node000002_Node000004" class="edge">
<title>Node2&#45;&gt;Node4</title>
<g id="a_edge3_Node000002_Node000004"><a xlink:title=" ">
<path fill="none" stroke="#63b8ff" d="M362.18,-201.25C336.9,-199.84 309.91,-198.34 289.56,-197.2"/>
<polygon fill="#63b8ff" stroke="#63b8ff" points="361.95,-204.75 372.13,-201.81 362.34,-197.76 361.95,-204.75"/>
</a>
</g>
</g>
<!-- Node5 -->
<g id="Node000005" class="node">
<title>Node5</title>
<g id="a_Node000005"><a xlink:href="kest__desktop_8c.html#a3c04138a5bfe5d72780bb7e82a18e627" target="_top" xlink:title=" ">
<polygon fill="white" stroke="#666666" points="91.38,-205.75 50.62,-205.75 50.62,-185 91.38,-185 91.38,-205.75"/>
<text xml:space="preserve" text-anchor="middle" x="71" y="-192.25" font-family="Helvetica,sans-Serif" font-size="10.00">main</text>
</a>
</g>
</g>
<!-- Node4&#45;&gt;Node5 -->
<g id="edge4_Node000004_Node000005" class="edge">
<title>Node4&#45;&gt;Node5</title>
<g id="a_edge4_Node000004_Node000005"><a xlink:title=" ">
<path fill="none" stroke="#63b8ff" d="M210.85,-195.38C172.98,-195.38 120.03,-195.38 91.72,-195.38"/>
<polygon fill="#63b8ff" stroke="#63b8ff" points="210.56,-198.88 220.56,-195.38 210.56,-191.88 210.56,-198.88"/>
</a>
</g>
</g>
<!-- Node7 -->
<g id="Node000007" class="node">
<title>Node7</title>
<g id="a_Node000007"><a xlink:href="kest__context_8c.html#a92d3aa6e51991a8969ec021b9d1e0f33" target="_top" xlink:title=" ">
<polygon fill="white" stroke="#666666" points="318.5,-156.75 193,-156.75 193,-136 318.5,-136 318.5,-156.75"/>
<text xml:space="preserve" text-anchor="middle" x="255.75" y="-143.25" font-family="Helvetica,sans-Serif" font-size="10.00">cxt_handle_hw_switch</text>
</a>
</g>
</g>
<!-- Node6&#45;&gt;Node7 -->
<g id="edge6_Node000006_Node000007" class="edge">
<title>Node6&#45;&gt;Node7</title>
<g id="a_edge6_Node000006_Node000007"><a xlink:title=" ">
<path fill="none" stroke="#63b8ff" d="M358.52,-157.72C345.22,-156.24 331.55,-154.72 318.72,-153.29"/>
<polygon fill="#63b8ff" stroke="#63b8ff" points="357.76,-161.16 368.08,-158.79 358.53,-154.2 357.76,-161.16"/>
</a>
</g>
</g>
<!-- Node8 -->
<g id="Node000008" class="node">
<title>Node8</title>
<g id="a_Node000008"><a xlink:href="kest__footswitch_8c.html#af755237c2b87b3ade3fa580c3e468641" target="_top" xlink:title=" ">
<polygon fill="#fff0f0" stroke="red" points="117.62,-156.75 24.38,-156.75 24.38,-136 117.62,-136 117.62,-156.75"/>
<text xml:space="preserve" text-anchor="middle" x="71" y="-143.25" font-family="Helvetica,sans-Serif" font-size="10.00">footswitch_task</text>
</a>
</g>
</g>
<!-- Node7&#45;&gt;Node8 -->
<g id="edge7_Node000007_Node000008" class="edge">
<title>Node7&#45;&gt;Node8</title>
<g id="a_edge7_Node000007_Node000008"><a xlink:title=" ">
<path fill="none" stroke="#63b8ff" d="M181.27,-146.38C159.93,-146.38 137.23,-146.38 118.08,-146.38"/>
<polygon fill="#63b8ff" stroke="#63b8ff" points="181.11,-149.88 191.11,-146.38 181.11,-142.88 181.11,-149.88"/>
</a>
</g>
</g>
<!-- Node11 -->
<g id="Node000011" class="node">
<title>Node11</title>
<g id="a_Node000011"><a xlink:href="kest__sequence__view_8c.html#a4d67fe5ecc44c7b1bff00ec58e369dad" target="_top" xlink:title=" ">
<polygon fill="white" stroke="#666666" points="293.75,-98.75 217.75,-98.75 217.75,-78 293.75,-78 293.75,-98.75"/>
<text xml:space="preserve" text-anchor="middle" x="255.75" y="-85.25" font-family="Helvetica,sans-Serif" font-size="10.00">seq_play_cb</text>
</a>
</g>
</g>
<!-- Node10&#45;&gt;Node11 -->
<g id="edge9_Node000010_Node000011" class="edge">
<title>Node10&#45;&gt;Node11</title>
<g id="a_edge9_Node000010_Node000011"><a xlink:title=" ">
<path fill="none" stroke="#63b8ff" d="M365.51,-88.38C341.18,-88.38 314.88,-88.38 294.24,-88.38"/>
<polygon fill="#63b8ff" stroke="#63b8ff" points="365.38,-91.88 375.38,-88.38 365.38,-84.88 365.38,-91.88"/>
</a>
</g>
</g>
<!-- Node12 -->
<g id="Node000012" class="node">
<title>Node12</title>
<g id="a_Node000012"><a xlink:href="kest__sequence__view_8c.html#ac871b24a7c875a7b6e707a3d2691a2a9" target="_top" xlink:title=" ">
<polygon fill="#fff0f0" stroke="red" points="142,-98.75 0,-98.75 0,-78 142,-78 142,-98.75"/>
<text xml:space="preserve" text-anchor="middle" x="71" y="-85.25" font-family="Helvetica,sans-Serif" font-size="10.00">configure_sequence_view</text>
</a>
</g>
</g>
<!-- Node11&#45;&gt;Node12 -->
<g id="edge10_Node000011_Node000012" class="edge">
<title>Node11&#45;&gt;Node12</title>
<g id="a_edge10_Node000011_Node000012"><a xlink:title=" ">
<path fill="none" stroke="#63b8ff" d="M205.94,-88.38C186.41,-88.38 163.53,-88.38 142.26,-88.38"/>
<polygon fill="#63b8ff" stroke="#63b8ff" points="205.81,-91.88 215.81,-88.38 205.81,-84.88 205.81,-91.88"/>
</a>
</g>
</g>
<!-- Node26 -->
<g id="Node000026" class="node">
<title>Node26</title>
<g id="a_Node000026"><a xlink:href="kest__profile__view_8c.html#a7a586e516fd3de15ad3ee1ff2d45ee94" target="_top" xlink:title=" ">
<polygon fill="white" stroke="#666666" points="333.5,-59.75 178,-59.75 178,-39 333.5,-39 333.5,-59.75"/>
<text xml:space="preserve" text-anchor="middle" x="255.75" y="-46.25" font-family="Helvetica,sans-Serif" font-size="10.00">profile_view_play_button_cb</text>
</a>
</g>
</g>
<!-- Node25&#45;&gt;Node26 -->
<g id="edge12_Node000025_Node000026" class="edge">
<title>Node25&#45;&gt;Node26</title>
<g id="a_edge12_Node000025_Node000026"><a xlink:title=" ">
<path fill="none" stroke="#63b8ff" d="M357.67,-49.38C349.81,-49.38 341.83,-49.38 333.98,-49.38"/>
<polygon fill="#63b8ff" stroke="#63b8ff" points="357.56,-52.88 367.56,-49.38 357.56,-45.88 357.56,-52.88"/>
</a>
</g>
</g>
<!-- Node27 -->
<g id="Node000027" class="node">
<title>Node27</title>
<g id="a_Node000027"><a xlink:href="kest__profile__view_8c.html#a9f9505132871c2ea372958fd06ecf10f" target="_top" xlink:title=" ">
<polygon fill="#fff0f0" stroke="red" points="134.5,-59.75 7.5,-59.75 7.5,-39 134.5,-39 134.5,-59.75"/>
<text xml:space="preserve" text-anchor="middle" x="71" y="-46.25" font-family="Helvetica,sans-Serif" font-size="10.00">configure_profile_view</text>
</a>
</g>
</g>
<!-- Node26&#45;&gt;Node27 -->
<g id="edge13_Node000026_Node000027" class="edge">
<title>Node26&#45;&gt;Node27</title>
<g id="a_edge13_Node000026_Node000027"><a xlink:title=" ">
<path fill="none" stroke="#63b8ff" d="M166.11,-49.38C155.55,-49.38 144.95,-49.38 134.86,-49.38"/>
<polygon fill="#63b8ff" stroke="#63b8ff" points="166,-52.88 176,-49.38 166,-45.88 166,-52.88"/>
</a>
</g>
</g>
<!-- Node33&#45;&gt;Node7 -->
<g id="edge15_Node000033_Node000007" class="edge">
<title>Node33&#45;&gt;Node7</title>
<g id="a_edge15_Node000033_Node000007"><a xlink:title=" ">
<path fill="none" stroke="#63b8ff" d="M361.02,-135.33C347,-136.82 332.49,-138.35 318.92,-139.79"/>
<polygon fill="#63b8ff" stroke="#63b8ff" points="361.05,-138.85 370.62,-134.31 360.31,-131.89 361.05,-138.85"/>
</a>
</g>
</g>
</g>
</svg>

<g id="navigator" transform="translate(0 0)" fill="#404254">
  <rect fill="#f2f5e9" fill-opacity="0.5" stroke="#606060" stroke-width=".5" x="0" y="0" width="60" height="60"/>
  <use id="zoomplus" xlink:href="#zoomPlus" x="17" y="9" onmousedown="handleZoom(evt,'in')"/>
  <use id="zoomminus" xlink:href="#zoomMin" x="42" y="9" onmousedown="handleZoom(evt,'out')"/>
  <use id="reset" xlink:href="#resetDef" x="30" y="36" onmousedown="handleReset()"/>
   <use id="arrowup" xlink:href="#arrowUp" x="0" y="0" onmousedown="handlePan(0,-1)"/>
  <use id="arrowright" xlink:href="#arrowRight" x="0" y="0" onmousedown="handlePan(1,0)"/>
  <use id="arrowdown" xlink:href="#arrowDown" x="0" y="0" onmousedown="handlePan(0,1)"/>
  <use id="arrowleft" xlink:href="#arrowLeft" x="0" y="0" onmousedown="handlePan(-1,0)"/>
</g>
<svg viewBox="0 0 15 15" width="100%" height="30px" preserveAspectRatio="xMaxYMin meet">
 <g id="arrow_out" transform="scale(0.3 0.3)">
  <a xlink:href="kest__context_8h_a46a337c8aa1724024c73026c74d90a39_icgraph_org.svg" target="_base">
   <rect id="button" ry="5" rx="5" y="6" x="6" height="38" width="38"
        fill="#f2f5e9" fill-opacity="0.5" stroke="#606060" stroke-width="1.0"/>
   <path id="arrow"
     d="M 11.500037,31.436501 C 11.940474,20.09759 22.043105,11.32322 32.158766,21.979434 L 37.068811,17.246167 C 37.068811,17.246167 37.088388,32 37.088388,32 L 22.160133,31.978069 C 22.160133,31.978069 26.997745,27.140456 26.997745,27.140456 C 18.528582,18.264221 13.291696,25.230495 11.500037,31.436501 z"
     style="fill:#404040;"/>
  </a>
 </g>
</svg>

<style type='text/css'>
<![CDATA[
[data-mouse-over-selected='false'] { opacity: 0.7; }
[data-mouse-over-selected='true']  { opacity: 1.0; }
]]>
</style>
<script type="application/ecmascript"><![CDATA[
document.addEventListener('DOMContentLoaded', (event) => {
  highlightEdges();
  highlightAdjacentNodes();
});
]]></script>
</svg>
