<?xml version="1.0" encoding="UTF-8" standalone="no"?>
<!DOCTYPE svg PUBLIC "-//W3C//DTD SVG 1.1//EN"
 "http://www.w3.org/Graphics/SVG/1.1/DTD/svg11.dtd">
<!-- Generated by graphviz version 13.1.2 (20250808.2320)
 -->
<!-- Title: kest_realloc Pages: 1 -->
<svg width="808pt" height="397pt"
 viewBox="0.00 0.00 808.00 397.00" xmlns="http://www.w3.org/2000/svg" xmlns:xlink="http://www.w3.org/1999/xlink">
<g id="graph0" class="graph" transform="scale(1 1) rotate(0) translate(4 392.8)">
<title>kest_realloc</title>
<!-- Node1 -->
<g id="Node000001" class="node">
<title>Node1</title>
<g id="a_Node000001"><a xlink:title=" ">
<polygon fill="#999999" stroke="#666666" points="800,-177.12 725.5,-177.12 725.5,-156.38 800,-156.38 800,-177.12"/>
<text xml:space="preserve" text-anchor="middle" x="762.75" y="-163.62" font-family="Helvetica,sans-Serif" font-size="10.00">kest_realloc</text>
</a>
</g>
</g>
<!-- Node2 -->
<g id="Node000002" class="node">
<title>Node2</title>
<g id="a_Node000002"><a xlink:href="kest__alloc_8c.html#aea68b9d53bda8bdbb23521bca9758a5e" target="_top" xlink:title=" ">
<polygon fill="white" stroke="#666666" points="682.38,-236.12 559.88,-236.12 559.88,-215.38 682.38,-215.38 682.38,-236.12"/>
<text xml:space="preserve" text-anchor="middle" x="621.12" y="-222.62" font-family="Helvetica,sans-Serif" font-size="10.00">kest_allocator_realloc</text>
</a>
</g>
</g>
<!-- Node1&#45;&gt;Node2 -->
<g id="edge1_Node000001_Node000002" class="edge">
<title>Node1&#45;&gt;Node2</title>
<g id="a_edge1_Node000001_Node000002"><a xlink:title=" ">
<path fill="none" stroke="#63b8ff" d="M734.27,-183.32C721.05,-190.84 704.78,-199.44 689.5,-205.75 681.27,-209.15 672.25,-212.24 663.57,-214.91"/>
<polygon fill="#63b8ff" stroke="#63b8ff" points="735.94,-186.4 742.83,-178.35 732.43,-180.34 735.94,-186.4"/>
</a>
</g>
</g>
<!-- Node3 -->
<g id="Node000003" class="node">
<title>Node3</title>
<g id="a_Node000003"><a xlink:href="kest__fpga__io_8c.html#a6900c9b759f1dccf1b3535cc76ad83e3" target="_top" xlink:title=" ">
<polygon fill="white" stroke="#666666" points="689.5,-197.12 552.75,-197.12 552.75,-176.38 689.5,-176.38 689.5,-197.12"/>
<text xml:space="preserve" text-anchor="middle" x="621.12" y="-183.62" font-family="Helvetica,sans-Serif" font-size="10.00">kest_fpga_batch_append</text>
</a>
</g>
</g>
<!-- Node1&#45;&gt;Node3 -->
<g id="edge2_Node000001_Node000003" class="edge">
<title>Node1&#45;&gt;Node3</title>
<g id="a_edge2_Node000001_Node000003"><a xlink:title=" ">
<path fill="none" stroke="#63b8ff" d="M713.74,-173.63C706.04,-174.73 697.95,-175.89 689.9,-177.04"/>
<polygon fill="#63b8ff" stroke="#63b8ff" points="714.16,-177.1 723.57,-172.22 713.17,-170.17 714.16,-177.1"/>
</a>
</g>
</g>
<!-- Node75 -->
<g id="Node000075" class="node">
<title>Node75</title>
<g id="a_Node000075"><a xlink:href="kest__fpga__io_8c.html#a92cb302dce33b90b44ae9320a70ae519" target="_top" xlink:title=" ">
<polygon fill="white" stroke="#666666" points="687.62,-158.12 554.62,-158.12 554.62,-137.38 687.62,-137.38 687.62,-158.12"/>
<text xml:space="preserve" text-anchor="middle" x="621.12" y="-144.62" font-family="Helvetica,sans-Serif" font-size="10.00">kest_fpga_batch_concat</text>
</a>
</g>
</g>
<!-- Node1&#45;&gt;Node75 -->
<g id="edge21_Node000001_Node000075" class="edge">
<title>Node1&#45;&gt;Node75</title>
<g id="a_edge21_Node000001_Node000075"><a xlink:title=" ">
<path fill="none" stroke="#63b8ff" d="M713.7,-160.21C705.41,-159.08 696.66,-157.89 688,-156.71"/>
<polygon fill="#63b8ff" stroke="#63b8ff" points="713.18,-163.67 723.57,-161.55 714.13,-156.74 713.18,-163.67"/>
</a>
</g>
</g>
<!-- Node76 -->
<g id="Node000076" class="node">
<title>Node76</title>
<g id="a_Node000076"><a xlink:href="kest__alloc_8c.html#a5c3f4d9424047272bf4987344a823cbf" target="_top" xlink:title=" ">
<polygon fill="white" stroke="#666666" points="665.88,-119.12 576.38,-119.12 576.38,-98.38 665.88,-98.38 665.88,-119.12"/>
<text xml:space="preserve" text-anchor="middle" x="621.12" y="-105.62" font-family="Helvetica,sans-Serif" font-size="10.00">lv_realloc_core</text>
</a>
</g>
</g>
<!-- Node1&#45;&gt;Node76 -->
<g id="edge22_Node000001_Node000076" class="edge">
<title>Node1&#45;&gt;Node76</title>
<g id="a_edge22_Node000001_Node000076"><a xlink:title=" ">
<path fill="none" stroke="#63b8ff" d="M733.68,-150.34C720.55,-143.1 704.52,-134.86 689.5,-128.75 681.14,-125.35 671.98,-122.24 663.18,-119.54"/>
<polygon fill="#63b8ff" stroke="#63b8ff" points="731.77,-153.28 742.2,-155.14 735.2,-147.18 731.77,-153.28"/>
</a>
</g>
</g>
<!-- Node4 -->
<g id="Node000004" class="node">
<title>Node4</title>
<g id="a_Node000004"><a xlink:href="kest__fpga__io_8c.html#a1d6d30e20ceac79973b36fd12e790aa5" target="_top" xlink:title=" ">
<polygon fill="white" stroke="#666666" points="516.75,-197.12 362.75,-197.12 362.75,-176.38 516.75,-176.38 516.75,-197.12"/>
<text xml:space="preserve" text-anchor="middle" x="439.75" y="-183.62" font-family="Helvetica,sans-Serif" font-size="10.00">kest_fpga_batch_append_16</text>
</a>
</g>
</g>
<!-- Node3&#45;&gt;Node4 -->
<g id="edge3_Node000003_Node000004" class="edge">
<title>Node3&#45;&gt;Node4</title>
<g id="a_edge3_Node000003_Node000004"><a xlink:title=" ">
<path fill="none" stroke="#63b8ff" d="M540.85,-186.75C532.95,-186.75 524.94,-186.75 517.07,-186.75"/>
<polygon fill="#63b8ff" stroke="#63b8ff" points="540.8,-190.25 550.8,-186.75 540.8,-183.25 540.8,-190.25"/>
</a>
</g>
</g>
<!-- Node5 -->
<g id="Node000005" class="node">
<title>Node5</title>
<g id="a_Node000005"><a xlink:href="kest__fpga__encoding_8c.html#a9b93bb2d500d5c9986515930a0f9ce47" target="_top" xlink:title=" ">
<polygon fill="white" stroke="#666666" points="318.12,-259.5 181.38,-259.5 181.38,-226 318.12,-226 318.12,-259.5"/>
<text xml:space="preserve" text-anchor="start" x="189.38" y="-246" font-family="Helvetica,sans-Serif" font-size="10.00">kest_fpga_batch_append</text>
<text xml:space="preserve" text-anchor="middle" x="249.75" y="-233.25" font-family="Helvetica,sans-Serif" font-size="10.00">_block_number</text>
</a>
</g>
</g>
<!-- Node3&#45;&gt;Node5 -->
<g id="edge16_Node000003_Node000005" class="edge">
<title>Node3&#45;&gt;Node5</title>
<g id="a_edge16_Node000003_Node000005"><a xlink:title=" ">
<path fill="none" stroke="#63b8ff" d="M552.38,-199.64C540.52,-201.77 528.29,-203.89 516.75,-205.75 449.43,-216.61 372.21,-227.14 318.38,-234.17"/>
<polygon fill="#63b8ff" stroke="#63b8ff" points="552.9,-203.1 562.11,-197.87 551.64,-196.21 552.9,-203.1"/>
</a>
</g>
</g>
<!-- Node6 -->
<g id="Node000006" class="node">
<title>Node6</title>
<g id="a_Node000006"><a xlink:href="kest__fpga__encoding_8c.html#a1e92fe0ff4b72e00fa5d840ec96508c7" target="_top" xlink:title=" ">
<polygon fill="#fff0f0" stroke="red" points="136.75,-342.5 0,-342.5 0,-309 136.75,-309 136.75,-342.5"/>
<text xml:space="preserve" text-anchor="start" x="8" y="-329" font-family="Helvetica,sans-Serif" font-size="10.00">kest_fpga_batch_append</text>
<text xml:space="preserve" text-anchor="middle" x="68.38" y="-316.25" font-family="Helvetica,sans-Serif" font-size="10.00">_block_instr</text>
</a>
</g>
</g>
<!-- Node3&#45;&gt;Node6 -->
<g id="edge15_Node000003_Node000006" class="edge">
<title>Node3&#45;&gt;Node6</title>
<g id="a_edge15_Node000003_Node000006"><a xlink:title=" ">
<path fill="none" stroke="#63b8ff" d="M556,-203.76C554.87,-204.7 553.78,-205.7 552.75,-206.75 511.01,-249.18 563.3,-298.65 516.75,-335.75 397.83,-430.54 199.2,-374.52 112.29,-342.9"/>
<polygon fill="#63b8ff" stroke="#63b8ff" points="557.8,-206.76 564.19,-198.32 553.93,-200.93 557.8,-206.76"/>
</a>
</g>
</g>
<!-- Node67 -->
<g id="Node000067" class="node">
<title>Node67</title>
<g id="a_Node000067"><a xlink:href="kest__fpga__encoding_8c.html#a1eb834a3d6799cabab146f2f942de3a5" target="_top" xlink:title=" ">
<polygon fill="#fff0f0" stroke="red" points="136.75,-259.5 0,-259.5 0,-226 136.75,-226 136.75,-259.5"/>
<text xml:space="preserve" text-anchor="start" x="8" y="-246" font-family="Helvetica,sans-Serif" font-size="10.00">kest_fpga_batch_append</text>
<text xml:space="preserve" text-anchor="middle" x="68.38" y="-233.25" font-family="Helvetica,sans-Serif" font-size="10.00">_block_register_updates</text>
</a>
</g>
</g>
<!-- Node3&#45;&gt;Node67 -->
<g id="edge17_Node000003_Node000067" class="edge">
<title>Node3&#45;&gt;Node67</title>
<g id="a_edge17_Node000003_Node000067"><a xlink:title=" ">
<path fill="none" stroke="#63b8ff" d="M565.99,-201.24C561.44,-202.93 556.98,-204.77 552.75,-206.75 535.34,-214.91 534.52,-223.39 516.75,-230.75 374.64,-289.61 325.4,-287.65 172.75,-268.75 157.78,-266.9 141.87,-263.59 127.13,-259.94"/>
<polygon fill="#63b8ff" stroke="#63b8ff" points="566.9,-204.63 575.21,-198.06 564.62,-198.02 566.9,-204.63"/>
</a>
</g>
</g>
<!-- Node70 -->
<g id="Node000070" class="node">
<title>Node70</title>
<g id="a_Node000070"><a xlink:href="kest__fpga__encoding_8c.html#a0c272bb9440b58f3546ad0f628d0daec" target="_top" xlink:title=" ">
<polygon fill="#fff0f0" stroke="red" points="136.75,-176.5 0,-176.5 0,-143 136.75,-143 136.75,-176.5"/>
<text xml:space="preserve" text-anchor="start" x="8" y="-163" font-family="Helvetica,sans-Serif" font-size="10.00">kest_fpga_batch_append</text>
<text xml:space="preserve" text-anchor="middle" x="68.38" y="-150.25" font-family="Helvetica,sans-Serif" font-size="10.00">_block_regs</text>
</a>
</g>
</g>
<!-- Node3&#45;&gt;Node70 -->
<g id="edge18_Node000003_Node000070" class="edge">
<title>Node3&#45;&gt;Node70</title>
<g id="a_edge18_Node000003_Node000070"><a xlink:title=" ">
<path fill="none" stroke="#63b8ff" d="M559.22,-173.88C545.32,-171.41 530.57,-169.16 516.75,-167.75 382.66,-154.11 224.84,-155.28 137.04,-157.46"/>
<polygon fill="#63b8ff" stroke="#63b8ff" points="558.19,-177.25 568.66,-175.62 559.46,-170.36 558.19,-177.25"/>
</a>
</g>
</g>
<!-- Node71 -->
<g id="Node000071" class="node">
<title>Node71</title>
<g id="a_Node000071"><a xlink:href="kest__fpga__encoding_8c.html#a3b6ea5da3d104a83a4e5fd1f668d9a91" target="_top" xlink:title=" ">
<polygon fill="#fff0f0" stroke="red" points="318.12,-93.5 181.38,-93.5 181.38,-60 318.12,-60 318.12,-93.5"/>
<text xml:space="preserve" text-anchor="start" x="189.38" y="-80" font-family="Helvetica,sans-Serif" font-size="10.00">kest_fpga_batch_append</text>
<text xml:space="preserve" text-anchor="middle" x="249.75" y="-67.25" font-family="Helvetica,sans-Serif" font-size="10.00">_resource</text>
</a>
</g>
</g>
<!-- Node3&#45;&gt;Node71 -->
<g id="edge19_Node000003_Node000071" class="edge">
<title>Node3&#45;&gt;Node71</title>
<g id="a_edge19_Node000003_Node000071"><a xlink:title=" ">
<path fill="none" stroke="#63b8ff" d="M557.28,-170.37C555.7,-169.24 554.19,-168.04 552.75,-166.75 521.91,-139.07 551.07,-103.96 516.75,-80.75 457.26,-40.51 371.9,-47.68 314.04,-59.51"/>
<polygon fill="#63b8ff" stroke="#63b8ff" points="555.22,-173.22 565.62,-175.26 558.76,-167.18 555.22,-173.22"/>
</a>
</g>
</g>
<!-- Node73 -->
<g id="Node000073" class="node">
<title>Node73</title>
<g id="a_Node000073"><a xlink:href="kest__fpga__io_8c.html#aa00adf9f96658a5c00b3d93dfa8c00de" target="_top" xlink:title=" ">
<polygon fill="white" stroke="#666666" points="516.75,-110.12 362.75,-110.12 362.75,-89.38 516.75,-89.38 516.75,-110.12"/>
<text xml:space="preserve" text-anchor="middle" x="439.75" y="-96.62" font-family="Helvetica,sans-Serif" font-size="10.00">kest_fpga_batch_append_24</text>
</a>
</g>
</g>
<!-- Node3&#45;&gt;Node73 -->
<g id="edge11_Node000003_Node000073" class="edge">
<title>Node3&#45;&gt;Node73</title>
<g id="a_edge11_Node000003_Node000073"><a xlink:title=" ">
<path fill="none" stroke="#63b8ff" d="M560.75,-171.36C557.98,-169.95 555.29,-168.42 552.75,-166.75 531.92,-153.07 537.46,-137.61 516.75,-123.75 508.47,-118.21 498.84,-113.89 489.27,-110.53"/>
<polygon fill="#63b8ff" stroke="#63b8ff" points="559.17,-174.49 569.73,-175.33 562,-168.09 559.17,-174.49"/>
</a>
</g>
</g>
<!-- Node74 -->
<g id="Node000074" class="node">
<title>Node74</title>
<g id="a_Node000074"><a xlink:href="kest__fpga__io_8c.html#ac7679b9a1a77f12aa23affb51346e3d4" target="_top" xlink:title=" ">
<polygon fill="white" stroke="#666666" points="326.75,-336.12 172.75,-336.12 172.75,-315.38 326.75,-315.38 326.75,-336.12"/>
<text xml:space="preserve" text-anchor="middle" x="249.75" y="-322.62" font-family="Helvetica,sans-Serif" font-size="10.00">kest_fpga_batch_append_32</text>
</a>
</g>
</g>
<!-- Node3&#45;&gt;Node74 -->
<g id="edge13_Node000003_Node000074" class="edge">
<title>Node3&#45;&gt;Node74</title>
<g id="a_edge13_Node000003_Node000074"><a xlink:title=" ">
<path fill="none" stroke="#63b8ff" d="M556.71,-203.45C555.33,-204.48 554.01,-205.58 552.75,-206.75 519.67,-237.48 552.71,-274.45 516.75,-301.75 456.46,-347.52 364.89,-344.67 306.46,-336.6"/>
<polygon fill="#63b8ff" stroke="#63b8ff" points="558.45,-206.48 565.17,-198.29 554.81,-200.5 558.45,-206.48"/>
</a>
</g>
</g>
<!-- Node12 -->
<g id="Node000012" class="node">
<title>Node12</title>
<g id="a_Node000012"><a xlink:href="kest__pipeline_8c.html#a7bb8f92d379766cce5cdc4b68d11818f" target="_top" xlink:title=" ">
<polygon fill="#fff0f0" stroke="red" points="499.12,-33.5 380.38,-33.5 380.38,0 499.12,0 499.12,-33.5"/>
<text xml:space="preserve" text-anchor="start" x="388.38" y="-20" font-family="Helvetica,sans-Serif" font-size="10.00">kest_pipeline_create</text>
<text xml:space="preserve" text-anchor="middle" x="439.75" y="-7.25" font-family="Helvetica,sans-Serif" font-size="10.00">_fpga_transfer_batch</text>
</a>
</g>
</g>
<!-- Node3&#45;&gt;Node12 -->
<g id="edge20_Node000003_Node000012" class="edge">
<title>Node3&#45;&gt;Node12</title>
<g id="a_edge20_Node000003_Node000012"><a xlink:title=" ">
<path fill="none" stroke="#63b8ff" d="M556.04,-169.71C554.89,-168.78 553.8,-167.79 552.75,-166.75 513.58,-127.78 553.95,-88.61 516.75,-47.75 511.76,-42.27 505.66,-37.74 499.11,-34"/>
<polygon fill="#63b8ff" stroke="#63b8ff" points="553.99,-172.56 564.27,-175.11 557.83,-166.7 553.99,-172.56"/>
</a>
</g>
</g>
<!-- Node4&#45;&gt;Node5 -->
<g id="edge4_Node000004_Node000005" class="edge">
<title>Node4&#45;&gt;Node5</title>
<g id="a_edge4_Node000004_Node000005"><a xlink:title=" ">
<path fill="none" stroke="#63b8ff" d="M391.72,-200.76C366.44,-208.29 335.07,-217.63 308.34,-225.6"/>
<polygon fill="#63b8ff" stroke="#63b8ff" points="392.47,-204.19 401.05,-197.98 390.47,-197.48 392.47,-204.19"/>
</a>
</g>
</g>
<!-- Node4&#45;&gt;Node67 -->
<g id="edge8_Node000004_Node000067" class="edge">
<title>Node4&#45;&gt;Node67</title>
<g id="a_edge8_Node000004_Node000067"><a xlink:title=" ">
<path fill="none" stroke="#63b8ff" d="M351.18,-193.65C299.1,-198.49 231.86,-206.03 172.75,-216.75 159.55,-219.14 145.53,-222.27 132.22,-225.51"/>
<polygon fill="#63b8ff" stroke="#63b8ff" points="351.25,-197.16 360.89,-192.76 350.61,-190.19 351.25,-197.16"/>
</a>
</g>
</g>
<!-- Node4&#45;&gt;Node70 -->
<g id="edge9_Node000004_Node000070" class="edge">
<title>Node4&#45;&gt;Node70</title>
<g id="a_edge9_Node000004_Node000070"><a xlink:title=" ">
<path fill="none" stroke="#63b8ff" d="M351.52,-180.37C285.89,-175.58 197.27,-169.1 136.98,-164.69"/>
<polygon fill="#63b8ff" stroke="#63b8ff" points="350.93,-183.84 361.15,-181.08 351.44,-176.86 350.93,-183.84"/>
</a>
</g>
</g>
<!-- Node4&#45;&gt;Node71 -->
<g id="edge10_Node000004_Node000071" class="edge">
<title>Node4&#45;&gt;Node71</title>
<g id="a_edge10_Node000004_Node000071"><a xlink:title=" ">
<path fill="none" stroke="#63b8ff" d="M410.77,-170.38C375.73,-149.88 315.96,-114.91 280.23,-94"/>
<polygon fill="#63b8ff" stroke="#63b8ff" points="408.68,-173.21 419.08,-175.24 412.21,-167.17 408.68,-173.21"/>
</a>
</g>
</g>
<!-- Node5&#45;&gt;Node6 -->
<g id="edge5_Node000005_Node000006" class="edge">
<title>Node5&#45;&gt;Node6</title>
<g id="a_edge5_Node000005_Node000006"><a xlink:title=" ">
<path fill="none" stroke="#63b8ff" d="M201.45,-264.64C171.76,-278.38 134.02,-295.84 106.49,-308.57"/>
<polygon fill="#63b8ff" stroke="#63b8ff" points="202.6,-267.96 210.21,-260.58 199.66,-261.61 202.6,-267.96"/>
</a>
</g>
</g>
<!-- Node5&#45;&gt;Node67 -->
<g id="edge6_Node000005_Node000067" class="edge">
<title>Node5&#45;&gt;Node67</title>
<g id="a_edge6_Node000005_Node000067"><a xlink:title=" ">
<path fill="none" stroke="#63b8ff" d="M169.68,-242.75C158.77,-242.75 147.66,-242.75 136.99,-242.75"/>
<polygon fill="#63b8ff" stroke="#63b8ff" points="169.42,-246.25 179.42,-242.75 169.42,-239.25 169.42,-246.25"/>
</a>
</g>
</g>
<!-- Node5&#45;&gt;Node70 -->
<g id="edge7_Node000005_Node000070" class="edge">
<title>Node5&#45;&gt;Node70</title>
<g id="a_edge7_Node000005_Node000070"><a xlink:title=" ">
<path fill="none" stroke="#63b8ff" d="M201.45,-220.86C171.76,-207.12 134.02,-189.66 106.49,-176.93"/>
<polygon fill="#63b8ff" stroke="#63b8ff" points="199.66,-223.89 210.21,-224.92 202.6,-217.54 199.66,-223.89"/>
</a>
</g>
</g>
<!-- Node73&#45;&gt;Node71 -->
<g id="edge12_Node000073_Node000071" class="edge">
<title>Node73&#45;&gt;Node71</title>
<g id="a_edge12_Node000073_Node000071"><a xlink:title=" ">
<path fill="none" stroke="#63b8ff" d="M350.95,-89.01C340.01,-87.67 328.96,-86.32 318.39,-85.03"/>
<polygon fill="#63b8ff" stroke="#63b8ff" points="350.43,-92.47 360.78,-90.21 351.28,-85.52 350.43,-92.47"/>
</a>
</g>
</g>
<!-- Node74&#45;&gt;Node6 -->
<g id="edge14_Node000074_Node000006" class="edge">
<title>Node74&#45;&gt;Node6</title>
<g id="a_edge14_Node000074_Node000006"><a xlink:title=" ">
<path fill="none" stroke="#63b8ff" d="M161.08,-325.75C153.03,-325.75 144.96,-325.75 137.12,-325.75"/>
<polygon fill="#63b8ff" stroke="#63b8ff" points="160.91,-329.25 170.91,-325.75 160.91,-322.25 160.91,-329.25"/>
</a>
</g>
</g>
</g>
</svg>
