<?xml version="1.0" encoding="UTF-8" standalone="no"?>
<!DOCTYPE svg PUBLIC "-//W3C//DTD SVG 1.1//EN"
 "http://www.w3.org/Graphics/SVG/1.1/DTD/svg11.dtd">
<!-- Generated by graphviz version 13.1.2 (20250808.2320)
 -->
<!-- Title: kest_danger_button_cancel_cb Pages: 1 -->
<svg width="573pt" height="42pt"
 viewBox="0.00 0.00 573.00 42.00" xmlns="http://www.w3.org/2000/svg" xmlns:xlink="http://www.w3.org/1999/xlink">
<g id="graph0" class="graph" transform="scale(1 1) rotate(0) translate(4 37.5)">
<title>kest_danger_button_cancel_cb</title>
<!-- Node1 -->
<g id="Node000001" class="node">
<title>Node1</title>
<g id="a_Node000001"><a xlink:title=" ">
<polygon fill="#999999" stroke="#666666" points="565,-33.5 453,-33.5 453,0 565,0 565,-33.5"/>
<text xml:space="preserve" text-anchor="start" x="461" y="-20" font-family="Helvetica,sans-Serif" font-size="10.00">kest_danger_button</text>
<text xml:space="preserve" text-anchor="middle" x="509" y="-7.25" font-family="Helvetica,sans-Serif" font-size="10.00">_cancel_cb</text>
</a>
</g>
</g>
<!-- Node2 -->
<g id="Node000002" class="node">
<title>Node2</title>
<g id="a_Node000002"><a xlink:href="kest__button_8c.html#ac7690c73fda7b52f35a47cb3c8b8e9cb" target="_top" xlink:title=" ">
<polygon fill="white" stroke="#666666" points="417,-33.5 304.25,-33.5 304.25,0 417,0 417,-33.5"/>
<text xml:space="preserve" text-anchor="start" x="312.25" y="-20" font-family="Helvetica,sans-Serif" font-size="10.00">kest_danger_button</text>
<text xml:space="preserve" text-anchor="middle" x="360.62" y="-7.25" font-family="Helvetica,sans-Serif" font-size="10.00">_activate_popup_cb</text>
</a>
</g>
</g>
<!-- Node1&#45;&gt;Node2 -->
<g id="edge1_Node000001_Node000002" class="edge">
<title>Node1&#45;&gt;Node2</title>
<g id="a_edge1_Node000001_Node000002"><a xlink:title=" ">
<path fill="none" stroke="#63b8ff" d="M441.3,-16.75C433.19,-16.75 424.97,-16.75 417.04,-16.75"/>
<polygon fill="#63b8ff" stroke="#63b8ff" points="441.15,-20.25 451.15,-16.75 441.15,-13.25 441.15,-20.25"/>
</a>
</g>
</g>
<!-- Node3 -->
<g id="Node000003" class="node">
<title>Node3</title>
<g id="a_Node000003"><a xlink:href="kest__button_8c.html#a382c34bb14e1a864798fce1072a1e876" target="_top" xlink:title=" ">
<polygon fill="white" stroke="#666666" points="268.25,-27.12 160.75,-27.12 160.75,-6.38 268.25,-6.38 268.25,-27.12"/>
<text xml:space="preserve" text-anchor="middle" x="214.5" y="-13.62" font-family="Helvetica,sans-Serif" font-size="10.00">init_danger_button</text>
</a>
</g>
</g>
<!-- Node2&#45;&gt;Node3 -->
<g id="edge2_Node000002_Node000003" class="edge">
<title>Node2&#45;&gt;Node3</title>
<g id="a_edge2_Node000002_Node000003"><a xlink:title=" ">
<path fill="none" stroke="#63b8ff" d="M292.65,-16.75C284.62,-16.75 276.51,-16.75 268.71,-16.75"/>
<polygon fill="#63b8ff" stroke="#63b8ff" points="292.39,-20.25 302.39,-16.75 292.39,-13.25 292.39,-20.25"/>
</a>
</g>
</g>
<!-- Node4 -->
<g id="Node000004" class="node">
<title>Node4</title>
<g id="a_Node000004"><a xlink:href="kest__menu_8c.html#a86c6c0acd2dfb8a62bd96bbfd739e687" target="_top" xlink:title=" ">
<polygon fill="#fff0f0" stroke="red" points="124.75,-27.12 0,-27.12 0,-6.38 124.75,-6.38 124.75,-27.12"/>
<text xml:space="preserve" text-anchor="middle" x="62.38" y="-13.62" font-family="Helvetica,sans-Serif" font-size="10.00">configure_main_menu</text>
</a>
</g>
</g>
<!-- Node3&#45;&gt;Node4 -->
<g id="edge3_Node000003_Node000004" class="edge">
<title>Node3&#45;&gt;Node4</title>
<g id="a_edge3_Node000003_Node000004"><a xlink:title=" ">
<path fill="none" stroke="#63b8ff" d="M149.07,-16.75C141.11,-16.75 132.98,-16.75 125.07,-16.75"/>
<polygon fill="#63b8ff" stroke="#63b8ff" points="149.06,-20.25 159.06,-16.75 149.06,-13.25 149.06,-20.25"/>
</a>
</g>
</g>
</g>
</svg>
