<?xml version="1.0" encoding="UTF-8" standalone="no"?>
<!DOCTYPE svg PUBLIC "-//W3C//DTD SVG 1.1//EN"
 "http://www.w3.org/Graphics/SVG/1.1/DTD/svg11.dtd">
<!-- Generated by graphviz version 13.1.2 (20250808.2320)
 -->
<!-- Title: free_profile Pages: 1 -->
<!--zoomable 236 -->

<svg id="main" version="1.1" xmlns="http://www.w3.org/2000/svg" xmlns:xlink="http://www.w3.org/1999/xlink" xml:space="preserve" onload="init(evt)">

<style type="text/css"><![CDATA[
.node, .edge {opacity: 0.7;}
.node.selected, .edge.selected {opacity: 1;}
.edge:hover path { stroke: red; }
.edge:hover polygon { stroke: red; fill: red; }
]]></style>

<defs>
  <circle id="rim" cx="0" cy="0" r="7"/>
  <circle id="rim2" cx="0" cy="0" r="3.5"/>
  <g id="zoomPlus">
    <use xlink:href="#rim" fill="#404040"><set attributeName="fill" to="#808080" begin="zoomplus.mouseover" end="zoomplus.mouseout"/></use>
    <path d="M-4,0h8M0,-4v8" fill="none" stroke="white" stroke-width="1.5" pointer-events="none"/>
  </g>
  <g id="zoomMin">
    <use xlink:href="#rim" fill="#404040"><set attributeName="fill" to="#808080" begin="zoomminus.mouseover" end="zoomminus.mouseout"/></use>
    <path d="M-4,0h8" fill="none" stroke="white" stroke-width="1.5" pointer-events="none"/>
  </g>
  <g id="arrowUp" transform="translate(30 24)">
    <use xlink:href="#rim"/>
    <path pointer-events="none" fill="none" stroke="white" stroke-width="1.5" d="M0,-3.0v7 M-2.5,-0.5L0,-3.0L2.5,-0.5"/>
  </g>
  <g id="arrowRight" transform="rotate(90) translate(36 -43)">
    <use xlink:href="#rim"/>
    <path pointer-events="none" fill="none" stroke="white" stroke-width="1.5" d="M0,-3.0v7 M-2.5,-0.5L0,-3.0L2.5,-0.5"/>
  </g>
  <g id="arrowDown" transform="rotate(180) translate(-30 -48)">
    <use xlink:href="#rim"/>
    <path pointer-events="none" fill="none" stroke="white" stroke-width="1.5" d="M0,-3.0v7 M-2.5,-0.5L0,-3.0L2.5,-0.5"/>
  </g>
  <g id="arrowLeft" transform="rotate(270) translate(-36 17)">
    <use xlink:href="#rim"/>
    <path pointer-events="none" fill="none" stroke="white" stroke-width="1.5" d="M0,-3.0v7 M-2.5,-0.5L0,-3.0L2.5,-0.5"/>
  </g>
  <g id="resetDef">
    <use xlink:href="#rim2" fill="#404040"><set attributeName="fill" to="#808080" begin="reset.mouseover" end="reset.mouseout"/></use>
  </g>
</defs>
<script type="application/ecmascript">
var viewWidth = 587;
var viewHeight = 236;
var sectionId = 'dynsection-3';
</script>
<script type="application/ecmascript" xlink:href="svg.min.js"/>
<svg id="graph" class="graph">
<g id="viewport">
<title>free_profile</title>
<!-- Node1 -->
<g id="Node000001" class="node">
<title>Node1</title>
<g id="a_Node000001"><a xlink:title=" ">
<polygon fill="#999999" stroke="#666666" points="579.25,-143.75 507,-143.75 507,-123 579.25,-123 579.25,-143.75"/>
<text xml:space="preserve" text-anchor="middle" x="543.12" y="-130.25" font-family="Helvetica,sans-Serif" font-size="10.00">free_profile</text>
</a>
</g>
</g>
<!-- Node2 -->
<g id="Node000002" class="node">
<title>Node2</title>
<g id="a_Node000002"><a xlink:href="kest__context_8c.html#ab19b648605d92ec27c6810d982218956" target="_top" xlink:title=" ">
<polygon fill="white" stroke="#666666" points="449.62,-221.75 339.12,-221.75 339.12,-201 449.62,-201 449.62,-221.75"/>
<text xml:space="preserve" text-anchor="middle" x="394.38" y="-208.25" font-family="Helvetica,sans-Serif" font-size="10.00">cxt_remove_profile</text>
</a>
</g>
</g>
<!-- Node1&#45;&gt;Node2 -->
<g id="edge1_Node000001_Node000002" class="edge">
<title>Node1&#45;&gt;Node2</title>
<g id="a_edge1_Node000001_Node000002"><a xlink:title=" ">
<path fill="none" stroke="#63b8ff" d="M524.11,-151.77C510.59,-164.59 491.03,-181.17 471,-191.38 463.86,-195.01 456,-198.04 448.12,-200.54"/>
<polygon fill="#63b8ff" stroke="#63b8ff" points="526.28,-154.54 530.98,-145.05 521.38,-149.54 526.28,-154.54"/>
</a>
</g>
</g>
<!-- Node15 -->
<g id="Node000015" class="node">
<title>Node15</title>
<g id="a_Node000015"><a xlink:href="kest__context_8c.html#a197c4a2d342fa09268805b00cdcfaff0" target="_top" xlink:title=" ">
<polygon fill="white" stroke="#666666" points="463.5,-182.75 325.25,-182.75 325.25,-162 463.5,-162 463.5,-182.75"/>
<text xml:space="preserve" text-anchor="middle" x="394.38" y="-169.25" font-family="Helvetica,sans-Serif" font-size="10.00">kest_context_add_profile</text>
</a>
</g>
</g>
<!-- Node1&#45;&gt;Node15 -->
<g id="edge4_Node000001_Node000015" class="edge">
<title>Node1&#45;&gt;Node15</title>
<g id="a_edge4_Node000001_Node000015"><a xlink:title=" ">
<path fill="none" stroke="#63b8ff" d="M495.69,-145.8C487.47,-147.99 478.98,-150.25 471,-152.38 459.71,-155.38 447.47,-158.62 436.2,-161.6"/>
<polygon fill="#63b8ff" stroke="#63b8ff" points="496.45,-149.22 505.21,-143.25 494.65,-142.45 496.45,-149.22"/>
</a>
</g>
</g>
<!-- Node16 -->
<g id="Node000016" class="node">
<title>Node16</title>
<g id="a_Node000016"><a xlink:href="kest__context_8c.html#a6940c938261204306d9a9b789bee846f" target="_top" xlink:title=" ">
<polygon fill="white" stroke="#666666" points="471,-143.75 317.75,-143.75 317.75,-123 471,-123 471,-143.75"/>
<text xml:space="preserve" text-anchor="middle" x="394.38" y="-130.25" font-family="Helvetica,sans-Serif" font-size="10.00">kest_context_add_profile_rp</text>
</a>
</g>
</g>
<!-- Node1&#45;&gt;Node16 -->
<g id="edge5_Node000001_Node000016" class="edge">
<title>Node1&#45;&gt;Node16</title>
<g id="a_edge5_Node000001_Node000016"><a xlink:title=" ">
<path fill="none" stroke="#63b8ff" d="M495.11,-133.38C487.54,-133.38 479.53,-133.38 471.48,-133.38"/>
<polygon fill="#63b8ff" stroke="#63b8ff" points="495.09,-136.88 505.09,-133.38 495.09,-129.88 495.09,-136.88"/>
</a>
</g>
</g>
<!-- Node18 -->
<g id="Node000018" class="node">
<title>Node18</title>
<g id="a_Node000018"><a xlink:href="kest__profile_8c.html#ab38a025bc4dfed358b6a783cffbda73d" target="_top" xlink:title=" ">
<polygon fill="white" stroke="#666666" points="443.25,-104.75 345.5,-104.75 345.5,-84 443.25,-84 443.25,-104.75"/>
<text xml:space="preserve" text-anchor="middle" x="394.38" y="-91.25" font-family="Helvetica,sans-Serif" font-size="10.00">kest_free_profile</text>
</a>
</g>
</g>
<!-- Node1&#45;&gt;Node18 -->
<g id="edge7_Node000001_Node000018" class="edge">
<title>Node1&#45;&gt;Node18</title>
<g id="a_edge7_Node000001_Node000018"><a xlink:title=" ">
<path fill="none" stroke="#63b8ff" d="M495.69,-120.95C487.47,-118.76 478.98,-116.5 471,-114.38 459.71,-111.37 447.47,-108.13 436.2,-105.15"/>
<polygon fill="#63b8ff" stroke="#63b8ff" points="494.65,-124.3 505.21,-123.5 496.45,-117.53 494.65,-124.3"/>
</a>
</g>
</g>
<!-- Node26 -->
<g id="Node000026" class="node">
<title>Node26</title>
<g id="a_Node000026"><a xlink:href="kest__files_8c.html#a9a8521ad7db2dd3514b6ece8c4d6d787" target="_top" xlink:title=" ">
<polygon fill="white" stroke="#666666" points="451.12,-59.75 337.62,-59.75 337.62,-39 451.12,-39 451.12,-59.75"/>
<text xml:space="preserve" text-anchor="middle" x="394.38" y="-46.25" font-family="Helvetica,sans-Serif" font-size="10.00">load_saved_profiles</text>
</a>
</g>
</g>
<!-- Node1&#45;&gt;Node26 -->
<g id="edge10_Node000001_Node000026" class="edge">
<title>Node1&#45;&gt;Node26</title>
<g id="a_edge10_Node000001_Node000026"><a xlink:title=" ">
<path fill="none" stroke="#63b8ff" d="M523.4,-114.97C509.79,-102.42 490.42,-86.18 471,-75.38 459.96,-69.23 447.21,-64.17 435.37,-60.2"/>
<polygon fill="#63b8ff" stroke="#63b8ff" points="520.68,-117.22 530.35,-121.55 525.49,-112.14 520.68,-117.22"/>
</a>
</g>
</g>
<!-- Node3 -->
<g id="Node000003" class="node">
<title>Node3</title>
<g id="a_Node000003"><a xlink:href="kest__menu_8c.html#a33b1b7cde7c97dfddede16dae1536481" target="_top" xlink:title=" ">
<polygon fill="white" stroke="#666666" points="279.12,-228.12 160.38,-228.12 160.38,-194.62 279.12,-194.62 279.12,-228.12"/>
<text xml:space="preserve" text-anchor="start" x="168.38" y="-214.62" font-family="Helvetica,sans-Serif" font-size="10.00">profile_listing_delete</text>
<text xml:space="preserve" text-anchor="middle" x="219.75" y="-201.88" font-family="Helvetica,sans-Serif" font-size="10.00">_button_cb</text>
</a>
</g>
</g>
<!-- Node2&#45;&gt;Node3 -->
<g id="edge2_Node000002_Node000003" class="edge">
<title>Node2&#45;&gt;Node3</title>
<g id="a_edge2_Node000002_Node000003"><a xlink:title=" ">
<path fill="none" stroke="#63b8ff" d="M327.46,-211.38C311.68,-211.38 294.93,-211.38 279.49,-211.38"/>
<polygon fill="#63b8ff" stroke="#63b8ff" points="327.24,-214.88 337.24,-211.38 327.24,-207.88 327.24,-214.88"/>
</a>
</g>
</g>
<!-- Node4 -->
<g id="Node000004" class="node">
<title>Node4</title>
<g id="a_Node000004"><a xlink:href="kest__menu_8c.html#aa44b42640611d3ca75f6b55206ebd08e" target="_top" xlink:title=" ">
<polygon fill="#fff0f0" stroke="red" points="121.75,-221.75 0,-221.75 0,-201 121.75,-201 121.75,-221.75"/>
<text xml:space="preserve" text-anchor="middle" x="60.88" y="-208.25" font-family="Helvetica,sans-Serif" font-size="10.00">create_menu_item_ui</text>
</a>
</g>
</g>
<!-- Node3&#45;&gt;Node4 -->
<g id="edge3_Node000003_Node000004" class="edge">
<title>Node3&#45;&gt;Node4</title>
<g id="a_edge3_Node000003_Node000004"><a xlink:title=" ">
<path fill="none" stroke="#63b8ff" d="M148.45,-211.38C139.66,-211.38 130.73,-211.38 122.11,-211.38"/>
<polygon fill="#63b8ff" stroke="#63b8ff" points="148.38,-214.88 158.38,-211.38 148.38,-207.88 148.38,-214.88"/>
</a>
</g>
</g>
<!-- Node17 -->
<g id="Node000017" class="node">
<title>Node17</title>
<g id="a_Node000017"><a xlink:href="kest__profile_8c.html#a9222b6f2a0efa93ce0168e1bb530d733" target="_top" xlink:title=" ">
<polygon fill="white" stroke="#666666" points="274.25,-163.12 165.25,-163.12 165.25,-129.62 274.25,-129.62 274.25,-163.12"/>
<text xml:space="preserve" text-anchor="start" x="173.25" y="-149.62" font-family="Helvetica,sans-Serif" font-size="10.00">create_new_profile</text>
<text xml:space="preserve" text-anchor="middle" x="219.75" y="-136.88" font-family="Helvetica,sans-Serif" font-size="10.00">_with_teensy</text>
</a>
</g>
</g>
<!-- Node16&#45;&gt;Node17 -->
<g id="edge6_Node000016_Node000017" class="edge">
<title>Node16&#45;&gt;Node17</title>
<g id="a_edge6_Node000016_Node000017"><a xlink:title=" ">
<path fill="none" stroke="#63b8ff" d="M306.23,-139.94C295.49,-140.75 284.77,-141.55 274.72,-142.31"/>
<polygon fill="#63b8ff" stroke="#63b8ff" points="306.19,-143.45 315.9,-139.21 305.66,-136.47 306.19,-143.45"/>
</a>
</g>
</g>
<!-- Node19 -->
<g id="Node000019" class="node">
<title>Node19</title>
<g id="a_Node000019"><a xlink:href="kest__sequence_8c.html#a8e1bb657ea395200ce33bd762732bbdb" target="_top" xlink:title=" ">
<polygon fill="white" stroke="#666666" points="281.75,-111.12 157.75,-111.12 157.75,-77.62 281.75,-77.62 281.75,-111.12"/>
<text xml:space="preserve" text-anchor="start" x="165.75" y="-97.62" font-family="Helvetica,sans-Serif" font-size="10.00">kest_sequence_delete</text>
<text xml:space="preserve" text-anchor="middle" x="219.75" y="-84.88" font-family="Helvetica,sans-Serif" font-size="10.00">_profile</text>
</a>
</g>
</g>
<!-- Node18&#45;&gt;Node19 -->
<g id="edge8_Node000018_Node000019" class="edge">
<title>Node18&#45;&gt;Node19</title>
<g id="a_edge8_Node000018_Node000019"><a xlink:title=" ">
<path fill="none" stroke="#63b8ff" d="M333.98,-94.38C317.25,-94.38 299.01,-94.38 282.17,-94.38"/>
<polygon fill="#63b8ff" stroke="#63b8ff" points="333.78,-97.88 343.78,-94.38 333.78,-90.88 333.78,-97.88"/>
</a>
</g>
</g>
<!-- Node20 -->
<g id="Node000020" class="node">
<title>Node20</title>
<g id="a_Node000020"><a xlink:href="kest__sequence__view_8c.html#aa3f0ce5b257c2a9a76df997c35718cbd" target="_top" xlink:title=" ">
<polygon fill="#fff0f0" stroke="red" points="118,-104.75 3.75,-104.75 3.75,-84 118,-84 118,-104.75"/>
<text xml:space="preserve" text-anchor="middle" x="60.88" y="-91.25" font-family="Helvetica,sans-Serif" font-size="10.00">seq_view_delete_cb</text>
</a>
</g>
</g>
<!-- Node19&#45;&gt;Node20 -->
<g id="edge9_Node000019_Node000020" class="edge">
<title>Node19&#45;&gt;Node20</title>
<g id="a_edge9_Node000019_Node000020"><a xlink:title=" ">
<path fill="none" stroke="#63b8ff" d="M146.33,-94.38C136.97,-94.38 127.5,-94.38 118.45,-94.38"/>
<polygon fill="#63b8ff" stroke="#63b8ff" points="146.14,-97.88 156.14,-94.38 146.14,-90.88 146.14,-97.88"/>
</a>
</g>
</g>
<!-- Node9 -->
<g id="Node000009" class="node">
<title>Node9</title>
<g id="a_Node000009"><a xlink:href="kest__int_8c.html#abce06be17fc37d675118a678a8100a36" target="_top" xlink:title=" ">
<polygon fill="white" stroke="#666666" points="251.75,-59.75 187.75,-59.75 187.75,-39 251.75,-39 251.75,-59.75"/>
<text xml:space="preserve" text-anchor="middle" x="219.75" y="-46.25" font-family="Helvetica,sans-Serif" font-size="10.00">app_main</text>
</a>
</g>
</g>
<!-- Node26&#45;&gt;Node9 -->
<g id="edge11_Node000026_Node000009" class="edge">
<title>Node26&#45;&gt;Node9</title>
<g id="a_edge11_Node000026_Node000009"><a xlink:title=" ">
<path fill="none" stroke="#63b8ff" d="M326.15,-49.38C300.54,-49.38 272.57,-49.38 251.89,-49.38"/>
<polygon fill="#63b8ff" stroke="#63b8ff" points="325.82,-52.88 335.82,-49.38 325.82,-45.88 325.82,-52.88"/>
</a>
</g>
</g>
<!-- Node10 -->
<g id="Node000010" class="node">
<title>Node10</title>
<g id="a_Node000010"><a xlink:href="kest__desktop_8c.html#ab499a4f71ef4cfc807b60d8739750c3e" target="_top" xlink:title=" ">
<polygon fill="#fff0f0" stroke="red" points="253.25,-20.75 186.25,-20.75 186.25,0 253.25,0 253.25,-20.75"/>
<text xml:space="preserve" text-anchor="middle" x="219.75" y="-7.25" font-family="Helvetica,sans-Serif" font-size="10.00">main_task</text>
</a>
</g>
</g>
<!-- Node26&#45;&gt;Node10 -->
<g id="edge12_Node000026_Node000010" class="edge">
<title>Node26&#45;&gt;Node10</title>
<g id="a_edge12_Node000026_Node000010"><a xlink:title=" ">
<path fill="none" stroke="#63b8ff" d="M334.38,-36.05C307.36,-29.94 276.36,-22.94 253.57,-17.79"/>
<polygon fill="#63b8ff" stroke="#63b8ff" points="333.29,-39.39 343.81,-38.18 334.83,-32.56 333.29,-39.39"/>
</a>
</g>
</g>
</g>
</svg>

<g id="navigator" transform="translate(0 0)" fill="#404254">
  <rect fill="#f2f5e9" fill-opacity="0.5" stroke="#606060" stroke-width=".5" x="0" y="0" width="60" height="60"/>
  <use id="zoomplus" xlink:href="#zoomPlus" x="17" y="9" onmousedown="handleZoom(evt,'in')"/>
  <use id="zoomminus" xlink:href="#zoomMin" x="42" y="9" onmousedown="handleZoom(evt,'out')"/>
  <use id="reset" xlink:href="#resetDef" x="30" y="36" onmousedown="handleReset()"/>
   <use id="arrowup" xlink:href="#arrowUp" x="0" y="0" onmousedown="handlePan(0,-1)"/>
  <use id="arrowright" xlink:href="#arrowRight" x="0" y="0" onmousedown="handlePan(1,0)"/>
  <use id="arrowdown" xlink:href="#arrowDown" x="0" y="0" onmousedown="handlePan(0,1)"/>
  <use id="arrowleft" xlink:href="#arrowLeft" x="0" y="0" onmousedown="handlePan(-1,0)"/>
</g>
<svg viewBox="0 0 15 15" width="100%" height="30px" preserveAspectRatio="xMaxYMin meet">
 <g id="arrow_out" transform="scale(0.3 0.3)">
  <a xlink:href="kest__profile_8h_a7b50c42b3345fa0351fae2af60150ab1_icgraph_org.svg" target="_base">
   <rect id="button" ry="5" rx="5" y="6" x="6" height="38" width="38"
        fill="#f2f5e9" fill-opacity="0.5" stroke="#606060" stroke-width="1.0"/>
   <path id="arrow"
     d="M 11.500037,31.436501 C 11.940474,20.09759 22.043105,11.32322 32.158766,21.979434 L 37.068811,17.246167 C 37.068811,17.246167 37.088388,32 37.088388,32 L 22.160133,31.978069 C 22.160133,31.978069 26.997745,27.140456 26.997745,27.140456 C 18.528582,18.264221 13.291696,25.230495 11.500037,31.436501 z"
     style="fill:#404040;"/>
  </a>
 </g>
</svg>

<style type='text/css'>
<![CDATA[
[data-mouse-over-selected='false'] { opacity: 0.7; }
[data-mouse-over-selected='true']  { opacity: 1.0; }
]]>
</style>
<script type="application/ecmascript"><![CDATA[
document.addEventListener('DOMContentLoaded', (event) => {
  highlightEdges();
  highlightAdjacentNodes();
});
]]></script>
</svg>
