<?xml version="1.0" encoding="UTF-8" standalone="no"?>
<!DOCTYPE svg PUBLIC "-//W3C//DTD SVG 1.1//EN"
 "http://www.w3.org/Graphics/SVG/1.1/DTD/svg11.dtd">
<!-- Generated by graphviz version 13.1.2 (20250808.2320)
 -->
<!-- Title: kest_effect_view_str Pages: 1 -->
<!--zoomable 447 -->

<svg id="main" version="1.1" xmlns="http://www.w3.org/2000/svg" xmlns:xlink="http://www.w3.org/1999/xlink" xml:space="preserve" onload="init(evt)">

<style type="text/css"><![CDATA[
.node, .edge {opacity: 0.7;}
.node.selected, .edge.selected {opacity: 1;}
.edge:hover path { stroke: red; }
.edge:hover polygon { stroke: red; fill: red; }
]]></style>

<defs>
  <circle id="rim" cx="0" cy="0" r="7"/>
  <circle id="rim2" cx="0" cy="0" r="3.5"/>
  <g id="zoomPlus">
    <use xlink:href="#rim" fill="#404040"><set attributeName="fill" to="#808080" begin="zoomplus.mouseover" end="zoomplus.mouseout"/></use>
    <path d="M-4,0h8M0,-4v8" fill="none" stroke="white" stroke-width="1.5" pointer-events="none"/>
  </g>
  <g id="zoomMin">
    <use xlink:href="#rim" fill="#404040"><set attributeName="fill" to="#808080" begin="zoomminus.mouseover" end="zoomminus.mouseout"/></use>
    <path d="M-4,0h8" fill="none" stroke="white" stroke-width="1.5" pointer-events="none"/>
  </g>
  <g id="arrowUp" transform="translate(30 24)">
    <use xlink:href="#rim"/>
    <path pointer-events="none" fill="none" stroke="white" stroke-width="1.5" d="M0,-3.0v7 M-2.5,-0.5L0,-3.0L2.5,-0.5"/>
  </g>
  <g id="arrowRight" transform="rotate(90) translate(36 -43)">
    <use xlink:href="#rim"/>
    <path pointer-events="none" fill="none" stroke="white" stroke-width="1.5" d="M0,-3.0v7 M-2.5,-0.5L0,-3.0L2.5,-0.5"/>
  </g>
  <g id="arrowDown" transform="rotate(180) translate(-30 -48)">
    <use xlink:href="#rim"/>
    <path pointer-events="none" fill="none" stroke="white" stroke-width="1.5" d="M0,-3.0v7 M-2.5,-0.5L0,-3.0L2.5,-0.5"/>
  </g>
  <g id="arrowLeft" transform="rotate(270) translate(-36 17)">
    <use xlink:href="#rim"/>
    <path pointer-events="none" fill="none" stroke="white" stroke-width="1.5" d="M0,-3.0v7 M-2.5,-0.5L0,-3.0L2.5,-0.5"/>
  </g>
  <g id="resetDef">
    <use xlink:href="#rim2" fill="#404040"><set attributeName="fill" to="#808080" begin="reset.mouseover" end="reset.mouseout"/></use>
  </g>
</defs>
<script type="application/ecmascript">
var viewWidth = 941;
var viewHeight = 447;
var sectionId = 'dynsection-0';
</script>
<script type="application/ecmascript" xlink:href="svg.min.js"/>
<svg id="graph" class="graph">
<g id="viewport">
<title>kest_effect_view_str</title>
<!-- Node1 -->
<g id="Node000001" class="node">
<title>Node1</title>
<g id="a_Node000001"><a xlink:title=" ">
<polygon fill="#999999" stroke="#666666" points="932.75,-133.75 816.25,-133.75 816.25,-113 932.75,-113 932.75,-133.75"/>
<text xml:space="preserve" text-anchor="middle" x="874.5" y="-120.25" font-family="Helvetica,sans-Serif" font-size="10.00">kest_effect_view_str</text>
</a>
</g>
</g>
<!-- Node2 -->
<g id="Node000002" class="node">
<title>Node2</title>
<g id="a_Node000002"><a xlink:href="structkest__effect.html" target="_top" xlink:title=" ">
<polygon fill="white" stroke="#666666" points="701.12,-219.75 631.12,-219.75 631.12,-199 701.12,-199 701.12,-219.75"/>
<text xml:space="preserve" text-anchor="middle" x="666.12" y="-206.25" font-family="Helvetica,sans-Serif" font-size="10.00">kest_effect</text>
</a>
</g>
</g>
<!-- Node2&#45;&gt;Node1 -->
<g id="edge1_Node000001_Node000002" class="edge">
<title>Node2&#45;&gt;Node1</title>
<g id="a_edge1_Node000001_Node000002"><a xlink:title=" ">
<path fill="none" stroke="#9a32cd" stroke-dasharray="5,2" d="M703.26,-194.32C744.51,-177.13 810.97,-149.43 847.46,-134.23"/>
<polygon fill="#9a32cd" stroke="#9a32cd" points="702.13,-191 694.24,-198.07 704.82,-197.46 702.13,-191"/>
</a>
</g>
<text xml:space="preserve" text-anchor="start" x="746.88" y="-190.21" font-family="Helvetica,sans-Serif" font-size="10.00" fill="grey">effect</text>
</g>
<!-- Node3 -->
<g id="Node000003" class="node">
<title>Node3</title>
<g id="a_Node000003"><a xlink:href="structkest__parameter.html" target="_top" xlink:title=" ">
<polygon fill="white" stroke="#666666" points="312.12,-338.75 219.62,-338.75 219.62,-318 312.12,-318 312.12,-338.75"/>
<text xml:space="preserve" text-anchor="middle" x="265.88" y="-325.25" font-family="Helvetica,sans-Serif" font-size="10.00">kest_parameter</text>
</a>
</g>
</g>
<!-- Node3&#45;&gt;Node2 -->
<g id="edge2_Node000002_Node000003" class="edge">
<title>Node3&#45;&gt;Node2</title>
<g id="a_edge2_Node000002_Node000003"><a xlink:title=" ">
<path fill="none" stroke="#9a32cd" stroke-dasharray="5,2" d="M323.63,-320.38C392.87,-309.33 512.52,-286.01 608.25,-245.38 623.74,-238.8 639.8,-228.23 650.89,-220.24"/>
<polygon fill="#9a32cd" stroke="#9a32cd" points="323.39,-316.88 314.05,-321.88 324.47,-323.79 323.39,-316.88"/>
</a>
</g>
<text xml:space="preserve" text-anchor="start" x="433.75" y="-376.32" font-family="Helvetica,sans-Serif" font-size="10.00" fill="grey">band_center</text>
<text xml:space="preserve" text-anchor="start" x="433.75" y="-359.57" font-family="Helvetica,sans-Serif" font-size="10.00" fill="grey">band_hp_cutoff</text>
<text xml:space="preserve" text-anchor="start" x="433.75" y="-342.82" font-family="Helvetica,sans-Serif" font-size="10.00" fill="grey">band_lp_cutoff</text>
<text xml:space="preserve" text-anchor="start" x="433.75" y="-326.07" font-family="Helvetica,sans-Serif" font-size="10.00" fill="grey">band_width</text>
<text xml:space="preserve" text-anchor="start" x="433.75" y="-309.32" font-family="Helvetica,sans-Serif" font-size="10.00" fill="grey">wet_mix</text>
</g>
<!-- Node9 -->
<g id="Node000009" class="node">
<title>Node9</title>
<g id="a_Node000009"><a xlink:href="structkest__profile.html" target="_top" xlink:title=" ">
<polygon fill="white" stroke="#666666" points="507.75,-430.75 434.75,-430.75 434.75,-410 507.75,-410 507.75,-430.75"/>
<text xml:space="preserve" text-anchor="middle" x="471.25" y="-417.25" font-family="Helvetica,sans-Serif" font-size="10.00">kest_profile</text>
</a>
</g>
</g>
<!-- Node3&#45;&gt;Node9 -->
<g id="edge11_Node000009_Node000003" class="edge">
<title>Node3&#45;&gt;Node9</title>
<g id="a_edge11_Node000009_Node000003"><a xlink:title=" ">
<path fill="none" stroke="#9a32cd" stroke-dasharray="5,2" d="M300.54,-344.01C330.56,-357.91 375.74,-378.7 415.25,-396.38 425.05,-400.76 435.86,-405.5 445.29,-409.6"/>
<polygon fill="#9a32cd" stroke="#9a32cd" points="302.12,-340.89 291.57,-339.86 299.18,-347.24 302.12,-340.89"/>
</a>
</g>
<text xml:space="preserve" text-anchor="start" x="356.38" y="-393.52" font-family="Helvetica,sans-Serif" font-size="10.00" fill="grey">volume</text>
</g>
<!-- Node4 -->
<g id="Node000004" class="node">
<title>Node4</title>
<g id="a_Node000004"><a xlink:href="structkest__expression.html" target="_top" xlink:title=" ">
<polygon fill="white" stroke="#666666" points="100.75,-359.75 6,-359.75 6,-339 100.75,-339 100.75,-359.75"/>
<text xml:space="preserve" text-anchor="middle" x="53.38" y="-346.25" font-family="Helvetica,sans-Serif" font-size="10.00">kest_expression</text>
</a>
</g>
</g>
<!-- Node4&#45;&gt;Node3 -->
<g id="edge3_Node000003_Node000004" class="edge">
<title>Node4&#45;&gt;Node3</title>
<g id="a_edge3_Node000003_Node000004"><a xlink:title=" ">
<path fill="none" stroke="#9a32cd" stroke-dasharray="5,2" d="M112.2,-343.61C145.97,-340.24 187.98,-336.05 219.37,-332.91"/>
<polygon fill="#9a32cd" stroke="#9a32cd" points="112.2,-340.09 102.6,-344.56 112.9,-347.05 112.2,-340.09"/>
</a>
</g>
<text xml:space="preserve" text-anchor="start" x="127.75" y="-364.98" font-family="Helvetica,sans-Serif" font-size="10.00" fill="grey">max_expr</text>
<text xml:space="preserve" text-anchor="start" x="127.75" y="-348.23" font-family="Helvetica,sans-Serif" font-size="10.00" fill="grey">min_expr</text>
</g>
<!-- Node4&#45;&gt;Node4 -->
<g id="edge4_Node000004_Node000004" class="edge">
<title>Node4&#45;&gt;Node4</title>
<g id="a_edge4_Node000004_Node000004"><a xlink:title=" ">
<path fill="none" stroke="#9a32cd" stroke-dasharray="5,2" d="M36.2,-371.56C38.63,-375.23 44.36,-377.75 53.38,-377.75 70.35,-377.75 75.65,-368.81 69.29,-360.15"/>
<polygon fill="#9a32cd" stroke="#9a32cd" points="39.68,-371.98 37.3,-361.65 32.72,-371.21 39.68,-371.98"/>
</a>
</g>
<text xml:space="preserve" text-anchor="start" x="28.62" y="-384" font-family="Helvetica,sans-Serif" font-size="10.00" fill="grey">sub_exprs</text>
</g>
<!-- Node5 -->
<g id="Node000005" class="node">
<title>Node5</title>
<g id="a_Node000005"><a xlink:href="structkest__parameter__id.html" target="_top" xlink:title=" ">
<polygon fill="white" stroke="#666666" points="106.75,-317.75 0,-317.75 0,-297 106.75,-297 106.75,-317.75"/>
<text xml:space="preserve" text-anchor="middle" x="53.38" y="-304.25" font-family="Helvetica,sans-Serif" font-size="10.00">kest_parameter_id</text>
</a>
</g>
</g>
<!-- Node5&#45;&gt;Node3 -->
<g id="edge5_Node000003_Node000005" class="edge">
<title>Node5&#45;&gt;Node3</title>
<g id="a_edge5_Node000003_Node000005"><a xlink:title=" ">
<path fill="none" stroke="#9a32cd" stroke-dasharray="5,2" d="M118.43,-309.83C138.06,-310.92 159.7,-312.46 179.5,-314.62 192.48,-316.04 206.5,-318.09 219.35,-320.16"/>
<polygon fill="#9a32cd" stroke="#9a32cd" points="118.82,-306.35 108.65,-309.32 118.45,-313.34 118.82,-306.35"/>
</a>
</g>
<text xml:space="preserve" text-anchor="start" x="147.62" y="-320.88" font-family="Helvetica,sans-Serif" font-size="10.00" fill="grey">id</text>
</g>
<!-- Node6 -->
<g id="Node000006" class="node">
<title>Node6</title>
<g id="a_Node000006"><a xlink:href="structkest__setting.html" target="_top" xlink:title=" ">
<polygon fill="white" stroke="#666666" points="508.88,-240.75 433.62,-240.75 433.62,-220 508.88,-220 508.88,-240.75"/>
<text xml:space="preserve" text-anchor="middle" x="471.25" y="-227.25" font-family="Helvetica,sans-Serif" font-size="10.00">kest_setting</text>
</a>
</g>
</g>
<!-- Node6&#45;&gt;Node2 -->
<g id="edge6_Node000002_Node000006" class="edge">
<title>Node6&#45;&gt;Node2</title>
<g id="a_edge6_Node000002_Node000006"><a xlink:title=" ">
<path fill="none" stroke="#9a32cd" stroke-dasharray="5,2" d="M520.17,-225.16C554.54,-221.42 600.01,-216.46 630.8,-213.11"/>
<polygon fill="#9a32cd" stroke="#9a32cd" points="520.05,-221.65 510.49,-226.21 520.81,-228.61 520.05,-221.65"/>
</a>
</g>
<text xml:space="preserve" text-anchor="start" x="548.25" y="-228.62" font-family="Helvetica,sans-Serif" font-size="10.00" fill="grey">band_mode</text>
</g>
<!-- Node7 -->
<g id="Node000007" class="node">
<title>Node7</title>
<g id="a_Node000007"><a xlink:href="structkest__setting__id.html" target="_top" xlink:title=" ">
<polygon fill="white" stroke="#666666" points="310.62,-282.75 221.12,-282.75 221.12,-262 310.62,-262 310.62,-282.75"/>
<text xml:space="preserve" text-anchor="middle" x="265.88" y="-269.25" font-family="Helvetica,sans-Serif" font-size="10.00">kest_setting_id</text>
</a>
</g>
</g>
<!-- Node7&#45;&gt;Node6 -->
<g id="edge7_Node000006_Node000007" class="edge">
<title>Node7&#45;&gt;Node6</title>
<g id="a_edge7_Node000006_Node000007"><a xlink:title=" ">
<path fill="none" stroke="#9a32cd" stroke-dasharray="5,2" d="M321.94,-264.34C345.27,-260.61 372.69,-255.8 397.25,-250.38 409.18,-247.74 422.08,-244.38 433.67,-241.17"/>
<polygon fill="#9a32cd" stroke="#9a32cd" points="321.67,-260.84 312.34,-265.84 322.76,-267.75 321.67,-260.84"/>
</a>
</g>
<text xml:space="preserve" text-anchor="start" x="370.25" y="-265.09" font-family="Helvetica,sans-Serif" font-size="10.00" fill="grey">id</text>
</g>
<!-- Node8 -->
<g id="Node000008" class="node">
<title>Node8</title>
<g id="a_Node000008"><a xlink:href="structkest__setting__option.html" target="_top" xlink:title=" ">
<polygon fill="white" stroke="#666666" points="321.5,-240.75 210.25,-240.75 210.25,-220 321.5,-220 321.5,-240.75"/>
<text xml:space="preserve" text-anchor="middle" x="265.88" y="-227.25" font-family="Helvetica,sans-Serif" font-size="10.00">kest_setting_option</text>
</a>
</g>
</g>
<!-- Node8&#45;&gt;Node6 -->
<g id="edge8_Node000006_Node000008" class="edge">
<title>Node8&#45;&gt;Node6</title>
<g id="a_edge8_Node000006_Node000008"><a xlink:title=" ">
<path fill="none" stroke="#9a32cd" stroke-dasharray="5,2" d="M333.37,-230.38C366.51,-230.38 405.35,-230.38 433.17,-230.38"/>
<polygon fill="#9a32cd" stroke="#9a32cd" points="333.42,-226.88 323.42,-230.38 333.42,-233.88 333.42,-226.88"/>
</a>
</g>
<text xml:space="preserve" text-anchor="start" x="356.75" y="-236.62" font-family="Helvetica,sans-Serif" font-size="10.00" fill="grey">options</text>
</g>
<!-- Node9&#45;&gt;Node2 -->
<g id="edge9_Node000002_Node000009" class="edge">
<title>Node9&#45;&gt;Node2</title>
<g id="a_edge9_Node000002_Node000009"><a xlink:title=" ">
<path fill="none" stroke="#9a32cd" stroke-dasharray="5,2" d="M512.1,-404.94C517.34,-402.35 522.53,-399.48 527.25,-396.38 568.47,-369.22 578.56,-359.81 608.25,-320.38 633.39,-286.99 652.95,-240.85 661.05,-220.17"/>
<polygon fill="#9a32cd" stroke="#9a32cd" points="511.04,-401.58 503.42,-408.94 513.97,-407.94 511.04,-401.58"/>
</a>
</g>
<text xml:space="preserve" text-anchor="start" x="561" y="-389.41" font-family="Helvetica,sans-Serif" font-size="10.00" fill="grey">profile</text>
</g>
<!-- Node10 -->
<g id="Node000010" class="node">
<title>Node10</title>
<g id="a_Node000010"><a xlink:href="structkest__pipeline.html" target="_top" xlink:title=" ">
<polygon fill="white" stroke="#666666" points="306.12,-430.75 225.62,-430.75 225.62,-410 306.12,-410 306.12,-430.75"/>
<text xml:space="preserve" text-anchor="middle" x="265.88" y="-417.25" font-family="Helvetica,sans-Serif" font-size="10.00">kest_pipeline</text>
</a>
</g>
</g>
<!-- Node10&#45;&gt;Node9 -->
<g id="edge10_Node000009_Node000010" class="edge">
<title>Node10&#45;&gt;Node9</title>
<g id="a_edge10_Node000009_Node000010"><a xlink:title=" ">
<path fill="none" stroke="#9a32cd" stroke-dasharray="5,2" d="M317.92,-420.38C354.22,-420.38 402.09,-420.38 434.4,-420.38"/>
<polygon fill="#9a32cd" stroke="#9a32cd" points="318.08,-416.88 308.08,-420.38 318.08,-423.88 318.08,-416.88"/>
</a>
</g>
<text xml:space="preserve" text-anchor="start" x="355.25" y="-426.62" font-family="Helvetica,sans-Serif" font-size="10.00" fill="grey">pipeline</text>
</g>
<!-- Node11 -->
<g id="Node000011" class="node">
<title>Node11</title>
<g id="a_Node000011"><a xlink:href="structkest__effect__desc.html" target="_top" xlink:title=" ">
<polygon fill="white" stroke="#666666" points="520.12,-198.75 422.38,-198.75 422.38,-178 520.12,-178 520.12,-198.75"/>
<text xml:space="preserve" text-anchor="middle" x="471.25" y="-185.25" font-family="Helvetica,sans-Serif" font-size="10.00">kest_effect_desc</text>
</a>
</g>
</g>
<!-- Node11&#45;&gt;Node2 -->
<g id="edge12_Node000002_Node000011" class="edge">
<title>Node11&#45;&gt;Node2</title>
<g id="a_edge12_Node000002_Node000011"><a xlink:title=" ">
<path fill="none" stroke="#9a32cd" stroke-dasharray="5,2" d="M531.76,-186.96C555.67,-187.24 583.39,-188.64 608.25,-192.62 616.58,-193.96 625.41,-196.16 633.57,-198.53"/>
<polygon fill="#9a32cd" stroke="#9a32cd" points="531.9,-183.46 521.88,-186.91 531.86,-190.46 531.9,-183.46"/>
</a>
</g>
<text xml:space="preserve" text-anchor="start" x="570" y="-198.88" font-family="Helvetica,sans-Serif" font-size="10.00" fill="grey">eff</text>
</g>
<!-- Node12 -->
<g id="Node000012" class="node">
<title>Node12</title>
<g id="a_Node000012"><a xlink:href="structkest__eff__resource__report.html" target="_top" xlink:title=" ">
<polygon fill="white" stroke="#666666" points="334.25,-198.75 197.5,-198.75 197.5,-178 334.25,-178 334.25,-198.75"/>
<text xml:space="preserve" text-anchor="middle" x="265.88" y="-185.25" font-family="Helvetica,sans-Serif" font-size="10.00">kest_eff_resource_report</text>
</a>
</g>
</g>
<!-- Node12&#45;&gt;Node11 -->
<g id="edge13_Node000011_Node000012" class="edge">
<title>Node12&#45;&gt;Node11</title>
<g id="a_edge13_Node000011_Node000012"><a xlink:title=" ">
<path fill="none" stroke="#9a32cd" stroke-dasharray="5,2" d="M345.86,-188.38C371.58,-188.38 399.34,-188.38 422.1,-188.38"/>
<polygon fill="#9a32cd" stroke="#9a32cd" points="346.11,-184.88 336.11,-188.38 346.11,-191.88 346.11,-184.88"/>
</a>
</g>
<text xml:space="preserve" text-anchor="start" x="357.88" y="-194.62" font-family="Helvetica,sans-Serif" font-size="10.00" fill="grey">res_rpt</text>
</g>
<!-- Node13 -->
<g id="Node000013" class="node">
<title>Node13</title>
<g id="a_Node000013"><a xlink:href="structkest__expr__scope.html" target="_top" xlink:title=" ">
<polygon fill="white" stroke="#666666" points="314.38,-139.75 217.38,-139.75 217.38,-119 314.38,-119 314.38,-139.75"/>
<text xml:space="preserve" text-anchor="middle" x="265.88" y="-126.25" font-family="Helvetica,sans-Serif" font-size="10.00">kest_expr_scope</text>
</a>
</g>
</g>
<!-- Node13&#45;&gt;Node2 -->
<g id="edge15_Node000002_Node000013" class="edge">
<title>Node13&#45;&gt;Node2</title>
<g id="a_edge15_Node000002_Node000013"><a xlink:title=" ">
<path fill="none" stroke="#9a32cd" stroke-dasharray="5,2" d="M325.86,-129.14C379.16,-130.11 459.41,-134.54 527.25,-150.62 571.55,-161.13 619.72,-184.73 645.76,-198.61"/>
<polygon fill="#9a32cd" stroke="#9a32cd" points="326.15,-125.64 316.1,-129 326.05,-132.64 326.15,-125.64"/>
</a>
</g>
<text xml:space="preserve" text-anchor="start" x="457" y="-156.88" font-family="Helvetica,sans-Serif" font-size="10.00" fill="grey">scope</text>
</g>
<!-- Node13&#45;&gt;Node11 -->
<g id="edge14_Node000011_Node000013" class="edge">
<title>Node13&#45;&gt;Node11</title>
<g id="a_edge14_Node000011_Node000013"><a xlink:title=" ">
<path fill="none" stroke="#9a32cd" stroke-dasharray="5,2" d="M318.22,-143.26C342.27,-149.86 371.28,-157.97 397.25,-165.62 409.98,-169.38 423.91,-173.67 436.15,-177.51"/>
<polygon fill="#9a32cd" stroke="#9a32cd" points="319.23,-139.9 308.66,-140.64 317.38,-146.66 319.23,-139.9"/>
</a>
</g>
<text xml:space="preserve" text-anchor="start" x="360.5" y="-171.88" font-family="Helvetica,sans-Serif" font-size="10.00" fill="grey">scope</text>
</g>
<!-- Node14 -->
<g id="Node000014" class="node">
<title>Node14</title>
<g id="a_Node000014"><a xlink:href="structkest__ui__page.html" target="_top" xlink:title=" ">
<polygon fill="white" stroke="#666666" points="706,-68.75 626.25,-68.75 626.25,-48 706,-48 706,-68.75"/>
<text xml:space="preserve" text-anchor="middle" x="666.12" y="-55.25" font-family="Helvetica,sans-Serif" font-size="10.00">kest_ui_page</text>
</a>
</g>
</g>
<!-- Node14&#45;&gt;Node1 -->
<g id="edge16_Node000001_Node000014" class="edge">
<title>Node14&#45;&gt;Node1</title>
<g id="a_edge16_Node000001_Node000014"><a xlink:title=" ">
<path fill="none" stroke="#9a32cd" stroke-dasharray="5,2" d="M712.01,-72.51C750.18,-84.53 804.18,-101.54 839.03,-112.52"/>
<polygon fill="#9a32cd" stroke="#9a32cd" points="713.24,-69.23 702.65,-69.56 711.13,-75.91 713.24,-69.23"/>
</a>
</g>
<text xml:space="preserve" text-anchor="start" x="727" y="-104.86" font-family="Helvetica,sans-Serif" font-size="10.00" fill="grey">settings_page</text>
</g>
<!-- Node14&#45;&gt;Node14 -->
<g id="edge20_Node000014_Node000014" class="edge">
<title>Node14&#45;&gt;Node14</title>
<g id="a_edge20_Node000014_Node000014"><a xlink:title=" ">
<path fill="none" stroke="#9a32cd" stroke-dasharray="5,2" d="M650.58,-80.56C652.78,-84.23 657.96,-86.75 666.12,-86.75 681.49,-86.75 686.29,-77.81 680.53,-69.15"/>
<polygon fill="#9a32cd" stroke="#9a32cd" points="654.06,-80.95 651.57,-70.65 647.1,-80.26 654.06,-80.95"/>
</a>
</g>
<text xml:space="preserve" text-anchor="start" x="650.38" y="-93" font-family="Helvetica,sans-Serif" font-size="10.00" fill="grey">parent</text>
</g>
<!-- Node15 -->
<g id="Node000015" class="node">
<title>Node15</title>
<g id="a_Node000015"><a xlink:href="structkest__ui__page__panel.html" target="_top" xlink:title=" ">
<polygon fill="white" stroke="#666666" points="527.25,-20.75 415.25,-20.75 415.25,0 527.25,0 527.25,-20.75"/>
<text xml:space="preserve" text-anchor="middle" x="471.25" y="-7.25" font-family="Helvetica,sans-Serif" font-size="10.00">kest_ui_page_panel</text>
</a>
</g>
</g>
<!-- Node15&#45;&gt;Node14 -->
<g id="edge17_Node000014_Node000015" class="edge">
<title>Node15&#45;&gt;Node14</title>
<g id="a_edge17_Node000014_Node000015"><a xlink:title=" ">
<path fill="none" stroke="#9a32cd" stroke-dasharray="5,2" d="M539.07,-12.4C561.48,-14.5 586.33,-18.43 608.25,-25.62 623.62,-30.67 639.44,-40.19 650.48,-47.68"/>
<polygon fill="#9a32cd" stroke="#9a32cd" points="539.37,-8.91 529.12,-11.58 538.79,-15.88 539.37,-8.91"/>
</a>
</g>
<text xml:space="preserve" text-anchor="start" x="563.25" y="-31.88" font-family="Helvetica,sans-Serif" font-size="10.00" fill="grey">panel</text>
</g>
<!-- Node16 -->
<g id="Node000016" class="node">
<title>Node16</title>
<g id="a_Node000016"><a xlink:href="structkest__button.html" target="_top" xlink:title=" ">
<polygon fill="white" stroke="#666666" points="302.38,-48.75 229.38,-48.75 229.38,-28 302.38,-28 302.38,-48.75"/>
<text xml:space="preserve" text-anchor="middle" x="265.88" y="-35.25" font-family="Helvetica,sans-Serif" font-size="10.00">kest_button</text>
</a>
</g>
</g>
<!-- Node16&#45;&gt;Node14 -->
<g id="edge21_Node000014_Node000016" class="edge">
<title>Node16&#45;&gt;Node14</title>
<g id="a_edge21_Node000014_Node000016"><a xlink:title=" ">
<path fill="none" stroke="#9a32cd" stroke-dasharray="5,2" d="M313.73,-41.88C326.24,-42.76 339.76,-43.66 352.25,-44.38 450.77,-50.04 566.86,-54.71 626.09,-56.95"/>
<polygon fill="#9a32cd" stroke="#9a32cd" points="314.32,-38.42 304.1,-41.2 313.82,-45.4 314.32,-38.42"/>
</a>
</g>
<text xml:space="preserve" text-anchor="start" x="432.62" y="-59.2" font-family="Helvetica,sans-Serif" font-size="10.00" fill="grey">bottom_buttons</text>
</g>
<!-- Node16&#45;&gt;Node15 -->
<g id="edge18_Node000015_Node000016" class="edge">
<title>Node16&#45;&gt;Node15</title>
<g id="a_edge18_Node000015_Node000016"><a xlink:title=" ">
<path fill="none" stroke="#9a32cd" stroke-dasharray="5,2" d="M301.48,-23.49C316.74,-17.69 335.08,-11.76 352.25,-8.88 372.56,-5.47 395.1,-4.96 415.01,-5.61"/>
<polygon fill="#9a32cd" stroke="#9a32cd" points="300.39,-20.15 292.37,-27.08 302.96,-26.66 300.39,-20.15"/>
</a>
</g>
<text xml:space="preserve" text-anchor="start" x="369.88" y="-31.88" font-family="Helvetica,sans-Serif" font-size="10.00" fill="grey">lb</text>
<text xml:space="preserve" text-anchor="start" x="369.88" y="-15.12" font-family="Helvetica,sans-Serif" font-size="10.00" fill="grey">rb</text>
</g>
<!-- Node16&#45;&gt;Node16 -->
<g id="edge19_Node000016_Node000016" class="edge">
<title>Node16&#45;&gt;Node16</title>
<g id="a_edge19_Node000016_Node000016"><a xlink:title=" ">
<path fill="none" stroke="#9a32cd" stroke-dasharray="5,2" d="M246.94,-60.56C249.62,-64.23 255.93,-66.75 265.88,-66.75 284.59,-66.75 290.44,-57.81 283.42,-49.15"/>
<polygon fill="#9a32cd" stroke="#9a32cd" points="250.42,-61 248.15,-50.65 243.47,-60.15 250.42,-61"/>
</a>
</g>
<text xml:space="preserve" text-anchor="start" x="236.25" y="-73" font-family="Helvetica,sans-Serif" font-size="10.00" fill="grey">sub_buttons</text>
</g>
</g>
</svg>

<g id="navigator" transform="translate(0 0)" fill="#404254">
  <rect fill="#f2f5e9" fill-opacity="0.5" stroke="#606060" stroke-width=".5" x="0" y="0" width="60" height="60"/>
  <use id="zoomplus" xlink:href="#zoomPlus" x="17" y="9" onmousedown="handleZoom(evt,'in')"/>
  <use id="zoomminus" xlink:href="#zoomMin" x="42" y="9" onmousedown="handleZoom(evt,'out')"/>
  <use id="reset" xlink:href="#resetDef" x="30" y="36" onmousedown="handleReset()"/>
   <use id="arrowup" xlink:href="#arrowUp" x="0" y="0" onmousedown="handlePan(0,-1)"/>
  <use id="arrowright" xlink:href="#arrowRight" x="0" y="0" onmousedown="handlePan(1,0)"/>
  <use id="arrowdown" xlink:href="#arrowDown" x="0" y="0" onmousedown="handlePan(0,1)"/>
  <use id="arrowleft" xlink:href="#arrowLeft" x="0" y="0" onmousedown="handlePan(-1,0)"/>
</g>
<svg viewBox="0 0 15 15" width="100%" height="30px" preserveAspectRatio="xMaxYMin meet">
 <g id="arrow_out" transform="scale(0.3 0.3)">
  <a xlink:href="structkest__effect__view__str__coll__graph_org.svg" target="_base">
   <rect id="button" ry="5" rx="5" y="6" x="6" height="38" width="38"
        fill="#f2f5e9" fill-opacity="0.5" stroke="#606060" stroke-width="1.0"/>
   <path id="arrow"
     d="M 11.500037,31.436501 C 11.940474,20.09759 22.043105,11.32322 32.158766,21.979434 L 37.068811,17.246167 C 37.068811,17.246167 37.088388,32 37.088388,32 L 22.160133,31.978069 C 22.160133,31.978069 26.997745,27.140456 26.997745,27.140456 C 18.528582,18.264221 13.291696,25.230495 11.500037,31.436501 z"
     style="fill:#404040;"/>
  </a>
 </g>
</svg>

<style type='text/css'>
<![CDATA[
[data-mouse-over-selected='false'] { opacity: 0.7; }
[data-mouse-over-selected='true']  { opacity: 1.0; }
]]>
</style>
<script type="application/ecmascript"><![CDATA[
document.addEventListener('DOMContentLoaded', (event) => {
  highlightEdges();
  highlightAdjacentNodes();
});
]]></script>
</svg>
