<?xml version="1.0" encoding="UTF-8" standalone="no"?>
<!DOCTYPE svg PUBLIC "-//W3C//DTD SVG 1.1//EN"
 "http://www.w3.org/Graphics/SVG/1.1/DTD/svg11.dtd">
<!-- Generated by graphviz version 13.1.2 (20250808.2320)
 -->
<!-- Title: kest_ui_page_panel Pages: 1 -->
<svg width="184pt" height="121pt"
 viewBox="0.00 0.00 184.00 121.00" xmlns="http://www.w3.org/2000/svg" xmlns:xlink="http://www.w3.org/1999/xlink">
<g id="graph0" class="graph" transform="scale(1 1) rotate(0) translate(4 117)">
<title>kest_ui_page_panel</title>
<!-- Node1 -->
<g id="Node000001" class="node">
<title>Node1</title>
<g id="a_Node000001"><a xlink:title=" ">
<polygon fill="#999999" stroke="#666666" points="112,-20.75 0,-20.75 0,0 112,0 112,-20.75"/>
<text xml:space="preserve" text-anchor="middle" x="56" y="-7.25" font-family="Helvetica,sans-Serif" font-size="10.00">kest_ui_page_panel</text>
</a>
</g>
</g>
<!-- Node2 -->
<g id="Node000002" class="node">
<title>Node2</title>
<g id="a_Node000002"><a xlink:href="structkest__button.html" target="_top" xlink:title=" ">
<polygon fill="white" stroke="#666666" points="92.5,-113 19.5,-113 19.5,-92.25 92.5,-92.25 92.5,-113"/>
<text xml:space="preserve" text-anchor="middle" x="56" y="-99.5" font-family="Helvetica,sans-Serif" font-size="10.00">kest_button</text>
</a>
</g>
</g>
<!-- Node2&#45;&gt;Node1 -->
<g id="edge1_Node000001_Node000002" class="edge">
<title>Node2&#45;&gt;Node1</title>
<g id="a_edge1_Node000001_Node000002"><a xlink:title=" ">
<path fill="none" stroke="#9a32cd" stroke-dasharray="5,2" d="M56,-80.52C56,-61.83 56,-35.4 56,-21.24"/>
<polygon fill="#9a32cd" stroke="#9a32cd" points="52.5,-80.45 56,-90.45 59.5,-80.45 52.5,-80.45"/>
</a>
</g>
<text xml:space="preserve" text-anchor="start" x="59" y="-61.75" font-family="Helvetica,sans-Serif" font-size="10.00" fill="grey">lb</text>
<text xml:space="preserve" text-anchor="start" x="59" y="-45" font-family="Helvetica,sans-Serif" font-size="10.00" fill="grey">rb</text>
</g>
<!-- Node2&#45;&gt;Node2 -->
<g id="edge2_Node000002_Node000002" class="edge">
<title>Node2&#45;&gt;Node2</title>
<g id="a_edge2_Node000002_Node000002"><a xlink:title=" ">
<path fill="none" stroke="#9a32cd" stroke-dasharray="5,2" d="M104.22,-109.23C108.1,-107.79 110.5,-105.59 110.5,-102.62 110.5,-97.35 102.91,-94.49 92.94,-94.04"/>
<polygon fill="#9a32cd" stroke="#9a32cd" points="103.67,-105.78 94.43,-110.95 104.88,-112.67 103.67,-105.78"/>
</a>
</g>
<text xml:space="preserve" text-anchor="start" x="113.5" y="-99.5" font-family="Helvetica,sans-Serif" font-size="10.00" fill="grey">sub_buttons</text>
</g>
</g>
</svg>
