<?xml version="1.0" encoding="UTF-8" standalone="no"?>
<!DOCTYPE svg PUBLIC "-//W3C//DTD SVG 1.1//EN"
 "http://www.w3.org/Graphics/SVG/1.1/DTD/svg11.dtd">
<!-- Generated by graphviz version 13.1.2 (20250808.2320)
 -->
<!-- Title: kest_context Pages: 1 -->
<!--zoomable 488 -->

<svg id="main" version="1.1" xmlns="http://www.w3.org/2000/svg" xmlns:xlink="http://www.w3.org/1999/xlink" xml:space="preserve" onload="init(evt)">

<style type="text/css"><![CDATA[
.node, .edge {opacity: 0.7;}
.node.selected, .edge.selected {opacity: 1;}
.edge:hover path { stroke: red; }
.edge:hover polygon { stroke: red; fill: red; }
]]></style>

<defs>
  <circle id="rim" cx="0" cy="0" r="7"/>
  <circle id="rim2" cx="0" cy="0" r="3.5"/>
  <g id="zoomPlus">
    <use xlink:href="#rim" fill="#404040"><set attributeName="fill" to="#808080" begin="zoomplus.mouseover" end="zoomplus.mouseout"/></use>
    <path d="M-4,0h8M0,-4v8" fill="none" stroke="white" stroke-width="1.5" pointer-events="none"/>
  </g>
  <g id="zoomMin">
    <use xlink:href="#rim" fill="#404040"><set attributeName="fill" to="#808080" begin="zoomminus.mouseover" end="zoomminus.mouseout"/></use>
    <path d="M-4,0h8" fill="none" stroke="white" stroke-width="1.5" pointer-events="none"/>
  </g>
  <g id="arrowUp" transform="translate(30 24)">
    <use xlink:href="#rim"/>
    <path pointer-events="none" fill="none" stroke="white" stroke-width="1.5" d="M0,-3.0v7 M-2.5,-0.5L0,-3.0L2.5,-0.5"/>
  </g>
  <g id="arrowRight" transform="rotate(90) translate(36 -43)">
    <use xlink:href="#rim"/>
    <path pointer-events="none" fill="none" stroke="white" stroke-width="1.5" d="M0,-3.0v7 M-2.5,-0.5L0,-3.0L2.5,-0.5"/>
  </g>
  <g id="arrowDown" transform="rotate(180) translate(-30 -48)">
    <use xlink:href="#rim"/>
    <path pointer-events="none" fill="none" stroke="white" stroke-width="1.5" d="M0,-3.0v7 M-2.5,-0.5L0,-3.0L2.5,-0.5"/>
  </g>
  <g id="arrowLeft" transform="rotate(270) translate(-36 17)">
    <use xlink:href="#rim"/>
    <path pointer-events="none" fill="none" stroke="white" stroke-width="1.5" d="M0,-3.0v7 M-2.5,-0.5L0,-3.0L2.5,-0.5"/>
  </g>
  <g id="resetDef">
    <use xlink:href="#rim2" fill="#404040"><set attributeName="fill" to="#808080" begin="reset.mouseover" end="reset.mouseout"/></use>
  </g>
</defs>
<script type="application/ecmascript">
var viewWidth = 321;
var viewHeight = 488;
var sectionId = 'dynsection-0';
</script>
<script type="application/ecmascript" xlink:href="svg.min.js"/>
<svg id="graph" class="graph">
<g id="viewport">
<title>kest_context</title>
<!-- Node1 -->
<g id="Node000001" class="node">
<title>Node1</title>
<g id="a_Node000001"><a xlink:title=" ">
<polygon fill="#999999" stroke="#666666" points="145.09,-20.75 66.84,-20.75 66.84,0 145.09,0 145.09,-20.75"/>
<text xml:space="preserve" text-anchor="middle" x="105.96" y="-7.25" font-family="Helvetica,sans-Serif" font-size="10.00">kest_context</text>
</a>
</g>
</g>
<!-- Node2 -->
<g id="Node000002" class="node">
<title>Node2</title>
<g id="a_Node000002"><a xlink:href="structkest__profile.html" target="_top" xlink:title=" ">
<polygon fill="white" stroke="#666666" points="116.46,-312.25 43.46,-312.25 43.46,-291.5 116.46,-291.5 116.46,-312.25"/>
<text xml:space="preserve" text-anchor="middle" x="79.96" y="-298.75" font-family="Helvetica,sans-Serif" font-size="10.00">kest_profile</text>
</a>
</g>
</g>
<!-- Node2&#45;&gt;Node1 -->
<g id="edge1_Node000001_Node000002" class="edge">
<title>Node2&#45;&gt;Node1</title>
<g id="a_edge1_Node000001_Node000002"><a xlink:title=" ">
<path fill="none" stroke="#9a32cd" stroke-dasharray="5,2" d="M62.32,-283.08C34.22,-252.49 -15.5,-187.75 5.21,-131 23,-82.28 70.33,-39.67 93.22,-21.17"/>
<polygon fill="#9a32cd" stroke="#9a32cd" points="59.46,-285.15 68.88,-290 64.54,-280.34 59.46,-285.15"/>
</a>
</g>
<text xml:space="preserve" text-anchor="start" x="8.21" y="-170.75" font-family="Helvetica,sans-Serif" font-size="10.00" fill="grey">active_profile</text>
<text xml:space="preserve" text-anchor="start" x="8.21" y="-154" font-family="Helvetica,sans-Serif" font-size="10.00" fill="grey">default_profile</text>
<text xml:space="preserve" text-anchor="start" x="8.21" y="-137.25" font-family="Helvetica,sans-Serif" font-size="10.00" fill="grey">working_profile</text>
</g>
<!-- Node8 -->
<g id="Node000008" class="node">
<title>Node8</title>
<g id="a_Node000008"><a xlink:href="structseq__profile__ll.html" target="_top" xlink:title=" ">
<polygon fill="white" stroke="#666666" points="122.59,-229.38 41.34,-229.38 41.34,-208.62 122.59,-208.62 122.59,-229.38"/>
<text xml:space="preserve" text-anchor="middle" x="81.96" y="-215.88" font-family="Helvetica,sans-Serif" font-size="10.00">seq_profile_ll</text>
</a>
</g>
</g>
<!-- Node2&#45;&gt;Node8 -->
<g id="edge9_Node000008_Node000002" class="edge">
<title>Node2&#45;&gt;Node8</title>
<g id="a_edge9_Node000008_Node000002"><a xlink:title=" ">
<path fill="none" stroke="#9a32cd" stroke-dasharray="5,2" d="M80.48,-280.19C80.88,-263.91 81.42,-241.98 81.73,-229.58"/>
<polygon fill="#9a32cd" stroke="#9a32cd" points="76.99,-279.68 80.24,-289.77 83.98,-279.86 76.99,-279.68"/>
</a>
</g>
<text xml:space="preserve" text-anchor="start" x="84.08" y="-261" font-family="Helvetica,sans-Serif" font-size="10.00" fill="grey">data</text>
</g>
<!-- Node3 -->
<g id="Node000003" class="node">
<title>Node3</title>
<g id="a_Node000003"><a xlink:href="structkest__pipeline.html" target="_top" xlink:title=" ">
<polygon fill="white" stroke="#666666" points="118.21,-387.75 37.71,-387.75 37.71,-367 118.21,-367 118.21,-387.75"/>
<text xml:space="preserve" text-anchor="middle" x="77.96" y="-374.25" font-family="Helvetica,sans-Serif" font-size="10.00">kest_pipeline</text>
</a>
</g>
</g>
<!-- Node3&#45;&gt;Node2 -->
<g id="edge2_Node000002_Node000003" class="edge">
<title>Node3&#45;&gt;Node2</title>
<g id="a_edge2_Node000002_Node000003"><a xlink:title=" ">
<path fill="none" stroke="#9a32cd" stroke-dasharray="5,2" d="M78.35,-355.35C78.52,-347.48 78.72,-338.45 78.96,-330.25 79.14,-324.36 79.38,-317.75 79.58,-312.5"/>
<polygon fill="#9a32cd" stroke="#9a32cd" points="74.86,-355.25 78.16,-365.32 81.85,-355.39 74.86,-355.25"/>
</a>
</g>
<text xml:space="preserve" text-anchor="start" x="81.96" y="-336.5" font-family="Helvetica,sans-Serif" font-size="10.00" fill="grey">pipeline</text>
</g>
<!-- Node4 -->
<g id="Node000004" class="node">
<title>Node4</title>
<g id="a_Node000004"><a xlink:href="structkest__parameter.html" target="_top" xlink:title=" ">
<polygon fill="white" stroke="#666666" points="239.21,-387.75 146.71,-387.75 146.71,-367 239.21,-367 239.21,-387.75"/>
<text xml:space="preserve" text-anchor="middle" x="192.96" y="-374.25" font-family="Helvetica,sans-Serif" font-size="10.00">kest_parameter</text>
</a>
</g>
</g>
<!-- Node4&#45;&gt;Node1 -->
<g id="edge11_Node000001_Node000004" class="edge">
<title>Node4&#45;&gt;Node1</title>
<g id="a_edge11_Node000001_Node000004"><a xlink:title=" ">
<path fill="none" stroke="#9a32cd" stroke-dasharray="5,2" d="M197.65,-356.1C200.64,-341.41 203.96,-321.02 203.96,-302.88 203.96,-302.88 203.96,-302.88 203.96,-101.62 203.96,-73 209.21,-59.94 189.96,-38.75 178.52,-26.15 161.2,-19.33 145.26,-15.64"/>
<polygon fill="#9a32cd" stroke="#9a32cd" points="194.32,-354.93 195.62,-365.45 201.16,-356.42 194.32,-354.93"/>
</a>
</g>
<text xml:space="preserve" text-anchor="start" x="206.96" y="-224.25" font-family="Helvetica,sans-Serif" font-size="10.00" fill="grey">input_gain</text>
<text xml:space="preserve" text-anchor="start" x="206.96" y="-207.5" font-family="Helvetica,sans-Serif" font-size="10.00" fill="grey">output_gain</text>
</g>
<!-- Node4&#45;&gt;Node2 -->
<g id="edge3_Node000002_Node000004" class="edge">
<title>Node4&#45;&gt;Node2</title>
<g id="a_edge3_Node000002_Node000004"><a xlink:title=" ">
<path fill="none" stroke="#9a32cd" stroke-dasharray="5,2" d="M165.38,-360.71C159.29,-357.03 152.95,-353 147.21,-349 136.32,-341.41 134.79,-337.94 123.96,-330.25 115.16,-324 104.94,-317.59 96.57,-312.55"/>
<polygon fill="#9a32cd" stroke="#9a32cd" points="163.53,-363.69 173.92,-365.76 167.09,-357.66 163.53,-363.69"/>
</a>
</g>
<text xml:space="preserve" text-anchor="start" x="150.21" y="-336.5" font-family="Helvetica,sans-Serif" font-size="10.00" fill="grey">volume</text>
</g>
<!-- Node5 -->
<g id="Node000005" class="node">
<title>Node5</title>
<g id="a_Node000005"><a xlink:href="structkest__expression.html" target="_top" xlink:title=" ">
<polygon fill="white" stroke="#666666" points="115.34,-480 20.59,-480 20.59,-459.25 115.34,-459.25 115.34,-480"/>
<text xml:space="preserve" text-anchor="middle" x="67.96" y="-466.5" font-family="Helvetica,sans-Serif" font-size="10.00">kest_expression</text>
</a>
</g>
</g>
<!-- Node5&#45;&gt;Node4 -->
<g id="edge4_Node000004_Node000005" class="edge">
<title>Node5&#45;&gt;Node4</title>
<g id="a_edge4_Node000004_Node000005"><a xlink:title=" ">
<path fill="none" stroke="#9a32cd" stroke-dasharray="5,2" d="M90.4,-452.43C116.25,-433.76 157.9,-403.69 179.3,-388.24"/>
<polygon fill="#9a32cd" stroke="#9a32cd" points="88.63,-449.39 82.57,-458.08 92.72,-455.06 88.63,-449.39"/>
</a>
</g>
<text xml:space="preserve" text-anchor="start" x="155.53" y="-428.75" font-family="Helvetica,sans-Serif" font-size="10.00" fill="grey">max_expr</text>
<text xml:space="preserve" text-anchor="start" x="155.53" y="-412" font-family="Helvetica,sans-Serif" font-size="10.00" fill="grey">min_expr</text>
</g>
<!-- Node5&#45;&gt;Node5 -->
<g id="edge5_Node000005_Node000005" class="edge">
<title>Node5&#45;&gt;Node5</title>
<g id="a_edge5_Node000005_Node000005"><a xlink:title=" ">
<path fill="none" stroke="#9a32cd" stroke-dasharray="5,2" d="M126.74,-475.92C130.84,-474.48 133.34,-472.39 133.34,-469.62 133.34,-464.85 125.87,-462.05 115.56,-461.23"/>
<polygon fill="#9a32cd" stroke="#9a32cd" points="126.24,-472.46 117.05,-477.74 127.52,-479.34 126.24,-472.46"/>
</a>
</g>
<text xml:space="preserve" text-anchor="start" x="136.34" y="-466.5" font-family="Helvetica,sans-Serif" font-size="10.00" fill="grey">sub_exprs</text>
</g>
<!-- Node6 -->
<g id="Node000006" class="node">
<title>Node6</title>
<g id="a_Node000006"><a xlink:href="structkest__parameter__id.html" target="_top" xlink:title=" ">
<polygon fill="white" stroke="#666666" points="313.34,-480 206.59,-480 206.59,-459.25 313.34,-459.25 313.34,-480"/>
<text xml:space="preserve" text-anchor="middle" x="259.96" y="-466.5" font-family="Helvetica,sans-Serif" font-size="10.00">kest_parameter_id</text>
</a>
</g>
</g>
<!-- Node6&#45;&gt;Node4 -->
<g id="edge6_Node000004_Node000006" class="edge">
<title>Node6&#45;&gt;Node4</title>
<g id="a_edge6_Node000004_Node000006"><a xlink:title=" ">
<path fill="none" stroke="#9a32cd" stroke-dasharray="5,2" d="M246.06,-449.9C232.14,-431.14 211.25,-403.01 200.29,-388.24"/>
<polygon fill="#9a32cd" stroke="#9a32cd" points="243.12,-451.81 251.89,-457.75 248.74,-447.64 243.12,-451.81"/>
</a>
</g>
<text xml:space="preserve" text-anchor="start" x="241.29" y="-420.38" font-family="Helvetica,sans-Serif" font-size="10.00" fill="grey">id</text>
</g>
<!-- Node7 -->
<g id="Node000007" class="node">
<title>Node7</title>
<g id="a_Node000007"><a xlink:href="structkest__sequence.html" target="_top" xlink:title=" ">
<polygon fill="white" stroke="#666666" points="152.96,-113 64.96,-113 64.96,-92.25 152.96,-92.25 152.96,-113"/>
<text xml:space="preserve" text-anchor="middle" x="108.96" y="-99.5" font-family="Helvetica,sans-Serif" font-size="10.00">kest_sequence</text>
</a>
</g>
</g>
<!-- Node7&#45;&gt;Node1 -->
<g id="edge7_Node000001_Node000007" class="edge">
<title>Node7&#45;&gt;Node1</title>
<g id="a_edge7_Node000001_Node000007"><a xlink:title=" ">
<path fill="none" stroke="#9a32cd" stroke-dasharray="5,2" d="M107.75,-80.79C107.65,-78.58 107.55,-76.37 107.46,-74.25 106.73,-55.48 106.3,-33.55 106.1,-21.18"/>
<polygon fill="#9a32cd" stroke="#9a32cd" points="104.24,-80.69 108.28,-90.49 111.23,-80.31 104.24,-80.69"/>
</a>
</g>
<text xml:space="preserve" text-anchor="start" x="110.46" y="-61.75" font-family="Helvetica,sans-Serif" font-size="10.00" fill="grey">main_sequence</text>
<text xml:space="preserve" text-anchor="start" x="110.46" y="-45" font-family="Helvetica,sans-Serif" font-size="10.00" fill="grey">sequence</text>
</g>
<!-- Node8&#45;&gt;Node7 -->
<g id="edge8_Node000007_Node000008" class="edge">
<title>Node8&#45;&gt;Node7</title>
<g id="a_edge8_Node000007_Node000008"><a xlink:title=" ">
<path fill="none" stroke="#9a32cd" stroke-dasharray="5,2" d="M86.88,-197.17C92.75,-172.32 102.31,-131.82 106.67,-113.35"/>
<polygon fill="#9a32cd" stroke="#9a32cd" points="83.5,-196.24 84.61,-206.78 90.32,-197.85 83.5,-196.24"/>
</a>
</g>
<text xml:space="preserve" text-anchor="start" x="105.44" y="-162.38" font-family="Helvetica,sans-Serif" font-size="10.00" fill="grey">position</text>
<text xml:space="preserve" text-anchor="start" x="105.44" y="-145.62" font-family="Helvetica,sans-Serif" font-size="10.00" fill="grey">profiles</text>
</g>
<!-- Node8&#45;&gt;Node8 -->
<g id="edge10_Node000008_Node000008" class="edge">
<title>Node8&#45;&gt;Node8</title>
<g id="a_edge10_Node000008_Node000008"><a xlink:title=" ">
<path fill="none" stroke="#9a32cd" stroke-dasharray="5,2" d="M134.36,-225.28C138.22,-223.87 140.59,-221.78 140.59,-219 140.59,-214.06 133.11,-211.29 123.06,-210.67"/>
<polygon fill="#9a32cd" stroke="#9a32cd" points="133.76,-221.83 124.54,-227.06 135.01,-228.72 133.76,-221.83"/>
</a>
</g>
<text xml:space="preserve" text-anchor="start" x="143.59" y="-224.25" font-family="Helvetica,sans-Serif" font-size="10.00" fill="grey">next</text>
<text xml:space="preserve" text-anchor="start" x="143.59" y="-207.5" font-family="Helvetica,sans-Serif" font-size="10.00" fill="grey">prev</text>
</g>
</g>
</svg>

<g id="navigator" transform="translate(0 0)" fill="#404254">
  <rect fill="#f2f5e9" fill-opacity="0.5" stroke="#606060" stroke-width=".5" x="0" y="0" width="60" height="60"/>
  <use id="zoomplus" xlink:href="#zoomPlus" x="17" y="9" onmousedown="handleZoom(evt,'in')"/>
  <use id="zoomminus" xlink:href="#zoomMin" x="42" y="9" onmousedown="handleZoom(evt,'out')"/>
  <use id="reset" xlink:href="#resetDef" x="30" y="36" onmousedown="handleReset()"/>
   <use id="arrowup" xlink:href="#arrowUp" x="0" y="0" onmousedown="handlePan(0,-1)"/>
  <use id="arrowright" xlink:href="#arrowRight" x="0" y="0" onmousedown="handlePan(1,0)"/>
  <use id="arrowdown" xlink:href="#arrowDown" x="0" y="0" onmousedown="handlePan(0,1)"/>
  <use id="arrowleft" xlink:href="#arrowLeft" x="0" y="0" onmousedown="handlePan(-1,0)"/>
</g>
<svg viewBox="0 0 15 15" width="100%" height="30px" preserveAspectRatio="xMaxYMin meet">
 <g id="arrow_out" transform="scale(0.3 0.3)">
  <a xlink:href="structkest__context__coll__graph_org.svg" target="_base">
   <rect id="button" ry="5" rx="5" y="6" x="6" height="38" width="38"
        fill="#f2f5e9" fill-opacity="0.5" stroke="#606060" stroke-width="1.0"/>
   <path id="arrow"
     d="M 11.500037,31.436501 C 11.940474,20.09759 22.043105,11.32322 32.158766,21.979434 L 37.068811,17.246167 C 37.068811,17.246167 37.088388,32 37.088388,32 L 22.160133,31.978069 C 22.160133,31.978069 26.997745,27.140456 26.997745,27.140456 C 18.528582,18.264221 13.291696,25.230495 11.500037,31.436501 z"
     style="fill:#404040;"/>
  </a>
 </g>
</svg>

<style type='text/css'>
<![CDATA[
[data-mouse-over-selected='false'] { opacity: 0.7; }
[data-mouse-over-selected='true']  { opacity: 1.0; }
]]>
</style>
<script type="application/ecmascript"><![CDATA[
document.addEventListener('DOMContentLoaded', (event) => {
  highlightEdges();
  highlightAdjacentNodes();
});
]]></script>
</svg>
