<?xml version="1.0" encoding="UTF-8" standalone="no"?>
<!DOCTYPE svg PUBLIC "-//W3C//DTD SVG 1.1//EN"
 "http://www.w3.org/Graphics/SVG/1.1/DTD/svg11.dtd">
<!-- Generated by graphviz version 13.1.2 (20250808.2320)
 -->
<!-- Title: test_page_str Pages: 1 -->
<svg width="367pt" height="375pt"
 viewBox="0.00 0.00 367.00 375.00" xmlns="http://www.w3.org/2000/svg" xmlns:xlink="http://www.w3.org/1999/xlink">

<svg id="main" version="1.1" xmlns="http://www.w3.org/2000/svg" xmlns:xlink="http://www.w3.org/1999/xlink" xml:space="preserve">

<style type="text/css"><![CDATA[
.node, .edge {opacity: 0.7;}
.node.selected, .edge.selected {opacity: 1;}
.edge:hover path { stroke: red; }
.edge:hover polygon { stroke: red; fill: red; }
]]></style>
<script type="application/ecmascript" xlink:href="svg.min.js"/>
<svg id="graph" class="graph">
<g id="graph0" class="graph" transform="scale(1 1) rotate(0) translate(4 371)">
<title>test_page_str</title>
<!-- Node1 -->
<g id="Node000001" class="node">
<title>Node1</title>
<g id="a_Node000001"><a xlink:title=" ">
<polygon fill="#999999" stroke="#666666" points="82,-20.75 0,-20.75 0,0 82,0 82,-20.75"/>
<text xml:space="preserve" text-anchor="middle" x="41" y="-7.25" font-family="Helvetica,sans-Serif" font-size="10.00">test_page_str</text>
</a>
</g>
</g>
<!-- Node2 -->
<g id="Node000002" class="node">
<title>Node2</title>
<g id="a_Node000002"><a xlink:href="structkest__active__button__array.html" target="_top" xlink:title=" ">
<polygon fill="white" stroke="#666666" points="142.12,-109 33.88,-109 33.88,-75.5 142.12,-75.5 142.12,-109"/>
<text xml:space="preserve" text-anchor="start" x="41.88" y="-95.5" font-family="Helvetica,sans-Serif" font-size="10.00">kest_active_button</text>
<text xml:space="preserve" text-anchor="middle" x="88" y="-82.75" font-family="Helvetica,sans-Serif" font-size="10.00">_array</text>
</a>
</g>
</g>
<!-- Node2&#45;&gt;Node1 -->
<g id="edge1_Node000001_Node000002" class="edge">
<title>Node2&#45;&gt;Node1</title>
<g id="a_edge1_Node000001_Node000002"><a xlink:title=" ">
<path fill="none" stroke="#9a32cd" stroke-dasharray="5,2" d="M49.89,-67.71C46.99,-64.61 44.44,-61.2 42.5,-57.5 36.55,-46.14 37.45,-30.97 38.97,-21.18"/>
<polygon fill="#9a32cd" stroke="#9a32cd" points="47.33,-70.11 57.11,-74.2 52.01,-64.91 47.33,-70.11"/>
</a>
</g>
<text xml:space="preserve" text-anchor="start" x="45.5" y="-45" font-family="Helvetica,sans-Serif" font-size="10.00" fill="grey">array</text>
</g>
<!-- Node3 -->
<g id="Node000003" class="node">
<title>Node3</title>
<g id="a_Node000003"><a xlink:href="structkest__active__button.html" target="_top" xlink:title=" ">
<polygon fill="white" stroke="#666666" points="239.12,-20.75 130.88,-20.75 130.88,0 239.12,0 239.12,-20.75"/>
<text xml:space="preserve" text-anchor="middle" x="185" y="-7.25" font-family="Helvetica,sans-Serif" font-size="10.00">kest_active_button</text>
</a>
</g>
</g>
<!-- Node2&#45;&gt;Node3 -->
<g id="edge6_Node000003_Node000002" class="edge">
<title>Node2&#45;&gt;Node3</title>
<g id="a_edge6_Node000003_Node000002"><a xlink:title=" ">
<path fill="none" stroke="#9a32cd" stroke-dasharray="5,2" d="M85.15,-63.74C85.63,-54.91 87.79,-45.64 93.5,-38.75 102.81,-27.52 116.54,-20.77 130.54,-16.76"/>
<polygon fill="#9a32cd" stroke="#9a32cd" points="81.65,-63.8 85.33,-73.74 88.65,-63.68 81.65,-63.8"/>
</a>
</g>
<text xml:space="preserve" text-anchor="start" x="96.5" y="-45" font-family="Helvetica,sans-Serif" font-size="10.00" fill="grey">array</text>
</g>
<!-- Node3&#45;&gt;Node2 -->
<g id="edge2_Node000002_Node000003" class="edge">
<title>Node3&#45;&gt;Node2</title>
<g id="a_edge2_Node000002_Node000003"><a xlink:title=" ">
<path fill="none" stroke="#9a32cd" stroke-dasharray="5,2" d="M162.67,-27.96C158.17,-31.45 153.51,-35.16 149.25,-38.75 139.87,-46.65 138.24,-49.43 129,-57.5 122.33,-63.32 114.9,-69.52 108.21,-75"/>
<polygon fill="#9a32cd" stroke="#9a32cd" points="164.48,-30.98 170.32,-22.14 160.24,-25.41 164.48,-30.98"/>
</a>
</g>
<text xml:space="preserve" text-anchor="start" x="152.25" y="-45" font-family="Helvetica,sans-Serif" font-size="10.00" fill="grey">buttons</text>
</g>
<!-- Node4 -->
<g id="Node000004" class="node">
<title>Node4</title>
<g id="a_Node000004"><a xlink:href="structkest__button.html" target="_top" xlink:title=" ">
<polygon fill="white" stroke="#666666" points="253.5,-367 180.5,-367 180.5,-346.25 253.5,-346.25 253.5,-367"/>
<text xml:space="preserve" text-anchor="middle" x="217" y="-353.5" font-family="Helvetica,sans-Serif" font-size="10.00">kest_button</text>
</a>
</g>
</g>
<!-- Node4&#45;&gt;Node3 -->
<g id="edge3_Node000003_Node000004" class="edge">
<title>Node4&#45;&gt;Node3</title>
<g id="a_edge3_Node000003_Node000004"><a xlink:title=" ">
<path fill="none" stroke="#9a32cd" stroke-dasharray="5,2" d="M245.64,-340.23C269.98,-324.83 301,-298.67 301,-265.38 301,-265.38 301,-265.38 301,-91.25 301,-53.35 258.48,-32.06 224.92,-21.17"/>
<polygon fill="#9a32cd" stroke="#9a32cd" points="244.14,-337.05 237.36,-345.19 247.74,-343.05 244.14,-337.05"/>
</a>
</g>
<text xml:space="preserve" text-anchor="start" x="304" y="-186.75" font-family="Helvetica,sans-Serif" font-size="10.00" fill="grey">button</text>
<text xml:space="preserve" text-anchor="start" x="304" y="-170" font-family="Helvetica,sans-Serif" font-size="10.00" fill="grey">del_button</text>
</g>
<!-- Node4&#45;&gt;Node4 -->
<g id="edge4_Node000004_Node000004" class="edge">
<title>Node4&#45;&gt;Node4</title>
<g id="a_edge4_Node000004_Node000004"><a xlink:title=" ">
<path fill="none" stroke="#9a32cd" stroke-dasharray="5,2" d="M265.22,-363.23C269.1,-361.79 271.5,-359.59 271.5,-356.62 271.5,-351.35 263.91,-348.49 253.94,-348.04"/>
<polygon fill="#9a32cd" stroke="#9a32cd" points="264.67,-359.78 255.43,-364.95 265.88,-366.67 264.67,-359.78"/>
</a>
</g>
<text xml:space="preserve" text-anchor="start" x="274.5" y="-353.5" font-family="Helvetica,sans-Serif" font-size="10.00" fill="grey">sub_buttons</text>
</g>
<!-- Node6 -->
<g id="Node000006" class="node">
<title>Node6</title>
<g id="a_Node000006"><a xlink:href="structkest__ui__page.html" target="_top" xlink:title=" ">
<polygon fill="white" stroke="#666666" points="127.88,-191.88 48.12,-191.88 48.12,-171.12 127.88,-171.12 127.88,-191.88"/>
<text xml:space="preserve" text-anchor="middle" x="88" y="-178.38" font-family="Helvetica,sans-Serif" font-size="10.00">kest_ui_page</text>
</a>
</g>
</g>
<!-- Node4&#45;&gt;Node6 -->
<g id="edge11_Node000006_Node000004" class="edge">
<title>Node4&#45;&gt;Node6</title>
<g id="a_edge11_Node000006_Node000004"><a xlink:title=" ">
<path fill="none" stroke="#9a32cd" stroke-dasharray="5,2" d="M169.35,-343.67C134.74,-332.22 90.36,-311.15 68.75,-274.75 52.8,-247.88 71.37,-209.75 81.82,-192.12"/>
<polygon fill="#9a32cd" stroke="#9a32cd" points="168.16,-346.96 178.75,-346.6 170.25,-340.28 168.16,-346.96"/>
</a>
</g>
<text xml:space="preserve" text-anchor="start" x="71.75" y="-261.25" font-family="Helvetica,sans-Serif" font-size="10.00" fill="grey">bottom_buttons</text>
</g>
<!-- Node7 -->
<g id="Node000007" class="node">
<title>Node7</title>
<g id="a_Node000007"><a xlink:href="structkest__ui__page__panel.html" target="_top" xlink:title=" ">
<polygon fill="white" stroke="#666666" points="273,-274.75 161,-274.75 161,-254 273,-254 273,-274.75"/>
<text xml:space="preserve" text-anchor="middle" x="217" y="-261.25" font-family="Helvetica,sans-Serif" font-size="10.00">kest_ui_page_panel</text>
</a>
</g>
</g>
<!-- Node4&#45;&gt;Node7 -->
<g id="edge9_Node000007_Node000004" class="edge">
<title>Node4&#45;&gt;Node7</title>
<g id="a_edge9_Node000007_Node000004"><a xlink:title=" ">
<path fill="none" stroke="#9a32cd" stroke-dasharray="5,2" d="M217,-334.52C217,-315.83 217,-289.4 217,-275.24"/>
<polygon fill="#9a32cd" stroke="#9a32cd" points="213.5,-334.45 217,-344.45 220.5,-334.45 213.5,-334.45"/>
</a>
</g>
<text xml:space="preserve" text-anchor="start" x="220" y="-315.75" font-family="Helvetica,sans-Serif" font-size="10.00" fill="grey">lb</text>
<text xml:space="preserve" text-anchor="start" x="220" y="-299" font-family="Helvetica,sans-Serif" font-size="10.00" fill="grey">rb</text>
</g>
<!-- Node5 -->
<g id="Node000005" class="node">
<title>Node5</title>
<g id="a_Node000005"><a xlink:href="structkest__representation.html" target="_top" xlink:title=" ">
<polygon fill="white" stroke="#666666" points="273.38,-102.62 160.62,-102.62 160.62,-81.88 273.38,-81.88 273.38,-102.62"/>
<text xml:space="preserve" text-anchor="middle" x="217" y="-89.12" font-family="Helvetica,sans-Serif" font-size="10.00">kest_representation</text>
</a>
</g>
</g>
<!-- Node5&#45;&gt;Node3 -->
<g id="edge5_Node000003_Node000005" class="edge">
<title>Node5&#45;&gt;Node3</title>
<g id="a_edge5_Node000003_Node000005"><a xlink:title=" ">
<path fill="none" stroke="#9a32cd" stroke-dasharray="5,2" d="M208.91,-71.06C202.53,-55.14 193.91,-33.62 188.96,-21.25"/>
<polygon fill="#9a32cd" stroke="#9a32cd" points="205.55,-72.07 212.51,-80.05 212.04,-69.47 205.55,-72.07"/>
</a>
</g>
<text xml:space="preserve" text-anchor="start" x="205.92" y="-45" font-family="Helvetica,sans-Serif" font-size="10.00" fill="grey">rep</text>
</g>
<!-- Node6&#45;&gt;Node2 -->
<g id="edge7_Node000002_Node000006" class="edge">
<title>Node6&#45;&gt;Node2</title>
<g id="a_edge7_Node000002_Node000006"><a xlink:title=" ">
<path fill="none" stroke="#9a32cd" stroke-dasharray="5,2" d="M88,-159.39C88,-144.04 88,-123.57 88,-109.49"/>
<polygon fill="#9a32cd" stroke="#9a32cd" points="84.5,-159.32 88,-169.32 91.5,-159.32 84.5,-159.32"/>
</a>
</g>
<text xml:space="preserve" text-anchor="start" x="91" y="-133.25" font-family="Helvetica,sans-Serif" font-size="10.00" fill="grey">parent</text>
</g>
<!-- Node6&#45;&gt;Node6 -->
<g id="edge10_Node000006_Node000006" class="edge">
<title>Node6&#45;&gt;Node6</title>
<g id="a_edge10_Node000006_Node000006"><a xlink:title=" ">
<path fill="none" stroke="#9a32cd" stroke-dasharray="5,2" d="M139.63,-187.82C143.5,-186.41 145.88,-184.3 145.88,-181.5 145.88,-176.52 138.36,-173.74 128.3,-173.16"/>
<polygon fill="#9a32cd" stroke="#9a32cd" points="139.02,-184.37 129.79,-189.58 140.25,-191.26 139.02,-184.37"/>
</a>
</g>
<text xml:space="preserve" text-anchor="start" x="148.88" y="-178.38" font-family="Helvetica,sans-Serif" font-size="10.00" fill="grey">parent</text>
</g>
<!-- Node7&#45;&gt;Node6 -->
<g id="edge8_Node000006_Node000007" class="edge">
<title>Node7&#45;&gt;Node6</title>
<g id="a_edge8_Node000006_Node000007"><a xlink:title=" ">
<path fill="none" stroke="#9a32cd" stroke-dasharray="5,2" d="M191.83,-247.6C165.67,-231.19 125.54,-206.03 103.62,-192.29"/>
<polygon fill="#9a32cd" stroke="#9a32cd" points="189.83,-250.47 200.16,-252.82 193.54,-244.54 189.83,-250.47"/>
</a>
</g>
<text xml:space="preserve" text-anchor="start" x="174.59" y="-223.5" font-family="Helvetica,sans-Serif" font-size="10.00" fill="grey">panel</text>
</g>
</g>
</svg>
</svg>

<style type='text/css'>
<![CDATA[
[data-mouse-over-selected='false'] { opacity: 0.7; }
[data-mouse-over-selected='true']  { opacity: 1.0; }
]]>
</style>
<script type="application/ecmascript"><![CDATA[
document.addEventListener('DOMContentLoaded', (event) => {
  highlightEdges();
  highlightAdjacentNodes();
});
]]></script>
</svg>
