<?xml version="1.0" encoding="UTF-8" standalone="no"?>
<!DOCTYPE svg PUBLIC "-//W3C//DTD SVG 1.1//EN"
 "http://www.w3.org/Graphics/SVG/1.1/DTD/svg11.dtd">
<!-- Generated by graphviz version 13.1.2 (20250808.2320)
 -->
<!-- Title: kest_asm_arg Pages: 1 -->
<svg width="176pt" height="104pt"
 viewBox="0.00 0.00 176.00 104.00" xmlns="http://www.w3.org/2000/svg" xmlns:xlink="http://www.w3.org/1999/xlink">
<g id="graph0" class="graph" transform="scale(1 1) rotate(0) translate(4 100.25)">
<title>kest_asm_arg</title>
<!-- Node1 -->
<g id="Node000001" class="node">
<title>Node1</title>
<g id="a_Node000001"><a xlink:title=" ">
<polygon fill="#999999" stroke="#666666" points="89.12,-20.75 5.62,-20.75 5.62,0 89.12,0 89.12,-20.75"/>
<text xml:space="preserve" text-anchor="middle" x="47.38" y="-7.25" font-family="Helvetica,sans-Serif" font-size="10.00">kest_asm_arg</text>
</a>
</g>
</g>
<!-- Node2 -->
<g id="Node000002" class="node">
<title>Node2</title>
<g id="a_Node000002"><a xlink:href="structkest__expression.html" target="_top" xlink:title=" ">
<polygon fill="white" stroke="#666666" points="94.75,-96.25 0,-96.25 0,-75.5 94.75,-75.5 94.75,-96.25"/>
<text xml:space="preserve" text-anchor="middle" x="47.38" y="-82.75" font-family="Helvetica,sans-Serif" font-size="10.00">kest_expression</text>
</a>
</g>
</g>
<!-- Node2&#45;&gt;Node1 -->
<g id="edge1_Node000001_Node000002" class="edge">
<title>Node2&#45;&gt;Node1</title>
<g id="a_edge1_Node000001_Node000002"><a xlink:title=" ">
<path fill="none" stroke="#9a32cd" stroke-dasharray="5,2" d="M47.38,-63.76C47.38,-49.76 47.38,-32.05 47.38,-21.22"/>
<polygon fill="#9a32cd" stroke="#9a32cd" points="43.88,-63.75 47.38,-73.75 50.88,-63.75 43.88,-63.75"/>
</a>
</g>
<text xml:space="preserve" text-anchor="start" x="50.38" y="-45" font-family="Helvetica,sans-Serif" font-size="10.00" fill="grey">expr</text>
</g>
<!-- Node2&#45;&gt;Node2 -->
<g id="edge2_Node000002_Node000002" class="edge">
<title>Node2&#45;&gt;Node2</title>
<g id="a_edge2_Node000002_Node000002"><a xlink:title=" ">
<path fill="none" stroke="#9a32cd" stroke-dasharray="5,2" d="M106.15,-91.03C110.25,-89.85 112.75,-88.13 112.75,-85.88 112.75,-81.97 105.28,-79.68 94.97,-79.01"/>
<polygon fill="#9a32cd" stroke="#9a32cd" points="105.82,-87.54 96.47,-92.51 106.89,-94.46 105.82,-87.54"/>
</a>
</g>
<text xml:space="preserve" text-anchor="start" x="115.75" y="-82.75" font-family="Helvetica,sans-Serif" font-size="10.00" fill="grey">sub_exprs</text>
</g>
</g>
</svg>
