<?xml version="1.0" encoding="UTF-8" standalone="no"?>
<!DOCTYPE svg PUBLIC "-//W3C//DTD SVG 1.1//EN"
 "http://www.w3.org/Graphics/SVG/1.1/DTD/svg11.dtd">
<!-- Generated by graphviz version 13.1.2 (20250808.2320)
 -->
<!-- Title: kest_profile_settings_str Pages: 1 -->
<svg width="542pt" height="348pt"
 viewBox="0.00 0.00 542.00 348.00" xmlns="http://www.w3.org/2000/svg" xmlns:xlink="http://www.w3.org/1999/xlink">
<g id="graph0" class="graph" transform="scale(1 1) rotate(0) translate(4 343.5)">
<title>kest_profile_settings_str</title>
<!-- Node1 -->
<g id="Node000001" class="node">
<title>Node1</title>
<g id="a_Node000001"><a xlink:title=" ">
<polygon fill="#999999" stroke="#666666" points="342,-20.75 206.75,-20.75 206.75,0 342,0 342,-20.75"/>
<text xml:space="preserve" text-anchor="middle" x="274.38" y="-7.25" font-family="Helvetica,sans-Serif" font-size="10.00">kest_profile_settings_str</text>
</a>
</g>
</g>
<!-- Node2 -->
<g id="Node000002" class="node">
<title>Node2</title>
<g id="a_Node000002"><a xlink:href="structkest__parameter__widget.html" target="_top" xlink:title=" ">
<polygon fill="white" stroke="#666666" points="339.75,-96.25 209,-96.25 209,-75.5 339.75,-75.5 339.75,-96.25"/>
<text xml:space="preserve" text-anchor="middle" x="274.38" y="-82.75" font-family="Helvetica,sans-Serif" font-size="10.00">kest_parameter_widget</text>
</a>
</g>
</g>
<!-- Node2&#45;&gt;Node1 -->
<g id="edge1_Node000001_Node000002" class="edge">
<title>Node2&#45;&gt;Node1</title>
<g id="a_edge1_Node000001_Node000002"><a xlink:title=" ">
<path fill="none" stroke="#9a32cd" stroke-dasharray="5,2" d="M274.38,-63.76C274.38,-49.76 274.38,-32.05 274.38,-21.22"/>
<polygon fill="#9a32cd" stroke="#9a32cd" points="270.88,-63.75 274.38,-73.75 277.88,-63.75 270.88,-63.75"/>
</a>
</g>
<text xml:space="preserve" text-anchor="start" x="277.38" y="-45" font-family="Helvetica,sans-Serif" font-size="10.00" fill="grey">volume_widget</text>
</g>
<!-- Node3 -->
<g id="Node000003" class="node">
<title>Node3</title>
<g id="a_Node000003"><a xlink:href="structkest__parameter__id.html" target="_top" xlink:title=" ">
<polygon fill="white" stroke="#666666" points="292.75,-339.5 186,-339.5 186,-318.75 292.75,-318.75 292.75,-339.5"/>
<text xml:space="preserve" text-anchor="middle" x="239.38" y="-326" font-family="Helvetica,sans-Serif" font-size="10.00">kest_parameter_id</text>
</a>
</g>
</g>
<!-- Node3&#45;&gt;Node2 -->
<g id="edge2_Node000002_Node000003" class="edge">
<title>Node3&#45;&gt;Node2</title>
<g id="a_edge2_Node000002_Node000003"><a xlink:title=" ">
<path fill="none" stroke="#9a32cd" stroke-dasharray="5,2" d="M240.69,-307.07C242.99,-273.75 248.45,-206.92 258.38,-151 261.86,-131.34 268,-108.78 271.58,-96.35"/>
<polygon fill="#9a32cd" stroke="#9a32cd" points="237.21,-306.74 240.04,-316.95 244.19,-307.2 237.21,-306.74"/>
</a>
</g>
<text xml:space="preserve" text-anchor="start" x="255.33" y="-196" font-family="Helvetica,sans-Serif" font-size="10.00" fill="grey">id</text>
</g>
<!-- Node4 -->
<g id="Node000004" class="node">
<title>Node4</title>
<g id="a_Node000004"><a xlink:href="structkest__parameter.html" target="_top" xlink:title=" ">
<polygon fill="white" stroke="#666666" points="112.62,-247.25 20.12,-247.25 20.12,-226.5 112.62,-226.5 112.62,-247.25"/>
<text xml:space="preserve" text-anchor="middle" x="66.38" y="-233.75" font-family="Helvetica,sans-Serif" font-size="10.00">kest_parameter</text>
</a>
</g>
</g>
<!-- Node3&#45;&gt;Node4 -->
<g id="edge6_Node000004_Node000003" class="edge">
<title>Node3&#45;&gt;Node4</title>
<g id="a_edge6_Node000004_Node000003"><a xlink:title=" ">
<path fill="none" stroke="#9a32cd" stroke-dasharray="5,2" d="M210.71,-313.04C186.41,-300.28 150.64,-281.51 119.38,-265.25 108.17,-259.42 95.6,-252.93 85.52,-247.73"/>
<polygon fill="#9a32cd" stroke="#9a32cd" points="208.87,-316.03 219.35,-317.59 212.12,-309.83 208.87,-316.03"/>
</a>
</g>
<text xml:space="preserve" text-anchor="start" x="187.69" y="-279.88" font-family="Helvetica,sans-Serif" font-size="10.00" fill="grey">id</text>
</g>
<!-- Node4&#45;&gt;Node2 -->
<g id="edge3_Node000002_Node000004" class="edge">
<title>Node4&#45;&gt;Node2</title>
<g id="a_edge3_Node000002_Node000004"><a xlink:title=" ">
<path fill="none" stroke="#9a32cd" stroke-dasharray="5,2" d="M65.78,-214.84C66.36,-196.1 70.02,-168.93 84.88,-151 103.32,-128.73 177.93,-108.31 227.85,-96.74"/>
<polygon fill="#9a32cd" stroke="#9a32cd" points="62.28,-214.75 65.78,-224.75 69.28,-214.75 62.28,-214.75"/>
</a>
</g>
<text xml:space="preserve" text-anchor="start" x="87.88" y="-158.25" font-family="Helvetica,sans-Serif" font-size="10.00" fill="grey">param</text>
</g>
<!-- Node6 -->
<g id="Node000006" class="node">
<title>Node6</title>
<g id="a_Node000006"><a xlink:href="structkest__profile.html" target="_top" xlink:title=" ">
<polygon fill="white" stroke="#666666" points="204.88,-171.75 131.88,-171.75 131.88,-151 204.88,-151 204.88,-171.75"/>
<text xml:space="preserve" text-anchor="middle" x="168.38" y="-158.25" font-family="Helvetica,sans-Serif" font-size="10.00">kest_profile</text>
</a>
</g>
</g>
<!-- Node4&#45;&gt;Node6 -->
<g id="edge9_Node000006_Node000004" class="edge">
<title>Node4&#45;&gt;Node6</title>
<g id="a_edge9_Node000006_Node000004"><a xlink:title=" ">
<path fill="none" stroke="#9a32cd" stroke-dasharray="5,2" d="M85.67,-218.86C96.27,-209.82 109.84,-198.74 122.62,-189.75 131.56,-183.47 141.98,-177.16 150.61,-172.19"/>
<polygon fill="#9a32cd" stroke="#9a32cd" points="83.62,-216.01 78.35,-225.2 88.2,-221.3 83.62,-216.01"/>
</a>
</g>
<text xml:space="preserve" text-anchor="start" x="125.62" y="-196" font-family="Helvetica,sans-Serif" font-size="10.00" fill="grey">volume</text>
</g>
<!-- Node5 -->
<g id="Node000005" class="node">
<title>Node5</title>
<g id="a_Node000005"><a xlink:href="structkest__expression.html" target="_top" xlink:title=" ">
<polygon fill="white" stroke="#666666" points="94.75,-339.5 0,-339.5 0,-318.75 94.75,-318.75 94.75,-339.5"/>
<text xml:space="preserve" text-anchor="middle" x="47.38" y="-326" font-family="Helvetica,sans-Serif" font-size="10.00">kest_expression</text>
</a>
</g>
</g>
<!-- Node5&#45;&gt;Node4 -->
<g id="edge4_Node000004_Node000005" class="edge">
<title>Node5&#45;&gt;Node4</title>
<g id="a_edge4_Node000004_Node000005"><a xlink:title=" ">
<path fill="none" stroke="#9a32cd" stroke-dasharray="5,2" d="M51.76,-307.29C55.7,-288.59 61.3,-261.96 64.3,-247.74"/>
<polygon fill="#9a32cd" stroke="#9a32cd" points="48.36,-306.48 49.72,-316.99 55.21,-307.92 48.36,-306.48"/>
</a>
</g>
<text xml:space="preserve" text-anchor="start" x="63.23" y="-288.25" font-family="Helvetica,sans-Serif" font-size="10.00" fill="grey">max_expr</text>
<text xml:space="preserve" text-anchor="start" x="63.23" y="-271.5" font-family="Helvetica,sans-Serif" font-size="10.00" fill="grey">min_expr</text>
</g>
<!-- Node5&#45;&gt;Node5 -->
<g id="edge5_Node000005_Node000005" class="edge">
<title>Node5&#45;&gt;Node5</title>
<g id="a_edge5_Node000005_Node000005"><a xlink:title=" ">
<path fill="none" stroke="#9a32cd" stroke-dasharray="5,2" d="M106.15,-335.42C110.25,-333.98 112.75,-331.89 112.75,-329.12 112.75,-324.35 105.28,-321.55 94.97,-320.73"/>
<polygon fill="#9a32cd" stroke="#9a32cd" points="105.65,-331.96 96.46,-337.24 106.94,-338.84 105.65,-331.96"/>
</a>
</g>
<text xml:space="preserve" text-anchor="start" x="115.75" y="-326" font-family="Helvetica,sans-Serif" font-size="10.00" fill="grey">sub_exprs</text>
</g>
<!-- Node6&#45;&gt;Node1 -->
<g id="edge17_Node000001_Node000006" class="edge">
<title>Node6&#45;&gt;Node1</title>
<g id="a_edge17_Node000001_Node000006"><a xlink:title=" ">
<path fill="none" stroke="#9a32cd" stroke-dasharray="5,2" d="M160.98,-139.88C155.76,-121.72 151.53,-95.12 162.88,-75.5 179.14,-47.38 212.94,-30.51 239.08,-21.18"/>
<polygon fill="#9a32cd" stroke="#9a32cd" points="157.6,-140.8 164.01,-149.24 164.25,-138.65 157.6,-140.8"/>
</a>
</g>
<text xml:space="preserve" text-anchor="start" x="165.88" y="-82.75" font-family="Helvetica,sans-Serif" font-size="10.00" fill="grey">profile</text>
</g>
<!-- Node6&#45;&gt;Node2 -->
<g id="edge7_Node000002_Node000006" class="edge">
<title>Node6&#45;&gt;Node2</title>
<g id="a_edge7_Node000002_Node000006"><a xlink:title=" ">
<path fill="none" stroke="#9a32cd" stroke-dasharray="5,2" d="M173.05,-139.41C175.98,-130.58 180.63,-120.85 187.88,-114.25 196.61,-106.3 207.65,-100.65 218.9,-96.65"/>
<polygon fill="#9a32cd" stroke="#9a32cd" points="169.68,-138.48 170.43,-149.04 176.43,-140.31 169.68,-138.48"/>
</a>
</g>
<text xml:space="preserve" text-anchor="start" x="190.88" y="-120.5" font-family="Helvetica,sans-Serif" font-size="10.00" fill="grey">profile</text>
</g>
<!-- Node7 -->
<g id="Node000007" class="node">
<title>Node7</title>
<g id="a_Node000007"><a xlink:href="structkest__pipeline.html" target="_top" xlink:title=" ">
<polygon fill="white" stroke="#666666" points="211.62,-247.25 131.12,-247.25 131.12,-226.5 211.62,-226.5 211.62,-247.25"/>
<text xml:space="preserve" text-anchor="middle" x="171.38" y="-233.75" font-family="Helvetica,sans-Serif" font-size="10.00">kest_pipeline</text>
</a>
</g>
</g>
<!-- Node7&#45;&gt;Node6 -->
<g id="edge8_Node000006_Node000007" class="edge">
<title>Node7&#45;&gt;Node6</title>
<g id="a_edge8_Node000006_Node000007"><a xlink:title=" ">
<path fill="none" stroke="#9a32cd" stroke-dasharray="5,2" d="M170.53,-215.19C169.96,-201.13 169.22,-183.16 168.78,-172.22"/>
<polygon fill="#9a32cd" stroke="#9a32cd" points="167.02,-214.9 170.92,-224.75 174.01,-214.62 167.02,-214.9"/>
</a>
</g>
<text xml:space="preserve" text-anchor="start" x="173.23" y="-196" font-family="Helvetica,sans-Serif" font-size="10.00" fill="grey">pipeline</text>
</g>
<!-- Node8 -->
<g id="Node000008" class="node">
<title>Node8</title>
<g id="a_Node000008"><a xlink:href="structkest__ui__page.html" target="_top" xlink:title=" ">
<polygon fill="white" stroke="#666666" points="347.25,-171.75 267.5,-171.75 267.5,-151 347.25,-151 347.25,-171.75"/>
<text xml:space="preserve" text-anchor="middle" x="307.38" y="-158.25" font-family="Helvetica,sans-Serif" font-size="10.00">kest_ui_page</text>
</a>
</g>
</g>
<!-- Node8&#45;&gt;Node2 -->
<g id="edge10_Node000002_Node000008" class="edge">
<title>Node8&#45;&gt;Node2</title>
<g id="a_edge10_Node000002_Node000008"><a xlink:title=" ">
<path fill="none" stroke="#9a32cd" stroke-dasharray="5,2" d="M294.21,-141.05C292.64,-138.4 291.15,-135.67 289.88,-133 284.11,-120.96 279.56,-106.21 276.92,-96.69"/>
<polygon fill="#9a32cd" stroke="#9a32cd" points="291.14,-142.75 299.47,-149.3 297.04,-138.99 291.14,-142.75"/>
</a>
</g>
<text xml:space="preserve" text-anchor="start" x="292.88" y="-120.5" font-family="Helvetica,sans-Serif" font-size="10.00" fill="grey">parent</text>
</g>
<!-- Node8&#45;&gt;Node8 -->
<g id="edge14_Node000008_Node000008" class="edge">
<title>Node8&#45;&gt;Node8</title>
<g id="a_edge14_Node000008_Node000008"><a xlink:title=" ">
<path fill="none" stroke="#9a32cd" stroke-dasharray="5,2" d="M359,-166.66C362.87,-165.48 365.25,-163.72 365.25,-161.38 365.25,-157.21 357.73,-154.88 347.67,-154.39"/>
<polygon fill="#9a32cd" stroke="#9a32cd" points="358.54,-163.19 349.17,-168.13 359.58,-170.11 358.54,-163.19"/>
</a>
</g>
<text xml:space="preserve" text-anchor="start" x="368.25" y="-158.25" font-family="Helvetica,sans-Serif" font-size="10.00" fill="grey">parent</text>
</g>
<!-- Node9 -->
<g id="Node000009" class="node">
<title>Node9</title>
<g id="a_Node000009"><a xlink:href="structkest__ui__page__panel.html" target="_top" xlink:title=" ">
<polygon fill="white" stroke="#666666" points="509.38,-247.25 397.38,-247.25 397.38,-226.5 509.38,-226.5 509.38,-247.25"/>
<text xml:space="preserve" text-anchor="middle" x="453.38" y="-233.75" font-family="Helvetica,sans-Serif" font-size="10.00">kest_ui_page_panel</text>
</a>
</g>
</g>
<!-- Node9&#45;&gt;Node8 -->
<g id="edge11_Node000008_Node000009" class="edge">
<title>Node9&#45;&gt;Node8</title>
<g id="a_edge11_Node000008_Node000009"><a xlink:title=" ">
<path fill="none" stroke="#9a32cd" stroke-dasharray="5,2" d="M424.05,-221.11C395.13,-206.55 351.75,-184.72 326.84,-172.18"/>
<polygon fill="#9a32cd" stroke="#9a32cd" points="422.13,-224.06 432.64,-225.43 425.28,-217.81 422.13,-224.06"/>
</a>
</g>
<text xml:space="preserve" text-anchor="start" x="400.75" y="-196" font-family="Helvetica,sans-Serif" font-size="10.00" fill="grey">panel</text>
</g>
<!-- Node10 -->
<g id="Node000010" class="node">
<title>Node10</title>
<g id="a_Node000010"><a xlink:href="structkest__button.html" target="_top" xlink:title=" ">
<polygon fill="white" stroke="#666666" points="441.88,-339.5 368.88,-339.5 368.88,-318.75 441.88,-318.75 441.88,-339.5"/>
<text xml:space="preserve" text-anchor="middle" x="405.38" y="-326" font-family="Helvetica,sans-Serif" font-size="10.00">kest_button</text>
</a>
</g>
</g>
<!-- Node10&#45;&gt;Node8 -->
<g id="edge15_Node000008_Node000010" class="edge">
<title>Node10&#45;&gt;Node8</title>
<g id="a_edge15_Node000008_Node000010"><a xlink:title=" ">
<path fill="none" stroke="#9a32cd" stroke-dasharray="5,2" d="M374.14,-312.81C350.35,-299.24 319.32,-276.95 305.12,-247.25 293.24,-222.38 299.92,-188.56 304.38,-172.13"/>
<polygon fill="#9a32cd" stroke="#9a32cd" points="372.37,-315.83 382.83,-317.54 375.72,-309.69 372.37,-315.83"/>
</a>
</g>
<text xml:space="preserve" text-anchor="start" x="308.12" y="-233.75" font-family="Helvetica,sans-Serif" font-size="10.00" fill="grey">bottom_buttons</text>
</g>
<!-- Node10&#45;&gt;Node9 -->
<g id="edge12_Node000009_Node000010" class="edge">
<title>Node10&#45;&gt;Node9</title>
<g id="a_edge12_Node000009_Node000010"><a xlink:title=" ">
<path fill="none" stroke="#9a32cd" stroke-dasharray="5,2" d="M415.89,-308.35C425.86,-289.61 440.42,-262.24 448.13,-247.74"/>
<polygon fill="#9a32cd" stroke="#9a32cd" points="412.83,-306.66 411.22,-317.13 419.01,-309.94 412.83,-306.66"/>
</a>
</g>
<text xml:space="preserve" text-anchor="start" x="440.85" y="-288.25" font-family="Helvetica,sans-Serif" font-size="10.00" fill="grey">lb</text>
<text xml:space="preserve" text-anchor="start" x="440.85" y="-271.5" font-family="Helvetica,sans-Serif" font-size="10.00" fill="grey">rb</text>
</g>
<!-- Node10&#45;&gt;Node10 -->
<g id="edge13_Node000010_Node000010" class="edge">
<title>Node10&#45;&gt;Node10</title>
<g id="a_edge13_Node000010_Node000010"><a xlink:title=" ">
<path fill="none" stroke="#9a32cd" stroke-dasharray="5,2" d="M453.6,-335.73C457.47,-334.29 459.88,-332.09 459.88,-329.12 459.88,-323.85 452.29,-320.99 442.31,-320.54"/>
<polygon fill="#9a32cd" stroke="#9a32cd" points="453.05,-332.28 443.8,-337.45 454.25,-339.17 453.05,-332.28"/>
</a>
</g>
<text xml:space="preserve" text-anchor="start" x="462.88" y="-326" font-family="Helvetica,sans-Serif" font-size="10.00" fill="grey">sub_buttons</text>
</g>
<!-- Node11 -->
<g id="Node000011" class="node">
<title>Node11</title>
<g id="a_Node000011"><a xlink:href="structkest__representation.html" target="_top" xlink:title=" ">
<polygon fill="white" stroke="#666666" points="533.75,-171.75 421,-171.75 421,-151 533.75,-151 533.75,-171.75"/>
<text xml:space="preserve" text-anchor="middle" x="477.38" y="-158.25" font-family="Helvetica,sans-Serif" font-size="10.00">kest_representation</text>
</a>
</g>
</g>
<!-- Node11&#45;&gt;Node1 -->
<g id="edge18_Node000001_Node000011" class="edge">
<title>Node11&#45;&gt;Node1</title>
<g id="a_edge18_Node000001_Node000011"><a xlink:title=" ">
<path fill="none" stroke="#9a32cd" stroke-dasharray="5,2" d="M463.95,-141.58C444.03,-115 404.13,-66.56 359.38,-38.75 347,-31.06 332.25,-25.32 318.54,-21.15"/>
<polygon fill="#9a32cd" stroke="#9a32cd" points="460.94,-143.4 469.68,-149.39 466.59,-139.26 460.94,-143.4"/>
</a>
</g>
<text xml:space="preserve" text-anchor="start" x="428.24" y="-82.75" font-family="Helvetica,sans-Serif" font-size="10.00" fill="grey">rep</text>
</g>
<!-- Node11&#45;&gt;Node2 -->
<g id="edge16_Node000002_Node000011" class="edge">
<title>Node11&#45;&gt;Node2</title>
<g id="a_edge16_Node000002_Node000011"><a xlink:title=" ">
<path fill="none" stroke="#9a32cd" stroke-dasharray="5,2" d="M409.46,-150.08C391.21,-146.02 371.78,-140.48 354.62,-133 341.15,-127.13 339.99,-121.8 327.38,-114.25 316.89,-107.97 304.81,-101.66 294.84,-96.69"/>
<polygon fill="#9a32cd" stroke="#9a32cd" points="408.66,-153.49 419.17,-152.11 410.1,-146.63 408.66,-153.49"/>
</a>
</g>
<text xml:space="preserve" text-anchor="start" x="357.62" y="-120.5" font-family="Helvetica,sans-Serif" font-size="10.00" fill="grey">rep</text>
</g>
</g>
</svg>
