<?xml version="1.0" encoding="UTF-8" standalone="no"?>
<!DOCTYPE svg PUBLIC "-//W3C//DTD SVG 1.1//EN"
 "http://www.w3.org/Graphics/SVG/1.1/DTD/svg11.dtd">
<!-- Generated by graphviz version 13.1.2 (20250808.2320)
 -->
<!-- Title: kest_danger_button Pages: 1 -->
<svg width="314pt" height="272pt"
 viewBox="0.00 0.00 314.00 272.00" xmlns="http://www.w3.org/2000/svg" xmlns:xlink="http://www.w3.org/1999/xlink">

<svg id="main" version="1.1" xmlns="http://www.w3.org/2000/svg" xmlns:xlink="http://www.w3.org/1999/xlink" xml:space="preserve">

<style type="text/css"><![CDATA[
.node, .edge {opacity: 0.7;}
.node.selected, .edge.selected {opacity: 1;}
.edge:hover path { stroke: red; }
.edge:hover polygon { stroke: red; fill: red; }
]]></style>
<script type="application/ecmascript" xlink:href="svg.min.js"/>
<svg id="graph" class="graph">
<g id="graph0" class="graph" transform="scale(1 1) rotate(0) translate(4 268)">
<title>kest_danger_button</title>
<!-- Node1 -->
<g id="Node000001" class="node">
<title>Node1</title>
<g id="a_Node000001"><a xlink:title=" ">
<polygon fill="#999999" stroke="#666666" points="112,-20.75 0,-20.75 0,0 112,0 112,-20.75"/>
<text xml:space="preserve" text-anchor="middle" x="56" y="-7.25" font-family="Helvetica,sans-Serif" font-size="10.00">kest_danger_button</text>
</a>
</g>
</g>
<!-- Node2 -->
<g id="Node000002" class="node">
<title>Node2</title>
<g id="a_Node000002"><a xlink:href="structkest__button.html" target="_top" xlink:title=" ">
<polygon fill="white" stroke="#666666" points="129.5,-264 56.5,-264 56.5,-243.25 129.5,-243.25 129.5,-264"/>
<text xml:space="preserve" text-anchor="middle" x="93" y="-250.5" font-family="Helvetica,sans-Serif" font-size="10.00">kest_button</text>
</a>
</g>
</g>
<!-- Node2&#45;&gt;Node1 -->
<g id="edge1_Node000001_Node000002" class="edge">
<title>Node2&#45;&gt;Node1</title>
<g id="a_edge1_Node000001_Node000002"><a xlink:title=" ">
<path fill="none" stroke="#9a32cd" stroke-dasharray="5,2" d="M86.32,-232.1C78.93,-208.47 67.31,-168.37 61.5,-133 58.85,-116.85 59.84,-112.6 59,-96.25 57.58,-68.86 56.64,-36.47 56.23,-20.8"/>
<polygon fill="#9a32cd" stroke="#9a32cd" points="82.91,-232.93 89.28,-241.39 89.58,-230.8 82.91,-232.93"/>
</a>
</g>
<text xml:space="preserve" text-anchor="start" x="64.5" y="-120.5" font-family="Helvetica,sans-Serif" font-size="10.00" fill="grey">button</text>
</g>
<!-- Node2&#45;&gt;Node2 -->
<g id="edge2_Node000002_Node000002" class="edge">
<title>Node2&#45;&gt;Node2</title>
<g id="a_edge2_Node000002_Node000002"><a xlink:title=" ">
<path fill="none" stroke="#9a32cd" stroke-dasharray="5,2" d="M141.22,-260.23C145.1,-258.79 147.5,-256.59 147.5,-253.62 147.5,-248.35 139.91,-245.49 129.94,-245.04"/>
<polygon fill="#9a32cd" stroke="#9a32cd" points="140.67,-256.78 131.43,-261.95 141.88,-263.67 140.67,-256.78"/>
</a>
</g>
<text xml:space="preserve" text-anchor="start" x="150.5" y="-250.5" font-family="Helvetica,sans-Serif" font-size="10.00" fill="grey">sub_buttons</text>
</g>
<!-- Node3 -->
<g id="Node000003" class="node">
<title>Node3</title>
<g id="a_Node000003"><a xlink:href="structkest__ui__page.html" target="_top" xlink:title=" ">
<polygon fill="white" stroke="#666666" points="147.88,-96.25 68.12,-96.25 68.12,-75.5 147.88,-75.5 147.88,-96.25"/>
<text xml:space="preserve" text-anchor="middle" x="108" y="-82.75" font-family="Helvetica,sans-Serif" font-size="10.00">kest_ui_page</text>
</a>
</g>
</g>
<!-- Node2&#45;&gt;Node3 -->
<g id="edge7_Node000003_Node000002" class="edge">
<title>Node2&#45;&gt;Node3</title>
<g id="a_edge7_Node000003_Node000002"><a xlink:title=" ">
<path fill="none" stroke="#9a32cd" stroke-dasharray="5,2" d="M94.76,-231.37C96.48,-210.81 99.2,-178.76 101.75,-151 103.53,-131.62 105.78,-108.96 107.03,-96.43"/>
<polygon fill="#9a32cd" stroke="#9a32cd" points="91.27,-231.05 93.93,-241.3 98.25,-231.63 91.27,-231.05"/>
</a>
</g>
<text xml:space="preserve" text-anchor="start" x="104.75" y="-158.25" font-family="Helvetica,sans-Serif" font-size="10.00" fill="grey">bottom_buttons</text>
</g>
<!-- Node4 -->
<g id="Node000004" class="node">
<title>Node4</title>
<g id="a_Node000004"><a xlink:href="structkest__ui__page__panel.html" target="_top" xlink:title=" ">
<polygon fill="white" stroke="#666666" points="306,-171.75 194,-171.75 194,-151 306,-151 306,-171.75"/>
<text xml:space="preserve" text-anchor="middle" x="250" y="-158.25" font-family="Helvetica,sans-Serif" font-size="10.00">kest_ui_page_panel</text>
</a>
</g>
</g>
<!-- Node2&#45;&gt;Node4 -->
<g id="edge5_Node000004_Node000002" class="edge">
<title>Node2&#45;&gt;Node4</title>
<g id="a_edge5_Node000004_Node000002"><a xlink:title=" ">
<path fill="none" stroke="#9a32cd" stroke-dasharray="5,2" d="M119.81,-237.21C152.19,-218.6 205.68,-187.85 232.92,-172.19"/>
<polygon fill="#9a32cd" stroke="#9a32cd" points="118.34,-234.02 111.41,-242.04 121.83,-240.09 118.34,-234.02"/>
</a>
</g>
<text xml:space="preserve" text-anchor="start" x="202.22" y="-212.75" font-family="Helvetica,sans-Serif" font-size="10.00" fill="grey">lb</text>
<text xml:space="preserve" text-anchor="start" x="202.22" y="-196" font-family="Helvetica,sans-Serif" font-size="10.00" fill="grey">rb</text>
</g>
<!-- Node3&#45;&gt;Node1 -->
<g id="edge3_Node000001_Node000003" class="edge">
<title>Node3&#45;&gt;Node1</title>
<g id="a_edge3_Node000001_Node000003"><a xlink:title=" ">
<path fill="none" stroke="#9a32cd" stroke-dasharray="5,2" d="M94.56,-65.87C84.45,-51.59 71.02,-32.6 62.97,-21.22"/>
<polygon fill="#9a32cd" stroke="#9a32cd" points="91.69,-67.89 100.33,-74.03 97.41,-63.85 91.69,-67.89"/>
</a>
</g>
<text xml:space="preserve" text-anchor="start" x="91.19" y="-45" font-family="Helvetica,sans-Serif" font-size="10.00" fill="grey">parent</text>
</g>
<!-- Node3&#45;&gt;Node3 -->
<g id="edge6_Node000003_Node000003" class="edge">
<title>Node3&#45;&gt;Node3</title>
<g id="a_edge6_Node000003_Node000003"><a xlink:title=" ">
<path fill="none" stroke="#9a32cd" stroke-dasharray="5,2" d="M159.63,-91.16C163.5,-89.98 165.88,-88.22 165.88,-85.88 165.88,-81.71 158.36,-79.38 148.3,-78.89"/>
<polygon fill="#9a32cd" stroke="#9a32cd" points="159.17,-87.69 149.8,-92.63 160.2,-94.61 159.17,-87.69"/>
</a>
</g>
<text xml:space="preserve" text-anchor="start" x="168.88" y="-82.75" font-family="Helvetica,sans-Serif" font-size="10.00" fill="grey">parent</text>
</g>
<!-- Node4&#45;&gt;Node3 -->
<g id="edge4_Node000003_Node000004" class="edge">
<title>Node4&#45;&gt;Node3</title>
<g id="a_edge4_Node000003_Node000004"><a xlink:title=" ">
<path fill="none" stroke="#9a32cd" stroke-dasharray="5,2" d="M221.11,-145.42C192.98,-130.86 151.06,-109.16 126.93,-96.68"/>
<polygon fill="#9a32cd" stroke="#9a32cd" points="219.31,-148.43 229.8,-149.92 222.53,-142.21 219.31,-148.43"/>
</a>
</g>
<text xml:space="preserve" text-anchor="start" x="198.89" y="-120.5" font-family="Helvetica,sans-Serif" font-size="10.00" fill="grey">panel</text>
</g>
</g>
</svg>
</svg>

<style type='text/css'>
<![CDATA[
[data-mouse-over-selected='false'] { opacity: 0.7; }
[data-mouse-over-selected='true']  { opacity: 1.0; }
]]>
</style>
<script type="application/ecmascript"><![CDATA[
document.addEventListener('DOMContentLoaded', (event) => {
  highlightEdges();
  highlightAdjacentNodes();
});
]]></script>
</svg>
