<?xml version="1.0" encoding="UTF-8" standalone="no"?>
<!DOCTYPE svg PUBLIC "-//W3C//DTD SVG 1.1//EN"
 "http://www.w3.org/Graphics/SVG/1.1/DTD/svg11.dtd">
<!-- Generated by graphviz version 13.1.2 (20250808.2320)
 -->
<!-- Title: kest_expr_scope_entry Pages: 1 -->
<svg width="537pt" height="197pt"
 viewBox="0.00 0.00 537.00 197.00" xmlns="http://www.w3.org/2000/svg" xmlns:xlink="http://www.w3.org/1999/xlink">
<g id="graph0" class="graph" transform="scale(1 1) rotate(0) translate(4 192.5)">
<title>kest_expr_scope_entry</title>
<!-- Node1 -->
<g id="Node000001" class="node">
<title>Node1</title>
<g id="a_Node000001"><a xlink:title=" ">
<polygon fill="#999999" stroke="#666666" points="263.25,-20.75 135.5,-20.75 135.5,0 263.25,0 263.25,-20.75"/>
<text xml:space="preserve" text-anchor="middle" x="199.38" y="-7.25" font-family="Helvetica,sans-Serif" font-size="10.00">kest_expr_scope_entry</text>
</a>
</g>
</g>
<!-- Node2 -->
<g id="Node000002" class="node">
<title>Node2</title>
<g id="a_Node000002"><a xlink:href="structkest__expression.html" target="_top" xlink:title=" ">
<polygon fill="white" stroke="#666666" points="94.75,-188.5 0,-188.5 0,-167.75 94.75,-167.75 94.75,-188.5"/>
<text xml:space="preserve" text-anchor="middle" x="47.38" y="-175" font-family="Helvetica,sans-Serif" font-size="10.00">kest_expression</text>
</a>
</g>
</g>
<!-- Node2&#45;&gt;Node1 -->
<g id="edge1_Node000001_Node000002" class="edge">
<title>Node2&#45;&gt;Node1</title>
<g id="a_edge1_Node000001_Node000002"><a xlink:title=" ">
<path fill="none" stroke="#9a32cd" stroke-dasharray="5,2" d="M58.21,-157.54C70.64,-136.04 92.46,-101.19 116.62,-75.5 137.42,-53.39 166.3,-32.84 183.87,-21.22"/>
<polygon fill="#9a32cd" stroke="#9a32cd" points="55.23,-155.7 53.35,-166.12 61.32,-159.15 55.23,-155.7"/>
</a>
</g>
<text xml:space="preserve" text-anchor="start" x="119.62" y="-82.75" font-family="Helvetica,sans-Serif" font-size="10.00" fill="grey">expr</text>
</g>
<!-- Node2&#45;&gt;Node2 -->
<g id="edge2_Node000002_Node000002" class="edge">
<title>Node2&#45;&gt;Node2</title>
<g id="a_edge2_Node000002_Node000002"><a xlink:title=" ">
<path fill="none" stroke="#9a32cd" stroke-dasharray="5,2" d="M106.15,-184.42C110.25,-182.98 112.75,-180.89 112.75,-178.12 112.75,-173.35 105.28,-170.55 94.97,-169.73"/>
<polygon fill="#9a32cd" stroke="#9a32cd" points="105.65,-180.96 96.46,-186.24 106.94,-187.84 105.65,-180.96"/>
</a>
</g>
<text xml:space="preserve" text-anchor="start" x="115.75" y="-175" font-family="Helvetica,sans-Serif" font-size="10.00" fill="grey">sub_exprs</text>
</g>
<!-- Node3 -->
<g id="Node000003" class="node">
<title>Node3</title>
<g id="a_Node000003"><a xlink:href="structkest__parameter.html" target="_top" xlink:title=" ">
<polygon fill="white" stroke="#666666" points="245.62,-96.25 153.12,-96.25 153.12,-75.5 245.62,-75.5 245.62,-96.25"/>
<text xml:space="preserve" text-anchor="middle" x="199.38" y="-82.75" font-family="Helvetica,sans-Serif" font-size="10.00">kest_parameter</text>
</a>
</g>
</g>
<!-- Node2&#45;&gt;Node3 -->
<g id="edge4_Node000003_Node000002" class="edge">
<title>Node2&#45;&gt;Node3</title>
<g id="a_edge4_Node000003_Node000002"><a xlink:title=" ">
<path fill="none" stroke="#9a32cd" stroke-dasharray="5,2" d="M73.74,-161.47C105.13,-142.84 156.58,-112.28 182.84,-96.69"/>
<polygon fill="#9a32cd" stroke="#9a32cd" points="72.04,-158.41 65.23,-166.52 75.62,-164.43 72.04,-158.41"/>
</a>
</g>
<text xml:space="preserve" text-anchor="start" x="153.21" y="-137.25" font-family="Helvetica,sans-Serif" font-size="10.00" fill="grey">max_expr</text>
<text xml:space="preserve" text-anchor="start" x="153.21" y="-120.5" font-family="Helvetica,sans-Serif" font-size="10.00" fill="grey">min_expr</text>
</g>
<!-- Node3&#45;&gt;Node1 -->
<g id="edge3_Node000001_Node000003" class="edge">
<title>Node3&#45;&gt;Node1</title>
<g id="a_edge3_Node000001_Node000003"><a xlink:title=" ">
<path fill="none" stroke="#9a32cd" stroke-dasharray="5,2" d="M199.38,-63.76C199.38,-49.76 199.38,-32.05 199.38,-21.22"/>
<polygon fill="#9a32cd" stroke="#9a32cd" points="195.88,-63.75 199.38,-73.75 202.88,-63.75 195.88,-63.75"/>
</a>
</g>
<text xml:space="preserve" text-anchor="start" x="202.38" y="-45" font-family="Helvetica,sans-Serif" font-size="10.00" fill="grey">param</text>
</g>
<!-- Node4 -->
<g id="Node000004" class="node">
<title>Node4</title>
<g id="a_Node000004"><a xlink:href="structkest__parameter__id.html" target="_top" xlink:title=" ">
<polygon fill="white" stroke="#666666" points="292.75,-188.5 186,-188.5 186,-167.75 292.75,-167.75 292.75,-188.5"/>
<text xml:space="preserve" text-anchor="middle" x="239.38" y="-175" font-family="Helvetica,sans-Serif" font-size="10.00">kest_parameter_id</text>
</a>
</g>
</g>
<!-- Node4&#45;&gt;Node3 -->
<g id="edge5_Node000003_Node000004" class="edge">
<title>Node4&#45;&gt;Node3</title>
<g id="a_edge5_Node000003_Node000004"><a xlink:title=" ">
<path fill="none" stroke="#9a32cd" stroke-dasharray="5,2" d="M230.49,-157.09C222.19,-138.35 210.14,-111.17 203.75,-96.74"/>
<polygon fill="#9a32cd" stroke="#9a32cd" points="227.23,-158.36 234.48,-166.08 233.63,-155.52 227.23,-158.36"/>
</a>
</g>
<text xml:space="preserve" text-anchor="start" x="229.44" y="-128.88" font-family="Helvetica,sans-Serif" font-size="10.00" fill="grey">id</text>
</g>
<!-- Node5 -->
<g id="Node000005" class="node">
<title>Node5</title>
<g id="a_Node000005"><a xlink:href="structkest__setting.html" target="_top" xlink:title=" ">
<polygon fill="white" stroke="#666666" points="393,-96.25 317.75,-96.25 317.75,-75.5 393,-75.5 393,-96.25"/>
<text xml:space="preserve" text-anchor="middle" x="355.38" y="-82.75" font-family="Helvetica,sans-Serif" font-size="10.00">kest_setting</text>
</a>
</g>
</g>
<!-- Node5&#45;&gt;Node1 -->
<g id="edge6_Node000001_Node000005" class="edge">
<title>Node5&#45;&gt;Node1</title>
<g id="a_edge6_Node000001_Node000005"><a xlink:title=" ">
<path fill="none" stroke="#9a32cd" stroke-dasharray="5,2" d="M324.45,-70.3C293.55,-55.74 246.91,-33.77 220.18,-21.18"/>
<polygon fill="#9a32cd" stroke="#9a32cd" points="322.75,-73.37 333.29,-74.47 325.74,-67.04 322.75,-73.37"/>
</a>
</g>
<text xml:space="preserve" text-anchor="start" x="298.94" y="-45" font-family="Helvetica,sans-Serif" font-size="10.00" fill="grey">setting</text>
</g>
<!-- Node6 -->
<g id="Node000006" class="node">
<title>Node6</title>
<g id="a_Node000006"><a xlink:href="structkest__setting__id.html" target="_top" xlink:title=" ">
<polygon fill="white" stroke="#666666" points="400.12,-188.5 310.62,-188.5 310.62,-167.75 400.12,-167.75 400.12,-188.5"/>
<text xml:space="preserve" text-anchor="middle" x="355.38" y="-175" font-family="Helvetica,sans-Serif" font-size="10.00">kest_setting_id</text>
</a>
</g>
</g>
<!-- Node6&#45;&gt;Node5 -->
<g id="edge7_Node000005_Node000006" class="edge">
<title>Node6&#45;&gt;Node5</title>
<g id="a_edge7_Node000005_Node000006"><a xlink:title=" ">
<path fill="none" stroke="#9a32cd" stroke-dasharray="5,2" d="M355.38,-156.02C355.38,-137.33 355.38,-110.9 355.38,-96.74"/>
<polygon fill="#9a32cd" stroke="#9a32cd" points="351.88,-155.95 355.38,-165.95 358.88,-155.95 351.88,-155.95"/>
</a>
</g>
<text xml:space="preserve" text-anchor="start" x="358.38" y="-128.88" font-family="Helvetica,sans-Serif" font-size="10.00" fill="grey">id</text>
</g>
<!-- Node7 -->
<g id="Node000007" class="node">
<title>Node7</title>
<g id="a_Node000007"><a xlink:href="structkest__setting__option.html" target="_top" xlink:title=" ">
<polygon fill="white" stroke="#666666" points="529,-188.5 417.75,-188.5 417.75,-167.75 529,-167.75 529,-188.5"/>
<text xml:space="preserve" text-anchor="middle" x="473.38" y="-175" font-family="Helvetica,sans-Serif" font-size="10.00">kest_setting_option</text>
</a>
</g>
</g>
<!-- Node7&#45;&gt;Node5 -->
<g id="edge8_Node000005_Node000007" class="edge">
<title>Node7&#45;&gt;Node5</title>
<g id="a_edge8_Node000005_Node000007"><a xlink:title=" ">
<path fill="none" stroke="#9a32cd" stroke-dasharray="5,2" d="M451.87,-160.68C427.45,-142 388.38,-112.12 368.27,-96.74"/>
<polygon fill="#9a32cd" stroke="#9a32cd" points="449.48,-163.25 459.54,-166.55 453.73,-157.69 449.48,-163.25"/>
</a>
</g>
<text xml:space="preserve" text-anchor="start" x="438.21" y="-128.88" font-family="Helvetica,sans-Serif" font-size="10.00" fill="grey">options</text>
</g>
</g>
</svg>
