<?xml version="1.0" encoding="UTF-8" standalone="no"?>
<!DOCTYPE svg PUBLIC "-//W3C//DTD SVG 1.1//EN"
 "http://www.w3.org/Graphics/SVG/1.1/DTD/svg11.dtd">
<!-- Generated by graphviz version 13.1.2 (20250808.2320)
 -->
<!-- Title: kest_eff_desc_file_section Pages: 1 -->
<svg width="448pt" height="193pt"
 viewBox="0.00 0.00 448.00 193.00" xmlns="http://www.w3.org/2000/svg" xmlns:xlink="http://www.w3.org/1999/xlink">

<svg id="main" version="1.1" xmlns="http://www.w3.org/2000/svg" xmlns:xlink="http://www.w3.org/1999/xlink" xml:space="preserve">

<style type="text/css"><![CDATA[
.node, .edge {opacity: 0.7;}
.node.selected, .edge.selected {opacity: 1;}
.edge:hover path { stroke: red; }
.edge:hover polygon { stroke: red; fill: red; }
]]></style>
<script type="application/ecmascript" xlink:href="svg.min.js"/>
<svg id="graph" class="graph">
<g id="graph0" class="graph" transform="scale(1 1) rotate(0) translate(4 188.5)">
<title>kest_eff_desc_file_section</title>
<!-- Node1 -->
<g id="Node000001" class="node">
<title>Node1</title>
<g id="a_Node000001"><a xlink:title=" ">
<polygon fill="#999999" stroke="#666666" points="105.75,-109 2,-109 2,-75.5 105.75,-75.5 105.75,-109"/>
<text xml:space="preserve" text-anchor="start" x="10" y="-95.5" font-family="Helvetica,sans-Serif" font-size="10.00">kest_eff_desc_file</text>
<text xml:space="preserve" text-anchor="middle" x="53.88" y="-82.75" font-family="Helvetica,sans-Serif" font-size="10.00">_section</text>
</a>
</g>
</g>
<!-- Node2 -->
<g id="Node000002" class="node">
<title>Node2</title>
<g id="a_Node000002"><a xlink:href="structkest__token__ll.html" target="_top" xlink:title=" ">
<polygon fill="white" stroke="#666666" points="79.75,-184.5 0,-184.5 0,-163.75 79.75,-163.75 79.75,-184.5"/>
<text xml:space="preserve" text-anchor="middle" x="39.88" y="-171" font-family="Helvetica,sans-Serif" font-size="10.00">kest_token_ll</text>
</a>
</g>
</g>
<!-- Node2&#45;&gt;Node1 -->
<g id="edge1_Node000001_Node000002" class="edge">
<title>Node2&#45;&gt;Node1</title>
<g id="a_edge1_Node000001_Node000002"><a xlink:title=" ">
<path fill="none" stroke="#9a32cd" stroke-dasharray="5,2" d="M43.52,-152.36C45.86,-138.99 48.86,-121.87 51.03,-109.5"/>
<polygon fill="#9a32cd" stroke="#9a32cd" points="40.13,-151.39 41.85,-161.84 47.03,-152.59 40.13,-151.39"/>
</a>
</g>
<text xml:space="preserve" text-anchor="start" x="50.71" y="-133.25" font-family="Helvetica,sans-Serif" font-size="10.00" fill="grey">tokens</text>
</g>
<!-- Node2&#45;&gt;Node2 -->
<g id="edge2_Node000002_Node000002" class="edge">
<title>Node2&#45;&gt;Node2</title>
<g id="a_edge2_Node000002_Node000002"><a xlink:title=" ">
<path fill="none" stroke="#9a32cd" stroke-dasharray="5,2" d="M91.5,-179.41C95.37,-178.23 97.75,-176.47 97.75,-174.12 97.75,-169.96 90.23,-167.63 80.17,-167.14"/>
<polygon fill="#9a32cd" stroke="#9a32cd" points="91.04,-175.94 81.67,-180.88 92.08,-182.86 91.04,-175.94"/>
</a>
</g>
<text xml:space="preserve" text-anchor="start" x="100.75" y="-171" font-family="Helvetica,sans-Serif" font-size="10.00" fill="grey">next</text>
</g>
<!-- Node3 -->
<g id="Node000003" class="node">
<title>Node3</title>
<g id="a_Node000003"><a xlink:href="structkest__dictionary.html" target="_top" xlink:title=" ">
<polygon fill="white" stroke="#666666" points="234,-184.5 143.75,-184.5 143.75,-163.75 234,-163.75 234,-184.5"/>
<text xml:space="preserve" text-anchor="middle" x="188.88" y="-171" font-family="Helvetica,sans-Serif" font-size="10.00">kest_dictionary</text>
</a>
</g>
</g>
<!-- Node3&#45;&gt;Node1 -->
<g id="edge3_Node000001_Node000003" class="edge">
<title>Node3&#45;&gt;Node1</title>
<g id="a_edge3_Node000001_Node000003"><a xlink:title=" ">
<path fill="none" stroke="#9a32cd" stroke-dasharray="5,2" d="M144.94,-159.44C135.08,-155.62 124.88,-151.03 115.88,-145.75 98.72,-135.68 81.66,-120.78 69.78,-109.42"/>
<polygon fill="#9a32cd" stroke="#9a32cd" points="143.42,-162.61 154.02,-162.77 145.83,-156.04 143.42,-162.61"/>
</a>
</g>
<text xml:space="preserve" text-anchor="start" x="118.88" y="-133.25" font-family="Helvetica,sans-Serif" font-size="10.00" fill="grey">dict</text>
</g>
<!-- Node4 -->
<g id="Node000004" class="node">
<title>Node4</title>
<g id="a_Node000004"><a xlink:href="structkest__dictionary__entry.html" target="_top" xlink:title=" ">
<polygon fill="white" stroke="#666666" points="336.38,-102.62 215.38,-102.62 215.38,-81.88 336.38,-81.88 336.38,-102.62"/>
<text xml:space="preserve" text-anchor="middle" x="275.88" y="-89.12" font-family="Helvetica,sans-Serif" font-size="10.00">kest_dictionary_entry</text>
</a>
</g>
</g>
<!-- Node3&#45;&gt;Node4 -->
<g id="edge7_Node000004_Node000003" class="edge">
<title>Node3&#45;&gt;Node4</title>
<g id="a_edge7_Node000004_Node000003"><a xlink:title=" ">
<path fill="none" stroke="#9a32cd" stroke-dasharray="5,2" d="M215.07,-157.13C220.16,-153.61 225.33,-149.74 229.88,-145.75 245.18,-132.33 260.21,-113.91 268.73,-102.84"/>
<polygon fill="#9a32cd" stroke="#9a32cd" points="213.25,-154.14 206.82,-162.56 217.1,-159.99 213.25,-154.14"/>
</a>
</g>
<text xml:space="preserve" text-anchor="start" x="250.55" y="-133.25" font-family="Helvetica,sans-Serif" font-size="10.00" fill="grey">val_dict</text>
</g>
<!-- Node4&#45;&gt;Node3 -->
<g id="edge4_Node000003_Node000004" class="edge">
<title>Node4&#45;&gt;Node3</title>
<g id="a_edge4_Node000003_Node000004"><a xlink:title=" ">
<path fill="none" stroke="#9a32cd" stroke-dasharray="5,2" d="M213.1,-107.75C204.1,-112.47 195.93,-118.72 190.12,-127 182.68,-137.63 184.15,-153.27 186.24,-163.33"/>
<polygon fill="#9a32cd" stroke="#9a32cd" points="214.49,-110.97 222.17,-103.68 211.62,-104.59 214.49,-110.97"/>
</a>
</g>
<text xml:space="preserve" text-anchor="start" x="193.12" y="-133.25" font-family="Helvetica,sans-Serif" font-size="10.00" fill="grey">entries</text>
</g>
<!-- Node6 -->
<g id="Node000006" class="node">
<title>Node6</title>
<g id="a_Node000006"><a xlink:href="structkest__dictionary__bucket.html" target="_top" xlink:title=" ">
<polygon fill="white" stroke="#666666" points="233.75,-20.75 106,-20.75 106,0 233.75,0 233.75,-20.75"/>
<text xml:space="preserve" text-anchor="middle" x="169.88" y="-7.25" font-family="Helvetica,sans-Serif" font-size="10.00">kest_dictionary_bucket</text>
</a>
</g>
</g>
<!-- Node4&#45;&gt;Node6 -->
<g id="edge9_Node000006_Node000004" class="edge">
<title>Node4&#45;&gt;Node6</title>
<g id="a_edge9_Node000006_Node000004"><a xlink:title=" ">
<path fill="none" stroke="#9a32cd" stroke-dasharray="5,2" d="M253.86,-74.66C232.47,-58.54 200.68,-34.59 182.98,-21.25"/>
<polygon fill="#9a32cd" stroke="#9a32cd" points="251.58,-77.32 261.67,-80.54 255.79,-71.73 251.58,-77.32"/>
</a>
</g>
<text xml:space="preserve" text-anchor="start" x="232.22" y="-45" font-family="Helvetica,sans-Serif" font-size="10.00" fill="grey">entries</text>
</g>
<!-- Node5 -->
<g id="Node000005" class="node">
<title>Node5</title>
<g id="a_Node000005"><a xlink:href="structkest__expression.html" target="_top" xlink:title=" ">
<polygon fill="white" stroke="#666666" points="366.25,-184.5 271.5,-184.5 271.5,-163.75 366.25,-163.75 366.25,-184.5"/>
<text xml:space="preserve" text-anchor="middle" x="318.88" y="-171" font-family="Helvetica,sans-Serif" font-size="10.00">kest_expression</text>
</a>
</g>
</g>
<!-- Node5&#45;&gt;Node4 -->
<g id="edge5_Node000004_Node000005" class="edge">
<title>Node5&#45;&gt;Node4</title>
<g id="a_edge5_Node000004_Node000005"><a xlink:title=" ">
<path fill="none" stroke="#9a32cd" stroke-dasharray="5,2" d="M309.87,-152.99C306.06,-144.82 301.45,-135.36 296.88,-127 292.37,-118.77 286.72,-109.76 282.42,-103.12"/>
<polygon fill="#9a32cd" stroke="#9a32cd" points="306.67,-154.41 314,-162.05 313.03,-151.5 306.67,-154.41"/>
</a>
</g>
<text xml:space="preserve" text-anchor="start" x="309.44" y="-133.25" font-family="Helvetica,sans-Serif" font-size="10.00" fill="grey">val_expr</text>
</g>
<!-- Node5&#45;&gt;Node5 -->
<g id="edge6_Node000005_Node000005" class="edge">
<title>Node5&#45;&gt;Node5</title>
<g id="a_edge6_Node000005_Node000005"><a xlink:title=" ">
<path fill="none" stroke="#9a32cd" stroke-dasharray="5,2" d="M377.65,-179.28C381.75,-178.1 384.25,-176.38 384.25,-174.12 384.25,-170.22 376.78,-167.93 366.47,-167.26"/>
<polygon fill="#9a32cd" stroke="#9a32cd" points="377.32,-175.79 367.97,-180.76 378.39,-182.71 377.32,-175.79"/>
</a>
</g>
<text xml:space="preserve" text-anchor="start" x="387.25" y="-171" font-family="Helvetica,sans-Serif" font-size="10.00" fill="grey">sub_exprs</text>
</g>
<!-- Node6&#45;&gt;Node3 -->
<g id="edge8_Node000003_Node000006" class="edge">
<title>Node6&#45;&gt;Node3</title>
<g id="a_edge8_Node000003_Node000006"><a xlink:title=" ">
<path fill="none" stroke="#9a32cd" stroke-dasharray="5,2" d="M165.43,-32.28C161.92,-52.18 158.37,-82.87 163.38,-109 167.25,-129.24 177.43,-151.23 183.69,-163.48"/>
<polygon fill="#9a32cd" stroke="#9a32cd" points="168.83,-33.14 167.3,-22.66 161.96,-31.81 168.83,-33.14"/>
</a>
</g>
<text xml:space="preserve" text-anchor="start" x="166.38" y="-89.12" font-family="Helvetica,sans-Serif" font-size="10.00" fill="grey">buckets</text>
</g>
</g>
</svg>
</svg>

<style type='text/css'>
<![CDATA[
[data-mouse-over-selected='false'] { opacity: 0.7; }
[data-mouse-over-selected='true']  { opacity: 1.0; }
]]>
</style>
<script type="application/ecmascript"><![CDATA[
document.addEventListener('DOMContentLoaded', (event) => {
  highlightEdges();
  highlightAdjacentNodes();
});
]]></script>
</svg>
