<?xml version="1.0" encoding="UTF-8" standalone="no"?>
<!DOCTYPE svg PUBLIC "-//W3C//DTD SVG 1.1//EN"
 "http://www.w3.org/Graphics/SVG/1.1/DTD/svg11.dtd">
<!-- Generated by graphviz version 13.1.2 (20250808.2320)
 -->
<!-- Title: kest_asm_operand Pages: 1 -->
<svg width="198pt" height="197pt"
 viewBox="0.00 0.00 198.00 197.00" xmlns="http://www.w3.org/2000/svg" xmlns:xlink="http://www.w3.org/1999/xlink">

<svg id="main" version="1.1" xmlns="http://www.w3.org/2000/svg" xmlns:xlink="http://www.w3.org/1999/xlink" xml:space="preserve">

<style type="text/css"><![CDATA[
.node, .edge {opacity: 0.7;}
.node.selected, .edge.selected {opacity: 1;}
.edge:hover path { stroke: red; }
.edge:hover polygon { stroke: red; fill: red; }
]]></style>
<script type="application/ecmascript" xlink:href="svg.min.js"/>
<svg id="graph" class="graph">
<g id="graph0" class="graph" transform="scale(1 1) rotate(0) translate(4 192.5)">
<title>kest_asm_operand</title>
<!-- Node1 -->
<g id="Node000001" class="node">
<title>Node1</title>
<g id="a_Node000001"><a xlink:title=" ">
<polygon fill="#999999" stroke="#666666" points="107.5,-20.75 0,-20.75 0,0 107.5,0 107.5,-20.75"/>
<text xml:space="preserve" text-anchor="middle" x="53.75" y="-7.25" font-family="Helvetica,sans-Serif" font-size="10.00">kest_asm_operand</text>
</a>
</g>
</g>
<!-- Node2 -->
<g id="Node000002" class="node">
<title>Node2</title>
<g id="a_Node000002"><a xlink:href="structkest__expression.html" target="_top" xlink:title=" ">
<polygon fill="white" stroke="#666666" points="101.12,-188.5 6.38,-188.5 6.38,-167.75 101.12,-167.75 101.12,-188.5"/>
<text xml:space="preserve" text-anchor="middle" x="53.75" y="-175" font-family="Helvetica,sans-Serif" font-size="10.00">kest_expression</text>
</a>
</g>
</g>
<!-- Node2&#45;&gt;Node1 -->
<g id="edge1_Node000001_Node000002" class="edge">
<title>Node2&#45;&gt;Node1</title>
<g id="a_edge1_Node000001_Node000002"><a xlink:title=" ">
<path fill="none" stroke="#9a32cd" stroke-dasharray="5,2" d="M50.9,-156.18C48.46,-135.64 45.53,-103.43 47,-75.5 48.02,-56.05 50.77,-33.41 52.43,-20.91"/>
<polygon fill="#9a32cd" stroke="#9a32cd" points="47.4,-156.34 52.13,-165.82 54.34,-155.46 47.4,-156.34"/>
</a>
</g>
<text xml:space="preserve" text-anchor="start" x="50" y="-82.75" font-family="Helvetica,sans-Serif" font-size="10.00" fill="grey">expr</text>
</g>
<!-- Node2&#45;&gt;Node2 -->
<g id="edge2_Node000002_Node000002" class="edge">
<title>Node2&#45;&gt;Node2</title>
<g id="a_edge2_Node000002_Node000002"><a xlink:title=" ">
<path fill="none" stroke="#9a32cd" stroke-dasharray="5,2" d="M112.53,-184.42C116.63,-182.98 119.12,-180.89 119.12,-178.12 119.12,-173.35 111.65,-170.55 101.35,-169.73"/>
<polygon fill="#9a32cd" stroke="#9a32cd" points="112.02,-180.96 102.84,-186.24 113.31,-187.84 112.02,-180.96"/>
</a>
</g>
<text xml:space="preserve" text-anchor="start" x="122.12" y="-175" font-family="Helvetica,sans-Serif" font-size="10.00" fill="grey">sub_exprs</text>
</g>
<!-- Node3 -->
<g id="Node000003" class="node">
<title>Node3</title>
<g id="a_Node000003"><a xlink:href="structkest__dsp__resource.html" target="_top" xlink:title=" ">
<polygon fill="white" stroke="#666666" points="189.75,-96.25 83.75,-96.25 83.75,-75.5 189.75,-75.5 189.75,-96.25"/>
<text xml:space="preserve" text-anchor="middle" x="136.75" y="-82.75" font-family="Helvetica,sans-Serif" font-size="10.00">kest_dsp_resource</text>
</a>
</g>
</g>
<!-- Node2&#45;&gt;Node3 -->
<g id="edge4_Node000003_Node000002" class="edge">
<title>Node2&#45;&gt;Node3</title>
<g id="a_edge4_Node000003_Node000002"><a xlink:title=" ">
<path fill="none" stroke="#9a32cd" stroke-dasharray="5,2" d="M70.26,-159.17C87.5,-140.42 113.91,-111.71 127.68,-96.74"/>
<polygon fill="#9a32cd" stroke="#9a32cd" points="67.85,-156.62 63.66,-166.35 73,-161.36 67.85,-156.62"/>
</a>
</g>
<text xml:space="preserve" text-anchor="start" x="112.9" y="-137.25" font-family="Helvetica,sans-Serif" font-size="10.00" fill="grey">delay</text>
<text xml:space="preserve" text-anchor="start" x="112.9" y="-120.5" font-family="Helvetica,sans-Serif" font-size="10.00" fill="grey">size</text>
</g>
<!-- Node3&#45;&gt;Node1 -->
<g id="edge3_Node000001_Node000003" class="edge">
<title>Node3&#45;&gt;Node1</title>
<g id="a_edge3_Node000001_Node000003"><a xlink:title=" ">
<path fill="none" stroke="#9a32cd" stroke-dasharray="5,2" d="M117.6,-67.92C101.27,-53.45 78.34,-33.15 64.87,-21.22"/>
<polygon fill="#9a32cd" stroke="#9a32cd" points="114.96,-70.25 124.77,-74.26 119.6,-65.01 114.96,-70.25"/>
</a>
</g>
<text xml:space="preserve" text-anchor="start" x="108.13" y="-45" font-family="Helvetica,sans-Serif" font-size="10.00" fill="grey">res</text>
</g>
</g>
</svg>
</svg>

<style type='text/css'>
<![CDATA[
[data-mouse-over-selected='false'] { opacity: 0.7; }
[data-mouse-over-selected='true']  { opacity: 1.0; }
]]>
</style>
<script type="application/ecmascript"><![CDATA[
document.addEventListener('DOMContentLoaded', (event) => {
  highlightEdges();
  highlightAdjacentNodes();
});
]]></script>
</svg>
