<?xml version="1.0" encoding="UTF-8" standalone="no"?>
<!DOCTYPE svg PUBLIC "-//W3C//DTD SVG 1.1//EN"
 "http://www.w3.org/Graphics/SVG/1.1/DTD/svg11.dtd">
<!-- Generated by graphviz version 13.1.2 (20250808.2320)
 -->
<!-- Title: kest_parameter_update Pages: 1 -->
<svg width="749pt" height="413pt"
 viewBox="0.00 0.00 749.00 413.00" xmlns="http://www.w3.org/2000/svg" xmlns:xlink="http://www.w3.org/1999/xlink">
<g id="graph0" class="graph" transform="scale(1 1) rotate(0) translate(4 408.5)">
<title>kest_parameter_update</title>
<!-- Node1 -->
<g id="Node000001" class="node">
<title>Node1</title>
<g id="a_Node000001"><a xlink:title=" ">
<polygon fill="#999999" stroke="#666666" points="405,-20.75 273.5,-20.75 273.5,0 405,0 405,-20.75"/>
<text xml:space="preserve" text-anchor="middle" x="339.25" y="-7.25" font-family="Helvetica,sans-Serif" font-size="10.00">kest_parameter_update</text>
</a>
</g>
</g>
<!-- Node2 -->
<g id="Node000002" class="node">
<title>Node2</title>
<g id="a_Node000002"><a xlink:href="structkest__parameter__id.html" target="_top" xlink:title=" ">
<polygon fill="white" stroke="#666666" points="646.62,-404.5 539.88,-404.5 539.88,-383.75 646.62,-383.75 646.62,-404.5"/>
<text xml:space="preserve" text-anchor="middle" x="593.25" y="-391" font-family="Helvetica,sans-Serif" font-size="10.00">kest_parameter_id</text>
</a>
</g>
</g>
<!-- Node2&#45;&gt;Node1 -->
<g id="edge1_Node000001_Node000002" class="edge">
<title>Node2&#45;&gt;Node1</title>
<g id="a_edge1_Node000001_Node000002"><a xlink:title=" ">
<path fill="none" stroke="#9a32cd" stroke-dasharray="5,2" d="M646.45,-379.8C683.48,-366.97 726.25,-343.38 726.25,-302.88 726.25,-302.88 726.25,-302.88 726.25,-84.88 726.25,-20.33 515.87,-11.01 405.34,-10.56"/>
<polygon fill="#9a32cd" stroke="#9a32cd" points="645.57,-376.41 637.14,-382.83 647.73,-383.07 645.57,-376.41"/>
</a>
</g>
<text xml:space="preserve" text-anchor="start" x="729.25" y="-190.75" font-family="Helvetica,sans-Serif" font-size="10.00" fill="grey">id</text>
</g>
<!-- Node3 -->
<g id="Node000003" class="node">
<title>Node3</title>
<g id="a_Node000003"><a xlink:href="structkest__parameter.html" target="_top" xlink:title=" ">
<polygon fill="white" stroke="#666666" points="191.5,-312.25 99,-312.25 99,-291.5 191.5,-291.5 191.5,-312.25"/>
<text xml:space="preserve" text-anchor="middle" x="145.25" y="-298.75" font-family="Helvetica,sans-Serif" font-size="10.00">kest_parameter</text>
</a>
</g>
</g>
<!-- Node2&#45;&gt;Node3 -->
<g id="edge5_Node000003_Node000002" class="edge">
<title>Node2&#45;&gt;Node3</title>
<g id="a_edge5_Node000003_Node000002"><a xlink:title=" ">
<path fill="none" stroke="#9a32cd" stroke-dasharray="5,2" d="M533.31,-381.05C442.97,-362.85 273.8,-328.77 191.96,-312.29"/>
<polygon fill="#9a32cd" stroke="#9a32cd" points="532.48,-384.45 542.97,-383 533.86,-377.59 532.48,-384.45"/>
</a>
</g>
<text xml:space="preserve" text-anchor="start" x="451.34" y="-344.88" font-family="Helvetica,sans-Serif" font-size="10.00" fill="grey">id</text>
</g>
<!-- Node3&#45;&gt;Node1 -->
<g id="edge2_Node000001_Node000003" class="edge">
<title>Node3&#45;&gt;Node1</title>
<g id="a_edge2_Node000001_Node000003"><a xlink:title=" ">
<path fill="none" stroke="#9a32cd" stroke-dasharray="5,2" d="M87.64,-288.59C73.67,-284.41 61.52,-279.3 57.25,-273.5 41.2,-251.7 3.73,-282.82 72.25,-151 113.38,-71.86 218.16,-36.2 283.56,-21.21"/>
<polygon fill="#9a32cd" stroke="#9a32cd" points="86.54,-291.92 97.11,-291.2 88.4,-285.17 86.54,-291.92"/>
</a>
</g>
<text xml:space="preserve" text-anchor="start" x="99.76" y="-120.5" font-family="Helvetica,sans-Serif" font-size="10.00" fill="grey">p</text>
</g>
<!-- Node5 -->
<g id="Node000005" class="node">
<title>Node5</title>
<g id="a_Node000005"><a xlink:href="structkest__effect.html" target="_top" xlink:title=" ">
<polygon fill="white" stroke="#666666" points="374.25,-96.25 304.25,-96.25 304.25,-75.5 374.25,-75.5 374.25,-96.25"/>
<text xml:space="preserve" text-anchor="middle" x="339.25" y="-82.75" font-family="Helvetica,sans-Serif" font-size="10.00">kest_effect</text>
</a>
</g>
</g>
<!-- Node3&#45;&gt;Node5 -->
<g id="edge7_Node000005_Node000003" class="edge">
<title>Node3&#45;&gt;Node5</title>
<g id="a_edge7_Node000005_Node000003"><a xlink:title=" ">
<path fill="none" stroke="#9a32cd" stroke-dasharray="5,2" d="M169.19,-283.74C172.28,-280.63 175.11,-277.2 177.25,-273.5 204.98,-225.55 166.2,-194.69 200.25,-151 225.74,-118.3 271.78,-101.64 303.86,-93.62"/>
<polygon fill="#9a32cd" stroke="#9a32cd" points="167.08,-280.93 161.82,-290.12 171.67,-286.22 167.08,-280.93"/>
</a>
</g>
<text xml:space="preserve" text-anchor="start" x="203.25" y="-224.25" font-family="Helvetica,sans-Serif" font-size="10.00" fill="grey">band_center</text>
<text xml:space="preserve" text-anchor="start" x="203.25" y="-207.5" font-family="Helvetica,sans-Serif" font-size="10.00" fill="grey">band_hp_cutoff</text>
<text xml:space="preserve" text-anchor="start" x="203.25" y="-190.75" font-family="Helvetica,sans-Serif" font-size="10.00" fill="grey">band_lp_cutoff</text>
<text xml:space="preserve" text-anchor="start" x="203.25" y="-174" font-family="Helvetica,sans-Serif" font-size="10.00" fill="grey">band_width</text>
<text xml:space="preserve" text-anchor="start" x="203.25" y="-157.25" font-family="Helvetica,sans-Serif" font-size="10.00" fill="grey">wet_mix</text>
</g>
<!-- Node9 -->
<g id="Node000009" class="node">
<title>Node9</title>
<g id="a_Node000009"><a xlink:href="structkest__profile.html" target="_top" xlink:title=" ">
<polygon fill="white" stroke="#666666" points="154.75,-204.25 81.75,-204.25 81.75,-183.5 154.75,-183.5 154.75,-204.25"/>
<text xml:space="preserve" text-anchor="middle" x="118.25" y="-190.75" font-family="Helvetica,sans-Serif" font-size="10.00">kest_profile</text>
</a>
</g>
</g>
<!-- Node3&#45;&gt;Node9 -->
<g id="edge13_Node000009_Node000003" class="edge">
<title>Node3&#45;&gt;Node9</title>
<g id="a_edge13_Node000009_Node000003"><a xlink:title=" ">
<path fill="none" stroke="#9a32cd" stroke-dasharray="5,2" d="M136.86,-280.63C136,-278.25 135.19,-275.83 134.5,-273.5 127.27,-249.18 122.11,-219.7 119.73,-204.69"/>
<polygon fill="#9a32cd" stroke="#9a32cd" points="133.51,-281.68 140.41,-289.72 140.03,-279.14 133.51,-281.68"/>
</a>
</g>
<text xml:space="preserve" text-anchor="start" x="137.5" y="-261" font-family="Helvetica,sans-Serif" font-size="10.00" fill="grey">volume</text>
</g>
<!-- Node4 -->
<g id="Node000004" class="node">
<title>Node4</title>
<g id="a_Node000004"><a xlink:href="structkest__expression.html" target="_top" xlink:title=" ">
<polygon fill="white" stroke="#666666" points="192.62,-404.5 97.88,-404.5 97.88,-383.75 192.62,-383.75 192.62,-404.5"/>
<text xml:space="preserve" text-anchor="middle" x="145.25" y="-391" font-family="Helvetica,sans-Serif" font-size="10.00">kest_expression</text>
</a>
</g>
</g>
<!-- Node4&#45;&gt;Node3 -->
<g id="edge3_Node000003_Node000004" class="edge">
<title>Node4&#45;&gt;Node3</title>
<g id="a_edge3_Node000003_Node000004"><a xlink:title=" ">
<path fill="none" stroke="#9a32cd" stroke-dasharray="5,2" d="M145.25,-372.02C145.25,-353.33 145.25,-326.9 145.25,-312.74"/>
<polygon fill="#9a32cd" stroke="#9a32cd" points="141.75,-371.95 145.25,-381.95 148.75,-371.95 141.75,-371.95"/>
</a>
</g>
<text xml:space="preserve" text-anchor="start" x="148.25" y="-353.25" font-family="Helvetica,sans-Serif" font-size="10.00" fill="grey">max_expr</text>
<text xml:space="preserve" text-anchor="start" x="148.25" y="-336.5" font-family="Helvetica,sans-Serif" font-size="10.00" fill="grey">min_expr</text>
</g>
<!-- Node4&#45;&gt;Node4 -->
<g id="edge4_Node000004_Node000004" class="edge">
<title>Node4&#45;&gt;Node4</title>
<g id="a_edge4_Node000004_Node000004"><a xlink:title=" ">
<path fill="none" stroke="#9a32cd" stroke-dasharray="5,2" d="M204.03,-400.42C208.13,-398.98 210.62,-396.89 210.62,-394.12 210.62,-389.35 203.15,-386.55 192.85,-385.73"/>
<polygon fill="#9a32cd" stroke="#9a32cd" points="203.52,-396.96 194.34,-402.24 204.81,-403.84 203.52,-396.96"/>
</a>
</g>
<text xml:space="preserve" text-anchor="start" x="213.62" y="-391" font-family="Helvetica,sans-Serif" font-size="10.00" fill="grey">sub_exprs</text>
</g>
<!-- Node5&#45;&gt;Node1 -->
<g id="edge6_Node000001_Node000005" class="edge">
<title>Node5&#45;&gt;Node1</title>
<g id="a_edge6_Node000001_Node000005"><a xlink:title=" ">
<path fill="none" stroke="#9a32cd" stroke-dasharray="5,2" d="M339.25,-63.76C339.25,-49.76 339.25,-32.05 339.25,-21.22"/>
<polygon fill="#9a32cd" stroke="#9a32cd" points="335.75,-63.75 339.25,-73.75 342.75,-63.75 335.75,-63.75"/>
</a>
</g>
<text xml:space="preserve" text-anchor="start" x="342.25" y="-45" font-family="Helvetica,sans-Serif" font-size="10.00" fill="grey">t</text>
</g>
<!-- Node6 -->
<g id="Node000006" class="node">
<title>Node6</title>
<g id="a_Node000006"><a xlink:href="structkest__setting.html" target="_top" xlink:title=" ">
<polygon fill="white" stroke="#666666" points="561.88,-204.25 486.62,-204.25 486.62,-183.5 561.88,-183.5 561.88,-204.25"/>
<text xml:space="preserve" text-anchor="middle" x="524.25" y="-190.75" font-family="Helvetica,sans-Serif" font-size="10.00">kest_setting</text>
</a>
</g>
</g>
<!-- Node6&#45;&gt;Node5 -->
<g id="edge8_Node000005_Node000006" class="edge">
<title>Node6&#45;&gt;Node5</title>
<g id="a_edge8_Node000005_Node000006"><a xlink:title=" ">
<path fill="none" stroke="#9a32cd" stroke-dasharray="5,2" d="M509.02,-174.64C493.12,-156.74 466.59,-129.92 438.25,-114.25 418.59,-103.38 394.3,-96.57 374.7,-92.47"/>
<polygon fill="#9a32cd" stroke="#9a32cd" points="506.14,-176.66 515.32,-181.93 511.43,-172.08 506.14,-176.66"/>
</a>
</g>
<text xml:space="preserve" text-anchor="start" x="467.6" y="-120.5" font-family="Helvetica,sans-Serif" font-size="10.00" fill="grey">band_mode</text>
</g>
<!-- Node7 -->
<g id="Node000007" class="node">
<title>Node7</title>
<g id="a_Node000007"><a xlink:href="structkest__setting__id.html" target="_top" xlink:title=" ">
<polygon fill="white" stroke="#666666" points="569,-312.25 479.5,-312.25 479.5,-291.5 569,-291.5 569,-312.25"/>
<text xml:space="preserve" text-anchor="middle" x="524.25" y="-298.75" font-family="Helvetica,sans-Serif" font-size="10.00">kest_setting_id</text>
</a>
</g>
</g>
<!-- Node7&#45;&gt;Node6 -->
<g id="edge9_Node000006_Node000007" class="edge">
<title>Node7&#45;&gt;Node6</title>
<g id="a_edge9_Node000006_Node000007"><a xlink:title=" ">
<path fill="none" stroke="#9a32cd" stroke-dasharray="5,2" d="M524.25,-279.61C524.25,-256.8 524.25,-221.58 524.25,-204.63"/>
<polygon fill="#9a32cd" stroke="#9a32cd" points="520.75,-279.58 524.25,-289.58 527.75,-279.58 520.75,-279.58"/>
</a>
</g>
<text xml:space="preserve" text-anchor="start" x="527.25" y="-261" font-family="Helvetica,sans-Serif" font-size="10.00" fill="grey">id</text>
</g>
<!-- Node8 -->
<g id="Node000008" class="node">
<title>Node8</title>
<g id="a_Node000008"><a xlink:href="structkest__setting__option.html" target="_top" xlink:title=" ">
<polygon fill="white" stroke="#666666" points="697.88,-312.25 586.62,-312.25 586.62,-291.5 697.88,-291.5 697.88,-312.25"/>
<text xml:space="preserve" text-anchor="middle" x="642.25" y="-298.75" font-family="Helvetica,sans-Serif" font-size="10.00">kest_setting_option</text>
</a>
</g>
</g>
<!-- Node8&#45;&gt;Node6 -->
<g id="edge10_Node000006_Node000008" class="edge">
<title>Node8&#45;&gt;Node6</title>
<g id="a_edge10_Node000006_Node000008"><a xlink:title=" ">
<path fill="none" stroke="#9a32cd" stroke-dasharray="5,2" d="M623.03,-283.61C598,-261.13 555.11,-222.6 535.11,-204.63"/>
<polygon fill="#9a32cd" stroke="#9a32cd" points="620.46,-286 630.23,-290.08 625.13,-280.79 620.46,-286"/>
</a>
</g>
<text xml:space="preserve" text-anchor="start" x="613.6" y="-261" font-family="Helvetica,sans-Serif" font-size="10.00" fill="grey">options</text>
</g>
<!-- Node9&#45;&gt;Node5 -->
<g id="edge11_Node000005_Node000009" class="edge">
<title>Node9&#45;&gt;Node5</title>
<g id="a_edge11_Node000005_Node000009"><a xlink:title=" ">
<path fill="none" stroke="#9a32cd" stroke-dasharray="5,2" d="M117.99,-171.81C118.98,-153.77 123.49,-128.51 139.75,-114.25 163.53,-93.39 253.41,-88.34 304.04,-87.17"/>
<polygon fill="#9a32cd" stroke="#9a32cd" points="114.49,-171.58 117.8,-181.65 121.49,-171.72 114.49,-171.58"/>
</a>
</g>
<text xml:space="preserve" text-anchor="start" x="142.75" y="-120.5" font-family="Helvetica,sans-Serif" font-size="10.00" fill="grey">profile</text>
</g>
<!-- Node10 -->
<g id="Node000010" class="node">
<title>Node10</title>
<g id="a_Node000010"><a xlink:href="structkest__pipeline.html" target="_top" xlink:title=" ">
<polygon fill="white" stroke="#666666" points="80.5,-312.25 0,-312.25 0,-291.5 80.5,-291.5 80.5,-312.25"/>
<text xml:space="preserve" text-anchor="middle" x="40.25" y="-298.75" font-family="Helvetica,sans-Serif" font-size="10.00">kest_pipeline</text>
</a>
</g>
</g>
<!-- Node10&#45;&gt;Node9 -->
<g id="edge12_Node000009_Node000010" class="edge">
<title>Node10&#45;&gt;Node9</title>
<g id="a_edge12_Node000009_Node000010"><a xlink:title=" ">
<path fill="none" stroke="#9a32cd" stroke-dasharray="5,2" d="M54.06,-282.1C70.73,-259.45 98.14,-222.21 111.07,-204.63"/>
<polygon fill="#9a32cd" stroke="#9a32cd" points="51.45,-279.74 48.35,-289.87 57.09,-283.89 51.45,-279.74"/>
</a>
</g>
<text xml:space="preserve" text-anchor="start" x="75.26" y="-261" font-family="Helvetica,sans-Serif" font-size="10.00" fill="grey">pipeline</text>
</g>
<!-- Node11 -->
<g id="Node000011" class="node">
<title>Node11</title>
<g id="a_Node000011"><a xlink:href="structkest__effect__desc.html" target="_top" xlink:title=" ">
<polygon fill="white" stroke="#666666" points="388.12,-204.25 290.38,-204.25 290.38,-183.5 388.12,-183.5 388.12,-204.25"/>
<text xml:space="preserve" text-anchor="middle" x="339.25" y="-190.75" font-family="Helvetica,sans-Serif" font-size="10.00">kest_effect_desc</text>
</a>
</g>
</g>
<!-- Node11&#45;&gt;Node5 -->
<g id="edge14_Node000005_Node000011" class="edge">
<title>Node11&#45;&gt;Node5</title>
<g id="a_edge14_Node000005_Node000011"><a xlink:title=" ">
<path fill="none" stroke="#9a32cd" stroke-dasharray="5,2" d="M339.25,-171.61C339.25,-148.8 339.25,-113.58 339.25,-96.63"/>
<polygon fill="#9a32cd" stroke="#9a32cd" points="335.75,-171.58 339.25,-181.58 342.75,-171.58 335.75,-171.58"/>
</a>
</g>
<text xml:space="preserve" text-anchor="start" x="342.25" y="-120.5" font-family="Helvetica,sans-Serif" font-size="10.00" fill="grey">eff</text>
</g>
<!-- Node12 -->
<g id="Node000012" class="node">
<title>Node12</title>
<g id="a_Node000012"><a xlink:href="structkest__eff__resource__report.html" target="_top" xlink:title=" ">
<polygon fill="white" stroke="#666666" points="346.62,-312.25 209.88,-312.25 209.88,-291.5 346.62,-291.5 346.62,-312.25"/>
<text xml:space="preserve" text-anchor="middle" x="278.25" y="-298.75" font-family="Helvetica,sans-Serif" font-size="10.00">kest_eff_resource_report</text>
</a>
</g>
</g>
<!-- Node12&#45;&gt;Node11 -->
<g id="edge15_Node000011_Node000012" class="edge">
<title>Node12&#45;&gt;Node11</title>
<g id="a_edge15_Node000011_Node000012"><a xlink:title=" ">
<path fill="none" stroke="#9a32cd" stroke-dasharray="5,2" d="M284.53,-280.49C287.4,-272.27 291.14,-262.84 295.5,-254.75 305.76,-235.71 321.4,-215.88 330.93,-204.49"/>
<polygon fill="#9a32cd" stroke="#9a32cd" points="281.22,-279.33 281.44,-289.92 287.88,-281.51 281.22,-279.33"/>
</a>
</g>
<text xml:space="preserve" text-anchor="start" x="298.5" y="-261" font-family="Helvetica,sans-Serif" font-size="10.00" fill="grey">res_rpt</text>
</g>
<!-- Node13 -->
<g id="Node000013" class="node">
<title>Node13</title>
<g id="a_Node000013"><a xlink:href="structkest__expr__scope.html" target="_top" xlink:title=" ">
<polygon fill="white" stroke="#666666" points="461.75,-312.25 364.75,-312.25 364.75,-291.5 461.75,-291.5 461.75,-312.25"/>
<text xml:space="preserve" text-anchor="middle" x="413.25" y="-298.75" font-family="Helvetica,sans-Serif" font-size="10.00">kest_expr_scope</text>
</a>
</g>
</g>
<!-- Node13&#45;&gt;Node5 -->
<g id="edge17_Node000005_Node000013" class="edge">
<title>Node13&#45;&gt;Node5</title>
<g id="a_edge17_Node000005_Node000013"><a xlink:title=" ">
<path fill="none" stroke="#9a32cd" stroke-dasharray="5,2" d="M415.07,-280.1C416.82,-250.12 416.82,-193.67 397.25,-151 386.86,-128.35 365.56,-108.11 351.86,-96.68"/>
<polygon fill="#9a32cd" stroke="#9a32cd" points="411.6,-279.47 414.37,-289.7 418.58,-279.98 411.6,-279.47"/>
</a>
</g>
<text xml:space="preserve" text-anchor="start" x="418.32" y="-190.75" font-family="Helvetica,sans-Serif" font-size="10.00" fill="grey">scope</text>
</g>
<!-- Node13&#45;&gt;Node11 -->
<g id="edge16_Node000011_Node000013" class="edge">
<title>Node13&#45;&gt;Node11</title>
<g id="a_edge16_Node000011_Node000013"><a xlink:title=" ">
<path fill="none" stroke="#9a32cd" stroke-dasharray="5,2" d="M387.05,-284.44C382.95,-281.14 379,-277.46 375.75,-273.5 358.08,-251.98 346.89,-220.5 342.04,-204.7"/>
<polygon fill="#9a32cd" stroke="#9a32cd" points="384.69,-287.05 394.84,-290.11 388.82,-281.4 384.69,-287.05"/>
</a>
</g>
<text xml:space="preserve" text-anchor="start" x="378.75" y="-261" font-family="Helvetica,sans-Serif" font-size="10.00" fill="grey">scope</text>
</g>
</g>
</svg>
