<?xml version="1.0" encoding="UTF-8" standalone="no"?>
<!DOCTYPE svg PUBLIC "-//W3C//DTD SVG 1.1//EN"
 "http://www.w3.org/Graphics/SVG/1.1/DTD/svg11.dtd">
<!-- Generated by graphviz version 13.1.2 (20250808.2320)
 -->
<!-- Title: kest_setting_widget Pages: 1 -->
<svg width="701pt" height="281pt"
 viewBox="0.00 0.00 701.00 281.00" xmlns="http://www.w3.org/2000/svg" xmlns:xlink="http://www.w3.org/1999/xlink">
<g id="graph0" class="graph" transform="scale(1 1) rotate(0) translate(4 276.75)">
<title>kest_setting_widget</title>
<!-- Node1 -->
<g id="Node000001" class="node">
<title>Node1</title>
<g id="a_Node000001"><a xlink:title=" ">
<polygon fill="#999999" stroke="#666666" points="692.5,-152.75 579,-152.75 579,-132 692.5,-132 692.5,-152.75"/>
<text xml:space="preserve" text-anchor="middle" x="635.75" y="-139.25" font-family="Helvetica,sans-Serif" font-size="10.00">kest_setting_widget</text>
</a>
</g>
</g>
<!-- Node2 -->
<g id="Node000002" class="node">
<title>Node2</title>
<g id="a_Node000002"><a xlink:href="structkest__parameter__id.html" target="_top" xlink:title=" ">
<polygon fill="white" stroke="#666666" points="106.75,-272.75 0,-272.75 0,-252 106.75,-252 106.75,-272.75"/>
<text xml:space="preserve" text-anchor="middle" x="53.38" y="-259.25" font-family="Helvetica,sans-Serif" font-size="10.00">kest_parameter_id</text>
</a>
</g>
</g>
<!-- Node2&#45;&gt;Node1 -->
<g id="edge1_Node000001_Node000002" class="edge">
<title>Node2&#45;&gt;Node1</title>
<g id="a_edge1_Node000001_Node000002"><a xlink:title=" ">
<path fill="none" stroke="#9a32cd" stroke-dasharray="5,2" d="M118.35,-260.18C137.97,-259.41 159.63,-258.46 179.5,-257.38 351.17,-248 404.17,-263.82 561,-193.38 584.43,-182.85 608.29,-164.71 622.3,-153.14"/>
<polygon fill="#9a32cd" stroke="#9a32cd" points="118.42,-256.67 108.57,-260.55 118.69,-263.67 118.42,-256.67"/>
</a>
</g>
<text xml:space="preserve" text-anchor="start" x="345.5" y="-258.07" font-family="Helvetica,sans-Serif" font-size="10.00" fill="grey">id</text>
</g>
<!-- Node8 -->
<g id="Node000008" class="node">
<title>Node8</title>
<g id="a_Node000008"><a xlink:href="structkest__parameter.html" target="_top" xlink:title=" ">
<polygon fill="white" stroke="#666666" points="299.75,-239.75 207.25,-239.75 207.25,-219 299.75,-219 299.75,-239.75"/>
<text xml:space="preserve" text-anchor="middle" x="253.5" y="-226.25" font-family="Helvetica,sans-Serif" font-size="10.00">kest_parameter</text>
</a>
</g>
</g>
<!-- Node2&#45;&gt;Node8 -->
<g id="edge10_Node000008_Node000002" class="edge">
<title>Node2&#45;&gt;Node8</title>
<g id="a_edge10_Node000008_Node000002"><a xlink:title=" ">
<path fill="none" stroke="#9a32cd" stroke-dasharray="5,2" d="M91.57,-247.87C102.15,-244.28 113.77,-240.84 124.75,-238.62 151.67,-233.2 182.35,-230.86 206.89,-229.88"/>
<polygon fill="#9a32cd" stroke="#9a32cd" points="90.69,-244.47 82.43,-251.1 93.03,-251.06 90.69,-244.47"/>
</a>
</g>
<text xml:space="preserve" text-anchor="start" x="147.62" y="-244.88" font-family="Helvetica,sans-Serif" font-size="10.00" fill="grey">id</text>
</g>
<!-- Node3 -->
<g id="Node000003" class="node">
<title>Node3</title>
<g id="a_Node000003"><a xlink:href="structkest__setting.html" target="_top" xlink:title=" ">
<polygon fill="white" stroke="#666666" points="484.5,-152.75 409.25,-152.75 409.25,-132 484.5,-132 484.5,-152.75"/>
<text xml:space="preserve" text-anchor="middle" x="446.88" y="-139.25" font-family="Helvetica,sans-Serif" font-size="10.00">kest_setting</text>
</a>
</g>
</g>
<!-- Node3&#45;&gt;Node1 -->
<g id="edge2_Node000001_Node000003" class="edge">
<title>Node3&#45;&gt;Node1</title>
<g id="a_edge2_Node000001_Node000003"><a xlink:title=" ">
<path fill="none" stroke="#9a32cd" stroke-dasharray="5,2" d="M496.31,-142.38C521.53,-142.38 552.5,-142.38 578.75,-142.38"/>
<polygon fill="#9a32cd" stroke="#9a32cd" points="496.31,-138.88 486.31,-142.38 496.31,-145.88 496.31,-138.88"/>
</a>
</g>
<text xml:space="preserve" text-anchor="start" x="524.25" y="-148.62" font-family="Helvetica,sans-Serif" font-size="10.00" fill="grey">setting</text>
</g>
<!-- Node4 -->
<g id="Node000004" class="node">
<title>Node4</title>
<g id="a_Node000004"><a xlink:href="structkest__setting__id.html" target="_top" xlink:title=" ">
<polygon fill="white" stroke="#666666" points="298.25,-155.75 208.75,-155.75 208.75,-135 298.25,-135 298.25,-155.75"/>
<text xml:space="preserve" text-anchor="middle" x="253.5" y="-142.25" font-family="Helvetica,sans-Serif" font-size="10.00">kest_setting_id</text>
</a>
</g>
</g>
<!-- Node4&#45;&gt;Node3 -->
<g id="edge3_Node000003_Node000004" class="edge">
<title>Node4&#45;&gt;Node3</title>
<g id="a_edge3_Node000003_Node000004"><a xlink:title=" ">
<path fill="none" stroke="#9a32cd" stroke-dasharray="5,2" d="M309.78,-144.51C341.63,-144.01 380.8,-143.4 408.93,-142.95"/>
<polygon fill="#9a32cd" stroke="#9a32cd" points="309.86,-141.01 299.92,-144.66 309.97,-148.01 309.86,-141.01"/>
</a>
</g>
<text xml:space="preserve" text-anchor="start" x="345.5" y="-150.39" font-family="Helvetica,sans-Serif" font-size="10.00" fill="grey">id</text>
</g>
<!-- Node5 -->
<g id="Node000005" class="node">
<title>Node5</title>
<g id="a_Node000005"><a xlink:href="structkest__setting__option.html" target="_top" xlink:title=" ">
<polygon fill="white" stroke="#666666" points="309.12,-115.75 197.88,-115.75 197.88,-95 309.12,-95 309.12,-115.75"/>
<text xml:space="preserve" text-anchor="middle" x="253.5" y="-102.25" font-family="Helvetica,sans-Serif" font-size="10.00">kest_setting_option</text>
</a>
</g>
</g>
<!-- Node5&#45;&gt;Node3 -->
<g id="edge4_Node000003_Node000005" class="edge">
<title>Node5&#45;&gt;Node3</title>
<g id="a_edge4_Node000003_Node000005"><a xlink:title=" ">
<path fill="none" stroke="#9a32cd" stroke-dasharray="5,2" d="M320.44,-112.01C337.49,-114.24 355.76,-117.09 372.5,-120.62 386.02,-123.48 400.66,-127.61 413.29,-131.5"/>
<polygon fill="#9a32cd" stroke="#9a32cd" points="321.3,-108.59 310.94,-110.82 320.43,-115.53 321.3,-108.59"/>
</a>
</g>
<text xml:space="preserve" text-anchor="start" x="332" y="-126.88" font-family="Helvetica,sans-Serif" font-size="10.00" fill="grey">options</text>
</g>
<!-- Node6 -->
<g id="Node000006" class="node">
<title>Node6</title>
<g id="a_Node000006"><a xlink:href="structkest__profile.html" target="_top" xlink:title=" ">
<polygon fill="white" stroke="#666666" points="483.38,-197.75 410.38,-197.75 410.38,-177 483.38,-177 483.38,-197.75"/>
<text xml:space="preserve" text-anchor="middle" x="446.88" y="-184.25" font-family="Helvetica,sans-Serif" font-size="10.00">kest_profile</text>
</a>
</g>
</g>
<!-- Node6&#45;&gt;Node1 -->
<g id="edge5_Node000001_Node000006" class="edge">
<title>Node6&#45;&gt;Node1</title>
<g id="a_edge5_Node000001_Node000006"><a xlink:title=" ">
<path fill="none" stroke="#9a32cd" stroke-dasharray="5,2" d="M494.85,-177.51C515.23,-173.1 539.35,-167.7 561,-162.38 572.47,-159.56 584.87,-156.28 596.18,-153.2"/>
<polygon fill="#9a32cd" stroke="#9a32cd" points="494.16,-174.08 485.12,-179.61 495.63,-180.93 494.16,-174.08"/>
</a>
</g>
<text xml:space="preserve" text-anchor="start" x="525.38" y="-177.37" font-family="Helvetica,sans-Serif" font-size="10.00" fill="grey">profile</text>
</g>
<!-- Node7 -->
<g id="Node000007" class="node">
<title>Node7</title>
<g id="a_Node000007"><a xlink:href="structkest__pipeline.html" target="_top" xlink:title=" ">
<polygon fill="white" stroke="#666666" points="293.75,-197.75 213.25,-197.75 213.25,-177 293.75,-177 293.75,-197.75"/>
<text xml:space="preserve" text-anchor="middle" x="253.5" y="-184.25" font-family="Helvetica,sans-Serif" font-size="10.00">kest_pipeline</text>
</a>
</g>
</g>
<!-- Node7&#45;&gt;Node6 -->
<g id="edge6_Node000006_Node000007" class="edge">
<title>Node7&#45;&gt;Node6</title>
<g id="a_edge6_Node000006_Node000007"><a xlink:title=" ">
<path fill="none" stroke="#9a32cd" stroke-dasharray="5,2" d="M305.42,-187.38C338.44,-187.38 380.66,-187.38 410.15,-187.38"/>
<polygon fill="#9a32cd" stroke="#9a32cd" points="305.67,-183.88 295.67,-187.38 305.67,-190.88 305.67,-183.88"/>
</a>
</g>
<text xml:space="preserve" text-anchor="start" x="330.5" y="-193.62" font-family="Helvetica,sans-Serif" font-size="10.00" fill="grey">pipeline</text>
</g>
<!-- Node8&#45;&gt;Node6 -->
<g id="edge7_Node000006_Node000008" class="edge">
<title>Node8&#45;&gt;Node6</title>
<g id="a_edge7_Node000006_Node000008"><a xlink:title=" ">
<path fill="none" stroke="#9a32cd" stroke-dasharray="5,2" d="M311.23,-219.77C330.72,-216.21 352.63,-211.93 372.5,-207.38 384.86,-204.54 398.26,-201.02 410.2,-197.73"/>
<polygon fill="#9a32cd" stroke="#9a32cd" points="310.78,-216.29 301.56,-221.51 312.02,-223.18 310.78,-216.29"/>
</a>
</g>
<text xml:space="preserve" text-anchor="start" x="331.62" y="-222.4" font-family="Helvetica,sans-Serif" font-size="10.00" fill="grey">volume</text>
</g>
<!-- Node9 -->
<g id="Node000009" class="node">
<title>Node9</title>
<g id="a_Node000009"><a xlink:href="structkest__expression.html" target="_top" xlink:title=" ">
<polygon fill="white" stroke="#666666" points="100.75,-188.75 6,-188.75 6,-168 100.75,-168 100.75,-188.75"/>
<text xml:space="preserve" text-anchor="middle" x="53.38" y="-175.25" font-family="Helvetica,sans-Serif" font-size="10.00">kest_expression</text>
</a>
</g>
</g>
<!-- Node9&#45;&gt;Node8 -->
<g id="edge8_Node000008_Node000009" class="edge">
<title>Node9&#45;&gt;Node8</title>
<g id="a_edge8_Node000008_Node000009"><a xlink:title=" ">
<path fill="none" stroke="#9a32cd" stroke-dasharray="5,2" d="M112.49,-177.83C134.2,-179.36 158.63,-183.23 179.5,-191.88 188.99,-195.81 188.67,-201.12 197.5,-206.38 205.24,-210.98 214.07,-215.11 222.35,-218.56"/>
<polygon fill="#9a32cd" stroke="#9a32cd" points="112.78,-174.34 102.6,-177.29 112.4,-181.33 112.78,-174.34"/>
</a>
</g>
<text xml:space="preserve" text-anchor="start" x="127.75" y="-214.88" font-family="Helvetica,sans-Serif" font-size="10.00" fill="grey">max_expr</text>
<text xml:space="preserve" text-anchor="start" x="127.75" y="-198.12" font-family="Helvetica,sans-Serif" font-size="10.00" fill="grey">min_expr</text>
</g>
<!-- Node9&#45;&gt;Node9 -->
<g id="edge9_Node000009_Node000009" class="edge">
<title>Node9&#45;&gt;Node9</title>
<g id="a_edge9_Node000009_Node000009"><a xlink:title=" ">
<path fill="none" stroke="#9a32cd" stroke-dasharray="5,2" d="M36.2,-200.56C38.63,-204.23 44.36,-206.75 53.38,-206.75 70.35,-206.75 75.65,-197.81 69.29,-189.15"/>
<polygon fill="#9a32cd" stroke="#9a32cd" points="39.68,-200.98 37.3,-190.65 32.72,-200.21 39.68,-200.98"/>
</a>
</g>
<text xml:space="preserve" text-anchor="start" x="28.62" y="-213" font-family="Helvetica,sans-Serif" font-size="10.00" fill="grey">sub_exprs</text>
</g>
<!-- Node10 -->
<g id="Node000010" class="node">
<title>Node10</title>
<g id="a_Node000010"><a xlink:href="structkest__ui__page.html" target="_top" xlink:title=" ">
<polygon fill="white" stroke="#666666" points="486.75,-71.75 407,-71.75 407,-51 486.75,-51 486.75,-71.75"/>
<text xml:space="preserve" text-anchor="middle" x="446.88" y="-58.25" font-family="Helvetica,sans-Serif" font-size="10.00">kest_ui_page</text>
</a>
</g>
</g>
<!-- Node10&#45;&gt;Node1 -->
<g id="edge11_Node000001_Node000010" class="edge">
<title>Node10&#45;&gt;Node1</title>
<g id="a_edge11_Node000001_Node000010"><a xlink:title=" ">
<path fill="none" stroke="#9a32cd" stroke-dasharray="5,2" d="M483,-76.6C519.98,-92.63 577.25,-117.45 609.83,-131.57"/>
<polygon fill="#9a32cd" stroke="#9a32cd" points="484.65,-73.5 474.08,-72.73 481.86,-79.92 484.65,-73.5"/>
</a>
</g>
<text xml:space="preserve" text-anchor="start" x="525.38" y="-115.38" font-family="Helvetica,sans-Serif" font-size="10.00" fill="grey">parent</text>
</g>
<!-- Node10&#45;&gt;Node10 -->
<g id="edge15_Node000010_Node000010" class="edge">
<title>Node10&#45;&gt;Node10</title>
<g id="a_edge15_Node000010_Node000010"><a xlink:title=" ">
<path fill="none" stroke="#9a32cd" stroke-dasharray="5,2" d="M430.49,-83.56C432.81,-87.23 438.27,-89.75 446.88,-89.75 463.07,-89.75 468.14,-80.81 462.06,-72.15"/>
<polygon fill="#9a32cd" stroke="#9a32cd" points="433.96,-83.96 431.53,-73.65 427,-83.23 433.96,-83.96"/>
</a>
</g>
<text xml:space="preserve" text-anchor="start" x="431.12" y="-96" font-family="Helvetica,sans-Serif" font-size="10.00" fill="grey">parent</text>
</g>
<!-- Node11 -->
<g id="Node000011" class="node">
<title>Node11</title>
<g id="a_Node000011"><a xlink:href="structkest__ui__page__panel.html" target="_top" xlink:title=" ">
<polygon fill="white" stroke="#666666" points="309.5,-20.75 197.5,-20.75 197.5,0 309.5,0 309.5,-20.75"/>
<text xml:space="preserve" text-anchor="middle" x="253.5" y="-7.25" font-family="Helvetica,sans-Serif" font-size="10.00">kest_ui_page_panel</text>
</a>
</g>
</g>
<!-- Node11&#45;&gt;Node10 -->
<g id="edge12_Node000010_Node000011" class="edge">
<title>Node11&#45;&gt;Node10</title>
<g id="a_edge12_Node000010_Node000011"><a xlink:title=" ">
<path fill="none" stroke="#9a32cd" stroke-dasharray="5,2" d="M321,-12.08C338.33,-14.35 356.59,-18.45 372.5,-25.62 382.19,-30 381.34,-35.98 390.5,-41.38 396.49,-44.91 403.2,-47.97 409.83,-50.57"/>
<polygon fill="#9a32cd" stroke="#9a32cd" points="321.61,-8.62 311.29,-11 320.84,-15.58 321.61,-8.62"/>
</a>
</g>
<text xml:space="preserve" text-anchor="start" x="336.5" y="-31.88" font-family="Helvetica,sans-Serif" font-size="10.00" fill="grey">panel</text>
</g>
<!-- Node12 -->
<g id="Node000012" class="node">
<title>Node12</title>
<g id="a_Node000012"><a xlink:href="structkest__button.html" target="_top" xlink:title=" ">
<polygon fill="white" stroke="#666666" points="89.88,-43.75 16.88,-43.75 16.88,-23 89.88,-23 89.88,-43.75"/>
<text xml:space="preserve" text-anchor="middle" x="53.38" y="-30.25" font-family="Helvetica,sans-Serif" font-size="10.00">kest_button</text>
</a>
</g>
</g>
<!-- Node12&#45;&gt;Node10 -->
<g id="edge16_Node000010_Node000012" class="edge">
<title>Node12&#45;&gt;Node10</title>
<g id="a_edge16_Node000010_Node000012"><a xlink:title=" ">
<path fill="none" stroke="#9a32cd" stroke-dasharray="5,2" d="M101.3,-41.39C109.11,-42.53 117.15,-43.58 124.75,-44.38 226.09,-54.95 346.14,-59.09 406.72,-60.59"/>
<polygon fill="#9a32cd" stroke="#9a32cd" points="101.99,-37.96 91.58,-39.91 100.94,-44.88 101.99,-37.96"/>
</a>
</g>
<text xml:space="preserve" text-anchor="start" x="214.88" y="-63.43" font-family="Helvetica,sans-Serif" font-size="10.00" fill="grey">bottom_buttons</text>
</g>
<!-- Node12&#45;&gt;Node11 -->
<g id="edge13_Node000011_Node000012" class="edge">
<title>Node12&#45;&gt;Node11</title>
<g id="a_edge13_Node000011_Node000012"><a xlink:title=" ">
<path fill="none" stroke="#9a32cd" stroke-dasharray="5,2" d="M89.48,-18.57C100.56,-14.6 112.98,-10.86 124.75,-8.88 148.26,-4.9 174.55,-4.53 197.14,-5.43"/>
<polygon fill="#9a32cd" stroke="#9a32cd" points="88.45,-15.21 80.33,-22.02 90.93,-21.76 88.45,-15.21"/>
</a>
</g>
<text xml:space="preserve" text-anchor="start" x="147.25" y="-31.88" font-family="Helvetica,sans-Serif" font-size="10.00" fill="grey">lb</text>
<text xml:space="preserve" text-anchor="start" x="147.25" y="-15.12" font-family="Helvetica,sans-Serif" font-size="10.00" fill="grey">rb</text>
</g>
<!-- Node12&#45;&gt;Node12 -->
<g id="edge14_Node000012_Node000012" class="edge">
<title>Node12&#45;&gt;Node12</title>
<g id="a_edge14_Node000012_Node000012"><a xlink:title=" ">
<path fill="none" stroke="#9a32cd" stroke-dasharray="5,2" d="M36.2,-55.56C38.63,-59.23 44.36,-61.75 53.38,-61.75 70.35,-61.75 75.65,-52.81 69.29,-44.15"/>
<polygon fill="#9a32cd" stroke="#9a32cd" points="39.68,-55.98 37.3,-45.65 32.72,-55.21 39.68,-55.98"/>
</a>
</g>
<text xml:space="preserve" text-anchor="start" x="23.75" y="-68" font-family="Helvetica,sans-Serif" font-size="10.00" fill="grey">sub_buttons</text>
</g>
<!-- Node13 -->
<g id="Node000013" class="node">
<title>Node13</title>
<g id="a_Node000013"><a xlink:href="structkest__representation.html" target="_top" xlink:title=" ">
<polygon fill="white" stroke="#666666" points="503.25,-32.75 390.5,-32.75 390.5,-12 503.25,-12 503.25,-32.75"/>
<text xml:space="preserve" text-anchor="middle" x="446.88" y="-19.25" font-family="Helvetica,sans-Serif" font-size="10.00">kest_representation</text>
</a>
</g>
</g>
<!-- Node13&#45;&gt;Node1 -->
<g id="edge17_Node000001_Node000013" class="edge">
<title>Node13&#45;&gt;Node1</title>
<g id="a_edge17_Node000001_Node000013"><a xlink:title=" ">
<path fill="none" stroke="#9a32cd" stroke-dasharray="5,2" d="M490.65,-37.23C494.93,-38.89 499.2,-40.62 503.25,-42.38 529.66,-53.78 537.53,-54.98 561,-71.62 586.76,-89.89 612.36,-116.96 625.56,-131.76"/>
<polygon fill="#9a32cd" stroke="#9a32cd" points="492.06,-34.02 481.47,-33.78 489.6,-40.57 492.06,-34.02"/>
</a>
</g>
<text xml:space="preserve" text-anchor="start" x="533.25" y="-77.88" font-family="Helvetica,sans-Serif" font-size="10.00" fill="grey">rep</text>
</g>
</g>
</svg>
