<?xml version="1.0" encoding="UTF-8" standalone="no"?>
<!DOCTYPE svg PUBLIC "-//W3C//DTD SVG 1.1//EN"
 "http://www.w3.org/Graphics/SVG/1.1/DTD/svg11.dtd">
<!-- Generated by graphviz version 13.1.2 (20250808.2320)
 -->
<!-- Title: kest_effect Pages: 1 -->
<svg width="690pt" height="327pt"
 viewBox="0.00 0.00 690.00 327.00" xmlns="http://www.w3.org/2000/svg" xmlns:xlink="http://www.w3.org/1999/xlink">
<g id="graph0" class="graph" transform="scale(1 1) rotate(0) translate(4 323.12)">
<title>kest_effect</title>
<!-- Node1 -->
<g id="Node000001" class="node">
<title>Node1</title>
<g id="a_Node000001"><a xlink:title=" ">
<polygon fill="#999999" stroke="#666666" points="682,-142.75 612,-142.75 612,-122 682,-122 682,-142.75"/>
<text xml:space="preserve" text-anchor="middle" x="647" y="-129.25" font-family="Helvetica,sans-Serif" font-size="10.00">kest_effect</text>
</a>
</g>
</g>
<!-- Node2 -->
<g id="Node000002" class="node">
<title>Node2</title>
<g id="a_Node000002"><a xlink:href="structkest__parameter.html" target="_top" xlink:title=" ">
<polygon fill="white" stroke="#666666" points="312.12,-218.75 219.62,-218.75 219.62,-198 312.12,-198 312.12,-218.75"/>
<text xml:space="preserve" text-anchor="middle" x="265.88" y="-205.25" font-family="Helvetica,sans-Serif" font-size="10.00">kest_parameter</text>
</a>
</g>
</g>
<!-- Node2&#45;&gt;Node1 -->
<g id="edge1_Node000001_Node000002" class="edge">
<title>Node2&#45;&gt;Node1</title>
<g id="a_edge1_Node000001_Node000002"><a xlink:title=" ">
<path fill="none" stroke="#9a32cd" stroke-dasharray="5,2" d="M323.79,-203.6C389.84,-197.05 501.52,-182.83 594,-155.38 604.5,-152.26 615.68,-147.52 624.96,-143.15"/>
<polygon fill="#9a32cd" stroke="#9a32cd" points="323.53,-200.11 313.91,-204.56 324.2,-207.08 323.53,-200.11"/>
</a>
</g>
<text xml:space="preserve" text-anchor="start" x="426.62" y="-265.39" font-family="Helvetica,sans-Serif" font-size="10.00" fill="grey">band_center</text>
<text xml:space="preserve" text-anchor="start" x="426.62" y="-248.64" font-family="Helvetica,sans-Serif" font-size="10.00" fill="grey">band_hp_cutoff</text>
<text xml:space="preserve" text-anchor="start" x="426.62" y="-231.89" font-family="Helvetica,sans-Serif" font-size="10.00" fill="grey">band_lp_cutoff</text>
<text xml:space="preserve" text-anchor="start" x="426.62" y="-215.14" font-family="Helvetica,sans-Serif" font-size="10.00" fill="grey">band_width</text>
<text xml:space="preserve" text-anchor="start" x="426.62" y="-198.39" font-family="Helvetica,sans-Serif" font-size="10.00" fill="grey">wet_mix</text>
</g>
<!-- Node8 -->
<g id="Node000008" class="node">
<title>Node8</title>
<g id="a_Node000008"><a xlink:href="structkest__profile.html" target="_top" xlink:title=" ">
<polygon fill="white" stroke="#666666" points="500.62,-310.75 427.62,-310.75 427.62,-290 500.62,-290 500.62,-310.75"/>
<text xml:space="preserve" text-anchor="middle" x="464.12" y="-297.25" font-family="Helvetica,sans-Serif" font-size="10.00">kest_profile</text>
</a>
</g>
</g>
<!-- Node2&#45;&gt;Node8 -->
<g id="edge10_Node000008_Node000002" class="edge">
<title>Node2&#45;&gt;Node8</title>
<g id="a_edge10_Node000008_Node000002"><a xlink:title=" ">
<path fill="none" stroke="#9a32cd" stroke-dasharray="5,2" d="M300.01,-223.91C339.78,-242.55 405.43,-273.33 440.07,-289.57"/>
<polygon fill="#9a32cd" stroke="#9a32cd" points="301.68,-220.83 291.14,-219.75 298.71,-227.16 301.68,-220.83"/>
</a>
</g>
<text xml:space="preserve" text-anchor="start" x="356.38" y="-274.24" font-family="Helvetica,sans-Serif" font-size="10.00" fill="grey">volume</text>
</g>
<!-- Node3 -->
<g id="Node000003" class="node">
<title>Node3</title>
<g id="a_Node000003"><a xlink:href="structkest__expression.html" target="_top" xlink:title=" ">
<polygon fill="white" stroke="#666666" points="100.75,-239.75 6,-239.75 6,-219 100.75,-219 100.75,-239.75"/>
<text xml:space="preserve" text-anchor="middle" x="53.38" y="-226.25" font-family="Helvetica,sans-Serif" font-size="10.00">kest_expression</text>
</a>
</g>
</g>
<!-- Node3&#45;&gt;Node2 -->
<g id="edge2_Node000002_Node000003" class="edge">
<title>Node3&#45;&gt;Node2</title>
<g id="a_edge2_Node000002_Node000003"><a xlink:title=" ">
<path fill="none" stroke="#9a32cd" stroke-dasharray="5,2" d="M112.2,-223.61C145.97,-220.24 187.98,-216.05 219.37,-212.91"/>
<polygon fill="#9a32cd" stroke="#9a32cd" points="112.2,-220.09 102.6,-224.56 112.9,-227.05 112.2,-220.09"/>
</a>
</g>
<text xml:space="preserve" text-anchor="start" x="127.75" y="-244.98" font-family="Helvetica,sans-Serif" font-size="10.00" fill="grey">max_expr</text>
<text xml:space="preserve" text-anchor="start" x="127.75" y="-228.23" font-family="Helvetica,sans-Serif" font-size="10.00" fill="grey">min_expr</text>
</g>
<!-- Node3&#45;&gt;Node3 -->
<g id="edge3_Node000003_Node000003" class="edge">
<title>Node3&#45;&gt;Node3</title>
<g id="a_edge3_Node000003_Node000003"><a xlink:title=" ">
<path fill="none" stroke="#9a32cd" stroke-dasharray="5,2" d="M36.2,-251.56C38.63,-255.23 44.36,-257.75 53.38,-257.75 70.35,-257.75 75.65,-248.81 69.29,-240.15"/>
<polygon fill="#9a32cd" stroke="#9a32cd" points="39.68,-251.98 37.3,-241.65 32.72,-251.21 39.68,-251.98"/>
</a>
</g>
<text xml:space="preserve" text-anchor="start" x="28.62" y="-264" font-family="Helvetica,sans-Serif" font-size="10.00" fill="grey">sub_exprs</text>
</g>
<!-- Node4 -->
<g id="Node000004" class="node">
<title>Node4</title>
<g id="a_Node000004"><a xlink:href="structkest__parameter__id.html" target="_top" xlink:title=" ">
<polygon fill="white" stroke="#666666" points="106.75,-197.75 0,-197.75 0,-177 106.75,-177 106.75,-197.75"/>
<text xml:space="preserve" text-anchor="middle" x="53.38" y="-184.25" font-family="Helvetica,sans-Serif" font-size="10.00">kest_parameter_id</text>
</a>
</g>
</g>
<!-- Node4&#45;&gt;Node2 -->
<g id="edge4_Node000002_Node000004" class="edge">
<title>Node4&#45;&gt;Node2</title>
<g id="a_edge4_Node000002_Node000004"><a xlink:title=" ">
<path fill="none" stroke="#9a32cd" stroke-dasharray="5,2" d="M118.43,-189.83C138.06,-190.92 159.7,-192.46 179.5,-194.62 192.48,-196.04 206.5,-198.09 219.35,-200.16"/>
<polygon fill="#9a32cd" stroke="#9a32cd" points="118.82,-186.35 108.65,-189.32 118.45,-193.34 118.82,-186.35"/>
</a>
</g>
<text xml:space="preserve" text-anchor="start" x="147.62" y="-200.88" font-family="Helvetica,sans-Serif" font-size="10.00" fill="grey">id</text>
</g>
<!-- Node5 -->
<g id="Node000005" class="node">
<title>Node5</title>
<g id="a_Node000005"><a xlink:href="structkest__setting.html" target="_top" xlink:title=" ">
<polygon fill="white" stroke="#666666" points="501.75,-142.75 426.5,-142.75 426.5,-122 501.75,-122 501.75,-142.75"/>
<text xml:space="preserve" text-anchor="middle" x="464.12" y="-129.25" font-family="Helvetica,sans-Serif" font-size="10.00">kest_setting</text>
</a>
</g>
</g>
<!-- Node5&#45;&gt;Node1 -->
<g id="edge5_Node000001_Node000005" class="edge">
<title>Node5&#45;&gt;Node1</title>
<g id="a_edge5_Node000001_Node000005"><a xlink:title=" ">
<path fill="none" stroke="#9a32cd" stroke-dasharray="5,2" d="M513.59,-132.38C544.58,-132.38 584.02,-132.38 611.76,-132.38"/>
<polygon fill="#9a32cd" stroke="#9a32cd" points="513.68,-128.88 503.68,-132.38 513.68,-135.88 513.68,-128.88"/>
</a>
</g>
<text xml:space="preserve" text-anchor="start" x="534" y="-138.62" font-family="Helvetica,sans-Serif" font-size="10.00" fill="grey">band_mode</text>
</g>
<!-- Node6 -->
<g id="Node000006" class="node">
<title>Node6</title>
<g id="a_Node000006"><a xlink:href="structkest__setting__id.html" target="_top" xlink:title=" ">
<polygon fill="white" stroke="#666666" points="310.62,-162.75 221.12,-162.75 221.12,-142 310.62,-142 310.62,-162.75"/>
<text xml:space="preserve" text-anchor="middle" x="265.88" y="-149.25" font-family="Helvetica,sans-Serif" font-size="10.00">kest_setting_id</text>
</a>
</g>
</g>
<!-- Node6&#45;&gt;Node5 -->
<g id="edge6_Node000005_Node000006" class="edge">
<title>Node6&#45;&gt;Node5</title>
<g id="a_edge6_Node000005_Node000006"><a xlink:title=" ">
<path fill="none" stroke="#9a32cd" stroke-dasharray="5,2" d="M322.3,-146.73C355.53,-143.34 396.87,-139.13 426.15,-136.14"/>
<polygon fill="#9a32cd" stroke="#9a32cd" points="322.02,-143.24 312.42,-147.73 322.73,-150.2 322.02,-143.24"/>
</a>
</g>
<text xml:space="preserve" text-anchor="start" x="370.25" y="-149.82" font-family="Helvetica,sans-Serif" font-size="10.00" fill="grey">id</text>
</g>
<!-- Node7 -->
<g id="Node000007" class="node">
<title>Node7</title>
<g id="a_Node000007"><a xlink:href="structkest__setting__option.html" target="_top" xlink:title=" ">
<polygon fill="white" stroke="#666666" points="321.5,-120.75 210.25,-120.75 210.25,-100 321.5,-100 321.5,-120.75"/>
<text xml:space="preserve" text-anchor="middle" x="265.88" y="-107.25" font-family="Helvetica,sans-Serif" font-size="10.00">kest_setting_option</text>
</a>
</g>
</g>
<!-- Node7&#45;&gt;Node5 -->
<g id="edge7_Node000005_Node000007" class="edge">
<title>Node7&#45;&gt;Node5</title>
<g id="a_edge7_Node000005_Node000007"><a xlink:title=" ">
<path fill="none" stroke="#9a32cd" stroke-dasharray="5,2" d="M333.45,-111.17C353.99,-112.06 376.62,-113.69 397.25,-116.62 406.68,-117.97 416.74,-120.04 426.08,-122.24"/>
<polygon fill="#9a32cd" stroke="#9a32cd" points="333.6,-107.67 323.47,-110.8 333.34,-114.67 333.6,-107.67"/>
</a>
</g>
<text xml:space="preserve" text-anchor="start" x="356.75" y="-122.88" font-family="Helvetica,sans-Serif" font-size="10.00" fill="grey">options</text>
</g>
<!-- Node8&#45;&gt;Node1 -->
<g id="edge8_Node000001_Node000008" class="edge">
<title>Node8&#45;&gt;Node1</title>
<g id="a_edge8_Node000001_Node000008"><a xlink:title=" ">
<path fill="none" stroke="#9a32cd" stroke-dasharray="5,2" d="M499.73,-284.54C504.31,-282.01 508.86,-279.27 513,-276.38 553.49,-248.13 560.89,-236.99 594,-200.38 611.34,-181.19 629.13,-156.67 638.75,-142.93"/>
<polygon fill="#9a32cd" stroke="#9a32cd" points="498.37,-281.3 491.11,-289.02 501.6,-287.52 498.37,-281.3"/>
</a>
</g>
<text xml:space="preserve" text-anchor="start" x="546.75" y="-268.79" font-family="Helvetica,sans-Serif" font-size="10.00" fill="grey">profile</text>
</g>
<!-- Node9 -->
<g id="Node000009" class="node">
<title>Node9</title>
<g id="a_Node000009"><a xlink:href="structkest__pipeline.html" target="_top" xlink:title=" ">
<polygon fill="white" stroke="#666666" points="306.12,-310.75 225.62,-310.75 225.62,-290 306.12,-290 306.12,-310.75"/>
<text xml:space="preserve" text-anchor="middle" x="265.88" y="-297.25" font-family="Helvetica,sans-Serif" font-size="10.00">kest_pipeline</text>
</a>
</g>
</g>
<!-- Node9&#45;&gt;Node8 -->
<g id="edge9_Node000008_Node000009" class="edge">
<title>Node9&#45;&gt;Node8</title>
<g id="a_edge9_Node000008_Node000009"><a xlink:title=" ">
<path fill="none" stroke="#9a32cd" stroke-dasharray="5,2" d="M317.83,-300.38C352.23,-300.38 396.78,-300.38 427.43,-300.38"/>
<polygon fill="#9a32cd" stroke="#9a32cd" points="318.1,-296.88 308.1,-300.38 318.1,-303.88 318.1,-296.88"/>
</a>
</g>
<text xml:space="preserve" text-anchor="start" x="355.25" y="-306.62" font-family="Helvetica,sans-Serif" font-size="10.00" fill="grey">pipeline</text>
</g>
<!-- Node10 -->
<g id="Node000010" class="node">
<title>Node10</title>
<g id="a_Node000010"><a xlink:href="structkest__effect__desc.html" target="_top" xlink:title=" ">
<polygon fill="white" stroke="#666666" points="513,-78.75 415.25,-78.75 415.25,-58 513,-58 513,-78.75"/>
<text xml:space="preserve" text-anchor="middle" x="464.12" y="-65.25" font-family="Helvetica,sans-Serif" font-size="10.00">kest_effect_desc</text>
</a>
</g>
</g>
<!-- Node10&#45;&gt;Node1 -->
<g id="edge11_Node000001_Node000010" class="edge">
<title>Node10&#45;&gt;Node1</title>
<g id="a_edge11_Node000001_Node000010"><a xlink:title=" ">
<path fill="none" stroke="#9a32cd" stroke-dasharray="5,2" d="M513.2,-82.48C537.61,-89.96 567.6,-99.66 594,-109.62 603.5,-113.21 613.77,-117.59 622.65,-121.55"/>
<polygon fill="#9a32cd" stroke="#9a32cd" points="514.45,-79.2 503.86,-79.64 512.41,-85.9 514.45,-79.2"/>
</a>
</g>
<text xml:space="preserve" text-anchor="start" x="555.75" y="-115.88" font-family="Helvetica,sans-Serif" font-size="10.00" fill="grey">eff</text>
</g>
<!-- Node11 -->
<g id="Node000011" class="node">
<title>Node11</title>
<g id="a_Node000011"><a xlink:href="structkest__eff__resource__report.html" target="_top" xlink:title=" ">
<polygon fill="white" stroke="#666666" points="334.25,-78.75 197.5,-78.75 197.5,-58 334.25,-58 334.25,-78.75"/>
<text xml:space="preserve" text-anchor="middle" x="265.88" y="-65.25" font-family="Helvetica,sans-Serif" font-size="10.00">kest_eff_resource_report</text>
</a>
</g>
</g>
<!-- Node11&#45;&gt;Node10 -->
<g id="edge12_Node000010_Node000011" class="edge">
<title>Node11&#45;&gt;Node10</title>
<g id="a_edge12_Node000010_Node000011"><a xlink:title=" ">
<path fill="none" stroke="#9a32cd" stroke-dasharray="5,2" d="M345.98,-68.38C369.27,-68.38 394.06,-68.38 414.8,-68.38"/>
<polygon fill="#9a32cd" stroke="#9a32cd" points="346.2,-64.88 336.2,-68.38 346.2,-71.88 346.2,-64.88"/>
</a>
</g>
<text xml:space="preserve" text-anchor="start" x="357.88" y="-74.62" font-family="Helvetica,sans-Serif" font-size="10.00" fill="grey">res_rpt</text>
</g>
<!-- Node12 -->
<g id="Node000012" class="node">
<title>Node12</title>
<g id="a_Node000012"><a xlink:href="structkest__expr__scope.html" target="_top" xlink:title=" ">
<polygon fill="white" stroke="#666666" points="314.38,-20.75 217.38,-20.75 217.38,0 314.38,0 314.38,-20.75"/>
<text xml:space="preserve" text-anchor="middle" x="265.88" y="-7.25" font-family="Helvetica,sans-Serif" font-size="10.00">kest_expr_scope</text>
</a>
</g>
</g>
<!-- Node12&#45;&gt;Node1 -->
<g id="edge14_Node000001_Node000012" class="edge">
<title>Node12&#45;&gt;Node1</title>
<g id="a_edge14_Node000001_Node000012"><a xlink:title=" ">
<path fill="none" stroke="#9a32cd" stroke-dasharray="5,2" d="M326.03,-7.09C376.98,-6.16 451.75,-9.37 513,-30.62 567.11,-49.4 616.7,-99.53 636.69,-121.64"/>
<polygon fill="#9a32cd" stroke="#9a32cd" points="326,-3.59 316.09,-7.34 326.18,-10.59 326,-3.59"/>
</a>
</g>
<text xml:space="preserve" text-anchor="start" x="449.88" y="-36.88" font-family="Helvetica,sans-Serif" font-size="10.00" fill="grey">scope</text>
</g>
<!-- Node12&#45;&gt;Node10 -->
<g id="edge13_Node000010_Node000012" class="edge">
<title>Node12&#45;&gt;Node10</title>
<g id="a_edge13_Node000010_Node000012"><a xlink:title=" ">
<path fill="none" stroke="#9a32cd" stroke-dasharray="5,2" d="M320.8,-24.07C344.38,-30.28 372.29,-37.95 397.25,-45.62 409.05,-49.25 421.9,-53.6 433.1,-57.52"/>
<polygon fill="#9a32cd" stroke="#9a32cd" points="321.98,-20.76 311.42,-21.61 320.21,-27.53 321.98,-20.76"/>
</a>
</g>
<text xml:space="preserve" text-anchor="start" x="360.5" y="-51.88" font-family="Helvetica,sans-Serif" font-size="10.00" fill="grey">scope</text>
</g>
</g>
</svg>
