<?xml version="1.0" encoding="UTF-8" standalone="no"?>
<!DOCTYPE svg PUBLIC "-//W3C//DTD SVG 1.1//EN"
 "http://www.w3.org/Graphics/SVG/1.1/DTD/svg11.dtd">
<!-- Generated by graphviz version 13.1.2 (20250808.2320)
 -->
<!-- Title: kest_dictionary_entry Pages: 1 -->
<svg width="246pt" height="255pt"
 viewBox="0.00 0.00 246.00 255.00" xmlns="http://www.w3.org/2000/svg" xmlns:xlink="http://www.w3.org/1999/xlink">

<svg id="main" version="1.1" xmlns="http://www.w3.org/2000/svg" xmlns:xlink="http://www.w3.org/1999/xlink" xml:space="preserve">

<style type="text/css"><![CDATA[
.node, .edge {opacity: 0.7;}
.node.selected, .edge.selected {opacity: 1;}
.edge:hover path { stroke: red; }
.edge:hover polygon { stroke: red; fill: red; }
]]></style>
<script type="application/ecmascript" xlink:href="svg.min.js"/>
<svg id="graph" class="graph">
<g id="graph0" class="graph" transform="scale(1 1) rotate(0) translate(4 251.25)">
<title>kest_dictionary_entry</title>
<!-- Node1 -->
<g id="Node000001" class="node">
<title>Node1</title>
<g id="a_Node000001"><a xlink:title=" ">
<polygon fill="#999999" stroke="#666666" points="178.02,-171.75 57.02,-171.75 57.02,-151 178.02,-151 178.02,-171.75"/>
<text xml:space="preserve" text-anchor="middle" x="117.52" y="-158.25" font-family="Helvetica,sans-Serif" font-size="10.00">kest_dictionary_entry</text>
</a>
</g>
</g>
<!-- Node3 -->
<g id="Node000003" class="node">
<title>Node3</title>
<g id="a_Node000003"><a xlink:href="structkest__dictionary.html" target="_top" xlink:title=" ">
<polygon fill="white" stroke="#666666" points="162.65,-20.75 72.4,-20.75 72.4,0 162.65,0 162.65,-20.75"/>
<text xml:space="preserve" text-anchor="middle" x="117.52" y="-7.25" font-family="Helvetica,sans-Serif" font-size="10.00">kest_dictionary</text>
</a>
</g>
</g>
<!-- Node1&#45;&gt;Node3 -->
<g id="edge4_Node000003_Node000001" class="edge">
<title>Node1&#45;&gt;Node3</title>
<g id="a_edge4_Node000003_Node000001"><a xlink:title=" ">
<path fill="none" stroke="#9a32cd" stroke-dasharray="5,2" d="M71.04,-146.61C46.71,-136.77 19.08,-120.84 4.77,-96.25 -16.35,-59.93 41.43,-34.18 81.88,-21.14"/>
<polygon fill="#9a32cd" stroke="#9a32cd" points="69.57,-149.79 80.16,-150.05 72.04,-143.24 69.57,-149.79"/>
</a>
</g>
<text xml:space="preserve" text-anchor="start" x="7.77" y="-82.75" font-family="Helvetica,sans-Serif" font-size="10.00" fill="grey">entries</text>
</g>
<!-- Node4 -->
<g id="Node000004" class="node">
<title>Node4</title>
<g id="a_Node000004"><a xlink:href="structkest__dictionary__bucket.html" target="_top" xlink:title=" ">
<polygon fill="white" stroke="#666666" points="181.4,-96.25 53.65,-96.25 53.65,-75.5 181.4,-75.5 181.4,-96.25"/>
<text xml:space="preserve" text-anchor="middle" x="117.52" y="-82.75" font-family="Helvetica,sans-Serif" font-size="10.00">kest_dictionary_bucket</text>
</a>
</g>
</g>
<!-- Node1&#45;&gt;Node4 -->
<g id="edge6_Node000004_Node000001" class="edge">
<title>Node1&#45;&gt;Node4</title>
<g id="a_edge6_Node000004_Node000001"><a xlink:title=" ">
<path fill="none" stroke="#9a32cd" stroke-dasharray="5,2" d="M117.52,-139.26C117.52,-125.26 117.52,-107.55 117.52,-96.72"/>
<polygon fill="#9a32cd" stroke="#9a32cd" points="114.02,-139.25 117.52,-149.25 121.02,-139.25 114.02,-139.25"/>
</a>
</g>
<text xml:space="preserve" text-anchor="start" x="120.52" y="-120.5" font-family="Helvetica,sans-Serif" font-size="10.00" fill="grey">entries</text>
</g>
<!-- Node2 -->
<g id="Node000002" class="node">
<title>Node2</title>
<g id="a_Node000002"><a xlink:href="structkest__expression.html" target="_top" xlink:title=" ">
<polygon fill="white" stroke="#666666" points="164.9,-247.25 70.15,-247.25 70.15,-226.5 164.9,-226.5 164.9,-247.25"/>
<text xml:space="preserve" text-anchor="middle" x="117.52" y="-233.75" font-family="Helvetica,sans-Serif" font-size="10.00">kest_expression</text>
</a>
</g>
</g>
<!-- Node2&#45;&gt;Node1 -->
<g id="edge1_Node000001_Node000002" class="edge">
<title>Node2&#45;&gt;Node1</title>
<g id="a_edge1_Node000001_Node000002"><a xlink:title=" ">
<path fill="none" stroke="#9a32cd" stroke-dasharray="5,2" d="M117.52,-214.76C117.52,-200.76 117.52,-183.05 117.52,-172.22"/>
<polygon fill="#9a32cd" stroke="#9a32cd" points="114.02,-214.75 117.52,-224.75 121.02,-214.75 114.02,-214.75"/>
</a>
</g>
<text xml:space="preserve" text-anchor="start" x="120.52" y="-196" font-family="Helvetica,sans-Serif" font-size="10.00" fill="grey">val_expr</text>
</g>
<!-- Node2&#45;&gt;Node2 -->
<g id="edge2_Node000002_Node000002" class="edge">
<title>Node2&#45;&gt;Node2</title>
<g id="a_edge2_Node000002_Node000002"><a xlink:title=" ">
<path fill="none" stroke="#9a32cd" stroke-dasharray="5,2" d="M176.3,-242.03C180.4,-240.85 182.9,-239.13 182.9,-236.88 182.9,-232.97 175.43,-230.68 165.12,-230.01"/>
<polygon fill="#9a32cd" stroke="#9a32cd" points="175.97,-238.54 166.62,-243.51 177.04,-245.46 175.97,-238.54"/>
</a>
</g>
<text xml:space="preserve" text-anchor="start" x="185.9" y="-233.75" font-family="Helvetica,sans-Serif" font-size="10.00" fill="grey">sub_exprs</text>
</g>
<!-- Node3&#45;&gt;Node1 -->
<g id="edge3_Node000001_Node000003" class="edge">
<title>Node3&#45;&gt;Node1</title>
<g id="a_edge3_Node000001_Node000003"><a xlink:title=" ">
<path fill="none" stroke="#9a32cd" stroke-dasharray="5,2" d="M149.11,-26.64C154.9,-30.18 160.65,-34.25 165.52,-38.75 185.99,-57.66 199.66,-69.92 190.52,-96.25 181.73,-121.59 155.7,-140.19 137.24,-150.65"/>
<polygon fill="#9a32cd" stroke="#9a32cd" points="151.22,-23.81 140.79,-21.94 147.78,-29.9 151.22,-23.81"/>
</a>
</g>
<text xml:space="preserve" text-anchor="start" x="196.41" y="-82.75" font-family="Helvetica,sans-Serif" font-size="10.00" fill="grey">val_dict</text>
</g>
<!-- Node4&#45;&gt;Node3 -->
<g id="edge5_Node000003_Node000004" class="edge">
<title>Node4&#45;&gt;Node3</title>
<g id="a_edge5_Node000003_Node000004"><a xlink:title=" ">
<path fill="none" stroke="#9a32cd" stroke-dasharray="5,2" d="M117.52,-63.76C117.52,-49.76 117.52,-32.05 117.52,-21.22"/>
<polygon fill="#9a32cd" stroke="#9a32cd" points="114.02,-63.75 117.52,-73.75 121.02,-63.75 114.02,-63.75"/>
</a>
</g>
<text xml:space="preserve" text-anchor="start" x="120.52" y="-45" font-family="Helvetica,sans-Serif" font-size="10.00" fill="grey">buckets</text>
</g>
</g>
</svg>
</svg>

<style type='text/css'>
<![CDATA[
[data-mouse-over-selected='false'] { opacity: 0.7; }
[data-mouse-over-selected='true']  { opacity: 1.0; }
]]>
</style>
<script type="application/ecmascript"><![CDATA[
document.addEventListener('DOMContentLoaded', (event) => {
  highlightEdges();
  highlightAdjacentNodes();
});
]]></script>
</svg>
