<?xml version="1.0" encoding="UTF-8" standalone="no"?>
<!DOCTYPE svg PUBLIC "-//W3C//DTD SVG 1.1//EN"
 "http://www.w3.org/Graphics/SVG/1.1/DTD/svg11.dtd">
<!-- Generated by graphviz version 13.1.2 (20250808.2320)
 -->
<!-- Title: kest_menu_item Pages: 1 -->
<svg width="274pt" height="306pt"
 viewBox="0.00 0.00 274.00 306.00" xmlns="http://www.w3.org/2000/svg" xmlns:xlink="http://www.w3.org/1999/xlink">

<svg id="main" version="1.1" xmlns="http://www.w3.org/2000/svg" xmlns:xlink="http://www.w3.org/1999/xlink" xml:space="preserve">

<style type="text/css"><![CDATA[
.node, .edge {opacity: 0.7;}
.node.selected, .edge.selected {opacity: 1;}
.edge:hover path { stroke: red; }
.edge:hover polygon { stroke: red; fill: red; }
]]></style>
<script type="application/ecmascript" xlink:href="svg.min.js"/>
<svg id="graph" class="graph">
<g id="graph0" class="graph" transform="scale(1 1) rotate(0) translate(4 301.5)">
<title>kest_menu_item</title>
<!-- Node1 -->
<g id="Node000001" class="node">
<title>Node1</title>
<g id="a_Node000001"><a xlink:title=" ">
<polygon fill="#999999" stroke="#666666" points="173.38,-20.75 76.38,-20.75 76.38,0 173.38,0 173.38,-20.75"/>
<text xml:space="preserve" text-anchor="middle" x="124.88" y="-7.25" font-family="Helvetica,sans-Serif" font-size="10.00">kest_menu_item</text>
</a>
</g>
</g>
<!-- Node2 -->
<g id="Node000002" class="node">
<title>Node2</title>
<g id="a_Node000002"><a xlink:href="structkest__ui__page.html" target="_top" xlink:title=" ">
<polygon fill="white" stroke="#666666" points="79.75,-129.75 0,-129.75 0,-109 79.75,-109 79.75,-129.75"/>
<text xml:space="preserve" text-anchor="middle" x="39.88" y="-116.25" font-family="Helvetica,sans-Serif" font-size="10.00">kest_ui_page</text>
</a>
</g>
</g>
<!-- Node2&#45;&gt;Node1 -->
<g id="edge1_Node000001_Node000002" class="edge">
<title>Node2&#45;&gt;Node1</title>
<g id="a_edge1_Node000001_Node000002"><a xlink:title=" ">
<path fill="none" stroke="#9a32cd" stroke-dasharray="5,2" d="M47.02,-97.95C53.83,-80.69 65.41,-56.07 81.38,-38.75 87.91,-31.66 96.67,-25.69 104.62,-21.14"/>
<polygon fill="#9a32cd" stroke="#9a32cd" points="43.82,-96.54 43.61,-107.13 50.38,-98.98 43.82,-96.54"/>
</a>
</g>
<text xml:space="preserve" text-anchor="start" x="84.38" y="-78.5" font-family="Helvetica,sans-Serif" font-size="10.00" fill="grey">linked_page</text>
<text xml:space="preserve" text-anchor="start" x="84.38" y="-61.75" font-family="Helvetica,sans-Serif" font-size="10.00" fill="grey">linked_page_indirect</text>
<text xml:space="preserve" text-anchor="start" x="84.38" y="-45" font-family="Helvetica,sans-Serif" font-size="10.00" fill="grey">parent</text>
</g>
<!-- Node2&#45;&gt;Node2 -->
<g id="edge5_Node000002_Node000002" class="edge">
<title>Node2&#45;&gt;Node2</title>
<g id="a_edge5_Node000002_Node000002"><a xlink:title=" ">
<path fill="none" stroke="#9a32cd" stroke-dasharray="5,2" d="M91.5,-124.66C95.37,-123.48 97.75,-121.72 97.75,-119.38 97.75,-115.21 90.23,-112.88 80.17,-112.39"/>
<polygon fill="#9a32cd" stroke="#9a32cd" points="91.04,-121.19 81.67,-126.13 92.08,-128.11 91.04,-121.19"/>
</a>
</g>
<text xml:space="preserve" text-anchor="start" x="100.75" y="-116.25" font-family="Helvetica,sans-Serif" font-size="10.00" fill="grey">parent</text>
</g>
<!-- Node3 -->
<g id="Node000003" class="node">
<title>Node3</title>
<g id="a_Node000003"><a xlink:href="structkest__ui__page__panel.html" target="_top" xlink:title=" ">
<polygon fill="white" stroke="#666666" points="236.88,-205.25 124.88,-205.25 124.88,-184.5 236.88,-184.5 236.88,-205.25"/>
<text xml:space="preserve" text-anchor="middle" x="180.88" y="-191.75" font-family="Helvetica,sans-Serif" font-size="10.00">kest_ui_page_panel</text>
</a>
</g>
</g>
<!-- Node3&#45;&gt;Node2 -->
<g id="edge2_Node000002_Node000003" class="edge">
<title>Node3&#45;&gt;Node2</title>
<g id="a_edge2_Node000002_Node000003"><a xlink:title=" ">
<path fill="none" stroke="#9a32cd" stroke-dasharray="5,2" d="M152.18,-178.92C124.26,-164.36 82.63,-142.66 58.68,-130.18"/>
<polygon fill="#9a32cd" stroke="#9a32cd" points="150.32,-181.9 160.81,-183.42 153.56,-175.69 150.32,-181.9"/>
</a>
</g>
<text xml:space="preserve" text-anchor="start" x="130.15" y="-154" font-family="Helvetica,sans-Serif" font-size="10.00" fill="grey">panel</text>
</g>
<!-- Node4 -->
<g id="Node000004" class="node">
<title>Node4</title>
<g id="a_Node000004"><a xlink:href="structkest__button.html" target="_top" xlink:title=" ">
<polygon fill="white" stroke="#666666" points="76.38,-297.5 3.38,-297.5 3.38,-276.75 76.38,-276.75 76.38,-297.5"/>
<text xml:space="preserve" text-anchor="middle" x="39.88" y="-284" font-family="Helvetica,sans-Serif" font-size="10.00">kest_button</text>
</a>
</g>
</g>
<!-- Node4&#45;&gt;Node2 -->
<g id="edge6_Node000002_Node000004" class="edge">
<title>Node4&#45;&gt;Node2</title>
<g id="a_edge6_Node000002_Node000004"><a xlink:title=" ">
<path fill="none" stroke="#9a32cd" stroke-dasharray="5,2" d="M36.82,-265.18C34.19,-244.64 31.05,-212.43 32.62,-184.5 33.72,-165.04 36.68,-142.41 38.46,-129.91"/>
<polygon fill="#9a32cd" stroke="#9a32cd" points="33.31,-265.39 38.14,-274.82 40.25,-264.44 33.31,-265.39"/>
</a>
</g>
<text xml:space="preserve" text-anchor="start" x="35.62" y="-191.75" font-family="Helvetica,sans-Serif" font-size="10.00" fill="grey">bottom_buttons</text>
</g>
<!-- Node4&#45;&gt;Node3 -->
<g id="edge3_Node000003_Node000004" class="edge">
<title>Node4&#45;&gt;Node3</title>
<g id="a_edge3_Node000003_Node000004"><a xlink:title=" ">
<path fill="none" stroke="#9a32cd" stroke-dasharray="5,2" d="M64.71,-270.23C93.86,-251.57 141.29,-221.21 165.54,-205.69"/>
<polygon fill="#9a32cd" stroke="#9a32cd" points="63.04,-267.14 56.51,-275.48 66.82,-273.04 63.04,-267.14"/>
</a>
</g>
<text xml:space="preserve" text-anchor="start" x="138.27" y="-246.25" font-family="Helvetica,sans-Serif" font-size="10.00" fill="grey">lb</text>
<text xml:space="preserve" text-anchor="start" x="138.27" y="-229.5" font-family="Helvetica,sans-Serif" font-size="10.00" fill="grey">rb</text>
</g>
<!-- Node4&#45;&gt;Node4 -->
<g id="edge4_Node000004_Node000004" class="edge">
<title>Node4&#45;&gt;Node4</title>
<g id="a_edge4_Node000004_Node000004"><a xlink:title=" ">
<path fill="none" stroke="#9a32cd" stroke-dasharray="5,2" d="M88.1,-293.73C91.97,-292.29 94.38,-290.09 94.38,-287.12 94.38,-281.85 86.79,-278.99 76.81,-278.54"/>
<polygon fill="#9a32cd" stroke="#9a32cd" points="87.55,-290.28 78.3,-295.45 88.75,-297.17 87.55,-290.28"/>
</a>
</g>
<text xml:space="preserve" text-anchor="start" x="97.38" y="-284" font-family="Helvetica,sans-Serif" font-size="10.00" fill="grey">sub_buttons</text>
</g>
<!-- Node5 -->
<g id="Node000005" class="node">
<title>Node5</title>
<g id="a_Node000005"><a xlink:href="structkest__representation.html" target="_top" xlink:title=" ">
<polygon fill="white" stroke="#666666" points="266.25,-129.75 153.5,-129.75 153.5,-109 266.25,-109 266.25,-129.75"/>
<text xml:space="preserve" text-anchor="middle" x="209.88" y="-116.25" font-family="Helvetica,sans-Serif" font-size="10.00">kest_representation</text>
</a>
</g>
</g>
<!-- Node5&#45;&gt;Node1 -->
<g id="edge7_Node000001_Node000005" class="edge">
<title>Node5&#45;&gt;Node1</title>
<g id="a_edge7_Node000001_Node000005"><a xlink:title=" ">
<path fill="none" stroke="#9a32cd" stroke-dasharray="5,2" d="M208.96,-97.25C207.14,-79.69 202.03,-55.04 187.88,-38.75 181.07,-30.92 171.62,-25.25 162.1,-21.17"/>
<polygon fill="#9a32cd" stroke="#9a32cd" points="205.45,-97.32 209.67,-107.04 212.43,-96.82 205.45,-97.32"/>
</a>
</g>
<text xml:space="preserve" text-anchor="start" x="211.19" y="-61.75" font-family="Helvetica,sans-Serif" font-size="10.00" fill="grey">rep</text>
</g>
</g>
</svg>
</svg>

<style type='text/css'>
<![CDATA[
[data-mouse-over-selected='false'] { opacity: 0.7; }
[data-mouse-over-selected='true']  { opacity: 1.0; }
]]>
</style>
<script type="application/ecmascript"><![CDATA[
document.addEventListener('DOMContentLoaded', (event) => {
  highlightEdges();
  highlightAdjacentNodes();
});
]]></script>
</svg>
