<?xml version="1.0" encoding="UTF-8" standalone="no"?>
<!DOCTYPE svg PUBLIC "-//W3C//DTD SVG 1.1//EN"
 "http://www.w3.org/Graphics/SVG/1.1/DTD/svg11.dtd">
<!-- Generated by graphviz version 13.1.2 (20250808.2320)
 -->
<!-- Title: kest_sequence Pages: 1 -->
<svg width="200pt" height="287pt"
 viewBox="0.00 0.00 200.00 287.00" xmlns="http://www.w3.org/2000/svg" xmlns:xlink="http://www.w3.org/1999/xlink">
<g id="graph0" class="graph" transform="scale(1 1) rotate(0) translate(4 282.75)">
<title>kest_sequence</title>
<!-- Node1 -->
<g id="Node000001" class="node">
<title>Node1</title>
<g id="a_Node000001"><a xlink:title=" ">
<polygon fill="#999999" stroke="#666666" points="136.25,-20.75 48.25,-20.75 48.25,0 136.25,0 136.25,-20.75"/>
<text xml:space="preserve" text-anchor="middle" x="92.25" y="-7.25" font-family="Helvetica,sans-Serif" font-size="10.00">kest_sequence</text>
</a>
</g>
</g>
<!-- Node2 -->
<g id="Node000002" class="node">
<title>Node2</title>
<g id="a_Node000002"><a xlink:href="structseq__profile__ll.html" target="_top" xlink:title=" ">
<polygon fill="white" stroke="#666666" points="132.88,-120.38 51.62,-120.38 51.62,-99.62 132.88,-99.62 132.88,-120.38"/>
<text xml:space="preserve" text-anchor="middle" x="92.25" y="-106.88" font-family="Helvetica,sans-Serif" font-size="10.00">seq_profile_ll</text>
</a>
</g>
</g>
<!-- Node2&#45;&gt;Node1 -->
<g id="edge1_Node000001_Node000002" class="edge">
<title>Node2&#45;&gt;Node1</title>
<g id="a_edge1_Node000001_Node000002"><a xlink:title=" ">
<path fill="none" stroke="#9a32cd" stroke-dasharray="5,2" d="M92.25,-87.9C92.25,-67.19 92.25,-36.52 92.25,-21.05"/>
<polygon fill="#9a32cd" stroke="#9a32cd" points="88.75,-87.77 92.25,-97.77 95.75,-87.77 88.75,-87.77"/>
</a>
</g>
<text xml:space="preserve" text-anchor="start" x="95.25" y="-61.75" font-family="Helvetica,sans-Serif" font-size="10.00" fill="grey">position</text>
<text xml:space="preserve" text-anchor="start" x="95.25" y="-45" font-family="Helvetica,sans-Serif" font-size="10.00" fill="grey">profiles</text>
</g>
<!-- Node2&#45;&gt;Node2 -->
<g id="edge5_Node000002_Node000002" class="edge">
<title>Node2&#45;&gt;Node2</title>
<g id="a_edge5_Node000002_Node000002"><a xlink:title=" ">
<path fill="none" stroke="#9a32cd" stroke-dasharray="5,2" d="M144.65,-116.28C148.51,-114.87 150.88,-112.78 150.88,-110 150.88,-105.06 143.39,-102.29 133.34,-101.67"/>
<polygon fill="#9a32cd" stroke="#9a32cd" points="144.05,-112.83 134.83,-118.06 145.3,-119.72 144.05,-112.83"/>
</a>
</g>
<text xml:space="preserve" text-anchor="start" x="153.88" y="-115.25" font-family="Helvetica,sans-Serif" font-size="10.00" fill="grey">next</text>
<text xml:space="preserve" text-anchor="start" x="153.88" y="-98.5" font-family="Helvetica,sans-Serif" font-size="10.00" fill="grey">prev</text>
</g>
<!-- Node3 -->
<g id="Node000003" class="node">
<title>Node3</title>
<g id="a_Node000003"><a xlink:href="structkest__profile.html" target="_top" xlink:title=" ">
<polygon fill="white" stroke="#666666" points="128.75,-203.25 55.75,-203.25 55.75,-182.5 128.75,-182.5 128.75,-203.25"/>
<text xml:space="preserve" text-anchor="middle" x="92.25" y="-189.75" font-family="Helvetica,sans-Serif" font-size="10.00">kest_profile</text>
</a>
</g>
</g>
<!-- Node3&#45;&gt;Node2 -->
<g id="edge2_Node000002_Node000003" class="edge">
<title>Node3&#45;&gt;Node2</title>
<g id="a_edge2_Node000002_Node000003"><a xlink:title=" ">
<path fill="none" stroke="#9a32cd" stroke-dasharray="5,2" d="M92.25,-171.19C92.25,-154.91 92.25,-132.98 92.25,-120.58"/>
<polygon fill="#9a32cd" stroke="#9a32cd" points="88.75,-170.77 92.25,-180.77 95.75,-170.77 88.75,-170.77"/>
</a>
</g>
<text xml:space="preserve" text-anchor="start" x="95.25" y="-152" font-family="Helvetica,sans-Serif" font-size="10.00" fill="grey">data</text>
</g>
<!-- Node4 -->
<g id="Node000004" class="node">
<title>Node4</title>
<g id="a_Node000004"><a xlink:href="structkest__pipeline.html" target="_top" xlink:title=" ">
<polygon fill="white" stroke="#666666" points="80.5,-278.75 0,-278.75 0,-258 80.5,-258 80.5,-278.75"/>
<text xml:space="preserve" text-anchor="middle" x="40.25" y="-265.25" font-family="Helvetica,sans-Serif" font-size="10.00">kest_pipeline</text>
</a>
</g>
</g>
<!-- Node4&#45;&gt;Node3 -->
<g id="edge3_Node000003_Node000004" class="edge">
<title>Node4&#45;&gt;Node3</title>
<g id="a_edge3_Node000003_Node000004"><a xlink:title=" ">
<path fill="none" stroke="#9a32cd" stroke-dasharray="5,2" d="M53.69,-248.37C63.8,-234.09 77.23,-215.1 85.28,-203.72"/>
<polygon fill="#9a32cd" stroke="#9a32cd" points="50.84,-246.35 47.92,-256.53 56.56,-250.39 50.84,-246.35"/>
</a>
</g>
<text xml:space="preserve" text-anchor="start" x="75.44" y="-227.5" font-family="Helvetica,sans-Serif" font-size="10.00" fill="grey">pipeline</text>
</g>
<!-- Node5 -->
<g id="Node000005" class="node">
<title>Node5</title>
<g id="a_Node000005"><a xlink:href="structkest__parameter.html" target="_top" xlink:title=" ">
<polygon fill="#fff0f0" stroke="red" points="191.5,-278.75 99,-278.75 99,-258 191.5,-258 191.5,-278.75"/>
<text xml:space="preserve" text-anchor="middle" x="145.25" y="-265.25" font-family="Helvetica,sans-Serif" font-size="10.00">kest_parameter</text>
</a>
</g>
</g>
<!-- Node5&#45;&gt;Node3 -->
<g id="edge4_Node000003_Node000005" class="edge">
<title>Node5&#45;&gt;Node3</title>
<g id="a_edge4_Node000003_Node000005"><a xlink:title=" ">
<path fill="none" stroke="#9a32cd" stroke-dasharray="5,2" d="M136.58,-247.21C132.51,-238.8 127.24,-229.17 121.25,-221.25 116.41,-214.84 110,-208.62 104.44,-203.73"/>
<polygon fill="#9a32cd" stroke="#9a32cd" points="133.37,-248.62 140.7,-256.27 139.74,-245.71 133.37,-248.62"/>
</a>
</g>
<text xml:space="preserve" text-anchor="start" x="135.58" y="-227.5" font-family="Helvetica,sans-Serif" font-size="10.00" fill="grey">volume</text>
</g>
</g>
</svg>
