<?xml version="1.0" encoding="UTF-8" standalone="no"?>
<!DOCTYPE svg PUBLIC "-//W3C//DTD SVG 1.1//EN"
 "http://www.w3.org/Graphics/SVG/1.1/DTD/svg11.dtd">
<!-- Generated by graphviz version 13.1.2 (20250808.2320)
 -->
<!-- Title: kest_profile_view_str Pages: 1 -->
<svg width="793pt" height="409pt"
 viewBox="0.00 0.00 793.00 409.00" xmlns="http://www.w3.org/2000/svg" xmlns:xlink="http://www.w3.org/1999/xlink">
<g id="graph0" class="graph" transform="scale(1 1) rotate(0) translate(4 404.5)">
<title>kest_profile_view_str</title>
<!-- Node1 -->
<g id="Node000001" class="node">
<title>Node1</title>
<g id="a_Node000001"><a xlink:title=" ">
<polygon fill="#999999" stroke="#666666" points="426.12,-20.75 306.62,-20.75 306.62,0 426.12,0 426.12,-20.75"/>
<text xml:space="preserve" text-anchor="middle" x="366.38" y="-7.25" font-family="Helvetica,sans-Serif" font-size="10.00">kest_profile_view_str</text>
</a>
</g>
</g>
<!-- Node2 -->
<g id="Node000002" class="node">
<title>Node2</title>
<g id="a_Node000002"><a xlink:href="structkest__profile.html" target="_top" xlink:title=" ">
<polygon fill="white" stroke="#666666" points="274.88,-102.62 201.88,-102.62 201.88,-81.88 274.88,-81.88 274.88,-102.62"/>
<text xml:space="preserve" text-anchor="middle" x="238.38" y="-89.12" font-family="Helvetica,sans-Serif" font-size="10.00">kest_profile</text>
</a>
</g>
</g>
<!-- Node2&#45;&gt;Node1 -->
<g id="edge1_Node000001_Node000002" class="edge">
<title>Node2&#45;&gt;Node1</title>
<g id="a_edge1_Node000001_Node000002"><a xlink:title=" ">
<path fill="none" stroke="#9a32cd" stroke-dasharray="5,2" d="M245.67,-71.11C250.62,-60.07 258.24,-46.99 268.88,-38.75 279.72,-30.35 293,-24.53 306.24,-20.49"/>
<polygon fill="#9a32cd" stroke="#9a32cd" points="242.5,-69.6 242.01,-80.18 248.99,-72.22 242.5,-69.6"/>
</a>
</g>
<text xml:space="preserve" text-anchor="start" x="271.88" y="-45" font-family="Helvetica,sans-Serif" font-size="10.00" fill="grey">profile</text>
</g>
<!-- Node3 -->
<g id="Node000003" class="node">
<title>Node3</title>
<g id="a_Node000003"><a xlink:href="structkest__pipeline.html" target="_top" xlink:title=" ">
<polygon fill="white" stroke="#666666" points="173.62,-200.25 93.12,-200.25 93.12,-179.5 173.62,-179.5 173.62,-200.25"/>
<text xml:space="preserve" text-anchor="middle" x="133.38" y="-186.75" font-family="Helvetica,sans-Serif" font-size="10.00">kest_pipeline</text>
</a>
</g>
</g>
<!-- Node3&#45;&gt;Node2 -->
<g id="edge2_Node000002_Node000003" class="edge">
<title>Node3&#45;&gt;Node2</title>
<g id="a_edge2_Node000002_Node000003"><a xlink:title=" ">
<path fill="none" stroke="#9a32cd" stroke-dasharray="5,2" d="M148.36,-170.13C159.09,-157.28 174.26,-140.23 189.38,-127 199.63,-118.02 212.34,-109.33 222.24,-103.01"/>
<polygon fill="#9a32cd" stroke="#9a32cd" points="145.68,-167.88 142.05,-177.84 151.1,-172.32 145.68,-167.88"/>
</a>
</g>
<text xml:space="preserve" text-anchor="start" x="192.38" y="-133.25" font-family="Helvetica,sans-Serif" font-size="10.00" fill="grey">pipeline</text>
</g>
<!-- Node4 -->
<g id="Node000004" class="node">
<title>Node4</title>
<g id="a_Node000004"><a xlink:href="structkest__parameter.html" target="_top" xlink:title=" ">
<polygon fill="white" stroke="#666666" points="284.62,-200.25 192.12,-200.25 192.12,-179.5 284.62,-179.5 284.62,-200.25"/>
<text xml:space="preserve" text-anchor="middle" x="238.38" y="-186.75" font-family="Helvetica,sans-Serif" font-size="10.00">kest_parameter</text>
</a>
</g>
</g>
<!-- Node4&#45;&gt;Node2 -->
<g id="edge3_Node000002_Node000004" class="edge">
<title>Node4&#45;&gt;Node2</title>
<g id="a_edge3_Node000002_Node000004"><a xlink:title=" ">
<path fill="none" stroke="#9a32cd" stroke-dasharray="5,2" d="M238.38,-167.57C238.38,-147.39 238.38,-117.99 238.38,-102.93"/>
<polygon fill="#9a32cd" stroke="#9a32cd" points="234.88,-167.49 238.38,-177.49 241.88,-167.49 234.88,-167.49"/>
</a>
</g>
<text xml:space="preserve" text-anchor="start" x="241.38" y="-133.25" font-family="Helvetica,sans-Serif" font-size="10.00" fill="grey">volume</text>
</g>
<!-- Node5 -->
<g id="Node000005" class="node">
<title>Node5</title>
<g id="a_Node000005"><a xlink:href="structkest__expression.html" target="_top" xlink:title=" ">
<polygon fill="white" stroke="#666666" points="94.75,-308.25 0,-308.25 0,-287.5 94.75,-287.5 94.75,-308.25"/>
<text xml:space="preserve" text-anchor="middle" x="47.38" y="-294.75" font-family="Helvetica,sans-Serif" font-size="10.00">kest_expression</text>
</a>
</g>
</g>
<!-- Node5&#45;&gt;Node4 -->
<g id="edge4_Node000004_Node000005" class="edge">
<title>Node5&#45;&gt;Node4</title>
<g id="a_edge4_Node000004_Node000005"><a xlink:title=" ">
<path fill="none" stroke="#9a32cd" stroke-dasharray="5,2" d="M74.85,-281.63C114.7,-259.51 187.42,-219.15 220.79,-200.63"/>
<polygon fill="#9a32cd" stroke="#9a32cd" points="73.37,-278.45 66.32,-286.36 76.77,-284.57 73.37,-278.45"/>
</a>
</g>
<text xml:space="preserve" text-anchor="start" x="162.98" y="-257" font-family="Helvetica,sans-Serif" font-size="10.00" fill="grey">max_expr</text>
<text xml:space="preserve" text-anchor="start" x="162.98" y="-240.25" font-family="Helvetica,sans-Serif" font-size="10.00" fill="grey">min_expr</text>
</g>
<!-- Node5&#45;&gt;Node5 -->
<g id="edge5_Node000005_Node000005" class="edge">
<title>Node5&#45;&gt;Node5</title>
<g id="a_edge5_Node000005_Node000005"><a xlink:title=" ">
<path fill="none" stroke="#9a32cd" stroke-dasharray="5,2" d="M106.15,-304.17C110.25,-302.73 112.75,-300.64 112.75,-297.88 112.75,-293.1 105.28,-290.3 94.97,-289.48"/>
<polygon fill="#9a32cd" stroke="#9a32cd" points="105.65,-300.71 96.46,-305.99 106.94,-307.59 105.65,-300.71"/>
</a>
</g>
<text xml:space="preserve" text-anchor="start" x="115.75" y="-294.75" font-family="Helvetica,sans-Serif" font-size="10.00" fill="grey">sub_exprs</text>
</g>
<!-- Node6 -->
<g id="Node000006" class="node">
<title>Node6</title>
<g id="a_Node000006"><a xlink:href="structkest__parameter__id.html" target="_top" xlink:title=" ">
<polygon fill="white" stroke="#666666" points="292.75,-308.25 186,-308.25 186,-287.5 292.75,-287.5 292.75,-308.25"/>
<text xml:space="preserve" text-anchor="middle" x="239.38" y="-294.75" font-family="Helvetica,sans-Serif" font-size="10.00">kest_parameter_id</text>
</a>
</g>
</g>
<!-- Node6&#45;&gt;Node4 -->
<g id="edge6_Node000004_Node000006" class="edge">
<title>Node6&#45;&gt;Node4</title>
<g id="a_edge6_Node000004_Node000006"><a xlink:title=" ">
<path fill="none" stroke="#9a32cd" stroke-dasharray="5,2" d="M239.17,-275.61C238.96,-252.8 238.63,-217.58 238.47,-200.63"/>
<polygon fill="#9a32cd" stroke="#9a32cd" points="235.67,-275.61 239.27,-285.58 242.67,-275.55 235.67,-275.61"/>
</a>
</g>
<text xml:space="preserve" text-anchor="start" x="242.11" y="-248.62" font-family="Helvetica,sans-Serif" font-size="10.00" fill="grey">id</text>
</g>
<!-- Node7 -->
<g id="Node000007" class="node">
<title>Node7</title>
<g id="a_Node000007"><a xlink:href="structkest__button.html" target="_top" xlink:title=" ">
<polygon fill="white" stroke="#666666" points="527.88,-400.5 454.88,-400.5 454.88,-379.75 527.88,-379.75 527.88,-400.5"/>
<text xml:space="preserve" text-anchor="middle" x="491.38" y="-387" font-family="Helvetica,sans-Serif" font-size="10.00">kest_button</text>
</a>
</g>
</g>
<!-- Node7&#45;&gt;Node1 -->
<g id="edge7_Node000001_Node000007" class="edge">
<title>Node7&#45;&gt;Node1</title>
<g id="a_edge7_Node000001_Node000007"><a xlink:title=" ">
<path fill="none" stroke="#9a32cd" stroke-dasharray="5,2" d="M443.31,-384.24C392.73,-376.14 320.38,-354.78 320.38,-298.88 320.38,-298.88 320.38,-298.88 320.38,-91.25 320.38,-62.77 342.61,-35.28 356.17,-21.17"/>
<polygon fill="#9a32cd" stroke="#9a32cd" points="442.79,-387.7 453.19,-385.69 443.8,-380.78 442.79,-387.7"/>
</a>
</g>
<text xml:space="preserve" text-anchor="start" x="323.38" y="-203.5" font-family="Helvetica,sans-Serif" font-size="10.00" fill="grey">play</text>
<text xml:space="preserve" text-anchor="start" x="323.38" y="-186.75" font-family="Helvetica,sans-Serif" font-size="10.00" fill="grey">plus</text>
<text xml:space="preserve" text-anchor="start" x="323.38" y="-170" font-family="Helvetica,sans-Serif" font-size="10.00" fill="grey">save</text>
</g>
<!-- Node7&#45;&gt;Node7 -->
<g id="edge8_Node000007_Node000007" class="edge">
<title>Node7&#45;&gt;Node7</title>
<g id="a_edge8_Node000007_Node000007"><a xlink:title=" ">
<path fill="none" stroke="#9a32cd" stroke-dasharray="5,2" d="M539.6,-396.73C543.47,-395.29 545.88,-393.09 545.88,-390.12 545.88,-384.85 538.29,-381.99 528.31,-381.54"/>
<polygon fill="#9a32cd" stroke="#9a32cd" points="539.05,-393.28 529.8,-398.45 540.25,-400.17 539.05,-393.28"/>
</a>
</g>
<text xml:space="preserve" text-anchor="start" x="548.88" y="-387" font-family="Helvetica,sans-Serif" font-size="10.00" fill="grey">sub_buttons</text>
</g>
<!-- Node8 -->
<g id="Node000008" class="node">
<title>Node8</title>
<g id="a_Node000008"><a xlink:href="structkest__ui__page.html" target="_top" xlink:title=" ">
<polygon fill="white" stroke="#666666" points="598.25,-200.25 518.5,-200.25 518.5,-179.5 598.25,-179.5 598.25,-200.25"/>
<text xml:space="preserve" text-anchor="middle" x="558.38" y="-186.75" font-family="Helvetica,sans-Serif" font-size="10.00">kest_ui_page</text>
</a>
</g>
</g>
<!-- Node7&#45;&gt;Node8 -->
<g id="edge13_Node000008_Node000007" class="edge">
<title>Node7&#45;&gt;Node8</title>
<g id="a_edge13_Node000008_Node000007"><a xlink:title=" ">
<path fill="none" stroke="#9a32cd" stroke-dasharray="5,2" d="M475.57,-370.53C460.12,-349.96 440.61,-315.98 453.12,-287.5 471.09,-246.62 515.82,-215.46 540.8,-200.56"/>
<polygon fill="#9a32cd" stroke="#9a32cd" points="472.76,-372.62 481.73,-378.27 478.24,-368.27 472.76,-372.62"/>
</a>
</g>
<text xml:space="preserve" text-anchor="start" x="456.12" y="-294.75" font-family="Helvetica,sans-Serif" font-size="10.00" fill="grey">bottom_buttons</text>
</g>
<!-- Node9 -->
<g id="Node000009" class="node">
<title>Node9</title>
<g id="a_Node000009"><a xlink:href="structkest__ui__page__panel.html" target="_top" xlink:title=" ">
<polygon fill="white" stroke="#666666" points="657.38,-308.25 545.38,-308.25 545.38,-287.5 657.38,-287.5 657.38,-308.25"/>
<text xml:space="preserve" text-anchor="middle" x="601.38" y="-294.75" font-family="Helvetica,sans-Serif" font-size="10.00">kest_ui_page_panel</text>
</a>
</g>
</g>
<!-- Node7&#45;&gt;Node9 -->
<g id="edge11_Node000009_Node000007" class="edge">
<title>Node7&#45;&gt;Node9</title>
<g id="a_edge11_Node000009_Node000007"><a xlink:title=" ">
<path fill="none" stroke="#9a32cd" stroke-dasharray="5,2" d="M512.03,-372.18C534.83,-353.47 570.77,-323.99 589.35,-308.74"/>
<polygon fill="#9a32cd" stroke="#9a32cd" points="509.83,-369.46 504.32,-378.51 514.27,-374.87 509.83,-369.46"/>
</a>
</g>
<text xml:space="preserve" text-anchor="start" x="568.79" y="-349.25" font-family="Helvetica,sans-Serif" font-size="10.00" fill="grey">lb</text>
<text xml:space="preserve" text-anchor="start" x="568.79" y="-332.5" font-family="Helvetica,sans-Serif" font-size="10.00" fill="grey">rb</text>
</g>
<!-- Node11 -->
<g id="Node000011" class="node">
<title>Node11</title>
<g id="a_Node000011"><a xlink:href="structkest__active__button.html" target="_top" xlink:title=" ">
<polygon fill="white" stroke="#666666" points="701.5,-20.75 593.25,-20.75 593.25,0 701.5,0 701.5,-20.75"/>
<text xml:space="preserve" text-anchor="middle" x="647.38" y="-7.25" font-family="Helvetica,sans-Serif" font-size="10.00">kest_active_button</text>
</a>
</g>
</g>
<!-- Node7&#45;&gt;Node11 -->
<g id="edge16_Node000011_Node000007" class="edge">
<title>Node7&#45;&gt;Node11</title>
<g id="a_edge16_Node000011_Node000007"><a xlink:title=" ">
<path fill="none" stroke="#9a32cd" stroke-dasharray="5,2" d="M539.28,-380.84C608.26,-367.53 727.38,-338.77 727.38,-298.88 727.38,-298.88 727.38,-298.88 727.38,-91.25 727.38,-57.88 692.1,-33.61 668.39,-21.07"/>
<polygon fill="#9a32cd" stroke="#9a32cd" points="538.92,-377.35 529.74,-382.64 540.21,-384.23 538.92,-377.35"/>
</a>
</g>
<text xml:space="preserve" text-anchor="start" x="730.38" y="-195.12" font-family="Helvetica,sans-Serif" font-size="10.00" fill="grey">button</text>
<text xml:space="preserve" text-anchor="start" x="730.38" y="-178.38" font-family="Helvetica,sans-Serif" font-size="10.00" fill="grey">del_button</text>
</g>
<!-- Node8&#45;&gt;Node1 -->
<g id="edge9_Node000001_Node000008" class="edge">
<title>Node8&#45;&gt;Node1</title>
<g id="a_edge9_Node000001_Node000008"><a xlink:title=" ">
<path fill="none" stroke="#9a32cd" stroke-dasharray="5,2" d="M507.15,-180.91C464.81,-171.44 406.83,-151.23 376.12,-109 356.69,-82.27 361.11,-39.99 364.39,-21.08"/>
<polygon fill="#9a32cd" stroke="#9a32cd" points="506.38,-184.32 516.89,-182.94 507.81,-177.47 506.38,-184.32"/>
</a>
</g>
<text xml:space="preserve" text-anchor="start" x="379.12" y="-89.12" font-family="Helvetica,sans-Serif" font-size="10.00" fill="grey">settings_page</text>
</g>
<!-- Node8&#45;&gt;Node8 -->
<g id="edge12_Node000008_Node000008" class="edge">
<title>Node8&#45;&gt;Node8</title>
<g id="a_edge12_Node000008_Node000008"><a xlink:title=" ">
<path fill="none" stroke="#9a32cd" stroke-dasharray="5,2" d="M609.67,-197.5C613.74,-195.83 616.25,-193.29 616.25,-189.88 616.25,-183.97 608.73,-180.67 598.67,-179.98"/>
<polygon fill="#9a32cd" stroke="#9a32cd" points="609.24,-194.02 600.16,-199.46 610.66,-200.87 609.24,-194.02"/>
</a>
</g>
<text xml:space="preserve" text-anchor="start" x="619.25" y="-186.75" font-family="Helvetica,sans-Serif" font-size="10.00" fill="grey">parent</text>
</g>
<!-- Node10 -->
<g id="Node000010" class="node">
<title>Node10</title>
<g id="a_Node000010"><a xlink:href="structkest__active__button__array.html" target="_top" xlink:title=" ">
<polygon fill="white" stroke="#666666" points="698.5,-109 590.25,-109 590.25,-75.5 698.5,-75.5 698.5,-109"/>
<text xml:space="preserve" text-anchor="start" x="598.25" y="-95.5" font-family="Helvetica,sans-Serif" font-size="10.00">kest_active_button</text>
<text xml:space="preserve" text-anchor="middle" x="644.38" y="-82.75" font-family="Helvetica,sans-Serif" font-size="10.00">_array</text>
</a>
</g>
</g>
<!-- Node8&#45;&gt;Node10 -->
<g id="edge19_Node000010_Node000008" class="edge">
<title>Node8&#45;&gt;Node10</title>
<g id="a_edge19_Node000010_Node000008"><a xlink:title=" ">
<path fill="none" stroke="#9a32cd" stroke-dasharray="5,2" d="M574.78,-170.63C590.74,-152.88 614.76,-126.18 629.99,-109.24"/>
<polygon fill="#9a32cd" stroke="#9a32cd" points="572.35,-168.1 568.27,-177.88 577.56,-172.78 572.35,-168.1"/>
</a>
</g>
<text xml:space="preserve" text-anchor="start" x="614.61" y="-133.25" font-family="Helvetica,sans-Serif" font-size="10.00" fill="grey">parent</text>
</g>
<!-- Node9&#45;&gt;Node8 -->
<g id="edge10_Node000008_Node000009" class="edge">
<title>Node9&#45;&gt;Node8</title>
<g id="a_edge10_Node000008_Node000009"><a xlink:title=" ">
<path fill="none" stroke="#9a32cd" stroke-dasharray="5,2" d="M593.13,-276.56C583.9,-253.79 569.3,-217.81 562.33,-200.63"/>
<polygon fill="#9a32cd" stroke="#9a32cd" points="589.84,-277.74 596.84,-285.69 596.32,-275.11 589.84,-277.74"/>
</a>
</g>
<text xml:space="preserve" text-anchor="start" x="592.84" y="-248.62" font-family="Helvetica,sans-Serif" font-size="10.00" fill="grey">panel</text>
</g>
<!-- Node10&#45;&gt;Node1 -->
<g id="edge14_Node000001_Node000010" class="edge">
<title>Node10&#45;&gt;Node1</title>
<g id="a_edge14_Node000001_Node000010"><a xlink:title=" ">
<path fill="none" stroke="#9a32cd" stroke-dasharray="5,2" d="M602.43,-69.93C575.48,-56.36 544.26,-40.94 537.38,-38.75 501.41,-27.33 459.61,-20.53 426.34,-16.56"/>
<polygon fill="#9a32cd" stroke="#9a32cd" points="600.64,-72.95 611.14,-74.33 603.79,-66.7 600.64,-72.95"/>
</a>
</g>
<text xml:space="preserve" text-anchor="start" x="580.52" y="-45" font-family="Helvetica,sans-Serif" font-size="10.00" fill="grey">array</text>
</g>
<!-- Node10&#45;&gt;Node11 -->
<g id="edge18_Node000011_Node000010" class="edge">
<title>Node10&#45;&gt;Node11</title>
<g id="a_edge18_Node000011_Node000010"><a xlink:title=" ">
<path fill="none" stroke="#9a32cd" stroke-dasharray="5,2" d="M656.55,-64.56C657.28,-62.21 657.91,-59.83 658.38,-57.5 660,-49.33 659.96,-46.93 658.38,-38.75 657.21,-32.72 654.72,-26.32 652.4,-21.23"/>
<polygon fill="#9a32cd" stroke="#9a32cd" points="653.33,-63.17 653.08,-73.76 659.88,-65.63 653.33,-63.17"/>
</a>
</g>
<text xml:space="preserve" text-anchor="start" x="662.58" y="-45" font-family="Helvetica,sans-Serif" font-size="10.00" fill="grey">array</text>
</g>
<!-- Node11&#45;&gt;Node10 -->
<g id="edge15_Node000010_Node000011" class="edge">
<title>Node11&#45;&gt;Node10</title>
<g id="a_edge15_Node000010_Node000011"><a xlink:title=" ">
<path fill="none" stroke="#9a32cd" stroke-dasharray="5,2" d="M622.58,-28.66C619.77,-31.69 617.31,-35.07 615.62,-38.75 609.91,-51.22 617.73,-64.79 626.65,-75.01"/>
<polygon fill="#9a32cd" stroke="#9a32cd" points="624.82,-31.35 629.96,-22.09 620.17,-26.12 624.82,-31.35"/>
</a>
</g>
<text xml:space="preserve" text-anchor="start" x="618.62" y="-45" font-family="Helvetica,sans-Serif" font-size="10.00" fill="grey">buttons</text>
</g>
<!-- Node12 -->
<g id="Node000012" class="node">
<title>Node12</title>
<g id="a_Node000012"><a xlink:href="structkest__representation.html" target="_top" xlink:title=" ">
<polygon fill="white" stroke="#666666" points="571.75,-102.62 459,-102.62 459,-81.88 571.75,-81.88 571.75,-102.62"/>
<text xml:space="preserve" text-anchor="middle" x="515.38" y="-89.12" font-family="Helvetica,sans-Serif" font-size="10.00">kest_representation</text>
</a>
</g>
</g>
<!-- Node12&#45;&gt;Node1 -->
<g id="edge20_Node000001_Node000012" class="edge">
<title>Node12&#45;&gt;Node1</title>
<g id="a_edge20_Node000001_Node000012"><a xlink:title=" ">
<path fill="none" stroke="#9a32cd" stroke-dasharray="5,2" d="M487.24,-76.17C457.19,-60.06 410.46,-35.01 384.79,-21.25"/>
<polygon fill="#9a32cd" stroke="#9a32cd" points="485.3,-79.1 495.77,-80.74 488.61,-72.93 485.3,-79.1"/>
</a>
</g>
<text xml:space="preserve" text-anchor="start" x="452.8" y="-45" font-family="Helvetica,sans-Serif" font-size="10.00" fill="grey">rep</text>
</g>
<!-- Node12&#45;&gt;Node11 -->
<g id="edge17_Node000011_Node000012" class="edge">
<title>Node12&#45;&gt;Node11</title>
<g id="a_edge17_Node000011_Node000012"><a xlink:title=" ">
<path fill="none" stroke="#9a32cd" stroke-dasharray="5,2" d="M509.73,-70.28C508.2,-59.72 508.58,-47.37 515.62,-38.75 525.53,-26.63 561.17,-19.7 592.88,-15.84"/>
<polygon fill="#9a32cd" stroke="#9a32cd" points="506.3,-70.98 511.81,-80.04 513.15,-69.53 506.3,-70.98"/>
</a>
</g>
<text xml:space="preserve" text-anchor="start" x="518.62" y="-45" font-family="Helvetica,sans-Serif" font-size="10.00" fill="grey">rep</text>
</g>
</g>
</svg>
