<?xml version="1.0" encoding="UTF-8" standalone="no"?>
<!DOCTYPE svg PUBLIC "-//W3C//DTD SVG 1.1//EN"
 "http://www.w3.org/Graphics/SVG/1.1/DTD/svg11.dtd">
<!-- Generated by graphviz version 13.1.2 (20250808.2320)
 -->
<!-- Title: kest_active_button Pages: 1 -->
<svg width="442pt" height="300pt"
 viewBox="0.00 0.00 442.00 300.00" xmlns="http://www.w3.org/2000/svg" xmlns:xlink="http://www.w3.org/1999/xlink">
<g id="graph0" class="graph" transform="scale(1 1) rotate(0) translate(4 295.5)">
<title>kest_active_button</title>
<!-- Node1 -->
<g id="Node000001" class="node">
<title>Node1</title>
<g id="a_Node000001"><a xlink:title=" ">
<polygon fill="#999999" stroke="#666666" points="171.39,-109 63.14,-109 63.14,-88.25 171.39,-88.25 171.39,-109"/>
<text xml:space="preserve" text-anchor="middle" x="117.26" y="-95.5" font-family="Helvetica,sans-Serif" font-size="10.00">kest_active_button</text>
</a>
</g>
</g>
<!-- Node4 -->
<g id="Node000004" class="node">
<title>Node4</title>
<g id="a_Node000004"><a xlink:href="structkest__active__button__array.html" target="_top" xlink:title=" ">
<polygon fill="white" stroke="#666666" points="222.39,-33.5 114.14,-33.5 114.14,0 222.39,0 222.39,-33.5"/>
<text xml:space="preserve" text-anchor="start" x="122.14" y="-20" font-family="Helvetica,sans-Serif" font-size="10.00">kest_active_button</text>
<text xml:space="preserve" text-anchor="middle" x="168.26" y="-7.25" font-family="Helvetica,sans-Serif" font-size="10.00">_array</text>
</a>
</g>
</g>
<!-- Node1&#45;&gt;Node4 -->
<g id="edge5_Node000004_Node000001" class="edge">
<title>Node1&#45;&gt;Node4</title>
<g id="a_edge5_Node000004_Node000001"><a xlink:title=" ">
<path fill="none" stroke="#9a32cd" stroke-dasharray="5,2" d="M137.83,-80.31C140.89,-77.16 143.83,-73.76 146.26,-70.25 154.03,-59.04 159.81,-44.66 163.5,-33.78"/>
<polygon fill="#9a32cd" stroke="#9a32cd" points="135.7,-77.51 130.8,-86.91 140.49,-82.62 135.7,-77.51"/>
</a>
</g>
<text xml:space="preserve" text-anchor="start" x="159.1" y="-57.75" font-family="Helvetica,sans-Serif" font-size="10.00" fill="grey">buttons</text>
</g>
<!-- Node2 -->
<g id="Node000002" class="node">
<title>Node2</title>
<g id="a_Node000002"><a xlink:href="structkest__button.html" target="_top" xlink:title=" ">
<polygon fill="white" stroke="#666666" points="257.76,-291.5 184.76,-291.5 184.76,-270.75 257.76,-270.75 257.76,-291.5"/>
<text xml:space="preserve" text-anchor="middle" x="221.26" y="-278" font-family="Helvetica,sans-Serif" font-size="10.00">kest_button</text>
</a>
</g>
</g>
<!-- Node2&#45;&gt;Node1 -->
<g id="edge1_Node000001_Node000002" class="edge">
<title>Node2&#45;&gt;Node1</title>
<g id="a_edge1_Node000001_Node000002"><a xlink:title=" ">
<path fill="none" stroke="#9a32cd" stroke-dasharray="5,2" d="M173.02,-277.19C122.01,-271.21 43.84,-253.2 6.51,-199.25 -20.64,-160.01 48.87,-125.59 89.82,-109.42"/>
<polygon fill="#9a32cd" stroke="#9a32cd" points="172.6,-280.66 182.91,-278.22 173.33,-273.7 172.6,-280.66"/>
</a>
</g>
<text xml:space="preserve" text-anchor="start" x="9.51" y="-186.75" font-family="Helvetica,sans-Serif" font-size="10.00" fill="grey">button</text>
<text xml:space="preserve" text-anchor="start" x="9.51" y="-170" font-family="Helvetica,sans-Serif" font-size="10.00" fill="grey">del_button</text>
</g>
<!-- Node2&#45;&gt;Node2 -->
<g id="edge2_Node000002_Node000002" class="edge">
<title>Node2&#45;&gt;Node2</title>
<g id="a_edge2_Node000002_Node000002"><a xlink:title=" ">
<path fill="none" stroke="#9a32cd" stroke-dasharray="5,2" d="M269.49,-287.73C273.36,-286.29 275.76,-284.09 275.76,-281.12 275.76,-275.85 268.17,-272.99 258.2,-272.54"/>
<polygon fill="#9a32cd" stroke="#9a32cd" points="268.93,-284.28 259.69,-289.45 270.14,-291.17 268.93,-284.28"/>
</a>
</g>
<text xml:space="preserve" text-anchor="start" x="278.76" y="-278" font-family="Helvetica,sans-Serif" font-size="10.00" fill="grey">sub_buttons</text>
</g>
<!-- Node5 -->
<g id="Node000005" class="node">
<title>Node5</title>
<g id="a_Node000005"><a xlink:href="structkest__ui__page.html" target="_top" xlink:title=" ">
<polygon fill="white" stroke="#666666" points="274.14,-109 194.39,-109 194.39,-88.25 274.14,-88.25 274.14,-109"/>
<text xml:space="preserve" text-anchor="middle" x="234.26" y="-95.5" font-family="Helvetica,sans-Serif" font-size="10.00">kest_ui_page</text>
</a>
</g>
</g>
<!-- Node2&#45;&gt;Node5 -->
<g id="edge10_Node000005_Node000002" class="edge">
<title>Node2&#45;&gt;Node5</title>
<g id="a_edge10_Node000005_Node000002"><a xlink:title=" ">
<path fill="none" stroke="#9a32cd" stroke-dasharray="5,2" d="M222.79,-258.94C225.61,-219.8 231.53,-137.6 233.56,-109.38"/>
<polygon fill="#9a32cd" stroke="#9a32cd" points="219.3,-258.69 222.07,-268.91 226.28,-259.19 219.3,-258.69"/>
</a>
</g>
<text xml:space="preserve" text-anchor="start" x="232.48" y="-178.38" font-family="Helvetica,sans-Serif" font-size="10.00" fill="grey">bottom_buttons</text>
</g>
<!-- Node6 -->
<g id="Node000006" class="node">
<title>Node6</title>
<g id="a_Node000006"><a xlink:href="structkest__ui__page__panel.html" target="_top" xlink:title=" ">
<polygon fill="white" stroke="#666666" points="434.26,-191.88 322.26,-191.88 322.26,-171.12 434.26,-171.12 434.26,-191.88"/>
<text xml:space="preserve" text-anchor="middle" x="378.26" y="-178.38" font-family="Helvetica,sans-Serif" font-size="10.00">kest_ui_page_panel</text>
</a>
</g>
</g>
<!-- Node2&#45;&gt;Node6 -->
<g id="edge8_Node000006_Node000002" class="edge">
<title>Node2&#45;&gt;Node6</title>
<g id="a_edge8_Node000006_Node000002"><a xlink:title=" ">
<path fill="none" stroke="#9a32cd" stroke-dasharray="5,2" d="M246.66,-264.33C279.47,-243.93 335.59,-209.04 362.7,-192.18"/>
<polygon fill="#9a32cd" stroke="#9a32cd" points="244.82,-261.36 238.18,-269.61 248.52,-267.3 244.82,-261.36"/>
</a>
</g>
<text xml:space="preserve" text-anchor="start" x="321.44" y="-240.25" font-family="Helvetica,sans-Serif" font-size="10.00" fill="grey">lb</text>
<text xml:space="preserve" text-anchor="start" x="321.44" y="-223.5" font-family="Helvetica,sans-Serif" font-size="10.00" fill="grey">rb</text>
</g>
<!-- Node3 -->
<g id="Node000003" class="node">
<title>Node3</title>
<g id="a_Node000003"><a xlink:href="structkest__representation.html" target="_top" xlink:title=" ">
<polygon fill="white" stroke="#666666" points="185.64,-191.88 72.89,-191.88 72.89,-171.12 185.64,-171.12 185.64,-191.88"/>
<text xml:space="preserve" text-anchor="middle" x="129.26" y="-178.38" font-family="Helvetica,sans-Serif" font-size="10.00">kest_representation</text>
</a>
</g>
</g>
<!-- Node3&#45;&gt;Node1 -->
<g id="edge3_Node000001_Node000003" class="edge">
<title>Node3&#45;&gt;Node1</title>
<g id="a_edge3_Node000001_Node000003"><a xlink:title=" ">
<path fill="none" stroke="#9a32cd" stroke-dasharray="5,2" d="M126.19,-159.81C123.78,-143.54 120.52,-121.6 118.68,-109.21"/>
<polygon fill="#9a32cd" stroke="#9a32cd" points="122.69,-160.03 127.62,-169.41 129.61,-159 122.69,-160.03"/>
</a>
</g>
<text xml:space="preserve" text-anchor="start" x="126.98" y="-133.25" font-family="Helvetica,sans-Serif" font-size="10.00" fill="grey">rep</text>
</g>
<!-- Node4&#45;&gt;Node1 -->
<g id="edge4_Node000001_Node000004" class="edge">
<title>Node4&#45;&gt;Node1</title>
<g id="a_edge4_Node000001_Node000004"><a xlink:title=" ">
<path fill="none" stroke="#9a32cd" stroke-dasharray="5,2" d="M122.92,-40.96C119.71,-44.1 116.91,-47.61 114.76,-51.5 108.57,-62.74 111.09,-77.94 113.86,-87.77"/>
<polygon fill="#9a32cd" stroke="#9a32cd" points="124.86,-43.89 130.37,-34.84 120.42,-38.48 124.86,-43.89"/>
</a>
</g>
<text xml:space="preserve" text-anchor="start" x="117.76" y="-57.75" font-family="Helvetica,sans-Serif" font-size="10.00" fill="grey">array</text>
</g>
<!-- Node5&#45;&gt;Node4 -->
<g id="edge6_Node000004_Node000005" class="edge">
<title>Node5&#45;&gt;Node4</title>
<g id="a_edge6_Node000004_Node000005"><a xlink:title=" ">
<path fill="none" stroke="#9a32cd" stroke-dasharray="5,2" d="M222.72,-78.52C217.22,-69.95 210.31,-59.91 203.26,-51.5 198.17,-45.42 192.09,-39.25 186.45,-33.89"/>
<polygon fill="#9a32cd" stroke="#9a32cd" points="219.58,-80.1 227.84,-86.74 225.52,-76.4 219.58,-80.1"/>
</a>
</g>
<text xml:space="preserve" text-anchor="start" x="219.96" y="-57.75" font-family="Helvetica,sans-Serif" font-size="10.00" fill="grey">parent</text>
</g>
<!-- Node5&#45;&gt;Node5 -->
<g id="edge9_Node000005_Node000005" class="edge">
<title>Node5&#45;&gt;Node5</title>
<g id="a_edge9_Node000005_Node000005"><a xlink:title=" ">
<path fill="none" stroke="#9a32cd" stroke-dasharray="5,2" d="M285.89,-103.91C289.76,-102.73 292.14,-100.97 292.14,-98.62 292.14,-94.46 284.62,-92.13 274.56,-91.64"/>
<polygon fill="#9a32cd" stroke="#9a32cd" points="285.43,-100.44 276.06,-105.38 286.47,-107.36 285.43,-100.44"/>
</a>
</g>
<text xml:space="preserve" text-anchor="start" x="295.14" y="-95.5" font-family="Helvetica,sans-Serif" font-size="10.00" fill="grey">parent</text>
</g>
<!-- Node6&#45;&gt;Node5 -->
<g id="edge7_Node000005_Node000006" class="edge">
<title>Node6&#45;&gt;Node5</title>
<g id="a_edge7_Node000005_Node000006"><a xlink:title=" ">
<path fill="none" stroke="#9a32cd" stroke-dasharray="5,2" d="M350.94,-165.16C321.76,-148.76 276.38,-123.28 251.69,-109.42"/>
<polygon fill="#9a32cd" stroke="#9a32cd" points="349.14,-168.16 359.57,-170 352.57,-162.05 349.14,-168.16"/>
</a>
</g>
<text xml:space="preserve" text-anchor="start" x="317.88" y="-133.25" font-family="Helvetica,sans-Serif" font-size="10.00" fill="grey">panel</text>
</g>
</g>
</svg>
