<?xml version="1.0" encoding="UTF-8" standalone="no"?>
<!DOCTYPE svg PUBLIC "-//W3C//DTD SVG 1.1//EN"
 "http://www.w3.org/Graphics/SVG/1.1/DTD/svg11.dtd">
<!-- Generated by graphviz version 13.1.2 (20250808.2320)
 -->
<!-- Title: effect_settings_page_str Pages: 1 -->
<svg width="1019pt" height="631pt"
 viewBox="0.00 0.00 1019.00 631.00" xmlns="http://www.w3.org/2000/svg" xmlns:xlink="http://www.w3.org/1999/xlink">
<g id="graph0" class="graph" transform="scale(1 1) rotate(0) translate(4 626.75)">
<title>effect_settings_page_str</title>
<!-- Node1 -->
<g id="Node000001" class="node">
<title>Node1</title>
<g id="a_Node000001"><a xlink:title=" ">
<polygon fill="#999999" stroke="#666666" points="1010.75,-304.75 874.75,-304.75 874.75,-284 1010.75,-284 1010.75,-304.75"/>
<text xml:space="preserve" text-anchor="middle" x="942.75" y="-291.25" font-family="Helvetica,sans-Serif" font-size="10.00">effect_settings_page_str</text>
</a>
</g>
</g>
<!-- Node2 -->
<g id="Node000002" class="node">
<title>Node2</title>
<g id="a_Node000002"><a xlink:href="structkest__effect.html" target="_top" xlink:title=" ">
<polygon fill="white" stroke="#666666" points="727.38,-482.75 657.38,-482.75 657.38,-462 727.38,-462 727.38,-482.75"/>
<text xml:space="preserve" text-anchor="middle" x="692.38" y="-469.25" font-family="Helvetica,sans-Serif" font-size="10.00">kest_effect</text>
</a>
</g>
</g>
<!-- Node2&#45;&gt;Node1 -->
<g id="edge1_Node000001_Node000002" class="edge">
<title>Node2&#45;&gt;Node1</title>
<g id="a_edge1_Node000001_Node000002"><a xlink:title=" ">
<path fill="none" stroke="#9a32cd" stroke-dasharray="5,2" d="M717.83,-454.85C768.85,-418.28 885.36,-334.79 926.79,-305.1"/>
<polygon fill="#9a32cd" stroke="#9a32cd" points="715.86,-451.96 709.77,-460.63 719.94,-457.65 715.86,-451.96"/>
</a>
</g>
<text xml:space="preserve" text-anchor="start" x="802" y="-415.97" font-family="Helvetica,sans-Serif" font-size="10.00" fill="grey">effect</text>
</g>
<!-- Node3 -->
<g id="Node000003" class="node">
<title>Node3</title>
<g id="a_Node000003"><a xlink:href="structkest__parameter.html" target="_top" xlink:title=" ">
<polygon fill="white" stroke="#666666" points="312.12,-340.75 219.62,-340.75 219.62,-320 312.12,-320 312.12,-340.75"/>
<text xml:space="preserve" text-anchor="middle" x="265.88" y="-327.25" font-family="Helvetica,sans-Serif" font-size="10.00">kest_parameter</text>
</a>
</g>
</g>
<!-- Node3&#45;&gt;Node2 -->
<g id="edge2_Node000002_Node000003" class="edge">
<title>Node3&#45;&gt;Node2</title>
<g id="a_edge2_Node000002_Node000003"><a xlink:title=" ">
<path fill="none" stroke="#9a32cd" stroke-dasharray="5,2" d="M315.3,-344.11C327.33,-347.33 340.22,-350.62 352.25,-353.38 429.74,-371.12 468.09,-334.37 528,-386.62 546.98,-403.19 527.26,-423.53 546,-440.38 576.37,-467.67 624.63,-473.46 657.12,-473.9"/>
<polygon fill="#9a32cd" stroke="#9a32cd" points="316.57,-340.83 306.01,-341.58 314.74,-347.58 316.57,-340.83"/>
</a>
</g>
<text xml:space="preserve" text-anchor="start" x="434.12" y="-459.88" font-family="Helvetica,sans-Serif" font-size="10.00" fill="grey">band_center</text>
<text xml:space="preserve" text-anchor="start" x="434.12" y="-443.12" font-family="Helvetica,sans-Serif" font-size="10.00" fill="grey">band_hp_cutoff</text>
<text xml:space="preserve" text-anchor="start" x="434.12" y="-426.38" font-family="Helvetica,sans-Serif" font-size="10.00" fill="grey">band_lp_cutoff</text>
<text xml:space="preserve" text-anchor="start" x="434.12" y="-409.62" font-family="Helvetica,sans-Serif" font-size="10.00" fill="grey">band_width</text>
<text xml:space="preserve" text-anchor="start" x="434.12" y="-392.88" font-family="Helvetica,sans-Serif" font-size="10.00" fill="grey">wet_mix</text>
</g>
<!-- Node9 -->
<g id="Node000009" class="node">
<title>Node9</title>
<g id="a_Node000009"><a xlink:href="structkest__profile.html" target="_top" xlink:title=" ">
<polygon fill="white" stroke="#666666" points="508.12,-341.75 435.12,-341.75 435.12,-321 508.12,-321 508.12,-341.75"/>
<text xml:space="preserve" text-anchor="middle" x="471.62" y="-328.25" font-family="Helvetica,sans-Serif" font-size="10.00">kest_profile</text>
</a>
</g>
</g>
<!-- Node3&#45;&gt;Node9 -->
<g id="edge11_Node000009_Node000003" class="edge">
<title>Node3&#45;&gt;Node9</title>
<g id="a_edge11_Node000009_Node000003"><a xlink:title=" ">
<path fill="none" stroke="#9a32cd" stroke-dasharray="5,2" d="M323.81,-330.65C359.41,-330.83 404.18,-331.05 434.86,-331.2"/>
<polygon fill="#9a32cd" stroke="#9a32cd" points="324.13,-327.16 314.11,-330.61 324.1,-334.16 324.13,-327.16"/>
</a>
</g>
<text xml:space="preserve" text-anchor="start" x="356.38" y="-337.24" font-family="Helvetica,sans-Serif" font-size="10.00" fill="grey">volume</text>
</g>
<!-- Node19 -->
<g id="Node000019" class="node">
<title>Node19</title>
<g id="a_Node000019"><a xlink:href="structkest__parameter__widget.html" target="_top" xlink:title=" ">
<polygon fill="white" stroke="#666666" points="757.75,-178.75 627,-178.75 627,-158 757.75,-158 757.75,-178.75"/>
<text xml:space="preserve" text-anchor="middle" x="692.38" y="-165.25" font-family="Helvetica,sans-Serif" font-size="10.00">kest_parameter_widget</text>
</a>
</g>
</g>
<!-- Node3&#45;&gt;Node19 -->
<g id="edge29_Node000019_Node000003" class="edge">
<title>Node3&#45;&gt;Node19</title>
<g id="a_edge29_Node000019_Node000003"><a xlink:title=" ">
<path fill="none" stroke="#9a32cd" stroke-dasharray="5,2" d="M313.76,-315.74C339.76,-306.32 371.88,-292.44 397.25,-274.38 406.92,-267.49 406.26,-262.39 415.25,-254.62 468.29,-208.78 478.96,-186.88 546,-166.38 571.71,-158.51 601.18,-157.54 626.85,-159.08"/>
<polygon fill="#9a32cd" stroke="#9a32cd" points="312.73,-312.4 304.45,-319.01 315.05,-319 312.73,-312.4"/>
</a>
</g>
<text xml:space="preserve" text-anchor="start" x="455.88" y="-260.88" font-family="Helvetica,sans-Serif" font-size="10.00" fill="grey">param</text>
</g>
<!-- Node4 -->
<g id="Node000004" class="node">
<title>Node4</title>
<g id="a_Node000004"><a xlink:href="structkest__expression.html" target="_top" xlink:title=" ">
<polygon fill="white" stroke="#666666" points="100.75,-340.75 6,-340.75 6,-320 100.75,-320 100.75,-340.75"/>
<text xml:space="preserve" text-anchor="middle" x="53.38" y="-327.25" font-family="Helvetica,sans-Serif" font-size="10.00">kest_expression</text>
</a>
</g>
</g>
<!-- Node4&#45;&gt;Node3 -->
<g id="edge3_Node000003_Node000004" class="edge">
<title>Node4&#45;&gt;Node3</title>
<g id="a_edge3_Node000003_Node000004"><a xlink:title=" ">
<path fill="none" stroke="#9a32cd" stroke-dasharray="5,2" d="M112.2,-330.38C145.97,-330.38 187.98,-330.38 219.37,-330.38"/>
<polygon fill="#9a32cd" stroke="#9a32cd" points="112.61,-326.88 102.61,-330.38 112.61,-333.88 112.61,-326.88"/>
</a>
</g>
<text xml:space="preserve" text-anchor="start" x="127.75" y="-353.38" font-family="Helvetica,sans-Serif" font-size="10.00" fill="grey">max_expr</text>
<text xml:space="preserve" text-anchor="start" x="127.75" y="-336.62" font-family="Helvetica,sans-Serif" font-size="10.00" fill="grey">min_expr</text>
</g>
<!-- Node4&#45;&gt;Node4 -->
<g id="edge4_Node000004_Node000004" class="edge">
<title>Node4&#45;&gt;Node4</title>
<g id="a_edge4_Node000004_Node000004"><a xlink:title=" ">
<path fill="none" stroke="#9a32cd" stroke-dasharray="5,2" d="M36.2,-352.56C38.63,-356.23 44.36,-358.75 53.38,-358.75 70.35,-358.75 75.65,-349.81 69.29,-341.15"/>
<polygon fill="#9a32cd" stroke="#9a32cd" points="39.68,-352.98 37.3,-342.65 32.72,-352.21 39.68,-352.98"/>
</a>
</g>
<text xml:space="preserve" text-anchor="start" x="28.62" y="-365" font-family="Helvetica,sans-Serif" font-size="10.00" fill="grey">sub_exprs</text>
</g>
<!-- Node5 -->
<g id="Node000005" class="node">
<title>Node5</title>
<g id="a_Node000005"><a xlink:href="structkest__parameter__id.html" target="_top" xlink:title=" ">
<polygon fill="white" stroke="#666666" points="106.75,-264.75 0,-264.75 0,-244 106.75,-244 106.75,-264.75"/>
<text xml:space="preserve" text-anchor="middle" x="53.38" y="-251.25" font-family="Helvetica,sans-Serif" font-size="10.00">kest_parameter_id</text>
</a>
</g>
</g>
<!-- Node5&#45;&gt;Node3 -->
<g id="edge5_Node000003_Node000005" class="edge">
<title>Node5&#45;&gt;Node3</title>
<g id="a_edge5_Node000003_Node000005"><a xlink:title=" ">
<path fill="none" stroke="#9a32cd" stroke-dasharray="5,2" d="M94.78,-268.96C135.77,-283.76 198.24,-306.32 234.97,-319.58"/>
<polygon fill="#9a32cd" stroke="#9a32cd" points="96.11,-265.72 85.51,-265.62 93.73,-272.3 96.11,-265.72"/>
</a>
</g>
<text xml:space="preserve" text-anchor="start" x="147.62" y="-305.43" font-family="Helvetica,sans-Serif" font-size="10.00" fill="grey">id</text>
</g>
<!-- Node14 -->
<g id="Node000014" class="node">
<title>Node14</title>
<g id="a_Node000014"><a xlink:href="structkest__setting__widget.html" target="_top" xlink:title=" ">
<polygon fill="white" stroke="#666666" points="749.12,-304.75 635.62,-304.75 635.62,-284 749.12,-284 749.12,-304.75"/>
<text xml:space="preserve" text-anchor="middle" x="692.38" y="-291.25" font-family="Helvetica,sans-Serif" font-size="10.00">kest_setting_widget</text>
</a>
</g>
</g>
<!-- Node5&#45;&gt;Node14 -->
<g id="edge17_Node000014_Node000005" class="edge">
<title>Node5&#45;&gt;Node14</title>
<g id="a_edge17_Node000014_Node000005"><a xlink:title=" ">
<path fill="none" stroke="#9a32cd" stroke-dasharray="5,2" d="M118.54,-255.17C209.71,-256.69 381.88,-261.08 528,-273.38 563.76,-276.38 603.73,-281.49 635.17,-285.91"/>
<polygon fill="#9a32cd" stroke="#9a32cd" points="118.6,-251.67 108.55,-255 118.49,-258.67 118.6,-251.67"/>
</a>
</g>
<text xml:space="preserve" text-anchor="start" x="370.25" y="-270.6" font-family="Helvetica,sans-Serif" font-size="10.00" fill="grey">id</text>
</g>
<!-- Node5&#45;&gt;Node19 -->
<g id="edge28_Node000019_Node000005" class="edge">
<title>Node5&#45;&gt;Node19</title>
<g id="a_edge28_Node000019_Node000005"><a xlink:title=" ">
<path fill="none" stroke="#9a32cd" stroke-dasharray="5,2" d="M89.44,-239.2C168.84,-205.77 369.23,-126.58 546,-99.38 573.67,-95.12 582.68,-89.81 609,-99.38 641.09,-111.04 669.39,-141.29 682.93,-157.59"/>
<polygon fill="#9a32cd" stroke="#9a32cd" points="88.29,-235.89 80.45,-243.01 91.02,-242.33 88.29,-235.89"/>
</a>
</g>
<text xml:space="preserve" text-anchor="start" x="370.25" y="-149.84" font-family="Helvetica,sans-Serif" font-size="10.00" fill="grey">id</text>
</g>
<!-- Node6 -->
<g id="Node000006" class="node">
<title>Node6</title>
<g id="a_Node000006"><a xlink:href="structkest__setting.html" target="_top" xlink:title=" ">
<polygon fill="white" stroke="#666666" points="509.25,-501.75 434,-501.75 434,-481 509.25,-481 509.25,-501.75"/>
<text xml:space="preserve" text-anchor="middle" x="471.62" y="-488.25" font-family="Helvetica,sans-Serif" font-size="10.00">kest_setting</text>
</a>
</g>
</g>
<!-- Node6&#45;&gt;Node2 -->
<g id="edge6_Node000002_Node000006" class="edge">
<title>Node6&#45;&gt;Node2</title>
<g id="a_edge6_Node000002_Node000006"><a xlink:title=" ">
<path fill="none" stroke="#9a32cd" stroke-dasharray="5,2" d="M521.14,-487.16C562.33,-483.58 620.42,-478.54 656.97,-475.36"/>
<polygon fill="#9a32cd" stroke="#9a32cd" points="520.9,-483.67 511.24,-488.02 521.51,-490.64 520.9,-483.67"/>
</a>
</g>
<text xml:space="preserve" text-anchor="start" x="549" y="-490.94" font-family="Helvetica,sans-Serif" font-size="10.00" fill="grey">band_mode</text>
</g>
<!-- Node6&#45;&gt;Node14 -->
<g id="edge18_Node000014_Node000006" class="edge">
<title>Node6&#45;&gt;Node14</title>
<g id="a_edge18_Node000014_Node000006"><a xlink:title=" ">
<path fill="none" stroke="#9a32cd" stroke-dasharray="5,2" d="M519.36,-475.48C522.58,-473.13 525.53,-470.45 528,-467.38 554.06,-435 520.36,-408.33 546,-375.62 565.05,-351.33 581.89,-361.14 609,-346.38 632.91,-333.35 659.33,-316.14 675.64,-305.16"/>
<polygon fill="#9a32cd" stroke="#9a32cd" points="517.8,-472.34 511.01,-480.47 521.39,-478.35 517.8,-472.34"/>
</a>
</g>
<text xml:space="preserve" text-anchor="start" x="560.62" y="-381.88" font-family="Helvetica,sans-Serif" font-size="10.00" fill="grey">setting</text>
</g>
<!-- Node7 -->
<g id="Node000007" class="node">
<title>Node7</title>
<g id="a_Node000007"><a xlink:href="structkest__setting__id.html" target="_top" xlink:title=" ">
<polygon fill="white" stroke="#666666" points="310.62,-506.75 221.12,-506.75 221.12,-486 310.62,-486 310.62,-506.75"/>
<text xml:space="preserve" text-anchor="middle" x="265.88" y="-493.25" font-family="Helvetica,sans-Serif" font-size="10.00">kest_setting_id</text>
</a>
</g>
</g>
<!-- Node7&#45;&gt;Node6 -->
<g id="edge7_Node000006_Node000007" class="edge">
<title>Node7&#45;&gt;Node6</title>
<g id="a_edge7_Node000006_Node000007"><a xlink:title=" ">
<path fill="none" stroke="#9a32cd" stroke-dasharray="5,2" d="M322.21,-495.02C357.61,-494.15 402.55,-493.05 433.66,-492.28"/>
<polygon fill="#9a32cd" stroke="#9a32cd" points="322.51,-491.51 312.6,-495.25 322.68,-498.51 322.51,-491.51"/>
</a>
</g>
<text xml:space="preserve" text-anchor="start" x="370.25" y="-500.42" font-family="Helvetica,sans-Serif" font-size="10.00" fill="grey">id</text>
</g>
<!-- Node8 -->
<g id="Node000008" class="node">
<title>Node8</title>
<g id="a_Node000008"><a xlink:href="structkest__setting__option.html" target="_top" xlink:title=" ">
<polygon fill="white" stroke="#666666" points="321.5,-464.75 210.25,-464.75 210.25,-444 321.5,-444 321.5,-464.75"/>
<text xml:space="preserve" text-anchor="middle" x="265.88" y="-451.25" font-family="Helvetica,sans-Serif" font-size="10.00">kest_setting_option</text>
</a>
</g>
</g>
<!-- Node8&#45;&gt;Node6 -->
<g id="edge8_Node000006_Node000008" class="edge">
<title>Node8&#45;&gt;Node6</title>
<g id="a_edge8_Node000006_Node000008"><a xlink:title=" ">
<path fill="none" stroke="#9a32cd" stroke-dasharray="5,2" d="M332.97,-460.64C353.66,-463.13 376.5,-466.42 397.25,-470.62 410.22,-473.25 424.26,-476.99 436.55,-480.58"/>
<polygon fill="#9a32cd" stroke="#9a32cd" points="333.57,-457.19 323.23,-459.52 332.76,-464.14 333.57,-457.19"/>
</a>
</g>
<text xml:space="preserve" text-anchor="start" x="356.75" y="-476.88" font-family="Helvetica,sans-Serif" font-size="10.00" fill="grey">options</text>
</g>
<!-- Node9&#45;&gt;Node2 -->
<g id="edge9_Node000002_Node000009" class="edge">
<title>Node9&#45;&gt;Node2</title>
<g id="a_edge9_Node000002_Node000009"><a xlink:title=" ">
<path fill="none" stroke="#9a32cd" stroke-dasharray="5,2" d="M518.57,-347.75C521.99,-350 525.19,-352.53 528,-355.38 542.56,-370.12 531.04,-384.04 546,-398.38 567.55,-419.02 582.16,-408.57 609,-421.62 633.47,-433.53 659.96,-450.69 676.11,-461.69"/>
<polygon fill="#9a32cd" stroke="#9a32cd" points="520.29,-344.71 509.85,-342.89 516.88,-350.82 520.29,-344.71"/>
</a>
</g>
<text xml:space="preserve" text-anchor="start" x="561.75" y="-427.88" font-family="Helvetica,sans-Serif" font-size="10.00" fill="grey">profile</text>
</g>
<!-- Node9&#45;&gt;Node14 -->
<g id="edge19_Node000014_Node000009" class="edge">
<title>Node9&#45;&gt;Node14</title>
<g id="a_edge19_Node000014_Node000009"><a xlink:title=" ">
<path fill="none" stroke="#9a32cd" stroke-dasharray="5,2" d="M519.61,-326.86C546,-323.98 579.46,-319.78 609,-314.38 622.75,-311.86 637.64,-308.45 650.93,-305.17"/>
<polygon fill="#9a32cd" stroke="#9a32cd" points="519.48,-323.35 509.91,-327.88 520.22,-330.31 519.48,-323.35"/>
</a>
</g>
<text xml:space="preserve" text-anchor="start" x="561.75" y="-329.62" font-family="Helvetica,sans-Serif" font-size="10.00" fill="grey">profile</text>
</g>
<!-- Node9&#45;&gt;Node19 -->
<g id="edge30_Node000019_Node000009" class="edge">
<title>Node9&#45;&gt;Node19</title>
<g id="a_edge30_Node000019_Node000009"><a xlink:title=" ">
<path fill="none" stroke="#9a32cd" stroke-dasharray="5,2" d="M518.48,-318.36C521.92,-316.35 525.15,-314.04 528,-311.38 542.48,-297.87 533.44,-285.93 546,-270.62 580.83,-228.16 637.51,-195.31 668.81,-179.24"/>
<polygon fill="#9a32cd" stroke="#9a32cd" points="517.24,-315.07 509.77,-322.59 520.29,-321.37 517.24,-315.07"/>
</a>
</g>
<text xml:space="preserve" text-anchor="start" x="561.75" y="-276.88" font-family="Helvetica,sans-Serif" font-size="10.00" fill="grey">profile</text>
</g>
<!-- Node10 -->
<g id="Node000010" class="node">
<title>Node10</title>
<g id="a_Node000010"><a xlink:href="structkest__pipeline.html" target="_top" xlink:title=" ">
<polygon fill="white" stroke="#666666" points="306.12,-420.75 225.62,-420.75 225.62,-400 306.12,-400 306.12,-420.75"/>
<text xml:space="preserve" text-anchor="middle" x="265.88" y="-407.25" font-family="Helvetica,sans-Serif" font-size="10.00">kest_pipeline</text>
</a>
</g>
</g>
<!-- Node10&#45;&gt;Node9 -->
<g id="edge10_Node000009_Node000010" class="edge">
<title>Node10&#45;&gt;Node9</title>
<g id="a_edge10_Node000009_Node000010"><a xlink:title=" ">
<path fill="none" stroke="#9a32cd" stroke-dasharray="5,2" d="M305.46,-395.41C345.51,-379.89 407.17,-355.98 442.73,-342.19"/>
<polygon fill="#9a32cd" stroke="#9a32cd" points="304.25,-392.13 296.19,-399.01 306.78,-398.66 304.25,-392.13"/>
</a>
</g>
<text xml:space="preserve" text-anchor="start" x="355.25" y="-381.85" font-family="Helvetica,sans-Serif" font-size="10.00" fill="grey">pipeline</text>
</g>
<!-- Node11 -->
<g id="Node000011" class="node">
<title>Node11</title>
<g id="a_Node000011"><a xlink:href="structkest__effect__desc.html" target="_top" xlink:title=" ">
<polygon fill="white" stroke="#666666" points="520.5,-594.75 422.75,-594.75 422.75,-574 520.5,-574 520.5,-594.75"/>
<text xml:space="preserve" text-anchor="middle" x="471.62" y="-581.25" font-family="Helvetica,sans-Serif" font-size="10.00">kest_effect_desc</text>
</a>
</g>
</g>
<!-- Node11&#45;&gt;Node2 -->
<g id="edge12_Node000002_Node000011" class="edge">
<title>Node11&#45;&gt;Node2</title>
<g id="a_edge12_Node000002_Node000011"><a xlink:title=" ">
<path fill="none" stroke="#9a32cd" stroke-dasharray="5,2" d="M532.08,-576.99C556.94,-572.17 585.47,-564.26 609,-551.38 641.15,-533.77 669.85,-500.35 683.3,-483.17"/>
<polygon fill="#9a32cd" stroke="#9a32cd" points="531.65,-573.51 522.43,-578.73 532.89,-580.4 531.65,-573.51"/>
</a>
</g>
<text xml:space="preserve" text-anchor="start" x="570.75" y="-579.78" font-family="Helvetica,sans-Serif" font-size="10.00" fill="grey">eff</text>
</g>
<!-- Node12 -->
<g id="Node000012" class="node">
<title>Node12</title>
<g id="a_Node000012"><a xlink:href="structkest__eff__resource__report.html" target="_top" xlink:title=" ">
<polygon fill="white" stroke="#666666" points="334.25,-622.75 197.5,-622.75 197.5,-602 334.25,-602 334.25,-622.75"/>
<text xml:space="preserve" text-anchor="middle" x="265.88" y="-609.25" font-family="Helvetica,sans-Serif" font-size="10.00">kest_eff_resource_report</text>
</a>
</g>
</g>
<!-- Node12&#45;&gt;Node11 -->
<g id="edge13_Node000011_Node000012" class="edge">
<title>Node12&#45;&gt;Node11</title>
<g id="a_edge13_Node000011_Node000012"><a xlink:title=" ">
<path fill="none" stroke="#9a32cd" stroke-dasharray="5,2" d="M346,-601.5C371.77,-597.96 399.59,-594.14 422.39,-591"/>
<polygon fill="#9a32cd" stroke="#9a32cd" points="345.65,-598.02 336.22,-602.85 346.6,-604.95 345.65,-598.02"/>
</a>
</g>
<text xml:space="preserve" text-anchor="start" x="357.88" y="-606.3" font-family="Helvetica,sans-Serif" font-size="10.00" fill="grey">res_rpt</text>
</g>
<!-- Node13 -->
<g id="Node000013" class="node">
<title>Node13</title>
<g id="a_Node000013"><a xlink:href="structkest__expr__scope.html" target="_top" xlink:title=" ">
<polygon fill="white" stroke="#666666" points="314.38,-563.75 217.38,-563.75 217.38,-543 314.38,-543 314.38,-563.75"/>
<text xml:space="preserve" text-anchor="middle" x="265.88" y="-550.25" font-family="Helvetica,sans-Serif" font-size="10.00">kest_expr_scope</text>
</a>
</g>
</g>
<!-- Node13&#45;&gt;Node2 -->
<g id="edge15_Node000002_Node000013" class="edge">
<title>Node13&#45;&gt;Node2</title>
<g id="a_edge15_Node000002_Node000013"><a xlink:title=" ">
<path fill="none" stroke="#9a32cd" stroke-dasharray="5,2" d="M326.2,-550.23C395.19,-545.47 512.02,-533.98 609,-507.38 630.58,-501.46 653.95,-491.12 670.26,-483.21"/>
<polygon fill="#9a32cd" stroke="#9a32cd" points="325.97,-546.74 316.23,-550.89 326.44,-553.72 325.97,-546.74"/>
</a>
</g>
<text xml:space="preserve" text-anchor="start" x="457.38" y="-547.91" font-family="Helvetica,sans-Serif" font-size="10.00" fill="grey">scope</text>
</g>
<!-- Node13&#45;&gt;Node11 -->
<g id="edge14_Node000011_Node000013" class="edge">
<title>Node13&#45;&gt;Node11</title>
<g id="a_edge14_Node000011_Node000013"><a xlink:title=" ">
<path fill="none" stroke="#9a32cd" stroke-dasharray="5,2" d="M325.93,-561.94C348.28,-565.22 373.95,-569.04 397.25,-572.62 405.41,-573.88 414.08,-575.24 422.49,-576.58"/>
<polygon fill="#9a32cd" stroke="#9a32cd" points="326.48,-558.48 316.07,-560.5 325.46,-565.41 326.48,-558.48"/>
</a>
</g>
<text xml:space="preserve" text-anchor="start" x="360.5" y="-578.88" font-family="Helvetica,sans-Serif" font-size="10.00" fill="grey">scope</text>
</g>
<!-- Node14&#45;&gt;Node1 -->
<g id="edge16_Node000001_Node000014" class="edge">
<title>Node14&#45;&gt;Node1</title>
<g id="a_edge16_Node000001_Node000014"><a xlink:title=" ">
<path fill="none" stroke="#9a32cd" stroke-dasharray="5,2" d="M760.6,-294.38C795.92,-294.38 839.09,-294.38 874.42,-294.38"/>
<polygon fill="#9a32cd" stroke="#9a32cd" points="760.94,-290.88 750.94,-294.38 760.94,-297.88 760.94,-290.88"/>
</a>
</g>
<text xml:space="preserve" text-anchor="start" x="787.75" y="-300.62" font-family="Helvetica,sans-Serif" font-size="10.00" fill="grey">band_mode</text>
</g>
<!-- Node15 -->
<g id="Node000015" class="node">
<title>Node15</title>
<g id="a_Node000015"><a xlink:href="structkest__ui__page.html" target="_top" xlink:title=" ">
<polygon fill="white" stroke="#666666" points="511.5,-20.75 431.75,-20.75 431.75,0 511.5,0 511.5,-20.75"/>
<text xml:space="preserve" text-anchor="middle" x="471.62" y="-7.25" font-family="Helvetica,sans-Serif" font-size="10.00">kest_ui_page</text>
</a>
</g>
</g>
<!-- Node15&#45;&gt;Node14 -->
<g id="edge20_Node000014_Node000015" class="edge">
<title>Node15&#45;&gt;Node14</title>
<g id="a_edge20_Node000014_Node000015"><a xlink:title=" ">
<path fill="none" stroke="#9a32cd" stroke-dasharray="5,2" d="M492.57,-28.2C526.01,-58.37 591.46,-118.75 609,-144.62 620.57,-161.69 617.66,-169 627,-187.38 645.56,-223.9 671.8,-264.82 684.27,-283.73"/>
<polygon fill="#9a32cd" stroke="#9a32cd" points="495.33,-25.98 485.56,-21.89 490.65,-31.18 495.33,-25.98"/>
</a>
</g>
<text xml:space="preserve" text-anchor="start" x="561.75" y="-150.88" font-family="Helvetica,sans-Serif" font-size="10.00" fill="grey">parent</text>
</g>
<!-- Node15&#45;&gt;Node15 -->
<g id="edge24_Node000015_Node000015" class="edge">
<title>Node15&#45;&gt;Node15</title>
<g id="a_edge24_Node000015_Node000015"><a xlink:title=" ">
<path fill="none" stroke="#9a32cd" stroke-dasharray="5,2" d="M454.78,-32.56C457.16,-36.23 462.78,-38.75 471.62,-38.75 488.28,-38.75 493.48,-29.81 487.23,-21.15"/>
<polygon fill="#9a32cd" stroke="#9a32cd" points="458.26,-32.97 455.85,-22.65 451.3,-32.22 458.26,-32.97"/>
</a>
</g>
<text xml:space="preserve" text-anchor="start" x="455.88" y="-45" font-family="Helvetica,sans-Serif" font-size="10.00" fill="grey">parent</text>
</g>
<!-- Node15&#45;&gt;Node19 -->
<g id="edge31_Node000019_Node000015" class="edge">
<title>Node15&#45;&gt;Node19</title>
<g id="a_edge31_Node000019_Node000015"><a xlink:title=" ">
<path fill="none" stroke="#9a32cd" stroke-dasharray="5,2" d="M522.76,-17.81C550.2,-23.78 583.67,-34.3 609,-52.62 648.57,-81.25 676.21,-134.84 686.7,-157.65"/>
<polygon fill="#9a32cd" stroke="#9a32cd" points="523.77,-14.45 513.28,-15.9 522.39,-21.31 523.77,-14.45"/>
</a>
</g>
<text xml:space="preserve" text-anchor="start" x="561.75" y="-58.88" font-family="Helvetica,sans-Serif" font-size="10.00" fill="grey">parent</text>
</g>
<!-- Node16 -->
<g id="Node000016" class="node">
<title>Node16</title>
<g id="a_Node000016"><a xlink:href="structkest__ui__page__panel.html" target="_top" xlink:title=" ">
<polygon fill="white" stroke="#666666" points="321.88,-55.75 209.88,-55.75 209.88,-35 321.88,-35 321.88,-55.75"/>
<text xml:space="preserve" text-anchor="middle" x="265.88" y="-42.25" font-family="Helvetica,sans-Serif" font-size="10.00">kest_ui_page_panel</text>
</a>
</g>
</g>
<!-- Node16&#45;&gt;Node15 -->
<g id="edge21_Node000015_Node000016" class="edge">
<title>Node16&#45;&gt;Node15</title>
<g id="a_edge21_Node000015_Node000016"><a xlink:title=" ">
<path fill="none" stroke="#9a32cd" stroke-dasharray="5,2" d="M333.48,-33.93C365.86,-28.37 403.67,-21.88 431.37,-17.12"/>
<polygon fill="#9a32cd" stroke="#9a32cd" points="333.04,-30.46 323.77,-35.6 334.22,-37.36 333.04,-30.46"/>
</a>
</g>
<text xml:space="preserve" text-anchor="start" x="361.25" y="-36.22" font-family="Helvetica,sans-Serif" font-size="10.00" fill="grey">panel</text>
</g>
<!-- Node17 -->
<g id="Node000017" class="node">
<title>Node17</title>
<g id="a_Node000017"><a xlink:href="structkest__button.html" target="_top" xlink:title=" ">
<polygon fill="white" stroke="#666666" points="89.88,-26.75 16.88,-26.75 16.88,-6 89.88,-6 89.88,-26.75"/>
<text xml:space="preserve" text-anchor="middle" x="53.38" y="-13.25" font-family="Helvetica,sans-Serif" font-size="10.00">kest_button</text>
</a>
</g>
</g>
<!-- Node17&#45;&gt;Node15 -->
<g id="edge25_Node000015_Node000017" class="edge">
<title>Node17&#45;&gt;Node15</title>
<g id="a_edge25_Node000015_Node000017"><a xlink:title=" ">
<path fill="none" stroke="#9a32cd" stroke-dasharray="5,2" d="M101.64,-12.76C129.52,-10.81 165.49,-8.6 197.5,-7.62 258.25,-5.77 273.48,-7.01 334.25,-7.62 367.05,-7.96 404.27,-8.73 431.54,-9.38"/>
<polygon fill="#9a32cd" stroke="#9a32cd" points="101.46,-9.26 91.74,-13.47 101.96,-16.24 101.46,-9.26"/>
</a>
</g>
<text xml:space="preserve" text-anchor="start" x="227.25" y="-13.88" font-family="Helvetica,sans-Serif" font-size="10.00" fill="grey">bottom_buttons</text>
</g>
<!-- Node17&#45;&gt;Node16 -->
<g id="edge22_Node000016_Node000017" class="edge">
<title>Node17&#45;&gt;Node16</title>
<g id="a_edge22_Node000016_Node000017"><a xlink:title=" ">
<path fill="none" stroke="#9a32cd" stroke-dasharray="5,2" d="M101.37,-22.85C133.39,-27.26 175.9,-33.12 209.56,-37.75"/>
<polygon fill="#9a32cd" stroke="#9a32cd" points="101.97,-19.4 91.58,-21.5 101.01,-26.33 101.97,-19.4"/>
</a>
</g>
<text xml:space="preserve" text-anchor="start" x="147.25" y="-56.47" font-family="Helvetica,sans-Serif" font-size="10.00" fill="grey">lb</text>
<text xml:space="preserve" text-anchor="start" x="147.25" y="-39.72" font-family="Helvetica,sans-Serif" font-size="10.00" fill="grey">rb</text>
</g>
<!-- Node17&#45;&gt;Node17 -->
<g id="edge23_Node000017_Node000017" class="edge">
<title>Node17&#45;&gt;Node17</title>
<g id="a_edge23_Node000017_Node000017"><a xlink:title=" ">
<path fill="none" stroke="#9a32cd" stroke-dasharray="5,2" d="M36.2,-38.56C38.63,-42.23 44.36,-44.75 53.38,-44.75 70.35,-44.75 75.65,-35.81 69.29,-27.15"/>
<polygon fill="#9a32cd" stroke="#9a32cd" points="39.68,-38.98 37.3,-28.65 32.72,-38.21 39.68,-38.98"/>
</a>
</g>
<text xml:space="preserve" text-anchor="start" x="23.75" y="-51" font-family="Helvetica,sans-Serif" font-size="10.00" fill="grey">sub_buttons</text>
</g>
<!-- Node18 -->
<g id="Node000018" class="node">
<title>Node18</title>
<g id="a_Node000018"><a xlink:href="structkest__representation.html" target="_top" xlink:title=" ">
<polygon fill="white" stroke="#666666" points="528,-302.75 415.25,-302.75 415.25,-282 528,-282 528,-302.75"/>
<text xml:space="preserve" text-anchor="middle" x="471.62" y="-289.25" font-family="Helvetica,sans-Serif" font-size="10.00">kest_representation</text>
</a>
</g>
</g>
<!-- Node18&#45;&gt;Node14 -->
<g id="edge26_Node000014_Node000018" class="edge">
<title>Node18&#45;&gt;Node14</title>
<g id="a_edge26_Node000014_Node000018"><a xlink:title=" ">
<path fill="none" stroke="#9a32cd" stroke-dasharray="5,2" d="M539.84,-292.99C570.43,-293.27 606.22,-293.6 635.33,-293.86"/>
<polygon fill="#9a32cd" stroke="#9a32cd" points="539.94,-289.49 529.9,-292.9 539.87,-296.49 539.94,-289.49"/>
</a>
</g>
<text xml:space="preserve" text-anchor="start" x="569.62" y="-299.86" font-family="Helvetica,sans-Serif" font-size="10.00" fill="grey">rep</text>
</g>
<!-- Node18&#45;&gt;Node19 -->
<g id="edge32_Node000019_Node000018" class="edge">
<title>Node18&#45;&gt;Node19</title>
<g id="a_edge32_Node000019_Node000018"><a xlink:title=" ">
<path fill="none" stroke="#9a32cd" stroke-dasharray="5,2" d="M485.39,-272.14C504,-242.94 537.32,-191.88 546,-186.62 569.93,-172.13 600.14,-166.72 626.81,-165.27"/>
<polygon fill="#9a32cd" stroke="#9a32cd" points="482.48,-270.19 480.08,-280.51 488.39,-273.94 482.48,-270.19"/>
</a>
</g>
<text xml:space="preserve" text-anchor="start" x="569.62" y="-192.88" font-family="Helvetica,sans-Serif" font-size="10.00" fill="grey">rep</text>
</g>
<!-- Node19&#45;&gt;Node1 -->
<g id="edge27_Node000001_Node000019" class="edge">
<title>Node19&#45;&gt;Node1</title>
<g id="a_edge27_Node000001_Node000019"><a xlink:title=" ">
<path fill="none" stroke="#9a32cd" stroke-dasharray="5,2" d="M724.73,-184.28C776.1,-210.34 876.86,-261.46 920.63,-283.66"/>
<polygon fill="#9a32cd" stroke="#9a32cd" points="726.4,-181.21 715.9,-179.8 723.24,-187.45 726.4,-181.21"/>
</a>
</g>
<text xml:space="preserve" text-anchor="start" x="778.75" y="-273.02" font-family="Helvetica,sans-Serif" font-size="10.00" fill="grey">band_hp_cutoff</text>
<text xml:space="preserve" text-anchor="start" x="778.75" y="-256.27" font-family="Helvetica,sans-Serif" font-size="10.00" fill="grey">band_lp_cutoff</text>
</g>
</g>
</svg>
