<?xml version="1.0" encoding="UTF-8" standalone="no"?>
<!DOCTYPE svg PUBLIC "-//W3C//DTD SVG 1.1//EN"
 "http://www.w3.org/Graphics/SVG/1.1/DTD/svg11.dtd">
<!-- Generated by graphviz version 13.1.2 (20250808.2320)
 -->
<!-- Title: kest_block Pages: 1 -->
<svg width="376pt" height="230pt"
 viewBox="0.00 0.00 376.00 230.00" xmlns="http://www.w3.org/2000/svg" xmlns:xlink="http://www.w3.org/1999/xlink">
<g id="graph0" class="graph" transform="scale(1 1) rotate(0) translate(4 226)">
<title>kest_block</title>
<!-- Node1 -->
<g id="Node000001" class="node">
<title>Node1</title>
<g id="a_Node000001"><a xlink:title=" ">
<polygon fill="#999999" stroke="#666666" points="219.25,-20.75 151.5,-20.75 151.5,0 219.25,0 219.25,-20.75"/>
<text xml:space="preserve" text-anchor="middle" x="185.38" y="-7.25" font-family="Helvetica,sans-Serif" font-size="10.00">kest_block</text>
</a>
</g>
</g>
<!-- Node2 -->
<g id="Node000002" class="node">
<title>Node2</title>
<g id="a_Node000002"><a xlink:href="structkest__block__operand.html" target="_top" xlink:title=" ">
<polygon fill="white" stroke="#666666" points="112.75,-129.75 0,-129.75 0,-109 112.75,-109 112.75,-129.75"/>
<text xml:space="preserve" text-anchor="middle" x="56.38" y="-116.25" font-family="Helvetica,sans-Serif" font-size="10.00">kest_block_operand</text>
</a>
</g>
</g>
<!-- Node2&#45;&gt;Node1 -->
<g id="edge1_Node000001_Node000002" class="edge">
<title>Node2&#45;&gt;Node1</title>
<g id="a_edge1_Node000001_Node000002"><a xlink:title=" ">
<path fill="none" stroke="#9a32cd" stroke-dasharray="5,2" d="M75.55,-101.02C93.91,-84.59 122.56,-59.42 148.38,-38.75 155.98,-32.66 164.74,-26.15 171.83,-21.02"/>
<polygon fill="#9a32cd" stroke="#9a32cd" points="73.41,-98.24 68.32,-107.53 78.09,-103.44 73.41,-98.24"/>
</a>
</g>
<text xml:space="preserve" text-anchor="start" x="151.38" y="-78.5" font-family="Helvetica,sans-Serif" font-size="10.00" fill="grey">arg_a</text>
<text xml:space="preserve" text-anchor="start" x="151.38" y="-61.75" font-family="Helvetica,sans-Serif" font-size="10.00" fill="grey">arg_b</text>
<text xml:space="preserve" text-anchor="start" x="151.38" y="-45" font-family="Helvetica,sans-Serif" font-size="10.00" fill="grey">arg_c</text>
</g>
<!-- Node3 -->
<g id="Node000003" class="node">
<title>Node3</title>
<g id="a_Node000003"><a xlink:href="structkest__block__reg__val.html" target="_top" xlink:title=" ">
<polygon fill="white" stroke="#666666" points="239.88,-129.75 130.88,-129.75 130.88,-109 239.88,-109 239.88,-129.75"/>
<text xml:space="preserve" text-anchor="middle" x="185.38" y="-116.25" font-family="Helvetica,sans-Serif" font-size="10.00">kest_block_reg_val</text>
</a>
</g>
</g>
<!-- Node3&#45;&gt;Node1 -->
<g id="edge2_Node000001_Node000003" class="edge">
<title>Node3&#45;&gt;Node1</title>
<g id="a_edge2_Node000001_Node000003"><a xlink:title=" ">
<path fill="none" stroke="#9a32cd" stroke-dasharray="5,2" d="M185.38,-97.23C185.38,-74.22 185.38,-38.41 185.38,-21.23"/>
<polygon fill="#9a32cd" stroke="#9a32cd" points="181.88,-96.99 185.38,-106.99 188.88,-96.99 181.88,-96.99"/>
</a>
</g>
<text xml:space="preserve" text-anchor="start" x="188.38" y="-70.12" font-family="Helvetica,sans-Serif" font-size="10.00" fill="grey">reg_0</text>
<text xml:space="preserve" text-anchor="start" x="188.38" y="-53.38" font-family="Helvetica,sans-Serif" font-size="10.00" fill="grey">reg_1</text>
</g>
<!-- Node4 -->
<g id="Node000004" class="node">
<title>Node4</title>
<g id="a_Node000004"><a xlink:href="structkest__expression.html" target="_top" xlink:title=" ">
<polygon fill="white" stroke="#666666" points="294.75,-222 200,-222 200,-201.25 294.75,-201.25 294.75,-222"/>
<text xml:space="preserve" text-anchor="middle" x="247.38" y="-208.5" font-family="Helvetica,sans-Serif" font-size="10.00">kest_expression</text>
</a>
</g>
</g>
<!-- Node4&#45;&gt;Node3 -->
<g id="edge3_Node000003_Node000004" class="edge">
<title>Node4&#45;&gt;Node3</title>
<g id="a_edge3_Node000003_Node000004"><a xlink:title=" ">
<path fill="none" stroke="#9a32cd" stroke-dasharray="5,2" d="M234.33,-191.64C221.45,-172.88 202.25,-144.94 192.15,-130.24"/>
<polygon fill="#9a32cd" stroke="#9a32cd" points="231.34,-193.46 239.88,-199.72 237.11,-189.49 231.34,-193.46"/>
</a>
</g>
<text xml:space="preserve" text-anchor="start" x="230.32" y="-162.38" font-family="Helvetica,sans-Serif" font-size="10.00" fill="grey">expr</text>
</g>
<!-- Node4&#45;&gt;Node4 -->
<g id="edge4_Node000004_Node000004" class="edge">
<title>Node4&#45;&gt;Node4</title>
<g id="a_edge4_Node000004_Node000004"><a xlink:title=" ">
<path fill="none" stroke="#9a32cd" stroke-dasharray="5,2" d="M306.15,-217.92C310.25,-216.48 312.75,-214.39 312.75,-211.62 312.75,-206.85 305.28,-204.05 294.97,-203.23"/>
<polygon fill="#9a32cd" stroke="#9a32cd" points="305.65,-214.46 296.46,-219.74 306.94,-221.34 305.65,-214.46"/>
</a>
</g>
<text xml:space="preserve" text-anchor="start" x="315.75" y="-208.5" font-family="Helvetica,sans-Serif" font-size="10.00" fill="grey">sub_exprs</text>
</g>
<!-- Node5 -->
<g id="Node000005" class="node">
<title>Node5</title>
<g id="a_Node000005"><a xlink:href="structkest__dsp__resource.html" target="_top" xlink:title=" ">
<polygon fill="white" stroke="#666666" points="364.38,-129.75 258.38,-129.75 258.38,-109 364.38,-109 364.38,-129.75"/>
<text xml:space="preserve" text-anchor="middle" x="311.38" y="-116.25" font-family="Helvetica,sans-Serif" font-size="10.00">kest_dsp_resource</text>
</a>
</g>
</g>
<!-- Node4&#45;&gt;Node5 -->
<g id="edge6_Node000005_Node000004" class="edge">
<title>Node4&#45;&gt;Node5</title>
<g id="a_edge6_Node000005_Node000004"><a xlink:title=" ">
<path fill="none" stroke="#9a32cd" stroke-dasharray="5,2" d="M260.84,-191.64C274.14,-172.88 293.95,-144.94 304.38,-130.24"/>
<polygon fill="#9a32cd" stroke="#9a32cd" points="258.03,-189.55 255.1,-199.73 263.74,-193.6 258.03,-189.55"/>
</a>
</g>
<text xml:space="preserve" text-anchor="start" x="293.67" y="-170.75" font-family="Helvetica,sans-Serif" font-size="10.00" fill="grey">delay</text>
<text xml:space="preserve" text-anchor="start" x="293.67" y="-154" font-family="Helvetica,sans-Serif" font-size="10.00" fill="grey">size</text>
</g>
<!-- Node5&#45;&gt;Node1 -->
<g id="edge5_Node000001_Node000005" class="edge">
<title>Node5&#45;&gt;Node1</title>
<g id="a_edge5_Node000001_Node000005"><a xlink:title=" ">
<path fill="none" stroke="#9a32cd" stroke-dasharray="5,2" d="M292.96,-100.98C275.26,-84.49 247.56,-59.26 222.38,-38.75 214.94,-32.7 206.35,-26.3 199.31,-21.22"/>
<polygon fill="#9a32cd" stroke="#9a32cd" points="290.44,-103.42 300.13,-107.7 295.23,-98.31 290.44,-103.42"/>
</a>
</g>
<text xml:space="preserve" text-anchor="start" x="283.23" y="-61.75" font-family="Helvetica,sans-Serif" font-size="10.00" fill="grey">res</text>
</g>
</g>
</svg>
