<?xml version="1.0" encoding="UTF-8" standalone="no"?>
<!DOCTYPE svg PUBLIC "-//W3C//DTD SVG 1.1//EN"
 "http://www.w3.org/Graphics/SVG/1.1/DTD/svg11.dtd">
<!-- Generated by graphviz version 13.1.2 (20250808.2320)
 -->
<!-- Title: kest_asm_instr Pages: 1 -->
<svg width="198pt" height="272pt"
 viewBox="0.00 0.00 198.00 272.00" xmlns="http://www.w3.org/2000/svg" xmlns:xlink="http://www.w3.org/1999/xlink">
<g id="graph0" class="graph" transform="scale(1 1) rotate(0) translate(4 268)">
<title>kest_asm_instr</title>
<!-- Node1 -->
<g id="Node000001" class="node">
<title>Node1</title>
<g id="a_Node000001"><a xlink:title=" ">
<polygon fill="#999999" stroke="#666666" points="98.5,-20.75 9,-20.75 9,0 98.5,0 98.5,-20.75"/>
<text xml:space="preserve" text-anchor="middle" x="53.75" y="-7.25" font-family="Helvetica,sans-Serif" font-size="10.00">kest_asm_instr</text>
</a>
</g>
</g>
<!-- Node2 -->
<g id="Node000002" class="node">
<title>Node2</title>
<g id="a_Node000002"><a xlink:href="structkest__asm__operand.html" target="_top" xlink:title=" ">
<polygon fill="white" stroke="#666666" points="107.5,-96.25 0,-96.25 0,-75.5 107.5,-75.5 107.5,-96.25"/>
<text xml:space="preserve" text-anchor="middle" x="53.75" y="-82.75" font-family="Helvetica,sans-Serif" font-size="10.00">kest_asm_operand</text>
</a>
</g>
</g>
<!-- Node2&#45;&gt;Node1 -->
<g id="edge1_Node000001_Node000002" class="edge">
<title>Node2&#45;&gt;Node1</title>
<g id="a_edge1_Node000001_Node000002"><a xlink:title=" ">
<path fill="none" stroke="#9a32cd" stroke-dasharray="5,2" d="M53.75,-63.76C53.75,-49.76 53.75,-32.05 53.75,-21.22"/>
<polygon fill="#9a32cd" stroke="#9a32cd" points="50.25,-63.75 53.75,-73.75 57.25,-63.75 50.25,-63.75"/>
</a>
</g>
<text xml:space="preserve" text-anchor="start" x="56.75" y="-45" font-family="Helvetica,sans-Serif" font-size="10.00" fill="grey">args</text>
</g>
<!-- Node3 -->
<g id="Node000003" class="node">
<title>Node3</title>
<g id="a_Node000003"><a xlink:href="structkest__expression.html" target="_top" xlink:title=" ">
<polygon fill="white" stroke="#666666" points="101.12,-264 6.38,-264 6.38,-243.25 101.12,-243.25 101.12,-264"/>
<text xml:space="preserve" text-anchor="middle" x="53.75" y="-250.5" font-family="Helvetica,sans-Serif" font-size="10.00">kest_expression</text>
</a>
</g>
</g>
<!-- Node3&#45;&gt;Node2 -->
<g id="edge2_Node000002_Node000003" class="edge">
<title>Node3&#45;&gt;Node2</title>
<g id="a_edge2_Node000002_Node000003"><a xlink:title=" ">
<path fill="none" stroke="#9a32cd" stroke-dasharray="5,2" d="M50.9,-231.68C48.46,-211.14 45.53,-178.93 47,-151 48.02,-131.55 50.77,-108.91 52.43,-96.41"/>
<polygon fill="#9a32cd" stroke="#9a32cd" points="47.4,-231.84 52.13,-241.32 54.34,-230.96 47.4,-231.84"/>
</a>
</g>
<text xml:space="preserve" text-anchor="start" x="50" y="-158.25" font-family="Helvetica,sans-Serif" font-size="10.00" fill="grey">expr</text>
</g>
<!-- Node3&#45;&gt;Node3 -->
<g id="edge3_Node000003_Node000003" class="edge">
<title>Node3&#45;&gt;Node3</title>
<g id="a_edge3_Node000003_Node000003"><a xlink:title=" ">
<path fill="none" stroke="#9a32cd" stroke-dasharray="5,2" d="M112.53,-259.92C116.63,-258.48 119.12,-256.39 119.12,-253.62 119.12,-248.85 111.65,-246.05 101.35,-245.23"/>
<polygon fill="#9a32cd" stroke="#9a32cd" points="112.02,-256.46 102.84,-261.74 113.31,-263.34 112.02,-256.46"/>
</a>
</g>
<text xml:space="preserve" text-anchor="start" x="122.12" y="-250.5" font-family="Helvetica,sans-Serif" font-size="10.00" fill="grey">sub_exprs</text>
</g>
<!-- Node4 -->
<g id="Node000004" class="node">
<title>Node4</title>
<g id="a_Node000004"><a xlink:href="structkest__dsp__resource.html" target="_top" xlink:title=" ">
<polygon fill="white" stroke="#666666" points="189.75,-171.75 83.75,-171.75 83.75,-151 189.75,-151 189.75,-171.75"/>
<text xml:space="preserve" text-anchor="middle" x="136.75" y="-158.25" font-family="Helvetica,sans-Serif" font-size="10.00">kest_dsp_resource</text>
</a>
</g>
</g>
<!-- Node3&#45;&gt;Node4 -->
<g id="edge5_Node000004_Node000003" class="edge">
<title>Node3&#45;&gt;Node4</title>
<g id="a_edge5_Node000004_Node000003"><a xlink:title=" ">
<path fill="none" stroke="#9a32cd" stroke-dasharray="5,2" d="M70.26,-234.67C87.5,-215.92 113.91,-187.21 127.68,-172.24"/>
<polygon fill="#9a32cd" stroke="#9a32cd" points="67.85,-232.12 63.66,-241.85 73,-236.86 67.85,-232.12"/>
</a>
</g>
<text xml:space="preserve" text-anchor="start" x="112.9" y="-212.75" font-family="Helvetica,sans-Serif" font-size="10.00" fill="grey">delay</text>
<text xml:space="preserve" text-anchor="start" x="112.9" y="-196" font-family="Helvetica,sans-Serif" font-size="10.00" fill="grey">size</text>
</g>
<!-- Node4&#45;&gt;Node2 -->
<g id="edge4_Node000002_Node000004" class="edge">
<title>Node4&#45;&gt;Node2</title>
<g id="a_edge4_Node000002_Node000004"><a xlink:title=" ">
<path fill="none" stroke="#9a32cd" stroke-dasharray="5,2" d="M117.6,-143.42C101.27,-128.95 78.34,-108.65 64.87,-96.72"/>
<polygon fill="#9a32cd" stroke="#9a32cd" points="114.96,-145.75 124.77,-149.76 119.6,-140.51 114.96,-145.75"/>
</a>
</g>
<text xml:space="preserve" text-anchor="start" x="108.13" y="-120.5" font-family="Helvetica,sans-Serif" font-size="10.00" fill="grey">res</text>
</g>
</g>
</svg>
